<?xml version="1.0" encoding="UTF-8" standalone="no"?>
<!-- Created with Inkscape (http://www.inkscape.org/) -->

<svg
   width="1000"
   height="1000"
   viewBox="0 0 264.58333 264.58333"
   version="1.1"
   id="svg5"
   xml:space="preserve"
   xmlns="http://www.w3.org/2000/svg"
   xmlns:svg="http://www.w3.org/2000/svg"><defs
     id="defs2" /><g
     id="layer1"><rect
       style="fill:#d40000;stroke-width:0.385668;stroke-linecap:round;stroke-linejoin:round"
       id="rect403"
       width="264.58334"
       height="264.58334"
       x="0"
       y="-7.1054274e-15" /><rect
       style="fill:#ffffff;stroke-width:2.02254;stroke-linecap:round;stroke-linejoin:round"
       id="rect612"
       width="190.5"
       height="190.5"
       x="37.041668"
       y="37.041668" /><g
       aria-label="CCCB/W"
       id="text560"
       style="font-size:43.4101px;line-height:1.25;fill:#d40000;stroke-width:0.226094"
       transform="translate(30.691667,30.691667)"><path
         d="m 40.903204,22.363068 c -0.21705,-2.734836 -0.781381,-4.47124 -2.127094,-6.251054 -2.430966,-3.212348 -6.337875,-4.992162 -11.069576,-4.992162 -8.94248,0 -14.498973,6.381285 -14.498973,16.626068 0,10.201373 5.513083,16.539248 14.325333,16.539248 7.900638,0 13.10985,-4.558061 13.500541,-11.807547 H 34.69556 c -0.434101,4.037139 -2.951887,6.337874 -6.989026,6.337874 -5.035571,0 -7.987458,-4.080549 -7.987458,-10.982755 0,-6.989026 3.082117,-11.156395 8.204509,-11.156395 3.776678,0 5.903773,1.823224 6.771975,5.686723 z"
         style="font-weight:bold;font-family:'Nimbus Sans';-inkscape-font-specification:'Nimbus Sans Bold';fill:#d40000"
         id="path695" /><path
         d="m 71.941431,22.363068 c -0.21705,-2.734836 -0.781381,-4.47124 -2.127094,-6.251054 -2.430966,-3.212348 -6.337875,-4.992162 -11.069576,-4.992162 -8.94248,0 -14.498973,6.381285 -14.498973,16.626068 0,10.201373 5.513083,16.539248 14.325333,16.539248 7.900638,0 13.10985,-4.558061 13.500541,-11.807547 h -6.337875 c -0.434101,4.037139 -2.951886,6.337874 -6.989026,6.337874 -5.035571,0 -7.987458,-4.080549 -7.987458,-10.982755 0,-6.989026 3.082117,-11.156395 8.204509,-11.156395 3.776678,0 5.903773,1.823224 6.771975,5.686723 z"
         style="font-weight:bold;font-family:'Nimbus Sans';-inkscape-font-specification:'Nimbus Sans Bold';fill:#d40000"
         id="path697" /><path
         d="m 102.97966,22.363068 c -0.21705,-2.734836 -0.78138,-4.47124 -2.1271,-6.251054 -2.430962,-3.212348 -6.337871,-4.992162 -11.069572,-4.992162 -8.94248,0 -14.498973,6.381285 -14.498973,16.626068 0,10.201373 5.513083,16.539248 14.325333,16.539248 7.900638,0 13.109852,-4.558061 13.500542,-11.807547 h -6.337876 c -0.434101,4.037139 -2.951886,6.337874 -6.989026,6.337874 -5.035571,0 -7.987458,-4.080549 -7.987458,-10.982755 0,-6.989026 3.082117,-11.156395 8.204509,-11.156395 3.776679,0 5.903773,1.823224 6.771975,5.686723 z"
         style="font-weight:bold;font-family:'Nimbus Sans';-inkscape-font-specification:'Nimbus Sans Bold';fill:#d40000"
         id="path699" /><path
         d="m 108.27569,43.286736 h 14.23852 c 3.64644,0 6.07741,-0.694562 7.98745,-2.300736 1.91005,-1.606173 3.12553,-4.254189 3.12553,-6.815385 0,-3.125527 -1.64958,-5.599903 -5.25262,-7.683588 3.12553,-1.996864 4.34101,-3.820089 4.34101,-6.511515 0,-2.213915 -1.08525,-4.47124 -2.86507,-6.034003 -1.86663,-1.606174 -4.08055,-2.300736 -7.46653,-2.300736 h -14.10829 z m 6.51152,-26.2197 h 7.07584 c 3.03871,0 4.60148,1.215482 4.60148,3.559628 0,2.387555 -1.56277,3.603038 -4.60148,3.603038 h -7.07584 z m 0,12.588928 h 7.77041 c 3.16893,0 4.81852,1.389124 4.81852,4.12396 0,2.691426 -1.64959,4.080549 -4.81852,4.080549 h -7.77041 z"
         style="font-weight:bold;font-family:'Nimbus Sans';-inkscape-font-specification:'Nimbus Sans Bold';fill:#d40000"
         id="path701" /><path
         d="m 145.08747,12.291925 -8.94248,31.602552 h 2.90847 l 8.94248,-31.602552 z"
         style="font-weight:bold;font-family:'Nimbus Sans';-inkscape-font-specification:'Nimbus Sans Bold';fill:#d40000"
         id="path703" /><path
         d="m 181.03102,43.286736 8.76884,-31.645963 h -6.90221 l -4.7317,23.745325 -5.12239,-23.745325 h -6.4247 l -4.90534,23.701914 -4.90534,-23.701914 h -6.9022 l 8.94248,31.645963 h 5.86036 l 5.1658,-24.700347 5.29603,24.700347 z"
         style="font-weight:bold;font-family:'Nimbus Sans';-inkscape-font-specification:'Nimbus Sans Bold';fill:#d40000"
         id="path705" /></g><rect
       style="fill:#d40000;stroke-width:0.594539;stroke-linecap:round;stroke-linejoin:round"
       id="rect636-1"
       width="180.97501"
       height="141.28751"
       x="41.804169"
       y="81.460777" /><path
       style="fill:#ffffff;stroke-width:0.308206"
       d="m 132.12733,208.10465 c 2.02481,-1.15215 2.13899,-1.21796 3.05878,-3.90783 0.11159,-1.47623 0.0368,-2.73514 -0.20633,-3.47191 -0.70596,-2.13908 -4.14881,-2.79343 -5.62547,-2.58763 -0.67794,0.0945 -0.0862,-3.06971 -0.14085,-5.60415 l -0.0565,-2.61974 5.06471,-4.55019 3.8319,-3.31735 14.88753,0.63086 14.88752,0.0143 2.31694,4.16598 1.70052,3.54956 -2.2081,1.03409 c -1.59002,0.74463 -1.21577,1.52323 -0.9415,3.35221 0.36676,2.4457 1.31355,3.26972 3.72373,4.22989 1.29671,0.51659 10.44087,0.21949 12.4767,-0.32091 2.172,-0.57654 2.92831,-1.76321 3.03388,-3.69147 -0.0401,-1.72406 -0.13487,-2.26624 -1.59303,-3.82215 -0.71393,-0.76178 -1.41045,-1.09115 -2.89882,-1.17725 -1.16492,-0.0674 -1.76922,-1.78354 -5.26484,-9.52273 -3.00625,-6.6557 -7.00175,-15.42821 -8.24821,-18.10977 -0.57828,-1.24409 -1.05143,-2.31676 -1.05143,-2.3837 0,-0.067 -0.42443,-0.99076 -0.9432,-2.05292 -0.54962,-1.12534 -0.96154,-2.00492 -1.08529,-2.95802 -0.41706,-3.21219 -4.10647,-7.62736 -6.75538,-7.76656 -1.13219,-0.0595 -3.80467,-2.62248 -5.01876,-4.24073 -0.72615,-0.96788 -1.1846,-1.6788 -1.77218,-2.33319 -0.58758,-0.65439 -1.06833,-1.36366 -1.06833,-1.57617 0,-0.21249 0.58945,-2.00881 1.30988,-2.48501 0.72044,-0.47621 1.83558,-1.21128 2.4781,-1.63351 1.47281,-0.96781 2.8004,-2.47189 3.6476,-4.13253 0.58951,-1.15553 0.0575,-1.31967 0.18578,-6.80362 0.15706,-6.7138 -0.0377,-5.98488 -1.7406,-8.16004 -0.83823,-1.07074 -1.70268,-1.28864 -5.43417,-2.66087 -1.19523,-0.43953 -3.76105,-1.82698 -5.70182,-3.08321 -11.24776,-7.28053 -10.95986,-7.11255 -12.62263,-7.36474 -0.59225,-0.0898 -4.82924,-0.20177 -10.16892,-0.24876 -7.52083,-0.0662 -9.36985,0.008 -10.32491,0.33073 -1.36396,0.46055 -5.11319,2.50698 -10.8321,6.36698 -2.99569,2.02195 -4.963933,3.33941 -7.384856,4.12643 -3.886079,1.26332 -4.417681,1.86308 -5.661709,3.27996 -1.997457,2.27498 -1.659608,2.33072 -1.541595,6.79328 -0.0058,5.43303 0.06698,6.38777 0.579257,7.58279 0.800921,1.86847 1.398467,1.94128 4.325039,4.08182 1.367236,1.00001 2.516233,1.84422 2.485889,3.30281 -0.03075,1.48021 -0.429932,2.18252 -1.708801,3.78891 -2.082469,2.61582 -3.046508,3.53713 -3.946175,3.53713 -1.610357,0 -2.792285,0.79921 -4.703751,2.86382 -1.992564,2.1522 -2.838589,3.20248 -3.112509,5.51523 -0.129138,1.09037 -0.967465,3.21943 -2.63942,6.70319 -1.347597,2.8079 -3.042943,6.42287 -3.76746,8.03324 -1.645176,3.65678 -3.583992,7.79397 -6.374833,13.6031 -2.096669,4.3642 -3.135481,7.04042 -3.606774,7.07584 -1.185023,0.0891 -4.179208,0.0248 -5.142809,3.23908 -0.894839,2.98489 0.07593,3.80057 3.079743,4.89668 1.041986,0.38024 2.760162,0.47277 4.954735,0.51551 2.863425,0.0558 5.738767,0.0413 7.292918,-0.50654 0.679886,-0.23971 1.641746,-0.79201 2.015771,-1.40145 1.05725,-1.72271 0.970043,-2.80381 0.522489,-4.11048 -0.320464,-0.93561 -1.828871,-1.14287 -2.100076,-2.09579 -0.407933,-1.43333 1.536564,-5.0668 1.536564,-5.0668 l 1.835592,-3.34336 15.616899,-0.22122 14.403492,0.18702 4.80745,4.44834 c 1.6379,1.51553 3.891,3.64827 4.31186,3.92403 0.71249,0.46684 0.14877,3.14225 0.14877,5.51101 v 2.54398 l -1.00911,0.16376 c -1.51426,0.24573 -3.12957,0.0919 -4.11811,1.5179 -0.76198,1.09917 -1.51383,1.00239 -1.60601,3.18049 -0.11903,2.8126 1.39146,3.21972 3.23769,4.52523 1.07432,0.75967 4.36406,0.76493 6.49595,0.74694 3.73413,0.13821 7.26421,0.0688 9.87369,-0.0298 z M 117.80865,205.138 c -0.98452,-0.28484 -2.25389,-1.5689 -2.25389,-2.27996 0,-0.20855 0.29543,-0.75476 0.65651,-1.2138 0.63841,-0.8116 0.71808,-0.82884 2.88961,-0.62536 1.29659,0.12151 2.30766,0.0887 2.41087,-0.0784 0.25688,-0.41565 0.57753,-11.42441 0.35332,-12.13081 -0.10367,-0.32678 -2.40725,-2.5953 -5.11895,-5.04112 l -4.93038,-4.44698 -2.98474,-0.10379 c -5.50084,-0.19127 -22.358706,-0.17844 -26.408427,0.02 l -4.006676,0.19644 -0.703805,1.38692 c -2.169521,4.27534 -4.707665,10.00498 -4.624505,10.43945 0.06954,0.36324 0.477995,0.51866 1.478726,0.56262 2.324507,0.10216 3.305576,2.15944 1.650581,3.46127 -0.743062,0.58448 -1.221126,0.63863 -5.624771,0.63705 -2.646979,-9.2e-4 -5.3281,-0.14486 -5.958064,-0.31981 -2.16754,-0.602 -2.645197,-1.76409 -1.315038,-3.19935 0.716025,-0.77262 0.901158,-0.82138 2.404755,-0.63352 1.211585,0.15138 1.720065,0.0938 1.984375,-0.22467 0.343358,-0.41372 3.840521,-7.37921 5.925308,-11.80176 0.559361,-1.18659 1.913958,-4.0298 3.010198,-6.31823 7.073814,-14.76662 8.090469,-17.03564 8.090469,-18.05654 0,-1.56584 0.64724,-2.86843 2.238784,-4.50562 1.194847,-1.22913 1.644733,-1.48123 2.952945,-1.65478 0.848832,-0.11264 1.909322,-0.43093 2.356646,-0.7074 0.447311,-0.27647 2.187028,-2.16698 3.866031,-4.20114 2.9734,-3.60237 3.052973,-3.73933 3.062012,-5.27057 0.01817,-3.06729 -0.02574,-3.11987 -6.417747,-7.6941 -1.333338,-0.95416 -1.586338,-2.179 -1.586338,-7.67979 v -5.09983 l 1.001676,-1.06213 c 0.740767,-0.78549 1.884697,-1.39332 4.391937,-2.33367 3.247682,-1.21806 5.484018,-2.50992 15.180528,-8.7693 l 2.38724,-1.54102 9.7085,-0.0904 c 5.33967,-0.0497 9.99369,-0.0192 10.34226,0.0679 0.5485,0.13707 5.63875,3.27979 12.42575,7.67166 1.09542,0.70885 3.72491,1.98228 5.84331,2.82986 5.21129,2.08503 5.12269,1.9491 5.18847,7.95916 0.0775,7.07678 0.10682,7.01034 -4.51718,10.225 -2.81615,1.95784 -3.32974,2.68452 -3.54048,5.00931 l -0.16882,1.86245 1.71198,2.26595 c 3.9028,5.16563 5.6064,6.73147 7.32618,6.73377 1.26231,0.001 2.4887,0.74086 3.71776,2.24076 1.28972,1.57393 1.73759,2.64538 1.73759,4.15685 0,0.70658 0.61214,2.42571 1.66646,4.68008 0.91655,1.9598 3.01442,6.47581 4.66192,10.03559 8.08842,17.47673 10.07233,21.60576 10.55727,21.97237 0.36064,0.27265 1.02154,0.33604 2.09945,0.20136 1.46355,-0.18286 1.6202,-0.13669 2.24905,0.66275 0.84859,1.0788 0.73725,1.88549 -0.37457,2.71373 -0.77997,0.58105 -1.36389,0.65761 -5.70181,0.74772 -6.2296,0.12939 -7.76081,-0.33086 -7.76081,-2.33277 0,-1.09107 0.78534,-1.73024 2.34676,-1.90998 1.04033,-0.11975 1.52779,-0.32427 1.59362,-0.66862 0.0848,-0.44379 -4.90374,-11.52252 -5.42369,-12.04503 -0.11651,-0.11708 -7.56447,-0.31149 -16.55102,-0.43203 l -16.33921,-0.21916 -1.4459,1.25141 c -0.79525,0.68829 -3.16734,2.79131 -5.27134,4.67339 l -3.82542,3.42195 -1.6e-4,5.8493 c -1.1e-4,3.83094 0.1187,6.00767 0.34429,6.30823 0.33936,0.45212 0.87763,0.51023 3.54365,0.3825 1.15684,-0.0555 1.44251,0.0586 1.99701,0.797 0.59615,0.79392 0.6107,0.92726 0.18482,1.69514 -0.9192,1.65742 -2.03007,1.91405 -8.15489,1.88389 -3.05124,-0.015 -5.98973,-0.1552 -6.52999,-0.31152 z m 4.11323,-23.00762 -0.0489,-2.69602 -3.23617,-0.0705 -3.23616,-0.0705 3.07454,2.89656 c 1.691,1.5931 3.16929,2.838 3.28507,2.76646 0.11578,-0.0715 0.1885,-1.34331 0.16161,-2.82613 z m 10.89244,-2.59168 c 0,-0.14214 -1.37509,-0.25844 -3.05576,-0.25844 h -3.05577 l -0.10332,1.92629 c -0.0568,1.05946 -0.0598,2.37803 -0.007,2.93017 l 0.0968,1.00387 3.06236,-2.67172 c 1.68429,-1.46944 3.06236,-2.78802 3.06236,-2.93017 z m 34.82732,-4.56222 c 0,-0.49033 -2.87656,-6.79165 -3.10041,-6.79165 -0.22533,0 -4.91296,6.57912 -4.91296,6.89537 0,0.10636 1.80302,0.19337 4.00669,0.19337 2.36576,0 4.00668,-0.12167 4.00668,-0.29709 z m -78.901371,-0.407 c 9.2e-4,-0.37416 -4.436983,-6.66841 -4.710775,-6.68137 -0.254362,-0.012 -3.302044,6.28172 -3.302044,6.81905 0,0.19806 1.451816,0.2732 4.006141,0.20736 2.203371,-0.0568 4.006387,-0.21206 4.006678,-0.34504 z m 31.035591,-0.20008 c 2.00169,-1.23449 2.09275,-1.6089 2.13794,-8.78999 0.0358,-5.69347 -0.0129,-6.40999 -0.39919,-5.8695 -1.22275,1.71092 -8.7377,14.62988 -8.73249,15.01202 6.2e-4,0.0492 1.35292,0.12659 3.00502,0.17211 2.54363,0.0701 3.15468,-0.0105 3.98872,-0.52464 z m 15.81231,0.23855 c 0,-0.19658 -1.33973,-2.65838 -2.97718,-5.47067 -1.63745,-2.81227 -3.61383,-6.22278 -4.39194,-7.57888 l -1.41475,-2.46565 -0.0834,6.41718 c -0.0924,7.11107 1.4e-4,7.57453 1.74704,8.75047 0.91496,0.61592 1.4308,0.70497 4.08373,0.70497 2.09759,0 3.03648,-0.11055 3.03648,-0.35742 z m 7.4474,-0.18076 c 0.48471,-0.57419 1.37815,-2.03877 6.36918,-10.44077 2.7261,-4.58915 3.13478,-5.45768 3.13478,-6.66193 0,-1.58262 -0.73124,-2.73574 -2.06994,-3.26421 -0.47192,-0.1863 -2.90392,-0.37843 -5.40445,-0.42699 l -4.54643,-0.0883 3.1e-4,10.50469 c 2.1e-4,5.77759 0.0628,10.56714 0.13913,10.64345 0.39451,0.39451 1.96842,0.21841 2.37735,-0.26599 z m 7.30138,0.058 c 1.93891,-0.77581 2.25579,-1.72622 2.14352,-6.42897 l -0.0951,-3.9812 -2.15744,3.60183 c -2.81961,4.70731 -4.16078,7.01758 -4.16078,7.1673 0,0.33148 3.22094,0.0607 4.26975,-0.35896 z m -48.03506,-0.0316 c 0,-0.11195 -1.21357,-2.27097 -2.696803,-4.79786 -1.483246,-2.52689 -2.849516,-4.86489 -3.036163,-5.19556 -0.186637,-0.33066 -0.42935,-0.69122 -0.539361,-0.80122 -0.109964,-0.10996 -0.200008,1.78112 -0.200008,4.2025 v 4.40251 l 1.196558,1.19657 c 1.148869,1.14887 1.277879,1.19657 3.236177,1.19657 1.12178,0 2.0396,-0.0916 2.0396,-0.20351 z m 5.83357,-10.45698 0.0552,-10.66049 -4.97193,0.10449 -4.971913,0.10437 -1.054526,1.15125 c -0.580003,0.63319 -1.0713,1.46534 -1.091778,1.84923 -0.107635,2.01795 -0.451599,1.32232 6.585597,13.32032 2.75094,4.69019 2.84061,4.79134 4.24786,4.79134 h 1.14628 z m 4.71153,5.26688 c 6.80139,-11.59939 6.99371,-12.05979 5.81965,-13.93137 -0.98799,-1.57497 -2.10621,-1.97841 -5.19995,-1.87609 l -2.68913,0.089 -0.0815,9.68728 c -0.0449,5.328 -0.0264,9.62749 0.0408,9.5544 0.0672,-0.073 1.01684,-1.65851 2.11019,-3.52316 z m 25.05274,-6.21181 v -9.50671 l -2.24104,-0.0871 c -4.06936,-0.15829 -5.86111,0.83918 -6.15258,3.42517 -0.14184,1.25827 0.0196,1.6785 1.93098,5.02755 1.14715,2.00998 3.00119,5.27083 4.12009,7.24637 1.11888,1.97552 2.10369,3.54903 2.18845,3.4967 0.0848,-0.0523 0.1541,-4.3732 0.1541,-9.6019 z m 20.89344,8.43506 c 0.47302,-0.71425 1.67973,-2.45498 2.68155,-3.8683 l 1.82153,-2.56965 -1.59235,-3.20179 c -0.8758,-1.76097 -1.78129,-3.27427 -2.01221,-3.36288 -0.23093,-0.0887 -0.8251,0.2441 -1.32037,0.73938 l -0.90049,0.90048 v 6.34195 c 0,3.48806 0.10402,6.33687 0.23116,6.33068 0.12713,-0.006 0.61816,-0.59563 1.09118,-1.30987 z m -67.606187,-5.14306 c 0.03168,-3.91067 -0.07141,-6.38264 -0.28268,-6.77736 -0.182886,-0.34174 -0.730842,-0.82732 -1.217667,-1.07906 -1.051718,-0.54387 -1.022771,-0.57778 -3.073288,3.60137 l -1.318742,2.68772 0.985984,1.47306 c 2.019904,3.01775 4.415759,6.25027 4.632531,6.25027 0.123197,0 0.246441,-2.7702 0.273862,-6.156 z m 57.954957,-19.435 -1.62559,-2.19281 -1.95741,1.94001 c -1.07656,1.067 -1.95739,2.04349 -1.95739,2.16996 0,0.19654 6.725,0.5208 7.05032,0.33996 0.0636,-0.0354 -0.61585,-1.05107 -1.50993,-2.25712 z m -44.42035,1.31976 c -0.42773,-0.46618 -1.30812,-1.43702 -1.95641,-2.15746 -0.6483,-0.72043 -1.27092,-1.30987 -1.3836,-1.30987 -0.23681,0 -3.394585,3.83551 -3.394585,4.12313 0,0.10542 1.690268,0.19176 3.756135,0.19176 h 3.75614 z m 9.22584,-2.09945 c 0.0784,-2.48636 0.0105,-2.90015 -0.62768,-3.84904 -0.99441,-1.47769 -2.40317,-1.87287 -6.29771,-1.76655 l -3.18436,0.0869 1.28851,1.38692 c 4.46433,4.80527 5.73467,6.04351 6.71252,6.54288 1.83764,0.93845 2.00964,0.7426 2.10872,-2.40113 z m 17.51739,1.91641 c 0.71153,-0.82787 0.74851,-1.05884 0.66617,-4.16079 l -0.0871,-3.28424 h -7.70516 -7.70516 l -0.0868,3.4317 -0.0868,3.43171 0.97889,0.82368 0.97889,0.82369 6.14691,-0.0946 6.14692,-0.0946 z m 5.13963,0.61429 c 0.81732,-0.34151 2.88114,-2.30006 7.57315,-7.1869 0.23207,-0.2417 0.36379,-0.49763 0.29271,-0.56871 -0.0711,-0.071 -1.72228,-0.16264 -3.66932,-0.20348 -3.0997,-0.065 -3.64287,9.3e-4 -4.36625,0.52917 -1.3383,0.97746 -1.77119,2.24742 -1.77119,5.19604 0,2.92833 0.0742,3.01381 1.9409,2.23388 z m -23.56671,-10.64836 c -0.16035,-0.43314 -8.64433,-9.27691 -8.89949,-9.27691 -0.26291,0 -0.37986,8.86007 -0.12245,9.27657 0.22521,0.3644 9.15685,0.36472 9.02194,3.1e-4 z m 19.16017,-8.51092 V 120.712 l -1.05431,-1.15125 -1.0543,-1.15125 -5.18688,-0.0872 c -4.48098,-0.0754 -5.33368,-0.0125 -6.26559,0.46231 -2.03639,1.03752 -2.15643,1.65557 -2.15697,11.10567 l -4.8e-4,8.39862 h 7.85926 7.85927 z m 12.63078,3.93416 -0.006,-4.85425 -4.60144,4.62309 c -2.5308,2.5427 -4.60863,4.72712 -4.61743,4.85426 -0.009,0.12713 2.06442,0.23114 4.60712,0.23114 h 4.6231 l -0.006,-4.85424 z m -30.69721,-4.53936 c 0.0987,-3.38659 0.0953,-6.87252 -0.007,-7.74651 l -0.18676,-1.58908 -3.97538,1.9658 c -4.38995,2.1708 -5.02087,2.84242 -4.21334,4.48515 0.32778,0.66681 7.99403,9.19656 8.15736,9.07619 0.0255,-0.0187 0.12696,-2.80496 0.22558,-6.19155 z m 24.97444,1.80946 c 3.5885,-3.85815 4.18742,-4.64479 4.18742,-5.49994 0,-0.56149 -0.23587,-1.20838 -0.53936,-1.47926 -0.65289,-0.58272 -7.24428,-3.92904 -7.7392,-3.92904 -0.25346,0 -0.35123,2.1448 -0.35123,7.70517 0,4.23783 0.0574,7.70515 0.12748,7.70515 0.0701,0 2.01182,-2.02593 4.31489,-4.50208 z m -39.886092,-6.1518 v -5.7226 l -0.693473,0.19868 c -0.381403,0.10926 -1.144209,0.67136 -1.695125,1.24907 -0.995793,1.04422 -1.001675,1.06884 -1.001675,4.18981 v 3.13942 l 1.392339,1.33411 c 0.765788,0.73376 1.528595,1.3341 1.695137,1.3341 0.187381,0 0.302797,-2.1812 0.302797,-5.72259 z m 51.998852,4.88077 c 0.60702,-0.46299 1.29123,-1.2907 1.52047,-1.83934 0.54171,-1.29651 0.53571,-5.06741 -0.0105,-6.37385 -0.43006,-1.02927 -2.50305,-2.60342 -2.90248,-2.20403 -0.31947,0.31943 -0.30569,11.25904 0.0142,11.25904 0.15088,0 0.77097,-0.37882 1.37799,-0.84182 z m -6.92367,-9.69813 c 1.13719,-1.31517 0.7966,-1.48011 -3.05638,-1.48011 -1.97765,0 -3.50634,0.0893 -3.39706,0.19867 0.10926,0.10927 1.20725,0.66049 2.43997,1.22492 2.37541,1.08765 3.1129,1.09804 4.01347,0.0565 z m -35.40129,-0.27634 c 1.12087,-0.52452 2.03794,-1.00994 2.03794,-1.07872 0,-0.0687 -1.52561,-0.12505 -3.39026,-0.12505 -2.96251,0 -3.39027,0.065 -3.39027,0.51509 0,0.81239 0.94116,1.64235 1.8624,1.64235 0.46323,0 1.75932,-0.42915 2.88019,-0.95367 z m 5.36273,-6.36622 c 0.0487,-1.56801 -0.008,-2.85091 -0.12712,-2.85091 -0.11866,0 -0.92134,0.44352 -1.78376,0.98562 -3.34524,2.10271 -6.82112,4.36069 -7.10896,4.61806 -0.17321,0.15488 1.6621,0.23307 4.3149,0.18383 l 4.61633,-0.0857 z m 17.94146,-0.53937 v -3.54437 h -7.85927 -7.85926 v 3.3389 c 0,1.8364 0.0925,3.43136 0.20547,3.54437 0.11299,0.11299 3.64968,0.20547 7.85927,0.20547 h 7.65379 z m 9.8626,2.23148 c -3.35814,-2.1987 -7.10093,-4.54302 -7.25305,-4.54302 -0.0792,0 -0.14391,1.31757 -0.14391,2.92795 v 2.92796 l 4.70016,-6.2e-4 4.70014,-6e-4 -2.00334,-1.31166 z"
       id="path302" /><path
       id="path634"
       style="fill:#ffffff;stroke-width:0.379711"
       d="m 159.57438,129.5883 1.42985,-0.0156 c 0,0 10.06028,-0.31052 11.22372,-0.0533 0.48212,0.10647 1.13171,0.81281 1.13171,0.81281 l 1.19179,0.87956 2.90939,-0.006 c 0,0 1.89891,8e-4 2.8456,-0.20989 0.78371,-0.17439 2.24712,-0.81282 2.24712,-0.81282 2.66729,-1.24252 2.89903,-1.05532 0.31445,0.25439 0,0 -1.24358,0.64594 -1.90745,0.86325 -0.87424,0.28616 -2.68468,0.53396 -2.68468,0.53396 l -2.7225,0.44943 -0.20987,0.54658 c 0,0 -0.11883,0.30417 -0.0601,0.4902 0.0642,0.20319 0.38045,0.41383 0.38045,0.41383 0,0 0.4436,0.16341 0.64893,0.22027 0.79398,0.21984 2.34871,0.006 2.34871,0.006 0,0 1.54528,-0.10764 2.34353,-0.31148 0.67998,-0.1736 2.02314,-0.72902 2.02314,-0.72902 1.04421,-0.50052 2.04349,-0.9809 2.22043,-1.06794 l 0.32186,-0.15871 -0.42718,0.63631 c 0,0 -0.28555,0.48777 -0.50207,0.7001 -0.40028,0.39246 -1.28671,0.88104 -1.28671,0.88104 -0.82394,0.42034 -2.79607,1.18193 -4.21019,1.50772 -1.41414,0.32583 -2.71367,0.73166 -2.8879,0.90182 l -0.31666,0.30925 0.87586,0.61333 c 0,0 0.61819,0.39115 0.95816,0.49836 0.39109,0.12328 1.14804,0.11568 1.14804,0.11568 0,0 0.85724,-0.0396 1.26077,-0.11276 0.7205,-0.13031 2.02685,-0.65707 2.02685,-0.65707 0,0 1.34842,-0.37473 1.95863,-0.77945 0.79228,-0.52551 2.05873,-2.06245 2.05873,-2.06245 0,0 1.36299,-1.36836 1.89336,-2.15739 0.33077,-0.49206 0.80096,-1.53441 0.80096,-1.53441 0.40434,-0.8908 0.73925,-1.8333 0.74384,-2.09435 0,0 0.0175,-0.25201 -0.0934,-0.36489 -0.11381,-0.11579 -0.3849,-0.10985 -0.3849,-0.10985 h -0.48724 l -0.0779,-1.77988 c 0,0 0.1152,-1.24607 -0.12385,-1.78954 -0.073,-0.16605 -0.33819,-0.37452 -0.33819,-0.37452 0,0 -0.1842,-0.1891 -0.36562,-0.1891 -0.2148,0 -0.47464,0.25955 -0.47464,0.25955 -0.71475,0.71477 -0.98287,0.55002 -1.26372,-0.77796 -0.14355,-0.67872 -0.59866,-1.78936 -1.01084,-2.46811 0,0 -0.38302,-0.8542 -0.80243,-1.09019 -0.15648,-0.088 -0.48577,-0.14387 -0.48577,-0.14387 0,0 -0.29686,0.0537 -0.42346,0.18095 -0.20079,0.20195 -0.10973,0.67339 -0.10973,0.67339 0.002,0.46989 0.34727,1.9477 0.7661,3.28391 0.41884,1.33622 0.68392,2.50727 0.58884,2.60235 -0.0949,0.0951 -0.85582,-1.18472 -1.69016,-2.84413 -0.83434,-1.6594 -1.97033,-3.55665 -2.52521,-4.2161 l -1.00936,-1.19921 h -0.72531 c -0.3991,0 -0.72605,0.11165 -0.72605,0.2477 0,0.13605 0.78135,1.60112 1.73614,3.25646 1.51384,2.62453 3.0139,5.9886 2.67059,5.9886 -0.0638,0 -0.77608,-1.00815 -1.45728,-2.35021 0,0 -0.72435,-1.68649 -1.23852,-2.43993 -0.53267,-0.78056 -1.78361,-2.20632 -1.78361,-2.20632 l -1.88668,-2.11659 h -0.72902 c -0.98194,0 -0.93097,0.20386 0.50504,2.02463 l 1.19501,1.40431 -1.28993,-0.6486 c -0.73092,-0.44515 -2.26877,-1.10331 -3.4174,-1.46248 0,0 -0.75396,-0.22164 -1.47361,-0.3404 -3.3103,-0.5463 -10.67713,-0.55473 -10.67713,-0.55473 l -0.48131,-0.0115 v 2.19742 l 1.43059,0.0274 11.0116,0.2121 1.26966,0.69268 c 1.59017,0.86752 1.42112,1.07265 -0.52061,0.63187 l -1.50854,-0.34262 -11.68278,-0.24103 v 1.86962 c 4.62262,0.14122 9.09471,0.28819 10.66305,0.35747 l 3.53679,0.15648 0.45016,0.45017 0.45018,0.4509 -1.63306,-0.26104 c -0.86382,-0.13807 -6.84621,-0.26705 -13.46712,-0.29814 v 1.81921 l 2.10323,0.0512 11.33274,0.27663 -0.30703,0.30258 -0.30702,0.30259 -11.77106,0.11796 -1.05086,0.0105 z m 16.98037,-7.27416 0.68286,0.30587 c 0.36546,0.28662 0.66449,0.58565 0.66449,0.66448 0,0.31254 -0.37397,0.22763 -0.87001,-0.40493 z m 1.41336,33.71227 c 0.0143,0.23213 0.31371,0.44571 0.31371,0.44571 0,0 0.41077,0.20957 0.6363,0.26624 0.55164,0.13863 1.62712,-0.0726 1.62712,-0.0726 0.93134,-0.11532 1.81398,-0.33634 1.96159,-0.49096 0.14762,-0.15463 0.32488,-0.62281 0.39455,-1.04049 0,0 0.0808,-0.29813 -0.0779,-0.49986 -0.32427,-0.41242 -1.36457,-0.37451 -1.36457,-0.37451 0,0 -0.99803,-0.10099 -1.49512,0.0667 -0.45877,0.15485 -1.16287,0.78092 -1.16287,0.78092 0,0 -0.8439,0.73617 -0.83284,0.91887 z m 1.14061,-4.8339 c -0.001,0.27625 0.0291,0.85922 0.29369,1.1028 0.18213,0.1677 0.57178,0.18095 0.57178,0.18095 0,0 0.42952,-0.0247 0.62742,-0.17354 0.4302,-0.3233 0.56437,-1.3772 0.56437,-1.3772 0.73547,-2.54038 2.86812,-6.2523 3.60133,-6.26596 0,0 0.30683,-0.0221 0.34931,0.0326 0.11194,0.144 0,1.52479 0,1.52479 0,0.83879 -0.43895,3.70086 -0.97598,6.36015 0,0 -0.79817,3.18316 -0.87141,4.82573 -0.0302,0.67732 0.11869,2.03131 0.11869,2.03131 0,0 0.12514,1.33661 0.31964,1.98607 0.15783,0.52711 0.6541,1.5055 0.6541,1.5055 1.04149,2.04148 2.79042,2.96613 3.26611,1.72649 0,0 0.0857,-0.31876 0.0705,-0.51246 -0.049,-0.62854 -0.8054,-1.67087 -0.8054,-1.67087 0,0 -0.68128,-1.04952 -0.89069,-1.64418 -0.17019,-0.4833 -0.28998,-1.51366 -0.28998,-1.51366 0,0 -0.15783,-1.02502 -0.15053,-1.53737 0.02,-1.4085 0.68375,-4.13678 0.68375,-4.13678 0,0 0.56694,-2.75661 0.69121,-4.15976 0.0956,-1.07886 0.0571,-3.2446 0.0571,-3.2446 0,0 0.0376,-2.22043 -0.14308,-3.28836 -0.078,-0.46148 -0.33075,-1.28969 -0.33075,-1.28969 0,0 -0.21514,-0.83999 -0.37305,-1.1458 -0.13849,-0.26831 -0.92405,-0.2566 -0.92405,-0.2566 0,0 -0.67654,-0.0408 -0.90775,0.15352 -0.28318,0.23787 -1.73392,2.57789 -1.73392,2.57789 -0.92042,1.46189 -2.10375,3.55062 -2.62979,4.6418 0,0 -0.58919,1.30945 -0.72309,2.03131 -0.0874,0.47138 -0.11497,1.38608 -0.11497,1.38608 0,0 -0.005,0.0577 -0.005,0.14982 z m 0.88179,-12.14185 0.73718,0.54214 c 0.89574,0.65922 1.74858,0.68175 3.70218,0.0965 h 7.4e-4 c 0,0 0.92833,-0.33271 1.37348,-0.59849 0.59624,-0.35599 1.5893,-1.32084 1.5893,-1.32084 l 1.47287,-1.4736 0.78314,-1.61748 c 0,0 0.48758,-1.02536 0.62148,-1.60932 0.10414,-0.45453 0.16168,-1.40761 0.16168,-1.40761 0,0 0.021,-1.15817 -0.12156,-1.30007 -0.087,-0.0866 -0.24623,-0.0985 -0.24623,-0.0985 -0.20242,0 -0.98914,0.98251 -1.748,2.18335 -0.75887,1.20083 -1.97708,2.80583 -2.70692,3.56647 0,0 -0.82416,0.95312 -1.35124,1.31414 -0.41322,0.28306 -1.36236,0.64671 -1.36236,0.64671 -0.76277,0.31807 -1.72858,0.69061 -2.14626,0.82764 z m 6.66349,15.88778 c 0.006,0.14602 0.10635,0.31545 0.21581,0.41236 0.12097,0.10716 0.22141,0.13016 0.36265,0.16759 0.23538,0.0624 0.64966,-0.21655 0.64966,-0.21655 0.3528,-0.19224 1.00867,-0.86449 1.67682,-1.56036 1.54632,-1.61049 2.35859,-4.4517 2.63868,-6.35572 0.10915,-0.74208 0.23361,-2.23823 0.23361,-2.23823 l 3.00358,-0.13647 c 0,0 2.60555,-0.0595 3.00358,-0.13648 0.22476,-0.0433 0.38804,-0.26705 0.508,-0.46202 0.11826,-0.19224 0.18784,-0.42703 0.18095,-0.65264 -0.008,-0.30016 -0.0971,-0.6245 -0.29293,-0.85212 -0.22208,-0.25807 -0.56716,-0.4345 -0.90553,-0.47242 -0.33762,-0.0379 -2.36207,0.0705 -2.36207,0.0705 0,0 -1.64621,0.15922 -2.40435,-0.0549 -0.37556,-0.10612 -0.93741,-0.51691 -0.93741,-0.51691 0,0 -0.56795,-0.42006 -0.83431,-0.70528 -0.49765,-0.53283 -1.21552,-1.84368 -1.21552,-1.84368 -0.58911,-1.04887 -1.31712,-2.05557 -1.45061,-2.05578 -0.13346,-2.1e-4 -0.495,0.46303 -0.97004,0.84768 l -0.864,0.69935 1.1814,2.06394 c 0,0 0.84284,1.32428 1.1295,2.06319 0.23067,0.59461 0.46945,1.86741 0.46945,1.86741 0,0 0.2875,1.21181 0.31816,1.84887 0.0331,0.69034 -0.15723,2.07579 -0.15723,2.07579 0,0 -0.15224,1.31411 -0.43385,1.94528 -0.21427,0.48028 -0.85732,1.30303 -0.85732,1.30303 -0.5689,0.65525 -1.25341,1.5482 -1.50253,2.02241 0,0 -0.3955,0.54769 -0.38415,0.87214 z" /></g></svg>
