<?xml version="1.0" encoding="UTF-8" standalone="no"?>
<!-- Created with Inkscape (http://www.inkscape.org/) -->

<svg
   xmlns:dc="http://purl.org/dc/elements/1.1/"
   xmlns:cc="http://creativecommons.org/ns#"
   xmlns:rdf="http://www.w3.org/1999/02/22-rdf-syntax-ns#"
   xmlns:svg="http://www.w3.org/2000/svg"
   xmlns="http://www.w3.org/2000/svg"
   xmlns:sodipodi="http://sodipodi.sourceforge.net/DTD/sodipodi-0.dtd"
   xmlns:inkscape="http://www.inkscape.org/namespaces/inkscape"
   width="134mm"
   height="38mm"
   viewBox="0 0 474.80315 134.64567"
   id="svg2"
   version="1.1"
   inkscape:version="0.91 r13725"
   sodipodi:docname="iipv6.svg">
  <defs
     id="defs4" />
  <sodipodi:namedview
     id="base"
     pagecolor="#ffffff"
     bordercolor="#666666"
     borderopacity="1.0"
     inkscape:pageopacity="0.0"
     inkscape:pageshadow="2"
     inkscape:zoom="2.8"
     inkscape:cx="204.00228"
     inkscape:cy="69.374984"
     inkscape:document-units="mm"
     inkscape:current-layer="flowRoot8082"
     showgrid="false"
     showguides="false"
     inkscape:window-width="1920"
     inkscape:window-height="1018"
     inkscape:window-x="-8"
     inkscape:window-y="-8"
     inkscape:window-maximized="1" />
  <metadata
     id="metadata7">
    <rdf:RDF>
      <cc:Work
         rdf:about="">
        <dc:format>image/svg+xml</dc:format>
        <dc:type
           rdf:resource="http://purl.org/dc/dcmitype/StillImage" />
        <dc:title></dc:title>
      </cc:Work>
    </rdf:RDF>
  </metadata>
  <g
     inkscape:groupmode="layer"
     id="layer3"
     inkscape:label="hintergrund"
     style="display:inline"
     transform="translate(0,-917.71654)"
     sodipodi:insensitive="true">
    <rect
       style="display:inline;fill:#000000;fill-opacity:1;stroke:none;stroke-width:0.04;stroke-miterlimit:4;stroke-dasharray:none;stroke-opacity:1"
       id="rect8217"
       width="474.80316"
       height="134.64568"
       x="0"
       y="917.71655" />
  </g>
  <g
     inkscape:groupmode="layer"
     id="layer2"
     inkscape:label="ipv6"
     transform="translate(0,-917.71654)"
     sodipodi:insensitive="true">
    <g
       transform="matrix(3.1685394,0,0,3.536787,-584.23715,-1206.888)"
       style="font-style:normal;font-variant:normal;font-weight:bold;font-stretch:normal;font-size:40px;line-height:125%;font-family:Consolas;-inkscape-font-specification:'Consolas Bold';letter-spacing:0px;word-spacing:0px;fill:#ff0000;fill-opacity:1;stroke:none;stroke-width:1px;stroke-linecap:butt;stroke-linejoin:miter;stroke-opacity:1"
       id="flowRoot8082">
      <path
         d="m 192.21484,610.68854 0,-3.92578 16.13282,0 0,3.92578 -5.625,0 0,17.63672 5.625,0 0,3.96484 -16.13282,0 0,-3.96484 5.625,0 0,-17.63672 -5.625,0 z"
         style="letter-spacing:-5.18425369px;fill:#ffffff"
         id="path8167"
         inkscape:connector-curvature="0" />
      <path
         d="m 242.75583,610.68854 0,-3.92578 16.13282,0 0,3.92578 -5.625,0 0,17.63672 5.625,0 0,3.96484 -16.13282,0 0,-3.96484 5.625,0 0,-17.63672 -5.625,0 z"
         style="font-style:normal;font-variant:normal;font-weight:bold;font-stretch:normal;font-family:Consolas;-inkscape-font-specification:'Consolas Bold';fill:#ffffff"
         id="path8173"
         inkscape:connector-curvature="0" />
      <path
         d="m 282.20895,614.88776 q 0,1.99218 -0.66406,3.6914 -0.66406,1.67969 -1.97265,2.91016 -1.3086,1.23047 -3.26172,1.91406 -1.95313,0.6836 -4.53125,0.6836 l -2.44141,0 0,8.20312 -4.84375,0 0,-25.52734 7.48047,0 q 2.48047,0 4.375,0.54687 1.91406,0.52735 3.20312,1.5625 1.3086,1.03516 1.97266,2.5586 0.68359,1.5039 0.68359,3.45703 z m -5.03906,0.33203 q 0,-1.01563 -0.33203,-1.83594 -0.3125,-0.83984 -0.97656,-1.42578 -0.64453,-0.58594 -1.64063,-0.89844 -0.99609,-0.3125 -2.36328,-0.3125 l -2.51953,0 0,9.35547 2.67578,0 q 1.25,0 2.20703,-0.33203 0.95703,-0.35156 1.60157,-0.99609 0.66406,-0.64454 0.99609,-1.54297 0.35156,-0.89844 0.35156,-2.01172 z"
         style="font-style:normal;font-variant:normal;font-weight:bold;font-stretch:normal;font-family:Consolas;-inkscape-font-specification:'Consolas Bold';fill:#ffffff"
         id="path8175"
         inkscape:connector-curvature="0" />
      <path
         d="m 297.69724,632.2901 -5.48829,0 -7.87109,-19.84375 5.3125,0 4.12109,11.25 1.23047,3.63281 1.21094,-3.47656 4.16016,-11.40625 5.11718,0 -7.79296,19.84375 z"
         style="font-style:normal;font-variant:normal;font-weight:bold;font-stretch:normal;font-family:Consolas;-inkscape-font-specification:'Consolas Bold';fill:#ffffff"
         id="path8177"
         inkscape:connector-curvature="0" />
      <path
         d="m 326.40817,624.20416 q 0,1.9336 -0.70312,3.51563 -0.70313,1.5625 -1.95313,2.69531 -1.23047,1.11328 -2.94922,1.71875 -1.71875,0.60547 -3.76953,0.60547 -4.47265,0 -6.83593,-2.8125 -2.36329,-2.8125 -2.36329,-8.59375 0,-2.10938 0.25391,-4.00391 0.25391,-1.91406 0.83984,-3.51562 0.60547,-1.6211 1.60157,-2.92969 1.01562,-1.30859 2.51953,-2.20703 1.5039,-0.91797 3.55469,-1.40625 2.05078,-0.50781 4.76562,-0.50781 l 2.91016,0 0,4.04297 -3.39844,0 q -2.10938,0 -3.53516,0.42968 -1.42578,0.42969 -2.32422,1.23047 -0.89843,0.80078 -1.34765,1.95313 -0.44922,1.15234 -0.58594,2.59765 l -0.0391,0.46875 q 1.01562,-0.48828 2.30469,-0.80078 1.30859,-0.3125 2.73437,-0.3125 2.07031,0 3.63281,0.54688 1.5625,0.52734 2.59766,1.54297 1.05469,1.01562 1.5625,2.46093 0.52734,1.44532 0.52734,3.28125 z m -4.96093,0.21485 q 0,-0.89844 -0.23438,-1.64063 -0.23437,-0.76172 -0.74219,-1.28906 -0.48828,-0.54688 -1.26953,-0.83984 -0.76172,-0.3125 -1.83594,-0.3125 -0.625,0 -1.25,0.11718 -0.60546,0.0977 -1.1914,0.27344 -0.56641,0.17578 -1.09375,0.39063 -0.50781,0.21484 -0.91797,0.44921 0,1.97266 0.27344,3.33985 0.27343,1.34765 0.82031,2.20703 0.56641,0.85937 1.38672,1.25 0.83984,0.37109 1.93359,0.37109 0.9375,0 1.69922,-0.3125 0.76172,-0.3125 1.28906,-0.8789 0.54688,-0.58594 0.83985,-1.36719 0.29297,-0.80078 0.29297,-1.75781 z"
         style="font-style:normal;font-variant:normal;font-weight:bold;font-stretch:normal;font-family:Consolas;-inkscape-font-specification:'Consolas Bold';fill:#ffffff"
         id="path8179"
         inkscape:connector-curvature="0" />
      <rect
         style="fill:#ff0000;fill-opacity:1;stroke:none;stroke-width:0.01585555;stroke-miterlimit:4;stroke-dasharray:none;stroke-opacity:1"
         id="rect8181"
         width="6.5809855"
         height="5.8957782"
         x="214.53069"
         y="610.59448" />
      <rect
         style="font-style:normal;font-variant:normal;font-weight:bold;font-stretch:normal;font-size:40px;line-height:125%;font-family:Consolas;-inkscape-font-specification:'Consolas Bold';letter-spacing:0px;word-spacing:0px;fill:#ff0000;fill-opacity:1;stroke:none;stroke-width:0.01585555;stroke-linecap:butt;stroke-linejoin:miter;stroke-miterlimit:4;stroke-dasharray:none;stroke-opacity:1"
         id="rect8181-5"
         width="6.5809855"
         height="5.8957782"
         x="214.53069"
         y="622.78119" />
      <rect
         style="font-style:normal;font-variant:normal;font-weight:bold;font-stretch:normal;font-size:40px;line-height:125%;font-family:Consolas;-inkscape-font-specification:'Consolas Bold';letter-spacing:0px;word-spacing:0px;fill:#ff0000;fill-opacity:1;stroke:none;stroke-width:0.01585555;stroke-linecap:butt;stroke-linejoin:miter;stroke-miterlimit:4;stroke-dasharray:none;stroke-opacity:1"
         id="rect8181-9"
         width="6.5809855"
         height="5.8957782"
         x="228.43292"
         y="610.59448" />
      <rect
         style="font-style:normal;font-variant:normal;font-weight:bold;font-stretch:normal;font-size:40px;line-height:125%;font-family:Consolas;-inkscape-font-specification:'Consolas Bold';letter-spacing:0px;word-spacing:0px;fill:#ff0000;fill-opacity:1;stroke:none;stroke-width:0.01585555;stroke-linecap:butt;stroke-linejoin:miter;stroke-miterlimit:4;stroke-dasharray:none;stroke-opacity:1"
         id="rect8181-5-4"
         width="6.5809855"
         height="5.8957782"
         x="228.43292"
         y="622.78119" />
    </g>
  </g>
  <g
     inkscape:groupmode="layer"
     id="layer4"
     inkscape:label="beschnittkante"
     transform="translate(0,-917.71654)"
     sodipodi:insensitive="true"
     style="display:inline">
    <rect
       style="fill:none;fill-opacity:1;stroke:#ff00ff;stroke-width:0.14066681;stroke-miterlimit:4;stroke-dasharray:none;stroke-opacity:1"
       id="rect8220"
       width="460.48926"
       height="120.33177"
       x="7.1569476"
       y="924.87347" />
  </g>
</svg>
