<?xml version="1.0" encoding="UTF-8" standalone="no"?>
<svg
   xmlns:svg="http://www.w3.org/2000/svg"
   xmlns="http://www.w3.org/2000/svg"
   xmlns:xlink="http://www.w3.org/1999/xlink"
   version="1.1"
   width="243"
   height="234"
   id="freifunk.net logo">
  <path
     d="m 156.80519,0.29222107 c 47.50887,0 86.02112,38.67462093 86.02112,86.38362293 0,47.709126 -38.51225,86.383996 -86.02112,86.383996 -47.50849,0 -86.020741,-38.67487 -86.020741,-86.383996 0,-47.709002 38.512251,-86.38362293 86.020741,-86.38362293 z"
     id="path1"
     style="fill:#ffffff" />
  <path
     d="m 67.450949,51.553222 c 33.269751,0 60.239251,27.08312 60.239251,60.493118 0,33.41 -26.9695,60.49313 -60.239251,60.49313 -33.26925,0 -60.2388805,-27.08313 -60.2388805,-60.49313 0,-33.409998 26.9696305,-60.493118 60.2388805,-60.493118 z"
     id="path2"
     style="fill:#ffffff" />
  <path
     d="m 67.450949,61.635602 c 27.725,0 50.199631,22.569252 50.199631,50.410738 0,27.84175 -22.474631,50.41138 -50.199631,50.41138 -27.72463,0 -50.19925,-22.56963 -50.19925,-50.41138 0,-27.841496 22.47462,-50.410738 50.19925,-50.410738 z"
     id="path3"
     style="fill:none;stroke:#de2c68;stroke-width:2.52874994" />
  <path
     d="m 68.751319,100.60409 -12.55187,-12.608996 -11.821,0 8.36763,8.40613 -16.74838,2.5e-4 0,8.407996 16.74838,0 -8.36763,8.40613 11.821,0 12.55187,-12.60925 z"
     id="path4"
     style="fill:#ffcc33" />
  <path
     d="m 156.80519,16.100601 c 38.81437,0 70.27862,31.597001 70.27862,70.575003 0,38.977866 -31.46425,70.574866 -70.27862,70.574866 -38.81399,0 -70.278241,-31.597 -70.278241,-70.574866 0,-38.978002 31.464251,-70.575003 70.278241,-70.575003 z"
     id="path5"
     style="fill:none;stroke:#de2c68;stroke-width:15.11937523" />
  <path
     d="m 156.80519,32.589842 c 29.74587,0 53.85862,24.21475 53.85862,54.085752 0,29.871126 -24.11275,54.085626 -53.85862,54.085626 -29.74575,0 -53.85862,-24.2145 -53.85862,-54.085626 0,-29.871002 24.11287,-54.085752 53.85862,-54.085752 z"
     id="path6"
     style="fill:none;stroke:#de2c68;stroke-width:2.52874994" />
  <path
     d="m 131.78844,100.60409 21.2525,-21.349248 20.01462,0 -14.16787,14.233132 28.36063,-2.5e-4 0,14.230866 -28.36063,0 14.16787,14.23275 -20.01462,0 -21.2525,-21.34912 z"
     id="path7"
     style="fill:#ffcc33" />
  <path
     d="m 8.4513791,226.93407 8.3053779,0 0,-31.42348 2.553112,0 0,-6.17102 -2.553112,0 0,-0.72501 c -0.02361,-0.78858 0.08931,-1.37074 0.34421,-1.74698 0.253128,-0.37642 0.793302,-0.56327 1.619659,-0.56041 l 0.589243,0 0,-6.17103 -3.468338,0 c -2.654123,-0.0472 -4.556268,0.42414 -5.706246,1.41139 -1.1499918,0.98775 -1.7110644,2.77217 -1.6839194,5.35293 l 0,2.43911 -1.9640306,0 0,6.17102 1.9640306,0 0,31.42348 z"
     id="f" />
  <path
     d="m 30.222,189.33957 -8.305904,0 0,37.5945 8.305904,0 0,-29.25404 c -0.01686,-0.48468 0.09107,-0.92855 0.303384,-1.3311 0.211993,-0.40273 0.592117,-0.61606 1.140548,-0.64119 0.551291,0.0253 0.942384,0.23846 1.173426,0.64119 0.23138,0.40255 0.34336,0.84642 0.336277,1.3311 l 0,11.89887 8.30589,0 0,-14.13374 c 0.04209,-2.05425 -0.303897,-3.65739 -1.038336,-4.8094 -0.734614,-1.152 -2.110589,-1.7372 -4.128411,-1.75642 -1.429266,0.0169 -2.626977,0.33509 -3.592459,0.97661 -0.964982,0.64136 -1.755087,1.54192 -2.369451,2.7005 l -0.131543,0 0,-3.21688 z"
     id="r" />
  <path
     d="m 45.096407,218.92027 c 0.0742,2.8253 1.036825,4.94397 2.886353,6.35586 1.849352,1.41223 4.137342,2.11784 6.863482,2.11784 2.700156,0 4.991019,-0.70561 6.871241,-2.11784 1.881219,-1.41189 2.862391,-3.53056 2.943853,-6.35586 l 0,-6.90109 -8.305391,0 0,7.23011 c 0,0.48536 -0.104559,0.92923 -0.336276,1.33229 -0.23138,0.40272 -0.622122,0.61673 -1.173427,0.64153 -0.548431,-0.0253 -0.928892,-0.23881 -1.140534,-0.64153 -0.212492,-0.40306 -0.313341,-0.84693 -0.303897,-1.33229 l 0,-9.80177 11.259525,0 0,-12.09398 c -0.08095,-2.8253 -1.06262,-4.94414 -2.943853,-6.35637 -1.880208,-1.41172 -4.171071,-2.11783 -6.871241,-2.11783 -2.726127,0 -5.01413,0.70611 -6.863482,2.11783 -1.849515,1.41223 -2.811799,3.53107 -2.886339,6.35637 l 0,21.56673 z m 8.305391,-15.11828 0,-6.77748 c -0.01686,-0.48502 0.09107,-0.92923 0.303897,-1.33245 0.211655,-0.40306 0.592116,-0.61674 1.140547,-0.64136 0.551292,0.0253 0.942047,0.2383 1.173427,0.64136 0.230867,0.40322 0.342847,0.84743 0.336276,1.33245 l 0,6.77748 -2.954147,0 z"
     id="e" />
  <path
     d="m 76.778248,226.93407 0,-37.5945 -8.305377,0 0,37.5945 8.305377,0 z m 0,-39.70627 0,-7.09166 -8.305377,0 0,7.09166 8.305377,0 z"
     id="i" />
  <use
     transform="translate(73.313361,0)"
     id="f2"
     xlink:href="#f" />
  <path
     d="m 106.4994,226.9339 8.30589,0 0,-37.5945 -8.30589,0 0,29.25404 c 0.0169,0.48468 -0.0911,0.92856 -0.30339,1.3311 -0.21198,0.40273 -0.59244,0.61606 -1.14054,0.64119 -0.5513,-0.0253 -0.94238,-0.23846 -1.17342,-0.64119 -0.23087,-0.40254 -0.34336,-0.84642 -0.33628,-1.3311 l 0,-29.25404 -8.305893,0 0,29.84531 c -0.10281,2.23858 0.15178,4.14899 0.76058,5.73087 0.60881,1.58104 2.18665,2.4074 4.733173,2.47856 1.1746,-0.0169 2.32628,-0.34859 3.45434,-1.0095 1.12771,-0.66076 1.85491,-1.57194 2.18023,-2.73305 l 0.13154,0 0,3.28232 z"
     id="u" />
  <use
     transform="matrix(-1,0,0,-1,233.21466,416.27347)"
     id="n"
     xlink:href="#u" />
  <path
     d="m 150.02652,226.93407 0,-19.78314 0.13154,0 3.3383,19.78314 8.51047,0 -3.92789,-21.42625 4.05875,-16.16825 -8.64133,0 -3.3383,16.89123 -0.13154,0 0,-26.09466 -8.30591,0 0,46.79793 8.30591,0 z"
     id="k" />
  <path
     d="m 173.861,226.93407 0,-9.72132 -8.30538,0 0,9.72132 8.30538,0 z"
     id="." />
  <use
     transform="matrix(-1,0,0,-1,293.05121,416.27347)"
     id="n2"
     xlink:href="#u" />
  <use
     transform="translate(156.32982,0)"
     id="e2"
     xlink:href="#e" />
  <path
     d="m 234.22094,182.50239 -8.30539,0 0,6.83718 -2.22592,0 0,6.17102 2.22592,0 0,23.80532 c -0.081,2.84621 0.34201,4.83823 1.26721,5.97658 0.92483,1.13818 2.83524,1.68526 5.73052,1.64158 l 3.73026,0 0,-6.17136 -0.98236,0 c -0.6041,-0.0337 -0.9994,-0.312 -1.18623,-0.83833 -0.18687,-0.52617 -0.27171,-1.10176 -0.254,-1.72591 l 0,-22.68788 2.29172,0 0,-6.17102 -2.29172,0 0,-6.83718 z"
     id="t" />
</svg>