<?xml version="1.0" encoding="UTF-8" standalone="no"?>
<!-- Created with Inkscape (http://www.inkscape.org/) -->

<svg
   width="200mm"
   height="200mm"
   viewBox="0 0 200 200"
   version="1.1"
   id="svg1"
   xml:space="preserve"
   xmlns="http://www.w3.org/2000/svg"
   xmlns:svg="http://www.w3.org/2000/svg"><defs
     id="defs1" /><g
     id="layer1"><g
       id="g5"
       transform="translate(12.356249,5.7506043)"><path
         style="fill:#006699;fill-opacity:1;stroke-width:0.264583"
         d="m 167.45836,143.52011 -2.41637,2.98511 1.18765,3.07784 2.44462,0.79243 3.20152,-3.14308 0.46676,-3.73018 -1.93113,-1.67328 z"
         id="path5" /><path
         style="fill:#009ee0;fill-opacity:1;stroke-width:0.264583"
         d="m 173.93109,130.56971 -2.65425,-10.8153 -4.88479,-8.19261 -10.12029,-1.19617 -13.50211,1.63961 -2.33363,-13.38372 -5.4407,-11.12606 L 124.37239,77.883232 116.49892,64.871429 98.736487,59.045984 82.558921,58.548774 80.9494,41.578037 73.880437,22.921816 65.26608,18.166754 60.465144,28.015257 49.847643,43.375489 34.716286,55.707575 29.183349,55.83385 21.556012,66.416331 15.174659,78.246767 12.046874,92.23129 l -5.735178,14.95723 1.401363,8.64839 -3.899743,9.23834 -0.71178,12.31186 0.08139,7.91294 -2.018435,2.59851 1.158183,4.06104 5.350924,2.4678 10.546472,12.38487 12.27388,10.4853 26.424138,7.96079 24.587221,0.63335 33.927671,-8.8605 25.47657,-13.18346 6.39615,-2.69371 2.15655,-5.96751 10.42858,-12.12195 10.09859,-7.72648 z"
         id="path4" /><path
         style="fill:#ff0000;stroke-width:0.264583"
         d="m 79.756869,105.3695 11.922428,-3.69257 17.676353,-7.63622 7.63597,-2.20637 7.46061,1.99723 6.76018,7.47492 3.42967,9.29555 -0.57022,16.78478 -4.7595,6.58162 -12.75309,8.9589 -15.78863,6.65881 -14.393193,2.37803 -2.25594,-1.32688 4.22826,-7.61328 0.12381,-17.35474 -2.21895,-8.13984 z"
         id="path3" /><path
         id="path2"
         style="fill:#ffffff;stroke-width:0.301396"
         d="m 101.00812,137.49875 -3.158463,-3.45302 -1.51877,-3.73311 -0.58911,-5.48028 0.95187,-6.17224 2.07791,-4.84673 3.380683,-4.48706 3.82664,-3.24218 4.47621,-2.39366 4.39818,-1.15496 3.93206,0.26355 4.04161,1.71514 2.40296,2.22777 1.71876,3.14089 0.91674,3.72794 0.009,3.21014 -0.15452,3.48247 -0.79219,3.52072 -1.74719,4.10104 -2.83445,4.58835 -2.944,3.14968 -2.86546,2.07378 -3.10731,1.62625 -3.6313,0.81442 -4.49171,-0.32918 -2.4381,-0.99528 c -1.20237,-0.67255 -0.73332,-0.30693 -1.86035,-1.35444 z" /><path
         style="fill:#000000"
         d="m 66.942617,188.37498 c -1.164167,-0.13137 -3.247761,-0.1703 -4.630208,-0.0865 -2.194985,0.13304 -2.949463,0.0512 -5.953126,-0.64571 -1.89177,-0.43893 -4.451614,-0.9058 -5.688541,-1.03748 -2.682891,-0.28563 -6.640948,-1.37232 -8.934698,-2.45306 -0.91226,-0.42982 -1.843499,-0.7815 -2.069419,-0.7815 -0.225921,0 -0.589358,-0.17859 -0.80764,-0.39687 -0.218281,-0.21828 -0.715792,-0.39697 -1.10558,-0.39708 -0.764027,-2.3e-4 -3.592239,-1.24952 -4.839803,-2.13786 -0.421899,-0.30042 -1.510466,-0.83848 -2.419038,-1.19569 -2.296528,-0.90289 -2.955885,-1.2999 -5.223823,-3.14536 -1.091406,-0.88809 -2.32579,-1.82958 -2.743075,-2.09219 -0.417285,-0.26261 -1.451105,-1.09064 -2.297377,-1.84007 -0.846273,-0.74942 -2.152555,-1.83883 -2.902851,-2.42092 -0.750295,-0.58208 -1.535941,-1.45047 -1.745879,-1.92974 -0.209939,-0.47927 -0.556538,-0.9385 -0.770221,-1.02049 -0.213682,-0.082 -0.388514,-0.29352 -0.388514,-0.47003 0,-0.17652 -0.396998,-0.78886 -0.882217,-1.36076 -1.069428,-1.26046 -3.580816,-4.57265 -5.2032,-6.86232 -1.528967,-2.15784 -1.424926,-2.07455 -2.539132,-2.03267 -1.226755,0.0461 -2.157987,-0.44671 -3.361717,-1.77909 -1.45986896,-1.6159 -2.72255796,-4.99206 -2.37984096,-6.36319 0.308982,-1.23617 1.38364096,-3.43153 1.96374396,-4.01164 0.501337,-0.50134 0.536626,-0.67833 0.278146,-1.39504 -1.066678,-2.9577 -1.80006496,-14.63796 -1.1646,-18.54795 0.925549,-5.69485 0.766878,-5.19945 2.072773,-6.47152 2.35157,-2.29067 2.640277,-3.82647 1.404992,-7.47399 -0.448396,-1.32401 -0.527277,-1.98995 -0.385249,-3.2524 0.09823,-0.87313 0.276167,-2.7186 0.395421,-4.10104 0.234998,-2.72421 0.983593,-5.29578 1.989187,-6.83323 0.349653,-0.53459 0.7202,-1.32917 0.823437,-1.76573 0.103236,-0.43657 0.527202,-1.22761 0.942146,-1.75787 0.414944,-0.53026 0.754443,-1.07345 0.754443,-1.20707 0,-0.49618 1.054297,-2.40052 2.098009,-3.78957 0.943147,-1.255206 1.079972,-1.615069 1.100977,-2.895665 0.06104,-3.721192 0.273765,-6.041267 0.637959,-6.957787 0.218014,-0.548648 0.396389,-1.702481 0.396389,-2.564073 0,-0.861592 0.119062,-1.640115 0.264583,-1.730052 0.145521,-0.08994 0.264583,-0.378563 0.264583,-0.641392 0,-0.262829 0.228334,-0.76815 0.507409,-1.122936 0.279074,-0.354786 0.593532,-1.104143 0.698794,-1.665238 0.246479,-1.313847 1.47965,-3.135363 2.585239,-3.818654 1.015228,-0.627446 4.146059,-3.822526 4.146059,-4.231143 0,-0.154205 0.938475,-1.276696 2.0855,-2.494424 1.147026,-1.217728 2.175435,-2.50085 2.285355,-2.851382 0.50949,-1.624755 1.806758,-2.598128 3.4816,-2.612331 0.608069,-0.0052 1.268735,-0.17253 1.468146,-0.371941 0.199411,-0.199411 0.773462,-0.571223 1.275669,-0.826249 1.348352,-0.684706 7.658977,-4.887945 7.666102,-5.106063 0.01514,-0.463502 3.581138,-4.222134 4.618074,-4.867539 0.634348,-0.394828 1.479935,-1.127152 1.879081,-1.627387 0.399147,-0.500234 1.472717,-1.488342 2.385713,-2.195794 1.172194,-0.908299 2.120137,-1.986021 3.225882,-3.667528 0.86124,-1.309688 1.649302,-2.616095 1.75125,-2.903128 0.101947,-0.287033 0.541482,-1.001408 0.976745,-1.5875 2.444311,-3.291328 3.816656,-6.049625 4.320767,-8.684377 0.782323,-4.08883 2.240382,-6.106406 4.9908,-6.905974 1.730601,-0.503099 2.347124,-0.521708 4.209106,-0.127048 2.647201,0.561093 4.922098,2.210462 7.69758,5.580977 1.24973,1.517658 2.10066,2.958552 3.315277,5.613817 0.898711,1.964665 1.634021,3.77226 1.634021,4.016879 0,0.244619 0.523662,1.409338 1.163693,2.588266 1.129518,2.080545 1.472698,3.07164 2.895238,8.361213 0.60689,2.25664 0.65711,2.797486 0.49134,5.291667 -0.20666,3.109319 0.0469,8.671744 0.41191,9.036767 0.14055,0.14055 0.99541,0.107773 2.09155,-0.08019 1.6614,-0.284899 2.16739,-0.255031 4.87453,0.287738 6.8865,1.380711 9.642763,1.871169 9.919273,1.765063 0.57728,-0.221525 4.78228,0.397804 7.25205,1.06811 2.88567,0.783183 3.60666,1.111191 4.76197,2.166398 0.45629,0.416756 1.6859,1.206251 2.73247,1.754433 2.53394,1.327251 4.94039,2.863371 4.94325,3.155451 0.001,0.129832 0.53179,0.85582 1.17893,1.613307 1.31395,1.537986 2.52755,3.6582 2.52755,4.415723 0,0.273753 0.3003,1.211225 0.66734,2.083271 0.36704,0.872046 0.73855,2.104985 0.82557,2.739864 0.087,0.63488 0.23319,1.265395 0.32484,1.401145 0.19849,0.294018 3.20391,2.581988 4.62106,3.517925 0.89138,0.5887 2.82161,3.31504 2.82161,3.985371 0,0.139069 0.59382,0.618238 1.31961,1.064819 1.54595,0.951231 2.15819,1.736991 2.76508,3.548761 0.24372,0.72761 0.90689,2.09683 1.4737,3.04271 1.92966,3.22017 2.37559,4.48909 2.6416,7.51687 0.13549,1.54209 0.42951,3.34331 0.65338,4.00271 0.22387,0.6594 0.40704,1.72203 0.40704,2.36139 0,2.18679 1.03333,2.39524 5.29167,1.06746 1.09141,-0.3403 3.11547,-0.72912 4.49792,-0.86404 2.15503,-0.21031 2.71396,-0.17763 3.91869,0.22912 0.94855,0.32026 1.80962,0.42651 2.64987,0.327 0.83666,-0.0991 1.57653,-0.009 2.25681,0.27545 0.71899,0.30041 1.15335,0.34727 1.49992,0.16179 0.57002,-0.30507 1.85481,-0.33841 2.25775,-0.0586 0.6185,0.4295 1.17529,1.55047 1.17529,2.36617 0,0.71673 0.18302,0.98453 1.07729,1.57633 1.18502,0.78421 1.58162,1.45201 2.95939,4.98313 1.7132,4.39079 2.84258,8.25432 2.84049,9.71707 -0.005,3.3829 -0.69175,5.64397 -2.5138,8.2746 -1.28964,1.86195 -1.59591,2.13634 -3.41295,3.05766 -2.16926,1.09991 -10.51937,9.23775 -12.57454,12.25488 -0.21072,0.30935 -1.68288,1.95783 -3.27146,3.66328 -1.58858,1.70545 -3.02958,3.49139 -3.20221,3.96875 -0.47605,1.3164 -1.9604,4.113 -2.29174,4.31778 -0.16117,0.0996 -1.587,0.62718 -3.1685,1.17237 -4.10411,1.41481 -5.8684,2.53886 -11.62599,7.40705 -1.0595,0.89583 -11.34107,6.36604 -14.29306,7.60449 -3.86844,1.62292 -6.82089,2.72383 -9.01881,3.36293 -1.22429,0.356 -3.11895,1.02339 -4.21036,1.48309 -2.81778,1.18686 -4.78993,1.79893 -6.827943,2.11911 -0.97406,0.15302 -2.42586,0.52558 -3.22623,0.82789 -1.05983,0.40033 -2.17408,0.56499 -4.10104,0.60605 -1.8264,0.0389 -2.97361,0.19888 -3.70417,0.5165 -1.79415,0.78004 -16.914921,1.6434 -20.90208,1.19347 z m 7.276042,-0.61534 c 1.382448,-0.20375 4.597135,-0.45032 7.14375,-0.54793 3.571498,-0.13689 4.950088,-0.29381 6.029198,-0.68631 1.00936,-0.36713 2.09353,-0.50884 3.89281,-0.50884 1.78898,0 2.85179,-0.13788 3.76038,-0.48781 0.69662,-0.2683 2.39766,-0.70026 3.78011,-0.95992 1.472643,-0.27659 3.444883,-0.88976 4.762503,-1.48066 1.23693,-0.5547 3.26099,-1.322 4.49792,-1.70512 7.37017,-2.28275 10.69345,-3.68503 18.25625,-7.70333 2.11005,-1.12112 4.24631,-2.25563 4.74725,-2.52113 0.50093,-0.26549 1.27484,-0.82743 1.71979,-1.24876 3.10118,-2.93649 8.74638,-6.61574 11.25392,-7.33473 3.52264,-1.01005 3.59008,-1.05619 4.61449,-3.15703 0.52134,-1.06913 -1.23864,-4.16694 -1.23864,-4.3227 0,-0.32123 4.38026,-0.77639 6.522,-2.94548 0.79027,-0.80036 1.72936,-1.89463 2.08685,-2.43169 2.50409,-3.76189 10.07266,-11.08286 13.08728,-12.65914 1.15447,-0.60365 1.97711,-1.24325 2.31852,-1.80267 0.29104,-0.47688 0.89541,-1.36921 1.34305,-1.98295 0.89641,-1.22906 1.36739,-2.78556 1.69374,-5.59751 0.19699,-1.6973 0.1374,-2.10637 -0.71295,-4.89479 -0.99348,-3.25776 -1.19079,-3.8116 -2.45067,-6.87917 -0.63761,-1.55245 -2.00487,0.0639 -3.16221,-1.01529 -0.98926,-0.92244 -3.10407,-2.60166 -2.99855,-2.87665 0.20958,-0.54616 -0.13822,-0.0698 -0.66855,-0.18267 -0.23059,-0.0491 -1.01531,-0.20874 -1.49546,-0.0663 -0.62907,0.18661 -1.02946,1.50806 -1.72666,1.25595 -0.53215,-0.19243 -2.17834,-0.20744 -3.09203,-0.1823 -1.09471,0.0301 -2.30671,-0.559 -2.92379,-0.5483 -0.74014,0.0128 0.44715,0.056 -1.99131,0.29531 -1.79523,0.1762 -4.91213,1.09946 -6.06946,1.53524 -1.9717,0.7424 -5.40772,-0.33732 -5.93205,-0.86165 -0.16628,-0.16628 -1.06835,-4.34158 -1.17864,-5.40744 -0.1103,-1.06586 -0.90501,-4.68385 -1.06749,-5.0935 -0.16248,-0.40966 -0.16375,-2.56853 -0.61404,-3.43737 -0.40769,-0.78666 -0.52528,-0.50362 -1.71646,-2.63584 -1.14751,-2.05408 -2.06135,-4.01135 -3.01793,-5.91121 -1.16972,-2.32316 -0.62921,-2.81465 -1.72073,-3.53938 -1.04704,-0.6952 -2.37983,-0.984899 -2.9553,-2.122302 -0.81059,-1.602103 -1.5762,0.212335 -4.75346,-2.021754 -1.97128,-1.386104 -2.50364,-4.891958 -2.84052,-6.562059 -0.18549,-0.91964 -0.49384,-2.562964 -0.78721,-3.226171 -0.29337,-0.663208 -2.19765,-3.002249 -2.19765,-3.251549 0,-1.06049 -1.20419,-1.005008 -3.16192,-3.021172 -1.58708,-1.634452 4.35265,-2.861693 2.62012,-3.756411 -1.23692,-0.638778 -2.9205,-1.685632 -3.74127,-2.326343 -1.33228,-1.039999 -1.88558,-1.263511 -5.15938,-2.084187 -2.32529,-0.582905 -4.15111,-0.893627 -4.98997,-0.849205 -1.60099,0.08478 -5.326093,-0.439696 -8.189113,-1.152989 -1.15703,-0.288262 -2.46671,-0.531145 -2.91041,-0.53974 -0.4437,-0.0086 -0.95607,-0.134019 -1.1386,-0.27872 -0.41015,-0.325145 -2.02725,-0.352851 -4.32737,-0.07414 -3.98755,0.48318 -7.99108,-10.493945 -7.952625,-10.844711 0.20077,-1.831409 -0.579033,-2.95898 -1.103633,-5.019315 -1.07623,-4.22685 -1.579616,-4.484599 -2.301415,-5.702423 -1.082717,-1.826771 -2.426812,-5.672711 -2.440656,-6.254251 -0.01928,-0.809729 -2.67451,-3.743549 -3.62859,-4.97469 -2.243837,-2.895438 -2.2784,-0.873621 -4.133089,-1.831108 -1.440481,-0.743652 1.468675,0.06746 -0.0289,0.506461 -2.708788,0.794058 0.305374,-1.408733 -0.537459,2.68627 -0.514209,2.498345 -2.152775,5.791903 -3.49781,7.929568 -0.567293,0.9016 -2.038114,3.250807 -2.620198,4.206348 -2.967577,4.871538 -5.009972,6.600451 -6.178508,7.478944 -0.67748,0.509323 -4.652034,3.867174 -5.313723,4.574566 -0.661689,0.707393 -3.208909,3.698814 -3.806035,4.082827 -1.008842,0.64879 -4.952493,3.094516 -4.957126,3.51506 -0.0024,0.216947 -2.791929,1.712717 -4.149772,2.402243 -0.502207,0.255026 -4.260495,-1.76887 -4.459906,-1.569459 -0.19941,0.199411 -0.337021,1.457756 -0.94509,1.462912 -1.674842,0.0142 -1.593387,2.524694 -2.102876,4.149449 -0.10992,0.350533 0.102404,2.425757 -1.044622,3.643485 -1.147025,1.217728 -2.446804,2.478181 -2.446804,2.630593 0,0.411207 -1.283779,1.726525 -2.514437,2.575936 -1.169427,0.807149 -0.994867,1.187315 -1.285327,2.753883 -0.101559,0.54775 -0.96763,1.713534 -1.145913,1.820627 -0.482603,0.289896 -0.846075,2.381822 -0.855863,3.761151 -0.0047,0.669509 -0.356574,4.4997 -0.638115,5.300064 -0.283446,0.805784 0.577201,1.363334 0.561994,2.315622 -0.0151,0.94589 1.952778,1.81355 1.849115,2.90496 -0.169941,1.78919 -3.507436,-0.51493 -4.512599,0.79715 -0.613148,0.80037 -0.955992,1.92502 -1.178794,2.57986 -0.222803,0.65485 -1.573978,3.12494 -2.006458,3.69657 -0.432481,0.57163 -1.117809,2.61388 -1.117809,2.75673 0,0.14285 -1.221749,2.56505 -1.514458,4.02504 -0.334482,1.66836 0.07125,0.9099 -0.202258,3.47763 -0.421877,3.96064 0.532348,4.80438 1.047034,6.67787 0.466528,1.6982 -0.989349,5.57154 -1.379874,5.57154 -0.129745,0 -0.969559,0.66067 -1.059962,1.02086 -0.0904,0.3602 -1.263648,1.65034 -1.562985,2.4304 -0.344327,0.89731 -0.382905,1.58353 -0.956419,3.72004 -0.615834,2.29415 -0.780902,-1.16295 -0.769767,4.5128 0.0091,4.62886 -0.220076,5.63083 0.09962,6.93899 0.231164,0.94588 1.050142,3.23814 1.052293,3.72793 0.0022,0.48979 0.813976,1.37284 1.068638,2.0916 0.460081,1.29854 -2.651007,0.61079 -3.235674,1.05641 -0.691065,0.52671 -0.848873,0.80808 -0.852742,1.66188 -0.0015,0.32511 -0.521437,1.97535 -0.193798,2.92123 0.442051,1.27619 -1.123041,-0.3459 0.04717,0.43868 1.211719,0.81241 1.440161,0.68822 2.746628,0.81376 1.117857,0.10741 0.206758,-1.33609 0.560575,-0.84904 0.250977,0.34548 3.781456,7.96123 5.351517,10.06088 1.570061,2.09965 3.330906,4.47643 3.91299,5.28174 1.503149,2.0796 5.353302,5.75796 7.805208,7.45696 0.509323,0.35292 1.81901,1.36289 2.910417,2.24437 2.274326,1.83688 2.936519,2.23408 5.223823,3.13334 0.908572,0.35721 1.997139,0.89527 2.419038,1.19569 1.185524,0.84417 4.060443,2.13763 4.751733,2.13786 0.341349,1.1e-4 0.936661,0.16313 1.322916,0.36226 3.549249,1.82979 8.229871,3.29868 11.68249,3.66625 1.236927,0.13168 3.75834,0.58819 5.60314,1.01446 2.845292,0.65745 3.708347,0.75295 5.688542,0.62945 1.283898,-0.0801 3.465454,-0.0362 4.847902,0.0974 3.660351,0.35389 4.111652,0.3501 6.879167,-0.0578 z m -5.896534,0.32803 c -0.594536,-0.0346 -2.90678,-0.0773 -5.380634,-0.091 -3.960106,-0.0218 -2.315769,0.31901 -3.946401,-0.22287 -1.213368,-0.40322 -2.945636,-0.89134 -4.693002,-0.98629 -1.686489,-0.0916 -4.028103,-0.4093 -4.851102,-0.72962 -0.715865,-0.27863 -2.284845,-0.58431 -3.08521,-0.76998 -0.800364,-0.18568 -2.829789,-0.78114 -3.816831,-1.27455 -0.987042,-0.4934 -1.747156,-0.91856 -2.651885,-1.14484 -0.90473,-0.22627 -3.370437,-0.93133 -4.752885,-1.70433 -1.382448,-0.773 -2.88267,-1.57728 -3.464753,-1.75813 -1.240304,-0.38537 -3.616196,-1.66801 -5.604938,-3.36004 -0.800365,-0.68095 -4.375368,-3.5089 -4.765647,-3.71364 -1.374097,-0.72087 -5.973276,-5.70138 -6.314051,-6.13133 -1.909201,-2.40881 -1.222527,-1.62101 -2.987903,-4.1357 l -2.392529,-3.5033 c -1.507788,-1.86761 -1.397184,-1.98531 -2.365319,-4.65274 -0.369714,-1.01865 -0.979752,-2.05825 -1.40717,-3.00414 -0.427419,-0.94588 0.273503,-4.70192 0.100618,-5.4097 -0.172885,-0.70779 0.184403,-2.01436 -0.22584,-2.83455 -0.410244,-0.82018 -0.882719,-2.08655 -1.049945,-2.81416 -0.407849,-1.77456 -0.399194,-7.35619 -0.237114,-8.71639 0.06601,-0.55399 -0.650072,-1.82086 -0.332514,-1.96677 l 0.972738,-0.44693 -0.331522,2.92801 c -0.250699,2.21418 -0.223163,3.09348 -0.02397,5.15938 0.272373,2.82478 0.534213,3.91978 1.296995,5.42395 0.368977,0.72761 0.876084,2.03526 1.126905,2.90589 0.250822,0.87063 0.81302,2.35891 1.249331,3.30729 0.43631,0.94838 1.0091,2.31964 1.272867,3.04724 1.429638,3.94368 1.350402,3.79955 3.418105,6.21771 l 0.791832,0.92604 0.423528,-0.59531 c 0.601729,-0.84579 2.01473,-0.79834 3.202411,0.10755 2.386769,1.82048 3.334541,6.16357 1.348989,6.18164 -0.491651,0.004 -0.345814,0.22812 0.90576,1.38906 2.956666,2.74254 4.456393,4.01206 5.179993,4.38484 0.405117,0.20871 1.212827,0.81055 1.79491,1.33741 1.397173,1.26464 3.509735,2.58988 4.497917,2.82162 0.436563,0.10237 1.934837,0.82654 3.3295,1.60926 1.394662,0.78272 3.213996,1.59979 4.042965,1.81571 0.828969,0.21592 1.983919,0.63577 2.566554,0.93301 0.582636,0.29724 1.192714,0.458 1.355728,0.35726 0.163014,-0.10075 0.228229,-0.0729 0.144923,0.0619 -0.399701,0.64673 6.284878,2.51592 9.859289,2.75692 1.733484,0.11688 3.176083,0.36553 3.836458,0.66125 1.142606,0.51167 6.891189,0.83926 17.727084,1.01021 6.578307,0.10378 9.375897,-0.14966 11.708987,-1.06077 1.46061,-0.57038 2.28963,-0.70851 4.56451,-0.76052 1.83391,-0.0419 3.1284,-0.20923 3.80442,-0.49168 0.56356,-0.23548 2.46783,-0.71701 4.23171,-1.07009 3.545883,-0.70977 9.812463,-2.62645 12.070583,-3.69187 0.80036,-0.37763 1.7951,-0.68776 2.21053,-0.68918 0.74729,-0.003 1.50444,-0.33623 5.02134,-2.21287 0.99435,-0.53059 2.06899,-0.96471 2.38809,-0.96471 0.3191,0 1.47007,-0.55681 2.55772,-1.23735 1.08764,-0.68054 2.92424,-1.63918 4.08134,-2.13031 1.2755,-0.54138 2.57764,-1.33585 3.30729,-2.01786 1.2138,-1.13455 5.1333,-3.83171 6.42052,-4.4182 0.57673,-0.26278 0.72492,-0.54858 0.86733,-1.67275 0.24806,-1.95809 1.29293,-3.93999 3.08997,-5.86104 2.04334,-2.18433 3.18284,-2.64626 5.91677,-2.39852 2.3656,0.21437 3.03901,-0.12525 4.29459,-2.16583 0.42565,-0.69176 1.2024,-1.55136 1.72611,-1.91021 0.52371,-0.35885 1.39306,-1.34447 1.93189,-2.19025 0.53882,-0.84579 1.20106,-1.65627 1.47164,-1.80108 0.27058,-0.14481 0.94352,-0.83455 1.49542,-1.53275 0.55189,-0.69821 2.069,-2.23513 3.37134,-3.4154 1.30235,-1.18027 3.02275,-2.7601 3.82311,-3.51074 0.80036,-0.75064 1.76557,-1.5256 2.14491,-1.72214 0.37933,-0.19653 0.87522,-0.64048 1.10197,-0.98655 0.24322,-0.3712 1.06563,-0.86743 2.0056,-1.21017 1.67408,-0.61039 2.9496,-1.78326 2.9496,-2.71219 0,-0.28568 -0.22474,-0.96115 -0.49943,-1.50106 -0.2747,-0.5399 -0.75326,-1.83568 -1.06347,-2.8795 -0.31022,-1.04381 -1.03797,-2.84475 -1.61723,-4.00207 -0.57926,-1.15733 -1.0532,-2.28895 -1.0532,-2.51472 0,-0.5312 -1.3146,-1.56704 -1.76796,-1.39307 -0.19179,0.0736 -0.81382,0.0662 -0.81382,-0.13197 0,-0.69699 0.87067,-3.09441 2.07479,-2.83653 5.20123,1.11395 4.05136,1.82068 4.05136,2.04194 0,0.22126 0.10298,0.95612 0.67049,2.0816 0.56751,1.12548 0.9979,2.67712 1.25356,3.61174 0.25566,0.93462 0.62495,2.83644 0.84632,3.273 0.22137,0.43657 -0.12479,2.13446 -0.0216,2.7893 0.31502,1.99926 -0.2863,3.10243 -1.21412,4.8839 -0.38508,0.73938 -0.14792,-0.37337 -0.24552,-0.0658 -0.0863,0.27177 0.0304,0.50165 -0.55356,0.88808 -0.58393,0.38643 -1.82941,2.3167 -2.15034,2.68971 -0.32093,0.373 -3.24113,2.11295 -3.82322,2.51647 -1.78076,1.23448 -6.39863,5.57435 -7.02573,6.80963 -0.21432,0.42219 -2.05792,2.99352 -2.75227,3.579 -0.69436,0.58549 -3.06001,3.03971 -3.48031,3.67423 -1.36445,2.05996 -4.06489,2.46571 -6.59169,2.25523 -1.93668,-0.16132 -1.69973,-1.80433 -2.78628,-1.2936 -2.53373,1.191 -6.01065,4.54658 -6.20217,7.27987 -0.093,1.32792 3.61757,3.23319 2.92094,3.2431 -0.49737,0.007 -2.02123,0.90723 -3.26945,2.11496 -0.80011,0.77414 -2.09992,2.25096 -3.59139,2.87998 -2.38834,1.00728 -2.02342,1.16867 -2.88793,1.93763 -0.29471,0.26213 -1.47354,1.03118 -2.41576,1.27185 -0.94223,0.24067 -4.42804,2.215 -4.79184,2.46976 -1.47718,1.0344 -1.2538,1.12718 -2.5961,1.35046 -0.78389,0.13039 -2.44396,1.0098 -3.24433,1.45447 -0.80036,0.44466 -4.04765,1.81721 -4.30013,1.81984 -0.25249,0.003 -3.75235,1.24888 -5.24611,1.74828 -1.49377,0.4994 -1.77798,1.0496 -3.37871,1.35998 -1.60073,0.31037 -4.51529,1.49965 -5.388423,1.80298 -1.18212,0.41066 -3.15809,0.85432 -4.76949,1.14119 -1.65146,0.294 -3.86467,0.0503 -5.86689,0.3736 -2.99472,0.48359 -4.62109,1.60794 -8.47331,1.33691 -1.527969,-0.1075 -4.131452,0.0215 -4.713535,0.1317 -1.322516,0.25053 -4.558087,0.65578 -5.923849,0.36041 z M 47.892617,172.73274 c -1.269858,-0.44388 -2.475834,-1.48002 -3.063609,-2.63215 -0.506144,-0.99212 -0.531111,-2.03489 -0.17785,-1.73392 0.175886,0.14986 0.490357,1.17826 0.796797,1.62785 1.597991,2.34446 4.717208,2.19483 6.804367,-0.18231 1.188346,-1.35345 2.864458,-1.21491 2.003824,-2.97398 -0.70872,-1.44857 -1.249781,-1.80629 -1.944903,-1.80629 -0.274714,0 0.270995,-0.89861 0.459873,-0.54569 0.140105,0.26179 1.793042,2.12353 1.894703,3.0221 0.182117,1.60969 -0.402013,3.573 -1.300688,4.47168 -1.638061,1.63806 -5.863855,0.15539 -7.700389,-1.30237 -1.243658,-0.98716 -1.788712,-2.88494 -0.509306,-2.20309 0.465716,0.2482 1.247829,0.69002 1.367786,0.6565 0.119958,-0.0335 0.151236,0.0472 0.06951,0.17947 -0.261864,0.42371 1.388839,0.9065 2.561652,0.74923 0.800698,-0.10737 1.32668,-0.38199 1.84709,-0.96438 0.795756,-0.89053 0.89744,-1.7328 0.445756,-3.69231 -0.340717,-1.4781 -0.06211,-1.81819 1.096391,-1.33833 0.933442,0.38665 2.225687,2.2065 2.621252,3.69149 0.54098,2.03089 -0.884084,4.45109 -2.973778,5.05041 -1.106127,0.31723 -3.28676,0.27974 -4.298475,-0.0739 z m -10.261203,-7.90708 c -1.436369,-0.33822 -2.408223,-0.89645 -3.201032,-1.83865 -0.558626,-0.66389 -0.692974,-1.09802 -0.692974,-2.23926 0,-1.22073 0.09778,-1.49261 0.709935,-1.97414 1.049782,-0.82576 1.552681,-0.60612 1.475238,0.6443 -0.08401,1.3565 0.493475,1.9924 1.809392,1.9924 1.054178,0 1.05811,-0.009 0.624818,-1.48487 -0.110687,-0.37693 -0.02723,-0.61135 0.256389,-0.72018 1.134546,-0.43537 3.026233,1.30041 3.252053,2.98402 0.31613,2.35693 -1.257963,3.33711 -4.233819,2.63638 z m 99.977806,-2.4106 c -0.0944,-0.0944 0.27388,-1.77911 0.27388,-2.46585 0,-1.5764 2.26225,-4.37863 3.60078,-5.46102 1.31267,-1.06147 3.60024,-0.8771 5.33077,0.24421 1.53862,0.99699 2.9498,3.46715 2.05686,5.21744 -0.64016,1.25483 -1.97626,2.34785 -4.66244,3.01194 -3.25406,0.8045 -3.62587,1.8792 -3.82667,1.71541 z m 5.21225,-1.55204 c 1.19528,-0.30101 2.3633,-0.68796 2.5956,-0.8599 0.50827,-0.3762 1.29743,-1.8455 1.29743,-2.41565 0,-0.55207 -2.33311,-1.9867 -3.24115,-1.99297 -1.4118,-0.01 -3.63802,2.89428 -3.63802,4.74569 0,1.25467 0.0472,1.26294 2.98614,0.52283 z M 71.9697,155.5948 c -0.582083,-0.11749 -2.784739,-0.22227 -4.894791,-0.23285 -2.170294,-0.0109 -4.813176,-0.19334 -6.085417,-0.42014 -1.236927,-0.22051 -2.667479,-0.40311 -3.179003,-0.4058 -1.03277,-0.005 -7.710664,-1.45609 -8.413059,-1.82762 -0.245564,-0.12989 -1.696636,-0.71569 -3.224605,-1.30177 -4.711144,-1.80705 -9.148379,-3.66904 -9.869404,-4.14147 -0.595957,-0.39049 -0.813097,-0.40532 -1.626715,-0.11111 -0.769397,0.27822 -1.090052,0.34171 -1.269855,-0.008 -0.605127,-1.17695 1.822788,-1.46062 2.233995,-1.00039 0.468288,0.52412 -0.236487,0.0779 1.083665,0.75285 2.255369,1.15318 11.438968,4.88009 13.946231,5.65969 3.894434,1.21092 11.859324,2.31953 17.065625,2.37531 2.037292,0.0218 4.239948,0.12558 4.894792,0.23055 1.462254,0.23441 6.000511,-0.38682 7.714126,-1.05596 1.183284,-0.46205 2.010285,-2.35252 2.860244,-1.90009 0.867878,0.46229 -0.756126,0.29948 2.810268,-0.49805 1.99984,-0.44721 6.07675,-1.24334 6.55173,-1.24334 0.47497,0 3.42741,-0.74754 3.93577,-0.90052 0.50836,-0.15298 2.88039,-0.81282 4.190073,-1.0792 3.15064,-0.64081 5.75232,-1.98104 6.63154,-2.42816 0.3875,-0.19706 2.70975,-1.43216 3.84868,-1.82233 2.34672,-0.80393 8.44377,-4.29514 10.10285,-5.48954 6.11663,-4.40347 5.10816,-3.33611 8.38713,-6.6106 3.65281,-3.64782 4.18967,-5.65725 6.72592,-10.2656 1.40412,-2.55127 4.43174,-3.85989 4.88312,-5.18994 1.21885,-3.59154 1.76657,-2.68635 4.24271,-2.79769 1.19177,-0.0536 2.99783,-0.371 4.22083,-0.7418 2.68513,-0.81411 6.41338,-1.15306 7.31931,-0.66543 0.39396,0.21205 1.43759,0.32769 2.71985,0.30136 l 2.08061,-0.0427 -0.17992,0.72364 c -0.099,0.398 -0.24533,1.46629 -0.32528,2.37398 -0.0799,0.90769 -0.25065,1.58527 -0.37934,1.50574 -0.2939,-0.18164 -0.29219,-1.7929 0.003,-3.06415 l 0.22459,-0.96641 -1.91547,-0.008 c -1.05352,-0.004 -2.32468,-0.17848 -2.82481,-0.38745 -1.11124,-0.46431 -2.91079,-0.21412 -7.48431,1.0405 -0.72145,0.19792 -2.18555,0.40543 -3.25355,0.46115 -1.068,0.0557 -1.97165,0.14532 -2.00813,0.19913 -0.20486,0.30226 -0.84527,1.91625 -1.39566,3.51746 -0.34637,1.00766 -1.79065,3.98226 -3.20951,6.61022 l -2.57974,4.7781 -3.91704,3.83196 c -3.45955,3.3844 -6.62122,5.93706 -11.28673,9.11264 -1.43854,0.97914 -11.63402,6.04148 -13.10665,6.50781 -0.58208,0.18433 -1.77271,0.63357 -2.64583,0.99832 -1.63914,0.68476 -4.94601,1.59664 -8.863543,2.44416 -1.23693,0.26759 -2.72521,0.61242 -3.3073,0.76627 -0.58208,0.15385 -1.4569,0.28257 -1.94404,0.28604 -0.48714,0.003 -2.53036,0.37205 -4.54049,0.81905 -3.43277,0.76336 -3.703647,0.78747 -4.45897,0.39687 -0.951369,-0.49197 -1.739122,-0.55126 -1.466648,-0.11039 0.110139,0.17821 0.07324,0.23405 -0.08857,0.13405 -0.152545,-0.0943 -0.676957,-0.007 -1.165359,0.19448 -0.805544,0.33192 -2.063529,0.51598 -5.518212,0.80742 -0.654844,0.0552 -1.666875,0.004 -2.248959,-0.11317 z m -59.516248,-0.85795 c -0.423058,-0.604 -0.53547,-1.69244 -0.251279,-2.43303 0.366365,-0.95473 1.69933,-0.20345 2.074096,1.16899 0.02682,0.0982 0.105358,0.52091 0.09276,0.63948 l -0.0123,-0.0855 c 0.05894,0.12333 -0.02927,0.69729 -0.198488,0.90118 -0.475176,0.57254 -1.22908,0.48801 -1.704789,-0.19116 z m 61.977427,0.62919 c -0.08007,-0.0801 -3.530753,-0.17935 -6.276213,-0.22179 -3.107918,-0.048 -6.231359,-0.28326 -7.961051,-0.56701 -5.872137,-0.96332 -8.168872,-1.26546 -9.571834,-1.84591 -0.800365,-0.33114 -5.782406,-2.22687 -6.36449,-2.4087 -1.168431,-0.36499 -6.147553,-2.54675 -8.768261,-3.79541 -1.568916,-0.74753 0.79942,-1.68274 0.115484,-3.203 -0.806584,-1.79288 -2.437681,-3.47976 -4.267144,-4.41308 -0.863216,-0.44038 -1.562175,-0.56976 -2.962851,-0.54844 -1.308782,0.0199 -2.335065,2.30121 -2.896679,1.97097 -0.713942,-0.41981 -5.95538,-8.70209 -7.208204,-10.37674 -0.285347,-0.38143 -1.163261,-1.46176 -1.950921,-2.40074 -0.82606,-0.98476 -1.932999,-2.77624 -2.615729,-4.23333 -0.650992,-1.38935 -4.173604,-2.28598 -4.732723,-3.40003 -1.303501,-2.59725 -0.103689,-9.05937 -0.103689,-11.65624 0,-2.31192 0.847973,-6.31249 1.720474,-8.11687 0.354367,-0.73285 0.825117,-1.84493 1.046111,-2.47129 0.220993,-0.62636 0.745434,-1.57457 1.165423,-2.10713 0.41999,-0.53256 0.841403,-1.32677 0.936474,-1.76492 0.198249,-0.91366 2.55909,-6.04791 3.101649,-6.04791 0.199553,0 4.087287,3.52601 4.486617,4.04956 0.399329,0.52354 1.212902,0.82011 3.112681,2.36075 3.180965,2.57964 2.353234,2.00346 7.28078,4.38163 6.047504,2.91869 4.838364,2.79275 9.313446,3.51934 1.797323,0.29182 3.637877,1.42518 4.662612,1.46731 0.772299,0.0317 0.707078,0.0971 1.881155,0.0747 1.146819,-0.0219 3.457654,0.64104 4.436858,0.84702 2.643714,0.55612 12.02932,1.05974 14.553374,0.73816 1.136526,-0.1448 3.860629,0.86909 5.853043,0.77302 3.452872,-0.16649 4.683445,-1.71166 5.881615,-1.11919 1.834206,0.90698 3.053683,4.64884 4.258818,6.71866 0.579515,0.99531 1.401623,2.20807 1.826913,2.69501 0.73006,0.83591 0.75436,0.93757 0.43517,1.82027 -0.30403,0.84078 2.12291,1.15057 2.62314,1.82716 1.1918,1.612 2.17346,5.46406 2.86617,10.45962 1.12978,8.14763 -1.73006,14.14931 -3.93006,18.50748 -0.89969,1.78227 0.65385,4.89224 -0.0876,4.89224 -0.27054,0 -2.86685,1.33939 -4.007838,1.86656 -3.128257,1.44534 -0.776162,0.95753 -2.434293,0.95753 -0.82609,0 -5.338307,0.85086 -5.418377,0.77078 z m 2.433613,-2.9688 c 0.800365,-0.30037 2.229115,-0.88393 3.175,-1.29679 0.945886,-0.41286 2.1075,-0.89617 2.581366,-1.07403 2.596319,-0.97446 4.631119,-5.13903 5.321689,-10.89178 0.68815,-5.7325 -1.25671,-18.63904 -3.12212,-20.71913 -0.62767,-0.6999 -0.83357,-1.62909 -0.535,-2.41439 0.18414,-0.48431 0.13221,-0.74912 -0.21578,-1.10036 -0.25206,-0.2544 -0.93453,-1.29407 -1.516613,-2.31036 -1.300434,-2.2705 -3.805614,-4.84926 -5.501517,-5.6631 -1.196301,-0.57409 -1.481244,-0.59998 -5.027084,-0.45677 -2.067394,0.0835 -4.592337,0.26931 -5.610983,0.4129 -2.262216,0.3189 -11.653048,-0.0917 -14.789727,-0.64663 -1.178984,-0.20858 -3.063931,-0.38144 -4.188773,-0.38412 -1.142217,-0.003 -2.485586,-0.17458 -3.042708,-0.38926 -0.548648,-0.21142 -2.340398,-0.57619 -3.981667,-0.81061 -3.098042,-0.44248 -5.336706,-1.08408 -6.766061,-1.93915 -0.458231,-0.27412 -2.559554,-1.30858 -4.669606,-2.2988 -2.110052,-0.99022 -4.088959,-1.9886 -4.397571,-2.21862 -2.198099,-1.63835 -6.228253,-5.07266 -7.078266,-6.03177 -1.000022,-1.12838 -1.037765,-1.14486 -1.56139,-0.68181 -0.685727,0.6064 -2.044024,2.7186 -2.044024,3.17853 0,0.1933 -0.416718,0.95726 -0.926041,1.69768 -0.509323,0.74043 -0.926297,1.4817 -0.926609,1.64727 -3.13e-4,0.16557 -0.3563,0.97589 -0.791083,1.80071 -1.031887,1.95757 -1.869269,5.6101 -1.898021,8.27886 -0.03667,3.40374 1.165542,7.58765 3.601959,12.53547 1.098971,2.23177 2.001111,4.13677 2.004755,4.23334 0.01643,0.43528 4.577655,5.9768 7.051437,8.56692 1.211294,1.26825 2.202354,2.42339 2.202354,2.56697 0,0.14358 0.527467,0.62397 1.17215,1.06752 1.036582,0.71319 1.389513,0.80646 3.051504,0.80646 1.499657,0 2.153747,0.13904 3.237493,0.68822 1.859593,0.94233 3.981656,3.1269 4.394561,4.52401 0.417902,1.41402 1.050865,1.85691 4.973273,3.47988 1.730884,0.71618 3.742373,1.55123 4.469977,1.85566 3.794838,1.58776 5.748259,2.19848 8.933724,2.79304 6.218961,1.16076 7.385754,1.29517 12.76211,1.4702 2.910417,0.0948 5.946511,0.19426 6.746875,0.22112 0.930027,0.0312 1.98039,-0.14824 2.910417,-0.49728 z M 65.950429,140.23761 c -0.742098,-0.45653 -0.607939,-1.95824 0.234119,-2.6206 0.884059,-0.6954 1.798316,-0.69875 2.487956,-0.009 0.432564,0.43257 0.504145,0.73358 0.361775,1.52136 -0.09762,0.54015 -0.215341,1.02582 -0.261609,1.07926 -0.222727,0.25728 -2.414586,0.27987 -2.822241,0.0291 z m 14.456596,-2.10527 c -1.045495,-0.42244 -1.006262,-1.44412 0.104348,-2.71735 0.418849,-0.48017 1.785609,-0.61738 2.381803,-0.2391 0.187078,0.1187 0.398811,0.53938 0.470521,0.93484 0.0993,0.54752 -0.0559,0.90529 -0.650514,1.49992 -0.799704,0.79971 -1.324369,0.9184 -2.306158,0.52169 z M 74.39301,133.0857 c -1.945565,-1.53038 -1.185548,-5.27748 1.07042,-5.27748 1.792304,0 3.517729,1.48106 3.517729,3.01952 0,2.1823 -2.88153,3.60039 -4.588149,2.25796 z M 19.621344,111.82354 c -0.448536,-0.68455 -0.578039,-2.17903 -0.233531,-2.69498 0.106913,-0.16012 0.477175,-0.44017 0.822805,-0.62234 0.555303,-0.29268 0.705866,-0.25377 1.294073,0.33444 0.534003,0.534 0.671359,0.94489 0.694498,2.07754 l 0.02884,1.4119 -1.085335,0.0794 c -0.914087,0.0669 -1.154132,-0.0255 -1.521354,-0.586 z m -1.675904,-5.4334 c -1.031053,-0.62868 -1.410628,-1.29649 -1.458345,-2.56578 -0.02836,-0.75432 0.123849,-1.10804 0.684175,-1.59001 0.986221,-0.84832 2.760809,-0.86069 3.522371,-0.0246 1.673403,1.83725 1.460473,3.32152 -0.631027,4.39871 -0.797888,0.41094 -1.143592,0.37529 -2.117174,-0.21835 z m 68.047177,45.23058 c 0.0899,-0.14552 0.0559,-0.26458 -0.0757,-0.26458 -0.13158,0 -0.0233,-4.90557 0.53839,-5.49602 1.38549,-1.45645 -0.085,1.91187 0.70825,-1.13007 0.57836,-2.21793 1.53607,-1.57167 1.55326,-5.6184 0.0111,-2.61424 1.85008,-8.33096 1.66094,-9.45134 -0.52697,-3.1216 -2.36454,-10.0406 -3.09033,-11.63599 -0.50756,-1.11569 -2.90115,-0.98582 -2.76794,-1.77434 0.15571,-0.9216 0.69937,-0.76328 -0.13335,-1.63195 -0.50909,-0.53108 -1.128289,-1.51311 -1.814739,-2.60451 -0.686451,-1.09141 -1.952667,-3.57322 -2.59459,-4.17147 -0.680288,-0.634 -0.6854,-2.47587 -0.6028,-2.69006 0.231734,-0.60092 3.479614,-0.41916 5.648989,-0.64059 1.17204,-0.11963 3.08883,-0.59016 4.54151,-1.11484 1.38244,-0.49932 3.25904,-0.98381 4.17022,-1.07664 0.96646,-0.0985 2.34437,-0.49009 3.30729,-0.93996 0.90784,-0.42414 2.90077,-1.20584 4.428743,-1.73712 1.52796,-0.53127 3.07578,-1.1682 3.43958,-1.41539 0.3638,-0.24719 1.73302,-1.01264 3.04271,-1.701 7.06703,-3.71438 8.08469,-6.31112 10.35587,-5.44375 0.68392,0.26119 1.95537,1.29761 2.53162,1.27503 1.71287,-0.0671 4.37468,1.02299 6.94353,3.57225 1.99819,1.98295 2.93631,2.98699 4.09822,5.41988 1.48911,3.11798 2.37069,4.35739 2.37284,5.85458 8.6e-4,0.59278 -0.1889,0.42238 0.14554,0.96353 0.52114,0.84322 0.92916,4.18577 1.03362,8.20082 0.1796,6.90294 1.09654,8.83022 -1.48836,13.47424 -1.44905,2.60337 -4.74706,3.50057 -6.96156,5.18748 -4.45206,3.39137 -8.45257,5.86638 -13.87051,8.58131 -2.98238,1.49448 -5.57496,2.71724 -5.76129,2.71724 -0.18633,0 -1.13947,0.40186 -2.11811,0.89302 -0.97863,0.49117 -2.19605,0.97553 -2.70537,1.07637 -0.50932,0.10084 -1.93807,0.46255 -3.175003,0.80381 -3.09317,0.8534 -12.23229,2.78345 -13.17864,2.78316 -0.19049,-6e-5 -0.27276,-0.11918 -0.18282,-0.2647 z m 4.63021,-1.05699 c 1.67349,-0.31029 4.47146,-0.92484 6.21771,-1.36566 1.74625,-0.44082 3.875523,-0.97508 4.731723,-1.18725 0.85619,-0.21218 2.10635,-0.6577 2.77812,-0.99006 0.67177,-0.33235 1.99531,-0.88398 2.9412,-1.22582 0.94588,-0.34185 2.13651,-0.87565 2.64583,-1.18622 0.50933,-0.31057 1.93808,-1.02952 3.175,-1.59766 2.50255,-1.14946 8.14768,-4.4335 10.18646,-5.92596 6.03149,-4.41525 5.76528,-4.13719 7.78869,-8.1351 1.12129,-2.21547 1.48109,-3.29073 2.0357,-6.08363 0.63576,-3.20159 0.66004,-3.62417 0.43144,-7.5084 -0.21598,-3.66962 -0.30847,-4.20545 -0.85306,-4.94205 -0.37819,-0.51153 -0.55597,-1.03592 -0.46681,-1.37687 0.35988,-1.3762 -1.67013,-6.69205 -3.54274,-9.27711 -2.30778,-3.18579 -5.73594,-5.54811 -8.07609,-5.56518 -0.70723,-0.005 -1.58354,-0.17953 -1.94734,-0.3875 -1.59897,-0.91405 -4.54415,-0.15316 -8.70735,2.24956 -1.26015,0.72727 -2.36998,1.32232 -2.46628,1.32232 -0.0963,0 -0.89113,0.41965 -1.76627,0.93256 -0.87515,0.51291 -2.95054,1.40129 -4.61199,1.97418 -1.661443,0.57289 -3.438353,1.28798 -3.948683,1.58908 -0.56133,0.33119 -1.75,0.64135 -3.00897,0.78512 -1.24664,0.14236 -2.92979,0.57929 -4.19775,1.08969 -1.42456,0.57343 -2.82961,0.91819 -4.29707,1.05436 -1.7663,0.16389 -4.254685,0.79451 -4.806068,1.21797 -0.05902,0.0453 0.479331,0.70881 1.196329,1.47441 0.716999,0.7656 1.708199,2.04685 2.202669,2.84721 0.49447,0.80037 1.36664,1.94772 1.93816,2.54967 0.93609,0.98595 1.03808,1.22867 1.02863,2.448 -0.006,0.81091 0.20731,1.8459 0.53278,2.58168 0.78725,1.77971 2.3066,7.67958 2.88581,11.20607 0.55629,3.38688 0.66883,9.25387 0.23601,12.30312 -0.34112,2.40324 -1.23317,5.29809 -2.01629,6.54318 -0.34142,0.54282 -0.62075,1.05365 -0.62075,1.1352 0,0.19963 -1.12345,1.79184 -1.45521,2.06239 -0.1477,0.12045 -0.0308,0.1577 0.26458,0.0843 0.29105,-0.0723 1.89839,-0.38533 3.57188,-0.69563 z m 14.552083,-10.419 c -2.00912,-0.55312 -3.21017,-1.26654 -5.04306,-2.9956 -3.091793,-2.91664 -4.483803,-6.66697 -4.480083,-12.07018 0.005,-7.42764 4.0811,-14.88298 10.541793,-19.28183 3.66908,-2.49814 7.10108,-3.53346 11.08219,-3.34312 1.90772,0.0912 2.63783,0.2584 4.04332,0.92593 3.2613,1.54892 5.23659,3.87109 6.38353,7.50455 0.54589,1.72938 0.62199,2.48441 0.61239,6.07583 -0.0105,3.92533 -0.0487,4.2144 -0.89137,6.74687 -2.37471,7.13659 -6.15792,12.01368 -11.66537,15.03833 -0.94589,0.51947 -2.4937,1.12683 -3.43959,1.34969 -2.04697,0.48229 -5.48521,0.50612 -7.14375,0.0495 z m 6.69312,-0.55966 c 5.70125,-1.48499 11.097,-6.65085 13.95908,-13.36435 1.67302,-3.92436 1.94742,-5.25958 1.9303,-9.39271 -0.0223,-5.38368 -1.01811,-8.27104 -3.75794,-10.89627 -2.88387,-2.76323 -6.96525,-3.66686 -11.25116,-2.49104 -6.84789,1.8787 -12.30862,7.08168 -15.218253,14.49997 -1.88465,4.80502 -1.77039,10.96808 0.28103,15.15922 0.98031,2.00282 3.486573,4.65669 5.252313,5.56168 2.5709,1.31765 5.93621,1.67063 8.80463,0.9235 z m -10.25025,-4.96833 c -2.092713,-1.18534 -2.779613,-3.85217 -1.719623,-6.67623 0.450003,-1.19888 1.007433,-1.9923 2.277103,-3.24114 0.93227,-0.91697 1.917,-1.65365 2.21047,-1.65365 0.48461,0 0.51507,0.12039 0.36138,1.42811 -0.15171,1.29075 -0.11176,1.45813 0.41532,1.74021 0.74107,0.39661 2.06301,-0.0985 4.27661,-1.60173 3.01431,-2.04698 7.38465,-6.64532 9.05556,-9.52798 l 0.70398,-1.21451 -1.32329,-0.72023 c -0.72781,-0.39613 -1.32329,-0.89562 -1.32329,-1.10999 0,-0.21437 0.56554,-0.63458 1.25677,-0.9338 2.4277,-1.05092 7.24635,-2.65479 7.58528,-2.52473 0.18841,0.0723 0.41311,0.58822 0.49933,1.14649 0.0862,0.55827 0.40386,2.36112 0.70587,4.00633 0.30201,1.64521 0.47962,3.10372 0.39469,3.24114 -0.2318,0.37506 -0.62953,0.30812 -1.94088,-0.3267 -1.00299,-0.48554 -1.22629,-0.51686 -1.41451,-0.19844 -0.12292,0.20797 -0.78541,1.36251 -1.47221,2.56566 -4.25226,7.44919 -10.84419,14.10774 -15.63563,15.79365 -1.69132,0.5951 -3.65856,0.51804 -4.91293,-0.19246 z M 4.104074,151.4254 c -1.11379,-0.13306 -1.859668,-0.74376 -1.831195,-1.49933 0.01005,-0.26663 -0.0184,-0.77853 0.04157,-0.83075 0.04847,-0.0422 0.199514,-0.52379 0.239573,-0.2723 0.03249,0.20397 -0.04691,1.13088 -0.0037,1.24886 0.28108,0.76697 0.868078,1.00775 2.479768,1.02012 0.600436,0.005 0.889692,-0.66998 0.900065,-0.30569 0.0077,0.27051 -0.17067,0.52592 -0.238607,0.56983 -0.218281,0.14106 -0.456406,0.23925 -0.529167,0.21819 -0.07276,-0.0211 -0.54901,-0.0881 -1.058333,-0.14893 z m 0.777778,-2.25207 c -0.741639,-2.01163 -1.249329,-2.84427 -1.734249,-2.84427 -0.254088,0 -0.367688,0.34478 -0.370497,1.12448 -0.0022,0.61846 -0.131619,1.30307 -0.287535,1.52135 -0.2223,0.31122 -0.250758,0.25411 -0.131853,-0.26458 0.0834,-0.36381 0.153256,-1.11549 0.155243,-1.67041 0.0035,-0.97629 1.245429,-2.42319 2.068735,-2.34296 0.803188,0.0783 1.982698,-0.0164 2.80296,2.09243 0.9818,2.52413 -1.349614,4.0376 -1.660823,4.0376 -0.03151,0 -0.20462,0.2578 -0.141385,0.0659 0.05955,-0.18076 -0.447968,-1.03426 -0.700596,-1.71949 z m 138.128478,-0.79445 c -1.00514,-0.51985 -1.00231,-1.70292 0.008,-3.3449 0.81461,-1.32392 1.46277,-1.6982 1.73088,-0.99951 0.0741,0.19319 0.008,0.68595 -0.14799,1.09503 -0.35914,0.9446 -0.17921,1.11848 0.68103,0.6581 1.02056,-0.54619 1.45667,-1.58766 1.2614,-3.0123 -0.16401,-1.19659 -0.15792,-1.20874 0.60517,-1.20874 0.42396,0 1.04861,0.19456 1.38811,0.43235 0.55183,0.38651 0.60557,0.59416 0.50688,1.95851 -0.0829,1.1464 -0.29152,1.76362 -0.83831,2.4805 -1.24794,1.63613 -3.88188,2.62019 -5.19518,1.94096 z M 33.21712,145.22283 c -0.09327,-1.29751 -0.181864,-1.78211 -1.100812,-2.87193 -1.211978,-1.43734 -1.96882,-1.68642 -3.970662,-1.30678 -1.901551,0.36063 -3.397528,0.32888 -3.43454,-0.0729 -0.01676,-0.1819 -0.01391,-0.51173 0.0063,-0.73296 0.02024,-0.22123 -0.316261,-0.61079 -0.74778,-0.8657 -0.431519,-0.2549 -1.35056,-1.14546 -2.042314,-1.97901 -0.691753,-0.83356 -1.927686,-2.1704 -2.746519,-2.97076 -0.818832,-0.80037 -2.010608,-2.11006 -2.648391,-2.91042 -0.637784,-0.80037 -1.644804,-1.99099 -2.237824,-2.64583 -0.59302,-0.65485 -1.943344,-2.76457 -3.00072,-4.68827 -1.057376,-1.9237 -2.030952,-3.56466 -2.163501,-3.64658 -0.30469,-0.18831 -2.009511,1.63435 -2.351477,2.51401 -0.141427,0.3638 -0.64852,1.91162 -1.12688,3.43959 -0.176068,0.56239 -0.500867,1.95252 -0.606044,2.3558 -0.07712,0.2957 -0.256858,0.63595 -0.310727,0.43791 -0.02626,-0.0965 -0.766438,-0.33366 -0.770358,-0.48216 -0.0069,-0.26174 0.994395,-1.604 1.442003,-2.9942 0.447609,-1.39019 0.813835,-2.68607 0.813835,-2.87971 0,-0.19365 0.506015,-0.95749 1.124479,-1.69742 1.758105,-2.10339 4.127167,-2.42732 6.511109,2.05044 1.240062,2.32922 2.582861,4.25455 3.421077,5.18957 0.756703,0.84409 2.046277,2.31144 2.273219,2.64382 0.226942,0.33238 1.457904,1.84762 3.587165,4.04012 2.903314,2.98955 2.311855,4.53506 2.311855,5.03428 0,0.59103 1.155286,-1.91801 1.80131,-2.06905 0.400182,-0.0936 1.625057,0.2502 2.8728,0.16255 l 2.07788,0.97235 2.143516,1.78931 c 1.470011,1.2271 1.691688,1.58549 1.729503,3.38748 0.01793,0.85449 -2.251,3.02727 -2.777625,2.54154 -0.08698,-0.0802 -0.05546,-1.40546 -0.07988,-1.74509 z m 96.6518,-1.16339 c -0.22968,-0.59852 0.76987,-1.81692 1.56934,-1.91295 0.84459,-0.10146 1.20627,0.76817 0.70728,1.70055 -0.40551,0.75771 -2.00993,0.90739 -2.27662,0.2124 z m 19.02839,-4.00579 c -0.50915,-0.0953 -0.59531,-0.27813 -0.59531,-1.26332 0,-2.26469 2.27933,-3.72456 3.32457,-2.12932 1.03811,1.58436 -0.71918,3.76878 -2.72926,3.39264 z M 8.454363,131.57448 c -1.219153,-0.84662 -1.679915,-4.00674 -0.663516,-4.5507 1.401436,-0.75002 2.640307,0.0912 2.933933,1.99222 0.110927,0.71817 0.161017,1.95313 0.07094,2.23482 l -0.191835,0.23309 c -0.249661,0.241 -1.716287,0.39121 -2.149489,0.0904 z m 126.170267,-8.8159 c -0.0118,-0.26923 -0.31913,0.35761 -0.15722,-0.98394 0.2728,-2.26055 -0.0934,-9.12054 -0.71068,-10.82031 -0.23675,-0.65193 0.52036,-3.15537 0.22857,-4.16611 -0.67087,-2.32392 -2.51307,-6.04586 -4.0777,-8.23848 -2.18797,-3.06618 -6.41646,-5.9311 -8.75401,-5.9311 -0.84367,0 -1.31781,-0.16967 -1.84846,-0.66146 -0.39255,-0.3638 -0.994,-0.66146 -1.33655,-0.66146 -1.01102,0 -0.72166,-0.57732 0.99459,-1.98437 1.88551,-1.54583 2.88609,-2.899346 3.57113,-4.830769 0.28262,-0.796846 0.91423,-2.248211 1.1837,-2.333739 0.72342,-0.229604 3.11202,0.159227 4.31119,1.161101 0.59628,0.498179 1.89286,0.42201 2.01345,0.42201 0.48075,0 4.4707,1.30274 4.82906,2.1604 0.53624,1.283407 -0.95805,3.649777 0.47118,4.556167 1.04996,0.66587 2.83764,1.49915 3.05546,2.22764 0.99052,3.31279 -2.57633,2.17249 -1.46539,3.80053 2.19031,3.20982 2.28078,3.96112 2.50057,7.30523 0.11328,1.72362 4.13802,5.52693 4.36007,5.81984 0.75372,0.99422 1.12709,2.62027 -0.97281,6.23581 -1.00844,1.73628 -5.75594,5.87059 -6.38773,6.26106 -0.10717,0.0662 -1.69238,3.3056 -1.70129,3.10263 z m 3.5918,-5.46978 c 0.12916,-0.54447 0.54625,-2.13895 0.92687,-3.54327 0.77397,-2.85566 0.88146,-5.06847 0.3093,-6.36739 -0.2105,-0.47788 -0.49569,-2.17856 -0.63376,-3.77929 -0.27656,-3.20637 -0.52578,-3.8513 -2.7762,-7.1842 -0.8175,-1.21074 -1.33082,-2.2874 -1.42487,-2.98862 -0.11658,-0.86914 -0.30709,-1.17887 -0.92012,-1.49587 -1.37745,-0.71231 -2.88364,-2.28752 -3.66238,-3.83019 -0.59772,-1.18407 -1.06164,-1.692054 -2.16124,-2.366501 -0.77009,-0.472336 -1.73672,-1.140464 -2.14806,-1.484729 -1.01861,-0.85249 -2.18372,-0.839984 -2.40101,0.02577 -0.33003,1.314964 -2.03408,3.81126 -3.46824,5.08071 l -1.47311,1.30393 1.09231,0.71516 c 0.70364,0.46069 1.45078,0.71516 2.09973,0.71516 1.5955,0 4.56388,1.68586 6.75506,3.83646 2.64376,2.59481 5.45731,7.47609 6.18768,10.73512 0.14511,0.64755 0.5033,1.71869 0.79598,2.38033 0.66629,1.50626 1.18118,6.48871 1.03276,9.9937 l -0.10821,2.55543 0.87133,-1.65588 c 0.47923,-0.91073 0.97701,-2.10135 1.10618,-2.64583 z m 22.97497,-1.34045 c 0.11621,-1.43713 -0.0774,-3.47993 1.24619,-4.38066 2.10001,-1.42908 6.03746,0.57202 5.99634,3.00903 -0.0145,0.8601 -1.84035,1.71646 -2.08841,2.16819 -0.5115,0.93143 -0.68785,0.73958 -0.2914,-1.10902 0.57486,-2.68048 -0.2792,-3.35365 -2.33589,-1.84113 -0.72513,0.53326 -1.22595,1.17793 -1.49021,1.91823 -0.21891,0.61326 -0.46565,1.29362 -0.54831,1.5119 -0.0827,0.21828 -0.80173,0.44952 -0.67485,-0.24922 z M 53.448867,104.80513 c -1.018646,-0.10575 -4.343724,0.92604 -5.071328,0.67122 -0.939376,-0.32899 0.19741,-1.74107 -0.7235,-1.62093 -0.984535,0.12843 -1.621816,0.0396 -2.645834,-0.36895 -0.741907,-0.29597 -3.665794,-0.50768 -5.640717,-1.00913 -3.088875,-0.78431 -3.60473,-1.71081 -8.005042,-3.91612 -4.278091,-2.14406 -5.617408,-2.96518 -8.183188,-5.01703 -3.663461,-2.92966 -4.235044,-3.52327 -5.222272,-5.42347 -0.688265,-1.324761 -0.752685,-1.680523 -0.718647,-3.968749 0.04087,-2.747572 0.74188,-7.117146 1.32647,-8.268229 0.203236,-0.400182 0.537762,-0.727604 0.74339,-0.727604 0.245665,0 0.432418,-0.430958 0.544612,-1.256771 0.09391,-0.691224 0.220365,-1.440157 0.281012,-1.664296 0.06065,-0.224139 1.296133,-1.474295 2.745524,-2.778125 1.610915,-1.449131 2.906732,-2.866309 3.333661,-3.645877 0.828825,-1.513425 0.679114,-4.363913 1.664125,-3.782053 0.404796,0.239119 2.281634,2.337347 2.842883,2.469206 l 0.50385,1.07976 -1.058333,0.02495 c -0.582084,0.01372 -1.399365,-0.152913 -1.816181,-0.370298 -0.416817,-0.217384 -0.792456,-0.395245 -0.834755,-0.395245 -0.0423,0 -0.382873,0.522092 -0.756831,1.160204 -0.373959,0.638111 -1.915349,2.334752 -3.425312,3.770312 -2.476619,2.354585 -2.759772,2.720488 -2.892318,3.737589 -0.09546,0.732543 -0.429074,1.448824 -0.952404,2.044864 -0.44301,0.504561 -0.870675,1.306883 -0.950366,1.782937 -0.623378,3.723926 -0.938677,6.226489 -0.933731,7.411143 0.0099,2.372892 1.62382,5.153172 4.041925,6.962992 0.756922,0.56651 2.150319,1.65755 3.096436,2.42453 1.072982,0.86981 3.611499,2.34733 6.746875,3.92695 4.414673,2.22414 5.558171,2.67713 9.392287,3.72076 2.401094,0.65356 4.565243,1.20693 4.809221,1.2297 0.243977,0.0228 0.375031,0.15235 0.291231,0.28794 -0.0922,0.14918 0.469766,0.17615 1.423102,0.0683 1.207177,-0.13658 1.97408,-0.056 3.280644,0.34454 0.937848,0.28753 2.479084,0.59996 3.424969,0.69429 2.844852,0.2837 9.260243,0.3302 11.377084,0.0825 1.091406,-0.12773 3.532187,-0.35094 5.423958,-0.49602 1.891771,-0.14507 3.915833,-0.37909 4.497917,-0.52002 0.582083,-0.14094 1.978658,-0.25909 3.1035,-0.26257 1.124841,-0.003 2.49406,-0.17703 3.042708,-0.38569 0.548648,-0.20865 1.957975,-0.50082 3.131845,-0.64926 1.17387,-0.14844 3.07887,-0.63493 4.23333,-1.08109 1.15447,-0.44615 2.93247,-0.94154 3.95112,-1.10087 1.11893,-0.175 2.58523,-0.65908 3.70416,-1.22286 1.01865,-0.51326 2.66656,-1.21056 3.662023,-1.54956 1.74285,-0.59351 3.07313,-1.29437 8.06105,-4.24697 1.26961,-0.75154 2.81019,-1.56723 3.42352,-1.81263 0.70707,-0.28292 1.32168,-0.78039 1.67959,-1.35951 0.31046,-0.50233 1.17595,-1.36812 1.92331,-1.92398 1.70512,-1.268199 2.62058,-2.124304 3.17276,-2.967042 0.57962,-0.884615 2.48148,-6.251789 2.56659,-7.243074 0.32951,-3.838144 -2.1346,-7.264956 -6.96819,-9.690561 -1.44993,-0.72761 -3.04024,-1.715293 -3.53403,-2.194851 -0.75965,-0.737767 -1.30581,-0.958806 -3.54967,-1.4366 -1.45853,-0.310572 -3.46441,-0.564676 -4.45751,-0.564676 -1.8375,0 -6.847943,-0.909805 -10.229913,-1.857569 -1.51807,-0.425421 -2.1394,-0.477602 -3.3073,-0.277752 -0.79093,0.135343 -2.24478,0.323774 -3.23076,0.418734 l -1.7927,0.172655 -0.924832,1.948887 c -0.508655,1.071888 -1.223039,2.303293 -1.587521,2.736455 l -0.662695,0.787567 1.395849,0.141549 c 0.767717,0.07785 2.212689,0.210528 3.211039,0.294836 1.15532,0.09756 2.28547,0.391595 3.10885,0.808836 1.95517,0.990758 1.69304,1.341924 -1.05143,1.408577 -0.78048,0.01895 -2.03063,0.210407 -2.77812,0.425449 -0.74749,0.215042 -2.226038,0.512204 -3.285662,0.660361 -2.667085,0.372912 -6.480209,1.678235 -7.666501,2.624426 -0.544634,0.434402 -1.760714,1.170061 -2.702401,1.634799 -1.51282,0.746601 -2.093375,0.871519 -4.986549,1.072953 -1.800916,0.125386 -3.38193,0.161514 -3.513364,0.08028 -0.777758,-0.48068 0.872405,-2.111665 3.464097,-3.423836 0.895294,-0.453287 2.267969,-1.568868 3.571875,-2.902883 1.164771,-1.191668 2.481499,-2.377409 2.926063,-2.634981 0.444564,-0.257572 1.074983,-0.971019 1.400932,-1.585439 0.325949,-0.614419 1.080554,-1.703792 1.6769,-2.420829 1.334163,-1.604174 2.325555,-3.659289 2.328994,-4.827907 0.0016,-0.535104 0.305348,-1.318421 0.777315,-2.004402 l 0.77473,-1.126032 -0.341946,-4.47789 c -0.248161,-3.24974 -0.266262,-4.921076 -0.066,-6.093772 0.260702,-1.526619 0.236795,-1.682689 -0.432784,-2.825239 -0.541767,-0.924455 -0.70873,-1.560757 -0.70873,-2.700991 0,-1.567366 -0.243236,-2.260934 -1.137089,-3.242327 -0.297988,-0.327172 -0.80647,-1.398734 -1.12996,-2.38125 -0.667487,-2.02732 -2.56406,-6.245686 -3.61206,-8.033962 -0.386243,-0.659075 -1.394344,-1.916136 -2.240222,-2.793469 -1.40064,-1.452722 -1.631611,-1.591846 -2.586814,-1.558151 l -1.048853,0.037 -0.354816,1.576929 c -1.016652,4.518369 -1.189825,5.041616 -2.061612,6.229228 -0.500404,0.681686 -0.909825,1.333043 -0.909825,1.44746 0,0.250332 -2.973036,4.979205 -4.981277,7.923157 -1.838971,2.695812 -2.730412,3.714071 -4.394676,5.019872 -1.43918,1.129196 -2.265714,1.95568 -2.265714,2.265576 0,0.106162 -0.745023,0.678424 -1.655608,1.271693 -1.887174,1.229542 -3.267581,2.588337 -4.26029,4.193589 -0.471108,0.7618 -1.24707,1.438602 -2.47821,2.16152 -0.985793,0.578852 -2.676114,1.716611 -3.756269,2.528354 -1.080156,0.811743 -2.360077,1.619149 -2.844271,1.794235 -0.484194,0.175087 -0.880352,0.473015 -0.880352,0.662063 0,0.541357 -0.52317,0.416178 -2.546845,-0.609386 -2.254354,-1.142467 -2.868058,-1.07033 -3.105337,0.36501 -0.338182,2.045722 -0.182499,3.221591 0.64306,4.857013 0.476103,0.943156 0.668702,1.560321 0.465825,1.492696 -0.713173,-0.237724 -4.016107,-1.308545 -4.000125,-2.732784 0.02776,-2.473676 2.520161,-4.975792 3.300938,-5.250377 0.845889,-0.297483 3.031046,-3.542652 4.192388,-2.565447 0.918582,0.772936 -0.03488,4.205108 -0.03488,3.523035 0,-0.343719 0.996786,-0.05895 1.323718,-0.05895 0.276826,0 1.556747,-0.771971 2.84427,-1.715491 1.287523,-0.94352 3.092782,-2.148693 4.011686,-2.678162 1.050222,-0.605133 1.90676,-1.336559 2.306234,-1.969367 1.021012,-1.617388 2.229131,-2.86946 3.80854,-3.947101 0.8112,-0.553487 2.203642,-1.704589 3.094316,-2.558005 0.890674,-0.853417 2.165384,-2.060804 2.832689,-2.683084 1.398406,-1.304051 7.851029,-10.888373 7.851029,-11.661429 0,-0.119453 -3.223719,-4.734645 -2.731802,-5.37699 0.981111,-1.281135 5.004918,1.674483 5.365555,-0.541356 0.130733,-0.803258 -0.768727,-2.250146 -0.606881,-2.851194 l 1.433107,-0.794906 h 1.335638 c 1.269906,0 1.405363,0.07142 2.752449,1.451188 1.810182,1.854101 3.197505,3.115077 4.315529,5.543049 0.49239,1.069305 0.805685,2.793188 1.179369,3.598998 0.373684,0.80581 0.821672,2.030024 0.99553,2.720475 0.173857,0.690451 5.613183,-0.917121 5.862679,-0.739893 0.757517,0.5381 -3.939043,3.882318 -3.844924,5.550142 0.06072,1.076 0.31933,2.02663 0.802619,2.950391 0.665591,1.272214 0.695362,1.469729 0.447459,2.968691 -0.187132,1.131508 5.321076,2.901632 5.557436,6.123192 l 0.0546,3.577591 c 0.4451,-0.0032 0.82359,0.738374 0.92769,0.727444 2.73637,-0.287294 6.02745,-0.08648 8.81626,0.657439 3.70113,0.987276 7.742433,1.460222 10.551723,1.568506 3.34136,0.128793 7.04416,1.186473 8.20444,2.306741 0.50932,0.491758 2.37667,1.908242 3.84315,2.628402 2.16706,1.064199 0.67791,5.918301 1.79078,7.176768 1.89305,2.140706 1.973,3.96282 2.13392,6.426058 0.1241,1.899581 2.92921,4.121078 1.92984,6.903456 -1.40018,3.898282 -2.4238,4.801802 -4.84838,6.678402 -1.11604,0.86379 -1.36485,1.32929 -1.63374,1.78554 -0.33951,0.57608 -3.97761,2.21537 -5.29177,2.83568 -1.0408,0.49128 -3.32672,2.00686 -4.12708,2.50288 -2.99767,1.85778 -6.04643,2.77146 -7.456,3.23009 -0.800373,0.26042 -2.486833,1.00588 -3.645613,1.58473 -1.29941,0.6491 -3.13172,0.61745 -4.36163,0.83507 -1.09679,0.19406 -2.50152,0.89247 -3.95673,1.40565 -1.4552,0.51318 -3.65915,0.58122 -4.26465,0.58438 -0.6055,0.003 -1.322671,0.47554 -2.245141,0.76471 -1.026885,0.32189 -2.393155,0.40022 -3.608098,0.40627 -1.091406,0.005 -3.571976,-0.0361 -4.22682,0.11648 -2.952747,0.688 -16.14843,-0.81209 -20.314071,-1.24453 z m 13.597801,-4.6087 c -0.644769,-0.31974 -1.06891,-1.75696 -0.5185,-1.75696 0.155186,0 0.282157,-0.16913 0.282157,-0.37585 0,-0.7787 2.582546,-0.72597 2.666077,0.0544 0.01113,0.10402 0.05873,0.38795 0.105769,0.63095 0.0884,0.45669 -0.731088,1.35131 -1.477169,1.61257 -0.233814,0.0819 -0.710064,0.008 -1.058334,-0.16514 z m 3.203241,-4.13821 c -0.948777,-0.94878 -1.058334,-1.19349 -1.058334,-2.36402 0,-2.86058 1.001054,-3.47848 2.382511,-1.4706 1.62861,2.36709 1.99865,0.0895 1.855139,8.3e-4 -0.147895,-0.0914 -0.2689,-0.44736 -0.2689,-0.79101 0,-1.14616 2.216813,-1.112 3.505245,0.054 0.321749,0.29117 0.463505,0.81684 0.463505,1.71877 0,1.61599 -0.271376,2.13278 -1.64095,3.1249 -0.908064,0.6578 -1.335823,0.78544 -2.632081,0.78544 -1.452991,0 -1.61263,-0.0648 -2.606135,-1.05833 z m -6.741367,-0.10273 c -1.16568,-1.16568 -1.22059,-3.90407 -0.102157,-5.09458 0.432129,-0.45998 0.872684,-0.62352 1.679699,-0.62352 1.411096,0 1.900564,0.38872 2.332079,1.85208 0.439692,1.49109 0.06839,3.26013 -0.838379,3.99439 -0.879045,0.71181 -2.290042,0.65283 -3.071242,-0.12837 z M 34.991427,76.809784 c -0.674993,-0.752202 -0.854707,-2.342096 -0.351543,-3.110022 0.548409,-0.836977 1.322237,-0.840881 2.152259,-0.01086 0.794506,0.794506 0.830746,1.792373 0.102248,2.815453 -0.621821,0.873268 -1.29627,0.981517 -1.902964,0.305429 z m 77.070653,-0.404603 c -0.35941,-0.18186 -0.83566,-0.656355 -1.05834,-1.054432 -0.36354,-0.6499 -0.36343,-0.797855 0.001,-1.44951 0.53479,-0.956021 1.07608,-1.024064 2.53359,-0.318492 1.17295,0.567812 1.20245,0.611754 1.03548,1.54195 -0.26952,1.50148 -1.16895,1.959992 -2.51183,1.280484 z m 2.17432,-3.696439 c -0.32969,-0.413464 -0.16068,-1.559658 0.27176,-1.842993 0.17822,-0.116774 0.6217,-0.181474 0.9855,-0.143777 0.55352,0.05736 0.67453,0.22483 0.74152,1.026231 0.0677,0.80965 -0.0141,0.982913 -0.52916,1.120866 -0.8931,0.239209 -1.17561,0.208389 -1.46962,-0.160327 z M 62.488652,59.814286 c -1.005013,-1.19439 -0.972765,-2.497972 0.0752,-3.039896 1.711421,-0.88501 2.923556,-0.171343 2.923556,1.721299 0,1.198633 -0.439889,1.793168 -1.477402,1.996792 -0.690726,0.135562 -0.9242,0.03148 -1.521354,-0.678195 z m 4.11445,-3.062751 c -1.430033,-1.001634 -1.904483,-4.140947 -0.831907,-5.504507 1.05574,-1.342156 2.48174,-0.503272 1.621108,0.953662 -0.420678,0.712151 -0.234124,1.566924 0.478836,2.270672 l 0.620908,0.0964 c 1.258453,-0.391568 0.969245,-1.746277 0.899424,-2.222 -0.114056,-0.777113 -0.08024,-0.333699 -0.0098,-1.070598 l 0.182168,-0.322262 c 0.670075,-0.301346 1.773023,0.326507 2.224918,1.266534 0.472335,0.982546 -0.01038,3.323098 -0.878552,4.259873 -0.543158,0.586077 -0.857878,0.685163 -2.176249,0.685163 -0.968435,0 -1.760375,-0.153473 -2.130812,-0.412937 z m 93.142128,96.020585 c -1.27013,-0.90076 -0.24345,-3.84475 1.3975,-4.00732 1.03501,-0.10254 1.61517,0.39363 1.8178,1.55463 0.34913,2.00028 -1.6755,3.54471 -3.2153,2.45269 z m 5.01585,0.10537 c -0.6768,-0.81554 -1.36492,-3.53501 -1.2577,-4.97046 0.12427,-1.66369 1.16919,-3.97618 2.23071,-4.93673 1.0531,-0.95292 4.67952,-2.72666 5.57468,-2.72666 1.01461,0 1.439,0.66321 1.8731,2.92714 0.44204,2.30531 0.2182,3.27194 -1.29301,5.58381 -1.96364,3.00399 -3.90073,4.45363 -5.95118,4.45363 -0.49617,0 -1.02565,-0.14883 -1.1766,-0.33073 z m 4.57135,-4.42851 c 2.78029,-2.88823 2.78903,-1.30731 2.10605,-4.14117 -0.49427,-2.05088 -1.44042,-1.13529 -2.58956,-0.61531 -1.3696,0.61973 -2.12699,1.38374 -2.64103,2.06732 -0.44855,0.59649 0.10443,1.82494 1.12915,2.94113 l 0.65883,0.52666 0.30715,-0.0402 c 1.08472,-0.14204 -0.57638,0.92972 1.02941,-0.73841 z m -1.7466,0.72435 c -0.63111,-0.52645 -1.82133,-2.52201 -1.82133,-3.05368 0,-1.64302 5.56038,-4.16883 6.03024,-2.73925 0.0897,0.27278 -0.0742,0.31645 -0.68442,0.18243 -0.96179,-0.21125 -2.97048,0.71732 -4.07895,1.88559 l -0.7175,0.75621 0.35962,1.43646 c 0.0784,0.31327 1.37424,1.06922 1.50128,1.06922 0.43642,0 2.74931,-1.91188 3.09714,-2.56016 0.20581,-0.38357 0.27831,-0.96613 0.17742,-1.4255 -0.0992,-0.45182 -0.0609,-0.77684 0.0917,-0.77684 0.14429,0 0.34236,0.47357 0.44015,1.05238 0.22397,1.32568 -0.39998,2.28413 -2.33557,3.58763 -1.54272,1.03893 -1.52297,1.03332 -2.0598,0.58551 z M 89.454917,37.986853 c -1.0326,-1.00279 -1.15666,-1.613284 -0.56167,-2.763876 0.4404,-0.851646 0.88029,-1.077257 2.10038,-1.077257 1.16643,0 1.94181,0.942869 2.16616,2.634085 0.225,1.696134 -0.10415,2.128415 -1.6206,2.128415 -0.93861,0 -1.30003,-0.159768 -2.08427,-0.921367 z m -2.21876,-3.894013 c -0.78964,-0.789642 -0.13746,-1.799166 1.16232,-1.799166 0.97249,0 1.27101,0.483137 0.90056,1.457506 -0.18545,0.487777 -0.44493,0.65916 -0.998,0.65916 -0.41106,0 -0.89025,-0.142875 -1.06488,-0.3175 z M 47.284075,26.155303 c -0.389787,-0.389786 -0.415281,-1.915834 -0.04361,-2.610311 0.34584,-0.646206 1.361251,-0.660864 1.934059,-0.02792 0.622507,0.687863 0.577169,2.3334 -0.07389,2.681837 -0.680805,0.364355 -1.426499,0.346454 -1.816561,-0.04361 z M 81.246116,10.774511 c -0.610671,-0.446534 -0.901735,-2.8949576 -0.414008,-3.4826326 0.181781,-0.219033 0.722068,-0.398242 1.200636,-0.398242 1.807933,0 3.039773,2.849452 1.652043,3.8214546 -0.720927,0.504957 -1.793618,0.531094 -2.438671,0.05942 z M 59.005117,8.7854924 c -1.091378,-0.354873 -1.912608,-1.137287 -2.242325,-2.13634 -0.951188,-2.882127 1.632642,-4.693843 4.05702,-2.84468 1.328242,1.013099 1.736561,1.901651 1.566639,3.409194 -0.122598,1.087689 -0.237107,1.272549 -0.940055,1.517598 -0.873145,0.30438 -1.620878,0.320989 -2.441279,0.05423 z m 3.688325,-6.244526 c -0.426232,-0.650511 -0.343879,-1.499818 0.212912,-2.19576798 0.445527,-0.556878 1.991237,-0.409267 2.329318,0.222443 0.55782,1.04229498 -0.572418,2.62182798 -1.876055,2.62182798 -0.132693,0 -0.432472,-0.291826 -0.666175,-0.648503 z"
         id="path1" /></g></g></svg>
