<?xml version="1.0" encoding="UTF-8" standalone="no"?>
<!DOCTYPE svg PUBLIC "-//W3C//DTD SVG 1.1//EN" "http://www.w3.org/Graphics/SVG/1.1/DTD/svg11.dtd">
<svg width="100%" height="100%" viewBox="0 0 898 638" version="1.1" xmlns="http://www.w3.org/2000/svg" xmlns:xlink="http://www.w3.org/1999/xlink" xml:space="preserve" xmlns:serif="http://www.serif.com/" style="fill-rule:evenodd;clip-rule:evenodd;stroke-linejoin:round;stroke-miterlimit:20;">
    <g transform="matrix(0.984103,0,0,0.990824,14.2697,5.8524)">
        <rect x="-14.5" y="-5.907" width="912.138" height="643.702" style="fill:rgb(241,202,0);"/>
    </g>
    <g transform="matrix(1.19899,0,0,1.19527,-101.402,-63.5662)">
        <rect x="119.051" y="86.93" width="679.704" height="464.429" style="fill:none;fill-rule:nonzero;stroke:black;stroke-width:17.4px;"/>
        <g transform="matrix(0.731677,0,0,0.729886,31.9441,23.481)">
            <g transform="matrix(162.385,0,0,162.385,185.465,402.54)">
                <path d="M0.075,-0L0.375,-0C0.431,-0 0.478,-0.019 0.515,-0.056C0.553,-0.092 0.572,-0.141 0.573,-0.202C0.573,-0.239 0.563,-0.274 0.545,-0.305C0.525,-0.336 0.496,-0.356 0.457,-0.366L0.457,-0.368C0.478,-0.378 0.495,-0.389 0.509,-0.401C0.523,-0.412 0.534,-0.424 0.541,-0.437C0.556,-0.464 0.563,-0.492 0.562,-0.521C0.562,-0.578 0.544,-0.624 0.509,-0.659C0.474,-0.694 0.421,-0.711 0.351,-0.712L0.075,-0.712L0.075,-0ZM0.349,-0.316C0.389,-0.315 0.418,-0.305 0.437,-0.284C0.456,-0.263 0.465,-0.238 0.465,-0.209C0.465,-0.18 0.456,-0.156 0.437,-0.135C0.418,-0.114 0.389,-0.103 0.349,-0.102L0.183,-0.102L0.183,-0.316L0.349,-0.316ZM0.339,-0.616C0.378,-0.615 0.407,-0.605 0.426,-0.587C0.445,-0.567 0.454,-0.543 0.454,-0.514C0.454,-0.486 0.445,-0.462 0.426,-0.443C0.407,-0.422 0.378,-0.412 0.339,-0.412L0.183,-0.412L0.183,-0.616L0.339,-0.616Z" style="fill:rgb(26,26,24);fill-rule:nonzero;"/>
            </g>
            <g transform="matrix(162.385,0,0,162.385,300.736,402.54)">
                <path d="M0.332,-0L0.434,-0L0.434,-0.346C0.433,-0.408 0.414,-0.452 0.376,-0.477C0.338,-0.502 0.287,-0.514 0.223,-0.513C0.148,-0.514 0.09,-0.49 0.052,-0.439L0.132,-0.378C0.141,-0.393 0.153,-0.403 0.168,-0.409C0.183,-0.414 0.203,-0.417 0.228,-0.417C0.298,-0.418 0.333,-0.397 0.332,-0.352L0.332,-0.299L0.191,-0.299C0.137,-0.298 0.096,-0.284 0.068,-0.255C0.04,-0.227 0.026,-0.192 0.026,-0.149C0.026,-0.104 0.042,-0.068 0.074,-0.039C0.105,-0.01 0.148,0.005 0.205,0.006C0.24,0.006 0.267,0.002 0.286,-0.007C0.306,-0.015 0.321,-0.028 0.33,-0.045L0.332,-0.045L0.332,-0ZM0.332,-0.178C0.332,-0.14 0.324,-0.116 0.308,-0.105C0.291,-0.094 0.26,-0.089 0.218,-0.09C0.184,-0.09 0.16,-0.097 0.145,-0.11C0.13,-0.122 0.122,-0.137 0.122,-0.154C0.121,-0.193 0.151,-0.214 0.21,-0.215L0.332,-0.215L0.332,-0.178Z" style="fill:rgb(26,26,24);fill-rule:nonzero;"/>
            </g>
            <g transform="matrix(162.385,0,0,162.385,368.289,402.54)">
                <path d="M0.369,-0.053L0.369,-0L0.471,-0L0.471,-0.712L0.369,-0.712L0.369,-0.453C0.35,-0.471 0.331,-0.486 0.31,-0.497C0.288,-0.508 0.264,-0.513 0.238,-0.513C0.176,-0.512 0.131,-0.489 0.102,-0.447C0.088,-0.431 0.079,-0.41 0.074,-0.384C0.069,-0.358 0.066,-0.315 0.066,-0.254C0.066,-0.194 0.069,-0.151 0.074,-0.125C0.079,-0.098 0.088,-0.076 0.102,-0.06C0.117,-0.041 0.136,-0.025 0.159,-0.013C0.181,-0.001 0.207,0.005 0.238,0.006C0.292,0.005 0.336,-0.015 0.369,-0.053ZM0.269,-0.411C0.293,-0.411 0.312,-0.406 0.326,-0.397C0.34,-0.388 0.35,-0.375 0.355,-0.36C0.361,-0.345 0.366,-0.328 0.368,-0.31C0.369,-0.292 0.369,-0.273 0.369,-0.254C0.369,-0.236 0.369,-0.218 0.368,-0.199C0.366,-0.18 0.361,-0.163 0.355,-0.148C0.35,-0.133 0.34,-0.12 0.326,-0.111C0.312,-0.101 0.293,-0.096 0.269,-0.096C0.245,-0.096 0.227,-0.101 0.214,-0.11C0.2,-0.119 0.19,-0.131 0.183,-0.146C0.177,-0.161 0.173,-0.179 0.171,-0.198C0.169,-0.216 0.168,-0.235 0.168,-0.254C0.168,-0.274 0.169,-0.294 0.171,-0.313C0.173,-0.331 0.177,-0.347 0.183,-0.363C0.19,-0.378 0.2,-0.39 0.214,-0.399C0.227,-0.407 0.245,-0.411 0.269,-0.411Z" style="fill:rgb(26,26,24);fill-rule:nonzero;"/>
            </g>
            <g transform="matrix(162.385,0,0,162.385,487.608,402.54)">
                <path d="M0.075,-0L0.183,-0L0.183,-0.217L0.308,-0.348L0.502,-0L0.63,-0L0.378,-0.431L0.606,-0.712L0.478,-0.712L0.185,-0.345L0.183,-0.345L0.183,-0.712L0.075,-0.712L0.075,-0Z" style="fill:rgb(26,26,24);fill-rule:nonzero;"/>
            </g>
            <g transform="matrix(162.385,0,0,162.385,596.387,402.54)">
                <path d="M0.459,-0.215L0.459,-0.299C0.458,-0.366 0.438,-0.418 0.397,-0.456C0.357,-0.493 0.308,-0.513 0.25,-0.513C0.226,-0.513 0.201,-0.509 0.177,-0.5C0.152,-0.491 0.129,-0.477 0.109,-0.457C0.089,-0.438 0.073,-0.411 0.06,-0.377C0.047,-0.344 0.041,-0.302 0.041,-0.252C0.041,-0.2 0.048,-0.158 0.063,-0.125C0.076,-0.091 0.094,-0.065 0.115,-0.046C0.126,-0.037 0.138,-0.029 0.151,-0.023C0.163,-0.016 0.175,-0.01 0.188,-0.006C0.213,0.002 0.239,0.006 0.266,0.006C0.336,0.007 0.397,-0.021 0.449,-0.076L0.375,-0.139C0.342,-0.106 0.306,-0.09 0.264,-0.09C0.229,-0.09 0.2,-0.101 0.178,-0.122C0.155,-0.143 0.143,-0.174 0.143,-0.215L0.459,-0.215ZM0.143,-0.299C0.145,-0.338 0.156,-0.368 0.175,-0.388C0.194,-0.407 0.219,-0.417 0.25,-0.417C0.281,-0.417 0.306,-0.407 0.325,-0.388C0.345,-0.368 0.356,-0.338 0.357,-0.299L0.143,-0.299Z" style="fill:rgb(26,26,24);fill-rule:nonzero;"/>
            </g>
            <g transform="matrix(162.385,0,0,162.385,674.332,402.54)">
                <path d="M0.066,-0L0.168,-0L0.168,-0.305C0.169,-0.342 0.179,-0.369 0.2,-0.386C0.219,-0.403 0.241,-0.411 0.267,-0.411C0.29,-0.411 0.313,-0.403 0.334,-0.386L0.408,-0.474C0.378,-0.5 0.342,-0.513 0.302,-0.513C0.247,-0.513 0.203,-0.493 0.17,-0.453L0.168,-0.453L0.168,-0.507L0.066,-0.507L0.066,-0Z" style="fill:rgb(26,26,24);fill-rule:nonzero;"/>
            </g>
            <g transform="matrix(162.385,0,0,162.385,730.393,402.54)">
                <path d="M0.066,-0L0.168,-0L0.168,-0.302C0.168,-0.337 0.178,-0.364 0.197,-0.383C0.216,-0.402 0.24,-0.411 0.269,-0.411C0.298,-0.411 0.322,-0.402 0.341,-0.383C0.36,-0.364 0.369,-0.337 0.369,-0.302L0.369,-0L0.471,-0L0.471,-0.337C0.47,-0.395 0.451,-0.439 0.417,-0.469C0.382,-0.498 0.344,-0.513 0.302,-0.513C0.247,-0.513 0.203,-0.493 0.17,-0.453L0.168,-0.453L0.168,-0.507L0.066,-0.507L0.066,-0Z" style="fill:rgb(26,26,24);fill-rule:nonzero;"/>
            </g>
            <g transform="matrix(162.385,0,0,162.385,801.373,402.54)">
                <path d="M0.069,-0L0.171,-0L0.171,-0.507L0.069,-0.507L0.069,-0ZM0.069,-0.61L0.171,-0.61L0.171,-0.712L0.069,-0.712L0.069,-0.61Z" style="fill:rgb(26,26,24);fill-rule:nonzero;"/>
            </g>
            <g transform="matrix(162.385,0,0,162.385,825.202,402.54)">
                <path d="M0.066,-0L0.168,-0L0.168,-0.302C0.168,-0.337 0.178,-0.364 0.197,-0.383C0.216,-0.402 0.24,-0.411 0.269,-0.411C0.298,-0.411 0.322,-0.402 0.341,-0.383C0.36,-0.364 0.369,-0.337 0.369,-0.302L0.369,-0L0.471,-0L0.471,-0.337C0.47,-0.395 0.451,-0.439 0.417,-0.469C0.382,-0.498 0.344,-0.513 0.302,-0.513C0.247,-0.513 0.203,-0.493 0.17,-0.453L0.168,-0.453L0.168,-0.507L0.066,-0.507L0.066,-0Z" style="fill:rgb(26,26,24);fill-rule:nonzero;"/>
            </g>
            <g transform="matrix(162.385,0,0,162.385,897.319,402.54)">
                <path d="M0.351,-0.053L0.351,-0.001C0.35,0.034 0.34,0.061 0.319,0.08C0.298,0.099 0.27,0.109 0.235,0.109C0.216,0.108 0.198,0.103 0.181,0.094C0.164,0.085 0.149,0.075 0.136,0.063L0.057,0.126C0.106,0.181 0.164,0.21 0.233,0.211C0.293,0.211 0.344,0.193 0.387,0.156C0.43,0.12 0.452,0.064 0.453,-0.012L0.453,-0.507L0.351,-0.507L0.351,-0.453C0.314,-0.493 0.271,-0.513 0.22,-0.513C0.187,-0.513 0.16,-0.506 0.138,-0.494C0.115,-0.481 0.098,-0.467 0.086,-0.451C0.073,-0.435 0.063,-0.415 0.057,-0.391C0.051,-0.367 0.048,-0.321 0.048,-0.253C0.048,-0.186 0.051,-0.141 0.057,-0.117C0.063,-0.093 0.073,-0.073 0.086,-0.056C0.098,-0.042 0.115,-0.028 0.138,-0.015C0.16,-0.002 0.187,0.005 0.22,0.006C0.274,0.005 0.318,-0.015 0.351,-0.053ZM0.15,-0.253C0.15,-0.292 0.151,-0.32 0.154,-0.335C0.156,-0.35 0.161,-0.363 0.17,-0.372C0.177,-0.381 0.187,-0.39 0.201,-0.399C0.215,-0.406 0.231,-0.41 0.251,-0.411C0.271,-0.41 0.287,-0.406 0.301,-0.399C0.314,-0.39 0.324,-0.381 0.331,-0.372C0.34,-0.363 0.345,-0.35 0.348,-0.335C0.35,-0.32 0.351,-0.292 0.351,-0.253C0.351,-0.214 0.35,-0.188 0.348,-0.173C0.345,-0.158 0.34,-0.145 0.331,-0.135C0.324,-0.126 0.314,-0.117 0.301,-0.11C0.287,-0.101 0.271,-0.096 0.251,-0.096C0.231,-0.096 0.215,-0.101 0.201,-0.11C0.187,-0.117 0.177,-0.126 0.17,-0.135C0.161,-0.145 0.156,-0.158 0.154,-0.173C0.151,-0.188 0.15,-0.214 0.15,-0.253Z" style="fill:rgb(26,26,24);fill-rule:nonzero;"/>
            </g>
            <g transform="matrix(71.6406,0,0,71.6406,281.137,524.18)">
                <path d="M0.075,-0L0.317,-0C0.37,-0 0.415,-0.012 0.452,-0.035C0.489,-0.057 0.518,-0.085 0.539,-0.118C0.547,-0.131 0.554,-0.143 0.559,-0.155C0.564,-0.167 0.568,-0.181 0.571,-0.196C0.576,-0.226 0.579,-0.279 0.579,-0.356C0.579,-0.428 0.577,-0.479 0.574,-0.508C0.569,-0.537 0.558,-0.565 0.541,-0.592C0.493,-0.671 0.421,-0.711 0.324,-0.712L0.075,-0.712L0.075,-0ZM0.183,-0.61L0.312,-0.61C0.367,-0.611 0.409,-0.591 0.439,-0.55C0.454,-0.533 0.463,-0.512 0.467,-0.485C0.47,-0.458 0.471,-0.414 0.471,-0.352C0.471,-0.289 0.47,-0.245 0.467,-0.222C0.464,-0.199 0.456,-0.179 0.444,-0.164C0.417,-0.123 0.373,-0.102 0.312,-0.102L0.183,-0.102L0.183,-0.61Z" style="fill:rgb(26,26,24);fill-rule:nonzero;"/>
            </g>
            <g transform="matrix(71.6406,0,0,71.6406,326.263,524.18)">
                <path d="M0.459,-0.215L0.459,-0.299C0.458,-0.366 0.438,-0.418 0.397,-0.456C0.357,-0.493 0.308,-0.513 0.25,-0.513C0.226,-0.513 0.201,-0.509 0.177,-0.5C0.152,-0.491 0.129,-0.477 0.109,-0.457C0.089,-0.438 0.073,-0.411 0.06,-0.377C0.047,-0.344 0.041,-0.302 0.041,-0.252C0.041,-0.2 0.048,-0.158 0.063,-0.125C0.076,-0.091 0.094,-0.065 0.115,-0.046C0.126,-0.037 0.138,-0.029 0.151,-0.023C0.163,-0.016 0.175,-0.01 0.188,-0.006C0.213,0.002 0.239,0.006 0.266,0.006C0.336,0.007 0.397,-0.021 0.449,-0.076L0.375,-0.139C0.342,-0.106 0.306,-0.09 0.264,-0.09C0.229,-0.09 0.2,-0.101 0.178,-0.122C0.155,-0.143 0.143,-0.174 0.143,-0.215L0.459,-0.215ZM0.143,-0.299C0.145,-0.338 0.156,-0.368 0.175,-0.388C0.194,-0.407 0.219,-0.417 0.25,-0.417C0.281,-0.417 0.306,-0.407 0.325,-0.388C0.345,-0.368 0.356,-0.338 0.357,-0.299L0.143,-0.299Z" style="fill:rgb(26,26,24);fill-rule:nonzero;"/>
            </g>
            <g transform="matrix(71.6406,0,0,71.6406,362.083,524.18)">
                <path d="M0.081,-0.155L0.01,-0.085C0.076,-0.024 0.15,0.006 0.233,0.006C0.294,0.005 0.344,-0.009 0.383,-0.036C0.422,-0.063 0.442,-0.101 0.443,-0.15C0.443,-0.192 0.432,-0.227 0.41,-0.254C0.387,-0.282 0.349,-0.298 0.296,-0.302L0.212,-0.308C0.187,-0.311 0.17,-0.317 0.16,-0.326C0.149,-0.335 0.144,-0.345 0.145,-0.356C0.145,-0.374 0.152,-0.389 0.165,-0.4C0.178,-0.411 0.2,-0.417 0.232,-0.417C0.26,-0.417 0.285,-0.413 0.306,-0.405C0.328,-0.396 0.349,-0.384 0.368,-0.37L0.431,-0.444C0.406,-0.465 0.378,-0.482 0.347,-0.495C0.331,-0.501 0.313,-0.506 0.295,-0.509C0.276,-0.512 0.255,-0.513 0.232,-0.513C0.178,-0.513 0.133,-0.5 0.098,-0.474C0.062,-0.448 0.044,-0.409 0.043,-0.357C0.044,-0.314 0.058,-0.28 0.085,-0.256C0.112,-0.231 0.146,-0.217 0.189,-0.213L0.279,-0.205C0.298,-0.204 0.313,-0.2 0.324,-0.193C0.335,-0.186 0.341,-0.173 0.341,-0.155C0.341,-0.134 0.332,-0.118 0.313,-0.107C0.294,-0.096 0.271,-0.09 0.241,-0.09C0.176,-0.09 0.122,-0.111 0.081,-0.155Z" style="fill:rgb(26,26,24);fill-rule:nonzero;"/>
            </g>
            <g transform="matrix(71.6406,0,0,71.6406,396.469,524.18)">
                <path d="M0.069,-0L0.171,-0L0.171,-0.507L0.069,-0.507L0.069,-0ZM0.069,-0.61L0.171,-0.61L0.171,-0.712L0.069,-0.712L0.069,-0.61Z" style="fill:rgb(26,26,24);fill-rule:nonzero;"/>
            </g>
            <g transform="matrix(71.6406,0,0,71.6406,413.645,524.18)">
                <path d="M0.351,-0.053L0.351,-0.001C0.35,0.034 0.34,0.061 0.319,0.08C0.298,0.099 0.27,0.109 0.235,0.109C0.216,0.108 0.198,0.103 0.181,0.094C0.164,0.085 0.149,0.075 0.136,0.063L0.057,0.126C0.106,0.181 0.164,0.21 0.233,0.211C0.293,0.211 0.344,0.193 0.387,0.156C0.43,0.12 0.452,0.064 0.453,-0.012L0.453,-0.507L0.351,-0.507L0.351,-0.453C0.314,-0.493 0.271,-0.513 0.22,-0.513C0.187,-0.513 0.16,-0.506 0.138,-0.494C0.115,-0.481 0.098,-0.467 0.086,-0.451C0.073,-0.435 0.063,-0.415 0.057,-0.391C0.051,-0.367 0.048,-0.321 0.048,-0.253C0.048,-0.186 0.051,-0.141 0.057,-0.117C0.063,-0.093 0.073,-0.073 0.086,-0.056C0.098,-0.042 0.115,-0.028 0.138,-0.015C0.16,-0.002 0.187,0.005 0.22,0.006C0.274,0.005 0.318,-0.015 0.351,-0.053ZM0.15,-0.253C0.15,-0.292 0.151,-0.32 0.154,-0.335C0.156,-0.35 0.161,-0.363 0.17,-0.372C0.177,-0.381 0.187,-0.39 0.201,-0.399C0.215,-0.406 0.231,-0.41 0.251,-0.411C0.271,-0.41 0.287,-0.406 0.301,-0.399C0.314,-0.39 0.324,-0.381 0.331,-0.372C0.34,-0.363 0.345,-0.35 0.348,-0.335C0.35,-0.32 0.351,-0.292 0.351,-0.253C0.351,-0.214 0.35,-0.188 0.348,-0.173C0.345,-0.158 0.34,-0.145 0.331,-0.135C0.324,-0.126 0.314,-0.117 0.301,-0.11C0.287,-0.101 0.271,-0.096 0.251,-0.096C0.231,-0.096 0.215,-0.101 0.201,-0.11C0.187,-0.117 0.177,-0.126 0.17,-0.135C0.161,-0.145 0.156,-0.158 0.154,-0.173C0.151,-0.188 0.15,-0.214 0.15,-0.253Z" style="fill:rgb(26,26,24);fill-rule:nonzero;"/>
            </g>
            <g transform="matrix(71.6406,0,0,71.6406,450.829,524.18)">
                <path d="M0.066,-0L0.168,-0L0.168,-0.302C0.168,-0.337 0.178,-0.364 0.197,-0.383C0.216,-0.402 0.24,-0.411 0.269,-0.411C0.298,-0.411 0.322,-0.402 0.341,-0.383C0.36,-0.364 0.369,-0.337 0.369,-0.302L0.369,-0L0.471,-0L0.471,-0.337C0.47,-0.395 0.451,-0.439 0.417,-0.469C0.382,-0.498 0.344,-0.513 0.302,-0.513C0.247,-0.513 0.203,-0.493 0.17,-0.453L0.168,-0.453L0.168,-0.507L0.066,-0.507L0.066,-0Z" style="fill:rgb(26,26,24);fill-rule:nonzero;"/>
            </g>
            <g transform="matrix(71.6406,0,0,71.6406,489.308,524.18)">
                <rect x="0.053" y="-0.328" width="0.301" height="0.102" style="fill:rgb(26,26,24);fill-rule:nonzero;"/>
            </g>
            <g transform="matrix(71.6406,0,0,71.6406,535.623,524.18)">
                <path d="M0.075,-0L0.183,-0L0.183,-0.217L0.308,-0.348L0.502,-0L0.63,-0L0.378,-0.431L0.606,-0.712L0.478,-0.712L0.185,-0.345L0.183,-0.345L0.183,-0.712L0.075,-0.712L0.075,-0Z" style="fill:rgb(26,26,24);fill-rule:nonzero;"/>
            </g>
            <g transform="matrix(71.6406,0,0,71.6406,579.453,524.18)">
                <path d="M0.066,-0.17C0.067,-0.113 0.085,-0.069 0.122,-0.04C0.156,-0.01 0.194,0.005 0.236,0.006C0.29,0.006 0.334,-0.014 0.367,-0.054L0.369,-0.054L0.369,-0L0.471,-0L0.471,-0.507L0.369,-0.507L0.369,-0.205C0.369,-0.171 0.36,-0.144 0.341,-0.125C0.322,-0.106 0.298,-0.096 0.269,-0.096C0.24,-0.096 0.216,-0.106 0.197,-0.125C0.178,-0.144 0.168,-0.171 0.168,-0.205L0.168,-0.507L0.066,-0.507L0.066,-0.17Z" style="fill:rgb(26,26,24);fill-rule:nonzero;"/>
            </g>
            <g transform="matrix(71.6406,0,0,71.6406,617.932,524.18)">
                <path d="M0.066,-0L0.168,-0L0.168,-0.305C0.169,-0.342 0.179,-0.369 0.2,-0.386C0.219,-0.403 0.241,-0.411 0.267,-0.411C0.29,-0.411 0.313,-0.403 0.334,-0.386L0.408,-0.474C0.378,-0.5 0.342,-0.513 0.302,-0.513C0.247,-0.513 0.203,-0.493 0.17,-0.453L0.168,-0.453L0.168,-0.507L0.066,-0.507L0.066,-0Z" style="fill:rgb(26,26,24);fill-rule:nonzero;"/>
            </g>
            <g transform="matrix(47.7604,0,0,47.7604,645.812,524.18)">
                <path d="M0,-0.375L0.5,-0.875L1,-0.375L0.5,0.125L0,-0.375ZM0.404,-0L0.58,-0L0.58,-0.132L0.404,-0.132L0.404,-0ZM0.404,-0.199L0.58,-0.199L0.58,-0.225C0.58,-0.254 0.585,-0.278 0.594,-0.296C0.604,-0.315 0.623,-0.338 0.652,-0.365L0.685,-0.396C0.733,-0.442 0.757,-0.486 0.757,-0.527C0.757,-0.575 0.734,-0.612 0.686,-0.639C0.639,-0.666 0.573,-0.679 0.488,-0.679C0.427,-0.679 0.366,-0.669 0.304,-0.65L0.304,-0.522C0.37,-0.553 0.425,-0.569 0.468,-0.569C0.532,-0.569 0.564,-0.542 0.564,-0.487C0.564,-0.449 0.544,-0.409 0.505,-0.367L0.47,-0.329C0.426,-0.282 0.404,-0.24 0.404,-0.204L0.404,-0.199Z" style="fill:rgb(26,26,24);fill-rule:nonzero;"/>
            </g>
            <g transform="matrix(71.6406,0,0,71.6406,693.572,524.18)">
                <path d="M0.066,-0L0.168,-0L0.168,-0.305C0.169,-0.342 0.179,-0.369 0.2,-0.386C0.219,-0.403 0.241,-0.411 0.267,-0.411C0.29,-0.411 0.313,-0.403 0.334,-0.386L0.408,-0.474C0.378,-0.5 0.342,-0.513 0.302,-0.513C0.247,-0.513 0.203,-0.493 0.17,-0.453L0.168,-0.453L0.168,-0.507L0.066,-0.507L0.066,-0Z" style="fill:rgb(26,26,24);fill-rule:nonzero;"/>
            </g>
            <g transform="matrix(71.6406,0,0,71.6406,721.452,524.18)">
                <path d="M0.072,-0.507L0.021,-0.507L0.021,-0.429L0.072,-0.429L0.072,-0.125C0.072,-0.085 0.083,-0.054 0.107,-0.033C0.13,-0.011 0.159,-0 0.195,-0L0.248,-0L0.248,-0.096L0.21,-0.096C0.185,-0.096 0.173,-0.108 0.174,-0.134L0.174,-0.429L0.248,-0.429L0.248,-0.507L0.174,-0.507L0.174,-0.661L0.072,-0.661L0.072,-0.507Z" style="fill:rgb(26,26,24);fill-rule:nonzero;"/>
            </g>
            <g transform="matrix(71.6406,0,0,71.6406,741.356,524.18)">
                <path d="M0.364,-0.149C0.338,-0.114 0.304,-0.097 0.261,-0.096C0.174,-0.095 0.13,-0.147 0.129,-0.253C0.13,-0.36 0.174,-0.412 0.261,-0.411C0.304,-0.41 0.338,-0.392 0.364,-0.358L0.439,-0.425C0.417,-0.451 0.391,-0.473 0.361,-0.489C0.331,-0.504 0.296,-0.513 0.257,-0.513C0.197,-0.514 0.144,-0.494 0.099,-0.453C0.052,-0.412 0.028,-0.345 0.027,-0.253C0.028,-0.162 0.052,-0.096 0.099,-0.055C0.144,-0.014 0.197,0.006 0.257,0.006C0.296,0.005 0.331,-0.003 0.361,-0.02C0.391,-0.036 0.417,-0.057 0.439,-0.082L0.364,-0.149Z" style="fill:rgb(26,26,24);fill-rule:nonzero;"/>
            </g>
            <g transform="matrix(71.6406,0,0,71.6406,773.154,524.18)">
                <path d="M0.066,-0L0.168,-0L0.168,-0.302C0.168,-0.337 0.178,-0.364 0.197,-0.383C0.216,-0.402 0.24,-0.411 0.269,-0.411C0.298,-0.411 0.322,-0.402 0.341,-0.383C0.36,-0.364 0.369,-0.337 0.369,-0.302L0.369,-0L0.471,-0L0.471,-0.337C0.47,-0.395 0.451,-0.439 0.417,-0.469C0.382,-0.498 0.344,-0.513 0.302,-0.513C0.247,-0.513 0.203,-0.493 0.17,-0.453L0.168,-0.453L0.168,-0.712L0.066,-0.712L0.066,-0Z" style="fill:rgb(26,26,24);fill-rule:nonzero;"/>
            </g>
            <g transform="matrix(71.6406,0,0,71.6406,811.633,524.18)">
                <path d="M0.459,-0.215L0.459,-0.299C0.458,-0.366 0.438,-0.418 0.397,-0.456C0.357,-0.493 0.308,-0.513 0.25,-0.513C0.226,-0.513 0.201,-0.509 0.177,-0.5C0.152,-0.491 0.129,-0.477 0.109,-0.457C0.089,-0.438 0.073,-0.411 0.06,-0.377C0.047,-0.344 0.041,-0.302 0.041,-0.252C0.041,-0.2 0.048,-0.158 0.063,-0.125C0.076,-0.091 0.094,-0.065 0.115,-0.046C0.126,-0.037 0.138,-0.029 0.151,-0.023C0.163,-0.016 0.175,-0.01 0.188,-0.006C0.213,0.002 0.239,0.006 0.266,0.006C0.336,0.007 0.397,-0.021 0.449,-0.076L0.375,-0.139C0.342,-0.106 0.306,-0.09 0.264,-0.09C0.229,-0.09 0.2,-0.101 0.178,-0.122C0.155,-0.143 0.143,-0.174 0.143,-0.215L0.459,-0.215ZM0.143,-0.299C0.145,-0.338 0.156,-0.368 0.175,-0.388C0.194,-0.407 0.219,-0.417 0.25,-0.417C0.281,-0.417 0.306,-0.407 0.325,-0.388C0.345,-0.368 0.356,-0.338 0.357,-0.299L0.143,-0.299Z" style="fill:rgb(26,26,24);fill-rule:nonzero;"/>
            </g>
            <g transform="matrix(71.6406,0,0,71.6406,847.453,524.18)">
                <path d="M0.066,-0L0.168,-0L0.168,-0.302C0.168,-0.337 0.178,-0.364 0.197,-0.383C0.216,-0.402 0.24,-0.411 0.269,-0.411C0.298,-0.411 0.322,-0.402 0.341,-0.383C0.36,-0.364 0.369,-0.337 0.369,-0.302L0.369,-0L0.471,-0L0.471,-0.337C0.47,-0.395 0.451,-0.439 0.417,-0.469C0.382,-0.498 0.344,-0.513 0.302,-0.513C0.247,-0.513 0.203,-0.493 0.17,-0.453L0.168,-0.453L0.168,-0.507L0.066,-0.507L0.066,-0Z" style="fill:rgb(26,26,24);fill-rule:nonzero;"/>
            </g>
        </g>
    </g>
</svg>
