<?xml version="1.0" encoding="UTF-8" standalone="no"?>
<!-- Generator: Adobe Illustrator 16.0.0, SVG Export Plug-In . SVG Version: 6.00 Build 0)  -->

<svg
   width="334.14001"
   height="463.89999"
   enable-background="new 0 0 595.28 841.89"
   version="1.1"
   viewBox="0 0 334.14 463.9"
   xml:space="preserve"
   id="svg229"
   xmlns="http://www.w3.org/2000/svg"
   xmlns:svg="http://www.w3.org/2000/svg"
   xmlns:rdf="http://www.w3.org/1999/02/22-rdf-syntax-ns#"
   xmlns:cc="http://creativecommons.org/ns#"
   xmlns:dc="http://purl.org/dc/elements/1.1/"><metadata
     id="metadata195"><rdf:RDF><cc:Work
         rdf:about=""><dc:format>image/svg+xml</dc:format><dc:type
           rdf:resource="http://purl.org/dc/dcmitype/StillImage" /></cc:Work></rdf:RDF></metadata><defs
     id="defs212"><clipPath
       id="clipPath5978"><path
         d="m 250.94,437.53 3.2188,2.125 -1.7812,2.6875 -3.2188,-2.125 z m -6.5312,-4.2812 2.375,1.5625 -1.7812,2.6875 -2.375,-1.5625 z m -159.37,-1.6875 c -4.2614,0.0565 -6.5905,1.447 -7,4.1875 -0.197,1.266 -0.0652,2.416 0.46875,3.375 0.545,0.97299 1.4557,1.7527 2.7187,2.3437 1.273,0.619 2.5777,1.1198 3.9687,1.4688 1.36,0.347 3.0355,0.66575 5.0625,0.96875 0.942,0.151 2.3905,0.3235 4.3125,0.5625 1.916,0.249 3.3575,0.44275 4.3125,0.59375 l 1.75,-11.5 -10.687,-1.5938 c -1.8472,-0.2775 -3.4858,-0.42509 -4.9062,-0.40625 z m 152.84,-2.625 2.3438,1.5625 -1.7812,2.6875 -2.375,-1.5625 z m -6.5312,-4.3125 2.3438,1.5625 -1.7812,2.6875 -2.375,-1.5625 z m -6.5625,-4.3125 2.3437,1.5625 -1.7812,2.6875 -2.3438,-1.5625 z m -6.5312,-4.3125 2.375,1.5625 -1.8125,2.6875 -2.375,-1.5625 z m -6.5625,-4.3125 2.375,1.5625 -1.7812,2.6875 -2.375,-1.5625 z m -6.5312,-4.3125 2.375,1.5625 -1.7812,2.6875 -2.375,-1.5625 z m -7.2187,-4.75 3.0625,2 -1.7812,2.6875 -3.0625,-2 z m -106.56,-66.219 c 0.6647,-0.0175 1.3335,-0.0198 2.0312,0 1.8607,0.0528 3.8387,0.24525 5.9375,0.5625 l 79.187,11.906 -3.625,24.187 -76.687,-11.562 c -2.145,-0.316 -4.095,-0.14725 -5.875,0.46875 -1.785,0.612 -2.8027,1.8672 -3.0937,3.7812 -0.18,1.174 0.0145,2.2655 0.5625,3.1875 0.525,0.915 1.1837,1.6422 1.9687,2.1562 0.785,0.514 1.8485,0.97225 3.1875,1.4062 1.327,0.438 2.3567,0.71275 3.0937,0.84375 0.727,0.135 1.6537,0.28275 2.8438,0.46875 l 72.25,10.875 -3.7187,24.5 -102.72,-15.469 3.6875,-24.5 11.75,1.7812 c -4.281,-1.661 -7.2475,-4.0185 -8.9375,-7.0625 -1.686,-3.024 -2.2392,-6.493 -1.6562,-10.375 0.972,-6.425 3.7335,-11.108 8.3125,-14.062 2.9945,-1.9405 6.8471,-2.9715 11.5,-3.0938 z m -5.4375,-42.969 18.687,2.8125 -0.65625,4.375 57.781,8.6875 c 0.859,0.13499 1.5585,0.21299 2.0625,0.24999 0.514,0.033 1.03,0.0267 1.625,-0.0312 0.591,-0.047 1.08,-0.24374 1.375,-0.59374 0.32,-0.347 0.49475,-0.82425 0.59375,-1.4062 0.086,-0.588 0.097,-1.1905 0,-1.8125 l 16.687,2.5 c 0.668,3.646 0.62575,8.0957 -0.15625,13.344 -0.402,2.644 -1.1048,4.8632 -2.0938,6.6562 -1.006,1.776 -2.0982,3.1362 -3.2812,4.0312 -1.188,0.885 -2.6298,1.5252 -4.3438,1.9062 -1.721,0.363 -3.306,0.50875 -4.75,0.46875 -1.44,-0.058 -3.063,-0.225 -4.875,-0.5 l -64.219,-9.6875 -0.5625,3.7812 -18.687,-2.8125 0.5625,-3.7812 -21.844,-3.2812 3.5937,-23.812 21.844,3.2812 0.65625,-4.375 z m 17.406,-65.031 c 1.2086,-0.0406 2.4808,0.0522 3.8125,0.25 l 34.375,5.1875 -3.5938,23.937 -24.594,-3.6875 c -1.228,-0.195 -2.26,-0.2945 -3.125,-0.3125 -0.861,-0.014 -1.7308,0.249 -2.5938,0.75 -0.868,0.494 -1.3925,1.3318 -1.5625,2.4688 -0.178,1.184 0.19275,2.311 1.0938,3.375 0.92,1.08 2.2778,1.7592 4.0938,2.0312 l 78.531,11.812 -3.6875,24.5 -102.69,-15.469 3.7187,-24.5 11.406,1.7188 c -4.493,-2.082 -7.4717,-4.4768 -8.9687,-7.2188 -1.495,-2.752 -1.9772,-6.0405 -1.4062,-9.8125 0.687,-4.571 2.686,-8.3622 6,-11.406 2.4982,-2.2912 5.5617,-3.5033 9.1875,-3.625 z m 18.812,-40.906 c -4.0341,-0.007 -6.2763,1.5772 -6.75,4.6875 -0.577,3.83 2.1227,6.1957 8.0937,7.0937 l 50.187,7.5312 c 2.738,0.41 4.8008,0.2045 6.2188,-0.6875 1.412,-0.885 2.253,-2.179 2.5,-3.875 0.258,-1.689 -0.168,-3.1482 -1.25,-4.4062 -1.098,-1.258 -3.008,-2.086 -5.75,-2.5 l -50.156,-7.5625 c -1.1207,-0.16781 -2.1628,-0.27974 -3.0938,-0.28125 z m 3.6875,-24.687 c 2.2508,-0.0113 4.6087,0.1915 7.0625,0.56249 l 41.219,6.1875 c 10.731,1.618 18.314,5.4508 22.812,11.469 4.52,6.025 6.0372,14.056 4.5312,24.094 -3.083,20.447 -15.303,29.063 -36.625,25.844 l -41.187,-6.1875 c -9.813,-1.486 -17.179,-5.406 -22.094,-11.75 -4.937,-6.332 -6.678,-14.25 -5.25,-23.75 1.44,-9.537 5.4522,-16.61 12.031,-21.219 4.9245,-3.459 10.748,-5.216 17.5,-5.25 z m 6.3125,-46.125 c -0.42088,0.0113 -0.79125,0.0525 -1.0938,0.125 -0.609,0.142 -1.3035,0.37025 -2.0625,0.65625 -0.771,0.282 -1.3482,0.7105 -1.7812,1.3125 -0.403,0.619 -0.70075,1.3975 -0.84375,2.3125 -0.574,3.829 2.6955,6.2678 9.8125,7.3438 l 45,6.7812 c 3.686,0.562 6.4915,0.52415 8.4375,-0.0937 1.936,-0.609 3.0832,-2.0102 3.4062,-4.1562 0.291,-1.911 -0.4525,-3.4 -2.1875,-4.5 -1.725,-1.107 -4.7315,-1.9972 -9.0625,-2.6562 l -43.594,-6.5626 c -1.07,-0.148 -1.8202,-0.23725 -2.2812,-0.28125 -0.466,-0.05 -1.2305,-0.13175 -2.3125,-0.21875 -0.545,-0.0505 -1.0166,-0.0738 -1.4375,-0.0625 z m 127.66,-22 5.7188,0.78125 -0.6875,4.75 -5.6875,-0.8125 z m -21.406,-3.0312 5.7187,0.8125 -0.6875,4.75 -5.6875,-0.8125 z m -106.16,-0.0937 c 2.92,0.047 6.1322,0.31275 9.6562,0.84375 l 37.594,5.6562 c 0.09,0.01 0.19475,0.0395 0.34375,0.0625 3.271,0.505 5.7747,0.8845 7.4687,1.1875 1.711,0.313 4.0708,0.8255 7.0938,1.5625 3.009,0.727 5.3305,1.4932 6.9375,2.2812 1.603,0.767 3.46,1.8682 5.5,3.2812 2.059,1.402 3.5245,2.937 4.4375,4.625 0.908,1.706 1.5988,3.8407 2.0937,6.3437 0.478,2.496 0.49235,5.2575 0.0312,8.3125 -0.93599,6.173 -3.384,10.585 -7.375,13.25 l 16.75,2.5 -3.75,24.937 -115.41,-17.375 3.75,-24.937 5.5625,0.84375 c -3.964,-4.376 -5.4925,-9.5968 -4.5625,-15.719 0.488,-3.291 1.445,-6.128 2.875,-8.5 1.438,-2.361 3.1685,-4.2252 5.1875,-5.5312 2.008,-1.309 4.4308,-2.2687 7.2188,-2.8437 2.801,-0.582 5.6598,-0.82925 8.5937,-0.78125 z m 99.125,-16.25 c -0.13013,0.0207 -0.265,0.063 -0.375,0.125 -0.225,0.129 -0.39325,0.329 -0.53125,0.625 -0.142,0.293 -0.26775,0.58425 -0.34375,0.90625 -0.076,0.317 -0.15475,0.7225 -0.21875,1.1875 -0.032,0.225 -0.07,0.552 -0.125,1 -0.053,0.442 -0.092,0.775 -0.125,1 l 2.6875,0.40625 0.34375,-2.5 c 0.243,-1.719 -0.0583,-2.632 -0.90625,-2.75 -0.1505,-0.023 -0.27612,-0.0208 -0.40625,0 z m 16.219,-3.375 5.6562,0.8125 -0.8125,17.031 4.0625,-16.594 5.625,0.8125 -7,24.875 -7.6562,-1.0937 z m -16.75,-1.0312 c 0.51252,-0.002 1.0288,0.0467 1.5938,0.125 4.581,0.649 6.5775,3.231 5.9375,7.75 l -0.25,1.75 c -0.306,2.153 -0.5325,3.6072 -0.6875,4.4062 l -8.2812,-1.1562 -0.46875,3.3437 c -0.016,0.102 -0.0519,0.29325 -0.0937,0.53125 -0.038,0.24 -0.0425,0.40225 -0.0625,0.53125 -0.055,0.379 -0.0858,0.722 -0.0937,1 -0.003,0.272 0.0155,0.54375 0.0625,0.84375 0.044,0.289 0.1385,0.5185 0.3125,0.6875 0.176,0.168 0.41975,0.2695 0.71875,0.3125 0.307,0.042 0.56125,-0.0288 0.78125,-0.21875 0.223,-0.189 0.4215,-0.477 0.5625,-0.875 0.136,-0.397 0.2445,-0.7445 0.3125,-1.0625 0.064,-0.315 0.1165,-0.7125 0.1875,-1.1875 0.13,-0.933 0.1975,-1.4392 0.1875,-1.5312 l 5.6562,0.78125 -0.1875,1.375 c -0.186,1.328 -0.45425,2.4407 -0.78125,3.3437 -0.335,0.905 -0.8165,1.7 -1.4375,2.375 -0.617,0.678 -1.4335,1.1078 -2.4375,1.3438 -1.013,0.236 -2.2262,0.2605 -3.6562,0.0625 -0.85,-0.121 -1.6192,-0.32175 -2.2812,-0.59375 -0.667,-0.273 -1.187,-0.55625 -1.625,-0.90625 -0.432,-0.348 -0.80975,-0.774 -1.0938,-1.25 -0.284,-0.479 -0.488,-0.9665 -0.625,-1.4375 -0.144,-0.474 -0.24025,-1.0057 -0.28125,-1.5937 -0.042,-0.588 -0.031,-1.129 0,-1.625 0.031,-0.493 0.0722,-1.031 0.15625,-1.625 l 1.375,-9.5937 c 0.311,-2.198 1.1708,-3.7982 2.5938,-4.7812 1.0657,-0.74025 2.3687,-1.118 3.9062,-1.125 z m -112.87,-17.531 102.75,15.5 -3.6875,24.5 -102.75,-15.469 z m -18.344,-2.75 12.031,1.8125 -3.6875,24.5 -12.031,-1.8125 z m 74.781,-33.969 c 1.046,4.447 2.593,7.575 4.625,9.375 2.041,1.799 4.6068,2.9392 7.7187,3.4062 l 11.969,1.8125 c 6.079,0.918 9.3925,-0.471 9.9375,-4.125 0.149,-1 -0.01,-1.9157 -0.4375,-2.7187 -0.44,-0.817 -1.06,-1.4395 -1.875,-1.9375 -0.803,-0.501 -1.5932,-0.89425 -2.4062,-1.1562 -0.803,-0.249 -1.639,-0.4315 -2.5,-0.5625 z M 66.607,-3e-4 0.013,83.5307 v 380.37 h 71.812 c -3.3324,-1.8818 -6.0344,-4.3431 -8.0938,-7.375 -4.188,-6.163 -5.5325,-14.1 -4.0625,-23.812 2.969,-19.729 14.153,-28.107 33.594,-25.187 l 7.4687,1.125 c 9.27,1.396 15.621,2.4492 19.062,3.1562 l -5.375,35.594 14.375,2.1562 c 0.459,0.067 1.2127,0.193 2.2187,0.375 1.022,0.186 1.828,0.298 2.375,0.375 1.64,0.256 3.0378,0.3995 4.2188,0.4375 1.177,0.03 2.4075,-0.0297 3.6875,-0.21875 1.247,-0.185 2.261,-0.64725 3,-1.4062 0.75,-0.75 1.2142,-1.7422 1.4062,-3.0312 0.198,-1.318 -0.0842,-2.4855 -0.90625,-3.4375 -0.806,-0.969 -2.0612,-1.7278 -3.7812,-2.3438 -1.688,-0.608 -3.2398,-1.0547 -4.5938,-1.3437 -1.359,-0.306 -3.0568,-0.60725 -5.0938,-0.90625 -4.04,-0.616 -6.2187,-0.922 -6.5937,-0.875 l 3.6562,-24.375 5.8125,0.875 c 5.702,0.854 10.498,2.037 14.375,3.5 3.884,1.478 7.2782,3.5772 10.156,6.2812 2.885,2.682 4.8325,6.1852 5.8125,10.531 0.984,4.341 0.9935,9.6182 0.0625,15.781 -0.553,3.657 -1.439,6.896 -2.625,9.75 -0.69216,1.6341 -1.4311,3.0741 -2.2188,4.375 h 174.41 v -217.09 c -10.96,35.653 -22.957,57.853 -27.125,65 l 15.437,10.219 0.4375,2.5938 -11.562,-7.6875 -2.7812,4.1562 15.5,10.281 0.84375,5 -18.375,-12.219 -2.7812,4.1875 22.281,14.812 0.84375,5 -25.156,-16.75 -2.7812,4.1875 29.094,19.344 v 0.0312 l -61.281,92.594 -12.375,-8.1875 22.375,-33.937 -18.437,-12.188 26.375,-40 -17.812,-11.781 -26.375,39.969 -19.875,-13.125 -22.375,33.937 -12.875,-8.5312 61.312,-92.594 0.125,-0.0312 31.125,20.687 2.7812,-4.1562 -27.812,-18.5 4.5,-1.4688 25.344,16.875 2.7812,-4.1562 -22.062,-14.656 4.5,-1.4688 19.594,13.031 2.7812,-4.1562 -16.312,-10.844 2.3125,-0.75 19.844,13.125 c 5.8198,-9.9707 26.434,-48.625 37.969,-113.16 V 83.524 l -78.094,-83.531 h -24.969 l -3.6562,24.219 -10.687,-1.5937 c 2.874,1.268 5.359,3.5722 7.375,6.9062 2.02,3.333 2.769,6.7252 2.25,10.156 -0.365,2.463 -0.94025,4.5932 -1.6562,6.4062 -0.705,1.803 -1.8568,3.5437 -3.4688,5.2187 -1.593,1.665 -3.608,2.9345 -6,3.8125 -2.401,0.881 -5.5157,1.3957 -9.3437,1.5937 -3.833,0.183 -8.2867,-0.0838 -13.344,-0.84375 -9.08,-1.369 -15.692,-3.741 -19.844,-7.125 -3.574,-2.92 -6.295,-7.475 -8.125,-13.625 -0.932,-3.128 -2.3392,-10.009 -4.2812,-20.656 -0.057,-0.003 -0.12175,-0.0113 -0.21875,-0.0312 -1.463,-0.219 -2.6585,-0.385 -3.5625,-0.5 -0.923,-0.121 -1.9548,-0.25525 -3.0938,-0.40625 -1.155,-0.145 -2.062,-0.2545 -2.75,-0.3125 -0.685,-0.05 -1.4522,-0.095 -2.2812,-0.125 -0.841,-0.04 -1.4835,-0.04 -1.9375,0 -0.446,0.05 -0.938,0.15625 -1.5,0.28125 -0.552,0.118 -0.9955,0.294 -1.3125,0.5 -0.31799,0.215 -0.59699,0.467 -0.87499,0.75 -0.271,0.286 -0.49225,0.6485 -0.65625,1.0625 -0.148,0.424 -0.26475,0.874 -0.34375,1.375 -0.496,3.384 1.1128,5.3685 4.8437,5.9375 l 6.9062,1.0312 -3.5938,23.812 c -0.774,-0.078 -1.8768,-0.2195 -3.3438,-0.4375 -9.768,-1.467 -16.561,-4.8655 -20.406,-10.187 -3.84,-5.318 -4.9405,-13.391 -3.3125,-24.25 0.539,-3.512 1.537,-6.864 3,-10 0.48408,-1.0263 1.0164,-2.0076 1.5938,-2.9687 z m 187.47,399.65 -17.822,-11.776 4.141,-6.271 17.815,11.777 z"
         color="#000000"
         enable-background="accumulate"
         fill="#ea5b0c"
         font-family="Sans"
         style="line-height:normal;text-indent:0;text-decoration-line:none;text-transform:none"
         id="path197" /></clipPath><clipPath
       id="clipPath5982"><path
         d="m 250.94,437.53 3.2188,2.125 -1.7812,2.6875 -3.2188,-2.125 z m -6.5312,-4.2812 2.375,1.5625 -1.7812,2.6875 -2.375,-1.5625 z m -159.37,-1.6875 c -4.2614,0.0565 -6.5905,1.447 -7,4.1875 -0.197,1.266 -0.0652,2.416 0.46875,3.375 0.545,0.97299 1.4557,1.7527 2.7187,2.3437 1.273,0.619 2.5777,1.1198 3.9687,1.4688 1.36,0.347 3.0355,0.66575 5.0625,0.96875 0.942,0.151 2.3905,0.3235 4.3125,0.5625 1.916,0.249 3.3575,0.44275 4.3125,0.59375 l 1.75,-11.5 -10.687,-1.5938 c -1.8472,-0.2775 -3.4858,-0.42509 -4.9062,-0.40625 z m 152.84,-2.625 2.3438,1.5625 -1.7812,2.6875 -2.375,-1.5625 z m -6.5312,-4.3125 2.3438,1.5625 -1.7812,2.6875 -2.375,-1.5625 z m -6.5625,-4.3125 2.3437,1.5625 -1.7812,2.6875 -2.3438,-1.5625 z m -6.5312,-4.3125 2.375,1.5625 -1.8125,2.6875 -2.375,-1.5625 z m -6.5625,-4.3125 2.375,1.5625 -1.7812,2.6875 -2.375,-1.5625 z m -6.5312,-4.3125 2.375,1.5625 -1.7812,2.6875 -2.375,-1.5625 z m -7.2187,-4.75 3.0625,2 -1.7812,2.6875 -3.0625,-2 z m -106.56,-66.219 c 0.6647,-0.0175 1.3335,-0.0198 2.0312,0 1.8607,0.0528 3.8387,0.24525 5.9375,0.5625 l 79.187,11.906 -3.625,24.187 -76.687,-11.562 c -2.145,-0.316 -4.095,-0.14725 -5.875,0.46875 -1.785,0.612 -2.8027,1.8672 -3.0937,3.7812 -0.18,1.174 0.0145,2.2655 0.5625,3.1875 0.525,0.915 1.1837,1.6422 1.9687,2.1562 0.785,0.514 1.8485,0.97225 3.1875,1.4062 1.327,0.438 2.3567,0.71275 3.0937,0.84375 0.727,0.135 1.6537,0.28275 2.8438,0.46875 l 72.25,10.875 -3.7187,24.5 -102.72,-15.469 3.6875,-24.5 11.75,1.7812 c -4.281,-1.661 -7.2475,-4.0185 -8.9375,-7.0625 -1.686,-3.024 -2.2392,-6.493 -1.6562,-10.375 0.972,-6.425 3.7335,-11.108 8.3125,-14.062 2.9945,-1.9405 6.8471,-2.9715 11.5,-3.0938 z m -5.4375,-42.969 18.687,2.8125 -0.65625,4.375 57.781,8.6875 c 0.859,0.13499 1.5585,0.21299 2.0625,0.24999 0.514,0.033 1.03,0.0267 1.625,-0.0312 0.591,-0.047 1.08,-0.24374 1.375,-0.59374 0.32,-0.347 0.49475,-0.82425 0.59375,-1.4062 0.086,-0.588 0.097,-1.1905 0,-1.8125 l 16.687,2.5 c 0.668,3.646 0.62575,8.0957 -0.15625,13.344 -0.402,2.644 -1.1048,4.8632 -2.0938,6.6562 -1.006,1.776 -2.0982,3.1362 -3.2812,4.0312 -1.188,0.885 -2.6298,1.5252 -4.3438,1.9062 -1.721,0.363 -3.306,0.50875 -4.75,0.46875 -1.44,-0.058 -3.063,-0.225 -4.875,-0.5 l -64.219,-9.6875 -0.5625,3.7812 -18.687,-2.8125 0.5625,-3.7812 -21.844,-3.2812 3.5937,-23.812 21.844,3.2812 0.65625,-4.375 z m 17.406,-65.031 c 1.2086,-0.0406 2.4808,0.0522 3.8125,0.25 l 34.375,5.1875 -3.5938,23.937 -24.594,-3.6875 c -1.228,-0.195 -2.26,-0.2945 -3.125,-0.3125 -0.861,-0.014 -1.7308,0.249 -2.5938,0.75 -0.868,0.494 -1.3925,1.3318 -1.5625,2.4688 -0.178,1.184 0.19275,2.311 1.0938,3.375 0.92,1.08 2.2778,1.7592 4.0938,2.0312 l 78.531,11.812 -3.6875,24.5 -102.69,-15.469 3.7187,-24.5 11.406,1.7188 c -4.493,-2.082 -7.4717,-4.4768 -8.9687,-7.2188 -1.495,-2.752 -1.9772,-6.0405 -1.4062,-9.8125 0.687,-4.571 2.686,-8.3622 6,-11.406 2.4982,-2.2912 5.5617,-3.5033 9.1875,-3.625 z m 18.812,-40.906 c -4.0341,-0.007 -6.2763,1.5772 -6.75,4.6875 -0.577,3.83 2.1227,6.1957 8.0937,7.0937 l 50.187,7.5312 c 2.738,0.41 4.8008,0.2045 6.2188,-0.6875 1.412,-0.885 2.253,-2.179 2.5,-3.875 0.258,-1.689 -0.168,-3.1482 -1.25,-4.4062 -1.098,-1.258 -3.008,-2.086 -5.75,-2.5 l -50.156,-7.5625 c -1.1207,-0.16781 -2.1628,-0.27974 -3.0938,-0.28125 z m 3.6875,-24.687 c 2.2508,-0.0113 4.6087,0.1915 7.0625,0.56249 l 41.219,6.1875 c 10.731,1.618 18.314,5.4508 22.812,11.469 4.52,6.025 6.0372,14.056 4.5312,24.094 -3.083,20.447 -15.303,29.063 -36.625,25.844 l -41.187,-6.1875 c -9.813,-1.486 -17.179,-5.406 -22.094,-11.75 -4.937,-6.332 -6.678,-14.25 -5.25,-23.75 1.44,-9.537 5.4522,-16.61 12.031,-21.219 4.9245,-3.459 10.748,-5.216 17.5,-5.25 z m 6.3125,-46.125 c -0.42088,0.0113 -0.79125,0.0525 -1.0938,0.125 -0.609,0.142 -1.3035,0.37025 -2.0625,0.65625 -0.771,0.282 -1.3482,0.7105 -1.7812,1.3125 -0.403,0.619 -0.70075,1.3975 -0.84375,2.3125 -0.574,3.829 2.6955,6.2678 9.8125,7.3438 l 45,6.7812 c 3.686,0.562 6.4915,0.52415 8.4375,-0.0937 1.936,-0.609 3.0832,-2.0102 3.4062,-4.1562 0.291,-1.911 -0.4525,-3.4 -2.1875,-4.5 -1.725,-1.107 -4.7315,-1.9972 -9.0625,-2.6562 l -43.594,-6.5626 c -1.07,-0.148 -1.8202,-0.23725 -2.2812,-0.28125 -0.466,-0.05 -1.2305,-0.13175 -2.3125,-0.21875 -0.545,-0.0505 -1.0166,-0.0738 -1.4375,-0.0625 z m 127.66,-22 5.7188,0.78125 -0.6875,4.75 -5.6875,-0.8125 z m -21.406,-3.0312 5.7187,0.8125 -0.6875,4.75 -5.6875,-0.8125 z m -106.16,-0.0937 c 2.92,0.047 6.1322,0.31275 9.6562,0.84375 l 37.594,5.6562 c 0.09,0.01 0.19475,0.0395 0.34375,0.0625 3.271,0.505 5.7747,0.8845 7.4687,1.1875 1.711,0.313 4.0708,0.8255 7.0938,1.5625 3.009,0.727 5.3305,1.4932 6.9375,2.2812 1.603,0.767 3.46,1.8682 5.5,3.2812 2.059,1.402 3.5245,2.937 4.4375,4.625 0.908,1.706 1.5988,3.8407 2.0937,6.3437 0.478,2.496 0.49235,5.2575 0.0312,8.3125 -0.93599,6.173 -3.384,10.585 -7.375,13.25 l 16.75,2.5 -3.75,24.937 -115.41,-17.375 3.75,-24.937 5.5625,0.84375 c -3.964,-4.376 -5.4925,-9.5968 -4.5625,-15.719 0.488,-3.291 1.445,-6.128 2.875,-8.5 1.438,-2.361 3.1685,-4.2252 5.1875,-5.5312 2.008,-1.309 4.4308,-2.2687 7.2188,-2.8437 2.801,-0.582 5.6598,-0.82925 8.5937,-0.78125 z m 99.125,-16.25 c -0.13013,0.0207 -0.265,0.063 -0.375,0.125 -0.225,0.129 -0.39325,0.329 -0.53125,0.625 -0.142,0.293 -0.26775,0.58425 -0.34375,0.90625 -0.076,0.317 -0.15475,0.7225 -0.21875,1.1875 -0.032,0.225 -0.07,0.552 -0.125,1 -0.053,0.442 -0.092,0.775 -0.125,1 l 2.6875,0.40625 0.34375,-2.5 c 0.243,-1.719 -0.0583,-2.632 -0.90625,-2.75 -0.1505,-0.023 -0.27612,-0.0208 -0.40625,0 z m 16.219,-3.375 5.6562,0.8125 -0.8125,17.031 4.0625,-16.594 5.625,0.8125 -7,24.875 -7.6562,-1.0937 z m -16.75,-1.0312 c 0.51252,-0.002 1.0288,0.0467 1.5938,0.125 4.581,0.649 6.5775,3.231 5.9375,7.75 l -0.25,1.75 c -0.306,2.153 -0.5325,3.6072 -0.6875,4.4062 l -8.2812,-1.1562 -0.46875,3.3437 c -0.016,0.102 -0.0519,0.29325 -0.0937,0.53125 -0.038,0.24 -0.0425,0.40225 -0.0625,0.53125 -0.055,0.379 -0.0858,0.722 -0.0937,1 -0.003,0.272 0.0155,0.54375 0.0625,0.84375 0.044,0.289 0.1385,0.5185 0.3125,0.6875 0.176,0.168 0.41975,0.2695 0.71875,0.3125 0.307,0.042 0.56125,-0.0288 0.78125,-0.21875 0.223,-0.189 0.4215,-0.477 0.5625,-0.875 0.136,-0.397 0.2445,-0.7445 0.3125,-1.0625 0.064,-0.315 0.1165,-0.7125 0.1875,-1.1875 0.13,-0.933 0.1975,-1.4392 0.1875,-1.5312 l 5.6562,0.78125 -0.1875,1.375 c -0.186,1.328 -0.45425,2.4407 -0.78125,3.3437 -0.335,0.905 -0.8165,1.7 -1.4375,2.375 -0.617,0.678 -1.4335,1.1078 -2.4375,1.3438 -1.013,0.236 -2.2262,0.2605 -3.6562,0.0625 -0.85,-0.121 -1.6192,-0.32175 -2.2812,-0.59375 -0.667,-0.273 -1.187,-0.55625 -1.625,-0.90625 -0.432,-0.348 -0.80975,-0.774 -1.0938,-1.25 -0.284,-0.479 -0.488,-0.9665 -0.625,-1.4375 -0.144,-0.474 -0.24025,-1.0057 -0.28125,-1.5937 -0.042,-0.588 -0.031,-1.129 0,-1.625 0.031,-0.493 0.0722,-1.031 0.15625,-1.625 l 1.375,-9.5937 c 0.311,-2.198 1.1708,-3.7982 2.5938,-4.7812 1.0657,-0.74025 2.3687,-1.118 3.9062,-1.125 z m -112.87,-17.531 102.75,15.5 -3.6875,24.5 -102.75,-15.469 z m -18.344,-2.75 12.031,1.8125 -3.6875,24.5 -12.031,-1.8125 z m 74.781,-33.969 c 1.046,4.447 2.593,7.575 4.625,9.375 2.041,1.799 4.6068,2.9392 7.7187,3.4062 l 11.969,1.8125 c 6.079,0.918 9.3925,-0.471 9.9375,-4.125 0.149,-1 -0.01,-1.9157 -0.4375,-2.7187 -0.44,-0.817 -1.06,-1.4395 -1.875,-1.9375 -0.803,-0.501 -1.5932,-0.89425 -2.4062,-1.1562 -0.803,-0.249 -1.639,-0.4315 -2.5,-0.5625 z M 66.607,-3e-4 0.013,83.5307 v 380.37 h 71.812 c -3.3324,-1.8818 -6.0344,-4.3431 -8.0938,-7.375 -4.188,-6.163 -5.5325,-14.1 -4.0625,-23.812 2.969,-19.729 14.153,-28.107 33.594,-25.187 l 7.4687,1.125 c 9.27,1.396 15.621,2.4492 19.062,3.1562 l -5.375,35.594 14.375,2.1562 c 0.459,0.067 1.2127,0.193 2.2187,0.375 1.022,0.186 1.828,0.298 2.375,0.375 1.64,0.256 3.0378,0.3995 4.2188,0.4375 1.177,0.03 2.4075,-0.0297 3.6875,-0.21875 1.247,-0.185 2.261,-0.64725 3,-1.4062 0.75,-0.75 1.2142,-1.7422 1.4062,-3.0312 0.198,-1.318 -0.0842,-2.4855 -0.90625,-3.4375 -0.806,-0.969 -2.0612,-1.7278 -3.7812,-2.3438 -1.688,-0.608 -3.2398,-1.0547 -4.5938,-1.3437 -1.359,-0.306 -3.0568,-0.60725 -5.0938,-0.90625 -4.04,-0.616 -6.2187,-0.922 -6.5937,-0.875 l 3.6562,-24.375 5.8125,0.875 c 5.702,0.854 10.498,2.037 14.375,3.5 3.884,1.478 7.2782,3.5772 10.156,6.2812 2.885,2.682 4.8325,6.1852 5.8125,10.531 0.984,4.341 0.9935,9.6182 0.0625,15.781 -0.553,3.657 -1.439,6.896 -2.625,9.75 -0.69216,1.6341 -1.4311,3.0741 -2.2188,4.375 h 174.41 v -217.09 c -10.96,35.653 -22.957,57.853 -27.125,65 l 15.437,10.219 0.4375,2.5938 -11.562,-7.6875 -2.7812,4.1562 15.5,10.281 0.84375,5 -18.375,-12.219 -2.7812,4.1875 22.281,14.812 0.84375,5 -25.156,-16.75 -2.7812,4.1875 29.094,19.344 v 0.0312 l -61.281,92.594 -12.375,-8.1875 22.375,-33.937 -18.437,-12.188 26.375,-40 -17.812,-11.781 -26.375,39.969 -19.875,-13.125 -22.375,33.937 -12.875,-8.5312 61.312,-92.594 0.125,-0.0312 31.125,20.687 2.7812,-4.1562 -27.812,-18.5 4.5,-1.4688 25.344,16.875 2.7812,-4.1562 -22.062,-14.656 4.5,-1.4688 19.594,13.031 2.7812,-4.1562 -16.312,-10.844 2.3125,-0.75 19.844,13.125 c 5.8198,-9.9707 26.434,-48.625 37.969,-113.16 V 83.524 l -78.094,-83.531 h -24.969 l -3.6562,24.219 -10.687,-1.5937 c 2.874,1.268 5.359,3.5722 7.375,6.9062 2.02,3.333 2.769,6.7252 2.25,10.156 -0.365,2.463 -0.94025,4.5932 -1.6562,6.4062 -0.705,1.803 -1.8568,3.5437 -3.4688,5.2187 -1.593,1.665 -3.608,2.9345 -6,3.8125 -2.401,0.881 -5.5157,1.3957 -9.3437,1.5937 -3.833,0.183 -8.2867,-0.0838 -13.344,-0.84375 -9.08,-1.369 -15.692,-3.741 -19.844,-7.125 -3.574,-2.92 -6.295,-7.475 -8.125,-13.625 -0.932,-3.128 -2.3392,-10.009 -4.2812,-20.656 -0.057,-0.003 -0.12175,-0.0113 -0.21875,-0.0312 -1.463,-0.219 -2.6585,-0.385 -3.5625,-0.5 -0.923,-0.121 -1.9548,-0.25525 -3.0938,-0.40625 -1.155,-0.145 -2.062,-0.2545 -2.75,-0.3125 -0.685,-0.05 -1.4522,-0.095 -2.2812,-0.125 -0.841,-0.04 -1.4835,-0.04 -1.9375,0 -0.446,0.05 -0.938,0.15625 -1.5,0.28125 -0.552,0.118 -0.9955,0.294 -1.3125,0.5 -0.31799,0.215 -0.59699,0.467 -0.87499,0.75 -0.271,0.286 -0.49225,0.6485 -0.65625,1.0625 -0.148,0.424 -0.26475,0.874 -0.34375,1.375 -0.496,3.384 1.1128,5.3685 4.8437,5.9375 l 6.9062,1.0312 -3.5938,23.812 c -0.774,-0.078 -1.8768,-0.2195 -3.3438,-0.4375 -9.768,-1.467 -16.561,-4.8655 -20.406,-10.187 -3.84,-5.318 -4.9405,-13.391 -3.3125,-24.25 0.539,-3.512 1.537,-6.864 3,-10 0.48408,-1.0263 1.0164,-2.0076 1.5938,-2.9687 z m 187.47,399.65 -17.822,-11.776 4.141,-6.271 17.815,11.777 z"
         color="#000000"
         enable-background="accumulate"
         fill="#ea5b0c"
         font-family="Sans"
         style="line-height:normal;text-indent:0;text-decoration-line:none;text-transform:none"
         id="path200" /></clipPath><clipPath
       id="clipPath5986"><path
         d="m 250.94,437.53 3.2188,2.125 -1.7812,2.6875 -3.2188,-2.125 z m -6.5312,-4.2812 2.375,1.5625 -1.7812,2.6875 -2.375,-1.5625 z m -159.37,-1.6875 c -4.2614,0.0565 -6.5905,1.447 -7,4.1875 -0.197,1.266 -0.0652,2.416 0.46875,3.375 0.545,0.97299 1.4557,1.7527 2.7187,2.3437 1.273,0.619 2.5777,1.1198 3.9687,1.4688 1.36,0.347 3.0355,0.66575 5.0625,0.96875 0.942,0.151 2.3905,0.3235 4.3125,0.5625 1.916,0.249 3.3575,0.44275 4.3125,0.59375 l 1.75,-11.5 -10.687,-1.5938 c -1.8472,-0.2775 -3.4858,-0.42509 -4.9062,-0.40625 z m 152.84,-2.625 2.3438,1.5625 -1.7812,2.6875 -2.375,-1.5625 z m -6.5312,-4.3125 2.3438,1.5625 -1.7812,2.6875 -2.375,-1.5625 z m -6.5625,-4.3125 2.3437,1.5625 -1.7812,2.6875 -2.3438,-1.5625 z m -6.5312,-4.3125 2.375,1.5625 -1.8125,2.6875 -2.375,-1.5625 z m -6.5625,-4.3125 2.375,1.5625 -1.7812,2.6875 -2.375,-1.5625 z m -6.5312,-4.3125 2.375,1.5625 -1.7812,2.6875 -2.375,-1.5625 z m -7.2187,-4.75 3.0625,2 -1.7812,2.6875 -3.0625,-2 z m -106.56,-66.219 c 0.6647,-0.0175 1.3335,-0.0198 2.0312,0 1.8607,0.0528 3.8387,0.24525 5.9375,0.5625 l 79.187,11.906 -3.625,24.187 -76.687,-11.562 c -2.145,-0.316 -4.095,-0.14725 -5.875,0.46875 -1.785,0.612 -2.8027,1.8672 -3.0937,3.7812 -0.18,1.174 0.0145,2.2655 0.5625,3.1875 0.525,0.915 1.1837,1.6422 1.9687,2.1562 0.785,0.514 1.8485,0.97225 3.1875,1.4062 1.327,0.438 2.3567,0.71275 3.0937,0.84375 0.727,0.135 1.6537,0.28275 2.8438,0.46875 l 72.25,10.875 -3.7187,24.5 -102.72,-15.469 3.6875,-24.5 11.75,1.7812 c -4.281,-1.661 -7.2475,-4.0185 -8.9375,-7.0625 -1.686,-3.024 -2.2392,-6.493 -1.6562,-10.375 0.972,-6.425 3.7335,-11.108 8.3125,-14.062 2.9945,-1.9405 6.8471,-2.9715 11.5,-3.0938 z m -5.4375,-42.969 18.687,2.8125 -0.65625,4.375 57.781,8.6875 c 0.859,0.13499 1.5585,0.21299 2.0625,0.24999 0.514,0.033 1.03,0.0267 1.625,-0.0312 0.591,-0.047 1.08,-0.24374 1.375,-0.59374 0.32,-0.347 0.49475,-0.82425 0.59375,-1.4062 0.086,-0.588 0.097,-1.1905 0,-1.8125 l 16.687,2.5 c 0.668,3.646 0.62575,8.0957 -0.15625,13.344 -0.402,2.644 -1.1048,4.8632 -2.0938,6.6562 -1.006,1.776 -2.0982,3.1362 -3.2812,4.0312 -1.188,0.885 -2.6298,1.5252 -4.3438,1.9062 -1.721,0.363 -3.306,0.50875 -4.75,0.46875 -1.44,-0.058 -3.063,-0.225 -4.875,-0.5 l -64.219,-9.6875 -0.5625,3.7812 -18.687,-2.8125 0.5625,-3.7812 -21.844,-3.2812 3.5937,-23.812 21.844,3.2812 0.65625,-4.375 z m 17.406,-65.031 c 1.2086,-0.0406 2.4808,0.0522 3.8125,0.25 l 34.375,5.1875 -3.5938,23.937 -24.594,-3.6875 c -1.228,-0.195 -2.26,-0.2945 -3.125,-0.3125 -0.861,-0.014 -1.7308,0.249 -2.5938,0.75 -0.868,0.494 -1.3925,1.3318 -1.5625,2.4688 -0.178,1.184 0.19275,2.311 1.0938,3.375 0.92,1.08 2.2778,1.7592 4.0938,2.0312 l 78.531,11.812 -3.6875,24.5 -102.69,-15.469 3.7187,-24.5 11.406,1.7188 c -4.493,-2.082 -7.4717,-4.4768 -8.9687,-7.2188 -1.495,-2.752 -1.9772,-6.0405 -1.4062,-9.8125 0.687,-4.571 2.686,-8.3622 6,-11.406 2.4982,-2.2912 5.5617,-3.5033 9.1875,-3.625 z m 18.812,-40.906 c -4.0341,-0.007 -6.2763,1.5772 -6.75,4.6875 -0.577,3.83 2.1227,6.1957 8.0937,7.0937 l 50.187,7.5312 c 2.738,0.41 4.8008,0.2045 6.2188,-0.6875 1.412,-0.885 2.253,-2.179 2.5,-3.875 0.258,-1.689 -0.168,-3.1482 -1.25,-4.4062 -1.098,-1.258 -3.008,-2.086 -5.75,-2.5 l -50.156,-7.5625 c -1.1207,-0.16781 -2.1628,-0.27974 -3.0938,-0.28125 z m 3.6875,-24.687 c 2.2508,-0.0113 4.6087,0.1915 7.0625,0.56249 l 41.219,6.1875 c 10.731,1.618 18.314,5.4508 22.812,11.469 4.52,6.025 6.0372,14.056 4.5312,24.094 -3.083,20.447 -15.303,29.063 -36.625,25.844 l -41.187,-6.1875 c -9.813,-1.486 -17.179,-5.406 -22.094,-11.75 -4.937,-6.332 -6.678,-14.25 -5.25,-23.75 1.44,-9.537 5.4522,-16.61 12.031,-21.219 4.9245,-3.459 10.748,-5.216 17.5,-5.25 z m 6.3125,-46.125 c -0.42088,0.0113 -0.79125,0.0525 -1.0938,0.125 -0.609,0.142 -1.3035,0.37025 -2.0625,0.65625 -0.771,0.282 -1.3482,0.7105 -1.7812,1.3125 -0.403,0.619 -0.70075,1.3975 -0.84375,2.3125 -0.574,3.829 2.6955,6.2678 9.8125,7.3438 l 45,6.7812 c 3.686,0.562 6.4915,0.52415 8.4375,-0.0937 1.936,-0.609 3.0832,-2.0102 3.4062,-4.1562 0.291,-1.911 -0.4525,-3.4 -2.1875,-4.5 -1.725,-1.107 -4.7315,-1.9972 -9.0625,-2.6562 l -43.594,-6.5626 c -1.07,-0.148 -1.8202,-0.23725 -2.2812,-0.28125 -0.466,-0.05 -1.2305,-0.13175 -2.3125,-0.21875 -0.545,-0.0505 -1.0166,-0.0738 -1.4375,-0.0625 z m 127.66,-22 5.7188,0.78125 -0.6875,4.75 -5.6875,-0.8125 z m -21.406,-3.0312 5.7187,0.8125 -0.6875,4.75 -5.6875,-0.8125 z m -106.16,-0.0937 c 2.92,0.047 6.1322,0.31275 9.6562,0.84375 l 37.594,5.6562 c 0.09,0.01 0.19475,0.0395 0.34375,0.0625 3.271,0.505 5.7747,0.8845 7.4687,1.1875 1.711,0.313 4.0708,0.8255 7.0938,1.5625 3.009,0.727 5.3305,1.4932 6.9375,2.2812 1.603,0.767 3.46,1.8682 5.5,3.2812 2.059,1.402 3.5245,2.937 4.4375,4.625 0.908,1.706 1.5988,3.8407 2.0937,6.3437 0.478,2.496 0.49235,5.2575 0.0312,8.3125 -0.93599,6.173 -3.384,10.585 -7.375,13.25 l 16.75,2.5 -3.75,24.937 -115.41,-17.375 3.75,-24.937 5.5625,0.84375 c -3.964,-4.376 -5.4925,-9.5968 -4.5625,-15.719 0.488,-3.291 1.445,-6.128 2.875,-8.5 1.438,-2.361 3.1685,-4.2252 5.1875,-5.5312 2.008,-1.309 4.4308,-2.2687 7.2188,-2.8437 2.801,-0.582 5.6598,-0.82925 8.5937,-0.78125 z m 99.125,-16.25 c -0.13013,0.0207 -0.265,0.063 -0.375,0.125 -0.225,0.129 -0.39325,0.329 -0.53125,0.625 -0.142,0.293 -0.26775,0.58425 -0.34375,0.90625 -0.076,0.317 -0.15475,0.7225 -0.21875,1.1875 -0.032,0.225 -0.07,0.552 -0.125,1 -0.053,0.442 -0.092,0.775 -0.125,1 l 2.6875,0.40625 0.34375,-2.5 c 0.243,-1.719 -0.0583,-2.632 -0.90625,-2.75 -0.1505,-0.023 -0.27612,-0.0208 -0.40625,0 z m 16.219,-3.375 5.6562,0.8125 -0.8125,17.031 4.0625,-16.594 5.625,0.8125 -7,24.875 -7.6562,-1.0937 z m -16.75,-1.0312 c 0.51252,-0.002 1.0288,0.0467 1.5938,0.125 4.581,0.649 6.5775,3.231 5.9375,7.75 l -0.25,1.75 c -0.306,2.153 -0.5325,3.6072 -0.6875,4.4062 l -8.2812,-1.1562 -0.46875,3.3437 c -0.016,0.102 -0.0519,0.29325 -0.0937,0.53125 -0.038,0.24 -0.0425,0.40225 -0.0625,0.53125 -0.055,0.379 -0.0858,0.722 -0.0937,1 -0.003,0.272 0.0155,0.54375 0.0625,0.84375 0.044,0.289 0.1385,0.5185 0.3125,0.6875 0.176,0.168 0.41975,0.2695 0.71875,0.3125 0.307,0.042 0.56125,-0.0288 0.78125,-0.21875 0.223,-0.189 0.4215,-0.477 0.5625,-0.875 0.136,-0.397 0.2445,-0.7445 0.3125,-1.0625 0.064,-0.315 0.1165,-0.7125 0.1875,-1.1875 0.13,-0.933 0.1975,-1.4392 0.1875,-1.5312 l 5.6562,0.78125 -0.1875,1.375 c -0.186,1.328 -0.45425,2.4407 -0.78125,3.3437 -0.335,0.905 -0.8165,1.7 -1.4375,2.375 -0.617,0.678 -1.4335,1.1078 -2.4375,1.3438 -1.013,0.236 -2.2262,0.2605 -3.6562,0.0625 -0.85,-0.121 -1.6192,-0.32175 -2.2812,-0.59375 -0.667,-0.273 -1.187,-0.55625 -1.625,-0.90625 -0.432,-0.348 -0.80975,-0.774 -1.0938,-1.25 -0.284,-0.479 -0.488,-0.9665 -0.625,-1.4375 -0.144,-0.474 -0.24025,-1.0057 -0.28125,-1.5937 -0.042,-0.588 -0.031,-1.129 0,-1.625 0.031,-0.493 0.0722,-1.031 0.15625,-1.625 l 1.375,-9.5937 c 0.311,-2.198 1.1708,-3.7982 2.5938,-4.7812 1.0657,-0.74025 2.3687,-1.118 3.9062,-1.125 z m -112.87,-17.531 102.75,15.5 -3.6875,24.5 -102.75,-15.469 z m -18.344,-2.75 12.031,1.8125 -3.6875,24.5 -12.031,-1.8125 z m 74.781,-33.969 c 1.046,4.447 2.593,7.575 4.625,9.375 2.041,1.799 4.6068,2.9392 7.7187,3.4062 l 11.969,1.8125 c 6.079,0.918 9.3925,-0.471 9.9375,-4.125 0.149,-1 -0.01,-1.9157 -0.4375,-2.7187 -0.44,-0.817 -1.06,-1.4395 -1.875,-1.9375 -0.803,-0.501 -1.5932,-0.89425 -2.4062,-1.1562 -0.803,-0.249 -1.639,-0.4315 -2.5,-0.5625 z M 66.607,-3e-4 0.013,83.5307 v 380.37 h 71.812 c -3.3324,-1.8818 -6.0344,-4.3431 -8.0938,-7.375 -4.188,-6.163 -5.5325,-14.1 -4.0625,-23.812 2.969,-19.729 14.153,-28.107 33.594,-25.187 l 7.4687,1.125 c 9.27,1.396 15.621,2.4492 19.062,3.1562 l -5.375,35.594 14.375,2.1562 c 0.459,0.067 1.2127,0.193 2.2187,0.375 1.022,0.186 1.828,0.298 2.375,0.375 1.64,0.256 3.0378,0.3995 4.2188,0.4375 1.177,0.03 2.4075,-0.0297 3.6875,-0.21875 1.247,-0.185 2.261,-0.64725 3,-1.4062 0.75,-0.75 1.2142,-1.7422 1.4062,-3.0312 0.198,-1.318 -0.0842,-2.4855 -0.90625,-3.4375 -0.806,-0.969 -2.0612,-1.7278 -3.7812,-2.3438 -1.688,-0.608 -3.2398,-1.0547 -4.5938,-1.3437 -1.359,-0.306 -3.0568,-0.60725 -5.0938,-0.90625 -4.04,-0.616 -6.2187,-0.922 -6.5937,-0.875 l 3.6562,-24.375 5.8125,0.875 c 5.702,0.854 10.498,2.037 14.375,3.5 3.884,1.478 7.2782,3.5772 10.156,6.2812 2.885,2.682 4.8325,6.1852 5.8125,10.531 0.984,4.341 0.9935,9.6182 0.0625,15.781 -0.553,3.657 -1.439,6.896 -2.625,9.75 -0.69216,1.6341 -1.4311,3.0741 -2.2188,4.375 h 174.41 v -217.09 c -10.96,35.653 -22.957,57.853 -27.125,65 l 15.437,10.219 0.4375,2.5938 -11.562,-7.6875 -2.7812,4.1562 15.5,10.281 0.84375,5 -18.375,-12.219 -2.7812,4.1875 22.281,14.812 0.84375,5 -25.156,-16.75 -2.7812,4.1875 29.094,19.344 v 0.0312 l -61.281,92.594 -12.375,-8.1875 22.375,-33.937 -18.437,-12.188 26.375,-40 -17.812,-11.781 -26.375,39.969 -19.875,-13.125 -22.375,33.937 -12.875,-8.5312 61.312,-92.594 0.125,-0.0312 31.125,20.687 2.7812,-4.1562 -27.812,-18.5 4.5,-1.4688 25.344,16.875 2.7812,-4.1562 -22.062,-14.656 4.5,-1.4688 19.594,13.031 2.7812,-4.1562 -16.312,-10.844 2.3125,-0.75 19.844,13.125 c 5.8198,-9.9707 26.434,-48.625 37.969,-113.16 V 83.524 l -78.094,-83.531 h -24.969 l -3.6562,24.219 -10.687,-1.5937 c 2.874,1.268 5.359,3.5722 7.375,6.9062 2.02,3.333 2.769,6.7252 2.25,10.156 -0.365,2.463 -0.94025,4.5932 -1.6562,6.4062 -0.705,1.803 -1.8568,3.5437 -3.4688,5.2187 -1.593,1.665 -3.608,2.9345 -6,3.8125 -2.401,0.881 -5.5157,1.3957 -9.3437,1.5937 -3.833,0.183 -8.2867,-0.0838 -13.344,-0.84375 -9.08,-1.369 -15.692,-3.741 -19.844,-7.125 -3.574,-2.92 -6.295,-7.475 -8.125,-13.625 -0.932,-3.128 -2.3392,-10.009 -4.2812,-20.656 -0.057,-0.003 -0.12175,-0.0113 -0.21875,-0.0312 -1.463,-0.219 -2.6585,-0.385 -3.5625,-0.5 -0.923,-0.121 -1.9548,-0.25525 -3.0938,-0.40625 -1.155,-0.145 -2.062,-0.2545 -2.75,-0.3125 -0.685,-0.05 -1.4522,-0.095 -2.2812,-0.125 -0.841,-0.04 -1.4835,-0.04 -1.9375,0 -0.446,0.05 -0.938,0.15625 -1.5,0.28125 -0.552,0.118 -0.9955,0.294 -1.3125,0.5 -0.31799,0.215 -0.59699,0.467 -0.87499,0.75 -0.271,0.286 -0.49225,0.6485 -0.65625,1.0625 -0.148,0.424 -0.26475,0.874 -0.34375,1.375 -0.496,3.384 1.1128,5.3685 4.8437,5.9375 l 6.9062,1.0312 -3.5938,23.812 c -0.774,-0.078 -1.8768,-0.2195 -3.3438,-0.4375 -9.768,-1.467 -16.561,-4.8655 -20.406,-10.187 -3.84,-5.318 -4.9405,-13.391 -3.3125,-24.25 0.539,-3.512 1.537,-6.864 3,-10 0.48408,-1.0263 1.0164,-2.0076 1.5938,-2.9687 z m 187.47,399.65 -17.822,-11.776 4.141,-6.271 17.815,11.777 z"
         color="#000000"
         enable-background="accumulate"
         fill="#ea5b0c"
         font-family="Sans"
         style="line-height:normal;text-indent:0;text-decoration-line:none;text-transform:none"
         id="path203" /></clipPath><clipPath
       id="clipPath5990"><path
         d="m 250.94,437.53 3.2188,2.125 -1.7812,2.6875 -3.2188,-2.125 z m -6.5312,-4.2812 2.375,1.5625 -1.7812,2.6875 -2.375,-1.5625 z m -159.37,-1.6875 c -4.2614,0.0565 -6.5905,1.447 -7,4.1875 -0.197,1.266 -0.0652,2.416 0.46875,3.375 0.545,0.97299 1.4557,1.7527 2.7187,2.3437 1.273,0.619 2.5777,1.1198 3.9687,1.4688 1.36,0.347 3.0355,0.66575 5.0625,0.96875 0.942,0.151 2.3905,0.3235 4.3125,0.5625 1.916,0.249 3.3575,0.44275 4.3125,0.59375 l 1.75,-11.5 -10.687,-1.5938 c -1.8472,-0.2775 -3.4858,-0.42509 -4.9062,-0.40625 z m 152.84,-2.625 2.3438,1.5625 -1.7812,2.6875 -2.375,-1.5625 z m -6.5312,-4.3125 2.3438,1.5625 -1.7812,2.6875 -2.375,-1.5625 z m -6.5625,-4.3125 2.3437,1.5625 -1.7812,2.6875 -2.3438,-1.5625 z m -6.5312,-4.3125 2.375,1.5625 -1.8125,2.6875 -2.375,-1.5625 z m -6.5625,-4.3125 2.375,1.5625 -1.7812,2.6875 -2.375,-1.5625 z m -6.5312,-4.3125 2.375,1.5625 -1.7812,2.6875 -2.375,-1.5625 z m -7.2187,-4.75 3.0625,2 -1.7812,2.6875 -3.0625,-2 z m -106.56,-66.219 c 0.6647,-0.0175 1.3335,-0.0198 2.0312,0 1.8607,0.0528 3.8387,0.24525 5.9375,0.5625 l 79.187,11.906 -3.625,24.187 -76.687,-11.562 c -2.145,-0.316 -4.095,-0.14725 -5.875,0.46875 -1.785,0.612 -2.8027,1.8672 -3.0937,3.7812 -0.18,1.174 0.0145,2.2655 0.5625,3.1875 0.525,0.915 1.1837,1.6422 1.9687,2.1562 0.785,0.514 1.8485,0.97225 3.1875,1.4062 1.327,0.438 2.3567,0.71275 3.0937,0.84375 0.727,0.135 1.6537,0.28275 2.8438,0.46875 l 72.25,10.875 -3.7187,24.5 -102.72,-15.469 3.6875,-24.5 11.75,1.7812 c -4.281,-1.661 -7.2475,-4.0185 -8.9375,-7.0625 -1.686,-3.024 -2.2392,-6.493 -1.6562,-10.375 0.972,-6.425 3.7335,-11.108 8.3125,-14.062 2.9945,-1.9405 6.8471,-2.9715 11.5,-3.0938 z m -5.4375,-42.969 18.687,2.8125 -0.65625,4.375 57.781,8.6875 c 0.859,0.13499 1.5585,0.21299 2.0625,0.24999 0.514,0.033 1.03,0.0267 1.625,-0.0312 0.591,-0.047 1.08,-0.24374 1.375,-0.59374 0.32,-0.347 0.49475,-0.82425 0.59375,-1.4062 0.086,-0.588 0.097,-1.1905 0,-1.8125 l 16.687,2.5 c 0.668,3.646 0.62575,8.0957 -0.15625,13.344 -0.402,2.644 -1.1048,4.8632 -2.0938,6.6562 -1.006,1.776 -2.0982,3.1362 -3.2812,4.0312 -1.188,0.885 -2.6298,1.5252 -4.3438,1.9062 -1.721,0.363 -3.306,0.50875 -4.75,0.46875 -1.44,-0.058 -3.063,-0.225 -4.875,-0.5 l -64.219,-9.6875 -0.5625,3.7812 -18.687,-2.8125 0.5625,-3.7812 -21.844,-3.2812 3.5937,-23.812 21.844,3.2812 0.65625,-4.375 z m 17.406,-65.031 c 1.2086,-0.0406 2.4808,0.0522 3.8125,0.25 l 34.375,5.1875 -3.5938,23.937 -24.594,-3.6875 c -1.228,-0.195 -2.26,-0.2945 -3.125,-0.3125 -0.861,-0.014 -1.7308,0.249 -2.5938,0.75 -0.868,0.494 -1.3925,1.3318 -1.5625,2.4688 -0.178,1.184 0.19275,2.311 1.0938,3.375 0.92,1.08 2.2778,1.7592 4.0938,2.0312 l 78.531,11.812 -3.6875,24.5 -102.69,-15.469 3.7187,-24.5 11.406,1.7188 c -4.493,-2.082 -7.4717,-4.4768 -8.9687,-7.2188 -1.495,-2.752 -1.9772,-6.0405 -1.4062,-9.8125 0.687,-4.571 2.686,-8.3622 6,-11.406 2.4982,-2.2912 5.5617,-3.5033 9.1875,-3.625 z m 18.812,-40.906 c -4.0341,-0.007 -6.2763,1.5772 -6.75,4.6875 -0.577,3.83 2.1227,6.1957 8.0937,7.0937 l 50.187,7.5312 c 2.738,0.41 4.8008,0.2045 6.2188,-0.6875 1.412,-0.885 2.253,-2.179 2.5,-3.875 0.258,-1.689 -0.168,-3.1482 -1.25,-4.4062 -1.098,-1.258 -3.008,-2.086 -5.75,-2.5 l -50.156,-7.5625 c -1.1207,-0.16781 -2.1628,-0.27974 -3.0938,-0.28125 z m 3.6875,-24.687 c 2.2508,-0.0113 4.6087,0.1915 7.0625,0.56249 l 41.219,6.1875 c 10.731,1.618 18.314,5.4508 22.812,11.469 4.52,6.025 6.0372,14.056 4.5312,24.094 -3.083,20.447 -15.303,29.063 -36.625,25.844 l -41.187,-6.1875 c -9.813,-1.486 -17.179,-5.406 -22.094,-11.75 -4.937,-6.332 -6.678,-14.25 -5.25,-23.75 1.44,-9.537 5.4522,-16.61 12.031,-21.219 4.9245,-3.459 10.748,-5.216 17.5,-5.25 z m 6.3125,-46.125 c -0.42088,0.0113 -0.79125,0.0525 -1.0938,0.125 -0.609,0.142 -1.3035,0.37025 -2.0625,0.65625 -0.771,0.282 -1.3482,0.7105 -1.7812,1.3125 -0.403,0.619 -0.70075,1.3975 -0.84375,2.3125 -0.574,3.829 2.6955,6.2678 9.8125,7.3438 l 45,6.7812 c 3.686,0.562 6.4915,0.52415 8.4375,-0.0937 1.936,-0.609 3.0832,-2.0102 3.4062,-4.1562 0.291,-1.911 -0.4525,-3.4 -2.1875,-4.5 -1.725,-1.107 -4.7315,-1.9972 -9.0625,-2.6562 l -43.594,-6.5626 c -1.07,-0.148 -1.8202,-0.23725 -2.2812,-0.28125 -0.466,-0.05 -1.2305,-0.13175 -2.3125,-0.21875 -0.545,-0.0505 -1.0166,-0.0738 -1.4375,-0.0625 z m 127.66,-22 5.7188,0.78125 -0.6875,4.75 -5.6875,-0.8125 z m -21.406,-3.0312 5.7187,0.8125 -0.6875,4.75 -5.6875,-0.8125 z m -106.16,-0.0937 c 2.92,0.047 6.1322,0.31275 9.6562,0.84375 l 37.594,5.6562 c 0.09,0.01 0.19475,0.0395 0.34375,0.0625 3.271,0.505 5.7747,0.8845 7.4687,1.1875 1.711,0.313 4.0708,0.8255 7.0938,1.5625 3.009,0.727 5.3305,1.4932 6.9375,2.2812 1.603,0.767 3.46,1.8682 5.5,3.2812 2.059,1.402 3.5245,2.937 4.4375,4.625 0.908,1.706 1.5988,3.8407 2.0937,6.3437 0.478,2.496 0.49235,5.2575 0.0312,8.3125 -0.93599,6.173 -3.384,10.585 -7.375,13.25 l 16.75,2.5 -3.75,24.937 -115.41,-17.375 3.75,-24.937 5.5625,0.84375 c -3.964,-4.376 -5.4925,-9.5968 -4.5625,-15.719 0.488,-3.291 1.445,-6.128 2.875,-8.5 1.438,-2.361 3.1685,-4.2252 5.1875,-5.5312 2.008,-1.309 4.4308,-2.2687 7.2188,-2.8437 2.801,-0.582 5.6598,-0.82925 8.5937,-0.78125 z m 99.125,-16.25 c -0.13013,0.0207 -0.265,0.063 -0.375,0.125 -0.225,0.129 -0.39325,0.329 -0.53125,0.625 -0.142,0.293 -0.26775,0.58425 -0.34375,0.90625 -0.076,0.317 -0.15475,0.7225 -0.21875,1.1875 -0.032,0.225 -0.07,0.552 -0.125,1 -0.053,0.442 -0.092,0.775 -0.125,1 l 2.6875,0.40625 0.34375,-2.5 c 0.243,-1.719 -0.0583,-2.632 -0.90625,-2.75 -0.1505,-0.023 -0.27612,-0.0208 -0.40625,0 z m 16.219,-3.375 5.6562,0.8125 -0.8125,17.031 4.0625,-16.594 5.625,0.8125 -7,24.875 -7.6562,-1.0937 z m -16.75,-1.0312 c 0.51252,-0.002 1.0288,0.0467 1.5938,0.125 4.581,0.649 6.5775,3.231 5.9375,7.75 l -0.25,1.75 c -0.306,2.153 -0.5325,3.6072 -0.6875,4.4062 l -8.2812,-1.1562 -0.46875,3.3437 c -0.016,0.102 -0.0519,0.29325 -0.0937,0.53125 -0.038,0.24 -0.0425,0.40225 -0.0625,0.53125 -0.055,0.379 -0.0858,0.722 -0.0937,1 -0.003,0.272 0.0155,0.54375 0.0625,0.84375 0.044,0.289 0.1385,0.5185 0.3125,0.6875 0.176,0.168 0.41975,0.2695 0.71875,0.3125 0.307,0.042 0.56125,-0.0288 0.78125,-0.21875 0.223,-0.189 0.4215,-0.477 0.5625,-0.875 0.136,-0.397 0.2445,-0.7445 0.3125,-1.0625 0.064,-0.315 0.1165,-0.7125 0.1875,-1.1875 0.13,-0.933 0.1975,-1.4392 0.1875,-1.5312 l 5.6562,0.78125 -0.1875,1.375 c -0.186,1.328 -0.45425,2.4407 -0.78125,3.3437 -0.335,0.905 -0.8165,1.7 -1.4375,2.375 -0.617,0.678 -1.4335,1.1078 -2.4375,1.3438 -1.013,0.236 -2.2262,0.2605 -3.6562,0.0625 -0.85,-0.121 -1.6192,-0.32175 -2.2812,-0.59375 -0.667,-0.273 -1.187,-0.55625 -1.625,-0.90625 -0.432,-0.348 -0.80975,-0.774 -1.0938,-1.25 -0.284,-0.479 -0.488,-0.9665 -0.625,-1.4375 -0.144,-0.474 -0.24025,-1.0057 -0.28125,-1.5937 -0.042,-0.588 -0.031,-1.129 0,-1.625 0.031,-0.493 0.0722,-1.031 0.15625,-1.625 l 1.375,-9.5937 c 0.311,-2.198 1.1708,-3.7982 2.5938,-4.7812 1.0657,-0.74025 2.3687,-1.118 3.9062,-1.125 z m -112.87,-17.531 102.75,15.5 -3.6875,24.5 -102.75,-15.469 z m -18.344,-2.75 12.031,1.8125 -3.6875,24.5 -12.031,-1.8125 z m 74.781,-33.969 c 1.046,4.447 2.593,7.575 4.625,9.375 2.041,1.799 4.6068,2.9392 7.7187,3.4062 l 11.969,1.8125 c 6.079,0.918 9.3925,-0.471 9.9375,-4.125 0.149,-1 -0.01,-1.9157 -0.4375,-2.7187 -0.44,-0.817 -1.06,-1.4395 -1.875,-1.9375 -0.803,-0.501 -1.5932,-0.89425 -2.4062,-1.1562 -0.803,-0.249 -1.639,-0.4315 -2.5,-0.5625 z M 66.607,-3e-4 0.013,83.5307 v 380.37 h 71.812 c -3.3324,-1.8818 -6.0344,-4.3431 -8.0938,-7.375 -4.188,-6.163 -5.5325,-14.1 -4.0625,-23.812 2.969,-19.729 14.153,-28.107 33.594,-25.187 l 7.4687,1.125 c 9.27,1.396 15.621,2.4492 19.062,3.1562 l -5.375,35.594 14.375,2.1562 c 0.459,0.067 1.2127,0.193 2.2187,0.375 1.022,0.186 1.828,0.298 2.375,0.375 1.64,0.256 3.0378,0.3995 4.2188,0.4375 1.177,0.03 2.4075,-0.0297 3.6875,-0.21875 1.247,-0.185 2.261,-0.64725 3,-1.4062 0.75,-0.75 1.2142,-1.7422 1.4062,-3.0312 0.198,-1.318 -0.0842,-2.4855 -0.90625,-3.4375 -0.806,-0.969 -2.0612,-1.7278 -3.7812,-2.3438 -1.688,-0.608 -3.2398,-1.0547 -4.5938,-1.3437 -1.359,-0.306 -3.0568,-0.60725 -5.0938,-0.90625 -4.04,-0.616 -6.2187,-0.922 -6.5937,-0.875 l 3.6562,-24.375 5.8125,0.875 c 5.702,0.854 10.498,2.037 14.375,3.5 3.884,1.478 7.2782,3.5772 10.156,6.2812 2.885,2.682 4.8325,6.1852 5.8125,10.531 0.984,4.341 0.9935,9.6182 0.0625,15.781 -0.553,3.657 -1.439,6.896 -2.625,9.75 -0.69216,1.6341 -1.4311,3.0741 -2.2188,4.375 h 174.41 v -217.09 c -10.96,35.653 -22.957,57.853 -27.125,65 l 15.437,10.219 0.4375,2.5938 -11.562,-7.6875 -2.7812,4.1562 15.5,10.281 0.84375,5 -18.375,-12.219 -2.7812,4.1875 22.281,14.812 0.84375,5 -25.156,-16.75 -2.7812,4.1875 29.094,19.344 v 0.0312 l -61.281,92.594 -12.375,-8.1875 22.375,-33.937 -18.437,-12.188 26.375,-40 -17.812,-11.781 -26.375,39.969 -19.875,-13.125 -22.375,33.937 -12.875,-8.5312 61.312,-92.594 0.125,-0.0312 31.125,20.687 2.7812,-4.1562 -27.812,-18.5 4.5,-1.4688 25.344,16.875 2.7812,-4.1562 -22.062,-14.656 4.5,-1.4688 19.594,13.031 2.7812,-4.1562 -16.312,-10.844 2.3125,-0.75 19.844,13.125 c 5.8198,-9.9707 26.434,-48.625 37.969,-113.16 V 83.524 l -78.094,-83.531 h -24.969 l -3.6562,24.219 -10.687,-1.5937 c 2.874,1.268 5.359,3.5722 7.375,6.9062 2.02,3.333 2.769,6.7252 2.25,10.156 -0.365,2.463 -0.94025,4.5932 -1.6562,6.4062 -0.705,1.803 -1.8568,3.5437 -3.4688,5.2187 -1.593,1.665 -3.608,2.9345 -6,3.8125 -2.401,0.881 -5.5157,1.3957 -9.3437,1.5937 -3.833,0.183 -8.2867,-0.0838 -13.344,-0.84375 -9.08,-1.369 -15.692,-3.741 -19.844,-7.125 -3.574,-2.92 -6.295,-7.475 -8.125,-13.625 -0.932,-3.128 -2.3392,-10.009 -4.2812,-20.656 -0.057,-0.003 -0.12175,-0.0113 -0.21875,-0.0312 -1.463,-0.219 -2.6585,-0.385 -3.5625,-0.5 -0.923,-0.121 -1.9548,-0.25525 -3.0938,-0.40625 -1.155,-0.145 -2.062,-0.2545 -2.75,-0.3125 -0.685,-0.05 -1.4522,-0.095 -2.2812,-0.125 -0.841,-0.04 -1.4835,-0.04 -1.9375,0 -0.446,0.05 -0.938,0.15625 -1.5,0.28125 -0.552,0.118 -0.9955,0.294 -1.3125,0.5 -0.31799,0.215 -0.59699,0.467 -0.87499,0.75 -0.271,0.286 -0.49225,0.6485 -0.65625,1.0625 -0.148,0.424 -0.26475,0.874 -0.34375,1.375 -0.496,3.384 1.1128,5.3685 4.8437,5.9375 l 6.9062,1.0312 -3.5938,23.812 c -0.774,-0.078 -1.8768,-0.2195 -3.3438,-0.4375 -9.768,-1.467 -16.561,-4.8655 -20.406,-10.187 -3.84,-5.318 -4.9405,-13.391 -3.3125,-24.25 0.539,-3.512 1.537,-6.864 3,-10 0.48408,-1.0263 1.0164,-2.0076 1.5938,-2.9687 z m 187.47,399.65 -17.822,-11.776 4.141,-6.271 17.815,11.777 z"
         color="#000000"
         enable-background="accumulate"
         fill="#ea5b0c"
         font-family="Sans"
         style="line-height:normal;text-indent:0;text-decoration-line:none;text-transform:none"
         id="path206" /></clipPath><clipPath
       id="clipPath5994"><path
         d="m 250.94,437.53 3.2188,2.125 -1.7812,2.6875 -3.2188,-2.125 z m -6.5312,-4.2812 2.375,1.5625 -1.7812,2.6875 -2.375,-1.5625 z m -159.37,-1.6875 c -4.2614,0.0565 -6.5905,1.447 -7,4.1875 -0.197,1.266 -0.0652,2.416 0.46875,3.375 0.545,0.97299 1.4557,1.7527 2.7187,2.3437 1.273,0.619 2.5777,1.1198 3.9687,1.4688 1.36,0.347 3.0355,0.66575 5.0625,0.96875 0.942,0.151 2.3905,0.3235 4.3125,0.5625 1.916,0.249 3.3575,0.44275 4.3125,0.59375 l 1.75,-11.5 -10.687,-1.5938 c -1.8472,-0.2775 -3.4858,-0.42509 -4.9062,-0.40625 z m 152.84,-2.625 2.3438,1.5625 -1.7812,2.6875 -2.375,-1.5625 z m -6.5312,-4.3125 2.3438,1.5625 -1.7812,2.6875 -2.375,-1.5625 z m -6.5625,-4.3125 2.3437,1.5625 -1.7812,2.6875 -2.3438,-1.5625 z m -6.5312,-4.3125 2.375,1.5625 -1.8125,2.6875 -2.375,-1.5625 z m -6.5625,-4.3125 2.375,1.5625 -1.7812,2.6875 -2.375,-1.5625 z m -6.5312,-4.3125 2.375,1.5625 -1.7812,2.6875 -2.375,-1.5625 z m -7.2187,-4.75 3.0625,2 -1.7812,2.6875 -3.0625,-2 z m -106.56,-66.219 c 0.6647,-0.0175 1.3335,-0.0198 2.0312,0 1.8607,0.0528 3.8387,0.24525 5.9375,0.5625 l 79.187,11.906 -3.625,24.187 -76.687,-11.562 c -2.145,-0.316 -4.095,-0.14725 -5.875,0.46875 -1.785,0.612 -2.8027,1.8672 -3.0937,3.7812 -0.18,1.174 0.0145,2.2655 0.5625,3.1875 0.525,0.915 1.1837,1.6422 1.9687,2.1562 0.785,0.514 1.8485,0.97225 3.1875,1.4062 1.327,0.438 2.3567,0.71275 3.0937,0.84375 0.727,0.135 1.6537,0.28275 2.8438,0.46875 l 72.25,10.875 -3.7187,24.5 -102.72,-15.469 3.6875,-24.5 11.75,1.7812 c -4.281,-1.661 -7.2475,-4.0185 -8.9375,-7.0625 -1.686,-3.024 -2.2392,-6.493 -1.6562,-10.375 0.972,-6.425 3.7335,-11.108 8.3125,-14.062 2.9945,-1.9405 6.8471,-2.9715 11.5,-3.0938 z m -5.4375,-42.969 18.687,2.8125 -0.65625,4.375 57.781,8.6875 c 0.859,0.13499 1.5585,0.21299 2.0625,0.24999 0.514,0.033 1.03,0.0267 1.625,-0.0312 0.591,-0.047 1.08,-0.24374 1.375,-0.59374 0.32,-0.347 0.49475,-0.82425 0.59375,-1.4062 0.086,-0.588 0.097,-1.1905 0,-1.8125 l 16.687,2.5 c 0.668,3.646 0.62575,8.0957 -0.15625,13.344 -0.402,2.644 -1.1048,4.8632 -2.0938,6.6562 -1.006,1.776 -2.0982,3.1362 -3.2812,4.0312 -1.188,0.885 -2.6298,1.5252 -4.3438,1.9062 -1.721,0.363 -3.306,0.50875 -4.75,0.46875 -1.44,-0.058 -3.063,-0.225 -4.875,-0.5 l -64.219,-9.6875 -0.5625,3.7812 -18.687,-2.8125 0.5625,-3.7812 -21.844,-3.2812 3.5937,-23.812 21.844,3.2812 0.65625,-4.375 z m 17.406,-65.031 c 1.2086,-0.0406 2.4808,0.0522 3.8125,0.25 l 34.375,5.1875 -3.5938,23.937 -24.594,-3.6875 c -1.228,-0.195 -2.26,-0.2945 -3.125,-0.3125 -0.861,-0.014 -1.7308,0.249 -2.5938,0.75 -0.868,0.494 -1.3925,1.3318 -1.5625,2.4688 -0.178,1.184 0.19275,2.311 1.0938,3.375 0.92,1.08 2.2778,1.7592 4.0938,2.0312 l 78.531,11.812 -3.6875,24.5 -102.69,-15.469 3.7187,-24.5 11.406,1.7188 c -4.493,-2.082 -7.4717,-4.4768 -8.9687,-7.2188 -1.495,-2.752 -1.9772,-6.0405 -1.4062,-9.8125 0.687,-4.571 2.686,-8.3622 6,-11.406 2.4982,-2.2912 5.5617,-3.5033 9.1875,-3.625 z m 18.812,-40.906 c -4.0341,-0.007 -6.2763,1.5772 -6.75,4.6875 -0.577,3.83 2.1227,6.1957 8.0937,7.0937 l 50.187,7.5312 c 2.738,0.41 4.8008,0.2045 6.2188,-0.6875 1.412,-0.885 2.253,-2.179 2.5,-3.875 0.258,-1.689 -0.168,-3.1482 -1.25,-4.4062 -1.098,-1.258 -3.008,-2.086 -5.75,-2.5 l -50.156,-7.5625 c -1.1207,-0.16781 -2.1628,-0.27974 -3.0938,-0.28125 z m 3.6875,-24.687 c 2.2508,-0.0113 4.6087,0.1915 7.0625,0.56249 l 41.219,6.1875 c 10.731,1.618 18.314,5.4508 22.812,11.469 4.52,6.025 6.0372,14.056 4.5312,24.094 -3.083,20.447 -15.303,29.063 -36.625,25.844 l -41.187,-6.1875 c -9.813,-1.486 -17.179,-5.406 -22.094,-11.75 -4.937,-6.332 -6.678,-14.25 -5.25,-23.75 1.44,-9.537 5.4522,-16.61 12.031,-21.219 4.9245,-3.459 10.748,-5.216 17.5,-5.25 z m 6.3125,-46.125 c -0.42088,0.0113 -0.79125,0.0525 -1.0938,0.125 -0.609,0.142 -1.3035,0.37025 -2.0625,0.65625 -0.771,0.282 -1.3482,0.7105 -1.7812,1.3125 -0.403,0.619 -0.70075,1.3975 -0.84375,2.3125 -0.574,3.829 2.6955,6.2678 9.8125,7.3438 l 45,6.7812 c 3.686,0.562 6.4915,0.52415 8.4375,-0.0937 1.936,-0.609 3.0832,-2.0102 3.4062,-4.1562 0.291,-1.911 -0.4525,-3.4 -2.1875,-4.5 -1.725,-1.107 -4.7315,-1.9972 -9.0625,-2.6562 l -43.594,-6.5626 c -1.07,-0.148 -1.8202,-0.23725 -2.2812,-0.28125 -0.466,-0.05 -1.2305,-0.13175 -2.3125,-0.21875 -0.545,-0.0505 -1.0166,-0.0738 -1.4375,-0.0625 z m 127.66,-22 5.7188,0.78125 -0.6875,4.75 -5.6875,-0.8125 z m -21.406,-3.0312 5.7187,0.8125 -0.6875,4.75 -5.6875,-0.8125 z m -106.16,-0.0937 c 2.92,0.047 6.1322,0.31275 9.6562,0.84375 l 37.594,5.6562 c 0.09,0.01 0.19475,0.0395 0.34375,0.0625 3.271,0.505 5.7747,0.8845 7.4687,1.1875 1.711,0.313 4.0708,0.8255 7.0938,1.5625 3.009,0.727 5.3305,1.4932 6.9375,2.2812 1.603,0.767 3.46,1.8682 5.5,3.2812 2.059,1.402 3.5245,2.937 4.4375,4.625 0.908,1.706 1.5988,3.8407 2.0937,6.3437 0.478,2.496 0.49235,5.2575 0.0312,8.3125 -0.93599,6.173 -3.384,10.585 -7.375,13.25 l 16.75,2.5 -3.75,24.937 -115.41,-17.375 3.75,-24.937 5.5625,0.84375 c -3.964,-4.376 -5.4925,-9.5968 -4.5625,-15.719 0.488,-3.291 1.445,-6.128 2.875,-8.5 1.438,-2.361 3.1685,-4.2252 5.1875,-5.5312 2.008,-1.309 4.4308,-2.2687 7.2188,-2.8437 2.801,-0.582 5.6598,-0.82925 8.5937,-0.78125 z m 99.125,-16.25 c -0.13013,0.0207 -0.265,0.063 -0.375,0.125 -0.225,0.129 -0.39325,0.329 -0.53125,0.625 -0.142,0.293 -0.26775,0.58425 -0.34375,0.90625 -0.076,0.317 -0.15475,0.7225 -0.21875,1.1875 -0.032,0.225 -0.07,0.552 -0.125,1 -0.053,0.442 -0.092,0.775 -0.125,1 l 2.6875,0.40625 0.34375,-2.5 c 0.243,-1.719 -0.0583,-2.632 -0.90625,-2.75 -0.1505,-0.023 -0.27612,-0.0208 -0.40625,0 z m 16.219,-3.375 5.6562,0.8125 -0.8125,17.031 4.0625,-16.594 5.625,0.8125 -7,24.875 -7.6562,-1.0937 z m -16.75,-1.0312 c 0.51252,-0.002 1.0288,0.0467 1.5938,0.125 4.581,0.649 6.5775,3.231 5.9375,7.75 l -0.25,1.75 c -0.306,2.153 -0.5325,3.6072 -0.6875,4.4062 l -8.2812,-1.1562 -0.46875,3.3437 c -0.016,0.102 -0.0519,0.29325 -0.0937,0.53125 -0.038,0.24 -0.0425,0.40225 -0.0625,0.53125 -0.055,0.379 -0.0858,0.722 -0.0937,1 -0.003,0.272 0.0155,0.54375 0.0625,0.84375 0.044,0.289 0.1385,0.5185 0.3125,0.6875 0.176,0.168 0.41975,0.2695 0.71875,0.3125 0.307,0.042 0.56125,-0.0288 0.78125,-0.21875 0.223,-0.189 0.4215,-0.477 0.5625,-0.875 0.136,-0.397 0.2445,-0.7445 0.3125,-1.0625 0.064,-0.315 0.1165,-0.7125 0.1875,-1.1875 0.13,-0.933 0.1975,-1.4392 0.1875,-1.5312 l 5.6562,0.78125 -0.1875,1.375 c -0.186,1.328 -0.45425,2.4407 -0.78125,3.3437 -0.335,0.905 -0.8165,1.7 -1.4375,2.375 -0.617,0.678 -1.4335,1.1078 -2.4375,1.3438 -1.013,0.236 -2.2262,0.2605 -3.6562,0.0625 -0.85,-0.121 -1.6192,-0.32175 -2.2812,-0.59375 -0.667,-0.273 -1.187,-0.55625 -1.625,-0.90625 -0.432,-0.348 -0.80975,-0.774 -1.0938,-1.25 -0.284,-0.479 -0.488,-0.9665 -0.625,-1.4375 -0.144,-0.474 -0.24025,-1.0057 -0.28125,-1.5937 -0.042,-0.588 -0.031,-1.129 0,-1.625 0.031,-0.493 0.0722,-1.031 0.15625,-1.625 l 1.375,-9.5937 c 0.311,-2.198 1.1708,-3.7982 2.5938,-4.7812 1.0657,-0.74025 2.3687,-1.118 3.9062,-1.125 z m -112.87,-17.531 102.75,15.5 -3.6875,24.5 -102.75,-15.469 z m -18.344,-2.75 12.031,1.8125 -3.6875,24.5 -12.031,-1.8125 z m 74.781,-33.969 c 1.046,4.447 2.593,7.575 4.625,9.375 2.041,1.799 4.6068,2.9392 7.7187,3.4062 l 11.969,1.8125 c 6.079,0.918 9.3925,-0.471 9.9375,-4.125 0.149,-1 -0.01,-1.9157 -0.4375,-2.7187 -0.44,-0.817 -1.06,-1.4395 -1.875,-1.9375 -0.803,-0.501 -1.5932,-0.89425 -2.4062,-1.1562 -0.803,-0.249 -1.639,-0.4315 -2.5,-0.5625 z M 66.607,-3e-4 0.013,83.5307 v 380.37 h 71.812 c -3.3324,-1.8818 -6.0344,-4.3431 -8.0938,-7.375 -4.188,-6.163 -5.5325,-14.1 -4.0625,-23.812 2.969,-19.729 14.153,-28.107 33.594,-25.187 l 7.4687,1.125 c 9.27,1.396 15.621,2.4492 19.062,3.1562 l -5.375,35.594 14.375,2.1562 c 0.459,0.067 1.2127,0.193 2.2187,0.375 1.022,0.186 1.828,0.298 2.375,0.375 1.64,0.256 3.0378,0.3995 4.2188,0.4375 1.177,0.03 2.4075,-0.0297 3.6875,-0.21875 1.247,-0.185 2.261,-0.64725 3,-1.4062 0.75,-0.75 1.2142,-1.7422 1.4062,-3.0312 0.198,-1.318 -0.0842,-2.4855 -0.90625,-3.4375 -0.806,-0.969 -2.0612,-1.7278 -3.7812,-2.3438 -1.688,-0.608 -3.2398,-1.0547 -4.5938,-1.3437 -1.359,-0.306 -3.0568,-0.60725 -5.0938,-0.90625 -4.04,-0.616 -6.2187,-0.922 -6.5937,-0.875 l 3.6562,-24.375 5.8125,0.875 c 5.702,0.854 10.498,2.037 14.375,3.5 3.884,1.478 7.2782,3.5772 10.156,6.2812 2.885,2.682 4.8325,6.1852 5.8125,10.531 0.984,4.341 0.9935,9.6182 0.0625,15.781 -0.553,3.657 -1.439,6.896 -2.625,9.75 -0.69216,1.6341 -1.4311,3.0741 -2.2188,4.375 h 174.41 v -217.09 c -10.96,35.653 -22.957,57.853 -27.125,65 l 15.437,10.219 0.4375,2.5938 -11.562,-7.6875 -2.7812,4.1562 15.5,10.281 0.84375,5 -18.375,-12.219 -2.7812,4.1875 22.281,14.812 0.84375,5 -25.156,-16.75 -2.7812,4.1875 29.094,19.344 v 0.0312 l -61.281,92.594 -12.375,-8.1875 22.375,-33.937 -18.437,-12.188 26.375,-40 -17.812,-11.781 -26.375,39.969 -19.875,-13.125 -22.375,33.937 -12.875,-8.5312 61.312,-92.594 0.125,-0.0312 31.125,20.687 2.7812,-4.1562 -27.812,-18.5 4.5,-1.4688 25.344,16.875 2.7812,-4.1562 -22.062,-14.656 4.5,-1.4688 19.594,13.031 2.7812,-4.1562 -16.312,-10.844 2.3125,-0.75 19.844,13.125 c 5.8198,-9.9707 26.434,-48.625 37.969,-113.16 V 83.524 l -78.094,-83.531 h -24.969 l -3.6562,24.219 -10.687,-1.5937 c 2.874,1.268 5.359,3.5722 7.375,6.9062 2.02,3.333 2.769,6.7252 2.25,10.156 -0.365,2.463 -0.94025,4.5932 -1.6562,6.4062 -0.705,1.803 -1.8568,3.5437 -3.4688,5.2187 -1.593,1.665 -3.608,2.9345 -6,3.8125 -2.401,0.881 -5.5157,1.3957 -9.3437,1.5937 -3.833,0.183 -8.2867,-0.0838 -13.344,-0.84375 -9.08,-1.369 -15.692,-3.741 -19.844,-7.125 -3.574,-2.92 -6.295,-7.475 -8.125,-13.625 -0.932,-3.128 -2.3392,-10.009 -4.2812,-20.656 -0.057,-0.003 -0.12175,-0.0113 -0.21875,-0.0312 -1.463,-0.219 -2.6585,-0.385 -3.5625,-0.5 -0.923,-0.121 -1.9548,-0.25525 -3.0938,-0.40625 -1.155,-0.145 -2.062,-0.2545 -2.75,-0.3125 -0.685,-0.05 -1.4522,-0.095 -2.2812,-0.125 -0.841,-0.04 -1.4835,-0.04 -1.9375,0 -0.446,0.05 -0.938,0.15625 -1.5,0.28125 -0.552,0.118 -0.9955,0.294 -1.3125,0.5 -0.31799,0.215 -0.59699,0.467 -0.87499,0.75 -0.271,0.286 -0.49225,0.6485 -0.65625,1.0625 -0.148,0.424 -0.26475,0.874 -0.34375,1.375 -0.496,3.384 1.1128,5.3685 4.8437,5.9375 l 6.9062,1.0312 -3.5938,23.812 c -0.774,-0.078 -1.8768,-0.2195 -3.3438,-0.4375 -9.768,-1.467 -16.561,-4.8655 -20.406,-10.187 -3.84,-5.318 -4.9405,-13.391 -3.3125,-24.25 0.539,-3.512 1.537,-6.864 3,-10 0.48408,-1.0263 1.0164,-2.0076 1.5938,-2.9687 z m 187.47,399.65 -17.822,-11.776 4.141,-6.271 17.815,11.777 z"
         color="#000000"
         enable-background="accumulate"
         fill="#ea5b0c"
         font-family="Sans"
         style="line-height:normal;text-indent:0;text-decoration-line:none;text-transform:none"
         id="path209" /></clipPath></defs><style
     id="autoconsent-prehide" /><g
     id="g227"><g
       id="g225"><rect
         width="66.831001"
         height="463.91"
         clip-path="url(#clipPath5994)"
         fill="#d62900"
         id="rect215"
         x="0"
         y="0" /><rect
         x="66.831001"
         width="66.831001"
         height="463.91"
         clip-path="url(#clipPath5990)"
         fill="#ff9b55"
         id="rect217"
         y="0" /><rect
         x="133.66"
         width="66.831001"
         height="463.91"
         clip-path="url(#clipPath5986)"
         fill="#fff"
         id="rect219"
         style="fill:#ffffff"
         y="0" /><rect
         x="200.49001"
         width="66.849998"
         height="463.91"
         clip-path="url(#clipPath5982)"
         fill="#d461a6"
         id="rect221"
         y="0" /><rect
         x="267.32001"
         width="66.849998"
         height="463.91"
         clip-path="url(#clipPath5978)"
         fill="#a50062"
         id="rect223"
         y="0" /></g></g></svg>
