<?xml version="1.0" encoding="UTF-8" standalone="no"?>
<!-- Created with Inkscape (http://www.inkscape.org/) -->

<svg
   xmlns:dc="http://purl.org/dc/elements/1.1/"
   xmlns:cc="http://creativecommons.org/ns#"
   xmlns:rdf="http://www.w3.org/1999/02/22-rdf-syntax-ns#"
   xmlns:svg="http://www.w3.org/2000/svg"
   xmlns="http://www.w3.org/2000/svg"
   xmlns:sodipodi="http://sodipodi.sourceforge.net/DTD/sodipodi-0.dtd"
   xmlns:inkscape="http://www.inkscape.org/namespaces/inkscape"
   width="59mm"
   height="36mm"
   viewBox="0 0 209.05512 127.55905"
   id="svg2"
   version="1.1"
   inkscape:version="0.91 r13725"
   sodipodi:docname="schwachkopf.svg"
   style="enable-background:new">
  <defs
     id="defs4" />
  <sodipodi:namedview
     id="base"
     pagecolor="#ffffff"
     bordercolor="#666666"
     borderopacity="1.0"
     inkscape:pageopacity="0"
     inkscape:pageshadow="2"
     inkscape:zoom="1.8101934"
     inkscape:cx="-42.519805"
     inkscape:cy="114.37577"
     inkscape:document-units="mm"
     inkscape:current-layer="layer1"
     showgrid="false"
     inkscape:window-width="1920"
     inkscape:window-height="1021"
     inkscape:window-x="0"
     inkscape:window-y="27"
     inkscape:window-maximized="1"
     inkscape:snap-bbox="true"
     inkscape:bbox-paths="true"
     inkscape:bbox-nodes="true"
     inkscape:snap-bbox-edge-midpoints="true"
     inkscape:snap-bbox-midpoints="true"
     inkscape:object-paths="true"
     inkscape:snap-intersection-paths="true"
     inkscape:object-nodes="true"
     inkscape:snap-smooth-nodes="true"
     inkscape:snap-page="true"
     inkscape:snap-text-baseline="true"
     inkscape:snap-global="false">
    <inkscape:grid
       type="xygrid"
       id="grid4906" />
  </sodipodi:namedview>
  <metadata
     id="metadata7">
    <rdf:RDF>
      <cc:Work
         rdf:about="">
        <dc:format>image/svg+xml</dc:format>
        <dc:type
           rdf:resource="http://purl.org/dc/dcmitype/StillImage" />
        <dc:title></dc:title>
      </cc:Work>
    </rdf:RDF>
  </metadata>
  <g
     inkscape:groupmode="layer"
     id="layer2"
     inkscape:label="background"
     transform="translate(0,-81.496063)"
     style="display:inline;opacity:0.56199999"
     sodipodi:insensitive="true">
    <rect
       style="fill:#ffffff;fill-opacity:1;stroke:none"
       id="rect4099"
       width="209.05511"
       height="127.55904"
       x="0"
       y="81.496063"
       ry="0" />
  </g>
  <g
     inkscape:groupmode="layer"
     id="layer1"
     inkscape:label="schwachkopf"
     sodipodi:insensitive="true">
    <g
       style="font-style:normal;font-weight:normal;font-size:34.76666641px;line-height:125%;font-family:sans-serif;letter-spacing:0px;word-spacing:0px;fill:#000000;fill-opacity:1;stroke:none;stroke-width:0.29055119;stroke-linecap:butt;stroke-linejoin:miter;stroke-miterlimit:4;stroke-dasharray:none;stroke-opacity:1"
       id="text3349"
       transform="translate(2.0551181e-6,0)">
      <path
         d="m 23.253783,91.493694 c 0,-1.216833 -0.334629,-2.433666 -0.943046,-3.315871 -0.577996,-0.851783 -0.943046,-1.216833 -2.889979,-2.464087 l -3.376713,-2.1903 c -1.399358,-0.912625 -2.677033,-1.794829 -2.677033,-3.620079 0,-2.677034 2.55535,-3.102925 4.654387,-3.102925 0.638838,0 0.943046,0.03042 1.886092,0.121683 l 1.521042,3.833025 1.186412,0 0,-4.532704 c -0.882204,-0.182525 -1.368937,-0.273788 -2.342404,-0.486734 -1.4602,-0.304208 -2.677033,-0.36505 -3.498396,-0.36505 -3.6505,0 -6.114587,2.251142 -6.114587,5.597434 0,1.034308 0.212946,2.038196 0.7301,2.859558 0.577996,0.943046 1.186412,1.429779 2.829137,2.524929 l 3.102925,2.068617 c 1.490621,1.003888 2.768296,1.703567 2.768296,3.863446 0,1.09515 -0.456312,2.038196 -1.308096,2.646612 -0.760521,0.547575 -1.642725,0.760521 -3.224608,0.760521 -0.882204,0 -1.581883,-0.09126 -2.342404,-0.182525 l -1.551463,-3.924287 -1.155991,0 0,4.684808 c 0.882204,0.243367 1.155991,0.334629 2.099037,0.547575 1.399358,0.304208 2.859558,0.456313 3.833025,0.456313 2.038196,0 3.711342,-0.547575 4.897754,-1.521042 1.216834,-1.003888 1.916513,-2.464088 1.916513,-4.258917 z"
         style="font-style:normal;font-variant:normal;font-weight:normal;font-stretch:normal;font-size:30.42083359px;font-family:Swift;-inkscape-font-specification:Swift;stroke:#000000;stroke-width:0.29055119;stroke-linecap:round;stroke-linejoin:round;stroke-miterlimit:4;stroke-dasharray:none"
         id="path4206"
         inkscape:connector-curvature="0" />
      <path
         d="m 38.625335,96.026398 -0.212946,-1.003887 c -2.007775,0.36505 -2.403246,0.395471 -3.498396,0.395471 -1.977354,0 -3.315871,-0.547575 -4.3806,-1.764409 -1.003887,-1.155991 -1.521041,-2.798716 -1.521041,-4.715229 0,-3.559237 2.403245,-6.388375 5.50617,-6.388375 0.121684,0 0.36505,0 0.669259,0.03042 l 1.399358,2.829138 1.916513,0 0,-3.25503 c -1.4602,-0.486733 -2.737875,-0.699679 -3.924288,-0.699679 -5.1107,0 -8.578675,3.376713 -8.578675,8.274467 0,4.441442 2.768296,7.544367 6.844688,7.544367 1.064729,0 2.251141,-0.182525 3.833025,-0.638838 0.273787,-0.06084 1.946933,-0.608417 1.946933,-0.608417 z"
         style="font-style:normal;font-variant:normal;font-weight:normal;font-stretch:normal;font-size:30.42083359px;font-family:Swift;-inkscape-font-specification:Swift;stroke:#000000;stroke-width:0.29055119;stroke-linecap:round;stroke-linejoin:round;stroke-miterlimit:4;stroke-dasharray:none"
         id="path4208"
         inkscape:connector-curvature="0" />
      <path
         d="m 58.204469,96.969444 0,-0.790941 -2.677033,-1.125571 0,-8.548254 c 0,-1.764409 -0.273788,-2.798717 -1.125571,-3.680921 -0.821363,-0.882205 -1.916513,-1.368938 -3.224609,-1.368938 -1.308096,0 -1.612304,0.152104 -3.315871,0.790942 -0.638837,0.243366 -1.308095,0.517154 -2.007775,0.790941 l 0,-8.487412 -5.719116,1.277675 0,0.699679 2.859558,0.821363 0,17.704925 -2.677033,1.125571 0,0.790941 7.909416,0 0,-0.790941 -2.372825,-1.125571 0,-11.255709 c 0.851784,-0.121683 1.886092,-0.182525 2.768296,-0.182525 1.216834,0 2.129459,0.182525 2.768296,0.577996 0.882204,0.517154 1.277675,1.4602 1.277675,2.889979 l 0,7.970259 -2.524929,1.125571 0,0.790941 8.061521,0 z"
         style="font-style:normal;font-variant:normal;font-weight:normal;font-stretch:normal;font-size:30.42083359px;font-family:Swift;-inkscape-font-specification:Swift;stroke:#000000;stroke-width:0.29055119;stroke-linecap:round;stroke-linejoin:round;stroke-miterlimit:4;stroke-dasharray:none"
         id="path4210"
         inkscape:connector-curvature="0" />
      <path
         d="m 82.940885,82.549969 0,-0.790942 -6.357955,0 0,0.790942 2.372825,1.034308 -3.407133,9.795509 c -0.36505,-1.368938 -0.36505,-1.338517 -0.608417,-2.007775 l -3.346291,-9.612984 -0.943046,0 -4.350179,11.620759 C 66.087743,92.588844 65.874797,91.889165 65.63143,91.159065 l -2.707454,-7.726892 2.433667,-0.882204 0,-0.790942 -7.453104,0 0,0.790942 2.007775,0.882204 5.171541,13.84148 1.399359,0 3.985129,-10.677713 3.620079,10.677713 1.4602,0 5.506171,-13.689376 1.886092,-1.034308 z"
         style="font-style:normal;font-variant:normal;font-weight:normal;font-stretch:normal;font-size:30.42083359px;font-family:Swift;-inkscape-font-specification:Swift;stroke:#000000;stroke-width:0.29055119;stroke-linecap:round;stroke-linejoin:round;stroke-miterlimit:4;stroke-dasharray:none"
         id="path4212"
         inkscape:connector-curvature="0" />
      <path
         d="m 97.689764,96.148082 0,-0.669259 -1.794829,-0.517154 c -0.547575,-0.152104 -0.699679,-0.243366 -0.821362,-0.456312 -0.06084,-0.121684 -0.09126,-0.486734 -0.09126,-0.7301 l 0,-8.578675 c 0,-1.4602 -0.334629,-2.251142 -1.277675,-2.88998 -0.821362,-0.577995 -1.916512,-0.851783 -3.28545,-0.851783 -1.034308,0 -2.159879,0.212946 -3.498396,0.547575 -0.638837,0.152104 -1.247254,0.304208 -2.068616,0.517154 l 0,2.88998 1.886091,0 1.338517,-2.646613 c 0.36505,-0.03042 0.547575,-0.03042 0.882204,-0.03042 0.7301,0 1.399359,0.09126 1.82525,0.243367 1.034309,0.36505 1.338517,0.882204 1.338517,2.342404 l 0,3.589658 c -0.304208,0.03042 -0.608417,0.06084 -0.912625,0.09126 -1.764408,0.152104 -3.346292,0.36505 -4.441442,0.608417 -2.1903,0.517154 -3.346292,1.764408 -3.346292,3.6505 0,2.281562 1.79483,3.863445 4.319759,3.863445 1.308096,0 1.82525,-0.273787 3.011662,-0.821362 1.399359,-0.638838 1.06473,-0.486733 1.4602,-0.699679 0.182525,1.034308 0.7301,1.521041 1.703567,1.521041 0.36505,0 1.125571,-0.09126 1.4602,-0.212945 l 2.311983,-0.760521 z m -5.567012,-1.186413 -0.182525,0.06084 c -0.760521,0.243367 -1.521042,0.36505 -2.311983,0.36505 -1.855671,0 -3.042084,-1.003888 -3.042084,-2.55535 0,-1.308096 0.669259,-2.038196 2.1903,-2.433667 1.155992,-0.273787 2.1903,-0.456312 3.346292,-0.608416 l 0,5.171541 z"
         style="font-style:normal;font-variant:normal;font-weight:normal;font-stretch:normal;font-size:30.42083359px;font-family:Swift;-inkscape-font-specification:Swift;stroke:#000000;stroke-width:0.29055119;stroke-linecap:round;stroke-linejoin:round;stroke-miterlimit:4;stroke-dasharray:none"
         id="path4214"
         inkscape:connector-curvature="0" />
      <path
         d="m 111.70664,96.026398 -0.21295,-1.003887 c -2.00778,0.36505 -2.40325,0.395471 -3.4984,0.395471 -1.97735,0 -3.31587,-0.547575 -4.3806,-1.764409 -1.00388,-1.155991 -1.52104,-2.798716 -1.52104,-4.715229 0,-3.559237 2.40325,-6.388375 5.50617,-6.388375 0.12169,0 0.36505,0 0.66926,0.03042 l 1.39936,2.829138 1.91651,0 0,-3.25503 c -1.4602,-0.486733 -2.73787,-0.699679 -3.92429,-0.699679 -5.1107,0 -8.57867,3.376713 -8.57867,8.274467 0,4.441442 2.7683,7.544367 6.84469,7.544367 1.06473,0 2.25114,-0.182525 3.83302,-0.638838 0.27379,-0.06084 1.94694,-0.608417 1.94694,-0.608417 z"
         style="font-style:normal;font-variant:normal;font-weight:normal;font-stretch:normal;font-size:30.42083359px;font-family:Swift;-inkscape-font-specification:Swift;stroke:#000000;stroke-width:0.29055119;stroke-linecap:round;stroke-linejoin:round;stroke-miterlimit:4;stroke-dasharray:none"
         id="path4216"
         inkscape:connector-curvature="0" />
      <path
         d="m 131.28577,96.969444 0,-0.790941 -2.67704,-1.125571 0,-8.548254 c 0,-1.764409 -0.27378,-2.798717 -1.12557,-3.680921 -0.82136,-0.882205 -1.91651,-1.368938 -3.2246,-1.368938 -1.3081,0 -1.61231,0.152104 -3.31588,0.790942 -0.63883,0.243366 -1.30809,0.517154 -2.00777,0.790941 l 0,-8.487412 -5.71912,1.277675 0,0.699679 2.85956,0.821363 0,17.704925 -2.67703,1.125571 0,0.790941 7.90941,0 0,-0.790941 -2.37282,-1.125571 0,-11.255709 c 0.85178,-0.121683 1.88609,-0.182525 2.7683,-0.182525 1.21683,0 2.12945,0.182525 2.76829,0.577996 0.88221,0.517154 1.27768,1.4602 1.27768,2.889979 l 0,7.970259 -2.52493,1.125571 0,0.790941 8.06152,0 z"
         style="font-style:normal;font-variant:normal;font-weight:normal;font-stretch:normal;font-size:30.42083359px;font-family:Swift;-inkscape-font-specification:Swift;stroke:#000000;stroke-width:0.29055119;stroke-linecap:round;stroke-linejoin:round;stroke-miterlimit:4;stroke-dasharray:none"
         id="path4218"
         inkscape:connector-curvature="0" />
      <path
         d="m 149.77878,96.969444 0,-0.790941 -2.37282,-0.943046 -5.93207,-7.483525 4.68481,-4.258917 3.13335,-1.003888 0,-0.7301 -7.45311,0 0,0.7301 2.12946,0.851784 -5.47575,5.354067 6.44922,8.274466 4.83691,0 z m -9.03499,0 0,-0.790941 -2.67703,-1.125571 0,-20.503642 -5.71912,1.277675 0,0.699679 2.85956,0.821363 0,17.704925 -2.70745,1.125571 0,0.790941 8.24404,0 z"
         style="font-style:normal;font-variant:normal;font-weight:normal;font-stretch:normal;font-size:30.42083359px;font-family:Swift;-inkscape-font-specification:Swift;stroke:#000000;stroke-width:0.29055119;stroke-linecap:round;stroke-linejoin:round;stroke-miterlimit:4;stroke-dasharray:none"
         id="path4220"
         inkscape:connector-curvature="0" />
      <path
         d="m 165.59001,89.212132 c 0,-4.350179 -2.67703,-7.757313 -7.20974,-7.757313 -4.86733,0 -7.66605,3.559238 -7.66605,8.274467 0,4.593546 2.95082,7.726892 7.24016,7.726892 4.59355,0 7.63563,-3.802605 7.63563,-8.244046 z m -3.16377,0.638837 c 0,2.707454 -0.82136,6.175429 -4.13723,6.175429 -3.55924,0 -4.41102,-3.863445 -4.41102,-6.723004 0,-4.106812 1.49062,-6.418796 4.13723,-6.418796 3.6505,0 4.41102,4.076392 4.41102,6.966371 z"
         style="font-style:normal;font-variant:normal;font-weight:normal;font-stretch:normal;font-size:30.42083359px;font-family:Swift;-inkscape-font-specification:Swift;stroke:#000000;stroke-width:0.29055119;stroke-linecap:round;stroke-linejoin:round;stroke-miterlimit:4;stroke-dasharray:none"
         id="path4222"
         inkscape:connector-curvature="0" />
      <path
         d="m 183.58679,88.664557 c 0,-3.985129 -2.55535,-7.209738 -5.93207,-7.209738 -0.57799,0 -1.39935,0.182525 -2.79871,0.790942 -1.09515,0.486733 -1.55146,0.7301 -2.06862,1.003887 l 0,-1.946933 -5.53659,1.247254 0,0.7301 2.67703,0.821363 0,18.039558 -2.67703,1.00388 0,0.79095 8.88288,0 0,-0.79095 -3.34629,-1.00388 0,-5.049862 c 0.63884,0.121683 1.15599,0.182525 2.00778,0.182525 5.1107,0 8.79162,-3.680921 8.79162,-8.609096 z m -3.01167,0.912625 c 0,2.311983 -0.91262,4.319758 -2.4945,5.384487 -0.91263,0.608417 -1.97736,0.882204 -3.4984,0.882204 -0.60842,0 -1.12557,-0.03042 -1.79483,-0.09126 l 0,-11.772863 c 0.7301,-0.273787 1.64273,-0.456312 2.64661,-0.456312 3.13335,0 5.14112,2.403246 5.14112,6.053746 z"
         style="font-style:normal;font-variant:normal;font-weight:normal;font-stretch:normal;font-size:30.42083359px;font-family:Swift;-inkscape-font-specification:Swift;stroke:#000000;stroke-width:0.29055119;stroke-linecap:round;stroke-linejoin:round;stroke-miterlimit:4;stroke-dasharray:none"
         id="path4224"
         inkscape:connector-curvature="0" />
      <path
         d="m 198.54766,77.652215 0,-2.737875 c -0.82136,-0.304208 -1.94693,-0.456313 -3.16376,-0.456313 -4.44144,0 -7.301,2.372825 -7.301,6.084167 l 0,1.216833 -2.67704,0 0,1.42978 2.67704,0 0,11.864125 -2.67704,1.125571 0,0.790941 8.88289,0 0,-0.790941 -3.34629,-1.125571 0,-11.864125 4.74565,0 0,-1.42978 -4.74565,0 0,-1.703566 c 0,-1.703567 0.42589,-2.829138 1.30809,-3.467975 0.7301,-0.547575 1.88609,-0.912625 2.88998,-0.912625 0.0913,0 0.24337,0 0.42589,0.03042 l 0.91263,1.946933 2.06861,0 z"
         style="font-style:normal;font-variant:normal;font-weight:normal;font-stretch:normal;font-size:30.42083359px;font-family:Swift;-inkscape-font-specification:Swift;stroke:#000000;stroke-width:0.29055119;stroke-linecap:round;stroke-linejoin:round;stroke-miterlimit:4;stroke-dasharray:none"
         id="path4226"
         inkscape:connector-curvature="0" />
    </g>
  </g>
  <g
     inkscape:groupmode="layer"
     id="layer4"
     inkscape:label="trump"
     transform="translate(0,-77.952756)"
     style="display:inline;opacity:1"
     sodipodi:insensitive="true">
    <path
       style="fill:#000000;fill-rule:evenodd;stroke:none;stroke-width:1px;stroke-linecap:butt;stroke-linejoin:miter;stroke-opacity:1"
       d="m 99.903099,149.57856 c 6.905331,-4.07415 13.439991,-5.59765 19.334951,-5.31711 3.13789,0.14933 3.2455,0.27621 4.21225,-0.20716 1.17391,-1.31202 -3.22147,-5.88656 -4.1432,-7.38872 3.03835,-0.62148 3.65983,-1.79539 3.65983,-1.79539 -3.71121,-6.62557 -3.79794,-14.70837 -3.79794,-14.70837 -1.24295,-10.42706 -9.39126,-11.94624 -9.39126,-11.94624 -16.503757,-2.62403 -23.340043,5.9386 -23.340043,5.9386 -2.209709,3.65982 3.176456,3.10739 3.176456,3.10739 -0.682932,1.16948 -2.412264,3.56776 -1.035801,3.867 0.897695,0.34526 -0.138106,2.0716 -0.138106,2.0716 -1.381068,0.89769 -2.900243,4.1432 -2.900243,4.1432 -0.828641,3.24552 2.485922,2.41687 2.485922,2.41687 -0.20716,1.10486 -0.897694,2.41687 -0.897694,2.41687 -0.345267,1.38107 0.483374,1.17391 0.483374,1.17391 -1.381068,1.51917 -0.241687,1.31202 -0.241687,1.31202 2.347815,0.27621 0.794114,1.70906 0.794114,1.70906 -1.519175,1.31202 0.345267,3.46994 1.519175,3.81521 5.109951,2.00255 10.219902,5.93859 10.219902,5.93859 0.621481,1.79539 0,3.45267 0,3.45267 z"
       id="path3829"
       inkscape:connector-curvature="0"
       sodipodi:nodetypes="cscccccccccccccccccc" />
  </g>
  <g
     inkscape:groupmode="layer"
     id="layer3"
     inkscape:label="bleeding - hide before export for printing!"
     transform="translate(0,-81.496063)"
     style="display:inline"
     sodipodi:insensitive="true">
    <rect
       style="fill:none;fill-opacity:1;stroke:#ff00ff;stroke-width:0.27710959;stroke-miterlimit:4;stroke-dasharray:none"
       id="rect4904"
       width="194.60478"
       height="113.10872"
       x="7.2251692"
       y="88.72123" />
  </g>
</svg>
