<?xml version="1.0" encoding="UTF-8" standalone="no"?>
<!-- Created with Inkscape (http://www.inkscape.org/) -->

<svg
   xmlns:dc="http://purl.org/dc/elements/1.1/"
   xmlns:cc="http://creativecommons.org/ns#"
   xmlns:rdf="http://www.w3.org/1999/02/22-rdf-syntax-ns#"
   xmlns:svg="http://www.w3.org/2000/svg"
   xmlns="http://www.w3.org/2000/svg"
   xmlns:sodipodi="http://sodipodi.sourceforge.net/DTD/sodipodi-0.dtd"
   xmlns:inkscape="http://www.inkscape.org/namespaces/inkscape"
   width="1191.0938"
   height="363.34375"
   id="svg1"
   sodipodi:version="0.32"
   inkscape:version="0.48.4 r9939"
   sodipodi:docname="plate-penta_comp.svg"
   version="1.1">
  <defs
     id="defs3" />
  <sodipodi:namedview
     id="base"
     pagecolor="#ffffff"
     bordercolor="#666666"
     borderopacity="1.0"
     inkscape:pageopacity="0.0"
     inkscape:pageshadow="2"
     inkscape:zoom="0.5"
     inkscape:cx="430.13707"
     inkscape:cy="-126.85177"
     inkscape:current-layer="svg1"
     showgrid="false"
     inkscape:grid-bbox="true"
     inkscape:grid-points="true"
     inkscape:guide-bbox="true"
     inkscape:guide-points="true"
     guidetolerance="2.0000000px"
     inkscape:window-width="1438"
     inkscape:window-height="884"
     inkscape:window-x="0"
     inkscape:window-y="14"
     inkscape:window-maximized="0"
     fit-margin-top="0"
     fit-margin-left="0"
     fit-margin-right="0"
     fit-margin-bottom="0">
    <inkscape:grid
       id="GridFromPre046Settings"
       type="xygrid"
       originx="-127.89388pt"
       originy="355.703pt"
       spacingx="1.0000000pt"
       spacingy="1.0000000pt"
       color="#3f3fff"
       empcolor="#3f3fff"
       opacity="0.15"
       empopacity="0.38"
       empspacing="5"
       units="pt"
       visible="true"
       enabled="true"
       snapvisiblegridlinesonly="true" />
  </sodipodi:namedview>
  <metadata
     id="metadata4">
    <rdf:RDF>
      <cc:Work
         rdf:about="">
        <dc:format>image/svg+xml</dc:format>
        <dc:type
           rdf:resource="http://purl.org/dc/dcmitype/StillImage" />
        <dc:title></dc:title>
      </cc:Work>
    </rdf:RDF>
  </metadata>
  <rect
     style="fill:#000000;fill-opacity:1;fill-rule:nonzero;stroke:#00000f;stroke-width:1.99999988;stroke-linecap:butt;stroke-linejoin:miter;stroke-miterlimit:4;stroke-opacity:0.94117647;stroke-dasharray:none"
     id="rect4580"
     width="1189.0991"
     height="361.33157"
     x="1.0025005"
     y="1.0135458" />
  <path
     style="fill:#000000;fill-opacity:1;fill-rule:nonzero;stroke:#ff6600;stroke-width:8.90000057;stroke-linecap:butt;stroke-linejoin:miter;stroke-miterlimit:4;stroke-opacity:1;stroke-dasharray:none"
     inkscape:transform-center-x="0.10504909"
     inkscape:transform-center-y="3.8795083"
     d="m 301.4631,226.15347 -80.59464,-0.49429 -25.37523,76.49594 64.9119,47.77137 65.49298,-46.97159 z"
     id="path4027-9-0-8-2"
     inkscape:connector-curvature="0"
     sodipodi:nodetypes="cccccc" />
  <path
     id="path2451"
     d="m 250.15919,314.87628 c -0.84886,-0.84989 -1.15884,-1.61255 -1.16044,-2.85488 -0.002,-1.65271 0.78028,-2.90471 2.3553,-3.7691 0.77772,-0.42681 1.06,-0.48904 2.18829,-0.48234 1.38205,0.008 1.60172,-0.18132 0.6107,-0.52685 -0.31522,-0.10989 -0.55822,-0.27226 -0.53999,-0.36077 0.0182,-0.0885 0.77214,-1.27842 1.67541,-2.64422 0.90327,-1.3658 1.80613,-2.75337 2.00638,-3.0835 l 0.36406,-0.60021 3.60005,-0.11962 c 1.98003,-0.0657 3.63362,-0.086 3.67466,-0.045 0.0819,0.0819 -1.56875,2.76262 -4.04565,6.57036 -0.84332,1.29642 -1.09391,1.85325 -0.73384,1.63072 0.25078,-0.15499 1.2945,0.34833 1.49353,0.72021 0.099,0.18501 0.18003,0.85489 0.18003,1.48862 0,0.98142 -0.0679,1.25278 -0.45821,1.83063 -0.55949,0.82836 -1.11116,1.27276 -2.15817,1.73856 -1.07349,0.47756 -1.99966,0.63224 -2.5782,0.43056 -0.57714,-0.2012 -0.80379,-0.58371 -0.80379,-1.35651 0,-0.74451 -0.1424,-1.10763 -0.43438,-1.10763 -0.15119,0 -0.23211,0.19041 -0.23211,0.5461 0,1.29138 -1.84186,2.78633 -3.4329,2.78633 -0.70879,0 -0.85263,-0.0725 -1.57072,-0.79145 z m 28.79116,0.63303 c -0.74892,-0.2378 -1.60227,-0.83448 -1.71889,-1.20185 -0.0715,-0.22529 0.0155,-0.51254 0.25194,-0.83242 0.1986,-0.26863 0.33711,-0.6537 0.30778,-0.85573 -0.0476,-0.32809 -0.13909,-0.27529 -0.85661,0.49452 -0.96788,1.03839 -1.78079,1.39292 -3.46305,1.51024 -1.1172,0.0779 -1.38034,0.0376 -2.19618,-0.33581 -1.03048,-0.47177 -1.87117,-1.44815 -2.04508,-2.37514 -0.17976,-0.95819 0.33005,-2.27568 1.2848,-3.32035 0.4697,-0.51392 0.80902,-0.97939 0.75404,-1.03438 -0.0549,-0.055 -0.34051,-3.3e-4 -0.63452,0.12146 -0.45465,0.18833 -0.55581,0.18545 -0.67671,-0.0192 -0.0782,-0.13235 -0.95152,-1.62778 -1.94075,-3.32314 -0.98923,-1.69537 -1.9027,-3.24778 -2.02992,-3.44982 -0.12723,-0.20203 -0.19666,-0.3978 -0.15432,-0.43507 0.0424,-0.0373 1.84663,-0.1155 4.00952,-0.17387 l 3.93252,-0.10613 2.14916,3.18592 c 1.18203,1.75226 2.22414,3.20795 2.31578,3.23486 1.91744,0.56317 3.43172,1.80748 4.26872,3.50766 0.47315,0.96112 0.51691,1.17634 0.43827,2.15593 -0.10713,1.33467 -0.62655,2.20273 -1.69143,2.8268 -0.83783,0.491 -1.6353,0.63823 -2.30508,0.42555 z m -43.19892,-0.6437 c -1.20986,-0.43246 -2.04701,-1.01753 -3.13051,-2.18784 -1.09729,-1.18519 -1.52098,-1.93556 -1.8765,-3.3233 -0.53964,-2.10643 0.41981,-3.98027 2.8826,-5.62983 0.48112,-0.32225 0.87475,-0.65596 0.87475,-0.74156 0,-0.33315 -0.51787,-0.32786 -1.06599,0.0109 l -0.57459,0.35511 -0.4242,-0.55616 c -0.6661,-0.87329 -0.93438,-1.68999 -0.93438,-2.84438 0,-2.19474 1.40724,-3.99664 3.86001,-4.94252 2.37902,-0.91745 4.31622,-0.72219 5.76586,0.58116 1.29883,1.16777 1.83522,2.85105 1.45711,4.5726 l -0.1226,0.55816 5.62448,-0.12341 c 5.17402,-0.11353 5.61609,-0.10154 5.51968,0.14971 -0.0577,0.15022 -0.72972,1.22635 -1.49348,2.39139 -0.76378,1.16503 -1.83353,2.84564 -2.37722,3.73468 l -0.98855,1.61643 -2.16607,0.0286 c -1.19134,0.0158 -2.68107,0.0168 -3.31049,0.003 -1.14007,-0.026 -1.14715,-0.0291 -1.86069,-0.8119 -0.92821,-1.01831 -1.13707,-0.66718 -0.41718,0.70134 0.87991,1.67276 0.62725,3.34948 -0.75986,5.04224 -1.20247,1.46747 -2.86713,1.9934 -4.48217,1.41613 z m 57.23441,-1.67632 c -1.42597,-0.31545 -2.9322,-1.43256 -3.49271,-2.5904 -0.32939,-0.68045 -0.45663,-2.19256 -0.30112,-3.57861 0.0246,-0.21982 -0.0386,-0.42885 -0.14061,-0.46448 -0.20253,-0.0707 -0.56448,0.6744 -0.60796,1.25164 -0.0268,0.35541 -0.077,0.36233 -2.63287,0.36233 l -2.60558,0 -0.50374,-0.79144 c -0.27704,-0.4353 -1.48688,-2.23481 -2.68849,-3.99892 l -2.18476,-3.20746 2.2054,-0.0214 c 1.21294,-0.0118 2.69274,-0.0362 3.28841,-0.0543 0.59568,-0.018 2.12204,-0.0459 3.39192,-0.0618 2.06073,-0.0259 2.29764,-0.0583 2.20442,-0.30121 -0.173,-0.45083 0.23023,-2.22642 0.73081,-3.21802 0.48379,-0.9584 1.74847,-2.28152 2.60256,-2.72283 1.98687,-1.02661 4.58797,-0.75383 6.48276,0.67986 0.96639,0.7312 1.86177,2.32358 1.987,3.5337 0.15245,1.47298 -0.53377,3.44791 -1.82179,5.24314 -0.96298,1.34221 -0.96663,1.74944 -0.008,0.90786 0.33256,-0.292 0.70025,-0.48026 0.83614,-0.42812 0.41665,0.15989 1.39906,1.81948 1.59325,2.69148 0.43299,1.94446 -0.54542,4.25726 -2.3218,5.48829 -1.48872,1.03167 -4.36739,1.64481 -6.01312,1.28076 z m -31.32479,-14.11043 c -0.48503,-0.2182 -0.68674,-0.22848 -1.19847,-0.061 -0.76853,0.25155 -3.31871,0.003 -4.13263,-0.40344 -0.51876,-0.2588 -0.57641,-0.25567 -1.08544,0.0589 -0.29567,0.18274 -0.75367,0.33151 -1.01779,0.33063 -0.57737,-0.002 -2.16187,-0.71125 -2.26236,-1.01275 -0.055,-0.16509 -0.16416,-0.14972 -0.47307,0.0667 -0.54996,0.3852 -1.02919,0.35339 -1.98688,-0.13191 -1.49503,-0.75758 -2.04819,-1.51764 -2.24586,-3.0859 l -0.1155,-0.91641 -1.61359,-1.08254 c -1.73681,-1.16521 -3.12637,-2.30155 -5.36255,-4.38534 -4.53764,-4.22839 -7.43955,-8.82725 -9.78282,-15.50358 -0.75885,-2.16205 -1.71405,-5.78464 -1.71405,-6.50051 0,-0.21305 -0.0716,-0.60474 -0.1592,-0.87043 -0.33992,-1.03154 -1.09008,-10.09196 -0.85502,-10.32701 0.0385,-0.0385 2.10486,-0.07 4.59188,-0.07 l 4.52186,0 -0.16095,1.29132 c -0.19732,1.58292 0.0589,4.44873 0.64425,7.20637 0.52858,2.49015 2.0777,7.33134 2.34594,7.33134 0.20301,0 0.35135,-0.69781 0.38962,-1.83284 0.0107,-0.32075 0.23892,-1.40795 0.50692,-2.41601 1.95521,-7.35434 7.48287,-12.72881 15.00071,-14.58499 2.0435,-0.50455 6.064,-0.63169 8.06033,-0.25492 2.42088,0.45692 4.2157,1.21318 6.76896,2.85214 3.99897,2.56698 6.9366,5.61986 9.0137,9.36734 1.01907,1.83861 2.077,4.47542 2.23878,5.58001 0.064,0.43643 0.17926,0.83246 0.25631,0.88007 0.1755,0.10846 0.71476,-0.69157 0.59584,-0.88399 -0.0481,-0.0778 -0.0189,-0.43727 0.0649,-0.79878 0.72498,-3.12754 0.9067,-4.71976 0.90224,-7.90532 -0.004,-2.48525 -0.0749,-3.57555 -0.3037,-4.63769 -0.16453,-0.76372 -0.27418,-1.4134 -0.24367,-1.44374 0.0306,-0.0303 4.04814,-0.10855 8.92807,-0.1738 7.75351,-0.10369 8.87257,-0.0877 8.87257,0.12656 0,0.87454 -0.36755,5.77672 -0.51574,6.87847 -0.49356,3.66986 -0.9948,5.81073 -2.18463,9.3308 -2.40713,7.12145 -7.38061,15.00625 -12.0839,19.15737 -2.54209,2.24365 -6.21719,4.46492 -9.24301,5.58653 l -1.4501,0.53754 -0.18241,0.87862 c -0.23967,1.1545 -0.60783,1.46526 -1.87996,1.5869 -0.84362,0.0807 -1.14654,0.0352 -1.72745,-0.25883 l -0.70445,-0.35664 -0.43085,0.43044 c -0.39027,0.38989 -0.55444,0.43044 -1.74222,0.43044 -1.03855,0 -1.38166,-0.0636 -1.64933,-0.30594 -0.32904,-0.29786 -0.35187,-0.29566 -0.86397,0.0833 -0.45304,0.33525 -0.74948,0.39519 -2.13709,0.43211 -1.18331,0.0315 -1.76594,-0.0268 -2.19426,-0.21952 z m 3.43414,-1.03388 c 0.37972,-0.25123 0.73119,-1.2147 0.72544,-1.98863 -0.008,-1.06559 -0.40343,-2.67295 -0.7527,-3.0589 -0.63054,-0.69673 -2.40694,-0.8435 -3.05966,-0.25279 -0.25438,0.23021 -0.29452,0.5965 -0.3018,2.7542 -0.008,2.41292 0.003,2.49081 0.34799,2.55847 0.62935,0.12323 2.84942,0.11422 3.04073,-0.0124 z m -4.74586,-0.31443 c 0.24969,-0.30064 0.34604,-2.82586 0.16417,-4.30318 -0.0886,-0.7197 -0.16449,-0.85142 -0.57333,-0.99481 -0.39789,-0.13957 -0.63858,-0.0786 -1.54661,0.39227 -0.59145,0.30666 -1.1616,0.71683 -1.26697,0.91151 -0.20722,0.38278 -0.6078,2.40423 -0.62205,3.13898 -0.0108,0.55805 0.33675,0.76227 1.61611,0.94965 1.52248,0.22297 1.9812,0.20354 2.22868,-0.0944 z m 9.14291,-0.0579 c 0.28352,-0.28352 0.33324,-0.5554 0.33324,-1.82199 0,-0.81881 -0.0696,-1.67188 -0.15472,-1.8957 -0.26846,-0.70607 -2.03969,-1.06219 -2.58262,-0.51926 -0.20076,0.20074 -0.26184,0.62583 -0.26184,1.82199 0,1.76576 0.16203,2.35706 0.70572,2.57548 0.67937,0.27294 1.60234,0.19736 1.96022,-0.16052 z m -14.26792,-0.38023 c 0.24971,-0.33574 0.36301,-0.78644 0.41094,-1.63484 0.0587,-1.03838 0.0235,-1.21686 -0.31095,-1.57274 -0.78604,-0.83671 -2.25744,-0.92736 -2.75389,-0.16964 -0.32456,0.49531 -0.49053,2.37633 -0.26149,2.96344 0.21848,0.56006 1.0475,0.95256 1.92081,0.90942 0.4957,-0.0245 0.73159,-0.14205 0.99458,-0.49564 z m 18.29218,0.38249 c 0.62607,-0.004 0.85302,-2.1536 0.37553,-3.55494 -0.14607,-0.42871 -0.33244,-0.77947 -0.41415,-0.77947 -0.46923,0 -1.7152,0.45366 -2.10957,0.76811 -0.42907,0.3421 -0.45979,0.45073 -0.45979,1.62569 0,0.94445 0.0683,1.32747 0.27316,1.53269 0.31803,0.31852 1.2458,0.57533 1.72629,0.47783 0.18329,-0.0373 0.45713,-0.0687 0.60853,-0.07 z m -22.40767,-1.16861 c 0.26662,-1.02586 0.26704,-2.207 6.3e-4,-2.57095 -0.16387,-0.22411 -0.51946,-0.32331 -1.37948,-0.38484 -1.3586,-0.0972 -1.65238,0.10657 -1.62562,1.12757 0.0267,1.0161 0.53896,1.85871 1.39305,2.2912 1.06194,0.53774 1.3744,0.44794 1.61115,-0.46298 z m 10.38559,-8.74915 c 0.0734,-1.02597 0.12303,-1.16481 0.41655,-1.16481 0.23195,0 0.34742,0.12662 0.3799,0.41655 0.0817,0.7301 0.20602,1.16642 0.33142,1.16379 0.34671,-0.007 0.5984,-0.37122 0.70658,-1.02173 0.0664,-0.39888 0.36335,-1.54791 0.66003,-2.55339 0.41888,-1.41968 0.52186,-2.03397 0.46086,-2.74926 -0.13216,-1.54975 -0.61337,-4.82702 -0.97406,-6.63385 -0.18818,-0.94261 -0.40626,-2.39734 -0.48462,-3.23273 -0.1368,-1.45837 -0.37228,-1.99289 -0.7233,-1.64186 -0.20905,0.20904 -0.46085,3.94646 -0.40461,6.00526 0.0396,1.45011 0.005,1.74952 -0.19721,1.74952 -0.44002,0 -0.66588,-0.79125 -0.68964,-2.416 -0.034,-2.32481 -0.20283,-3.87994 -0.42929,-3.9545 -0.29647,-0.0976 -0.55022,1.03901 -0.55128,2.46932 -4.9e-4,0.75402 -0.20206,2.23308 -0.49944,3.66567 -0.86427,4.1637 -0.64763,6.31161 1.04549,10.36539 0.49727,1.19062 0.84628,1.01939 0.95262,-0.46737 z m -18.16172,-0.0105 c 0,-0.2357 -0.19457,-0.76056 -0.43238,-1.16636 -0.23782,-0.40579 -0.37859,-0.7378 -0.31285,-0.7378 0.0658,0 0.0395,-0.0965 -0.0584,-0.21439 -0.34516,-0.41587 -0.55584,-3.14654 -0.44627,-5.78398 0.10108,-2.43317 0.0837,-2.65977 -0.30091,-3.9156 -0.5015,-1.63759 -1.03753,-2.58263 -1.46486,-2.58263 -0.42155,0 -0.40679,0.12446 0.22473,1.89637 l 0.54152,1.51936 -0.0342,3.24912 c -0.0442,4.20079 0.18881,5.52595 1.28486,7.30725 0.57544,0.93522 0.99871,1.1169 0.99871,0.42866 z m 36.50438,-0.37349 c 0.80957,-0.90429 1.56383,-3.29486 1.46621,-4.64704 -0.0255,-0.35305 0.007,-0.72835 0.0724,-0.83402 0.0653,-0.10566 0.0473,-0.23627 -0.04,-0.29023 -0.0873,-0.054 -0.16377,-0.22784 -0.16991,-0.3864 -0.0321,-0.82743 -0.18075,-2.34835 -0.27249,-2.78763 -0.41531,-1.9887 -0.33749,-4.78504 0.14376,-5.16526 0.1938,-0.15312 0.21576,-0.28647 0.14407,-0.87477 -0.0409,-0.33586 -0.59244,-0.23912 -0.83303,0.14614 -0.62657,1.00329 -0.92382,4.14103 -0.55046,5.81057 0.32696,1.46209 0.56454,4.09838 0.473,5.24858 -0.1459,1.83313 -0.51501,2.82023 -1.28637,3.44013 -0.78467,0.63056 -0.85132,0.97534 -0.18854,0.97534 0.3369,0 0.63579,-0.18238 1.04138,-0.63541 z m -23.10048,-6.59133 c 0.23157,-0.15173 0.53155,-0.44456 0.66664,-0.65072 0.32506,-0.49611 0.71241,-2.05564 0.91965,-3.70273 0.0922,-0.73313 0.27683,-2.19525 0.41018,-3.24912 0.28411,-2.24542 0.1882,-2.85405 -0.70901,-4.49877 -1.0535,-1.93122 -1.29,-2.1666 -2.17288,-2.16247 -0.985,0.004 -3.54083,0.567 -4.42433,0.97356 -0.37372,0.17197 -1.27933,0.51836 -2.01247,0.76974 -0.73314,0.25138 -1.87157,0.71201 -2.52985,1.0236 -1.11305,0.52686 -1.22975,0.6335 -1.66622,1.5223 -0.44675,0.9098 -0.46736,1.05409 -0.42852,3.00019 0.0499,2.49988 0.21342,2.9411 1.44971,3.91141 0.89707,0.70408 2.29299,1.25443 3.92468,1.54735 0.32074,0.0576 1.16591,0.43807 1.87814,0.84553 2.07812,1.18887 3.57619,1.40272 4.69428,0.67013 z m 13.42212,-0.89121 c 0.50403,-0.15409 1.25383,-0.51853 1.66622,-0.80987 0.86478,-0.61095 2.05496,-1.2343 2.36771,-1.24005 0.49459,-0.009 2.14971,-0.82211 2.86218,-1.40594 0.91438,-0.74926 1.22567,-1.60002 1.37407,-3.75536 0.0975,-1.4161 0.0974,-1.41645 -0.59801,-2.74925 -1.26072,-2.41619 -2.6128,-3.40302 -5.15594,-3.76306 -3.466,-0.49071 -5.87437,0.34589 -7.34783,2.55242 -0.36439,0.54567 -0.74194,1.28714 -0.83904,1.64773 -0.25672,0.95338 -0.0337,2.51722 0.59088,4.145 0.29893,0.77895 0.82198,2.16607 1.16232,3.08248 0.71105,1.91461 1.04333,2.53905 1.40888,2.64775 0.38909,0.11569 1.47931,-0.0373 2.50857,-0.35185 z"
     style="fill:#ff6600"
     inkscape:connector-curvature="0" />
  <path
     style="fill:#000000;fill-opacity:1;fill-rule:nonzero;stroke:#ff6600;stroke-width:8.90000057;stroke-linecap:butt;stroke-linejoin:miter;stroke-miterlimit:4;stroke-opacity:1;stroke-dasharray:none"
     inkscape:transform-center-x="0.10504909"
     inkscape:transform-center-y="3.8795083"
     d="M 232.2612,16.993912 151.66511,16.891372 126.662,93.50975 191.80532,140.96504 257.06921,93.67567 z"
     id="path4027-9-0-8"
     inkscape:connector-curvature="0"
     sodipodi:nodetypes="cccccc" />
  <g
     id="g3611"
     transform="matrix(0.8789104,0.0042721,-0.0042721,0.8789104,-355.70724,-235.0788)">
    <path
       id="path4638"
       style="fill:none;stroke:#ff6600;stroke-width:1.4236207;stroke-opacity:1"
       d="m 587.87639,303.96653 h 75.07499 v 75.07499 h -75.07499 z m 0,25.02499 h 75.07499 m -75.07499,25.025 h 75.07499 m -50.05,-50.04999 v 75.07499 m 25.025,-75.07499 v 75.07499"
       inkscape:connector-curvature="0" />
    <circle
       style="fill:#ff6600"
       transform="matrix(12.512498,0,0,12.512498,587.87639,303.96653)"
       id="circle4640"
       r="0.80000001"
       cy="1"
       cx="3"
       sodipodi:cx="3"
       sodipodi:cy="1"
       sodipodi:rx="0.80000001"
       sodipodi:ry="0.80000001"
       d="M 3.8,1 C 3.8,1.4418278 3.4418278,1.8 3,1.8 2.5581722,1.8 2.2,1.4418278 2.2,1 2.2,0.55817219 2.5581722,0.19999999 3,0.19999999 3.4418278,0.19999999 3.8,0.55817219 3.8,1 z" />
    <circle
       style="fill:#ff6600"
       transform="matrix(12.512498,0,0,12.512498,587.87639,303.96653)"
       id="circle4642"
       r="0.80000001"
       cy="3"
       cx="5"
       sodipodi:cx="5"
       sodipodi:cy="3"
       sodipodi:rx="0.80000001"
       sodipodi:ry="0.80000001"
       d="M 5.8,3 C 5.8,3.4418278 5.4418278,3.8 5,3.8 4.5581722,3.8 4.2,3.4418278 4.2,3 4.2,2.5581722 4.5581722,2.2 5,2.2 5.4418278,2.2 5.8,2.5581722 5.8,3 z" />
    <circle
       style="fill:#ff6600"
       transform="matrix(12.512498,0,0,12.512498,587.87639,303.96653)"
       id="circle4644"
       r="0.80000001"
       cy="5"
       cx="1"
       sodipodi:cx="1"
       sodipodi:cy="5"
       sodipodi:rx="0.80000001"
       sodipodi:ry="0.80000001"
       d="M 1.8,5 C 1.8,5.4418278 1.4418278,5.8 1,5.8 0.55817219,5.8 0.19999999,5.4418278 0.19999999,5 0.19999999,4.5581722 0.55817219,4.2 1,4.2 1.4418278,4.2 1.8,4.5581722 1.8,5 z" />
    <circle
       style="fill:#ff6600"
       transform="matrix(12.512498,0,0,12.512498,587.87639,303.96653)"
       id="circle4646"
       r="0.80000001"
       cy="5"
       cx="3"
       sodipodi:cx="3"
       sodipodi:cy="5"
       sodipodi:rx="0.80000001"
       sodipodi:ry="0.80000001"
       d="M 3.8,5 C 3.8,5.4418278 3.4418278,5.8 3,5.8 2.5581722,5.8 2.2,5.4418278 2.2,5 2.2,4.5581722 2.5581722,4.2 3,4.2 3.4418278,4.2 3.8,4.5581722 3.8,5 z" />
    <circle
       style="fill:#ff6600"
       transform="matrix(12.512498,0,0,12.512498,587.87639,303.96653)"
       id="circle4648"
       r="0.80000001"
       cy="5"
       cx="5"
       sodipodi:cx="5"
       sodipodi:cy="5"
       sodipodi:rx="0.80000001"
       sodipodi:ry="0.80000001"
       d="M 5.8,5 C 5.8,5.4418278 5.4418278,5.8 5,5.8 4.5581722,5.8 4.2,5.4418278 4.2,5 4.2,4.5581722 4.5581722,4.2 5,4.2 5.4418278,4.2 5.8,4.5581722 5.8,5 z" />
  </g>
  <path
     style="fill:#000000;fill-opacity:1;fill-rule:nonzero;stroke:#ff6600;stroke-width:8.90000057;stroke-linecap:butt;stroke-linejoin:miter;stroke-miterlimit:4;stroke-opacity:1;stroke-dasharray:none"
     inkscape:transform-center-x="0.10504909"
     inkscape:transform-center-y="3.8795083"
     d="m 344.17951,97.05653 -80.59576,-0.25639 -25.14932,76.57051 65.05265,47.57956 65.35404,-47.16472 z"
     id="path4027-9-0-8-1"
     inkscape:connector-curvature="0"
     sodipodi:nodetypes="cccccc" />
  <path
     style="fill:#ff6600;fill-opacity:1;stroke:#ff6600;stroke-width:0.98594058;stroke-opacity:1"
     d="m 303.65435,119.69314 c -0.2658,-7.9e-4 -0.49156,0.31388 -0.61557,0.85967 -0.0622,0.2738 -0.18712,0.66605 -0.27684,0.87355 -0.0897,0.20752 -0.31689,0.91437 -0.50797,1.56982 -0.19105,0.65545 -0.68343,2.16399 -1.09077,3.35233 -0.40733,1.18834 -0.77988,2.31599 -0.83015,2.50454 -0.0504,0.18855 -0.15994,0.42054 -0.24352,0.51553 -0.0835,0.095 -0.1869,0.40599 -0.22786,0.6898 -0.0409,0.28381 -0.18324,0.79447 -0.31634,1.13479 -0.1331,0.34032 -0.33938,1.03664 -0.45951,1.54736 -0.18796,0.7992 -0.83829,2.64049 -2.11165,5.98215 -0.3768,0.98884 -0.74053,2.12885 -0.97369,3.04293 -0.0941,0.36884 -0.32043,0.97218 -0.50085,1.34076 l -0.32786,0.67014 -2.89111,0.0528 c -1.5901,0.0307 -7.58378,0.0771 -13.31928,0.10265 -5.73551,0.0255 -10.44592,0.0633 -10.46701,0.082 -0.12596,0.11216 0.1444,0.60119 0.414,0.74977 0.17435,0.0961 0.62326,0.39675 0.99825,0.66761 0.48087,0.34731 0.77989,0.49272 1.01811,0.49343 0.15906,4.7e-4 0.29383,-0.0155 0.32921,-0.0346 5.2e-4,-5.1e-4 0.003,5.3e-4 0.004,10e-6 0.004,-0.003 0.006,-0.007 0.006,-0.01 7e-5,-0.0237 0.0286,-0.11397 0.0619,-0.19986 0.0403,-0.10409 -0.0483,-0.21124 -0.26362,-0.32343 -0.36741,-0.19138 -0.72443,-0.52364 -0.72398,-0.67325 1.6e-4,-0.0555 0.1145,-0.17401 0.25245,-0.26382 0.22971,-0.14956 0.30898,-0.14834 0.9421,0.0128 0.0997,0.0253 0.18704,0.0446 0.27084,0.0622 0.22866,0.008 0.61167,0.0124 1.18408,0.0164 0.0443,-0.005 0.0839,-0.01 0.13233,-0.0157 0.60948,-0.0762 4.33964,-0.10012 11.61564,-0.0786 l 10.23759,0.0302 c 0.25803,-0.0239 0.4387,-0.0544 0.57138,-0.0919 l 0.24598,-0.26062 c 0.35315,-0.37225 0.5033,-0.78444 1.30757,-3.56466 0.23799,-0.82269 0.52166,-1.72784 0.62863,-2.01147 0.10701,-0.28361 0.28856,-0.882 0.40403,-1.32812 0.11545,-0.44613 0.29674,-0.95667 0.40342,-1.13455 0.1067,-0.17786 0.2776,-0.67029 0.37751,-1.0959 0.23102,-0.98394 0.39009,-1.49047 0.99984,-3.1461 0.27158,-0.73742 0.54702,-1.61252 0.60908,-1.94379 0.0621,-0.33125 0.30084,-1.04496 0.53384,-1.58584 0.23299,-0.54093 0.47429,-1.24368 0.53374,-1.56007 0.0594,-0.31638 0.26327,-0.87816 0.45219,-1.25054 0.31583,-0.62258 0.61656,-1.49976 1.03815,-3.01694 0.17634,-0.63461 0.26909,-0.74614 0.5472,-0.65336 0.20317,0.0677 0.84653,1.45732 0.84641,1.8287 -4e-4,0.13367 0.13146,0.71021 0.29306,1.27854 0.1616,0.56836 0.35124,1.31231 0.42103,1.65323 0.0698,0.34092 0.23247,0.89894 0.36092,1.24004 0.72915,1.93632 2.56406,7.91267 3.02959,9.86913 0.17591,0.73937 0.41425,1.4554 0.55646,1.6762 0.29879,0.46391 0.75881,1.80954 0.75815,2.2156 -4.8e-4,0.16035 0.0985,0.45264 0.21748,0.64917 0.11901,0.19653 0.3384,0.70364 0.48709,1.12749 0.17622,0.50233 0.35844,0.83535 0.52634,0.95337 0.23893,0.16792 1.08753,0.19024 11.71123,0.32496 6.54251,0.0829 11.49364,0.18696 11.54693,0.24058 0.12055,0.12125 -0.0782,0.48909 -0.42176,0.78278 -0.17185,0.14697 -0.24034,0.28493 -0.19798,0.39628 0.0956,0.25113 0.32894,0.21321 0.7134,-0.1205 0.18703,-0.1623 0.57986,-0.41533 0.87283,-0.56205 0.60446,-0.30274 0.9923,-0.7293 0.94843,-1.04258 -0.0286,-0.2041 -0.11666,-0.21377 -2.14799,-0.28706 -0.55734,-0.0202 -2.13122,-0.04 -4.18462,-0.0575 -1.03978,-0.007 -2.04714,-0.015 -3.43614,-0.023 -0.55573,-0.004 -0.76984,-0.004 -1.28412,-0.008 -1.04506,-0.005 -2.10358,-0.0102 -3.1845,-0.0134 -8.29281,-0.0195 -10.02202,-0.0463 -10.26947,-0.16583 -0.40537,-0.19597 -0.69291,-0.75773 -0.96243,-1.87098 -0.12474,-0.51516 -0.36308,-1.20428 -0.52786,-1.53092 -0.16477,-0.32663 -0.2982,-0.63087 -0.29806,-0.67845 3.2e-4,-0.10679 -0.74246,-2.55448 -1.03213,-3.40055 -0.11678,-0.34106 -0.44052,-1.4571 -0.71864,-2.48007 -0.28872,-1.06201 -0.6557,-2.14831 -0.854,-2.5321 -0.34277,-0.66337 -0.77142,-2.08745 -0.77004,-2.55443 3.9e-4,-0.13209 -0.15698,-0.6371 -0.35158,-1.12387 -0.19464,-0.48676 -0.43193,-1.22005 -0.52435,-1.6277 -0.0924,-0.40764 -0.25273,-1.01837 -0.35736,-1.3594 -0.10463,-0.34103 -0.33187,-1.15479 -0.50444,-1.80834 -0.4334,-1.64131 -1.01356,-3.10041 -1.23307,-3.10106 z m -13.96793,30.74282 c -0.34956,0.005 -0.62229,0.0246 -0.82617,0.0622 -0.0732,0.027 -0.14344,0.0619 -0.22937,0.10579 -0.44295,0.22634 -0.52446,0.38365 -0.81141,1.61409 -0.0394,0.1688 -0.072,0.28744 -0.14306,0.37062 l -0.0261,0.10317 -0.11292,-0.004 c -0.22406,0.0944 -0.66343,0.0937 -1.61995,0.0888 -1.20395,-0.007 -1.67864,-0.0431 -1.87093,-0.15393 -0.0243,-0.0141 -0.0626,-0.0274 -0.11603,-0.0391 -1.76357,-0.0322 -4.35054,-0.0679 -6.95606,-0.0947 l -5.62039,-0.0585 -1.33576,-0.004 -0.34304,0.35068 -0.23626,0.24451 -0.0389,0.045 -0.006,-2e-5 -0.0615,0.0644 -2.22045,0.21286 c -1.50737,0.14581 -2.23863,0.25736 -2.41456,0.38649 -0.008,0.0228 -0.013,0.0473 -0.0131,0.0742 -7e-5,0.0221 6.7e-4,0.0399 0.006,0.0581 0.025,0.0234 0.0605,0.0458 0.10951,0.0712 0.10583,0.055 0.56488,0.13286 1.01905,0.17078 2.70326,0.22572 3.4484,0.33808 3.68625,0.55617 0.55527,0.50908 0.46001,0.49713 5.55122,0.53584 1.91511,-0.0189 3.1906,-0.007 4.1169,0.0412 0.91601,0.0117 1.66252,0.0205 1.97454,0.0285 0.70978,0.0182 1.87145,-0.0262 2.58148,-0.0989 0.71006,-0.0727 1.89495,-0.11566 2.6331,-0.0955 l 1.34212,0.0396 0.0722,0.67133 c 0.11251,1.07251 0.17946,1.33902 0.39228,1.55308 0.27852,0.28017 0.88348,0.2616 1.55854,-0.0502 l 0.55247,-0.25647 0.23877,7e-4 0.0581,-0.0225 3.55228,0.0332 1.88748,0.006 5.73668,0.0169 0.346,-0.25711 0.34921,-0.25386 0.3285,0.20424 c 0.12127,0.0755 0.23019,0.12226 0.88037,0.15425 0.0391,0.002 0.0702,0.005 0.11291,0.006 0.0214,8.6e-4 0.0452,-6.6e-4 0.0678,2e-4 0.4957,0.0175 1.20419,0.0322 2.27456,0.0423 0.49043,0.004 1.01888,0.008 1.67774,0.011 0.10509,6.1e-4 0.17429,1.9e-4 0.28392,8.4e-4 1.50119,0.008 3.38535,0.016 5.93347,0.0235 l 0.0548,1.6e-4 c 3.6123,0.0107 5.99083,0.0137 7.63388,0.01 2.58066,-0.0119 3.30384,-0.0683 3.48535,-0.24784 0.0169,-0.0717 0.0353,-0.1535 0.0556,-0.25795 -0.004,-0.0404 -0.006,-0.0823 -0.006,-0.12908 6e-4,-0.20412 0.0188,-0.33909 0.1045,-0.42237 l 0.0102,-0.0548 0.0742,2.1e-4 c 0.17108,-0.0798 0.49202,-0.074 1.09712,-0.0356 0.57102,0.0364 1.13149,0.12373 1.24484,0.19403 0.12797,0.0794 0.93015,0.162 2.11594,0.2192 2.40917,0.1162 2.67347,0.10339 3.01721,-0.1492 0.1543,-0.11337 0.4206,-0.20525 0.59106,-0.20475 0.37356,0.001 1.81406,0.33256 2.94701,0.67981 0.96664,0.29627 2.85392,0.467 5.77713,0.51716 0.25728,0.004 0.49502,0.006 0.77758,0.008 0.19056,0.001 0.36931,0.004 0.56784,0.006 3.40293,0.0171 3.40468,0.0171 3.84956,0.97932 0.1285,0.27789 0.21978,0.63718 0.27114,1.04619 8e-4,0.004 0.003,0.009 0.004,0.0129 0.004,0.0301 0.006,0.0597 0.01,0.0904 0.004,0.0311 0.008,0.0604 0.01,0.0936 0.0514,0.56028 0.0327,1.19882 -0.0603,1.85505 -0.10983,0.77431 -0.15738,0.86758 -1.40508,2.71256 -0.18253,0.26987 -0.4729,0.47475 -1.04759,0.74546 -0.43754,0.2061 -1.00808,0.53545 -1.26695,0.73191 -0.25887,0.19645 -0.66179,0.40857 -0.89513,0.47165 -0.8921,0.24114 -4.61438,-0.11982 -5.20607,-0.50579 -0.29199,-0.19048 -1.25365,-0.50869 -1.8212,-0.60228 -0.22706,-0.0374 -0.94665,-0.22633 -1.59911,-0.42095 -0.65246,-0.19461 -1.65068,-0.43446 -2.21827,-0.52924 -1.08413,-0.18103 -2.87551,-0.74569 -4.28726,-1.35488 -0.46087,-0.19887 -1.00739,-0.36308 -1.21529,-0.36496 -0.47103,-0.004 -1.20758,-0.33367 -1.61436,-0.72103 -0.16988,-0.16179 -0.63753,-0.41323 -1.04051,-0.55804 -0.40295,-0.14481 -1.1686,-0.48773 -1.70133,-0.76325 l -0.82472,-0.4251 c -0.0829,-0.0286 -0.16397,-0.0525 -0.245,-0.0749 l -1.24221,-0.004 c -2.48199,-0.002 -2.89415,0.32133 -3.08517,2.4011 -0.11189,1.21813 -0.11177,1.22568 0.14994,1.67822 0.14462,0.25014 0.29755,0.61843 0.33958,0.8173 0.042,0.19888 0.20948,0.61083 0.37157,0.91743 0.16213,0.3066 0.29472,0.71444 0.29415,0.90752 -5.7e-4,0.19306 0.21178,0.87409 0.47307,1.51139 0.56139,1.36933 1.69798,4.64135 1.97717,5.69094 0.24546,0.92272 0.31701,1.12556 0.99164,2.91 0.30089,0.79589 0.62115,1.74931 0.71325,2.11867 0.0921,0.36939 0.30544,1.02049 0.47325,1.44688 0.34466,0.87556 0.48234,1.78518 0.288,1.90449 -0.2917,0.17909 -2.51435,-1.22826 -4.46359,-2.82669 -0.40997,-0.33617 -1.14091,-0.86878 -1.62266,-1.18246 -0.48177,-0.31368 -1.25161,-0.87384 -1.71283,-1.24725 -0.46119,-0.37344 -1.20296,-0.92438 -1.64835,-1.22448 -0.44538,-0.30013 -1.18231,-0.83373 -1.63555,-1.18573 -0.45325,-0.35203 -1.32776,-0.98114 -1.9447,-1.39637 -0.61692,-0.41525 -1.40508,-0.98571 -1.75146,-1.26674 -0.75806,-0.61499 -3.46414,-2.56011 -4.00849,-2.8834 -0.63271,-0.37579 -0.69888,-0.33806 -5.55599,3.26816 -1.79271,1.33102 -3.63208,2.73009 -4.08748,3.10796 -0.45541,0.37788 -0.94435,0.74609 -1.08654,0.81954 -0.14216,0.0735 -0.51468,0.34935 -0.82778,0.61383 -0.31311,0.26449 -1.03485,0.79917 -1.60385,1.18585 -0.569,0.38669 -1.24414,0.87398 -1.50028,1.0829 -0.25616,0.20893 -0.67512,0.48302 -0.93104,0.6103 -0.25591,0.12725 -0.76814,0.5174 -1.13829,0.86779 -0.79994,0.75722 -2.6472,2.15982 -2.98474,2.26586 -0.28696,0.0901 -0.73884,-0.0112 -0.73839,-0.16349 1.8e-4,-0.0604 0.1389,-0.42465 0.3089,-0.80895 0.26856,-0.60702 0.65102,-1.9811 1.04684,-3.7687 0.0628,-0.28374 0.23625,-0.81754 0.38423,-1.1862 0.14795,-0.36868 0.42683,-1.239 0.61874,-1.93085 0.19189,-0.69187 0.58047,-1.832 0.86572,-2.53348 0.53198,-1.30816 0.83924,-2.30661 0.8405,-2.73358 3.9e-4,-0.13285 0.0687,-0.36936 0.14997,-0.52548 0.0814,-0.15613 0.29501,-0.83717 0.47556,-1.51505 0.18053,-0.67789 0.44033,-1.39725 0.57902,-1.59864 0.13869,-0.2014 0.25299,-0.4477 0.25329,-0.54776 2.9e-4,-0.10005 0.0443,-0.26495 0.0979,-0.3643 0.12322,-0.22862 0.232,-1.29826 0.15286,-1.50633 -0.13751,-0.36153 -0.65792,-0.0956 -0.6592,0.33684 -4e-4,0.13584 -0.094,0.36512 -0.208,0.50917 -0.11399,0.14406 -0.20759,0.37532 -0.20801,0.51563 -0.001,0.41591 -0.28683,1.38047 -0.73655,2.49192 -0.23186,0.57298 -0.48785,1.35417 -0.56976,1.73739 -0.15895,0.74373 -1.44139,4.59833 -1.80348,5.41842 -0.23557,0.53351 -1.11757,3.38032 -1.8568,5.99582 -0.25481,0.90153 -0.62706,2.03874 -0.82699,2.52713 -0.3781,0.92349 -0.46752,1.55737 -0.25702,1.81254 0.15082,0.18281 0.46404,0.082 1.01731,-0.3261 0.20951,-0.15454 0.59101,-0.45201 0.84729,-0.66216 0.25628,-0.21014 0.65194,-0.45989 0.87924,-0.55236 0.22731,-0.0924 0.59985,-0.34197 0.82762,-0.55575 0.4559,-0.42789 1.13603,-0.9542 3.3115,-2.56498 2.04884,-1.51697 4.83865,-3.6212 5.69131,-4.29057 0.39843,-0.31279 1.25987,-0.9578 1.91433,-1.4366 0.65447,-0.47878 1.7953,-1.33557 2.53519,-1.90261 1.52455,-1.16845 3.35594,-2.41742 3.84718,-2.62468 0.39062,-0.1648 0.5654,-0.11682 1.11543,0.31948 0.22661,0.17976 0.59753,0.44074 0.82428,0.57675 0.22675,0.13602 0.6208,0.42747 0.8757,0.65113 0.25487,0.22364 0.69504,0.54091 0.97876,0.70303 0.28374,0.16212 0.77049,0.53298 1.08168,0.82273 0.31119,0.28974 0.70546,0.60136 0.87557,0.69304 0.25625,0.13815 1.41381,0.91588 2.35711,1.58472 0.4272,0.30291 3.62468,2.72739 3.88248,2.94435 0.14438,0.12154 0.65606,0.44612 1.14005,0.71965 0.48398,0.27352 1.38773,0.89678 2.00602,1.38365 0.61833,0.48683 1.72628,1.28018 2.46306,1.76571 0.73678,0.48552 1.59955,1.12996 1.91553,1.43177 0.58459,0.55827 1.16394,0.82926 1.64329,0.76307 0.23639,-0.0326 0.25563,-0.0735 0.24376,-0.60264 -0.0132,-0.58792 -0.80085,-3.12613 -1.86011,-6.00032 -0.44559,-1.20903 -0.96382,-2.77861 -2.48474,-7.53799 -0.17257,-0.53998 -0.51315,-1.42377 -0.75888,-1.96396 -0.25734,-0.56566 -0.47623,-1.22309 -0.51491,-1.55023 -0.0418,-0.35337 -0.17602,-0.74664 -0.35831,-1.03678 -0.16115,-0.25652 -0.32463,-0.67516 -0.36184,-0.93029 -0.0372,-0.25514 -0.17638,-0.66624 -0.31026,-0.91402 -0.19769,-0.36577 -0.24631,-0.61501 -0.25421,-1.32683 l -0.0103,-0.87764 0.40127,-0.40859 c 0.57468,-0.59011 0.84593,-0.70088 1.7121,-0.69832 0.73823,0.002 0.9951,0.0886 1.39245,0.47841 0.0695,0.0681 0.44076,0.22435 0.82495,0.34766 0.38424,0.12333 0.95459,0.37601 1.26637,0.56193 0.31177,0.18591 0.77567,0.42755 1.03089,0.53541 0.25523,0.10788 0.69596,0.32426 0.97944,0.48042 0.28347,0.15614 1.23492,0.49967 2.11433,0.76447 0.87942,0.2648 2.26655,0.69689 3.0817,0.95768 0.81516,0.26078 1.92935,0.56457 2.47596,0.6752 0.54662,0.11063 1.08598,0.24146 1.1994,0.29393 0.11342,0.0523 0.36873,0.12709 0.56738,0.16622 0.19862,0.0392 0.47712,0.1305 0.61888,0.20187 0.14175,0.0713 0.48996,0.16209 0.77376,0.20233 0.28382,0.0402 0.8475,0.19004 1.25414,0.32957 0.40663,0.13954 0.8342,0.25414 0.94784,0.25447 0.11364,3.4e-4 0.49419,0.0753 0.84808,0.16706 0.0371,0.0101 0.0751,0.0176 0.11285,0.0261 0.52671,0.0529 1.13441,0.0838 1.88075,0.0992 l 0.37426,0.007 c 1.61078,-0.0303 1.72974,-0.0454 2.16907,-0.2969 0.25597,-0.14651 0.83228,-0.42217 1.27951,-0.61249 0.51479,-0.2191 0.89433,-0.45739 1.03438,-0.64547 0.12169,-0.1634 0.56066,-0.65685 0.97765,-1.09735 0.71782,-0.75828 0.77779,-0.85675 1.10898,-1.86809 0.52132,-1.59192 0.62627,-2.32357 0.47097,-3.2477 -0.17151,-1.02081 -0.64693,-1.96672 -1.17721,-2.33625 -0.60767,-0.42341 -2.28805,-0.61979 -5.77989,-0.68171 -1.53315,-0.0272 -2.95003,-0.0956 -3.14861,-0.15126 -0.0483,-0.0135 -0.11432,-0.0274 -0.19026,-0.0394 -0.29169,-0.0187 -0.54806,-0.0365 -0.78063,-0.0603 -0.0308,-6.1e-4 -0.0638,-0.004 -0.0936,-0.004 -0.46415,-0.001 -0.84939,-0.0711 -1.13516,-0.20018 -0.2379,-0.10744 -0.97887,-0.27753 -1.64762,-0.37914 -1.01373,-0.15404 -1.27559,-0.23136 -1.57314,-0.46925 -0.40226,-0.32162 -0.42718,-0.3285 -2.62775,-0.62402 -0.87985,-0.11815 -2.04084,-0.30555 -2.57997,-0.41738 -0.53916,-0.11183 -1.21247,-0.23539 -1.4963,-0.27222 -0.76516,-0.0993 -0.87718,-0.14556 -0.87651,-0.37364 3.4e-4,-0.11411 -0.12617,-0.33726 -0.28245,-0.49448 l -0.20268,-0.20064 c -0.18839,-0.0503 -0.52778,-0.0818 -1.19026,-0.11 l -2.40034,-0.0554 c -1.93002,-0.0454 -4.41606,-0.12955 -5.52323,-0.18408 -1.10718,-0.0545 -4.17335,-0.15463 -6.81372,-0.22339 -2.38103,-0.0619 -4.48968,-0.14445 -6.46838,-0.2514 -0.21,-0.01 -0.33335,-0.0174 -0.40647,-0.0239 -2.73816,-0.15454 -5.23728,-0.35707 -7.83529,-0.63939 -0.79475,-0.0863 -2.3276,-0.21804 -3.40631,-0.29076 -0.61882,-0.0417 -1.03055,-0.0663 -1.33554,-0.0781 z m -4.32114,3.56865 c 2.09095,0.005 2.39383,0.0794 2.39292,0.38778 -7e-5,0.0243 -0.0171,0.0439 -0.0616,0.0611 -0.004,0.003 -0.009,0.004 -0.0193,0.006 -0.21193,0.067 -0.95023,0.0803 -2.99442,0.075 -0.0214,-4e-5 -0.0397,-1.2e-4 -0.0613,-1.8e-4 -0.0276,-7e-5 -0.0397,-1.2e-4 -0.0678,-2e-4 -0.55605,-0.002 -1.02796,-0.005 -1.40997,-0.0102 -1.50098,-0.0144 -1.81192,-0.0509 -1.85474,-0.16357 -0.0338,-0.0891 -0.0205,-0.2018 0.0297,-0.25157 0.0503,-0.0498 1.41572,-0.0941 3.03642,-0.10074 0.37608,-0.002 0.71122,-0.004 1.00992,-0.003 z m 17.75478,0.22019 c 0.50716,-10e-4 1.19033,0.007 1.92939,0.025 1.20152,0.0301 1.85382,0.0483 2.24216,0.0808 0.2467,0.012 0.43155,0.0263 0.45159,0.0401 0.0211,0.0144 0.0451,0.0375 0.0676,0.0648 0.055,0.0304 0.0904,0.0667 0.13195,0.11332 0.17007,0.19085 0.38625,0.25214 1.2444,0.3489 0.57125,0.0645 1.21466,0.09 1.42919,0.0559 0.36642,-0.0583 0.38791,-0.0472 0.35435,0.18496 l -0.0363,0.24833 -4.33967,0.013 c -3.05972,0.01 -4.37545,-0.0199 -4.4555,-0.10025 -0.13555,-0.13635 -0.0484,-0.94101 0.11277,-1.04505 0.0305,-0.0197 0.36087,-0.029 0.86803,-0.0296 z"
     id="rect3105"
     inkscape:connector-curvature="0"
     sodipodi:nodetypes="ccscsssssssccccscccsccsscscccccscccscsssscsccsscsssccccccsscccccscscssscscssscscsscsccccccccccccccccccsccssccsscccsccccccccccccccccsscccscccccscssccsccccccccssscssscscccccssccscssccssscsscscsscscsssssccsssscccsccscsscsscssccsscssccsccscscccscscsccccsccccsccscsssscccscsccccscssccssccccsccsccsccccssccsscsscccccccsssssccccsccccccss" />
  <path
     style="fill:#000000;fill-opacity:1;fill-rule:nonzero;stroke:#ff6600;stroke-width:8.90000057;stroke-linecap:butt;stroke-linejoin:miter;stroke-miterlimit:4;stroke-opacity:1;stroke-dasharray:none"
     inkscape:transform-center-x="0.10504909"
     inkscape:transform-center-y="3.8795083"
     d="m 122.28201,96.80014 -80.595973,0.16831 -24.745487,76.70197 65.302436,47.2361 65.104604,-47.50843 z"
     id="path4027-9-0-8-2-0-0"
     inkscape:connector-curvature="0"
     sodipodi:nodetypes="cccccc" />
  <g
     id="g3499"
     transform="matrix(0.87889109,0.00722576,-0.00722576,0.87889109,-21.496761,-147.11249)">
    <path
       sodipodi:nodetypes="cccccccccccccccccccccccccc"
       id="path3555"
       d="m 118.15943,359.36488 -21.986403,16.43281 5.165473,-16.11978 -2.371785,0 -7.149562,22.3077 26.336697,-19.68885 26.789,19.60523 -7.37382,-22.22408 -2.38318,0 5.32511,16.05136 -22.35153,-16.36439 z m 0.0932,-59.96983 -9.84443,31.55918 -33.087154,0.0418 5.02864,3.61849 3.960576,0 -1.90807,-1.37213 27.617608,-0.0342 8.21383,-26.3405 8.56351,26.33268 27.35154,-0.072 -10.26633,7.54866 4.0518,0 13.34889,-9.81782 -32.76788,0.12141 -10.26253,-31.58557 z"
       style="fill:#ff6600;fill-opacity:1;stroke:none"
       inkscape:connector-curvature="0" />
    <rect
       rx="0.62905616"
       ry="0.62905616"
       y="335.99554"
       x="82.261307"
       height="3.1330535"
       width="2.9487565"
       id="rect2461"
       style="fill:#ff6600;fill-opacity:1;stroke:none" />
    <rect
       rx="0.62905616"
       ry="0.62905616"
       y="335.99554"
       x="88.465981"
       height="3.1330535"
       width="2.9487565"
       id="rect3233"
       style="fill:#ff6600;fill-opacity:1;stroke:none" />
    <rect
       rx="0.62905616"
       ry="0.62905616"
       y="335.99554"
       x="91.762856"
       height="3.1330535"
       width="2.9487565"
       id="rect3235"
       style="fill:#ff6600;fill-opacity:1;stroke:none" />
    <rect
       rx="0.62905616"
       ry="0.62905616"
       y="335.99554"
       x="95.059731"
       height="3.1330535"
       width="2.9487565"
       id="rect3237"
       style="fill:#ff6600;fill-opacity:1;stroke:none" />
    <rect
       rx="0.62905616"
       ry="0.62905616"
       y="335.99554"
       x="98.356606"
       height="3.1330535"
       width="2.9487565"
       id="rect3239"
       style="fill:#ff6600;fill-opacity:1;stroke:none" />
    <rect
       rx="0.62905616"
       ry="0.62905616"
       y="335.99554"
       x="102.68759"
       height="3.1330535"
       width="2.9487565"
       id="rect3241"
       style="fill:#ff6600;fill-opacity:1;stroke:none" />
    <rect
       rx="0.62905616"
       ry="0.62905616"
       y="335.99554"
       x="105.98447"
       height="3.1330535"
       width="2.9487565"
       id="rect3243"
       style="fill:#ff6600;fill-opacity:1;stroke:none" />
    <rect
       rx="0.62905616"
       ry="0.62905616"
       y="335.99554"
       x="109.28133"
       height="3.1330535"
       width="2.9487565"
       id="rect3245"
       style="fill:#ff6600;fill-opacity:1;stroke:none" />
    <rect
       rx="0.62905616"
       ry="0.62905616"
       y="335.99554"
       x="112.57821"
       height="3.1330535"
       width="2.9487565"
       id="rect3247"
       style="fill:#ff6600;fill-opacity:1;stroke:none" />
    <rect
       rx="0.62905616"
       ry="0.62905616"
       y="335.99554"
       x="117.06277"
       height="3.1330535"
       width="2.9487565"
       id="rect3249"
       style="fill:#ff6600;fill-opacity:1;stroke:none" />
    <rect
       rx="0.62905616"
       ry="0.62905616"
       y="335.99554"
       x="120.35965"
       height="3.1330535"
       width="2.9487565"
       id="rect3251"
       style="fill:#ff6600;fill-opacity:1;stroke:none" />
    <rect
       rx="0.62905616"
       ry="0.62905616"
       y="335.99554"
       x="123.65652"
       height="3.1330535"
       width="2.9487565"
       id="rect3253"
       style="fill:#ff6600;fill-opacity:1;stroke:none" />
    <rect
       rx="0.62905616"
       ry="0.62905616"
       y="335.99554"
       x="126.95339"
       height="3.1330535"
       width="2.9487565"
       id="rect3255"
       style="fill:#ff6600;fill-opacity:1;stroke:none" />
    <rect
       rx="0.62905616"
       ry="0.62905616"
       y="335.99554"
       x="131.37653"
       height="3.1330535"
       width="2.9487565"
       id="rect3257"
       style="fill:#ff6600;fill-opacity:1;stroke:none" />
    <rect
       rx="0.62905616"
       ry="0.62905616"
       y="335.99554"
       x="134.6734"
       height="3.1330535"
       width="2.9487565"
       id="rect3259"
       style="fill:#ff6600;fill-opacity:1;stroke:none" />
    <rect
       rx="0.62905616"
       ry="0.62905616"
       y="335.99554"
       x="137.97028"
       height="3.1330535"
       width="2.9487565"
       id="rect3261"
       style="fill:#ff6600;fill-opacity:1;stroke:none" />
    <rect
       rx="0.59205288"
       ry="0.59205288"
       y="342.33578"
       x="131.48915"
       height="2.8285499"
       width="2.7968884"
       id="rect3265"
       style="fill:#ff6600;fill-opacity:1;stroke:none" />
    <rect
       rx="0.59205288"
       ry="0.59205288"
       y="342.33578"
       x="134.61623"
       height="2.8285499"
       width="2.7968922"
       id="rect3267"
       style="fill:#ff6600;fill-opacity:1;stroke:none" />
    <rect
       rx="0.59205288"
       ry="0.59205288"
       y="342.33578"
       x="137.71259"
       height="2.8285499"
       width="2.7968884"
       id="rect3269"
       style="fill:#ff6600;fill-opacity:1;stroke:none" />
    <rect
       rx="0.59205288"
       ry="0.59205288"
       y="345.55029"
       x="131.59402"
       height="2.8018327"
       width="2.7751687"
       id="rect3271"
       style="fill:#ff6600;fill-opacity:1;stroke:none" />
    <rect
       rx="0.59205288"
       ry="0.59205288"
       y="345.55029"
       x="134.7211"
       height="2.8018327"
       width="2.7751687"
       id="rect3273"
       style="fill:#ff6600;fill-opacity:1;stroke:none" />
    <rect
       rx="0.59205288"
       ry="0.59205288"
       y="345.55029"
       x="137.84818"
       height="2.8018327"
       width="2.7968884"
       id="rect3275"
       style="fill:#ff6600;fill-opacity:1;stroke:none" />
    <rect
       rx="0.56352949"
       ry="0.56352949"
       y="342.36868"
       x="85.640091"
       height="2.8066938"
       width="2.6415942"
       id="rect3277"
       style="fill:#ff6600;fill-opacity:1;stroke:none" />
    <rect
       rx="0.56352949"
       ry="0.56352949"
       y="342.36868"
       x="88.819221"
       height="2.8066938"
       width="2.6415942"
       id="rect3279"
       style="fill:#ff6600;fill-opacity:1;stroke:none" />
    <rect
       rx="0.56352949"
       ry="0.56352949"
       y="342.36868"
       x="91.998344"
       height="2.8066938"
       width="2.6415942"
       id="rect3281"
       style="fill:#ff6600;fill-opacity:1;stroke:none" />
    <rect
       rx="0.56352949"
       ry="0.56352949"
       y="342.36868"
       x="95.177475"
       height="2.8066938"
       width="2.6415942"
       id="rect3283"
       style="fill:#ff6600;fill-opacity:1;stroke:none" />
    <rect
       rx="0.56352949"
       ry="0.56352949"
       y="342.36868"
       x="98.356606"
       height="2.8066938"
       width="2.6415942"
       id="rect3285"
       style="fill:#ff6600;fill-opacity:1;stroke:none" />
    <rect
       rx="0.56352949"
       ry="0.56352949"
       y="342.36868"
       x="101.53573"
       height="2.8066938"
       width="2.6415942"
       id="rect3287"
       style="fill:#ff6600;fill-opacity:1;stroke:none" />
    <rect
       rx="0.56352949"
       ry="0.56352949"
       y="342.36868"
       x="104.71486"
       height="2.8066938"
       width="2.6415942"
       id="rect3289"
       style="fill:#ff6600;fill-opacity:1;stroke:none" />
    <rect
       rx="0.56352949"
       ry="0.56352949"
       y="342.36868"
       x="107.89398"
       height="2.8066938"
       width="2.6415942"
       id="rect3291"
       style="fill:#ff6600;fill-opacity:1;stroke:none" />
    <rect
       rx="0.56352949"
       ry="0.56352949"
       y="342.36868"
       x="111.07311"
       height="2.8066938"
       width="2.6415942"
       id="rect3293"
       style="fill:#ff6600;fill-opacity:1;stroke:none" />
    <rect
       rx="0.56352949"
       ry="0.56352949"
       y="342.36868"
       x="114.25224"
       height="2.8066938"
       width="2.6415942"
       id="rect3295"
       style="fill:#ff6600;fill-opacity:1;stroke:none" />
    <rect
       rx="0.56352949"
       ry="0.56352949"
       y="342.36868"
       x="117.43137"
       height="2.8066938"
       width="2.6415942"
       id="rect3297"
       style="fill:#ff6600;fill-opacity:1;stroke:none" />
    <rect
       rx="0.56352949"
       ry="0.56352949"
       y="342.36868"
       x="120.6105"
       height="2.8066938"
       width="2.6415942"
       id="rect3299"
       style="fill:#ff6600;fill-opacity:1;stroke:none" />
    <rect
       rx="0.56352949"
       ry="0.56352949"
       y="345.5614"
       x="87.168221"
       height="2.8066938"
       width="2.6415942"
       id="rect3301"
       style="fill:#ff6600;fill-opacity:1;stroke:none" />
    <rect
       rx="0.56352949"
       ry="0.56352949"
       y="345.55212"
       x="90.347351"
       height="2.8066938"
       width="2.6415942"
       id="rect3303"
       style="fill:#ff6600;fill-opacity:1;stroke:none" />
    <rect
       rx="0.56352949"
       ry="0.56352949"
       y="345.55212"
       x="93.526474"
       height="2.8066938"
       width="2.6415942"
       id="rect3305"
       style="fill:#ff6600;fill-opacity:1;stroke:none" />
    <rect
       rx="0.56352949"
       ry="0.56352949"
       y="345.55212"
       x="96.705605"
       height="2.8066938"
       width="2.6415942"
       id="rect3307"
       style="fill:#ff6600;fill-opacity:1;stroke:none" />
    <rect
       rx="0.56352949"
       ry="0.56352949"
       y="345.55212"
       x="99.884735"
       height="2.8066938"
       width="2.6415942"
       id="rect3309"
       style="fill:#ff6600;fill-opacity:1;stroke:none" />
    <rect
       rx="0.56352949"
       ry="0.56352949"
       y="345.55212"
       x="103.06386"
       height="2.8066938"
       width="2.6415942"
       id="rect3311"
       style="fill:#ff6600;fill-opacity:1;stroke:none" />
    <rect
       rx="0.56352949"
       ry="0.56352949"
       y="345.55212"
       x="106.24299"
       height="2.8066938"
       width="2.6415942"
       id="rect3313"
       style="fill:#ff6600;fill-opacity:1;stroke:none" />
    <rect
       rx="0.56352949"
       ry="0.56352949"
       y="345.55212"
       x="109.42212"
       height="2.8066938"
       width="2.6415942"
       id="rect3315"
       style="fill:#ff6600;fill-opacity:1;stroke:none" />
    <rect
       rx="0.56352949"
       ry="0.56352949"
       y="345.55212"
       x="112.60124"
       height="2.8066938"
       width="2.6415942"
       id="rect3317"
       style="fill:#ff6600;fill-opacity:1;stroke:none" />
    <rect
       rx="0.56352949"
       ry="0.56352949"
       y="345.55212"
       x="115.78037"
       height="2.8066938"
       width="2.6415942"
       id="rect3319"
       style="fill:#ff6600;fill-opacity:1;stroke:none" />
    <rect
       rx="0.56352949"
       ry="0.56352949"
       y="345.55212"
       x="118.9595"
       height="2.8066938"
       width="2.6415942"
       id="rect3321"
       style="fill:#ff6600;fill-opacity:1;stroke:none" />
    <rect
       rx="0.56352949"
       ry="0.56352949"
       y="345.55212"
       x="122.13863"
       height="2.8066938"
       width="2.6415942"
       id="rect3323"
       style="fill:#ff6600;fill-opacity:1;stroke:none" />
    <rect
       rx="0.56352949"
       ry="0.56352949"
       y="348.75415"
       x="87.905411"
       height="2.8066938"
       width="2.6415942"
       id="rect3325"
       style="fill:#ff6600;fill-opacity:1;stroke:none" />
    <rect
       rx="0.56352949"
       ry="0.56352949"
       y="348.74661"
       x="91.084541"
       height="2.8066938"
       width="2.6415942"
       id="rect3327"
       style="fill:#ff6600;fill-opacity:1;stroke:none" />
    <rect
       rx="0.56352949"
       ry="0.56352949"
       y="348.74661"
       x="94.263664"
       height="2.8066938"
       width="2.6415942"
       id="rect3329"
       style="fill:#ff6600;fill-opacity:1;stroke:none" />
    <rect
       rx="0.56352949"
       ry="0.56352949"
       y="348.74661"
       x="97.442795"
       height="2.8066938"
       width="2.6415942"
       id="rect3331"
       style="fill:#ff6600;fill-opacity:1;stroke:none" />
    <rect
       rx="0.56352949"
       ry="0.56352949"
       y="348.74661"
       x="100.62192"
       height="2.8066938"
       width="2.6415942"
       id="rect3333"
       style="fill:#ff6600;fill-opacity:1;stroke:none" />
    <rect
       rx="0.56352949"
       ry="0.56352949"
       y="348.74661"
       x="103.80105"
       height="2.8066938"
       width="2.6415942"
       id="rect3335"
       style="fill:#ff6600;fill-opacity:1;stroke:none" />
    <rect
       rx="0.56352949"
       ry="0.56352949"
       y="348.74661"
       x="106.98018"
       height="2.8066938"
       width="2.6415942"
       id="rect3337"
       style="fill:#ff6600;fill-opacity:1;stroke:none" />
    <rect
       rx="0.56352949"
       ry="0.56352949"
       y="348.74661"
       x="110.15931"
       height="2.8066938"
       width="2.6415942"
       id="rect3339"
       style="fill:#ff6600;fill-opacity:1;stroke:none" />
    <rect
       rx="0.56352949"
       ry="0.56352949"
       y="348.74661"
       x="113.33843"
       height="2.8066938"
       width="2.6415942"
       id="rect3341"
       style="fill:#ff6600;fill-opacity:1;stroke:none" />
    <rect
       rx="0.56352949"
       ry="0.56352949"
       y="348.74661"
       x="116.51756"
       height="2.8066938"
       width="2.6415942"
       id="rect3343"
       style="fill:#ff6600;fill-opacity:1;stroke:none" />
    <rect
       rx="0.56352949"
       ry="0.56352949"
       y="348.74661"
       x="119.69669"
       height="2.8066938"
       width="2.6415942"
       id="rect3345"
       style="fill:#ff6600;fill-opacity:1;stroke:none" />
    <rect
       rx="0.56352949"
       ry="0.56352949"
       y="351.94687"
       x="89.564087"
       height="2.8066938"
       width="2.6415942"
       id="rect3349"
       style="fill:#ff6600;fill-opacity:1;stroke:none" />
    <rect
       rx="0.56352949"
       ry="0.56352949"
       y="351.94687"
       x="92.74321"
       height="2.8066938"
       width="2.6415942"
       id="rect3351"
       style="fill:#ff6600;fill-opacity:1;stroke:none" />
    <rect
       rx="0.56352949"
       ry="0.56352949"
       y="351.94687"
       x="95.92234"
       height="2.8066938"
       width="2.6415942"
       id="rect3353"
       style="fill:#ff6600;fill-opacity:1;stroke:none" />
    <rect
       rx="0.56352949"
       ry="0.56352949"
       y="351.94687"
       x="99.101471"
       height="2.8066938"
       width="2.6415942"
       id="rect3355"
       style="fill:#ff6600;fill-opacity:1;stroke:none" />
    <rect
       rx="0.56352949"
       ry="0.56352949"
       y="351.94687"
       x="102.28059"
       height="2.8066938"
       width="2.6415942"
       id="rect3357"
       style="fill:#ff6600;fill-opacity:1;stroke:none" />
    <rect
       rx="0.56352949"
       ry="0.56352949"
       y="351.94687"
       x="105.45972"
       height="2.8066938"
       width="2.6415942"
       id="rect3359"
       style="fill:#ff6600;fill-opacity:1;stroke:none" />
    <rect
       rx="0.56352949"
       ry="0.56352949"
       y="351.94687"
       x="108.63885"
       height="2.8066938"
       width="2.6415942"
       id="rect3361"
       style="fill:#ff6600;fill-opacity:1;stroke:none" />
    <rect
       rx="0.56352949"
       ry="0.56352949"
       y="351.94687"
       x="111.81798"
       height="2.8066938"
       width="2.6415942"
       id="rect3363"
       style="fill:#ff6600;fill-opacity:1;stroke:none" />
    <rect
       rx="0.56352949"
       ry="0.56352949"
       y="351.94687"
       x="114.99711"
       height="2.8066938"
       width="2.6415942"
       id="rect3365"
       style="fill:#ff6600;fill-opacity:1;stroke:none" />
    <rect
       rx="0.56352949"
       ry="0.56352949"
       y="351.94687"
       x="118.17624"
       height="2.8066938"
       width="2.6415942"
       id="rect3367"
       style="fill:#ff6600;fill-opacity:1;stroke:none" />
    <rect
       rx="0.59205288"
       ry="0.59205288"
       y="342.33582"
       x="142.64938"
       height="2.9487565"
       width="2.7968891"
       id="rect3373"
       style="fill:#ff6600;fill-opacity:1;stroke:none" />
    <rect
       rx="0.59205288"
       ry="0.59205288"
       y="342.32043"
       x="145.74062"
       height="2.9487565"
       width="2.7968891"
       id="rect3375"
       style="fill:#ff6600;fill-opacity:1;stroke:none" />
    <rect
       rx="0.59205288"
       ry="0.59205288"
       y="342.32043"
       x="148.83186"
       height="2.9487565"
       width="2.7968891"
       id="rect3377"
       style="fill:#ff6600;fill-opacity:1;stroke:none" />
    <rect
       rx="0.59205288"
       ry="0.59205288"
       y="345.48944"
       x="142.64938"
       height="2.9487565"
       width="2.7968891"
       id="rect3379"
       style="fill:#ff6600;fill-opacity:1;stroke:none" />
    <rect
       rx="0.59205288"
       ry="0.59205288"
       y="345.47919"
       x="145.74574"
       height="2.9487565"
       width="2.7968891"
       id="rect3381"
       style="fill:#ff6600;fill-opacity:1;stroke:none" />
    <rect
       rx="0.59205288"
       ry="0.59205288"
       y="345.47919"
       x="148.8421"
       height="2.9487565"
       width="2.7968891"
       id="rect3383"
       style="fill:#ff6600;fill-opacity:1;stroke:none" />
    <rect
       rx="0.59205288"
       ry="0.59205288"
       y="348.64307"
       x="142.64938"
       height="2.9487565"
       width="2.7968891"
       id="rect3385"
       style="fill:#ff6600;fill-opacity:1;stroke:none" />
    <rect
       rx="0.59205288"
       ry="0.59205288"
       y="348.63797"
       x="145.74202"
       height="2.9487565"
       width="2.7968891"
       id="rect3387"
       style="fill:#ff6600;fill-opacity:1;stroke:none" />
    <rect
       rx="0.59205288"
       ry="0.59205288"
       y="348.63797"
       x="148.83464"
       height="2.9487565"
       width="2.7968891"
       id="rect3389"
       style="fill:#ff6600;fill-opacity:1;stroke:none" />
    <rect
       rx="0.59205288"
       ry="0.59205288"
       y="351.79672"
       x="142.64659"
       height="2.9487565"
       width="2.7968891"
       id="rect3391"
       style="fill:#ff6600;fill-opacity:1;stroke:none" />
    <rect
       rx="0.59205288"
       ry="0.59205288"
       y="351.79672"
       x="145.73923"
       height="2.9487565"
       width="2.7968891"
       id="rect3393"
       style="fill:#ff6600;fill-opacity:1;stroke:none" />
    <rect
       rx="0.59205288"
       ry="0.59205288"
       y="351.79672"
       x="148.83186"
       height="2.9487565"
       width="2.7968891"
       id="rect3395"
       style="fill:#ff6600;fill-opacity:1;stroke:none" />
    <rect
       rx="0.57924259"
       ry="0.57924259"
       y="342.33578"
       x="152.0376"
       height="2.9104321"
       width="2.7392261"
       id="rect3397"
       style="fill:#ff6600;fill-opacity:1;stroke:none" />
    <rect
       rx="0.59205288"
       ry="0.59205288"
       y="351.55579"
       x="134.70787"
       height="2.9487565"
       width="2.7968891"
       id="rect3401"
       style="fill:#ff6600;fill-opacity:1;stroke:none" />
    <rect
       rx="0.59205288"
       ry="0.59205288"
       y="354.97818"
       x="134.70787"
       height="2.9487565"
       width="2.7968891"
       id="rect3403"
       style="fill:#ff6600;fill-opacity:1;stroke:none" />
    <rect
       rx="0.59205288"
       ry="0.59205288"
       y="354.97818"
       x="137.83549"
       height="2.9487565"
       width="2.7968891"
       id="rect3405"
       style="fill:#ff6600;fill-opacity:1;stroke:none" />
    <rect
       rx="0.59205288"
       ry="0.59205288"
       y="354.97818"
       x="131.58023"
       height="2.9487565"
       width="2.7968891"
       id="rect3407"
       style="fill:#ff6600;fill-opacity:1;stroke:none" />
    <rect
       rx="0.59205288"
       ry="0.59205288"
       y="342.35382"
       x="82.337242"
       height="2.8105326"
       width="2.7968893"
       id="rect3409"
       style="fill:#ff6600;fill-opacity:1;stroke:none" />
    <rect
       rx="0.59205288"
       ry="0.59205288"
       y="345.55029"
       x="82.322739"
       height="2.8018327"
       width="4.2646871"
       id="rect3411"
       style="fill:#ff6600;fill-opacity:1;stroke:none" />
    <rect
       rx="0.59205288"
       ry="0.59205288"
       y="348.75394"
       x="82.322739"
       height="2.8018346"
       width="5.0383143"
       id="rect3413"
       style="fill:#ff6600;fill-opacity:1;stroke:none" />
    <rect
       rx="0.59205288"
       ry="0.59205288"
       y="351.94675"
       x="82.322739"
       height="2.8010671"
       width="6.6372886"
       id="rect3415"
       style="fill:#ff6600;fill-opacity:1;stroke:none" />
    <rect
       rx="0.59205288"
       ry="0.59205288"
       y="355.13174"
       x="82.322739"
       height="2.7951765"
       width="4.301125"
       id="rect3417"
       style="fill:#ff6600;fill-opacity:1;stroke:none" />
    <rect
       rx="0.59205288"
       ry="0.59205288"
       y="355.13174"
       x="90.507751"
       height="2.7951756"
       width="4.2712674"
       id="rect3419"
       style="fill:#ff6600;fill-opacity:1;stroke:none" />
    <rect
       rx="0.59205288"
       ry="0.59205288"
       y="355.13174"
       x="117.20014"
       height="2.7951756"
       width="4.3184328"
       id="rect3421"
       style="fill:#ff6600;fill-opacity:1;stroke:none" />
    <rect
       rx="0.59205288"
       ry="0.59205288"
       y="355.13174"
       x="125.12492"
       height="2.7951756"
       width="4.1936173"
       id="rect3423"
       style="fill:#ff6600;fill-opacity:1;stroke:none" />
    <rect
       rx="0.59205288"
       ry="0.59205288"
       y="345.55029"
       x="125.29868"
       height="2.8085306"
       width="4.0360794"
       id="rect3425"
       style="fill:#ff6600;fill-opacity:1;stroke:none" />
    <rect
       rx="0.59205288"
       ry="0.59205288"
       y="348.75394"
       x="122.82648"
       height="2.7993665"
       width="6.5082798"
       id="rect3427"
       style="fill:#ff6600;fill-opacity:1;stroke:none" />
    <rect
       rx="0.59205288"
       ry="0.59205288"
       y="351.97345"
       x="121.33411"
       height="2.7801201"
       width="8.0006523"
       id="rect3429"
       style="fill:#ff6600;fill-opacity:1;stroke:none" />
    <rect
       rx="0.59205288"
       ry="0.59205288"
       y="342.33844"
       x="123.77277"
       height="2.8208961"
       width="5.561986"
       id="rect3431"
       style="fill:#ff6600;fill-opacity:1;stroke:none" />
    <rect
       rx="0.59205288"
       ry="0.59205288"
       y="355.13174"
       x="142.64659"
       height="2.7951756"
       width="5.8695822"
       id="rect3433"
       style="fill:#ff6600;fill-opacity:1;stroke:none" />
    <rect
       rx="0.59205288"
       ry="0.59205288"
       y="345.45615"
       x="152.0683"
       height="6.1125255"
       width="2.7047484"
       id="rect3437"
       style="fill:#ff6600;fill-opacity:1;stroke:none" />
    <rect
       rx="0.59205288"
       ry="0.59205288"
       y="355.13174"
       x="95.299484"
       height="2.7951756"
       width="21.410912"
       id="rect3439"
       style="fill:#ff6600;fill-opacity:1;stroke:none" />
    <rect
       rx="0.59205288"
       ry="0.59205288"
       y="351.78369"
       x="152.1059"
       height="6.1432409"
       width="2.6709156"
       id="rect3441"
       style="fill:#ff6600;fill-opacity:1;stroke:none" />
    <rect
       rx="0.59205288"
       ry="0.59205288"
       y="355.13174"
       x="148.82564"
       height="2.7951756"
       width="2.7885013"
       id="rect3447"
       style="fill:#ff6600;fill-opacity:1;stroke:none" />
  </g>
  <g
     id="g4212"
     transform="translate(13.71875,-11.65)">
    <path
       sodipodi:nodetypes="cccccc"
       inkscape:connector-curvature="0"
       id="path4027-9-0-8-2-0"
       d="m 153.65984,237.12313 -80.595203,0.39177 -24.53272,76.77028 65.433153,47.05487 64.97263,-47.68876 z"
       inkscape:transform-center-y="3.8795083"
       inkscape:transform-center-x="0.10504909"
       style="fill:#000000;fill-opacity:1;fill-rule:nonzero;stroke:#ff6600;stroke-width:8.90000057;stroke-linecap:butt;stroke-linejoin:miter;stroke-miterlimit:4;stroke-opacity:1;stroke-dasharray:none" />
    <g
       transform="matrix(0.87886768,0.00966251,-0.00966251,0.87886768,-94.334951,-12.487117)"
       id="g3603">
      <path
         inkscape:connector-curvature="0"
         style="fill:#ff6600;stroke:none"
         d="m 240.1294,316.78183 c 0.73107,0.12085 2.24945,2.40301 2.06554,6.59434 -0.50597,0.2691 -1.09302,0.11119 -1.47638,0.10519 -1.19833,-0.31558 -0.0798,-3.47767 -1.75949,-4.65329 -2.43231,-1.7023 -19.41683,-1.2874 -28.10851,-0.49738 -3.76405,0.34218 -3.30679,7.75937 -3.37988,11.68548 -0.0608,3.2674 0.0523,6.83874 1.34364,10.4642 1.11159,3.12102 5.21256,2.04848 8.93937,2.18521 6.70447,0 18.94228,0.22157 20.41889,-0.36771 1.06984,-0.42702 1.50568,-1.99706 1.73078,-3.00935 0.3943,-1.77314 -0.0198,-3.01312 1.39107,-2.97982 0.74283,0.0175 0.88898,0.68918 0.77566,1.97352 -0.11778,1.33506 -0.51691,3.11125 -1.07407,5.17797 -0.40254,1.49297 -3.17844,1.19186 -5.01594,1.19186 -9.28705,-0.24816 -18.67318,0.0498 -27.66236,-0.19862 -2.60516,-0.0719 -2.65764,-12.3803 -2.79694,-14.61458 -0.16366,-2.62589 0.26225,-13.16739 2.47995,-13.28506 1.64804,-0.0874 10.8568,-0.70471 16.30847,-0.70612 5.30175,-10e-4 10.94651,0.12849 15.8202,0.93416"
         id="path4300" />
      <path
         inkscape:connector-curvature="0"
         style="fill:#ff6600;stroke:none"
         d="m 231.80828,318.6784 c 0.64565,1.8375 -0.94358,4.71801 1.44026,5.71124 8.64129,1.48991 18.72295,-1.73819 26.07307,2.78108 1.98646,1.93682 3.47637,4.17169 4.41995,6.55552 l 0,-1.09255 c -1.09254,-3.02947 -3.32741,-5.61194 -5.46296,-8.24405 0.59599,-0.79461 1.29128,0.14897 1.88715,0.39725 2.18521,2.73142 4.41996,5.51263 5.26434,8.79038 0.14885,0.19863 0.44691,0.59599 0.69519,0.24828 l 0.3477,-0.34759 c -0.74495,-3.52603 -2.97982,-6.40655 -4.86697,-9.43603 0.84426,-0.54633 1.68853,0.39737 2.38383,0.94358 1.44025,2.38383 3.02948,4.76768 3.57569,7.54876 0.39725,0.29793 0.89392,-0.24828 1.09255,-0.59599 -0.29794,-2.18521 -1.04301,-4.12202 -1.93693,-5.95954 0.14896,-0.24827 0.14896,-0.59598 0.49667,-0.59598 2.13555,1.1422 2.0859,3.62547 2.83074,5.56228 0.69529,-0.0497 1.04289,-2.23486 1.93681,-0.94357 0.29793,0.79461 -1.19186,2.03624 0.34771,2.13555 -0.74496,3.57569 -4.66836,6.35688 -8.09508,7.1515 -1.78784,0.39724 -4.17168,0.94346 -5.51262,-0.44691 0.24828,-0.64564 1.1422,-0.74495 1.78785,-0.84426 3.97305,-0.14897 7.74748,-1.58922 10.13131,-4.76767 l -0.0993,-0.0993 c -3.77443,2.5328 -8.44266,4.96629 -13.11102,3.07913 -0.39724,-0.0993 -0.59598,-0.64564 -0.34759,-0.94358 0.0993,-0.29793 -0.19862,-0.4469 -0.34771,-0.49667 -7.89645,0.34759 -16.19062,-0.74413 -23.83867,0.49738 -0.83897,0.13626 -0.93358,0.91145 -1.09243,1.53933 -0.40172,1.58981 0.61305,3.8415 -0.33229,4.68859 0,0 -0.69848,0.20486 -1.2068,-0.0208 -0.11897,-0.65999 -0.49739,-4.37065 0.34688,-6.35712 1.06807,-2.51303 10.58469,-1.66535 13.33577,-1.72101 5.027,-0.10154 10.90051,-0.26522 15.61851,0.0825 -1.34094,-1.34094 -3.42672,-1.3906 -5.46296,-1.34094 -6.4562,-0.0993 -16.54456,-0.0658 -20.63611,-0.29017 -6.05177,-0.33206 -8.21815,5.75313 -12.04224,9.72618 l -1.78785,0 c 2.38384,-3.32729 4.95347,-7.12149 8.24405,-10.03188 0.53056,-0.46926 0.89957,-0.54304 1.78784,-0.7945 2.47397,-0.70047 26.47043,0.0993 26.47043,0.0993 1.09255,0.24827 2.28453,0.39724 3.32741,0.84414 -0.59598,-1.53956 -2.53279,-1.93681 -4.07236,-2.13531 -8.59175,-0.24828 -17.2827,-0.0497 -25.72548,-0.59599 -2.28452,-0.6953 -3.47638,-3.52605 -5.26434,-5.26435 l -3.82408,-4.86698 1.93681,0.0993 c 2.48314,2.88039 4.18603,6.4136 7.39977,8.69096 0.70836,0.50197 15.83833,0.35618 23.83762,0.34759 1.28964,-0.001 3.97364,0.84427 5.71183,1.78796 0.29793,-0.39724 -0.19862,-0.74495 -0.49668,-1.04289 -3.62546,-3.47639 -11.10337,-2.39373 -13.80573,-2.38443 -4.74024,0.0165 -10.38218,1.00277 -14.30358,-1.43967 -0.95793,-0.59669 -0.79449,-4.22133 -0.34747,-6.20791 l 1.29117,0"
         id="path4302" />
      <path
         inkscape:connector-curvature="0"
         style="fill:#ff6600;stroke:none"
         d="m 273.17758,333.92498 c -0.84427,3.57581 -3.47638,6.80379 -6.80391,8.59175 -2.08589,0.44702 -4.76766,1.8375 -6.4562,-0.24828 1.14232,-1.04289 3.2281,-0.34759 4.56905,-1.19197 3.47637,-0.99324 6.33735,-4.05648 8.09507,-7.1515 0.22475,-0.15544 0.37595,-0.33217 0.59599,0"
         id="path4304" />
      <path
         inkscape:connector-curvature="0"
         style="fill:#ff6600;stroke:none"
         d="m 274.22188,337.00682 c -0.59599,3.07913 -2.0859,6.30723 -5.26434,7.84679 -1.3906,0.64565 -3.57569,1.3906 -4.86698,0.24828 l 0,-0.49667 c 4.91664,0.19862 7.39978,-4.96629 9.38636,-8.44267 0.54634,-0.0497 0.59599,0.4469 0.74496,0.84427"
         id="path4306" />
      <path
         inkscape:connector-curvature="0"
         style="fill:#ff6600;stroke:none"
         d="m 277.44892,348.82361 c 2.33912,0.49703 4.61834,-1.83738 5.11502,1.19209 -1.98659,1.04289 -4.66835,0.74496 -6.75413,0.14897 -0.44702,0.89392 0.19862,1.88716 0,2.97982 -0.29794,2.93016 -1.3906,5.71124 -3.97306,7.49909 -0.74801,0.3883 -0.90333,0.6174 -1.34506,0.69529 0.13391,-0.67094 0.17968,-1.21821 0.29417,-1.63546 0.51139,-0.34359 2.76555,-1.7909 2.83874,-3.72819 1.1422,-4.07236 -0.0993,-8.09507 -2.83085,-11.07489 l 1.78784,-1.63888 c 1.04289,2.08578 2.22345,5.00029 4.86721,5.56204"
         id="path4308" />
      <path
         inkscape:connector-curvature="0"
         style="fill:#ff6600;stroke:none"
         d="m 269.35361,346.09242 c 2.88039,5.56228 0.19862,12.06813 -0.49668,17.77937 0.29794,2.13556 0.59599,4.32065 2.38384,5.81056 -0.19863,0.49667 0.0993,1.73819 -0.6953,1.44025 -2.5328,-1.34094 -3.37707,-4.02271 -3.32741,-6.80379 -0.0993,-4.91663 2.5328,-8.84003 1.88715,-13.80632 l -0.4469,-0.94346 c -2.03624,2.1851 -4.32064,4.91664 -4.17168,8.34324 l -1.34094,0.24828 c -1.48991,-4.76766 3.72478,-7.5005 4.42007,-11.77149 0,0 1.14221,-0.44549 1.78785,-0.29664"
         id="path4310" />
    </g>
  </g>
  <g
     id="g4665"
     transform="translate(391.71827,53.47683)">
    <rect
       y="4.2025023"
       x="4.5"
       height="248"
       width="736"
       id="rect4678"
       style="fill:#ff6600;fill-opacity:1;fill-rule:nonzero;stroke:#ff6600;stroke-width:9;stroke-linecap:round;stroke-linejoin:miter;stroke-miterlimit:4;stroke-opacity:1;stroke-dasharray:none" />
    <rect
       y="7.5810475"
       x="271.49289"
       height="239.07234"
       width="297.66403"
       id="rect3871"
       style="fill:#ff6600;fill-opacity:1;stroke:#ff6600;stroke-width:7.11335325;stroke-miterlimit:4;stroke-opacity:1;stroke-dasharray:none" />
    <path
       style="fill:#000000;fill-opacity:1;stroke:#ff6600;stroke-width:11;stroke-miterlimit:4;stroke-opacity:1;stroke-dasharray:none"
       sodipodi:nodetypes="cccccccccccccccccccccccccccccccccccccccc"
       id="path1103"
       d="m 6.9375,128.28375 75,-118.7499969 c 0,0 68.75,0 68.75,0 0,0 -68.75,118.7499969 -68.75,118.7499969 0,0 68.75,116.25 68.75,116.25 l -75,0 -68.75,-116.25 z m 87.5,0 68.75,-118.7499969 c 0,0 75,0 75,0 0,0 -68.75,118.7499969 -68.75,118.7499969 l 68.75,116.25 -75,0 -68.75,-116.25 z m 87.5,0 68.75,-118.7499969 c 0,0 75,0 75,0 0,0 -67.5,118.7499969 -67.5,118.7499969 l 67.5,116.25 -75,0 -68.75,-116.25 z M 425.6875,9.5337531 c 0,0 68.75,0 68.75,0 l -87.5,234.9999969 -68.75,0 87.5,-234.9999969 z m 150,118.7499969 c 0,0 -68.75,-118.7499969 -68.75,-118.7499969 0,0 75,0 75,0 0,0 68.75,118.7499969 68.75,118.7499969 l -68.75,116.25 -75,0 c 0,0 68.75,-116.25 68.75,-116.25 z m 18.75,116.25 c 0,0 68.75,-116.25 68.75,-116.25 0,0 -68.75,-118.7499969 -68.75,-118.7499969 l 75,0 68.75,118.7499969 -68.75,116.25 c 0,0 -75,0 -75,0 z"
       inkscape:connector-curvature="0" />
  </g>
</svg>
