<svg xmlns="http://www.w3.org/2000/svg" viewBox="0 0 628.09 341.11"><defs><style>.a{fill:#3a3a39;}.b{fill:#737172;}</style></defs><path class="a" d="M345.35,286.58c-2.25-1.78-5.82-1.9-8.55-2.14s-5.7-.47-8.66-.47h-3.57c0-.24-.12-.48-.12-.83a19.36,19.36,0,0,1-.23-2.73,14.84,14.84,0,0,1,1.07-5.94,2,2,0,0,0-3.92-1.07,20.26,20.26,0,0,0-1.19,7,12.17,12.17,0,0,0,.48,3.56v.12c-3.21.23-6.53.59-9.74,1a2.08,2.08,0,0,0-2,2c0,1.07,1,2.26,2,2a113.93,113.93,0,0,1,16.86-.71c2.73.12,5.46.24,8.19.48,1.43.11,2.85.35,4.28.47a10.2,10.2,0,0,0,4.27-.12A1.53,1.53,0,0,0,345.35,286.58Z"/><path class="a" d="M337.52,292.75a13.65,13.65,0,0,0-5.35-.71c-1.9,0-3.68.12-5.58.24-3.68.12-7.24.36-10.92.47-3.09.12-3.09,4.87,0,4.75,3.68-.12,7.24-.35,10.92-.47,1.78-.12,3.56-.12,5.34-.24a14.72,14.72,0,0,0,5.59-1.07C338.58,295.13,338.7,293.23,337.52,292.75Z"/><path class="a" d="M332.88,302.61c-.59-1.07-1.89-1.31-3-1.55a11.88,11.88,0,0,0-2.73-.35,31.38,31.38,0,0,0-4.75.12,3,3,0,0,0-1.67.71,2.71,2.71,0,0,0-.71,1.66,2.15,2.15,0,0,0,.71,1.66,3,3,0,0,0,1.67.72,18.91,18.91,0,0,1,4.51-.12c.71,0,1.42.12,2.14.12,1,.12,2.13.35,3-.24A2,2,0,0,0,332.88,302.61Z"/><path class="a" d="M395.93,197.18c-3.09.95-6.53-.6-9.5-1.43-3.44-.83-7.36-1.3-10.45.83a11.68,11.68,0,0,0-4.27,6.06A82.36,82.36,0,0,1,374,175.69c1.06-4.28-5.47-6.06-6.65-1.79-2.5,9.15-5.11,18.29-7.6,27.43-1.43,5.23-2.61,10.69-4.63,15.91-2.26-13.06-1.19-26.48-.24-39.65.36-3.92-5.7-4.52-6.77-1-3.08,11.51-6.29,22.91-9.38,34.43-1.66-7.36-2-15-2.25-22.44-.12-3.21-4.75-5-6.41-1.78A55.17,55.17,0,0,0,325.17,201c-7.48,0-14.84.11-22.32.11-4.4,0-4.4,6.89,0,6.89,8.43,0,16.74-.12,25.17-.12a3.5,3.5,0,0,0,2.85-1.54,62.73,62.73,0,0,0,5.22,17.81c1.31,2.73,5.58,1.9,6.29-.83l4.51-16.74a82.37,82.37,0,0,0,3.69,21.37,3.5,3.5,0,0,0,6.29.83c4.39-6.53,6.29-14.49,8.31-22.09q.54,4.46,1.42,8.91c.48,2.26,3.21,3,5,2,3-1.43,4.51-4.51,5.22-7.48.6-2.26.6-5.82,2.5-7.6s5.34-.24,7.48.36c3.56.94,7.36,1.89,10.92.83C402,202.52,400.2,195.87,395.93,197.18Z"/><path class="a" d="M419.91,219.38c3.21.12,6.42.12,9.62.24,2.85.11,5.94.47,8.43-1.43a8.51,8.51,0,0,0,2.61-4.15,138.27,138.27,0,0,1,1.9,19.94c.12,4,6.06,5,7.13,1,2.49-10,5.1-19.94,7.6-29.92.59,2.85,1.18,5.82,1.54,8.67a130.61,130.61,0,0,1,1.19,18,3.63,3.63,0,0,0,6.17,2.49c4.16-3.92,2.85-9,4-14a4.4,4.4,0,0,1,7.24-2.14c3.32,3.33,8.31-1.78,5.1-5.1-4.27-4.4-11.87-4.28-16.26-.12l-.24.24c-.24-1.67-.47-3.21-.71-4.87-.95-5.58-1.78-16-9.38-16a3.56,3.56,0,0,0-3.44,2.61l-4.52,17.81a130.52,130.52,0,0,0-3-13.42c-1-3.56-5.82-3.32-6.89,0-.71,2.38-1.54,4.63-2.26,7l-1.18,3.68c-.12.48-.6,1.9-.72,2.26-.11,0-.35.11-.47.11H432c-1.3,0-2.61-.11-3.91-.11-2.62-.12-5.23-.12-7.84-.24C415.28,212,415.28,219.26,419.91,219.38Z"/><path class="a" d="M599.79,141.85A7,7,0,0,0,594,148c-2.61-.12-5.1-.12-7.72-.12-3.32,0-6.64,0-10.09.12-2.37,0-2.37,3.8,0,3.68,3.45-.12,6.77-.12,10.21-.24,2.62-.11,5.35-.23,8-.47a7.77,7.77,0,0,0,2,2.85,6.3,6.3,0,0,0,4.27,1.54,5.21,5.21,0,0,0,5.11.24c3.2-1.78,3.32-6.17,2-9.14a8,8,0,0,0-3.33-3.8A5.79,5.79,0,0,0,599.79,141.85Zm3.21,4.27a.11.11,0,0,1,.11.12c-.11-.12.12.12.24.12l.36.36a.38.38,0,0,1,.12.23h0a2.64,2.64,0,0,0,.35.6c.12.12.12.23.24.35h0V148c.12.24.12.48.24.71s.12.24.12.48h0v1.19a1.28,1.28,0,0,1-.24.71.12.12,0,0,1-.12.12c-.12.12-.12.24-.24.35h0l-.35.36h0c-.12,0-.12,0-.12.12s-.12,0-.24.12h-.24c-.12,0-.23-.12-.35-.12s-.12-.12-.24-.12h0v-.12h0a1.87,1.87,0,0,0-1.9-1.9,2.51,2.51,0,0,0-1.31.48h0l-.11-.12-.36-.71h0c0-.12-.12-.24-.12-.36a.44.44,0,0,0-.12-.36v-.71c0-.12.12-.24.12-.36v-.11a.12.12,0,0,1,.12-.12c.12-.12.12-.24.24-.36l.12-.12h0c.11-.12.11-.24.23-.24l.24-.23a.26.26,0,0,0,.24-.24c.12-.12.24-.12.47-.24h0a.12.12,0,0,0,.12-.12c.24-.12.48-.12.71-.23h.72c.23,0,.35.11.59.11h0C602.64,146,602.76,146.12,603,146.12Z"/><path class="a" d="M602.4,151.94Z"/><path class="a" d="M404.12,107.3a6,6,0,0,0-4.51-1.9,6.25,6.25,0,0,0-4.15,1.78c-2.62,2.49-2.5,6.88-.36,9.62a.73.73,0,0,0,.71.35,6,6,0,0,0,2.38,2.14v.24c0,.71-.12,1.54-.12,2.37-.12,1.54-.12,3.21-.12,4.75a2.34,2.34,0,0,0,2.25,2.26,2.26,2.26,0,0,0,2.26-2.26c0-1.54,0-3.21-.12-4.75,0-.83-.12-1.54-.12-2.37h0a6.59,6.59,0,0,0,4.16-4.16C407.57,112.64,406.26,109.32,404.12,107.3Zm-1.54,7h0c-.12.12-.12.24-.24.36a.42.42,0,0,0-.12.24l-.12.11a1.62,1.62,0,0,1-.47.48h0c-.12,0-.12.12-.24.12a.43.43,0,0,1-.35.12h-.24c-.12,0-.24,0-.24.12h-.47a.44.44,0,0,1-.36-.12,1.21,1.21,0,0,1-.36-.12h-.12l-.11-.12-.12-.12-.24-.24h0c0-.12-.12-.23-.24-.35a.12.12,0,0,0-.12-.12v-.6h0a1.92,1.92,0,0,0-1.3-2.37h-.24c0-.12,0-.24.12-.24h0c.12-.12.12-.23.24-.35s.12-.24.23-.36h0l.48-.47h0a.12.12,0,0,0,.12-.12c.12,0,.24-.12.35-.24h.12c.12,0,.24-.12.36-.12h.71c.12,0,.24.12.36.12h.12c.11,0,.23.12.35.24a.62.62,0,0,0,.48.23s.35.36.47.36.36.36.24.36c.12.23.24.35.36.59a.47.47,0,0,1,.11.36c.12.23.12.47.24.59a.44.44,0,0,0,.12.36v.71h0V114C402.7,114.06,402.7,114.18,402.58,114.3Z"/><path class="a" d="M244.93,100.73h1.38a17.75,17.75,0,0,0,3.84.28c2.75,0,5.49-.28,8-.28,4.95,0,10.17-.27,15.38-.27,8.52,0,17,.55,24.72,2.75,16.2,4.66,30.21,25.54,30.21,43.11v1.1c-.28,6.32-3.85,12.08-6.87,17.3-2.19,3.57-3.57,7.14-6.31,10.16-2.75,3.57-13.18,6.87-13.18,11.54a19.18,19.18,0,0,0,2.19,5.49c2.2,4.67,5.22,9.06,8,13.73,1.92,3.3,4.39,10.16,6.59,13.46,3.57,5.49,7.69,10.43,10.43,16.47,2.47,4.4,3.57,9.07,5.77,13.74.82,2.19,2.2,4.12,2.75,6.31a15.92,15.92,0,0,1,.27,3.57c0,7.42-4.12,14.83-11.53,17a12.85,12.85,0,0,1-4.4.55c-6.31,0-11.26-4.12-14.55-9.89-3.57-6.59-5.77-11-9.34-17.57-7.69-14.83-14.28-29.94-23.62-43.67-3.57-5.22-4.12-8-9.61-8.79-1.37,0-2.47-.55-3.57-.55a4.86,4.86,0,0,0-4.12,2.2c-1.1,1.92-1.1,4.94-1.37,7.14a45.68,45.68,0,0,0-.28,6.32c0,6.86.83,14.83.83,20.87V235c0,6.86,1.1,13.73,1.1,20.59A68.58,68.58,0,0,1,257,263c-1.38,10.43-11.26,16.48-21.15,16.48-2.75,0-5.22,0-7.41-1.65-5.22-3.85-5.5-11.26-5.77-17.58-.28-4.39-.28-8.51-.28-12.91v-5.49c0-2.47.28-5.22.28-7.69,0-10.43-.83-21.69-.83-32.13,0-3.84,0-7.69.28-11.53.55-6.59.82-16.21,1.37-22.52,0-.83.28-1.65.28-2.47,0-2.2-.55-4.4-.55-6.87.27-4.39.27-9.06.27-13.73v-17.3c-.27-2.75-.55-5.77-.55-8.52,0-6.59,1.93-12.63,10.71-15.38C237.24,102.66,241.09,100.73,244.93,100.73Zm13.18,37.35a13.3,13.3,0,0,0,.28,3.85,27.11,27.11,0,0,1,.27,4.94c0,3.57-.27,8-.27,11.26v4.67c0,1.92.27,4.39,1.37,5.22a4.1,4.1,0,0,0,2.75.82c1.65,0,3.57-.55,4.67-.55,7.41,0,9.06-1.1,15.38-5.49,1.92-.82,5.21-3.85,6.86-6a24.17,24.17,0,0,0,3-5.5c.55-.54.55-1.64.55-2.74V146.6c0-2.48-2.74-9.89-4.39-11.81-3.85-3-7.69-5.77-14.56-5.77-2.19,0-5.76-.55-9.06-.55a13.48,13.48,0,0,0-4.94.82C258.66,130.39,258.11,134.79,258.11,138.08Z"/><path class="a" d="M405,122.7a44.1,44.1,0,0,1,21.14,5.5c11.81,6.31,17,20.59,17,34.87a55.48,55.48,0,0,1-.82,9.62c-.55,3.29-.83,6.86-2.2,10.16-3.3,7.69-5.77,16.2-11,22.79-7.41,9.06-17.3,16.2-24.71,26.09-1.1,1.37-4.12,4.12-4.12,6.59a1.66,1.66,0,0,0,.27,1.1c.55,1.37,2.47,1.65,3.85,1.65,4.12,0,9.06-1.1,13.45-1.65a37.62,37.62,0,0,1,5.22-.27c3.85,0,6.59.54,12.08.54h1.65c7.42,0,14.83.28,20.05,6.6a11.31,11.31,0,0,1,2.75,7.41c0,6.32-4.95,12.63-11.81,14.28a22.49,22.49,0,0,1-6,.55c-3,0-6.32-.27-9.34-.27h-1.92A232.55,232.55,0,0,0,407,270.18a110.18,110.18,0,0,1-13.46.55c-4.67,0-9.06,0-13.73.27-4.39.28-9.06,1.1-13.46,1.1a27,27,0,0,1-4.66-.27c-3.85-.55-5.77-2.48-8-5.5-1.37-1.92-2.75-3.57-3.29-5.49a10.66,10.66,0,0,1-.55-4.12c0-4.39,1.92-8.51,4.12-12.36,7.69-12.36,22.24-19,31.85-31.3,2.2-2.75,6.32-6.32,8.52-9.07,4.66-5.76,6.86-8,11-13.73,4.39-5.77,8.24-14.83,8.24-23.07a23.76,23.76,0,0,0-.82-6.31c-2.2-7.14-9.89-9.34-15.66-9.34-3.84,0-8.24,0-11.81,1.37a61.88,61.88,0,0,0-7.41,3.57c-3.57,2.2-9.34,4.67-14,4.67a9.16,9.16,0,0,1-4.12-.82,31.7,31.7,0,0,1-6-6,11.13,11.13,0,0,1-1.92-6c0-6,6.59-9.88,12.08-14.83,3.57-3,12.36-7.14,16.75-8a201.3,201.3,0,0,1,22-2.75Z"/><path class="a" d="M500.33,100.73h1.37a17.84,17.84,0,0,0,3.85.28c2.74,0,5.49-.28,8-.28,4.94,0,10.16-.27,15.38-.27,8.51,0,17,.55,24.72,2.75,16.2,4.66,30.21,25.54,30.21,43.11v1.1c-.28,6.32-3.85,12.08-6.87,17.3-2.2,3.57-3.57,7.14-6.32,10.16-2.74,3.57-13.18,6.87-13.18,11.54a19.2,19.2,0,0,0,2.2,5.49c2.2,4.67,5.22,9.06,8,13.73,1.93,3.3,4.4,10.16,6.59,13.46,3.57,5.49,7.69,10.43,10.44,16.47,2.47,4.4,3.57,9.07,5.77,13.74.82,2.19,2.19,4.12,2.74,6.31a15.36,15.36,0,0,1,.28,3.57c0,7.42-4.12,14.83-11.54,17a12.79,12.79,0,0,1-4.39.55c-6.32,0-11.26-4.12-14.56-9.89-3.57-6.59-5.76-11-9.33-17.57-7.69-14.83-14.28-29.94-23.62-43.67-3.57-5.22-4.12-8-9.61-8.79-1.38,0-2.47-.55-3.57-.55a4.85,4.85,0,0,0-4.12,2.2c-1.1,1.92-1.1,4.94-1.38,7.14A47.35,47.35,0,0,0,511,212c0,6.86.82,14.83.82,20.87V235c0,6.86,1.1,13.73,1.1,20.59a66.14,66.14,0,0,1-.55,7.42c-1.37,10.43-11.26,16.48-21.14,16.48-2.75,0-5.22,0-7.42-1.65-5.22-3.85-5.49-11.26-5.77-17.58-.27-4.39-.27-8.51-.27-12.91v-5.49c0-2.47.27-5.22.27-7.69,0-10.43-.82-21.69-.82-32.13,0-3.84,0-7.69.28-11.53.54-6.59.82-16.21,1.37-22.52,0-.83.27-1.65.27-2.47,0-2.2-.55-4.4-.55-6.87.28-4.39.28-9.06.28-13.73v-17.3c-.28-2.75-.55-5.77-.55-8.52,0-6.59,1.92-12.63,10.71-15.38C492.64,102.66,496.48,100.73,500.33,100.73Zm13.18,37.35a13.3,13.3,0,0,0,.28,3.85,27.11,27.11,0,0,1,.27,4.94c0,3.57-.27,8-.27,11.26v4.67c0,1.92.27,4.39,1.37,5.22a4.1,4.1,0,0,0,2.75.82c1.64,0,3.57-.55,4.66-.55,7.42,0,9.07-1.1,15.38-5.49,1.93-.82,5.22-3.85,6.87-6a24.56,24.56,0,0,0,3-5.5c.55-.54.55-1.64.55-2.74V146.6c0-2.48-2.75-9.89-4.4-11.81-3.84-3-7.68-5.77-14.55-5.77-2.2,0-5.77-.55-9.06-.55a13.53,13.53,0,0,0-5,.82C514.06,130.39,513.51,134.79,513.51,138.08Z"/><path class="a" d="M81.3,187.85,98,191.48Q94.53,234.25,91.07,277a65.59,65.59,0,0,1-17.14-8.28Z"/><path class="a" d="M143.26,191.46l1.62,64q1.8-32.07,3.59-64.13Z"/><path class="a" d="M117.05,281.24a95.93,95.93,0,0,1-28.69-4.05C78.15,273.9,71,268.81,67.78,262.47c-.7-1.37-1.28-3-1.19-8.53.1-6.12,1-16.45,2.76-32.5,1.32-11.87,2.8-23.83,4.4-35.55a.94.94,0,1,1,1.87.25c-1.6,11.71-3.08,23.66-4.4,35.51-3.66,33-3,37.54-1.76,40,3,5.88,9.75,10.65,19.48,13.79,8.9,2.86,20.11,4.25,31.56,3.9s22.42-2.38,31.11-5.74C161,269.92,167.38,264.89,170,259c1.43-3.28,1.12-5.73-.37-17.54-.56-4.42-1.26-9.92-2.09-17.23-1.39-12.26-2.6-24.63-3.59-36.77a.94.94,0,1,1,1.88-.15c1,12.11,2.19,24.47,3.59,36.71.83,7.3,1.52,12.79,2.08,17.2,1.55,12.24,1.87,14.78.22,18.54-2.76,6.32-9.47,11.69-19.38,15.52-8.88,3.43-20.15,5.51-31.74,5.87C119.38,281.22,118.21,281.24,117.05,281.24Z"/><path class="a" d="M166.64,172.91c1.48,3.61,1.43,8-.15,13.09a164.81,164.81,0,0,1-47.83,6,164.49,164.49,0,0,1-45.37-7.42,16.16,16.16,0,0,1,.3-9.75c.13-.34.28-.67.43-1-.58-.25-1.13-.54-1.69-.82-.19.38-.35.76-.5,1.14a18.32,18.32,0,0,0-.24,11.42,1,1,0,0,0,.63.65,166.25,166.25,0,0,0,46.4,7.66c1.22,0,2.43,0,3.64,0a166,166,0,0,0,45.23-6.27.9.9,0,0,0,.64-.61c1.88-5.77,2-10.8.22-15C167.78,172.35,167.2,172.61,166.64,172.91Z"/><path class="a" d="M90.88,133.12a39.53,39.53,0,0,0-8.06-.15,33,33,0,0,0-4,.57,34.26,34.26,0,0,0-3.86,1,47,47,0,0,0-7.41,3,20.64,20.64,0,0,0-3.27,2.13,9.65,9.65,0,0,0-2.44,2.83,6.42,6.42,0,0,0-.62,1.7,7.85,7.85,0,0,0-.12,1.82,9.8,9.8,0,0,0,.31,1.85l.14.46a4,4,0,0,0,.15.45l.16.45.19.44a18.46,18.46,0,0,0,2,3.38,28.11,28.11,0,0,0,2.54,3,37.74,37.74,0,0,0,2.94,2.71,39.64,39.64,0,0,0,3.21,2.42c1.1.76,2.24,1.47,3.41,2.16s2.36,1.3,3.57,1.92c-1.28-.46-2.53-1-3.77-1.55s-2.43-1.22-3.61-1.91a36.47,36.47,0,0,1-6.58-4.91A25.44,25.44,0,0,1,63,153.84a17.88,17.88,0,0,1-2.19-3.58l-.22-.49-.19-.49c-.14-.33-.23-.68-.34-1a11,11,0,0,1-.38-2.15,8.65,8.65,0,0,1,.13-2.21,7.5,7.5,0,0,1,.76-2.11,11.21,11.21,0,0,1,2.83-3.28,20.76,20.76,0,0,1,3.56-2.23,34.21,34.21,0,0,1,3.81-1.61c1.29-.47,2.6-.87,3.91-1.23a32.21,32.21,0,0,1,16.23-.32Z"/><path class="a" d="M85.62,138.13a25,25,0,0,0-10.35,1.14,30.82,30.82,0,0,0-4.8,2,12.65,12.65,0,0,0-2.1,1.37,6.12,6.12,0,0,0-1.53,1.78,5.09,5.09,0,0,0,.13,4.48A14.89,14.89,0,0,0,69.85,153a24.51,24.51,0,0,0,1.88,1.79c.66.57,1.35,1.1,2.06,1.61s1.45,1,2.2,1.46,1.53.89,2.31,1.32c-.85-.28-1.68-.6-2.5-1s-1.62-.77-2.4-1.21A23.37,23.37,0,0,1,69,153.87a15.61,15.61,0,0,1-1.86-2,12,12,0,0,1-1.48-2.38,8.73,8.73,0,0,1-.51-1.35,7.72,7.72,0,0,1-.26-1.45,6,6,0,0,1,.09-1.52,5.23,5.23,0,0,1,.52-1.45,7.56,7.56,0,0,1,1.92-2.23A14.47,14.47,0,0,1,69.81,140a27.29,27.29,0,0,1,5.12-1.84,20.87,20.87,0,0,1,5.38-.72A20.11,20.11,0,0,1,85.62,138.13Z"/><path class="a" d="M155.79,140.15a61.26,61.26,0,0,1,7.71,2.15,42.43,42.43,0,0,1,7.35,3.31,19.86,19.86,0,0,1,3.34,2.4,11.17,11.17,0,0,1,1.43,1.56,7.19,7.19,0,0,1,1.07,1.92,5.33,5.33,0,0,1,.32,2.25,6.93,6.93,0,0,1-.55,2.17,11.59,11.59,0,0,1-2.52,3.43,27.34,27.34,0,0,1-6.77,4.57,50.25,50.25,0,0,1-7.5,3c-1.29.4-2.58.76-3.88,1.08-.65.16-1.3.32-1.95.46l-1,.21-1,.19a75.9,75.9,0,0,1-7.93,1.08c2.61-.54,5.21-1.11,7.77-1.8l1-.26,1-.26,1.9-.57,1.89-.6c.62-.22,1.25-.42,1.87-.65l.93-.34.92-.36.91-.37c.31-.13.62-.24.92-.38,1.2-.52,2.39-1.08,3.55-1.68a32.26,32.26,0,0,0,3.36-2,21.36,21.36,0,0,0,3-2.39,10.23,10.23,0,0,0,2.21-3,5.54,5.54,0,0,0,.46-1.67,4.34,4.34,0,0,0-.21-1.67,7.82,7.82,0,0,0-2.06-3,17.37,17.37,0,0,0-1.46-1.24c-.51-.39-1-.77-1.59-1.12-1.1-.71-2.25-1.34-3.42-2s-2.37-1.15-3.59-1.67C160.8,141.93,158.31,141,155.79,140.15Z"/><path class="a" d="M157.44,145.84a33.58,33.58,0,0,1,4.82,1.19,25.57,25.57,0,0,1,4.61,2,12.13,12.13,0,0,1,2.12,1.49,5.78,5.78,0,0,1,1.63,2.24c0,.12.07.24.11.36l.05.19,0,.19a2.45,2.45,0,0,1,0,.38v.39a4.77,4.77,0,0,1-.36,1.43,7.31,7.31,0,0,1-1.62,2.21,16.42,16.42,0,0,1-4.26,2.86,29.1,29.1,0,0,1-4.69,1.81,41.46,41.46,0,0,1-9.79,1.66c1.61-.4,3.2-.79,4.77-1.26s3.13-.95,4.64-1.52a37.3,37.3,0,0,0,4.42-2,22.14,22.14,0,0,0,2.05-1.22,12.92,12.92,0,0,0,1.81-1.45,6.13,6.13,0,0,0,1.31-1.74,3,3,0,0,0,.26-.93v-.23c0-.08,0-.16,0-.23v-.12l0-.11-.06-.24a4.83,4.83,0,0,0-1.19-1.75,12.55,12.55,0,0,0-1.83-1.45,30,30,0,0,0-4.26-2.3C160.51,147,159,146.42,157.44,145.84Z"/><path class="a" d="M81.36,161.52c4.4,1.87,8.84,3.56,13.36,5,2.27.68,4.54,1.36,6.84,1.9s4.61,1.06,6.94,1.5c1.16.2,2.32.42,3.49.58.59.08,1.17.19,1.76.26l1.76.23c2.35.27,4.7.5,7.07.65,4.73.29,9.48.33,14.25.16a79.5,79.5,0,0,1-14.3,1l-1.8,0c-.6,0-1.19-.06-1.79-.09l-.9,0-.9-.08-1.79-.15c-2.39-.24-4.76-.58-7.13-1-.59-.1-1.17-.24-1.76-.35l-.88-.18c-.3-.06-.59-.12-.88-.2-1.17-.28-2.34-.54-3.5-.87l-1.73-.49-1.72-.52c-1.15-.35-2.28-.75-3.4-1.16A78,78,0,0,1,81.36,161.52Z"/><path class="a" d="M113.83,95.8a1.29,1.29,0,0,1-1-.49,37.2,37.2,0,0,1-6.47-11.81c-1.84-5.62-1.73-10-1.61-14.68,0-1.57.08-3.2,0-4.89a62.41,62.41,0,0,0-5.43-23.4,1.32,1.32,0,1,1,2.42-1.06,65.09,65.09,0,0,1,5.65,24.4c0,1.75,0,3.41,0,5-.11,4.42-.22,8.6,1.48,13.79a34.63,34.63,0,0,0,6,11,1.33,1.33,0,0,1-.2,1.85A1.31,1.31,0,0,1,113.83,95.8Z"/><path class="a" d="M155.66,115.9a1,1,0,0,0-1.33-.13L152,117.68l-1.79-2.12a.94.94,0,0,0-1.44,1.22l2.17,2.57.1,3.8a1,1,0,0,0,.95.92h0a1,1,0,0,0,.92-1l-.1-3.67,2.69-2.21A.94.94,0,0,0,155.66,115.9Z"/><path class="b" d="M151.54,145.46l-6.16-1.67"/><path class="a" d="M136.13,225.4c.48-.11.9-.41,1.7-1.47a18.12,18.12,0,0,0,1.56-2.5,6.51,6.51,0,0,0-2.55-.42c-1,0-2,.33-2.16.25,0,0,0,0,0,0s.26-.21.55-.61a2.41,2.41,0,0,0,.33-.71,15.89,15.89,0,0,0-1.63.61c-5.17,2.24-6.73,6-8.68,7.22-.14.09-.56.35-.58.73s.25.39.55,1,.18.8.46,1.09a1.08,1.08,0,0,0,.4.28,2.26,2.26,0,0,0,.57.14l1.54.21a13.38,13.38,0,0,0,2.63.16,7.5,7.5,0,0,0,1.16-.19,6.78,6.78,0,0,0,1.06-.37,15.15,15.15,0,0,0,1.73-1,14.67,14.67,0,0,0,1.6-1.26q-.3-.19-.66-.39s-.38-.21-.78-.39l-.09,0a14.32,14.32,0,0,0-1.71-.54s0,0,0,0,1.09.13,2.41,0a9.3,9.3,0,0,0,2-.38c-2-.88-2.52-1.2-2.49-1.29S135.54,225.53,136.13,225.4Z"/><path class="a" d="M110.07,221.9c.58,1.17,1.06,1.47,3.87,4.2a9.84,9.84,0,0,0,2.18,1.82,1,1,0,0,0,.66.06c.33-.1.43-.35,1.08-.6s1-.13,1.31-.37c.46-.43.13-1.45-.14-2.41-.34-1.27-.41-2.61-.76-3.89a74,74,0,0,1-1.62-7.76,3.87,3.87,0,0,0-.73.63c-.38.43-.39.66-.59.72a.37.37,0,0,1-.27,0c-.37-.16-.81-.79-1.42-1.37a7.68,7.68,0,0,0-2.18-1.48c0,.81.08,1.67.17,2.57.07.7.1,1.05.15,1.31.11.63.28,1.2.18,1.24h0s-.1-.1-.26-.22a2,2,0,0,0-.38-.23l-.16-.07a2.66,2.66,0,0,0-.51-.16,5.37,5.37,0,0,0,.06,1.27c.18,1,.59,1.6.46,1.69a.08.08,0,0,1-.08,0,11.35,11.35,0,0,0-1.14-.77l-.25-.12c-.2-.08-.36-.13-.49-.17a8.64,8.64,0,0,0,.18,2.12A8.83,8.83,0,0,0,110.07,221.9Z"/><path class="a" d="M120.08,225.25a1.37,1.37,0,0,0,.4.94.65.65,0,0,0,.23.15c.41.17.87,0,1.57.26h0a9.94,9.94,0,0,1,1.09.73.68.68,0,0,0,.29,0,1.13,1.13,0,0,0,.74-.6l1.23-1.66a16.67,16.67,0,0,1,3.13-3c3.22-2.64,4.51-2.75,5.89-4.82a9.36,9.36,0,0,0,.9-1.72,4.79,4.79,0,0,1-1.58.4l0,0c0-.07.13-.2.34-.39a12.5,12.5,0,0,0,1.11-1.22,1.89,1.89,0,0,0-.77-.66h0a5.25,5.25,0,0,0-.8-.19.1.1,0,0,1-.07-.07c0-.12.24-.23.54-.56a2.37,2.37,0,0,0,.47-.73l-.1,0a2,2,0,0,0-.64-.15c-.37,0-.61.1-.71.06l0,0c-.08-.12.22-.37.41-.85a2.42,2.42,0,0,0,.16-.91,2,2,0,0,0-.78.17c-.36.17-.53.39-.63.35h0c-.12-.07.08-.45.07-1a2.2,2.2,0,0,0-.25-.91,4.06,4.06,0,0,0-1,.51c-.59.43-.83.86-.94.82h0c-.12-.06.16-.62.38-1.77,0-.23.07-.41.11-.67.07-.51.13-1,.17-1.48l-.34.14a3.54,3.54,0,0,0-.39.2c-.51.29-.56.51-.71.5h-.06c-.39-.16-.61-1.68-.66-2a12.59,12.59,0,0,1-.12-1.95,7.74,7.74,0,0,0-1.64,1.23c-.72.72-1.22,1.54-1.42,1.46h0c-.11-.05,0-.37-.12-.8a1.61,1.61,0,0,0-.48-.68,6.58,6.58,0,0,0-.84,1.06c-.66,1-.84,2-1,1.92h0c-.12,0-.08-.44-.3-1a3.71,3.71,0,0,0-.54-1,8.88,8.88,0,0,0-.91,1.22c-1,1.62-1.17,3-1.52,2.93h0c-.18-.07-.25-.54-.57-1.4a12.87,12.87,0,0,0-.88-1.86,13.26,13.26,0,0,0-.8,3.53,13,13,0,0,0,.1,3C118.25,216.78,120,224.91,120.08,225.25Z"/><path class="a" d="M115.92,245.45a.26.26,0,0,0-.35-.13.22.22,0,0,0-.09.07.27.27,0,0,0,0,.27,2.93,2.93,0,0,1-1.16,3.68.26.26,0,0,0-.09.35.25.25,0,0,0,.36.09,3.43,3.43,0,0,0,1.51-1.94A3.51,3.51,0,0,0,115.92,245.45Z"/><path class="a" d="M125.68,231.31a.79.79,0,0,1-.3-.21c-.27-.28-.12-.52-.43-1.19s-.73-.8-.77-1.29.52-1.06.38-1.21l0,0c-.19-.08-.75.48-1.48.36a.59.59,0,0,1-.2-.06,7.83,7.83,0,0,0-.69-.41l-.12-.05c-.65-.24-.91-.06-1.27-.22l-.15-.07c-.5-.32-.58-.88-.74-.95,0,0,0,0,0,0-.26,0,0,1.1-.6,1.57-.27.22-.43.06-1.2.27s-.84.41-1.31.5a2.09,2.09,0,0,1-1.27-.18,3.21,3.21,0,0,1-.45-.23,43.71,43.71,0,0,0-3.46,4.3A33.41,33.41,0,0,0,106,243.43a20.86,20.86,0,0,0-.79,7.81,16.57,16.57,0,0,0,.6,3.27,26.22,26.22,0,0,0,1.81,5c.25.51-.06,1.75-.65,3.67.71-1.14,1.42-2.71,2.15-2.8a19.47,19.47,0,0,0,4.07-1.33,17.48,17.48,0,0,0,2-1.06,23.36,23.36,0,0,0,3.09-2.33,25.3,25.3,0,0,0,2.69-2.81,38.62,38.62,0,0,0,3.32-5.7,27.58,27.58,0,0,0,3.12-11.39,25,25,0,0,0-.26-4.48A2.49,2.49,0,0,1,125.68,231.31Zm-11.84,19.53a2.54,2.54,0,0,1-.54.09h-.21a1.81,1.81,0,0,1-.61-.14l0,0a2.3,2.3,0,0,1-1.24-1.67,3.85,3.85,0,0,1-.1-1.07h0a2.4,2.4,0,0,1,0-.37c0-.12,0-.25,0-.37a5.93,5.93,0,0,1,.36-1.13l.09-.18a4.35,4.35,0,0,1,.29-.52,4.6,4.6,0,0,1,1.28-1.35l.3-.18.27-.13a2.76,2.76,0,0,1,.53-.18,2.21,2.21,0,0,1,.51,0h0a1.8,1.8,0,0,1,.73.15h0a1.91,1.91,0,0,1,.78.64l.15.22a3.18,3.18,0,0,1,.31.82,3.28,3.28,0,0,1,.1.7,5.61,5.61,0,0,1,0,.71,5.37,5.37,0,0,1-.42,1.53,5,5,0,0,1-.84,1.32,4,4,0,0,1-1.12.91A2.86,2.86,0,0,1,113.84,250.84Z"/><path class="a" d="M157.48,116.83a.66.66,0,0,1-.45-1.14,10.18,10.18,0,0,1,8.34-2.68.67.67,0,0,1,.57.75.66.66,0,0,1-.74.56,8.94,8.94,0,0,0-4.11.42,8.8,8.8,0,0,0-3.15,1.91A.67.67,0,0,1,157.48,116.83Z"/><path class="a" d="M157.48,119.36a.66.66,0,0,1-.29-1.25,14.91,14.91,0,0,1,7.16-1.66,14.48,14.48,0,0,1,2.92.36.66.66,0,0,1-.3,1.29,13.16,13.16,0,0,0-2.65-.33,13.71,13.71,0,0,0-6.54,1.52A.63.63,0,0,1,157.48,119.36Z"/><path class="a" d="M164.94,122.28a.66.66,0,0,1-.27-.06,9.67,9.67,0,0,0-2.58-.75,10.11,10.11,0,0,0-4.62.42.65.65,0,0,1-.83-.41.66.66,0,0,1,.42-.84,11.16,11.16,0,0,1,8.15.37.66.66,0,0,1-.27,1.27Z"/><path class="a" d="M146.71,117.13a.67.67,0,0,1-.46-.18A9,9,0,0,0,143.1,115a8.82,8.82,0,0,0-4.11-.41.67.67,0,0,1-.74-.57.66.66,0,0,1,.57-.74,10.23,10.23,0,0,1,4.72.47,10.46,10.46,0,0,1,3.62,2.2.66.66,0,0,1-.45,1.14Z"/><path class="a" d="M146.71,119.66a.63.63,0,0,1-.3-.07,13.71,13.71,0,0,0-6.54-1.52,13.35,13.35,0,0,0-2.66.33.66.66,0,1,1-.29-1.29,14.4,14.4,0,0,1,2.92-.36,14.91,14.91,0,0,1,7.16,1.66.66.66,0,0,1-.29,1.25Z"/><path class="a" d="M139.25,122.58a.66.66,0,0,1-.27-1.27,11.16,11.16,0,0,1,8.15-.37.66.66,0,0,1-.41,1.26,10.12,10.12,0,0,0-4.62-.43,9.67,9.67,0,0,0-2.58.75A.66.66,0,0,1,139.25,122.58Z"/><path class="a" d="M164.55,147.15a8.37,8.37,0,0,0-5.39-3.76,12.63,12.63,0,0,0-7.71.68l-2.87-.78a35.94,35.94,0,0,0,5.84-5.28,33.3,33.3,0,0,0,8.35-18.66c1-9.06-1.76-22-12.36-29.64a32,32,0,0,0,8.38-17.64c1.53-13.47-7.28-23.66-13.71-31.1-5.38-6.22-14.39-16.64-20.74-14-4.31,1.76-6.11,8.84-5.49,21.65.15,2.94.41,5.9.71,8.62-.25-.58-.5-1.15-.76-1.72-6.37-14.12-13-28.72-21.63-28.43-2.74.09-5.56,1.7-8.16,4.67-6.47,7.36-10.34,21.09-9.22,32.64a43,43,0,0,0,9.69,23,54.41,54.41,0,0,0,9.67,9.38,41.69,41.69,0,0,0-3.61,10.44C93,119.89,96,128.5,98.9,133.48a31.29,31.29,0,0,0,7.08,8.18,37.06,37.06,0,0,0-6.4,12.41,36,36,0,0,0-1.2,5.84,1.32,1.32,0,0,0,1,1.43,85.23,85.23,0,0,0,12.72,2.54,64.56,64.56,0,0,0,11.67.43,37.44,37.44,0,0,1,10,.64,53.26,53.26,0,0,1,6.73,1.82,16.16,16.16,0,0,0,4.76,1.07,6,6,0,0,0,3-.82,11,11,0,0,0,4.6-5.77,12.11,12.11,0,0,0,1.58.11,10.68,10.68,0,0,0,5.91-1.72C164.23,157.07,166.9,151.31,164.55,147.15ZM125.34,29.37c1.85-.75,4.78.52,8.49,3.68a91.26,91.26,0,0,1,9.25,9.65c6.46,7.46,14.49,16.75,13.08,29.07a29.57,29.57,0,0,1-8,16.49,31.8,31.8,0,0,0-20.09-3.71,133.74,133.74,0,0,0-4.23-16.13,171.7,171.7,0,0,1-2.35-20C120.77,33.51,123.59,30.09,125.34,29.37Zm33.55,128.07a8.21,8.21,0,0,1-5.48,1.21,7.35,7.35,0,0,0-.87-4.17,8.37,8.37,0,0,0-5.39-3.76A13.08,13.08,0,0,0,137,152.66a1.32,1.32,0,1,0,1.44,2.21,10.4,10.4,0,0,1,8.06-1.58,5.7,5.7,0,0,1,3.71,2.49c1.57,2.76-.52,7.38-3.28,8.94-1.46.83-2.6.53-5.67-.47a55.51,55.51,0,0,0-7-1.89,40.09,40.09,0,0,0-10.63-.69,62.29,62.29,0,0,1-11.25-.41,83.09,83.09,0,0,1-11.21-2.16,32.82,32.82,0,0,1,1-4.29,34.51,34.51,0,0,1,6-11.54,35.34,35.34,0,0,0,4.27,2.58,1.32,1.32,0,1,0,1.2-2.35,30.56,30.56,0,0,1-12.37-11.36c-2.71-4.59-5.43-12.55-3-24.48A38.8,38.8,0,0,1,102,96.93a1.33,1.33,0,0,0-.4-1.7C96.38,91.49,84.05,81,82.42,64.11,81.23,51.9,86,39.2,91,33.46c2.11-2.4,4.28-3.71,6.27-3.77,3-.1,6.14,2.55,9.69,8.11,3.32,5.19,6.43,12.09,9.44,18.76a130.08,130.08,0,0,1,4.88,12.51,123.94,123.94,0,0,0,4.5,17.41v0l0,.07,0,0a.25.25,0,0,0,0,.07s0,0,0,0l0,.06,0,0,0,0,0,0,0,0,0,0,0,0,0,0,.06,0,0,0,.06,0,0,0,.06,0,0,0,.07,0h.06l.06,0h.49c3.43-.62,12.29-1.5,20.43,3.7a26.06,26.06,0,0,1,9.22,10.23,5.71,5.71,0,0,0-1.94,4.49c0,3,1.84,5.29,4.19,5.29a3.58,3.58,0,0,0,.8-.1,32.34,32.34,0,0,1,.2,8.11c-1.35,12.69-11.15,23.83-23.83,27.09a32.3,32.3,0,0,1-3.78.72,1.32,1.32,0,0,0-1.14,1.48,1.31,1.31,0,0,0,1.3,1.15h.18a33.54,33.54,0,0,0,4.09-.79,34.05,34.05,0,0,0,8.61-3.49l2.93.79a1.32,1.32,0,0,0,2,1.53,10.42,10.42,0,0,1,8.05-1.58,5.75,5.75,0,0,1,3.72,2.49C163.82,151.22,161.73,155.56,158.89,157.44Z"/><path class="a" d="M137,111.25c2.35,0,4.19-2.33,4.19-5.29s-1.84-5.29-4.19-5.29-4.19,2.32-4.19,5.29S134.67,111.25,137,111.25Z"/><path class="a" d="M134.46,139.67a4.54,4.54,0,0,1-1.57-.27,6.11,6.11,0,0,1-2.79-2.27.65.65,0,0,1-.33.54.67.67,0,0,1-.8-.1,8.7,8.7,0,0,1-2.25-3.62,8.5,8.5,0,0,1-.28-1.22l-.15.08a.66.66,0,0,1-.62-.11,5.15,5.15,0,0,1-2-3,5.43,5.43,0,0,1-.08-.78c-.2.34-.34.62-.45.83-.27.51-.52,1-1.1.88a.85.85,0,0,1-.6-.48,6.91,6.91,0,0,1,.29-5,9.2,9.2,0,0,1,2.3-3.09l-.74.1c-.25,0-1.16.13-2,.18-1,.07-1.71.12-1.85-.56-.06-.28,0-.67.67-.89.17-.07.41-.13.7-.22a21.45,21.45,0,0,0,2.44-.83,14.08,14.08,0,0,0,4.64-3.19.66.66,0,0,1,.94,0,.65.65,0,0,1,0,.93,15.91,15.91,0,0,1-4.14,3.06c.64-.08,1,0,1.31.39.38.65-.21,1.2-.83,1.78a8.35,8.35,0,0,0-2.23,2.86,6.77,6.77,0,0,0-.51,2.58l.24-.39c.31-.52.66-1,.94-1.43.39-.53.87-1.19,1.5-.88s.37,1,.22,1.38a4.67,4.67,0,0,0-.36,2.48,3.35,3.35,0,0,0,.79,1.54c.25-.79.55-1.23,1.09-1.17s.72.71.78,1.46a11.09,11.09,0,0,0,.38,2.32,5.26,5.26,0,0,0,.25.66.74.74,0,0,1,.49-.69c.68-.26,1,.36,1.44,1.16.59,1.08,1.57,2.9,3.17,3.47a5.07,5.07,0,0,0,4-.66.66.66,0,0,1,.62,1.17A7.76,7.76,0,0,1,134.46,139.67Z"/><path class="a" d="M172.46,249.67c.56,5.39.39,7.45-.79,10.13-2.76,6.32-9.47,11.69-19.38,15.52-8.88,3.43-20.15,5.51-31.74,5.87-1.17,0-2.34.05-3.5.05a95.93,95.93,0,0,1-28.69-4.05C78.15,273.9,71,268.81,67.78,262.47c-.7-1.37-1.28-3-1.19-8.53,0-1.66.12-3.63.26-5.93C52.8,253.14,44,260.38,44,268.4,44,284,77,296.56,117.56,296.56S191.08,284,191.08,268.4C191.08,261.21,184,254.65,172.46,249.67Z"/><path class="a" d="M102.3,136.47c-.3-.37-.58-.75-.86-1.13l-.18,0a87.18,87.18,0,0,0-11.78,2.39c4-.46,7.94-.9,11.91-1.23Z"/><path class="a" d="M112.21,163a84.78,84.78,0,0,1-12.52-2.51c0-.29.08-.58.12-.88-10.21-2.32-18.48-5.8-21-8.72a2.33,2.33,0,0,1-.71-1.53c.12-1.47,3.87-3.78,14.06-5.42a136.87,136.87,0,0,1,15.22-1.48l.47-.57h0q-.8-.61-1.56-1.26A136.36,136.36,0,0,0,91.84,142c-10.13,1.63-15.39,4-15.64,7.13a4,4,0,0,0,1.17,2.92c4.64,5.34,23,10.85,39.31,11.8,1.88.11,3.76.16,5.64.16,3.14,0,6.28-.15,9.32-.41C124.81,162.68,122.2,164.18,112.21,163Z"/><path class="a" d="M152.39,145.5q-2.2-.67-4.85-1.31l-1.07-.25a34.24,34.24,0,0,1,3.79,2.57A12.47,12.47,0,0,1,152.39,145.5Z"/><path class="a" d="M190.52,154.42c-.42-6.15-8.09-9.78-19.71-15.28a123.61,123.61,0,0,0-14.16-5.9c-.35.56-.72,1.1-1.1,1.63a119.49,119.49,0,0,1,14.46,6c10.61,5,18.29,8.65,18.63,13.7.39,5.83-8.82,11.14-12.75,13.41-14.09,8.12-28.24,8.94-45.28,9.16-37.05.5-53.88.35-64.61-8.31-2.7-2.19-16-13.66-13.42-25.19,1.55-6.82,8.55-12.54,19.73-16.11,6.38-2,10.22-1.5,18.65-.32,2,.28,4.2.59,6.72.9-.23-.66-.43-1.32-.61-2-2.16-.27-4.08-.54-5.85-.79-8.45-1.18-12.7-1.77-19.48.4h0c-11.84,3.78-19.3,10-21,17.48-1.25,5.49.48,11.48,5.15,17.81a53.15,53.15,0,0,0,8.93,9.26c9.36,7.57,23.53,8.92,46.69,8.92,5.79,0,12.15-.09,19.13-.18,17.31-.23,31.71-1.07,46.19-9.42C181.07,167.15,191,161.43,190.52,154.42Z"/></svg>