<svg xmlns="http://www.w3.org/2000/svg" viewBox="0 0 205.28 297.64"><defs><style>.a{fill:#181716;opacity:0.31;}.b{fill:#20032a;}.c{fill:#d10369;}.d{fill:#494546;}.e{fill:#232322;}.f{fill:#3a3a39;}.g{fill:#2c053a;}.h{fill:#e10880;}.i{fill:#5e5a5c;}.j{fill:#737172;}.k{fill:#ee7400;}.l{fill:#3d7c2f;}.m{fill:#b26102;}.n{fill:#30ac5a;}.o{fill:#069951;}</style></defs><ellipse class="a" cx="102.64" cy="256.36" rx="73.99" ry="28.34"/><path class="b" d="M59.49,173.45c-1.22,8.91-2.81,21.15-4.43,35.76-3.89,35.09-2.92,38.31-1.67,40.75,13.44,26.25,91.4,23.49,102.84-2.63,2.11-4.82.77-7.7-2.4-35.48-1.76-15.53-2.9-28.33-3.61-37"/><path class="c" d="M57.5,161.88a17.64,17.64,0,0,0-.2,10.9,166.61,166.61,0,0,0,95.34,1.43c1.49-4.6,2.26-10,.05-14.84C141.93,135.77,66.64,138.11,57.5,161.88Z"/><path class="d" d="M104.3,143.81c19.76-.6,42.12,4.1,47.53,15.95l.21.5c.55-.3,1.14-.56,1.72-.82l-.21-.47c-2.64-5.79-9.14-10.44-18.79-13.44-8.57-2.67-19.4-3.95-30.52-3.61s-21.65,2.24-29.94,5.36c-8.72,3.29-14.62,7.8-17.18,13.11.56.28,1.12.56,1.71.82C64.21,150,85.3,144.39,104.3,143.81Z"/><path class="b" d="M56.81,113.67c-3.08,1-18,5.73-20.49,16.9-2.84,12.47,11.61,24.5,13.84,26.3,11.28,9.12,29.55,9.06,65.63,8.58,18.43-.24,32.1-1.32,46-9.35,4.63-2.66,13.74-8,13.31-14.38-.38-5.63-8.12-9.29-19.29-14.58A106.66,106.66,0,0,0,129,117.87c-12.75-2.59-14.07-.76-34-2.4C71.08,113.51,67,110.41,56.81,113.67Z"/><path class="e" d="M101.81,150.23c21.6,1.26,45-5.18,44.95-10.68s-24-10.2-41.34-11c-18.53-.8-43,2.27-43.46,7.85C61.53,141.73,82.6,149.12,101.81,150.23Z"/><path class="f" d="M107.43,151.34c-1.89,0-3.79-.05-5.67-.16-16.41-1-34.9-6.5-39.57-11.87A4,4,0,0,1,61,136.37c.26-3.12,5.55-5.54,15.75-7.17a151.15,151.15,0,0,1,28.7-1.54,155.15,155.15,0,0,1,27.35,3.7,52.52,52.52,0,0,1,10.33,3.39c3.06,1.5,4.56,3.06,4.57,4.8a4.13,4.13,0,0,1-1.52,3C141.45,147,124.65,151.34,107.43,151.34Zm-5.56-2.05c18.28,1.06,38.14-3.51,43-8.14a2.51,2.51,0,0,0,.93-1.59c0-1.52-3.55-4-13.44-6.36a153.88,153.88,0,0,0-27-3.65,149.62,149.62,0,0,0-28.32,1.52c-10.26,1.65-14,4-14.16,5.46a2.41,2.41,0,0,0,.72,1.53C67.52,142.54,84.7,148.29,101.87,149.29Z"/><path class="g" d="M66.14,175.3,83,179Q79.47,222,76,265a67.06,67.06,0,0,1-17.25-8.33Z"/><path class="g" d="M128.51,178.93l1.62,64.37q1.81-32.28,3.61-64.54Z"/><path class="f" d="M102.12,269.29a96.64,96.64,0,0,1-28.86-4.08C63,261.9,55.81,256.78,52.54,250.4c-.71-1.39-1.28-3-1.19-8.59.1-6.16,1-16.55,2.77-32.71,1.33-11.94,2.82-24,4.43-35.78a.95.95,0,1,1,1.88.26c-1.61,11.78-3.1,23.81-4.42,35.73-3.69,33.27-3,37.78-1.78,40.22,3,5.92,9.81,10.72,19.61,13.87,9,2.89,20.23,4.28,31.76,3.93s22.57-2.39,31.31-5.77c9.49-3.67,15.87-8.72,18.45-14.62,1.45-3.29,1.13-5.77-.37-17.65-.56-4.45-1.26-10-2.1-17.34-1.4-12.34-2.62-24.79-3.61-37a1,1,0,0,1,.87-1,1,1,0,0,1,1,.87c1,12.2,2.2,24.63,3.61,37,.83,7.35,1.53,12.87,2.09,17.31,1.56,12.31,1.88,14.88.23,18.66-2.79,6.36-9.53,11.76-19.51,15.62-8.93,3.45-20.28,5.55-31.94,5.9C104.47,269.27,103.3,269.29,102.12,269.29Z"/><path class="f" d="M75.79,120.22a40.11,40.11,0,0,0-8.12-.15,31.7,31.7,0,0,0-4,.58,30.76,30.76,0,0,0-3.88,1,47.64,47.64,0,0,0-7.46,3,20.42,20.42,0,0,0-3.29,2.14,9.59,9.59,0,0,0-2.45,2.85,6.17,6.17,0,0,0-.63,1.71,7.42,7.42,0,0,0-.12,1.83,10,10,0,0,0,.31,1.86l.14.46a3.53,3.53,0,0,0,.15.46l.17.45.19.45a18.43,18.43,0,0,0,2,3.4,27.38,27.38,0,0,0,2.56,3.05,36.27,36.27,0,0,0,2.95,2.72,38.49,38.49,0,0,0,3.23,2.44c1.11.77,2.26,1.48,3.43,2.17s2.38,1.31,3.6,1.93c-1.29-.46-2.55-1-3.79-1.56s-2.45-1.22-3.64-1.91a36.5,36.5,0,0,1-6.62-5,26.65,26.65,0,0,1-2.8-3.1,19.09,19.09,0,0,1-2.21-3.6l-.22-.49-.19-.5c-.14-.33-.23-.69-.34-1a11.13,11.13,0,0,1-.38-2.15,8.8,8.8,0,0,1,.13-2.23,7.86,7.86,0,0,1,.77-2.13,11,11,0,0,1,2.85-3.29,19.72,19.72,0,0,1,3.58-2.25,34.58,34.58,0,0,1,3.83-1.62c1.3-.48,2.61-.88,3.93-1.24a32.33,32.33,0,0,1,16.34-.32Z"/><path class="f" d="M70.5,125.26a25.16,25.16,0,0,0-10.42,1.15,30.79,30.79,0,0,0-4.83,2,12.38,12.38,0,0,0-2.11,1.38,5.91,5.91,0,0,0-1.54,1.79,5.09,5.09,0,0,0,.13,4.51,15.06,15.06,0,0,0,2.89,4.18c.6.63,1.23,1.22,1.9,1.8s1.35,1.11,2.07,1.62,1.46,1,2.22,1.46,1.53.9,2.32,1.33a26.51,26.51,0,0,1-2.52-.95c-.82-.37-1.62-.78-2.42-1.21a23.34,23.34,0,0,1-4.41-3.21,17.42,17.42,0,0,1-1.88-2,12.19,12.19,0,0,1-1.48-2.4,9.44,9.44,0,0,1-.52-1.35,8.74,8.74,0,0,1-.26-1.46,6.06,6.06,0,0,1,.09-1.53,5.38,5.38,0,0,1,.53-1.47,7.59,7.59,0,0,1,1.93-2.23,13.51,13.51,0,0,1,2.4-1.5,28,28,0,0,1,5.14-1.85,20.75,20.75,0,0,1,5.42-.72A20.47,20.47,0,0,1,70.5,125.26Z"/><path class="f" d="M141.11,127.3a59.93,59.93,0,0,1,7.76,2.16,41.92,41.92,0,0,1,7.4,3.33,19.19,19.19,0,0,1,3.36,2.42,12,12,0,0,1,1.45,1.56,7.71,7.71,0,0,1,1.07,1.93,5.45,5.45,0,0,1,.32,2.27,7.06,7.06,0,0,1-.56,2.19,11.49,11.49,0,0,1-2.53,3.44,27.44,27.44,0,0,1-6.81,4.61,50.56,50.56,0,0,1-7.56,3c-1.29.41-2.58.77-3.89,1.1-.66.15-1.31.31-2,.45l-1,.21-1,.2a76.84,76.84,0,0,1-8,1.08c2.63-.54,5.24-1.12,7.82-1.81l1-.25,1-.28c.64-.17,1.27-.37,1.91-.56l1.9-.61c.63-.22,1.26-.42,1.89-.65l.93-.35.93-.36c.31-.11.61-.24.92-.37s.61-.24.91-.38c1.22-.52,2.42-1.08,3.58-1.69a34.67,34.67,0,0,0,3.39-2,22.27,22.27,0,0,0,3-2.41,10.4,10.4,0,0,0,2.22-3,5.6,5.6,0,0,0,.46-1.68,4.22,4.22,0,0,0-.22-1.68,7.73,7.73,0,0,0-2.07-3,16.38,16.38,0,0,0-1.47-1.25c-.51-.4-1.05-.77-1.6-1.13-1.1-.71-2.26-1.35-3.43-1.95s-2.39-1.17-3.62-1.69C146.16,129.09,143.65,128.15,141.11,127.3Z"/><path class="f" d="M142.78,133a33,33,0,0,1,4.85,1.2,25.89,25.89,0,0,1,4.64,2,12.1,12.1,0,0,1,2.13,1.5A6,6,0,0,1,156,140c0,.12.07.24.1.36l.05.19,0,.19a2.33,2.33,0,0,1,0,.38v.39a4.69,4.69,0,0,1-.37,1.45,7.44,7.44,0,0,1-1.62,2.22A16.82,16.82,0,0,1,150,148a30.44,30.44,0,0,1-4.72,1.82,40.94,40.94,0,0,1-9.85,1.66c1.61-.4,3.22-.79,4.8-1.26s3.14-1,4.67-1.53a38.53,38.53,0,0,0,4.45-2,21,21,0,0,0,2-1.23,13.17,13.17,0,0,0,1.83-1.46,6,6,0,0,0,1.32-1.75,3,3,0,0,0,.26-.94v-.23c0-.08,0-.16,0-.23v-.12l0-.12-.06-.23a4.69,4.69,0,0,0-1.2-1.76,12.18,12.18,0,0,0-1.84-1.46,31.39,31.39,0,0,0-4.28-2.32C145.86,134.22,144.33,133.61,142.78,133Z"/><path class="f" d="M66.21,148.8c4.42,1.88,8.89,3.58,13.44,5,2.29.69,4.57,1.37,6.89,1.91s4.64,1.07,7,1.51c1.17.2,2.34.42,3.52.59.59.08,1.17.19,1.76.26l1.77.23q3.56.42,7.12.66c4.76.29,9.54.32,14.34.16a80.43,80.43,0,0,1-14.39,1l-1.81,0c-.6,0-1.2-.06-1.8-.09l-.91,0-.9-.08-1.8-.15q-3.61-.37-7.18-1c-.59-.1-1.18-.23-1.77-.35l-.89-.18c-.3-.06-.59-.12-.89-.2-1.17-.28-2.35-.54-3.51-.88l-1.74-.49c-.58-.17-1.16-.34-1.74-.53-1.15-.35-2.29-.75-3.42-1.16A78.61,78.61,0,0,1,66.21,148.8Z"/><path class="f" d="M74.38,124.89a88.23,88.23,0,0,1,11.85-2.41,108.66,108.66,0,0,1,12.08-1,104.34,104.34,0,0,1,12.12.36,87.65,87.65,0,0,1,12,1.82c-4-.27-8-.51-12-.63-2,0-4-.1-6-.1-1,0-2,0-3,0l-1.5,0-1.5,0q-6,.15-12,.63C82.37,124,78.38,124.42,74.38,124.89Z"/><path class="h" d="M66.06,176.25,83,179l1.29-13.44-17-1.8Z"/><path class="f" d="M96.55,166.58c-23.3,0-37.56-1.36-47-9a53.64,53.64,0,0,1-9-9.33c-4.69-6.36-6.44-12.39-5.18-17.92,1.71-7.54,9.22-13.79,21.13-17.59h0c6.83-2.18,11.11-1.59,19.62-.4,4.69.66,10.52,1.47,18.87,2.15,8.58.71,13.68.77,17.78.82a71.94,71.94,0,0,1,16.38,1.6,107.39,107.39,0,0,1,27.06,9.34c11.69,5.53,19.42,9.19,19.84,15.38.47,7.05-9.52,12.81-13.78,15.27-14.58,8.4-29.06,9.24-46.49,9.47C108.78,166.5,102.38,166.58,96.55,166.58ZM56.81,113.67l.29.91c-11.25,3.59-18.3,9.34-19.86,16.2C34.6,142.39,48,153.93,50.75,156.13c10.8,8.72,27.74,8.87,65,8.37,17.15-.22,31.39-1.05,45.57-9.22,4-2.28,13.23-7.62,12.83-13.5-.34-5.07-8.06-8.73-18.75-13.78a105.78,105.78,0,0,0-26.63-9.2,71.32,71.32,0,0,0-16-1.57c-4.13,0-9.27-.11-17.92-.81-8.4-.69-14.26-1.51-19-2.17-8.48-1.18-12.35-1.72-18.77.33Z"/><path class="f" d="M152,160.26c1.48,3.64,1.43,8.06-.15,13.17a165.27,165.27,0,0,1-48.14,6.06A165.9,165.9,0,0,1,58.08,172a16.27,16.27,0,0,1,.31-9.81c.13-.34.28-.68.44-1-.59-.26-1.15-.54-1.71-.82-.19.38-.35.76-.5,1.15A18.29,18.29,0,0,0,56.38,173a1,1,0,0,0,.63.66,167.66,167.66,0,0,0,46.7,7.71c1.22,0,2.44,0,3.66,0a167.38,167.38,0,0,0,45.52-6.31,1,1,0,0,0,.65-.62c1.89-5.8,2-10.86.22-15.06C153.18,159.7,152.59,160,152,160.26Z"/><ellipse class="g" cx="103.21" cy="226.55" rx="24.86" ry="18.15" transform="translate(-145.13 244.03) rotate(-69.53)"/><path class="d" d="M132.22,142.65a1.33,1.33,0,1,0-1.91,1.85,13.77,13.77,0,0,0,6.19,3.69,12.06,12.06,0,0,0,1-2.49A11,11,0,0,1,132.22,142.65Z"/><path class="i" d="M133.66,76.76c2.92-3,8.14-9.24,9.15-18.13,1.48-13-7-22.78-13.48-30.28-4.9-5.66-13.86-16-19.36-13.77-8.84,3.61-2.92,37.41-2.31,40.84a123.79,123.79,0,0,0,4.5,17.43"/><path class="j" d="M148.77,135.38c-1.9-3.36-7.84-4.86-13.22-1.69a36.55,36.55,0,0,0-4.18-2.8,33.11,33.11,0,0,0,15.45-24.29c1.06-10-2.51-22.66-13.16-29.46-9.1-5.8-18.79-4.39-21.5-3.9A133.17,133.17,0,0,0,102.68,43C96.61,29.57,90,14.92,82.16,15.18c-8.79.29-17.84,19.33-16.21,36.1,1.84,18.91,16.79,30.07,19.86,32.27a40.62,40.62,0,0,0-4,11.17c-.59,3-3,15,3.22,25.57A30.53,30.53,0,0,0,92.86,129h0a36.27,36.27,0,0,0-7,13.06,33.74,33.74,0,0,0-1.16,5.66,82.73,82.73,0,0,0,12.59,2.52c11.14,1.37,13.16-.63,21.93,1.09,8,1.57,10.43,4.08,13.7,2.23a9.69,9.69,0,0,0,4.33-6.17,9.85,9.85,0,0,0,7.76-1.21C148.46,143.87,150.68,138.74,148.77,135.38Z"/><path class="i" d="M87.8,34.06c-2.71-.64-12.68,12.45-9.51,25.58C81.16,71.46,93.45,78.2,94.86,77c.78-.65-2.17-3.33-3.57-9.83-1.13-5.21.23-6-.21-17.85a53.45,53.45,0,0,0-1.24-9.45C89,36.12,88.59,34.24,87.8,34.06Z"/><path class="d" d="M94.37,78.47a5,5,0,0,1-1.57-.29,24.5,24.5,0,0,1-8.52-5.78A26.81,26.81,0,0,1,77,60c-2.56-10.62,3-21.09,7-25.2,1.57-1.59,2.94-2.25,4.08-2h0c1.6.38,2,2.14,3,6.83a56.26,56.26,0,0,1,1.27,9.69,102.11,102.11,0,0,1-.13,11.21,19.32,19.32,0,0,0,.31,6.41,26.58,26.58,0,0,0,2.82,7.42c.75,1.41,1.46,2.74.31,3.71A2,2,0,0,1,94.37,78.47Zm-7-43a11.91,11.91,0,0,0-3.46,3.67c-3.28,4.78-6.13,12.6-4.29,20.18C81.78,68.4,89.6,74,93,75.42a29.25,29.25,0,0,1-3-8,22.25,22.25,0,0,1-.37-7.14,94.82,94.82,0,0,0,.13-10.94,52.56,52.56,0,0,0-1.21-9.21A35.63,35.63,0,0,0,87.34,35.47Zm.28-.11"/><path class="d" d="M98.88,82.66a1.31,1.31,0,0,1-1-.49,37.68,37.68,0,0,1-6.52-11.88c-1.85-5.67-1.73-10.09-1.62-14.78,0-1.59.09-3.22.05-4.93A62.72,62.72,0,0,0,84.29,27,1.33,1.33,0,0,1,86.73,26a65.29,65.29,0,0,1,5.68,24.55c0,1.77,0,3.44,0,5.06-.11,4.45-.22,8.65,1.49,13.88a34.73,34.73,0,0,0,6.06,11,1.32,1.32,0,0,1-1,2.16Z"/><path class="d" d="M141,102.89a.94.94,0,0,0-1.34-.13l-2.33,1.92-1.8-2.13a1,1,0,0,0-1.34-.11.94.94,0,0,0-.11,1.33l2.19,2.59.1,3.82a.94.94,0,0,0,.94.93h0a1,1,0,0,0,.92-1l-.09-3.69,2.7-2.22A1,1,0,0,0,141,102.89Z"/><path class="j" d="M136.84,132.64l-6.2-1.68"/><path class="k" d="M94.05,247.74a19.42,19.42,0,0,0,4-1.29,16.2,16.2,0,0,0,1.8-1A25.68,25.68,0,0,0,103,243a26.5,26.5,0,0,0,2.54-2.62c.3-.39.6-.8.9-1.26s.54-.82.77-1.22l-2-.86a.3.3,0,0,1-.16-.39.31.31,0,0,1,.4-.16l2.09.88c.53-.95,1-1.85,1.33-2.65a40.81,40.81,0,0,0,1.62-3.76l-1.34-.56a.3.3,0,1,1,.24-.55l1.29.55a24.28,24.28,0,0,0,1.17-5.37l-4.36-1.85a.29.29,0,0,1-.16-.39.3.3,0,0,1,.39-.16l4.18,1.77c0-.3,0-.6.05-.91a24.18,24.18,0,0,0-.17-3.8,2.6,2.6,0,0,1-1.19-.14,1.61,1.61,0,0,1-.5-.35,1.37,1.37,0,0,1-.35-.78,2.58,2.58,0,0,0-.18-.58,2.38,2.38,0,0,0-.4-.59,1.47,1.47,0,0,1-.44-.91,1.9,1.9,0,0,1,0-.34,2,2,0,0,1-.64,0,1.33,1.33,0,0,1-.71-.32,1.35,1.35,0,0,0-.32-.19l-.1,0a1.51,1.51,0,0,0-.61-.1,1.8,1.8,0,0,1-.7-.13l-.23-.12a1.33,1.33,0,0,1-.19-.14,1.57,1.57,0,0,1-.51.73,1.28,1.28,0,0,1-.77.27,3.3,3.3,0,0,0-.65.11,3.46,3.46,0,0,0-.67.26,2.27,2.27,0,0,1-.69.26,2.84,2.84,0,0,1-1.62-.22l-.09,0a42.12,42.12,0,0,0-3.13,3.93c-.27.39-.58.82-.9,1.3l1.76.74a.3.3,0,1,1-.24.56l-1.86-.79a32.71,32.71,0,0,0-2.79,5.08l2.19.92a.3.3,0,0,1,.16.39.3.3,0,0,1-.4.16l-2.18-.92a29.25,29.25,0,0,0-1.23,3.64c-.15.6-.35,1.35-.51,2.22L94.35,235a.3.3,0,0,1,.16.4.3.3,0,0,1-.39.16L91,234.2a18.33,18.33,0,0,0-.16,4.83,17,17,0,0,0,.59,3.19,26.41,26.41,0,0,0,1.78,5,1.74,1.74,0,0,1,.15.9A1.45,1.45,0,0,1,94.05,247.74Zm2.2-10.81a5,5,0,0,1,2.31-5.21,2.33,2.33,0,0,1,2.06-.22h0a2.38,2.38,0,0,1,1.26,1.69,5,5,0,0,1-2.32,5.21,2.72,2.72,0,0,1-1.24.37,1.9,1.9,0,0,1-.82-.15h0A2.37,2.37,0,0,1,96.25,236.93Z"/><path class="l" d="M111.42,218a.5.5,0,0,1-.2-.13s0-.06-.09-.22a3.71,3.71,0,0,0-.28-.76,4.44,4.44,0,0,0-.41-.61l0-.07a1.06,1.06,0,0,1,.27-.22h0a11,11,0,0,0,2.14-2.1,17.28,17.28,0,0,1,6.43-5.09.64.64,0,0,0,0,.33.62.62,0,0,0,.37.39,2.09,2.09,0,0,0,1.11,0,9.87,9.87,0,0,1,1.32-.17,5.87,5.87,0,0,1,1.66.18,15.75,15.75,0,0,1-1.17,1.79c-.79,1.06-1.11,1.2-1.37,1.26a1.84,1.84,0,0,1-.66,0c-.17,0-.7-.09-.87.4s0,.76,1.11,1.28h-.14a12.48,12.48,0,0,1-1.89,0l-.36,0a.63.63,0,0,0-.72.53.6.6,0,0,0,.39.66,2.93,2.93,0,0,0,.38.12,8.58,8.58,0,0,1,1.34.43l.08,0c.27.12.53.26.66.33-.3.24-.6.46-.92.68a15.38,15.38,0,0,1-1.66,1,5.63,5.63,0,0,1-1,.33,5.55,5.55,0,0,1-1.07.17,12.12,12.12,0,0,1-2.53-.15l-1.53-.21h0a1.07,1.07,0,0,1-.39-.09m-.24.56a2,2,0,0,0,.58.13c.62.1,1.15.17,1.54.22A14.06,14.06,0,0,0,116,219a6,6,0,0,0,1.18-.19,6.17,6.17,0,0,0,1.06-.37,14.81,14.81,0,0,0,1.74-1,13.55,13.55,0,0,0,1.6-1.27c-.19-.12-.41-.26-.65-.39,0,0-.39-.21-.79-.38l-.09,0a14.24,14.24,0,0,0-1.72-.54l0,0c0-.07,1.1.13,2.42,0a9.17,9.17,0,0,0,2-.38c-2-.89-2.53-1.21-2.5-1.31s.51.11,1.11,0,.9-.41,1.71-1.47a18,18,0,0,0,1.56-2.51,6.27,6.27,0,0,0-2.55-.43c-1,.05-2,.33-2.18.25a.08.08,0,0,1,0,0c0-.09.27-.21.56-.62a2.14,2.14,0,0,0,.33-.7,15.89,15.89,0,0,0-1.63.61c-5.21,2.25-6.78,6-8.75,7.27-.13.09-.55.35-.57.73s.25.39.54,1,.19.81.47,1.11a1.21,1.21,0,0,0,.4.28Z"/><path class="l" d="M101.42,215.07h0a8.84,8.84,0,0,1-1.85-1.56l-.16-.15-1.49-1.44c-1.51-1.44-1.87-1.78-2.28-2.61a9.08,9.08,0,0,1-.66-1.9,8.23,8.23,0,0,1-.15-1.11,4.29,4.29,0,0,1,.66.46,1.47,1.47,0,0,0,.39.26.63.63,0,0,0,.64-.05c.46-.31.27-.82.13-1.19a5.75,5.75,0,0,1-.33-1.11,2.89,2.89,0,0,1,0-.29l.08.06.14.11a.64.64,0,0,0,.25.18.64.64,0,0,0,.47,0c.54-.22.43-.76.29-1.39,0-.16-.07-.34-.1-.52s-.07-.58-.14-1.27q-.08-.75-.12-1.5a7.15,7.15,0,0,1,1.13.89c.21.2.39.4.57.6a3.3,3.3,0,0,0,1,.9,1,1,0,0,0,.69,0,1,1,0,0,0,.57-.51l.17-.25c.47,2.71,1,5,1.46,6.8.16.61.26,1.24.37,1.9a16.23,16.23,0,0,0,.4,2l.06.25a8.3,8.3,0,0,1,.27,1.13.81.81,0,0,1,0,.43l-.15,0a3.38,3.38,0,0,0-1,.24,3.25,3.25,0,0,0-.84.47.82.82,0,0,1-.2.12.34.34,0,0,1-.26,0m-.23.55a.93.93,0,0,0,.67.06c.32-.1.43-.35,1.08-.6s1.06-.13,1.32-.37c.47-.43.13-1.46-.14-2.42-.35-1.29-.41-2.64-.77-3.92a78.09,78.09,0,0,1-1.62-7.81,3.58,3.58,0,0,0-.74.63c-.39.44-.39.66-.6.73a.34.34,0,0,1-.26,0c-.38-.16-.82-.8-1.43-1.38A7.83,7.83,0,0,0,96.5,199c0,.82.08,1.68.17,2.59.07.7.11,1.06.15,1.32.12.63.28,1.2.18,1.24h0s-.1-.1-.26-.22a2,2,0,0,0-.38-.23l-.17-.07a4.24,4.24,0,0,0-.5-.17,4.53,4.53,0,0,0,.06,1.28c.17,1,.59,1.61.46,1.7s0,0-.08,0a9.81,9.81,0,0,0-1.15-.78l-.26-.12c-.19-.08-.36-.13-.48-.17a8.82,8.82,0,0,0,.18,2.14,9,9,0,0,0,.7,2c.58,1.18,1.07,1.48,3.9,4.22a9.46,9.46,0,0,0,2.19,1.83Z"/><path class="l" d="M106,213.48s0,0-.06,0a.78.78,0,0,1-.21-.55v-.08c0-.08-1.83-8.46-2.39-12.64a13.38,13.38,0,0,1-.09-2.87,12.41,12.41,0,0,1,.34-2l.19.49c.11.29.19.54.25.74.17.51.28.86.65,1h0a.86.86,0,0,0,.23.06c.62,0,.84-.54,1.1-1.21a12.41,12.41,0,0,1,1-2c.11-.16.22-.33.34-.49a1.21,1.21,0,0,1,0,.14,3.11,3.11,0,0,1,.16.64.88.88,0,0,0,.47.75l.15,0c.56.1.78-.42,1-.91a8.82,8.82,0,0,1,.66-1.29c.09-.14.18-.28.28-.41a1.23,1.23,0,0,1,0,.27.77.77,0,0,0,.37.78h0c.53.22.88-.2,1.36-.78.22-.25.46-.54.73-.81a7.16,7.16,0,0,1,.65-.57c0,.32.06.64.1,1,.28,1.91.66,2.32,1,2.47a.58.58,0,0,0,.26.06.84.84,0,0,0,.66-.29l.11-.1c0,.12,0,.24,0,.35s-.07.43-.11.65c-.1.52-.21.91-.29,1.2-.13.45-.27.95.21,1.22l0,0h0c.43.18.73-.14.93-.35a4.34,4.34,0,0,1,.6-.53l.28-.19a.45.45,0,0,1,0,.11,2,2,0,0,1-.06.51.86.86,0,0,0,.29,1l.08,0a.81.81,0,0,0,.82-.18l0,0a1.38,1.38,0,0,1-.14.24.86.86,0,0,0-.11,1,.8.8,0,0,0,.29.23.94.94,0,0,0,.57,0l.14,0-.2.17a.85.85,0,0,0-.41.86.74.74,0,0,0,.42.48,1.23,1.23,0,0,0,.38.08,1.36,1.36,0,0,1,.43.11.94.94,0,0,1,.22.12,7.83,7.83,0,0,1-.74.78l-.08.07c-.24.22-.6.56-.38,1a.66.66,0,0,0,.33.31,1.08,1.08,0,0,0,.69,0l-.27.43a8.05,8.05,0,0,1-2.7,2.44,34.85,34.85,0,0,0-3.11,2.27,17.52,17.52,0,0,0-3.25,3.17l-1.24,1.67v0l0,0c-.13.22-.24.3-.3.31a1.72,1.72,0,0,1-.2-.16,3.44,3.44,0,0,0-.88-.56l0,0a3.3,3.3,0,0,0-1.21-.22,1.18,1.18,0,0,1-.37,0h0m-.23.56c.41.17.87,0,1.58.26h0a8.22,8.22,0,0,1,1.1.73.68.68,0,0,0,.29,0,1.13,1.13,0,0,0,.74-.6l1.24-1.67a17.52,17.52,0,0,1,3.15-3.07c3.24-2.65,4.54-2.76,5.93-4.84a9.41,9.41,0,0,0,.9-1.74,4.64,4.64,0,0,1-1.58.41l0,0c0-.07.13-.2.33-.4a9.83,9.83,0,0,0,1.12-1.23,1.89,1.89,0,0,0-.77-.66h0a7.4,7.4,0,0,0-.81-.19A.11.11,0,0,1,119,201c0-.13.25-.24.55-.57a2.4,2.4,0,0,0,.47-.74l-.1,0a2,2,0,0,0-.64-.14c-.38,0-.62.09-.72.05l0,0c-.08-.12.22-.37.41-.85a2.53,2.53,0,0,0,.17-.91,1.84,1.84,0,0,0-.79.16c-.37.17-.54.4-.63.35h0c-.12-.07.08-.45.06-1a2.16,2.16,0,0,0-.24-.92,3.85,3.85,0,0,0-1,.52c-.59.42-.84.86-1,.82h0c-.12-.07.16-.64.38-1.79,0-.23.07-.41.11-.67.08-.52.14-1,.18-1.49a3.19,3.19,0,0,0-.35.14s-.2.09-.39.2c-.51.29-.56.51-.72.51l-.06,0c-.39-.16-.61-1.69-.66-2a12.77,12.77,0,0,1-.12-2,7.13,7.13,0,0,0-1.65,1.24c-.72.72-1.23,1.54-1.43,1.46h0c-.11-.06,0-.38-.11-.82a1.63,1.63,0,0,0-.5-.68,7.39,7.39,0,0,0-.84,1.07c-.66,1-.84,2-1,1.93h0c-.11-.05-.08-.45-.29-1a3.91,3.91,0,0,0-.55-1,9.67,9.67,0,0,0-.92,1.22c-1,1.63-1.17,3-1.53,3h0c-.18-.08-.25-.55-.57-1.41a13.32,13.32,0,0,0-.88-1.88,13.08,13.08,0,0,0-.81,3.56,13.22,13.22,0,0,0,.1,3c.55,4.16,2.32,12.35,2.4,12.69a1.39,1.39,0,0,0,.39.94,1.11,1.11,0,0,0,.24.16Z"/><path class="m" d="M95.35,239.65l.57,1.95L94.47,245a.29.29,0,0,0,.16.39.29.29,0,0,0,.39-.16l1.45-3.42,1.79-1a.29.29,0,0,0,.12-.4.27.27,0,0,0-.14-.14.34.34,0,0,0-.26,0l-1.56.83-.49-1.7a.32.32,0,0,0-.17-.19.35.35,0,0,0-.2,0A.3.3,0,0,0,95.35,239.65Z"/><path class="m" d="M99.68,229.76a.29.29,0,0,0,.42,0l1.76-1.42.24,2.25a.3.3,0,0,0,.33.26.29.29,0,0,0,.27-.33l-.3-2.72,2.15-5.22a.3.3,0,0,0-.16-.39.3.3,0,0,0-.39.16l-2.15,5.22-2.13,1.73A.29.29,0,0,0,99.68,229.76Z"/><path class="n" d="M111.42,218a.5.5,0,0,1-.2-.13s0-.06-.09-.22a3.71,3.71,0,0,0-.28-.76,4.44,4.44,0,0,0-.41-.61l0-.07a1.06,1.06,0,0,1,.27-.22h0a11,11,0,0,0,2.14-2.1,17.28,17.28,0,0,1,6.43-5.09.64.64,0,0,0,0,.33.62.62,0,0,0,.37.39,2.09,2.09,0,0,0,1.11,0,9.87,9.87,0,0,1,1.32-.17,5.87,5.87,0,0,1,1.66.18,15.75,15.75,0,0,1-1.17,1.79c-.79,1.06-1.11,1.2-1.37,1.26a1.84,1.84,0,0,1-.66,0c-.17,0-.7-.09-.87.4s0,.76,1.11,1.28h-.14a12.48,12.48,0,0,1-1.89,0l-.36,0a.63.63,0,0,0-.72.53.6.6,0,0,0,.39.66,2.93,2.93,0,0,0,.38.12,8.58,8.58,0,0,1,1.34.43l.08,0c.27.12.53.26.66.33-.3.24-.6.46-.92.68a15.38,15.38,0,0,1-1.66,1,5.63,5.63,0,0,1-1,.33,5.55,5.55,0,0,1-1.07.17,12.12,12.12,0,0,1-2.53-.15l-1.53-.21h0a1.07,1.07,0,0,1-.39-.09"/><path class="o" d="M106,213.48s0,0-.06,0a.78.78,0,0,1-.21-.55v-.08c0-.08-1.83-8.46-2.39-12.64a13.38,13.38,0,0,1-.09-2.87,12.41,12.41,0,0,1,.34-2l.19.49c.11.29.19.54.25.74.17.51.28.86.65,1h0a.86.86,0,0,0,.23.06c.62,0,.84-.54,1.1-1.21a12.41,12.41,0,0,1,1-2c.11-.16.22-.33.34-.49a1.21,1.21,0,0,1,0,.14,3.11,3.11,0,0,1,.16.64.88.88,0,0,0,.47.75l.15,0c.56.1.78-.42,1-.91a8.82,8.82,0,0,1,.66-1.29c.09-.14.18-.28.28-.41a1.23,1.23,0,0,1,0,.27.77.77,0,0,0,.37.78h0c.53.22.88-.2,1.36-.78.22-.25.46-.54.73-.81a7.16,7.16,0,0,1,.65-.57c0,.32.06.64.1,1,.28,1.91.66,2.32,1,2.47a.58.58,0,0,0,.26.06.84.84,0,0,0,.66-.29l.11-.1c0,.12,0,.24,0,.35s-.07.43-.11.65c-.1.52-.21.91-.29,1.2-.13.45-.27.95.21,1.22l0,0h0c.43.18.73-.14.93-.35a4.34,4.34,0,0,1,.6-.53l.28-.19a.45.45,0,0,1,0,.11,2,2,0,0,1-.06.51.86.86,0,0,0,.29,1l.08,0a.81.81,0,0,0,.82-.18l0,0a1.38,1.38,0,0,1-.14.24.86.86,0,0,0-.11,1,.8.8,0,0,0,.29.23.94.94,0,0,0,.57,0l.14,0-.2.17a.85.85,0,0,0-.41.86.74.74,0,0,0,.42.48,1.23,1.23,0,0,0,.38.08,1.36,1.36,0,0,1,.43.11.94.94,0,0,1,.22.12,7.83,7.83,0,0,1-.74.78l-.08.07c-.24.22-.6.56-.38,1a.66.66,0,0,0,.33.31,1.08,1.08,0,0,0,.69,0l-.27.43a8.05,8.05,0,0,1-2.7,2.44,34.85,34.85,0,0,0-3.11,2.27,17.52,17.52,0,0,0-3.25,3.17l-1.24,1.67v0l0,0c-.13.22-.24.3-.3.31a1.72,1.72,0,0,1-.2-.16,3.44,3.44,0,0,0-.88-.56l0,0a3.3,3.3,0,0,0-1.21-.22,1.18,1.18,0,0,1-.37,0h0"/><path class="m" d="M102.08,236.4a5.17,5.17,0,0,0,.37-3.25,2.89,2.89,0,0,0-1.59-2.09l0,0a2.94,2.94,0,0,0-2.58.23A5.46,5.46,0,0,0,95.7,237a2.93,2.93,0,0,0,1.6,2.09l0,0a2.61,2.61,0,0,0,1.07.2,3.35,3.35,0,0,0,1.51-.44A5.16,5.16,0,0,0,102.08,236.4Zm-2.49,2a2.72,2.72,0,0,1-1.24.37,1.9,1.9,0,0,1-.82-.15h0a2.37,2.37,0,0,1-1.25-1.69,5,5,0,0,1,2.31-5.21,2.33,2.33,0,0,1,2.06-.22h0a2.38,2.38,0,0,1,1.26,1.69,5,5,0,0,1-2.32,5.21Z"/><path class="n" d="M101.42,215.07h0a8.84,8.84,0,0,1-1.85-1.56l-.16-.15-1.49-1.44c-1.51-1.44-1.87-1.78-2.28-2.61a9.08,9.08,0,0,1-.66-1.9,8.23,8.23,0,0,1-.15-1.11,4.29,4.29,0,0,1,.66.46,1.47,1.47,0,0,0,.39.26.63.63,0,0,0,.64-.05c.46-.31.27-.82.13-1.19a5.75,5.75,0,0,1-.33-1.11,2.89,2.89,0,0,1,0-.29l.08.06.14.11a.64.64,0,0,0,.25.18.64.64,0,0,0,.47,0c.54-.22.43-.76.29-1.39,0-.16-.07-.34-.1-.52s-.07-.58-.14-1.27q-.08-.75-.12-1.5a7.15,7.15,0,0,1,1.13.89c.21.2.39.4.57.6a3.3,3.3,0,0,0,1,.9,1,1,0,0,0,.69,0,1,1,0,0,0,.57-.51l.17-.25c.47,2.71,1,5,1.46,6.8.16.61.26,1.24.37,1.9a16.23,16.23,0,0,0,.4,2l.06.25a8.3,8.3,0,0,1,.27,1.13.81.81,0,0,1,0,.43l-.15,0a3.38,3.38,0,0,0-1,.24,3.25,3.25,0,0,0-.84.47.82.82,0,0,1-.2.12.34.34,0,0,1-.26,0"/><path class="m" d="M100.54,233.21a.39.39,0,0,1,.1-.08.28.28,0,0,1,.35.14,3.47,3.47,0,0,1-1.38,4.36.27.27,0,0,1-.36-.09.27.27,0,0,1,.09-.36,3,3,0,0,0,1.29-1.66,3,3,0,0,0-.12-2A.24.24,0,0,1,100.54,233.21Z"/><path class="m" d="M94.16,248.33A19.52,19.52,0,0,0,98.25,247a17.22,17.22,0,0,0,2-1.06,24.39,24.39,0,0,0,3.1-2.35,24.77,24.77,0,0,0,2.71-2.83A38.39,38.39,0,0,0,109.4,235a27.84,27.84,0,0,0,3.13-11.46,24.37,24.37,0,0,0-.26-4.51,2.61,2.61,0,0,1-1.46,0,.93.93,0,0,1-.31-.21c-.26-.29-.11-.53-.42-1.2s-.74-.81-.78-1.3.52-1.06.38-1.22l0,0c-.18-.08-.75.48-1.48.36l-.21,0a5.71,5.71,0,0,0-.69-.42l-.12,0c-.66-.24-.92-.06-1.28-.22l-.15-.07c-.51-.32-.59-.89-.74-.95h0c-.26,0,0,1.11-.6,1.58-.28.22-.43.06-1.2.27s-.85.42-1.32.51a2.27,2.27,0,0,1-1.28-.18,4.83,4.83,0,0,1-.45-.23A43.92,43.92,0,0,0,96.59,220,33.74,33.74,0,0,0,91,231.23a20.7,20.7,0,0,0-.8,7.86,17.58,17.58,0,0,0,.6,3.3,26.05,26.05,0,0,0,1.83,5.07c.24.51-.06,1.76-.65,3.69C92.71,250,93.42,248.43,94.16,248.33Zm-1-1.13a26.41,26.41,0,0,1-1.78-5,17,17,0,0,1-.59-3.19A18.33,18.33,0,0,1,91,234.2l3.15,1.34a.3.3,0,0,0,.39-.16.3.3,0,0,0-.16-.4l-3.27-1.38c.16-.87.36-1.62.51-2.22a29.25,29.25,0,0,1,1.23-3.64l2.18.92a.3.3,0,0,0,.4-.16.3.3,0,0,0-.16-.39l-2.19-.92a32.71,32.71,0,0,1,2.79-5.08l1.86.79a.3.3,0,1,0,.24-.56l-1.76-.74c.32-.48.63-.91.9-1.3a42.12,42.12,0,0,1,3.13-3.93l.09,0a2.84,2.84,0,0,0,1.62.22,2.27,2.27,0,0,0,.69-.26,3.46,3.46,0,0,1,.67-.26,3.3,3.3,0,0,1,.65-.11,1.28,1.28,0,0,0,.77-.27,1.57,1.57,0,0,0,.51-.73,1.33,1.33,0,0,0,.19.14l.23.12a1.8,1.8,0,0,0,.7.13,1.51,1.51,0,0,1,.61.1l.1,0a1.35,1.35,0,0,1,.32.19,1.33,1.33,0,0,0,.71.32,2,2,0,0,0,.64,0,1.9,1.9,0,0,0,0,.34,1.47,1.47,0,0,0,.44.91,2.38,2.38,0,0,1,.4.59,2.58,2.58,0,0,1,.18.58,1.37,1.37,0,0,0,.35.78,1.61,1.61,0,0,0,.5.35,2.6,2.6,0,0,0,1.19.14,24.18,24.18,0,0,1,.17,3.8c0,.31,0,.61-.05.91l-4.18-1.77a.3.3,0,0,0-.39.16.29.29,0,0,0,.16.39l4.36,1.85a24.28,24.28,0,0,1-1.17,5.37l-2.73-1.22a.3.3,0,0,0-.4.16.3.3,0,0,0,.16.39l2.78,1.23a40.81,40.81,0,0,1-1.62,3.76c-.37.8-.8,1.7-1.33,2.65L104.13,236a.3.3,0,0,0-.39.16.32.32,0,0,0,.16.4l3.32,1.38a22.76,22.76,0,0,1-1.35,2.06,24.67,24.67,0,0,1-2.93,3.1,25.55,25.55,0,0,1-3.58,2.67,14,14,0,0,1-1.36.68,19.42,19.42,0,0,1-4,1.29,1.45,1.45,0,0,0-.72.36A1.74,1.74,0,0,0,93.18,247.2Z"/><path class="i" d="M122.53,144.78A7.61,7.61,0,0,1,135.18,141a7.8,7.8,0,0,1,1.4,8.48c-.13.32-1.9,4.36-5.86,4.75a7.49,7.49,0,0,1-5.82-2.38C124.41,151.32,121.75,148.55,122.53,144.78Z"/><path class="i" d="M135.52,133.54c1.39-1.54,3.3-1.65,5.91-1.79,2.28-.13,4-.22,5.57.92,2.57,1.92,2.36,5.7,2.33,6.35a9.28,9.28,0,0,1-5.09,7.7c-2.18,1.05-5.5,1.45-6.54.05-.82-1.09.4-2.44-.59-4.31-.7-1.35-1.6-1.15-2.37-2.38A5.84,5.84,0,0,1,135.52,133.54Z"/><path class="d" d="M142.82,103.82a.7.7,0,0,1-.49-.2.67.67,0,0,1,0-.94,10.19,10.19,0,0,1,8.4-2.69.66.66,0,0,1,.57.74.66.66,0,0,1-.75.57,9,9,0,0,0-4.13.42,9.1,9.1,0,0,0-3.18,1.92A.62.62,0,0,1,142.82,103.82Z"/><path class="d" d="M142.82,106.37a.66.66,0,0,1-.3-1.26,15.11,15.11,0,0,1,7.21-1.67,14.68,14.68,0,0,1,2.94.36.68.68,0,0,1,.5.8.67.67,0,0,1-.8.5,13.45,13.45,0,0,0-2.67-.33,13.76,13.76,0,0,0-6.58,1.53A.66.66,0,0,1,142.82,106.37Z"/><path class="d" d="M150.32,109.31a.66.66,0,0,1-.27-.06,9.87,9.87,0,0,0-2.59-.76,10.25,10.25,0,0,0-4.65.43.66.66,0,1,1-.42-1.26,11.28,11.28,0,0,1,8.2.37.67.67,0,0,1-.27,1.28Z"/><path class="d" d="M132,104.13a.66.66,0,0,1-.45-.18,9.12,9.12,0,0,0-3.18-1.93,9,9,0,0,0-4.13-.41.68.68,0,0,1-.75-.57.67.67,0,0,1,.57-.75,10.27,10.27,0,0,1,8.4,2.69.67.67,0,0,1,0,.94A.67.67,0,0,1,132,104.13Z"/><path class="d" d="M132,106.67a.66.66,0,0,1-.3-.07,13.85,13.85,0,0,0-6.58-1.53,13.45,13.45,0,0,0-2.67.33.66.66,0,1,1-.3-1.29,14.69,14.69,0,0,1,2.94-.37,15.15,15.15,0,0,1,7.21,1.68.66.66,0,0,1,.3.89A.68.68,0,0,1,132,106.67Z"/><path class="d" d="M124.47,109.61a.66.66,0,0,1-.61-.4.66.66,0,0,1,.34-.87,11.27,11.27,0,0,1,2.94-.86,11.49,11.49,0,0,1,5.26.48.66.66,0,0,1,.42.84.66.66,0,0,1-.84.42,10.11,10.11,0,0,0-4.65-.42,9.85,9.85,0,0,0-2.59.75A.66.66,0,0,1,124.47,109.61Z"/><path class="i" d="M78.42,20.57c.74-.76,1.45-1.56,2.21-2.3,2-1.94,2.92-2.58,2.77-2.91-.23-.5-2.79.05-4.22.58-6.33,2.33-9,10.8-10.76,16.57a44.78,44.78,0,0,0-2.18,20.21,44.46,44.46,0,0,0,4.65,14.39c.54,1,.18.23,8.29,11C81.3,81,84.08,80.28,85,82.38c1.29,3-1.16,6.07-2.69,9.35C76.87,103.46,83.38,117,84,118.28c4.65,9.37,13.63,14.09,14.35,13.38.87-.87-11.17-9-12.92-23a41,41,0,0,1,1.42-17.58c1.63-4.47,3.42-6.09,2.78-9-.94-4.28-5.57-4.81-10.58-9.84-4.3-4.31-5.91-9-7.27-12.65-4.28-11.35-1.61-22-.73-25A37.31,37.31,0,0,1,78.42,20.57Z"/><path class="i" d="M92.36,128.94a1.81,1.81,0,0,1,1.55.88c1,1.65-1.69,4-4,8.67-2.56,5.19-2.65,9.19-3.44,9.11-.6-.06-.92-2.38-.92-4.07,0-2.84.89-3.44,4.12-10.9C90.52,130.71,91.21,129,92.36,128.94Z"/><path class="i" d="M113.48,104.11c-1.59.11-1.77,2-4.88,3.36-1.82.83-3.48,1-3.45,1.2a12,12,0,0,0,3.15-.15c1.6-.19,2.1-.35,2.22-.14.29.49-2,1.58-3.1,4.08-.92,2.14-.54,4.49-.18,4.56.18,0,.31-.49,1.08-1.75.51-.86,1.4-2.17,1.6-2.08s-.84,1.69-.51,3.42a4.64,4.64,0,0,0,1.8,2.66c.37-1.5.57-1.77.68-1.76.26,0,.07,1.64.6,3.35a8.31,8.31,0,0,0,2.1,3.37c-.63-2.34-.62-2.92-.47-3,.39-.15,1.35,3.63,4.17,4.67,1.57.58,3.78.45,4.59-.7s-.41-2.69-1.74-6.81c-1.63-5.06-.73-5.91-2.39-9.11C118.18,108.2,116,103.94,113.48,104.11Z"/><path class="d" d="M149.93,134.34a8.42,8.42,0,0,0-5.42-3.78,12.67,12.67,0,0,0-7.77.68l-2.89-.79a35.63,35.63,0,0,0,5.89-5.31,33.59,33.59,0,0,0,8.4-18.78c1-9.12-1.77-22.16-12.44-29.82a32.26,32.26,0,0,0,8.43-17.76c1.54-13.56-7.32-23.81-13.8-31.3-5.41-6.26-14.48-16.74-20.86-14.13-4.35,1.77-6.15,8.9-5.53,21.78.15,3,.41,5.94.71,8.68-.25-.58-.5-1.16-.76-1.73-6.42-14.21-13-28.9-21.77-28.61-2.76.09-5.59,1.71-8.21,4.7C67.4,25.58,63.5,39.4,64.63,51a43.27,43.27,0,0,0,9.75,23.11,54.73,54.73,0,0,0,9.73,9.44,41.77,41.77,0,0,0-3.63,10.5c-2.57,12.83.42,21.5,3.38,26.51A31.89,31.89,0,0,0,91,128.82a37.2,37.2,0,0,0-6.44,12.48,36.49,36.49,0,0,0-1.2,5.88,1.32,1.32,0,0,0,1,1.44,86.19,86.19,0,0,0,12.79,2.56,65.45,65.45,0,0,0,11.75.43,37.89,37.89,0,0,1,10.09.64,55.94,55.94,0,0,1,6.78,1.83,16.06,16.06,0,0,0,4.79,1.08,6,6,0,0,0,3-.83,10.94,10.94,0,0,0,4.62-5.8,12.38,12.38,0,0,0,1.59.11,10.71,10.71,0,0,0,5.95-1.73C149.6,144.33,152.3,138.53,149.93,134.34ZM110.47,15.81c1.86-.76,4.81.52,8.54,3.7a91.37,91.37,0,0,1,9.31,9.71c6.5,7.51,14.58,16.86,13.17,29.25a29.73,29.73,0,0,1-8.05,16.6,32,32,0,0,0-20.22-3.73A135.57,135.57,0,0,0,109,55.1,170.07,170.07,0,0,1,106.6,35C105.87,20,108.71,16.53,110.47,15.81Zm33.76,128.88a8.22,8.22,0,0,1-5.51,1.22,7.4,7.4,0,0,0-.88-4.2,8.43,8.43,0,0,0-5.42-3.78,13.13,13.13,0,0,0-10.18,1.95,1.33,1.33,0,0,0,1.44,2.23,10.49,10.49,0,0,1,8.11-1.59,5.75,5.75,0,0,1,3.74,2.5c1.57,2.78-.53,7.43-3.3,9-1.47.83-2.62.53-5.7-.47a57.92,57.92,0,0,0-7.09-1.91,40.62,40.62,0,0,0-10.7-.69,62.12,62.12,0,0,1-11.32-.41,84.26,84.26,0,0,1-11.29-2.17,34,34,0,0,1,7-15.94,35.86,35.86,0,0,0,4.3,2.6,1.33,1.33,0,0,0,1.21-2.36,30.86,30.86,0,0,1-12.46-11.44c-2.72-4.61-5.46-12.63-3-24.64A38.91,38.91,0,0,1,87,83.8a1.34,1.34,0,0,0-.4-1.71c-5.26-3.76-17.67-14.34-19.32-31.33C66.08,38.48,70.83,25.7,75.9,19.92c2.13-2.42,4.3-3.73,6.31-3.8,3-.1,6.18,2.57,9.75,8.17,3.34,5.23,6.47,12.17,9.5,18.88a129.21,129.21,0,0,1,4.92,12.59,124.1,124.1,0,0,0,4.52,17.52v0l0,.07a.17.17,0,0,1,0,.05.43.43,0,0,0,0,.07l0,0a.21.21,0,0,0,0,.06l0,0,0,0,0,.05,0,0,0,0,0,0,0,0,.05,0,0,0,.06,0,0,0,.07,0,0,0,.07,0h0l.07,0h.49c3.45-.62,12.37-1.51,20.56,3.72a26.22,26.22,0,0,1,9.29,10.3,5.72,5.72,0,0,0-2,4.51c0,3,1.85,5.33,4.21,5.33a3.1,3.1,0,0,0,.81-.11,32.83,32.83,0,0,1,.2,8.17c-1.35,12.77-11.22,24-24,27.26a32.82,32.82,0,0,1-3.81.73,1.33,1.33,0,0,0,.17,2.65l.17,0a32,32,0,0,0,4.13-.79,34.63,34.63,0,0,0,8.66-3.52l2.95.8a1.31,1.31,0,0,0,.14,1.15,1.33,1.33,0,0,0,1.84.39,10.47,10.47,0,0,1,8.1-1.59,5.73,5.73,0,0,1,3.74,2.51C149.19,138.44,147.09,142.8,144.23,144.69Z"/><path class="d" d="M122.22,98.21c2.37,0,4.22-2.34,4.22-5.33s-1.85-5.32-4.22-5.32S118,89.9,118,92.88,119.86,98.21,122.22,98.21Z"/><path class="d" d="M119.65,126.81a4.6,4.6,0,0,1-1.58-.27,6.09,6.09,0,0,1-2.81-2.29.68.68,0,0,1-.33.55.66.66,0,0,1-.8-.1,8.75,8.75,0,0,1-2.27-3.65,8.5,8.5,0,0,1-.28-1.22l-.15.07a.65.65,0,0,1-.63-.1,5.23,5.23,0,0,1-2-3.07,5.29,5.29,0,0,1-.08-.78c-.2.35-.34.62-.46.84-.26.51-.52,1-1.1.88a.88.88,0,0,1-.61-.48,7,7,0,0,1,.3-5,9.31,9.31,0,0,1,2.31-3.11l-.74.09c-.26,0-1.18.14-2,.19-1,.07-1.73.12-1.87-.57,0-.28,0-.66.67-.89.18-.07.42-.13.71-.22a21.62,21.62,0,0,0,2.46-.83,14.41,14.41,0,0,0,4.67-3.21.66.66,0,0,1,.94,0,.67.67,0,0,1,0,.94,16,16,0,0,1-4.18,3.08c.64-.08,1.06-.06,1.32.39.38.66-.21,1.21-.84,1.79a8.44,8.44,0,0,0-2.23,2.88,6.7,6.7,0,0,0-.52,2.6l.24-.4c.31-.51.67-1,1-1.44s.88-1.19,1.51-.88.37,1,.22,1.39a4.81,4.81,0,0,0-.37,2.49,3.45,3.45,0,0,0,.8,1.55c.25-.79.55-1.23,1.1-1.18s.72.72.78,1.47a10.61,10.61,0,0,0,.39,2.34,5.4,5.4,0,0,0,.25.67.71.71,0,0,1,.49-.69c.68-.27,1,.36,1.45,1.15.59,1.1,1.58,2.93,3.19,3.5a5.15,5.15,0,0,0,4.06-.66.66.66,0,1,1,.62,1.17A7.73,7.73,0,0,1,119.65,126.81Z"/></svg>