<?xml version="1.0" encoding="UTF-8" standalone="no"?>
<!-- Created with Inkscape (http://www.inkscape.org/) -->

<svg
   xmlns:dc="http://purl.org/dc/elements/1.1/"
   xmlns:cc="http://creativecommons.org/ns#"
   xmlns:rdf="http://www.w3.org/1999/02/22-rdf-syntax-ns#"
   xmlns:svg="http://www.w3.org/2000/svg"
   xmlns="http://www.w3.org/2000/svg"
   xmlns:sodipodi="http://sodipodi.sourceforge.net/DTD/sodipodi-0.dtd"
   xmlns:inkscape="http://www.inkscape.org/namespaces/inkscape"
   width="89mm"
   height="58mm"
   viewBox="0 0 315.35433 205.51181"
   id="svg2"
   version="1.1"
   inkscape:version="0.91 r13725"
   sodipodi:docname="aus_hygienischen.svg"
   style="enable-background:new">
  <defs
     id="defs4">
    <filter
       inkscape:collect="always"
       style="color-interpolation-filters:sRGB"
       id="filter3358">
      <feBlend
         inkscape:collect="always"
         mode="lighten"
         in2="BackgroundImage"
         id="feBlend3360" />
    </filter>
  </defs>
  <sodipodi:namedview
     id="base"
     pagecolor="#ffffff"
     bordercolor="#666666"
     borderopacity="1.0"
     inkscape:pageopacity="0"
     inkscape:pageshadow="2"
     inkscape:zoom="1.8101934"
     inkscape:cx="175.01455"
     inkscape:cy="108.68665"
     inkscape:document-units="mm"
     inkscape:current-layer="layer3"
     showgrid="false"
     inkscape:window-width="1600"
     inkscape:window-height="841"
     inkscape:window-x="0"
     inkscape:window-y="27"
     inkscape:window-maximized="1"
     inkscape:snap-bbox="true"
     inkscape:bbox-paths="true"
     inkscape:bbox-nodes="true"
     inkscape:snap-bbox-edge-midpoints="true"
     inkscape:snap-bbox-midpoints="true"
     inkscape:object-paths="true"
     inkscape:snap-intersection-paths="true"
     inkscape:object-nodes="true"
     inkscape:snap-smooth-nodes="true"
     inkscape:snap-page="true"
     inkscape:snap-text-baseline="true">
    <inkscape:grid
       type="xygrid"
       id="grid4906" />
  </sodipodi:namedview>
  <metadata
     id="metadata7">
    <rdf:RDF>
      <cc:Work
         rdf:about="">
        <dc:format>image/svg+xml</dc:format>
        <dc:type
           rdf:resource="http://purl.org/dc/dcmitype/StillImage" />
        <dc:title />
      </cc:Work>
    </rdf:RDF>
  </metadata>
  <g
     inkscape:groupmode="layer"
     id="layer2"
     inkscape:label="background"
     transform="translate(0,-3.5433071)"
     sodipodi:insensitive="true">
    <rect
       style="fill:#2f2a5a;fill-opacity:1;stroke:none"
       id="rect4099"
       width="315.35434"
       height="205.51181"
       x="0"
       y="3.5433028"
       ry="0" />
  </g>
  <g
     inkscape:label="text"
     inkscape:groupmode="layer"
     id="layer1"
     transform="translate(0,-846.8504)"
     style="display:inline;filter:url(#filter3358)"
     sodipodi:insensitive="true">
    <g
       transform="translate(12.393132,909.26252)"
       style="font-style:normal;font-weight:normal;font-size:40px;line-height:125%;font-family:sans-serif;letter-spacing:0px;word-spacing:0px;fill:#000000;fill-opacity:1;stroke:none;stroke-width:1px;stroke-linecap:butt;stroke-linejoin:miter;stroke-opacity:1"
       id="flowRoot3344">
      <path
         d="m 19.276562,82.012143 -5.268749,-13.70625 -1.10625,0 -5.3437505,13.70625 1.74375,0 1.5187505,-4.06875 4.96875,0 1.499999,4.06875 1.9875,0 z m -3.993749,-5.475 -3.9375,0 1.987499,-5.34375 1.950001,5.34375 z"
         style="font-style:normal;font-variant:normal;font-weight:normal;font-stretch:normal;font-size:18.75px;line-height:110.00000238%;font-family:'DB Sans';-inkscape-font-specification:'DB Sans, Normal';text-align:start;writing-mode:lr-tb;text-anchor:start;fill:#ffffff"
         id="path5119"
         inkscape:connector-curvature="0" />
      <path
         d="m 27.934082,82.012143 1.14375,0 0,-9.73125 -1.74375,0.1125 0,7.36875 c -1.2375,0.91875 -1.89375,1.2 -2.8125,1.2 -1.05,0 -1.48125,-0.54375 -1.48125,-1.89375 l 0,-6.7875 -1.74375,0.1125 0,6.6375 c 0,1.05 0.13125,1.65 0.4875,2.19375 0.45,0.7125 1.18125,1.0875 2.175,1.0875 1.29375,0 2.26875,-0.46875 3.525,-1.66875 l 0.45,1.36875 z"
         style="font-style:normal;font-variant:normal;font-weight:normal;font-stretch:normal;font-size:18.75px;line-height:110.00000238%;font-family:'DB Sans';-inkscape-font-specification:'DB Sans, Normal';text-align:start;writing-mode:lr-tb;text-anchor:start;fill:#ffffff"
         id="path5121"
         inkscape:connector-curvature="0" />
      <path
         d="m 31.722168,81.562143 c 1.0125,0.46875 1.9875,0.675 3.075,0.675 2.19375,0 3.4875,-1.05 3.4875,-2.8125 0,-0.9 -0.3,-1.51875 -0.975,-2.04375 -0.375,-0.3 -0.76875,-0.4875 -1.9125,-0.91875 -1.74375,-0.65625 -2.04375,-0.91875 -2.04375,-1.74375 0,-0.76875 0.6,-1.1625 1.74375,-1.1625 0.84375,0 1.5,0.16875 2.68125,0.7125 l 0,-1.55625 c -1.0875,-0.4125 -1.7625,-0.54375 -2.6625,-0.54375 -2.11875,0 -3.3,0.975 -3.3,2.7 0,0.76875 0.24375,1.40625 0.75,1.89375 0.43125,0.4125 0.95625,0.69375 2.2125,1.1625 1.5375,0.58125 1.875,0.88125 1.875,1.65 0,0.91875 -0.6,1.3125 -1.9875,1.3125 -1.06875,0 -1.81875,-0.1875 -2.94375,-0.76875 l 0,1.44375 z"
         style="font-style:normal;font-variant:normal;font-weight:normal;font-stretch:normal;font-size:18.75px;line-height:110.00000238%;font-family:'DB Sans';-inkscape-font-specification:'DB Sans, Normal';text-align:start;writing-mode:lr-tb;text-anchor:start;fill:#ffffff"
         id="path5123"
         inkscape:connector-curvature="0" />
      <path
         d="m 46.475781,82.012143 1.74375,0 0,-7.3125 c 1.5,-0.91875 2.0625,-1.125 2.9625,-1.125 0.99375,0 1.5,0.58125 1.5,1.6875 l 0,6.75 1.74375,0 0,-6.88125 c 0,-1.89375 -0.975,-3 -2.6625,-3 -1.2,0 -2.11875,0.39375 -3.54375,1.5375 l 0,-5.83125 -0.3,0 c -0.3,0.2625 -0.8625,0.45 -1.44375,0.46875 l 0,13.70625 z"
         style="font-style:normal;font-variant:normal;font-weight:normal;font-stretch:normal;font-size:18.75px;line-height:110.00000238%;font-family:'DB Sans';-inkscape-font-specification:'DB Sans, Normal';text-align:start;writing-mode:lr-tb;text-anchor:start;fill:#ffffff"
         id="path5125"
         inkscape:connector-curvature="0" />
      <path
         d="m 57.909473,85.799643 1.725,0 5.85,-13.5 -1.6875,0 -2.79375,6.61875 -2.86875,-6.61875 -1.875,0 3.84375,8.64375 -2.19375,4.85625 z"
         style="font-style:normal;font-variant:normal;font-weight:normal;font-stretch:normal;font-size:18.75px;line-height:110.00000238%;font-family:'DB Sans';-inkscape-font-specification:'DB Sans, Normal';text-align:start;writing-mode:lr-tb;text-anchor:start;fill:#ffffff"
         id="path5127"
         inkscape:connector-curvature="0" />
      <path
         d="m 75.063965,73.255893 0,-0.95625 -3.3,0 c -0.45,-0.1125 -0.88125,-0.16875 -1.40625,-0.16875 -2.4,0 -3.7875,1.2375 -3.7875,3.375 0,1.21875 0.375,2.025 1.21875,2.6625 -0.75,0.6375 -1.10625,1.2375 -1.10625,1.89375 0,0.5625 0.2625,0.975 0.825,1.29375 -1.125,0.61875 -1.65,1.33125 -1.65,2.23125 0,1.575 1.5375,2.41875 4.40625,2.41875 3.13125,0 4.65,-0.95625 4.65,-2.9625 0,-1.89375 -1.10625,-2.6625 -3.84375,-2.6625 l -1.575,0 c -0.8625,0 -1.3125,-0.28125 -1.3125,-0.80625 0,-0.31875 0.13125,-0.6 0.45,-0.975 0.4875,0.16875 0.99375,0.24375 1.65,0.24375 2.38125,0 3.69375,-1.21875 3.69375,-3.4125 0,-0.7875 -0.15,-1.3875 -0.50625,-1.95 0.35625,-0.15 0.75,-0.225 1.2375,-0.225 l 0.35625,0 z m -3.7125,8.55 c 1.4625,0 1.9875,0.3375 1.9875,1.29375 0,0.54375 -0.13125,0.8625 -0.4875,1.10625 -0.4875,0.35625 -1.33125,0.54375 -2.53125,0.54375 -1.95,0 -2.79375,-0.4125 -2.79375,-1.33125 0,-0.675 0.2625,-1.2 0.8625,-1.725 0.375,0.075 0.7125,0.1125 1.1625,0.1125 l 1.8,0 z m -1.06875,-8.475 c 1.40625,0 1.95,0.6 1.95,2.1375 0,1.5 -0.58125,2.1375 -1.9125,2.1375 -1.44375,0 -2.00625,-0.61875 -2.00625,-2.175 0,-1.44375 0.61875,-2.1 1.96875,-2.1 z"
         style="font-style:normal;font-variant:normal;font-weight:normal;font-stretch:normal;font-size:18.75px;line-height:110.00000238%;font-family:'DB Sans';-inkscape-font-specification:'DB Sans, Normal';text-align:start;writing-mode:lr-tb;text-anchor:start;fill:#ffffff"
         id="path5129"
         inkscape:connector-curvature="0" />
      <path
         d="m 78.259668,68.343393 c -0.65625,0 -1.14375,0.46875 -1.14375,1.125 0,0.69375 0.46875,1.1625 1.14375,1.1625 0.675,0 1.14375,-0.46875 1.14375,-1.14375 0,-0.675 -0.46875,-1.14375 -1.14375,-1.14375 z m 0.9,13.66875 0,-9.9375 -0.39375,0 c -0.43125,0.28125 -0.975,0.39375 -2.0625,0.39375 l -0.75,0 0,1.33125 1.4625,0 0,8.2125 1.74375,0 z"
         style="font-style:normal;font-variant:normal;font-weight:normal;font-stretch:normal;font-size:18.75px;line-height:110.00000238%;font-family:'DB Sans';-inkscape-font-specification:'DB Sans, Normal';text-align:start;writing-mode:lr-tb;text-anchor:start;fill:#ffffff"
         id="path5131"
         inkscape:connector-curvature="0" />
      <path
         d="m 90.032324,77.549643 0,-0.7875 c 0,-3 -1.40625,-4.63125 -3.975,-4.63125 -2.775,0 -4.29375,1.8 -4.29375,5.1 0,3.35625 1.575,5.08125 4.65,5.08125 1.10625,0 2.00625,-0.225 3.1875,-0.7875 l 0,-1.44375 c -1.575,0.7125 -2.11875,0.8625 -3.15,0.8625 -2.0625,0 -2.83125,-0.9375 -2.83125,-3.39375 l 6.4125,0 z m -6.4125,-1.275 c 0.05625,-0.76875 0.15,-1.18125 0.3,-1.575 0.39375,-0.88125 1.0875,-1.33125 2.11875,-1.33125 1.4625,0 2.00625,0.75 2.11875,2.90625 l -4.5375,0 z"
         style="font-style:normal;font-variant:normal;font-weight:normal;font-stretch:normal;font-size:18.75px;line-height:110.00000238%;font-family:'DB Sans';-inkscape-font-specification:'DB Sans, Normal';text-align:start;writing-mode:lr-tb;text-anchor:start;fill:#ffffff"
         id="path5133"
         inkscape:connector-curvature="0" />
      <path
         d="m 92.545117,82.012143 1.74375,0 0,-7.3125 c 1.5,-0.91875 2.0625,-1.125 2.9625,-1.125 1.03125,0 1.5,0.5625 1.5,1.8 l 0,6.6375 1.743753,0 0,-6.88125 c 0,-1.89375 -0.975003,-3 -2.662503,-3 -1.2,0 -2.1375,0.4125 -3.54375,1.5375 l 0,-1.59375 -0.3,0 c -0.3,0.2625 -0.8625,0.45 -1.44375,0.46875 l 0,9.46875 z"
         style="font-style:normal;font-variant:normal;font-weight:normal;font-stretch:normal;font-size:18.75px;line-height:110.00000238%;font-family:'DB Sans';-inkscape-font-specification:'DB Sans, Normal';text-align:start;writing-mode:lr-tb;text-anchor:start;fill:#ffffff"
         id="path5135"
         inkscape:connector-curvature="0" />
      <path
         d="m 105.06631,68.343393 c -0.65625,0 -1.14375,0.46875 -1.14375,1.125 0,0.69375 0.46875,1.1625 1.14375,1.1625 0.675,0 1.14375,-0.46875 1.14375,-1.14375 0,-0.675 -0.46875,-1.14375 -1.14375,-1.14375 z m 0.9,13.66875 0,-9.9375 -0.39375,0 c -0.43125,0.28125 -0.975,0.39375 -2.0625,0.39375 l -0.75,0 0,1.33125 1.4625,0 0,8.2125 1.74375,0 z"
         style="font-style:normal;font-variant:normal;font-weight:normal;font-stretch:normal;font-size:18.75px;line-height:110.00000238%;font-family:'DB Sans';-inkscape-font-specification:'DB Sans, Normal';text-align:start;writing-mode:lr-tb;text-anchor:start;fill:#ffffff"
         id="path5137"
         inkscape:connector-curvature="0" />
      <path
         d="m 108.62646,81.562143 c 1.0125,0.46875 1.9875,0.675 3.075,0.675 2.19375,0 3.4875,-1.05 3.4875,-2.8125 0,-0.9 -0.3,-1.51875 -0.975,-2.04375 -0.375,-0.3 -0.76875,-0.4875 -1.9125,-0.91875 -1.74375,-0.65625 -2.04375,-0.91875 -2.04375,-1.74375 0,-0.76875 0.6,-1.1625 1.74375,-1.1625 0.84375,0 1.5,0.16875 2.68125,0.7125 l 0,-1.55625 c -1.0875,-0.4125 -1.7625,-0.54375 -2.6625,-0.54375 -2.11875,0 -3.3,0.975 -3.3,2.7 0,0.76875 0.24375,1.40625 0.75,1.89375 0.43125,0.4125 0.95625,0.69375 2.2125,1.1625 1.5375,0.58125 1.875,0.88125 1.875,1.65 0,0.91875 -0.6,1.3125 -1.9875,1.3125 -1.06875,0 -1.81875,-0.1875 -2.94375,-0.76875 l 0,1.44375 z"
         style="font-style:normal;font-variant:normal;font-weight:normal;font-stretch:normal;font-size:18.75px;line-height:110.00000238%;font-family:'DB Sans';-inkscape-font-specification:'DB Sans, Normal';text-align:start;writing-mode:lr-tb;text-anchor:start;fill:#ffffff"
         id="path5139"
         inkscape:connector-curvature="0" />
      <path
         d="m 124.54668,80.099643 c -1.6125,0.75 -1.93125,0.84375 -2.8875,0.84375 -2.04375,0 -2.7,-0.9 -2.7,-3.73125 0,-2.83125 0.61875,-3.69375 2.625,-3.69375 0.91875,0 1.40625,0.13125 2.775,0.7125 l 0,-1.55625 c -1.06875,-0.39375 -1.81875,-0.54375 -2.75625,-0.54375 -2.9625,0 -4.5,1.725 -4.5,5.04375 0,3.43125 1.5,5.1375 4.48125,5.1375 0.99375,0 1.8375,-0.225 2.9625,-0.76875 l 0,-1.44375 z"
         style="font-style:normal;font-variant:normal;font-weight:normal;font-stretch:normal;font-size:18.75px;line-height:110.00000238%;font-family:'DB Sans';-inkscape-font-specification:'DB Sans, Normal';text-align:start;writing-mode:lr-tb;text-anchor:start;fill:#ffffff"
         id="path5141"
         inkscape:connector-curvature="0" />
      <path
         d="m 126.96895,82.012143 1.74375,0 0,-7.3125 c 1.5,-0.91875 2.0625,-1.125 2.9625,-1.125 0.99375,0 1.5,0.58125 1.5,1.6875 l 0,6.75 1.74375,0 0,-6.88125 c 0,-1.89375 -0.975,-3 -2.6625,-3 -1.2,0 -2.11875,0.39375 -3.54375,1.5375 l 0,-5.83125 -0.3,0 c -0.3,0.2625 -0.8625,0.45 -1.44375,0.46875 l 0,13.70625 z"
         style="font-style:normal;font-variant:normal;font-weight:normal;font-stretch:normal;font-size:18.75px;line-height:110.00000238%;font-family:'DB Sans';-inkscape-font-specification:'DB Sans, Normal';text-align:start;writing-mode:lr-tb;text-anchor:start;fill:#ffffff"
         id="path5143"
         inkscape:connector-curvature="0" />
      <path
         d="m 145.69639,77.549643 0,-0.7875 c 0,-3 -1.40625,-4.63125 -3.975,-4.63125 -2.775,0 -4.29375,1.8 -4.29375,5.1 0,3.35625 1.575,5.08125 4.65,5.08125 1.10625,0 2.00625,-0.225 3.1875,-0.7875 l 0,-1.44375 c -1.575,0.7125 -2.11875,0.8625 -3.15,0.8625 -2.0625,0 -2.83125,-0.9375 -2.83125,-3.39375 l 6.4125,0 z m -6.4125,-1.275 c 0.0562,-0.76875 0.15,-1.18125 0.3,-1.575 0.39375,-0.88125 1.0875,-1.33125 2.11875,-1.33125 1.4625,0 2.00625,0.75 2.11875,2.90625 l -4.5375,0 z"
         style="font-style:normal;font-variant:normal;font-weight:normal;font-stretch:normal;font-size:18.75px;line-height:110.00000238%;font-family:'DB Sans';-inkscape-font-specification:'DB Sans, Normal';text-align:start;writing-mode:lr-tb;text-anchor:start;fill:#ffffff"
         id="path5145"
         inkscape:connector-curvature="0" />
      <path
         d="m 148.20918,82.012143 1.74375,0 0,-7.3125 c 1.5,-0.91875 2.0625,-1.125 2.9625,-1.125 1.03125,0 1.5,0.5625 1.5,1.8 l 0,6.6375 1.74375,0 0,-6.88125 c 0,-1.89375 -0.975,-3 -2.6625,-3 -1.2,0 -2.1375,0.4125 -3.54375,1.5375 l 0,-1.59375 -0.3,0 c -0.3,0.2625 -0.8625,0.45 -1.44375,0.46875 l 0,9.46875 z"
         style="font-style:normal;font-variant:normal;font-weight:normal;font-stretch:normal;font-size:18.75px;line-height:110.00000238%;font-family:'DB Sans';-inkscape-font-specification:'DB Sans, Normal';text-align:start;writing-mode:lr-tb;text-anchor:start;fill:#ffffff"
         id="path5147"
         inkscape:connector-curvature="0" />
      <path
         d="m 174.56377,68.662143 c -1.125,-0.4125 -2.25,-0.6 -3.5625,-0.6 -2.00625,0 -3.6,0.6 -4.78125,1.78125 -1.275,1.275 -1.875,3 -1.875,5.41875 0,2.0625 0.4125,3.6 1.25625,4.74375 1.10625,1.5 2.94375,2.2875 5.26875,2.2875 1.4625,0 2.71875,-0.2625 4.3125,-0.91875 l 0,-5.94375 -4.275,0 0,1.36875 2.45625,0 0,3.73125 c -0.84375,0.24375 -1.59375,0.35625 -2.4375,0.35625 -3.16875,0 -4.65,-1.8 -4.65,-5.625 0,-1.95 0.3375,-3.31875 1.06875,-4.2375 0.825,-1.03125 2.025,-1.55625 3.6375,-1.55625 1.2375,0 2.23125,0.20625 3.58125,0.75 l 0,-1.55625 z"
         style="font-style:normal;font-variant:normal;font-weight:normal;font-stretch:normal;font-size:18.75px;line-height:110.00000238%;font-family:'DB Sans';-inkscape-font-specification:'DB Sans, Normal';text-align:start;writing-mode:lr-tb;text-anchor:start;fill:#ffffff"
         id="path5149"
         inkscape:connector-curvature="0" />
      <path
         d="m 177.17324,82.012143 4.89375,0 0,-1.25625 -1.65,0 0,-6.1125 c 0.7875,-0.4125 1.875,-0.69375 3.1875,-0.825 l 0,-1.6875 c -1.03125,0.09375 -2.0625,0.61875 -3.1875,1.59375 l 0,-1.65 -0.39375,0 c -0.43125,0.28125 -0.975,0.39375 -2.0625,0.39375 l -0.75,0 0,1.33125 1.4625,0 0,6.95625 -1.5,0 0,1.25625 z"
         style="font-style:normal;font-variant:normal;font-weight:normal;font-stretch:normal;font-size:18.75px;line-height:110.00000238%;font-family:'DB Sans';-inkscape-font-specification:'DB Sans, Normal';text-align:start;writing-mode:lr-tb;text-anchor:start;fill:#ffffff"
         id="path5151"
         inkscape:connector-curvature="0" />
      <path
         d="m 192.21631,82.012143 1.14375,0 0,-9.73125 -1.74375,0.1125 0,7.36875 c -1.2375,0.91875 -1.89375,1.2 -2.8125,1.2 -1.05,0 -1.48125,-0.54375 -1.48125,-1.89375 l 0,-6.7875 -1.74375,0.1125 0,6.6375 c 0,1.05 0.13125,1.65 0.4875,2.19375 0.45,0.7125 1.18125,1.0875 2.175,1.0875 1.29375,0 2.26875,-0.46875 3.525,-1.66875 l 0.45,1.36875 z m -4.29375,-13.575 c -0.61875,0 -1.05,0.43125 -1.05,1.05 0,0.61875 0.43125,1.05 1.03125,1.05 0.6375,0 1.06875,-0.43125 1.06875,-1.05 0,-0.61875 -0.43125,-1.05 -1.05,-1.05 z m 3.20625,0 c -0.61875,0 -1.05,0.43125 -1.05,1.05 0,0.61875 0.43125,1.05 1.03125,1.05 0.6375,0 1.06875,-0.43125 1.06875,-1.05 0,-0.61875 -0.43125,-1.05 -1.05,-1.05 z"
         style="font-style:normal;font-variant:normal;font-weight:normal;font-stretch:normal;font-size:18.75px;line-height:110.00000238%;font-family:'DB Sans';-inkscape-font-specification:'DB Sans, Normal';text-align:start;writing-mode:lr-tb;text-anchor:start;fill:#ffffff"
         id="path5153"
         inkscape:connector-curvature="0" />
      <path
         d="m 196.58564,82.012143 1.74375,0 0,-7.3125 c 1.5,-0.91875 2.0625,-1.125 2.9625,-1.125 1.03125,0 1.5,0.5625 1.5,1.8 l 0,6.6375 1.74375,0 0,-6.88125 c 0,-1.89375 -0.975,-3 -2.6625,-3 -1.2,0 -2.1375,0.4125 -3.54375,1.5375 l 0,-1.59375 -0.3,0 c -0.3,0.2625 -0.8625,0.45 -1.44375,0.46875 l 0,9.46875 z"
         style="font-style:normal;font-variant:normal;font-weight:normal;font-stretch:normal;font-size:18.75px;line-height:110.00000238%;font-family:'DB Sans';-inkscape-font-specification:'DB Sans, Normal';text-align:start;writing-mode:lr-tb;text-anchor:start;fill:#ffffff"
         id="path5155"
         inkscape:connector-curvature="0" />
      <path
         d="m 215.65059,82.012143 0,-14.175 -0.28125,0 c -0.3,0.2625 -0.88125,0.45 -1.4625,0.46875 l 0,4.96875 c -1.06875,-0.7875 -2.00625,-1.14375 -3.05625,-1.14375 -1.125,0 -2.1,0.45 -2.775,1.29375 -0.69375,0.8625 -1.03125,2.15625 -1.03125,3.91875 0,3.13125 1.29375,4.96875 3.4875,4.96875 1.21875,0 2.15625,-0.4125 3.525,-1.59375 l 0.45,1.29375 1.14375,0 z m -1.74375,-2.175 c -1.25625,0.8625 -1.9125,1.14375 -2.8125,1.14375 -1.51875,0 -2.175,-1.10625 -2.175,-3.675 0,-2.7 0.65625,-3.73125 2.3625,-3.73125 0.9375,0 1.55625,0.20625 2.625,0.88125 l 0,5.38125 z"
         style="font-style:normal;font-variant:normal;font-weight:normal;font-stretch:normal;font-size:18.75px;line-height:110.00000238%;font-family:'DB Sans';-inkscape-font-specification:'DB Sans, Normal';text-align:start;writing-mode:lr-tb;text-anchor:start;fill:#ffffff"
         id="path5157"
         inkscape:connector-curvature="0" />
      <path
         d="m 226.48252,77.549643 0,-0.7875 c 0,-3 -1.40625,-4.63125 -3.975,-4.63125 -2.775,0 -4.29375,1.8 -4.29375,5.1 0,3.35625 1.575,5.08125 4.65,5.08125 1.10625,0 2.00625,-0.225 3.1875,-0.7875 l 0,-1.44375 c -1.575,0.7125 -2.11875,0.8625 -3.15,0.8625 -2.0625,0 -2.83125,-0.9375 -2.83125,-3.39375 l 6.4125,0 z m -6.4125,-1.275 c 0.0563,-0.76875 0.15,-1.18125 0.3,-1.575 0.39375,-0.88125 1.0875,-1.33125 2.11875,-1.33125 1.4625,0 2.00625,0.75 2.11875,2.90625 l -4.5375,0 z"
         style="font-style:normal;font-variant:normal;font-weight:normal;font-stretch:normal;font-size:18.75px;line-height:110.00000238%;font-family:'DB Sans';-inkscape-font-specification:'DB Sans, Normal';text-align:start;writing-mode:lr-tb;text-anchor:start;fill:#ffffff"
         id="path5159"
         inkscape:connector-curvature="0" />
      <path
         d="m 228.99531,82.012143 1.74375,0 0,-7.3125 c 1.5,-0.91875 2.0625,-1.125 2.9625,-1.125 1.03125,0 1.5,0.5625 1.5,1.8 l 0,6.6375 1.74375,0 0,-6.88125 c 0,-1.89375 -0.975,-3 -2.6625,-3 -1.2,0 -2.1375,0.4125 -3.54375,1.5375 l 0,-1.59375 -0.3,0 c -0.3,0.2625 -0.8625,0.45 -1.44375,0.46875 l 0,9.46875 z"
         style="font-style:normal;font-variant:normal;font-weight:normal;font-stretch:normal;font-size:18.75px;line-height:110.00000238%;font-family:'DB Sans';-inkscape-font-specification:'DB Sans, Normal';text-align:start;writing-mode:lr-tb;text-anchor:start;fill:#ffffff"
         id="path5161"
         inkscape:connector-curvature="0" />
      <path
         d="m 247.60615,82.105893 1.29375,0 2.45625,-7.2375 2.26875,7.2375 1.40625,0 3.05625,-9.80625 -1.575,0 -2.08125,7.05 -2.2875,-7.14375 -1.36875,0 -2.3625,7.14375 -2.025,-7.05 -1.85625,0 3.075,9.80625 z"
         style="font-style:normal;font-variant:normal;font-weight:normal;font-stretch:normal;font-size:18.75px;line-height:110.00000238%;font-family:'DB Sans';-inkscape-font-specification:'DB Sans, Normal';text-align:start;writing-mode:lr-tb;text-anchor:start;fill:#ffffff"
         id="path5163"
         inkscape:connector-curvature="0" />
      <path
         d="m 261.73135,68.343393 c -0.65625,0 -1.14375,0.46875 -1.14375,1.125 0,0.69375 0.46875,1.1625 1.14375,1.1625 0.675,0 1.14375,-0.46875 1.14375,-1.14375 0,-0.675 -0.46875,-1.14375 -1.14375,-1.14375 z m 0.9,13.66875 0,-9.9375 -0.39375,0 c -0.43125,0.28125 -0.975,0.39375 -2.0625,0.39375 l -0.75,0 0,1.33125 1.4625,0 0,8.2125 1.74375,0 z"
         style="font-style:normal;font-variant:normal;font-weight:normal;font-stretch:normal;font-size:18.75px;line-height:110.00000238%;font-family:'DB Sans';-inkscape-font-specification:'DB Sans, Normal';text-align:start;writing-mode:lr-tb;text-anchor:start;fill:#ffffff"
         id="path5165"
         inkscape:connector-curvature="0" />
      <path
         d="m 264.954,82.012143 4.89375,0 0,-1.25625 -1.65,0 0,-6.1125 c 0.7875,-0.4125 1.875,-0.69375 3.1875,-0.825 l 0,-1.6875 c -1.03125,0.09375 -2.0625,0.61875 -3.1875,1.59375 l 0,-1.65 -0.39375,0 c -0.43125,0.28125 -0.975,0.39375 -2.0625,0.39375 l -0.75,0 0,1.33125 1.4625,0 0,6.95625 -1.5,0 0,1.25625 z"
         style="font-style:normal;font-variant:normal;font-weight:normal;font-stretch:normal;font-size:18.75px;line-height:110.00000238%;font-family:'DB Sans';-inkscape-font-specification:'DB Sans, Normal';text-align:start;writing-mode:lr-tb;text-anchor:start;fill:#ffffff"
         id="path5167"
         inkscape:connector-curvature="0" />
      <path
         d="m 281.42207,82.012143 0,-14.175 -0.28125,0 c -0.3,0.2625 -0.88125,0.45 -1.4625,0.46875 l 0,4.96875 c -1.06875,-0.7875 -2.00625,-1.14375 -3.05625,-1.14375 -1.125,0 -2.1,0.45 -2.775,1.29375 -0.69375,0.8625 -1.03125,2.15625 -1.03125,3.91875 0,3.13125 1.29375,4.96875 3.4875,4.96875 1.21875,0 2.15625,-0.4125 3.525,-1.59375 l 0.45,1.29375 1.14375,0 z m -1.74375,-2.175 c -1.25625,0.8625 -1.9125,1.14375 -2.8125,1.14375 -1.51875,0 -2.175,-1.10625 -2.175,-3.675 0,-2.7 0.65625,-3.73125 2.3625,-3.73125 0.9375,0 1.55625,0.20625 2.625,0.88125 l 0,5.38125 z"
         style="font-style:normal;font-variant:normal;font-weight:normal;font-stretch:normal;font-size:18.75px;line-height:110.00000238%;font-family:'DB Sans';-inkscape-font-specification:'DB Sans, Normal';text-align:start;writing-mode:lr-tb;text-anchor:start;fill:#ffffff"
         id="path5169"
         inkscape:connector-curvature="0" />
      <path
         d="m 16.651562,102.63714 0,-14.174997 -0.28125,0 c -0.3,0.2625 -0.881249,0.45 -1.4625,0.46875 l 0,4.96875 c -1.068749,-0.7875 -2.006249,-1.14375 -3.056249,-1.14375 -1.125,0 -2.1000005,0.45 -2.7750005,1.29375 -0.69375,0.8625 -1.03125,2.15625 -1.03125,3.91875 0,3.131247 1.29375,4.968747 3.4875005,4.968747 1.218749,0 2.156249,-0.4125 3.525,-1.59375 l 0.45,1.29375 1.143749,0 z m -1.74375,-2.175 c -1.256249,0.8625 -1.912499,1.14375 -2.812499,1.14375 -1.51875,0 -2.1750005,-1.10625 -2.1750005,-3.674997 0,-2.7 0.6562505,-3.73125 2.3625005,-3.73125 0.9375,0 1.55625,0.20625 2.624999,0.88125 l 0,5.381247 z"
         style="font-style:normal;font-variant:normal;font-weight:normal;font-stretch:normal;font-size:18.75px;line-height:110.00000238%;font-family:'DB Sans';-inkscape-font-specification:'DB Sans, Normal';text-align:start;writing-mode:lr-tb;text-anchor:start;fill:#ffffff"
         id="path5171"
         inkscape:connector-curvature="0" />
      <path
         d="m 21.277246,88.968393 c -0.65625,0 -1.14375,0.46875 -1.14375,1.125 0,0.69375 0.46875,1.1625 1.14375,1.1625 0.675,0 1.14375,-0.46875 1.14375,-1.14375 0,-0.675 -0.46875,-1.14375 -1.14375,-1.14375 z m 0.9,13.668747 0,-9.937497 -0.39375,0 c -0.43125,0.28125 -0.975,0.39375 -2.0625,0.39375 l -0.75,0 0,1.33125 1.4625,0 0,8.212497 1.74375,0 z"
         style="font-style:normal;font-variant:normal;font-weight:normal;font-stretch:normal;font-size:18.75px;line-height:110.00000238%;font-family:'DB Sans';-inkscape-font-specification:'DB Sans, Normal';text-align:start;writing-mode:lr-tb;text-anchor:start;fill:#ffffff"
         id="path5173"
         inkscape:connector-curvature="0" />
      <path
         d="m 33.049902,98.174643 0,-0.7875 c 0,-3 -1.40625,-4.63125 -3.975,-4.63125 -2.775,0 -4.29375,1.8 -4.29375,5.1 0,3.356247 1.575,5.081247 4.65,5.081247 1.10625,0 2.00625,-0.225 3.1875,-0.7875 l 0,-1.44375 c -1.575,0.7125 -2.11875,0.8625 -3.15,0.8625 -2.0625,0 -2.83125,-0.9375 -2.83125,-3.393747 l 6.4125,0 z m -6.4125,-1.275 c 0.05625,-0.76875 0.15,-1.18125 0.3,-1.575 0.39375,-0.88125 1.0875,-1.33125 2.11875,-1.33125 1.4625,0 2.00625,0.75 2.11875,2.90625 l -4.5375,0 z"
         style="font-style:normal;font-variant:normal;font-weight:normal;font-stretch:normal;font-size:18.75px;line-height:110.00000238%;font-family:'DB Sans';-inkscape-font-specification:'DB Sans, Normal';text-align:start;writing-mode:lr-tb;text-anchor:start;fill:#ffffff"
         id="path5175"
         inkscape:connector-curvature="0" />
      <path
         d="m 34.981445,102.18714 c 1.0125,0.46875 1.9875,0.675 3.075,0.675 2.19375,0 3.4875,-1.05 3.4875,-2.8125 0,-0.899997 -0.3,-1.518747 -0.975,-2.043747 -0.375,-0.3 -0.76875,-0.4875 -1.9125,-0.91875 -1.74375,-0.65625 -2.04375,-0.91875 -2.04375,-1.74375 0,-0.76875 0.6,-1.1625 1.74375,-1.1625 0.84375,0 1.5,0.16875 2.68125,0.7125 l 0,-1.55625 c -1.0875,-0.4125 -1.7625,-0.54375 -2.6625,-0.54375 -2.11875,0 -3.3,0.975 -3.3,2.7 0,0.76875 0.24375,1.40625 0.75,1.89375 0.43125,0.4125 0.95625,0.69375 2.2125,1.1625 1.5375,0.58125 1.875,0.88125 1.875,1.649997 0,0.91875 -0.6,1.3125 -1.9875,1.3125 -1.06875,0 -1.81875,-0.1875 -2.94375,-0.76875 l 0,1.44375 z"
         style="font-style:normal;font-variant:normal;font-weight:normal;font-stretch:normal;font-size:18.75px;line-height:110.00000238%;font-family:'DB Sans';-inkscape-font-specification:'DB Sans, Normal';text-align:start;writing-mode:lr-tb;text-anchor:start;fill:#ffffff"
         id="path5177"
         inkscape:connector-curvature="0" />
      <path
         d="m 51.72666,98.174643 0,-0.7875 c 0,-3 -1.40625,-4.63125 -3.975,-4.63125 -2.775,0 -4.29375,1.8 -4.29375,5.1 0,3.356247 1.575,5.081247 4.65,5.081247 1.10625,0 2.00625,-0.225 3.1875,-0.7875 l 0,-1.44375 c -1.575,0.7125 -2.11875,0.8625 -3.15,0.8625 -2.0625,0 -2.83125,-0.9375 -2.83125,-3.393747 l 6.4125,0 z m -6.4125,-1.275 c 0.05625,-0.76875 0.15,-1.18125 0.3,-1.575 0.39375,-0.88125 1.0875,-1.33125 2.11875,-1.33125 1.4625,0 2.00625,0.75 2.11875,2.90625 l -4.5375,0 z"
         style="font-style:normal;font-variant:normal;font-weight:normal;font-stretch:normal;font-size:18.75px;line-height:110.00000238%;font-family:'DB Sans';-inkscape-font-specification:'DB Sans, Normal';text-align:start;writing-mode:lr-tb;text-anchor:start;fill:#ffffff"
         id="path5179"
         inkscape:connector-curvature="0" />
      <path
         d="m 68.991602,89.005893 -9.88125,0 -0.1125,1.36875 4.0875,0 0,12.262497 1.81875,0 0,-12.262497 4.0875,0 0,-1.36875 z"
         style="font-style:normal;font-variant:normal;font-weight:normal;font-stretch:normal;font-size:18.75px;line-height:110.00000238%;font-family:'DB Sans';-inkscape-font-specification:'DB Sans, Normal';text-align:start;writing-mode:lr-tb;text-anchor:start;fill:#ffffff"
         id="path5181"
         inkscape:connector-curvature="0" />
      <path
         d="m 73.518555,92.755893 c -2.925,0 -4.4625,1.725 -4.4625,5.025 0,3.449997 1.48125,5.156247 4.4625,5.156247 2.98125,0 4.48125,-1.70625 4.48125,-5.099997 0,-3.375 -1.5,-5.08125 -4.48125,-5.08125 z m 0,1.2375 c 1.875,0 2.60625,1.06875 2.60625,3.84375 0,2.793747 -0.7125,3.862497 -2.60625,3.862497 -1.875,0 -2.5875,-1.06875 -2.5875,-3.899997 0,-2.7375 0.73125,-3.80625 2.5875,-3.80625 z"
         style="font-style:normal;font-variant:normal;font-weight:normal;font-stretch:normal;font-size:18.75px;line-height:110.00000238%;font-family:'DB Sans';-inkscape-font-specification:'DB Sans, Normal';text-align:start;writing-mode:lr-tb;text-anchor:start;fill:#ffffff"
         id="path5183"
         inkscape:connector-curvature="0" />
      <path
         d="m 81.99502,88.968393 c -0.65625,0 -1.14375,0.46875 -1.14375,1.125 0,0.69375 0.46875,1.1625 1.14375,1.1625 0.675,0 1.14375,-0.46875 1.14375,-1.14375 0,-0.675 -0.46875,-1.14375 -1.14375,-1.14375 z m 0.9,13.668747 0,-9.937497 -0.39375,0 c -0.43125,0.28125 -0.975,0.39375 -2.0625,0.39375 l -0.75,0 0,1.33125 1.4625,0 0,8.212497 1.74375,0 z"
         style="font-style:normal;font-variant:normal;font-weight:normal;font-stretch:normal;font-size:18.75px;line-height:110.00000238%;font-family:'DB Sans';-inkscape-font-specification:'DB Sans, Normal';text-align:start;writing-mode:lr-tb;text-anchor:start;fill:#ffffff"
         id="path5185"
         inkscape:connector-curvature="0" />
      <path
         d="m 88.236426,102.63714 0,-14.174997 -0.375,0 c -0.4125,0.28125 -0.975,0.39375 -2.08125,0.39375 l -0.75,0 0,1.3125 1.4625,0 0,12.468747 1.74375,0 z"
         style="font-style:normal;font-variant:normal;font-weight:normal;font-stretch:normal;font-size:18.75px;line-height:110.00000238%;font-family:'DB Sans';-inkscape-font-specification:'DB Sans, Normal';text-align:start;writing-mode:lr-tb;text-anchor:start;fill:#ffffff"
         id="path5187"
         inkscape:connector-curvature="0" />
      <path
         d="m 99.224219,98.174643 0,-0.7875 c 0,-3 -1.40625,-4.63125 -3.975,-4.63125 -2.775,0 -4.29375,1.8 -4.29375,5.1 0,3.356247 1.575,5.081247 4.65,5.081247 1.10625,0 2.00625,-0.225 3.1875,-0.7875 l 0,-1.44375 c -1.575,0.7125 -2.11875,0.8625 -3.15,0.8625 -2.0625,0 -2.83125,-0.9375 -2.83125,-3.393747 l 6.4125,0 z m -6.4125,-1.275 c 0.05625,-0.76875 0.15,-1.18125 0.3,-1.575 0.39375,-0.88125 1.0875,-1.33125 2.11875,-1.33125 1.4625,0 2.00625,0.75 2.11875,2.90625 l -4.5375,0 z"
         style="font-style:normal;font-variant:normal;font-weight:normal;font-stretch:normal;font-size:18.75px;line-height:110.00000238%;font-family:'DB Sans';-inkscape-font-specification:'DB Sans, Normal';text-align:start;writing-mode:lr-tb;text-anchor:start;fill:#ffffff"
         id="path5189"
         inkscape:connector-curvature="0" />
      <path
         d="m 106.85576,101.28714 c -0.6,0.1875 -0.9,0.24375 -1.33125,0.24375 -1.125,0 -1.59375,-0.4875 -1.59375,-1.649997 l 0,-5.7 2.6625,0 0,-1.25625 -2.6625,0 0,-2.1 -1.0875,0 -0.2625,0.9375 c -0.24375,0.9 -0.6,1.1625 -1.48125,1.1625 l -0.35625,0 0,1.25625 1.44375,0 0,5.45625 c 0,2.174997 0.975,3.206247 3.075,3.206247 0.58125,0 1.0125,-0.075 1.59375,-0.3 l 0,-1.25625 z"
         style="font-style:normal;font-variant:normal;font-weight:normal;font-stretch:normal;font-size:18.75px;line-height:110.00000238%;font-family:'DB Sans';-inkscape-font-specification:'DB Sans, Normal';text-align:start;writing-mode:lr-tb;text-anchor:start;fill:#ffffff"
         id="path5191"
         inkscape:connector-curvature="0" />
      <path
         d="m 114.10674,101.28714 c -0.6,0.1875 -0.9,0.24375 -1.33125,0.24375 -1.125,0 -1.59375,-0.4875 -1.59375,-1.649997 l 0,-5.7 2.6625,0 0,-1.25625 -2.6625,0 0,-2.1 -1.0875,0 -0.2625,0.9375 c -0.24375,0.9 -0.6,1.1625 -1.48125,1.1625 l -0.35625,0 0,1.25625 1.44375,0 0,5.45625 c 0,2.174997 0.975,3.206247 3.075,3.206247 0.58125,0 1.0125,-0.075 1.59375,-0.3 l 0,-1.25625 z"
         style="font-style:normal;font-variant:normal;font-weight:normal;font-stretch:normal;font-size:18.75px;line-height:110.00000238%;font-family:'DB Sans';-inkscape-font-specification:'DB Sans, Normal';text-align:start;writing-mode:lr-tb;text-anchor:start;fill:#ffffff"
         id="path5193"
         inkscape:connector-curvature="0" />
      <path
         d="m 123.87021,98.174643 0,-0.7875 c 0,-3 -1.40625,-4.63125 -3.975,-4.63125 -2.775,0 -4.29375,1.8 -4.29375,5.1 0,3.356247 1.575,5.081247 4.65,5.081247 1.10625,0 2.00625,-0.225 3.1875,-0.7875 l 0,-1.44375 c -1.575,0.7125 -2.11875,0.8625 -3.15,0.8625 -2.0625,0 -2.83125,-0.9375 -2.83125,-3.393747 l 6.4125,0 z m -6.4125,-1.275 c 0.0562,-0.76875 0.15,-1.18125 0.3,-1.575 0.39375,-0.88125 1.0875,-1.33125 2.11875,-1.33125 1.4625,0 2.00625,0.75 2.11875,2.90625 l -4.5375,0 z"
         style="font-style:normal;font-variant:normal;font-weight:normal;font-stretch:normal;font-size:18.75px;line-height:110.00000238%;font-family:'DB Sans';-inkscape-font-specification:'DB Sans, Normal';text-align:start;writing-mode:lr-tb;text-anchor:start;fill:#ffffff"
         id="path5195"
         inkscape:connector-curvature="0" />
      <path
         d="m 139.93516,92.924643 -1.6875,0 -2.8125,7.0125 -2.85,-7.0125 -1.875,0 4.14375,9.806247 1.05,0 4.03125,-9.806247 z"
         style="font-style:normal;font-variant:normal;font-weight:normal;font-stretch:normal;font-size:18.75px;line-height:110.00000238%;font-family:'DB Sans';-inkscape-font-specification:'DB Sans, Normal';text-align:start;writing-mode:lr-tb;text-anchor:start;fill:#ffffff"
         id="path5197"
         inkscape:connector-curvature="0" />
      <path
         d="m 143.62832,88.968393 c -0.65625,0 -1.14375,0.46875 -1.14375,1.125 0,0.69375 0.46875,1.1625 1.14375,1.1625 0.675,0 1.14375,-0.46875 1.14375,-1.14375 0,-0.675 -0.46875,-1.14375 -1.14375,-1.14375 z m 0.9,13.668747 0,-9.937497 -0.39375,0 c -0.43125,0.28125 -0.975,0.39375 -2.0625,0.39375 l -0.75,0 0,1.33125 1.4625,0 0,8.212497 1.74375,0 z"
         style="font-style:normal;font-variant:normal;font-weight:normal;font-stretch:normal;font-size:18.75px;line-height:110.00000238%;font-family:'DB Sans';-inkscape-font-specification:'DB Sans, Normal';text-align:start;writing-mode:lr-tb;text-anchor:start;fill:#ffffff"
         id="path5199"
         inkscape:connector-curvature="0" />
      <path
         d="m 155.73848,102.63714 0,-14.174997 -0.28125,0 c -0.3,0.2625 -0.88125,0.45 -1.4625,0.46875 l 0,4.96875 c -1.06875,-0.7875 -2.00625,-1.14375 -3.05625,-1.14375 -1.125,0 -2.1,0.45 -2.775,1.29375 -0.69375,0.8625 -1.03125,2.15625 -1.03125,3.91875 0,3.131247 1.29375,4.968747 3.4875,4.968747 1.21875,0 2.15625,-0.4125 3.525,-1.59375 l 0.45,1.29375 1.14375,0 z m -1.74375,-2.175 c -1.25625,0.8625 -1.9125,1.14375 -2.8125,1.14375 -1.51875,0 -2.175,-1.10625 -2.175,-3.674997 0,-2.7 0.65625,-3.73125 2.3625,-3.73125 0.9375,0 1.55625,0.20625 2.625,0.88125 l 0,5.381247 z"
         style="font-style:normal;font-variant:normal;font-weight:normal;font-stretch:normal;font-size:18.75px;line-height:110.00000238%;font-family:'DB Sans';-inkscape-font-specification:'DB Sans, Normal';text-align:start;writing-mode:lr-tb;text-anchor:start;fill:#ffffff"
         id="path5201"
         inkscape:connector-curvature="0" />
      <path
         d="m 166.57041,98.174643 0,-0.7875 c 0,-3 -1.40625,-4.63125 -3.975,-4.63125 -2.775,0 -4.29375,1.8 -4.29375,5.1 0,3.356247 1.575,5.081247 4.65,5.081247 1.10625,0 2.00625,-0.225 3.1875,-0.7875 l 0,-1.44375 c -1.575,0.7125 -2.11875,0.8625 -3.15,0.8625 -2.0625,0 -2.83125,-0.9375 -2.83125,-3.393747 l 6.4125,0 z m -6.4125,-1.275 c 0.0563,-0.76875 0.15,-1.18125 0.3,-1.575 0.39375,-0.88125 1.0875,-1.33125 2.11875,-1.33125 1.4625,0 2.00625,0.75 2.11875,2.90625 l -4.5375,0 z"
         style="font-style:normal;font-variant:normal;font-weight:normal;font-stretch:normal;font-size:18.75px;line-height:110.00000238%;font-family:'DB Sans';-inkscape-font-specification:'DB Sans, Normal';text-align:start;writing-mode:lr-tb;text-anchor:start;fill:#ffffff"
         id="path5203"
         inkscape:connector-curvature="0" />
      <path
         d="m 172.9082,92.755893 c -2.925,0 -4.4625,1.725 -4.4625,5.025 0,3.449997 1.48125,5.156247 4.4625,5.156247 2.98125,0 4.48125,-1.70625 4.48125,-5.099997 0,-3.375 -1.5,-5.08125 -4.48125,-5.08125 z m 0,1.2375 c 1.875,0 2.60625,1.06875 2.60625,3.84375 0,2.793747 -0.7125,3.862497 -2.60625,3.862497 -1.875,0 -2.5875,-1.06875 -2.5875,-3.899997 0,-2.7375 0.73125,-3.80625 2.5875,-3.80625 z"
         style="font-style:normal;font-variant:normal;font-weight:normal;font-stretch:normal;font-size:18.75px;line-height:110.00000238%;font-family:'DB Sans';-inkscape-font-specification:'DB Sans, Normal';text-align:start;writing-mode:lr-tb;text-anchor:start;fill:#ffffff"
         id="path5205"
         inkscape:connector-curvature="0" />
      <path
         d="m 186.50342,102.63714 1.14375,0 0,-9.731247 -1.74375,0.1125 0,7.368747 c -1.2375,0.91875 -1.89375,1.2 -2.8125,1.2 -1.05,0 -1.48125,-0.54375 -1.48125,-1.893747 l 0,-6.7875 -1.74375,0.1125 0,6.6375 c 0,1.049997 0.13125,1.649997 0.4875,2.193747 0.45,0.7125 1.18125,1.0875 2.175,1.0875 1.29375,0 2.26875,-0.46875 3.525,-1.66875 l 0.45,1.36875 z m -4.29375,-13.574997 c -0.61875,0 -1.05,0.43125 -1.05,1.05 0,0.61875 0.43125,1.05 1.03125,1.05 0.6375,0 1.06875,-0.43125 1.06875,-1.05 0,-0.61875 -0.43125,-1.05 -1.05,-1.05 z m 3.20625,0 c -0.61875,0 -1.05,0.43125 -1.05,1.05 0,0.61875 0.43125,1.05 1.03125,1.05 0.6375,0 1.06875,-0.43125 1.06875,-1.05 0,-0.61875 -0.43125,-1.05 -1.05,-1.05 z"
         style="font-style:normal;font-variant:normal;font-weight:normal;font-stretch:normal;font-size:18.75px;line-height:110.00000238%;font-family:'DB Sans';-inkscape-font-specification:'DB Sans, Normal';text-align:start;writing-mode:lr-tb;text-anchor:start;fill:#ffffff"
         id="path5207"
         inkscape:connector-curvature="0" />
      <path
         d="m 190.87275,102.63714 1.125,0 0.35625,-1.03125 c 1.1625,0.91875 2.2125,1.33125 3.31875,1.33125 0.9375,0 1.78125,-0.3375 2.4375,-0.99375 0.9375,-0.9375 1.3875,-2.287497 1.3875,-4.218747 0,-3.13125 -1.275,-4.96875 -3.43125,-4.96875 -1.2,0 -2.025,0.35625 -3.45,1.5375 l 0,-5.83125 -0.3,0 c -0.3,0.2625 -0.8625,0.45 -1.44375,0.46875 l 0,13.706247 z m 1.74375,-7.312497 c 1.55625,-0.975 1.95,-1.125 2.83125,-1.125 1.55625,0 2.15625,1.0125 2.15625,3.6375 0,2.643747 -0.69375,3.768747 -2.3625,3.768747 -0.9375,0 -1.575,-0.20625 -2.625,-0.8625 l 0,-5.418747 z"
         style="font-style:normal;font-variant:normal;font-weight:normal;font-stretch:normal;font-size:18.75px;line-height:110.00000238%;font-family:'DB Sans';-inkscape-font-specification:'DB Sans, Normal';text-align:start;writing-mode:lr-tb;text-anchor:start;fill:#ffffff"
         id="path5209"
         inkscape:connector-curvature="0" />
      <path
         d="m 209.71006,98.174643 0,-0.7875 c 0,-3 -1.40625,-4.63125 -3.975,-4.63125 -2.775,0 -4.29375,1.8 -4.29375,5.1 0,3.356247 1.575,5.081247 4.65,5.081247 1.10625,0 2.00625,-0.225 3.1875,-0.7875 l 0,-1.44375 c -1.575,0.7125 -2.11875,0.8625 -3.15,0.8625 -2.0625,0 -2.83125,-0.9375 -2.83125,-3.393747 l 6.4125,0 z m -6.4125,-1.275 c 0.0563,-0.76875 0.15,-1.18125 0.3,-1.575 0.39375,-0.88125 1.0875,-1.33125 2.11875,-1.33125 1.4625,0 2.00625,0.75 2.11875,2.90625 l -4.5375,0 z"
         style="font-style:normal;font-variant:normal;font-weight:normal;font-stretch:normal;font-size:18.75px;line-height:110.00000238%;font-family:'DB Sans';-inkscape-font-specification:'DB Sans, Normal';text-align:start;writing-mode:lr-tb;text-anchor:start;fill:#ffffff"
         id="path5211"
         inkscape:connector-curvature="0" />
      <path
         d="m 211.3041,102.63714 4.89375,0 0,-1.25625 -1.65,0 0,-6.112497 c 0.7875,-0.4125 1.875,-0.69375 3.1875,-0.825 l 0,-1.6875 c -1.03125,0.09375 -2.0625,0.61875 -3.1875,1.59375 l 0,-1.65 -0.39375,0 c -0.43125,0.28125 -0.975,0.39375 -2.0625,0.39375 l -0.75,0 0,1.33125 1.4625,0 0,6.956247 -1.5,0 0,1.25625 z"
         style="font-style:normal;font-variant:normal;font-weight:normal;font-stretch:normal;font-size:18.75px;line-height:110.00000238%;font-family:'DB Sans';-inkscape-font-specification:'DB Sans, Normal';text-align:start;writing-mode:lr-tb;text-anchor:start;fill:#ffffff"
         id="path5213"
         inkscape:connector-curvature="0" />
      <path
         d="m 221.97139,102.73089 1.29375,0 2.45625,-7.237497 2.26875,7.237497 1.40625,0 3.05625,-9.806247 -1.575,0 -2.08125,7.05 -2.2875,-7.14375 -1.36875,0 -2.3625,7.14375 -2.025,-7.05 -1.85625,0 3.075,9.806247 z"
         style="font-style:normal;font-variant:normal;font-weight:normal;font-stretch:normal;font-size:18.75px;line-height:110.00000238%;font-family:'DB Sans';-inkscape-font-specification:'DB Sans, Normal';text-align:start;writing-mode:lr-tb;text-anchor:start;fill:#ffffff"
         id="path5215"
         inkscape:connector-curvature="0" />
      <path
         d="m 242.33037,101.38089 c -0.20625,0.0563 -0.3375,0.075 -0.54375,0.075 -0.525,0 -0.7125,-0.20625 -0.7125,-0.825 l 0,-4.368747 c 0,-2.41875 -1.10625,-3.50625 -3.54375,-3.50625 -1.18125,0 -2.23125,0.2625 -3.4125,0.825 l 0,1.40625 c 1.3875,-0.61875 2.30625,-0.8625 3.31875,-0.8625 1.35,0 1.89375,0.6 1.89375,2.11875 l 0,0.80625 c -2.4,0.16875 -2.94375,0.225 -3.825,0.4875 -1.36875,0.39375 -1.9875,1.2 -1.9875,2.662497 0,1.74375 0.99375,2.7375 2.7,2.7375 1.18125,0 2.15625,-0.4875 3.16875,-1.575 0.24375,0.95625 0.7875,1.40625 1.70625,1.40625 0.35625,0 0.80625,-0.075 1.2375,-0.225 l 0,-1.1625 z m -3,-1.125 c -0.84375,0.9375 -1.74375,1.40625 -2.6625,1.40625 -0.99375,0 -1.40625,-0.45 -1.40625,-1.5375 0,-1.293747 0.69375,-1.724997 3.01875,-1.893747 l 0.7875,-0.05625 0.2625,-0.01875 0,2.099997 z"
         style="font-style:normal;font-variant:normal;font-weight:normal;font-stretch:normal;font-size:18.75px;line-height:110.00000238%;font-family:'DB Sans';-inkscape-font-specification:'DB Sans, Normal';text-align:start;writing-mode:lr-tb;text-anchor:start;fill:#ffffff"
         id="path5217"
         inkscape:connector-curvature="0" />
      <path
         d="m 251.10918,100.72464 c -1.6125,0.75 -1.93125,0.84375 -2.8875,0.84375 -2.04375,0 -2.7,-0.9 -2.7,-3.731247 0,-2.83125 0.61875,-3.69375 2.625,-3.69375 0.91875,0 1.40625,0.13125 2.775,0.7125 l 0,-1.55625 c -1.06875,-0.39375 -1.81875,-0.54375 -2.75625,-0.54375 -2.9625,0 -4.5,1.725 -4.5,5.04375 0,3.431247 1.5,5.137497 4.48125,5.137497 0.99375,0 1.8375,-0.225 2.9625,-0.76875 l 0,-1.44375 z"
         style="font-style:normal;font-variant:normal;font-weight:normal;font-stretch:normal;font-size:18.75px;line-height:110.00000238%;font-family:'DB Sans';-inkscape-font-specification:'DB Sans, Normal';text-align:start;writing-mode:lr-tb;text-anchor:start;fill:#ffffff"
         id="path5219"
         inkscape:connector-curvature="0" />
      <path
         d="m 253.53145,102.63714 1.74375,0 0,-7.312497 c 1.5,-0.91875 2.0625,-1.125 2.9625,-1.125 0.99375,0 1.5,0.58125 1.5,1.6875 l 0,6.749997 1.74375,0 0,-6.881247 c 0,-1.89375 -0.975,-3 -2.6625,-3 -1.2,0 -2.11875,0.39375 -3.54375,1.5375 l 0,-5.83125 -0.3,0 c -0.3,0.2625 -0.8625,0.45 -1.44375,0.46875 l 0,13.706247 z"
         style="font-style:normal;font-variant:normal;font-weight:normal;font-stretch:normal;font-size:18.75px;line-height:110.00000238%;font-family:'DB Sans';-inkscape-font-specification:'DB Sans, Normal';text-align:start;writing-mode:lr-tb;text-anchor:start;fill:#ffffff"
         id="path5221"
         inkscape:connector-curvature="0" />
      <path
         d="m 269.74639,101.28714 c -0.6,0.1875 -0.9,0.24375 -1.33125,0.24375 -1.125,0 -1.59375,-0.4875 -1.59375,-1.649997 l 0,-5.7 2.6625,0 0,-1.25625 -2.6625,0 0,-2.1 -1.0875,0 -0.2625,0.9375 c -0.24375,0.9 -0.6,1.1625 -1.48125,1.1625 l -0.35625,0 0,1.25625 1.44375,0 0,5.45625 c 0,2.174997 0.975,3.206247 3.075,3.206247 0.58125,0 1.0125,-0.075 1.59375,-0.3 l 0,-1.25625 z"
         style="font-style:normal;font-variant:normal;font-weight:normal;font-stretch:normal;font-size:18.75px;line-height:110.00000238%;font-family:'DB Sans';-inkscape-font-specification:'DB Sans, Normal';text-align:start;writing-mode:lr-tb;text-anchor:start;fill:#ffffff"
         id="path5223"
         inkscape:connector-curvature="0" />
      <path
         d="m 273.26172,100.27464 c -0.75,0 -1.29375,0.54375 -1.29375,1.275 0,0.76875 0.525,1.3125 1.29375,1.3125 0.75,0 1.29375,-0.54375 1.29375,-1.29375 0,-0.75 -0.54375,-1.29375 -1.29375,-1.29375 z"
         style="font-style:normal;font-variant:normal;font-weight:normal;font-stretch:normal;font-size:18.75px;line-height:110.00000238%;font-family:'DB Sans';-inkscape-font-specification:'DB Sans, Normal';text-align:start;writing-mode:lr-tb;text-anchor:start;fill:#ffffff"
         id="path5225"
         inkscape:connector-curvature="0" />
      <path
         d="m 12.714063,123.35589 3.15,-10.3125 3.074999,10.3125 1.425,0 3.806251,-13.725 -1.6875,0 -2.8125,10.65 -3.09375,-10.65 -1.2,0 -3.168751,10.65 -2.7562495,-10.65 -1.85625,0 3.7687495,13.725 1.350001,0 z"
         style="font-style:normal;font-variant:normal;font-weight:normal;font-stretch:normal;font-size:18.75px;line-height:110.00000238%;font-family:'DB Sans';-inkscape-font-specification:'DB Sans, Normal';text-align:start;writing-mode:lr-tb;text-anchor:start;fill:#ffffff"
         id="path5227"
         inkscape:connector-curvature="0" />
      <path
         d="m 27.539453,109.59339 c -0.65625,0 -1.14375,0.46875 -1.14375,1.125 0,0.69375 0.46875,1.1625 1.14375,1.1625 0.675,0 1.14375,-0.46875 1.14375,-1.14375 0,-0.675 -0.46875,-1.14375 -1.14375,-1.14375 z m 0.9,13.66875 0,-9.9375 -0.39375,0 c -0.43125,0.28125 -0.975,0.39375 -2.0625,0.39375 l -0.75,0 0,1.33125 1.4625,0 0,8.2125 1.74375,0 z"
         style="font-style:normal;font-variant:normal;font-weight:normal;font-stretch:normal;font-size:18.75px;line-height:110.00000238%;font-family:'DB Sans';-inkscape-font-specification:'DB Sans, Normal';text-align:start;writing-mode:lr-tb;text-anchor:start;fill:#ffffff"
         id="path5229"
         inkscape:connector-curvature="0" />
      <path
         d="m 30.762109,123.26214 4.89375,0 0,-1.25625 -1.65,0 0,-6.1125 c 0.7875,-0.4125 1.875,-0.69375 3.1875,-0.825 l 0,-1.6875 c -1.03125,0.0937 -2.0625,0.61875 -3.1875,1.59375 l 0,-1.65 -0.39375,0 c -0.43125,0.28125 -0.975,0.39375 -2.0625,0.39375 l -0.75,0 0,1.33125 1.4625,0 0,6.95625 -1.5,0 0,1.25625 z"
         style="font-style:normal;font-variant:normal;font-weight:normal;font-stretch:normal;font-size:18.75px;line-height:110.00000238%;font-family:'DB Sans';-inkscape-font-specification:'DB Sans, Normal';text-align:start;writing-mode:lr-tb;text-anchor:start;fill:#ffffff"
         id="path5231"
         inkscape:connector-curvature="0" />
      <path
         d="m 52.869824,123.26214 0,-14.175 -0.28125,0 c -0.3,0.2625 -0.88125,0.45 -1.4625,0.46875 l 0,4.96875 c -1.06875,-0.7875 -2.00625,-1.14375 -3.05625,-1.14375 -1.125,0 -2.1,0.45 -2.775,1.29375 -0.69375,0.8625 -1.03125,2.15625 -1.03125,3.91875 0,3.13125 1.29375,4.96875 3.4875,4.96875 1.21875,0 2.15625,-0.4125 3.525,-1.59375 l 0.45,1.29375 1.14375,0 z m -1.74375,-2.175 c -1.25625,0.8625 -1.9125,1.14375 -2.8125,1.14375 -1.51875,0 -2.175,-1.10625 -2.175,-3.675 0,-2.7 0.65625,-3.73125 2.3625,-3.73125 0.9375,0 1.55625,0.20625 2.625,0.88125 l 0,5.38125 z"
         style="font-style:normal;font-variant:normal;font-weight:normal;font-stretch:normal;font-size:18.75px;line-height:110.00000238%;font-family:'DB Sans';-inkscape-font-specification:'DB Sans, Normal';text-align:start;writing-mode:lr-tb;text-anchor:start;fill:#ffffff"
         id="path5233"
         inkscape:connector-curvature="0" />
      <path
         d="m 64.095508,122.00589 c -0.20625,0.0563 -0.3375,0.075 -0.54375,0.075 -0.525,0 -0.7125,-0.20625 -0.7125,-0.825 l 0,-4.36875 c 0,-2.41875 -1.10625,-3.50625 -3.54375,-3.50625 -1.18125,0 -2.23125,0.2625 -3.4125,0.825 l 0,1.40625 c 1.3875,-0.61875 2.30625,-0.8625 3.31875,-0.8625 1.35,0 1.89375,0.6 1.89375,2.11875 l 0,0.80625 c -2.4,0.16875 -2.94375,0.225 -3.825,0.4875 -1.36875,0.39375 -1.9875,1.2 -1.9875,2.6625 0,1.74375 0.99375,2.7375 2.7,2.7375 1.18125,0 2.15625,-0.4875 3.16875,-1.575 0.24375,0.95625 0.7875,1.40625 1.70625,1.40625 0.35625,0 0.80625,-0.075 1.2375,-0.225 l 0,-1.1625 z m -3,-1.125 c -0.84375,0.9375 -1.74375,1.40625 -2.6625,1.40625 -0.99375,0 -1.40625,-0.45 -1.40625,-1.5375 0,-1.29375 0.69375,-1.725 3.01875,-1.89375 l 0.7875,-0.0563 0.2625,-0.0187 0,2.1 z"
         style="font-style:normal;font-variant:normal;font-weight:normal;font-stretch:normal;font-size:18.75px;line-height:110.00000238%;font-family:'DB Sans';-inkscape-font-specification:'DB Sans, Normal';text-align:start;writing-mode:lr-tb;text-anchor:start;fill:#ffffff"
         id="path5235"
         inkscape:connector-curvature="0" />
      <path
         d="m 66.068066,123.26214 1.74375,0 0,-7.3125 c 1.5,-0.91875 2.0625,-1.125 2.9625,-1.125 1.03125,0 1.5,0.5625 1.5,1.8 l 0,6.6375 1.74375,0 0,-6.88125 c 0,-1.89375 -0.975,-3 -2.6625,-3 -1.2,0 -2.1375,0.4125 -3.54375,1.5375 l 0,-1.59375 -0.3,0 c -0.3,0.2625 -0.8625,0.45 -1.44375,0.46875 l 0,9.46875 z"
         style="font-style:normal;font-variant:normal;font-weight:normal;font-stretch:normal;font-size:18.75px;line-height:110.00000238%;font-family:'DB Sans';-inkscape-font-specification:'DB Sans, Normal';text-align:start;writing-mode:lr-tb;text-anchor:start;fill:#ffffff"
         id="path5237"
         inkscape:connector-curvature="0" />
      <path
         d="m 77.164258,123.26214 1.74375,0 0,-2.85 1.48125,-1.70625 2.925,4.55625 1.9125,0 -3.7125,-5.86875 3.3375,-3.84375 -1.95,0 -3.99375,4.9875 0,-9.45 -0.3,0 c -0.3,0.2625 -0.8625,0.45 -1.44375,0.46875 l 0,13.70625 z"
         style="font-style:normal;font-variant:normal;font-weight:normal;font-stretch:normal;font-size:18.75px;line-height:110.00000238%;font-family:'DB Sans';-inkscape-font-specification:'DB Sans, Normal';text-align:start;writing-mode:lr-tb;text-anchor:start;fill:#ffffff"
         id="path5239"
         inkscape:connector-curvature="0" />
      <path
         d="m 94.57334,118.79964 0,-0.7875 c 0,-3 -1.40625,-4.63125 -3.975,-4.63125 -2.775,0 -4.29375,1.8 -4.29375,5.1 0,3.35625 1.575,5.08125 4.65,5.08125 1.10625,0 2.00625,-0.225 3.1875,-0.7875 l 0,-1.44375 c -1.575,0.7125 -2.11875,0.8625 -3.15,0.8625 -2.0625,0 -2.83125,-0.9375 -2.83125,-3.39375 l 6.4125,0 z m -6.4125,-1.275 c 0.05625,-0.76875 0.15,-1.18125 0.3,-1.575 0.39375,-0.88125 1.0875,-1.33125 2.11875,-1.33125 1.4625,0 2.00625,0.75 2.11875,2.90625 l -4.5375,0 z"
         style="font-style:normal;font-variant:normal;font-weight:normal;font-stretch:normal;font-size:18.75px;line-height:110.00000238%;font-family:'DB Sans';-inkscape-font-specification:'DB Sans, Normal';text-align:start;writing-mode:lr-tb;text-anchor:start;fill:#ffffff"
         id="path5241"
         inkscape:connector-curvature="0" />
      <path
         d="m 97.086133,123.26214 1.74375,0 0,-7.3125 c 1.499997,-0.91875 2.062497,-1.125 2.962497,-1.125 1.03125,0 1.5,0.5625 1.5,1.8 l 0,6.6375 1.74375,0 0,-6.88125 c 0,-1.89375 -0.975,-3 -2.6625,-3 -1.2,0 -2.1375,0.4125 -3.543747,1.5375 l 0,-1.59375 -0.3,0 c -0.3,0.2625 -0.8625,0.45 -1.44375,0.46875 l 0,9.46875 z"
         style="font-style:normal;font-variant:normal;font-weight:normal;font-stretch:normal;font-size:18.75px;line-height:110.00000238%;font-family:'DB Sans';-inkscape-font-specification:'DB Sans, Normal';text-align:start;writing-mode:lr-tb;text-anchor:start;fill:#ffffff"
         id="path5243"
         inkscape:connector-curvature="0" />
      <path
         d="m 112.82822,114.80589 1.4625,0 0,8.45625 1.74375,0 0,-8.45625 2.3625,0 0,-1.25625 -2.3625,0 0,-0.88125 c 0,-1.5375 0.65625,-2.2875 1.9875,-2.2875 0.225,0 0.4125,0.0188 0.69375,0.075 l 0,-1.3875 -0.975,0 c -2.19375,0 -3.45,1.35 -3.45,3.75 l 0,0.73125 -1.4625,0 0,1.25625 z"
         style="font-style:normal;font-variant:normal;font-weight:normal;font-stretch:normal;font-size:18.75px;line-height:110.00000238%;font-family:'DB Sans';-inkscape-font-specification:'DB Sans, Normal';text-align:start;writing-mode:lr-tb;text-anchor:start;fill:#ffffff"
         id="path5245"
         inkscape:connector-curvature="0" />
      <path
         d="m 126.99414,123.26214 1.14375,0 0,-9.73125 -1.74375,0.1125 0,7.36875 c -1.2375,0.91875 -1.89375,1.2 -2.8125,1.2 -1.05,0 -1.48125,-0.54375 -1.48125,-1.89375 l 0,-6.7875 -1.74375,0.1125 0,6.6375 c 0,1.05 0.13125,1.65 0.4875,2.19375 0.45,0.7125 1.18125,1.0875 2.175,1.0875 1.29375,0 2.26875,-0.46875 3.525,-1.66875 l 0.45,1.36875 z m -4.29375,-13.575 c -0.61875,0 -1.05,0.43125 -1.05,1.05 0,0.61875 0.43125,1.05 1.03125,1.05 0.6375,0 1.06875,-0.43125 1.06875,-1.05 0,-0.61875 -0.43125,-1.05 -1.05,-1.05 z m 3.20625,0 c -0.61875,0 -1.05,0.43125 -1.05,1.05 0,0.61875 0.43125,1.05 1.03125,1.05 0.6375,0 1.06875,-0.43125 1.06875,-1.05 0,-0.61875 -0.43125,-1.05 -1.05,-1.05 z"
         style="font-style:normal;font-variant:normal;font-weight:normal;font-stretch:normal;font-size:18.75px;line-height:110.00000238%;font-family:'DB Sans';-inkscape-font-specification:'DB Sans, Normal';text-align:start;writing-mode:lr-tb;text-anchor:start;fill:#ffffff"
         id="path5247"
         inkscape:connector-curvature="0" />
      <path
         d="m 130.44473,123.26214 4.89375,0 0,-1.25625 -1.65,0 0,-6.1125 c 0.7875,-0.4125 1.875,-0.69375 3.1875,-0.825 l 0,-1.6875 c -1.03125,0.0937 -2.0625,0.61875 -3.1875,1.59375 l 0,-1.65 -0.39375,0 c -0.43125,0.28125 -0.975,0.39375 -2.0625,0.39375 l -0.75,0 0,1.33125 1.4625,0 0,6.95625 -1.5,0 0,1.25625 z"
         style="font-style:normal;font-variant:normal;font-weight:normal;font-stretch:normal;font-size:18.75px;line-height:110.00000238%;font-family:'DB Sans';-inkscape-font-specification:'DB Sans, Normal';text-align:start;writing-mode:lr-tb;text-anchor:start;fill:#ffffff"
         id="path5249"
         inkscape:connector-curvature="0" />
      <path
         d="m 145.80244,122.04339 -1.7625,0 0,1.21875 5.34375,0 0,-1.21875 -1.7625,0 0,-11.19375 1.7625,0 0,-1.21875 -5.34375,0 0,1.21875 1.7625,0 0,11.19375 z"
         style="font-style:normal;font-variant:normal;font-weight:normal;font-stretch:normal;font-size:18.75px;line-height:110.00000238%;font-family:'DB Sans';-inkscape-font-specification:'DB Sans, Normal';text-align:start;writing-mode:lr-tb;text-anchor:start;fill:#ffffff"
         id="path5251"
         inkscape:connector-curvature="0" />
      <path
         d="m 152.05439,123.26214 1.74375,0 0,-7.3125 c 1.5,-0.91875 2.0625,-1.125 2.9625,-1.125 0.99375,0 1.5,0.58125 1.5,1.6875 l 0,6.75 1.74375,0 0,-6.88125 c 0,-1.89375 -0.975,-3 -2.6625,-3 -1.2,0 -2.11875,0.39375 -3.54375,1.5375 l 0,-5.83125 -0.3,0 c -0.3,0.2625 -0.8625,0.45 -1.44375,0.46875 l 0,13.70625 z"
         style="font-style:normal;font-variant:normal;font-weight:normal;font-stretch:normal;font-size:18.75px;line-height:110.00000238%;font-family:'DB Sans';-inkscape-font-specification:'DB Sans, Normal';text-align:start;writing-mode:lr-tb;text-anchor:start;fill:#ffffff"
         id="path5253"
         inkscape:connector-curvature="0" />
      <path
         d="m 162.23184,123.26214 4.89375,0 0,-1.25625 -1.65,0 0,-6.1125 c 0.7875,-0.4125 1.875,-0.69375 3.1875,-0.825 l 0,-1.6875 c -1.03125,0.0937 -2.0625,0.61875 -3.1875,1.59375 l 0,-1.65 -0.39375,0 c -0.43125,0.28125 -0.975,0.39375 -2.0625,0.39375 l -0.75,0 0,1.33125 1.4625,0 0,6.95625 -1.5,0 0,1.25625 z"
         style="font-style:normal;font-variant:normal;font-weight:normal;font-stretch:normal;font-size:18.75px;line-height:110.00000238%;font-family:'DB Sans';-inkscape-font-specification:'DB Sans, Normal';text-align:start;writing-mode:lr-tb;text-anchor:start;fill:#ffffff"
         id="path5255"
         inkscape:connector-curvature="0" />
      <path
         d="m 186.7583,109.63089 -1.725,0 -3.9375,10.89375 -3.9375,-10.89375 -1.9125,0 5.15625,13.725 1.125,0 5.23125,-13.725 z"
         style="font-style:normal;font-variant:normal;font-weight:normal;font-stretch:normal;font-size:18.75px;line-height:110.00000238%;font-family:'DB Sans';-inkscape-font-specification:'DB Sans, Normal';text-align:start;writing-mode:lr-tb;text-anchor:start;fill:#ffffff"
         id="path5257"
         inkscape:connector-curvature="0" />
      <path
         d="m 195.5377,118.79964 0,-0.7875 c 0,-3 -1.40625,-4.63125 -3.975,-4.63125 -2.775,0 -4.29375,1.8 -4.29375,5.1 0,3.35625 1.575,5.08125 4.65,5.08125 1.10625,0 2.00625,-0.225 3.1875,-0.7875 l 0,-1.44375 c -1.575,0.7125 -2.11875,0.8625 -3.15,0.8625 -2.0625,0 -2.83125,-0.9375 -2.83125,-3.39375 l 6.4125,0 z m -6.4125,-1.275 c 0.0563,-0.76875 0.15,-1.18125 0.3,-1.575 0.39375,-0.88125 1.0875,-1.33125 2.11875,-1.33125 1.4625,0 2.00625,0.75 2.11875,2.90625 l -4.5375,0 z"
         style="font-style:normal;font-variant:normal;font-weight:normal;font-stretch:normal;font-size:18.75px;line-height:110.00000238%;font-family:'DB Sans';-inkscape-font-specification:'DB Sans, Normal';text-align:start;writing-mode:lr-tb;text-anchor:start;fill:#ffffff"
         id="path5259"
         inkscape:connector-curvature="0" />
      <path
         d="m 197.13174,123.26214 4.89375,0 0,-1.25625 -1.65,0 0,-6.1125 c 0.7875,-0.4125 1.875,-0.69375 3.1875,-0.825 l 0,-1.6875 c -1.03125,0.0937 -2.0625,0.61875 -3.1875,1.59375 l 0,-1.65 -0.39375,0 c -0.43125,0.28125 -0.975,0.39375 -2.0625,0.39375 l -0.75,0 0,1.33125 1.4625,0 0,6.95625 -1.5,0 0,1.25625 z"
         style="font-style:normal;font-variant:normal;font-weight:normal;font-stretch:normal;font-size:18.75px;line-height:110.00000238%;font-family:'DB Sans';-inkscape-font-specification:'DB Sans, Normal';text-align:start;writing-mode:lr-tb;text-anchor:start;fill:#ffffff"
         id="path5261"
         inkscape:connector-curvature="0" />
      <path
         d="m 205.0498,122.81214 c 1.0125,0.46875 1.9875,0.675 3.075,0.675 2.19375,0 3.4875,-1.05 3.4875,-2.8125 0,-0.9 -0.3,-1.51875 -0.975,-2.04375 -0.375,-0.3 -0.76875,-0.4875 -1.9125,-0.91875 -1.74375,-0.65625 -2.04375,-0.91875 -2.04375,-1.74375 0,-0.76875 0.6,-1.1625 1.74375,-1.1625 0.84375,0 1.5,0.16875 2.68125,0.7125 l 0,-1.55625 c -1.0875,-0.4125 -1.7625,-0.54375 -2.6625,-0.54375 -2.11875,0 -3.3,0.975 -3.3,2.7 0,0.76875 0.24375,1.40625 0.75,1.89375 0.43125,0.4125 0.95625,0.69375 2.2125,1.1625 1.5375,0.58125 1.875,0.88125 1.875,1.65 0,0.91875 -0.6,1.3125 -1.9875,1.3125 -1.06875,0 -1.81875,-0.1875 -2.94375,-0.76875 l 0,1.44375 z"
         style="font-style:normal;font-variant:normal;font-weight:normal;font-stretch:normal;font-size:18.75px;line-height:110.00000238%;font-family:'DB Sans';-inkscape-font-specification:'DB Sans, Normal';text-align:start;writing-mode:lr-tb;text-anchor:start;fill:#ffffff"
         id="path5263"
         inkscape:connector-curvature="0" />
      <path
         d="m 219.09941,121.91214 c -0.6,0.1875 -0.9,0.24375 -1.33125,0.24375 -1.125,0 -1.59375,-0.4875 -1.59375,-1.65 l 0,-5.7 2.6625,0 0,-1.25625 -2.6625,0 0,-2.1 -1.0875,0 -0.2625,0.9375 c -0.24375,0.9 -0.6,1.1625 -1.48125,1.1625 l -0.35625,0 0,1.25625 1.44375,0 0,5.45625 c 0,2.175 0.975,3.20625 3.075,3.20625 0.58125,0 1.0125,-0.075 1.59375,-0.3 l 0,-1.25625 z"
         style="font-style:normal;font-variant:normal;font-weight:normal;font-stretch:normal;font-size:18.75px;line-height:110.00000238%;font-family:'DB Sans';-inkscape-font-specification:'DB Sans, Normal';text-align:start;writing-mode:lr-tb;text-anchor:start;fill:#ffffff"
         id="path5265"
         inkscape:connector-curvature="0" />
      <path
         d="m 229.25664,122.00589 c -0.20625,0.0563 -0.3375,0.075 -0.54375,0.075 -0.525,0 -0.7125,-0.20625 -0.7125,-0.825 l 0,-4.36875 c 0,-2.41875 -1.10625,-3.50625 -3.54375,-3.50625 -1.18125,0 -2.23125,0.2625 -3.4125,0.825 l 0,1.40625 c 1.3875,-0.61875 2.30625,-0.8625 3.31875,-0.8625 1.35,0 1.89375,0.6 1.89375,2.11875 l 0,0.80625 c -2.4,0.16875 -2.94375,0.225 -3.825,0.4875 -1.36875,0.39375 -1.9875,1.2 -1.9875,2.6625 0,1.74375 0.99375,2.7375 2.7,2.7375 1.18125,0 2.15625,-0.4875 3.16875,-1.575 0.24375,0.95625 0.7875,1.40625 1.70625,1.40625 0.35625,0 0.80625,-0.075 1.2375,-0.225 l 0,-1.1625 z m -3,-1.125 c -0.84375,0.9375 -1.74375,1.40625 -2.6625,1.40625 -0.99375,0 -1.40625,-0.45 -1.40625,-1.5375 0,-1.29375 0.69375,-1.725 3.01875,-1.89375 l 0.7875,-0.0563 0.2625,-0.0187 0,2.1 z m -3.31875,-11.19375 c -0.61875,0 -1.05,0.43125 -1.05,1.05 0,0.61875 0.43125,1.05 1.03125,1.05 0.6375,0 1.06875,-0.43125 1.06875,-1.05 0,-0.61875 -0.43125,-1.05 -1.05,-1.05 z m 3.20625,0 c -0.61875,0 -1.05,0.43125 -1.05,1.05 0,0.61875 0.43125,1.05 1.03125,1.05 0.6375,0 1.06875,-0.43125 1.06875,-1.05 0,-0.61875 -0.43125,-1.05 -1.05,-1.05 z"
         style="font-style:normal;font-variant:normal;font-weight:normal;font-stretch:normal;font-size:18.75px;line-height:110.00000238%;font-family:'DB Sans';-inkscape-font-specification:'DB Sans, Normal';text-align:start;writing-mode:lr-tb;text-anchor:start;fill:#ffffff"
         id="path5267"
         inkscape:connector-curvature="0" />
      <path
         d="m 231.2292,123.26214 1.74375,0 0,-7.3125 c 1.5,-0.91875 2.0625,-1.125 2.9625,-1.125 1.03125,0 1.5,0.5625 1.5,1.8 l 0,6.6375 1.74375,0 0,-6.88125 c 0,-1.89375 -0.975,-3 -2.6625,-3 -1.2,0 -2.1375,0.4125 -3.54375,1.5375 l 0,-1.59375 -0.3,0 c -0.3,0.2625 -0.8625,0.45 -1.44375,0.46875 l 0,9.46875 z"
         style="font-style:normal;font-variant:normal;font-weight:normal;font-stretch:normal;font-size:18.75px;line-height:110.00000238%;font-family:'DB Sans';-inkscape-font-specification:'DB Sans, Normal';text-align:start;writing-mode:lr-tb;text-anchor:start;fill:#ffffff"
         id="path5269"
         inkscape:connector-curvature="0" />
      <path
         d="m 250.29414,123.26214 0,-14.175 -0.28125,0 c -0.3,0.2625 -0.88125,0.45 -1.4625,0.46875 l 0,4.96875 c -1.06875,-0.7875 -2.00625,-1.14375 -3.05625,-1.14375 -1.125,0 -2.1,0.45 -2.775,1.29375 -0.69375,0.8625 -1.03125,2.15625 -1.03125,3.91875 0,3.13125 1.29375,4.96875 3.4875,4.96875 1.21875,0 2.15625,-0.4125 3.525,-1.59375 l 0.45,1.29375 1.14375,0 z m -1.74375,-2.175 c -1.25625,0.8625 -1.9125,1.14375 -2.8125,1.14375 -1.51875,0 -2.175,-1.10625 -2.175,-3.675 0,-2.7 0.65625,-3.73125 2.3625,-3.73125 0.9375,0 1.55625,0.20625 2.625,0.88125 l 0,5.38125 z"
         style="font-style:normal;font-variant:normal;font-weight:normal;font-stretch:normal;font-size:18.75px;line-height:110.00000238%;font-family:'DB Sans';-inkscape-font-specification:'DB Sans, Normal';text-align:start;writing-mode:lr-tb;text-anchor:start;fill:#ffffff"
         id="path5271"
         inkscape:connector-curvature="0" />
      <path
         d="m 253.49482,123.26214 1.74375,0 0,-7.3125 c 1.5,-0.91875 2.0625,-1.125 2.9625,-1.125 1.03125,0 1.5,0.5625 1.5,1.8 l 0,6.6375 1.74375,0 0,-6.88125 c 0,-1.89375 -0.975,-3 -2.6625,-3 -1.2,0 -2.1375,0.4125 -3.54375,1.5375 l 0,-1.59375 -0.3,0 c -0.3,0.2625 -0.8625,0.45 -1.44375,0.46875 l 0,9.46875 z"
         style="font-style:normal;font-variant:normal;font-weight:normal;font-stretch:normal;font-size:18.75px;line-height:110.00000238%;font-family:'DB Sans';-inkscape-font-specification:'DB Sans, Normal';text-align:start;writing-mode:lr-tb;text-anchor:start;fill:#ffffff"
         id="path5273"
         inkscape:connector-curvature="0" />
      <path
         d="m 266.01602,109.59339 c -0.65625,0 -1.14375,0.46875 -1.14375,1.125 0,0.69375 0.46875,1.1625 1.14375,1.1625 0.675,0 1.14375,-0.46875 1.14375,-1.14375 0,-0.675 -0.46875,-1.14375 -1.14375,-1.14375 z m 0.9,13.66875 0,-9.9375 -0.39375,0 c -0.43125,0.28125 -0.975,0.39375 -2.0625,0.39375 l -0.75,0 0,1.33125 1.4625,0 0,8.2125 1.74375,0 z"
         style="font-style:normal;font-variant:normal;font-weight:normal;font-stretch:normal;font-size:18.75px;line-height:110.00000238%;font-family:'DB Sans';-inkscape-font-specification:'DB Sans, Normal';text-align:start;writing-mode:lr-tb;text-anchor:start;fill:#ffffff"
         id="path5275"
         inkscape:connector-curvature="0" />
      <path
         d="m 269.57617,122.81214 c 1.0125,0.46875 1.9875,0.675 3.075,0.675 2.19375,0 3.4875,-1.05 3.4875,-2.8125 0,-0.9 -0.3,-1.51875 -0.975,-2.04375 -0.375,-0.3 -0.76875,-0.4875 -1.9125,-0.91875 -1.74375,-0.65625 -2.04375,-0.91875 -2.04375,-1.74375 0,-0.76875 0.6,-1.1625 1.74375,-1.1625 0.84375,0 1.5,0.16875 2.68125,0.7125 l 0,-1.55625 c -1.0875,-0.4125 -1.7625,-0.54375 -2.6625,-0.54375 -2.11875,0 -3.3,0.975 -3.3,2.7 0,0.76875 0.24375,1.40625 0.75,1.89375 0.43125,0.4125 0.95625,0.69375 2.2125,1.1625 1.5375,0.58125 1.875,0.88125 1.875,1.65 0,0.91875 -0.6,1.3125 -1.9875,1.3125 -1.06875,0 -1.81875,-0.1875 -2.94375,-0.76875 l 0,1.44375 z"
         style="font-style:normal;font-variant:normal;font-weight:normal;font-stretch:normal;font-size:18.75px;line-height:110.00000238%;font-family:'DB Sans';-inkscape-font-specification:'DB Sans, Normal';text-align:start;writing-mode:lr-tb;text-anchor:start;fill:#ffffff"
         id="path5277"
         inkscape:connector-curvature="0" />
      <path
         d="m 280.90703,109.63089 -2.1,0 0.4875,9.525 1.125,0 0.4875,-9.525 z m -1.05,11.26875 c -0.75,0 -1.29375,0.54375 -1.29375,1.275 0,0.76875 0.525,1.3125 1.29375,1.3125 0.75,0 1.29375,-0.54375 1.29375,-1.29375 0,-0.75 -0.54375,-1.29375 -1.29375,-1.29375 z"
         style="font-style:normal;font-variant:normal;font-weight:normal;font-stretch:normal;font-size:18.75px;line-height:110.00000238%;font-family:'DB Sans';-inkscape-font-specification:'DB Sans, Normal';text-align:start;writing-mode:lr-tb;text-anchor:start;fill:#ffffff"
         id="path5279"
         inkscape:connector-curvature="0" />
    </g>
    <g
       id="g4982"
       transform="translate(53.89325,749.53284)" />
  </g>
  <g
     inkscape:groupmode="layer"
     id="layer4"
     inkscape:label="camera"
     sodipodi:insensitive="true">
    <g
       transform="matrix(0.53277749,0,0,0.53277749,138.70957,-13.555343)"
       style="display:inline;filter:url(#filter3358);enable-background:new"
       id="g5000">
      <g
         id="g5031"
         transform="matrix(1.0561501,0,0,1.0561501,6.8397839,-1.4286148)">
        <path
           sodipodi:nodetypes="ccccc"
           id="path1400"
           d="m 179.04933,25.442785 20.08274,-8e-6 0,65.694173 -20.08274,5.24775 z"
           style="fill:#ffffff;fill-opacity:1;fill-rule:evenodd;stroke:none;stroke-width:1px;stroke-linecap:butt;stroke-linejoin:miter;stroke-opacity:1"
           inkscape:connector-curvature="0" />
        <path
           id="path1402"
           d="M 103.25969,121.31152 151.70047,188.22036 271.99509,155.9265 251.91235,81.34788 103.25969,121.31152 Z"
           style="fill:#ffffff;fill-opacity:1;fill-rule:evenodd;stroke:none;stroke-width:1px;stroke-linecap:butt;stroke-linejoin:miter;stroke-opacity:1"
           inkscape:connector-curvature="0" />
        <path
           sodipodi:nodetypes="ccccc"
           id="path1404"
           d="m 95.87913,148.29005 18.98616,-5.18017 10.29367,36.53242 -18.77081,5.85326 -10.50902,-37.20551 z"
           style="fill:#ffffff;fill-opacity:1;fill-rule:evenodd;stroke:none;stroke-width:1px;stroke-linecap:butt;stroke-linejoin:miter;stroke-opacity:1"
           inkscape:connector-curvature="0" />
      </g>
    </g>
  </g>
  <g
     inkscape:groupmode="layer"
     id="layer3"
     inkscape:label="bleeding - hide before export for printing!"
     transform="translate(0,-3.5433071)"
     style="display:inline"
     sodipodi:insensitive="true">
    <rect
       style="fill:none;fill-opacity:1;stroke:#ff00ff;stroke-width:0.44751805;stroke-miterlimit:4;stroke-dasharray:none"
       id="rect4904"
       width="300.73361"
       height="190.89107"
       x="7.3103733"
       y="10.853678" />
  </g>
</svg>
