<?xml version="1.0" encoding="UTF-8" standalone="no"?>
<!-- Created with Inkscape (http://www.inkscape.org/) -->

<svg
   xmlns:dc="http://purl.org/dc/elements/1.1/"
   xmlns:cc="http://creativecommons.org/ns#"
   xmlns:rdf="http://www.w3.org/1999/02/22-rdf-syntax-ns#"
   xmlns:svg="http://www.w3.org/2000/svg"
   xmlns="http://www.w3.org/2000/svg"
   version="1.2"
   width="425.19684"
   height="106.29921"
   id="svg2">
  <defs
     id="defs4">
    <filter
       x="0"
       y="0"
       width="1"
       height="1"
       color-interpolation-filters="sRGB"
       id="filter4895">
      <feColorMatrix
         result="fbSourceGraphic"
         values="1"
         type="saturate"
         id="feColorMatrix4897" />
      <feColorMatrix
         values="-1 0 0 0 1 0 -1 0 0 1 0 0 -1 0 1 0 0 0 1 0 "
         in="fbSourceGraphic"
         id="feColorMatrix4899" />
    </filter>
  </defs>
  <metadata
     id="metadata7">
    <rdf:RDF>
      <cc:Work
         rdf:about="">
        <dc:format>image/svg+xml</dc:format>
        <dc:type
           rdf:resource="http://purl.org/dc/dcmitype/StillImage" />
        <dc:title></dc:title>
      </cc:Work>
    </rdf:RDF>
  </metadata>
  <g
     transform="translate(0,-946.02581)"
     id="layer1">
    <rect
       width="247.73991"
       height="106.06602"
       x="0.25253814"
       y="946.25897"
       id="rect4920"
       style="fill:#ffffff;fill-opacity:1;fill-rule:nonzero;stroke:none" />
    <rect
       width="179.44476"
       height="106.12729"
       x="245.6915"
       y="946.19775"
       id="rect4385"
       style="fill:#000000;fill-opacity:1;fill-rule:nonzero;stroke:none" />
    <path
       d="m 18.059708,959.79272 34.151889,0 0,65.87678 -34.151889,0 0,-65.87678 m 14.007476,7.14242 c -0.832144,0.27743 -1.618041,0.8553 -2.357694,1.7336 -0.809027,0.0925 -1.779842,0.48546 -2.912446,1.17885 l -1.144174,2.32302 -1.768271,1.17885 -0.589423,1.7336 0,5.27014 -0.554752,1.7336 0,7.00373 0.554752,0.58943 0,4.68071 0.589423,1.7336 0,2.91245 -0.589423,2.35768 0.589423,0 c -0.346728,0.393 -0.543202,1.1673 -0.589423,2.323 l 0,7.0038 c 0.43917,0.7165 0.832118,1.0979 1.178846,1.1441 0.39294,1.2945 1.167279,2.2768 2.323022,2.9472 l 2.357694,1.7336 1.7336,1.1788 1.733597,0.5894 7.003739,0 0.589423,-0.5894 c 1.271279,-0.208 2.242092,-0.9939 2.912445,-2.3577 l 1.768271,-0.5547 0,-0.5895 c 0.647179,-1.0401 1.225044,-2.6004 1.733597,-4.6807 l 0.589423,-1.1788 0,-15.7411 c -0.693471,-1.27128 -2.057233,-2.04562 -4.091291,-2.32302 l -0.589423,-0.58942 0,0.58942 -1.733599,-0.58942 -0.589423,0.58942 -4.091294,0 c -1.132637,0.76281 -1.710502,2.12657 -1.733597,4.09129 l 1.178846,1.14418 c 2.126525,0.0925 3.675205,1.25977 4.646045,3.50187 0.346694,0.50854 0.543168,1.29438 0.589423,2.35768 l 0,5.2355 c -0.09249,2.3808 -1.456247,3.941 -4.091292,4.6807 l -0.589425,1.1442 -3.501868,0 0,-0.5895 -1.144174,0 0,-1.1441 -1.178848,-0.5895 -0.589423,-2.323 0,-8.18256 0.589423,0 0,-2.91245 -0.589423,-2.32302 0,-4.09129 0.589423,-3.50187 0,-4.09129 -0.589423,-5.82489 1.178848,-0.58943 1.178846,-2.32302 4.646044,0 c 1.271281,0.41611 2.438571,1.38692 3.501869,2.91245 l 1.178846,0.58942 2.912445,0.55475 0.589425,-0.55475 0,0.55475 1.144174,-1.14417 0,0.58942 0.589423,-0.58942 -0.589423,0 0.589423,-0.58943 0,-2.91244 c -0.300522,-0.48536 -1.074861,-1.07479 -2.323022,-1.76827 l -0.589423,-0.55475 c -0.624123,-1.73355 -2.184361,-2.90084 -4.680716,-3.50187 l -3.467197,0 -0.589423,-0.58943 -2.912445,0"
       id="path4087"
       style="font-size:40px;font-style:normal;font-variant:normal;font-weight:normal;font-stretch:normal;text-align:start;line-height:125%;letter-spacing:0px;word-spacing:0px;writing-mode:lr-tb;text-anchor:start;fill:#000000;fill-opacity:1;stroke:none;font-family:Alias;-inkscape-font-specification:Alias" />
    <path
       d="m 60.983606,1009.651 2.010974,0 4.021948,2.011 0,4.9927 -1.005487,1.0055 0,-1.0055 -1.005486,1.0055 1.005486,0 -1.005486,1.0055 -6.032924,0 -1.005486,-1.0055 -1.005487,-3.9872 1.005487,-2.011 3.016461,-2.011"
       id="path4089"
       style="font-size:40px;font-style:normal;font-variant:normal;font-weight:normal;font-stretch:normal;text-align:start;line-height:125%;letter-spacing:0px;word-spacing:0px;writing-mode:lr-tb;text-anchor:start;fill:#000000;fill-opacity:1;stroke:none;font-family:Alias;-inkscape-font-specification:Alias" />
    <path
       d="m 74.956408,959.79272 31.655512,0 0,65.49538 -31.655512,0 0,-65.49538 m 12.65527,6.41431 c -1.664268,0.36989 -2.970244,1.41005 -3.917933,3.12048 l -0.797454,0.79745 -2.357694,1.59492 -0.797456,0.76278 -0.797456,3.9526 0,33.80514 0.797456,1.5603 c 0.993921,3.028 3.36317,5.1314 7.107753,6.3103 l 8.63332,0 2.392366,-0.7975 c 1.54865,-1.0633 2.58881,-2.3692 3.12048,-3.9179 0.9939,-1.1557 1.79135,-2.9934 2.39236,-5.5129 -0.64724,-0.3236 -1.17887,-1.1095 -1.59491,-2.3576 l -0.79745,-0.7975 -3.12048,0 -0.79745,0.7975 0.79745,0 -0.79745,0.7974 0,-0.7974 -0.79746,0.7974 0.79746,0 -0.79746,0.7628 0,-0.7628 -0.797456,0.7628 0,3.1551 c -0.508543,0.1387 -1.028623,0.6588 -1.560238,1.5603 l -3.15515,0 0,0.7974 -1.560238,0 -0.797456,-0.7974 -3.155147,-1.5603 0,-15.74104 0.797453,-0.76278 -0.797453,-3.15515 0,1.56024 c 0.346706,-1.57177 0.878342,-3.66365 1.594909,-6.27563 l 0,-3.15515 -0.797456,0 0,-5.51284 c 0.785885,-0.25422 1.571783,-1.29438 2.357694,-3.12048 l 5.512844,0 1.560238,0.76278 0.797456,0.79746 c 0.11555,1.10954 0.64719,2.41552 1.59491,3.91793 l 3.91793,0 0.79746,-1.56024 0,-4.71539 -0.79746,0 -0.79745,-2.35769 -0.76278,-0.79746 0,0.79746 -0.79746,-0.79746 0.79746,0 -0.79746,-0.79745 0,0.79745 -0.79746,-0.79745 0.79746,0 -0.79746,-0.76278 c -1.47936,-0.85519 -3.571231,-1.38683 -6.275622,-1.59491 l -3.15515,-0.76279 -1.59491,0"
       id="path4091"
       style="font-size:40px;font-style:normal;font-variant:normal;font-weight:normal;font-stretch:normal;text-align:start;line-height:125%;letter-spacing:0px;word-spacing:0px;writing-mode:lr-tb;text-anchor:start;fill:#000000;fill-opacity:1;stroke:none;font-family:Alias;-inkscape-font-specification:Alias" />
    <path
       d="m 114.93319,1009.651 2.01097,0 4.02195,2.011 0,4.9927 -1.00549,1.0055 0,-1.0055 -1.00548,1.0055 1.00548,0 -1.00548,1.0055 -6.03293,0 -1.00548,-1.0055 -1.00549,-3.9872 1.00549,-2.011 3.01646,-2.011"
       id="path4093"
       style="font-size:40px;font-style:normal;font-variant:normal;font-weight:normal;font-stretch:normal;text-align:start;line-height:125%;letter-spacing:0px;word-spacing:0px;writing-mode:lr-tb;text-anchor:start;fill:#000000;fill-opacity:1;stroke:none;font-family:Alias;-inkscape-font-specification:Alias" />
    <path
       d="m 130.11951,959.79272 33.6318,0 0,65.52998 -33.6318,0 0,-65.52998 m 6.62235,7.35046 -2.18434,3.29383 c 0.46229,1.5025 0.82056,3.69839 1.07483,6.58768 l 0,1.07483 -1.07483,5.51284 0,25.24124 1.07483,5.4781 1.10951,1.1095 4.43801,-1.1095 c 0.64719,-0.7628 1.01703,-2.219 1.1095,-4.3686 l 0,-14.28489 c 1.4562,-1.15571 3.66365,-1.88382 6.62235,-2.18434 l 2.21901,1.07483 c 0.57784,1.0633 0.94767,2.53108 1.1095,4.40334 l 0,7.69716 -1.1095,1.0749 1.1095,2.219 -1.1095,2.1843 1.1095,2.1843 4.40334,1.1095 2.21901,-1.1095 1.1095,-3.2938 -1.1095,-3.2938 0,-7.6626 -1.1095,-1.10946 0,-7.69717 1.1095,-3.29384 0,-5.47817 -1.1095,-1.1095 0,-9.88152 1.1095,-1.07483 -4.40334,-2.219 -2.21901,1.1095 0,8.77201 -1.1095,1.1095 0,8.77201 -4.43802,0 0,1.1095 -2.18433,0 -2.21901,-1.1095 0,-17.54402 -1.1095,-1.1095 0,-1.1095 -4.43801,-1.07483"
       id="path4095"
       style="font-size:40px;font-style:normal;font-variant:normal;font-weight:normal;font-stretch:normal;text-align:start;line-height:125%;letter-spacing:0px;word-spacing:0px;writing-mode:lr-tb;text-anchor:start;fill:#000000;fill-opacity:1;stroke:none;font-family:Alias;-inkscape-font-specification:Alias" />
    <path
       d="m 172.21128,1009.651 2.01097,0 4.02196,2.011 0,4.9927 -1.00549,1.0055 0,-1.0055 -1.0055,1.0055 1.0055,0 -1.0055,1.0055 -6.03291,0 -1.00549,-1.0055 -1.00549,-3.9872 1.00549,-2.011 3.01646,-2.011"
       id="path4097"
       style="font-size:40px;font-style:normal;font-variant:normal;font-weight:normal;font-stretch:normal;text-align:start;line-height:125%;letter-spacing:0px;word-spacing:0px;writing-mode:lr-tb;text-anchor:start;fill:#000000;fill-opacity:1;stroke:none;font-family:Alias;-inkscape-font-specification:Alias" />
    <path
       d="m 188.39338,960.00075 38.72858,0 0,65.49535 -38.72858,0 0,-65.49535 m 14.49288,5.27014 c -1.10952,0.30054 -2.27681,1.20201 -3.50188,2.70441 l -1.38688,0 -1.42154,0.90147 c -0.85524,1.27136 -1.31754,2.76225 -1.38688,4.47269 l -1.42155,1.80294 0,4.50736 0.69345,3.60588 -0.69345,0.90147 0.69345,2.70442 0.7281,0 0,1.80294 1.38688,1.80294 c -0.18493,1.6874 -0.64723,4.07976 -1.38688,7.1771 l 0,3.60589 -1.42155,1.8029 0.69345,4.5074 c 1.47931,2.4733 3.59431,3.9757 6.34495,4.5073 0.92458,1.1327 2.32302,1.7337 4.19533,1.803 l 4.1953,0 2.80843,-0.9015 2.80843,0 1.59491,1.6296 1.38688,0 c -0.11557,2.3346 0.86676,3.837 2.94711,4.5074 l 0,-0.9015 c 1.04012,-0.5779 1.74513,-1.4216 2.11499,-2.5311 l 0.69343,-0.9014 -0.69343,-2.7045 c -0.76282,-1.2713 -1.80298,-2.7737 -3.12047,-4.5073 l 0,-34.22124 -0.72812,-2.66974 c -1.10954,-1.04011 -2.03412,-1.64109 -2.77376,-1.80295 -1.01706,-1.61797 -2.42706,-2.51944 -4.22997,-2.70441 l -2.80843,-0.90147 -6.3103,0 m -0.83213,6.27563 8.32127,0 2.77376,1.80294 1.83762,0 0,25.20652 -0.58944,2.60042 -3.12047,0.104 -0.90147,0.9015 -1.52557,1.2828 2.53107,2.8431 -1.0055,1.2829 -7.38513,0 -2.77376,-0.9015 c -0.4623,-0.8552 -0.76279,-2.0572 -0.90147,-3.6059 l 0,-4.50733 0.90147,-2.66974 -0.90147,-5.40883 0.90147,-1.80294 0,-6.3103 -0.90147,-3.60588 0.90147,-5.40883 c 0.62409,-0.13864 1.23663,-0.73962 1.83762,-1.80294"
       id="path4099"
       style="font-size:40px;font-style:normal;font-variant:normal;font-weight:normal;font-stretch:normal;text-align:start;line-height:125%;letter-spacing:0px;word-spacing:0px;writing-mode:lr-tb;text-anchor:start;fill:#000000;fill-opacity:1;stroke:none;font-family:Alias;-inkscape-font-specification:Alias" />
    <path
       d="m 234.48213,1009.651 2.01099,0 4.02194,2.011 0,4.9927 -1.0055,1.0055 0,-1.0055 -1.00547,1.0055 1.00547,0 -1.00547,1.0055 -6.03293,0 -1.00549,-1.0055 -1.00548,-3.9872 1.00548,-2.011 3.01646,-2.011"
       id="path4101"
       style="font-size:40px;font-style:normal;font-variant:normal;font-weight:normal;font-stretch:normal;text-align:start;line-height:125%;letter-spacing:0px;word-spacing:0px;writing-mode:lr-tb;text-anchor:start;fill:#000000;fill-opacity:1;stroke:none;font-family:Alias;-inkscape-font-specification:Alias" />
    <path
       d="m 254.60353,993.02458 16.57649,-26.24602 c 0,0 15.19509,0 15.19509,0 0,0 -15.19509,26.24602 -15.19509,26.24602 0,0 15.19509,25.69372 15.19509,25.69372 l -16.57647,0 -15.19511,-25.69372 z m 19.33921,0 15.19514,-26.24602 c 0,0 16.57646,0 16.57646,0 0,0 -15.19509,26.24602 -15.19509,26.24602 l 15.19509,25.69372 -16.57646,0 -15.19514,-25.69372 z m 19.33924,0 15.19511,-26.24602 c 0,0 16.57647,0 16.57647,0 0,0 -14.9188,26.24602 -14.9188,26.24602 l 14.9188,25.69372 -16.57647,0 -15.19511,-25.69372 z m 53.87356,-26.24602 c 0,0 15.19513,0 15.19513,0 l -19.33924,51.93974 -15.1951,0 19.3392,-51.93974 z m 33.15296,26.24602 c 0,0 -15.1951,-26.24602 -15.1951,-26.24602 0,0 16.57647,0 16.57647,0 0,0 15.19514,26.24602 15.19514,26.24602 l -15.19514,25.69372 -16.57647,0 c 0,0 15.1951,-25.69372 15.1951,-25.69372 z m 4.14414,25.69372 c 0,0 15.1951,-25.69372 15.1951,-25.69372 0,0 -15.1951,-26.24602 -15.1951,-26.24602 l 16.57647,0 15.19511,26.24602 -15.19511,25.69372 c 0,0 -16.57647,0 -16.57647,0 z"
       id="path1103"
       style="fill:#ffffff;fill-opacity:1;stroke:none" />
    <g
       transform="translate(-4,6)"
       id="g4116">
      <path
         d="m 26.36635,1030.5903 c -5e-6,-0.8086 -0.132818,-1.4219 -0.398438,-1.8398 -0.261723,-0.4219 -0.644535,-0.6328 -1.148437,-0.6328 -0.527347,0 -0.92969,0.2109 -1.207032,0.6328 -0.277345,0.4179 -0.416017,1.0312 -0.416015,1.8398 -2e-6,0.8086 0.13867,1.4258 0.416015,1.8516 0.281248,0.4219 0.687498,0.6328 1.21875,0.6328 0.49609,0 0.874996,-0.2129 1.136719,-0.6387 0.26562,-0.4258 0.398433,-1.041 0.398438,-1.8457 m 1.078125,2.9121 c -6e-6,0.9844 -0.232428,1.7305 -0.697266,2.2383 -0.464849,0.5078 -1.148442,0.7617 -2.050781,0.7617 -0.296878,0 -0.607425,-0.027 -0.931641,-0.082 -0.324221,-0.055 -0.648439,-0.1348 -0.972656,-0.2402 l 0,-1.0664 c 0.382811,0.1796 0.730467,0.3125 1.042969,0.3984 0.312497,0.086 0.599606,0.1289 0.861328,0.1289 0.582027,0 1.005855,-0.1582 1.271484,-0.4746 0.26562,-0.3164 0.398433,-0.8184 0.398438,-1.5059 l 0,-0.047 0,-0.7325 c -0.17188,0.3672 -0.406255,0.6407 -0.703125,0.8204 -0.296879,0.1796 -0.658207,0.2695 -1.083985,0.2695 -0.765627,0 -1.376955,-0.3067 -1.833984,-0.9199 -0.457032,-0.6133 -0.685548,-1.4336 -0.685547,-2.461 -1e-6,-1.0312 0.228515,-1.8535 0.685547,-2.4668 0.457029,-0.6132 1.068357,-0.9199 1.833984,-0.9199 0.421872,0 0.779293,0.084 1.072266,0.252 0.292964,0.1679 0.531245,0.4277 0.714844,0.7793 l 0,-0.8497 1.078125,0 0,6.1172"
         id="path3995"
         style="font-size:12px;font-style:normal;font-variant:normal;font-weight:normal;font-stretch:normal;text-align:start;line-height:125%;letter-spacing:0px;word-spacing:0px;writing-mode:lr-tb;text-anchor:start;fill:#000000;fill-opacity:1;stroke:none;font-family:Monospace;-inkscape-font-specification:Monospace" />
      <path
         d="m 34.164577,1028.7153 c -0.230475,-0.1797 -0.46485,-0.3105 -0.703125,-0.3926 -0.238287,-0.082 -0.500005,-0.123 -0.785156,-0.123 -0.67188,0 -1.185551,0.2109 -1.541016,0.6328 -0.355472,0.4219 -0.533206,1.0313 -0.533203,1.8281 l 0,3.2637 -1.083984,0 0,-6.5625 1.083984,0 0,1.2832 c 0.179684,-0.4648 0.455075,-0.8203 0.826172,-1.0664 0.374996,-0.25 0.818355,-0.375 1.330078,-0.375 0.265619,0 0.513666,0.033 0.744141,0.1 0.230462,0.066 0.451165,0.1699 0.662109,0.3106 l 0,1.1015"
         id="path3997"
         style="font-size:12px;font-style:normal;font-variant:normal;font-weight:normal;font-stretch:normal;text-align:start;line-height:125%;letter-spacing:0px;word-spacing:0px;writing-mode:lr-tb;text-anchor:start;fill:#000000;fill-opacity:1;stroke:none;font-family:Monospace;-inkscape-font-specification:Monospace" />
      <path
         d="m 39.572178,1030.6255 -0.357422,0 c -0.628909,0 -1.103518,0.1113 -1.423828,0.334 -0.316408,0.2187 -0.474611,0.5468 -0.474609,0.9843 -2e-6,0.3946 0.119139,0.7012 0.357422,0.92 0.238279,0.2187 0.568356,0.3281 0.990234,0.3281 0.593746,0 1.060543,-0.2051 1.400391,-0.6153 0.339839,-0.414 0.511713,-0.9843 0.515625,-1.7109 l 0,-0.2402 -1.007813,0 m 2.091797,-0.4453 0,3.7441 -1.083984,0 0,-0.9727 c -0.230474,0.3907 -0.521489,0.6797 -0.873047,0.8672 -0.34766,0.1836 -0.771488,0.2754 -1.271485,0.2754 -0.667971,0 -1.201173,-0.1875 -1.599609,-0.5625 -0.398438,-0.3789 -0.597657,-0.8847 -0.597656,-1.5176 -10e-7,-0.7304 0.244139,-1.2851 0.732422,-1.664 0.492185,-0.3789 1.212888,-0.5684 2.162109,-0.5684 l 1.447266,0 0,-0.1699 c -0.0039,-0.5234 -0.136724,-0.9023 -0.398438,-1.1367 -0.261723,-0.2383 -0.679691,-0.3574 -1.253906,-0.3574 -0.367191,0 -0.738284,0.053 -1.113281,0.1582 -0.375002,0.1054 -0.740236,0.2597 -1.095703,0.4629 l 0,-1.0782 c 0.398435,-0.1523 0.779294,-0.2656 1.142578,-0.3398 0.367184,-0.078 0.722653,-0.1172 1.066406,-0.1172 0.542965,0 1.005855,0.08 1.388672,0.2402 0.386713,0.1602 0.699213,0.4004 0.9375,0.7207 0.148431,0.1954 0.2539,0.4375 0.316406,0.7266 0.06249,0.2852 0.09374,0.7148 0.09375,1.2891"
         id="path3999"
         style="font-size:12px;font-style:normal;font-variant:normal;font-weight:normal;font-stretch:normal;text-align:start;line-height:125%;letter-spacing:0px;word-spacing:0px;writing-mode:lr-tb;text-anchor:start;fill:#000000;fill-opacity:1;stroke:none;font-family:Monospace;-inkscape-font-specification:Monospace" />
      <path
         d="m 48.753216,1029.8579 0,4.0664 -1.083984,0 0,-4.0664 c -5e-6,-0.5898 -0.103521,-1.0234 -0.310547,-1.3008 -0.207036,-0.2773 -0.531254,-0.416 -0.972656,-0.416 -0.50391,0 -0.892581,0.1797 -1.166016,0.5391 -0.269534,0.3554 -0.404299,0.8672 -0.404297,1.5351 l 0,3.709 -1.078125,0 0,-6.5625 1.078125,0 0,0.9844 c 0.191404,-0.375 0.451169,-0.6582 0.779297,-0.8496 0.328122,-0.1953 0.716793,-0.293 1.166016,-0.293 0.667964,0 1.16601,0.2207 1.49414,0.6621 0.332026,0.4375 0.498041,1.1016 0.498047,1.9922"
         id="path4001"
         style="font-size:12px;font-style:normal;font-variant:normal;font-weight:normal;font-stretch:normal;text-align:start;line-height:125%;letter-spacing:0px;word-spacing:0px;writing-mode:lr-tb;text-anchor:start;fill:#000000;fill-opacity:1;stroke:none;font-family:Monospace;-inkscape-font-specification:Monospace" />
      <path
         d="m 55.133472,1028.1997 0,-3.3926 1.078125,0 0,9.1172 -1.078125,0 0,-0.8262 c -0.179693,0.3242 -0.419927,0.5723 -0.720703,0.7442 -0.296879,0.1679 -0.640629,0.2519 -1.03125,0.2519 -0.792972,0 -1.417971,-0.3066 -1.875,-0.9199 -0.453126,-0.6172 -0.679689,-1.4668 -0.679688,-2.5488 -10e-7,-1.0664 0.228515,-1.9024 0.685547,-2.5078 0.457029,-0.6094 1.080076,-0.9141 1.869141,-0.9141 0.394527,0 0.742183,0.086 1.042968,0.2578 0.300777,0.168 0.537105,0.4141 0.708985,0.7383 m -3.169922,2.4492 c -2e-6,0.8359 0.13281,1.4668 0.398437,1.8926 0.265623,0.4258 0.658201,0.6387 1.177735,0.6387 0.519527,0 0.914058,-0.2149 1.183593,-0.6446 0.273433,-0.4297 0.410152,-1.0586 0.410157,-1.8867 -5e-6,-0.832 -0.136724,-1.4609 -0.410157,-1.8867 -0.269535,-0.4297 -0.664066,-0.6445 -1.183593,-0.6445 -0.519534,0 -0.912112,0.2129 -1.177735,0.6386 -0.265627,0.4258 -0.398439,1.0567 -0.398437,1.8926"
         id="path4003"
         style="font-size:12px;font-style:normal;font-variant:normal;font-weight:normal;font-stretch:normal;text-align:start;line-height:125%;letter-spacing:0px;word-spacing:0px;writing-mode:lr-tb;text-anchor:start;fill:#000000;fill-opacity:1;stroke:none;font-family:Monospace;-inkscape-font-specification:Monospace" />
    </g>
    <path
       d="m 80.030625,1039.5903 c -0.289069,0.168 -0.587896,0.293 -0.896485,0.375 -0.304692,0.086 -0.617192,0.1289 -0.9375,0.1289 -1.015628,0 -1.810549,-0.3047 -2.384765,-0.914 -0.570314,-0.6094 -0.85547,-1.4532 -0.855469,-2.5313 -10e-7,-1.0781 0.285155,-1.9219 0.855469,-2.5312 0.574216,-0.6094 1.369137,-0.9141 2.384765,-0.9141 0.316402,0 0.624995,0.041 0.925782,0.123 0.300775,0.082 0.603509,0.209 0.908203,0.3809 l 0,1.1309 c -0.285162,-0.2539 -0.572271,-0.4375 -0.861328,-0.5508 -0.285162,-0.1133 -0.60938,-0.1699 -0.972657,-0.1699 -0.675784,0 -1.195315,0.2187 -1.558593,0.6562 -0.363284,0.4375 -0.544924,1.0625 -0.544922,1.875 -2e-6,0.8086 0.181638,1.4336 0.544922,1.875 0.367184,0.4375 0.886715,0.6563 1.558593,0.6563 0.374996,0 0.710933,-0.057 1.007813,-0.17 0.296869,-0.1171 0.57226,-0.2968 0.826172,-0.539 l 0,1.1191"
       id="path4005"
       style="font-size:12px;font-style:normal;font-variant:normal;font-weight:normal;font-stretch:normal;text-align:start;line-height:125%;letter-spacing:0px;word-spacing:0px;writing-mode:lr-tb;text-anchor:start;fill:#000000;fill-opacity:1;stroke:none;font-family:Monospace;-inkscape-font-specification:Monospace" />
    <path
       d="m 86.47966,1035.8579 0,4.0664 -1.083984,0 0,-4.0664 c -5e-6,-0.5898 -0.103521,-1.0234 -0.310547,-1.3008 -0.207036,-0.2773 -0.531254,-0.416 -0.972656,-0.416 -0.50391,0 -0.892581,0.1797 -1.166016,0.5391 -0.269534,0.3554 -0.404299,0.8672 -0.404297,1.5351 l 0,3.709 -1.078125,0 0,-9.1172 1.078125,0 0,3.5391 c 0.191404,-0.375 0.451169,-0.6582 0.779297,-0.8496 0.328122,-0.1953 0.716793,-0.293 1.166016,-0.293 0.667964,0 1.16601,0.2207 1.49414,0.6621 0.332026,0.4375 0.498041,1.1016 0.498047,1.9922"
       id="path4007"
       style="font-size:12px;font-style:normal;font-variant:normal;font-weight:normal;font-stretch:normal;text-align:start;line-height:125%;letter-spacing:0px;word-spacing:0px;writing-mode:lr-tb;text-anchor:start;fill:#000000;fill-opacity:1;stroke:none;font-family:Monospace;-inkscape-font-specification:Monospace" />
    <path
       d="m 91.247055,1036.6255 -0.357422,0 c -0.628909,0 -1.103518,0.1113 -1.423828,0.334 -0.316408,0.2187 -0.474611,0.5468 -0.474609,0.9843 -2e-6,0.3946 0.119139,0.7012 0.357422,0.92 0.238279,0.2187 0.568356,0.3281 0.990234,0.3281 0.593746,0 1.060543,-0.2051 1.400391,-0.6153 0.339839,-0.414 0.511713,-0.9843 0.515625,-1.7109 l 0,-0.2402 -1.007813,0 m 2.091797,-0.4453 0,3.7441 -1.083984,0 0,-0.9727 c -0.230474,0.3907 -0.521489,0.6797 -0.873047,0.8672 -0.34766,0.1836 -0.771488,0.2754 -1.271485,0.2754 -0.667971,0 -1.201173,-0.1875 -1.599609,-0.5625 -0.398438,-0.3789 -0.597657,-0.8847 -0.597656,-1.5176 -10e-7,-0.7304 0.244139,-1.2851 0.732422,-1.664 0.492185,-0.3789 1.212888,-0.5684 2.162109,-0.5684 l 1.447266,0 0,-0.1699 c -0.0039,-0.5234 -0.136724,-0.9023 -0.398438,-1.1367 -0.261723,-0.2383 -0.679691,-0.3574 -1.253906,-0.3574 -0.367191,0 -0.738284,0.053 -1.113281,0.1582 -0.375002,0.1054 -0.740236,0.2597 -1.095703,0.4629 l 0,-1.0782 c 0.398435,-0.1523 0.779294,-0.2656 1.142578,-0.3398 0.367184,-0.078 0.722653,-0.1172 1.066406,-0.1172 0.542965,0 1.005855,0.08 1.388672,0.2402 0.386713,0.1602 0.699213,0.4004 0.9375,0.7207 0.148431,0.1954 0.2539,0.4375 0.316406,0.7266 0.06249,0.2852 0.09374,0.7148 0.09375,1.2891"
       id="path4009"
       style="font-size:12px;font-style:normal;font-variant:normal;font-weight:normal;font-stretch:normal;text-align:start;line-height:125%;letter-spacing:0px;word-spacing:0px;writing-mode:lr-tb;text-anchor:start;fill:#000000;fill-opacity:1;stroke:none;font-family:Monospace;-inkscape-font-specification:Monospace" />
    <path
       d="m 97.5789,1034.1177 c -0.54687,0 -0.96093,0.2129 -1.24218,0.6386 -0.28125,0.4258 -0.421877,1.0567 -0.421877,1.8926 0,0.832 0.140627,1.4629 0.421877,1.8926 0.28125,0.4258 0.69531,0.6387 1.24218,0.6387 0.55078,0 0.9668,-0.2129 1.24805,-0.6387 0.28125,-0.4297 0.42187,-1.0606 0.42188,-1.8926 -1e-5,-0.8359 -0.14063,-1.4668 -0.42188,-1.8926 -0.28125,-0.4257 -0.69727,-0.6386 -1.24805,-0.6386 m 0,-0.9141 c 0.91016,0 1.60547,0.2949 2.08594,0.8848 0.48437,0.5898 0.72656,1.4433 0.72656,2.5605 0,1.1211 -0.24024,1.9766 -0.7207,2.5664 -0.48047,0.586 -1.17774,0.8789 -2.0918,0.8789 -0.91015,0 -1.605467,-0.2929 -2.085927,-0.8789 -0.48047,-0.5898 -0.72071,-1.4453 -0.72071,-2.5664 0,-1.1172 0.24024,-1.9707 0.72071,-2.5605 0.48046,-0.5899 1.175777,-0.8848 2.085927,-0.8848"
       id="path4011"
       style="font-size:12px;font-style:normal;font-variant:normal;font-weight:normal;font-stretch:normal;text-align:start;line-height:125%;letter-spacing:0px;word-spacing:0px;writing-mode:lr-tb;text-anchor:start;fill:#000000;fill-opacity:1;stroke:none;font-family:Monospace;-inkscape-font-specification:Monospace" />
    <path
       d="m 106.27793,1033.5903 0,1.0547 c -0.3086,-0.1797 -0.61914,-0.3144 -0.93164,-0.4043 -0.3125,-0.09 -0.63086,-0.1348 -0.95508,-0.1348 -0.48828,0 -0.85351,0.08 -1.0957,0.2403 -0.23828,0.1562 -0.35742,0.3965 -0.35742,0.7207 0,0.293 0.0898,0.5117 0.26953,0.6562 0.17968,0.1446 0.62695,0.2852 1.3418,0.4219 l 0.43359,0.082 c 0.53515,0.1016 0.93945,0.3047 1.21289,0.6094 0.27734,0.3047 0.41601,0.7012 0.41602,1.1895 -1e-5,0.6484 -0.23048,1.1562 -0.69141,1.5234 -0.46094,0.3633 -1.10157,0.5449 -1.92188,0.5449 -0.32422,0 -0.66406,-0.035 -1.01953,-0.1054 -0.35547,-0.067 -0.74023,-0.168 -1.15429,-0.3047 l 0,-1.1133 c 0.40234,0.207 0.7871,0.3633 1.15429,0.4687 0.36719,0.1016 0.71484,0.1524 1.04297,0.1524 0.47656,0 0.8457,-0.096 1.10742,-0.2871 0.26172,-0.1953 0.39258,-0.4668 0.39258,-0.8145 0,-0.5 -0.47852,-0.8457 -1.43554,-1.0371 l -0.0469,-0.012 -0.4043,-0.082 c -0.6211,-0.1211 -1.07422,-0.3243 -1.35938,-0.6094 -0.28515,-0.2891 -0.42773,-0.6817 -0.42773,-1.1778 0,-0.6289 0.21289,-1.1132 0.63867,-1.4531 0.42578,-0.3437 1.0332,-0.5156 1.82227,-0.5156 0.35155,0 0.68945,0.033 1.01367,0.1 0.32421,0.062 0.64257,0.1582 0.95508,0.2871"
       id="path4013"
       style="font-size:12px;font-style:normal;font-variant:normal;font-weight:normal;font-stretch:normal;text-align:start;line-height:125%;letter-spacing:0px;word-spacing:0px;writing-mode:lr-tb;text-anchor:start;fill:#000000;fill-opacity:1;stroke:none;font-family:Monospace;-inkscape-font-specification:Monospace" />
    <g
       transform="translate(-4,6)"
       id="g4233">
      <path
         d="m 139.13513,1029.8579 0,4.0664 -1.08398,0 0,-4.0664 c -1e-5,-0.5898 -0.10352,-1.0234 -0.31055,-1.3008 -0.20703,-0.2773 -0.53125,-0.416 -0.97265,-0.416 -0.50391,0 -0.89259,0.1797 -1.16602,0.5391 -0.26953,0.3554 -0.4043,0.8672 -0.4043,1.5351 l 0,3.709 -1.07812,0 0,-9.1172 1.07812,0 0,3.5391 c 0.19141,-0.375 0.45117,-0.6582 0.7793,-0.8496 0.32812,-0.1953 0.71679,-0.293 1.16602,-0.293 0.66796,0 1.16601,0.2207 1.49414,0.6621 0.33202,0.4375 0.49804,1.1016 0.49804,1.9922"
         id="path4015"
         style="font-size:12px;font-style:normal;font-variant:normal;font-weight:normal;font-stretch:normal;text-align:start;line-height:125%;letter-spacing:0px;word-spacing:0px;writing-mode:lr-tb;text-anchor:start;fill:#000000;fill-opacity:1;stroke:none;font-family:Monospace;-inkscape-font-specification:Monospace" />
      <path
         d="m 147.97057,1030.3735 0,0.5274 -4.66993,0 0,0.035 c 0,0.7149 0.18555,1.2676 0.55664,1.6582 0.375,0.3907 0.90234,0.586 1.58204,0.586 0.34374,0 0.70312,-0.055 1.07812,-0.1641 0.37499,-0.1094 0.77538,-0.2754 1.20117,-0.498 l 0,1.0722 c -0.41016,0.168 -0.80664,0.293 -1.18945,0.375 -0.37891,0.086 -0.7461,0.1289 -1.10156,0.1289 -1.01954,0 -1.81641,-0.3047 -2.39063,-0.914 -0.57422,-0.6133 -0.86133,-1.4571 -0.86133,-2.5313 0,-1.0469 0.28125,-1.8828 0.84375,-2.5078 0.5625,-0.625 1.3125,-0.9375 2.25,-0.9375 0.83594,0 1.49414,0.2832 1.97461,0.8496 0.48437,0.5664 0.72656,1.3399 0.72657,2.3203 m -1.07813,-0.3164 c -0.0156,-0.6328 -0.16602,-1.1133 -0.45117,-1.4414 -0.28126,-0.332 -0.68751,-0.498 -1.21875,-0.498 -0.51954,0 -0.94727,0.1718 -1.2832,0.5156 -0.33594,0.3437 -0.53516,0.8203 -0.59766,1.4297 l 3.55078,-0.01"
         id="path4017"
         style="font-size:12px;font-style:normal;font-variant:normal;font-weight:normal;font-stretch:normal;text-align:start;line-height:125%;letter-spacing:0px;word-spacing:0px;writing-mode:lr-tb;text-anchor:start;fill:#000000;fill-opacity:1;stroke:none;font-family:Monospace;-inkscape-font-specification:Monospace" />
      <path
         d="m 154.34507,1030.6255 -0.35742,0 c -0.62891,0 -1.10352,0.1113 -1.42383,0.334 -0.31641,0.2187 -0.47461,0.5468 -0.47461,0.9843 0,0.3946 0.11914,0.7012 0.35742,0.92 0.23828,0.2187 0.56836,0.3281 0.99024,0.3281 0.59374,0 1.06054,-0.2051 1.40039,-0.6153 0.33984,-0.414 0.51171,-0.9843 0.51562,-1.7109 l 0,-0.2402 -1.00781,0 m 2.0918,-0.4453 0,3.7441 -1.08399,0 0,-0.9727 c -0.23047,0.3907 -0.52149,0.6797 -0.87304,0.8672 -0.34766,0.1836 -0.77149,0.2754 -1.27149,0.2754 -0.66797,0 -1.20117,-0.1875 -1.59961,-0.5625 -0.39844,-0.3789 -0.59765,-0.8847 -0.59765,-1.5176 0,-0.7304 0.24414,-1.2851 0.73242,-1.664 0.49218,-0.3789 1.21289,-0.5684 2.16211,-0.5684 l 1.44726,0 0,-0.1699 c -0.004,-0.5234 -0.13672,-0.9023 -0.39843,-1.1367 -0.26173,-0.2383 -0.6797,-0.3574 -1.25391,-0.3574 -0.36719,0 -0.73828,0.053 -1.11328,0.1582 -0.375,0.1054 -0.74024,0.2597 -1.0957,0.4629 l 0,-1.0782 c 0.39843,-0.1523 0.77929,-0.2656 1.14257,-0.3398 0.36719,-0.078 0.72266,-0.1172 1.06641,-0.1172 0.54296,0 1.00585,0.08 1.38867,0.2402 0.38672,0.1602 0.69922,0.4004 0.9375,0.7207 0.14843,0.1954 0.2539,0.4375 0.31641,0.7266 0.0625,0.2852 0.0937,0.7148 0.0937,1.2891"
         id="path4019"
         style="font-size:12px;font-style:normal;font-variant:normal;font-weight:normal;font-stretch:normal;text-align:start;line-height:125%;letter-spacing:0px;word-spacing:0px;writing-mode:lr-tb;text-anchor:start;fill:#000000;fill-opacity:1;stroke:none;font-family:Monospace;-inkscape-font-specification:Monospace" />
      <path
         d="m 163.78403,1028.1997 0,-3.3926 1.07813,0 0,9.1172 -1.07813,0 0,-0.8262 c -0.17969,0.3242 -0.41992,0.5723 -0.7207,0.7442 -0.29688,0.1679 -0.64063,0.2519 -1.03125,0.2519 -0.79297,0 -1.41797,-0.3066 -1.875,-0.9199 -0.45313,-0.6172 -0.67969,-1.4668 -0.67969,-2.5488 0,-1.0664 0.22852,-1.9024 0.68555,-2.5078 0.45703,-0.6094 1.08008,-0.9141 1.86914,-0.9141 0.39453,0 0.74218,0.086 1.04297,0.2578 0.30078,0.168 0.5371,0.4141 0.70898,0.7383 m -3.16992,2.4492 c 0,0.8359 0.13281,1.4668 0.39844,1.8926 0.26562,0.4258 0.6582,0.6387 1.17773,0.6387 0.51953,0 0.91406,-0.2149 1.1836,-0.6446 0.27343,-0.4297 0.41015,-1.0586 0.41015,-1.8867 0,-0.832 -0.13672,-1.4609 -0.41015,-1.8867 -0.26954,-0.4297 -0.66407,-0.6445 -1.1836,-0.6445 -0.51953,0 -0.91211,0.2129 -1.17773,0.6386 -0.26563,0.4258 -0.39844,1.0567 -0.39844,1.8926"
         id="path4021"
         style="font-size:12px;font-style:normal;font-variant:normal;font-weight:normal;font-stretch:normal;text-align:start;line-height:125%;letter-spacing:0px;word-spacing:0px;writing-mode:lr-tb;text-anchor:start;fill:#000000;fill-opacity:1;stroke:none;font-family:Monospace;-inkscape-font-specification:Monospace" />
      <path
         d="m 169.04524,1030.6723 c 0,0.836 0.13086,1.4668 0.39258,1.8926 0.26562,0.4258 0.6582,0.6387 1.17773,0.6387 0.51953,0 0.91211,-0.2129 1.17774,-0.6387 0.26953,-0.4297 0.40429,-1.0605 0.4043,-1.8926 -1e-5,-0.832 -0.13477,-1.4609 -0.4043,-1.8867 -0.26563,-0.4297 -0.65821,-0.6445 -1.17774,-0.6445 -0.51953,0 -0.91211,0.2129 -1.17773,0.6387 -0.26172,0.4258 -0.39258,1.0566 -0.39258,1.8925 m 3.15235,2.4375 c -0.17579,0.3243 -0.41407,0.5743 -0.71485,0.75 -0.29688,0.1719 -0.64258,0.2579 -1.03711,0.2579 -0.78516,0 -1.40625,-0.3028 -1.86328,-0.9082 -0.45312,-0.6094 -0.67969,-1.4473 -0.67969,-2.5137 0,-1.0859 0.22657,-1.9356 0.67969,-2.5488 0.45312,-0.6133 1.07422,-0.92 1.86328,-0.92 0.39062,0 0.73437,0.086 1.03125,0.2578 0.30078,0.168 0.54101,0.4141 0.72071,0.7383 l 0,-0.8379 1.08398,0 0,9.0586 -1.08398,0 0,-3.334"
         id="path4023"
         style="font-size:12px;font-style:normal;font-variant:normal;font-weight:normal;font-stretch:normal;text-align:start;line-height:125%;letter-spacing:0px;word-spacing:0px;writing-mode:lr-tb;text-anchor:start;fill:#000000;fill-opacity:1;stroke:none;font-family:Monospace;-inkscape-font-specification:Monospace" />
      <path
         d="m 176.32208,1031.4399 0,-4.0664 1.07812,0 0,4.0664 c 0,0.5899 0.10352,1.0235 0.31055,1.3008 0.21093,0.2774 0.53515,0.416 0.97266,0.416 0.5078,0 0.89648,-0.1777 1.16601,-0.5332 0.26953,-0.3594 0.40429,-0.873 0.4043,-1.541 l 0,-3.709 1.08398,0 0,6.5508 -1.08398,0 0,-0.9844 c -0.19141,0.3789 -0.45313,0.666 -0.78516,0.8614 -0.32813,0.1953 -0.71289,0.2929 -1.15429,0.2929 -0.67188,0 -1.17188,-0.2187 -1.5,-0.6562 -0.32813,-0.4414 -0.49219,-1.1074 -0.49219,-1.9981"
         id="path4025"
         style="font-size:12px;font-style:normal;font-variant:normal;font-weight:normal;font-stretch:normal;text-align:start;line-height:125%;letter-spacing:0px;word-spacing:0px;writing-mode:lr-tb;text-anchor:start;fill:#000000;fill-opacity:1;stroke:none;font-family:Monospace;-inkscape-font-specification:Monospace" />
      <path
         d="m 187.7122,1030.6255 -0.35742,0 c -0.62891,0 -1.10352,0.1113 -1.42383,0.334 -0.31641,0.2187 -0.47461,0.5468 -0.47461,0.9843 0,0.3946 0.11914,0.7012 0.35742,0.92 0.23828,0.2187 0.56836,0.3281 0.99024,0.3281 0.59374,0 1.06054,-0.2051 1.40039,-0.6153 0.33984,-0.414 0.51171,-0.9843 0.51562,-1.7109 l 0,-0.2402 -1.00781,0 m 2.0918,-0.4453 0,3.7441 -1.08399,0 0,-0.9727 c -0.23047,0.3907 -0.52149,0.6797 -0.87304,0.8672 -0.34766,0.1836 -0.77149,0.2754 -1.27149,0.2754 -0.66797,0 -1.20117,-0.1875 -1.59961,-0.5625 -0.39844,-0.3789 -0.59765,-0.8847 -0.59765,-1.5176 0,-0.7304 0.24414,-1.2851 0.73242,-1.664 0.49218,-0.3789 1.21289,-0.5684 2.16211,-0.5684 l 1.44726,0 0,-0.1699 c -0.004,-0.5234 -0.13672,-0.9023 -0.39843,-1.1367 -0.26173,-0.2383 -0.6797,-0.3574 -1.25391,-0.3574 -0.36719,0 -0.73828,0.053 -1.11328,0.1582 -0.375,0.1054 -0.74024,0.2597 -1.0957,0.4629 l 0,-1.0782 c 0.39843,-0.1523 0.77929,-0.2656 1.14257,-0.3398 0.36719,-0.078 0.72266,-0.1172 1.06641,-0.1172 0.54296,0 1.00585,0.08 1.38867,0.2402 0.38672,0.1602 0.69922,0.4004 0.9375,0.7207 0.14843,0.1954 0.2539,0.4375 0.31641,0.7266 0.0625,0.2852 0.0937,0.7148 0.0937,1.2891"
         id="path4027"
         style="font-size:12px;font-style:normal;font-variant:normal;font-weight:normal;font-stretch:normal;text-align:start;line-height:125%;letter-spacing:0px;word-spacing:0px;writing-mode:lr-tb;text-anchor:start;fill:#000000;fill-opacity:1;stroke:none;font-family:Monospace;-inkscape-font-specification:Monospace" />
      <path
         d="m 197.491,1028.7153 c -0.23048,-0.1797 -0.46485,-0.3105 -0.70313,-0.3926 -0.23828,-0.082 -0.5,-0.123 -0.78515,-0.123 -0.67188,0 -1.18555,0.2109 -1.54102,0.6328 -0.35547,0.4219 -0.53321,1.0313 -0.5332,1.8281 l 0,3.2637 -1.08399,0 0,-6.5625 1.08399,0 0,1.2832 c 0.17968,-0.4648 0.45507,-0.8203 0.82617,-1.0664 0.375,-0.25 0.81835,-0.375 1.33008,-0.375 0.26562,0 0.51366,0.033 0.74414,0.1 0.23046,0.066 0.45116,0.1699 0.66211,0.3106 l 0,1.1015"
         id="path4029"
         style="font-size:12px;font-style:normal;font-variant:normal;font-weight:normal;font-stretch:normal;text-align:start;line-height:125%;letter-spacing:0px;word-spacing:0px;writing-mode:lr-tb;text-anchor:start;fill:#000000;fill-opacity:1;stroke:none;font-family:Monospace;-inkscape-font-specification:Monospace" />
      <path
         d="m 203.36159,1025.4985 0,1.8633 2.44921,0 0,0.8379 -2.44921,0 0,3.5625 c -1e-5,0.4844 0.0918,0.8223 0.27539,1.0137 0.18359,0.1914 0.5039,0.2871 0.96093,0.2871 l 1.21289,0 0,0.8613 -1.31835,0 c -0.8086,0 -1.37891,-0.1621 -1.71094,-0.4863 -0.33204,-0.3242 -0.49805,-0.8828 -0.49805,-1.6758 l 0,-3.5625 -1.75195,0 0,-0.8379 1.75195,0 0,-1.8633 1.07813,0"
         id="path4031"
         style="font-size:12px;font-style:normal;font-variant:normal;font-weight:normal;font-stretch:normal;text-align:start;line-height:125%;letter-spacing:0px;word-spacing:0px;writing-mode:lr-tb;text-anchor:start;fill:#000000;fill-opacity:1;stroke:none;font-family:Monospace;-inkscape-font-specification:Monospace" />
      <path
         d="m 214.64624,1030.3735 0,0.5274 -4.66992,0 0,0.035 c 0,0.7149 0.18555,1.2676 0.55664,1.6582 0.375,0.3907 0.90234,0.586 1.58203,0.586 0.34375,0 0.70313,-0.055 1.07813,-0.1641 0.37499,-0.1094 0.77538,-0.2754 1.20117,-0.498 l 0,1.0722 c -0.41016,0.168 -0.80664,0.293 -1.18945,0.375 -0.37891,0.086 -0.7461,0.1289 -1.10156,0.1289 -1.01954,0 -1.81641,-0.3047 -2.39063,-0.914 -0.57422,-0.6133 -0.86133,-1.4571 -0.86133,-2.5313 0,-1.0469 0.28125,-1.8828 0.84375,-2.5078 0.5625,-0.625 1.3125,-0.9375 2.25,-0.9375 0.83594,0 1.49414,0.2832 1.97461,0.8496 0.48437,0.5664 0.72656,1.3399 0.72656,2.3203 m -1.07812,-0.3164 c -0.0156,-0.6328 -0.16602,-1.1133 -0.45117,-1.4414 -0.28126,-0.332 -0.68751,-0.498 -1.21875,-0.498 -0.51954,0 -0.94727,0.1718 -1.28321,0.5156 -0.33593,0.3437 -0.53515,0.8203 -0.59765,1.4297 l 3.55078,-0.01"
         id="path4033"
         style="font-size:12px;font-style:normal;font-variant:normal;font-weight:normal;font-stretch:normal;text-align:start;line-height:125%;letter-spacing:0px;word-spacing:0px;writing-mode:lr-tb;text-anchor:start;fill:#000000;fill-opacity:1;stroke:none;font-family:Monospace;-inkscape-font-specification:Monospace" />
      <path
         d="m 222.33324,1028.7153 c -0.23048,-0.1797 -0.46485,-0.3105 -0.70313,-0.3926 -0.23828,-0.082 -0.5,-0.123 -0.78515,-0.123 -0.67188,0 -1.18555,0.2109 -1.54102,0.6328 -0.35547,0.4219 -0.53321,1.0313 -0.5332,1.8281 l 0,3.2637 -1.08399,0 0,-6.5625 1.08399,0 0,1.2832 c 0.17968,-0.4648 0.45507,-0.8203 0.82617,-1.0664 0.375,-0.25 0.81835,-0.375 1.33008,-0.375 0.26562,0 0.51366,0.033 0.74414,0.1 0.23046,0.066 0.45116,0.1699 0.66211,0.3106 l 0,1.1015"
         id="path4035"
         style="font-size:12px;font-style:normal;font-variant:normal;font-weight:normal;font-stretch:normal;text-align:start;line-height:125%;letter-spacing:0px;word-spacing:0px;writing-mode:lr-tb;text-anchor:start;fill:#000000;fill-opacity:1;stroke:none;font-family:Monospace;-inkscape-font-specification:Monospace" />
      <path
         d="m 229.82687,1027.5903 0,1.0547 c -0.3086,-0.1797 -0.61914,-0.3144 -0.93164,-0.4043 -0.3125,-0.09 -0.63086,-0.1348 -0.95508,-0.1348 -0.48828,0 -0.85352,0.08 -1.0957,0.2403 -0.23828,0.1562 -0.35742,0.3965 -0.35742,0.7207 0,0.293 0.0898,0.5117 0.26953,0.6562 0.17968,0.1446 0.62695,0.2852 1.3418,0.4219 l 0.43359,0.082 c 0.53515,0.1016 0.93945,0.3047 1.21289,0.6094 0.27734,0.3047 0.41601,0.7012 0.41602,1.1895 -1e-5,0.6484 -0.23048,1.1562 -0.69141,1.5234 -0.46094,0.3633 -1.10157,0.5449 -1.92188,0.5449 -0.32422,0 -0.66406,-0.035 -1.01953,-0.1054 -0.35547,-0.067 -0.74023,-0.168 -1.15429,-0.3047 l 0,-1.1133 c 0.40234,0.207 0.7871,0.3633 1.15429,0.4687 0.36719,0.1016 0.71484,0.1524 1.04297,0.1524 0.47656,0 0.8457,-0.096 1.10742,-0.2871 0.26172,-0.1953 0.39258,-0.4668 0.39258,-0.8145 0,-0.5 -0.47852,-0.8457 -1.43554,-1.0371 l -0.0469,-0.012 -0.4043,-0.082 c -0.62109,-0.1211 -1.07422,-0.3243 -1.35937,-0.6094 -0.28516,-0.2891 -0.42774,-0.6817 -0.42774,-1.1778 0,-0.6289 0.21289,-1.1132 0.63868,-1.4531 0.42578,-0.3437 1.0332,-0.5156 1.82226,-0.5156 0.35156,0 0.68945,0.033 1.01367,0.1 0.32422,0.062 0.64258,0.1582 0.95508,0.2871"
         id="path4037"
         style="font-size:12px;font-style:normal;font-variant:normal;font-weight:normal;font-stretch:normal;text-align:start;line-height:125%;letter-spacing:0px;word-spacing:0px;writing-mode:lr-tb;text-anchor:start;fill:#000000;fill-opacity:1;stroke:none;font-family:Monospace;-inkscape-font-specification:Monospace" />
    </g>
    <g
       transform="translate(-4.2990406,6)"
       id="g4339"
       style="filter:url(#filter4895)">
      <g
         transform="translate(16,0)"
         id="g4320">
        <path
           d="m 246.43555,1033.6342 c -0.28907,0.168 -0.5879,0.293 -0.89649,0.375 -0.30469,0.086 -0.61719,0.1289 -0.9375,0.1289 -1.01563,0 -1.81055,-0.3046 -2.38476,-0.914 -0.57032,-0.6094 -0.85547,-1.4531 -0.85547,-2.5313 0,-1.0781 0.28515,-1.9218 0.85547,-2.5312 0.57421,-0.6094 1.36913,-0.9141 2.38476,-0.9141 0.3164,0 0.625,0.041 0.92578,0.1231 0.30078,0.082 0.60351,0.209 0.90821,0.3808 l 0,1.1309 c -0.28517,-0.2539 -0.57227,-0.4375 -0.86133,-0.5508 -0.28516,-0.1133 -0.60938,-0.1699 -0.97266,-0.1699 -0.67578,0 -1.19531,0.2187 -1.55859,0.6562 -0.36328,0.4375 -0.54493,1.0625 -0.54492,1.875 -1e-5,0.8086 0.18164,1.4336 0.54492,1.875 0.36718,0.4375 0.88671,0.6563 1.55859,0.6563 0.375,0 0.71093,-0.057 1.00781,-0.1699 0.29687,-0.1172 0.57226,-0.2969 0.82618,-0.5391 l 0,1.1191"
           id="path4248"
           style="font-size:12px;font-style:normal;font-variant:normal;font-weight:normal;font-stretch:normal;text-align:start;line-height:125%;letter-spacing:0px;word-spacing:0px;writing-mode:lr-tb;text-anchor:start;fill:#000000;fill-opacity:1;stroke:none;font-family:Monospace;-inkscape-font-specification:Monospace" />
        <path
           d="m 252.91259,1029.9018 0,4.0664 -1.08398,0 0,-4.0664 c -1e-5,-0.5898 -0.10352,-1.0234 -0.31055,-1.3008 -0.20703,-0.2773 -0.53125,-0.416 -0.97265,-0.416 -0.50391,0 -0.89259,0.1797 -1.16602,0.5391 -0.26953,0.3555 -0.4043,0.8672 -0.4043,1.5351 l 0,3.709 -1.07812,0 0,-9.1172 1.07812,0 0,3.5391 c 0.19141,-0.375 0.45117,-0.6582 0.7793,-0.8496 0.32812,-0.1953 0.71679,-0.293 1.16602,-0.293 0.66796,0 1.16601,0.2207 1.49414,0.6621 0.33202,0.4375 0.49804,1.1016 0.49804,1.9922"
           id="path4250"
           style="font-size:12px;font-style:normal;font-variant:normal;font-weight:normal;font-stretch:normal;text-align:start;line-height:125%;letter-spacing:0px;word-spacing:0px;writing-mode:lr-tb;text-anchor:start;fill:#000000;fill-opacity:1;stroke:none;font-family:Monospace;-inkscape-font-specification:Monospace" />
        <path
           d="m 257.708,1030.6694 -0.35742,0 c -0.62891,0 -1.10352,0.1113 -1.42383,0.334 -0.31641,0.2187 -0.47461,0.5469 -0.47461,0.9844 0,0.3945 0.11914,0.7011 0.35742,0.9199 0.23828,0.2187 0.56836,0.3281 0.99024,0.3281 0.59374,0 1.06054,-0.2051 1.40039,-0.6152 0.33984,-0.4141 0.51171,-0.9844 0.51562,-1.711 l 0,-0.2402 -1.00781,0 m 2.0918,-0.4453 0,3.7441 -1.08399,0 0,-0.9726 c -0.23047,0.3906 -0.52149,0.6797 -0.87304,0.8672 -0.34766,0.1835 -0.77149,0.2753 -1.27149,0.2753 -0.66797,0 -1.20117,-0.1875 -1.59961,-0.5625 -0.39844,-0.3789 -0.59765,-0.8847 -0.59765,-1.5175 0,-0.7305 0.24414,-1.2852 0.73242,-1.6641 0.49218,-0.3789 1.21289,-0.5684 2.16211,-0.5684 l 1.44726,0 0,-0.1699 c -0.004,-0.5234 -0.13672,-0.9023 -0.39843,-1.1367 -0.26173,-0.2383 -0.6797,-0.3574 -1.25391,-0.3574 -0.36719,0 -0.73828,0.053 -1.11328,0.1582 -0.375,0.1055 -0.74024,0.2598 -1.0957,0.4629 l 0,-1.0782 c 0.39843,-0.1523 0.77929,-0.2656 1.14257,-0.3398 0.36719,-0.078 0.72266,-0.1172 1.06641,-0.1172 0.54296,0 1.00585,0.08 1.38867,0.2403 0.38672,0.1601 0.69922,0.4003 0.9375,0.7207 0.14843,0.1953 0.2539,0.4375 0.31641,0.7265 0.0625,0.2852 0.0937,0.7149 0.0937,1.2891"
           id="path4252"
           style="font-size:12px;font-style:normal;font-variant:normal;font-weight:normal;font-stretch:normal;text-align:start;line-height:125%;letter-spacing:0px;word-spacing:0px;writing-mode:lr-tb;text-anchor:start;fill:#000000;fill-opacity:1;stroke:none;font-family:Monospace;-inkscape-font-specification:Monospace" />
        <path
           d="m 264.06787,1028.1616 c -0.54687,0 -0.96094,0.2129 -1.24218,0.6387 -0.28125,0.4257 -0.42188,1.0566 -0.42188,1.8925 0,0.8321 0.14063,1.4629 0.42188,1.8926 0.28124,0.4258 0.69531,0.6387 1.24218,0.6387 0.55078,0 0.9668,-0.2129 1.24805,-0.6387 0.28125,-0.4297 0.42187,-1.0605 0.42188,-1.8926 -10e-6,-0.8359 -0.14063,-1.4668 -0.42188,-1.8925 -0.28125,-0.4258 -0.69727,-0.6387 -1.24805,-0.6387 m 0,-0.9141 c 0.91016,0 1.60547,0.2949 2.08594,0.8848 0.48437,0.5898 0.72656,1.4433 0.72656,2.5605 0,1.1211 -0.24024,1.9766 -0.7207,2.5664 -0.48047,0.586 -1.17774,0.8789 -2.0918,0.8789 -0.91015,0 -1.60547,-0.2929 -2.08593,-0.8789 -0.48047,-0.5898 -0.72071,-1.4453 -0.72071,-2.5664 0,-1.1172 0.24024,-1.9707 0.72071,-2.5605 0.48046,-0.5899 1.17578,-0.8848 2.08593,-0.8848"
           id="path4254"
           style="font-size:12px;font-style:normal;font-variant:normal;font-weight:normal;font-stretch:normal;text-align:start;line-height:125%;letter-spacing:0px;word-spacing:0px;writing-mode:lr-tb;text-anchor:start;fill:#000000;fill-opacity:1;stroke:none;font-family:Monospace;-inkscape-font-specification:Monospace" />
        <path
           d="m 272.79492,1027.6342 0,1.0547 c -0.3086,-0.1797 -0.61914,-0.3144 -0.93164,-0.4043 -0.3125,-0.09 -0.63086,-0.1347 -0.95508,-0.1347 -0.48828,0 -0.85352,0.08 -1.0957,0.2402 -0.23828,0.1563 -0.35742,0.3965 -0.35742,0.7207 0,0.293 0.0898,0.5117 0.26953,0.6562 0.17968,0.1446 0.62695,0.2852 1.3418,0.4219 l 0.43359,0.082 c 0.53515,0.1015 0.93945,0.3046 1.21289,0.6093 0.27734,0.3047 0.41601,0.7012 0.41602,1.1895 -1e-5,0.6484 -0.23048,1.1562 -0.69141,1.5234 -0.46094,0.3633 -1.10157,0.5449 -1.92188,0.5449 -0.32422,0 -0.66406,-0.035 -1.01953,-0.1054 -0.35547,-0.066 -0.74023,-0.168 -1.15429,-0.3047 l 0,-1.1133 c 0.40234,0.207 0.7871,0.3633 1.15429,0.4688 0.36719,0.1015 0.71484,0.1523 1.04297,0.1523 0.47656,0 0.8457,-0.096 1.10742,-0.2871 0.26172,-0.1953 0.39258,-0.4668 0.39258,-0.8145 0,-0.5 -0.47852,-0.8457 -1.43554,-1.0371 l -0.0469,-0.012 -0.4043,-0.082 c -0.62109,-0.1211 -1.07422,-0.3242 -1.35937,-0.6094 -0.28516,-0.2891 -0.42774,-0.6816 -0.42774,-1.1777 0,-0.6289 0.21289,-1.1133 0.63868,-1.4532 0.42578,-0.3437 1.0332,-0.5156 1.82226,-0.5156 0.35156,0 0.68945,0.033 1.01367,0.1 0.32422,0.062 0.64258,0.1582 0.95508,0.2871"
           id="path4256"
           style="font-size:12px;font-style:normal;font-variant:normal;font-weight:normal;font-stretch:normal;text-align:start;line-height:125%;letter-spacing:0px;word-spacing:0px;writing-mode:lr-tb;text-anchor:start;fill:#000000;fill-opacity:1;stroke:none;font-family:Monospace;-inkscape-font-specification:Monospace" />
        <path
           d="m 283.74805,1033.6342 c -0.28907,0.168 -0.5879,0.293 -0.89649,0.375 -0.30469,0.086 -0.61719,0.1289 -0.9375,0.1289 -1.01563,0 -1.81055,-0.3046 -2.38476,-0.914 -0.57032,-0.6094 -0.85547,-1.4531 -0.85547,-2.5313 0,-1.0781 0.28515,-1.9218 0.85547,-2.5312 0.57421,-0.6094 1.36913,-0.9141 2.38476,-0.9141 0.3164,0 0.625,0.041 0.92578,0.1231 0.30078,0.082 0.60351,0.209 0.90821,0.3808 l 0,1.1309 c -0.28517,-0.2539 -0.57227,-0.4375 -0.86133,-0.5508 -0.28516,-0.1133 -0.60938,-0.1699 -0.97266,-0.1699 -0.67578,0 -1.19531,0.2187 -1.55859,0.6562 -0.36328,0.4375 -0.54493,1.0625 -0.54492,1.875 -10e-6,0.8086 0.18164,1.4336 0.54492,1.875 0.36718,0.4375 0.88671,0.6563 1.55859,0.6563 0.375,0 0.71093,-0.057 1.00781,-0.1699 0.29687,-0.1172 0.57226,-0.2969 0.82618,-0.5391 l 0,1.1191"
           id="path4258"
           style="font-size:12px;font-style:normal;font-variant:normal;font-weight:normal;font-stretch:normal;text-align:start;line-height:125%;letter-spacing:0px;word-spacing:0px;writing-mode:lr-tb;text-anchor:start;fill:#000000;fill-opacity:1;stroke:none;font-family:Monospace;-inkscape-font-specification:Monospace" />
        <path
           d="m 287.8884,1028.1616 c -0.54687,0 -0.96094,0.2129 -1.24218,0.6387 -0.28125,0.4257 -0.42188,1.0566 -0.42188,1.8925 0,0.8321 0.14063,1.4629 0.42188,1.8926 0.28124,0.4258 0.69531,0.6387 1.24218,0.6387 0.55078,0 0.9668,-0.2129 1.24805,-0.6387 0.28125,-0.4297 0.42187,-1.0605 0.42188,-1.8926 -1e-5,-0.8359 -0.14063,-1.4668 -0.42188,-1.8925 -0.28125,-0.4258 -0.69727,-0.6387 -1.24805,-0.6387 m 0,-0.9141 c 0.91016,0 1.60547,0.2949 2.08594,0.8848 0.48437,0.5898 0.72656,1.4433 0.72656,2.5605 0,1.1211 -0.24024,1.9766 -0.7207,2.5664 -0.48047,0.586 -1.17774,0.8789 -2.0918,0.8789 -0.91015,0 -1.60547,-0.2929 -2.08593,-0.8789 -0.48047,-0.5898 -0.72071,-1.4453 -0.72071,-2.5664 0,-1.1172 0.24024,-1.9707 0.72071,-2.5605 0.48046,-0.5899 1.17578,-0.8848 2.08593,-0.8848"
           id="path4260"
           style="font-size:12px;font-style:normal;font-variant:normal;font-weight:normal;font-stretch:normal;text-align:start;line-height:125%;letter-spacing:0px;word-spacing:0px;writing-mode:lr-tb;text-anchor:start;fill:#000000;fill-opacity:1;stroke:none;font-family:Monospace;-inkscape-font-specification:Monospace" />
        <path
           d="m 295.35688,1028.0737 c 0.13281,-0.2813 0.30077,-0.4883 0.5039,-0.6211 0.20703,-0.1367 0.45508,-0.2051 0.74414,-0.2051 0.52734,0 0.89844,0.2051 1.11329,0.6153 0.21874,0.4062 0.32811,1.1738 0.32812,2.3027 l 0,3.8027 -0.98437,0 0,-3.7558 c -10e-6,-0.9258 -0.0527,-1.5 -0.15821,-1.7227 -0.10157,-0.2266 -0.28907,-0.3398 -0.5625,-0.3398 -0.3125,0 -0.52735,0.1211 -0.64453,0.3632 -0.11328,0.2383 -0.16992,0.8047 -0.16992,1.6993 l 0,3.7558 -0.98438,0 0,-3.7558 c 0,-0.9375 -0.0566,-1.5157 -0.16992,-1.7344 -0.10938,-0.2188 -0.30859,-0.3281 -0.59765,-0.3281 -0.28516,0 -0.48438,0.1211 -0.59766,0.3632 -0.10938,0.2383 -0.16406,0.8047 -0.16406,1.6993 l 0,3.7558 -0.97852,0 0,-6.5625 0.97852,0 0,0.5625 c 0.1289,-0.2343 0.28906,-0.4121 0.48047,-0.5332 0.19531,-0.125 0.41601,-0.1875 0.66211,-0.1875 0.29687,0 0.54296,0.068 0.73828,0.2051 0.19921,0.1367 0.35351,0.3438 0.46289,0.6211"
           id="path4262"
           style="font-size:12px;font-style:normal;font-variant:normal;font-weight:normal;font-stretch:normal;text-align:start;line-height:125%;letter-spacing:0px;word-spacing:0px;writing-mode:lr-tb;text-anchor:start;fill:#000000;fill-opacity:1;stroke:none;font-family:Monospace;-inkscape-font-specification:Monospace" />
        <path
           d="m 300.46403,1033.142 0,3.3223 -1.08399,0 0,-9.0586 1.08399,0 0,0.8379 c 0.17968,-0.3242 0.41796,-0.5703 0.71484,-0.7383 0.30078,-0.1718 0.64648,-0.2578 1.03711,-0.2578 0.79296,0 1.41406,0.3067 1.86328,0.9199 0.45312,0.6133 0.67968,1.4629 0.67969,2.5489 -1e-5,1.0664 -0.22657,1.9043 -0.67969,2.5136 -0.45313,0.6055 -1.07422,0.9082 -1.86328,0.9082 -0.39844,0 -0.74805,-0.084 -1.04883,-0.2519 -0.29688,-0.1719 -0.53125,-0.4199 -0.70312,-0.7442 m 3.16406,-2.4492 c -10e-6,-0.8359 -0.13282,-1.4668 -0.39844,-1.8925 -0.26172,-0.4258 -0.65235,-0.6387 -1.17187,-0.6387 -0.52345,0 -0.91993,0.2148 -1.18946,0.6445 -0.26953,0.4258 -0.4043,1.0547 -0.40429,1.8867 -10e-6,0.8282 0.13476,1.4571 0.40429,1.8867 0.26953,0.4297 0.66601,0.6446 1.18946,0.6446 0.51952,0 0.91015,-0.2129 1.17187,-0.6387 0.26562,-0.4258 0.39843,-1.0566 0.39844,-1.8926"
           id="path4264"
           style="font-size:12px;font-style:normal;font-variant:normal;font-weight:normal;font-stretch:normal;text-align:start;line-height:125%;letter-spacing:0px;word-spacing:0px;writing-mode:lr-tb;text-anchor:start;fill:#000000;fill-opacity:1;stroke:none;font-family:Monospace;-inkscape-font-specification:Monospace" />
        <path
           d="m 306.09265,1031.4838 0,-4.0664 1.07812,0 0,4.0664 c 0,0.5899 0.10352,1.0235 0.31055,1.3008 0.21093,0.2774 0.53515,0.416 0.97266,0.416 0.5078,0 0.89648,-0.1777 1.16601,-0.5332 0.26953,-0.3593 0.40429,-0.873 0.4043,-1.541 l 0,-3.709 1.08398,0 0,6.5508 -1.08398,0 0,-0.9844 c -0.19141,0.379 -0.45313,0.6661 -0.78516,0.8614 -0.32813,0.1953 -0.71289,0.2929 -1.15429,0.2929 -0.67188,0 -1.17188,-0.2187 -1.5,-0.6562 -0.32813,-0.4414 -0.49219,-1.1074 -0.49219,-1.9981"
           id="path4266"
           style="font-size:12px;font-style:normal;font-variant:normal;font-weight:normal;font-stretch:normal;text-align:start;line-height:125%;letter-spacing:0px;word-spacing:0px;writing-mode:lr-tb;text-anchor:start;fill:#000000;fill-opacity:1;stroke:none;font-family:Monospace;-inkscape-font-specification:Monospace" />
        <path
           d="m 315.27207,1025.5424 0,1.8633 2.44921,0 0,0.8379 -2.44921,0 0,3.5625 c -10e-6,0.4844 0.0918,0.8223 0.27539,1.0137 0.18359,0.1914 0.5039,0.2871 0.96093,0.2871 l 1.21289,0 0,0.8613 -1.31835,0 c -0.8086,0 -1.37891,-0.1621 -1.71094,-0.4863 -0.33204,-0.3242 -0.49805,-0.8828 -0.49805,-1.6758 l 0,-3.5625 -1.75195,0 0,-0.8379 1.75195,0 0,-1.8633 1.07813,0"
           id="path4268"
           style="font-size:12px;font-style:normal;font-variant:normal;font-weight:normal;font-stretch:normal;text-align:start;line-height:125%;letter-spacing:0px;word-spacing:0px;writing-mode:lr-tb;text-anchor:start;fill:#000000;fill-opacity:1;stroke:none;font-family:Monospace;-inkscape-font-specification:Monospace" />
        <path
           d="m 324.84991,1030.4174 0,0.5274 -4.66992,0 0,0.035 c 0,0.7149 0.18555,1.2676 0.55664,1.6582 0.375,0.3907 0.90234,0.586 1.58203,0.586 0.34375,0 0.70313,-0.055 1.07813,-0.1641 0.37499,-0.1094 0.77538,-0.2754 1.20117,-0.498 l 0,1.0722 c -0.41016,0.168 -0.80664,0.293 -1.18945,0.375 -0.37891,0.086 -0.7461,0.1289 -1.10156,0.1289 -1.01954,0 -1.81641,-0.3046 -2.39063,-0.914 -0.57422,-0.6133 -0.86133,-1.457 -0.86133,-2.5313 0,-1.0468 0.28125,-1.8828 0.84375,-2.5078 0.5625,-0.625 1.3125,-0.9375 2.25,-0.9375 0.83594,0 1.49414,0.2832 1.97461,0.8496 0.48437,0.5664 0.72656,1.3399 0.72656,2.3203 m -1.07812,-0.3164 c -0.0156,-0.6328 -0.16602,-1.1132 -0.45117,-1.4414 -0.28126,-0.332 -0.68751,-0.498 -1.21875,-0.498 -0.51954,0 -0.94727,0.1719 -1.28321,0.5156 -0.33593,0.3438 -0.53515,0.8203 -0.59765,1.4297 l 3.55078,-0.01"
           id="path4270"
           style="font-size:12px;font-style:normal;font-variant:normal;font-weight:normal;font-stretch:normal;text-align:start;line-height:125%;letter-spacing:0px;word-spacing:0px;writing-mode:lr-tb;text-anchor:start;fill:#000000;fill-opacity:1;stroke:none;font-family:Monospace;-inkscape-font-specification:Monospace" />
        <path
           d="m 330.83011,1028.7592 c -0.23048,-0.1796 -0.46485,-0.3105 -0.70313,-0.3925 -0.23828,-0.082 -0.5,-0.1231 -0.78515,-0.1231 -0.67188,0 -1.18555,0.211 -1.54102,0.6328 -0.35547,0.4219 -0.53321,1.0313 -0.5332,1.8281 l 0,3.2637 -1.08399,0 0,-6.5625 1.08399,0 0,1.2832 c 0.17968,-0.4648 0.45507,-0.8203 0.82617,-1.0664 0.375,-0.25 0.81835,-0.375 1.33008,-0.375 0.26562,0 0.51366,0.033 0.74414,0.1 0.23046,0.066 0.45116,0.17 0.66211,0.3106 l 0,1.1015"
           id="path4272"
           style="font-size:12px;font-style:normal;font-variant:normal;font-weight:normal;font-stretch:normal;text-align:start;line-height:125%;letter-spacing:0px;word-spacing:0px;writing-mode:lr-tb;text-anchor:start;fill:#000000;fill-opacity:1;stroke:none;font-family:Monospace;-inkscape-font-specification:Monospace" />
        <path
           d="m 339.78823,1033.8128 c -0.28907,0.168 -0.5879,0.293 -0.89649,0.375 -0.30469,0.086 -0.61719,0.1289 -0.9375,0.1289 -1.01563,0 -1.81055,-0.3046 -2.38476,-0.914 -0.57032,-0.6094 -0.85547,-1.4531 -0.85547,-2.5313 0,-1.0781 0.28515,-1.9218 0.85547,-2.5312 0.57421,-0.6094 1.36913,-0.9141 2.38476,-0.9141 0.3164,0 0.625,0.041 0.92578,0.1231 0.30078,0.082 0.60351,0.209 0.90821,0.3808 l 0,1.1309 c -0.28517,-0.2539 -0.57227,-0.4375 -0.86133,-0.5508 -0.28516,-0.1133 -0.60938,-0.1699 -0.97266,-0.1699 -0.67578,0 -1.19531,0.2187 -1.55859,0.6562 -0.36328,0.4375 -0.54493,1.0625 -0.54492,1.875 -10e-6,0.8086 0.18164,1.4336 0.54492,1.875 0.36718,0.4375 0.88671,0.6563 1.55859,0.6563 0.375,0 0.71093,-0.057 1.00781,-0.1699 0.29687,-0.1172 0.57226,-0.2969 0.82618,-0.5391 l 0,1.1191"
           id="path4274"
           style="font-size:12px;font-style:normal;font-variant:normal;font-weight:normal;font-stretch:normal;text-align:start;line-height:125%;letter-spacing:0px;word-spacing:0px;writing-mode:lr-tb;text-anchor:start;fill:#000000;fill-opacity:1;stroke:none;font-family:Monospace;-inkscape-font-specification:Monospace" />
        <path
           d="m 342.33462,1031.5893 c 0,0.4844 0.0879,0.8496 0.26367,1.0957 0.17969,0.2461 0.44336,0.3692 0.79102,0.3692 l 1.25976,0 0,0.914 -1.36523,0 c -0.64454,0 -1.14454,-0.207 -1.5,-0.6211 -0.35157,-0.414 -0.52735,-1 -0.52734,-1.7578 l 0,-5.959 -1.72852,0 0,-0.8437 2.80664,0 0,6.8027"
           id="path4276"
           style="font-size:12px;font-style:normal;font-variant:normal;font-weight:normal;font-stretch:normal;text-align:start;line-height:125%;letter-spacing:0px;word-spacing:0px;writing-mode:lr-tb;text-anchor:start;fill:#000000;fill-opacity:1;stroke:none;font-family:Monospace;-inkscape-font-specification:Monospace" />
        <path
           d="m 345.46027,1031.4838 0,-4.0664 1.07812,0 0,4.0664 c 0,0.5899 0.10352,1.0235 0.31055,1.3008 0.21093,0.2774 0.53515,0.416 0.97266,0.416 0.5078,0 0.89648,-0.1777 1.16601,-0.5332 0.26953,-0.3593 0.40429,-0.873 0.4043,-1.541 l 0,-3.709 1.08398,0 0,6.5508 -1.08398,0 0,-0.9844 c -0.19141,0.379 -0.45313,0.6661 -0.78516,0.8614 -0.32813,0.1953 -0.71289,0.2929 -1.15429,0.2929 -0.67188,0 -1.17188,-0.2187 -1.5,-0.6562 -0.32813,-0.4414 -0.49219,-1.1074 -0.49219,-1.9981"
           id="path4278"
           style="font-size:12px;font-style:normal;font-variant:normal;font-weight:normal;font-stretch:normal;text-align:start;line-height:125%;letter-spacing:0px;word-spacing:0px;writing-mode:lr-tb;text-anchor:start;fill:#000000;fill-opacity:1;stroke:none;font-family:Monospace;-inkscape-font-specification:Monospace" />
        <path
           d="m 356.24942,1030.6928 c -10e-6,-0.8359 -0.13282,-1.4668 -0.39844,-1.8925 -0.26563,-0.4258 -0.65821,-0.6387 -1.17774,-0.6387 -0.52344,0 -0.91992,0.2148 -1.18945,0.6445 -0.26953,0.4258 -0.4043,1.0547 -0.4043,1.8867 0,0.8282 0.13477,1.4571 0.4043,1.8867 0.26953,0.4297 0.66601,0.6446 1.18945,0.6446 0.51953,0 0.91211,-0.2129 1.17774,-0.6387 0.26562,-0.4258 0.39843,-1.0566 0.39844,-1.8926 m -3.16993,-2.4492 c 0.17188,-0.3203 0.4082,-0.5664 0.70899,-0.7383 0.30468,-0.1718 0.65625,-0.2578 1.05469,-0.2578 0.78905,0 1.41015,0.3047 1.86328,0.9141 0.45312,0.6055 0.67968,1.4414 0.67968,2.5078 0,1.082 -0.22852,1.9316 -0.68554,2.5488 -0.45313,0.6133 -1.07618,0.9199 -1.86914,0.9199 -0.39063,0 -0.73633,-0.084 -1.03711,-0.2519 -0.29688,-0.1719 -0.53516,-0.4199 -0.71485,-0.7442 l 0,0.8262 -1.07812,0 0,-9.1172 1.07812,0 0,3.3926"
           id="path4280"
           style="font-size:12px;font-style:normal;font-variant:normal;font-weight:normal;font-stretch:normal;text-align:start;line-height:125%;letter-spacing:0px;word-spacing:0px;writing-mode:lr-tb;text-anchor:start;fill:#000000;fill-opacity:1;stroke:none;font-family:Monospace;-inkscape-font-specification:Monospace" />
      </g>
      <path
         d="m 381.62109,1028.2436 0,-3.3926 1.07813,0 0,9.1172 -1.07813,0 0,-0.8262 c -0.17969,0.3243 -0.41992,0.5723 -0.7207,0.7442 -0.29688,0.168 -0.64063,0.2519 -1.03125,0.2519 -0.79297,0 -1.41797,-0.3066 -1.875,-0.9199 -0.45313,-0.6172 -0.67969,-1.4668 -0.67969,-2.5488 0,-1.0664 0.22852,-1.9023 0.68555,-2.5078 0.45703,-0.6094 1.08008,-0.9141 1.86914,-0.9141 0.39453,0 0.74218,0.086 1.04297,0.2578 0.30078,0.168 0.5371,0.4141 0.70898,0.7383 m -3.16992,2.4492 c 0,0.836 0.13281,1.4668 0.39844,1.8926 0.26562,0.4258 0.6582,0.6387 1.17773,0.6387 0.51953,0 0.91406,-0.2149 1.1836,-0.6446 0.27343,-0.4296 0.41015,-1.0585 0.41015,-1.8867 0,-0.832 -0.13672,-1.4609 -0.41015,-1.8867 -0.26954,-0.4297 -0.66407,-0.6445 -1.1836,-0.6445 -0.51953,0 -0.91211,0.2129 -1.17773,0.6387 -0.26563,0.4257 -0.39844,1.0566 -0.39844,1.8925"
         id="path4282"
         style="font-size:12px;font-style:normal;font-variant:normal;font-weight:normal;font-stretch:normal;text-align:start;line-height:125%;letter-spacing:0px;word-spacing:0px;writing-mode:lr-tb;text-anchor:start;fill:#000000;fill-opacity:1;stroke:none;font-family:Monospace;-inkscape-font-specification:Monospace" />
      <path
         d="m 388.66929,1028.7592 c -0.23048,-0.1796 -0.46485,-0.3105 -0.70313,-0.3925 -0.23828,-0.082 -0.5,-0.1231 -0.78515,-0.1231 -0.67188,0 -1.18555,0.211 -1.54102,0.6328 -0.35547,0.4219 -0.53321,1.0313 -0.5332,1.8281 l 0,3.2637 -1.08399,0 0,-6.5625 1.08399,0 0,1.2832 c 0.17968,-0.4648 0.45507,-0.8203 0.82617,-1.0664 0.375,-0.25 0.81835,-0.375 1.33008,-0.375 0.26562,0 0.51366,0.033 0.74414,0.1 0.23046,0.066 0.45116,0.17 0.66211,0.3106 l 0,1.1015"
         id="path4284"
         style="font-size:12px;font-style:normal;font-variant:normal;font-weight:normal;font-stretch:normal;text-align:start;line-height:125%;letter-spacing:0px;word-spacing:0px;writing-mode:lr-tb;text-anchor:start;fill:#000000;fill-opacity:1;stroke:none;font-family:Monospace;-inkscape-font-specification:Monospace" />
      <path
         d="m 395.78778,1030.4174 0,0.5274 -4.66992,0 0,0.035 c 0,0.7149 0.18555,1.2676 0.55664,1.6582 0.375,0.3907 0.90234,0.586 1.58203,0.586 0.34375,0 0.70313,-0.055 1.07813,-0.1641 0.37499,-0.1094 0.77538,-0.2754 1.20117,-0.498 l 0,1.0722 c -0.41016,0.168 -0.80664,0.293 -1.18945,0.375 -0.37891,0.086 -0.7461,0.1289 -1.10156,0.1289 -1.01954,0 -1.81641,-0.3046 -2.39063,-0.914 -0.57422,-0.6133 -0.86133,-1.457 -0.86133,-2.5313 0,-1.0468 0.28125,-1.8828 0.84375,-2.5078 0.5625,-0.625 1.3125,-0.9375 2.25,-0.9375 0.83594,0 1.49414,0.2832 1.97461,0.8496 0.48437,0.5664 0.72656,1.3399 0.72656,2.3203 m -1.07812,-0.3164 c -0.0156,-0.6328 -0.16602,-1.1132 -0.45117,-1.4414 -0.28126,-0.332 -0.68751,-0.498 -1.21875,-0.498 -0.51954,0 -0.94727,0.1719 -1.28321,0.5156 -0.33593,0.3438 -0.53515,0.8203 -0.59765,1.4297 l 3.55078,-0.01"
         id="path4286"
         style="font-size:12px;font-style:normal;font-variant:normal;font-weight:normal;font-stretch:normal;text-align:start;line-height:125%;letter-spacing:0px;word-spacing:0px;writing-mode:lr-tb;text-anchor:start;fill:#000000;fill-opacity:1;stroke:none;font-family:Monospace;-inkscape-font-specification:Monospace" />
      <path
         d="m 401.56448,1027.6342 0,1.0547 c -0.3086,-0.1797 -0.61914,-0.3144 -0.93164,-0.4043 -0.3125,-0.09 -0.63086,-0.1347 -0.95508,-0.1347 -0.48828,0 -0.85352,0.08 -1.0957,0.2402 -0.23828,0.1563 -0.35742,0.3965 -0.35742,0.7207 0,0.293 0.0898,0.5117 0.26953,0.6562 0.17968,0.1446 0.62695,0.2852 1.3418,0.4219 l 0.43359,0.082 c 0.53515,0.1015 0.93945,0.3046 1.21289,0.6093 0.27734,0.3047 0.41601,0.7012 0.41602,1.1895 -10e-6,0.6484 -0.23048,1.1562 -0.69141,1.5234 -0.46094,0.3633 -1.10157,0.5449 -1.92188,0.5449 -0.32422,0 -0.66406,-0.035 -1.01953,-0.1054 -0.35547,-0.066 -0.74023,-0.168 -1.15429,-0.3047 l 0,-1.1133 c 0.40234,0.207 0.7871,0.3633 1.15429,0.4688 0.36719,0.1015 0.71484,0.1523 1.04297,0.1523 0.47656,0 0.8457,-0.096 1.10742,-0.2871 0.26172,-0.1953 0.39258,-0.4668 0.39258,-0.8145 0,-0.5 -0.47852,-0.8457 -1.43554,-1.0371 l -0.0469,-0.012 -0.4043,-0.082 c -0.62109,-0.1211 -1.07422,-0.3242 -1.35937,-0.6094 -0.28516,-0.2891 -0.42774,-0.6816 -0.42774,-1.1777 0,-0.6289 0.21289,-1.1133 0.63868,-1.4532 0.42578,-0.3437 1.0332,-0.5156 1.82226,-0.5156 0.35156,0 0.68945,0.033 1.01367,0.1 0.32422,0.062 0.64258,0.1582 0.95508,0.2871"
         id="path4288"
         style="font-size:12px;font-style:normal;font-variant:normal;font-weight:normal;font-stretch:normal;text-align:start;line-height:125%;letter-spacing:0px;word-spacing:0px;writing-mode:lr-tb;text-anchor:start;fill:#000000;fill-opacity:1;stroke:none;font-family:Monospace;-inkscape-font-specification:Monospace" />
      <path
         d="m 407.52869,1028.2436 0,-3.3926 1.07813,0 0,9.1172 -1.07813,0 0,-0.8262 c -0.17969,0.3243 -0.41992,0.5723 -0.7207,0.7442 -0.29688,0.168 -0.64063,0.2519 -1.03125,0.2519 -0.79297,0 -1.41797,-0.3066 -1.875,-0.9199 -0.45313,-0.6172 -0.67969,-1.4668 -0.67969,-2.5488 0,-1.0664 0.22852,-1.9023 0.68555,-2.5078 0.45703,-0.6094 1.08008,-0.9141 1.86914,-0.9141 0.39453,0 0.74218,0.086 1.04297,0.2578 0.30078,0.168 0.5371,0.4141 0.70898,0.7383 m -3.16992,2.4492 c 0,0.836 0.13281,1.4668 0.39844,1.8926 0.26562,0.4258 0.6582,0.6387 1.17773,0.6387 0.51953,0 0.91406,-0.2149 1.1836,-0.6446 0.27343,-0.4296 0.41015,-1.0585 0.41015,-1.8867 0,-0.832 -0.13672,-1.4609 -0.41015,-1.8867 -0.26954,-0.4297 -0.66407,-0.6445 -1.1836,-0.6445 -0.51953,0 -0.91211,0.2129 -1.17773,0.6387 -0.26563,0.4257 -0.39844,1.0566 -0.39844,1.8925"
         id="path4290"
         style="font-size:12px;font-style:normal;font-variant:normal;font-weight:normal;font-stretch:normal;text-align:start;line-height:125%;letter-spacing:0px;word-spacing:0px;writing-mode:lr-tb;text-anchor:start;fill:#000000;fill-opacity:1;stroke:none;font-family:Monospace;-inkscape-font-specification:Monospace" />
      <path
         d="m 415.72531,1030.4174 0,0.5274 -4.66992,0 0,0.035 c 0,0.7149 0.18555,1.2676 0.55664,1.6582 0.375,0.3907 0.90234,0.586 1.58203,0.586 0.34375,0 0.70313,-0.055 1.07813,-0.1641 0.37499,-0.1094 0.77538,-0.2754 1.20117,-0.498 l 0,1.0722 c -0.41016,0.168 -0.80664,0.293 -1.18945,0.375 -0.37891,0.086 -0.7461,0.1289 -1.10156,0.1289 -1.01954,0 -1.81641,-0.3046 -2.39063,-0.914 -0.57422,-0.6133 -0.86133,-1.457 -0.86133,-2.5313 0,-1.0468 0.28125,-1.8828 0.84375,-2.5078 0.5625,-0.625 1.3125,-0.9375 2.25,-0.9375 0.83594,0 1.49414,0.2832 1.97461,0.8496 0.48437,0.5664 0.72656,1.3399 0.72656,2.3203 m -1.07812,-0.3164 c -0.0156,-0.6328 -0.16602,-1.1132 -0.45117,-1.4414 -0.28126,-0.332 -0.68751,-0.498 -1.21875,-0.498 -0.51954,0 -0.94727,0.1719 -1.28321,0.5156 -0.33593,0.3438 -0.53515,0.8203 -0.59765,1.4297 l 3.55078,-0.01"
         id="path4292"
         style="font-size:12px;font-style:normal;font-variant:normal;font-weight:normal;font-stretch:normal;text-align:start;line-height:125%;letter-spacing:0px;word-spacing:0px;writing-mode:lr-tb;text-anchor:start;fill:#000000;fill-opacity:1;stroke:none;font-family:Monospace;-inkscape-font-specification:Monospace" />
      <path
         d="m 422.06451,1029.9018 0,4.0664 -1.08398,0 0,-4.0664 c -10e-6,-0.5898 -0.10352,-1.0234 -0.31055,-1.3008 -0.20703,-0.2773 -0.53125,-0.416 -0.97265,-0.416 -0.50391,0 -0.89259,0.1797 -1.16602,0.5391 -0.26953,0.3555 -0.4043,0.8672 -0.4043,1.5351 l 0,3.709 -1.07812,0 0,-6.5625 1.07812,0 0,0.9844 c 0.19141,-0.375 0.45117,-0.6582 0.7793,-0.8496 0.32812,-0.1953 0.71679,-0.293 1.16602,-0.293 0.66796,0 1.16601,0.2207 1.49414,0.6621 0.33202,0.4375 0.49804,1.1016 0.49804,1.9922"
         id="path4294"
         style="font-size:12px;font-style:normal;font-variant:normal;font-weight:normal;font-stretch:normal;text-align:start;line-height:125%;letter-spacing:0px;word-spacing:0px;writing-mode:lr-tb;text-anchor:start;fill:#000000;fill-opacity:1;stroke:none;font-family:Monospace;-inkscape-font-specification:Monospace" />
    </g>
  </g>
</svg>
