<?xml version="1.0" encoding="UTF-8" standalone="no"?>
<!-- Created with Inkscape (http://www.inkscape.org/) -->

<svg
   xmlns:dc="http://purl.org/dc/elements/1.1/"
   xmlns:cc="http://creativecommons.org/ns#"
   xmlns:rdf="http://www.w3.org/1999/02/22-rdf-syntax-ns#"
   xmlns:svg="http://www.w3.org/2000/svg"
   xmlns="http://www.w3.org/2000/svg"
   xmlns:sodipodi="http://sodipodi.sourceforge.net/DTD/sodipodi-0.dtd"
   xmlns:inkscape="http://www.inkscape.org/namespaces/inkscape"
   width="297mm"
   height="210mm"
   viewBox="0 0 297 210"
   id="svg3360"
   version="1.1"
   inkscape:version="0.91 r13725"
   sodipodi:docname="warentest.svg">
  <defs
     id="defs3362">
    <clipPath
       clipPathUnits="userSpaceOnUse"
       id="clipPath4296">
      <rect
         style="fill:#b2b2b2;fill-opacity:1"
         id="rect4298"
         width="669.25159"
         height="322.6749"
         x="250.05005"
         y="-77.741402" />
    </clipPath>
    <clipPath
       clipPathUnits="userSpaceOnUse"
       id="clipPath4296-7">
      <rect
         style="fill:#b2b2b2;fill-opacity:1"
         id="rect4298-9"
         width="669.25159"
         height="322.6749"
         x="250.05005"
         y="-77.741402" />
    </clipPath>
    <clipPath
       clipPathUnits="userSpaceOnUse"
       id="clipPath4343">
      <rect
         style="fill:#b2b2b2;fill-opacity:1"
         id="rect4345"
         width="560.77399"
         height="270.27469"
         x="-375.99438"
         y="213.6772" />
    </clipPath>
  </defs>
  <sodipodi:namedview
     inkscape:document-units="mm"
     pagecolor="#ffffff"
     bordercolor="#666666"
     borderopacity="1.0"
     inkscape:pageopacity="0.0"
     inkscape:pageshadow="2"
     inkscape:zoom="1.7366334"
     inkscape:cx="657.0161"
     inkscape:cy="758.82807"
     inkscape:current-layer="layer1"
     id="namedview3364"
     showgrid="false"
     inkscape:window-width="1918"
     inkscape:window-height="1030"
     inkscape:window-x="0"
     inkscape:window-y="49"
     inkscape:window-maximized="0" />
  <metadata
     id="metadata3366">
    <rdf:RDF>
      <cc:Work
         rdf:about="">
        <dc:format>image/svg+xml</dc:format>
        <dc:type
           rdf:resource="http://purl.org/dc/dcmitype/StillImage" />
        <dc:title />
      </cc:Work>
    </rdf:RDF>
  </metadata>
  <g
     inkscape:label="Layer 1"
     inkscape:groupmode="layer"
     id="layer1">
    <g
       id="g4327"
       transform="matrix(0.2142526,0,0,0.2142526,75.834624,108.6103)"
       clip-path="url(#clipPath4343)"
       style="fill:#d4021d;fill-opacity:1">
      <path
         style="fill:#d4021d;fill-opacity:1"
         d="m -366.2108,226.20313 520.98224,0 0,258.51556 -520.98224,0 z m 117.56351,223.51693 3.3196,-0.56751 2.56456,-0.87408 2.56456,-0.87408 2.5159,-1.29208 2.5159,-1.29208 2.14076,-1.60046 2.14077,-1.60047 2.22201,-2.2672 2.22201,-2.2672 1.79758,-2.50033 1.79758,-2.50033 1.9684,-3.95111 1.9684,-3.95111 1.285,-3.95111 1.28501,-3.95111 0.9463,-4.51556 0.94631,-4.51555 0.20627,0.84666 c 0.81891,3.36115 1.11275,4.38021 2.00835,6.96499 l 1.00925,2.91279 1.53823,3.07038 c 2.21369,4.41861 4.30889,7.48086 8.00046,11.69309 l 1.56106,1.78124 2.68111,2.28964 2.68112,2.28965 2.68111,1.75944 c 3.6328,2.38397 6.28771,3.76592 10.26008,5.34064 l 3.34565,1.32627 3.80089,0.95738 3.80089,0.95737 3.23959,0.42467 3.23958,0.42468 4.72018,0 4.72017,0 2.39148,-0.29605 c 1.31532,-0.16283 3.57964,-0.5424 5.03183,-0.8435 l 2.64033,-0.54745 3.36761,-1.12594 3.36761,-1.12595 3.02317,-1.54739 c 3.67011,-1.87853 6.37329,-3.65933 9.72588,-6.40722 l 2.53346,-2.0765 2.1935,-2.40061 c 2.97637,-3.25741 5.59215,-6.81214 7.99425,-10.86384 l 2.00783,-3.38666 1.51258,-3.38395 c 3.37089,-7.54136 6.13708,-17.57728 7.21566,-26.17883 l 0.16809,-1.34056 -31.22384,0 -0.32938,3.03389 -0.32937,3.03389 -0.70323,2.62648 -0.70323,2.62648 -0.96763,2.09432 -0.96763,2.09431 -1.48287,2.14505 -1.48287,2.14504 -1.61746,1.45972 c -0.88961,0.80284 -2.31667,1.88145 -3.17126,2.39691 l -1.55379,0.9372 -2.06999,0.74731 -2.06998,0.74731 -4.09223,0.009 -4.09222,0.009 -2.11667,-0.66093 -2.11666,-0.66093 -1.87047,-0.97867 -1.87048,-0.97866 -1.8007,-1.4853 -1.8007,-1.48531 -1.59395,-2.09621 -1.59394,-2.09622 -1.00848,-1.99698 c -2.71258,-5.37142 -4.10645,-11.27153 -4.57877,-19.38137 l -0.19313,-3.31611 78.82284,0 0,-8.97823 0,-8.97822 -0.42966,-4.639 -0.42967,-4.63899 -0.84074,-5.08876 c -1.86617,-11.29533 -4.68574,-20.3135 -9.04167,-28.91902 l -1.92853,-3.81 -2.21937,-3.38667 -2.21937,-3.38667 -2.13821,-2.54 c -10.22357,-12.14469 -22.87489,-18.48175 -38.89056,-19.48031 l -2.96333,-0.18476 -3.90849,0.31569 -3.90849,0.31569 -2.90173,0.55998 c -7.56465,1.45982 -14.21079,4.29047 -20.50608,8.73368 l -2.59251,1.82979 -2.94709,2.81375 -2.94708,2.81375 -2.29871,2.8785 -2.29871,2.87849 -1.80312,2.90176 c -4.85864,7.81902 -8.4219,16.89541 -10.73705,27.34955 l -0.84376,3.81 -0.70369,4.93889 c -0.85838,6.02455 -1.29349,11.39994 -1.29349,15.97977 l 0,3.44917 0.4208,5.17275 c 0.23144,2.84502 0.67594,7.64374 0.98777,10.66384 0.31184,3.02009 0.56698,5.52834 0.56698,5.57389 0,0.0455 -5.715,0.0828 -12.7,0.0828 l -12.7,0 0,10.14942 0,10.14941 -0.59122,1.58018 -0.59122,1.58017 -0.97065,0.97066 -0.97066,0.97065 -1.01259,0.42309 -1.01259,0.42309 -1.60346,0 -1.60345,0 -1.47232,-0.73369 -1.47232,-0.73369 -0.83838,-1.21854 -0.83839,-1.21855 -0.42581,-1.63484 -0.42583,-1.63484 0,-83.41919 40.64,0 0,-32.45555 -40.64,0 0,-50.51778 -28.50444,0 -8.5e-4,4.16278 -8.5e-4,4.16277 -0.30092,3.24556 c -0.1655,1.78505 -0.60813,4.91663 -0.98362,6.95907 l -0.6827,3.71351 -0.99719,3.05982 -0.9972,3.05982 -1.51806,3.10445 -1.51807,3.10444 -1.44075,1.97556 -1.44074,1.97555 -2.18552,2.21096 -2.18552,2.21096 -2.25778,1.49709 c -2.83626,1.88068 -4.43118,2.67824 -7.56683,3.78387 l -2.48683,0.87685 -2.87539,0.58799 -2.87539,0.58799 -3.60063,0.16209 -3.60063,0.16208 c 0.0487,10.743 0.0971,21.48601 0.1455,32.22901 9.92481,0.0486 19.84963,0.0974 29.77444,0.1461 l 4.7e-4,81.1339 0.28198,3.10445 c 0.15508,1.70744 0.55111,4.50144 0.88006,6.20889 l 0.5981,3.10444 1.09916,3.38667 1.09916,3.38667 1.66937,3.38666 1.66936,3.38667 1.50173,2.25014 1.50172,2.25014 2.68111,2.80596 2.68112,2.80595 2.15187,1.60235 2.15187,1.60235 2.78702,1.42519 2.78701,1.42518 2.78175,0.88548 2.78175,0.88548 2.29825,0.38605 2.29825,0.38606 4.41696,0.0287 4.41695,0.0287 3.3196,-0.56752 z m 69.67196,-103.0786 c 0.48042,-8.53261 2.19104,-15.42988 5.00506,-20.18061 l 0.94059,-1.58794 1.86169,-1.9149 1.8617,-1.9149 2.08941,-0.97989 2.08942,-0.97989 2.17185,-0.29179 2.17185,-0.29179 2.09073,0.26508 2.09072,0.26508 1.49311,0.58853 c 0.82121,0.32369 2.17499,1.04113 3.00839,1.59432 l 1.51529,1.00579 1.23202,1.45173 c 4.09138,4.82106 6.22881,11.49207 6.94899,21.68818 l 0.29665,4.19977 -0.16701,0.27023 -0.16701,0.27023 -36.72811,0 z m 154.779352,102.68688 2.924782,-0.7409 2.719662,-1.13584 c 3.351587,-1.39978 5.906263,-2.88861 9.2107462,-5.36794 l 2.5400001,-1.90574 2.6000852,-2.63573 c 3.1310581,-3.17399 4.99290636,-5.46204 7.1970338,-8.84461 l 1.6550922,-2.54 1.8127699,-3.66889 1.8127698,-3.66889 1.0057272,-2.94127 c 1.3633876,-3.98727 2.3352476,-7.92259 2.8499646,-11.54009 l 0.429175,-3.01642 -0.0045,-4.65667 c -0.0045,-4.90041 -0.0885,-6.0728 -0.750655,-10.49131 -1.38667,-9.2534 -5.0892851,-17.52092 -10.7969475,-24.10833 l -1.9800147,-2.2852 -2.2097436,-1.84028 c -5.4568516,-4.54448 -11.6581492,-7.69575 -19.0226532,-9.66662 l -2.54508,-0.68111 -5.419909,-0.87759 c -2.980916,-0.48268 -6.978086,-1.19322 -8.88255,-1.57899 l -3.462669,-0.70139 -2.463997,-0.86152 -2.463998,-0.86151 -1.834445,-1.01284 -1.834444,-1.01284 -1.713597,-1.71412 -1.713597,-1.71413 -0.723505,-1.55222 -0.723505,-1.55222 -0.314565,-1.49556 -0.314565,-1.49556 0.0042,-1.74999 0.0042,-1.75 0.428865,-1.81952 0.428865,-1.81952 0.907514,-1.84937 0.907514,-1.84937 1.834444,-1.85762 1.834445,-1.85763 1.552222,-0.75041 1.552222,-0.7504 1.678997,-0.30945 1.679024,-0.30944 2.569352,0.30302 2.569379,0.30302 1.614876,0.5556 c 0.888181,0.30558 2.405408,0.97209 3.371624,1.48113 l 1.756749,0.92552 2.116666,2.13569 2.116667,2.13568 1.235767,2.18046 1.235738,2.18046 0.791831,2.32052 c 0.435525,1.27628 1.002227,3.33652 1.259388,4.5783 l 0.46753,2.25777 0.155956,2.89278 0.155956,2.89278 28.705613,0 0,-17.21556 0.4233334,-0.0313 c 0.2328333,-0.0172 0.6773333,-0.0314 0.9877778,-0.0314 0.3104445,0 2.7234448,0.0141 5.3622228,0.0314 l 4.797778,0.0313 0,79.75606 0.29701,3.79587 0.297011,3.79585 0.686477,3.4279 0.686449,3.4279 1.002228,3.06321 1.002228,3.06322 1.507603,3.13801 1.507602,3.13802 1.577566,2.36531 c 2.855525,4.28146 6.64639,8.14168 10.600804,10.79481 l 2.001661,1.34297 2.610584,1.23465 2.610555,1.23466 2.53159,0.73186 c 1.392372,0.40253 3.678372,0.91787 5.08,1.14521 l 2.548411,0.41334 4.001233,0.001 4.001263,10e-4 2.166845,-0.30139 c 3.058556,-0.4254 6.053216,-1.22526 9.151028,-2.44417 l 2.66923,-1.05029 2.476782,-1.5593 2.476811,-1.5593 2.151097,-1.83433 2.151098,-1.83434 2.053816,-2.54011 c 2.496933,-3.08815 3.728805,-5.00258 5.515526,-8.57163 3.397447,-6.78653 5.539683,-14.37633 6.781156,-24.02514 l 0.56283,-4.37445 0.14173,-4.37444 c 0.078,-2.40595 0.1955,-4.9777 0.26123,-5.715 l 0.11952,-1.34056 -31.017862,0 c -0.0019,6.91444 -0.0037,13.82889 -0.0056,20.74333 l -0.658509,1.41112 -0.658537,1.41111 -1.136284,1.02427 -1.136283,1.02427 -1.052576,0.34739 -1.052576,0.34738 -1.800719,-0.11466 -1.800747,-0.11467 -1.202549,-0.84519 -1.202577,-0.8452 -0.919903,-1.77701 -0.919904,-1.77701 0,-85.1818 40.357779,0 0,-32.45555 -40.354759,0 c -0.04802,-16.79222 -0.09608,-33.58445 -0.14413,-50.37667 -9.454445,-0.0488 -18.908889,-0.0976 -28.363334,-0.1464 l -0.0062,0.63761 c -0.0034,0.35069 -0.125166,3.17762 -0.270623,6.28206 l -0.26447,5.64445 -0.4434,2.96333 c -0.8636,5.77171 -2.440121,11.29345 -4.40515,15.42899 l -1.09553,2.30567 -1.75054,2.61708 -1.75054,2.61708 -2.176921,2.17692 -2.176921,2.17693 -2.072556,1.39818 C 8.9817286,287.48 6.7983163,288.5744 3.6946055,289.6691 l -2.4868294,0.87711 -2.875393,0.61328 -2.875393,0.61328 -7.0555561,0.16464 -7.055555,0.16463 -0.05165,2.21534 c -0.02839,1.21844 -0.09404,2.25774 -0.145853,2.30957 -0.05182,0.0518 -1.552589,-0.85546 -3.33502,-2.01619 l -3.240814,-2.1104 -3.104445,-1.52781 -3.104444,-1.5278 -3.406225,-1.13688 -3.406225,-1.13688 -3.225997,-0.5421 -3.225998,-0.54211 -3.386667,-0.18683 -3.386667,-0.18682 -3.245555,0.31261 c -3.858232,0.37162 -7.488316,1.09793 -10.583334,2.11752 l -2.257778,0.74378 -3.386667,1.6498 -3.386666,1.64981 -2.533312,1.79213 -2.533311,1.79215 -2.997229,2.96333 -2.997231,2.96333 -1.690452,2.25778 c -5.72827,7.65072 -9.359821,16.76355 -10.66213,26.75501 l -0.434114,3.33057 0,4.79444 0,4.79445 0.301092,2.74054 c 0.576337,5.24584 1.911942,10.30265 3.801045,14.39136 l 0.975944,2.1123 1.606734,2.41478 1.606736,2.41477 2.149814,2.14981 2.149813,2.14982 2.645041,1.76924 c 4.268978,2.85547 7.673114,4.38162 14.157593,6.34715 l 3.269234,0.99095 9.280145,1.99314 9.280144,1.99315 3.245556,1.01573 3.245555,1.01573 2.257778,1.12284 2.257778,1.12284 1.486126,1.14346 1.486154,1.14346 1.245983,1.65753 1.245983,1.65754 0.558433,1.49253 c 0.307142,0.82089 0.714192,2.28432 0.904607,3.25208 l 0.346174,1.75956 -0.1478,3.30761 -0.1478,3.30761 -0.706741,2.18552 -0.706741,2.18551 -0.892753,1.39122 -0.892754,1.39122 -1.268165,1.16897 -1.268194,1.16898 -1.737953,0.82191 -1.737924,0.82191 -2.083309,0.4635 -2.083336,0.4635 -3.291106,-0.13886 -3.291107,-0.13886 -1.834444,-0.59312 -1.834445,-0.59312 -1.834444,-1.0658 -1.834445,-1.06581 -2.257777,-2.27459 -2.257778,-2.27459 -1.363867,-2.28601 -1.363868,-2.28601 -1.092877,-2.65426 -1.092906,-2.65425 -0.701914,-2.70156 c -0.748877,-2.88231 -1.581235,-7.95961 -1.581235,-9.64551 l 0,-1.02211 -29.351112,0 0,57.00889 29.351112,0 0,-3.22225 0,-3.22225 2.45285,1.41143 c 3.419686,1.96778 5.653955,3.06813 9.557653,4.70706 l 3.370608,1.41511 3.245556,0.97209 c 3.292461,0.98614 6.587293,1.7068 9.889744,2.16313 l 1.822479,0.25183 5.362222,-0.0895 5.362223,-0.0895 2.92481,-0.7409 z"
         id="path4331"
         inkscape:connector-curvature="0"
         sodipodi:nodetypes="ccccccccccccccccccccccccscsscccsscccccccsscccsscsscssccccccccccsscccccccccccccssccccccsscccsscccsscccccsscsscsssscccccccccccccccccccccccccsscccccccccssccccccccsscccccccccccccccccccccsscccccccccsscssccccsccsscsscccssccsscsscsscccccccccccccccccccccccccsscccccccccccccscccccccccccsscccsscccsscccccsssccsccccccccccccccccccccccscssccccccscccccccscccccccccsscccccccsscccsscccccsscccccccccccsccccccccccccccccccccccccccssccccccsscssccccc" />
    </g>
    <g
       id="g4412"
       transform="matrix(1.0595489,0,0,1.0595489,-12.469047,-104.13726)">
      <path
         style="fill:#b2b2b2;fill-opacity:1"
         d="m 7.4430075,112.19914 0,-15.522222 144.6388825,0 144.63889,0 0,15.522222 0,15.52222 -144.63889,0 -144.6388825,0 0,-15.52222 z"
         id="path4398"
         inkscape:connector-curvature="0" />
      <path
         style="fill-opacity:1"
         d="m 15.016825,116.59278 0,-2.11667 0.259798,0 0.259798,0 0.176884,0.77611 c 0.211648,0.92865 0.616744,1.48396 1.553538,2.12962 l 0.697796,0.48094 1.348315,0 1.348315,0 0.564444,-0.56445 0.564445,-0.56444 0,-0.93858 0,-0.93858 -0.635,-0.5634 c -0.34925,-0.30986 -1.524,-1.08196 -2.610556,-1.71576 l -1.975555,-1.15238 -0.705556,-0.75505 -0.705555,-0.75506 0,-1.41152 0,-1.41153 0.904741,-0.80838 0.904742,-0.80839 1.044524,-0.19596 1.044525,-0.19595 1.4374,0.46204 1.437401,0.46204 0.352778,-0.47627 0.352777,-0.47626 -0.01239,2.38227 -0.01239,2.38228 -0.399125,-1.12889 -0.399126,-1.12889 -0.862939,-0.77611 -0.86294,-0.77611 -1.137264,0 -1.137265,0 -0.692727,0.69272 -0.692727,0.69273 0,0.41451 0,0.41451 0.677821,0.80554 0.677821,0.80555 1.932734,1.0658 c 2.319078,1.27885 2.662554,1.53374 3.286242,2.43865 l 0.480937,0.6978 0,1.16914 0,1.16915 -0.61183,0.77781 -0.611829,0.77782 -0.931328,0.38913 -0.931328,0.38914 -0.926287,-0.003 c -0.509458,-0.002 -1.5352,-0.18781 -2.279427,-0.41363 l -1.353139,-0.41056 -0.158722,0.41362 c -0.0873,0.22749 -0.272134,0.41362 -0.410749,0.41362 l -0.252027,0 0,-2.11667 z m 74.929997,1.73648 c -0.465666,-0.21415 -1.100666,-0.67364 -1.411111,-1.02109 l -0.564444,-0.63172 -0.09309,-3.99118 -0.09309,-3.99117 -0.280187,-0.33761 c -0.154102,-0.18568 -0.556711,-0.39143 -0.89469,-0.45722 l -0.614505,-0.11962 2.54,0 2.54,0 -0.614505,0.11962 c -0.337978,0.0658 -0.763275,0.29888 -0.945105,0.51797 l -0.330601,0.39835 0.09844,3.79566 0.09844,3.79566 0.684194,0.72793 0.684197,0.72794 1.43247,-0.006 1.432472,-0.006 0.601969,-0.48761 c 0.331083,-0.26819 0.743833,-0.76502 0.917222,-1.10406 l 0.315254,-0.61645 -0.0043,-3.47577 -0.0043,-3.47578 -0.207343,-0.32433 -0.207346,-0.32432 -0.705555,-0.13113 -0.705556,-0.13113 2.116667,-0.0103 2.116667,-0.0103 -0.695263,0.19383 -0.69526,0.19383 -0.193831,0.69526 -0.193827,0.69526 -0.03229,3.24556 -0.03229,3.24555 -0.348618,0.67835 c -0.191739,0.37309 -0.692601,0.93371 -1.113025,1.24581 l -0.764407,0.56746 -1.49337,0.0993 -1.493371,0.0993 -0.846667,-0.38937 z m 36.136968,-0.0511 -1.11636,-0.42606 -0.68476,-0.62968 -0.68476,-0.62969 -0.52102,-1.12889 -0.52101,-1.12889 -0.006,-1.01622 -0.006,-1.01621 0.3212,-0.95934 c 0.17666,-0.52764 0.63816,-1.38591 1.02557,-1.90728 l 0.70437,-0.94794 1.16165,-0.52753 1.16165,-0.52752 1.09615,-0.006 1.09614,-0.006 1.11326,0.33354 1.11326,0.33354 0.22077,-0.35721 0.22076,-0.3572 0.18039,0.47008 c 0.0992,0.25854 0.17477,1.06294 0.16791,1.78755 l -0.0125,1.31747 -0.55609,-1.05321 -0.55608,-1.05322 -0.82854,-0.42845 -0.82854,-0.42845 -1.07234,0.001 -1.07235,0.001 -0.86926,0.53007 -0.86925,0.53007 -0.53213,1.09165 -0.53212,1.09165 0.014,1.69334 0.014,1.69333 0.62268,1.21052 0.62267,1.21051 0.90584,0.55232 0.90584,0.55232 0.89885,0.001 c 0.49437,5.9e-4 1.22998,-0.12484 1.63469,-0.27871 l 0.73585,-0.27977 -0.0825,-2.18231 -0.0825,-2.18228 -0.70555,-0.35598 -0.70556,-0.35599 2.25778,0.0137 2.25778,0.0137 -0.59494,0.24042 -0.59494,0.24042 -0.18117,0.90586 c -0.0996,0.49822 -0.18117,1.5681 -0.18117,2.3775 l 0,1.47165 -0.77611,0.3602 -0.77612,0.3602 -1.69333,0.10584 -1.69333,0.10585 -1.11636,-0.42606 z m 26.4234,-0.16462 c -0.13743,-0.37078 -1.12523,-3.13931 -2.19512,-6.15229 l -1.94526,-5.47815 -0.84666,-0.51802 -0.84667,-0.51802 2.54,0.0181 2.54,0.018 -0.635,0.30625 -0.635,0.30625 0,0.5001 c 0,0.58456 2.49813,7.91297 2.81227,8.24997 l 0.21305,0.22855 1.03547,-2.8829 1.03548,-2.8829 -0.46162,-1.3898 -0.46161,-1.38979 -0.88708,-0.54091 -0.88707,-0.54091 2.68111,0.003 2.68111,0.003 -0.70305,0.35571 -0.70306,0.3557 -0.083,0.43117 -0.083,0.43116 1.38611,3.93619 1.38611,3.9362 0.2385,-0.0497 0.2385,-0.0497 1.34871,-4.03512 c 0.74178,-2.21932 1.3487,-4.12965 1.3487,-4.24518 0,-0.11553 -0.34925,-0.39953 -0.77612,-0.63111 l -0.77611,-0.42105 1.97556,-0.01 1.97555,-0.01 -0.78269,0.6336 -0.7827,0.6336 -1.9856,5.78556 c -1.09207,3.18205 -2.09049,5.89158 -2.21869,6.02117 l -0.23311,0.23562 -0.45498,-1.2234 c -0.25023,-0.67286 -0.88572,-2.42989 -1.4122,-3.9045 l -0.95722,-2.68112 -0.24307,0.10984 c -0.13369,0.0604 -0.81457,1.73368 -1.51307,3.71837 -0.6985,1.9847 -1.3617,3.69913 -1.47377,3.80986 l -0.20377,0.20133 -0.24986,-0.67414 z m 70.84381,-3.61619 c -1.91047,-2.34004 -3.52972,-4.25462 -3.59833,-4.25462 -0.0686,0 -0.12475,1.70392 -0.12475,3.78648 l 0,3.78648 0.77611,0.28346 0.77612,0.28346 -1.97556,-0.006 -1.97556,-0.006 0.70556,-0.19596 0.70556,-0.19596 0.0779,-4.47276 0.0779,-4.47276 -0.46018,-0.50849 -0.46018,-0.50849 -0.60552,-0.11844 -0.60553,-0.11845 1.56442,-0.0384 1.56441,-0.0384 3.23336,4.00441 3.23337,4.00442 0.0795,-3.47084 0.0795,-3.47085 -0.31165,-0.37552 c -0.17141,-0.20653 -0.58818,-0.42934 -0.92615,-0.49513 l -0.61451,-0.11962 2.11667,0 2.11667,0 -0.61451,0.11962 c -0.33798,0.0658 -0.74771,0.28012 -0.91051,0.47628 l -0.296,0.35666 -0.0773,5.0099 -0.0773,5.0099 -3.47359,-4.25462 z m 42.57188,2.3776 0.002,-1.97555 0.5492,1.21007 0.54921,1.21006 0.98775,0.41271 c 0.54317,0.22699 1.22861,0.41271 1.52311,0.41271 l 0.53545,0 0.74361,-0.58492 0.74362,-0.58493 0,-0.63227 0,-0.63227 -0.77611,-0.71621 c -0.42686,-0.39392 -1.51145,-1.12841 -2.41019,-1.6322 l -1.63408,-0.916 -0.43029,-0.65671 -0.43029,-0.6567 -0.0242,-0.85299 -0.0242,-0.853 0.48061,-0.73349 0.4806,-0.7335 0.70917,-0.26963 c 0.95717,-0.36391 1.99212,-0.33921 3.13725,0.0749 l 0.95267,0.3445 0.26249,-0.41505 0.26248,-0.41505 -0.0211,1.97556 -0.0211,1.97555 -0.25877,-0.89382 -0.25877,-0.89382 -0.86632,-0.72896 -0.86632,-0.72895 -0.82501,0 -0.82502,0 -0.56444,0.56444 -0.56444,0.56445 0,0.55345 0,0.55345 0.635,0.59449 c 0.34925,0.32698 1.3542,0.97873 2.23323,1.44835 0.87902,0.46961 1.8683,1.14132 2.1984,1.49269 l 0.60016,0.63885 0.14343,0.95769 0.14343,0.95769 -0.56444,0.90185 -0.56444,0.90185 -1.14314,0.34249 -1.14313,0.34249 -1.57415,-0.37763 -1.57416,-0.37763 -0.25522,0.40329 -0.25522,0.40329 0.002,-1.97555 z m -233.126056,1.18727 0.705556,-0.35664 0.07738,-4.7192 0.07738,-4.7192 -0.971519,0 c -0.534336,0 -1.186529,0.0825 -1.449318,0.18334 l -0.4778,0.18335 -0.380903,0.87499 -0.380903,0.87498 -0.01105,-1.34055 -0.01105,-1.34056 4.34425,0 4.344249,0 0.171306,0.44642 c 0.09422,0.24553 0.171306,0.83581 0.171306,1.31173 l 0,0.86532 -0.644364,-0.95896 -0.644367,-0.95895 -1.331189,-0.086 -1.331191,-0.086 0,4.47707 0,4.47708 0.352778,0.45347 c 0.194027,0.2494 0.606777,0.51295 0.917222,0.58565 l 0.564444,0.13218 -2.398889,0.0286 -2.398889,0.0286 0.705556,-0.35664 z m 12.841111,0.16074 c 0.310444,-0.0763 0.723194,-0.26763 0.917222,-0.42515 l 0.352778,-0.28641 0,-4.44645 0,-4.44644 -0.352778,-0.28641 c -0.194028,-0.15752 -0.606778,-0.34884 -0.917222,-0.42515 l -0.564445,-0.13874 2.54,0 2.54,0 -0.564444,0.13874 c -0.310445,0.0763 -0.723195,0.26763 -0.917222,0.42515 l -0.352778,0.28641 0,4.44644 0,4.44645 0.352778,0.28641 c 0.194027,0.15752 0.606777,0.34884 0.917222,0.42515 l 0.564444,0.13874 -2.54,0 -2.54,0 0.564445,-0.13874 z m 12.276666,-0.0483 0.705556,-0.19626 0,-4.91344 0,-4.91344 -0.705556,-0.19626 -0.705555,-0.19626 3.991471,-0.0281 3.991472,-0.0281 0.171306,0.44641 c 0.09422,0.24553 0.169898,0.78528 0.168176,1.19945 l -0.0031,0.75303 -0.722881,-0.91722 -0.722881,-0.91723 -1.813989,0 -1.813989,0 0,2.11667 0,2.11667 1.199444,-0.004 1.199445,-0.004 0.306341,-0.20735 c 0.168489,-0.11404 0.450376,-0.46134 0.626417,-0.77179 l 0.320077,-0.56444 -0.0093,1.97555 -0.0093,1.97556 -0.278392,-0.69759 c -0.153117,-0.38367 -0.430815,-0.79448 -0.61711,-0.9129 l -0.338706,-0.21531 -1.199445,-0.004 -1.199444,-0.004 0,2.37537 0,2.37537 0.776111,0.28346 0.776111,0.28346 -2.398889,-0.006 -2.398888,-0.006 0.705555,-0.19626 z m 16.51,0.0483 c 0.310444,-0.0763 0.723194,-0.26763 0.917222,-0.42515 l 0.352778,-0.28641 0,-4.62211 0,-4.62211 -1.226259,0 -1.226258,0 -0.430248,0.49388 c -0.236637,0.27164 -0.500295,0.68439 -0.585904,0.91723 l -0.15566,0.42333 -0.02227,-1.19944 -0.02229,-1.19945 4.3448,0 4.344802,0 0.107657,1.12889 0.107656,1.12889 -0.219123,0 -0.219126,0 0,-0.40733 0,-0.40733 -0.627241,-0.43934 -0.627239,-0.43933 -1.066095,0 -1.066091,0 0,4.62211 0,4.62211 0.352777,0.28641 c 0.194028,0.15752 0.606778,0.34884 0.917223,0.42515 l 0.564444,0.13874 -2.54,0 -2.54,0 0.564445,-0.13874 z m 30.197779,0 c 0.31045,-0.0763 0.7232,-0.26763 0.91722,-0.42515 l 0.35278,-0.28641 0,-4.30534 0,-4.30533 -0.40529,-0.33636 c -0.22291,-0.185 -0.76266,-0.44363 -1.19944,-0.57474 l -0.79416,-0.23838 1.60029,-0.0243 1.60029,-0.0243 2.47525,3.03389 c 1.3614,1.66863 2.83576,3.45532 3.27637,3.97041 l 0.80111,0.93652 -0.0789,-3.74641 -0.0789,-3.74641 -0.70556,-0.19587 -0.70555,-0.19587 1.97555,0 1.97556,0 -0.70556,0.19603 -0.70555,0.19602 -0.0769,5.13807 -0.0769,5.13806 -0.26252,0 c -0.14439,0 -1.74506,-1.80975 -3.55704,-4.02167 -1.81199,-2.21191 -3.40549,-4.064 -3.5411,-4.11574 l -0.24659,-0.0941 0,3.49736 0,3.49735 0.35276,0.45347 c 0.19403,0.24941 0.60678,0.51295 0.91723,0.58565 l 0.56444,0.13218 -2.11666,0 -2.11666,0 0.56444,-0.13874 z m 63.6736,-0.32729 0.67306,-0.5315 2.10624,-4.97183 c 1.15844,-2.73451 2.17817,-4.97183 2.26607,-4.97183 0.0879,0 1.03899,2.12725 2.11353,4.72722 l 1.9537,4.72722 0.76796,0.77611 0.76796,0.77612 -2.16551,-0.0179 -2.16551,-0.0179 0.635,-0.25524 0.635,-0.25524 0,-0.42672 c 0,-0.23469 -0.20429,-0.93729 -0.45398,-1.56132 l -0.45397,-1.13459 -2.09606,0 -2.09605,0 -0.55531,1.29549 -0.55532,1.2955 0.17089,0.2765 c 0.094,0.15208 0.44365,0.38656 0.77701,0.52106 l 0.60612,0.24456 -1.80195,0.0179 -1.80195,0.0179 0.67307,-0.5315 z m 5.53451,-5.87564 -0.88536,-2.17381 -0.91055,1.96214 c -0.50081,1.07918 -0.91918,2.0574 -0.92972,2.17382 l -0.0192,0.21166 1.81508,0 1.81507,0 -0.88536,-2.17381 z m 11.35603,6.15705 0.69526,-0.19383 0.19383,-0.69526 0.19383,-0.69526 0,-3.52778 0,-3.52777 -0.19383,-0.69527 -0.19383,-0.69526 -0.69526,-0.20678 -0.69526,-0.20679 3.48104,0.0554 3.48104,0.0554 0.82285,0.92168 0.82284,0.92167 0,0.57401 c 0,0.3157 -0.18451,0.93081 -0.41002,1.36691 l -0.41002,0.7929 -0.85998,0.35621 c -0.47299,0.19592 -0.85738,0.43606 -0.8542,0.53364 0.003,0.0976 0.67069,1.06643 1.48337,2.15298 l 1.4776,1.97556 0.98607,0.49345 0.98607,0.49345 -1.55222,-0.0119 -1.55222,-0.0119 -1.77583,-2.52764 -1.77582,-2.52765 -0.56438,0 -0.56438,0 0.0824,2.17986 0.0824,2.17985 0.70556,0.35599 0.70556,0.35598 -2.39889,-0.024 -2.39889,-0.024 0.69526,-0.19383 z m 5.04531,-5.84616 0.64505,-0.45182 0.25341,-0.66651 0.25341,-0.66652 -0.30091,-0.86318 -0.3009,-0.86318 -0.51621,-0.27627 -0.51621,-0.27626 -1.00633,0 -1.00633,0 0,2.25777 0,2.25778 0.92498,0 0.92499,0 0.64505,-0.45181 z m 11.97542,5.76605 0.78267,-0.28565 -0.0771,-4.83016 -0.0771,-4.83016 -0.70555,-0.196 -0.70556,-0.196 4.13313,-0.0281 4.13314,-0.0281 0.10766,1.12888 0.10765,1.12889 -0.15725,0 c -0.0865,0 -0.30106,-0.381 -0.47683,-0.84666 l -0.31958,-0.84667 -2.14118,0 -2.14118,0 0,2.11667 0,2.11666 1.48166,-0.004 1.48167,-0.004 0.33872,-0.21531 c 0.18629,-0.11842 0.46399,-0.52923 0.61711,-0.9129 l 0.27839,-0.69759 0,2.11667 0,2.11667 -0.27839,-0.69759 c -0.15312,-0.38368 -0.43082,-0.79448 -0.61711,-0.9129 l -0.33872,-0.21532 -1.48167,-0.004 -1.48166,-0.004 0,2.39889 0,2.39889 2.00804,0 2.00805,0 0.98648,-1.05833 0.98647,-1.05834 -0.20999,0.70556 c -0.11549,0.38805 -0.31688,0.9913 -0.44753,1.34055 l -0.23755,0.635 -4.16977,-0.0223 -4.16976,-0.0223 0.78266,-0.28564 z m 35.14532,0.12904 0.65021,-0.1243 0.26702,-0.70231 0.26701,-0.7023 0,-4.21496 0,-4.21496 -1.24954,0 -1.24955,0 -0.75365,0.91722 -0.75365,0.91722 0.1649,-0.70556 c 0.0907,-0.38805 0.16663,-0.9278 0.16875,-1.19944 l 0.004,-0.49389 4.37445,0 4.37444,0 -0.0179,1.19945 -0.0179,1.19944 -0.24842,-0.61655 -0.24841,-0.61655 -0.56181,-0.30067 -0.56181,-0.30067 -1.01315,0 -1.01316,0 0.0774,4.7192 0.0774,4.7192 0.70556,0.35664 0.70555,0.35663 -2.39888,-0.0343 -2.39889,-0.0343 0.6502,-0.12429 z m 13.39691,-0.12904 0.78266,-0.28565 -0.0771,-4.83016 -0.0771,-4.83016 -0.70555,-0.196 -0.70556,-0.196 4.16278,-0.0281 4.16278,-0.0281 0.004,0.49388 c 0.002,0.27164 0.0804,0.77964 0.17403,1.12889 l 0.17018,0.635 -0.31514,0 -0.31514,0 0,-0.508 0,-0.508 -0.33867,-0.33866 -0.33866,-0.33867 -2.06023,0 -2.06022,0 0,2.11667 0,2.11666 1.70696,0 1.70696,0 0.39866,-0.91722 0.39866,-0.91722 -0.007,2.11667 -0.007,2.11666 -0.2784,-0.69759 c -0.15311,-0.38367 -0.43081,-0.79448 -0.61711,-0.9129 l -0.3387,-0.21531 -1.48167,-0.004 -1.48166,-0.004 0,2.39889 0,2.39889 2.01278,0 2.01279,0 0.98882,-1.04846 0.98883,-1.04846 -0.21708,0.69568 c -0.11939,0.38263 -0.32397,0.98143 -0.45462,1.33068 l -0.23755,0.635 -4.16977,-0.0223 -4.16976,-0.0223 0.78267,-0.28564 z m 31.39066,0.13255 c 0.31045,-0.0727 0.7232,-0.33624 0.91723,-0.58565 l 0.35277,-0.45346 0,-4.46162 0,-4.46161 -1.22625,0 -1.22626,0 -0.46708,0.51611 c -0.25689,0.28386 -0.46707,0.66486 -0.46707,0.84666 l 0,0.33056 -0.31242,0 -0.31242,0 0.17131,-0.44642 c 0.0942,-0.24553 0.1713,-0.75353 0.1713,-1.12889 l 0,-0.68247 4.37445,0 4.37444,0 -0.0179,1.19945 -0.0179,1.19944 -0.24842,-0.61655 -0.24841,-0.61655 -0.56181,-0.30067 -0.5618,-0.30067 -1.01316,0 -1.01315,0 0.0774,4.7192 0.0774,4.7192 0.70555,0.35664 0.70556,0.35663 -2.39889,-0.0286 -2.39889,-0.0286 0.56444,-0.13218 z"
         id="path4392"
         inkscape:connector-curvature="0" />
    </g>
    <g
       id="g4442"
       transform="matrix(0.85071059,0,0,0.85071059,21.933879,4.8234303)">
      <g
         style="font-style:normal;font-variant:normal;font-weight:bold;font-stretch:normal;font-size:50.79999924px;line-height:125%;font-family:Ubuntu;-inkscape-font-specification:'Ubuntu, Bold';text-align:start;letter-spacing:0px;word-spacing:0px;writing-mode:lr-tb;text-anchor:start;fill:#000000;fill-opacity:1;stroke:none;stroke-width:1px;stroke-linecap:butt;stroke-linejoin:miter;stroke-opacity:1"
         id="text4416">
        <path
           d="m 72.539065,83.56636 q -3.4036,-6.045199 -7.366,-11.937999 -3.9624,-5.8928 -8.4328,-11.1252 l 0,23.063199 -7.8232,0 0,-35.204399 6.4516,0 q 1.6764,1.6764 3.7084,4.1148 2.032,2.4384 4.1148,5.2324 2.1336,2.7432 4.2164,5.7404 2.0828,2.9464 3.9116,5.6896 l 0,-20.7772 7.874,0 0,35.204399 -6.6548,0 z"
           style="font-style:normal;font-variant:normal;font-weight:bold;font-stretch:normal;font-size:50.79999924px;line-height:125%;font-family:Ubuntu;-inkscape-font-specification:'Ubuntu, Bold';text-align:start;writing-mode:lr-tb;text-anchor:start"
           id="path4473" />
        <path
           d="m 87.314721,48.361961 7.9248,0 0,35.204399 -7.9248,0 0,-35.204399 z"
           style="font-style:normal;font-variant:normal;font-weight:bold;font-stretch:normal;font-size:50.79999924px;line-height:125%;font-family:Ubuntu;-inkscape-font-specification:'Ubuntu, Bold';text-align:start;writing-mode:lr-tb;text-anchor:start"
           id="path4475" />
        <path
           d="m 119.44096,84.27756 q -8.5852,0 -13.1064,-4.775199 -4.4704,-4.7752 -4.4704,-13.5636 0,-4.3688 1.3716,-7.7724 1.3716,-3.4544 3.7592,-5.7912 2.3876,-2.3876 5.6896,-3.6068 3.302,-1.2192 7.1628,-1.2192 2.2352,0 4.064,0.3556 1.8288,0.3048 3.2004,0.762 1.3716,0.4064 2.286,0.8636 0.9144,0.4572 1.3208,0.7112 l -2.286,6.4008 q -1.6256,-0.8636 -3.81,-1.4732 -2.1336,-0.6096 -4.8768,-0.6096 -1.8288,0 -3.6068,0.6096 -1.7272,0.6096 -3.0988,1.9812 -1.3208,1.3208 -2.1336,3.4544 -0.8128,2.1336 -0.8128,5.1816 0,2.4384 0.508,4.572 0.5588,2.0828 1.7272,3.6068 1.2192,1.524 3.1496,2.4384 1.9304,0.8636 4.6736,0.8636 1.7272,0 3.0988,-0.2032 1.3716,-0.2032 2.4384,-0.4572 1.0668,-0.3048 1.8796,-0.6604 0.8128,-0.3556 1.4732,-0.6604 l 2.1844,6.35 q -1.6764,1.015999 -4.7244,1.828799 -3.048,0.8128 -7.0612,0.8128 z"
           style="font-style:normal;font-variant:normal;font-weight:bold;font-stretch:normal;font-size:50.79999924px;line-height:125%;font-family:Ubuntu;-inkscape-font-specification:'Ubuntu, Bold';text-align:start;writing-mode:lr-tb;text-anchor:start"
           id="path4477" />
        <path
           d="m 157.56318,48.361961 7.9248,0 0,35.204399 -7.9248,0 0,-14.935199 -13.3096,0 0,14.935199 -7.9248,0 0,-35.204399 7.9248,0 0,13.462 13.3096,0 0,-13.462 z"
           style="font-style:normal;font-variant:normal;font-weight:bold;font-stretch:normal;font-size:50.79999924px;line-height:125%;font-family:Ubuntu;-inkscape-font-specification:'Ubuntu, Bold';text-align:start;writing-mode:lr-tb;text-anchor:start"
           id="path4479" />
        <path
           d="m 195.44014,77.521161 q 1.6764,0 2.7432,-0.254 1.1176,-0.3048 1.778,-0.762 0.6604,-0.508 0.9144,-1.1684 0.254,-0.6604 0.254,-1.4732 0,-1.7272 -1.6256,-2.8448 -1.6256,-1.1684 -5.588,-2.4892 -1.7272,-0.6096 -3.4544,-1.3716 -1.7272,-0.8128 -3.0988,-1.9812 -1.3716,-1.2192 -2.2352,-2.8956 -0.8636,-1.7272 -0.8636,-4.1656 0,-2.4384 0.9144,-4.3688 0.9144,-1.9812 2.5908,-3.3528 1.6764,-1.3716 4.064,-2.0828 2.3876,-0.762 5.3848,-0.762 3.556,0 6.1468,0.762 2.5908,0.762 4.2672,1.6764 l -2.286,6.2484 q -1.4732,-0.762 -3.302,-1.3208 -1.778,-0.6096 -4.318,-0.6096 -2.8448,0 -4.1148,0.8128 -1.2192,0.762 -1.2192,2.3876 0,0.9652 0.4572,1.6256 0.4572,0.6604 1.27,1.2192 0.8636,0.508 1.9304,0.9652 1.1176,0.4064 2.4384,0.8636 2.7432,1.016 4.7752,2.032 2.032,0.9652 3.3528,2.286 1.3716,1.3208 2.032,3.0988 0.6604,1.778 0.6604,4.318 0,4.9276 -3.4544,7.6708 -3.4544,2.692399 -10.414,2.692399 -2.3368,0 -4.2164,-0.3048 -1.8796,-0.254 -3.3528,-0.6604 -1.4224,-0.4064 -2.4892,-0.8636 -1.016,-0.4572 -1.7272,-0.863599 l 2.2352,-6.2992 q 1.5748,0.8636 3.8608,1.5748 2.3368,0.6604 5.6896,0.6604 z"
           style="font-style:normal;font-variant:normal;font-weight:bold;font-stretch:normal;font-size:50.79999924px;line-height:125%;font-family:Ubuntu;-inkscape-font-specification:'Ubuntu, Bold';text-align:start;writing-mode:lr-tb;text-anchor:start"
           id="path4481" />
        <path
           d="m 222.06092,65.938761 q 0,2.5908 0.6096,4.6736 0.6604,2.0828 1.8288,3.6068 1.2192,1.4732 2.9464,2.286 1.7272,0.8128 3.9624,0.8128 2.1844,0 3.9116,-0.8128 1.778,-0.8128 2.9464,-2.286 1.2192,-1.524 1.8288,-3.6068 0.6604,-2.0828 0.6604,-4.6736 0,-2.5908 -0.6604,-4.6736 -0.6096,-2.1336 -1.8288,-3.6068 -1.1684,-1.524 -2.9464,-2.3368 -1.7272,-0.8128 -3.9116,-0.8128 -2.2352,0 -3.9624,0.8636 -1.7272,0.8128 -2.9464,2.3368 -1.1684,1.4732 -1.8288,3.6068 -0.6096,2.0828 -0.6096,4.6228 z m 26.8732,0 q 0,4.5212 -1.3716,7.9756 -1.3208,3.4036 -3.6576,5.7404 -2.3368,2.285999 -5.588,3.454399 -3.2004,1.1684 -6.9088,1.1684 -3.6068,0 -6.8072,-1.1684 -3.2004,-1.1684 -5.588,-3.454399 -2.3876,-2.3368 -3.7592,-5.7404 -1.3716,-3.4544 -1.3716,-7.9756 0,-4.5212 1.4224,-7.9248 1.4224,-3.4544 3.81,-5.7912 2.4384,-2.3368 5.588,-3.5052 3.2004,-1.1684 6.7056,-1.1684 3.6068,0 6.8072,1.1684 3.2004,1.1684 5.588,3.5052 2.3876,2.3368 3.7592,5.7912 1.3716,3.4036 1.3716,7.9248 z"
           style="font-style:normal;font-variant:normal;font-weight:bold;font-stretch:normal;font-size:50.79999924px;line-height:125%;font-family:Ubuntu;-inkscape-font-specification:'Ubuntu, Bold';text-align:start;writing-mode:lr-tb;text-anchor:start"
           id="path4483" />
      </g>
      <g
         style="font-style:normal;font-weight:normal;font-size:11.28888893px;line-height:125%;font-family:sans-serif;letter-spacing:0px;word-spacing:0px;fill:#000000;fill-opacity:1;stroke:none;stroke-width:1px;stroke-linecap:butt;stroke-linejoin:miter;stroke-opacity:1"
         id="text4420">
        <path
           d="m 58.936972,104.83641 q -5.5372,0 -8.0264,3.0988 -2.4384,3.048 -2.4384,8.382 0,2.5908 0.6096,4.7244 0.6096,2.0828 1.8288,3.6068 1.2192,1.524 3.048,2.3876 1.8288,0.8128 4.2672,0.8128 1.3208,0 2.2352,-0.0508 0.9652,-0.0508 1.6764,-0.2032 l 0,-12.2428 7.924799,0 0,17.4244 q -1.4224,0.5588 -4.572,1.1684 -3.1496,0.6604 -7.772399,0.6604 -3.9624,0 -7.2136,-1.2192 -3.2004,-1.2192 -5.4864,-3.556 -2.286,-2.3368 -3.556,-5.7404 -1.2192,-3.4036 -1.2192,-7.7724 0,-4.4196 1.3716,-7.8232 1.3716,-3.4036 3.7592,-5.7404 2.3876,-2.3876 5.588,-3.606801 3.2512,-1.219199 6.9088,-1.219199 2.4892,0 4.470399,0.355599 2.032,0.3048 3.4544,0.762 1.4732,0.4064 2.3876,0.8636 0.9652,0.457201 1.3716,0.711201 l -2.286,6.35 q -1.6256,-0.8636 -3.7592,-1.4732 -2.082799,-0.6604 -4.571999,-0.6604 z"
           style="font-style:normal;font-variant:normal;font-weight:bold;font-stretch:normal;font-size:50.79999924px;line-height:125%;font-family:Ubuntu;-inkscape-font-specification:'Ubuntu, Bold';text-align:start;writing-mode:lr-tb;text-anchor:start"
           id="path4454" />
        <path
           d="m 77.386102,133.94481 0,-35.204401 23.774398,0 0,6.654801 -15.849599,0 0,6.9088 14.0716,0 0,6.5024 -14.0716,0 0,8.4836 17.017999,0 0,6.6548 -24.942798,0 z"
           style="font-style:normal;font-variant:normal;font-weight:bold;font-stretch:normal;font-size:50.79999924px;line-height:125%;font-family:Ubuntu;-inkscape-font-specification:'Ubuntu, Bold';text-align:start;writing-mode:lr-tb;text-anchor:start"
           id="path4456" />
        <path
           d="m 108.14391,98.740409 7.9248,0 0,35.204401 -7.9248,0 0,-35.204401 z"
           style="font-style:normal;font-variant:normal;font-weight:bold;font-stretch:normal;font-size:50.79999924px;line-height:125%;font-family:Ubuntu;-inkscape-font-specification:'Ubuntu, Bold';text-align:start;writing-mode:lr-tb;text-anchor:start"
           id="path4458" />
        <path
           d="m 147.73775,127.13761 0,6.8072 -23.5204,0 0,-35.204401 7.9248,0 0,28.397201 15.5956,0 z"
           style="font-style:normal;font-variant:normal;font-weight:bold;font-stretch:normal;font-size:50.79999924px;line-height:125%;font-family:Ubuntu;-inkscape-font-specification:'Ubuntu, Bold';text-align:start;writing-mode:lr-tb;text-anchor:start"
           id="path4460" />
        <path
           d="m 169.61905,118.75561 q 0,6.5024 1.8796,12.0396 1.8796,5.5372 5.5372,10.2616 l -3.3528,2.286 q -3.9624,-4.826 -6.4008,-11.0744 -2.3876,-6.2992 -2.3876,-13.5128 0,-7.2136 2.3876,-13.462 2.4384,-6.299201 6.4008,-11.1252 l 3.3528,2.286 q -3.6576,4.7244 -5.5372,10.2616 -1.8796,5.5372 -1.8796,12.0396 z"
           style="font-style:normal;font-variant:normal;font-weight:normal;font-stretch:normal;font-size:50.79999924px;line-height:125%;font-family:Ubuntu;-inkscape-font-specification:'Ubuntu, Normal';text-align:start;writing-mode:lr-tb;text-anchor:start"
           id="path4462" />
        <path
           d="m 180.60297,119.82241 q 0,-5.1308 1.4224,-9.0424 1.4224,-3.9624 4.0132,-6.6548 2.6416,-2.6924 6.35,-4.064 3.7592,-1.422401 8.4328,-1.473201 l 0.3556,3.962401 q -2.9972,0.0508 -5.4864,0.6604 -2.4384,0.6096 -4.3688,1.9304 -1.9304,1.3208 -3.2512,3.4544 -1.3208,2.0828 -1.9812,5.1816 1.3208,-0.6096 2.9464,-1.016 1.6764,-0.4064 3.4544,-0.4064 2.9972,0 5.08,0.9144 2.0828,0.9144 3.4036,2.4384 1.3208,1.4732 1.8796,3.4544 0.6096,1.9304 0.6096,4.064 0,1.9304 -0.6604,3.9624 -0.6604,2.032 -2.032,3.7084 -1.3208,1.6764 -3.4036,2.7432 -2.0828,1.0668 -4.9276,1.0668 -5.7912,0 -8.8392,-3.9624 -2.9972,-3.9624 -2.9972,-10.922 z m 11.3792,-3.6068 q -1.778,0 -3.302,0.3556 -1.524,0.3048 -3.048,0.9652 -0.0508,0.5588 -0.1016,1.1684 0,0.5588 0,1.1176 0,2.2352 0.3048,4.2164 0.3048,1.9812 1.0668,3.5052 0.8128,1.4732 2.1336,2.3876 1.3208,0.8636 3.3528,0.8636 1.6764,0 2.8448,-0.7112 1.1684,-0.7112 1.9304,-1.8288 0.762,-1.1176 1.0668,-2.3876 0.3556,-1.3208 0.3556,-2.54 0,-3.4544 -1.6764,-5.2832 -1.6256,-1.8288 -4.9276,-1.8288 z"
           style="font-style:normal;font-variant:normal;font-weight:normal;font-stretch:normal;font-size:50.79999924px;line-height:125%;font-family:Ubuntu;-inkscape-font-specification:'Ubuntu, Normal';text-align:start;writing-mode:lr-tb;text-anchor:start"
           id="path4464" />
        <path
           d="m 215.11919,128.15361 q 0.0508,0.4064 0.0508,0.8128 0,0.3556 0,0.762 0,3.2004 -0.9652,6.2992 -0.9144,3.1496 -2.54,5.9944 l -3.6576,-1.1684 q 1.27,-2.5908 1.6764,-5.2832 0.4064,-2.6416 0.4064,-4.9784 0,-0.6604 -0.0508,-1.27 0,-0.6096 -0.0508,-1.1684 l 5.1308,0 z"
           style="font-style:normal;font-variant:normal;font-weight:normal;font-stretch:normal;font-size:50.79999924px;line-height:125%;font-family:Ubuntu;-inkscape-font-specification:'Ubuntu, Normal';text-align:start;writing-mode:lr-tb;text-anchor:start"
           id="path4466" />
        <path
           d="m 221.11835,116.31721 q 0,-8.8392 3.0988,-13.6144 3.1496,-4.7752 8.6868,-4.7752 5.5372,0 8.636,4.7752 3.1496,4.7752 3.1496,13.6144 0,8.8392 -3.1496,13.6144 -3.0988,4.7752 -8.636,4.7752 -5.5372,0 -8.6868,-4.7752 -3.0988,-4.7752 -3.0988,-13.6144 z m 18.5928,0 q 0,-2.8956 -0.3556,-5.4864 -0.3048,-2.5908 -1.1176,-4.5212 -0.762,-1.9304 -2.0828,-3.048 -1.3208,-1.1684 -3.2512,-1.1684 -1.9304,0 -3.2512,1.1684 -1.3208,1.1176 -2.1336,3.048 -0.762,1.9304 -1.1176,4.5212 -0.3048,2.5908 -0.3048,5.4864 0,2.8956 0.3048,5.4864 0.3556,2.5908 1.1176,4.5212 0.8128,1.9304 2.1336,3.0988 1.3208,1.1176 3.2512,1.1176 1.9304,0 3.2512,-1.1176 1.3208,-1.1684 2.0828,-3.0988 0.8128,-1.9304 1.1176,-4.5212 0.3556,-2.5908 0.3556,-5.4864 z"
           style="font-style:normal;font-variant:normal;font-weight:normal;font-stretch:normal;font-size:50.79999924px;line-height:125%;font-family:Ubuntu;-inkscape-font-specification:'Ubuntu, Normal';text-align:start;writing-mode:lr-tb;text-anchor:start"
           id="path4468" />
        <path
           d="m 255.02497,118.75561 q 0,-6.5024 -1.8796,-12.0396 -1.8796,-5.5372 -5.5372,-10.2616 l 3.3528,-2.286 q 3.9624,4.825999 6.35,11.1252 2.4384,6.2484 2.4384,13.462 0,7.2136 -2.4384,13.5128 -2.3876,6.2484 -6.35,11.0744 l -3.3528,-2.286 q 3.6576,-4.7244 5.5372,-10.2616 1.8796,-5.5372 1.8796,-12.0396 z"
           style="font-style:normal;font-variant:normal;font-weight:normal;font-stretch:normal;font-size:50.79999924px;line-height:125%;font-family:Ubuntu;-inkscape-font-specification:'Ubuntu, Normal';text-align:start;writing-mode:lr-tb;text-anchor:start"
           id="path4470" />
      </g>
    </g>
    <g
       style="font-style:normal;font-weight:normal;font-size:13.00888062px;line-height:125%;font-family:sans-serif;letter-spacing:0px;word-spacing:0px;fill:#000000;fill-opacity:1;stroke:none;stroke-width:1px;stroke-linecap:butt;stroke-linejoin:miter;stroke-opacity:1"
       id="text4424">
      <path
         d="m 101.69582,136.01503 0,1.09274 -2.835941,0 0,7.92241 -1.261861,0 0,-7.92241 -2.835936,0 0,-1.09274 6.933738,0 z"
         style="font-style:normal;font-variant:normal;font-weight:normal;font-stretch:normal;font-size:13.00888062px;line-height:125%;font-family:Ubuntu;-inkscape-font-specification:'Ubuntu, Normal';text-align:start;writing-mode:lr-tb;text-anchor:start"
         id="path4486" />
      <path
         d="m 101.87428,141.66088 q 0,-0.89761 0.26018,-1.56106 0.26018,-0.67647 0.68947,-1.11877 0.42929,-0.4423 0.98867,-0.66345 0.55939,-0.22115 1.14479,-0.22115 1.36593,0 2.09443,0.85858 0.72849,0.84558 0.72849,2.58877 0,0.0781 0,0.20814 0,0.11708 -0.013,0.22115 l -4.63116,0 q 0.0781,1.05372 0.61142,1.6001 0.53336,0.54637 1.66514,0.54637 0.63743,0 1.06672,-0.10407 0.44231,-0.11708 0.66346,-0.22115 l 0.16911,1.01469 q -0.22115,0.11708 -0.78053,0.24717 -0.54637,0.13009 -1.24885,0.13009 -0.88461,0 -1.53505,-0.26018 -0.63744,-0.27319 -1.05372,-0.74151 -0.41628,-0.46832 -0.62443,-1.10575 -0.19513,-0.65044 -0.19513,-1.41797 z m 4.64417,-0.66345 q 0.013,-0.81956 -0.41628,-1.33992 -0.41629,-0.53336 -1.15779,-0.53336 -0.41629,0 -0.74151,0.16912 -0.31221,0.1561 -0.53336,0.41628 -0.22115,0.26018 -0.35124,0.59841 -0.11708,0.33823 -0.15611,0.68947 l 3.35629,0 z"
         style="font-style:normal;font-variant:normal;font-weight:normal;font-stretch:normal;font-size:13.00888062px;line-height:125%;font-family:Ubuntu;-inkscape-font-specification:'Ubuntu, Normal';text-align:start;writing-mode:lr-tb;text-anchor:start"
         id="path4488" />
      <path
         d="m 111.09229,144.15859 q 0.74151,0 1.09275,-0.19514 0.36425,-0.19513 0.36425,-0.62442 0,-0.4423 -0.35124,-0.70248 -0.35124,-0.26018 -1.15779,-0.5854 -0.39027,-0.15611 -0.75452,-0.31221 -0.35124,-0.16912 -0.61142,-0.39027 -0.26017,-0.22115 -0.41628,-0.53337 -0.15611,-0.31221 -0.15611,-0.76752 0,-0.89761 0.66346,-1.41797 0.66345,-0.53336 1.80823,-0.53336 0.2862,0 0.57239,0.039 0.2862,0.026 0.53337,0.078 0.24716,0.039 0.42929,0.0911 0.19513,0.052 0.2992,0.0911 l -0.22115,1.04071 q -0.19513,-0.10407 -0.61142,-0.20814 -0.41628,-0.11708 -1.00168,-0.11708 -0.50735,0 -0.8846,0.20814 -0.37726,0.19514 -0.37726,0.62443 0,0.22115 0.078,0.39027 0.0911,0.16911 0.26018,0.31221 0.18212,0.13009 0.4423,0.24717 0.26018,0.11708 0.62443,0.24717 0.48133,0.18212 0.85858,0.36425 0.37726,0.16911 0.63744,0.40327 0.27319,0.23416 0.41628,0.57239 0.1431,0.32522 0.1431,0.80655 0,0.93664 -0.70248,1.41797 -0.68947,0.48133 -1.97735,0.48133 -0.89761,0 -1.40496,-0.15611 -0.50734,-0.1431 -0.68947,-0.22115 l 0.22115,-1.04071 q 0.20814,0.0781 0.66346,0.23416 0.45531,0.15611 1.20982,0.15611 z"
         style="font-style:normal;font-variant:normal;font-weight:normal;font-stretch:normal;font-size:13.00888062px;line-height:125%;font-family:Ubuntu;-inkscape-font-specification:'Ubuntu, Normal';text-align:start;writing-mode:lr-tb;text-anchor:start"
         id="path4490" />
      <path
         d="m 116.44301,138.26556 2.56275,0 0,1.0147 -2.56275,0 0,3.12213 q 0,0.50734 0.0781,0.84558 0.078,0.32522 0.23416,0.52035 0.15611,0.18212 0.39027,0.26018 0.23416,0.078 0.54637,0.078 0.54637,0 0.8716,-0.11708 0.33823,-0.13009 0.46832,-0.18212 l 0.23416,1.00168 q -0.18213,0.0911 -0.63744,0.22115 -0.45531,0.1431 -1.04071,0.1431 -0.68947,0 -1.14478,-0.16912 -0.4423,-0.18212 -0.71549,-0.53336 -0.27319,-0.35124 -0.39027,-0.85859 -0.10407,-0.52035 -0.10407,-1.19681 l 0,-6.03612 1.20983,-0.20815 0,2.09443 z"
         style="font-style:normal;font-variant:normal;font-weight:normal;font-stretch:normal;font-size:13.00888062px;line-height:125%;font-family:Ubuntu;-inkscape-font-specification:'Ubuntu, Normal';text-align:start;writing-mode:lr-tb;text-anchor:start"
         id="path4492" />
      <path
         d="m 125.93095,144.83505 q -0.41628,0.10407 -1.10575,0.22115 -0.67646,0.11708 -1.57408,0.11708 -0.78053,0 -1.31389,-0.22115 -0.53337,-0.23416 -0.85859,-0.65045 -0.32522,-0.41628 -0.46832,-0.97566 -0.1431,-0.57239 -0.1431,-1.26186 l 0,-3.7986 1.20983,0 0,3.53842 q 0,1.23584 0.39027,1.76921 0.39026,0.53336 1.31389,0.53336 0.19514,0 0.40328,-0.013 0.20814,-0.013 0.39026,-0.026 0.18213,-0.026 0.32523,-0.039 0.1561,-0.026 0.22115,-0.052 l 0,-5.7109 1.20982,0 0,6.56949 z"
         style="font-style:normal;font-variant:normal;font-weight:normal;font-stretch:normal;font-size:13.00888062px;line-height:125%;font-family:Ubuntu;-inkscape-font-specification:'Ubuntu, Normal';text-align:start;writing-mode:lr-tb;text-anchor:start"
         id="path4494" />
      <path
         d="m 130.51293,138.12247 q 0.1561,0 0.35124,0.026 0.20814,0.013 0.40327,0.052 0.19513,0.026 0.35124,0.065 0.16912,0.026 0.24717,0.052 l -0.20814,1.05372 q -0.1431,-0.052 -0.48133,-0.11708 -0.32522,-0.0781 -0.84558,-0.0781 -0.33823,0 -0.67646,0.0781 -0.32522,0.065 -0.42929,0.0911 l 0,5.68488 -1.20983,0 0,-6.47842 q 0.42929,-0.15611 1.06673,-0.2862 0.63743,-0.14309 1.43098,-0.14309 z"
         style="font-style:normal;font-variant:normal;font-weight:normal;font-stretch:normal;font-size:13.00888062px;line-height:125%;font-family:Ubuntu;-inkscape-font-specification:'Ubuntu, Normal';text-align:start;writing-mode:lr-tb;text-anchor:start"
         id="path4496" />
      <path
         d="m 134.17777,138.26556 2.56275,0 0,1.0147 -2.56275,0 0,3.12213 q 0,0.50734 0.078,0.84558 0.0781,0.32522 0.23416,0.52035 0.15611,0.18212 0.39027,0.26018 0.23416,0.078 0.54637,0.078 0.54638,0 0.8716,-0.11708 0.33823,-0.13009 0.46832,-0.18212 l 0.23416,1.00168 q -0.18213,0.0911 -0.63744,0.22115 -0.45531,0.1431 -1.04071,0.1431 -0.68947,0 -1.14478,-0.16912 -0.4423,-0.18212 -0.71549,-0.53336 -0.27318,-0.35124 -0.39026,-0.85859 -0.10408,-0.52035 -0.10408,-1.19681 l 0,-6.03612 1.20983,-0.20815 0,2.09443 z"
         style="font-style:normal;font-variant:normal;font-weight:normal;font-stretch:normal;font-size:13.00888062px;line-height:125%;font-family:Ubuntu;-inkscape-font-specification:'Ubuntu, Normal';text-align:start;writing-mode:lr-tb;text-anchor:start"
         id="path4498" />
      <path
         d="m 137.77574,141.66088 q 0,-0.89761 0.26018,-1.56106 0.26018,-0.67647 0.68947,-1.11877 0.42929,-0.4423 0.98868,-0.66345 0.55938,-0.22115 1.14478,-0.22115 1.36593,0 2.09443,0.85858 0.72849,0.84558 0.72849,2.58877 0,0.0781 0,0.20814 0,0.11708 -0.013,0.22115 l -4.63117,0 q 0.0781,1.05372 0.61142,1.6001 0.53337,0.54637 1.66514,0.54637 0.63743,0 1.06673,-0.10407 0.4423,-0.11708 0.66345,-0.22115 l 0.16911,1.01469 q -0.22115,0.11708 -0.78053,0.24717 -0.54637,0.13009 -1.24885,0.13009 -0.8846,0 -1.53505,-0.26018 -0.63743,-0.27319 -1.05372,-0.74151 -0.41628,-0.46832 -0.62442,-1.10575 -0.19514,-0.65044 -0.19514,-1.41797 z m 4.64417,-0.66345 q 0.013,-0.81956 -0.41628,-1.33992 -0.41629,-0.53336 -1.15779,-0.53336 -0.41629,0 -0.74151,0.16912 -0.31221,0.1561 -0.53336,0.41628 -0.22115,0.26018 -0.35124,0.59841 -0.11708,0.33823 -0.15611,0.68947 l 3.35629,0 z"
         style="font-style:normal;font-variant:normal;font-weight:normal;font-stretch:normal;font-size:13.00888062px;line-height:125%;font-family:Ubuntu;-inkscape-font-specification:'Ubuntu, Normal';text-align:start;writing-mode:lr-tb;text-anchor:start"
         id="path4500" />
      <path
         d="m 146.6295,145.03018 -1.20982,0 0,-6.76462 1.20982,0 0,6.76462 z m -0.61141,-7.98745 q -0.32523,0 -0.55939,-0.20814 -0.22115,-0.22115 -0.22115,-0.5854 0,-0.36425 0.22115,-0.57239 0.23416,-0.22115 0.55939,-0.22115 0.32522,0 0.54637,0.22115 0.23416,0.20814 0.23416,0.57239 0,0.36425 -0.23416,0.5854 -0.22115,0.20814 -0.54637,0.20814 z"
         style="font-style:normal;font-variant:normal;font-weight:normal;font-stretch:normal;font-size:13.00888062px;line-height:125%;font-family:Ubuntu;-inkscape-font-specification:'Ubuntu, Normal';text-align:start;writing-mode:lr-tb;text-anchor:start"
         id="path4502" />
      <path
         d="m 150.7521,145.16027 q -1.11876,-0.026 -1.58708,-0.48133 -0.46832,-0.45531 -0.46832,-1.41797 l 0,-8.11754 1.20982,-0.20814 0,8.13055 q 0,0.29921 0.052,0.49434 0.052,0.19513 0.16911,0.31221 0.11708,0.11708 0.31222,0.18213 0.19513,0.052 0.48132,0.0911 l -0.16911,1.01469 z"
         style="font-style:normal;font-variant:normal;font-weight:normal;font-stretch:normal;font-size:13.00888062px;line-height:125%;font-family:Ubuntu;-inkscape-font-specification:'Ubuntu, Normal';text-align:start;writing-mode:lr-tb;text-anchor:start"
         id="path4504" />
      <path
         d="m 153.71081,144.3277 q 0,0.35124 -0.23416,0.61142 -0.23416,0.26018 -0.63744,0.26018 -0.40327,0 -0.63743,-0.26018 -0.23416,-0.26018 -0.23416,-0.61142 0,-0.35124 0.23416,-0.61142 0.23416,-0.26017 0.63743,-0.26017 0.40328,0 0.63744,0.26017 0.23416,0.26018 0.23416,0.61142 z m 0,-5.19054 q 0,0.35124 -0.23416,0.61142 -0.23416,0.26017 -0.63744,0.26017 -0.40327,0 -0.63743,-0.26017 -0.23416,-0.26018 -0.23416,-0.61142 0,-0.35124 0.23416,-0.61142 0.23416,-0.26018 0.63743,-0.26018 0.40328,0 0.63744,0.26018 0.23416,0.26018 0.23416,0.61142 z"
         style="font-style:normal;font-variant:normal;font-weight:normal;font-stretch:normal;font-size:13.00888062px;line-height:125%;font-family:Ubuntu;-inkscape-font-specification:'Ubuntu, Normal';text-align:start;writing-mode:lr-tb;text-anchor:start"
         id="path4506" />
      <path
         d="m 158.19318,140.5161 q 0,-1.15779 0.33823,-2.04239 0.35124,-0.88461 0.93664,-1.47001 0.59841,-0.59841 1.37894,-0.89761 0.79354,-0.2992 1.67815,-0.2992 0.87159,0 1.63911,0.2992 0.78054,0.2992 1.36594,0.89761 0.5854,0.5854 0.92363,1.47001 0.35124,0.8846 0.35124,2.04239 0,1.01469 -0.26018,1.80823 -0.26018,0.79355 -0.7285,1.37895 -0.45531,0.57239 -1.07973,0.93664 -0.61142,0.35124 -1.3139,0.48132 0.013,0.29921 0.26018,0.52036 0.26017,0.23416 0.65044,0.39027 0.39027,0.1561 0.8716,0.26017 0.48132,0.10407 0.96265,0.15611 l -0.2992,0.98867 q -0.67646,-0.0911 -1.30089,-0.24716 -0.61142,-0.1431 -1.11876,-0.39027 -0.49434,-0.24717 -0.83257,-0.63744 -0.33823,-0.37725 -0.45531,-0.94964 -0.81956,-0.052 -1.54806,-0.37726 -0.7285,-0.33823 -1.26186,-0.92363 -0.53337,-0.59841 -0.84558,-1.44399 -0.31221,-0.84557 -0.31221,-1.95133 z m 1.3269,0 q 0,0.81956 0.20815,1.49602 0.20814,0.66345 0.5854,1.13177 0.39026,0.46832 0.93664,0.7285 0.55938,0.24717 1.24885,0.24717 0.68947,0 1.23584,-0.24717 0.54637,-0.26018 0.92363,-0.7285 0.39027,-0.46832 0.59841,-1.13177 0.20814,-0.67646 0.20814,-1.49602 0,-0.81956 -0.20814,-1.48301 -0.20814,-0.67646 -0.59841,-1.14478 -0.37726,-0.46832 -0.92363,-0.71549 -0.54637,-0.26018 -1.23584,-0.26018 -0.68947,0 -1.24885,0.26018 -0.54638,0.24717 -0.93664,0.71549 -0.37726,0.46832 -0.5854,1.14478 -0.20815,0.66345 -0.20815,1.48301 z"
         style="font-style:normal;font-variant:normal;font-weight:normal;font-stretch:normal;font-size:13.00888062px;line-height:125%;font-family:Ubuntu;-inkscape-font-specification:'Ubuntu, Normal';text-align:start;writing-mode:lr-tb;text-anchor:start"
         id="path4508" />
      <path
         d="m 173.97743,144.83505 q -0.41629,0.10407 -1.10576,0.22115 -0.67646,0.11708 -1.57407,0.11708 -0.78053,0 -1.3139,-0.22115 -0.53336,-0.23416 -0.85858,-0.65045 -0.32523,-0.41628 -0.46832,-0.97566 -0.1431,-0.57239 -0.1431,-1.26186 l 0,-3.7986 1.20982,0 0,3.53842 q 0,1.23584 0.39027,1.76921 0.39027,0.53336 1.3139,0.53336 0.19513,0 0.40327,-0.013 0.20814,-0.013 0.39027,-0.026 0.18212,-0.026 0.32522,-0.039 0.15611,-0.026 0.22115,-0.052 l 0,-5.7109 1.20983,0 0,6.56949 z"
         style="font-style:normal;font-variant:normal;font-weight:normal;font-stretch:normal;font-size:13.00888062px;line-height:125%;font-family:Ubuntu;-inkscape-font-specification:'Ubuntu, Normal';text-align:start;writing-mode:lr-tb;text-anchor:start"
         id="path4510" />
      <path
         d="m 178.35125,144.15859 q 0.4293,0 0.75452,-0.013 0.33823,-0.026 0.55938,-0.0781 l 0,-2.01637 q -0.13009,-0.0651 -0.42929,-0.10407 -0.2862,-0.052 -0.70248,-0.052 -0.27319,0 -0.5854,0.039 -0.29921,0.039 -0.55938,0.16911 -0.24717,0.11708 -0.41629,0.33823 -0.16911,0.20815 -0.16911,0.55939 0,0.65044 0.41628,0.91062 0.41629,0.24717 1.13177,0.24717 z m -0.10407,-6.06214 q 0.7285,0 1.22284,0.19513 0.50734,0.18213 0.80655,0.53337 0.31221,0.33823 0.4423,0.81956 0.13009,0.46832 0.13009,1.04071 l 0,4.22788 q -0.15611,0.026 -0.4423,0.0781 -0.27319,0.039 -0.62443,0.078 -0.35124,0.039 -0.76752,0.065 -0.40328,0.039 -0.80655,0.039 -0.57239,0 -1.05372,-0.11708 -0.48133,-0.11708 -0.83257,-0.36425 -0.35124,-0.26018 -0.54637,-0.67646 -0.19514,-0.41628 -0.19514,-1.00168 0,-0.55939 0.22115,-0.96266 0.23416,-0.40328 0.62443,-0.65045 0.39027,-0.24716 0.91062,-0.36424 0.52036,-0.11708 1.09275,-0.11708 0.18212,0 0.37726,0.026 0.19513,0.013 0.36424,0.052 0.18213,0.026 0.31222,0.052 0.13009,0.026 0.18212,0.039 l 0,-0.33823 q 0,-0.2992 -0.065,-0.5854 -0.0651,-0.2992 -0.23416,-0.52035 -0.16912,-0.23416 -0.46832,-0.36425 -0.2862,-0.1431 -0.75452,-0.1431 -0.59841,0 -1.05372,0.0911 -0.4423,0.0781 -0.66345,0.16912 l -0.1431,-1.00169 q 0.23416,-0.10407 0.78054,-0.19513 0.54637,-0.10407 1.1838,-0.10407 z"
         style="font-style:normal;font-variant:normal;font-weight:normal;font-stretch:normal;font-size:13.00888062px;line-height:125%;font-family:Ubuntu;-inkscape-font-specification:'Ubuntu, Normal';text-align:start;writing-mode:lr-tb;text-anchor:start"
         id="path4512" />
      <path
         d="m 183.97739,138.26556 2.56275,0 0,1.0147 -2.56275,0 0,3.12213 q 0,0.50734 0.0781,0.84558 0.078,0.32522 0.23415,0.52035 0.15611,0.18212 0.39027,0.26018 0.23416,0.078 0.54637,0.078 0.54638,0 0.8716,-0.11708 0.33823,-0.13009 0.46832,-0.18212 l 0.23416,1.00168 q -0.18213,0.0911 -0.63744,0.22115 -0.45531,0.1431 -1.04071,0.1431 -0.68947,0 -1.14478,-0.16912 -0.4423,-0.18212 -0.71549,-0.53336 -0.27318,-0.35124 -0.39026,-0.85859 -0.10407,-0.52035 -0.10407,-1.19681 l 0,-6.03612 1.20982,-0.20815 0,2.09443 z"
         style="font-style:normal;font-variant:normal;font-weight:normal;font-stretch:normal;font-size:13.00888062px;line-height:125%;font-family:Ubuntu;-inkscape-font-specification:'Ubuntu, Normal';text-align:start;writing-mode:lr-tb;text-anchor:start"
         id="path4514" />
      <path
         d="m 189.65373,144.15859 q 0.74151,0 1.09275,-0.19514 0.36425,-0.19513 0.36425,-0.62442 0,-0.4423 -0.35124,-0.70248 -0.35124,-0.26018 -1.15779,-0.5854 -0.39027,-0.15611 -0.75452,-0.31221 -0.35124,-0.16912 -0.61141,-0.39027 -0.26018,-0.22115 -0.41629,-0.53337 -0.15611,-0.31221 -0.15611,-0.76752 0,-0.89761 0.66346,-1.41797 0.66345,-0.53336 1.80823,-0.53336 0.2862,0 0.57239,0.039 0.2862,0.026 0.53337,0.078 0.24717,0.039 0.42929,0.0911 0.19513,0.052 0.2992,0.0911 l -0.22115,1.04071 q -0.19513,-0.10407 -0.61141,-0.20814 -0.41629,-0.11708 -1.00169,-0.11708 -0.50734,0 -0.8846,0.20814 -0.37726,0.19514 -0.37726,0.62443 0,0.22115 0.078,0.39027 0.0911,0.16911 0.26018,0.31221 0.18213,0.13009 0.4423,0.24717 0.26018,0.11708 0.62443,0.24717 0.48133,0.18212 0.85859,0.36425 0.37725,0.16911 0.63743,0.40327 0.27319,0.23416 0.41628,0.57239 0.1431,0.32522 0.1431,0.80655 0,0.93664 -0.70248,1.41797 -0.68947,0.48133 -1.97735,0.48133 -0.89761,0 -1.40496,-0.15611 -0.50734,-0.1431 -0.68947,-0.22115 l 0.22115,-1.04071 q 0.20815,0.0781 0.66346,0.23416 0.45531,0.15611 1.20982,0.15611 z"
         style="font-style:normal;font-variant:normal;font-weight:normal;font-stretch:normal;font-size:13.00888062px;line-height:125%;font-family:Ubuntu;-inkscape-font-specification:'Ubuntu, Normal';text-align:start;writing-mode:lr-tb;text-anchor:start"
         id="path4516" />
      <path
         d="m 196.81269,145.18629 q -0.81956,0 -1.44399,-0.26018 -0.61142,-0.26018 -1.04071,-0.7285 -0.41628,-0.46832 -0.62442,-1.10575 -0.20815,-0.65045 -0.20815,-1.43098 0,-0.78053 0.22115,-1.43098 0.23416,-0.65044 0.65045,-1.11876 0.41628,-0.48133 1.01469,-0.7415 0.61142,-0.27319 1.35292,-0.27319 0.45532,0 0.91063,0.078 0.45531,0.0781 0.87159,0.24717 l -0.27319,1.0277 q -0.27318,-0.13009 -0.63743,-0.20814 -0.35124,-0.078 -0.75452,-0.078 -1.01469,0 -1.56106,0.63743 -0.53337,0.63744 -0.53337,1.86027 0,0.54637 0.11708,1.00169 0.13009,0.45531 0.39027,0.78053 0.27319,0.32522 0.68947,0.50734 0.41629,0.16912 1.01469,0.16912 0.48133,0 0.8716,-0.0911 0.39027,-0.0911 0.61142,-0.19514 l 0.16911,1.0147 q -0.10407,0.065 -0.2992,0.13009 -0.19514,0.052 -0.4423,0.0911 -0.24717,0.052 -0.53337,0.078 -0.27318,0.039 -0.53336,0.039 z"
         style="font-style:normal;font-variant:normal;font-weight:normal;font-stretch:normal;font-size:13.00888062px;line-height:125%;font-family:Ubuntu;-inkscape-font-specification:'Ubuntu, Normal';text-align:start;writing-mode:lr-tb;text-anchor:start"
         id="path4518" />
      <path
         d="m 199.91978,145.03018 0,-9.88675 1.20982,-0.20814 0,3.46036 q 0.33823,-0.13009 0.71549,-0.19513 0.39027,-0.0781 0.76753,-0.0781 0.80655,0 1.33991,0.23416 0.53336,0.22115 0.84558,0.63743 0.32522,0.40328 0.45531,0.97567 0.13009,0.57239 0.13009,1.26186 l 0,3.79859 -1.20983,0 0,-3.53841 q 0,-0.62443 -0.0911,-1.06673 -0.078,-0.4423 -0.27319,-0.71549 -0.19513,-0.27319 -0.52035,-0.39027 -0.32523,-0.13009 -0.80655,-0.13009 -0.19514,0 -0.40328,0.026 -0.20814,0.026 -0.40327,0.065 -0.18213,0.026 -0.33824,0.065 -0.14309,0.039 -0.20814,0.065 l 0,5.61983 -1.20982,0 z"
         style="font-style:normal;font-variant:normal;font-weight:normal;font-stretch:normal;font-size:13.00888062px;line-height:125%;font-family:Ubuntu;-inkscape-font-specification:'Ubuntu, Normal';text-align:start;writing-mode:lr-tb;text-anchor:start"
         id="path4520" />
    </g>
    <g
       style="font-style:normal;font-variant:normal;font-weight:normal;font-stretch:normal;font-size:18.72802544px;line-height:125%;font-family:Ubuntu;-inkscape-font-specification:'Ubuntu, Normal';text-align:start;letter-spacing:0px;word-spacing:0px;writing-mode:lr-tb;text-anchor:start;fill:#000000;fill-opacity:1;stroke:none;stroke-width:1px;stroke-linecap:butt;stroke-linejoin:miter;stroke-opacity:1"
       id="text4449"
       transform="translate(-0.4106222,-0.82124439)">
      <path
         d="m 210.20375,186.52406 q 0,-3.25867 1.14241,-5.01911 1.16114,-1.76043 3.20249,-1.76043 2.04136,0 3.18377,1.76043 1.16113,1.76044 1.16113,5.01911 0,3.25868 -1.16113,5.01912 -1.14241,1.76043 -3.18377,1.76043 -2.04135,0 -3.20249,-1.76043 -1.14241,-1.76044 -1.14241,-5.01912 z m 6.85446,0 q 0,-1.06749 -0.1311,-2.02262 -0.11237,-0.95513 -0.41201,-1.6668 -0.28093,-0.71166 -0.76785,-1.12368 -0.48693,-0.43074 -1.1986,-0.43074 -0.71166,0 -1.19859,0.43074 -0.48693,0.41202 -0.78658,1.12368 -0.28092,0.71167 -0.41201,1.6668 -0.11237,0.95513 -0.11237,2.02262 0,1.0675 0.11237,2.02263 0.13109,0.95513 0.41201,1.6668 0.29965,0.71166 0.78658,1.14241 0.48693,0.41201 1.19859,0.41201 0.71167,0 1.1986,-0.41201 0.48692,-0.43075 0.76785,-1.14241 0.29964,-0.71167 0.41201,-1.6668 0.1311,-0.95513 0.1311,-2.02263 z"
         id="path4523"
         inkscape:connector-curvature="0" />
      <path
         d="m 221.58015,182.72228 q 1.0675,-0.41202 2.07881,-1.04877 1.01131,-0.65548 1.85407,-1.62934 l 1.23605,0 0,12.97852 -1.7417,0 0,-10.56261 q -0.22474,0.20601 -0.56184,0.43075 -0.31838,0.22473 -0.71167,0.43074 -0.37456,0.20601 -0.8053,0.39329 -0.41202,0.18728 -0.80531,0.31838 l -0.54311,-1.31096 z"
         id="path4525"
         inkscape:connector-curvature="0" />
      <path
         d="m 231.73922,196.48737 -1.77916,0 6.3488,-18.12872 1.74171,0 -6.31135,18.12872 z"
         id="path4527"
         inkscape:connector-curvature="0" />
      <path
         d="m 246.36142,183.35903 q 0,0.67421 -0.28092,1.31096 -0.26219,0.61803 -0.71166,1.23605 -0.44948,0.5993 -1.01132,1.19859 -0.56184,0.58057 -1.12368,1.14241 -0.31837,0.31838 -0.74912,0.74912 -0.41202,0.43075 -0.78658,0.89895 -0.37456,0.4682 -0.63675,0.89894 -0.24346,0.43075 -0.24346,0.74913 l 5.97424,0 0,1.47951 -7.86577,0 q -0.0187,-0.11237 -0.0187,-0.22474 0,-0.11236 0,-0.206 0,-0.88022 0.28092,-1.62934 0.29965,-0.76785 0.76785,-1.44206 0.4682,-0.67421 1.04877,-1.27351 0.58057,-0.59929 1.14241,-1.16113 0.4682,-0.44948 0.88021,-0.88022 0.43075,-0.44947 0.74913,-0.88022 0.3371,-0.44947 0.52438,-0.91767 0.20601,-0.4682 0.20601,-0.99259 0,-0.56184 -0.18728,-0.95513 -0.16855,-0.39329 -0.4682,-0.65548 -0.29965,-0.26219 -0.71167,-0.37456 -0.39329,-0.13109 -0.84276,-0.13109 -0.54311,0 -0.99258,0.14982 -0.44948,0.14982 -0.80531,0.35583 -0.35583,0.18728 -0.5993,0.41202 -0.24346,0.20601 -0.37456,0.31838 l -0.86149,-1.23605 q 0.16856,-0.18728 0.50566,-0.44948 0.33711,-0.28092 0.80531,-0.52438 0.4682,-0.24347 1.04877,-0.41202 0.58056,-0.16855 1.25477,-0.16855 2.04136,0 3.05267,0.95513 1.03004,0.9364 1.03004,2.65938 z"
         id="path4529"
         inkscape:connector-curvature="0" />
      <path
         d="m 249.12293,186.52406 q 0,-3.25867 1.14241,-5.01911 1.16114,-1.76043 3.20249,-1.76043 2.04136,0 3.18376,1.76043 1.16114,1.76044 1.16114,5.01911 0,3.25868 -1.16114,5.01912 -1.1424,1.76043 -3.18376,1.76043 -2.04135,0 -3.20249,-1.76043 -1.14241,-1.76044 -1.14241,-5.01912 z m 6.85446,0 q 0,-1.06749 -0.1311,-2.02262 -0.11237,-0.95513 -0.41202,-1.6668 -0.28092,-0.71166 -0.76785,-1.12368 -0.48692,-0.43074 -1.19859,-0.43074 -0.71166,0 -1.19859,0.43074 -0.48693,0.41202 -0.78658,1.12368 -0.28092,0.71167 -0.41202,1.6668 -0.11236,0.95513 -0.11236,2.02262 0,1.0675 0.11236,2.02263 0.1311,0.95513 0.41202,1.6668 0.29965,0.71166 0.78658,1.14241 0.48693,0.41201 1.19859,0.41201 0.71167,0 1.19859,-0.41201 0.48693,-0.43075 0.76785,-1.14241 0.29965,-0.71167 0.41202,-1.6668 0.1311,-0.95513 0.1311,-2.02263 z"
         id="path4531"
         inkscape:connector-curvature="0" />
      <path
         d="m 260.49933,182.72228 q 1.0675,-0.41202 2.07881,-1.04877 1.01131,-0.65548 1.85407,-1.62934 l 1.23605,0 0,12.97852 -1.7417,0 0,-10.56261 q -0.22474,0.20601 -0.56184,0.43075 -0.31838,0.22473 -0.71167,0.43074 -0.37456,0.20601 -0.8053,0.39329 -0.41202,0.18728 -0.80531,0.31838 l -0.54311,-1.31096 z"
         id="path4533"
         inkscape:connector-curvature="0" />
      <path
         d="m 270.50858,187.8163 q 0,-1.89153 0.52438,-3.33359 0.52439,-1.46079 1.47952,-2.45337 0.97385,-0.99259 2.341,-1.49824 1.38587,-0.52439 3.10885,-0.54312 l 0.1311,1.46079 q -1.10496,0.0187 -2.02263,0.24346 -0.89894,0.22474 -1.61061,0.71167 -0.71166,0.48693 -1.19859,1.27351 -0.48693,0.76784 -0.7304,1.91025 0.48693,-0.22473 1.08623,-0.37456 0.61803,-0.14982 1.27351,-0.14982 1.10495,0 1.8728,0.3371 0.76785,0.33711 1.25478,0.89895 0.48692,0.54311 0.69293,1.2735 0.22474,0.71167 0.22474,1.49825 0,0.71166 -0.24346,1.46078 -0.24347,0.74912 -0.74913,1.36715 -0.48692,0.61802 -1.25477,1.01131 -0.76785,0.39329 -1.81662,0.39329 -2.135,0 -3.25868,-1.46079 -1.10495,-1.46078 -1.10495,-4.02652 z m 4.19508,-1.32969 q -0.65549,0 -1.21733,0.1311 -0.56184,0.11236 -1.12368,0.35583 -0.0187,0.20601 -0.0374,0.43074 0,0.20601 0,0.41202 0,0.82403 0.11236,1.55442 0.11237,0.7304 0.39329,1.29224 0.29965,0.54311 0.78658,0.88022 0.48693,0.31837 1.23605,0.31837 0.61802,0 1.04877,-0.26219 0.43074,-0.26219 0.71166,-0.67421 0.28092,-0.41202 0.39329,-0.88022 0.1311,-0.48692 0.1311,-0.9364 0,-1.2735 -0.61803,-1.94771 -0.59929,-0.67421 -1.81661,-0.67421 z"
         id="path4535"
         inkscape:connector-curvature="0" />
    </g>
  </g>
</svg>
