<?xml version="1.0" encoding="UTF-8" standalone="no"?>
<!-- Created with Inkscape (http://www.inkscape.org/) -->

<svg
   xmlns:dc="http://purl.org/dc/elements/1.1/"
   xmlns:cc="http://creativecommons.org/ns#"
   xmlns:rdf="http://www.w3.org/1999/02/22-rdf-syntax-ns#"
   xmlns:svg="http://www.w3.org/2000/svg"
   xmlns="http://www.w3.org/2000/svg"
   xmlns:xlink="http://www.w3.org/1999/xlink"
   xmlns:sodipodi="http://sodipodi.sourceforge.net/DTD/sodipodi-0.dtd"
   xmlns:inkscape="http://www.inkscape.org/namespaces/inkscape"
   version="1.1"
   width="314.66425"
   height="89"
   id="svg5700"
   inkscape:version="0.48.1 r9760"
   sodipodi:docname="i2p-sticker-geti2p.net.svg">
  <sodipodi:namedview
     pagecolor="#ffffff"
     bordercolor="#666666"
     borderopacity="1"
     objecttolerance="10"
     gridtolerance="10"
     guidetolerance="10"
     inkscape:pageopacity="0"
     inkscape:pageshadow="2"
     inkscape:window-width="1600"
     inkscape:window-height="819"
     id="namedview3187"
     showgrid="false"
     inkscape:snap-bbox="true"
     inkscape:snap-bbox-edge-midpoints="true"
     inkscape:zoom="4"
     inkscape:cx="171.9581"
     inkscape:cy="47.20261"
     inkscape:window-x="0"
     inkscape:window-y="29"
     inkscape:window-maximized="1"
     inkscape:current-layer="svg5700" />
  <defs
     id="defs5702">
    <inkscape:perspective
       sodipodi:type="inkscape:persp3d"
       inkscape:vp_x="0 : 31.745985 : 1"
       inkscape:vp_y="0 : 1000 : 0"
       inkscape:vp_z="302.66425 : 31.745985 : 1"
       inkscape:persp3d-origin="151.33212 : 21.16399 : 1"
       id="perspective3517" />
    <pattern
       xlink:href="#pattern5595"
       id="pattern6495"
       patternTransform="matrix(1.2534787,-1.2534787,1.2534787,1.2534787,39.404452,317.94405)" />
    <pattern
       xlink:href="#Strips1_1"
       id="pattern5595"
       patternTransform="matrix(1.2534787,-1.2534787,1.2534787,1.2534787,39.404452,317.94405)" />
    <pattern
       id="Strips1_1"
       patternTransform="translate(0,0) scale(10,10)"
       height="1"
       width="2"
       patternUnits="userSpaceOnUse">
      <rect
         id="rect4774"
         height="2"
         width="1"
         y="-0.5"
         x="0"
         style="fill:black;stroke:none" />
    </pattern>
  </defs>
  <metadata
     id="metadata5705">
    <rdf:RDF>
      <cc:Work
         rdf:about="">
        <dc:format>image/svg+xml</dc:format>
        <dc:type
           rdf:resource="http://purl.org/dc/dcmitype/StillImage" />
        <dc:title />
      </cc:Work>
    </rdf:RDF>
  </metadata>
  <g
     transform="translate(-216.38543,-422.469)"
     id="layer1">
    <g
       transform="matrix(0.78302313,0,0,0.78302313,5.8401679,44.724391)"
       id="g5867">
      <g
         transform="matrix(1.7814702,0,0,1.6523316,-168.89205,-371.28852)"
         id="g4024"
         style="font-size:44.92046356px;font-style:normal;font-variant:normal;font-weight:normal;font-stretch:normal;line-height:125%;letter-spacing:0px;word-spacing:0px;writing-mode:lr-tb;fill:#000000;fill-opacity:1;stroke:#edffd8;stroke-width:4.20006847;stroke-linecap:square;stroke-linejoin:miter;stroke-miterlimit:4;stroke-opacity:1;stroke-dasharray:none;font-family:Trebuchet MS;-inkscape-font-specification:Trebuchet MS">
        <path
           d="m 300.61152,561.52647 0,-30.17163 9.8117,0 c 3.71812,3e-5 6.14177,0.15096 7.271,0.45279 1.7351,0.4528 3.18794,1.44068 4.35847,2.96365 1.17048,1.50929 1.75576,3.46447 1.75579,5.86555 -3e-5,1.85231 -0.33741,3.4096 -1.01217,4.67188 -0.67479,1.26231 -1.53547,2.25705 -2.58203,2.98423 -1.03283,0.71349 -2.0863,1.18685 -3.1604,1.42009 -1.45972,0.28814 -3.57355,0.4322 -6.34146,0.4322 l -2.46904,0 0,11.38124 -7.63186,0 m 7.63186,-25.61918 0,9.57218 1.8287,0 c 2.40987,0 4.02105,-0.15777 4.83355,-0.47337 0.81245,-0.31555 1.26535,-0.80949 1.71979,-1.48183 0.46819,-0.67228 0.70229,-1.91324 0.70231,-2.80511 -2e-5,-1.09762 -0.32362,-2.55481 -0.97084,-3.26831 -0.64724,-0.71344 -1.28604,-1.15935 -2.2775,-1.33775 -0.57409,-0.1079 -1.60396,-0.17337 -3.08959,-0.19642 -0.40317,-0.006 -0.8399,-0.009 -1.31019,-0.009 l -1.43623,0"
           id="path4030"
           style="font-weight:bold;stroke:#edffd8;stroke-width:4.20006847;stroke-linecap:square;stroke-linejoin:miter;stroke-miterlimit:4;stroke-opacity:1;stroke-dasharray:none;font-family:Arial;-inkscape-font-specification:Arial Bold"
           inkscape:connector-curvature="0" />
        <path
           d="m 258.19183,561.48828 0,-29.9626 7.92882,0 0,29.9626 -7.92882,0"
           id="path4026"
           style="font-weight:bold;stroke:#edffd8;stroke-width:4.20006847;stroke-linecap:square;stroke-linejoin:miter;stroke-miterlimit:4;stroke-opacity:1;stroke-dasharray:none;font-family:Arial;-inkscape-font-specification:Arial Bold"
           inkscape:connector-curvature="0" />
        <path
           d="m 294.21484,556.03391 0,5.45437 -21.60482,0 c 0.23396,-2.06192 0.93585,-4.01241 2.10565,-5.85143 1.1698,-1.85294 3.48016,-4.30496 6.93109,-7.35608 2.77827,-2.46595 4.48179,-4.13778 5.11058,-5.01552 0.84809,-1.21205 1.27214,-2.4102 1.27216,-3.59444 -2e-5,-1.30958 -0.37289,-2.31268 -1.11862,-3.00931 -0.73115,-0.7105 -1.74741,-1.06576 -3.04881,-1.06579 -1.28679,3e-5 -2.31037,0.36922 -3.07073,1.10759 -0.76038,0.73841 -1.19906,1.30905 -1.31603,3.02266 l -6.14147,-0.49155 c 0.36556,-3.23219 1.51343,-4.99012 3.44361,-6.39728 1.93017,-1.40709 4.34289,-2.11066 7.23816,-2.11069 3.17308,3e-5 5.66622,0.81506 7.47943,2.44507 1.81318,1.63006 2.71977,3.65716 2.7198,6.0813 -3e-5,1.37928 -0.26323,2.69585 -0.78962,3.94971 -0.51181,1.23997 -1.33067,2.5426 -2.45659,3.90792 -0.74577,0.90559 -2.09104,2.20824 -4.03582,3.90792 -1.94481,1.69972 -3.18042,2.8282 -3.70682,3.38548 -0.5118,0.55727 -0.92854,1.10062 -1.25022,1.63003 l 12.23484,0"
           id="path4028"
           style="font-weight:bold;stroke:#edffd8;stroke-width:4.20006847;stroke-linecap:square;stroke-linejoin:miter;stroke-miterlimit:4;stroke-opacity:1;stroke-dasharray:none;font-family:Arial;-inkscape-font-specification:Arial Bold"
           inkscape:connector-curvature="0" />
      </g>
      <g
         transform="matrix(1.7814702,0,0,1.6523316,-168.89205,-371.28852)"
         id="g4032"
         style="font-size:44.92046356px;font-style:normal;font-variant:normal;font-weight:normal;font-stretch:normal;line-height:125%;letter-spacing:0px;word-spacing:0px;writing-mode:lr-tb;fill:#000000;fill-opacity:1;stroke:#000000;stroke-width:2;stroke-linejoin:miter;stroke-miterlimit:4;stroke-opacity:1;stroke-dasharray:none;font-family:Trebuchet MS;-inkscape-font-specification:Trebuchet MS">
        <path
           d="m 300.61152,561.52647 0,-30.17163 9.8117,0 c 3.71812,3e-5 6.14177,0.15096 7.271,0.45279 1.7351,0.4528 3.18794,1.44068 4.35847,2.96365 1.17048,1.50929 1.75576,3.46447 1.75579,5.86555 -3e-5,1.85231 -0.33741,3.4096 -1.01217,4.67188 -0.67479,1.26231 -1.53547,2.25705 -2.58203,2.98423 -1.03283,0.71349 -2.0863,1.18685 -3.1604,1.42009 -1.45972,0.28814 -3.57355,0.4322 -6.34146,0.4322 l -2.46904,0 0,11.38124 -7.63186,0 m 7.63186,-25.45694 0,9.36405 1.8287,0 c 2.40987,0 4.02105,-0.15777 4.83355,-0.47337 0.81245,-0.31555 1.20516,-0.80949 1.6596,-1.48183 0.46819,-0.67228 0.70229,-1.86735 0.70231,-2.75922 -2e-5,-1.09762 -0.32362,-2.39257 -0.97084,-3.10607 -0.64724,-0.71344 -1.22585,-1.15935 -2.21731,-1.33775 -0.72989,-0.13718 -2.19648,-0.20578 -4.39978,-0.20581 l -1.43623,0"
           id="path4034"
           style="font-weight:bold;fill:#000000;fill-opacity:1;stroke:#000000;stroke-width:2;stroke-linecap:square;stroke-linejoin:miter;stroke-miterlimit:4;stroke-opacity:1;stroke-dasharray:none;font-family:Arial;-inkscape-font-specification:Arial Bold"
           inkscape:connector-curvature="0" />
        <path
           d="m 258.19183,561.48828 0,-29.9626 7.92882,0 0,29.9626 -7.92882,0"
           id="path4036"
           style="font-weight:bold;fill:#000000;fill-opacity:1;stroke:#000000;stroke-width:2;stroke-linecap:square;stroke-linejoin:miter;stroke-miterlimit:4;stroke-opacity:1;stroke-dasharray:none;font-family:Arial;-inkscape-font-specification:Arial Bold"
           inkscape:connector-curvature="0" />
        <path
           d="m 294.21484,556.03391 0,5.45437 -21.60482,0 c 0.23396,-2.06192 0.93585,-4.01241 2.10565,-5.85143 1.1698,-1.85294 3.48016,-4.30496 6.93109,-7.35608 2.77827,-2.46595 4.48179,-4.13778 5.11058,-5.01552 0.84809,-1.21205 1.27214,-2.4102 1.27216,-3.59444 -2e-5,-1.30958 -0.37289,-2.31268 -1.11862,-3.00931 -0.73115,-0.7105 -1.74741,-1.06576 -3.04881,-1.06579 -1.28679,3e-5 -2.31037,0.36922 -3.07073,1.10759 -0.76038,0.73841 -1.19906,1.30905 -1.31603,3.02266 l -6.14147,-0.49155 c 0.36556,-3.23219 1.51343,-4.99012 3.44361,-6.39728 1.93017,-1.40709 4.34289,-2.11066 7.23816,-2.11069 3.17308,3e-5 5.66622,0.81506 7.47943,2.44507 1.81318,1.63006 2.71977,3.65716 2.7198,6.0813 -3e-5,1.37928 -0.26323,2.69585 -0.78962,3.94971 -0.51181,1.23997 -1.33067,2.5426 -2.45659,3.90792 -0.74577,0.90559 -2.09104,2.20824 -4.03582,3.90792 -1.94481,1.69972 -3.18042,2.8282 -3.70682,3.38548 -0.5118,0.55727 -0.92854,1.10062 -1.25022,1.63003 l 13.20114,0"
           id="path4038"
           style="font-weight:bold;fill:#000000;fill-opacity:1;stroke:#000000;stroke-width:2;stroke-linejoin:miter;stroke-miterlimit:4;stroke-opacity:1;stroke-dasharray:none;font-family:Arial;-inkscape-font-specification:Arial Bold"
           inkscape:connector-curvature="0" />
      </g>
      <path
         d="m 348.88224,513.22687 a 2.422795,2.422795 0 1 1 -4.84559,0 2.422795,2.422795 0 1 1 4.84559,0 z"
         transform="matrix(1.866199,0,0,1.866199,-220.60107,-448.68738)"
         id="path3798"
         style="fill:#ff0000;fill-opacity:1;stroke:none"
         inkscape:connector-curvature="0" />
      <path
         d="m 348.88224,513.22687 a 2.422795,2.422795 0 1 1 -4.84559,0 2.422795,2.422795 0 1 1 4.84559,0 z"
         transform="matrix(1.866199,0,0,1.866199,-220.60107,-433.72342)"
         id="path3800"
         style="fill:#ff0000;fill-opacity:1;stroke:none"
         inkscape:connector-curvature="0" />
      <path
         d="m 348.88224,513.22687 a 2.422795,2.422795 0 1 1 -4.84559,0 2.422795,2.422795 0 1 1 4.84559,0 z"
         transform="matrix(1.866199,0,0,1.866199,-220.60107,-418.75953)"
         id="path3802"
         style="fill:#ff0000;fill-opacity:1;stroke:none"
         inkscape:connector-curvature="0" />
      <path
         d="m 348.88224,513.22687 a 2.422795,2.422795 0 1 1 -4.84559,0 2.422795,2.422795 0 1 1 4.84559,0 z"
         transform="matrix(1.866199,0,0,1.866199,-220.60107,-403.79556)"
         id="path3804"
         style="fill:#ff0000;fill-opacity:1;stroke:none"
         inkscape:connector-curvature="0" />
      <path
         d="m 348.88224,513.22687 a 2.422795,2.422795 0 1 1 -4.84559,0 2.422795,2.422795 0 1 1 4.84559,0 z"
         transform="matrix(1.866199,0,0,1.866199,-205.89916,-448.68738)"
         id="path3806"
         style="fill:#ff0000;fill-opacity:1;stroke:none"
         inkscape:connector-curvature="0" />
      <path
         d="m 348.88224,513.22687 a 2.422795,2.422795 0 1 1 -4.84559,0 2.422795,2.422795 0 1 1 4.84559,0 z"
         transform="matrix(1.866199,0,0,1.866199,-205.89916,-433.72342)"
         id="path3808"
         style="fill:#ff0000;fill-opacity:1;stroke:none"
         inkscape:connector-curvature="0" />
      <path
         d="m 348.88224,513.22687 a 2.422795,2.422795 0 1 1 -4.84559,0 2.422795,2.422795 0 1 1 4.84559,0 z"
         transform="matrix(1.866199,0,0,1.866199,-205.89916,-418.75953)"
         id="path3810"
         style="fill:#ff0000;fill-opacity:1;stroke:none"
         inkscape:connector-curvature="0" />
      <path
         d="m 348.88224,513.22687 a 2.422795,2.422795 0 1 1 -4.84559,0 2.422795,2.422795 0 1 1 4.84559,0 z"
         transform="matrix(1.866199,0,0,1.866199,-205.89916,-403.79556)"
         id="path3812"
         style="fill:#ff0000;fill-opacity:1;stroke:none"
         inkscape:connector-curvature="0" />
      <path
         d="m 348.88224,513.22687 a 2.422795,2.422795 0 1 1 -4.84559,0 2.422795,2.422795 0 1 1 4.84559,0 z"
         transform="matrix(1.866199,0,0,1.866199,-191.19728,-448.68738)"
         id="path3814"
         style="fill:#ff0000;fill-opacity:1;stroke:none"
         inkscape:connector-curvature="0" />
      <path
         d="m 348.88224,513.22687 a 2.422795,2.422795 0 1 1 -4.84559,0 2.422795,2.422795 0 1 1 4.84559,0 z"
         transform="matrix(1.866199,0,0,1.866199,-191.19728,-433.72342)"
         id="path3816"
         style="fill:#ff0000;fill-opacity:1;stroke:none"
         inkscape:connector-curvature="0" />
      <path
         d="m 348.88224,513.22687 a 2.422795,2.422795 0 1 1 -4.84559,0 2.422795,2.422795 0 1 1 4.84559,0 z"
         transform="matrix(1.866199,0,0,1.866199,-191.19728,-418.75953)"
         id="path3818"
         style="fill:#ff0000;fill-opacity:1;stroke:none"
         inkscape:connector-curvature="0" />
      <path
         d="m 348.88224,513.22687 a 2.422795,2.422795 0 1 1 -4.84559,0 2.422795,2.422795 0 1 1 4.84559,0 z"
         transform="matrix(1.866199,0,0,1.866199,-191.19728,-403.79556)"
         id="path3820"
         style="fill:#ff0000;fill-opacity:1;stroke:none"
         inkscape:connector-curvature="0" />
      <path
         d="m 348.88224,513.22687 a 2.422795,2.422795 0 1 1 -4.84559,0 2.422795,2.422795 0 1 1 4.84559,0 z"
         transform="matrix(1.866199,0,0,1.866199,-176.49538,-448.68738)"
         id="path3822"
         style="fill:#ff0000;fill-opacity:1;stroke:none"
         inkscape:connector-curvature="0" />
      <path
         d="m 348.88224,513.22687 a 2.422795,2.422795 0 1 1 -4.84559,0 2.422795,2.422795 0 1 1 4.84559,0 z"
         transform="matrix(1.866199,0,0,1.866199,-176.49538,-433.72342)"
         id="path3824"
         style="fill:#ebed02;fill-opacity:1;stroke:none"
         inkscape:connector-curvature="0" />
      <path
         d="m 348.88224,513.22687 a 2.422795,2.422795 0 1 1 -4.84559,0 2.422795,2.422795 0 1 1 4.84559,0 z"
         transform="matrix(1.866199,0,0,1.866199,-176.49538,-418.75953)"
         id="path3826"
         style="fill:#ebed02;fill-opacity:1;stroke:none"
         inkscape:connector-curvature="0" />
      <path
         d="m 348.88224,513.22687 a 2.422795,2.422795 0 1 1 -4.84559,0 2.422795,2.422795 0 1 1 4.84559,0 z"
         transform="matrix(1.866199,0,0,1.866199,-176.49538,-403.79556)"
         id="path3828"
         style="fill:#ff0000;fill-opacity:1;stroke:none"
         inkscape:connector-curvature="0" />
      <path
         d="m 348.88224,513.22687 a 2.422795,2.422795 0 1 1 -4.84559,0 2.422795,2.422795 0 1 1 4.84559,0 z"
         transform="matrix(1.866199,0,0,1.866199,-161.79346,-448.68738)"
         id="path3865"
         style="fill:#ebed02;fill-opacity:1;stroke:none"
         inkscape:connector-curvature="0" />
      <path
         d="m 348.88224,513.22687 a 2.422795,2.422795 0 1 1 -4.84559,0 2.422795,2.422795 0 1 1 4.84559,0 z"
         transform="matrix(1.866199,0,0,1.866199,-161.79346,-433.72342)"
         id="path3867"
         style="fill:#ff0000;fill-opacity:1;stroke:none"
         inkscape:connector-curvature="0" />
      <path
         d="m 348.88224,513.22687 a 2.422795,2.422795 0 1 1 -4.84559,0 2.422795,2.422795 0 1 1 4.84559,0 z"
         transform="matrix(1.866199,0,0,1.866199,-161.79346,-418.75953)"
         id="path3869"
         style="fill:#ebed02;fill-opacity:1;stroke:none"
         inkscape:connector-curvature="0" />
      <path
         d="m 348.88224,513.22687 a 2.422795,2.422795 0 1 1 -4.84559,0 2.422795,2.422795 0 1 1 4.84559,0 z"
         transform="matrix(1.866199,0,0,1.866199,-161.79346,-403.79556)"
         id="path3871"
         style="fill:#ff0000;fill-opacity:1;stroke:none"
         inkscape:connector-curvature="0" />
      <path
         d="m 348.88224,513.22687 a 2.422795,2.422795 0 1 1 -4.84559,0 2.422795,2.422795 0 1 1 4.84559,0 z"
         transform="matrix(1.866199,0,0,1.866199,-147.09155,-448.68738)"
         id="path3873"
         style="fill:#ebed02;fill-opacity:1;stroke:none"
         inkscape:connector-curvature="0" />
      <path
         d="m 348.88224,513.22687 a 2.422795,2.422795 0 1 1 -4.84559,0 2.422795,2.422795 0 1 1 4.84559,0 z"
         transform="matrix(1.866199,0,0,1.866199,-147.09155,-433.72342)"
         id="path3875"
         style="fill:#ff0000;fill-opacity:1;stroke:none"
         inkscape:connector-curvature="0" />
      <path
         d="m 348.88224,513.22687 a 2.422795,2.422795 0 1 1 -4.84559,0 2.422795,2.422795 0 1 1 4.84559,0 z"
         transform="matrix(1.866199,0,0,1.866199,-147.09155,-418.75953)"
         id="path3877"
         style="fill:#ebed02;fill-opacity:1;stroke:none"
         inkscape:connector-curvature="0" />
      <path
         d="m 348.88224,513.22687 a 2.422795,2.422795 0 1 1 -4.84559,0 2.422795,2.422795 0 1 1 4.84559,0 z"
         transform="matrix(1.866199,0,0,1.866199,-147.09155,-403.79556)"
         id="path3879"
         style="fill:#ff0000;fill-opacity:1;stroke:none"
         inkscape:connector-curvature="0" />
      <path
         d="m 348.88224,513.22687 a 2.422795,2.422795 0 1 1 -4.84559,0 2.422795,2.422795 0 1 1 4.84559,0 z"
         transform="matrix(1.866199,0,0,1.866199,-132.38967,-448.68738)"
         id="path3881"
         style="fill:#ebed02;fill-opacity:1;stroke:none"
         inkscape:connector-curvature="0" />
      <path
         d="m 348.88224,513.22687 a 2.422795,2.422795 0 1 1 -4.84559,0 2.422795,2.422795 0 1 1 4.84559,0 z"
         transform="matrix(1.866199,0,0,1.866199,-132.38967,-433.72342)"
         id="path3883"
         style="fill:#ebed02;fill-opacity:1;stroke:none"
         inkscape:connector-curvature="0" />
      <path
         d="m 348.88224,513.22687 a 2.422795,2.422795 0 1 1 -4.84559,0 2.422795,2.422795 0 1 1 4.84559,0 z"
         transform="matrix(1.866199,0,0,1.866199,-132.38967,-418.75953)"
         id="path3885"
         style="fill:#ebed02;fill-opacity:1;stroke:none"
         inkscape:connector-curvature="0" />
      <path
         d="m 348.88224,513.22687 a 2.422795,2.422795 0 1 1 -4.84559,0 2.422795,2.422795 0 1 1 4.84559,0 z"
         transform="matrix(1.866199,0,0,1.866199,-132.38967,-403.79556)"
         id="path3887"
         style="fill:#ebed02;fill-opacity:1;stroke:none"
         inkscape:connector-curvature="0" />
      <path
         d="m 348.88224,513.22687 a 2.422795,2.422795 0 1 1 -4.84559,0 2.422795,2.422795 0 1 1 4.84559,0 z"
         transform="matrix(1.866199,0,0,1.866199,-117.68777,-448.68738)"
         id="path3889"
         style="fill:#ebed02;fill-opacity:1;stroke:none"
         inkscape:connector-curvature="0" />
      <path
         d="m 348.88224,513.22687 a 2.422795,2.422795 0 1 1 -4.84559,0 2.422795,2.422795 0 1 1 4.84559,0 z"
         transform="matrix(1.866199,0,0,1.866199,-117.68777,-433.72342)"
         id="path3891"
         style="fill:#ebed02;fill-opacity:1;stroke:none"
         inkscape:connector-curvature="0" />
      <path
         d="m 348.88224,513.22687 a 2.422795,2.422795 0 1 1 -4.84559,0 2.422795,2.422795 0 1 1 4.84559,0 z"
         transform="matrix(1.866199,0,0,1.866199,-117.68777,-418.75953)"
         id="path3893"
         style="fill:#ebed02;fill-opacity:1;stroke:none"
         inkscape:connector-curvature="0" />
      <path
         d="m 348.88224,513.22687 a 2.422795,2.422795 0 1 1 -4.84559,0 2.422795,2.422795 0 1 1 4.84559,0 z"
         transform="matrix(1.866199,0,0,1.866199,-117.68777,-403.79556)"
         id="path3895"
         style="fill:#ebed02;fill-opacity:1;stroke:none"
         inkscape:connector-curvature="0" />
      <path
         d="m 348.88224,513.22687 a 2.422795,2.422795 0 1 1 -4.84559,0 2.422795,2.422795 0 1 1 4.84559,0 z"
         transform="matrix(1.866199,0,0,1.866199,-102.98586,-448.68738)"
         id="path3897"
         style="fill:#16ff0e;fill-opacity:0.85882353;stroke:none"
         inkscape:connector-curvature="0" />
      <path
         d="m 348.88224,513.22687 a 2.422795,2.422795 0 1 1 -4.84559,0 2.422795,2.422795 0 1 1 4.84559,0 z"
         transform="matrix(1.866199,0,0,1.866199,-102.98586,-433.72342)"
         id="path3899"
         style="fill:#16ff0e;fill-opacity:0.85882353;stroke:none"
         inkscape:connector-curvature="0" />
      <path
         d="m 348.88224,513.22687 a 2.422795,2.422795 0 1 1 -4.84559,0 2.422795,2.422795 0 1 1 4.84559,0 z"
         transform="matrix(1.866199,0,0,1.866199,-102.98586,-418.75953)"
         id="path3901"
         style="fill:#ebed02;fill-opacity:1;stroke:none"
         inkscape:connector-curvature="0" />
      <path
         d="m 348.88224,513.22687 a 2.422795,2.422795 0 1 1 -4.84559,0 2.422795,2.422795 0 1 1 4.84559,0 z"
         transform="matrix(1.866199,0,0,1.866199,-102.98586,-403.79556)"
         id="path3903"
         style="fill:#ebed02;fill-opacity:1;stroke:none"
         inkscape:connector-curvature="0" />
      <path
         d="m 348.88224,513.22687 a 2.422795,2.422795 0 1 1 -4.84559,0 2.422795,2.422795 0 1 1 4.84559,0 z"
         transform="matrix(1.866199,0,0,1.866199,-88.283964,-448.68738)"
         id="path3905"
         style="fill:#ebed02;fill-opacity:1;stroke:none"
         inkscape:connector-curvature="0" />
      <path
         d="m 348.88224,513.22687 a 2.422795,2.422795 0 1 1 -4.84559,0 2.422795,2.422795 0 1 1 4.84559,0 z"
         transform="matrix(1.866199,0,0,1.866199,-88.283964,-433.72342)"
         id="path3907"
         style="fill:#ebed02;fill-opacity:1;stroke:none"
         inkscape:connector-curvature="0" />
      <path
         d="m 348.88224,513.22687 a 2.422795,2.422795 0 1 1 -4.84559,0 2.422795,2.422795 0 1 1 4.84559,0 z"
         transform="matrix(1.866199,0,0,1.866199,-88.283964,-418.75953)"
         id="path3909"
         style="fill:#16ff0e;fill-opacity:0.85500536;stroke:none"
         inkscape:connector-curvature="0" />
      <path
         d="m 348.88224,513.22687 a 2.422795,2.422795 0 1 1 -4.84559,0 2.422795,2.422795 0 1 1 4.84559,0 z"
         transform="matrix(1.866199,0,0,1.866199,-88.283964,-403.79556)"
         id="path3911"
         style="fill:#ebed02;fill-opacity:1;stroke:none"
         inkscape:connector-curvature="0" />
      <path
         d="m 348.88224,513.22687 a 2.422795,2.422795 0 1 1 -4.84559,0 2.422795,2.422795 0 1 1 4.84559,0 z"
         transform="matrix(1.866199,0,0,1.866199,-73.582074,-448.68738)"
         id="path3913"
         style="fill:#16ff0e;fill-opacity:0.85882353;stroke:none"
         inkscape:connector-curvature="0" />
      <path
         d="m 348.88224,513.22687 a 2.422795,2.422795 0 1 1 -4.84559,0 2.422795,2.422795 0 1 1 4.84559,0 z"
         transform="matrix(1.866199,0,0,1.866199,-73.582074,-433.72342)"
         id="path3915"
         style="fill:#16ff0e;fill-opacity:1;stroke:none"
         inkscape:connector-curvature="0" />
      <path
         d="m 348.88224,513.22687 a 2.422795,2.422795 0 1 1 -4.84559,0 2.422795,2.422795 0 1 1 4.84559,0 z"
         transform="matrix(1.866199,0,0,1.866199,-73.582074,-418.75953)"
         id="path3917"
         style="fill:#ebed02;fill-opacity:1;stroke:none"
         inkscape:connector-curvature="0" />
      <path
         d="m 348.88224,513.22687 a 2.422795,2.422795 0 1 1 -4.84559,0 2.422795,2.422795 0 1 1 4.84559,0 z"
         transform="matrix(1.866199,0,0,1.866199,-73.582074,-403.79556)"
         id="path3919"
         style="fill:#16ff0e;fill-opacity:0.85882562;stroke:none"
         inkscape:connector-curvature="0" />
      <path
         d="m 348.88224,513.22687 a 2.422795,2.422795 0 1 1 -4.84559,0 2.422795,2.422795 0 1 1 4.84559,0 z"
         transform="matrix(1.866199,0,0,1.866199,-58.880174,-448.68738)"
         id="path3921"
         style="fill:#16ff0e;fill-opacity:0.85882353;stroke:none"
         inkscape:connector-curvature="0" />
      <path
         d="m 348.88224,513.22687 a 2.422795,2.422795 0 1 1 -4.84559,0 2.422795,2.422795 0 1 1 4.84559,0 z"
         transform="matrix(1.866199,0,0,1.866199,-58.880174,-433.72342)"
         id="path3923"
         style="fill:#ebed02;fill-opacity:1;stroke:none"
         inkscape:connector-curvature="0" />
      <path
         d="m 348.88224,513.22687 a 2.422795,2.422795 0 1 1 -4.84559,0 2.422795,2.422795 0 1 1 4.84559,0 z"
         transform="matrix(1.866199,0,0,1.866199,-58.880174,-418.75953)"
         id="path3925"
         style="fill:#16ff0e;fill-opacity:1;stroke:none"
         inkscape:connector-curvature="0" />
      <path
         d="m 348.88224,513.22687 a 2.422795,2.422795 0 1 1 -4.84559,0 2.422795,2.422795 0 1 1 4.84559,0 z"
         transform="matrix(1.866199,0,0,1.866199,-58.880174,-403.79556)"
         id="path3927"
         style="fill:#ebed02;fill-opacity:1;stroke:none"
         inkscape:connector-curvature="0" />
      <path
         d="m 348.88224,513.22687 a 2.422795,2.422795 0 1 1 -4.84559,0 2.422795,2.422795 0 1 1 4.84559,0 z"
         transform="matrix(1.866199,0,0,1.866199,-44.178254,-448.68738)"
         id="path3929"
         style="fill:#16ff0e;fill-opacity:0.85882562;stroke:none"
         inkscape:connector-curvature="0" />
      <path
         d="m 348.88224,513.22687 a 2.422795,2.422795 0 1 1 -4.84559,0 2.422795,2.422795 0 1 1 4.84559,0 z"
         transform="matrix(1.866199,0,0,1.866199,-44.178254,-433.72342)"
         id="path3931"
         style="fill:#ebed02;fill-opacity:1;stroke:none"
         inkscape:connector-curvature="0" />
      <path
         d="m 348.88224,513.22687 a 2.422795,2.422795 0 1 1 -4.84559,0 2.422795,2.422795 0 1 1 4.84559,0 z"
         transform="matrix(1.866199,0,0,1.866199,-44.178254,-418.75953)"
         id="path3933"
         style="fill:#16ff0e;fill-opacity:1;stroke:none"
         inkscape:connector-curvature="0" />
      <path
         d="m 348.88224,513.22687 a 2.422795,2.422795 0 1 1 -4.84559,0 2.422795,2.422795 0 1 1 4.84559,0 z"
         transform="matrix(1.866199,0,0,1.866199,-44.178254,-403.79556)"
         id="path3935"
         style="fill:#16ff0e;fill-opacity:1;stroke:none"
         inkscape:connector-curvature="0" />
      <path
         d="m 348.88224,513.22687 a 2.422795,2.422795 0 1 1 -4.84559,0 2.422795,2.422795 0 1 1 4.84559,0 z"
         transform="matrix(1.866199,0,0,1.866199,-29.476354,-448.68738)"
         id="path3937"
         style="fill:#ebed02;fill-opacity:1;stroke:none"
         inkscape:connector-curvature="0" />
      <path
         d="m 348.88224,513.22687 a 2.422795,2.422795 0 1 1 -4.84559,0 2.422795,2.422795 0 1 1 4.84559,0 z"
         transform="matrix(1.866199,0,0,1.866199,-29.476354,-433.72342)"
         id="path3939"
         style="fill:#16ff0e;fill-opacity:1;stroke:none"
         inkscape:connector-curvature="0" />
      <path
         d="m 348.88224,513.22687 a 2.422795,2.422795 0 1 1 -4.84559,0 2.422795,2.422795 0 1 1 4.84559,0 z"
         transform="matrix(1.866199,0,0,1.866199,-29.476354,-418.75953)"
         id="path3941"
         style="fill:#16ff0e;fill-opacity:1;stroke:none"
         inkscape:connector-curvature="0" />
      <path
         d="m 348.88224,513.22687 a 2.422795,2.422795 0 1 1 -4.84559,0 2.422795,2.422795 0 1 1 4.84559,0 z"
         transform="matrix(1.866199,0,0,1.866199,-29.476354,-403.79556)"
         id="path3943"
         style="fill:#16ff0e;fill-opacity:1;stroke:none"
         inkscape:connector-curvature="0" />
      <path
         d="m 348.88224,513.22687 a 2.422795,2.422795 0 1 1 -4.84559,0 2.422795,2.422795 0 1 1 4.84559,0 z"
         transform="matrix(1.866199,0,0,1.866199,-14.774464,-448.68738)"
         id="path3945"
         style="fill:#16ff0e;fill-opacity:0.85882353;stroke:none"
         inkscape:connector-curvature="0" />
      <path
         d="m 348.88224,513.22687 a 2.422795,2.422795 0 1 1 -4.84559,0 2.422795,2.422795 0 1 1 4.84559,0 z"
         transform="matrix(1.866199,0,0,1.866199,-14.774464,-433.72342)"
         id="path3947"
         style="fill:#16ff0e;fill-opacity:1;stroke:none"
         inkscape:connector-curvature="0" />
      <path
         d="m 348.88224,513.22687 a 2.422795,2.422795 0 1 1 -4.84559,0 2.422795,2.422795 0 1 1 4.84559,0 z"
         transform="matrix(1.866199,0,0,1.866199,-14.774464,-418.75953)"
         id="path3949"
         style="fill:#16ff0e;fill-opacity:1;stroke:none"
         inkscape:connector-curvature="0" />
      <path
         d="m 348.88224,513.22687 a 2.422795,2.422795 0 1 1 -4.84559,0 2.422795,2.422795 0 1 1 4.84559,0 z"
         transform="matrix(1.866199,0,0,1.866199,-14.774464,-403.79556)"
         id="path3951"
         style="fill:#16ff0e;fill-opacity:1;stroke:none"
         inkscape:connector-curvature="0" />
      <path
         d="m 348.88224,513.22687 a 2.422795,2.422795 0 1 1 -4.84559,0 2.422795,2.422795 0 1 1 4.84559,0 z"
         transform="matrix(1.866199,0,0,1.866199,-0.07256439,-448.68738)"
         id="path3953"
         style="fill:#16ff0e;fill-opacity:1;stroke:none"
         inkscape:connector-curvature="0" />
      <path
         d="m 348.88224,513.22687 a 2.422795,2.422795 0 1 1 -4.84559,0 2.422795,2.422795 0 1 1 4.84559,0 z"
         transform="matrix(1.866199,0,0,1.866199,-0.07256439,-433.72342)"
         id="path3955"
         style="fill:#16ff0e;fill-opacity:1;stroke:none"
         inkscape:connector-curvature="0" />
      <path
         d="m 348.88224,513.22687 a 2.422795,2.422795 0 1 1 -4.84559,0 2.422795,2.422795 0 1 1 4.84559,0 z"
         transform="matrix(1.866199,0,0,1.866199,-0.07256439,-418.75953)"
         id="path3957"
         style="fill:#16ff0e;fill-opacity:1;stroke:none"
         inkscape:connector-curvature="0" />
      <path
         d="m 348.88224,513.22687 a 2.422795,2.422795 0 1 1 -4.84559,0 2.422795,2.422795 0 1 1 4.84559,0 z"
         transform="matrix(1.866199,0,0,1.866199,-0.07256439,-403.79556)"
         id="path3959"
         style="fill:#16ff0e;fill-opacity:1;stroke:none"
         inkscape:connector-curvature="0" />
    </g>
  </g>
  <path
     style="fill:none;stroke:#000000;stroke-width:1px;stroke-linecap:butt;stroke-linejoin:miter;stroke-opacity:1"
     d="m 15.683951,11.362599 282.764199,0 c 3.01689,-0.09461 5.26925,0.899789 4.84022,4.840218 l 0,58.864159 c 0.33142,3.463251 -1.65308,3.838628 -3.88461,3.884613 l -284.744023,0 c -2.094489,0.04103 -4.711615,0.132735 -4.605254,-5.158094 l 0,-57.957587 c -0.03843,-2.838199 -0.351515,-4.821287 5.629468,-4.473309 z"
     id="path3449"
     inkscape:connector-curvature="0"
     sodipodi:nodetypes="ccccccccc" />
  <path
     style="fill:none;stroke:#000000;stroke-width:1px;stroke-linecap:butt;stroke-linejoin:miter;stroke-opacity:1"
     d="M 10.103501,65.629059 303.00439,64.652722"
     id="path3451"
     inkscape:connector-curvature="0" />
  <path
     style="fill:#000000"
     d="m 12.643648,78.077084 c -1.53717,-0.621248 -1.848938,-1.695059 -1.996093,-6.875087 -0.0756,-2.661333 -0.08272,-4.845322 -0.01583,-4.85331 0.420967,-0.05026 254.895045,-0.94124 271.461765,-0.950454 l 20.4217,-0.01136 0,5.807577 c 0,5.490798 -0.0374,5.841395 -0.68505,6.427548 -0.67127,0.607498 -3.57971,0.62121 -144.57913,0.681663 -82.967305,0.03557 -144.196099,-0.06036 -144.607366,-0.226577 z"
     id="path3455"
     inkscape:connector-curvature="0" />
  <path
     style="fill:#000000"
     d="M 11.994846,78.905662 C 11.424696,78.657149 10.692444,77.966804 10.367619,77.371558 9.808745,76.347417 9.777028,74.611433 9.777028,45.046535 c 0,-28.81229 0.04311,-31.321477 0.554182,-32.254618 0.3048,-0.556522 0.963827,-1.180488 1.464505,-1.386591 0.683065,-0.281183 36.820898,-0.353561 144.757205,-0.289925 127.11433,0.07494 143.95704,0.141594 144.79395,0.572978 0.52088,0.268492 1.21932,0.856362 1.55209,1.306376 0.58014,0.784555 0.60465,2.120887 0.5958,32.490184 -0.006,20.759858 -0.12289,31.884357 -0.33914,32.288404 -0.18144,0.339036 -0.65605,0.802851 -1.05469,1.030696 -1.12908,0.645342 -288.627596,0.746051 -290.106084,0.101623 l 0,0 z M 302.15559,77.947443 c 0.65027,-0.588493 0.68505,-0.931343 0.68505,-6.752992 l 0,-6.133022 -19.60809,0.01051 c -15.61803,0.0084 -272.461078,0.905321 -272.928905,0.953132 -0.06835,0.007 -0.0566,2.360908 0.02612,5.23094 0.131924,4.577488 0.230711,5.325823 0.804503,6.094356 0.359762,0.481861 1.007037,0.975337 1.438388,1.096615 0.431351,0.121274 65.609837,0.197984 144.841084,0.170468 141.16807,-0.04903 144.07053,-0.06246 144.74185,-0.670001 l 0,-7e-6 z M 169.73346,64.722301 c 52.17704,-0.172733 103.4713,-0.31354 113.98726,-0.312912 l 19.11992,0.0011 0,-25.195404 c 0,-13.857471 -0.091,-25.432473 -0.20216,-25.722225 -0.11119,-0.289752 -0.66038,-0.777694 -1.22042,-1.084315 -0.95641,-0.523581 -9.76823,-0.562495 -145.07094,-0.640611 -138.059109,-0.07971 -144.082644,-0.0589 -144.772838,0.499979 -0.422761,0.342332 -0.835905,1.183051 -1.000448,2.035841 -0.15416,0.798981 -0.286669,12.616886 -0.294464,26.262011 L 10.2652,65.375083 42.565659,65.205721 c 17.765252,-0.09315 74.990761,-0.310686 127.167801,-0.48342 z"
     id="path3457"
     inkscape:connector-curvature="0" />
  <path
     style="fill:#000000"
     d="m 303.64749,45.697426 c 2e-5,-16.288544 0.0396,-22.904369 0.0881,-14.701833 0.0484,8.202535 0.0484,21.529525 -4e-5,29.615532 -0.0484,8.086011 -0.088,1.374844 -0.088,-14.913699 z"
     id="path3459"
     inkscape:connector-curvature="0" />
  <path
     style="fill:#000000"
     d="m 253.59136,65.481203 c 0.0396,-0.01596 0.10428,-0.01596 0.14383,0 0.0396,0.01596 0.007,0.02902 -0.0719,0.02902 -0.0791,0 -0.11147,-0.01306 -0.0719,-0.02902 z"
     id="path3461"
     inkscape:connector-curvature="0" />
  <path
     style="fill:#000000"
     d="m 178.06733,65.634367 c 0,-0.03738 0.7707,-0.05692 2.20056,-0.05577 1.21031,9.66e-4 27.02212,-0.08057 57.35956,-0.181196 30.33745,-0.100624 55.17581,-0.166138 55.19636,-0.145585 0.0206,0.02055 0.0266,0.04795 0.0134,0.06089 -0.0132,0.01294 -14.17232,0.06546 -31.46476,0.116724 -17.29243,0.05126 -42.08117,0.131037 -55.08609,0.177284 -28.51747,0.10141 -28.21903,0.101117 -28.21903,0.02765 z"
     id="path3463"
     inkscape:connector-curvature="0" />
  <path
     style="fill:#000000"
     d="m 178.06733,65.06632 0,-0.452984 8.1838,-0.03834 c 4.5011,-0.02109 27.96303,-0.100666 52.13762,-0.176837 24.1746,-0.07617 46.31619,-0.151253 49.20353,-0.166848 l 5.24972,-0.02836 0,0.456818 0,0.456818 -19.69004,0.01419 c -19.48505,0.01405 -19.55497,0.0145 -6.71676,0.04315 12.138,0.02709 9.80627,0.03931 -36.21587,0.189791 -27.05403,0.08846 -49.85579,0.159655 -50.67058,0.158211 l -1.48142,-0.0026 0,-0.452985 z"
     id="path3465"
     inkscape:connector-curvature="0" />
  <path
     style="fill:#000000"
     d="m 178.06732,72.005944 1e-5,-6.256515 1.85538,-4.9e-5 c 1.02045,-2.7e-5 12.89704,-0.03882 26.39242,-0.08621 26.33797,-0.09248 80.47863,-0.258885 84.24001,-0.258913 l 2.28686,-1.8e-5 0,6.319697 0,6.319696 -2.63205,0.03516 c -5.06132,0.06761 -47.26274,0.158265 -79.5656,0.170909 l -32.57703,0.01275 0,-6.256514 z"
     id="path3467"
     inkscape:connector-curvature="0" />
  <path
     style="fill:#000000"
     d="m 178.06732,72.005944 1e-5,-6.256515 1.82661,-4.9e-5 c 1.00464,-2.7e-5 12.86828,-0.03882 26.36366,-0.08621 26.43318,-0.09282 80.48357,-0.258885 84.26877,-0.258913 l 2.31563,-1.8e-5 0,6.319697 0,6.319696 -2.63205,0.03518 c -5.0701,0.06776 -47.05648,0.158001 -79.45054,0.170765 l -32.69209,0.01288 0,-6.256514 z"
     id="path3469"
     inkscape:connector-curvature="0" />
  <path
     style="fill:#000000"
     d="m 252.5594,65.307411 c 0.0415,-0.01662 0.0911,-0.01458 0.11027,0.0045 0.0191,0.01912 -0.0149,0.03271 -0.0755,0.03022 -0.067,-0.0028 -0.0807,-0.01639 -0.0348,-0.03476 z"
     id="path3471"
     inkscape:connector-curvature="0" />
  <path
     style="fill:#000000"
     d="m 178.06733,65.066271 0,-0.453033 8.15504,-0.03832 c 4.48527,-0.02108 27.93426,-0.100614 52.10885,-0.17675 24.1746,-0.07614 46.32913,-0.151482 49.2323,-0.167434 l 5.27848,-0.02901 0,0.457429 0,0.457429 -15.49026,0.01411 c -13.70402,0.01248 -14.47856,0.01749 -6.71677,0.04342 7.26053,0.02426 7.89052,0.03188 3.65323,0.04416 -2.81615,0.0082 -23.77331,0.07889 -46.57148,0.157174 -22.79816,0.07828 -43.2958,0.142669 -45.5503,0.143087 l -4.09909,7.61e-4 0,-0.453034 z"
     id="path3473"
     inkscape:connector-curvature="0" />
  <path
     style="fill:#000000"
     d="m 178.06733,65.059055 0,-0.460249 0.44586,-4.66e-4 c 0.24523,-2.56e-4 19.30602,-0.06387 42.35732,-0.141355 23.0513,-0.07749 46.92098,-0.155007 53.04374,-0.172263 6.12275,-0.01726 12.88626,-0.04627 15.03002,-0.06447 l 3.89773,-0.0331 0,0.464718 0,0.464718 -12.26852,0.01395 c -9.14397,0.0104 -10.8546,0.0215 -6.71676,0.04358 l 5.55176,0.02963 -5.09151,0.01469 c -2.80033,0.0081 -23.74455,0.07876 -46.54272,0.157064 -22.79816,0.07831 -43.30874,0.142699 -45.57906,0.143092 l -4.12786,7.16e-4 0,-0.46025 z"
     id="path3475"
     inkscape:connector-curvature="0" />
  <path
     style="fill:#000000"
     d="m 178.06733,65.066116 0,-0.453188 7.89615,-0.03809 c 4.34288,-0.02095 27.68831,-0.100374 51.87873,-0.176494 24.19041,-0.07612 46.46145,-0.153128 49.49118,-0.17113 l 5.50861,-0.03273 0,0.461053 0,0.461054 -9.59332,0.01357 c -5.27633,0.0075 -8.29887,0.02725 -6.71676,0.04396 2.60482,0.02751 2.40645,0.03173 -2.09989,0.04466 -2.73705,0.0079 -23.64243,0.07836 -46.45642,0.156687 -22.81398,0.07832 -43.37634,0.142726 -45.69413,0.143121 l -4.21415,7.17e-4 0,-0.453189 z"
     id="path3477"
     inkscape:connector-curvature="0" />
  <path
     style="fill:#000000"
     d="m 178.06733,65.059055 0,-0.460249 0.15821,-3.99e-4 c 0.087,-2.19e-4 19.01836,-0.06368 42.06966,-0.141027 23.0513,-0.07735 46.54559,-0.154883 52.20954,-0.172306 5.66394,-0.01742 12.55689,-0.04704 15.31767,-0.06581 l 5.01959,-0.03413 0,0.465724 0,0.465725 -7.17701,0.01055 c -3.94736,0.0058 -6.9699,0.02694 -6.71676,0.04698 0.25313,0.02004 -1.83093,0.04119 -4.63126,0.04701 -2.80033,0.0058 -12.31455,0.03672 -21.14271,0.06866 -33.54173,0.121371 -66.97753,0.229508 -70.9635,0.229508 l -4.14343,0 0,-0.46025 z"
     id="path3479"
     inkscape:connector-curvature="0" />
  <path
     style="fill:#000000"
     d="m 178.06733,65.066109 0,-0.453195 7.49343,-0.03755 c 6.74772,-0.03381 18.30644,-0.07283 77.59516,-0.261927 9.69832,-0.03093 20.34518,-0.07206 23.65969,-0.0914 l 6.02639,-0.03516 0,0.464853 0,0.464854 -5.50861,-0.0013 c -3.02973,-7.3e-4 -6.40178,0.02541 -7.49343,0.05809 -1.12505,0.03368 -15.05591,0.09786 -32.15992,0.148161 -16.59631,0.04881 -36.69913,0.112728 -44.67295,0.142038 -7.97382,0.02931 -16.84729,0.05385 -19.71881,0.05453 l -5.22095,0.0012 0,-0.453196 z"
     id="path3481"
     inkscape:connector-curvature="0" />
  <path
     style="fill:#000000"
     d="m 93.528744,65.353745 0,-0.453216 6.515406,-0.03665 c 3.58348,-0.02016 18.8127,-0.07512 33.84271,-0.122131 36.95016,-0.115582 58.38372,-0.189721 67.12449,-0.232185 l 7.29208,-0.03543 0,0.485078 0,0.485078 -12.46988,0.04009 c -6.85844,0.02205 -31.31709,0.103442 -54.35257,0.180867 -23.03548,0.07743 -43.24834,0.140982 -44.917467,0.141238 l -3.034769,4.67e-4 0,-0.453216 z"
     id="path3483"
     inkscape:connector-curvature="0" />
  <path
     style="fill:#000000"
     d="m 143.17813,65.767014 0,-0.08027 0.13965,-4e-5 c 0.0768,-2.3e-5 1.67861,-0.0053 3.55957,-0.01168 1.88096,-0.0064 3.57153,-0.01166 3.75684,-0.01168 l 0.33691,-4.1e-5 0,0.07813 0,0.07813 -0.0635,-10e-7 c -0.19383,-5e-6 -6.88791,0.0233 -7.27148,0.02532 l -0.45801,0.0024 0,-0.08027 z"
     id="path3485"
     inkscape:connector-curvature="0" />
  <path
     style="fill:#000000"
     d="m 143.17813,66.926982 c 0,-0.591894 4.4e-4,-1.076233 9.8e-4,-1.076307 0.005,-6.42e-4 3.01943,-0.01138 3.21953,-0.01147 0.15466,-6.8e-5 0.26001,-0.0015 0.25781,-0.0036 -0.003,-0.0029 -2.08119,0.0024 -3.22929,0.0082 l -0.24903,0.0013 0,-0.07917 0,-0.07917 0.45996,-4e-5 c 0.25298,-2.2e-5 0.92754,-0.0017 1.49903,-0.0038 0.57148,-0.0021 1.9206,-0.0064 2.99804,-0.0096 1.07745,-0.0032 2.1563,-0.0068 2.39746,-0.0081 l 0.43848,-0.0023 0,0.07834 0,0.07834 -0.28223,-9.2e-5 c -0.42853,-1.4e-4 -4.00855,0.01259 -4.01041,0.01426 -9e-4,8.03e-4 -9e-4,0.0021 0,0.0029 8.9e-4,8.14e-4 0.89108,-0.0017 1.97819,-0.0057 1.08711,-0.0039 2.05259,-0.0072 2.14551,-0.0073 l 0.16894,-1.78e-4 0,1.089843 0,1.089844 -3.89648,0 -3.89649,0 0,-1.076172 z"
     id="path3487"
     inkscape:connector-curvature="0" />
  <path
     style="fill:#000000"
     d=""
     id="path3489"
     inkscape:connector-curvature="0" />
  <path
     style="fill:#000000"
     d="m 249.4213,78.958892 0,-0.483949 22.72686,-0.01878 c 22.20353,-0.01835 24.83673,-0.03407 27.6324,-0.164975 1.42956,-0.06694 1.75705,-0.107987 2.0267,-0.254045 0.43393,-0.235046 0.77081,-0.677857 0.91908,-1.208088 0.0411,-0.147162 0.0579,-1.579098 0.0696,-5.949701 l 0.0154,-5.755894 -10.55307,0.0099 c -5.80419,0.0055 -9.64819,0.02019 -8.54223,0.03275 1.10596,0.01256 -2.54337,0.03777 -8.10963,0.05601 -5.56626,0.01825 -13.735,0.04639 -18.15276,0.06253 l -8.03229,0.02935 0,-0.466671 0,-0.466672 0.67396,-0.02491 c 0.60095,-0.02221 13.59037,-0.06697 43.08932,-0.14849 l 9.62328,-0.02659 0,-11.063686 0,-11.063686 0.48614,0 0.48614,0 -4.5e-4,17.158388 c -4.4e-4,11.729377 -0.015,17.248537 -0.0465,17.443305 -0.11811,0.727927 -0.46863,1.417353 -0.93281,1.834689 -0.45963,0.413243 -1.12905,0.693507 -2.02566,0.848072 -0.44336,0.07643 -1.58943,0.08052 -25.90868,0.09253 l -25.44469,0.01256 0,-0.48395 z"
     id="path3491"
     inkscape:connector-curvature="0" />
  <path
     style="fill:#000000"
     d="m 249.4213,78.347745 c 0,-0.08329 0.26661,-0.08522 15.74418,-0.114045 26.80984,-0.04993 34.75722,-0.145556 36.2926,-0.436692 0.48684,-0.09231 0.80554,-0.513878 0.92962,-1.229664 0.11514,-0.664219 0.15447,-2.404659 0.15474,-6.848489 l 4.4e-4,-4.353126 -9.00456,0.002 c -4.95269,0.0011 -7.12827,-0.0039 -4.8348,-0.01127 3.67851,-0.01175 4.16695,-0.0211 4.14459,-0.07938 -0.0223,-0.05801 0.2129,-0.06607 1.92885,-0.0661 1.07481,-1.9e-5 3.31268,-0.01324 4.97303,-0.02938 l 3.01882,-0.02935 -0.0158,5.719381 c -0.0146,5.291239 -0.0216,5.73923 -0.0933,5.984545 -0.15072,0.516124 -0.446,0.898283 -0.86774,1.123067 -0.31364,0.167173 -0.53395,0.196177 -2.03352,0.26772 -2.7009,0.128857 -5.47763,0.145472 -27.61031,0.165205 -22.37684,0.01995 -22.72686,0.01896 -22.72686,-0.06446 z"
     id="path3493"
     inkscape:connector-curvature="0" />
  <path
     style="fill:#000000"
     d="m 249.91025,78.334836 c 0.20815,-0.01856 7.71564,-0.05597 16.6833,-0.08312 27.52493,-0.08334 33.80315,-0.164343 34.91059,-0.450442 0.54716,-0.141357 0.81412,-0.567546 0.938,-1.497488 0.0565,-0.423909 0.071,-1.375303 0.0878,-5.734194 l 0.0201,-5.225961 -4.87391,0 c -3.4399,0 -4.8601,-0.01381 -4.82697,-0.04695 0.0321,-0.03212 1.60209,-0.05879 4.96964,-0.08443 2.70747,-0.02061 4.92514,-0.03429 4.92814,-0.03039 0.003,0.0039 -0.008,2.592446 -0.025,5.752329 l -0.0305,5.745243 -0.0969,0.265165 c -0.19985,0.546721 -0.64866,1.002407 -1.10874,1.125727 -0.55861,0.149732 -2.66727,0.217229 -8.31233,0.266073 -5.63001,0.04871 -43.81156,0.04733 -43.26328,-0.0016 l 0,2e-6 z"
     id="path3495"
     inkscape:connector-curvature="0" />
  <path
     style="fill:#000000"
     d="m 249.4213,78.960084 0,-0.482758 22.68266,-0.02109 c 22.02474,-0.02048 24.98796,-0.03818 27.65451,-0.165135 1.41424,-0.06733 1.73729,-0.105872 2.01132,-0.239946 0.44818,-0.219273 0.83324,-0.721969 0.95757,-1.25009 0.0346,-0.147001 0.0549,-1.930371 0.0677,-5.943776 l 0.0182,-5.733763 -9.11773,0.0085 c -5.01475,0.0047 -8.8592,0.01942 -8.54321,0.03272 0.31599,0.0133 -3.8703,0.0391 -9.30287,0.05734 -5.43257,0.01824 -13.60131,0.04637 -18.15276,0.06252 l -8.27536,0.02936 0,-0.466788 0,-0.466789 0.58557,-0.02489 c 0.52891,-0.02248 15.31002,-0.07359 42.82416,-0.148078 l 9.97683,-0.02701 0,-11.063567 0,-11.063566 0.48614,0 0.48614,0 -4.5e-4,17.158388 c -4.4e-4,11.729377 -0.015,17.248537 -0.0465,17.443305 -0.11811,0.727927 -0.46863,1.417353 -0.93281,1.834689 -0.45963,0.413243 -1.12905,0.693507 -2.02566,0.848072 -0.44336,0.07643 -1.58943,0.08052 -25.90868,0.09253 l -25.44469,0.01256 0,-0.482758 z"
     id="path3497"
     inkscape:connector-curvature="0" />
  <path
     style="fill:#000000"
     d="m 119.87154,78.436156 c 12.13718,-0.0061 31.98478,-0.0061 44.10579,0 12.12101,0.0061 2.19059,0.01114 -22.06759,0.01114 -24.25819,0 -34.17537,-0.005 -22.0382,-0.01114 z"
     id="path3499"
     inkscape:connector-curvature="0" />
  <path
     style="fill:#000000"
     d="m 97.82605,78.955438 0,-0.486136 44.08369,0 44.08368,0 0,0.486136 0,0.486136 -44.08368,0 -44.08369,0 0,-0.486136 z"
     id="path3501"
     inkscape:connector-curvature="0" />
  <path
     style="fill:#000000"
     d="m 97.82605,78.955438 0,-0.486136 44.08369,0 44.08368,0 0,0.486136 0,0.486136 -44.08368,0 -44.08369,0 0,-0.486136 z"
     id="path3503"
     inkscape:connector-curvature="0" />
  <path
     style="fill:#000000"
     d="m 97.82605,78.955438 0,-0.486136 44.08369,0 44.08368,0 0,0.486136 0,0.486136 -44.08368,0 -44.08369,0 0,-0.486136 z"
     id="path3505"
     inkscape:connector-curvature="0" />
  <path
     style="fill:#000000"
     d="m 135.81736,78.370066 0,-0.05859 3.89648,0 3.89649,0 0,0.05859 0,0.05859 -3.89649,0 -3.89648,0 0,-0.05859 z"
     id="path3507"
     inkscape:connector-curvature="0" />
  <path
     style="fill:#000000"
     d="m 137.54392,78.448191 1.72851,-0.002 -1.72753,-9.7e-4 c -1.50204,-8.44e-4 -1.72754,-0.0017 -1.72754,-0.0066 0,-0.0049 0.24397,-0.0058 1.87011,-0.0068 1.02857,-6.6e-4 2.78199,-6.6e-4 3.89649,0 l 2.02637,0.0012 0,0.0095 0,0.0095 -3.89747,-9.7e-4 c -2.83648,-7.06e-4 -3.42692,-0.0015 -2.16894,-0.0029 z"
     id="path3509"
     inkscape:connector-curvature="0" />
  <path
     style="fill:#000000"
     d="m 140.3189,65.861278 c 0.0902,-0.03611 0.19804,-0.03167 0.23958,0.0099 0.0415,0.04154 -0.0323,0.07108 -0.16406,0.06565 -0.14562,-0.006 -0.17524,-0.03562 -0.0755,-0.07552 z"
     id="path3511"
     inkscape:connector-curvature="0" />
  <path
     style="fill:#000000"
     d="m 12.564148,79.238463 c -1.396942,-0.377131 -2.247876,-1.24854 -2.702973,-2.76801 -0.212499,-0.70949 -0.22621,-2.312457 -0.261406,-30.561263 -0.02433,-19.531283 0.0065,-30.222025 0.08951,-31 0.228547,-2.142759 0.756778,-3.059516 2.113771,-3.668498 l 0.745895,-0.334738 143.105765,0.0064 c 120.71728,0.0054 143.25663,0.03322 144.07009,0.177931 2.25992,0.402018 3.64409,1.550647 3.93172,3.262693 0.0572,0.340299 0.0758,14.624976 0.0414,31.743726 -0.0585,29.136527 -0.0762,31.150106 -0.2776,31.517984 -0.35117,0.641593 -0.92881,1.133892 -1.69216,1.442163 l -0.71774,0.289852 -143.9375,0.02301 C 43.255869,79.387889 13.015923,79.360428 12.564148,79.238463 z M 291.51048,78.416192 c 6.73612,-0.07056 9.59092,-0.14157 9.8125,-0.24409 0.29073,-0.134506 0.28202,-0.13963 -0.125,-0.07352 -0.74607,0.12119 -170.83538,0.183468 -231.191103,0.08465 -57.181372,-0.09362 -57.254149,-0.09405 -57.687075,-0.346898 -0.790525,-0.461691 -1.13643,-1.186625 -1.38018,-2.892518 -0.131802,-0.922428 -0.335142,-7.044112 -0.265787,-8.0017 l 0.03836,-0.529574 4.149145,-0.03467 4.149144,-0.03467 -4.28125,-0.02951 -4.28125,-0.02951 0.0039,4.09375 c 0.0042,4.412382 0.09321,5.566912 0.502835,6.519107 0.337259,0.783981 0.698719,1.117041 1.520261,1.400817 0.637915,0.220348 5.266234,0.227988 135.09804,0.223 73.94063,-0.0028 138.7125,-0.04994 143.9375,-0.104671 l 0,0 z m 6.625,-0.383715 c 1.71875,-0.06445 3.26037,-0.155543 3.4258,-0.202425 0.21197,-0.06007 0.27439,-0.04251 0.21138,0.05945 -0.0492,0.07958 -0.0404,0.14469 0.0196,0.14469 0.15625,0 0.83833,-0.734101 0.75734,-0.815097 -0.0372,-0.03724 -0.161,0.07468 -0.27503,0.248696 -0.11402,0.174021 -0.27098,0.316401 -0.3488,0.316401 -0.0815,0 -0.0538,-0.09694 0.0654,-0.228592 0.32171,-0.355485 0.24332,-0.474226 -0.10009,-0.15161 -0.4644,0.436282 -1.65667,0.507035 -10.38054,0.616005 l -7.75,0.09681 5.625,0.01643 c 3.09375,0.009 7.03125,-0.0363 8.75,-0.100751 l 0,0 z m 4.64934,-7.248288 c -0.007,-3.128125 -0.0292,-5.209374 -0.0488,-4.625 -0.0794,2.373344 -0.0949,10.872253 -0.0192,10.60251 0.0447,-0.159505 0.0753,-2.849385 0.068,-5.97751 l 0,0 z m -0.37214,5.032969 c -0.0287,-0.190007 -0.053,-0.06422 -0.0539,0.279531 -0.001,0.34375 0.0226,0.499212 0.0522,0.345469 0.0297,-0.153742 0.0304,-0.434992 0.002,-0.625 l -4e-5,0 z m 0.1603,-5.459804 0,-5.051834 -0.95001,-0.08902 c -0.52251,-0.04896 -20.5897,-0.01901 -44.59375,0.06657 -67.16947,0.239465 -104.26841,0.34541 -124.51395,0.35558 -10.17236,0.0051 -18.46262,0.04188 -18.42279,0.08171 0.14451,0.144502 68.56589,0.0824 122.1055,-0.110826 30.14688,-0.108802 57.38594,-0.198388 60.53125,-0.19908 l 5.71875,-0.0013 0,4.999999 c 0,2.75 0.0281,5 0.0625,5 0.0344,0 0.0625,-2.273326 0.0625,-5.051835 l 0,0 z M 20.230948,66.321198 c -0.153742,-0.02967 -0.434992,-0.03044 -0.625,-0.0017 -0.190008,0.02873 -0.06422,0.05301 0.279531,0.05395 0.34375,8.75e-4 0.499211,-0.02257 0.345469,-0.05224 l 0,-6e-6 z m 6.255334,-0.0053 c -0.769559,-0.02189 -2.063309,-0.02197 -2.875,-1.25e-4 -0.811691,0.02181 -0.182053,0.03972 1.399197,0.03981 1.58125,8.7e-5 2.245362,-0.01775 1.475803,-0.03965 l 0,-3.5e-5 z m 4.899197,-0.19807 c 0.34375,-0.02059 -2.103125,-0.03491 -5.4375,-0.03182 -5.729715,0.0053 -5.832638,0.0092 -1.875,0.07063 3.920269,0.06086 5.816977,0.05079 7.3125,-0.03881 z m 12.413813,-0.177085 c -0.941153,-0.02121 -2.516153,-0.02126 -3.5,-1.15e-4 -0.983846,0.02114 -0.213813,0.0385 1.711187,0.03856 1.925,6.4e-5 2.729967,-0.01724 1.788813,-0.03845 l 0,0 z m 24.295284,-3.75e-4 c -4.078747,-0.01829 -10.716247,-0.01829 -14.75,9e-6 -4.033753,0.0183 -0.696597,0.03326 7.415903,0.03326 8.1125,-5e-6 11.412844,-0.01497 7.334097,-0.03326 l 0,0 z m 35.634654,-0.124966 c -5.10468,-0.01807 -13.457813,-0.01807 -18.562501,0 -5.104687,0.01808 -0.928125,0.03286 9.28125,0.03286 10.209381,0 14.385941,-0.01479 9.281251,-0.03286 z m -8.468751,-0.907274 c 20.143751,-0.06641 50.884381,-0.177788 68.312501,-0.247496 17.42813,-0.06971 48.61875,-0.184657 69.3125,-0.255445 49.48564,-0.169276 66.13065,-0.227235 68.22198,-0.237552 l 1.72199,-0.0085 -0.0345,-25.112727 -0.0345,-25.112727 -0.39113,-0.543523 c -0.24352,-0.338361 -0.64472,-0.674757 -1.06316,-0.891375 L 300.63412,12.150877 295.5098,12.00185 C 289.36638,11.823185 15.848033,11.777349 13.387891,11.954573 l -1.497589,0.107883 -0.458061,0.458061 c -0.273939,0.273938 -0.55091,0.733025 -0.689051,1.142117 -0.221181,0.655008 -0.232489,1.763716 -0.266301,26.109328 l -0.03531,25.425273 24.09695,-0.08415 C 47.791853,65.066805 75.11673,64.974593 95.26048,64.908178 l 0,0 z"
     id="path3513"
     inkscape:connector-curvature="0" />
  <path
     style="fill:#000000"
     d="M 12.564148,79.238268 C 11.167575,78.861712 10.316299,77.990014 9.861175,76.470453 9.648676,75.760963 9.634965,74.157996 9.599769,45.90919 c -0.02433,-19.531283 0.0065,-30.222025 0.08951,-31 0.228547,-2.142759 1.416859,-2.981272 2.113771,-3.668498 47.772732,-0.818084 95.94672,-0.330491 143.85167,-0.328353 120.71727,0.0054 143.25663,0.03322 144.07009,0.177931 2.06487,0.367322 3.43561,1.386742 3.86464,2.874117 0.15551,0.539202 0.14148,62.64407 -0.0143,63.187204 -0.32268,1.125118 -1.31605,1.890885 -2.75595,2.124498 -1.26419,0.205107 -287.493384,0.167552 -288.255067,-0.03782 l 0,0 z M 135.82298,78.429922 c 0,-0.126504 -39.872594,-0.264954 -82.500001,-0.286469 -30.566128,-0.01543 -40.555194,-0.0818 -41.0625,-0.272849 -0.16475,-0.06204 -0.154094,-0.04369 0.03125,0.05382 0.154688,0.08138 0.28125,0.22178 0.28125,0.311994 0,0.122064 0.327773,0.174389 1.28125,0.204536 2.989771,0.09453 121.968751,0.08377 121.968751,-0.01103 z m 150.1875,-0.0076 12.625,-0.07558 -16.29295,-0.10371 c -19.56372,-0.12453 -138.76955,0.0347 -138.76955,0.185367 0,0.117931 122.59768,0.112703 142.4375,-0.0061 l 0,1e-6 z m 15.3125,-0.253259 c 0.17188,-0.04964 -0.30625,-0.06795 -1.0625,-0.04069 -0.75625,0.02726 -1.43125,0.06904 -1.5,0.09285 -0.25007,0.08659 2.25892,0.03553 2.5625,-0.05215 z M 12.072979,78.101087 c 0,-0.03196 -0.126562,-0.119434 -0.28125,-0.194395 -0.270078,-0.13088 -0.271611,-0.128573 -0.03861,0.0581 0.255033,0.204324 0.319859,0.231946 0.319859,0.136295 z M 297.9694,78.036147 c 1.7649,-0.06449 3.36235,-0.15577 3.54988,-0.20284 0.2411,-0.06051 0.31505,-0.04362 0.25247,0.05765 -0.0487,0.07878 -0.0395,0.14323 0.0205,0.14323 0.15625,0 0.83833,-0.734101 0.75734,-0.815097 -0.0372,-0.03724 -0.161,0.07468 -0.27503,0.248696 -0.11402,0.174021 -0.27098,0.316401 -0.3488,0.316401 -0.0815,0 -0.0538,-0.09694 0.0654,-0.228592 0.32179,-0.35557 0.24329,-0.47419 -0.10024,-0.151466 -0.45741,0.429713 -1.72405,0.508933 -9.88039,0.61795 l -7.125,0.09523 4.9375,0.01805 c 2.71563,0.0099 6.38152,-0.03472 8.14642,-0.09921 z M 11.822979,77.577234 c 0,-0.01582 -0.117668,-0.228187 -0.261485,-0.471938 -0.40334,-0.683612 -0.607637,-1.654579 -0.757473,-3.600057 -0.163025,-2.116733 -0.171219,-2.425462 -0.134384,-5.063092 l 0.02834,-2.029541 4.09375,-0.03473 4.093749,-0.03473 -4.218749,-0.02948 -4.21875,-0.02948 0,4.053455 c 0,2.2294 0.05999,4.493463 0.133321,5.03125 0.17118,1.255462 0.618561,2.284033 0.981556,2.256689 0.143067,-0.01078 0.260123,-0.03253 0.260122,-0.04835 z M 302.40915,75.940439 c -0.0314,-0.120312 -0.0572,-0.02187 -0.0572,0.21875 0,0.240625 0.0257,0.339063 0.0572,0.21875 0.0315,-0.120312 0.0315,-0.317187 0,-0.4375 z m 0.38243,-7.125 c -0.0202,-1.357812 -0.0367,-0.246875 -0.0367,2.46875 0,2.715625 0.0165,3.826563 0.0367,2.46875 0.0202,-1.357812 0.0202,-3.579687 0,-4.9375 z m -0.2186,1.354972 0,-4.863779 -1.06073,-0.08836 c -0.58342,-0.0486 -27.25998,0.0036 -59.28125,0.11588 -32.02129,0.112331 -64.97574,0.203294 -73.23214,0.202139 -14.51178,-0.002 -18.05088,0.0493 -18.05088,0.261806 0,0.05527 4.28907,0.07331 9.53125,0.04008 5.24219,-0.03322 28.88125,-0.114704 52.53125,-0.181067 23.65,-0.06636 53.44844,-0.158063 66.21875,-0.20378 l 23.21875,-0.08312 0,4.831988 c 0,2.657593 0.0281,4.831988 0.0625,4.831988 0.0344,0 0.0625,-2.1887 0.0625,-4.863775 z M 20.166729,66.323023 c -0.120312,-0.03144 -0.317187,-0.03144 -0.4375,0 -0.120312,0.03144 -0.02188,0.05717 0.21875,0.05717 0.240625,0 0.339063,-0.02573 0.21875,-0.05717 z m 10.28125,-0.161512 c 0.52443,-0.05071 -1.265542,-0.08742 -4.0625,-0.0833 -2.770502,0.0041 -4.247545,0.03858 -3.3125,0.07738 1.41447,0.05869 1.566154,0.08249 0.9375,0.147073 -0.4125,0.04238 0.65625,0.04835 2.375,0.01328 1.71875,-0.03508 3.546875,-0.104571 4.0625,-0.154433 z M 99.04173,65.815493 c -2.389063,-0.019 -6.298438,-0.019 -8.687501,0 -2.389062,0.019 -0.434375,0.03454 4.34375,0.03454 4.778131,0 6.732821,-0.01554 4.343751,-0.03454 z m 46.78125,-0.02464 c 1.89063,-0.04669 -3.90312,-0.08254 -12.875,-0.07967 -8.97187,0.0029 -14.5125,0.03572 -12.3125,0.073 5.90994,0.100157 21.23708,0.104212 25.1875,0.0067 l 0,1e-6 z M 94.947979,64.907547 c 20.040631,-0.06683 50.556251,-0.178184 67.812501,-0.247449 17.25625,-0.06927 48.50313,-0.181945 69.4375,-0.250397 20.93438,-0.06845 43.4625,-0.151978 50.0625,-0.185609 6.6,-0.03363 13.92657,-0.06199 16.28125,-0.06302 l 4.28125,-0.0019 -0.008,-24.34375 c -0.004,-13.389063 -0.0474,-24.73813 -0.0959,-25.220149 -0.1076,-1.070055 -0.515,-1.66228 -1.46546,-2.130285 -0.62497,-0.307741 -0.68527,-0.312468 -5.8125,-0.455649 -6.25932,-0.174788 -279.650006,-0.227889 -282.053229,-0.05477 -0.908239,-0.07503 -1.323293,0.08248 -1.95565,0.565944 -0.276409,0.276408 -0.548602,0.729336 -0.686371,1.142117 -0.217543,0.651797 -0.230216,1.883057 -0.268723,26.109297 l -0.04041,25.425241 24.036873,-0.08406 c 13.22028,-0.04623 40.433747,-0.138736 60.474372,-0.205565 z"
     id="path3515"
     inkscape:connector-curvature="0"
     sodipodi:nodetypes="csssccsccsccccscsssccccssccccsccssssccccsccscsscccccssscccccsscscsssssssccssssssscssscsssssssssssscscssccccssssccccccsssc" />
  <rect
     style="fill:#000000"
     id="rect3533"
     width="139"
     height="4.625"
     x="13.297255"
     y="74.48484" />
  <rect
     style="fill:#000000"
     id="rect3535"
     width="26.125"
     height="11"
     x="10.047255"
     y="65.35984" />
  <rect
     style="fill:#000000"
     id="rect3537"
     width="0.5"
     height="0.25"
     x="48.047298"
     y="75.60984" />
  <rect
     style="fill:#000000"
     id="rect3539"
     width="32.25"
     height="6.75"
     x="10.672255"
     y="70.48484" />
  <rect
     style="fill:#000000"
     id="rect3541"
     width="2.5"
     height="1.25"
     x="10.297255"
     y="75.85984" />
  <rect
     style="fill:#000000"
     id="rect3543"
     width="3.25"
     height="2.875"
     x="13.172255"
     y="75.73484" />
  <rect
     style="fill:#000000"
     id="rect3547"
     width="1.375"
     height="0.375"
     x="11.922255"
     y="77.73484" />
  <rect
     style="fill:#000000"
     id="rect3551"
     width="0.9921875"
     height="0.921875"
     x="12.31288"
     y="77.711403" />
  <rect
     style="fill:#000000"
     id="rect3553"
     width="1.3828125"
     height="1.5546875"
     x="10.898818"
     y="76.820778" />
  <rect
     style="fill:#000000"
     id="rect3555"
     width="177.21864"
     height="5.3033009"
     x="108.16615"
     y="64.910103" />
  <rect
     style="fill:#000000"
     id="rect3557"
     width="1.9445436"
     height="0.26516503"
     x="134.15218"
     y="74.014099" />
  <rect
     style="fill:#000000"
     id="rect3559"
     width="153.70734"
     height="6.8942909"
     x="131.05858"
     y="71.539223" />
  <rect
     style="fill:#000000"
     id="rect3561"
     width="41.896076"
     height="2.8284271"
     x="260.63589"
     y="64.910103" />
  <rect
     style="fill:#000000"
     id="rect3563"
     width="22.715805"
     height="4.8613591"
     x="278.49033"
     y="73.660545" />
  <rect
     style="fill:#000000"
     id="rect3565"
     width="2.9168155"
     height="10.518213"
     x="300.8526"
     y="66.235924" />
  <rect
     style="fill:#000000"
     id="rect3567"
     width="1.2153398"
     height="2.4306796"
     x="301.64807"
     y="64.578644" />
  <rect
     style="fill:#000000"
     id="rect3569"
     width="3.1105838"
     height="1.9224466"
     x="299.68146"
     y="75.936546" />
  <rect
     style="fill:#000000"
     id="rect3571"
     width="0.22097087"
     height="0.022097087"
     x="298.31143"
     y="77.881088" />
  <rect
     style="fill:#000000"
     id="rect3573"
     width="3.0493979"
     height="1.016466"
     x="298.64288"
     y="77.527534" />
  <rect
     style="fill:#000000"
     id="rect3575"
     width="0.92807764"
     height="1.5016612"
     x="301.5155"
     y="76.930908" />
  <rect
     style="fill:#000000"
     id="rect3577"
     width="116.40746"
     height="3.0052037"
     x="181.61673"
     y="75.78186" />
  <g
     style="font-size:12px;font-style:normal;font-variant:normal;font-weight:normal;font-stretch:normal;line-height:125%;letter-spacing:0px;word-spacing:0px;fill:#ffffff;fill-opacity:1;stroke:none;font-family:Mukti Narrow;-inkscape-font-specification:Mukti Narrow"
     id="text3732"
     transform="translate(5.5472649,6.367878)">
    <path
       d="m 13.67,61.193565 0,8.748047 -1.125,0 0,-8.748047 1.125,0"
       style="font-family:Mukti Narrow;-inkscape-font-specification:Mukti Narrow"
       id="path3192"
       inkscape:connector-curvature="0" />
    <path
       d="m 22.423906,61.193565 0,8.748047 -1.259765,0 -4.523438,-7.089844 0,7.089844 -1.054687,0 0,-8.748047 1.207031,0 4.576172,7.154297 0,-7.154297 1.054687,0"
       style="font-family:Mukti Narrow;-inkscape-font-specification:Mukti Narrow"
       id="path3194"
       inkscape:connector-curvature="0" />
    <path
       d="m 28.054766,69.941612 -1.201172,0 -3.146485,-8.748047 1.201172,0 2.572266,7.40625 2.419922,-7.40625 1.189453,0 -3.035156,8.748047"
       style="font-family:Mukti Narrow;-inkscape-font-specification:Mukti Narrow"
       id="path3196"
       inkscape:connector-curvature="0" />
    <path
       d="m 33.685625,61.193565 0,8.748047 -1.125,0 0,-8.748047 1.125,0"
       style="font-family:Mukti Narrow;-inkscape-font-specification:Mukti Narrow"
       id="path3198"
       inkscape:connector-curvature="0" />
    <path
       d="m 41.847734,63.759972 -1.060546,0 c -0.0078,-0.886712 -0.447272,-1.445305 -1.31836,-1.675782 -0.253911,-0.0664 -0.54102,-0.0996 -0.861328,-0.09961 -0.832034,8e-6 -1.412112,0.248055 -1.740234,0.744141 l 0,0 c -0.144534,0.21485 -0.216799,0.458991 -0.216797,0.732421 -2e-6,0.449225 0.214841,0.785162 0.644531,1.007813 0.203122,0.105474 0.468747,0.201177 0.796875,0.287109 l 2.191406,0.591797 c 0.960931,0.261723 1.552728,0.781254 1.775391,1.558594 0.05859,0.199222 0.08788,0.410159 0.08789,0.632812 l 0,0.169922 c -0.04688,0.671877 -0.314461,1.240236 -0.802735,1.705078 l -0.158203,0.128907 c -0.585943,0.449218 -1.406255,0.673828 -2.460937,0.673828 -1.351566,0 -2.332033,-0.416016 -2.941407,-1.248047 -0.335938,-0.45703 -0.507813,-1.060545 -0.515625,-1.810547 l 1.060547,0 c -0.01172,0.519534 0.13867,0.966799 0.451172,1.341797 0.410154,0.488282 1.082028,0.732423 2.015625,0.732422 0.714839,1e-6 1.251948,-0.123046 1.611328,-0.369141 0.359369,-0.257811 0.562494,-0.611326 0.609375,-1.060547 0.0078,-0.02344 0.01171,-0.05078 0.01172,-0.08203 l 0,-0.07031 c -6e-6,-0.609372 -0.439459,-1.052731 -1.318359,-1.330079 -0.08594,-0.03515 -0.181646,-0.06445 -0.28711,-0.08789 l -2.173828,-0.574219 c -1.13672,-0.29687 -1.708985,-0.976557 -1.716797,-2.039062 -1e-6,-0.992181 0.416015,-1.712883 1.248047,-2.16211 0.511716,-0.273428 1.132809,-0.410147 1.863281,-0.410156 1.406245,9e-6 2.361322,0.445321 2.865235,1.335937 0.226555,0.390633 0.339836,0.849617 0.339843,1.376954"
       style="font-family:Mukti Narrow;-inkscape-font-specification:Mukti Narrow"
       id="path3200"
       inkscape:connector-curvature="0" />
    <path
       d="m 45.029375,61.193565 0,8.748047 -1.125,0 0,-8.748047 1.125,0"
       style="font-family:Mukti Narrow;-inkscape-font-specification:Mukti Narrow"
       id="path3202"
       inkscape:connector-curvature="0" />
    <path
       d="m 46.980547,69.941612 0,-8.748047 3.550781,0 c 0.824214,9e-6 1.457026,0.203134 1.898438,0.609375 0.46093,0.410164 0.691399,0.947273 0.691406,1.611328 -7e-6,0.894537 -0.40235,1.531255 -1.207031,1.910157 0.839837,0.324223 1.343742,0.806644 1.511718,1.447265 0.04687,0.16016 0.07421,0.332034 0.08203,0.515625 -8e-6,0.05078 -8e-6,0.103519 0,0.158203 -8e-6,0.703127 -0.224617,1.291017 -0.673828,1.763672 -0.445319,0.488282 -1.080084,0.732422 -1.904297,0.732422 l -3.949219,0 m 1.113281,-4.980469 2.16211,0 c 0.574214,5e-6 0.998041,-0.10351 1.271484,-0.310546 0.320307,-0.242182 0.480463,-0.601557 0.480469,-1.078125 -6e-6,-0.47265 -0.160162,-0.833978 -0.480469,-1.083985 -0.273443,-0.207023 -0.69727,-0.310539 -1.271484,-0.310547 l -2.16211,0 0,2.783203 m 0,3.996094 2.72461,0 c 0.511713,10e-7 0.900385,-0.140624 1.166015,-0.421875 0.269525,-0.277342 0.404291,-0.636716 0.404297,-1.078125 -6e-6,-0.441403 -0.134772,-0.804684 -0.404297,-1.089844 -0.257818,-0.281246 -0.646489,-0.421871 -1.166015,-0.421875 l -2.72461,0 0,3.011719"
       style="font-family:Mukti Narrow;-inkscape-font-specification:Mukti Narrow"
       id="path3204"
       inkscape:connector-curvature="0" />
    <path
       d="m 56.121172,61.193565 0,7.763672 4.324219,0 0,0.984375 -5.4375,0 0,-8.748047 1.113281,0"
       style="font-family:Mukti Narrow;-inkscape-font-specification:Mukti Narrow"
       id="path3206"
       inkscape:connector-curvature="0" />
    <path
       d="m 62.929766,65.957237 0,3 5.15625,0 0,0.984375 -6.275391,0 0,-8.748047 6.064453,0 0,0.984375 -4.945312,0 0,2.794922 4.763672,0 0,0.984375 -4.763672,0"
       style="font-family:Mukti Narrow;-inkscape-font-specification:Mukti Narrow"
       id="path3208"
       inkscape:connector-curvature="0" />
    <path
       d="m 74.396563,61.193565 0,8.748047 -1.125,0 0,-8.748047 1.125,0"
       style="font-family:Mukti Narrow;-inkscape-font-specification:Mukti Narrow"
       id="path3210"
       inkscape:connector-curvature="0" />
    <path
       d="m 83.150469,61.193565 0,8.748047 -1.259766,0 -4.523437,-7.089844 0,7.089844 -1.054688,0 0,-8.748047 1.207031,0 4.576172,7.154297 0,-7.154297 1.054688,0"
       style="font-family:Mukti Narrow;-inkscape-font-specification:Mukti Narrow"
       id="path3212"
       inkscape:connector-curvature="0" />
    <path
       d="m 88.324297,62.17794 0,7.763672 -1.113281,0 0,-7.763672 -2.882813,0 0,-0.984375 6.861328,0 0,0.984375 -2.865234,0"
       style="font-family:Mukti Narrow;-inkscape-font-specification:Mukti Narrow"
       id="path3214"
       inkscape:connector-curvature="0" />
    <path
       d="m 93.609453,65.957237 0,3 5.15625,0 0,0.984375 -6.27539,0 0,-8.748047 6.064453,0 0,0.984375 -4.945313,0 0,2.794922 4.763672,0 0,0.984375 -4.763672,0"
       style="font-family:Mukti Narrow;-inkscape-font-specification:Mukti Narrow"
       id="path3216"
       inkscape:connector-curvature="0" />
    <path
       d="m 101.66023,66.174034 0,3.767578 -1.11914,0 0,-8.748047 4.03711,0 c 1.35937,9e-6 2.20312,0.480477 2.53125,1.441407 0.0859,0.261725 0.1289,0.560553 0.12891,0.896484 -1e-5,0.785162 -0.28712,1.382818 -0.86133,1.792969 -0.15235,0.101567 -0.32422,0.201176 -0.51562,0.298828 0.49608,0.214848 0.8203,0.482426 0.97265,0.802734 0.13281,0.296878 0.20312,0.789065 0.21094,1.476563 0.0195,0.765626 0.0957,1.257813 0.22852,1.476562 0.0742,0.101563 0.17577,0.197266 0.30468,0.28711 l 0,0.27539 -1.35937,0 c -0.16798,-0.382812 -0.25196,-0.859374 -0.25195,-1.429687 l 0.0117,-0.779297 c 0,-0.871091 -0.32031,-1.374997 -0.96093,-1.511719 -0.14063,-0.03125 -0.30079,-0.04687 -0.48047,-0.04687 l -2.87696,0 m 0,-0.984375 2.70118,0 c 0.96874,5e-6 1.52343,-0.343745 1.66406,-1.03125 0.0352,-0.136713 0.0527,-0.292963 0.0527,-0.46875 0,-0.527337 -0.15235,-0.919915 -0.45703,-1.177734 -0.25782,-0.222649 -0.67774,-0.333977 -1.25976,-0.333985 l -2.70118,0 0,3.011719"
       style="font-family:Mukti Narrow;-inkscape-font-specification:Mukti Narrow"
       id="path3218"
       inkscape:connector-curvature="0" />
    <path
       d="m 115.84578,61.193565 0,8.748047 -1.25976,0 -4.52344,-7.089844 0,7.089844 -1.05469,0 0,-8.748047 1.20703,0 4.57617,7.154297 0,-7.154297 1.05469,0"
       style="font-family:Mukti Narrow;-inkscape-font-specification:Mukti Narrow"
       id="path3220"
       inkscape:connector-curvature="0" />
    <path
       d="m 118.96883,65.957237 0,3 5.15625,0 0,0.984375 -6.27539,0 0,-8.748047 6.06445,0 0,0.984375 -4.94531,0 0,2.794922 4.76367,0 0,0.984375 -4.76367,0"
       style="font-family:Mukti Narrow;-inkscape-font-specification:Mukti Narrow"
       id="path3222"
       inkscape:connector-curvature="0" />
    <path
       d="m 129.03523,62.17794 0,7.763672 -1.11328,0 0,-7.763672 -2.88281,0 0,-0.984375 6.86133,0 0,0.984375 -2.86524,0"
       style="font-family:Mukti Narrow;-inkscape-font-specification:Mukti Narrow"
       id="path3224"
       inkscape:connector-curvature="0" />
    <path
       d="m 137.66023,66.232628 0,3.708984 -1.11914,0 0,-8.748047 3.61524,0 c 1.28905,9e-6 2.12109,0.472665 2.49609,1.417969 0.13671,0.328132 0.20507,0.710944 0.20508,1.148438 -10e-6,0.777349 -0.25196,1.394536 -0.75586,1.851562 -0.46485,0.414067 -1.0293,0.621098 -1.69336,0.621094 l -2.74805,0 m 0,-0.984375 2.32618,0 c 0.8164,5e-6 1.34374,-0.294917 1.58203,-0.884766 0.082,-0.183588 0.12304,-0.400384 0.12304,-0.65039 0,-0.718743 -0.31641,-1.191399 -0.94921,-1.417969 -1e-5,8e-6 -0.004,8e-6 -0.0117,0 -0.21485,-0.07812 -0.4629,-0.11718 -0.74414,-0.117188 l -2.32618,0 0,3.070313"
       style="font-family:Mukti Narrow;-inkscape-font-specification:Mukti Narrow"
       id="path3226"
       inkscape:connector-curvature="0" />
    <path
       d="m 145.6993,66.174034 0,3.767578 -1.11914,0 0,-8.748047 4.03711,0 c 1.35936,9e-6 2.20311,0.480477 2.53125,1.441407 0.0859,0.261725 0.12889,0.560553 0.1289,0.896484 -1e-5,0.785162 -0.28711,1.382818 -0.86133,1.792969 -0.15235,0.101567 -0.32422,0.201176 -0.51562,0.298828 0.49609,0.214848 0.8203,0.482426 0.97266,0.802734 0.1328,0.296878 0.20311,0.789065 0.21093,1.476563 0.0195,0.765626 0.0957,1.257813 0.22852,1.476562 0.0742,0.101563 0.17577,0.197266 0.30469,0.28711 l 0,0.27539 -1.35938,0 c -0.16797,-0.382812 -0.25196,-0.859374 -0.25195,-1.429687 l 0.0117,-0.779297 c -1e-5,-0.871091 -0.32032,-1.374997 -0.96094,-1.511719 -0.14063,-0.03125 -0.30079,-0.04687 -0.48047,-0.04687 l -2.87695,0 m 0,-0.984375 2.70117,0 c 0.96874,5e-6 1.52343,-0.343745 1.66406,-1.03125 0.0352,-0.136713 0.0527,-0.292963 0.0527,-0.46875 -1e-5,-0.527337 -0.15235,-0.919915 -0.45704,-1.177734 -0.25781,-0.222649 -0.67774,-0.333977 -1.25976,-0.333985 l -2.70117,0 0,3.011719"
       style="font-family:Mukti Narrow;-inkscape-font-specification:Mukti Narrow"
       id="path3228"
       inkscape:connector-curvature="0" />
    <path
       d="m 156.80281,61.047081 c 1.39062,9e-6 2.4746,0.492196 3.25196,1.476562 l 0.0117,0.01172 c 0.008,0.0078 0.0156,0.01563 0.0234,0.02344 0.48046,0.632819 0.77929,1.406256 0.89649,2.320312 0.0351,0.261724 0.0527,0.537114 0.0527,0.826172 -1e-5,1.183597 -0.32813,2.195315 -0.98437,3.035156 -0.16017,0.207033 -0.33595,0.390626 -0.52735,0.550782 -0.73047,0.617187 -1.63477,0.925781 -2.71289,0.925781 -1.33594,0 -2.39649,-0.46875 -3.18164,-1.40625 -0.69531,-0.832029 -1.04297,-1.890622 -1.04297,-3.175781 0,-1.472651 0.44336,-2.636712 1.33008,-3.492188 0.76172,-0.73046 1.72265,-1.095694 2.88281,-1.095703 m 0,0.984375 c -1.04297,8e-6 -1.85156,0.408211 -2.42578,1.224609 -0.44922,0.632819 -0.67383,1.425787 -0.67383,2.378907 0,1.261721 0.38086,2.224611 1.14258,2.888671 0.53515,0.472658 1.1914,0.708986 1.96875,0.708985 1.03125,10e-7 1.83398,-0.40039 2.4082,-1.201172 0.46484,-0.621091 0.69726,-1.404294 0.69727,-2.349609 -1e-5,-1.320307 -0.39259,-2.312494 -1.17773,-2.976563 -0.52735,-0.449211 -1.17384,-0.67382 -1.93946,-0.673828"
       style="font-family:Mukti Narrow;-inkscape-font-specification:Mukti Narrow"
       id="path3230"
       inkscape:connector-curvature="0" />
    <path
       d="m 165.45711,61.193565 1.11328,0 0,6.5625 c 0,0.992189 -0.35938,1.701173 -1.07812,2.126953 -0.39063,0.222657 -0.85352,0.333985 -1.38868,0.333985 -0.99219,0 -1.69726,-0.34375 -2.11523,-1.03125 -0.21484,-0.359374 -0.32227,-0.787108 -0.32227,-1.283203 l 0,-0.767578 1.13672,0 0,0.5625 c 0,0.88672 0.32422,1.402344 0.97266,1.546875 l 0.33984,0.03516 c 0.46094,1e-6 0.81641,-0.179687 1.06641,-0.539063 0.18359,-0.269529 0.27539,-0.73242 0.27539,-1.388672 l 0,-6.158203"
       style="font-family:Mukti Narrow;-inkscape-font-specification:Mukti Narrow"
       id="path3232"
       inkscape:connector-curvature="0" />
    <path
       d="m 169.66414,65.957237 0,3 5.15625,0 0,0.984375 -6.27539,0 0,-8.748047 6.06445,0 0,0.984375 -4.94531,0 0,2.794922 4.76367,0 0,0.984375 -4.76367,0"
       style="font-family:Mukti Narrow;-inkscape-font-specification:Mukti Narrow"
       id="path3234"
       inkscape:connector-curvature="0" />
    <path
       d="m 183.42781,63.906456 -1.14258,0 c -0.1211,-0.601556 -0.33203,-1.041009 -0.63281,-1.318359 -0.37891,-0.355461 -0.95508,-0.541008 -1.72851,-0.556641 -1.02344,8e-6 -1.7793,0.460945 -2.26758,1.382812 -0.32032,0.597663 -0.48047,1.345709 -0.48047,2.244141 0,1.359378 0.3789,2.355471 1.13672,2.988281 0.47265,0.390626 1.04101,0.585939 1.70508,0.585938 0.87108,10e-7 1.51171,-0.308593 1.92187,-0.925781 0.0469,-0.0625 0.0859,-0.128905 0.11719,-0.199219 0.17577,-0.335935 0.30859,-0.78906 0.39844,-1.359375 l 1.14843,0 c -0.26172,2.312501 -1.46094,3.46875 -3.59765,3.46875 -1.12891,0 -2.02149,-0.339844 -2.67774,-1.019531 -0.84765,-0.871093 -1.27148,-2.046873 -1.27148,-3.527344 0,-1.464838 0.4082,-2.640618 1.22461,-3.527344 0.65625,-0.73046 1.58007,-1.095694 2.77148,-1.095703 1.90625,9e-6 3.03124,0.953133 3.375,2.859375"
       style="font-family:Mukti Narrow;-inkscape-font-specification:Mukti Narrow"
       id="path3236"
       inkscape:connector-curvature="0" />
    <path
       d="m 188.40242,62.17794 0,7.763672 -1.11328,0 0,-7.763672 -2.88281,0 0,-0.984375 6.86133,0 0,0.984375 -2.86524,0"
       style="font-family:Mukti Narrow;-inkscape-font-specification:Mukti Narrow"
       id="path3238"
       inkscape:connector-curvature="0" />
    <path
       d="m 226.62313,65.324425 0,4.664062 -0.70899,0 -0.27539,-1.160156 c -0.83204,0.925781 -1.82813,1.388672 -2.98828,1.388672 -1.22266,0 -2.21094,-0.455078 -2.96484,-1.365235 -0.69532,-0.832029 -1.04297,-1.896481 -1.04297,-3.193359 0,-1.41015 0.4082,-2.554681 1.22461,-3.433594 0.11328,-0.121086 0.23242,-0.232414 0.35742,-0.333984 0.68359,-0.562491 1.55663,-0.843741 2.61914,-0.84375 1.43359,9e-6 2.47265,0.472665 3.11719,1.417969 0.26561,0.390632 0.44725,0.851569 0.54492,1.382812 l -1.14258,0 c -0.16798,-0.785149 -0.63282,-1.322258 -1.39453,-1.611328 -0.33594,-0.136711 -0.71485,-0.20507 -1.13672,-0.205078 -1.05469,8e-6 -1.86719,0.416023 -2.4375,1.248047 -0.42188,0.625006 -0.63281,1.398443 -0.63281,2.320312 0,1.007816 0.24414,1.847659 0.73242,2.519532 l 0.1875,0.228515 c 0.52734,0.57422 1.26367,0.869142 2.20898,0.884766 0.91406,10e-7 1.63476,-0.320312 2.16211,-0.960938 0.39062,-0.480466 0.58593,-1.056638 0.58594,-1.728515 l 0,-0.240235 -2.66602,0 0,-0.978515 3.6504,0"
       style="font-family:Mukti Narrow;-inkscape-font-specification:Mukti Narrow"
       id="path3240"
       inkscape:connector-curvature="0" />
    <path
       d="m 229.6407,65.957237 0,3 5.15625,0 0,0.984375 -6.27539,0 0,-8.748047 6.06446,0 0,0.984375 -4.94532,0 0,2.794922 4.76368,0 0,0.984375 -4.76368,0"
       style="font-family:Mukti Narrow;-inkscape-font-specification:Mukti Narrow"
       id="path3242"
       inkscape:connector-curvature="0" />
    <path
       d="m 239.70711,62.17794 0,7.763672 -1.11328,0 0,-7.763672 -2.88281,0 0,-0.984375 6.86132,0 0,0.984375 -2.86523,0"
       style="font-family:Mukti Narrow;-inkscape-font-specification:Mukti Narrow"
       id="path3244"
       inkscape:connector-curvature="0" />
    <path
       d="m 245.11531,61.193565 0,8.748047 -1.125,0 0,-8.748047 1.125,0"
       style="font-family:Mukti Narrow;-inkscape-font-specification:Mukti Narrow"
       id="path3246"
       inkscape:connector-curvature="0" />
    <path
       d="m 252.18758,68.898643 0,1.042969 -5.66016,0 c 0.0547,-1.023436 0.28125,-1.802732 0.67969,-2.33789 0.23437,-0.296873 0.55078,-0.585935 0.94922,-0.867188 0.21484,-0.15234 0.46679,-0.312496 0.75586,-0.480469 l 1.10742,-0.621093 c 0.75781,-0.433589 1.14062,-0.994136 1.14844,-1.681641 -1e-5,-0.574212 -0.24024,-1.017571 -0.72071,-1.330078 -0.27734,-0.175774 -0.59766,-0.263664 -0.96093,-0.263672 -0.59766,8e-6 -1.05665,0.22657 -1.37696,0.679687 -0.0234,0.03516 -0.043,0.07227 -0.0586,0.111329 l -0.0234,0.03516 c -0.13672,0.257819 -0.2207,0.658209 -0.25195,1.201172 l -1.06055,0 c 0.0273,-0.800775 0.17969,-1.417962 0.45703,-1.851563 0.48047,-0.734367 1.26563,-1.101554 2.35547,-1.101562 0.78906,8e-6 1.43164,0.224617 1.92774,0.673828 0.53124,0.468757 0.79687,1.076179 0.79687,1.822265 0,1.054693 -0.60157,1.910161 -1.80469,2.566407 l -1.19531,0.65039 c -0.42578,0.246097 -0.74609,0.474612 -0.96094,0.685547 -0.32031,0.292971 -0.51367,0.648439 -0.58007,1.066406 l 4.47656,0"
       style="font-family:Mukti Narrow;-inkscape-font-specification:Mukti Narrow"
       id="path3248"
       inkscape:connector-curvature="0" />
    <path
       d="m 255.0118,66.232628 0,3.708984 -1.11914,0 0,-8.748047 3.61523,0 c 1.28906,9e-6 2.12109,0.472665 2.49609,1.417969 0.13672,0.328132 0.20508,0.710944 0.20508,1.148438 0,0.777349 -0.25196,1.394536 -0.75586,1.851562 -0.46485,0.414067 -1.0293,0.621098 -1.69336,0.621094 l -2.74804,0 m 0,-0.984375 2.32617,0 c 0.8164,5e-6 1.34374,-0.294917 1.58203,-0.884766 0.082,-0.183588 0.12304,-0.400384 0.12305,-0.65039 -10e-6,-0.718743 -0.31642,-1.191399 -0.94922,-1.417969 -1e-5,8e-6 -0.004,8e-6 -0.0117,0 -0.21485,-0.07812 -0.4629,-0.11718 -0.74414,-0.117188 l -2.32617,0 0,3.070313"
       style="font-family:Mukti Narrow;-inkscape-font-specification:Mukti Narrow"
       id="path3250"
       inkscape:connector-curvature="0" />
    <path
       d="m 263.10945,68.693565 0,1.248047 -1.24804,0 0,-1.248047 1.24804,0"
       style="font-family:Mukti Narrow;-inkscape-font-specification:Mukti Narrow"
       id="path3252"
       inkscape:connector-curvature="0" />
    <path
       d="m 271.89266,61.193565 0,8.748047 -1.25977,0 -4.52344,-7.089844 0,7.089844 -1.05468,0 0,-8.748047 1.20703,0 4.57617,7.154297 0,-7.154297 1.05469,0"
       style="font-family:Mukti Narrow;-inkscape-font-specification:Mukti Narrow"
       id="path3254"
       inkscape:connector-curvature="0" />
    <path
       d="m 275.0157,65.957237 0,3 5.15625,0 0,0.984375 -6.27539,0 0,-8.748047 6.06446,0 0,0.984375 -4.94532,0 0,2.794922 4.76368,0 0,0.984375 -4.76368,0"
       style="font-family:Mukti Narrow;-inkscape-font-specification:Mukti Narrow"
       id="path3256"
       inkscape:connector-curvature="0" />
    <path
       d="m 285.08211,62.17794 0,7.763672 -1.11328,0 0,-7.763672 -2.88281,0 0,-0.984375 6.86132,0 0,0.984375 -2.86523,0"
       style="font-family:Mukti Narrow;-inkscape-font-specification:Mukti Narrow"
       id="path3258"
       inkscape:connector-curvature="0" />
  </g>
  <text
     xml:space="preserve"
     style="font-size:12px;font-style:normal;font-weight:normal;line-height:125%;letter-spacing:0px;word-spacing:0px;fill:#000000;fill-opacity:1;stroke:none;font-family:Sans"
     x="211.04713"
     y="73.867874"
     id="text4523"
     sodipodi:linespacing="125%"><tspan
       sodipodi:role="line"
       id="tspan4525"
       x="211.04713"
       y="73.867874"> </tspan></text>
  <text
     xml:space="preserve"
     style="font-size:12px;font-style:normal;font-weight:normal;line-height:125%;letter-spacing:0px;word-spacing:0px;fill:#000000;fill-opacity:1;stroke:none;font-family:Sans"
     x="217.32561"
     y="71.347061"
     id="text4527"
     sodipodi:linespacing="125%"><tspan
       sodipodi:role="line"
       id="tspan4529"
       x="217.32561"
       y="71.347061"> </tspan></text>
  <text
     xml:space="preserve"
     style="font-size:12px;font-style:normal;font-weight:normal;line-height:125%;letter-spacing:0px;word-spacing:0px;fill:#000000;fill-opacity:1;stroke:none;font-family:Sans"
     x="216.26495"
     y="75.059372"
     id="text4531"
     sodipodi:linespacing="125%"><tspan
       sodipodi:role="line"
       id="tspan4533"
       x="216.26495"
       y="75.059372"> </tspan></text>
  <rect
     style="fill:#000000"
     id="rect3260"
     width="31.33367"
     height="0.44194174"
     x="151.56468"
     y="78.152962" />
  <rect
     style="fill:#000000"
     id="rect3262"
     width="11.844039"
     height="1.4584078"
     x="89.427841"
     y="65.601814" />
</svg>
