<?xml version="1.0" encoding="UTF-8" standalone="no"?>
<!-- Created with Inkscape (http://www.inkscape.org/) -->

<svg
   width="150cm"
   height="90cm"
   viewBox="0 0 1500 900"
   version="1.1"
   id="svg8"
   inkscape:version="1.1 (c4e8f9ed74, 2021-05-24)"
   sodipodi:docname="Stern-Tastatur.svg"
   xmlns:inkscape="http://www.inkscape.org/namespaces/inkscape"
   xmlns:sodipodi="http://sodipodi.sourceforge.net/DTD/sodipodi-0.dtd"
   xmlns="http://www.w3.org/2000/svg"
   xmlns:svg="http://www.w3.org/2000/svg"
   xmlns:rdf="http://www.w3.org/1999/02/22-rdf-syntax-ns#"
   xmlns:cc="http://creativecommons.org/ns#"
   xmlns:dc="http://purl.org/dc/elements/1.1/">
  <defs
     id="defs2" />
  <sodipodi:namedview
     id="base"
     pagecolor="#888888"
     bordercolor="#666666"
     borderopacity="1.0"
     inkscape:pageopacity="0"
     inkscape:pageshadow="2"
     inkscape:zoom="0.17323069"
     inkscape:cx="2958.4828"
     inkscape:cy="1913.6333"
     inkscape:document-units="mm"
     inkscape:current-layer="layer1"
     showgrid="false"
     inkscape:pagecheckerboard="true"
     inkscape:window-width="1366"
     inkscape:window-height="748"
     inkscape:window-x="0"
     inkscape:window-y="0"
     inkscape:window-maximized="1"
     inkscape:lockguides="false"
     showguides="false"
     borderlayer="true"
     inkscape:showpageshadow="false"
     units="cm" />
  <metadata
     id="metadata5">
    <rdf:RDF>
      <cc:Work
         rdf:about="">
        <dc:format>image/svg+xml</dc:format>
        <dc:type
           rdf:resource="http://purl.org/dc/dcmitype/StillImage" />
      </cc:Work>
    </rdf:RDF>
  </metadata>
  <g
     inkscape:label="Ebene 1"
     inkscape:groupmode="layer"
     id="layer1"
     transform="translate(0,603)">
    <g
       id="g2082"
       inkscape:export-filename="/home/elektroll/eta/work/g2082.png"
       inkscape:export-xdpi="57.549999"
       inkscape:export-ydpi="57.549999">
      <path
         style="fill:#000000;stroke:none;stroke-width:0.264583px;stroke-linecap:butt;stroke-linejoin:miter;stroke-opacity:1"
         d="M 374.59306,1.2114353 V -191.24648 l 83.21476,4.41188 -2.87925,223.117799 z"
         id="path1851" />
      <path
         style="fill:#000000;stroke:#000000;stroke-width:0.264583px;stroke-linecap:butt;stroke-linejoin:miter;stroke-opacity:1"
         d="m 345.8528,-244.15473 192.74843,226.94635 8.68838,115.454455 -5.36765,78.865995 206.73673,-154.516666 210.1696,153.873276 -112.79518,-420.76809 -96.67629,-226.73242 -77.23404,247.6779 z"
         id="path1555" />
      <path
         id="path3555-6"
         style="fill:#ff0000;fill-opacity:1;stroke:#000000;stroke-width:281.52567284;stroke-linecap:round;stroke-linejoin:round;stroke-miterlimit:4;stroke-dasharray:none;stroke-dashoffset:0;stroke-opacity:1;paint-order:stroke markers fill"
         d="M 2832.8887 233.21094 L 2483.0332 1354.7793 L 1307.1602 1356.2656 L 1485.8711 1484.8613 L 1626.625 1484.8613 L 1558.8145 1436.0977 L 2540.3066 1434.8828 L 2832.2148 498.77734 L 3136.5488 1434.6055 L 4108.5859 1432.0449 L 3743.7344 1700.3145 L 3887.7305 1700.3145 L 4362.1309 1351.4023 L 3197.6055 1355.7188 L 2832.8887 233.21094 z M 1573.4551 1533.9414 C 1562.5695 1533.9414 1553.8066 1542.7043 1553.8066 1553.5898 L 1553.8066 1625.6367 C 1553.8066 1636.5222 1562.5695 1645.2852 1573.4551 1645.2852 L 1638.9512 1645.2852 C 1649.8367 1645.2852 1658.6016 1636.5222 1658.6016 1625.6367 L 1658.6016 1553.5898 C 1658.6016 1542.7043 1649.8367 1533.9414 1638.9512 1533.9414 L 1573.4551 1533.9414 z M 1793.9609 1533.9414 C 1783.0754 1533.9414 1774.3125 1542.7043 1774.3125 1553.5898 L 1774.3125 1625.6367 C 1774.3125 1636.5222 1783.0754 1645.2852 1793.9609 1645.2852 L 1859.457 1645.2852 C 1870.3426 1645.2852 1879.1074 1636.5222 1879.1074 1625.6367 L 1879.1074 1553.5898 C 1879.1074 1542.7043 1870.3426 1533.9414 1859.457 1533.9414 L 1793.9609 1533.9414 z M 1911.127 1533.9414 C 1900.2414 1533.9414 1891.4785 1542.7043 1891.4785 1553.5898 L 1891.4785 1625.6367 C 1891.4785 1636.5222 1900.2414 1645.2852 1911.127 1645.2852 L 1976.623 1645.2852 C 1987.5086 1645.2852 1996.2734 1636.5222 1996.2734 1625.6367 L 1996.2734 1553.5898 C 1996.2734 1542.7043 1987.5086 1533.9414 1976.623 1533.9414 L 1911.127 1533.9414 z M 2028.293 1533.9414 C 2017.4074 1533.9414 2008.6445 1542.7043 2008.6445 1553.5898 L 2008.6445 1625.6367 C 2008.6445 1636.5222 2017.4074 1645.2852 2028.293 1645.2852 L 2093.791 1645.2852 C 2104.6765 1645.2852 2113.4395 1636.5222 2113.4395 1625.6367 L 2113.4395 1553.5898 C 2113.4395 1542.7043 2104.6765 1533.9414 2093.791 1533.9414 L 2028.293 1533.9414 z M 2145.459 1533.9414 C 2134.5735 1533.9414 2125.8105 1542.7043 2125.8105 1553.5898 L 2125.8105 1625.6367 C 2125.8105 1636.5222 2134.5735 1645.2852 2145.459 1645.2852 L 2210.957 1645.2852 C 2221.8426 1645.2852 2230.6055 1636.5222 2230.6055 1625.6367 L 2230.6055 1553.5898 C 2230.6055 1542.7043 2221.8426 1533.9414 2210.957 1533.9414 L 2145.459 1533.9414 z M 2299.377 1533.9414 C 2288.4914 1533.9414 2279.7285 1542.7043 2279.7285 1553.5898 L 2279.7285 1625.6367 C 2279.7285 1636.5222 2288.4914 1645.2852 2299.377 1645.2852 L 2364.873 1645.2852 C 2375.7586 1645.2852 2384.5234 1636.5222 2384.5234 1625.6367 L 2384.5234 1553.5898 C 2384.5234 1542.7043 2375.7586 1533.9414 2364.873 1533.9414 L 2299.377 1533.9414 z M 2416.543 1533.9414 C 2405.6574 1533.9414 2396.8945 1542.7043 2396.8945 1553.5898 L 2396.8945 1625.6367 C 2396.8945 1636.5222 2405.6574 1645.2852 2416.543 1645.2852 L 2482.041 1645.2852 C 2492.9265 1645.2852 2501.6895 1636.5222 2501.6895 1625.6367 L 2501.6895 1553.5898 C 2501.6895 1542.7043 2492.9265 1533.9414 2482.041 1533.9414 L 2416.543 1533.9414 z M 2533.709 1533.9414 C 2522.8235 1533.9414 2514.0605 1542.7043 2514.0605 1553.5898 L 2514.0605 1625.6367 C 2514.0605 1636.5222 2522.8235 1645.2852 2533.709 1645.2852 L 2599.207 1645.2852 C 2610.0926 1645.2852 2618.8555 1636.5222 2618.8555 1625.6367 L 2618.8555 1553.5898 C 2618.8555 1542.7043 2610.0926 1533.9414 2599.207 1533.9414 L 2533.709 1533.9414 z M 2650.875 1533.9414 C 2639.9895 1533.9414 2631.2266 1542.7043 2631.2266 1553.5898 L 2631.2266 1625.6367 C 2631.2266 1636.5222 2639.9895 1645.2852 2650.875 1645.2852 L 2716.373 1645.2852 C 2727.2586 1645.2852 2736.0215 1636.5222 2736.0215 1625.6367 L 2736.0215 1553.5898 C 2736.0215 1542.7043 2727.2586 1533.9414 2716.373 1533.9414 L 2650.875 1533.9414 z M 2810.252 1533.9414 C 2799.3664 1533.9414 2790.6035 1542.7043 2790.6035 1553.5898 L 2790.6035 1625.6367 C 2790.6035 1636.5222 2799.3664 1645.2852 2810.252 1645.2852 L 2875.748 1645.2852 C 2886.6336 1645.2852 2895.3965 1636.5222 2895.3965 1625.6367 L 2895.3965 1553.5898 C 2895.3965 1542.7043 2886.6336 1533.9414 2875.748 1533.9414 L 2810.252 1533.9414 z M 2927.418 1533.9414 C 2916.5324 1533.9414 2907.7695 1542.7043 2907.7695 1553.5898 L 2907.7695 1625.6367 C 2907.7695 1636.5222 2916.5324 1645.2852 2927.418 1645.2852 L 2992.9141 1645.2852 C 3003.7996 1645.2852 3012.5625 1636.5222 3012.5625 1625.6367 L 3012.5625 1553.5898 C 3012.5625 1542.7043 3003.7996 1533.9414 2992.9141 1533.9414 L 2927.418 1533.9414 z M 3044.584 1533.9414 C 3033.6985 1533.9414 3024.9355 1542.7043 3024.9355 1553.5898 L 3024.9355 1625.6367 C 3024.9355 1636.5222 3033.6985 1645.2852 3044.584 1645.2852 L 3110.0801 1645.2852 C 3120.9656 1645.2852 3129.7305 1636.5222 3129.7305 1625.6367 L 3129.7305 1553.5898 C 3129.7305 1542.7043 3120.9656 1533.9414 3110.0801 1533.9414 L 3044.584 1533.9414 z M 3161.75 1533.9414 C 3150.8645 1533.9414 3142.1016 1542.7043 3142.1016 1553.5898 L 3142.1016 1625.6367 C 3142.1016 1636.5222 3150.8645 1645.2852 3161.75 1645.2852 L 3227.248 1645.2852 C 3238.1336 1645.2852 3246.8965 1636.5222 3246.8965 1625.6367 L 3246.8965 1553.5898 C 3246.8965 1542.7043 3238.1336 1533.9414 3227.248 1533.9414 L 3161.75 1533.9414 z M 3318.9434 1533.9414 C 3308.0578 1533.9414 3299.293 1542.7043 3299.293 1553.5898 L 3299.293 1625.6367 C 3299.293 1636.5222 3308.0578 1645.2852 3318.9434 1645.2852 L 3384.4395 1645.2852 C 3395.325 1645.2852 3404.0879 1636.5222 3404.0879 1625.6367 L 3404.0879 1553.5898 C 3404.0879 1542.7043 3395.325 1533.9414 3384.4395 1533.9414 L 3318.9434 1533.9414 z M 3436.1094 1533.9414 C 3425.2238 1533.9414 3416.459 1542.7043 3416.459 1553.5898 L 3416.459 1625.6367 C 3416.459 1636.5222 3425.2238 1645.2852 3436.1094 1645.2852 L 3501.6055 1645.2852 C 3512.491 1645.2852 3521.2539 1636.5222 3521.2539 1625.6367 L 3521.2539 1553.5898 C 3521.2539 1542.7043 3512.491 1533.9414 3501.6055 1533.9414 L 3436.1094 1533.9414 z M 3553.2754 1533.9414 C 3542.3899 1533.9414 3533.627 1542.7043 3533.627 1553.5898 L 3533.627 1625.6367 C 3533.627 1636.5222 3542.3899 1645.2852 3553.2754 1645.2852 L 3618.7715 1645.2852 C 3629.657 1645.2852 3638.4219 1636.5222 3638.4219 1625.6367 L 3638.4219 1553.5898 C 3638.4219 1542.7043 3629.657 1533.9414 3618.7715 1533.9414 L 3553.2754 1533.9414 z M 3828.2676 1758.7188 C 3818.0224 1758.7188 3809.7734 1766.9677 3809.7734 1777.2129 L 3809.7734 1845.0215 C 3809.7734 1855.2667 3818.0224 1863.5137 3828.2676 1863.5137 L 3890.6777 1863.5137 C 3900.9229 1863.5137 3909.1719 1855.2667 3909.1719 1845.0215 L 3909.1719 1777.2129 C 3909.1719 1766.9677 3900.9229 1758.7188 3890.6777 1758.7188 L 3828.2676 1758.7188 z M 3938.125 1758.7188 C 3927.8798 1758.7188 3919.6309 1766.9677 3919.6309 1777.2129 L 3919.6309 1845.0215 C 3919.6309 1855.2667 3927.8798 1863.5137 3938.125 1863.5137 L 4000.5352 1863.5137 C 4010.7804 1863.5137 4019.0293 1855.2667 4019.0293 1845.0215 L 4019.0293 1777.2129 C 4019.0293 1766.9677 4010.7804 1758.7188 4000.5352 1758.7188 L 3938.125 1758.7188 z M 3321.7891 1759.2656 C 3311.5439 1759.2656 3303.2969 1767.5126 3303.2969 1777.7578 L 3303.2969 1841.2949 C 3303.2969 1851.5401 3311.5439 1859.7871 3321.7891 1859.7871 L 3384.2012 1859.7871 C 3394.4464 1859.7871 3402.6934 1851.5401 3402.6934 1841.2949 L 3402.6934 1777.7578 C 3402.6934 1767.5126 3394.4464 1759.2656 3384.2012 1759.2656 L 3321.7891 1759.2656 z M 3432.9219 1759.2656 C 3422.6767 1759.2656 3414.4277 1767.5126 3414.4277 1777.7578 L 3414.4277 1841.2949 C 3414.4277 1851.5401 3422.6767 1859.7871 3432.9219 1859.7871 L 3495.332 1859.7871 C 3505.5772 1859.7871 3513.8262 1851.5401 3513.8262 1841.2949 L 3513.8262 1777.7578 C 3513.8262 1767.5126 3505.5772 1759.2656 3495.332 1759.2656 L 3432.9219 1759.2656 z M 3542.9609 1759.2656 C 3532.7157 1759.2656 3524.4688 1767.5126 3524.4688 1777.7578 L 3524.4688 1841.2949 C 3524.4688 1851.5401 3532.7157 1859.7871 3542.9609 1859.7871 L 3605.373 1859.7871 C 3615.6182 1859.7871 3623.8652 1851.5401 3623.8652 1841.2949 L 3623.8652 1777.7578 C 3623.8652 1767.5126 3615.6182 1759.2656 3605.373 1759.2656 L 3542.9609 1759.2656 z M 3718.4082 1759.2656 C 3708.163 1759.2656 3699.9141 1767.5126 3699.9141 1777.7578 L 3699.9141 1845.5664 C 3699.9141 1855.8116 3708.163 1864.0605 3718.4082 1864.0605 L 3780.8203 1864.0605 C 3791.0655 1864.0605 3799.3125 1855.8116 3799.3125 1845.5664 L 3799.3125 1777.7578 C 3799.3125 1767.5126 3791.0655 1759.2656 3780.8203 1759.2656 L 3718.4082 1759.2656 z M 4051.6523 1759.2656 C 4041.6288 1759.2656 4033.5586 1767.3339 4033.5586 1777.3574 L 4033.5586 1844.6035 C 4033.5586 1854.627 4041.6288 1862.6973 4051.6523 1862.6973 L 4112.8145 1862.6973 C 4122.838 1862.6973 4130.9082 1854.627 4130.9082 1844.6035 L 4130.9082 1777.3574 C 4130.9082 1767.3339 4122.838 1759.2656 4112.8145 1759.2656 L 4051.6523 1759.2656 z M 3047.5586 1759.3594 C 3037.3134 1759.3594 3029.0664 1767.6064 3029.0664 1777.8516 L 3029.0664 1841.1172 C 3029.0664 1851.3624 3037.3134 1859.6094 3047.5586 1859.6094 L 3208.2383 1859.6094 C 3218.4835 1859.6094 3226.7324 1851.3624 3226.7324 1841.1172 L 3226.7324 1777.8516 C 3226.7324 1767.6064 3218.4835 1759.3594 3208.2383 1759.3594 L 3047.5586 1759.3594 z M 1574.998 1759.9043 C 1564.7528 1759.9043 1556.5039 1768.1532 1556.5039 1778.3984 L 1556.5039 1841.2949 C 1556.5039 1851.5401 1564.7528 1859.7871 1574.998 1859.7871 L 1637.4102 1859.7871 C 1647.6554 1859.7871 1655.9023 1851.5401 1655.9023 1841.2949 L 1655.9023 1778.3984 C 1655.9023 1768.1532 1647.6554 1759.9043 1637.4102 1759.9043 L 1574.998 1759.9043 z M 1691.4863 1760.4336 C 1681.7347 1760.4336 1673.8828 1768.2835 1673.8828 1778.0352 L 1673.8828 1842.5781 C 1673.8828 1852.3297 1681.7347 1860.1797 1691.4863 1860.1797 L 1750.1602 1860.1797 C 1759.9118 1860.1797 1767.7617 1852.3297 1767.7617 1842.5781 L 1767.7617 1778.0352 C 1767.7617 1768.2835 1759.9118 1760.4336 1750.1602 1760.4336 L 1691.4863 1760.4336 z M 1804.4668 1760.4336 C 1794.7152 1760.4336 1786.8652 1768.2835 1786.8652 1778.0352 L 1786.8652 1842.5781 C 1786.8652 1852.3297 1794.7152 1860.1797 1804.4668 1860.1797 L 1863.1426 1860.1797 C 1872.8942 1860.1797 1880.7441 1852.3297 1880.7441 1842.5781 L 1880.7441 1778.0352 C 1880.7441 1768.2835 1872.8942 1760.4336 1863.1426 1760.4336 L 1804.4668 1760.4336 z M 1917.4492 1760.4336 C 1907.6976 1760.4336 1899.8477 1768.2835 1899.8477 1778.0352 L 1899.8477 1842.5781 C 1899.8477 1852.3297 1907.6976 1860.1797 1917.4492 1860.1797 L 1976.123 1860.1797 C 1985.8747 1860.1797 1993.7266 1852.3297 1993.7266 1842.5781 L 1993.7266 1778.0352 C 1993.7266 1768.2835 1985.8747 1760.4336 1976.123 1760.4336 L 1917.4492 1760.4336 z M 2030.4316 1760.4336 C 2020.68 1760.4336 2012.8281 1768.2835 2012.8281 1778.0352 L 2012.8281 1842.5781 C 2012.8281 1852.3297 2020.68 1860.1797 2030.4316 1860.1797 L 2089.1055 1860.1797 C 2098.8571 1860.1797 2106.707 1852.3297 2106.707 1842.5781 L 2106.707 1778.0352 C 2106.707 1768.2835 2098.8571 1760.4336 2089.1055 1760.4336 L 2030.4316 1760.4336 z M 2143.4121 1760.4336 C 2133.6605 1760.4336 2125.8105 1768.2835 2125.8105 1778.0352 L 2125.8105 1842.5781 C 2125.8105 1852.3297 2133.6605 1860.1797 2143.4121 1860.1797 L 2202.0879 1860.1797 C 2211.8395 1860.1797 2219.6895 1852.3297 2219.6895 1842.5781 L 2219.6895 1778.0352 C 2219.6895 1768.2835 2211.8395 1760.4336 2202.0879 1760.4336 L 2143.4121 1760.4336 z M 2256.3945 1760.4336 C 2246.6429 1760.4336 2238.793 1768.2835 2238.793 1778.0352 L 2238.793 1842.5781 C 2238.793 1852.3297 2246.6429 1860.1797 2256.3945 1860.1797 L 2315.0684 1860.1797 C 2324.82 1860.1797 2332.6719 1852.3297 2332.6719 1842.5781 L 2332.6719 1778.0352 C 2332.6719 1768.2835 2324.82 1760.4336 2315.0684 1760.4336 L 2256.3945 1760.4336 z M 2369.377 1760.4336 C 2359.6253 1760.4336 2351.7734 1768.2835 2351.7734 1778.0352 L 2351.7734 1842.5781 C 2351.7734 1852.3297 2359.6253 1860.1797 2369.377 1860.1797 L 2428.0508 1860.1797 C 2437.8024 1860.1797 2445.6523 1852.3297 2445.6523 1842.5781 L 2445.6523 1778.0352 C 2445.6523 1768.2835 2437.8024 1760.4336 2428.0508 1760.4336 L 2369.377 1760.4336 z M 2482.3594 1760.4336 C 2472.6078 1760.4336 2464.7559 1768.2835 2464.7559 1778.0352 L 2464.7559 1842.5781 C 2464.7559 1852.3297 2472.6078 1860.1797 2482.3594 1860.1797 L 2541.0332 1860.1797 C 2550.7848 1860.1797 2558.6348 1852.3297 2558.6348 1842.5781 L 2558.6348 1778.0352 C 2558.6348 1768.2835 2550.7848 1760.4336 2541.0332 1760.4336 L 2482.3594 1760.4336 z M 2595.3398 1760.4336 C 2585.5882 1760.4336 2577.7383 1768.2835 2577.7383 1778.0352 L 2577.7383 1842.5781 C 2577.7383 1852.3297 2585.5882 1860.1797 2595.3398 1860.1797 L 2654.0137 1860.1797 C 2663.7653 1860.1797 2671.6172 1852.3297 2671.6172 1842.5781 L 2671.6172 1778.0352 C 2671.6172 1768.2835 2663.7653 1760.4336 2654.0137 1760.4336 L 2595.3398 1760.4336 z M 2708.3223 1760.4336 C 2698.5706 1760.4336 2690.7207 1768.2835 2690.7207 1778.0352 L 2690.7207 1842.5781 C 2690.7207 1852.3297 2698.5706 1860.1797 2708.3223 1860.1797 L 2766.9961 1860.1797 C 2776.7477 1860.1797 2784.5977 1852.3297 2784.5977 1842.5781 L 2784.5977 1778.0352 C 2784.5977 1768.2835 2776.7477 1760.4336 2766.9961 1760.4336 L 2708.3223 1760.4336 z M 2821.3047 1760.4336 C 2811.5531 1760.4336 2803.7012 1768.2835 2803.7012 1778.0352 L 2803.7012 1842.5781 C 2803.7012 1852.3297 2811.5531 1860.1797 2821.3047 1860.1797 L 2879.9785 1860.1797 C 2889.7301 1860.1797 2897.5801 1852.3297 2897.5801 1842.5781 L 2897.5801 1778.0352 C 2897.5801 1768.2835 2889.7301 1760.4336 2879.9785 1760.4336 L 2821.3047 1760.4336 z M 2934.2852 1760.4336 C 2924.5335 1760.4336 2916.6836 1768.2835 2916.6836 1778.0352 L 2916.6836 1842.5781 C 2916.6836 1852.3297 2924.5335 1860.1797 2934.2852 1860.1797 L 2992.959 1860.1797 C 3002.7106 1860.1797 3010.5625 1852.3297 3010.5625 1842.5781 L 3010.5625 1778.0352 C 3010.5625 1768.2835 3002.7106 1760.4336 2992.959 1760.4336 L 2934.2852 1760.4336 z M 4053.1445 1870.1582 C 4042.8993 1870.1582 4034.6504 1878.4052 4034.6504 1888.6504 L 4034.6504 2068.8945 C 4034.6504 2079.1397 4042.8993 2087.3887 4053.1445 2087.3887 L 4112.2812 2087.3887 C 4122.5265 2087.3887 4130.7734 2079.1397 4130.7734 2068.8945 L 4130.7734 1888.6504 C 4130.7734 1878.4052 4122.5265 1870.1582 4112.2812 1870.1582 L 4053.1445 1870.1582 z M 3828.4492 1870.9766 C 3818.204 1870.9766 3809.9551 1879.2255 3809.9551 1889.4707 L 3809.9551 1957.2793 C 3809.9551 1967.5245 3818.204 1975.7715 3828.4492 1975.7715 L 3890.8594 1975.7715 C 3901.1046 1975.7715 3909.3535 1967.5245 3909.3535 1957.2793 L 3909.3535 1889.4707 C 3909.3535 1879.2255 3901.1046 1870.9766 3890.8594 1870.9766 L 3828.4492 1870.9766 z M 3938.4883 1870.9766 C 3928.2431 1870.9766 3919.9961 1879.2255 3919.9961 1889.4707 L 3919.9961 1957.2793 C 3919.9961 1967.5245 3928.2431 1975.7715 3938.4883 1975.7715 L 4000.9004 1975.7715 C 4011.1456 1975.7715 4019.3926 1967.5245 4019.3926 1957.2793 L 4019.3926 1889.4707 C 4019.3926 1879.2255 4011.1456 1870.9766 4000.9004 1870.9766 L 3938.4883 1870.9766 z M 3718.4082 1871.3398 C 3708.163 1871.3398 3699.9141 1879.5888 3699.9141 1889.834 L 3699.9141 1957.6426 C 3699.9141 1967.8878 3708.163 1976.1348 3718.4082 1976.1348 L 3780.8203 1976.1348 C 3791.0655 1976.1348 3799.3125 1967.8878 3799.3125 1957.6426 L 3799.3125 1889.834 C 3799.3125 1879.5888 3791.0655 1871.3398 3780.8203 1871.3398 L 3718.4082 1871.3398 z M 1574.4824 1873.5039 C 1564.2372 1873.5039 1555.9902 1881.7509 1555.9902 1891.9961 L 1555.9902 1954.584 C 1555.9902 1964.8292 1564.2372 1973.0781 1574.4824 1973.0781 L 1689.0566 1973.0781 C 1699.3018 1973.0781 1707.5508 1964.8292 1707.5508 1954.584 L 1707.5508 1891.9961 C 1707.5508 1881.7509 1699.3018 1873.5039 1689.0566 1873.5039 L 1574.4824 1873.5039 z M 3101.7891 1873.5039 C 3091.5439 1873.5039 3083.2949 1881.7509 3083.2949 1891.9961 L 3083.2949 1954.8223 C 3083.2949 1965.0675 3091.5439 1973.3145 3101.7891 1973.3145 L 3208.2383 1973.3145 C 3218.4835 1973.3145 3226.7324 1965.0675 3226.7324 1954.8223 L 3226.7324 1891.9961 C 3226.7324 1881.7509 3218.4835 1873.5039 3208.2383 1873.5039 L 3101.7891 1873.5039 z M 3325.5156 1873.5039 C 3315.2704 1873.5039 3307.0234 1881.7509 3307.0234 1891.9961 L 3307.0234 1954.584 C 3307.0234 1964.8292 3315.2704 1973.0781 3325.5156 1973.0781 L 3387.1562 1973.0781 C 3397.4015 1973.0781 3405.6484 1964.8292 3405.6484 1954.584 L 3405.6484 1891.9961 C 3405.6484 1881.7509 3397.4015 1873.5039 3387.1562 1873.5039 L 3325.5156 1873.5039 z M 3436.6484 1873.5039 C 3426.4032 1873.5039 3418.1543 1881.7509 3418.1543 1891.9961 L 3418.1543 1954.584 C 3418.1543 1964.8292 3426.4032 1973.0781 3436.6484 1973.0781 L 3498.2871 1973.0781 C 3508.5323 1973.0781 3516.7812 1964.8292 3516.7812 1954.584 L 3516.7812 1891.9961 C 3516.7812 1881.7509 3508.5323 1873.5039 3498.2871 1873.5039 L 3436.6484 1873.5039 z M 3547.7793 1873.5039 C 3537.5341 1873.5039 3529.2871 1881.7509 3529.2871 1891.9961 L 3529.2871 1954.584 C 3529.2871 1964.8292 3537.5341 1973.0781 3547.7793 1973.0781 L 3610.1914 1973.0781 C 3620.4366 1973.0781 3628.6855 1964.8292 3628.6855 1954.584 L 3628.6855 1891.9961 C 3628.6855 1881.7509 3620.4366 1873.5039 3610.1914 1873.5039 L 3547.7793 1873.5039 z M 1858.7754 1873.5684 C 1849.0238 1873.5684 1841.1738 1881.4203 1841.1738 1891.1719 L 1841.1738 1955.7129 C 1841.1738 1965.4645 1849.0238 1973.3145 1858.7754 1973.3145 L 1917.4492 1973.3145 C 1927.2008 1973.3145 1935.0508 1965.4645 1935.0508 1955.7129 L 1935.0508 1891.1719 C 1935.0508 1881.4203 1927.2008 1873.5684 1917.4492 1873.5684 L 1858.7754 1873.5684 z M 1971.7578 1873.5684 C 1962.0062 1873.5684 1954.1543 1881.4203 1954.1543 1891.1719 L 1954.1543 1955.7129 C 1954.1543 1965.4645 1962.0062 1973.3145 1971.7578 1973.3145 L 2030.4316 1973.3145 C 2040.1833 1973.3145 2048.0332 1965.4645 2048.0332 1955.7129 L 2048.0332 1891.1719 C 2048.0332 1881.4203 2040.1833 1873.5684 2030.4316 1873.5684 L 1971.7578 1873.5684 z M 2084.7383 1873.5684 C 2074.9867 1873.5684 2067.1367 1881.4203 2067.1367 1891.1719 L 2067.1367 1955.7129 C 2067.1367 1965.4645 2074.9867 1973.3145 2084.7383 1973.3145 L 2143.4121 1973.3145 C 2153.1637 1973.3145 2161.0156 1965.4645 2161.0156 1955.7129 L 2161.0156 1891.1719 C 2161.0156 1881.4203 2153.1637 1873.5684 2143.4121 1873.5684 L 2084.7383 1873.5684 z M 2197.7207 1873.5684 C 2187.9691 1873.5684 2180.1191 1881.4203 2180.1191 1891.1719 L 2180.1191 1955.7129 C 2180.1191 1965.4645 2187.9691 1973.3145 2197.7207 1973.3145 L 2256.3945 1973.3145 C 2266.1462 1973.3145 2273.9961 1965.4645 2273.9961 1955.7129 L 2273.9961 1891.1719 C 2273.9961 1881.4203 2266.1462 1873.5684 2256.3945 1873.5684 L 2197.7207 1873.5684 z M 2310.7031 1873.5684 C 2300.9515 1873.5684 2293.0996 1881.4203 2293.0996 1891.1719 L 2293.0996 1955.7129 C 2293.0996 1965.4645 2300.9515 1973.3145 2310.7031 1973.3145 L 2369.377 1973.3145 C 2379.1286 1973.3145 2386.9785 1965.4645 2386.9785 1955.7129 L 2386.9785 1891.1719 C 2386.9785 1881.4203 2379.1286 1873.5684 2369.377 1873.5684 L 2310.7031 1873.5684 z M 2423.6836 1873.5684 C 2413.932 1873.5684 2406.082 1881.4203 2406.082 1891.1719 L 2406.082 1955.7129 C 2406.082 1965.4645 2413.932 1973.3145 2423.6836 1973.3145 L 2482.3594 1973.3145 C 2492.111 1973.3145 2499.9609 1965.4645 2499.9609 1955.7129 L 2499.9609 1891.1719 C 2499.9609 1881.4203 2492.111 1873.5684 2482.3594 1873.5684 L 2423.6836 1873.5684 z M 2536.666 1873.5684 C 2526.9144 1873.5684 2519.0645 1881.4203 2519.0645 1891.1719 L 2519.0645 1955.7129 C 2519.0645 1965.4645 2526.9144 1973.3145 2536.666 1973.3145 L 2595.3398 1973.3145 C 2605.0915 1973.3145 2612.9434 1965.4645 2612.9434 1955.7129 L 2612.9434 1891.1719 C 2612.9434 1881.4203 2605.0915 1873.5684 2595.3398 1873.5684 L 2536.666 1873.5684 z M 2649.6484 1873.5684 C 2639.8968 1873.5684 2632.0449 1881.4203 2632.0449 1891.1719 L 2632.0449 1955.7129 C 2632.0449 1965.4645 2639.8968 1973.3145 2649.6484 1973.3145 L 2708.3223 1973.3145 C 2718.0739 1973.3145 2725.9238 1965.4645 2725.9238 1955.7129 L 2725.9238 1891.1719 C 2725.9238 1881.4203 2718.0739 1873.5684 2708.3223 1873.5684 L 2649.6484 1873.5684 z M 2762.6289 1873.5684 C 2752.8773 1873.5684 2745.0273 1881.4203 2745.0273 1891.1719 L 2745.0273 1955.7129 C 2745.0273 1965.4645 2752.8773 1973.3145 2762.6289 1973.3145 L 2821.3047 1973.3145 C 2831.0563 1973.3145 2838.9062 1965.4645 2838.9062 1955.7129 L 2838.9062 1891.1719 C 2838.9063 1881.4203 2831.0563 1873.5684 2821.3047 1873.5684 L 2762.6289 1873.5684 z M 2875.6113 1873.5684 C 2865.8597 1873.5684 2858.0098 1881.4203 2858.0098 1891.1719 L 2858.0098 1955.7129 C 2858.0098 1965.4645 2865.8597 1973.3145 2875.6113 1973.3145 L 2934.2852 1973.3145 C 2944.0368 1973.3145 2951.8887 1965.4645 2951.8887 1955.7129 L 2951.8887 1891.1719 C 2951.8887 1881.4203 2944.0368 1873.5684 2934.2852 1873.5684 L 2875.6113 1873.5684 z M 2988.5938 1873.5684 C 2978.8421 1873.5684 2970.9922 1881.4203 2970.9922 1891.1719 L 2970.9922 1955.7129 C 2970.9922 1965.4645 2978.8421 1973.3145 2988.5938 1973.3145 L 3047.2676 1973.3145 C 3057.0192 1973.3145 3064.8691 1965.4645 3064.8691 1955.7129 L 3064.8691 1891.1719 C 3064.8691 1881.4203 3057.0192 1873.5684 3047.2676 1873.5684 L 2988.5938 1873.5684 z M 1745.793 1873.8984 C 1736.0413 1873.8984 1728.1914 1881.7484 1728.1914 1891.5 L 1728.1914 1956.043 C 1728.1914 1965.7946 1736.0413 1973.6445 1745.793 1973.6445 L 1804.4668 1973.6445 C 1814.2184 1973.6445 1822.0703 1965.7946 1822.0703 1956.043 L 1822.0703 1891.5 C 1822.0703 1881.7484 1814.2184 1873.8984 1804.4668 1873.8984 L 1745.793 1873.8984 z M 3828.3164 1983.2344 C 3818.0712 1983.2344 3809.8223 1991.4833 3809.8223 2001.7285 L 3809.8223 2069.5371 C 3809.8223 2079.7823 3818.0712 2088.0293 3828.3164 2088.0293 L 3890.7266 2088.0293 C 3900.9718 2088.0293 3909.2207 2079.7823 3909.2207 2069.5371 L 3909.2207 2001.7285 C 3909.2207 1991.4833 3900.9718 1983.2344 3890.7266 1983.2344 L 3828.3164 1983.2344 z M 3938.2246 1983.2344 C 3927.9794 1983.2344 3919.7305 1991.4833 3919.7305 2001.7285 L 3919.7305 2069.5371 C 3919.7305 2079.7823 3927.9794 2088.0293 3938.2246 2088.0293 L 4000.6348 2088.0293 C 4010.88 2088.0293 4019.1289 2079.7823 4019.1289 2069.5371 L 4019.1289 2001.7285 C 4019.1289 1991.4833 4010.88 1983.2344 4000.6348 1983.2344 L 3938.2246 1983.2344 z M 3718.4082 1983.416 C 3708.163 1983.416 3699.9141 1991.665 3699.9141 2001.9102 L 3699.9141 2069.7188 C 3699.9141 2079.964 3708.163 2088.2109 3718.4082 2088.2109 L 3780.8203 2088.2109 C 3791.0655 2088.2109 3799.3125 2079.964 3799.3125 2069.7188 L 3799.3125 2001.9102 C 3799.3125 1991.665 3791.0655 1983.416 3780.8203 1983.416 L 3718.4082 1983.416 z M 1884.9746 1987.0957 C 1875.223 1987.0957 1867.3711 1994.9476 1867.3711 2004.6992 L 1867.3711 2069.2402 C 1867.3711 2078.9919 1875.223 2086.8418 1884.9746 2086.8418 L 1943.6484 2086.8418 C 1953.4001 2086.8418 1961.25 2078.9919 1961.25 2069.2402 L 1961.25 2004.6992 C 1961.25 1994.9476 1953.4001 1987.0957 1943.6484 1987.0957 L 1884.9746 1987.0957 z M 1997.9551 1987.0957 C 1988.2035 1987.0957 1980.3535 1994.9476 1980.3535 2004.6992 L 1980.3535 2069.2402 C 1980.3535 2078.9919 1988.2035 2086.8418 1997.9551 2086.8418 L 2056.6289 2086.8418 C 2066.3805 2086.8418 2074.2324 2078.9919 2074.2324 2069.2402 L 2074.2324 2004.6992 C 2074.2324 1994.9476 2066.3805 1987.0957 2056.6289 1987.0957 L 1997.9551 1987.0957 z M 2110.9375 1987.0957 C 2101.1859 1987.0957 2093.3359 1994.9476 2093.3359 2004.6992 L 2093.3359 2069.2402 C 2093.3359 2078.9919 2101.1859 2086.8418 2110.9375 2086.8418 L 2169.6113 2086.8418 C 2179.3629 2086.8418 2187.2148 2078.9919 2187.2148 2069.2402 L 2187.2148 2004.6992 C 2187.2148 1994.9476 2179.3629 1987.0957 2169.6113 1987.0957 L 2110.9375 1987.0957 z M 2223.9199 1987.0957 C 2214.1683 1987.0957 2206.3164 1994.9476 2206.3164 2004.6992 L 2206.3164 2069.2402 C 2206.3164 2078.9919 2214.1683 2086.8418 2223.9199 2086.8418 L 2282.5938 2086.8418 C 2292.3454 2086.8418 2300.1953 2078.9919 2300.1953 2069.2402 L 2300.1953 2004.6992 C 2300.1953 1994.9476 2292.3454 1987.0957 2282.5938 1987.0957 L 2223.9199 1987.0957 z M 2336.9004 1987.0957 C 2327.1488 1987.0957 2319.2988 1994.9476 2319.2988 2004.6992 L 2319.2988 2069.2402 C 2319.2988 2078.9919 2327.1488 2086.8418 2336.9004 2086.8418 L 2395.5762 2086.8418 C 2405.3278 2086.8418 2413.1777 2078.9919 2413.1777 2069.2402 L 2413.1777 2004.6992 C 2413.1777 1994.9476 2405.3278 1987.0957 2395.5762 1987.0957 L 2336.9004 1987.0957 z M 2449.8828 1987.0957 C 2440.1312 1987.0957 2432.2812 1994.9476 2432.2812 2004.6992 L 2432.2812 2069.2402 C 2432.2812 2078.9919 2440.1312 2086.8418 2449.8828 2086.8418 L 2508.5566 2086.8418 C 2518.3083 2086.8418 2526.1602 2078.9919 2526.1602 2069.2402 L 2526.1602 2004.6992 C 2526.1602 1994.9476 2518.3083 1987.0957 2508.5566 1987.0957 L 2449.8828 1987.0957 z M 2562.8652 1987.0957 C 2553.1136 1987.0957 2545.2617 1994.9476 2545.2617 2004.6992 L 2545.2617 2069.2402 C 2545.2617 2078.9919 2553.1136 2086.8418 2562.8652 2086.8418 L 2621.5391 2086.8418 C 2631.2907 2086.8418 2639.1406 2078.9919 2639.1406 2069.2402 L 2639.1406 2004.6992 C 2639.1406 1994.9476 2631.2907 1987.0957 2621.5391 1987.0957 L 2562.8652 1987.0957 z M 2675.8457 1987.0957 C 2666.0941 1987.0957 2658.2441 1994.9476 2658.2441 2004.6992 L 2658.2441 2069.2402 C 2658.2441 2078.9919 2666.0941 2086.8418 2675.8457 2086.8418 L 2734.5215 2086.8418 C 2744.2731 2086.8418 2752.123 2078.9919 2752.123 2069.2402 L 2752.123 2004.6992 C 2752.123 1994.9476 2744.2731 1987.0957 2734.5215 1987.0957 L 2675.8457 1987.0957 z M 2788.8281 1987.0957 C 2779.0765 1987.0957 2771.2266 1994.9476 2771.2266 2004.6992 L 2771.2266 2069.2402 C 2771.2266 2078.9919 2779.0765 2086.8418 2788.8281 2086.8418 L 2847.502 2086.8418 C 2857.2536 2086.8418 2865.1055 2078.9919 2865.1055 2069.2402 L 2865.1055 2004.6992 C 2865.1055 1994.9476 2857.2536 1987.0957 2847.502 1987.0957 L 2788.8281 1987.0957 z M 2901.8105 1987.0957 C 2892.0589 1987.0957 2884.209 1994.9476 2884.209 2004.6992 L 2884.209 2069.2402 C 2884.209 2078.9919 2892.0589 2086.8418 2901.8105 2086.8418 L 2960.4844 2086.8418 C 2970.236 2086.8418 2978.0859 2078.9919 2978.0859 2069.2402 L 2978.0859 2004.6992 C 2978.0859 1994.9476 2970.236 1987.0957 2960.4844 1987.0957 L 2901.8105 1987.0957 z M 1574.4824 1987.3574 C 1564.2372 1987.3574 1555.9902 1995.6044 1555.9902 2005.8496 L 1555.9902 2068.4375 C 1555.9902 2078.6827 1564.2372 2086.9297 1574.4824 2086.9297 L 1716.5508 2086.9297 C 1726.796 2086.9297 1735.0449 2078.6827 1735.0449 2068.4375 L 1735.0449 2005.8496 C 1735.0449 1995.6044 1726.796 1987.3574 1716.5508 1987.3574 L 1574.4824 1987.3574 z M 3013.9297 1987.3574 C 3003.6845 1987.3574 2995.4355 1995.6044 2995.4355 2005.8496 L 2995.4355 2068.3496 C 2995.4355 2078.5948 3003.6845 2086.8418 3013.9297 2086.8418 L 3208.2383 2086.8418 C 3218.4835 2086.8418 3226.7324 2078.5948 3226.7324 2068.3496 L 3226.7324 2005.8496 C 3226.7324 1995.6044 3218.4835 1987.3574 3208.2383 1987.3574 L 3013.9297 1987.3574 z M 1771.9922 1987.3633 C 1762.2406 1987.3633 1754.3906 1995.2152 1754.3906 2004.9668 L 1754.3906 2069.5078 C 1754.3906 2079.2594 1762.2406 2087.1094 1771.9922 2087.1094 L 1830.666 2087.1094 C 1840.4176 2087.1094 1848.2695 2079.2594 1848.2695 2069.5078 L 1848.2695 2004.9668 C 1848.2695 1995.2152 1840.4176 1987.3633 1830.666 1987.3633 L 1771.9922 1987.3633 z M 3436.1777 2086.9297 C 3425.9325 2086.9297 3417.6836 2095.1786 3417.6836 2105.4238 L 3417.6836 2173.2324 C 3417.6836 2183.4776 3425.9325 2191.7246 3436.1777 2191.7246 L 3498.5879 2191.7246 C 3508.8331 2191.7246 3517.082 2183.4776 3517.082 2173.2324 L 3517.082 2105.4238 C 3517.082 2095.1786 3508.8331 2086.9297 3498.5879 2086.9297 L 3436.1777 2086.9297 z M 4054.4805 2095.0293 C 4044.2353 2095.0293 4035.9863 2103.2782 4035.9863 2113.5234 L 4035.9863 2294.8594 C 4035.9863 2305.1046 4044.2353 2313.3516 4054.4805 2313.3516 L 4112.4141 2313.3516 C 4122.6593 2313.3516 4130.9082 2305.1046 4130.9082 2294.8594 L 4130.9082 2113.5234 C 4130.9082 2103.2782 4122.6593 2095.0293 4112.4141 2095.0293 L 4054.4805 2095.0293 z M 3718.3086 2095.4922 C 3708.0634 2095.4922 3699.8164 2103.7411 3699.8164 2113.9863 L 3699.8164 2181.7949 C 3699.8164 2192.0401 3708.0634 2200.2871 3718.3086 2200.2871 L 3780.7207 2200.2871 C 3790.9659 2200.2871 3799.2129 2192.0401 3799.2129 2181.7949 L 3799.2129 2113.9863 C 3799.2129 2103.7411 3790.9659 2095.4922 3780.7207 2095.4922 L 3718.3086 2095.4922 z M 3828.2168 2095.4922 C 3817.9716 2095.4922 3809.7246 2103.7411 3809.7246 2113.9863 L 3809.7246 2181.7949 C 3809.7246 2192.0401 3817.9716 2200.2871 3828.2168 2200.2871 L 3890.6289 2200.2871 C 3900.8741 2200.2871 3909.1211 2192.0401 3909.1211 2181.7949 L 3909.1211 2113.9863 C 3909.1211 2103.7411 3900.8741 2095.4922 3890.6289 2095.4922 L 3828.2168 2095.4922 z M 3938.125 2095.4922 C 3927.8798 2095.4922 3919.6328 2103.7411 3919.6328 2113.9863 L 3919.6328 2181.7949 C 3919.6328 2192.0401 3927.8798 2200.2871 3938.125 2200.2871 L 4000.5371 2200.2871 C 4010.7823 2200.2871 4019.0293 2192.0401 4019.0293 2181.7949 L 4019.0293 2113.9863 C 4019.0293 2103.7411 4010.7823 2095.4922 4000.5371 2095.4922 L 3938.125 2095.4922 z M 1574.4824 2100.8242 C 1564.2372 2100.8242 1555.9902 2109.0712 1555.9902 2119.3164 L 1555.9902 2181.877 C 1555.9902 2192.1222 1564.2372 2200.3711 1574.4824 2200.3711 L 1773.377 2200.3711 C 1783.6222 2200.3711 1791.8691 2192.1222 1791.8691 2181.877 L 1791.8691 2119.3164 C 1791.8691 2109.0712 1783.6222 2100.8242 1773.377 2100.8242 L 1574.4824 2100.8242 z M 1830.9395 2100.8281 C 1821.1878 2100.8281 1813.3359 2108.68 1813.3359 2118.4316 L 1813.3359 2182.9727 C 1813.3359 2192.7243 1821.1878 2200.5742 1830.9395 2200.5742 L 1889.6133 2200.5742 C 1899.3649 2200.5742 1907.2148 2192.7243 1907.2148 2182.9727 L 1907.2148 2118.4316 C 1907.2148 2108.68 1899.3649 2100.8281 1889.6133 2100.8281 L 1830.9395 2100.8281 z M 1943.9199 2100.8281 C 1934.1683 2100.8281 1926.3184 2108.68 1926.3184 2118.4316 L 1926.3184 2182.9727 C 1926.3184 2192.7243 1934.1683 2200.5742 1943.9199 2200.5742 L 2002.5957 2200.5742 C 2012.3473 2200.5742 2020.1973 2192.7243 2020.1973 2182.9727 L 2020.1973 2118.4316 C 2020.1973 2108.68 2012.3473 2100.8281 2002.5957 2100.8281 L 1943.9199 2100.8281 z M 2056.9023 2100.8281 C 2047.1507 2100.8281 2039.3008 2108.68 2039.3008 2118.4316 L 2039.3008 2182.9727 C 2039.3008 2192.7243 2047.1507 2200.5742 2056.9023 2200.5742 L 2115.5762 2200.5742 C 2125.3278 2200.5742 2133.1797 2192.7243 2133.1797 2182.9727 L 2133.1797 2118.4316 C 2133.1797 2108.68 2125.3278 2100.8281 2115.5762 2100.8281 L 2056.9023 2100.8281 z M 2169.8848 2100.8281 C 2160.1331 2100.8281 2152.2832 2108.68 2152.2832 2118.4316 L 2152.2832 2182.9727 C 2152.2832 2192.7243 2160.1331 2200.5742 2169.8848 2200.5742 L 2228.5586 2200.5742 C 2238.3102 2200.5742 2246.1602 2192.7243 2246.1602 2182.9727 L 2246.1602 2118.4316 C 2246.1602 2108.68 2238.3102 2100.8281 2228.5586 2100.8281 L 2169.8848 2100.8281 z M 2282.8672 2100.8281 C 2273.1156 2100.8281 2265.2637 2108.68 2265.2637 2118.4316 L 2265.2637 2182.9727 C 2265.2637 2192.7243 2273.1156 2200.5742 2282.8672 2200.5742 L 2341.541 2200.5742 C 2351.2926 2200.5742 2359.1426 2192.7243 2359.1426 2182.9727 L 2359.1426 2118.4316 C 2359.1426 2108.68 2351.2926 2100.8281 2341.541 2100.8281 L 2282.8672 2100.8281 z M 2395.8477 2100.8281 C 2386.096 2100.8281 2378.2461 2108.68 2378.2461 2118.4316 L 2378.2461 2182.9727 C 2378.2461 2192.7243 2386.096 2200.5742 2395.8477 2200.5742 L 2454.5215 2200.5742 C 2464.2731 2200.5742 2472.125 2192.7243 2472.125 2182.9727 L 2472.125 2118.4316 C 2472.125 2108.68 2464.2731 2100.8281 2454.5215 2100.8281 L 2395.8477 2100.8281 z M 2508.8301 2100.8281 C 2499.0785 2100.8281 2491.2285 2108.68 2491.2285 2118.4316 L 2491.2285 2182.9727 C 2491.2285 2192.7243 2499.0785 2200.5742 2508.8301 2200.5742 L 2567.5039 2200.5742 C 2577.2555 2200.5742 2585.1055 2192.7243 2585.1055 2182.9727 L 2585.1055 2118.4316 C 2585.1055 2108.68 2577.2555 2100.8281 2567.5039 2100.8281 L 2508.8301 2100.8281 z M 2621.8125 2100.8281 C 2612.0609 2100.8281 2604.209 2108.68 2604.209 2118.4316 L 2604.209 2182.9727 C 2604.209 2192.7243 2612.0609 2200.5742 2621.8125 2200.5742 L 2680.4863 2200.5742 C 2690.2379 2200.5742 2698.0879 2192.7243 2698.0879 2182.9727 L 2698.0879 2118.4316 C 2698.0879 2108.68 2690.2379 2100.8281 2680.4863 2100.8281 L 2621.8125 2100.8281 z M 2734.793 2100.8281 C 2725.0413 2100.8281 2717.1914 2108.68 2717.1914 2118.4316 L 2717.1914 2182.9727 C 2717.1914 2192.7243 2725.0413 2200.5742 2734.793 2200.5742 L 2793.4688 2200.5742 C 2803.2204 2200.5742 2811.0703 2192.7243 2811.0703 2182.9727 L 2811.0703 2118.4316 C 2811.0703 2108.68 2803.2204 2100.8281 2793.4688 2100.8281 L 2734.793 2100.8281 z M 2847.7754 2100.8281 C 2838.0238 2100.8281 2830.1738 2108.68 2830.1738 2118.4316 L 2830.1738 2182.9727 C 2830.1738 2192.7243 2838.0238 2200.5742 2847.7754 2200.5742 L 2906.4492 2200.5742 C 2916.2008 2200.5742 2924.0527 2192.7243 2924.0527 2182.9727 L 2924.0527 2118.4316 C 2924.0527 2108.68 2916.2008 2100.8281 2906.4492 2100.8281 L 2847.7754 2100.8281 z M 2960.8926 2101.7734 C 2950.6474 2101.7734 2942.4004 2110.0204 2942.4004 2120.2656 L 2942.4004 2182.082 C 2942.4004 2192.3272 2950.6474 2200.5742 2960.8926 2200.5742 L 3208.2383 2200.5742 C 3218.4835 2200.5742 3226.7324 2192.3272 3226.7324 2182.082 L 3226.7324 2120.2656 C 3226.7324 2110.0204 3218.4835 2101.7734 3208.2383 2101.7734 L 2960.8926 2101.7734 z M 3325.0254 2208.5566 C 3314.7802 2208.5566 3306.5332 2216.8056 3306.5332 2227.0508 L 3306.5332 2294.8594 C 3306.5332 2305.1046 3314.7802 2313.3516 3325.0254 2313.3516 L 3387.4375 2313.3516 C 3397.6827 2313.3516 3405.9297 2305.1046 3405.9297 2294.8594 L 3405.9297 2227.0508 C 3405.9297 2216.8056 3397.6827 2208.5566 3387.4375 2208.5566 L 3325.0254 2208.5566 z M 3436.1777 2208.5566 C 3425.9325 2208.5566 3417.6836 2216.8056 3417.6836 2227.0508 L 3417.6836 2294.8594 C 3417.6836 2305.1046 3425.9325 2313.3516 3436.1777 2313.3516 L 3498.5879 2313.3516 C 3508.8331 2313.3516 3517.082 2305.1046 3517.082 2294.8594 L 3517.082 2227.0508 C 3517.082 2216.8056 3508.8331 2208.5566 3498.5879 2208.5566 L 3436.1777 2208.5566 z M 3547.3301 2208.5566 C 3537.0849 2208.5566 3528.8359 2216.8056 3528.8359 2227.0508 L 3528.8359 2294.8594 C 3528.8359 2305.1046 3537.0849 2313.3516 3547.3301 2313.3516 L 3609.7402 2313.3516 C 3619.9854 2313.3516 3628.2344 2305.1046 3628.2344 2294.8594 L 3628.2344 2227.0508 C 3628.2344 2216.8056 3619.9854 2208.5566 3609.7402 2208.5566 L 3547.3301 2208.5566 z M 1574.4824 2214.0156 C 1564.2372 2214.0156 1555.9902 2222.2626 1555.9902 2232.5078 L 1555.9902 2294.8594 C 1555.9902 2305.1046 1564.2372 2313.3516 1574.4824 2313.3516 L 1690.3516 2313.3516 C 1700.5968 2313.3516 1708.8457 2305.1046 1708.8457 2294.8594 L 1708.8457 2232.5078 C 1708.8457 2222.2626 1700.5968 2214.0156 1690.3516 2214.0156 L 1574.4824 2214.0156 z M 1865.3672 2214.0156 C 1855.122 2214.0156 1846.873 2222.2626 1846.873 2232.5078 L 1846.873 2294.8594 C 1846.873 2305.1046 1855.122 2313.3516 1865.3672 2313.3516 L 1980.1758 2313.3516 C 1990.421 2313.3516 1998.668 2305.1046 1998.668 2294.8594 L 1998.668 2232.5078 C 1998.668 2222.2626 1990.421 2214.0156 1980.1758 2214.0156 L 1865.3672 2214.0156 z M 2035.6582 2214.0156 C 2025.413 2214.0156 2017.166 2222.2626 2017.166 2232.5078 L 2017.166 2294.8594 C 2017.166 2305.1046 2025.413 2313.3516 2035.6582 2313.3516 L 2759.5859 2313.3516 C 2769.8311 2313.3516 2778.0801 2305.1046 2778.0801 2294.8594 L 2778.0801 2232.5078 C 2778.0801 2222.2626 2769.8311 2214.0156 2759.5859 2214.0156 L 2035.6582 2214.0156 z M 2813.9766 2214.0156 C 2803.7314 2214.0156 2795.4844 2222.2626 2795.4844 2232.5078 L 2795.4844 2294.8594 C 2795.4844 2305.1046 2803.7314 2313.3516 2813.9766 2313.3516 L 2930.4629 2313.3516 C 2940.7081 2313.3516 2948.9551 2305.1046 2948.9551 2294.8594 L 2948.9551 2232.5078 C 2948.9551 2222.2626 2940.7081 2214.0156 2930.4629 2214.0156 L 2813.9766 2214.0156 z M 3095.6133 2214.0156 C 3085.3681 2214.0156 3077.1191 2222.2626 3077.1191 2232.5078 L 3077.1191 2294.8594 C 3077.1191 2305.1046 3085.3681 2313.3516 3095.6133 2313.3516 L 3207.6621 2313.3516 C 3217.9073 2313.3516 3226.1562 2305.1046 3226.1562 2294.8594 L 3226.1562 2232.5078 C 3226.1562 2222.2626 3217.9073 2214.0156 3207.6621 2214.0156 L 3095.6133 2214.0156 z M 3718.3086 2214.0156 C 3708.0634 2214.0156 3699.8164 2222.2626 3699.8164 2232.5078 L 3699.8164 2294.8594 C 3699.8164 2305.1046 3708.0634 2313.3516 3718.3086 2313.3516 L 3889.9199 2313.3516 C 3900.1651 2313.3516 3908.4121 2305.1046 3908.4121 2294.8594 L 3908.4121 2232.5078 C 3908.4121 2222.2626 3900.1651 2214.0156 3889.9199 2214.0156 L 3718.3086 2214.0156 z M 3937.9043 2214.0156 C 3927.6591 2214.0156 3919.4102 2222.2626 3919.4102 2232.5078 L 3919.4102 2294.8594 C 3919.4102 2305.1046 3927.6591 2313.3516 3937.9043 2313.3516 L 4000.0176 2313.3516 C 4010.2628 2313.3516 4018.5098 2305.1046 4018.5098 2294.8594 L 4018.5098 2232.5078 C 4018.5098 2222.2626 4010.2628 2214.0156 4000.0176 2214.0156 L 3937.9043 2214.0156 z M 2829.5762 2364.4551 L 2048.209 2948.4551 L 2231.7832 2375.5801 L 2147.4941 2375.5801 L 1893.4082 3168.3652 L 2829.377 2468.6504 L 3781.4219 3165.3926 L 3519.3672 2375.5801 L 3434.6719 2375.5801 L 3623.918 2946.0234 L 2829.5762 2364.4551 z "
         transform="matrix(0.26458333,0,0,0.26458333,0,-603)" />
      <path
         style="fill:#000000;stroke:none;stroke-width:0.264583px;stroke-linecap:butt;stroke-linejoin:miter;stroke-opacity:1"
         d="M 415.11653,46.83092 H 543.43088 L 545.344,11.871418 421.23148,29.359186 Z"
         id="path1703" />
    </g>
  </g>
</svg>
