<?xml version="1.0" encoding="UTF-8" standalone="no"?>
<!-- Created with Inkscape (http://www.inkscape.org/) -->

<svg
   xmlns:dc="http://purl.org/dc/elements/1.1/"
   xmlns:cc="http://creativecommons.org/ns#"
   xmlns:rdf="http://www.w3.org/1999/02/22-rdf-syntax-ns#"
   xmlns:svg="http://www.w3.org/2000/svg"
   xmlns="http://www.w3.org/2000/svg"
   version="1.2"
   width="581.92352"
   height="531.49609"
   id="svg2">
  <defs
     id="defs4" />
  <metadata
     id="metadata7">
    <rdf:RDF>
      <cc:Work
         rdf:about="">
        <dc:format>image/svg+xml</dc:format>
        <dc:type
           rdf:resource="http://purl.org/dc/dcmitype/StillImage" />
        <dc:title></dc:title>
      </cc:Work>
    </rdf:RDF>
  </metadata>
  <path
     d="m 285.0852,365.4475 0.9041,0.1004 c 0.5058,0 2.6891,0.088 4.8218,0.2008 3.4627,0.1908 4.0227,0.2153 5.2235,0.8036 1.5481,0.7578 2.5091,2.1083 2.7122,3.6163 l 0.2011,0.9042 -1.105,0.1004 c -2.1568,0.192 -2.5605,0.1874 -7.0317,-0.3012 -6.3595,-0.6952 -5.7258,-0.2659 -5.7258,-3.0136 l 0,-2.4109 z m -7.7348,-40.4825 2.1095,0.2009 c 3.0606,0.217 3.172,0.1762 3.8172,2.21 0.7878,2.4852 2.946,6.4021 6.2281,11.3512 2.9567,4.458 5.0055,8.3082 5.9267,11.0498 0.6811,2.0214 0.8895,6.5975 0.4018,8.438 -0.3642,1.3763 -0.4318,1.4401 -3.0136,0.9041 l -1.3059,-0.3012 -0.1004,-1.8081 c -0.4105,-4.8559 -2.6581,-10.0775 -6.6299,-15.3693 -1.8214,-2.4268 -4.8749,-5.9899 -5.1231,-6.0272 -0.078,-0.01 -0.4287,0.5172 -0.8036,1.2054 l -0.7032,1.3059 0.2009,4.6209 c 0.14,5.401 0.413,7.2574 2.6118,16.3738 2.4621,10.2076 3.0616,14.567 2.7122,20.2914 -0.4677,7.6815 -3.043,12.8399 -7.8353,16.0725 -1.8708,1.2606 -2.8865,1.4713 -3.2145,0.6027 -0.1147,-0.3034 -0.305,-1.2538 -0.4018,-2.1095 -0.1718,-1.4929 -0.089,-1.5664 0.6027,-2.3104 2.8672,-3.0875 4.3135,-6.581 5.4245,-12.6571 0.6432,-3.5183 0.658,-3.2531 -1.5068,-14.5656 -2.498,-13.0519 -3.0608,-18.4164 -2.8127,-24.4101 0.2165,-5.2464 0.9041,-8.5543 2.7122,-13.1593 l 0.7032,-1.9086 z m -8.639,-7.8353 c 0.3478,0.1409 1.1286,0.8294 2.5113,2.1095 1.4382,1.3316 2.6118,2.5837 2.6118,2.7122 0,0.1319 -0.5322,0.7693 -1.2054,1.5068 -4.0052,4.3824 -7.0441,11.0409 -7.8353,16.9766 -0.5809,4.3574 0.2969,12.7341 1.6072,15.2688 0.6087,1.177 2.4192,3.0164 4.5204,4.6208 2.0389,1.5561 3.6371,3.2961 4.219,4.42 0.4783,0.9387 0.8059,2.5065 0.6027,3.3149 l -0.2009,0.6027 -1.4063,-0.7032 c -0.7726,-0.3877 -2.0601,-0.8879 -2.8127,-1.1049 -1.1221,-0.3232 -1.7078,-0.7125 -3.4154,-2.3105 -4.3293,-4.0504 -6.9873,-9.2301 -8.3376,-16.2733 -0.4507,-2.3173 -0.4634,-3.1799 -0.3013,-5.1231 0.2976,-3.4642 0.2215,-5.5048 -0.1006,-5.8263 -0.2141,-0.2137 -0.772,-0.1832 -2.4108,0.2009 -5.3198,1.2486 -10.6379,1.1512 -14.6661,-0.2009 -2.2974,-0.7707 -2.4855,-1.101 -1.6073,-2.9131 1.058,-2.185 2.5165,-2.4478 7.1322,-1.4063 3.0852,0.6956 4.9893,0.8158 6.3285,0.3012 0.5076,-0.1955 1.4046,-0.5418 2.009,-0.7032 2.5923,-0.6662 5.2438,-2.613 7.2327,-5.4245 0.9191,-1.2992 4.9987,-8.9237 5.324,-9.9448 0.021,-0.065 0.085,-0.1474 0.2009,-0.1004 z m 164.5418,-3.7167 c 0,0 0.6615,1.4001 -0.4018,2.4108 -7.5272,7.1546 -22.5803,21.3458 -23.7068,22.401 l -1.6073,-1.6072 -1.3059,1.3059 -11.3512,10.7484 c -0.3641,-0.061 -0.7429,-0.033 -1.105,-0.1004 l -174.587,164.1398 96.8365,0 102.9642,-150.0766 -3.114,-2.009 9.3421,-13.6616 c -0.061,0.02 -0.1394,-0.02 -0.201,0 1.8229,-2.5502 8.301,-11.5231 11.0498,-15.5702 1.1512,-1.6955 3.7167,-1.5068 3.7167,-1.5068 0,0 -1.1968,-0.3854 -2.3104,-0.2009 -0.3712,0.061 -0.7213,0.189 -1.0045,0.4018 -5.9477,4.4685 -13.8822,16.249 -14.9675,17.8806 -4.9164,1.1401 -10.0122,1.7077 -15.2688,1.7077 -2.2699,0 -4.5185,-0.1941 -6.7304,-0.4018 l 9.1412,-8.7394 0.6027,-0.5023 c 0.6642,0.4964 1.4449,0.7121 2.3104,0.201 0.9952,-0.5876 18.9972,-19.6103 22.0997,-24.2092 0.9113,-1.3512 -0.4018,-2.6118 -0.4018,-2.6118 z M 265.1956,297.8428 c 0.2644,0.01 1.3216,1.5006 2.9131,4.219 4.944,8.4469 7.9439,12.4622 11.4516,15.2688 3.2882,2.6308 6.6141,4.0148 10.7485,4.4199 l 1.7077,0.1003 0,0.9041 c 0,0.6708 -0.1964,0.8687 -0.9041,1.3059 -0.4723,0.2922 -1.1384,0.5903 -1.5068,0.7032 -1.2125,0.3649 -4.3173,0.2809 -6.3285,-0.2009 -7.2281,-1.7343 -13.1014,-6.4974 -16.5747,-13.4607 -1.7979,-3.6047 -3.6425,-9.8431 -3.315,-11.1501 0.2036,-0.8107 1.3135,-2.1224 1.8082,-2.1095 z m 1.6072,-7.3331 c 0.1587,-0.044 0.3869,0 0.7032,0 0.688,0 1.2307,0.089 1.3059,0.3014 0.4019,1.0477 5.8001,7.7244 8.438,10.4471 5.3907,5.564 9.504,8.2814 16.1729,10.4471 0.607,0.1973 2.5664,0.5135 4.3195,0.7031 3.4794,0.3778 5.4396,0.8868 6.3285,1.6073 l 0.5023,0.4018 -0.9041,0.9041 c -1.1549,1.0883 -2.1188,1.6136 -3.7167,2.009 -1.8525,0.4582 -2.1032,0.3949 -8.3376,-0.9041 -5.5406,-1.1547 -5.8208,-1.2156 -7.6344,-2.3104 -8.0654,-4.8659 -13.7385,-11.7517 -16.4743,-20.0905 -0.9163,-2.7692 -1.1792,-3.3835 -0.7032,-3.5159 z m 72.1252,-4.9222 c -3.0863,0.052 -6.3928,0.162 -8.8399,0.2009 -14.8314,0.2265 -16.3131,0.3966 -19.6887,1.3059 -1.7145,0.4624 -4.5645,1.7641 -4.3195,2.0091 0.058,0.06 3.1672,0.044 6.9312,-0.1005 4.3823,-0.1784 11.8228,-0.2976 20.6933,-0.2009 1.6197,0.016 3.5419,-0.016 5.4245,0 -0.1019,-1.067 -0.1493,-2.1335 -0.2011,-3.2145 z m 0,-7.4335 c -1.4278,0.022 -2.3501,0.078 -3.9177,0.1004 -19.1641,0.2831 -20.2499,0.35 -23.6064,1.6073 -2.0097,0.7529 -3.9564,1.979 -4.8217,3.114 -0.3672,0.4821 -0.6674,0.94 -0.6028,1.0046 0.057,0.056 1.4503,-0.3768 3.1141,-0.9041 5.372,-1.7019 4.8779,-1.5792 23.7068,-1.9086 1.9585,-0.035 3.9899,-0.072 6.0272,-0.1005 0.017,-0.9812 0.042,-1.9425 0.1004,-2.9131 z m -4.8218,-8.5385 c -5.3835,0.042 -9.9227,0.1693 -11.2507,0.3014 -6.6292,0.6584 -11.9127,2.6999 -15.4697,6.0271 -1.1342,1.0609 -2.1372,2.3833 -1.9086,2.6118 0.052,0.054 0.9155,-0.2277 1.9086,-0.7032 2.3554,-1.1287 6.1722,-2.4586 9.2416,-3.2144 2.9821,-0.7373 8.8376,-0.9764 22.7024,-0.9041 0.1766,-1.398 0.4424,-2.7486 0.7031,-4.1186 -2.0553,9e-4 -4.0017,-0.016 -5.9267,0 z m 104.2701,-34.2544 c -0.7874,0.053 -1.5314,0.2202 -2.3104,0.4018 -12.4637,2.904 -18.8103,21.4446 -14.1638,41.3866 4.6464,19.942 18.5761,33.743 31.0399,30.839 12.4637,-2.904 18.7099,-21.4446 14.0634,-41.3866 -4.3561,-18.6956 -16.8184,-32.0432 -28.6291,-31.2408 z m -301.4591,-101.5578 228.6308,69.212 1.105,-3.5159 54.7468,16.6752 -0.1004,0.4018 c 29.9773,6.8422 52.3359,33.638 52.3359,65.6962 0,23.6647 -12.2022,44.4293 -30.6381,56.4545 l -18.8851,27.3232 -2.4109,-1.6073 -101.7588,148.2684 242.9955,0 0,-378.9081 -426.0206,0 z m -119.4384,0 0,378.9081 196.8876,0 175.5916,-165.1445 c -0.2045,-0.051 -0.3992,-0.1481 -0.6027,-0.201 l 13.6616,-12.858 1.3059,-1.3059 -1.9086,-2.1095 c 1.4493,-1.3332 15.517,-14.3403 23.1042,-21.7983 1.4213,-1.3975 3.8172,0.1005 3.8172,0.1005 0,0 -1.8006,-1.656 -3.0136,-1.5068 -0.1731,0.021 -0.3625,0.095 -0.5023,0.2009 -7.5821,5.733 -18.8382,14.2777 -25.515,20.4924 -0.9754,0.9079 -0.056,2.143 0.6027,2.8127 l -0.4018,0.4018 -15.1684,14.3647 c -23.6158,-7.6961 -41.5083,-27.9032 -45.6056,-52.9386 -2.8671,0.015 -3.9737,0.084 -6.9313,0.1004 l -20.0905,0.1005 0.1004,1.0045 c 0.1062,1.7876 -0.1461,2.1664 -1.6073,2.8127 -2.6431,1.1688 -4.9143,1.5791 -8.7394,1.7077 -2.7846,0.097 -4.1777,0.028 -6.0271,-0.3014 -6.1641,-1.0936 -14.2308,-4.6433 -21.6979,-9.543 -0.6802,-0.4466 -0.6423,-0.3362 0.3014,0.8036 6.0132,7.2653 14.2669,11.1751 25.2137,12.0544 3.5249,0.2829 5.2513,0.7473 6.5294,1.6072 1.1684,0.7879 1.0675,1.5423 -0.201,2.4109 -1.6505,1.1297 -3.6086,1.4508 -6.9313,1.3059 -6.6989,-0.2779 -13.7424,-2.6014 -19.1865,-6.3286 -5.7311,-3.9236 -9.3658,-8.164 -11.0498,-13.0588 -0.5771,-1.6553 -0.5823,-2.3105 -0.1005,-2.3105 0.1954,0 0.6598,-0.1399 1.0045,-0.3013 0.7584,-0.3481 0.7564,-0.9082 0.1005,-2.8127 -0.6346,-1.8433 -0.6657,-2.7068 0,-3.4154 1.029,-1.0954 1.86,-0.7751 3.9177,1.8082 0.4444,0.5593 0.8917,1.0045 1.0045,1.0045 0.1078,0 0.7349,-2.1252 1.5068,-4.7213 0.7725,-2.596 1.783,-5.3235 2.21,-6.1276 0.8333,-1.5683 2.7777,-3.7312 3.9176,-4.3195 0.6735,-0.3491 0.7236,-0.3637 1.4064,0.4018 0.3907,0.437 0.7031,0.9247 0.7031,1.105 0,0.1806 -0.414,1.4454 -1.0045,2.7122 -2.1168,4.5436 -3.8863,10.0532 -4.219,13.1594 -0.1428,1.3315 -0.189,1.4251 0.7032,2.2099 1.3953,1.225 1.4309,1.2401 2.7122,-2.9131 0.4835,-1.5669 1.5487,-4.2818 2.4109,-6.0272 1.7036,-3.454 6.6056,-11.8587 7.2326,-12.3557 0.2138,-0.1687 1.2211,-0.8337 2.2099,-1.5068 1.4684,-0.9981 1.9528,-1.2054 2.8127,-1.2054 1.9853,0 2.0336,0.036 -2.5113,7.333 -5.9566,9.5632 -7.524,12.6765 -8.9403,17.5793 l -0.6027,2.1095 0.7031,0.8036 0.7032,0.7032 0.6027,-0.6027 c 0.318,-0.3345 0.9692,-1.6319 1.4064,-2.9132 1.9503,-5.7253 6.06,-12.5157 12.7575,-20.8941 1.3125,-1.642 4.2034,-3.6164 5.324,-3.6164 0.6356,0 1.8081,0.552 1.8081,0.9041 0,0.1048 -1.1809,1.7068 -2.6117,3.5159 -7.6806,9.7105 -12.66,17.8636 -12.858,21.1955 l -0.1004,1.4064 1.0045,-2.0091 c 2.0838,-4.573 5.6802,-9.9675 9.4426,-13.9629 1.9996,-2.1235 2.319,-2.352 5.1231,-3.7168 5.7826,-2.8137 12.4934,-4.422 20.7937,-5.1231 1.12,-0.097 5.5816,-0.1591 11.1503,-0.2009 1.9358,-7.2392 5.0824,-14.031 9.1412,-20.0906 l -301.9613,-0.7031 0,-3.2145 304.3721,0.7031 c 7.7963,-10.2483 18.4113,-18.2556 30.7386,-22.7023 10.4502,3.6523 21.3226,6.3566 27.7251,7.1321 5.6713,0.687 7.1695,-0.2315 8.0362,-1.8081 -0.9142,0.7911 -2.2005,1.0508 -5.5249,0.1005 -5.3517,-1.5298 -14.3385,-4.4181 -23.9079,-7.333 l -4.1185,-1.3059 -0.1004,0 -21.7984,-6.6299 0.904,-2.9132 -238.7764,-72.2256 -108.3887,0 z M 9.0408,9.1412001 l 563.7415,0 0,513.2136999 -563.7415,0 z M 0,0 0,4.6209001 0,526.9757 l 0,4.5204 4.5204,0 572.8827,0 4.5204,0 0,-4.5204 0,-522.3547999 L 581.9235,0 577.4031,0 4.5204,0 z m 69.32115,21.0951 c -27.1702,0 -44.0988,19.4008 -44.0988,50.5278 0,30.8633 16.822,50.2265 43.5965,50.2265 23.872903,0 39.7977,-13.8354 40.9848,-35.8617 l -19.286997,0 c -1.187,12.266099 -8.9294,19.1865 -21.195503,19.1865 -15.2998,0 -24.3096,-12.379201 -24.3096,-33.3504 0,-21.2349 9.3488,-33.8526 24.9123,-33.8526 6.8585,0 12.580303,2.315 16.273303,6.9313 2.1104,2.6379 3.1325,5.2027 4.3195,10.3466 l 18.885197,0 c -0.6595,-8.3093 -2.3403,-13.5779 -6.429,-18.9856 C 95.586753,26.5033 83.697653,21.0951 69.32115,21.0951 z m 95.3297,0 c -27.1702,0 -44.0988,19.4008 -44.0988,50.5278 0,30.8633 16.7216,50.2265 43.4961,50.2265 23.8729,0 39.8982,-13.8354 41.0853,-35.8617 l -19.287,0 c -1.187,12.266099 -8.9293,19.1865 -21.1956,19.1865 -15.2997,0 -24.3096,-12.379201 -24.3096,-33.3504 0,-21.2349 9.3488,-33.8526 24.9123,-33.8526 6.8586,0 12.5804,2.315 16.2734,6.9313 2.1104,2.6379 3.1325,5.2027 4.3195,10.3466 l 18.8852,0 c -0.6595,-8.3093 -2.4408,-13.5779 -6.5295,-18.9856 -7.3861,-9.7602 -19.1747,-15.1684 -33.5513,-15.1684 z m 95.3298,0 c -27.1702,0 -44.0988,19.4008 -44.0988,50.5278 0,30.8633 16.7216,50.2265 43.4961,50.2265 23.8729,0 39.8982,-13.8354 41.0852,-35.8617 l -19.2869,0 c -1.1871,12.266099 -8.9294,19.1865 -21.1956,19.1865 -15.2997,0 -24.3096,-12.379201 -24.3096,-33.3504 0,-21.2349 9.3488,-33.8526 24.9123,-33.8526 6.8586,0 12.5804,2.315 16.2734,6.9313 2.1103,2.6379 3.1324,5.2027 4.3195,10.3466 l 18.8851,0 c -0.6595,-8.3093 -2.4407,-13.5779 -6.5294,-18.9856 -7.3861,-9.7602 -19.1748,-15.1684 -33.5513,-15.1684 z m 250.21075,0 c -13.4532,0 -24.4697,4.4229 -32.6472,13.2598 -8.5731,9.2326 -13.4606,22.6906 -13.4606,37.0671 0,14.3765 4.8875,27.966399 13.4606,37.0671 8.3094,8.9688 19.1311,13.3603 32.8481,13.3603 13.717,0 24.5388,-4.3915 32.8481,-13.3603 8.3094,-8.836901 13.4607,-22.7788 13.4607,-36.3639 0,-15.036 -4.8876,-28.5377 -13.4607,-37.7703 -8.4412,-9.1007 -19.2001,-13.2598 -33.049,-13.2598 z m 0.2009,16.8761 c 16.223,0 26.5196,13.2142 26.5196,34.0535 0,19.6523 -10.6923,32.9486 -26.5196,32.9486 -15.9592,0 -26.5195,-13.3715 -26.5195,-33.5513 0,-20.1798 10.5603,-33.4508 26.5195,-33.4508 z m -194.15805,-15.3693 0,96.2339 43.1948,0 c 11.0791,0 18.5062,-2.1516 24.3096,-7.0317 5.8033,-4.8801 9.4425,-13.043501 9.4425,-20.6933 0,-9.4964 -5.0561,-16.9742 -15.8715,-23.3051 9.4963,-6.0671 13.1593,-11.6118 13.1593,-19.7892 0,-6.5947 -3.3317,-13.6347 -8.7394,-18.3829 -5.6715,-4.8801 -12.4146,-7.0317 -22.7024,-7.0317 z m 19.7892,16.5748 21.4969,0 c 9.1007,0 13.963,3.827 13.963,10.9493 0,6.9904 -4.8623,10.7485 -13.963,10.7485 l -21.4969,0 z m 0,38.172 23.6064,0 c 9.6283,0 14.5657,4.3792 14.5657,12.5566 0,8.045599 -4.9374,12.4562 -14.5657,12.4562 l -23.6064,0 z m 104.22995,-53.9432 -35.27355,96.1334 19.78915,0 35.2736,-96.1334 z"
     id="rect3077-74-3"
     style="font-size:medium;font-style:normal;font-variant:normal;font-weight:normal;font-stretch:normal;text-indent:0;text-align:start;text-decoration:none;line-height:normal;letter-spacing:normal;word-spacing:normal;text-transform:none;direction:ltr;block-progression:tb;writing-mode:lr-tb;text-anchor:start;baseline-shift:baseline;color:#000000;fill:#ca392f;fill-opacity:1;fill-rule:nonzero;stroke:none;stroke-width:2.83464575;marker:none;visibility:visible;display:inline;overflow:visible;enable-background:accumulate;font-family:Sans;-inkscape-font-specification:Sans" />
</svg>
