<?xml version="1.0" encoding="UTF-8" standalone="no"?>
<!-- Created with Inkscape (http://www.inkscape.org/) -->
<svg xmlns:dc="http://purl.org/dc/elements/1.1/" xmlns:cc="http://creativecommons.org/ns#" xmlns:rdf="http://www.w3.org/1999/02/22-rdf-syntax-ns#" xmlns:svg="http://www.w3.org/2000/svg" xmlns="http://www.w3.org/2000/svg" xmlns:sodipodi="http://sodipodi.sourceforge.net/DTD/sodipodi-0.dtd" xmlns:inkscape="http://www.inkscape.org/namespaces/inkscape" id="svg2440" sodipodi:version="0.32" inkscape:version="0.46" width="480" height="417" version="1.0" sodipodi:docname="pesthoernchen.svg" inkscape:output_extension="org.inkscape.output.svg.inkscape">
  <metadata id="metadata2445">
    <rdf:RDF>
      <cc:Work rdf:about="">
        <dc:format>image/svg+xml</dc:format>
        <dc:type rdf:resource="http://purl.org/dc/dcmitype/StillImage"/>
      </cc:Work>
    </rdf:RDF>
  </metadata>
  <defs id="defs2443">
    <inkscape:perspective sodipodi:type="inkscape:persp3d" inkscape:vp_x="0 : 526.18109 : 1" inkscape:vp_y="0 : 1000 : 0" inkscape:vp_z="744.09448 : 526.18109 : 1" inkscape:persp3d-origin="372.04724 : 350.78739 : 1" id="perspective2447"/>
  </defs>
  <sodipodi:namedview inkscape:window-height="769" inkscape:window-width="1278" inkscape:pageshadow="2" inkscape:pageopacity="0.0" guidetolerance="10.0" gridtolerance="10.0" objecttolerance="10.0" borderopacity="1.0" bordercolor="#666666" pagecolor="#ffffff" id="base" showgrid="false" inkscape:zoom="1.117506" inkscape:cx="240" inkscape:cy="208.5" inkscape:window-x="0" inkscape:window-y="0" inkscape:current-layer="svg2440"/>
  <path style="fill:#000000" d="M 158.44431,384.5118 C 153.3498,379.41108 151.4893,374.83391 151.47982,367.37782 C 151.4672,357.45895 156.16271,349.9449 165.61544,344.7571 C 170.28296,342.1955 171.97713,341.82207 178.74868,341.86228 C 187.04324,341.91153 188.36169,340.7741 182.41387,338.70032 C 180.52207,338.04072 179.06369,337.06636 179.17302,336.53508 C 179.28235,336.00379 183.80722,328.86246 189.22828,320.66545 C 194.64935,312.46844 200.06803,304.14075 201.2698,302.15947 L 203.45483,298.55714 L 225.06101,297.83928 C 236.94441,297.44446 246.86867,297.3229 247.11492,297.56915 C 247.60641,298.06063 237.69988,314.14937 222.83442,337.00199 C 217.77313,344.78269 216.26929,348.12454 218.43022,346.789 C 219.93522,345.85887 226.19929,348.87953 227.39375,351.1114 C 227.98802,352.2218 228.47424,356.24218 228.47424,360.04558 C 228.47424,365.93579 228.06661,367.56436 225.72424,371.03238 C 222.36641,376.00385 219.05544,378.67106 212.77173,381.46653 C 206.32902,384.33273 200.77048,385.26103 197.29836,384.05064 C 193.83454,382.84315 192.47424,380.54747 192.47424,375.90933 C 192.47424,371.44107 191.61959,369.2618 189.86725,369.2618 C 188.95992,369.2618 188.47424,370.40451 188.47424,372.53929 C 188.47424,380.28964 177.42006,389.2618 167.87122,389.2618 C 163.61737,389.2618 162.75405,388.82679 158.44431,384.5118 z M 331.23828,388.31104 C 326.7436,386.88382 321.62202,383.30276 320.92224,381.09796 C 320.4931,379.74585 321.01485,378.02186 322.4342,376.10209 C 323.62617,374.48987 324.45743,372.17875 324.28144,370.96629 C 323.99564,368.99721 323.44665,369.31414 319.14036,373.93423 C 313.33153,380.16635 308.4528,382.29398 298.35644,382.99816 C 291.65138,383.4658 290.07213,383.22432 285.17579,380.9827 C 278.99118,378.1513 273.94564,372.29149 272.90193,366.72806 C 271.82308,360.97727 274.8827,353.07021 280.61286,346.8005 C 283.43184,343.7161 285.46829,340.92252 285.13832,340.59254 C 284.80835,340.26257 283.09467,340.5906 281.33015,341.32148 C 278.60147,342.45174 277.9944,342.43449 277.26877,341.20609 C 276.79954,340.41173 271.55808,331.4368 265.6211,321.2618 C 259.68411,311.0868 254.20183,301.76977 253.43826,300.55728 C 252.67469,299.34479 252.25792,298.16978 252.51209,297.94615 C 252.76627,297.72251 263.59493,297.25292 276.57577,296.9026 L 300.1773,296.26567 L 313.07577,315.3864 C 320.16993,325.9028 326.42424,334.6393 326.97424,334.80084 C 338.48203,338.18084 347.57018,345.64867 352.5935,355.85248 C 355.43326,361.62085 355.69583,362.91247 355.22391,368.79166 C 354.58092,376.80185 351.4636,382.01165 345.0725,385.75708 C 340.04416,388.70389 335.25806,389.58746 331.23828,388.31104 z M 71.974245,384.44775 C 64.713085,381.85229 59.688765,378.34094 53.186005,371.31718 C 46.600495,364.20404 44.057675,359.70067 41.923945,351.37192 C 38.685225,338.72993 44.443505,327.48377 59.224245,317.58374 C 62.111745,315.64971 64.474245,313.64696 64.474245,313.13318 C 64.474245,311.13372 61.366125,311.1655 58.076495,313.19861 L 54.627985,315.32991 L 52.082055,311.99203 C 48.084395,306.75082 46.474245,301.84931 46.474245,294.92104 C 46.474245,281.74908 54.920045,270.93474 69.640595,265.2579 C 83.918645,259.7517 95.545012,260.92356 104.24524,268.74582 C 112.04034,275.75429 115.25958,285.85669 112.99026,296.18885 L 112.25451,299.53869 L 146.01059,298.79803 C 177.06308,298.11669 179.71629,298.18865 179.13764,299.69659 C 178.79167,300.59816 174.75817,307.05666 170.17431,314.04881 C 165.59045,321.04095 159.17021,331.12734 155.90713,336.46299 L 149.97424,346.16418 L 136.97424,346.33575 C 129.82424,346.43011 120.88347,346.43677 117.10587,346.35056 C 110.26365,346.1944 110.22113,346.17585 105.93875,341.4778 C 100.36797,335.3663 99.114422,337.47365 103.43491,345.68703 C 108.71589,355.72633 107.19943,365.78935 98.874582,375.94873 C 91.657795,384.75587 81.667065,387.91239 71.974245,384.44775 z M 415.47424,374.3871 C 406.91607,372.49392 397.87626,365.78943 394.51231,358.84045 C 392.53538,354.75665 391.77176,345.68157 392.7051,337.36301 C 392.85313,336.04367 392.47336,334.78921 391.86117,334.57532 C 390.64566,334.15063 388.4734,338.6228 388.21244,342.08719 C 388.05176,344.22031 387.75028,344.2618 372.41091,344.2618 L 356.77319,344.2618 L 353.74992,339.5118 C 352.08712,336.8993 344.8262,326.0993 337.61453,315.5118 L 324.50241,296.2618 L 337.73832,296.13289 C 345.01808,296.06199 353.89924,295.91545 357.47424,295.80725 C 361.04924,295.69904 370.20988,295.53205 377.83123,295.43616 C 390.19907,295.28054 391.62086,295.08626 391.06142,293.62839 C 390.02316,290.92273 392.44318,280.2663 395.44738,274.31501 C 398.35097,268.56303 405.94112,260.62215 411.06704,257.9736 C 422.99152,251.81224 438.60245,253.44937 449.97424,262.05383 C 455.77409,266.44228 461.14794,275.99915 461.89954,283.2618 C 462.81442,292.1021 458.696,303.95494 450.9658,314.72923 C 445.18628,322.78469 445.16441,325.22875 450.91706,320.17786 C 452.913,318.4254 455.11974,317.29552 455.93526,317.60847 C 458.43589,318.56805 464.33195,328.52832 465.49736,333.7618 C 468.09604,345.43173 462.22393,359.31226 451.56276,366.70046 C 442.62811,372.89217 425.35128,376.57204 415.47424,374.3871 z M 227.47424,289.70155 C 224.56332,288.39184 223.35272,288.33022 220.28154,289.33544 C 215.66908,290.84514 200.36385,289.35095 195.47898,286.91405 C 192.36556,285.36087 192.01961,285.37966 188.96456,287.26778 C 187.19005,288.36449 184.44129,289.2574 182.85621,289.25203 C 179.39103,289.24029 169.88142,284.98335 169.27828,283.17393 C 168.94799,282.18306 168.29302,282.27533 166.43909,283.57387 C 163.13844,285.88574 160.26222,285.69479 154.51457,282.78224 C 145.54197,278.23547 142.22213,273.67387 141.03577,264.2618 L 140.34252,258.7618 L 130.65838,252.2648 C 120.23467,245.27164 111.89499,238.45169 98.474242,225.94558 C 71.240975,200.56829 53.824875,172.96768 39.761335,132.89879 C 35.207005,119.92291 29.474245,98.181463 29.474245,93.885063 C 29.474245,92.606413 29.044315,90.255603 28.518845,88.661026 C 26.478735,82.470168 21.976565,28.092816 23.387315,26.682072 C 23.618465,26.450924 36.019925,26.261803 50.946125,26.261803 L 78.084675,26.261803 L 77.118635,34.011803 C 75.934435,43.511998 77.472085,60.711464 80.985235,77.261803 C 84.157615,92.206783 93.454882,121.2618 95.064732,121.2618 C 96.283152,121.2618 97.173402,117.07381 97.403032,110.2618 C 97.467922,108.3368 98.837012,101.8118 100.44545,95.761803 C 112.17991,51.623732 145.35489,19.368145 190.47424,8.2280106 C 202.73855,5.1999066 226.86816,4.4367846 238.84936,6.6981006 C 253.37859,9.4403286 264.15048,13.979124 279.47424,23.815603 C 303.4746,39.221683 321.10509,57.543904 333.57111,80.034941 C 339.68721,91.069533 346.03656,106.89477 347.00751,113.5241 C 347.39114,116.14336 348.08332,118.5202 348.5457,118.80596 C 349.59897,119.45692 352.8355,114.65534 352.12181,113.50058 C 351.83316,113.03353 352.00849,110.87624 352.51143,108.7066 C 356.86256,89.936273 357.9532,80.380355 357.92642,61.261803 C 357.90552,46.346163 357.47702,39.802579 356.10374,33.428062 C 355.1163,28.844505 354.4582,24.94534 354.64131,24.763252 C 354.82442,24.581164 378.93674,24.111748 408.22424,23.720106 C 454.75798,23.097842 461.47424,23.193648 461.47424,24.479706 C 461.47424,29.728343 459.2683,59.149466 458.37899,65.761803 C 455.41676,87.786952 452.40847,100.63569 445.26763,121.7618 C 430.82094,164.50218 400.97186,211.82383 372.74448,236.73738 C 357.4878,250.20295 335.43116,263.53413 317.27126,270.26574 L 308.56829,273.49181 L 307.47358,278.76497 C 306.03515,285.69387 303.82563,287.55894 296.19073,288.28891 C 291.1276,288.77299 289.30964,288.5006 285.8232,286.73554 L 281.59542,284.59517 L 279.00953,287.17848 C 276.66731,289.51837 275.68201,289.7618 268.5534,289.7618 C 262.32038,289.7618 260.2612,289.37983 258.65475,287.92564 C 256.67995,286.138 256.5429,286.15122 253.4695,288.42564 C 250.75055,290.43774 248.9714,290.79748 240.64345,291.01905 C 233.54165,291.208 230.0449,290.85817 227.47424,289.70155 z M 248.08471,283.49649 C 250.36365,281.98874 252.47309,276.20629 252.43862,271.56146 C 252.39115,265.16619 250.01734,255.5194 247.92113,253.20311 C 244.1369,249.02158 233.47553,248.14068 229.55814,251.68587 C 228.03147,253.06749 227.79058,255.26589 227.74692,268.21563 C 227.69809,282.6971 227.76167,283.16458 229.8354,283.57063 C 233.61258,284.31024 246.93656,284.2561 248.08471,283.49649 z M 219.6018,281.60941 C 221.10041,279.80512 221.67863,264.64965 220.58713,255.78326 C 220.05539,251.46392 219.59978,250.67338 217.14618,249.81277 C 214.75823,248.97518 213.3137,249.34157 207.86404,252.16709 C 204.31431,254.00754 200.89251,256.46926 200.26005,257.63758 C 199.01642,259.93489 196.61229,272.06695 196.52685,276.47662 C 196.46195,279.82581 198.54783,281.0515 206.22614,282.17606 C 215.36345,283.51429 218.1165,283.39766 219.6018,281.60941 z M 274.47424,281.2618 C 276.17578,279.56026 276.47424,277.92847 276.47424,270.3269 C 276.47424,265.4127 276.05637,260.29293 275.54565,258.94962 C 273.93452,254.71204 263.30417,252.57473 260.04567,255.83323 C 258.84086,257.03803 258.47424,259.58922 258.47424,266.76813 C 258.47424,277.36552 259.44667,280.91435 262.7097,282.22526 C 266.78704,283.86331 272.32637,283.40967 274.47424,281.2618 z M 188.84339,278.97983 C 190.34205,276.96483 191.02198,274.25984 191.30969,269.16812 C 191.66183,262.93607 191.45007,261.86497 189.44352,259.7291 C 184.72596,254.70749 175.8952,254.1635 172.91559,258.71096 C 170.9678,261.68367 169.97169,272.97283 171.34627,276.49645 C 172.65752,279.85774 177.63299,282.21341 182.87427,281.95448 C 185.84928,281.8075 187.26505,281.10197 188.84339,278.97983 z M 298.62641,281.27545 C 302.38382,281.2444 303.74592,268.35025 300.88024,259.93994 C 300.00354,257.36696 298.88499,255.2618 298.39459,255.2618 C 295.57851,255.2618 288.10061,257.98458 285.73373,259.87174 C 283.15863,261.92493 282.97424,262.57689 282.97424,269.62857 C 282.97424,275.29675 283.38393,277.59554 284.61363,278.82718 C 286.52233,280.73888 292.09045,282.28011 294.97424,281.69494 C 296.07424,281.47173 297.71772,281.28296 298.62641,281.27545 z M 164.14376,274.2618 C 165.74388,268.10498 165.74637,261.01622 164.14918,258.83193 C 163.16568,257.48691 161.03154,256.89154 155.87002,256.52223 C 147.71622,255.93883 145.95304,257.16183 146.11371,263.28952 C 146.27362,269.3878 149.34826,274.44482 154.47424,277.04048 C 160.84759,280.26778 162.7229,279.72888 164.14376,274.2618 z M 226.47424,221.75261 C 226.91464,215.59513 227.21265,214.7618 228.97424,214.7618 C 230.36625,214.7618 231.05934,215.52178 231.25419,217.2618 C 231.74488,221.64364 232.49061,224.26226 233.24329,224.24649 C 235.32412,224.2029 236.83475,222.01853 237.48399,218.11443 C 237.88209,215.72048 239.66462,208.82443 241.44516,202.78987 C 243.95917,194.26947 244.57718,190.58277 244.2111,186.28987 C 243.41792,176.98877 240.52989,157.31985 238.36512,146.47591 C 237.23576,140.81868 235.92695,132.08794 235.45665,127.07427 C 234.63562,118.32168 233.22238,115.11366 231.11567,117.22037 C 229.86106,118.47498 228.34978,140.90566 228.68737,153.2618 C 228.92514,161.9648 228.72258,163.7618 227.50377,163.7618 C 224.86294,163.7618 223.5074,159.01297 223.36477,149.2618 C 223.16069,135.30917 222.1475,125.97584 220.78835,125.52833 C 219.00905,124.94249 217.48613,131.76412 217.47982,140.34826 C 217.47649,144.87367 216.26705,153.75041 214.48236,162.34826 C 209.29528,187.33729 210.5955,200.2283 220.75692,224.55761 C 223.74138,231.70327 225.83605,230.67559 226.47424,221.75261 z M 117.47424,221.68987 C 117.47424,220.27531 116.30648,217.12531 114.87922,214.68987 C 113.45196,212.25443 112.60706,210.2618 113.00166,210.2618 C 113.39627,210.2618 113.23862,209.68282 112.65132,208.97517 C 110.57985,206.4792 109.31537,190.09075 109.97295,174.2618 C 110.5796,159.65882 110.47508,158.29882 108.16696,150.7618 C 105.1572,140.93361 101.94019,135.2618 99.375472,135.2618 C 96.845512,135.2618 96.934032,136.00871 100.72424,146.64311 L 103.97424,155.7618 L 103.76909,175.2618 C 103.50383,200.47343 104.90224,208.42652 111.48029,219.11721 C 114.93393,224.73009 117.47424,225.82042 117.47424,221.68987 z M 336.5602,219.44834 C 341.41896,214.02115 345.94573,199.67378 345.35979,191.5585 C 345.20681,189.43966 345.40231,187.1872 345.79425,186.55303 C 346.18619,185.91886 346.07816,185.13504 345.55418,184.81121 C 345.03021,184.48737 344.57132,183.44378 344.53442,182.49211 C 344.3419,177.52618 343.44967,168.39817 342.89909,165.7618 C 340.40653,153.82637 340.87359,137.04375 343.76183,134.7618 C 344.92495,133.84285 345.05677,133.04248 344.62655,129.5118 C 344.38093,127.49603 341.07094,128.07668 339.62697,130.38884 C 335.86657,136.41021 334.08256,155.24181 336.3233,165.2618 C 338.28558,174.03664 339.71146,189.85874 339.16206,196.7618 C 338.28646,207.76362 336.07121,213.68782 331.44174,217.40816 C 326.73245,221.19265 326.33247,223.2618 330.3102,223.2618 C 332.33218,223.2618 334.12604,222.16727 336.5602,219.44834 z M 197.91953,179.8896 C 199.3093,178.97899 201.10971,177.22158 201.92045,175.98424 C 203.87137,173.00676 206.19609,163.647 207.43991,153.7618 C 207.99355,149.3618 209.10133,140.5868 209.90163,134.2618 C 211.60679,120.7856 211.03111,117.13283 205.64638,107.2618 C 199.32368,95.671333 197.90423,94.258683 192.60555,94.283443 C 186.69399,94.311073 171.3548,97.686413 166.05236,100.1264 C 163.8094,101.15853 158.37424,103.23741 153.97424,104.74613 C 149.57424,106.25486 142.74178,109.01933 138.791,110.88941 C 132.11092,114.05139 131.41046,114.69135 128.791,120.02568 C 126.10972,125.48592 125.98602,126.35194 126.21915,138.03174 C 126.51862,153.03508 127.50007,155.6831 134.91974,161.50654 C 140.30367,165.7322 148.68143,169.03524 158.47424,170.7932 C 160.39924,171.13877 165.47163,173.42233 169.74622,175.86777 C 182.21829,183.00292 191.20918,184.28639 197.91953,179.8896 z M 278.47424,174.54085 C 281.49924,173.61613 285.99924,171.42891 288.47424,169.68036 C 293.66432,166.01365 300.8074,162.2726 302.6844,162.23806 C 305.6527,162.18344 315.58611,157.30403 319.86212,153.80016 C 325.34992,149.30332 327.21817,144.19736 328.1088,131.2618 C 328.69397,122.76286 328.69352,122.76081 324.51979,114.7618 C 316.95341,100.26075 308.83863,94.338193 293.57569,92.177313 C 272.77397,89.23228 258.31988,94.253213 249.47666,107.49603 C 247.28982,110.77085 245.02379,115.22093 244.44104,117.38509 C 242.90032,123.1069 244.23828,132.49253 247.98732,142.2618 C 249.78139,146.9368 252.9205,155.2618 254.96311,160.7618 C 259.23059,172.25252 261.22475,176.00023 263.41865,176.65258 C 265.75384,177.34695 272.29695,176.4292 278.47424,174.54085 z" id="path2451" sodipodi:nodetypes="csssssscccssssssssssssccsssssssssssssscccssssccsssscccssscccsscccssssccssssccccccssssssssssssccssssssscccssssscccsssssssssssssssssssscccscccssssccsssssccssssssccsssssccsssssccssssssccssssccssssssssssssssssccsssssscccsccssssssssssssccsssssssssssssccsssssssssssc"/>
</svg>