<?xml version="1.0" encoding="utf-8"?>
<!-- Generator: Adobe Illustrator 24.1.1, SVG Export Plug-In . SVG Version: 6.00 Build 0)  -->
<svg version="1.1" id="Layer_1" xmlns="http://www.w3.org/2000/svg" xmlns:xlink="http://www.w3.org/1999/xlink" x="0px" y="0px"
	 viewBox="0 0 260 260" style="enable-background:new 0 0 260 260;" xml:space="preserve">
<style type="text/css">
	.st0{fill:#E5D7C8;}
	.st1{fill:#F79520;}
	.st2{fill:#AD621B;}
	.st3{fill:#6D6E71;}
	.st4{fill:#434345;}
	.st5{fill:#58595B;}
	.st6{fill:#4B9042;}
	.st7{fill:#5AB547;}
	.st8{fill:#417E3C;}
</style>
<circle class="st0" cx="130" cy="130" r="130"/>
<path class="st1" d="M237.4,68.5L237.4,68.5c-0.8,0.1-1.5,0-2.1-0.2c-0.4-0.1-0.7-0.2-1-0.3c-2.6-1.1-5.3-2-8.1-2.9
	c-3.5-1.1-7.1-1.9-10.6-2.5c-1.8-0.3-4.7-0.7-8.5-1c-4.3-0.2-8.7-0.1-13,0.3c-1.4,0.1-2.8,0.2-4.4,0.4l-2.8,0.4
	c-0.5,0.1-1,0.1-1.4,0.2c-5.7,0.9-11.3,2.1-16.8,3.8c-1.7,0.6-3.4,1.2-5,1.9c-2,0.8-4.1,1.7-6.2,2.7l-0.6,0.3l9.5,14.6
	c0.1,0.2,0.2,0.4,0.1,0.6c0,0.2-0.2,0.4-0.4,0.5c-0.4,0.2-0.9,0.1-1.1-0.2l-3.4-5.1l-0.1-0.1c-0.1-0.1-0.1-0.1-0.1-0.2l-5.7-8.9
	l-0.3-0.5l-0.5,0.2c-1.4,0.7-2.7,1.4-3.9,2.1c-3,1.7-5.9,3.3-8.2,4.7c-4.5,2.6-10.1,5.9-16.1,10.3l-0.4,0.3l3.9,6.1
	c0.1,0.1,0.1,0.2,0.1,0.3l0,0.1l3.6,5.9c0.2,0.4,0.1,0.9-0.2,1.1c-0.4,0.3-0.9,0.1-1.1-0.2l-7.7-12.4l-0.5,0.4
	c-5.8,4.4-11,9.1-15.7,14.4c-1,1.2-2,2.2-2.9,3.3l-0.3,0.3l12.2,18.9c0,0,0.1,0.1,0.1,0.2c0.1,0.4,0,0.8-0.3,1
	c-0.1,0.1-0.3,0.1-0.5,0.1c-0.2,0-0.4-0.1-0.5-0.2c-0.1-0.1-0.1-0.1-0.2-0.2l-11.9-18.4l-0.9,1.2c-0.7,0.9-1.4,1.8-2.1,2.8
	c-3.5,4.8-6.6,9.9-9.3,15.2l-0.3,0.5l0.5,0.3c0.4,0.2,0.9,0.5,1.2,0.8c1.1,0.8,2,1.6,2.7,2.6l0.1,0.1c0.4,0.6,0.6,1.2,0.8,1.8
	c0.1,0.2,0.1,0.4,0.1,0.6c0.1,0.4,0.1,0.7,0.1,1.1c0,0.4-0.1,0.9-0.2,1.4c-0.1,0.4-0.3,0.8-0.5,1.2c-0.1,0.2-0.1,0.3-0.2,0.5
	l-0.1,0.3c-0.2,0.6-0.4,1.3-0.5,2c-0.3,1.6-0.1,2.6,0,3.5l0,0.4c0.1,1.1,0.1,2.2-0.5,3.5c-0.1,0.1-0.1,0.2-0.2,0.3
	c-0.2,0.3-0.4,0.6-0.6,0.9c-0.1,0.1-0.1,0.2-0.2,0.3l-0.5,0.6l0.7,0.3c0.2,0.1,0.4,0.2,0.6,0.3c0.6,0.3,1.2,0.8,1.7,1.3
	c0.4,0.4,0.7,0.8,1,1.2c0.4,0.6,0.6,1.2,0.8,1.7c0.2,0.5,0.3,0.9,0.6,1.5l0.2,0.3c0.1,0.1,0.2,0.3,0.3,0.4c0.5,0.7,1,1.2,1.6,1.7
	c0.2,0.2,0.4,0.3,0.7,0.5c0.3,0.2,0.5,0.4,0.8,0.6c0.3,0.3,0.6,0.5,0.8,0.8c0.1,0.1,0.2,0.2,0.3,0.3c0.1,0.1,0.2,0.2,0.3,0.4
	c0.2,0.3,0.4,0.6,0.5,1c0.1,0.2,0.2,0.4,0.2,0.6c0,0.1,0.1,0.3,0.1,0.4l0.2,0.8l0.7-0.5c1.1-0.8,2.3-1.3,3.6-1.4
	c1.3-0.1,2.1,0.2,2.8,0.6c0.2,0.1,0.3,0.2,0.5,0.3c0.4,0.2,0.9,0.5,1.7,0.8c0.2,0.1,0.4,0.2,0.7,0.3c0.2,0.1,0.3,0.1,0.5,0.2
	c1.6,0.5,2.5,0.7,3.4,0.8l0.9,0.1c0.6,0.1,1.3,0.3,2.3,0.7c2.1,0.9,3.9,2.6,5.4,4.8l0.4,0.7l0.4-0.1c0.9-0.2,1.9-0.5,2.8-0.7
	c2.6-0.7,5.3-1.5,7.9-2.3c2.2-0.7,4.3-1.4,6.5-2.1c1.4-0.5,2.7-1,4.1-1.5l1.4-0.5c1.5-0.5,3-1.1,4.7-1.8c0.6-0.2,1.2-0.5,1.8-0.7
	l0.6-0.3l-5.2-8.1c0,0-0.1-0.1-0.1-0.1c-0.1-0.4,0-0.8,0.3-1c0.4-0.3,0.9-0.1,1.1,0.2l5.4,8.3l0.4-0.2c6.4-2.7,12.3-5.4,17.7-8.5
	c2.2-1.2,4.3-2.5,6.3-3.8l0.5-0.3l-6.3-9.8c-0.1-0.2-0.2-0.4-0.1-0.6c0-0.2,0.2-0.4,0.4-0.5c0.1-0.1,0.3-0.1,0.4-0.1
	c0.3,0,0.6,0.1,0.7,0.4l6.3,9.8l0.5-0.3c3.5-2.3,7-4.9,10.3-7.5c1.4-1.1,2.7-2.2,4-3.4l1.5-1.3c0.8-0.7,1.6-1.4,2.5-2.3
	c1.4-1.3,2.6-2.4,3.8-3.6l0.3-0.3l-9.2-14.3c-0.1-0.2-0.2-0.5-0.1-0.8c0.1-0.2,0.2-0.3,0.3-0.4c0.4-0.2,0.9-0.1,1.1,0.2l9,14
	l0.5-0.5c4.6-4.9,8.4-9.9,11.7-15.4c0.6-0.9,1.1-1.9,1.7-2.9c0.8-1.5,1.7-3.1,2.6-5c0.3-0.5,0.5-1.1,0.8-1.7
	c0.3-0.6,0.5-1.2,0.8-1.8c0.3-0.6,0.5-1.3,0.8-2c0.4-1.1,0.8-2.2,1.1-3.3c1.1-3.4,2.1-6.4,2.8-9c0.6-1.9,1-3.4,1.4-4.8
	c0.8-3.2,1.4-6.1,2-10.1c0.2-1.1,0.7-2.3,1.7-3.6l0.8-1l-1.3,0.1C237.6,68.5,237.5,68.5,237.4,68.5z M207.4,96.1
	c-0.1,0.4-0.6,0.7-1,0.5c-0.2-0.1-0.3-0.2-0.4-0.3c-0.1-0.2-0.2-0.5-0.1-0.7l2.7-8.5l-8.9-1c-0.2,0-0.5-0.2-0.6-0.4
	c-0.1-0.2-0.1-0.3-0.1-0.5c0-0.3,0.3-0.6,0.6-0.7c0.1,0,0.2,0,0.3,0l9.6,1.1l14.7-9.5c0.4-0.3,0.9-0.1,1.1,0.2
	c0.1,0.2,0.2,0.4,0.1,0.6c0,0.2-0.2,0.4-0.4,0.5l-14.7,9.5L207.4,96.1z M199.1,105.4c-1.7,4.4-5.1,8.4-9.7,11.3
	c-4.6,2.8-9.7,4.2-14.4,3.7c-4.5-0.4-8.1-2.4-10.1-5.6l-0.1-0.2c-2-3.3-2.2-7.4-0.6-11.7c1.7-4.4,5.1-8.4,9.7-11.3
	c1.9-1.2,4-2.1,6.1-2.8c0,0,0,0,0,0c2.8-0.9,5.6-1.2,8.3-0.9c2.5,0.2,4.8,1,6.7,2.2c1.4,0.9,2.6,2,3.5,3.4l0.1,0.1
	C200.5,96.9,200.7,101.1,199.1,105.4z M164.1,123.9l-12.8,1.1l-22,14.5c-0.4,0.3-0.9,0.1-1.1-0.2c-0.2-0.4-0.1-0.9,0.2-1.1
	l21.9-14.5l0.1-0.1l6-11.4c0.1-0.2,0.3-0.3,0.5-0.4c0.2-0.1,0.4,0,0.6,0.1c0.4,0.2,0.6,0.7,0.3,1.1l-5.4,10.2l11.5-1
	c0.2,0,0.4,0,0.6,0.2c0.2,0.1,0.3,0.3,0.3,0.6C164.9,123.5,164.5,123.9,164.1,123.9z"/>
<g>
	<g>
		<path class="st2" d="M235.2,66c-4.7-1.9-11.2-4.2-19.2-5.5c-1.6-0.3-5.3-0.9-10.4-1.1c-5.2-0.1-11.3,0-18.1,0.9
			c-6.8,0.9-12.8,2.3-17.8,3.8c-11.9,4.5-21.3,9.4-27.9,13.3c-11,6.5-27.8,16.4-42,35.9c-5.1,7-8.6,13.4-10.8,18
			c3.2,1.3,4.8,2.7,5.6,3.9c0.4,0.6,0.5,1.1,0.6,1.6c0.3,1.8-0.9,2.3-1.5,5.7c-0.7,3.9,0.7,5-0.4,7.1c-1.4,2.6-4.8,2.7-4.6,3.7
			c0,0.1,0,0.1,0.1,0.2c0.5,0.8,4.2,0.1,6.7,2.5c0.3,0.3,0.5,0.5,0.6,0.8c0.6,0.9,0.5,1.8,1.6,3.4c0.1,0.2,0.2,0.3,0.3,0.5
			c1.9,2.6,3.4,2.6,4.4,4.2c0.1,0.2,0.2,0.4,0.4,0.7c1.1,2.5,0,4.9,0.4,5.6c0,0.1,0.1,0.1,0.2,0.1c1.1,0.5,2.9-4.3,6.4-4.5
			c1.6-0.1,1.8,0.9,5.3,2.1c3.4,1.2,4.4,0.6,6.4,1.5c1.3,0.6,2.9,1.7,4.4,4c0.4,0.6,0.8,1.3,1.1,2.1c6.2-1.5,14.8-3.8,24.7-7.5
			c12.7-4.8,31.9-12.2,50.9-28.8c6.5-5.7,16.2-14.3,23.6-28.1c1.9-3.5,4.2-7.9,6.3-14.3c3.8-11.7,5-15.8,6.2-24.3
			c0.4-2.6,4.8-6.6,12.1-12.5C245.2,63.3,238.3,67.5,235.2,66z M236,72.9c-1.2,8.3-2.4,12.3-6.1,23.8c-2,6.1-4.3,10.4-6.1,13.8
			c-4,7.5-8.8,13.5-13.2,18.2l-8.6-13.4c-0.4-0.6-1.3-0.8-1.9-0.4c-0.6,0.4-0.8,1.3-0.4,1.9l9,13.9c-2.9,2.9-5.6,5.3-7.8,7.2
			c-4.8,4.2-9.6,7.7-14.2,10.8l-6-9.3c-0.4-0.6-1.3-0.8-1.9-0.4s-0.8,1.3-0.4,1.9l6,9.3c-8.7,5.5-17,9.4-24,12.3l-5.1-7.9
			c-0.4-0.6-1.3-0.8-1.9-0.4c-0.6,0.4-0.8,1.3-0.4,1.9l4.8,7.5c-2.5,1-4.8,1.9-6.9,2.6c-7.3,2.7-14.8,5.1-22.3,6.9
			c-0.1-0.1-0.2-0.2-0.2-0.4c-1.5-2.4-3.5-4.1-5.7-5.1c-1.3-0.6-2.4-0.7-3.3-0.8c-0.9-0.1-1.8-0.2-3.3-0.7c-1.4-0.5-2.2-0.9-2.8-1.3
			c-0.9-0.5-2-1.1-3.7-1c-1.5,0.1-2.8,0.7-3.9,1.5c-0.1-0.3-0.2-0.7-0.4-1c-0.2-0.4-0.4-0.7-0.6-1.1c-0.7-1.1-1.6-1.8-2.3-2.3
			c-0.7-0.5-1.3-0.9-2.1-2c-0.1-0.1-0.2-0.3-0.3-0.4c-0.4-0.7-0.6-1.1-0.7-1.6c-0.2-0.5-0.4-1.1-0.8-1.8c-0.3-0.4-0.6-0.9-1.1-1.3
			c-0.8-0.7-1.6-1.3-2.5-1.7c0.3-0.4,0.6-0.8,0.9-1.3c1-1.9,0.9-3.4,0.7-4.7c-0.1-0.9-0.2-1.8,0-3.3c0.2-1.3,0.5-2,0.8-2.7
			c0.4-1,1-2.2,0.7-3.9c-0.1-0.9-0.5-1.8-1-2.7c-0.9-1.4-2.3-2.6-4.2-3.7c2.7-5.3,5.8-10.3,9.3-15.1c0.8-1.2,1.7-2.3,2.6-3.4
			l11.5,17.7c0.4,0.6,1.3,0.8,1.9,0.4c0.6-0.4,0.8-1.3,0.4-1.9l-12-18.5c6.1-7.3,12.5-13,18.5-17.6l7.3,11.9
			c0.4,0.6,1.3,0.8,1.9,0.4c0.6-0.4,0.8-1.3,0.4-1.9l-7.4-12c5.9-4.3,11.5-7.6,16-10.2c3.5-2.1,7.5-4.4,12.1-6.7l9.3,14.3
			c0.4,0.6,1.3,0.8,1.9,0.4s0.8-1.3,0.4-1.9l-9.2-14c2.8-1.4,6.4-2.9,10.6-4.4c5.4-1.7,11.9-3.3,19.4-4.3c7.9-1,14.9-1.2,20.7-0.9
			c3,0.2,5.4,0.7,7,0.9c6.3,1.1,12.6,2.9,18.6,5.3c1.1,0.5,2.4,0.7,3.7,0.5C236.8,70.4,236.2,71.7,236,72.9z"/>
	</g>
</g>
<path class="st3" d="M193,46.8l0,0.6c0,0,0,0,0,0L193,46.8c-0.6-0.2-1.4-1.3-1.3-2.8c0-0.9,0.4-1.7,0.8-2.3l0.5-0.5l-0.3-0.6
	c-1.7-3.1-4.8-7.4-10.1-10.1c-4.3-2.2-9-2.9-14.4-2.2c-0.6-0.6-1.1-1.1-1.5-1.5l-0.4-0.4c-0.5-0.5-0.8-0.8-1.2-1.2
	c0,0-1.1-1.1-2.2-2c-4.9-4.2-17.5-5.4-18.9-5.6c-2.6-0.3-5.2-0.4-7.7-0.4c-4.3,0.1-8.1,0.6-11,1.4c-3.5,1.1-5.4,2.7-5.7,4.6
	c-0.4,2.6,2.1,5.1,7.4,7.2l0.2,0.1c-1,0.5-2.2,1.1-3.3,1.7c-0.1,0.1-12.8,7.5-11.1,12.2c1.1,3,6.5,3.7,14.5,1.7
	c3.1-0.7,6.3-1.8,9.6-3.2c2.9-1.2,5.6-2.6,8.1-4.1c0.8,0.1,1.5,0.1,2.3,0.2c0.5,0,1.1,0.1,1.7,0.1c-0.2,0.5-0.2,1.1-0.2,1.6
	c-0.5,1-8.3,4.9-19.3,8.9c-7.1,2.6-17.8,6.5-21.8,15.7c-0.4,0.9-0.7,1.8-1,2.8c-1.3-0.9-2.8-1.4-4.3-1.7c-1.6-0.2-3.3-0.1-4.8,0.4
	c-2.4,0.7-4.5,2.3-5.7,4.4c-2.3,3.9-1,7.9-0.4,9.8c0.5,1.7,1.8,5.6,5.9,7.5c1.2,0.6,2.5,0.9,3.8,1l0.4,0l0.3-0.3
	c1-0.9,1.8-1.9,2.5-3c0.8-1.2,1.5-2.5,2-3.8l-0.5-0.2l0.7,0.1c0,0,0.1,0.1,0.1,0.1c-0.5,1.4-1.2,2.6-2,3.8c-0.7,1.1-1.6,2.1-2.6,3
	l-0.3,0.2l0,0.4c-0.3,2.8-0.7,6.8-1.3,10.1c-0.4,2.1-0.7,3.6-1,4.7c-0.2,0.7-0.3,1.3-0.5,1.9c-0.2,0.6-0.3,1.1-0.4,1.6l-0.4,1.9
	l1.7-0.8c0.6-0.3,1.2-0.5,1.8-0.7c1.1-0.4,2.3-0.6,3.5-0.7l0-0.6l0,0l0,0l0.1,0.7l0.6,0c0,0,0,0,0,0l-0.7,0.1
	c-1.2,0.1-2.3,0.3-3.4,0.7c-1.1,0.3-2.1,0.8-3.1,1.4l-0.4,0.3l0,0.7c-0.1,6,2.5,15.1,8.1,15.8c0.6,0.1,1.3,0,1.9-0.1
	c0.1,0,0.2-0.1,0.3-0.1c3.8-1.2,6.4-6,6.9-7c2.8-5.4,1.7-11.4,1.1-13.7c-0.4-1.4-0.8-2.4-1.1-3.2c-0.5-1.1-0.7-1.8-0.7-3.1
	c0-1.1,0.3-2.5,0.5-3.6c3.1,0,6.2-0.5,9.2-1.3c8.8-2.4,14.2-7.7,16-9.5c3.1-3,5.7-6.5,7.7-10.5l0.4-0.8l-0.8-0.4
	c-1.3-0.7-2.6-1.1-4-1.2c-1.1-0.1-2.2,0-3.4,0.3c-0.1,0-0.3-0.1-0.3-0.2c0-0.2,0.1-0.3,0.2-0.3l0.1,0c0.1,0,0.1,0,0.2-0.1
	c0.1,0,0.2-0.1,0.4-0.1c0.7-0.2,1.5-0.2,2.7,0c2.4,0.4,4.5,1.1,5.9,2.1l0.1,0.1c0.2,0.1,0.6,0.4,1.4,1c0.6,0.4,1.1,0.8,1.9,1.3
	c1.8,1.2,4,2.2,6.3,3l1.1,0.4l0.2-1.2c0.1-0.6,0.2-1.2,0.4-1.7c0.2-0.7,0.5-1.4,0.8-2.1l0.1,0c0,0,0.1,0.1,0,0.1
	c-0.3,0.6-0.6,1.3-0.8,2c-0.2,0.6-0.3,1.3-0.4,1.9l-0.3,0.9l0.9,0.3c6.6,1.8,12.1,1.1,14.5-1.9c2.1-2.6,2.2-7,0.3-8.6
	c-0.6-0.5-1.2-0.6-1.9-0.7c-0.5-0.1-1.2-0.2-2.2-0.4c-1.1-0.3-1.8-0.5-3.4-1.2c-2.1-0.9-4-2.1-5.7-3.6c-0.1-0.1-0.1-0.3,0-0.4
	c0.1-0.1,0.3-0.1,0.4,0c1.7,1.4,3.6,2.6,5.6,3.5l0.1,0c0.8,0.5,2.6,1,3,1.1c2,0.5,4.2,0.4,6.7-0.4c3-0.9,5.5-2.5,6.7-3.4
	c5-3.5,8-7.9,8.9-12.9c0.2-1.3,0.3-2.6,0.2-4l-0.1-1.5l-1.3,0.7C193.1,46.8,193,46.8,193,46.8z M141.1,25.6c5.4-1.3,7.7-1.2,9.2-1
	c1.2,0.2,2.2,0.5,2.8,0.7l0.2,0.1c1.1,0.3,4.2,1.3,7.9,3.4c0,0-0.1,0-0.1,0.1c-2.7-1.7-5.2-2.4-7.2-3c-0.4-0.1-0.8-0.2-1.2-0.3
	c-0.9-0.3-1.7-0.5-2.9-0.7c-1.6-0.2-4-0.3-9.5,1c-1,0.2-1.9,0.5-2.9,0.8C138.7,26.3,139.9,25.9,141.1,25.6z"/>
<g>
	<path class="st4" d="M193.9,40.5c-1.7-3.4-5-8-10.8-11c-4.4-2.3-9.1-3-14.5-2.4c-0.4-0.4-0.7-0.7-1.1-1.1l-0.3-0.3
		c-0.5-0.5-0.8-0.8-1.3-1.2l0,0c-0.4-0.4-1-1-2.2-2c-5.1-4.4-18-5.7-19.5-5.8c-2.6-0.3-5.3-0.4-7.8-0.4c-4.4,0.1-8.3,0.6-11.3,1.5
		c-4,1.2-6.2,3.1-6.5,5.5c-0.3,2,0.6,4.9,6.1,7.6c-0.4,0.2-0.8,0.4-1.2,0.6c-1.4,0.8-4.5,2.9-7.1,5.1c-2.5,2.2-5.6,5.4-4.5,8.5
		c1.3,3.7,7.1,4.6,15.9,2.5c1.1-0.3,2.2-0.6,3.3-0.9c2.1-0.7,4.3-1.4,6.5-2.4c2.8-1.2,5.5-2.5,7.9-4c0.7,0.1,1.3,0.1,2,0.2
		c0.1,0,0.3,0,0.4,0c0,0,0,0,0,0.1c-0.6,0.5-2.7,1.9-9.6,4.8c-4.5,1.9-8.8,3.5-8.9,3.5c-7.3,2.7-18.3,6.7-22.5,16.3
		c-0.2,0.5-0.4,1-0.6,1.5c-1.1-0.5-2.3-0.9-3.5-1.1c-1.8-0.3-3.6-0.1-5.3,0.4c-2.7,0.8-5,2.6-6.4,4.9c-2.6,4.3-1.1,8.8-0.5,10.7
		c0.5,1.7,2,6.1,6.5,8.2c1.2,0.5,2.4,0.9,3.6,1c-0.3,2.9-0.7,6.4-1.2,9.2c-0.4,2-0.7,3.6-1,4.7c-0.2,0.7-0.3,1.3-0.5,1.8l0,0.1
		c-0.4,1.6-0.7,2.8-0.7,4.9c-0.1,6.6,2.7,16.2,9.1,16.9c0.8,0.1,1.5,0,2.3-0.1c0.1,0,0.3-0.1,0.4-0.1c4.2-1.3,7.1-6.5,7.6-7.6
		c2.9-5.8,1.8-12,1.2-14.5c-0.4-1.5-0.8-2.6-1.2-3.4c-0.4-1.1-0.6-1.5-0.6-2.6c0-0.6,0.1-1.5,0.3-2.5c2.9-0.1,5.8-0.5,8.6-1.3
		c0.3-0.1,0.6-0.2,0.9-0.3c8.5-2.6,13.8-7.8,15.6-9.5c3.2-3.1,5.8-6.7,7.9-10.8l0.2-0.3c0.2,0.2,0.6,0.4,1.1,0.8
		c0.5,0.4,1.2,0.9,2,1.4c6.3,4.1,14.8,5.9,20.2,4.2c1.8-0.6,3.2-1.5,4.2-2.7c1.1-1.4,1.8-3.3,1.9-5.2c0.1-1.9-0.4-3.5-1.3-4.6
		c0.6-0.1,1.1-0.3,1.7-0.4c3.1-1,5.7-2.6,7-3.5c5.3-3.7,8.5-8.3,9.4-13.7c0.5-2.8,0.2-5.3-0.1-7c0-0.2,0-0.4,0.1-0.6
		C195.6,42.4,194.8,41,193.9,40.5z M185,63.7c-1,0.7-3.5,2.3-6.4,3.2c-2,0.6-4.1,0.9-6.2,0.3c-1.9-0.5-2.9-1.1-2.9-1.1
		c-1.9-0.9-3.7-2-5.4-3.4c-0.3-0.3-0.8-0.3-1.1-0.2c-0.2,0.1-0.4,0.2-0.6,0.4c-0.4,0.5-0.4,1.3,0.2,1.7c1.8,1.5,3.8,2.8,6,3.7
		c1.6,0.7,2.4,1,3.5,1.3c2.4,0.6,3,0.3,3.7,0.9c1.4,1.2,1.4,5-0.4,7.3c-0.8,1-1.9,1.6-3.2,2c-2.8,0.9-6.6,0.6-10.3-0.4
		c0-0.1,0-0.1,0-0.2c0.1-0.6,0.2-1.2,0.4-1.7c0.2-0.6,0.4-1.3,0.7-1.9c0.3-0.5,0.1-1.1-0.4-1.4c-0.5-0.3-1.1-0.1-1.4,0.4
		c-0.4,0.7-0.7,1.5-0.9,2.2c-0.2,0.6-0.3,1.2-0.4,1.9c-2.1-0.8-4.2-1.8-6.1-2.9c-0.7-0.5-1.3-0.9-1.8-1.3c-1-0.7-1.4-1-1.5-1.1
		c-2.4-1.7-5.7-2.1-6.3-2.2c-1.7-0.2-2.6-0.1-3.1,0.1c-0.3,0.1-0.5,0.2-0.7,0.3c0,0,0,0,0,0c0,0,0,0,0,0c-0.6,0.2-1,0.8-0.8,1.5
		c0.2,0.6,0.8,1,1.5,0.9c0,0,0,0,0,0c1-0.3,2-0.4,3-0.3c1.5,0.1,2.7,0.6,3.6,1.1c-1.9,3.8-4.5,7.3-7.5,10.2c-1.7,1.6-6.7,6.5-14.7,9
		c-0.3,0.1-0.6,0.2-0.9,0.3c-3.2,0.9-6.4,1.3-9.7,1.2c-0.3,1.2-0.6,3-0.7,4.5c0,1.5,0.3,2.3,0.8,3.4c0.3,0.8,0.7,1.8,1.1,3.1
		c0.6,2.2,1.6,7.9-1,13c-0.3,0.6-2.9,5.5-6.3,6.5c-0.1,0-0.2,0.1-0.3,0.1c-0.5,0.1-1,0.2-1.6,0.1c-4.8-0.6-7.3-9-7.3-14.8
		c0-0.1,0-0.2,0-0.2c0.9-0.5,1.9-1,2.9-1.3c1-0.3,2.1-0.5,3.2-0.6c0.6,0,1-0.5,1-1.1c0-0.6-0.5-1-1.1-1c-1.2,0.1-2.5,0.3-3.7,0.7
		c-0.7,0.2-1.3,0.5-2,0.8c0.1-0.5,0.2-1,0.4-1.6c0.1-0.5,0.3-1.1,0.5-1.9c0.3-1.1,0.6-2.7,1-4.7c0.6-3.2,1-7.2,1.3-10.1
		c1-1,1.9-2,2.7-3.2c0.8-1.3,1.5-2.6,2.1-4c0.2-0.5-0.1-1.1-0.6-1.3c-0.5-0.2-1.1,0.1-1.3,0.6c-0.5,1.3-1.1,2.5-1.9,3.6
		c-0.7,1-1.5,2-2.4,2.8c-1.1-0.1-2.3-0.3-3.5-0.9c-3.7-1.8-4.9-5.4-5.4-6.9c-0.6-1.8-1.8-5.5,0.3-9c1.2-1.9,3-3.3,5.2-3.9
		c1.4-0.4,2.9-0.6,4.4-0.3c1.9,0.3,3.7,1.1,5.1,2.4c0.2-0.9,0.5-2.4,1.2-4.1c3.8-8.6,13.7-12.4,21.3-15.2c0,0,19.9-7.3,19.9-9.7
		c0-0.1-0.1-1.4,0.7-2.4c0.1-0.1,0.1-0.2,0.2-0.2c-1.1,0-2.2-0.1-3.2-0.2c-0.8-0.1-1.6-0.1-2.4-0.2l-0.2,0l-0.2,0.1
		c-2.5,1.5-5.2,2.9-8.1,4.1c-2.1,0.9-4.2,1.7-6.3,2.3c-1.1,0.3-2.1,0.6-3.2,0.9c-7.2,1.8-12.5,1.3-13.4-1.1
		c-1.2-3.3,8-9.5,10.7-11.1c2.5-1.4,5.3-2.7,5.3-2.7s0.7-0.3,1.5-0.6c2.1-0.9,4.2-1.7,6.3-2.3c1.1-0.3,2.1-0.6,3.1-0.9
		c5.3-1.3,7.6-1.2,9.1-1c1.1,0.2,1.9,0.4,2.8,0.7c2.2,0.6,5.1,1.2,8.3,3.2c0.2,0.1,0.5,0.1,0.7,0c0.3-0.1,0.5-0.3,0.6-0.5
		c0.2-0.4,0.1-0.8-0.3-1.1c-4.2-2.5-7.4-3.4-8.4-3.7c-0.7-0.2-1.7-0.5-3-0.7c-1.6-0.2-4.1-0.3-9.6,1c-1.1,0.3-2.1,0.6-3.2,0.9
		c-2.1,0.6-4.2,1.4-6.4,2.3c-1.3,0.6-2.7,1.2-3.9,1.8c-4.4-1.8-7.1-4-6.8-6.2c0.2-1.6,2.1-2.9,5.1-3.8c2.8-0.9,6.5-1.3,10.7-1.4
		c2.4,0,4.9,0.1,7.6,0.4c0,0,13.6,1.2,18.4,5.3c1,0.9,2.1,1.9,2.1,1.9c0.6,0.5,0.9,0.9,1.6,1.6c0.5,0.5,1.1,1.1,1.8,1.8
		c3.8-0.6,8.9-0.7,14.3,2c5.3,2.7,8.2,6.9,9.7,9.7c-0.6,0.6-1,1.6-1.1,2.9c-0.1,2,0.9,3.5,1.9,3.8c0.1,0,0.2,0,0.3,0.1
		c0.3,0,0.5-0.1,0.8-0.2c0.1,1.1,0,2.4-0.2,3.8C192.3,58.5,186.8,62.4,185,63.7z"/>
	<path class="st4" d="M179.8,43.3c-0.1,0.1-0.2,0.1-0.3,0.1c-1,0.3-2.6-0.4-3.6-2.1c-1.1-1.9-0.8-3.8,0.2-4.4
		c0.1-0.1,0.2-0.1,0.3-0.1c1-0.3,2.6,0.4,3.6,2.1C181.1,40.8,180.8,42.8,179.8,43.3z"/>
	<path class="st4" d="M174.6,52.2c-0.3,0-0.7-0.1-1-0.1c-0.2,0-0.4,0-0.6-0.1c-0.6-0.1-1.2,0-1.8,0.1c-0.9,0.3-1.6,0.9-2,1.7
		c-0.1,0-0.1,0.1-0.2,0.1c-0.5,0.1-1,0.1-1.6,0c-2.5-0.4-5.1-0.6-7.7-0.9c-1.4-0.2-1.8-0.6-1.9-2c-0.1-0.8-0.4-1.2-1.2-1.2
		c-0.1,0-0.3,0-0.4,0.1c-0.5,0.2-0.7,0.6-0.8,1.2c-0.2,2,1.4,3.9,3.5,4.2c0.1,0,0.1,0,0.2,0c1.5,0.2,3,0.4,4.4,0.5
		c1.5,0.2,3,0.4,4.5,0.5c0.3,0,0.5,0.1,0.7,0.3c0.3,1.5,1.5,2.5,3.3,2.7l0.3,0c0.4,0.1,0.8,0.1,1.3,0.1c0,0,0,0,0.1,0
		c0.6,0.1,1.2,0,1.7-0.1c1.4-0.4,2.3-1.6,2.5-3.2C178.1,54.1,176.7,52.5,174.6,52.2z M171.2,56.3c-0.1-0.2-0.1-0.5-0.1-0.8
		c0-0.2,0.1-0.4,0.2-0.5c0.1-0.1,0.3-0.3,0.4-0.5c0.1-0.1,0.2-0.1,0.3-0.1c0.2-0.1,0.5-0.1,0.8,0c0.5,0.1,1,0.1,1.5,0.2
		c0.9,0.1,1.4,0.6,1.3,1.5c-0.1,0.7-0.4,1-0.9,1.2c-0.2,0.1-0.5,0.1-0.8,0.1c-0.3,0-0.5-0.1-0.8-0.1c-0.3,0-0.5-0.1-0.8-0.1
		c-0.3,0-0.5-0.1-0.7-0.2C171.5,56.7,171.3,56.5,171.2,56.3z"/>
	<path class="st4" d="M157,49c0.5,0.1,1,0.2,1.5,0.2c0.5,0,1-0.1,1.5-0.3c0.9-0.3,1.8-0.8,2.6-1.5c1.6-1.4,2.8-3.4,3.4-5.7
		c1.3-5.1-0.6-9.8-4.4-10.8c-1-0.3-2.1-0.2-3,0.1c-1.4,0.4-2.7,1.4-3.8,2.7c-1.3,0.9-2.3,2.4-2.8,4.3c-0.5,1.9-0.3,3.8,0.4,5.1
		c0.1,0.6,0.3,1.2,0.5,1.7C153.6,47.1,155.1,48.5,157,49z M159.1,33.9c0.1,0,0.2-0.1,0.4-0.1c0.3-0.1,0.5-0.1,0.8-0.1
		c0.2,0,0.5,0,0.7,0.1c2.1,0.5,3.2,3.9,2.4,7.3c-0.5,1.8-1.3,3.3-2.5,4.3c-0.4,0.3-0.9,0.7-1.6,0.9c-0.5,0.1-1,0.2-1.5,0.1
		c-0.7-0.2-1.2-0.6-1.6-1.1c0.1,0,0.2,0,0.2-0.1c1.7-0.5,3.3-2.4,4-4.9C161.1,37.6,160.5,35.1,159.1,33.9z M154,38.6
		c0.3-1.4,1.1-2.5,2-3.1l0.3-0.2l0.2-0.2c0.1-0.1,0.2-0.3,0.4-0.4l0.9,0.8c0.7,0.7,1.2,2.3,0.7,4.3c-0.5,1.9-1.7,3.1-2.6,3.4
		c0,0-0.1,0-0.1,0l-1.1,0.3c0-0.2-0.1-0.4-0.1-0.5l-0.1-0.3l-0.1-0.3C153.8,41.3,153.7,39.9,154,38.6z"/>
	<path class="st5" d="M102.4,67.6c-1.5-0.2-3-0.1-4.4,0.3c-2.2,0.7-4,2-5.2,3.9c-2.1,3.5-0.9,7.2-0.3,9c0.5,1.6,1.7,5.2,5.4,6.9
		c1.2,0.6,2.4,0.8,3.5,0.9c0.9-0.9,1.7-1.8,2.4-2.8c0.8-1.1,1.4-2.3,1.9-3.6c0.2-0.5,0.8-0.8,1.3-0.6c0.7-2.3,0.9-4.4,0.9-5.7
		c0.1-1.5,0-3.6-0.4-5.9C106,68.8,104.3,67.9,102.4,67.6z"/>
	<path class="st5" d="M99.3,111.2c0,0.1,0,0.2,0,0.2c-0.1,5.8,2.4,14.3,7.3,14.8c0.5,0.1,1.1,0,1.6-0.1c0.1,0,0.2,0,0.3-0.1
		c3.5-1.1,6-5.9,6.3-6.5c1.3-2.6,1.7-5.3,1.7-7.7c-1.5-1.3-4.4-3.2-8.5-3.6c-0.5-0.1-1.1-0.1-1.6-0.1c0,0.6-0.4,1-1,1.1
		c-1.1,0.1-2.2,0.3-3.2,0.6C101.2,110.2,100.2,110.7,99.3,111.2z"/>
</g>
<path class="st5" d="M175.3,77.9c1.8-2.2,1.9-6.1,0.4-7.3c-0.7-0.6-1.3-0.3-3.7-0.9c-0.8-0.2-1.5-0.4-2.5-0.8c-1.9,0.7-5,2.3-7,5.4
	c0.5,0.3,0.7,0.9,0.4,1.4c-0.3,0.6-0.6,1.2-0.7,1.9c-0.2,0.6-0.3,1.1-0.4,1.7c0,0.1,0,0.1,0,0.2c3.8,1,7.6,1.3,10.3,0.4
	C173.4,79.5,174.5,78.8,175.3,77.9z"/>
<path class="st5" d="M167.8,29.3c-0.8-0.7-1.4-1.4-1.8-1.8c-0.7-0.7-1-1-1.6-1.6c0,0-1.1-1-2.1-1.9c-4.8-4.1-18.4-5.3-18.4-5.3
	c-2.6-0.3-5.2-0.4-7.6-0.4c-4.2,0.1-7.9,0.5-10.7,1.4c-3,0.9-4.8,2.2-5.1,3.8c-0.3,2.1,2.3,4.4,6.8,6.2c1.3-0.6,2.6-1.3,3.9-1.8
	c2.2-0.9,4.3-1.7,6.4-2.3c1.1-0.3,2.2-0.6,3.2-0.9c5.5-1.3,7.9-1.3,9.6-1c1.3,0.2,2.3,0.5,3,0.7c1,0.3,4.3,1.2,8.4,3.7
	c0.3,0.3,0.4,0.8,0.3,1.1c-0.1,0.3-0.3,0.4-0.6,0.5c-0.1,0-0.1,0-0.2,0c0,0,0,0,0,0c0.5,0.2,0.9,0.2,2.8,0
	C165.7,29.6,166.7,29.4,167.8,29.3c3.1-0.3,3.7-0.3,4.2-0.3c1.1,0,1.8,0.1,1.8,0.1C171.6,28.9,169.6,29.1,167.8,29.3z"/>
<path class="st5" d="M154,38.6c0.3-1.4,1.1-2.5,2-3.1l0.3-0.2l0.2-0.2c0.1-0.1,0.2-0.3,0.4-0.4l0.9,0.8c0.7,0.7,1.2,2.3,0.7,4.3
	c-0.5,1.9-1.7,3.1-2.6,3.4c0,0-0.1,0-0.1,0l-1.1,0.3c0-0.2-0.1-0.4-0.1-0.5l-0.1-0.3l-0.1-0.3C153.8,41.3,153.7,39.9,154,38.6z"/>
<path class="st5" d="M159.1,33.9c0.1,0,0.2-0.1,0.4-0.1c0.3-0.1,0.5-0.1,0.8-0.1c0.2,0,0.5,0,0.7,0.1c2.1,0.5,3.2,3.9,2.4,7.3
	c-0.5,1.8-1.3,3.3-2.5,4.3c-0.4,0.3-0.9,0.7-1.6,0.9c-0.5,0.1-1,0.2-1.5,0.1c-0.7-0.2-1.2-0.6-1.6-1.1c0.1,0,0.2,0,0.2-0.1
	c1.7-0.5,3.3-2.4,4-4.9C161.1,37.6,160.5,35.1,159.1,33.9z"/>
<path class="st2" d="M207.9,96.2l2.9-9l14.5-9.4c0.6-0.4,0.8-1.3,0.4-1.9s-1.3-0.8-1.9-0.4l-14.5,9.4l-9.4-1
	c-0.8-0.1-1.5,0.5-1.5,1.2c0,0.3,0,0.6,0.2,0.9c0.2,0.3,0.6,0.6,1,0.6l8.2,0.9l-2.5,7.8c-0.1,0.4-0.1,0.8,0.2,1.2
	c0.2,0.3,0.4,0.5,0.7,0.6C206.9,97.4,207.7,97,207.9,96.2z"/>
<path class="st2" d="M165.4,123c-0.1-0.8-0.7-1.3-1.5-1.3l-10.5,0.9l4.9-9.3c0.4-0.7,0.1-1.5-0.6-1.9c-0.7-0.4-1.5-0.1-1.9,0.6
	l-6,11.2L128,137.7c-0.6,0.4-0.8,1.3-0.4,1.9c0.4,0.6,1.3,0.8,1.9,0.4l21.9-14.5l12.7-1.1C164.9,124.4,165.5,123.7,165.4,123z"/>
<path class="st2" d="M173.6,91.1c-4.7,2.9-8.2,7-9.9,11.5c-1.7,4.4-1.5,8.8,0.7,12.2c0,0.1,0.1,0.1,0.1,0.2
	c2.1,3.3,5.9,5.4,10.5,5.8c4.8,0.5,10.1-0.9,14.8-3.8c4.7-2.9,8.2-7,9.9-11.5c1.7-4.4,1.5-8.8-0.7-12.2c0-0.1-0.1-0.1-0.1-0.2
	c-0.9-1.4-2.2-2.6-3.6-3.6c-1.9-1.2-4.3-2-6.9-2.3C183.5,86.9,178.2,88.2,173.6,91.1z M188.4,89.9c2.2,0.2,4.2,0.8,5.7,1.8
	c1.1,0.7,2.1,1.6,2.8,2.7l0.1,0.1c1.7,2.7,1.8,6.1,0.4,9.8c-1.6,4.1-4.8,7.8-9.1,10.5c-4.3,2.7-9.1,3.9-13.4,3.5
	c-3.8-0.4-6.8-2-8.5-4.6l-0.1-0.1c-1.7-2.7-1.8-6.1-0.4-9.8c1.6-4.1,4.8-7.8,9.1-10.5C179.2,90.7,184,89.5,188.4,89.9z"/>
<g>
	<path class="st2" d="M171.1,107.4c-0.2,0.1-0.4,0.1-0.6,0c-0.7-0.1-1.1-0.8-1-1.4c0.3-1.8,1.5-6.3,5.7-9.6
		c4.3-3.5,9.1-3.6,10.9-3.5c0.7,0,1.2,0.6,1.2,1.3s-0.6,1.2-1.3,1.2c-1.6-0.1-5.6,0-9.3,3c-3.6,2.9-4.6,6.7-4.9,8.2
		C171.9,107,171.6,107.3,171.1,107.4z"/>
</g>
<path class="st6" d="M87.1,147.6c0.8,0,1.3-0.1,1.7-0.2c0,0,0.1,0,0.1,0l0.4-0.1l-0.1-0.8c-0.1-0.8-0.2-1.8,0-3.3
	c0.2-1.7,0.5-2.8,0.8-3.5c0.3-0.8,0.3-1,0.2-1.4c-0.1-0.4-0.2-0.8-0.5-1.3c-0.3-0.5-0.8-1-1.4-1.5l-0.4,0.4l0,0l0.3-0.5
	c-1.8-1.6-3.6-3.2-5.4-4.8c-6.1-5.2-8.4-6.5-9.5-7.2c-1.5-0.8-3.1-1.6-4.7-2.1c-1.5-0.5-3.1-0.9-4.7-1.2c-3-0.4-6-0.5-9-0.5
	c-1.8,0-3.6,0.1-5.4,0.3l-0.9,0.1l0.4,0.8c0.3,0.6,1,1.8,1.7,3l0.2,0.4c1.5,2.3,3.1,4,4.1,5.2c0.6,0.6,0.9,1,1.1,1.3
	c0.8,1.2,0.4,2.3-0.1,2.9c-0.3,0.4-1.5,1.4-3.4,0.1c-0.3-0.2-0.8-0.6-1.3-1c-1.6-1.2-4.2-3.2-7.3-5c-0.2-0.1-0.4-0.2-0.6-0.3l-1.8-1
	l1,1.8c2.8,4.8,2.6,6,1.2,7.1c-1.4,1.1-2.8,0.1-3.7-0.7c-0.6-0.6-1.5-1.3-2.8-1.8c-1.2-0.5-3-0.7-8.9,1.4c-3.1,1.1-6.2,2.4-9.2,4
	l-0.7,0.3l0.5,0.6c1.8,2,3.9,3.7,6.1,5.1c1.9,1.1,4,2.1,5.6,2.8c2.3,1,3.5,1.6,4.2,2.5c0.4,0.6,0.5,1.3,0.4,2
	c-0.1,0.4-0.3,0.8-0.6,1.1l-0.8,0.8l1.1,0.2c16.5,2.8,28.5-0.5,38.3-3.2C78.6,148.8,83.1,147.6,87.1,147.6z"/>
<path class="st6" d="M119.6,173.6c-0.3-0.1-0.6-0.1-1.3-0.1c-1,0-2.3,0.1-4.3-0.4c-2.1-0.5-3.4-1.1-4.3-1.6
	c-0.2-0.1-0.5-0.3-0.7-0.3l-0.3-0.1l-0.2,0.1c-0.3,0.2-0.8,0.6-1.4,1.9c-0.7,1.4-1.3,3.3-2,5.1l-0.4,1.1c-1,3-2.4,5.9-3.7,8.8
	c-1.3,2.8-2.6,5.5-3.5,8.3c-2.8,8.3-6.9,18.3-12.1,29.9l-0.5,1.2l1.2-0.4c0.5-0.2,0.9-0.4,1.3-0.5c0.8-0.4,1.9-0.8,3.2-0.4
	c0.6,0.2,1.5,0.6,2.2,1.7c0.9,1.4,1.2,3.4,1.6,6c0.2,1.2,0.4,2.5,0.6,3.8c0.5,2.2,1.2,4.4,2.1,6.5l0.4,1l0.6-1
	c1.2-2,2.4-4.1,3.5-6.1c1.5-2.7,2.3-4.3,2.8-5.3c0.3-0.8,0.7-1.6,1-2.3c1.2-3,2-4.7,4.1-4.2c0.6,0.1,1.1,0.5,1.5,1
	c0.3,0.4,0.4,0.8,0.4,1.2c0.1,0.2,0.1,0.5,0.2,0.8c0.1,0.2,0.1,0.3,0.2,0.5l0.5,1.1l0.6-1c0.2-0.4,0.4-0.8,0.6-1.2
	c0.9-2,1.4-3.9,1.7-5.2c0.5-2.2,1.1-3.8,3-3.8c0.9,0,1.6,0.4,2.1,1.2c0.3,0.5,0.5,1.1,0.8,1.9c0.3,0.9,0.7,2.2,1.4,3.6l0.5,0.9
	l0.5-0.9c0.9-1.5,1.7-3.1,2.3-4.8c0.5-1.3,1.8-4.8,2.5-9.1c0.6-4.4,0.1-6.6-1.9-16.2c-0.5-2.5-1.2-5.7-2-9.5l-0.2-1
	c-1-5.1-1.9-9.1-3.1-11l0,0C120.3,173.9,119.9,173.7,119.6,173.6z"/>
<path class="st7" d="M60.2,234c0.2,0.1,0.3,0.3,0.5,0.5c0.6,1,0.4,1.9-0.3,4.5c-0.3,0.9-0.6,2.1-1,3.5c-0.2,0.8-0.4,1.6-0.5,2.5
	l-0.8,3.9l3-2.7c2.4-2.2,4.7-4.5,6.7-7c4-5,6.2-9.4,7.3-11.5c8.7-17.3,23.3-53.4,23.9-54.9l0.1-0.2c0.8-1.4,1-2.6,0.8-3.6
	c-0.1-0.3-0.2-0.5-0.3-0.8l0,0c-0.3-0.5-0.9-0.9-1.6-1.5c-1.1-0.8-2.5-1.8-3.7-3.7L94,163c-1-1.6-1.5-3.1-1.8-4.1
	c-0.2-0.6-0.3-1.1-0.5-1.4l-0.2-0.5l-0.5-0.2c-0.9-0.3-2.1,0.1-2.9,0.4l-9.3,3.3c-4.2,1.5-9.3,2.7-20.5,3.7
	c-7.7,0.7-13.3,0.6-17.8,0.6c-6.9-0.1-11.1-0.1-17.3,2.4c-0.8,0.3-1.5,0.6-2.2,1l-2.7,1.3l2.8,1.2c1.4,0.6,1.8,1,2,1.3
	c0.2,0.4,0.3,0.8,0.3,1.2c-0.2,1.1-1.1,1.5-3,1.8l-0.5,0.1c-1.6,0.3-3.3,0.6-5,1.1l-1.4,0.4l0.4,1.3c0.2,0.5,0.4,1,0.7,1.4
	c0.5,0.8,1.1,1.3,1.6,1.8c0.4,0.4,0.8,0.7,1,1.1c0.3,0.5,0.4,1.2,0.2,1.7c-0.4,1-1.2,1.3-2.7,1.4c-0.4,0-0.8,0.1-1.3,0.2l-4,0.7
	l3.7,1.9c0.2,0.1,0.4,0.2,0.6,0.3c0.6,0.3,1.2,0.5,1.5,1.1c0.2,0.3,0.3,0.6,0.3,1c0,1.1-0.8,1.7-2.2,2.3c-0.4,0.2-0.8,0.3-1.2,0.6
	l-5,2.7l5.8-0.2c1.2,0,1.9,0.1,2.4,0.8c0,0.1,0.1,0.1,0.1,0.2c0.5,1-0.1,1.9-1.1,2.9c-0.5,0.5-1.2,1.2-1.7,2
	c-0.1,0.2-0.2,0.4-0.3,0.6l-0.9,1.8l2,0.2c0.6,0,1.2,0.1,1.7,0c1.6,0,3-0.3,3.9-0.5c1.6-0.4,2.5-0.4,3.1,0.5l0.1,0.2
	c0.6,1.1-0.1,1.9-2.1,3.6c-1.1,0.9-2.5,2.1-4.3,3.9c-0.8,0.8-1.3,1.4-2.1,2.3c-0.4,0.4-0.7,0.8-1.1,1.2l-2.3,2.6l3.5-0.4
	c0.3,0,0.5-0.1,0.7-0.1c0.7-0.1,1.5-0.2,2.3,0.3c0.2,0.2,0.4,0.4,0.5,0.6c0.7,1.1,1,3.3-2.6,10.9c-0.6,1.3-1.3,2.6-2.1,3.9l-1.3,2.2
	l2.5-0.2c1.4-0.1,2.8-0.3,4.2-0.5c1.8-0.3,3.5-0.8,5-1.3c3.6-1,5-1.3,5.8,0l0.1,0.1c0.5,0.9,0.1,1.6-0.5,2.5
	c-0.3,0.4-0.6,0.8-0.8,1.3l-1.2,2.8l2.9-1c0.8-0.3,1.5-0.5,2.3-0.9c2.5-1.1,4.6-2.4,6.1-3.4c2.6-1.6,3.6-2,4.6-1.1
	c0.1,0.1,0.2,0.2,0.3,0.3c0.6,0.9,0.2,1.8-0.3,2.8c-0.3,0.8-0.8,1.7-1.1,3.1c-0.1,0.3-0.1,0.5-0.2,0.8l-0.4,2.3l2.2-0.8
	c0.9-0.3,1.8-0.7,2.7-1.1c4.1-1.8,7.1-3.8,9.3-5.4C57.5,233.7,58.9,233,60.2,234z"/>
<path class="st8" d="M98.4,168.9c0,0.1,0.1,0.2,0.1,0.4c0.2,0.7-0.1,1.6-0.7,2.6l-0.1,0.2l-0.1,0.2c-0.1,0.4-15.1,37.4-23.9,54.9
	c-1,2.1-3.2,6.4-7.2,11.3c-2,2.5-4.2,4.8-6.5,6.9c0.2-0.8,0.3-1.6,0.5-2.4c0.3-1.4,0.7-2.6,1-3.5c0.7-2.4,1.2-4,0.2-5.6c0,0,0,0,0,0
	c-0.2-0.3-0.5-0.6-0.7-0.8c-2.3-1.8-4.6-0.1-7.4,1.8c-2.2,1.5-5.1,3.5-9.1,5.2c-0.8,0.4-1.7,0.7-2.6,1c0-0.2,0.1-0.5,0.2-0.7
	c0.3-1.2,0.7-2.1,1-2.8c0.5-1.1,1.2-2.6,0.2-4.1c-0.1-0.2-0.3-0.4-0.5-0.6c-1.9-1.8-4.1-0.4-6.2,0.9c-1.5,0.9-3.4,2.2-5.9,3.3
	c-0.7,0.3-1.4,0.6-2.2,0.8c0.2-0.4,0.4-0.7,0.7-1.1c0.4-0.6,1.6-2.2,0.6-4l-0.1-0.1l-0.1-0.1c-1.4-2.2-3.9-1.5-7.3-0.6
	c-1.5,0.4-3.2,0.9-4.9,1.2c-1.3,0.3-2.7,0.4-4,0.5c0.8-1.3,1.5-2.6,2.1-4c3.9-8.1,3.6-10.6,2.6-12.2c-0.2-0.4-0.5-0.7-0.9-0.9
	c-1.2-0.9-2.5-0.7-3.3-0.6c-0.2,0-0.4,0.1-0.7,0.1c0.4-0.4,0.7-0.8,1.1-1.2c0.8-0.9,1.4-1.5,2.1-2.2c1.7-1.7,3.2-2.9,4.2-3.8
	c1.7-1.4,3.5-3,2.4-5.2l-0.1-0.2l-0.1-0.1c-1.2-1.8-3.2-1.4-4.5-1.1c-0.9,0.2-2.2,0.5-3.7,0.5c-0.5,0-1.1,0-1.6,0
	c0.1-0.2,0.2-0.3,0.3-0.5c0.5-0.7,1-1.3,1.6-1.8c0.8-0.8,2.4-2.4,1.4-4.5c-0.1-0.1-0.1-0.2-0.2-0.4c-1-1.5-2.7-1.5-3.6-1.5
	c0,0-0.1,0-0.1,0c0.4-0.2,0.8-0.4,1.2-0.5c1.1-0.5,3.1-1.3,3-3.6c0-0.6-0.2-1.2-0.5-1.7c-0.6-0.9-1.4-1.3-2.1-1.6
	c-0.2-0.1-0.4-0.2-0.6-0.3c0.5-0.1,0.9-0.1,1.3-0.1c1.1-0.1,3.1-0.2,3.8-2.3c0.3-1,0.2-2-0.4-2.9c-0.3-0.5-0.8-0.9-1.2-1.3
	c-0.5-0.4-1-0.9-1.4-1.5c-0.2-0.3-0.4-0.7-0.5-1.1c1.6-0.4,3.3-0.8,4.9-1c0.2,0,0.3-0.1,0.5-0.1c1.5-0.2,3.8-0.6,4.1-2.9
	c0.1-0.7-0.1-1.5-0.5-2.1c-0.4-0.7-1.1-1.2-2.6-1.8c0.7-0.3,1.4-0.7,2.2-1c6-2.4,10-2.4,16.8-2.3c4.5,0,10.1,0.1,17.9-0.6
	c11.3-1,16.5-2.2,20.8-3.7l9.1-3.2l0.1,0l0.1,0c1.1-0.5,1.7-0.5,2-0.4c0.1,0.2,0.3,0.7,0.4,1.1c0.3,1.1,0.8,2.7,1.9,4.5l0.1,0.2
	c1.4,2.1,3,3.2,4.1,4C97.7,168.3,98.2,168.6,98.4,168.9L98.4,168.9 M100.7,167.4c-1.1-1.7-3.4-2.2-5.4-5.1c0,0-0.1-0.1-0.1-0.1
	c-1.6-2.4-1.5-4.4-2.3-5.7c-0.2-0.4-0.6-0.7-1-0.9c-1.4-0.7-3.2-0.2-4.4,0.4c-3,1.1-6.1,2.1-9.1,3.2c-4.3,1.5-9.4,2.6-20.1,3.6
	c-19.4,1.7-24.7-1.3-35.5,3.1c-3.6,1.5-6.4,3.2-8,4.3c3.3,0.9,6.7,1.9,7.2,2.6c0,0.1,0.1,0.1,0,0.2c0,0.3-1,0.4-2.3,0.6
	c-1.9,0.3-4.4,0.8-7.5,1.8c0,1.3,0.3,3,1.3,4.6c0,0,0,0,0,0c1,1.5,2.2,2.3,2.6,2.8c0.1,0.2,0.1,0.3,0.1,0.4
	c-0.2,0.6-1.6,0.3-3.6,0.7c-1.7,0.4-2.9,1.1-3.7,1.6c0.1,0.1,0.2,0.3,0.3,0.4c0.4,0.7,1.1,1.5,2.1,2.2c1.4,1,2.6,1.2,2.9,1.7
	c0,0.1,0.1,0.1,0.1,0.2c0,0.7-1.8,0.9-3.8,2.2c-1.5,1-2.4,2.2-3,3.1c0.8,0.5,1.9,1.2,3.5,1.4c1.8,0.3,3.1-0.1,3.3,0.3c0,0,0,0,0,0
	c0.3,0.6-1.5,1.5-2.8,3.6c-1,1.5-1.3,3-1.5,4.2c1.2,0.3,3,0.7,5.2,0.6c3.4-0.1,5.5-1.1,5.8-0.7c0,0,0,0,0,0c0.3,0.6-2.3,2-6.1,5.9
	c-0.8,0.8-1.4,1.4-2.2,2.3c-1.7,1.8-3.2,3.6-4.6,5.3c0.5,0.1,1.1,0.3,1.7,0.4c0,0,1,0.2,2,0.3c2.7,0.2,3.5-0.5,4.1-0.1
	c0.1,0.1,0.1,0.1,0.2,0.2c1.1,1.7-2.1,8.1-2.7,9.4c-1.7,3.4-3.4,6.1-4.6,7.9c2.2,0.2,5.5,0.3,9.6-0.5c4.7-0.9,8.8-2.7,9.3-1.9
	c0,0,0,0,0,0c0.3,0.5-1.1,1.3-1.7,3.4c-0.4,1.5-0.2,2.9,0.1,3.9c1.4-0.3,3.6-0.8,6-1.9c5.3-2.3,8.4-5.4,9.1-4.7c0,0,0,0,0,0.1
	c0.3,0.5-0.9,1.9-1.6,4.8c-0.5,2.1-0.5,4-0.5,5.2c1.5-0.4,3.9-1.1,6.7-2.3c8.2-3.6,12.3-8.4,13.6-7.4c0.1,0,0.1,0.1,0.1,0.1
	c0.5,0.7-0.5,2.8-1.5,6.9c-1,4-1.4,7.4-1.5,9.5c3.1-2.2,7.8-5.9,12.4-11.6c3.9-4.8,6.1-9,7.5-11.8c8.8-17.5,23.3-53.6,24-55.1
	c0.6-1.1,1.4-2.9,0.9-4.7C101.1,168.2,100.9,167.8,100.7,167.4L100.7,167.4z"/>
<path class="st8" d="M89.4,137.7c0.2,0.4,0.4,0.7,0.4,1c0,0.3,0,0.3-0.2,1.1c-0.3,0.8-0.7,1.9-0.9,3.6c-0.2,1.5-0.1,2.6,0,3.4
	c0,0.1,0,0.3,0,0.4c-0.2,0.1-0.7,0.2-1.6,0.2l-0.1,0c-4.1-0.1-8.6,1.1-13.7,2.5c-9.7,2.6-21.7,5.8-38,2.7c0.3-0.3,0.6-0.8,0.8-1.3
	c0.2-0.8,0.1-1.7-0.4-2.4c-0.7-1.1-1.9-1.7-4.4-2.8c-1.6-0.8-3.7-1.7-5.5-2.8c-2.2-1.3-4.2-3-5.9-5c3-1.5,6.1-2.8,9.2-3.8
	c5.8-2,7.4-1.7,8.5-1.3c1.1,0.4,2,1.2,2.6,1.7c0.6,0.5,2.5,2.2,4.4,0.7c1.8-1.4,1.8-3-1-7.8c0.2,0.1,0.4,0.2,0.6,0.3
	c3.1,1.8,5.7,3.8,7.2,5c0.5,0.4,1,0.8,1.3,1c2.3,1.7,3.9,0.2,4.2-0.1c0.7-0.8,1.2-2.1,0.2-3.6c-0.3-0.4-0.6-0.8-1.2-1.4
	c-1-1.1-2.5-2.9-4-5.2c-0.1-0.1-0.2-0.2-0.2-0.4c-0.7-1.1-1.4-2.4-1.7-3c1.8-0.1,3.5-0.2,5.3-0.2c3,0,6,0.2,9,0.6
	c1.5,0.3,3.1,0.7,4.5,1.2c1.6,0.6,3.1,1.3,4.5,2.1c1.1,0.6,3.3,2,9.4,7.2c1.8,1.6,3.6,3.2,5.3,4.8l0.1,0.1l0.1,0.1
	C88.7,136.8,89.1,137.2,89.4,137.7 M91.8,136.2c-0.4-0.6-1-1.3-1.8-2c-2.2-2-4-3.7-5.4-4.9c-6.1-5.3-8.4-6.7-9.8-7.5
	c-1.3-0.8-3-1.6-5-2.3c-1.9-0.7-3.6-1.1-5.1-1.3c-2.7-0.4-5.9-0.6-9.4-0.6c-3.5,0-6.7,0.3-9.5,0.7c0.4,1,0.9,2.1,1.5,3.2
	c0,0,0.9,1.8,2,3.5c0.1,0.1,0.2,0.3,0.3,0.4c2.3,3.5,4.7,5.9,5.2,6.6c0.1,0.1,0.1,0.2,0.1,0.2c-0.2,0.3-3.9-3.4-9.2-6.4
	c-3.5-2-6.7-3.2-8.9-3.9c5.5,8.8,6.6,11.3,6.2,11.6c-0.4,0.3-1.7-1.8-4.3-2.8c-2.1-0.8-4.6-0.8-10.4,1.2c-3.3,1.1-7.6,2.8-12.6,5.6
	c1.6,2.3,4.4,5.7,8.7,8.3c3.9,2.4,8.5,3.9,9,4.7c0.1,0.1,0.1,0.2,0,0.2c-0.1,0.4-1.6,0.1-3.8,0.9c-1.4,0.5-2.5,1.3-3.1,1.8
	c3.4,1,6.2,1.6,7.9,1.9c25.9,5,41.7-5.3,52.6-5.1c0.8,0,3.1,0.1,4.1-1.3c0.9-1.1,0.1-2.2,0.4-5.1c0.4-3,1.4-3.6,1.1-5.5
	C92.5,137.7,92.3,137,91.8,136.2L91.8,136.2z"/>
<path class="st8" d="M120.3,174.9L120.3,174.9c1.2,1.8,2,5.8,3,10.8l0.2,1c0.8,3.8,1.5,6.9,2,9.5c2,9.5,2.5,11.7,1.9,16
	c-0.6,4.3-1.9,7.7-2.4,9c-0.7,1.6-1.4,3.2-2.3,4.7c-0.7-1.4-1.1-2.6-1.3-3.5c-0.2-0.8-0.4-1.5-0.8-2c-0.6-0.9-1.6-1.5-2.6-1.5
	c-2.6,0-3.2,2.5-3.6,4.3c-0.3,1.3-0.8,3.2-1.6,5.1c-0.2,0.4-0.4,0.8-0.6,1.2c-0.1-0.1-0.1-0.3-0.2-0.4c-0.1-0.3-0.2-0.6-0.2-0.8
	c-0.1-0.3-0.2-0.8-0.5-1.3c-0.4-0.7-1.1-1.1-1.8-1.3c-2.6-0.6-3.6,1.8-4.7,4.6c-0.3,0.7-0.6,1.5-1,2.3c-0.5,1-1.2,2.4-2.8,5.3
	c-1.1,2-2.3,4.1-3.5,6.1c-0.9-2.1-1.6-4.2-2-6.4c-0.3-1.3-0.5-2.6-0.6-3.8c-0.4-2.6-0.7-4.7-1.7-6.2c-0.8-1.2-1.8-1.7-2.5-1.9
	c-1.5-0.4-2.7,0.1-3.6,0.5c-0.4,0.2-0.8,0.3-1.3,0.5c5.3-11.6,9.3-21.7,12.2-30c0.9-2.8,2.2-5.5,3.5-8.3c1.3-2.8,2.7-5.7,3.7-8.8
	c0.1-0.4,0.3-0.7,0.4-1.1c0.6-1.8,1.2-3.7,1.9-5c0.6-1.2,1.1-1.6,1.2-1.6c0.2,0.1,0.4,0.2,0.6,0.3c0.9,0.5,2.2,1.1,4.4,1.6
	c2.1,0.5,3.5,0.4,4.5,0.4c0.6,0,0.9,0,1.1,0C119.6,174.2,119.9,174.3,120.3,174.9 M122.7,173.4c-0.7-1-1.4-1.7-2.4-2
	c-1.5-0.5-2.6,0.2-5.8-0.5c-3.7-0.8-4.4-2.3-6.1-2c-2.9,0.4-4.3,5.3-5.8,9.7c-2,5.9-5.3,11.2-7.3,17.1c-2.4,6.9-6.5,17.7-14.2,34.3
	c1,0,2.6,0,4.5-0.5c2.6-0.7,3.2-1.5,4.2-1.2c0.4,0.1,0.7,0.4,1,0.8c1,1.6,1.1,5.2,1.9,9c0.6,3,1.9,6.9,4.6,11.5
	c2-3.2,4.1-6.7,6.1-10.4c1.6-2.9,2.4-4.3,2.9-5.5c1.2-2.7,2.1-5.4,2.6-5.3c0,0,0.1,0,0.1,0.1c0.1,0.2,0.1,0.6,0.4,1.5
	c0.3,0.8,0.6,1.3,0.9,1.9c0.1,0.3,0.3,0.5,0.4,0.7c0.5,0.8,1.1,1.5,1.5,2c0.9-1.1,2.1-2.8,3.1-5.1c1.9-4.2,1.9-7.7,2.7-7.7
	c0.1,0,0.2,0.1,0.3,0.2c0.4,0.7,0.7,3.1,2.4,6c0.2,0.4,0.4,0.8,0.7,1.1c0.5,0.8,1,1.5,1.4,1.9c1.5-2,3.4-4.9,4.9-8.7
	c0.4-0.9,1.9-4.7,2.6-9.7c0.9-6-0.2-8.5-3.9-26.4C125,180.2,124.2,175.8,122.7,173.4L122.7,173.4z"/>
</svg>
