<?xml version="1.0" encoding="UTF-8" standalone="no"?>
<!-- Created with Inkscape (http://www.inkscape.org/) -->

<svg
   width="56.000004mm"
   height="56.000004mm"
   viewBox="0 0 56.000004 56.000004"
   version="1.1"
   id="svg532"
   inkscape:version="1.2.2 (b0a8486541, 2022-12-01)"
   sodipodi:docname="Home_Taping_52x52.svg"
   xml:space="preserve"
   xmlns:inkscape="http://www.inkscape.org/namespaces/inkscape"
   xmlns:sodipodi="http://sodipodi.sourceforge.net/DTD/sodipodi-0.dtd"
   xmlns="http://www.w3.org/2000/svg"
   xmlns:svg="http://www.w3.org/2000/svg"
   xmlns:rdf="http://www.w3.org/1999/02/22-rdf-syntax-ns#"
   xmlns:cc="http://creativecommons.org/ns#"
   xmlns:dc="http://purl.org/dc/elements/1.1/"><title
     id="title1166">Home Taping is Killing Music</title><sodipodi:namedview
     id="namedview534"
     pagecolor="#505050"
     bordercolor="#ffffff"
     borderopacity="1"
     inkscape:showpageshadow="0"
     inkscape:pageopacity="0"
     inkscape:pagecheckerboard="1"
     inkscape:deskcolor="#505050"
     inkscape:document-units="mm"
     showgrid="false"
     inkscape:zoom="5.4477397"
     inkscape:cx="74.526321"
     inkscape:cy="73.792072"
     inkscape:window-width="1920"
     inkscape:window-height="1058"
     inkscape:window-x="0"
     inkscape:window-y="22"
     inkscape:window-maximized="1"
     inkscape:current-layer="layer1" /><defs
     id="defs529" /><g
     inkscape:label="sticker"
     inkscape:groupmode="layer"
     id="layer1"
     transform="translate(-179.35254,-227.59793)"><rect
       style="fill:#000000;fill-opacity:1;fill-rule:nonzero;stroke:none;stroke-width:3.96522;stroke-linecap:round;stroke-linejoin:round;stroke-miterlimit:4;stroke-dasharray:none;stroke-dashoffset:0;stroke-opacity:1"
       id="rect964"
       width="52"
       height="52"
       x="181.35254"
       y="229.59795"
       inkscape:label="52x52mm" /><rect
       y="227.59793"
       x="179.35254"
       height="56.000004"
       width="56.000004"
       id="rect962"
       style="fill:#ffffff;fill-opacity:1;fill-rule:nonzero;stroke:none;stroke-width:3.96522;stroke-linecap:round;stroke-linejoin:round;stroke-miterlimit:4;stroke-dasharray:none;stroke-dashoffset:0;stroke-opacity:1"
       inkscape:label="56x56mm" /><rect
       y="231.59795"
       x="183.35252"
       height="48"
       width="48"
       id="rect966"
       style="fill:#ffffff;fill-opacity:1;fill-rule:nonzero;stroke:none;stroke-width:3.96522;stroke-linecap:round;stroke-linejoin:round;stroke-miterlimit:4;stroke-dasharray:none;stroke-dashoffset:0;stroke-opacity:1"
       inkscape:label="48x48mm" /><rect
       y="232.59795"
       x="184.35254"
       height="46"
       width="46"
       id="rect307"
       style="display:inline;fill:#000000;fill-opacity:1;fill-rule:nonzero;stroke:none;stroke-width:3.96522;stroke-linecap:round;stroke-linejoin:round;stroke-miterlimit:4;stroke-dasharray:none;stroke-dashoffset:0;stroke-opacity:1"
       inkscape:label="46x46mm" /><rect
       style="fill:#000000;fill-rule:evenodd;stroke-width:0.443653;stroke-linecap:round;stroke-linejoin:round"
       id="rect968"
       width="44"
       height="44"
       x="185.35252"
       y="233.59793"
       inkscape:label="44x44mm" /><g
       id="g2200"
       transform="matrix(0.1442623,0,0,0.1442623,192.57767,236.00187)"
       style="display:inline;fill:#ffffff;stroke-width:6.93182"
       inkscape:export-xdpi="360"
       inkscape:export-ydpi="360"
       inkscape:label="home_taping"
       sodipodi:insensitive="true"><g
         id="g1248"
         transform="matrix(2.6537446,0.05834304,-0.05834304,2.6537446,-992.51085,-1457.8411)"
         style="fill:#ffffff;stroke-width:6.93182"
         inkscape:label="crossbones"
         sodipodi:insensitive="true"><path
           style="fill:#ffffff;stroke:none;stroke-width:1.82555px;stroke-linecap:butt;stroke-linejoin:miter;stroke-opacity:1"
           d="m 383.54111,605.09812 c 12.00296,2.27746 65.83689,10.57645 77.80884,12.2142 1.67162,0.22868 2.83813,-2.96278 4.5869,-3.97814 1.74877,-1.01535 4.34198,-1.44539 5.80288,-0.42858 1.4343,0.99831 1.75855,1.48605 1.89331,2.34607 0.13476,0.86003 0.15652,2.66157 -0.89537,4.05627 -1.15798,1.53536 -2.73526,2.49442 -2.73384,3.98131 0.001,1.48691 0.19875,4.17137 -1.05398,5.93341 -0.99799,1.40373 -2.75412,2.95324 -4.02083,2.94715 -2.42588,0.36886 -4.18666,-1.24009 -4.53093,-2.371 -0.88852,-2.91881 0.49163,-4.21068 -2.5112,-5.5597 -1.3639,-0.71593 -67.96859,-14.55792 -75.65568,-12.42831 -1.99161,0.55175 -3.42637,2.30574 -5.8189,4.35222 -0.71426,0.61095 -2.90197,2.57317 -5.92007,0.65733 -1.60692,-1.02004 -2.37271,-3.33459 -1.52496,-4.83857 1.3354,-2.36911 3.56067,-4.06269 3.56614,-5.78733 0.0971,-2.74359 -1.02388,-5.59636 1.60469,-7.49599 2.65834,-1.92117 5.01454,-2.08411 6.47083,-0.73971 1.45628,1.34437 0.74075,6.72357 2.93217,7.13937 z"
           id="path1244"
           sodipodi:nodetypes="sssssscscscsssscsss"
           sodipodi:insensitive="true" /><path
           style="fill:#ffffff;stroke:none;stroke-width:1.82645px;stroke-linecap:butt;stroke-linejoin:miter;stroke-opacity:1"
           d="m 467.66038,603.61375 c -12.09449,3.07547 -66.47433,15.0006 -78.58235,17.44988 -1.69063,0.34199 -3.10719,-2.68819 -4.96448,-3.55421 -1.85731,-0.86603 -4.53544,-1.10103 -5.95523,-0.005 -1.39393,1.07584 -1.69053,1.57469 -1.76736,2.42319 -0.0768,0.84851 0.0284,2.60737 1.20084,3.89301 1.29082,1.41531 2.96904,2.23862 3.07267,3.68913 0.10395,1.45049 0.0918,4.08314 1.49541,5.71281 1.11818,1.29829 3.02073,2.68485 4.31366,2.5888 2.50296,0.18722 4.18709,-1.50751 4.45869,-2.63515 0.70096,-2.9104 -0.79951,-4.07239 2.17117,-5.60193 1.34199,-0.79538 68.36951,-19.03602 76.36875,-17.50555 2.07251,0.39654 3.66138,2.00541 6.24885,3.83146 0.77245,0.54515 3.14482,2.30357 6.09103,0.22005 1.56864,-1.10934 2.18699,-3.42155 1.21512,-4.82833 -1.53087,-2.21596 -3.92263,-3.70968 -4.05008,-5.39159 -0.29307,-2.66937 0.64997,-5.53187 -2.16811,-7.19789 -2.85002,-1.68491 -5.26729,-1.67622 -6.65922,-0.26122 -1.39191,1.41498 -0.28123,6.61128 -2.48936,7.17277 z"
           id="path1246"
           sodipodi:nodetypes="sssssscscscsssscsss"
           sodipodi:insensitive="true" /></g><path
         id="path1250"
         style="display:inline;fill:#ffffff;fill-opacity:1;fill-rule:evenodd;stroke-width:2.76427;stroke-linecap:round;stroke-linejoin:round"
         d="M 5.6320928,19.621541 A 13.229165,13.229165 0 0 0 -7.5836379,32.850709 v 83.175801 a 3.96875,3.96875 0 0 0 -2.9998171,3.84834 v 32.06264 a 3.96875,3.96875 0 0 0 2.9998171,3.84835 V 156.392 A 13.229165,13.229165 0 0 0 5.6455286,169.62117 H 199.1872 A 13.229165,13.229165 0 0 0 212.41637,156.392 v -0.60564 a 3.96875,3.96875 0 0 0 3.00033,-3.84887 v -32.06264 a 3.96875,3.96875 0 0 0 -3.00033,-3.84834 V 32.850709 A 13.229165,13.229165 0 0 0 199.1872,19.621541 H 5.6455286 a 13.229165,13.229165 0 0 0 -0.013436,0 z M 45.963999,74.621283 a 18.499998,18.499998 0 0 1 0.03721,0 A 18.499998,18.499998 0 0 1 64.501368,93.121447 18.499998,18.499998 0 0 1 46.001204,111.62161 18.499998,18.499998 0 0 1 27.501559,93.121447 18.499998,18.499998 0 0 1 45.963999,74.621283 Z m 112.829801,0 a 18.499999,18.499999 0 0 1 5.2e-4,0 18.499999,18.499999 0 0 1 0.0372,0 18.499999,18.499999 0 0 1 18.50017,18.500164 18.499999,18.499999 0 0 1 -18.50017,18.500163 18.499999,18.499999 0 0 1 -18.50016,-18.500163 18.499999,18.499999 0 0 1 18.46244,-18.500164 z m -81.377458,0.0036 H 127.41639 V 94.624714 H 77.416342 Z M 70.91648,145.43763 a 6.4999999,6.4999999 0 0 1 6.499862,6.49986 6.4999999,6.4999999 0 0 1 -6.499862,6.50038 6.4999999,6.4999999 0 0 1 -6.499863,-6.50038 6.4999999,6.4999999 0 0 1 6.499863,-6.49986 z m 63.00029,0 a 6.4999999,6.4999999 0 0 1 6.49986,6.49986 6.4999999,6.4999999 0 0 1 -6.49986,6.50038 6.4999999,6.4999999 0 0 1 -6.50038,-6.50038 6.4999999,6.4999999 0 0 1 6.50038,-6.49986 z m -87.935203,6.87917 a 5,5 0 0 1 0.01964,0 5,5 0 0 1 5.000213,5.00021 5,5 0 0 1 -5.000213,4.9997 5,5 0 0 1 -4.999693,-4.9997 5,5 0 0 1 4.980056,-5.00021 z m 112.829803,0 a 5,5 0 0 1 5.2e-4,0 5,5 0 0 1 0.0196,0 5,5 0 0 1 5.00022,5.00021 5,5 0 0 1 -5.00022,4.9997 5,5 0 0 1 -5.0002,-4.9997 5,5 0 0 1 4.98005,-5.00021 z"
         inkscape:label="Tape"
         sodipodi:insensitive="true" /></g></g><g
     inkscape:groupmode="layer"
     id="layer2"
     inkscape:label="hope you enjoy. see comments for details. cheers mool"
     style="display:inline"
     sodipodi:insensitive="true" /><metadata
     id="metadata1164"><rdf:RDF><cc:Work
         rdf:about=""><dc:title>Home Taping is Killing Music</dc:title><dc:date>03.12.2023</dc:date><dc:creator><cc:Agent><dc:title>das mool</dc:title></cc:Agent></dc:creator><dc:publisher><cc:Agent><dc:title>das mool</dc:title></cc:Agent></dc:publisher><dc:description>https://de.wikipedia.org/wiki/Home_Taping_Is_Killing_Music
I made new from scratch. Tried to make the Tape more anatomical correct.
Colors for the final Print were:
Black: C40 M20 Y20 K100
White: C0 M5 Y15 K5
The white is actually a creamwhite, to make it look more retro 11!1!!
</dc:description><dc:source>https://de.wikipedia.org/wiki/Home_Taping_Is_Killing_Music</dc:source><cc:license
           rdf:resource="http://creativecommons.org/publicdomain/zero/1.0/" /><dc:rights><cc:Agent><dc:title>public domain</dc:title></cc:Agent></dc:rights></cc:Work><cc:License
         rdf:about="http://creativecommons.org/publicdomain/zero/1.0/"><cc:permits
           rdf:resource="http://creativecommons.org/ns#Reproduction" /><cc:permits
           rdf:resource="http://creativecommons.org/ns#Distribution" /><cc:permits
           rdf:resource="http://creativecommons.org/ns#DerivativeWorks" /></cc:License></rdf:RDF></metadata></svg>
