<?xml version="1.0" encoding="UTF-8" standalone="no"?>
<!DOCTYPE svg PUBLIC "-//W3C//DTD SVG 1.1//EN" "http://www.w3.org/Graphics/SVG/1.1/DTD/svg11.dtd">
<svg width="100%" height="100%" viewBox="0 0 709 709" version="1.1" xmlns="http://www.w3.org/2000/svg" xmlns:xlink="http://www.w3.org/1999/xlink" xml:space="preserve" xmlns:serif="http://www.serif.com/" style="fill-rule:evenodd;clip-rule:evenodd;stroke-linecap:round;stroke-linejoin:round;stroke-miterlimit:1.5;">
    <g transform="matrix(0.919578,0,0,0.950187,7.94148,13.633)">
        <rect x="-47.168" y="-51.638" width="847.701" height="820.393" style="fill:rgb(21,29,124);"/>
    </g>
    <g transform="matrix(1.08064,0,0,1.08064,-288.796,-44.5688)">
        <g transform="matrix(1.03494,0,0,1.03494,-37.8521,-199.096)">
            <circle cx="611.931" cy="445.301" r="165.943" style="fill:none;stroke:white;stroke-width:5.59px;"/>
        </g>
        <g transform="matrix(1.09895,0,0,1.09895,-77.0219,-227.599)">
            <circle cx="611.931" cy="445.301" r="165.943" style="fill:none;stroke:white;stroke-width:2.46px;"/>
        </g>
        <g transform="matrix(1.48804,0,0,1.29783,-342.144,-270.773)">
            <path d="M672.552,319.036L675.052,340.437L676.247,342.929L678.587,344.202L698.679,346.864L678.587,349.527L676.247,350.8L675.052,353.292L672.552,374.693L670.052,353.292L668.857,350.8L666.517,349.527L646.425,346.864L666.517,344.202L668.857,342.929L670.052,340.437L672.552,319.036Z" style="fill:white;"/>
        </g>
        <g transform="matrix(0.848342,0,0,0.739898,-78.1108,67.1627)">
            <path d="M672.552,319.036L675.052,340.437L676.247,342.929L678.587,344.202L698.679,346.864L678.587,349.527L676.247,350.8L675.052,353.292L672.552,374.693L670.052,353.292L668.857,350.8L666.517,349.527L646.425,346.864L666.517,344.202L668.857,342.929L670.052,340.437L672.552,319.036Z" style="fill:white;"/>
        </g>
        <g transform="matrix(-0.848342,0,0,0.739898,1280.7,-38.0689)">
            <path d="M672.552,319.036L675.052,340.437L676.247,342.929L678.587,344.202L698.679,346.864L678.587,349.527L676.247,350.8L675.052,353.292L672.552,374.693L670.052,353.292L668.857,350.8L666.517,349.527L646.425,346.864L666.517,344.202L668.857,342.929L670.052,340.437L672.552,319.036Z" style="fill:white;"/>
        </g>
        <g transform="matrix(1.00564,0,0,1.00564,-13.758,-177.556)">
            <circle cx="511.106" cy="457.542" r="6.54" style="fill:white;"/>
        </g>
        <g transform="matrix(1.00564,0,0,1.00564,-49.9061,-151.991)">
            <circle cx="511.106" cy="457.542" r="6.54" style="fill:white;"/>
        </g>
        <g transform="matrix(1.00564,0,0,1.00564,79.637,-237.234)">
            <circle cx="511.106" cy="457.542" r="6.54" style="fill:white;"/>
        </g>
        <g transform="matrix(1.00564,0,0,1.00564,183.735,-299.738)">
            <circle cx="511.106" cy="457.542" r="6.54" style="fill:white;"/>
        </g>
        <g transform="matrix(1.00564,0,0,1.00564,-67.1843,-224.683)">
            <circle cx="511.106" cy="457.542" r="6.54" style="fill:white;"/>
        </g>
        <g transform="matrix(1.00564,0,0,1.00564,45.3939,-200.543)">
            <circle cx="511.106" cy="457.542" r="6.54" style="fill:white;"/>
        </g>
        <g transform="matrix(1.00564,0,0,1.00564,138.631,-231.147)">
            <circle cx="511.106" cy="457.542" r="6.54" style="fill:white;"/>
        </g>
        <g transform="matrix(1.00564,0,0,1.00564,116.117,-339.703)">
            <circle cx="511.106" cy="457.542" r="6.54" style="fill:white;"/>
        </g>
        <g transform="matrix(1.00564,0,0,1.00564,19.305,-149.598)">
            <circle cx="511.106" cy="457.542" r="6.54" style="fill:white;"/>
        </g>
        <g transform="matrix(0.595732,0,0,0.595732,220.036,9.7465)">
            <circle cx="511.106" cy="457.542" r="6.54" style="fill:white;"/>
        </g>
        <g transform="matrix(0.595732,0,0,0.595732,215.127,62.1065)">
            <circle cx="511.106" cy="457.542" r="6.54" style="fill:white;"/>
        </g>
        <g transform="matrix(0.595732,0,0,0.595732,192.629,100.149)">
            <circle cx="511.106" cy="457.542" r="6.54" style="fill:white;"/>
        </g>
        <g transform="matrix(0.595732,0,0,0.595732,290.494,141.19)">
            <circle cx="511.106" cy="457.542" r="6.54" style="fill:white;"/>
        </g>
        <g transform="matrix(0.595732,0,0,0.595732,434.341,32.4808)">
            <circle cx="511.106" cy="457.542" r="6.54" style="fill:white;"/>
        </g>
        <g transform="matrix(0.595732,0,0,0.595732,173.276,-91.3933)">
            <circle cx="511.106" cy="457.542" r="6.54" style="fill:white;"/>
        </g>
        <g transform="matrix(0.595732,0,0,0.595732,439.008,-34.5014)">
            <circle cx="511.106" cy="457.542" r="6.54" style="fill:white;"/>
        </g>
        <g transform="matrix(0.322897,0,0,0.322897,573.514,108.038)">
            <circle cx="511.106" cy="457.542" r="6.54" style="fill:white;"/>
        </g>
        <g transform="matrix(0.322897,0,0,0.322897,571.867,173.236)">
            <circle cx="511.106" cy="457.542" r="6.54" style="fill:white;"/>
        </g>
        <g transform="matrix(0.322897,0,0,0.322897,413.745,262.043)">
            <circle cx="511.106" cy="457.542" r="6.54" style="fill:white;"/>
        </g>
        <g transform="matrix(0.322897,0,0,0.322897,404.274,263.964)">
            <circle cx="511.106" cy="457.542" r="6.54" style="fill:white;"/>
        </g>
        <g transform="matrix(0.322897,0,0,0.322897,344.018,220.865)">
            <circle cx="511.106" cy="457.542" r="6.54" style="fill:white;"/>
        </g>
        <g transform="matrix(0.322897,0,0,0.322897,286.833,125.608)">
            <circle cx="511.106" cy="457.542" r="6.54" style="fill:white;"/>
        </g>
        <g transform="matrix(0.322897,0,0,0.322897,316.133,51.1883)">
            <circle cx="511.106" cy="457.542" r="6.54" style="fill:white;"/>
        </g>
        <g transform="matrix(0.322897,0,0,0.322897,338.947,-6.78907)">
            <circle cx="511.106" cy="457.542" r="6.54" style="fill:white;"/>
        </g>
        <g transform="matrix(0.322897,0,0,0.322897,479.602,-29.7056)">
            <circle cx="511.106" cy="457.542" r="6.54" style="fill:white;"/>
        </g>
        <g transform="matrix(0.322897,0,0,0.322897,422.719,93.6262)">
            <circle cx="511.106" cy="457.542" r="6.54" style="fill:white;"/>
        </g>
        <g transform="matrix(0.322897,0,0,0.322897,495.928,95.3148)">
            <circle cx="511.106" cy="457.542" r="6.54" style="fill:white;"/>
        </g>
        <g transform="matrix(0.322897,0,0,0.322897,444.067,93.8675)">
            <circle cx="511.106" cy="457.542" r="6.54" style="fill:white;"/>
        </g>
        <g transform="matrix(0.322897,0,0,0.322897,422.17,103.509)">
            <circle cx="511.106" cy="457.542" r="6.54" style="fill:white;"/>
        </g>
        <g transform="matrix(0.322897,0,0,0.322897,484.074,66.0372)">
            <circle cx="511.106" cy="457.542" r="6.54" style="fill:white;"/>
        </g>
        <g transform="matrix(0.322897,0,0,0.322897,519.075,63.0175)">
            <circle cx="511.106" cy="457.542" r="6.54" style="fill:white;"/>
        </g>
        <g transform="matrix(0.322897,0,0,0.322897,353.129,197.806)">
            <circle cx="511.106" cy="457.542" r="6.54" style="fill:white;"/>
        </g>
        <g transform="matrix(0.322897,0,0,0.322897,317.305,201.649)">
            <circle cx="511.106" cy="457.542" r="6.54" style="fill:white;"/>
        </g>
        <g transform="matrix(0.322897,0,0,0.322897,292.735,172.138)">
            <circle cx="511.106" cy="457.542" r="6.54" style="fill:white;"/>
        </g>
        <g transform="matrix(0.322897,0,0,0.322897,376.875,176.256)">
            <circle cx="511.106" cy="457.542" r="6.54" style="fill:white;"/>
        </g>
        <g transform="matrix(0.322897,0,0,0.322897,349.423,144.686)">
            <circle cx="511.106" cy="457.542" r="6.54" style="fill:white;"/>
        </g>
        <g transform="matrix(0.322897,0,0,0.322897,380.306,118.745)">
            <circle cx="511.106" cy="457.542" r="6.54" style="fill:white;"/>
        </g>
        <g transform="matrix(0.322897,0,0,0.322897,389.366,74.5473)">
            <circle cx="511.106" cy="457.542" r="6.54" style="fill:white;"/>
        </g>
        <g transform="matrix(0.322897,0,0,0.322897,363.812,116.412)">
            <circle cx="511.106" cy="457.542" r="6.54" style="fill:white;"/>
        </g>
        <g transform="matrix(0.322897,0,0,0.322897,426.837,52.9977)">
            <circle cx="511.106" cy="457.542" r="6.54" style="fill:white;"/>
        </g>
        <g transform="matrix(0.322897,0,0,0.322897,430.6,26.078)">
            <circle cx="511.106" cy="457.542" r="6.54" style="fill:white;"/>
        </g>
        <g transform="matrix(0.322897,0,0,0.322897,512.624,-10.8276)">
            <circle cx="511.106" cy="457.542" r="6.54" style="fill:white;"/>
        </g>
        <g transform="matrix(0.322897,0,0,0.322897,516.879,11.6828)">
            <circle cx="511.106" cy="457.542" r="6.54" style="fill:white;"/>
        </g>
        <g transform="matrix(0.595732,0,0,0.595732,176.062,89.1047)">
            <circle cx="511.106" cy="457.542" r="6.54" style="fill:white;"/>
        </g>
        <g transform="matrix(0.595732,0,0,0.595732,227.47,-19.6322)">
            <circle cx="511.106" cy="457.542" r="6.54" style="fill:white;"/>
        </g>
        <g transform="matrix(0.595732,0,0,0.595732,150.086,-17.8652)">
            <circle cx="511.106" cy="457.542" r="6.54" style="fill:white;"/>
        </g>
        <g transform="matrix(0.595732,0,0,0.595732,264.01,-45.2725)">
            <circle cx="511.106" cy="457.542" r="6.54" style="fill:white;"/>
        </g>
        <g transform="matrix(0.595732,0,0,0.595732,309.825,-42.409)">
            <circle cx="511.106" cy="457.542" r="6.54" style="fill:white;"/>
        </g>
        <g transform="matrix(0.595732,0,0,0.595732,364.461,-45.3036)">
            <circle cx="511.106" cy="457.542" r="6.54" style="fill:white;"/>
        </g>
        <g transform="matrix(0.595732,0,0,0.595732,376.094,-73.7023)">
            <circle cx="511.106" cy="457.542" r="6.54" style="fill:white;"/>
        </g>
        <g transform="matrix(0.595732,0,0,0.595732,421.704,-85.3606)">
            <circle cx="511.106" cy="457.542" r="6.54" style="fill:white;"/>
        </g>
        <g transform="matrix(0.595732,0,0,0.595732,428.249,-69.6117)">
            <circle cx="511.106" cy="457.542" r="6.54" style="fill:white;"/>
        </g>
        <g transform="matrix(0.595732,0,0,0.595732,323.505,-67.7766)">
            <circle cx="511.106" cy="457.542" r="6.54" style="fill:white;"/>
        </g>
        <g transform="matrix(0.595732,0,0,0.595732,307.354,-67.2689)">
            <circle cx="511.106" cy="457.542" r="6.54" style="fill:white;"/>
        </g>
        <g transform="matrix(0.595732,0,0,0.595732,376.503,-28.9099)">
            <circle cx="511.106" cy="457.542" r="6.54" style="fill:white;"/>
        </g>
        <g transform="matrix(0.595732,0,0,0.595732,304.712,-161.053)">
            <circle cx="511.106" cy="457.542" r="6.54" style="fill:white;"/>
        </g>
        <g transform="matrix(1,0,0,1,85.5827,33.5276)">
            <path d="M325.765,100.463C325.239,96.347 325.438,82.77 345.305,63.301C345.304,63.302 345.156,70.054 345.156,70.054C345.138,70.887 345.617,71.65 346.376,71.996C347.134,72.341 348.025,72.201 348.641,71.64C348.641,71.64 361.596,59.841 379.209,54.387C375.05,60.942 366.426,73.628 355.88,84.09C346.714,93.183 336.138,100.719 325.765,100.463Z" style="fill:white;"/>
        </g>
        <g transform="matrix(1,0,0,1,88.5827,29.5276)">
            <path d="M296.754,145.351C296.122,137.434 295.446,110.607 312.546,90.75C309.938,99.972 308.321,108.763 309.477,118.536C309.545,119.108 309.846,119.626 310.309,119.968C310.773,120.309 311.357,120.444 311.923,120.34C311.923,120.34 321.184,118.634 330.498,115.567C327.123,119.963 321.927,126.315 315.987,132.119C309.948,138.022 303.163,143.416 296.754,145.351Z" style="fill:white;"/>
        </g>
        <g transform="matrix(1,0,0,1,88.5827,29.5276)">
            <path d="M280.636,189.447C276.752,183.144 261.54,154.539 281.964,121.388C281.997,133.133 282.53,156.509 286.081,165C286.372,165.696 287.017,166.181 287.767,166.266C287.767,166.266 296.726,167.38 308.287,160.305C306.272,164.245 303.323,169.345 299.48,174.281C294.623,180.518 288.336,186.527 280.636,189.447Z" style="fill:white;"/>
        </g>
        <g transform="matrix(1,0,0,1,88.5827,29.5276)">
            <path d="M276.453,230.917C270.284,225.792 244.934,201.491 257.983,157.41C259.162,165.892 261.356,178.781 264.863,189.27C267.478,197.092 270.922,203.571 275.031,206.355C275.434,206.628 275.92,206.751 276.404,206.703C276.404,206.703 286.908,205.749 299.141,195.177C296.906,203.07 291.111,217.186 276.453,230.917Z" style="fill:white;"/>
        </g>
        <g transform="matrix(1,0,0,1,88.5827,29.5276)">
            <path d="M279.231,277.799C272.284,274.755 237.727,256.993 241.105,206.06C245.011,214.097 252.093,227.655 260.314,238.694C265.859,246.14 271.953,252.425 277.917,255.327C278.747,255.731 279.745,255.54 280.367,254.857C280.367,254.857 287.745,246.767 294.935,237.052C294.379,241.717 293.333,248.079 291.384,254.718C288.984,262.891 285.224,271.512 279.231,277.799Z" style="fill:white;"/>
        </g>
        <g transform="matrix(1,0,0,1,88.5827,29.5276)">
            <path d="M291.832,322.108C286.496,321.253 261.308,316.071 245.674,292.674C239.054,282.767 234.166,269.606 233.163,252.162C241.323,265.087 260.866,292.506 284.551,301.227C285.398,301.539 286.348,301.271 286.907,300.562C286.907,300.562 294.782,290.568 300.199,278.214C301.042,282.98 301.836,289.859 301.3,297.205C300.675,305.755 298.255,314.97 291.832,322.108Z" style="fill:white;"/>
        </g>
        <g transform="matrix(1,0,0,1,88.5827,29.5276)">
            <path d="M316.435,366.31C308.87,366.484 265.652,365.231 245.35,315.401C254.955,325.272 273.826,339.62 302.868,340.398C303.634,340.418 304.35,340.017 304.731,339.352C304.731,339.352 312.158,326.364 315.594,313.474C319.588,324.125 325.93,346.923 316.435,366.31Z" style="fill:white;"/>
        </g>
        <g transform="matrix(1,0,0,1,88.5827,29.5276)">
            <path d="M345.024,400.088C337.759,401.281 305.88,404.802 282.639,379.86C292.629,382.562 311.834,386.428 328.574,382.081C329.137,381.935 329.613,381.56 329.888,381.047C329.888,381.047 335.828,369.939 337.539,356.315C341.17,363.86 346.335,378.664 345.024,400.088Z" style="fill:white;"/>
        </g>
        <g transform="matrix(1,0,0,1,88.5827,29.5276)">
            <path d="M379.229,425.458C374.301,427.408 352.738,433.975 319.827,415.914C326.336,416.344 335.281,416.662 343.16,415.986C349.701,415.424 355.521,414.118 358.872,411.801C359.381,411.449 359.708,410.889 359.763,410.272C359.763,410.272 361.007,396.237 360.124,383.01C363.307,386.831 367.78,392.716 371.609,399.669C375.865,407.399 379.355,416.462 379.229,425.458Z" style="fill:white;"/>
        </g>
        <g transform="matrix(1,0,0,1,88.5827,27.5276)">
            <path d="M381.68,438.667C383.656,438.034 385.895,437.257 387.814,436.438C390.196,435.422 392.095,434.243 392.847,433.256C393.207,432.783 393.494,432.122 393.622,431.273C393.802,430.086 393.674,428.351 393.313,426.387C392.851,423.875 392.026,420.935 391.243,418.416C398.935,423.041 414.801,430.857 436.504,432.652C460.245,434.616 478.594,443.811 486.06,453.376C487.023,454.61 486.578,455.845 485.519,457.05C482.965,459.955 477.494,462.587 471.545,464.691C460.083,468.745 449.449,468.042 446.684,467.765C445.222,466.227 440.98,461.721 438.186,458.329C439.19,458.443 440.319,458.544 441.542,458.625C449.753,459.169 462.43,459.047 468.574,457.597C470.571,457.125 471.989,456.432 472.701,455.725C473.362,455.069 473.655,454.331 473.678,453.573C473.706,452.606 473.32,451.514 472.35,450.442C471.433,449.428 469.885,448.332 467.833,447.29C460.707,443.671 447.06,440.338 435.758,441.125C423.488,441.979 400.405,441.625 386.888,439.637C384.916,439.347 383.156,439.026 381.68,438.667Z" style="fill:white;"/>
        </g>
        <g transform="matrix(1,0,0,1,90.5827,33.5276)">
            <path d="M687.985,100.462C677.612,100.719 667.036,93.183 657.871,84.09C647.325,73.628 638.701,60.942 634.542,54.387C652.154,59.841 665.109,71.64 665.109,71.64C665.725,72.201 666.616,72.341 667.375,71.996C668.133,71.65 668.613,70.887 668.595,70.054L668.446,63.302C688.313,82.77 688.511,96.347 687.985,100.462Z" style="fill:white;"/>
        </g>
        <g transform="matrix(1,0,0,1,88.5827,29.5276)">
            <path d="M716.997,145.351C710.588,143.416 703.803,138.022 697.763,132.119C691.824,126.315 686.628,119.963 683.252,115.566C692.567,118.634 701.828,120.34 701.828,120.34C702.394,120.444 702.978,120.309 703.441,119.968C703.905,119.626 704.206,119.108 704.274,118.536C705.429,108.763 703.813,99.972 701.205,90.752C718.305,110.606 717.628,137.434 716.997,145.351Z" style="fill:white;"/>
        </g>
        <g transform="matrix(1,0,0,1,88.5827,29.5276)">
            <path d="M733.115,189.447C725.415,186.527 719.127,180.518 714.271,174.281C710.428,169.345 707.479,164.246 705.462,160.305C717.025,167.38 725.984,166.266 725.984,166.266C726.734,166.181 727.379,165.696 727.67,165C731.221,156.509 731.754,133.133 731.788,121.389C752.211,154.539 736.999,183.144 733.115,189.447Z" style="fill:white;"/>
        </g>
        <g transform="matrix(1,0,0,1,88.5827,29.5276)">
            <path d="M737.298,230.917C722.64,217.187 716.845,203.071 714.609,195.176C726.843,205.749 737.347,206.703 737.347,206.703C737.831,206.751 738.317,206.628 738.72,206.355C742.829,203.571 746.273,197.092 748.888,189.27C752.395,178.781 754.589,165.892 755.769,157.412C768.816,201.492 743.467,225.792 737.298,230.917Z" style="fill:white;"/>
        </g>
        <g transform="matrix(1,0,0,1,88.5827,29.5276)">
            <path d="M734.52,277.799C728.527,271.512 724.767,262.891 722.367,254.718C720.418,248.079 719.372,241.717 718.815,237.051C726.005,246.767 733.383,254.857 733.383,254.857C734.006,255.54 735.003,255.731 735.834,255.327C741.797,252.425 747.892,246.14 753.437,238.694C761.657,227.655 768.739,214.097 772.645,206.061C776.024,256.993 741.467,274.755 734.52,277.799Z" style="fill:white;"/>
        </g>
        <g transform="matrix(1,0,0,1,88.5827,29.5276)">
            <path d="M721.919,322.108C715.495,314.97 713.075,305.755 712.451,297.205C711.914,289.859 712.709,282.979 713.551,278.212C718.969,290.568 726.844,300.562 726.844,300.562C727.402,301.271 728.353,301.539 729.2,301.227C752.885,292.507 772.427,265.088 780.588,252.164C779.585,269.606 774.697,282.767 768.077,292.674C752.442,316.071 727.255,321.253 721.919,322.108Z" style="fill:white;"/>
        </g>
        <g transform="matrix(1,0,0,1,88.5827,29.5276)">
            <path d="M697.316,366.31C687.82,346.923 694.163,324.125 698.157,313.472C701.592,326.365 709.019,339.352 709.019,339.352C709.401,340.017 710.116,340.418 710.882,340.398C739.925,339.62 758.797,325.272 768.399,315.404C748.099,365.231 704.881,366.484 697.316,366.31Z" style="fill:white;"/>
        </g>
        <g transform="matrix(1,0,0,1,88.5827,29.5276)">
            <path d="M668.727,400.088C667.416,378.665 672.581,363.86 676.212,356.314C677.923,369.939 683.863,381.047 683.863,381.047C684.137,381.56 684.613,381.935 685.176,382.081C701.916,386.428 721.121,382.562 731.11,379.861C707.87,404.802 675.992,401.281 668.727,400.088Z" style="fill:white;"/>
        </g>
        <g transform="matrix(1,0,0,1,88.5827,29.5276)">
            <path d="M634.521,425.458C634.395,416.461 637.885,407.399 642.142,399.669C645.971,392.716 650.443,386.831 653.627,383.008C652.743,396.237 653.988,410.272 653.988,410.272C654.043,410.889 654.369,411.449 654.879,411.801C658.229,414.118 664.05,415.424 670.591,415.986C678.469,416.662 687.415,416.344 693.921,415.914C661.012,433.975 639.45,427.408 634.521,425.458Z" style="fill:white;"/>
        </g>
        <g transform="matrix(1,0,0,1,88.5827,27.5276)">
            <path d="M575.564,458.329C572.771,461.721 568.529,466.226 567.068,467.764C564.302,468.042 553.668,468.745 542.206,464.691C538.147,463.255 534.321,461.552 531.45,459.689C529.899,458.682 528.638,457.647 527.841,456.567C527.068,455.52 526.861,454.44 527.691,453.376C535.157,443.811 553.506,434.616 577.247,432.652C598.949,430.857 614.816,423.041 622.508,418.416C621.724,420.935 620.9,423.875 620.438,426.387C620.076,428.351 619.949,430.086 620.129,431.273C620.257,432.122 620.544,432.783 620.904,433.256C621.656,434.243 623.554,435.422 625.937,436.438C627.855,437.257 630.094,438.034 632.071,438.667C630.595,439.026 628.835,439.347 626.863,439.637C613.346,441.625 590.263,441.979 577.993,441.125C566.691,440.338 553.044,443.671 545.917,447.29C543.865,448.332 542.318,449.428 541.401,450.442C540.43,451.514 540.045,452.606 540.073,453.573C540.095,454.331 540.389,455.069 541.05,455.725C541.762,456.432 543.179,457.125 545.177,457.597C551.321,459.047 563.997,459.169 572.209,458.625C573.431,458.544 574.56,458.443 575.564,458.329Z" style="fill:white;"/>
        </g>
        <g transform="matrix(0.905671,0,0,0.905671,55.6128,32.7348)">
            <path d="M562.716,266.274L625.912,235.414C625.998,238.507 627.068,241.427 628.865,243.807L569.35,272.87C568.04,270.237 565.926,267.973 563.134,266.488C562.995,266.414 562.856,266.343 562.716,266.274ZM654.128,240.345L702.897,290.797C702.686,290.817 702.475,290.843 702.263,290.872C699.176,291.306 696.446,292.667 694.315,294.634L648.502,247.24C651,245.611 652.998,243.227 654.128,240.345ZM707.646,319.887L675.09,381.115C673.466,378.356 671.054,376.298 668.285,375.089L698.153,318.916C700.637,320.061 703.466,320.531 706.374,320.122C706.805,320.061 707.229,319.983 707.646,319.887ZM648.786,394.419L579.181,382.146C580.989,379.618 581.906,376.641 581.925,373.656L647.978,385.303C647.295,388.261 647.514,391.446 648.786,394.419ZM558.585,361.536L548.807,291.957C549.004,292.075 549.206,292.188 549.411,292.297C552.148,293.752 555.141,294.249 558.005,293.904L567.125,358.796C564.131,358.803 561.135,359.714 558.585,361.536ZM570.264,275.18L606.351,281.543L601.989,289.748L570.102,284.125C571.117,281.17 571.126,278.043 570.264,275.18ZM569.163,286.281L620.122,339.051L611.773,343.128L562.835,292.45C565.443,291.143 567.685,289.046 569.163,286.281ZM646.613,248.283L648.795,250.541L654.056,287.839L644.903,286.225L639.737,249.593C642.161,249.726 644.51,249.249 646.613,248.283ZM636.067,248.918L600.526,315.76L594.071,309.076L627.079,246.997L630.289,245.43C631.881,246.995 633.843,248.208 636.067,248.918ZM693.388,315.427L662.198,330.657L660.901,321.456L689.674,307.405C689.68,307.454 689.687,307.503 689.694,307.553C690.122,310.604 691.457,313.306 693.388,315.427ZM691.644,304.925L692.212,301.704C693.635,297.18 697.548,293.639 702.553,292.935C709.486,291.961 715.906,296.799 716.88,303.732C717.854,310.665 713.017,317.085 706.084,318.059C699.151,319.033 692.731,314.196 691.757,307.263C691.646,306.474 691.61,305.693 691.644,304.925ZM649.217,381.901L621.27,352.962L629.619,348.885L655.401,375.584L655.403,375.594C652.651,377.064 650.544,379.297 649.217,381.901ZM657.383,374.714L646.813,299.767L655.965,301.381L666.26,374.374C663.408,373.593 660.314,373.66 657.383,374.714ZM569.249,358.944L568.895,356.425L587.652,321.148L594.107,327.833L576.927,360.144L575.038,361.067C573.253,359.94 571.276,359.232 569.249,358.944ZM576.912,362.47L648.614,327.456L649.911,336.657L581.508,370.061C580.909,367.595 579.668,365.252 577.779,363.298C577.499,363.008 577.209,362.732 576.912,362.47ZM689.548,305.444L615.454,292.122L619.817,283.918L692.274,296.955C690.608,299.304 689.621,302.14 689.552,305.146C689.55,305.245 689.549,305.345 689.548,305.444ZM642.7,222.656C649.511,223.857 654.066,230.362 652.865,237.174C651.664,243.985 645.159,248.54 638.348,247.339C631.536,246.138 626.981,239.633 628.182,232.821C629.383,226.01 635.889,221.455 642.7,222.656ZM667.934,400.016C661.643,403.088 654.041,400.475 650.969,394.184C647.897,387.893 650.51,380.291 656.801,377.219C663.093,374.147 670.694,376.76 673.766,383.051C676.839,389.342 674.225,396.944 667.934,400.016ZM545.207,273.509C548.455,267.402 556.049,265.081 562.156,268.328C568.263,271.575 570.585,279.169 567.337,285.276C564.09,291.383 556.496,293.705 550.389,290.458C544.282,287.21 541.96,279.616 545.207,273.509ZM589.671,317.352C589.464,317.242 589.248,317.171 589.03,317.135L589.671,317.352ZM598.468,322.738C598.414,322.516 598.333,322.44 598.113,322.026C598.314,322.404 598.414,322.594 598.468,322.738ZM558.039,382.378C553.174,377.344 553.31,369.307 558.344,364.441C563.378,359.576 571.415,359.712 576.281,364.746C581.147,369.78 581.01,377.817 575.976,382.683C570.943,387.549 562.905,387.412 558.039,382.378Z" style="fill:white;"/>
        </g>
    </g>
    <g transform="matrix(0.65261,0,0,3.70972,-23.3924,527.671)">
        <path d="M131.984,13.269C131.984,14.615 129.892,15.653 125.709,16.382C121.526,17.112 115.198,17.477 106.725,17.477C98.252,17.477 91.96,17.15 87.848,16.496C83.737,15.842 81.681,14.804 81.681,13.382L81.681,5.948C78.893,5.697 75.425,5.527 71.277,5.439L71.706,4.76L101.738,4.76L101.094,5.439C97.019,5.565 93.801,5.734 91.441,5.948L91.441,13.382C91.441,14.489 92.746,15.285 95.356,15.769C97.966,16.254 102.077,16.496 107.69,16.496C113.303,16.496 117.612,16.219 120.615,15.665C123.618,15.112 125.119,14.313 125.119,13.269L125.119,5.948C122.474,5.697 119.006,5.527 114.716,5.439C114.787,5.288 114.966,5.062 115.252,4.76L142.387,4.76L141.851,5.439C137.632,5.565 134.343,5.734 131.984,5.948L131.984,13.269Z" style="fill:white;fill-rule:nonzero;"/>
        <path d="M202.665,17.345L198.053,17.345L161.586,7.628L161.586,16.137C163.946,16.376 167.414,16.546 171.99,16.647L171.561,17.345L144.318,17.345L144.962,16.647C149.109,16.559 152.398,16.389 154.829,16.137L154.829,5.948C152.04,5.697 148.537,5.527 144.318,5.439C144.604,5.137 144.783,4.911 144.854,4.76L161.908,4.76L195.693,13.741L195.693,5.948C193.191,5.709 189.758,5.54 185.397,5.439C185.468,5.288 185.647,5.062 185.933,4.76L213.068,4.76C212.782,5.062 212.604,5.288 212.532,5.439C208.599,5.514 205.31,5.684 202.665,5.948L202.665,17.345Z" style="fill:white;fill-rule:nonzero;"/>
        <path d="M216.822,17.345L217.466,16.647C221.613,16.559 224.902,16.389 227.333,16.137L227.333,5.948C224.545,5.697 221.041,5.527 216.822,5.439C217.108,5.137 217.287,4.911 217.359,4.76L247.068,4.76C246.997,4.911 246.818,5.137 246.532,5.439C242.671,5.527 239.417,5.697 236.772,5.948L236.772,16.137C239.131,16.376 242.599,16.546 247.175,16.647L246.639,17.345L216.822,17.345Z" style="fill:white;fill-rule:nonzero;"/>
        <path d="M258.437,7.929L255.863,7.948C254.934,7.948 254.219,7.942 253.718,7.929L253.718,4.684C263.156,4.734 273.971,4.76 286.163,4.76C298.354,4.76 305.88,4.734 308.74,4.684L308.74,7.929C308.239,7.942 307.471,7.948 306.434,7.948C305.397,7.948 304.593,7.942 304.021,7.929C303.52,7.024 302.233,6.301 300.159,5.76C295.512,5.672 290.793,5.621 286.002,5.609L286.002,16.137C288.504,16.376 292.008,16.546 296.513,16.647C296.227,16.948 296.048,17.181 295.976,17.345L266.16,17.345L266.803,16.647C271.022,16.559 274.275,16.389 276.563,16.137L276.563,5.609C271.058,5.621 266.374,5.665 262.513,5.741C259.939,6.37 258.58,7.099 258.437,7.929Z" style="fill:white;fill-rule:nonzero;"/>
        <path d="M365.585,7.628C364.655,7.69 363.833,7.722 363.118,7.722C362.403,7.722 361.688,7.709 360.973,7.684C360.043,6.854 358.542,6.212 356.468,5.76L336.304,5.76L336.304,10.477L348.424,10.382C351.213,10.37 353.215,9.948 354.43,9.118L357.863,9.118L357.863,12.854L354.43,12.854C354.073,12.552 353.715,12.326 353.358,12.175C353,12.024 352.375,11.87 351.481,11.713C350.587,11.555 349.532,11.47 348.317,11.458L336.304,11.345L336.304,16.25L359.15,16.25C361.295,15.722 362.832,15.011 363.762,14.118C364.62,14.093 365.263,14.081 365.692,14.081C366.121,14.081 366.908,14.093 368.052,14.118L367.087,17.345L316.355,17.345L316.998,16.647C321.789,16.546 325.078,16.376 326.866,16.137L326.866,5.948C324.149,5.697 320.645,5.527 316.355,5.439C316.641,5.137 316.82,4.911 316.891,4.76L364.727,4.76L365.585,7.628Z" style="fill:white;fill-rule:nonzero;"/>
        <path d="M402.588,4.76C415.101,4.76 424.468,5.263 430.689,6.269C436.909,7.275 440.02,8.876 440.02,11.071C440.02,13.266 436.892,14.86 430.635,15.854C424.379,16.848 414.815,17.345 401.944,17.345L379.099,17.345L379.635,16.647C383.997,16.546 387.25,16.382 389.396,16.156L389.396,5.948C386.893,5.709 383.425,5.54 378.992,5.439L379.528,4.76L402.588,4.76ZM404.089,5.703L398.941,5.703L398.941,16.345C400.157,16.395 401.766,16.42 403.768,16.42C412.348,16.42 418.748,16.015 422.966,15.203C427.185,14.392 429.294,13.008 429.294,11.052C429.294,9.096 427.221,7.716 423.074,6.911C418.926,6.106 412.598,5.703 404.089,5.703Z" style="fill:white;fill-rule:nonzero;"/>
        <path d="M521.855,7.628C520.926,7.69 520.014,7.722 519.12,7.722C518.227,7.722 517.601,7.709 517.243,7.684C516.385,6.904 514.705,6.263 512.202,5.76L492.575,5.76L492.575,10.628L504.695,10.533C507.483,10.521 509.485,10.093 510.701,9.25L514.133,9.25L514.133,12.986L510.701,12.986L510.594,12.873C509.45,12.055 507.447,11.634 504.587,11.609L492.575,11.496L492.575,16.137C494.791,16.376 498.259,16.546 502.979,16.647L502.549,17.345L472.625,17.345L473.269,16.647C478.06,16.546 481.349,16.376 483.136,16.137L483.136,5.948C480.348,5.697 476.844,5.527 472.625,5.439C472.911,5.137 473.09,4.911 473.162,4.76L520.997,4.76L521.855,7.628Z" style="fill:white;fill-rule:nonzero;"/>
        <path d="M579.451,7.628C578.522,7.69 577.699,7.722 576.984,7.722C576.269,7.722 575.554,7.709 574.839,7.684C573.91,6.854 572.408,6.212 570.335,5.76L550.171,5.76L550.171,10.477L562.29,10.382C565.079,10.37 567.081,9.948 568.297,9.118L571.729,9.118L571.729,12.854L568.297,12.854C567.939,12.552 567.582,12.326 567.224,12.175C566.867,12.024 566.241,11.87 565.347,11.713C564.453,11.555 563.399,11.47 562.183,11.458L550.171,11.345L550.171,16.25L573.016,16.25C575.161,15.722 576.698,15.011 577.628,14.118C578.486,14.093 579.13,14.081 579.559,14.081C579.988,14.081 580.774,14.093 581.918,14.118L580.953,17.345L530.221,17.345L530.865,16.647C535.656,16.546 538.945,16.376 540.732,16.137L540.732,5.948C538.015,5.697 534.511,5.527 530.221,5.439C530.507,5.137 530.686,4.911 530.758,4.76L578.593,4.76L579.451,7.628Z" style="fill:white;fill-rule:nonzero;"/>
        <path d="M616.454,4.76C628.967,4.76 638.334,5.263 644.555,6.269C650.776,7.275 653.886,8.876 653.886,11.071C653.886,13.266 650.758,14.86 644.501,15.854C638.245,16.848 628.681,17.345 615.811,17.345L592.965,17.345L593.502,16.647C597.863,16.546 601.117,16.382 603.262,16.156L603.262,5.948C600.759,5.709 597.291,5.54 592.858,5.439L593.394,4.76L616.454,4.76ZM617.956,5.703L612.808,5.703L612.808,16.345C614.023,16.395 615.632,16.42 617.634,16.42C626.214,16.42 632.614,16.015 636.833,15.203C641.051,14.392 643.161,13.008 643.161,11.052C643.161,9.096 641.087,7.716 636.94,6.911C632.793,6.106 626.465,5.703 617.956,5.703Z" style="fill:white;fill-rule:nonzero;"/>
        <path d="M712.126,7.628C711.196,7.69 710.374,7.722 709.659,7.722C708.944,7.722 708.229,7.709 707.514,7.684C706.584,6.854 705.083,6.212 703.009,5.76L682.845,5.76L682.845,10.477L694.965,10.382C697.753,10.37 699.756,9.948 700.971,9.118L704.403,9.118L704.403,12.854L700.971,12.854C700.614,12.552 700.256,12.326 699.899,12.175C699.541,12.024 698.915,11.87 698.022,11.713C697.128,11.555 696.073,11.47 694.858,11.458L682.845,11.345L682.845,16.25L705.69,16.25C707.835,15.722 709.373,15.011 710.302,14.118C711.16,14.093 711.804,14.081 712.233,14.081C712.662,14.081 713.448,14.093 714.592,14.118L713.627,17.345L662.896,17.345L663.539,16.647C668.33,16.546 671.619,16.376 673.407,16.137L673.407,5.948C670.689,5.697 667.186,5.527 662.896,5.439C663.182,5.137 663.36,4.911 663.432,4.76L711.268,4.76L712.126,7.628Z" style="fill:white;fill-rule:nonzero;"/>
        <path d="M753.419,4.76C769.793,4.76 777.98,5.867 777.98,8.08C777.98,9.741 773.046,10.779 763.179,11.194C765.61,11.47 767.827,12.011 769.829,12.816L778.302,16.137C780.447,16.389 783.45,16.552 787.311,16.628L786.668,17.345L770.472,17.345L761.141,13.137C759.425,12.37 757.852,11.901 756.422,11.731C754.992,11.562 751.989,11.477 747.412,11.477L745.267,11.477L745.267,16.137C747.269,16.364 750.737,16.533 755.671,16.647C755.385,16.948 755.206,17.181 755.135,17.345L725.425,17.345L725.962,16.647C730.109,16.559 733.398,16.389 735.829,16.137L735.829,5.948C733.326,5.697 729.823,5.527 725.318,5.439L725.854,4.76L753.419,4.76ZM753.312,5.533C750.88,5.533 748.199,5.577 745.267,5.665L745.267,10.609L748.592,10.609C761.749,10.609 768.327,9.753 768.327,8.043C768.327,6.37 763.322,5.533 753.312,5.533Z" style="fill:white;fill-rule:nonzero;"/>
        <path d="M789.242,17.345L789.778,16.647C792.996,16.559 795.534,16.395 797.393,16.156L817.45,4.76L823.885,4.76L845.98,16.175C847.767,16.401 850.127,16.559 853.059,16.647L852.63,17.345L825.816,17.345L826.352,16.647C830.499,16.559 833.788,16.389 836.22,16.137L830.75,13.288L809.084,13.288L804.15,16.137C806.51,16.376 809.978,16.546 814.554,16.647L814.125,17.345L789.242,17.345ZM819.488,7.382L810.8,12.307L828.926,12.307L819.488,7.382Z" style="fill:white;fill-rule:nonzero;"/>
        <path d="M857.349,7.929L854.775,7.948C853.845,7.948 853.13,7.942 852.63,7.929L852.63,4.684C862.068,4.734 872.883,4.76 885.074,4.76C897.265,4.76 904.791,4.734 907.651,4.684L907.651,7.929C907.151,7.942 906.382,7.948 905.345,7.948C904.309,7.948 903.504,7.942 902.932,7.929C902.432,7.024 901.145,6.301 899.071,5.76C894.423,5.672 889.704,5.621 884.913,5.609L884.913,16.137C887.416,16.376 890.92,16.546 895.424,16.647C895.138,16.948 894.96,17.181 894.888,17.345L865.071,17.345L865.715,16.647C869.933,16.559 873.187,16.389 875.475,16.137L875.475,5.609C869.969,5.621 865.286,5.665 861.424,5.741C858.85,6.37 857.492,7.099 857.349,7.929Z" style="fill:white;fill-rule:nonzero;"/>
        <path d="M914.087,17.345L914.73,16.647C918.877,16.559 922.167,16.389 924.598,16.137L924.598,5.948C921.809,5.697 918.305,5.527 914.087,5.439C914.373,5.137 914.551,4.911 914.623,4.76L944.333,4.76C944.261,4.911 944.082,5.137 943.796,5.439C939.935,5.527 936.682,5.697 934.036,5.948L934.036,16.137C936.396,16.376 939.864,16.546 944.44,16.647L943.904,17.345L914.087,17.345Z" style="fill:white;fill-rule:nonzero;"/>
        <path d="M966.427,14.854C967.643,15.408 969.537,15.829 972.112,16.118C974.686,16.408 977.725,16.552 981.228,16.552C984.732,16.552 987.61,16.452 989.862,16.25C992.115,16.049 993.902,15.788 995.225,15.467C996.548,15.147 997.585,14.735 998.335,14.231C999.086,13.728 999.587,13.235 999.837,12.75C1000.09,12.266 1000.21,11.703 1000.21,11.062C1000.21,10.42 1000.09,9.854 999.837,9.363C999.587,8.873 999.086,8.376 998.335,7.873C997.585,7.37 996.53,6.955 995.171,6.628C992.168,5.898 987.699,5.533 981.765,5.533C974.042,5.533 968.93,6.099 966.427,7.231C964.282,8.187 963.209,9.458 963.209,11.043C963.209,12.603 964.282,13.873 966.427,14.854ZM952.377,11.033C952.377,8.952 954.647,7.357 959.187,6.25C963.728,5.143 971.236,4.59 981.711,4.59C992.186,4.59 999.694,5.146 1004.23,6.26C1008.77,7.373 1011.05,8.97 1011.05,11.052C1011.05,13.134 1008.77,14.725 1004.23,15.826C999.694,16.926 992.186,17.477 981.711,17.477C971.236,17.477 963.728,16.923 959.187,15.816C954.647,14.709 952.377,13.115 952.377,11.033Z" style="fill:white;fill-rule:nonzero;"/>
        <path d="M1077.76,17.345L1073.15,17.345L1036.68,7.628L1036.68,16.137C1039.04,16.376 1042.51,16.546 1047.08,16.647L1046.65,17.345L1019.41,17.345L1020.06,16.647C1024.2,16.559 1027.49,16.389 1029.92,16.137L1029.92,5.948C1027.13,5.697 1023.63,5.527 1019.41,5.439C1019.7,5.137 1019.88,4.911 1019.95,4.76L1037,4.76L1070.79,13.741L1070.79,5.948C1068.28,5.709 1064.85,5.54 1060.49,5.439C1060.56,5.288 1060.74,5.062 1061.03,4.76L1088.16,4.76C1087.88,5.062 1087.7,5.288 1087.62,5.439C1083.69,5.514 1080.4,5.684 1077.76,5.948L1077.76,17.345Z" style="fill:white;fill-rule:nonzero;"/>
        <path d="M191.457,28.958C189.419,29.53 188.4,30.471 188.4,31.779C188.4,33.087 189.419,34.03 191.457,34.609C193.494,35.188 196.837,35.477 201.485,35.477C206.133,35.477 209.511,35.188 211.62,34.609C213.73,34.03 214.785,33.087 214.785,31.779C214.785,30.471 213.748,29.53 211.674,28.958C209.601,28.386 206.222,28.1 201.539,28.1C196.855,28.1 193.494,28.386 191.457,28.958ZM184.485,35.175C180.66,34.395 178.747,33.263 178.747,31.779C178.747,30.295 180.66,29.166 184.485,28.392C188.31,27.618 193.977,27.232 201.485,27.232C208.993,27.232 214.659,27.618 218.485,28.392C222.31,29.166 224.223,30.295 224.223,31.779C224.223,33.263 222.31,34.395 218.485,35.175C214.659,35.955 208.993,36.345 201.485,36.345C193.977,36.345 188.31,35.955 184.485,35.175Z" style="fill:white;fill-rule:nonzero;"/>
        <path d="M248.355,25.081L249.642,27.345L260.797,27.345L260.797,28.345L249.642,28.345L249.642,35.043C251.287,35.257 254.183,35.433 258.33,35.571L258.008,36.213L233.018,36.213L233.447,35.534C236.45,35.446 238.81,35.282 240.526,35.043L240.526,28.345L232.589,28.345L232.053,27.684C235.771,27.622 238.595,27.508 240.526,27.345L240.526,26.326C240.526,25.282 241.831,24.439 244.44,23.798C247.05,23.156 251.072,22.835 256.507,22.835C261.941,22.835 266.052,22.993 268.841,23.307L268.841,25.118L262.942,25.118C262.084,24.062 259.653,23.533 255.649,23.533C253.432,23.533 251.662,23.669 250.34,23.939C249.017,24.21 248.355,24.59 248.355,25.081Z" style="fill:white;fill-rule:nonzero;"/>
        <path d="M321.825,35.703C318.25,36.169 314.12,36.402 309.437,36.402C304.754,36.402 301.554,36.225 299.838,35.873C298.122,35.521 297.264,34.924 297.264,34.081L297.264,28.42L288.576,28.42L288.576,27.854C295.512,27.439 300.088,26.678 302.305,25.571L306.595,25.571L306.595,27.401L320.323,27.401L320.323,28.42L306.487,28.42L306.487,34.213C306.487,34.678 306.827,35.012 307.506,35.213C308.186,35.414 309.741,35.515 312.172,35.515C314.603,35.515 317.106,35.389 319.68,35.137L321.825,35.703Z" style="fill:white;fill-rule:nonzero;"/>
        <path d="M332.443,25.515C332.443,25.049 331.889,24.732 330.781,24.562C329.672,24.392 327.724,24.294 324.935,24.269L325.257,23.703C327.831,23.628 332.586,23.414 339.522,23.062L341.56,23.25L341.56,28.515C345.35,27.659 349.908,27.232 355.235,27.232C360.562,27.232 364.673,27.461 367.569,27.92C370.465,28.379 371.913,29.018 371.913,29.835L371.913,35.043C373.486,35.269 375.989,35.446 379.421,35.571L378.992,36.213L355.396,36.213L355.717,35.571C358.435,35.496 360.794,35.32 362.796,35.043L362.796,30.005C362.796,28.76 359.757,28.137 353.68,28.137C351.177,28.137 348.817,28.285 346.601,28.581C344.384,28.876 342.704,29.257 341.56,29.722L341.56,35.043C343.347,35.282 345.85,35.452 349.068,35.553L348.639,36.213L324.935,36.213L325.364,35.515C328.367,35.439 330.727,35.282 332.443,35.043L332.443,25.515Z" style="fill:white;fill-rule:nonzero;"/>
        <path d="M397.869,31.628L397.869,31.722C397.869,33.257 398.977,34.263 401.194,34.741C403.267,35.194 406.556,35.42 411.061,35.42C413.421,35.42 415.744,35.345 418.033,35.194C420.321,35.043 422.037,34.892 423.181,34.741L424.79,34.534L427.471,35.1C426.971,35.188 426.255,35.301 425.326,35.439C424.396,35.578 422.466,35.763 419.534,35.996C416.603,36.229 413.635,36.345 410.632,36.345C402.481,36.345 396.671,35.958 393.203,35.185C389.735,34.411 388.001,33.291 388.001,31.826C388.001,30.361 389.914,29.229 393.739,28.43C397.565,27.631 403.071,27.232 410.257,27.232C417.443,27.232 422.466,27.559 425.326,28.213C428.186,28.867 429.723,29.835 429.938,31.118L427.686,31.628L397.869,31.628ZM409.988,27.986C402.123,27.986 398.083,28.968 397.869,30.93L420.285,30.798C420.285,29.804 419.552,29.087 418.086,28.647C416.62,28.206 413.921,27.986 409.988,27.986Z" style="fill:white;fill-rule:nonzero;"/>
        <path d="M510.057,26.496C509.128,26.559 508.216,26.59 507.322,26.59C506.429,26.59 505.803,26.578 505.445,26.552C504.587,25.773 502.907,25.131 500.404,24.628L480.777,24.628L480.777,29.496L492.897,29.401C495.685,29.389 497.687,28.961 498.903,28.118L502.335,28.118L502.335,31.854L498.903,31.854L498.796,31.741C497.652,30.924 495.649,30.502 492.789,30.477L480.777,30.364L480.777,35.005C482.993,35.244 486.461,35.414 491.18,35.515L490.751,36.213L460.827,36.213L461.471,35.515C466.262,35.414 469.551,35.244 471.338,35.005L471.338,24.817C468.55,24.565 465.046,24.395 460.827,24.307C461.113,24.005 461.292,23.779 461.364,23.628L509.199,23.628L510.057,26.496Z" style="fill:white;fill-rule:nonzero;"/>
        <path d="M567.653,26.496C566.724,26.559 565.901,26.59 565.186,26.59C564.471,26.59 563.756,26.578 563.041,26.552C562.112,25.722 560.61,25.081 558.537,24.628L538.373,24.628L538.373,29.345L550.492,29.251C553.281,29.238 555.283,28.817 556.499,27.986L559.931,27.986L559.931,31.722L556.499,31.722C556.141,31.42 555.784,31.194 555.426,31.043C555.069,30.892 554.443,30.738 553.549,30.581C552.655,30.424 551.601,30.339 550.385,30.326L538.373,30.213L538.373,35.119L561.218,35.119C563.363,34.59 564.9,33.88 565.83,32.986C566.688,32.961 567.331,32.949 567.76,32.949C568.189,32.949 568.976,32.961 570.12,32.986L569.155,36.213L518.423,36.213L519.067,35.515C523.857,35.414 527.147,35.244 528.934,35.005L528.934,24.817C526.217,24.565 522.713,24.395 518.423,24.307C518.709,24.005 518.888,23.779 518.959,23.628L566.795,23.628L567.653,26.496Z" style="fill:white;fill-rule:nonzero;"/>
        <path d="M604.656,23.628C617.169,23.628 626.536,24.131 632.757,25.137C638.978,26.144 642.088,27.744 642.088,29.939C642.088,32.134 638.96,33.729 632.703,34.722C626.447,35.716 616.883,36.213 604.013,36.213L581.167,36.213L581.704,35.515C586.065,35.414 589.319,35.251 591.464,35.024L591.464,24.817C588.961,24.578 585.493,24.408 581.06,24.307L581.596,23.628L604.656,23.628ZM606.158,24.571L601.01,24.571L601.01,35.213C602.225,35.263 603.834,35.288 605.836,35.288C614.416,35.288 620.816,34.883 625.035,34.071C629.253,33.26 631.363,31.876 631.363,29.92C631.363,27.964 629.289,26.584 625.142,25.779C620.995,24.974 614.667,24.571 606.158,24.571Z" style="fill:white;fill-rule:nonzero;"/>
        <path d="M649.918,36.213L650.561,35.515C654.708,35.427 657.998,35.257 660.429,35.005L660.429,24.817C657.64,24.565 654.136,24.395 649.918,24.307C650.204,24.005 650.383,23.779 650.454,23.628L680.164,23.628C680.092,23.779 679.913,24.005 679.627,24.307C675.766,24.395 672.513,24.565 669.867,24.817L669.867,35.005C672.227,35.244 675.695,35.414 680.271,35.515L679.735,36.213L649.918,36.213Z" style="fill:white;fill-rule:nonzero;"/>
        <path d="M746.447,23.628L745.804,24.307C743.373,24.383 741.156,24.546 739.154,24.798L718.132,36.213L712.984,36.213L689.817,24.817C688.315,24.59 686.134,24.42 683.274,24.307L683.81,23.628L709.766,23.628L709.122,24.307C705.404,24.395 702.33,24.565 699.899,24.817L716.738,33.326L732.075,24.817C729.215,24.552 725.962,24.383 722.315,24.307C722.601,24.005 722.78,23.779 722.851,23.628L746.447,23.628Z" style="fill:white;fill-rule:nonzero;"/>
        <path d="M799.86,26.496C798.931,26.559 798.108,26.59 797.393,26.59C796.678,26.59 795.963,26.578 795.248,26.552C794.319,25.722 792.817,25.081 790.743,24.628L770.58,24.628L770.58,29.345L782.699,29.251C785.488,29.238 787.49,28.817 788.706,27.986L792.138,27.986L792.138,31.722L788.706,31.722C788.348,31.42 787.991,31.194 787.633,31.043C787.276,30.892 786.65,30.738 785.756,30.581C784.862,30.424 783.808,30.339 782.592,30.326L770.58,30.213L770.58,35.119L793.425,35.119C795.57,34.59 797.107,33.88 798.037,32.986C798.895,32.961 799.538,32.949 799.967,32.949C800.396,32.949 801.183,32.961 802.327,32.986L801.362,36.213L750.63,36.213L751.274,35.515C756.064,35.414 759.354,35.244 761.141,35.005L761.141,24.817C758.424,24.565 754.92,24.395 750.63,24.307C750.916,24.005 751.095,23.779 751.166,23.628L799.002,23.628L799.86,26.496Z" style="fill:white;fill-rule:nonzero;"/>
        <path d="M841.153,23.628C857.528,23.628 865.715,24.735 865.715,26.949C865.715,28.609 860.781,29.647 850.913,30.062C853.345,30.339 855.561,30.879 857.563,31.685L866.036,35.005C868.182,35.257 871.185,35.42 875.046,35.496L874.402,36.213L858.207,36.213L848.876,32.005C847.16,31.238 845.586,30.769 844.156,30.6C842.726,30.43 839.723,30.345 835.147,30.345L833.002,30.345L833.002,35.005C835.004,35.232 838.472,35.402 843.406,35.515C843.12,35.817 842.941,36.049 842.869,36.213L813.16,36.213L813.696,35.515C817.843,35.427 821.132,35.257 823.563,35.005L823.563,24.817C821.061,24.565 817.557,24.395 813.053,24.307L813.589,23.628L841.153,23.628ZM841.046,24.401C838.615,24.401 835.934,24.445 833.002,24.533L833.002,29.477L836.327,29.477C849.483,29.477 856.062,28.622 856.062,26.911C856.062,25.238 851.056,24.401 841.046,24.401Z" style="fill:white;fill-rule:nonzero;"/>
        <path d="M915.159,26.835C914.087,25.955 912.514,25.332 910.44,24.967C908.366,24.603 905.453,24.42 901.699,24.42C897.945,24.42 894.924,24.593 892.636,24.939C890.348,25.285 889.204,25.728 889.204,26.269C889.204,26.81 890.383,27.288 892.743,27.703C895.103,28.118 897.963,28.474 901.323,28.769C904.684,29.065 908.045,29.373 911.405,29.694C914.766,30.015 917.626,30.446 919.986,30.986C922.345,31.527 923.525,32.163 923.525,32.892C923.525,33.949 921.308,34.788 916.875,35.411C912.442,36.034 906.472,36.345 898.964,36.345C895.889,36.345 892.368,36.244 888.399,36.043C884.431,35.842 881.481,35.615 879.551,35.364L879.551,32.269C881.124,32.207 882.875,32.175 884.806,32.175C885.664,33.383 886.951,34.314 888.667,34.968C891.956,35.257 895.728,35.402 899.983,35.402C904.237,35.402 907.598,35.2 910.065,34.798C912.531,34.395 913.765,33.895 913.765,33.298C913.765,32.7 912.603,32.197 910.279,31.788C907.955,31.379 905.149,31.034 901.86,30.751C898.57,30.468 895.281,30.169 891.992,29.854C888.703,29.54 885.896,29.115 883.573,28.581C881.249,28.046 880.087,27.414 880.087,26.684C880.087,25.728 882.071,24.952 886.039,24.354C890.008,23.757 895.174,23.458 901.538,23.458C909.689,23.458 916.303,23.741 921.38,24.307L919.771,26.835C918.913,26.873 918.091,26.892 917.304,26.892C916.518,26.892 915.803,26.873 915.159,26.835Z" style="fill:white;fill-rule:nonzero;"/>
        <path d="M979.727,26.496C978.797,26.559 977.975,26.59 977.26,26.59C976.545,26.59 975.83,26.578 975.115,26.552C974.185,25.722 972.684,25.081 970.61,24.628L950.446,24.628L950.446,29.345L962.566,29.251C965.355,29.238 967.357,28.817 968.572,27.986L972.004,27.986L972.004,31.722L968.572,31.722C968.215,31.42 967.857,31.194 967.5,31.043C967.142,30.892 966.516,30.738 965.623,30.581C964.729,30.424 963.674,30.339 962.459,30.326L950.446,30.213L950.446,35.119L973.291,35.119C975.436,34.59 976.974,33.88 977.903,32.986C978.761,32.961 979.405,32.949 979.834,32.949C980.263,32.949 981.049,32.961 982.194,32.986L981.228,36.213L930.497,36.213L931.14,35.515C935.931,35.414 939.22,35.244 941.008,35.005L941.008,24.817C938.291,24.565 934.787,24.395 930.497,24.307C930.783,24.005 930.961,23.779 931.033,23.628L978.869,23.628L979.727,26.496Z" style="fill:white;fill-rule:nonzero;"/>
    </g>
</svg>
