<?xml version="1.0" encoding="UTF-8" standalone="no"?>
<!-- Creator: CorelDRAW -->

<svg
   xml:space="preserve"
   width="3.7cm"
   height="3.7cm"
   style="clip-rule:evenodd;fill-rule:evenodd;image-rendering:optimizeQuality;shape-rendering:geometricPrecision;text-rendering:geometricPrecision"
   viewBox="0 0 36.999999 36.999999"
   version="1.1"
   id="svg32"
   sodipodi:docname="Jira_Nein_Danke print.svg"
   inkscape:version="1.2.2 (b0a8486541, 2022-12-01)"
   inkscape:export-filename="JIRA_Nein_Danke print.svg.png"
   inkscape:export-xdpi="96"
   inkscape:export-ydpi="96"
   xmlns:inkscape="http://www.inkscape.org/namespaces/inkscape"
   xmlns:sodipodi="http://sodipodi.sourceforge.net/DTD/sodipodi-0.dtd"
   xmlns:xlink="http://www.w3.org/1999/xlink"
   xmlns="http://www.w3.org/2000/svg"
   xmlns:svg="http://www.w3.org/2000/svg"
   xmlns:rdf="http://www.w3.org/1999/02/22-rdf-syntax-ns#"
   xmlns:cc="http://creativecommons.org/ns#"
   xmlns:dc="http://purl.org/dc/elements/1.1/"><metadata
   id="metadata36"><rdf:RDF><cc:Work
       rdf:about=""><dc:format>image/svg+xml</dc:format><dc:type
         rdf:resource="http://purl.org/dc/dcmitype/StillImage" /><dc:title /></cc:Work></rdf:RDF></metadata><sodipodi:namedview
   pagecolor="#ffffff"
   bordercolor="#666666"
   borderopacity="1"
   objecttolerance="10"
   gridtolerance="10"
   guidetolerance="10"
   inkscape:pageopacity="0"
   inkscape:pageshadow="2"
   inkscape:window-width="1920"
   inkscape:window-height="919"
   id="namedview34"
   showgrid="false"
   inkscape:zoom="1.8403283"
   inkscape:cx="18.746655"
   inkscape:cy="109.76302"
   inkscape:window-x="0"
   inkscape:window-y="0"
   inkscape:window-maximized="1"
   inkscape:current-layer="g841"
   showguides="true"
   inkscape:guide-bbox="true"
   inkscape:snap-global="false"
   units="cm"
   inkscape:showpageshadow="2"
   inkscape:pagecheckerboard="0"
   inkscape:deskcolor="#d1d1d1"
   inkscape:document-units="cm" />
 <defs
   id="defs4">
  <style
   type="text/css"
   id="style2">
   <![CDATA[
    .fil1 {fill:#1F1A17}
    .fil2 {fill:#DE411A}
    .fil0 {fill:#FACF00}
    .fil3 {fill:#1F1A17;fill-rule:nonzero}
   ]]>
  </style>
 
    
    
    
    
    
    
    
    
    
    
   <path
   inkscape:connector-curvature="0"
   id="path833"
   d="M 39.326675,62.01092 A 65.908504,65.908504 0 0 1 129.78989,39.554947 65.908504,65.908504 0 0 1 152.24585,130.01816 65.908504,65.908504 0 0 1 61.78265,152.47412 65.908504,65.908504 0 0 1 39.326675,62.01092 Z"
   style="fill:#ff0000;fill-opacity:0;stroke:#ffffff;stroke-width:0;stroke-miterlimit:4;stroke-dasharray:none;stroke-opacity:1" /><linearGradient
   id="linearGradient8019"
   spreadMethod="pad"
   gradientTransform="matrix(1.5697812,0,0,1.5697812,-0.00505,-0.0021)"
   gradientUnits="userSpaceOnUse"
   y2="44.671875"
   x2="54.390625"
   y1="57.471561"
   x1="41.590939"><stop
     id="stop8021"
     offset="0"
     style="stop-opacity:1;stop-color:#0052cc" /><stop
     id="stop8023"
     offset="1"
     style="stop-opacity:1;stop-color:#2684ff" /></linearGradient><linearGradient
   id="linearGradient8009"
   spreadMethod="pad"
   gradientTransform="matrix(1.5697812,0,0,1.5697812,-0.00505,-0.0021)"
   gradientUnits="userSpaceOnUse"
   y2="30.988281"
   x2="19"
   y1="18.166172"
   x1="31.825312"><stop
     id="stop8011"
     offset="0"
     style="stop-opacity:1;stop-color:#0052cc" /><stop
     id="stop8013"
     offset="1"
     style="stop-opacity:1;stop-color:#2684ff" /></linearGradient></defs>
 <g
   id="Ebene_x0020_1"
   transform="translate(0,-154.93502)"
   inkscape:label="Ebene 1">
  <metadata
   id="CorelCorpID_0Corel-Layer" />
  <g
   id="_81132720">
   
   
   
   
   
   
   
  <g
   id="g5843"
   transform="translate(0.10166049,-0.10166049)">

<rect
   style="fill:#ffffff;fill-opacity:1;stroke:#ffffff;stroke-width:0;stroke-miterlimit:4;stroke-dasharray:none;stroke-opacity:1"
   id="rect843"
   width="37"
   height="36.999996"
   x="0.11399445"
   y="155.03668" /><g
   style="clip-rule:evenodd;fill-rule:evenodd;image-rendering:optimizeQuality;shape-rendering:geometricPrecision;text-rendering:geometricPrecision"
   id="g841"
   transform="matrix(0.14588265,0,0,0.14588265,4.3983395,159.53669)"><path
   inkscape:connector-curvature="0"
   id="_78721264"
   class="fil0"
   d="M 0,95.9772 C 0,42.9775 42.9612,0.0043 95.9618,0 h 0.0158 c 52.9925,0.0043 95.9575,42.9774 95.9575,95.9773 1e-4,52.4434 -42.0664,95.0614 -94.2879,95.9577 H 94.2919 C 42.0626,191.0387 0,148.4207 0,95.9772 Z"
   style="fill:#ffffff;fill-opacity:1" /><path
   inkscape:connector-curvature="0"
   id="path4554"
   d="M 34.385683,72.973082 A 66.073952,66.073952 0 0 1 119.35273,34.086882 66.073952,66.073952 0 0 1 158.23892,119.05394 66.073952,66.073952 0 0 1 73.271867,157.94013 66.073952,66.073952 0 0 1 34.385683,72.973082 Z"
   style="fill:#ff0000;fill-opacity:0;stroke-width:0.28798187" /><path
   inkscape:connector-curvature="0"
   id="_83477624"
   class="fil3"
   d="m 28.9798,115.403 c 1.0217,-0.4763 1.8748,-0.5693 2.559,-0.2787 0.6844,0.2907 1.274,0.967 1.7691,2.0287 0.2428,0.5208 0.3622,1.0384 0.3582,1.5525 -0.0042,0.5141 -0.1713,1.0188 -0.5013,1.5142 l -9.89151,15.112 0.028,0.0602 12.8314,-5.9833 c 0.8013,-0.3738 1.4954,-0.4414 2.0821,-0.2029 0.5868,0.2386 1.053,0.7285 1.3987,1.4697 0.3457,0.7413 0.4213,1.4134 0.2269,2.0162 -0.1945,0.6028 -0.6925,1.0912 -1.4938,1.4648 l -16.9782,7.9171 c -0.981601,0.4577 -1.843,0.585 -2.584,0.3818 -0.7412,-0.2032 -1.3545,-0.8257 -1.8403,-1.8674 -0.1868,-0.4008 -0.3233,-0.7455 -0.4093,-1.0347 -0.0861,-0.2892 -0.1207,-0.5596 -0.1039,-0.8113 0.0167,-0.2517 0.0753,-0.4924 0.1754,-0.722 0.1002,-0.2297 0.2332,-0.4807 0.3989,-0.7531 l 9.5288,-14.8698 -0.028,-0.0601 -12.4707,5.8151 c -0.8013,0.3737 -1.4955,0.4413 -2.0822,0.2028 -0.5868,-0.2386 -1.053,-0.7285 -1.3986,-1.4696 -0.3457,-0.7414 -0.4213,-1.4134 -0.2268,-2.0162 0.1943,-0.6029 0.6924,-1.0912 1.4936,-1.4648 l 17.1585,-8.0012 z m 28.6983,38.4149 c 0.5118,-1.0044 1.1267,-1.6029 1.8449,-1.795 0.7182,-0.1924 1.5992,-0.0225 2.643,0.5093 0.5121,0.2609 0.9248,0.5952 1.2381,1.0029 0.3132,0.4078 0.4923,0.9084 0.5372,1.5018 l 1.5093,17.9983 0.0592,0.0301 6.4274,-12.6147 c 0.4015,-0.7877 0.9067,-1.2684 1.516,-1.4416 0.6093,-0.1734 1.2782,-0.0744 2.007,0.297 0.7287,0.3712 1.202,0.8543 1.42,1.449 0.2179,0.5948 0.1262,1.2861 -0.2752,2.074 l -8.5048,16.6915 c -0.4917,0.9651 -1.0921,1.5956 -1.8013,1.8917 -0.709,0.2963 -1.5756,0.1834 -2.5997,-0.3385 -0.394,-0.2007 -0.7138,-0.3885 -0.9596,-0.5633 -0.2459,-0.1749 -0.4396,-0.3667 -0.5813,-0.5754 -0.1418,-0.2086 -0.2439,-0.4344 -0.3064,-0.6769 -0.0624,-0.2427 -0.1121,-0.5224 -0.1493,-0.8389 l -1.6459,-17.5843 -0.0591,-0.03 -6.2469,12.2601 c -0.4013,0.7878 -0.9067,1.2684 -1.516,1.4417 -0.6092,0.1733 -1.2783,0.0742 -2.0069,-0.297 -0.7288,-0.3713 -1.2021,-0.8543 -1.42,-1.4491 -0.218,-0.5947 -0.1262,-1.2862 0.2752,-2.0739 z m -4.9303,-4.6374 c 0.4978,-0.6489 1.091,-1.0226 1.7795,-1.1211 0.6886,-0.0986 1.366,0.1079 2.0325,0.6192 0.6665,0.5114 1.0411,1.1122 1.1242,1.8029 0.083,0.6906 -0.1245,1.3603 -0.6223,2.0091 L 45.3144,167.8 c -0.4979,0.6489 -1.0911,1.0226 -1.7797,1.1211 -0.6886,0.0986 -1.366,-0.1078 -2.0323,-0.6192 -0.6665,-0.5113 -1.0411,-1.1123 -1.1242,-1.8029 -0.083,-0.6906 0.1244,-1.3603 0.6223,-2.0092 z M 38.408,135.5043 c 0.9134,-0.8023 1.73,-1.1371 2.4498,-1.0044 0.7196,0.1327 1.4004,0.5643 2.0423,1.2949 l 8.4252,9.5901 c 0.5251,0.5978 0.847,1.1903 0.965701,1.7775 0.1186,0.5872 -0.1458,1.1653 -0.7935,1.7343 -0.6477,0.569 -1.2549,0.7567 -1.822,0.5634 -0.567,-0.1933 -1.113,-0.5888 -1.6384,-1.1866 l -6.9368,-7.8962 -3.8859,3.4138 6.0835,6.9247 c 0.4669,0.5314 0.7606,1.0751 0.8813,1.6312 0.1207,0.556 -0.1345,1.1111 -0.7656,1.6656 -0.631,0.5543 -1.2145,0.7358 -1.7502,0.5446 -0.5359,-0.1913 -1.0372,-0.5527 -1.504,-1.0841 l -6.0836,-6.9248 -4.3343,3.8079 7.1121,8.0954 c 0.5252,0.5977 0.8472,1.1903 0.965801,1.7775 0.1187,0.5871 -0.1458,1.1652 -0.7934,1.7343 -0.6477,0.5689 -1.2551,0.7566 -1.822,0.5634 -0.5671,-0.1934 -1.1132,-0.5888 -1.6383,-1.1867 l -8.6002,-9.78931 c -0.6419,-0.7306 -0.982301,-1.4613 -1.0211,-2.1921 -0.0389,-0.7309 0.3983,-1.4976 1.3116,-2.3 l 13.152,-11.5544 z"
   style="fill:#000000;fill-opacity:1;fill-rule:nonzero" /><path
   inkscape:connector-curvature="0"
   id="_82549976"
   class="fil3"
   d="m 92.9802,181.566 h 4.5756 c 1.0831,0 1.9894,-0.2212 2.7188,-0.6632 0.7295,-0.4421 1.3209,-1.0223 1.774,-1.7407 0.4531,-0.7184 0.7736,-1.5252 0.9614,-2.4204 0.1879,-0.8952 0.2819,-1.807 0.2819,-2.7354 0,-2.3431 -0.4642,-4.1888 -1.3926,-5.5372 -0.9283,-1.3484 -2.387299,-2.0226 -4.376599,-2.0225 h -4.5424 z m -5.4376,-16.3131 c 0,-1.2156 0.2873,-2.0501 0.8622,-2.5032 0.5746,-0.4531 1.3483,-0.6798 2.3209,-0.6797 h 6.6312 c 1.481,0 2.9067,0.1823 4.2772,0.547 1.3705,0.3647 2.5807,1.0003 3.6306,1.9066 1.0499,0.9062 1.8899,2.1274 2.5199,3.6637 0.6299,1.5362 0.9449,3.4759 0.9449,5.819 0,1.901 -0.2597,3.5864 -0.7791,5.0563 -0.5194,1.4699 -1.2655,2.7188 -2.2381,3.7467 -0.9725,1.0279 -2.1718,1.807 -3.5974,2.3375 -1.4258,0.5305 -3.0449,0.7957 -4.8575,0.7958 h -6.5318 c -0.972601,0 -1.7462,-0.2266 -2.3208,-0.6798 -0.5749,-0.453 -0.8622,-1.2876 -0.8621,-2.5032 z m 28.1331,-0.6118 -0.0638,0.0183 -0.4504,10.0974 6.1194,-1.7546 z m -4.3252,-3.1749 c 0.0631,-0.6619 0.2683,-1.1691 0.6156,-1.5217 0.3474,-0.3526 0.8398,-0.6202 1.4772,-0.8029 l 1.243,-0.3565 c 0.5949,-0.1706 1.1703,-0.2092 1.726,-0.1155 0.5557,0.0935 1.0981,0.5015 1.627,1.2235 l 11.3464,15.752 c 0.1793,0.2245 0.3838,0.5166 0.6134,0.8761 0.2295,0.3596 0.387,0.6881 0.4723,0.9856 0.1828,0.6374 0.0991,1.2478 -0.251,1.8311 -0.3502,0.5833 -0.8652,0.9724 -1.5451,1.1673 -0.5737,0.1645 -1.0944,0.1932 -1.5621,0.0859 -0.4676,-0.1074 -0.8703,-0.3886 -1.2077,-0.8438 l -2.4354,-3.4408 -8.4142,2.4127 -0.2737,4.2178 c -0.0238,0.5586 -0.1949,1.0044 -0.5134,1.3371 -0.3185,0.3328 -0.7859,0.5875 -1.402,0.7642 -0.7225,0.2071 -1.3662,0.1676 -1.9312,-0.1188 -0.565,-0.2863 -0.9481,-0.7802 -1.1491,-1.4814 -0.0853,-0.2975 -0.1259,-0.6595 -0.1217,-1.0861 0.004,-0.4265 0.0227,-0.7826 0.0559,-1.0681 z m 11.4969,-1.0023 c -0.5974,-0.9559 -0.7935,-1.7914 -0.5884,-2.5059 0.2049,-0.7147 0.8043,-1.3823 1.7978,-2.0032 0.4874,-0.3045 0.9865,-0.4861 1.4973,-0.5446 0.5108,-0.0585 1.0321,0.0458 1.564,0.313 l 16.2049,7.9761 0.0563,-0.0352 -7.5025,-12.0066 c -0.4686,-0.7498 -0.6203,-1.4304 -0.4551,-2.0419 0.1653,-0.6115 0.5947,-1.1339 1.2883,-1.5674 0.6937,-0.4333 1.3514,-0.5903 1.9735,-0.4707 0.622,0.1194 1.1674,0.5542 1.636,1.304 l 9.92721,15.8868 c 0.5739,0.9185 0.8051,1.7579 0.6938,2.5183 -0.1113,0.7603 -0.6545,1.4449 -1.6292,2.054 -0.375,0.2344 -0.7006,0.4117 -0.9771,0.5324 -0.2766,0.1207 -0.5407,0.188 -0.7926,0.202 -0.2518,0.0141 -0.4979,-0.0147 -0.738,-0.0861 -0.2402,-0.0715 -0.5056,-0.1728 -0.796,-0.3041 l -15.9203,-7.6456 -0.0563,0.0351 7.2916,11.669 c 0.4686,0.7498 0.6202,1.4305 0.455,2.0421 -0.1652,0.6114 -0.5947,1.1339 -1.2882,1.5673 -0.6936,0.4334 -1.3514,0.5903 -1.9735,0.4707 -0.622,-0.1194 -1.1674,-0.5542 -1.6359,-1.304 l -10.0326,-16.0555 z m 19.1074,-12.9893 c -0.6172,-0.5365 -0.9541,-1.1515 -1.0103,-1.8447 -0.0563,-0.6934 0.1911,-1.3569 0.7422,-1.9909 0.551,-0.634 1.1737,-0.9713 1.8681,-1.0119 0.6944,-0.0408 1.3501,0.2071 1.9674,0.7437 l 5.9555,5.1771 -1.4944,-12.6338 c -0.0472,-0.4511 -0.0533,-0.8737 -0.0181,-1.2678 0.0351,-0.3943 0.2122,-0.7748 0.5312,-1.1419 0.4206,-0.4837 0.9545,-0.8031 1.6017,-0.9579 0.6472,-0.1551 1.2294,-0.008 1.7466,0.4418 0.317,0.2756 0.5257,0.5743 0.6266,0.8963 0.1009,0.3219 0.1634,0.6544 0.1873,0.9975 l 0.7747,8.0541 11.9109,1.6114 c 0.4432,0.0631 0.8707,0.1272 1.2826,0.1923 0.4119,0.0652 0.7513,0.2138 1.0183,0.4459 0.3837,0.3336 0.6462,0.6716 0.7878,1.0142 0.1414,0.3427 0.2002,0.6793 0.1763,1.0101 -0.0239,0.3306 -0.1113,0.6501 -0.262,0.9584 -0.1508,0.3082 -0.335,0.5874 -0.5525,0.8377 -0.3626,0.417 -0.727,0.6933 -1.0936,0.8286 -0.3666,0.1353 -0.8901,0.1562 -1.5703,0.0627 l -11.4182,-1.6223 0.2944,4.2099 4.0788,3.5457 c 0.6173,0.5366 0.9541,1.1515 1.0104,1.8448 0.0564,0.6933 -0.191,1.3568 -0.7421,1.9908 -0.5511,0.6339 -1.1738,0.9713 -1.8683,1.012 -0.6943,0.0407 -1.35,-0.2072 -1.9673,-0.7438 z m 13.4092,-15.232 c -1.1018,-0.5138 -1.7366,-1.1269 -1.9044,-1.8393 -0.1677,-0.7123 -0.0462,-1.5092 0.3648,-2.3907 l 5.3948,-11.5692 c 0.3364,-0.7212 0.7495,-1.2541 1.2394,-1.5988 0.4901,-0.3447 1.1256,-0.3348 1.907,0.0295 0.7813,0.3643 1.1974,0.8449 1.2483,1.4419 0.0509,0.5968 -0.0918,1.2558 -0.4281,1.9771 l -4.442,9.5257 4.6879,2.186 3.8954,-8.3539 c 0.2989,-0.6411 0.6787,-1.1285 1.1394,-1.4625 0.4605,-0.334 1.0714,-0.3235 1.8328,0.0314 0.7612,0.3551 1.162,0.8164 1.2022,1.3838 0.0402,0.5676 -0.0892,1.1718 -0.3882,1.813 l -3.8954,8.3537 5.2288,2.4382 4.554,-9.76621 c 0.3363,-0.721 0.7494,-1.254 1.2395,-1.5987 0.4899,-0.3447 1.1255,-0.3349 1.9069,0.0295 0.7812,0.3642 1.1973,0.8449 1.2483,1.4418 0.0508,0.5969 -0.0919,1.2559 -0.4281,1.9771 l -5.5069,11.8096 c -0.4111,0.8815 -0.9434,1.4868 -1.5969,1.8162 -0.6535,0.3293 -1.5314,0.2372 -2.6332,-0.2765 l -15.8663,-7.3987 z"
   style="fill:#000000;fill-opacity:1;fill-rule:nonzero" /><path
   inkscape:connector-curvature="0"
   id="path858"
   d="M 39.326675,62.01092 A 65.908504,65.908504 0 0 1 129.78989,39.554947 65.908504,65.908504 0 0 1 152.24585,130.01816 65.908504,65.908504 0 0 1 61.78265,152.47412 65.908504,65.908504 0 0 1 39.326675,62.01092 Z"
   style="fill:#ff0000;fill-opacity:0;stroke:#ffffff;stroke-width:0;stroke-miterlimit:4;stroke-dasharray:none;stroke-opacity:1" /><text
   id="text837"
   style="font-style:normal;font-variant:normal;font-weight:500;font-stretch:normal;font-size:33.4854px;line-height:1.25;font-family:'AG Book Rounded';-inkscape-font-specification:'AG Book Rounded, Medium';font-variant-ligatures:normal;font-variant-caps:normal;font-variant-numeric:normal;font-feature-settings:normal;text-align:start;letter-spacing:-1.56369px;word-spacing:0px;writing-mode:lr-tb;text-anchor:start;fill:#000000;fill-opacity:0.972574;stroke:none;stroke-width:0.837135"
   xml:space="preserve"><textPath
     id="textPath840"
     xlink:href="#path833"
     style="font-style:normal;font-variant:normal;font-weight:normal;font-stretch:normal;font-family:'AG Book Rounded';-inkscape-font-specification:'AG Book Rounded'">    JIRA?</textPath></text>
<g
   id="g433"
   transform="matrix(0.17868413,0,0,0.17868413,7.2677388,71.69425)"><path
     id="path7981"
     d="m 552.76455,6.6995 c -14.79,0 -21.9785,8.7153 -21.9785,21.5528 v 7.539 h -11.1915 v 10.9864 h 11.2364 v 58.082 h 11.5996 v -58.082 h 17.8183 V 35.7913 h -17.8183 l -0.1074,-7.1933 c 0,-6.215 3.6725,-10.502 10.9863,-10.502 2.505,-0.01 5.0008,0.2259 7.457,0.6934 V 7.7991 c -2.6025,-0.7425 -5.2969,-1.1146 -8.0019,-1.0996 z M 205.78795,9.262 c -1.9481,0.071 -3.8093,0.8742 -5.1973,2.2676 -1.5925,1.5863 -2.4121,3.792 -2.2558,6.0332 0,2.9638 1.577,5.7049 4.1445,7.1836 2.5638,1.485 5.7273,1.485 8.291,0 2.5638,-1.4787 4.1476,-4.2198 4.1426,-7.1836 0.16,-2.2412 -0.6607,-4.4469 -2.2519,-6.0332 -1.5875,-1.5925 -3.794,-2.4132 -6.0352,-2.2519 -0.2808,-0.02 -0.5596,-0.026 -0.8379,-0.016 z m 198.1289,3.4688 c -21.1475,0 -31.916,10.4538 -31.916,24.5801 0,14.9162 9.1525,21.9612 29.5625,26.9375 17.265,4.145 22.2402,8.413 22.2402,16.4355 0,8.0225 -5.1666,13.4082 -18.8379,13.4082 -12.0075,0 -24.9904,-3.1739 -33.4179,-7.5976 v 12.7011 c 7.0462,3.5938 15.1941,7.045 32.7441,7.045 22.5238,0 31.9153,-10.6443 32.0078,-26.3868 0,-16.3575 -10.7817,-22.5108 -29.9804,-27.3496 -16.0113,-3.9987 -21.8223,-7.7371 -21.8223,-15.1933 0,-8.2863 7.0497,-12.4317 18.9297,-12.4317 9.8637,-0.24 19.6153,2.142 28.2578,6.9082 V 19.3519 c -6.2163,-3.4813 -14.6426,-6.6211 -27.7676,-6.6211 z m -232.375,1.3945 0.031,63.9356 c 0,9.0587 -3.6294,15.3379 -14.1269,15.3379 -4.395,0.034 -8.7506,-0.7661 -12.8418,-2.3536 v 12.084 c 4.7987,1.6363 9.8433,2.4319 14.9121,2.3594 17.1437,0 24.459,-11.5391 24.459,-28.2578 V 14.1253 h -12.4336 z m 406.3399,7.0176 v 14.707 h -11.1973 v 10.9922 h 11.2402 v 36.4492 c 0,12.8563 7.1935,21.5528 21.9785,21.5528 2.71,0.015 5.4034,-0.3571 8.0059,-1.0996 v -11.459 c -2.4463,0.5712 -4.9451,0.8989 -7.4551,0.9726 -7.3187,0 -10.9128,-4.1419 -10.9765,-10.2207 V 46.7777 h 18.3691 V 35.7913 h -18.3691 V 21.1429 Z m 308.5195,13.2187 c -21.0013,0 -32.6016,14.9104 -32.6016,35.7754 0,21.1913 11.3182,36.1036 37.1582,36.1036 7.045,0 15.7601,-1.0688 21.4239,-4.125 V 91.1234 c -6.7288,2.465 -13.8363,3.7313 -21,3.7363 -16.2988,0 -23.8967,-7.5981 -25.5567,-19.3418 h 50.4043 V 70.137 c 0,-20.9912 -8.5531,-35.7754 -29.8281,-35.7754 z m -586.2656,0.049 c -19.34,0 -29.0079,16.4347 -29.0079,35.9122 0,20.3125 9.262,35.9179 27.627,35.9179 10.63,0 18.917,-4.6912 23.3457,-13.8125 l 0.014,12.4317 h 11.8848 V 35.7915 h -11.8848 v 12.1484 c -4.16,-8.98 -11.8998,-13.5293 -21.9785,-13.5293 z m 179.4453,0 c -20.7225,0 -32.8731,15.054 -32.8731,35.7715 0,20.7225 12.2918,36.1074 32.8731,36.1074 20.5812,0 32.6015,-15.3849 32.6015,-36.1074 0,-20.7175 -11.884,-35.7715 -32.6015,-35.7715 z m 281.664,0 c -19.3412,0 -29.0078,16.4347 -29.0078,35.9122 0,20.3125 9.262,35.9179 27.627,35.9179 10.6287,0 18.915,-4.6912 23.3437,-13.8125 l 0.014,12.4317 h 11.8867 V 35.7915 h -11.8867 v 12.1484 c -4.16,-8.98 -11.899,-13.5293 -21.9765,-13.5293 z m -497.2597,0.3262 c -11.8818,-0.016 -18.2543,5.5625 -22.0078,13.2031 V 35.7915 h -11.6016 v 69.1152 h 11.6016 V 64.0923 c 0,-14.6288 9.262,-19.2433 24.457,-17.6758 V 34.8149 c -0.842,-0.052 -1.6571,-0.077 -2.4492,-0.078 z m 582.6699,0 c -11.8818,-0.016 -18.2524,5.5625 -22.0059,13.2031 V 35.7915 h -11.6035 v 69.1152 h 11.6035 V 64.0923 c 0,-14.6288 9.2621,-19.2433 24.4571,-17.6758 V 34.8149 c -0.842,-0.052 -1.6591,-0.077 -2.4512,-0.078 z m -235.4199,1.0547 25.414,69.0684 h 15.1953 l 12.0411,-33.418 6.2812,-21.2754 6.2774,21.2754 11.8867,33.418 h 15.1933 l 25.416,-69.0684 h -13.125 l -19.9082,58.5645 -20.1699,-58.5645 h -11.334 l -20.1562,58.5645 -19.8867,-58.5645 z m -410.6836,0.016 v 69.0664 h 11.8789 V 35.8075 Z m 685.2676,9.4473 c 11.87,0 17.6766,7.3286 18.3691,20.1699 h -38.5039 v -0.076 c 1.24,-11.9775 7.596,-20.1563 20.1348,-20.0938 z m -582.5586,0.1426 c 10.1425,0 18.8398,6.7672 18.8398,22.1035 v 5.5859 c 0,15.33 -9.5226,22.0988 -20.1562,22.1055 -12.31,0 -18.9324,-8.2924 -18.9961,-24.9336 0,-16.025 6.905,-24.8613 20.3125,-24.8613 z m 461.1093,0 c 10.1413,0 18.8379,6.7672 18.8379,22.1035 v 5.5859 c 0,15.3281 -9.5204,22.0971 -20.1562,22.1055 -12.3088,0 -18.9785,-8.2917 -18.9785,-24.8692 0,-16.025 6.9518,-24.7995 20.2968,-24.9257 z m -284.789,0.125 c 14.6437,0 21,11.5401 21,24.6601 0,13.125 -6.23,25.0098 -21,25.0098 -14.77,0 -21.2715,-11.8848 -21.2715,-25.0098 h 0.059 c 0,-13.12 6.5641,-24.6601 21.2129,-24.6601 z"
     style="fill:#253858;fill-opacity:1;fill-rule:nonzero;stroke:none" /><path
     id="path8005"
     style="fill:#2684ff;fill-opacity:1;fill-rule:nonzero;stroke:none"
     d="M 113.64745,56.1338 62.46995,4.9563 57.50995,0 1.37625,56.1338 c -1.835,1.84 -1.835,4.8187 0,6.655 l 35.1962,35.195 20.9375,20.9425 56.1375,-56.1375 c 1.8363,-1.8363 1.8363,-4.815 0,-6.655 z M 57.50995,77.0413 39.93125,59.4638 57.50995,41.88 75.09245,59.4638 Z" /><path
     d="M 57.50995,41.88 C 46.00125,30.3663 45.94245,11.7188 57.38745,0.1375 l -38.4762,38.4613 20.9425,20.9425 z"
     style="fill:url(#linearGradient8009);fill-opacity:1;fill-rule:nonzero;stroke:none"
     id="path8015" /><path
     d="m 75.14125,59.4138 -17.6313,17.6275 c 5.5563,5.5512 8.6813,13.0862 8.6813,20.9425 0,7.8562 -3.125,15.3862 -8.6813,20.9425 l 38.5688,-38.57 z"
     style="fill:url(#linearGradient8019);fill-opacity:1;fill-rule:nonzero;stroke:none"
     id="path8025" /></g></g></g></g>
 </g>
<style
   id="style1793"
   type="text/css">
	.st0{fill:#4285F4;}
	.st1{fill:#34A853;}
	.st2{fill:#FBBC04;}
	.st3{fill:#EA4335;}
</style></svg>
