<?xml version="1.0" encoding="UTF-8" standalone="no"?>
<!-- Created with Inkscape (http://www.inkscape.org/) -->

<svg
   width="107mm"
   height="37mm"
   viewBox="0 0 107 37"
   version="1.1"
   id="svg5"
   xmlns="http://www.w3.org/2000/svg"
   xmlns:svg="http://www.w3.org/2000/svg">
  <defs
     id="defs2" />
  <g
     id="layer1"
     transform="translate(-24.116819,-18.748808)">
    <rect
       style="fill:#f5f300;fill-opacity:1;stroke-width:0.0672751;stroke-dasharray:0.0672751, 0.134549"
       id="rect78035"
       width="107"
       height="37"
       x="24.116819"
       y="18.748808" />
    <g
       id="g323"
       transform="matrix(1.1461844,0,0,1.1461844,-7.8798149,-0.83500009)">
      <g
         aria-label="CYBERPUNK"
         id="text21772"
         style="font-size:13.2999px;line-height:1.25;stroke-width:0.332499">
        <path
           d="m 32.817428,29.234388 c 0,0.545295 0.132999,0.970892 0.319197,1.369889 0.425597,0.930993 0.891094,1.808787 1.35659,2.69988 0.305898,0.598495 0.970893,1.117192 1.795487,1.117192 h 2.473781 c 0.372397,0 0.678295,-0.305898 0.678295,-0.678295 0,-0.359098 -0.305898,-0.664995 -0.678295,-0.664995 h -2.473781 c -0.265998,0 -0.492097,-0.172899 -0.585196,-0.372398 l -1.36989,-2.699879 c -0.106399,-0.226099 -0.172898,-0.465497 -0.172898,-0.771394 0,-0.305898 0.0665,-0.545296 0.172898,-0.771395 l 1.36989,-2.699879 c 0.0931,-0.199499 0.319198,-0.372398 0.585196,-0.372398 h 2.473781 c 0.372397,0 0.678295,-0.305897 0.678295,-0.678294 0,-0.359098 -0.305898,-0.664995 -0.678295,-0.664995 h -2.473781 c -0.824594,0 -1.529489,0.492096 -1.808787,1.103891 l -1.34329,2.71318 c -0.186198,0.385697 -0.319197,0.824594 -0.319197,1.36989 z"
           style="font-family:OCRA;-inkscape-font-specification:'OCRA, Normal'"
           id="path1052" />
        <path
           d="m 42.43325,26.082311 2.63338,3.378175 v 4.282568 c 0,0.372397 0.305897,0.678295 0.678295,0.678295 0.359097,0 0.664995,-0.305898 0.664995,-0.678295 v -4.282568 l 2.64668,-3.378175 v -1.369889 c 0,-0.359098 -0.305898,-0.664995 -0.678295,-0.664995 -0.372397,0 -0.678295,0.305897 -0.678295,0.664995 v 0.904393 l -1.955085,2.526981 -1.968386,-2.526981 v -0.904393 c 0,-0.359098 -0.305897,-0.664995 -0.678294,-0.664995 -0.372398,0 -0.664995,0.305897 -0.664995,0.664995 z"
           style="font-family:OCRA;-inkscape-font-specification:'OCRA, Normal'"
           id="path1054" />
        <path
           d="m 52.049071,34.421349 h 3.936771 c 1.462989,0 2.68658,-1.236891 2.68658,-2.68658 v -0.492097 c 0,-0.784694 -0.372398,-1.516188 -0.930993,-2.008284 0.558595,-0.492097 0.930993,-1.223591 0.930993,-2.008285 v -0.492097 c 0,-1.449689 -1.223591,-2.686579 -2.68658,-2.686579 h -3.936771 z m 1.34329,-1.34329 v -3.178676 h 2.593481 c 0.718194,0 1.34329,0.625095 1.34329,1.343289 v 0.492097 c 0,0.718194 -0.625096,1.34329 -1.34329,1.34329 z m 0,-4.521966 v -3.165377 h 2.593481 c 0.718194,0 1.34329,0.625096 1.34329,1.34329 v 0.492097 c 0,0.718194 -0.625096,1.32999 -1.34329,1.32999 z"
           style="font-family:OCRA;-inkscape-font-specification:'OCRA, Normal'"
           id="path1056" />
        <path
           d="m 61.664893,34.421349 h 5.945056 c 0.372397,0 0.678294,-0.305898 0.678294,-0.678295 0,-0.359098 -0.305897,-0.664995 -0.678294,-0.664995 h -4.601766 v -3.178676 h 1.968385 c 0.359098,0 0.664995,-0.292598 0.664995,-0.664995 0,-0.372398 -0.305897,-0.678295 -0.664995,-0.678295 h -1.968385 v -3.165377 h 4.601766 c 0.372397,0 0.678294,-0.305897 0.678294,-0.678294 0,-0.359098 -0.305897,-0.664995 -0.678294,-0.664995 h -5.945056 z"
           style="font-family:OCRA;-inkscape-font-specification:'OCRA, Normal'"
           id="path1058" />
        <path
           d="m 71.280715,33.743054 c 0,0.372397 0.292598,0.678295 0.664995,0.678295 0.372397,0 0.678295,-0.305898 0.678295,-0.678295 v -4.960863 h 0.917693 l 3.098877,5.30666 c 0.119699,0.199499 0.332497,0.332498 0.585195,0.332498 0.372398,0 0.678295,-0.305898 0.678295,-0.678295 0,-0.119699 -0.0399,-0.226099 -0.0931,-0.332498 l -2.69988,-4.628365 h 0.771394 c 1.090592,0 2.021585,-0.930993 2.021585,-2.021585 v -0.691595 c 0,-1.103891 -0.917693,-2.021584 -2.021585,-2.021584 h -4.601765 z m 1.34329,-6.304153 v -2.048185 h 3.258475 c 0.359098,0 0.678295,0.305898 0.678295,0.678295 v 0.691595 c 0,0.359097 -0.319197,0.678295 -0.678295,0.678295 z"
           style="font-family:OCRA;-inkscape-font-specification:'OCRA, Normal'"
           id="path1060" />
        <path
           d="m 80.896537,33.743054 c 0,0.372397 0.292598,0.678295 0.664995,0.678295 0.372397,0 0.678295,-0.305898 0.678295,-0.678295 v -3.271776 h 3.258475 c 1.103892,0 2.021585,-0.917693 2.021585,-2.021585 v -2.393982 c 0,-1.090591 -0.917693,-2.008284 -2.021585,-2.008284 h -4.601765 z m 1.34329,-4.615066 v -3.737272 h 3.258475 c 0.345798,0 0.678295,0.305898 0.678295,0.664995 v 2.393982 c 0,0.372398 -0.319197,0.678295 -0.678295,0.678295 z"
           style="font-family:OCRA;-inkscape-font-specification:'OCRA, Normal'"
           id="path1062" />
        <path
           d="m 90.512359,32.413064 c 0,1.090591 0.904393,2.008285 2.008285,2.008285 h 2.59348 c 1.103892,0 2.021585,-0.917694 2.021585,-2.008285 v -7.700642 c 0,-0.359098 -0.305898,-0.664995 -0.678295,-0.664995 -0.372397,0 -0.664995,0.305897 -0.664995,0.664995 v 7.700642 c 0,0.359097 -0.332497,0.664995 -0.678295,0.664995 h -2.59348 c -0.359098,0 -0.664995,-0.292598 -0.664995,-0.664995 v -7.700642 c 0,-0.359098 -0.305898,-0.664995 -0.678295,-0.664995 -0.372398,0 -0.664995,0.305897 -0.664995,0.664995 z"
           style="font-family:OCRA;-inkscape-font-specification:'OCRA, Normal'"
           id="path1064" />
        <path
           d="m 100.12818,33.743054 c 0,0.372397 0.2926,0.678295 0.665,0.678295 0.37239,0 0.67829,-0.305898 0.67829,-0.678295 v -7.301645 l 3.49787,7.97994 h 1.78219 v -9.708927 c 0,-0.359098 -0.3059,-0.664995 -0.67829,-0.664995 -0.3724,0 -0.665,0.305897 -0.665,0.664995 v 7.341544 l -3.51117,-8.006539 h -1.76889 z"
           style="font-family:OCRA;-inkscape-font-specification:'OCRA, Normal'"
           id="path1066" />
        <path
           d="m 109.744,33.743054 c 0,0.372397 0.2926,0.678295 0.665,0.678295 0.37239,0 0.67829,-0.305898 0.67829,-0.678295 v -3.045677 l 4.16287,3.564373 c 0.1197,0.0931 0.266,0.159599 0.4389,0.159599 0.37239,0 0.67829,-0.305898 0.67829,-0.678295 0,-0.199499 -0.0931,-0.385697 -0.2394,-0.505397 l -4.68156,-4.003269 4.68156,-4.00327 c 0.1463,-0.119699 0.2394,-0.305898 0.2394,-0.518696 0,-0.359098 -0.3059,-0.664995 -0.67829,-0.664995 -0.1729,0 -0.3192,0.0665 -0.4389,0.159598 l -4.16287,3.564374 v -3.058977 c 0,-0.359098 -0.3059,-0.664995 -0.67829,-0.664995 -0.3724,0 -0.665,0.305897 -0.665,0.664995 z"
           style="font-family:OCRA;-inkscape-font-specification:'OCRA, Normal'"
           id="path1068" />
      </g>
      <g
         aria-label="high tech low life"
         id="text21772-8"
         style="font-size:4.57114px;line-height:1.25;stroke-width:0.11428">
        <path
           d="m 45.362253,41.203559 c 0,0.127992 0.100565,0.233128 0.228557,0.233128 0.127992,0 0.233128,-0.105136 0.233128,-0.233128 v -1.421624 l 0.745096,-0.47997 h 0.324551 c 0.123421,0 0.214844,0.100565 0.223986,0.214844 l 0.05943,1.695893 c 0,0.12342 0.105136,0.223985 0.228557,0.223985 0.127992,0 0.228557,-0.105136 0.228557,-0.233128 l -0.05485,-1.700464 C 47.565543,39.141975 47.268419,38.84028 46.893585,38.84028 H 46.63303 c -0.150847,0 -0.269697,0.04571 -0.370262,0.109707 l -0.43883,0.27884 v -1.129072 c 0,-0.12342 -0.105136,-0.228557 -0.233128,-0.228557 -0.127992,0 -0.228557,0.105137 -0.228557,0.228557 z"
           style="font-family:OCRA;-inkscape-font-specification:'OCRA, Normal'"
           id="path1071" />
        <path
           d="m 48.891171,41.203559 c 0,0.127992 0.105137,0.233128 0.233128,0.233128 h 1.357629 c 0.127992,0 0.233128,-0.105136 0.233128,-0.233128 0,-0.12342 -0.105136,-0.228557 -0.233128,-0.228557 h -0.447972 v -1.901594 c 0,-0.127992 -0.105136,-0.233128 -0.228557,-0.233128 h -0.6811 c -0.127991,0 -0.233128,0.105136 -0.233128,0.233128 0,0.127992 0.105137,0.228557 0.233128,0.228557 h 0.452543 v 1.673037 h -0.452543 c -0.127991,0 -0.233128,0.105137 -0.233128,0.228557 z m 0.452543,-3.103804 c 0,0.127992 0.105136,0.233129 0.233128,0.233129 h 0.228557 c 0.123421,0 0.228557,-0.105137 0.228557,-0.233129 v -0.191987 c 0,-0.127992 -0.105136,-0.228557 -0.228557,-0.228557 h -0.228557 c -0.127992,0 -0.233128,0.100565 -0.233128,0.228557 z"
           style="font-family:OCRA;-inkscape-font-specification:'OCRA, Normal'"
           id="path1073" />
        <path
           d="m 51.972118,40.412752 c 0,0.233128 0.105136,0.406832 0.237699,0.52111 0.15999,0.137134 0.31998,0.310838 0.612533,0.310838 h 0.342835 c 0.283411,0 0.461685,-0.15999 0.621675,-0.310838 v 0.644531 c 0,0.06857 -0.03657,0.137134 -0.08228,0.169132 -0.08228,0.06857 -0.169133,0.196559 -0.310838,0.196559 h -0.96451 c -0.127992,0 -0.233129,0.105136 -0.233129,0.233128 0,0.127992 0.105137,0.228557 0.233129,0.228557 h 0.96451 c 0.187417,0 0.338264,-0.06857 0.443401,-0.164561 0.191988,-0.15999 0.411402,-0.31998 0.411402,-0.662815 v -2.504985 c 0,-0.127992 -0.105136,-0.233128 -0.233128,-0.233128 -0.127992,0 -0.228557,0.105136 -0.228557,0.233128 v 0.08228 C 53.622299,39.013983 53.46688,38.84028 53.165185,38.84028 H 52.82235 c -0.187417,0 -0.338265,0.07314 -0.443401,0.164561 -0.191988,0.15999 -0.406831,0.310838 -0.406831,0.662815 z m 0.457114,0 v -0.745096 c 0,-0.07771 0.03657,-0.127992 0.08228,-0.173703 0.09142,-0.064 0.15999,-0.191988 0.310838,-0.191988 h 0.342835 c 0.064,0 0.114279,0.02286 0.146277,0.05485 l 0.393118,0.338264 c 0.04114,0.03657 0.08228,0.100565 0.08228,0.169132 v 0.356549 c 0,0.07314 -0.03657,0.132563 -0.08228,0.169132 l -0.393118,0.338265 c -0.032,0.032 -0.08228,0.05485 -0.146277,0.05485 H 52.82235 c -0.15999,0 -0.393118,-0.205701 -0.393118,-0.370262 z"
           style="font-family:OCRA;-inkscape-font-specification:'OCRA, Normal'"
           id="path1075" />
        <path
           d="m 55.27705,41.203559 c 0,0.127992 0.100565,0.233128 0.228557,0.233128 0.127992,0 0.233128,-0.105136 0.233128,-0.233128 v -1.421624 l 0.745096,-0.47997 h 0.324551 c 0.123421,0 0.214844,0.100565 0.223986,0.214844 l 0.05943,1.695893 c 0,0.12342 0.105136,0.223985 0.228557,0.223985 0.127992,0 0.228557,-0.105136 0.228557,-0.233128 l -0.05485,-1.700464 C 57.48034,39.141975 57.183215,38.84028 56.808382,38.84028 h -0.260555 c -0.150848,0 -0.269697,0.04571 -0.370262,0.109707 l -0.43883,0.27884 v -1.129072 c 0,-0.12342 -0.105136,-0.228557 -0.233128,-0.228557 -0.127992,0 -0.228557,0.105137 -0.228557,0.228557 z"
           style="font-family:OCRA;-inkscape-font-specification:'OCRA, Normal'"
           id="path1077" />
        <path
           d="m 61.886913,39.073408 c 0,0.127992 0.100566,0.228557 0.228557,0.228557 h 0.223986 v 1.449051 c 0,0.370263 0.310838,0.685671 0.6811,0.685671 h 0.457114 c 0.342836,0 0.626246,-0.269697 0.685671,-0.580534 v -0.03657 c 0,-0.127992 -0.105136,-0.233129 -0.233128,-0.233129 -0.27884,0 -0.173703,0.388547 -0.452543,0.388547 h -0.457114 c -0.118849,0 -0.219415,-0.100565 -0.219415,-0.223986 v -1.449051 h 0.900515 c 0.127992,0 0.228557,-0.100565 0.228557,-0.228557 0,-0.127992 -0.100565,-0.233128 -0.228557,-0.233128 h -0.900515 v -0.543966 c 0,-0.127991 -0.105136,-0.233128 -0.233128,-0.233128 -0.127992,0 -0.228557,0.105137 -0.228557,0.233128 V 38.84028 H 62.11547 c -0.127991,0 -0.228557,0.105136 -0.228557,0.233128 z"
           style="font-family:OCRA;-inkscape-font-specification:'OCRA, Normal'"
           id="path1079" />
        <path
           d="m 65.191847,40.609311 c 0,0.233128 0.105136,0.40226 0.237699,0.52111 0.164561,0.137134 0.315409,0.306266 0.612533,0.306266 h 1.193068 c 0.127991,0 0.233128,-0.105136 0.233128,-0.233128 0,-0.12342 -0.105137,-0.228557 -0.233128,-0.228557 h -1.193068 c -0.064,0 -0.105136,-0.02286 -0.146276,-0.05485 -0.08685,-0.07771 -0.242271,-0.150848 -0.242271,-0.310838 v -0.141705 h 1.581615 c 0.127991,0 0.233128,-0.105136 0.233128,-0.233128 v -0.566822 c 0,-0.233128 -0.109708,-0.406831 -0.242271,-0.52111 -0.15999,-0.141705 -0.31998,-0.306266 -0.612532,-0.306266 h -0.571393 c -0.187417,0 -0.338264,0.07314 -0.443401,0.164561 -0.191987,0.15999 -0.406831,0.31998 -0.406831,0.662815 z m 0.461685,-0.60339 v -0.338265 c 0,-0.07771 0.032,-0.132563 0.07771,-0.169132 0.08228,-0.06857 0.169132,-0.196559 0.310837,-0.196559 h 0.571393 c 0.155418,0 0.393118,0.20113 0.393118,0.365691 v 0.338265 z"
           style="font-family:OCRA;-inkscape-font-specification:'OCRA, Normal'"
           id="path1081" />
        <path
           d="m 68.496779,40.412752 c 0,0.233128 0.105136,0.406832 0.237699,0.52111 l 0.393118,0.338264 c 0.109707,0.09599 0.255984,0.164561 0.447972,0.164561 h 0.96451 c 0.127992,0 0.233128,-0.105136 0.233128,-0.233128 0,-0.12342 -0.105136,-0.228557 -0.233128,-0.228557 h -0.96451 c -0.064,0 -0.114279,-0.02286 -0.146277,-0.05485 l -0.393118,-0.333694 c -0.04571,-0.04114 -0.07771,-0.09599 -0.07771,-0.173703 v -0.548537 c 0,-0.07314 0.02743,-0.137134 0.07771,-0.169132 l 0.393118,-0.338264 c 0.032,-0.032 0.08228,-0.05485 0.146277,-0.05485 h 0.96451 c 0.127992,0 0.233128,-0.100565 0.233128,-0.228557 0,-0.127992 -0.105136,-0.233128 -0.233128,-0.233128 h -0.96451 c -0.402261,0 -0.617104,0.310838 -0.84109,0.502825 -0.137134,0.109708 -0.237699,0.287982 -0.237699,0.52111 z"
           style="font-family:OCRA;-inkscape-font-specification:'OCRA, Normal'"
           id="path1083" />
        <path
           d="m 71.80171,41.203559 c 0,0.127992 0.100565,0.233128 0.228557,0.233128 0.127992,0 0.233128,-0.105136 0.233128,-0.233128 v -1.421624 l 0.745096,-0.47997 h 0.324551 c 0.123421,0 0.214844,0.100565 0.223986,0.214844 l 0.05943,1.695893 c 0,0.12342 0.105136,0.223985 0.228557,0.223985 0.127992,0 0.228557,-0.105136 0.228557,-0.233128 l -0.05485,-1.700464 C 74.005,39.141975 73.707876,38.84028 73.333042,38.84028 h -0.260555 c -0.150847,0 -0.269697,0.04571 -0.370262,0.109707 l -0.43883,0.27884 v -1.129072 c 0,-0.12342 -0.105136,-0.228557 -0.233128,-0.228557 -0.127992,0 -0.228557,0.105137 -0.228557,0.228557 z"
           style="font-family:OCRA;-inkscape-font-specification:'OCRA, Normal'"
           id="path1085" />
        <path
           d="m 78.635559,41.203559 c 0,0.127992 0.105137,0.233128 0.233129,0.233128 h 1.357628 c 0.127992,0 0.233128,-0.105136 0.233128,-0.233128 0,-0.12342 -0.105136,-0.228557 -0.233128,-0.228557 h -0.447972 v -2.875247 c 0,-0.12342 -0.105136,-0.228557 -0.228557,-0.228557 h -0.681099 c -0.127992,0 -0.233129,0.105137 -0.233129,0.228557 0,0.127992 0.105137,0.233129 0.233129,0.233129 h 0.447971 v 2.642118 h -0.447971 c -0.127992,0 -0.233129,0.105137 -0.233129,0.228557 z"
           style="font-family:OCRA;-inkscape-font-specification:'OCRA, Normal'"
           id="path1087" />
        <path
           d="m 81.716505,40.609311 c 0,0.228557 0.100565,0.406832 0.237699,0.52111 0.164562,0.137134 0.315409,0.306266 0.612533,0.306266 h 0.571393 c 0.187416,0 0.338264,-0.06857 0.4434,-0.164561 0.191988,-0.159989 0.411403,-0.319979 0.411403,-0.662815 v -0.941655 c 0,-0.228557 -0.109707,-0.406831 -0.242271,-0.52111 C 83.590673,39.009412 83.430683,38.84028 83.13813,38.84028 h -0.571393 c -0.187416,0 -0.338264,0.07314 -0.4434,0.164561 -0.191988,0.15999 -0.406832,0.31998 -0.406832,0.662815 z m 0.461685,0 v -0.941655 c 0,-0.07771 0.032,-0.132563 0.07771,-0.169132 0.08228,-0.06857 0.169132,-0.196559 0.310837,-0.196559 h 0.571393 c 0.155418,0 0.393118,0.20113 0.393118,0.365691 v 0.941655 c 0,0.07314 -0.03657,0.132563 -0.08228,0.169132 -0.08228,0.06857 -0.169132,0.196559 -0.310837,0.196559 h -0.571393 c -0.064,0 -0.105136,-0.02286 -0.146276,-0.05485 -0.08685,-0.07771 -0.242271,-0.150848 -0.242271,-0.310838 z"
           style="font-family:OCRA;-inkscape-font-specification:'OCRA, Normal'"
           id="path1089" />
        <path
           d="m 84.971158,39.077979 0.04571,1.3622 0.237699,0.831947 c 0.02743,0.09599 0.118849,0.164561 0.223986,0.164561 h 0.223986 c 0.08685,0 0.159989,-0.04571 0.20113,-0.114278 l 0.255983,-0.434258 0.251413,0.434258 c 0.04114,0.06857 0.114279,0.114278 0.20113,0.114278 h 0.223986 c 0.105136,0 0.196559,-0.06857 0.223986,-0.164561 l 0.233128,-0.777093 0.05028,-1.417054 v -0.0091 c 0,-0.123421 -0.109708,-0.228557 -0.233128,-0.228557 -0.123421,0 -0.223986,0.100565 -0.228557,0.223986 l -0.04571,1.330202 -0.146276,0.493683 -0.301696,-0.52111 v -0.52111 c 0,-0.123421 -0.105136,-0.228557 -0.228557,-0.228557 -0.127991,0 -0.233128,0.105136 -0.233128,0.228557 v 0.52111 l -0.301695,0.52111 -0.146276,-0.493683 -0.04571,-1.330202 c -0.0046,-0.123421 -0.105136,-0.223986 -0.228557,-0.223986 -0.127992,0 -0.233128,0.109707 -0.233128,0.237699 z"
           style="font-family:OCRA;-inkscape-font-specification:'OCRA, Normal'"
           id="path1091" />
        <path
           d="m 91.85529,41.203559 c 0,0.127992 0.105136,0.233128 0.233128,0.233128 h 1.357628 c 0.127992,0 0.233129,-0.105136 0.233129,-0.233128 0,-0.12342 -0.105137,-0.228557 -0.233129,-0.228557 h -0.447971 v -2.875247 c 0,-0.12342 -0.105136,-0.228557 -0.228557,-0.228557 h -0.6811 c -0.127992,0 -0.233128,0.105137 -0.233128,0.228557 0,0.127992 0.105136,0.233129 0.233128,0.233129 h 0.447972 v 2.642118 h -0.447972 c -0.127992,0 -0.233128,0.105137 -0.233128,0.228557 z"
           style="font-family:OCRA;-inkscape-font-specification:'OCRA, Normal'"
           id="path1093" />
        <path
           d="m 95.160221,41.203559 c 0,0.127992 0.105137,0.233128 0.233129,0.233128 h 1.357628 c 0.127992,0 0.233128,-0.105136 0.233128,-0.233128 0,-0.12342 -0.105136,-0.228557 -0.233128,-0.228557 h -0.447972 v -1.901594 c 0,-0.127992 -0.105136,-0.233128 -0.228557,-0.233128 H 95.39335 c -0.127992,0 -0.233129,0.105136 -0.233129,0.233128 0,0.127992 0.105137,0.228557 0.233129,0.228557 h 0.452542 v 1.673037 H 95.39335 c -0.127992,0 -0.233129,0.105137 -0.233129,0.228557 z m 0.452543,-3.103804 c 0,0.127992 0.105137,0.233129 0.233128,0.233129 h 0.228557 c 0.123421,0 0.228557,-0.105137 0.228557,-0.233129 v -0.191987 c 0,-0.127992 -0.105136,-0.228557 -0.228557,-0.228557 h -0.228557 c -0.127991,0 -0.233128,0.100565 -0.233128,0.228557 z"
           style="font-family:OCRA;-inkscape-font-specification:'OCRA, Normal'"
           id="path1095" />
        <path
           d="m 98.350875,39.073408 c 0,0.127992 0.100565,0.228557 0.228557,0.228557 h 0.223985 v 1.901594 c 0,0.127992 0.105137,0.233128 0.233129,0.233128 0.127991,0 0.228557,-0.105136 0.228557,-0.233128 v -1.901594 h 0.452542 c 0.123421,0 0.228557,-0.100565 0.228557,-0.228557 0,-0.127992 -0.105136,-0.233128 -0.228557,-0.233128 h -0.452542 v -0.155419 c 0,-0.191988 0.155418,-0.351977 0.351977,-0.351977 h 0.55311 c 0.12799,0 0.22856,-0.105137 0.22856,-0.233129 0,-0.12342 -0.10057,-0.228557 -0.22856,-0.228557 h -0.55311 c -0.447971,0 -0.813663,0.36112 -0.813663,0.813663 v 0.155419 h -0.223985 c -0.127992,0 -0.228557,0.105136 -0.228557,0.233128 z"
           style="font-family:OCRA;-inkscape-font-specification:'OCRA, Normal'"
           id="path1097" />
        <path
           d="m 101.5461,40.609311 c 0,0.233128 0.10514,0.40226 0.2377,0.52111 0.16456,0.137134 0.31541,0.306266 0.61253,0.306266 h 1.19307 c 0.12799,0 0.23313,-0.105136 0.23313,-0.233128 0,-0.12342 -0.10514,-0.228557 -0.23313,-0.228557 h -1.19307 c -0.064,0 -0.10514,-0.02286 -0.14628,-0.05485 -0.0868,-0.07771 -0.24227,-0.150848 -0.24227,-0.310838 v -0.141705 h 1.58162 c 0.12799,0 0.23313,-0.105136 0.23313,-0.233128 v -0.566822 c 0,-0.233128 -0.10971,-0.406831 -0.24227,-0.52111 -0.15999,-0.141705 -0.31998,-0.306266 -0.61254,-0.306266 h -0.57139 c -0.18742,0 -0.33826,0.07314 -0.4434,0.164561 -0.19199,0.15999 -0.40683,0.31998 -0.40683,0.662815 z m 0.46168,-0.60339 v -0.338265 c 0,-0.07771 0.032,-0.132563 0.0777,-0.169132 0.0823,-0.06857 0.16914,-0.196559 0.31084,-0.196559 h 0.57139 c 0.15542,0 0.39312,0.20113 0.39312,0.365691 v 0.338265 z"
           style="font-family:OCRA;-inkscape-font-specification:'OCRA, Normal'"
           id="path1099" />
      </g>
    </g>
  </g>
</svg>
