<?xml version="1.0" encoding="UTF-8" standalone="no"?>
<!-- Created with Inkscape (http://www.inkscape.org/) -->

<svg
   width="36.999996mm"
   height="37.000004mm"
   viewBox="0 0 36.999996 37.000004"
   version="1.1"
   id="svg1"
   inkscape:version="1.4.2 (ebf0e940d0, 2025-05-08)"
   sodipodi:docname="Prueflabel.svg"
   xmlns:inkscape="http://www.inkscape.org/namespaces/inkscape"
   xmlns:sodipodi="http://sodipodi.sourceforge.net/DTD/sodipodi-0.dtd"
   xmlns="http://www.w3.org/2000/svg"
   xmlns:svg="http://www.w3.org/2000/svg">
  <sodipodi:namedview
     id="namedview1"
     pagecolor="#505050"
     bordercolor="#eeeeee"
     borderopacity="1"
     inkscape:showpageshadow="0"
     inkscape:pageopacity="0"
     inkscape:pagecheckerboard="false"
     inkscape:deskcolor="#505050"
     inkscape:document-units="mm"
     inkscape:zoom="2.8041531"
     inkscape:cx="665.08494"
     inkscape:cy="52.778859"
     inkscape:window-width="1920"
     inkscape:window-height="1011"
     inkscape:window-x="0"
     inkscape:window-y="0"
     inkscape:window-maximized="1"
     inkscape:current-layer="g50-4-3-0"
     labelstyle="default"
     inkscape:clip-to-page="false">
    <inkscape:page
       x="0"
       y="0"
       width="36.999996"
       height="37.000004"
       id="page2"
       margin="0"
       bleed="0" />
  </sodipodi:namedview>
  <defs
     id="defs1" />
  <g
     inkscape:label="Layer 1"
     inkscape:groupmode="layer"
     id="layer1"
     transform="translate(-51.64458,-231.20053)">
    <g
       id="g329"
       inkscape:label="yellow_border"
       transform="translate(45.981048,228.21841)"
       inkscape:export-filename="/home/moritz/Downloads/Technisch_fragwuerdig_border.svg"
       inkscape:export-xdpi="600"
       inkscape:export-ydpi="600">
      <path
         id="rect292"
         style="fill:#ffff00;stroke-width:0.105833;stroke-linecap:round;stroke-linejoin:round"
         d="M 5.6635337,2.9821312 H 42.663534 V 39.982131 H 5.6635337 Z" />
      <path
         id="circle292"
         style="display:inline;fill:#ffff00;stroke-width:0.132591;stroke-linecap:round;stroke-linejoin:round"
         inkscape:label="circle"
         d="m 39.16353,21.482134 a 15,15 0 0 1 -15,15 15,15 0 0 1 -14.9999997,-15 15,15 0 0 1 14.9999997,-15.0000001 15,15 0 0 1 15,15.0000001 z" />
      <g
         id="g310"
         inkscape:label="separators"
         style="display:inline"
         transform="matrix(1,0,0,1.4289042,-2.5545162,-3.8699894)">
        <path
           id="rect293"
           style="stroke-width:0.0592412;stroke-linecap:round;stroke-linejoin:round"
           inkscape:transform-center-y="-13.800698"
           d="m 26.568047,5.9841137 h 0.3 v 4.2000003 h -0.3 z" />
        <path
           id="rect294"
           style="stroke-width:0.0600381;stroke-linecap:round;stroke-linejoin:round"
           inkscape:transform-center-x="-4.7201156"
           inkscape:transform-center-y="-12.968415"
           transform="matrix(0.96905677,0.24683797,-0.46140762,0.88718826,0,0)"
           d="m 32.608707,-1.568719 h 0.29091 v 4.4485583 h -0.29091 z" />
        <path
           id="rect295"
           style="stroke-width:0.061064;stroke-linecap:round;stroke-linejoin:round"
           inkscape:transform-center-x="-8.8709186"
           inkscape:transform-center-y="-10.571948"
           transform="matrix(0.86231171,0.50637784,-0.76795687,0.64050156,0,0)"
           d="M 32.525791,-12.182324 H 32.7923 v 5.0232292 h -0.266509 z" />
        <path
           id="rect296"
           style="stroke-width:0.060665;stroke-linecap:round;stroke-linejoin:round"
           inkscape:transform-center-x="-11.951756"
           inkscape:transform-center-y="-6.9003477"
           transform="matrix(0.63637297,0.77138152,-0.92717585,0.3746264,0,0)"
           d="m 27.628929,-25.465698 h 0.235711 v 5.605584 h -0.235711 z" />
        <path
           id="rect297"
           style="stroke-width:0.05947;stroke-linecap:round;stroke-linejoin:round"
           inkscape:transform-center-x="-13.591036"
           inkscape:transform-center-y="-2.3964649"
           transform="matrix(0.24431888,0.96969494,-0.99247207,0.1224712,0,0)"
           d="m 20.936037,-38.412243 h 0.213223 v 5.955052 h -0.213223 z" />
        <path
           id="rect298"
           style="stroke-width:0.05947;stroke-linecap:round;stroke-linejoin:round"
           inkscape:transform-center-x="-13.591035"
           inkscape:transform-center-y="2.3964682"
           transform="matrix(-0.24431886,0.96969495,-0.99247207,-0.12247119,0,0)"
           d="m 14.340986,-47.148949 h 0.213223 v 5.955052 h -0.213223 z" />
        <path
           id="rect299"
           style="stroke-width:0.060665;stroke-linecap:round;stroke-linejoin:round"
           inkscape:transform-center-x="-11.951756"
           inkscape:transform-center-y="6.9003521"
           transform="matrix(-0.63637295,0.77138153,-0.92717586,-0.37462639,0,0)"
           d="m 6.6364856,-49.145763 h 0.2357108 v 5.605584 H 6.6364856 Z" />
        <path
           id="rect300"
           style="stroke-width:0.061064;stroke-linecap:round;stroke-linejoin:round"
           inkscape:transform-center-x="-8.8709164"
           inkscape:transform-center-y="10.57195"
           transform="matrix(-0.8623117,0.50637786,-0.76795688,-0.64050155,0,0)"
           d="m -3.8387697,-44.693222 h 0.2665085 v 5.02323 h -0.2665085 z" />
        <path
           id="rect301"
           style="stroke-width:0.0600381;stroke-linecap:round;stroke-linejoin:round"
           inkscape:transform-center-x="-4.7201144"
           inkscape:transform-center-y="12.968413"
           transform="matrix(-0.96905676,0.24683798,-0.46140763,-0.88718825,0,0)"
           d="m -16.083235,-36.886795 h 0.29091 v 4.448558 h -0.29091 z" />
        <path
           id="rect302"
           style="stroke-width:0.0592412;stroke-linecap:round;stroke-linejoin:round"
           inkscape:transform-center-x="2.5996877e-06"
           inkscape:transform-center-y="13.800696"
           transform="scale(-1)"
           d="m -26.868046,-29.500589 h 0.3 v 4.199999 h -0.3 z" />
        <path
           id="rect303"
           style="stroke-width:0.0600381;stroke-linecap:round;stroke-linejoin:round"
           inkscape:transform-center-x="4.720119"
           inkscape:transform-center-y="12.96841"
           transform="matrix(-0.96905677,-0.24683797,0.46140762,-0.88718826,0,0)"
           d="m -32.899616,-23.339476 h 0.290909 v 4.448559 h -0.290909 z" />
        <path
           id="rect304"
           style="stroke-width:0.061064;stroke-linecap:round;stroke-linejoin:round"
           inkscape:transform-center-x="8.8709179"
           inkscape:transform-center-y="10.571944"
           transform="matrix(-0.86231171,-0.50637784,0.76795687,-0.64050156,0,0)"
           d="m -32.792297,-15.943547 h 0.266508 v 5.023229 h -0.266508 z" />
        <path
           id="rect305"
           style="stroke-width:0.060665;stroke-linecap:round;stroke-linejoin:round"
           inkscape:transform-center-x="11.951754"
           inkscape:transform-center-y="6.9003461"
           transform="matrix(-0.63637297,-0.77138152,0.92717585,-0.3746264,0,0)"
           d="m -27.864637,-5.9208708 h 0.23571 v 5.60558416 h -0.23571 z" />
        <path
           id="rect306"
           style="stroke-width:0.05947;stroke-linecap:round;stroke-linejoin:round"
           inkscape:transform-center-x="13.591032"
           inkscape:transform-center-y="2.3964638"
           transform="matrix(-0.24431888,-0.96969494,0.99247207,-0.1224712,0,0)"
           d="m -21.149258,5.0689483 h 0.213224 V 11.024 h -0.213224 z" />
        <path
           id="rect307"
           style="stroke-width:0.05947;stroke-linecap:round;stroke-linejoin:round"
           inkscape:transform-center-x="13.591032"
           inkscape:transform-center-y="-2.3964667"
           transform="matrix(0.24431886,-0.96969495,0.99247207,0.12247119,0,0)"
           d="m -14.554207,13.805654 h 0.213223 v 5.955051 h -0.213223 z" />
        <path
           id="rect308"
           style="stroke-width:0.060665;stroke-linecap:round;stroke-linejoin:round"
           inkscape:transform-center-x="11.951752"
           inkscape:transform-center-y="-6.9003483"
           transform="matrix(0.63637295,-0.77138153,0.92717586,0.37462639,0,0)"
           d="m -6.8721933,17.759192 h 0.2357108 v 5.605584 h -0.2357108 z" />
        <path
           id="rect309"
           style="stroke-width:0.061064;stroke-linecap:round;stroke-linejoin:round"
           inkscape:transform-center-x="8.8709155"
           inkscape:transform-center-y="-10.571947"
           transform="matrix(0.8623117,-0.50637786,0.76795688,0.64050155,0,0)"
           d="m 3.5722647,16.567348 h 0.2665084 v 5.02323 H 3.5722647 Z" />
        <path
           id="rect310"
           style="stroke-width:0.0600381;stroke-linecap:round;stroke-linejoin:round"
           inkscape:transform-center-x="4.7201145"
           inkscape:transform-center-y="-12.968411"
           transform="matrix(0.96905676,-0.24683798,0.46140763,0.88718825,0,0)"
           d="m 15.792329,11.978601 h 0.290909 v 4.448559 h -0.290909 z" />
      </g>
      <g
         id="g327"
         style="display:inline;fill:#000000;fill-opacity:1"
         transform="matrix(0.27024346,0.22676118,-0.22676118,0.27024346,41.826278,19.911196)"
         inkscape:label="numbers">
        <path
           d="m -36.082469,4.772141 h -3.148168 V 3.7966522 l 1.962063,-3.8132745 q 0.133021,-0.2660424 0.133021,-0.5431699 v -0.554255 q 0,-0.221702 -0.155192,-0.3768934 -0.155191,-0.1551914 -0.376893,-0.1551914 -0.199532,0 -0.365808,0.1441063 -0.155192,0.1330212 -0.155192,0.3436381 v 0.6540209 h -1.064169 v -0.5320848 q 0,-0.4323189 0.321467,-1.0419994 0.332553,-0.6096805 1.319127,-0.6096805 0.620766,0 1.075255,0.4766593 0.454489,0.4766593 0.454489,1.0974249 v 0.6761911 q 0,0.2327871 -0.06651,0.45448911 -0.05543,0.221702 -0.177362,0.4544891 l -1.662765,3.24793439 h 1.906637 z m 0.787034,-3.7356788 q -0.0776,-0.15519138 -0.09977,-0.28821258 -0.01109,-0.14410631 -0.01109,-0.42123381 V -1.1805578 q 0,-0.221702 0.0776,-0.4323189 0.08868,-0.2106169 0.387979,-0.6429358 0.310382,-0.4323189 1.097424,-0.4323189 0.742702,0 1.163936,0.5099146 0.432319,0.4988295 0.432319,1.1417653 v 1.20827591 q 0,0.4212338 -0.177362,0.86463779 l -1.396722,3.7356788 h -1.197191 l 1.230446,-3.1149132 q -0.288213,0.066511 -0.443404,0.066511 -0.343638,0 -0.642936,-0.1884467 -0.288212,-0.1995318 -0.421234,-0.4988295 z m 1.485404,-2.6825942 q -0.266043,0 -0.399064,0.1773616 -0.133021,0.1773616 -0.133021,0.4323189 v 1.20827591 q 0,0.2771275 0.144106,0.4544891 0.144107,0.17736161 0.421234,0.17736161 0.243872,0 0.354723,-0.16627651 0.121936,-0.1773616 0.121936,-0.4655742 V -1.0364515 q 0,-0.2771275 -0.121936,-0.443404 -0.110851,-0.1662765 -0.387978,-0.1662765 z"
           id="text310"
           style="font-size:11.0851px;font-family:'DIN 1451 Engschrift';-inkscape-font-specification:'DIN 1451 Engschrift, Normal';text-align:center;text-anchor:middle;stroke-width:0.464115;stroke-linecap:round;stroke-linejoin:round"
           inkscape:label="text-29"
           inkscape:transform-center-x="-9.8554326"
           inkscape:transform-center-y="8.3235882"
           transform="rotate(-90)"
           aria-label="29" />
        <path
           d="m -46.074748,19.086445 h -3.148168 v -0.975489 l 1.962062,-3.813274 q 0.133022,-0.266043 0.133022,-0.54317 v -0.554255 q 0,-0.221702 -0.155192,-0.376894 -0.155191,-0.155191 -0.376893,-0.155191 -0.199532,0 -0.365808,0.144106 -0.155192,0.133021 -0.155192,0.343638 v 0.654021 h -1.064169 v -0.532085 q 0,-0.432319 0.321467,-1.041999 0.332553,-0.609681 1.319127,-0.609681 0.620766,0 1.075255,0.47666 0.454489,0.476659 0.454489,1.097425 v 0.676191 q 0,0.232787 -0.06651,0.454489 -0.05543,0.221702 -0.177362,0.454489 l -1.662765,3.247934 h 1.906637 z m 3.835437,-1.518659 q 0,0.332553 -0.166277,0.698361 -0.166276,0.365809 -0.54317,0.631851 -0.376893,0.254957 -0.820297,0.254957 -0.476659,0 -0.875723,-0.243872 -0.399063,-0.243872 -0.54317,-0.54317 -0.144106,-0.310382 -0.177361,-0.509914 -0.03326,-0.199532 -0.03326,-0.410149 v -1.296957 q 0,-0.299297 0.133021,-0.532084 0.144107,-0.243873 0.399064,-0.432319 -0.532085,-0.399064 -0.532085,-1.097425 v -0.997659 q 0,-0.210617 0.0776,-0.421234 0.08868,-0.221702 0.399064,-0.631851 0.321468,-0.410149 1.13068,-0.410149 0.310383,0 0.58751,0.133022 0.277128,0.121936 0.620766,0.487744 0.343638,0.354723 0.343638,0.964404 v 0.953318 q 0,0.642936 -0.532085,1.01983 0.532085,0.365808 0.532085,1.041999 z m -1.574084,-4.888529 q -0.232787,0 -0.387979,0.155191 -0.155191,0.155192 -0.155191,0.376894 v 0.953318 q 0,0.254958 0.133021,0.443404 0.144106,0.177362 0.399064,0.177362 0.277127,0 0.399063,-0.166277 0.133021,-0.177361 0.133021,-0.454489 v -0.953318 q 0,-0.210617 -0.155191,-0.365809 -0.144106,-0.166276 -0.365808,-0.166276 z m 0,2.904296 q -0.243873,0 -0.399064,0.166277 -0.144106,0.155191 -0.144106,0.399063 v 1.296957 q 0,0.288213 0.133021,0.465574 0.133021,0.177362 0.432319,0.177362 0.288212,0 0.387978,-0.188447 0.110851,-0.188447 0.110851,-0.454489 v -1.296957 q 0,-0.243872 -0.144106,-0.399063 -0.133021,-0.166277 -0.376893,-0.166277 z"
           id="text311"
           style="font-size:11.0851px;font-family:'DIN 1451 Engschrift';-inkscape-font-specification:'DIN 1451 Engschrift, Normal';text-align:center;text-anchor:middle;stroke-width:0.464115;stroke-linecap:round;stroke-linejoin:round"
           inkscape:label="text-28"
           inkscape:transform-center-x="-6.4142421"
           inkscape:transform-center-y="11.192371"
           transform="rotate(-70.000001)"
           aria-label="28" />
        <path
           d="m -50.568637,35.955051 h -3.148168 v -0.975488 l 1.962063,-3.813275 q 0.133021,-0.266042 0.133021,-0.54317 v -0.554255 q 0,-0.221702 -0.155192,-0.376893 -0.155191,-0.155192 -0.376893,-0.155192 -0.199532,0 -0.365808,0.144107 -0.155192,0.133021 -0.155192,0.343638 v 0.654021 h -1.064169 v -0.532085 q 0,-0.432319 0.321468,-1.041999 0.332553,-0.609681 1.319127,-0.609681 0.620765,0 1.075254,0.476659 0.454489,0.47666 0.454489,1.097425 v 0.676191 q 0,0.232787 -0.06651,0.454489 -0.05543,0.221702 -0.177362,0.45449 l -1.662765,3.247934 h 1.906637 z m 1.673842,-5.54255 h -0.931148 V 28.56129 h 3.159254 v 0.964403 l -1.729276,6.429358 h -1.119595 l 1.795786,-6.407187 h -1.175021 z"
           id="text312"
           style="font-size:11.0851px;font-family:'DIN 1451 Engschrift';-inkscape-font-specification:'DIN 1451 Engschrift, Normal';text-align:center;text-anchor:middle;stroke-width:0.464115;stroke-linecap:round;stroke-linejoin:round"
           inkscape:label="text-27"
           inkscape:transform-center-x="-2.1993999"
           inkscape:transform-center-y="12.711189"
           transform="rotate(-50)"
           aria-label="27" />
        <path
           d="m -49.022109,53.343357 h -3.148168 v -0.975489 l 1.962062,-3.813274 q 0.133022,-0.266043 0.133022,-0.54317 v -0.554255 q 0,-0.221702 -0.155192,-0.376894 -0.155191,-0.155191 -0.376893,-0.155191 -0.199532,0 -0.365808,0.144106 -0.155192,0.133022 -0.155192,0.343638 v 0.654021 h -1.064169 v -0.532084 q 0,-0.432319 0.321467,-1.042 0.332553,-0.60968 1.319127,-0.60968 0.620766,0 1.075255,0.476659 0.454489,0.476659 0.454489,1.097425 v 0.676191 q 0,0.232787 -0.06651,0.454489 -0.05543,0.221702 -0.177362,0.454489 l -1.662765,3.247935 h 1.906637 z m 3.691331,-3.780019 q 0.08868,0.144106 0.110851,0.310383 0.03325,0.166276 0.03325,0.410148 v 1.418893 q 0,0.277128 -0.05543,0.509915 -0.04434,0.221702 -0.332553,0.676191 -0.277127,0.454489 -1.086339,0.521 -0.49883,0 -0.897894,-0.210617 -0.399063,-0.221702 -0.56534,-0.521 -0.155191,-0.310383 -0.199531,-0.509915 -0.03326,-0.210616 -0.03326,-0.465574 v -1.163935 q 0,-0.243872 0.01109,-0.343638 0.01109,-0.110851 0.0776,-0.288213 l 1.463233,-3.957381 h 1.197191 l -1.197191,3.103828 q 0.221702,-0.0776 0.47666,-0.0776 h 0.09976 q 0.598596,0.0776 0.897894,0.58751 z m -1.008745,0.554255 q -0.166276,-0.221702 -0.443404,-0.221702 -0.144106,0 -0.277127,0.08868 -0.121936,0.08868 -0.177362,0.210617 -0.05542,0.121936 -0.05542,0.343638 v 1.163935 q 0,0.243872 0.133021,0.454489 0.133021,0.210617 0.454489,0.177362 0.288213,0 0.376894,-0.188447 0.08868,-0.199532 0.08868,-0.443404 v -1.163935 q 0,-0.144107 -0.02217,-0.232787 -0.01109,-0.09977 -0.0776,-0.188447 z"
           id="text313"
           style="font-size:11.0851px;font-family:'DIN 1451 Engschrift';-inkscape-font-specification:'DIN 1451 Engschrift, Normal';text-align:center;text-anchor:middle;stroke-width:0.464115;stroke-linecap:round;stroke-linejoin:round"
           inkscape:label="text-26"
           inkscape:transform-center-x="2.2807228"
           inkscape:transform-center-y="12.69685"
           transform="rotate(-30)"
           aria-label="26" />
        <path
           d="m -41.621699,69.154076 h -3.148169 v -0.975489 l 1.962063,-3.813275 q 0.133021,-0.266042 0.133021,-0.54317 v -0.554255 q 0,-0.221702 -0.155191,-0.376893 -0.155191,-0.155191 -0.376893,-0.155191 -0.199532,0 -0.365809,0.144106 -0.155191,0.133021 -0.155191,0.343638 v 0.654021 h -1.06417 v -0.532085 q 0,-0.432319 0.321468,-1.041999 0.332553,-0.609681 1.319127,-0.609681 0.620766,0 1.075255,0.47666 0.454489,0.476659 0.454489,1.097424 v 0.676192 q 0,0.232787 -0.06651,0.454489 -0.05542,0.221702 -0.177361,0.454489 l -1.662765,3.247934 h 1.906637 z m 2.571735,-4.755508 q 0.277128,0 0.554255,0.155191 0.288213,0.155191 0.421234,0.365808 0.144106,0.199532 0.188447,0.432319 0.05542,0.221702 0.05542,0.47666 v 1.662765 q 0,0.243872 -0.02217,0.410148 -0.01109,0.166277 -0.121936,0.465575 -0.110851,0.299297 -0.54317,0.576425 -0.421234,0.277127 -0.908978,0.277127 -0.376894,0 -0.720532,-0.177361 -0.332553,-0.188447 -0.520999,-0.454489 -0.188447,-0.266043 -0.254958,-0.532085 -0.06651,-0.277128 -0.06651,-0.56534 v -0.188447 h 1.075254 v 0.188447 q 0,0.110851 0,0.221702 0.01109,0.110851 0.121936,0.277127 0.110851,0.166277 0.387979,0.166277 0.299298,0 0.399064,-0.155192 0.09976,-0.166276 0.110851,-0.254957 0.01109,-0.09977 0.01109,-0.210617 v -0.121936 -1.441063 q 0,-0.09977 -0.01109,-0.210617 0,-0.110851 -0.121937,-0.277128 -0.110851,-0.166276 -0.376893,-0.166276 -0.387978,0 -0.521,0.387978 h -0.942233 v -3.946295 h 3.026232 v 0.986574 h -2.083999 v 1.984233 q 0.387979,-0.332553 0.864638,-0.332553 z"
           id="text314"
           style="font-size:11.0851px;font-family:'DIN 1451 Engschrift';-inkscape-font-specification:'DIN 1451 Engschrift, Normal';text-align:center;text-anchor:middle;stroke-width:0.464115;stroke-linecap:round;stroke-linejoin:round"
           inkscape:label="text-25"
           inkscape:transform-center-x="6.4857572"
           inkscape:transform-center-y="11.151083"
           transform="rotate(-9.9999988)"
           aria-label="25" />
        <path
           d="m -29.260003,81.480202 h -3.148168 v -0.975489 l 1.962062,-3.813275 q 0.133022,-0.266042 0.133022,-0.543169 v -0.554255 q 0,-0.221702 -0.155192,-0.376894 -0.155191,-0.155191 -0.376893,-0.155191 -0.199532,0 -0.365808,0.144106 -0.155192,0.133021 -0.155192,0.343638 v 0.654021 h -1.06417 v -0.532085 q 0,-0.432319 0.321468,-1.041999 0.332553,-0.609681 1.319127,-0.609681 0.620766,0 1.075255,0.47666 0.454489,0.476659 0.454489,1.097425 v 0.676191 q 0,0.232787 -0.06651,0.454489 -0.05543,0.221702 -0.177362,0.454489 l -1.662765,3.247934 h 1.906637 z m 2.649331,0 v -1.13068 h -2.106169 v -0.986574 l 1.529744,-5.276508 h 1.119595 l -1.585169,5.276508 h 1.041999 v -2.106169 h 1.06417 v 2.106169 h 0.509914 v 0.986574 h -0.509914 v 1.13068 z"
           id="text315"
           style="font-size:11.0851px;font-family:'DIN 1451 Engschrift';-inkscape-font-specification:'DIN 1451 Engschrift, Normal';text-align:center;text-anchor:middle;stroke-width:0.464115;stroke-linecap:round;stroke-linejoin:round"
           inkscape:label="text-24"
           inkscape:transform-center-x="9.908513"
           inkscape:transform-center-y="8.2603309"
           transform="rotate(10.000001)"
           aria-label="24" />
        <path
           d="M -30.899309,8.346344 V 2.0610922 l -1.053085,0.7870421 V 1.7285392 l 1.053085,-0.77595702 h 1.053084 V 8.346344 Z m 5.775329,0 h -3.148169 V 7.3708552 l 1.962063,-3.8132745 q 0.133021,-0.2660424 0.133021,-0.5431699 v -0.554255 q 0,-0.221702 -0.155191,-0.3768934 -0.155191,-0.1551914 -0.376893,-0.1551914 -0.199532,0 -0.365809,0.1441063 -0.155191,0.1330212 -0.155191,0.3436381 v 0.6540209 h -1.06417 V 2.5377515 q 0,-0.4323189 0.321468,-1.0419994 0.332553,-0.60968052 1.319127,-0.60968052 0.620766,0 1.075255,0.47665932 0.454489,0.4766593 0.454489,1.0974249 v 0.6761911 q 0,0.2327871 -0.06651,0.4544891 -0.05542,0.221702 -0.177361,0.4544891 l -1.662765,3.2479344 h 1.906637 z"
           id="text316"
           style="font-size:11.0851px;font-family:'DIN 1451 Engschrift';-inkscape-font-specification:'DIN 1451 Engschrift, Normal';text-align:center;text-anchor:middle;stroke-width:0.464115;stroke-linecap:round;stroke-linejoin:round"
           inkscape:label="text-12"
           transform="rotate(70.000001,-28.116901,33.606624)"
           aria-label="12" />
        <path
           d="M -30.899309,8.346344 V 2.0610922 l -1.053085,0.7870421 V 1.7285392 l 1.053085,-0.77595702 h 1.053084 V 8.346344 Z m 3.901947,0 V 2.0610922 l -1.053085,0.7870421 V 1.7285392 l 1.053085,-0.77595702 h 1.053085 V 8.346344 Z"
           id="text317"
           style="font-size:11.0851px;font-family:'DIN 1451 Engschrift';-inkscape-font-specification:'DIN 1451 Engschrift, Normal';text-align:center;text-anchor:middle;stroke-width:0.464115;stroke-linecap:round;stroke-linejoin:round"
           inkscape:label="text-11"
           transform="rotate(50,-26.103101,31.199644)"
           aria-label="11" />
        <path
           d="M -30.73304,8.346344 V 2.0610922 l -1.053084,0.7870421 V 1.7285392 l 1.053084,-0.77595702 h 1.053085 V 8.346344 Z m 3.802182,0.02217 q -1.163936,-0.221702 -1.352382,-1.3634673 0,-1.1861057 0,-2.3722115 0,-1.1971908 0,-2.3943816 0.144106,-0.8646378 0.764872,-1.1639355 0.620765,-0.29929772 1.418892,-0.12193612 0.399064,0.24387222 0.642936,0.52099972 0.243872,0.2660424 0.332553,0.7648719 0,1.1971908 0,2.3832965 0,1.1861058 0,2.3611264 -0.155191,1.0752547 -1.15285,1.3745524 -0.121936,0 -0.210617,0 -0.0776,0.011085 -0.443404,0.011085 z m 0.110851,-1.0641696 q 0.487744,0 0.620765,-0.4323189 0,-1.1195951 0,-2.2281052 0,-1.1195951 0,-2.2391902 -0.06651,-0.1995318 -0.144106,-0.332553 -0.321468,-0.2438722 -0.54317,-0.099766 -0.221702,0.1330212 -0.321468,0.4323189 0,1.10851 0,2.2281051 0,1.1085101 0,2.2170201 0.06651,0.3436381 0.387979,0.4544892 z"
           id="text318"
           style="font-size:11.0851px;font-family:'DIN 1451 Engschrift';-inkscape-font-specification:'DIN 1451 Engschrift, Normal';text-align:center;text-anchor:middle;stroke-width:0.464115;stroke-linecap:round;stroke-linejoin:round"
           inkscape:label="text-10"
           transform="rotate(30.000001,-21.640271,25.865466)"
           aria-label="10" />
        <path
           d="m -30.189867,4.6106652 q -0.0776,-0.1551914 -0.09977,-0.2882126 -0.01109,-0.1441063 -0.01109,-0.4212338 V 2.3936452 q 0,-0.221702 0.0776,-0.4323189 0.08868,-0.2106169 0.387978,-0.6429358 0.310383,-0.43231892 1.097425,-0.43231892 0.742702,0 1.163936,0.50991462 0.432319,0.4988295 0.432319,1.1417653 v 1.2082759 q 0,0.4212338 -0.177362,0.8646378 l -1.396722,3.7356788 h -1.197191 l 1.230446,-3.1149132 q -0.288213,0.066511 -0.443404,0.066511 -0.343638,0 -0.642936,-0.1884467 -0.288213,-0.1995318 -0.421234,-0.4988295 z m 1.485404,-2.6825942 q -0.266043,0 -0.399064,0.1773616 -0.133021,0.1773616 -0.133021,0.4323189 v 1.2082759 q 0,0.2771275 0.144106,0.4544891 0.144106,0.1773616 0.421234,0.1773616 0.243872,0 0.354723,-0.1662765 0.121936,-0.1773616 0.121936,-0.4655742 V 2.5377515 q 0,-0.2771275 -0.121936,-0.443404 -0.110851,-0.1662765 -0.387978,-0.1662765 z"
           id="text319"
           style="font-size:11.0851px;font-family:'DIN 1451 Engschrift';-inkscape-font-specification:'DIN 1451 Engschrift, Normal';text-align:center;text-anchor:middle;stroke-width:0.464115;stroke-linecap:round;stroke-linejoin:round"
           inkscape:label="text-9"
           transform="rotate(10.000001)"
           aria-label="9" />
        <path
           d="m -27.141464,6.8276853 q 0,0.332553 -0.166277,0.6983613 -0.166276,0.3658083 -0.54317,0.6318507 -0.376893,0.2549573 -0.820297,0.2549573 -0.476659,0 -0.875723,-0.2438722 -0.399064,-0.2438722 -0.54317,-0.5431699 -0.144106,-0.3103828 -0.177362,-0.5099146 -0.03326,-0.1995318 -0.03326,-0.4101487 V 5.4087924 q 0,-0.2992977 0.133021,-0.5320848 0.144107,-0.2438722 0.399064,-0.4323189 -0.532085,-0.3990636 -0.532085,-1.0974249 v -0.997659 q 0,-0.2106169 0.0776,-0.4212338 0.08868,-0.221702 0.399063,-0.6318507 0.321468,-0.41014872 1.130681,-0.41014872 0.310383,0 0.58751,0.13302122 0.277128,0.1219361 0.620766,0.4877444 0.343638,0.3547232 0.343638,0.9644037 v 0.9533186 q 0,0.6429358 -0.532085,1.0198292 0.532085,0.3658083 0.532085,1.0419994 z m -1.574084,-4.8885292 q -0.232788,0 -0.387979,0.1551914 -0.155191,0.1551914 -0.155191,0.3768934 v 0.9533186 q 0,0.2549573 0.133021,0.443404 0.144106,0.1773616 0.399063,0.1773616 0.277128,0 0.399064,-0.1662765 0.133021,-0.1773616 0.133021,-0.4544891 V 2.4712409 q 0,-0.2106169 -0.155191,-0.3658083 -0.144106,-0.1662765 -0.365808,-0.1662765 z m 0,2.9042962 q -0.243873,0 -0.399064,0.1662765 -0.144106,0.1551914 -0.144106,0.3990636 v 1.2969568 q 0,0.2882126 0.133021,0.4655742 0.133021,0.1773616 0.432319,0.1773616 0.288212,0 0.387978,-0.1884467 0.110851,-0.1884467 0.110851,-0.4544891 V 5.4087924 q 0,-0.2438722 -0.144106,-0.3990636 -0.133021,-0.1662765 -0.376893,-0.1662765 z"
           id="text320"
           style="font-size:11.0851px;font-family:'DIN 1451 Engschrift';-inkscape-font-specification:'DIN 1451 Engschrift, Normal';text-align:center;text-anchor:middle;stroke-width:0.464115;stroke-linecap:round;stroke-linejoin:round"
           inkscape:label="text-8"
           transform="rotate(-10,-64.263298,76.810466)"
           aria-label="8" />
        <path
           d="m -29.303059,2.8037939 h -0.931148 V 0.95258218 h 3.159253 V 1.9169859 l -1.729275,6.4293581 h -1.119595 l 1.795786,-6.4071879 h -1.175021 z"
           id="text321"
           style="font-size:11.0851px;font-family:'DIN 1451 Engschrift';-inkscape-font-specification:'DIN 1451 Engschrift, Normal';text-align:center;text-anchor:middle;stroke-width:0.464115;stroke-linecap:round;stroke-linejoin:round"
           inkscape:label="text-7"
           inkscape:transform-center-x="-2.2807219"
           inkscape:transform-center-y="-12.69685"
           transform="rotate(-30,-42.623013,50.945013)"
           aria-label="7" />
        <path
           d="m -48.594202,-40.958825 q 0.08868,0.144106 0.110851,0.310382 0.03325,0.166277 0.03325,0.410149 v 1.418893 q 0,0.277127 -0.05543,0.509914 -0.04434,0.221702 -0.332553,0.676192 -0.277127,0.454489 -1.086339,0.520999 -0.49883,0 -0.897894,-0.210617 -0.399063,-0.221702 -0.56534,-0.520999 -0.155191,-0.310383 -0.199532,-0.509915 -0.03326,-0.210617 -0.03326,-0.465574 v -1.163936 q 0,-0.243872 0.01109,-0.343638 0.01109,-0.110851 0.0776,-0.288212 l 1.463233,-3.957381 h 1.197191 l -1.197191,3.103828 q 0.221702,-0.0776 0.47666,-0.0776 h 0.09977 q 0.598596,0.0776 0.897894,0.587511 z m -1.008745,0.554255 q -0.166276,-0.221702 -0.443404,-0.221702 -0.144106,0 -0.277127,0.08868 -0.121936,0.08868 -0.177362,0.210617 -0.05543,0.121936 -0.05543,0.343638 v 1.163936 q 0,0.243872 0.133021,0.454489 0.133021,0.210617 0.454489,0.177362 0.288213,0 0.376894,-0.188447 0.08868,-0.199532 0.08868,-0.443404 v -1.163936 q 0,-0.144106 -0.02217,-0.232787 -0.01109,-0.09977 -0.0776,-0.188446 z"
           id="text322"
           style="font-size:11.0851px;font-family:'DIN 1451 Engschrift';-inkscape-font-specification:'DIN 1451 Engschrift, Normal';text-align:center;text-anchor:middle;stroke-width:0.464115;stroke-linecap:round;stroke-linejoin:round"
           inkscape:label="text-6"
           inkscape:transform-center-x="2.1993998"
           inkscape:transform-center-y="-12.71119"
           transform="rotate(-50)"
           aria-label="6" />
        <path
           d="m -45.219909,-58.802921 q 0.277128,0 0.554255,0.155192 0.288213,0.155191 0.421234,0.365808 0.144106,0.199532 0.188447,0.432319 0.05542,0.221702 0.05542,0.476659 v 1.662765 q 0,0.243872 -0.02217,0.410149 -0.01109,0.166276 -0.121936,0.465574 -0.110851,0.299298 -0.54317,0.576425 -0.421234,0.277128 -0.908978,0.277128 -0.376894,0 -0.720532,-0.177362 -0.332553,-0.188447 -0.520999,-0.454489 -0.188447,-0.266042 -0.254958,-0.532085 -0.06651,-0.277127 -0.06651,-0.56534 v -0.188447 h 1.075254 v 0.188447 q 0,0.110851 0,0.221702 0.01109,0.110851 0.121937,0.277128 0.110851,0.166276 0.387978,0.166276 0.299298,0 0.399064,-0.155191 0.09977,-0.166277 0.110851,-0.254958 0.01109,-0.09976 0.01109,-0.210616 v -0.121937 -1.441063 q 0,-0.09977 -0.01109,-0.210617 0,-0.110851 -0.121936,-0.277127 -0.110851,-0.166277 -0.376894,-0.166277 -0.387978,0 -0.521,0.387979 h -0.942233 v -3.946296 h 3.026232 v 0.986574 h -2.083999 v 1.984233 q 0.387979,-0.332553 0.864638,-0.332553 z"
           id="text323"
           style="font-size:11.0851px;font-family:'DIN 1451 Engschrift';-inkscape-font-specification:'DIN 1451 Engschrift, Normal';text-align:center;text-anchor:middle;stroke-width:0.464115;stroke-linecap:round;stroke-linejoin:round"
           inkscape:label="text-5"
           inkscape:transform-center-x="6.4142433"
           inkscape:transform-center-y="-11.192372"
           transform="rotate(-70)"
           aria-label="5" />
        <path
           d="m -35.150034,-68.361717 v -1.13068 h -2.106169 v -0.986574 l 1.529744,-5.276508 h 1.119595 l -1.585169,5.276508 h 1.041999 v -2.106169 h 1.06417 v 2.106169 h 0.509914 v 0.986574 h -0.509914 v 1.13068 z"
           id="text324"
           style="font-size:11.0851px;font-family:'DIN 1451 Engschrift';-inkscape-font-specification:'DIN 1451 Engschrift, Normal';text-align:center;text-anchor:middle;stroke-width:0.464115;stroke-linecap:round;stroke-linejoin:round"
           inkscape:label="text-4"
           inkscape:transform-center-x="9.8554338"
           inkscape:transform-center-y="-8.323589"
           transform="rotate(-90)"
           aria-label="4" />
        <path
           d="m -19.600881,-80.091223 v 0.133021 q 0,0.0776 -0.01108,0.177362 0,0.08868 -0.03326,0.254957 -0.155191,0.532085 -0.58751,0.864638 -0.432319,0.332553 -0.986574,0.332553 -0.443404,0 -0.831383,-0.266042 -0.387978,-0.266043 -0.509914,-0.54317 -0.121937,-0.288213 -0.166277,-0.454489 -0.03326,-0.177362 -0.03326,-0.49883 v -0.432319 h 1.053084 v 0.343638 q 0,0.133021 0,0.266043 0.01108,0.121936 0.121936,0.321468 0.110851,0.188446 0.399064,0.188446 0.288213,0 0.410149,-0.188446 0.121936,-0.199532 0.121936,-0.49883 v -1.141765 q 0,-0.277128 -0.133021,-0.387979 -0.133022,-0.110851 -0.266043,-0.133021 -0.121936,-0.02217 -0.266042,-0.02217 h -0.188447 v -0.931149 h 0.188447 q 0.665106,0 0.665106,-0.620765 v -0.886808 q 0,-0.155192 -0.02217,-0.221702 -0.01109,-0.0776 -0.133022,-0.221702 -0.110851,-0.155192 -0.354723,-0.155192 -0.277127,0 -0.410148,0.166277 -0.133022,0.166276 -0.133022,0.432319 v 0.54317 h -1.053084 v -0.54317 q 0,-0.698362 0.443404,-1.163936 0.454489,-0.476659 1.15285,-0.476659 0.387979,0 0.742702,0.199532 0.365808,0.199532 0.532085,0.465574 0.177361,0.266042 0.232787,0.498829 0.05542,0.221702 0.05542,0.47666 v 0.864638 q 0,0.720531 -0.63185,1.097425 0.354723,0.243872 0.487744,0.498829 0.144106,0.243872 0.144106,0.665106 z"
           id="text325"
           style="font-size:11.0851px;font-family:'DIN 1451 Engschrift';-inkscape-font-specification:'DIN 1451 Engschrift, Normal';text-align:center;text-anchor:middle;stroke-width:0.464115;stroke-linecap:round;stroke-linejoin:round"
           inkscape:label="text-3"
           inkscape:transform-center-x="12.107913"
           inkscape:transform-center-y="-4.4508585"
           transform="rotate(-110)"
           aria-label="3" />
        <path
           d="m -2.7563778,-82.937683 h -3.1481685 v -0.975489 l 1.9620628,-3.813274 q 0.1330212,-0.266043 0.1330212,-0.54317 v -0.554255 q 0,-0.221702 -0.1551914,-0.376894 -0.1551914,-0.155191 -0.3768934,-0.155191 -0.1995318,0 -0.3658083,0.144106 -0.1551914,0.133021 -0.1551914,0.343638 v 0.654021 h -1.0641697 v -0.532085 q 0,-0.432319 0.321468,-1.041999 0.332553,-0.609681 1.3191269,-0.609681 0.6207656,0 1.0752547,0.47666 0.4544891,0.476659 0.4544891,1.097425 v 0.676191 q 0,0.232787 -0.066511,0.454489 -0.055426,0.221702 -0.1773616,0.454489 l -1.662765,3.247934 h 1.9066372 z"
           id="text326"
           style="font-size:11.0851px;font-family:'DIN 1451 Engschrift';-inkscape-font-specification:'DIN 1451 Engschrift, Normal';text-align:center;text-anchor:middle;stroke-width:0.464115;stroke-linecap:round;stroke-linejoin:round"
           inkscape:label="text-2"
           inkscape:transform-center-x="12.9"
           inkscape:transform-center-y="-0.041288831"
           transform="rotate(-130)"
           aria-label="2" />
        <path
           d="m 12.762931,-81.441269 v -6.285252 l -1.053085,0.787042 v -1.119595 l 1.053085,-0.775957 h 1.053084 v 7.393762 z"
           id="text327"
           style="font-size:11.0851px;font-family:'DIN 1451 Engschrift';-inkscape-font-specification:'DIN 1451 Engschrift, Normal';text-align:center;text-anchor:middle;stroke-width:0.464115;stroke-linecap:round;stroke-linejoin:round"
           inkscape:label="text-1"
           inkscape:transform-center-x="12.136157"
           inkscape:transform-center-y="4.3732613"
           transform="rotate(-150)"
           aria-label="1" />
      </g>
      <path
         id="path327"
         style="display:inline;fill:none;stroke:#000000;stroke-width:0.3;stroke-linecap:square"
         inkscape:label="bogen"
         d="m 33.488993,26.913623 a 10.788773,10.800521 0 0 1 -9.366431,5.368426 10.788773,10.800521 0 0 1 -9.324933,-5.440343" />
      <g
         id="text329"
         style="font-size:4.34591px;line-height:1.08;font-family:'DIN 1451 Engschrift';-inkscape-font-specification:'DIN 1451 Engschrift, Normal';text-align:center;text-anchor:middle;stroke-width:0.355591;stroke-linecap:square"
         inkscape:label="text"
         aria-label="Technisch&#10;fragwürdig">
        <path
           d="M 18.229188,20.158806 V 17.64687 h -0.486742 v -0.386786 h 1.395037 v 0.386786 h -0.495434 v 2.511936 z m 1.734015,-0.395478 q 0.09126,0 0.147761,-0.0565 0.0565,-0.0565 0.06953,-0.147761 h 0.412862 v 0.04781 q 0,0.09561 -0.04346,0.19122 -0.03911,0.09561 -0.16949,0.243371 -0.130377,0.143415 -0.408516,0.143415 -0.178182,0 -0.330289,-0.09561 -0.147761,-0.09561 -0.204257,-0.208603 -0.0565,-0.11734 -0.07388,-0.208604 -0.01304,-0.09561 -0.01304,-0.186874 v -0.78661 q 0,-0.256409 0.182529,-0.443283 0.186874,-0.19122 0.443282,-0.19122 0.265101,0 0.438937,0.186874 0.178183,0.182529 0.178183,0.447629 v 0.57366 h -0.825723 v 0.30856 q 0,0.06519 0.06084,0.126031 0.06519,0.0565 0.134724,0.0565 z m 0.0087,-1.290735 q -0.08257,0 -0.143415,0.0565 -0.06084,0.0565 -0.06084,0.199911 v 0.204258 h 0.408515 v -0.204258 q 0,-0.112993 -0.0478,-0.182528 -0.04781,-0.07388 -0.156453,-0.07388 z m 2.155574,1.090823 q 0,0.256409 -0.186874,0.438937 -0.186874,0.182528 -0.443282,0.182528 -0.13907,0 -0.278139,-0.06953 -0.134723,-0.07388 -0.204258,-0.173837 -0.06953,-0.09996 -0.09995,-0.204257 -0.02608,-0.104302 -0.02608,-0.21295 v -0.808339 q 0,-0.256409 0.173836,-0.451975 0.178183,-0.199912 0.438937,-0.199912 0.269447,0 0.447629,0.19122 0.178182,0.19122 0.178182,0.460667 h -0.412861 q 0,-0.09561 -0.0565,-0.169491 -0.05215,-0.07388 -0.147761,-0.07388 -0.0565,0 -0.09996,0.02607 -0.03911,0.02173 -0.07388,0.07388 -0.03042,0.04781 -0.03042,0.143415 v 0.808339 q 0,0.112994 0.04781,0.178182 0.04781,0.06519 0.160799,0.06519 0.09126,0 0.143415,-0.06519 0.0565,-0.06953 0.0565,-0.165144 h 0.412861 z m 1.103864,-1.499339 q 0.112993,0 0.212949,0.06084 0.09996,0.06084 0.143415,0.143415 0.04346,0.07823 0.05215,0.134723 0.01304,0.0565 0.01304,0.147761 v 1.607987 h -0.417207 v -1.451534 q 0,-0.104302 -0.04781,-0.169491 -0.04781,-0.06519 -0.152107,-0.06519 -0.09126,0 -0.152107,0.07388 -0.0565,0.06954 -0.0565,0.160799 v 1.451534 h -0.417207 v -2.898722 h 0.417207 v 1.029981 q 0.143415,-0.225988 0.40417,-0.225988 z m 1.968698,0.21295 q 0.03477,0.05215 0.0478,0.126031 0.01304,0.07388 0.01304,0.147761 v 1.607987 h -0.417208 v -1.45588 q 0,-0.230333 -0.204257,-0.230333 -0.09126,0 -0.147761,0.06953 -0.0565,0.06953 -0.0565,0.160799 v 1.45588 h -0.417207 v -2.068653 h 0.417207 v 0.199912 q 0.139069,-0.225988 0.386786,-0.225988 0.252063,0 0.378094,0.21295 z m 0.430249,1.881779 v -2.068653 h 0.417207 v 2.068653 z m 0,-2.490207 v -0.408515 h 0.417207 v 0.408515 z m 1.312466,2.12515 q 0.09561,0 0.165145,-0.06084 0.06953,-0.06084 0.06953,-0.156453 0,-0.112994 -0.06084,-0.165145 -0.0565,-0.0565 -0.182528,-0.09996 l -0.08257,-0.03042 q -0.130377,-0.04781 -0.217295,-0.09126 -0.08692,-0.04781 -0.186874,-0.165145 -0.09996,-0.121685 -0.09996,-0.347672 0,-0.256409 0.178182,-0.434591 0.178182,-0.178183 0.438937,-0.178183 0.239025,0 0.40417,0.182528 0.165144,0.182529 0.165144,0.412862 h -0.38244 q 0,-0.09126 -0.06084,-0.147761 -0.0565,-0.06084 -0.152106,-0.06084 -0.08692,0 -0.143416,0.06519 -0.0565,0.06519 -0.0565,0.156453 0,0.09561 0.0565,0.147761 0.0565,0.05215 0.165145,0.09126 l 0.134723,0.04346 q 0.11734,0.04346 0.182528,0.08257 0.06953,0.03911 0.134724,0.11734 0.06953,0.07823 0.112993,0.182528 0.04346,0.104302 0.04346,0.221641 0,0.252063 -0.182528,0.443283 -0.178182,0.186874 -0.430245,0.186874 -0.152107,0 -0.308559,-0.08257 -0.152107,-0.08257 -0.239026,-0.221641 -0.08257,-0.143416 -0.08257,-0.321598 h 0.386786 q 0,0.09561 0.06519,0.165145 0.06953,0.06519 0.165144,0.06519 z m 2.112112,-0.230333 q 0,0.256409 -0.186874,0.438937 -0.186874,0.182528 -0.443283,0.182528 -0.139069,0 -0.278138,-0.06953 -0.134723,-0.07388 -0.204258,-0.173837 -0.06953,-0.09996 -0.09996,-0.204257 -0.02608,-0.104302 -0.02608,-0.21295 v -0.808339 q 0,-0.256409 0.173836,-0.451975 0.178182,-0.199912 0.438937,-0.199912 0.269447,0 0.447629,0.19122 0.178182,0.19122 0.178182,0.460667 h -0.412861 q 0,-0.09561 -0.0565,-0.169491 -0.05215,-0.07388 -0.147761,-0.07388 -0.0565,0 -0.09996,0.02607 -0.03911,0.02173 -0.07388,0.07388 -0.03042,0.04781 -0.03042,0.143415 v 0.808339 q 0,0.112994 0.04781,0.178182 0.04781,0.06519 0.160799,0.06519 0.09126,0 0.143415,-0.06519 0.0565,-0.06953 0.0565,-0.165144 h 0.412861 z m 1.103863,-1.499339 q 0.112994,0 0.21295,0.06084 0.09996,0.06084 0.143415,0.143415 0.04346,0.07823 0.05215,0.134723 0.01304,0.0565 0.01304,0.147761 v 1.607987 h -0.417208 v -1.451534 q 0,-0.104302 -0.04781,-0.169491 -0.04781,-0.06519 -0.152107,-0.06519 -0.09126,0 -0.152106,0.07388 -0.0565,0.06954 -0.0565,0.160799 v 1.451534 h -0.417208 v -2.898722 h 0.417208 v 1.029981 q 0.143415,-0.225988 0.404169,-0.225988 z"
           id="path329" />
        <path
           d="m 17.312197,24.852389 v -1.738364 h -0.204258 v -0.330289 h 0.204258 v -0.28683 q 0,-0.243371 0.121685,-0.360711 0.121686,-0.117339 0.225988,-0.147761 0.104301,-0.03477 0.230333,-0.03477 h 0.143415 v 0.38244 h -0.152107 q -0.152107,0 -0.152107,0.160799 v 0.28683 h 0.304214 v 0.330289 h -0.304214 v 1.738364 z m 1.886127,-2.094729 v 0.425899 q -0.03042,-0.0087 -0.06084,-0.01304 -0.03042,-0.0043 -0.0565,-0.0043 -0.204258,0 -0.312906,0.139069 -0.108647,0.139069 -0.108647,0.334635 v 1.212509 h -0.417208 v -2.068653 h 0.417208 v 0.221641 q 0.108647,-0.134723 0.2651,-0.19122 0.160799,-0.0565 0.273792,-0.0565 z m 0.273796,1.877433 q -0.03042,-0.05215 -0.03911,-0.112993 -0.0087,-0.06519 -0.0087,-0.143415 v -0.234679 q 0,-0.230334 0.112993,-0.343327 0.11734,-0.112994 0.208604,-0.152107 0.09561,-0.04346 0.225987,-0.04346 h 0.278139 V 23.42693 q 0,-0.06084 -0.0087,-0.09996 -0.0043,-0.03911 -0.05215,-0.09996 -0.04781,-0.06084 -0.130378,-0.06084 -0.08692,0 -0.14776,0.0565 -0.06084,0.0565 -0.07388,0.147761 h -0.412861 q 0,-0.252063 0.178182,-0.430246 0.182528,-0.182528 0.438937,-0.182528 0.252063,0 0.438937,0.178183 0.186874,0.178182 0.186874,0.434591 v 1.481955 h -0.417207 v -0.208604 q -0.06519,0.108648 -0.165145,0.173837 -0.09561,0.06084 -0.217296,0.06084 -0.273792,0 -0.395477,-0.243371 z m 0.369402,-0.495433 v 0.104302 q 0,0.08257 0.0565,0.152106 0.06084,0.06519 0.156453,0.06519 0.05215,0 0.09561,-0.02607 0.04781,-0.02608 0.06953,-0.06954 0.02608,-0.04781 0.02608,-0.11734 0.0043,-0.07388 0.0043,-0.104301 v -0.199912 h -0.156453 q -0.112994,0 -0.182528,0.04346 -0.06953,0.04346 -0.06953,0.152107 z m 2.303333,1.282043 q -0.08692,0.130377 -0.221642,0.204258 -0.134723,0.07823 -0.28683,0.07823 -0.2651,0 -0.45632,-0.182528 -0.186875,-0.178182 -0.186875,-0.447629 h 0.417208 q 0,0.08692 0.0565,0.147761 0.0565,0.06084 0.147761,0.06084 0.130377,0 0.19122,-0.11734 0.01738,-0.04346 0.01738,-0.139069 V 24.63944 q -0.06084,0.104302 -0.165144,0.173837 -0.104302,0.06519 -0.221642,0.06519 -0.126031,0 -0.234679,-0.06519 -0.104302,-0.06953 -0.152107,-0.156453 -0.04346,-0.08692 -0.05215,-0.139069 -0.0043,-0.05215 -0.0043,-0.160799 v -1.14732 q 0,-0.07823 0.01738,-0.143415 0.02173,-0.06519 0.108648,-0.186874 0.09126,-0.126032 0.312905,-0.126032 0.11734,0 0.217296,0.06084 0.09996,0.0565 0.173836,0.160799 v -0.19122 h 0.417208 v 2.242489 q 0,0.121686 -0.02173,0.21295 -0.01738,0.09561 -0.07388,0.182528 z m -0.360711,-2.177301 q -0.06519,-0.08692 -0.16949,-0.08692 -0.121686,0 -0.160799,0.07388 -0.03477,0.06954 -0.03911,0.108648 -0.0043,0.03477 -0.0043,0.07388 v 0.786609 q 0,0.06084 0.0043,0.09996 0.0087,0.03477 0.05215,0.09561 0.04346,0.06084 0.156452,0.06084 0.134724,0 0.165145,-0.07388 0.03042,-0.07823 0.03042,-0.11734 0,-0.03911 0.0043,-0.06519 V 23.41389 q 0,-0.06084 -0.0087,-0.09561 -0.0043,-0.03477 -0.03042,-0.07388 z m 1.981739,1.607987 -0.234679,-1.24293 -0.23468,1.24293 h -0.36071 L 22.44038,22.783736 h 0.438937 l 0.260755,1.286389 0.234679,-1.286389 h 0.304214 l 0.239025,1.286389 0.256408,-1.286389 h 0.438937 l -0.491088,2.068653 z m 1.868743,0 v -0.208604 q -0.07388,0.112994 -0.165144,0.173837 -0.08692,0.06084 -0.21295,0.06084 -0.126031,0 -0.239025,-0.06953 -0.108648,-0.06954 -0.152107,-0.156453 -0.04346,-0.09126 -0.05215,-0.147761 -0.0043,-0.0565 -0.0043,-0.165144 v -1.555836 h 0.417208 v 1.399383 q 0,0.04781 0,0.09996 0.0043,0.04781 0.04781,0.112993 0.04781,0.06519 0.160799,0.06519 0.0565,0 0.104301,-0.03042 0.04781,-0.03042 0.06519,-0.06953 0.02173,-0.04346 0.02607,-0.09126 0.0043,-0.0478 0.0043,-0.08692 v -1.399383 h 0.417208 v 2.068653 z m 0.0087,-2.455439 v -0.482396 h 0.360711 v 0.482396 z m -0.782264,0 v -0.482396 h 0.360711 V 22.39695 Z M 27.373,22.75766 v 0.425899 q -0.03042,-0.0087 -0.06084,-0.01304 -0.03042,-0.0043 -0.0565,-0.0043 -0.204257,0 -0.312905,0.139069 -0.108648,0.139069 -0.108648,0.334635 v 1.212509 H 26.4169 v -2.068653 h 0.417207 v 0.221641 q 0.108648,-0.134723 0.265101,-0.19122 0.160798,-0.0565 0.273792,-0.0565 z m 1.073443,2.094729 v -0.21295 q -0.06084,0.104302 -0.160799,0.173837 -0.09996,0.06519 -0.221641,0.06519 -0.282484,0 -0.356365,-0.152106 -0.07388,-0.156453 -0.08257,-0.221642 -0.0043,-0.06953 -0.0043,-0.182528 v -1.116899 q 0,-0.186874 0.126031,-0.317251 0.126032,-0.130378 0.317252,-0.130378 0.117339,0 0.217295,0.06084 0.104302,0.06084 0.165145,0.160799 v -1.025635 h 0.417207 v 2.898722 z m -0.03042,-1.586257 q -0.06084,-0.104302 -0.178183,-0.104302 -0.06084,0 -0.112993,0.03477 -0.04781,0.03042 -0.06519,0.07823 -0.01738,0.04346 -0.02173,0.09561 0,0.04781 0,0.07388 v 0.743151 q 0,0.04346 0,0.08692 0.0043,0.04346 0.04346,0.112994 0.03911,0.06953 0.160799,0.06953 0.126032,0 0.165145,-0.06953 0.03911,-0.06954 0.03911,-0.13907 v -0.06084 -0.743151 q 0,-0.04346 -0.0043,-0.08692 0,-0.04781 -0.02607,-0.09126 z m 0.808335,1.586257 v -2.068653 h 0.417207 v 2.068653 z m 0,-2.490207 v -0.408515 h 0.417207 v 0.408515 z m 1.899164,3.059521 q -0.08692,0.130377 -0.221641,0.204258 -0.134723,0.07823 -0.28683,0.07823 -0.265101,0 -0.456321,-0.182528 -0.186874,-0.178182 -0.186874,-0.447629 h 0.417208 q 0,0.08692 0.0565,0.147761 0.0565,0.06084 0.147761,0.06084 0.130378,0 0.19122,-0.11734 0.01738,-0.04346 0.01738,-0.139069 V 24.63944 q -0.06084,0.104302 -0.165145,0.173837 -0.104301,0.06519 -0.221641,0.06519 -0.126031,0 -0.234679,-0.06519 -0.104302,-0.06953 -0.152107,-0.156453 -0.04346,-0.08692 -0.05215,-0.139069 -0.0043,-0.05215 -0.0043,-0.160799 v -1.14732 q 0,-0.07823 0.01738,-0.143415 0.02173,-0.06519 0.108648,-0.186874 0.09126,-0.126032 0.312905,-0.126032 0.11734,0 0.217296,0.06084 0.09996,0.0565 0.173836,0.160799 v -0.19122 h 0.417207 v 2.242489 q 0,0.121686 -0.02173,0.21295 -0.01738,0.09561 -0.07388,0.182528 z m -0.36071,-2.177301 q -0.06519,-0.08692 -0.169491,-0.08692 -0.121685,0 -0.160798,0.07388 -0.03477,0.06954 -0.03911,0.108648 -0.0043,0.03477 -0.0043,0.07388 v 0.786609 q 0,0.06084 0.0043,0.09996 0.0087,0.03477 0.05215,0.09561 0.04346,0.06084 0.156453,0.06084 0.134723,0 0.165145,-0.07388 0.03042,-0.07823 0.03042,-0.11734 0,-0.03911 0.0043,-0.06519 V 23.41389 q 0,-0.06084 -0.0087,-0.09561 -0.0043,-0.03477 -0.03042,-0.07388 z"
           id="path330" />
      </g>
    </g>
  </g>
</svg>
