<?xml version="1.0" encoding="UTF-8" standalone="no"?>
<svg
   xmlns:dc="http://purl.org/dc/elements/1.1/"
   xmlns:cc="http://creativecommons.org/ns#"
   xmlns:rdf="http://www.w3.org/1999/02/22-rdf-syntax-ns#"
   xmlns:svg="http://www.w3.org/2000/svg"
   xmlns="http://www.w3.org/2000/svg"
   xmlns:xlink="http://www.w3.org/1999/xlink"
   xmlns:sodipodi="http://sodipodi.sourceforge.net/DTD/sodipodi-0.dtd"
   xmlns:inkscape="http://www.inkscape.org/namespaces/inkscape"
   id="Layer_1"
   data-name="Layer 1"
   width="54mm"
   height="54mm"
   viewBox="0 0 204.09449 204.09449"
   version="1.1"
   sodipodi:docname="iww_afra.svg"
   inkscape:version="0.92.4 (unknown)">
  <metadata
     id="metadata919">
    <rdf:RDF>
      <cc:Work
         rdf:about="">
        <dc:format>image/svg+xml</dc:format>
        <dc:type
           rdf:resource="http://purl.org/dc/dcmitype/StillImage" />
        <dc:title>kookie_1</dc:title>
      </cc:Work>
    </rdf:RDF>
  </metadata>
  <sodipodi:namedview
     pagecolor="#ffffff"
     bordercolor="#666666"
     borderopacity="1"
     objecttolerance="10"
     gridtolerance="10"
     guidetolerance="10"
     inkscape:pageopacity="0"
     inkscape:pageshadow="2"
     inkscape:window-width="1914"
     inkscape:window-height="1032"
     id="namedview917"
     showgrid="false"
     inkscape:zoom="2.562809"
     inkscape:cx="121.0434"
     inkscape:cy="128.38313"
     inkscape:window-x="0"
     inkscape:window-y="22"
     inkscape:window-maximized="0"
     inkscape:current-layer="Layer_1"
     units="mm" />
  <defs
     id="defs892">
    <style
       id="style887">
      .cls-1 {
        fill: none;
      }

      .cls-2 {
        fill: #3fa8f4;
      }

      .cls-3 {
        fill: #ed301d;
      }

      .cls-4 {
        clip-path: url(#clip-path);
      }
    </style>
    <clipPath
       id="clip-path">
      <circle
         class="cls-1"
         cx="225"
         cy="225"
         r="116.25"
         id="circle889"
         style="fill:none" />
    </clipPath>
  </defs>
  <title
     id="title894">kookie_1</title>
  <g
     id="g2249"
     transform="matrix(0.64359169,0,0,0.64359169,-42.170325,112.40098)">
    <circle
       style="display:inline;fill:#000000;fill-opacity:1;stroke:none;stroke-width:3.00334954;stroke-linecap:round;stroke-linejoin:miter;stroke-miterlimit:4;stroke-dasharray:none;stroke-dashoffset:0;stroke-opacity:1;paint-order:stroke fill markers"
       id="circle1619"
       cx="224.0824"
       cy="-16.087427"
       r="146.81387"
       inkscape:label="base black" />
    <g
       inkscape:label="earth"
       style="display:inline;fill:#ed301d;fill-opacity:1"
       transform="matrix(1.0723251,0,0,1.0723251,-17.191183,-260.56192)"
       id="g914"
       clip-path="url(#clip-path)"
       class="cls-4">
      <path
         style="fill:#ed301d;fill-opacity:1"
         inkscape:connector-curvature="0"
         id="path912"
         d="m 266.434,270.11 -0.016,-0.006 q -1.272,-0.484 -2.558,-0.941 l -0.052,-0.018 q -1.267,-0.45 -2.547,-0.869 l -0.1,-0.034 q -1.255,-0.41 -2.522,-0.793 l -0.167,-0.05 q -1.236,-0.37 -2.483,-0.716 l -0.252,-0.068 q -1.208,-0.33 -2.425,-0.637 l -0.348,-0.085 q -1.176,-0.289 -2.359,-0.558 c -0.15,-0.034 -0.3,-0.065 -0.452,-0.1 q -1.139,-0.252 -2.283,-0.483 c -0.188,-0.037 -0.377,-0.072 -0.566,-0.108 -0.729,-0.142 -1.459,-0.28 -2.193,-0.408 -0.236,-0.042 -0.474,-0.078 -0.711,-0.118 -0.692,-0.116 -1.384,-0.231 -2.079,-0.335 -0.284,-0.042 -0.57,-0.079 -0.854,-0.119 -0.654,-0.093 -1.308,-0.185 -1.965,-0.267 -0.336,-0.042 -0.674,-0.077 -1.011,-0.116 -0.611,-0.07 -1.222,-0.142 -1.836,-0.2 -0.4,-0.039 -0.795,-0.07 -1.192,-0.105 -0.559,-0.05 -1.118,-0.1 -1.68,-0.145 -0.475,-0.036 -0.954,-0.061 -1.431,-0.091 -0.477,-0.03 -0.978,-0.066 -1.47,-0.091 -0.586,-0.029 -1.175,-0.046 -1.763,-0.067 -0.388,-0.013 -0.775,-0.033 -1.165,-0.043 q -1.47,-0.036 -2.951,-0.037 -1.481,-0.001 -2.951,0.037 c -0.39,0.01 -0.777,0.03 -1.165,0.043 -0.588,0.021 -1.177,0.038 -1.763,0.067 -0.492,0.025 -0.98,0.06 -1.47,0.091 -0.49,0.031 -0.956,0.055 -1.431,0.091 -0.562,0.042 -1.121,0.095 -1.68,0.145 -0.4,0.035 -0.8,0.066 -1.192,0.105 -0.614,0.062 -1.225,0.134 -1.836,0.2 -0.337,0.039 -0.675,0.074 -1.011,0.116 -0.657,0.082 -1.311,0.174 -1.965,0.267 -0.284,0.04 -0.57,0.077 -0.854,0.119 -0.695,0.1 -1.387,0.219 -2.079,0.335 -0.237,0.04 -0.475,0.076 -0.711,0.118 -0.733,0.128 -1.463,0.266 -2.192,0.408 -0.189,0.036 -0.379,0.071 -0.567,0.108 q -1.146,0.229 -2.282,0.482 c -0.151,0.034 -0.3,0.065 -0.454,0.1 q -1.183,0.267 -2.358,0.558 l -0.348,0.085 q -1.218,0.306 -2.425,0.637 l -0.252,0.068 q -1.248,0.343 -2.483,0.716 l -0.167,0.05 q -1.268,0.382 -2.522,0.793 l -0.1,0.034 q -1.281,0.42 -2.547,0.869 l -0.052,0.018 q -1.287,0.456 -2.558,0.941 l -0.016,0.006 a 116.25,116.25 0 1 0 82.868,0 z m 30.8,21.4 a 99.319,99.319 0 0 1 -7.124,6.989 103.555,103.555 0 0 0 -10.259,-11.9 q 2.334,-2.081 4.506,-4.331 a 113.189,113.189 0 0 1 12.874,9.246 z m -34.779,-14.95 a 85.738,85.738 0 0 1 12.878,9.876 79.928,79.928 0 0 1 -11.636,7.964 92.245,92.245 0 0 0 -8.262,-13.4 63.807,63.807 0 0 0 7.017,-4.436 z M 225,288.75 a 63.884,63.884 0 0 0 10.92,-0.953 c 0.718,2.89 1.4,6 2.045,9.322 0.381,1.972 0.742,4.023 1.092,6.109 a 78.309,78.309 0 0 1 -28.114,0 c 0.35,-2.086 0.711,-4.137 1.092,-6.109 0.668,-3.451 1.354,-6.54 2.046,-9.322 A 63.872,63.872 0 0 0 225,288.75 Z M 194.568,281 a 92.245,92.245 0 0 0 -8.262,13.4 79.928,79.928 0 0 1 -11.636,-7.964 85.738,85.738 0 0 1 12.878,-9.876 63.807,63.807 0 0 0 7.02,4.44 z m -9.605,16.132 a 136.455,136.455 0 0 0 -5.943,14.67 98.6,98.6 0 0 1 -16.82,-11.31 100.786,100.786 0 0 1 10.255,-11.912 82.673,82.673 0 0 0 12.508,8.551 z m 2.644,1.416 a 81.842,81.842 0 0 0 19.9,7.092 c -0.768,4.9 -1.461,10.133 -2.069,15.647 a 97.491,97.491 0 0 1 -23.729,-8.1 135.038,135.038 0 0 1 5.898,-14.64 z m 1.344,-2.725 a 89.111,89.111 0 0 1 8.3,-13.44 63.247,63.247 0 0 0 13.882,4.834 c -1.14,4.62 -2.193,9.788 -3.142,15.44 a 78.857,78.857 0 0 1 -19.04,-6.835 z m 21.5,10.392 a 82.908,82.908 0 0 0 29.092,0 c 0.775,4.938 1.46,10.167 2.06,15.626 a 98.492,98.492 0 0 1 -33.212,0 c 0.603,-5.46 1.288,-10.689 2.063,-15.627 z m 28.411,-19 a 63.247,63.247 0 0 0 13.882,-4.834 89.192,89.192 0 0 1 8.3,13.44 78.842,78.842 0 0 1 -19.042,6.834 c -0.944,-5.655 -1.997,-10.819 -3.137,-15.439 z m 23.528,11.331 a 135.224,135.224 0 0 1 5.894,14.639 97.494,97.494 0 0 1 -23.729,8.1 c -0.608,-5.515 -1.3,-10.744 -2.069,-15.647 a 81.884,81.884 0 0 0 19.907,-7.091 z m 2.644,-1.416 a 82.723,82.723 0 0 0 12.508,-8.552 100.779,100.779 0 0 1 10.258,11.913 98.712,98.712 0 0 1 -16.82,11.309 136.455,136.455 0 0 0 -5.943,-14.669 z m 12.615,-12.662 a 89.244,89.244 0 0 0 -12.646,-9.869 c 0.513,-0.415 1.023,-0.834 1.523,-1.264 a 112.362,112.362 0 0 1 15.127,7.317 c -1.29,1.317 -2.62,2.593 -4.001,3.817 z m -94.181,-11.133 c 0.5,0.43 1.01,0.849 1.523,1.264 a 89.244,89.244 0 0 0 -12.646,9.869 c -1.381,-1.223 -2.711,-2.5 -4,-3.816 a 112.362,112.362 0 0 1 15.126,-7.316 z m -17.825,8.933 q 2.171,2.248 4.505,4.331 a 103.646,103.646 0 0 0 -10.258,11.9 99.112,99.112 0 0 1 -7.124,-6.989 113.313,113.313 0 0 1 12.88,-9.241 z M 144.92,458.83 a 113.251,113.251 0 0 1 0,-160.16 q 2.693,-2.693 5.534,-5.175 a 102.137,102.137 0 0 0 7.661,7.5 C 143.752,321.593 135,348.846 135,378.75 c 0,49.653 24.1,92.028 58.019,108.687 A 112.655,112.655 0 0 1 144.92,458.83 Z M 138,378.75 c 0,-29.119 8.492,-55.7 22.416,-75.782 a 101.38,101.38 0 0 0 17.64,11.76 c -5.876,18.362 -9.306,40.359 -9.306,64.022 0,52.409 16.782,96.711 39.845,111.222 C 168.44,479.956 138,433.9 138,378.75 Z m 49.926,80.894 C 177.5,438.087 171.75,409.358 171.75,378.75 c 0,-22.631 3.149,-44.226 9,-62.663 a 100.474,100.474 0 0 0 24.37,8.2 539.4,539.4 0 0 0 -2.62,54.463 c 0,54.195 7.178,99.727 16.89,112.606 -11.737,-2.674 -22.746,-13.694 -31.464,-31.712 z M 225,492 c -1.282,0 -3.539,-1.94 -6.03,-7.384 -2.544,-5.559 -4.942,-13.939 -6.935,-24.235 -4.214,-21.775 -6.535,-50.765 -6.535,-81.631 a 537.327,537.327 0 0 1 2.571,-53.914 102.048,102.048 0 0 0 33.858,0 537.327,537.327 0 0 1 2.571,53.914 c 0,30.866 -2.321,59.856 -6.535,81.631 C 233.124,485.392 227.367,492 225,492 Z m 22.5,-113.25 a 539.4,539.4 0 0 0 -2.622,-54.458 100.474,100.474 0 0 0 24.37,-8.2 c 5.853,18.437 9,40.032 9,62.663 0,30.608 -5.745,59.337 -16.176,80.894 -8.718,18.018 -19.727,29.038 -31.464,31.712 9.714,-12.884 16.892,-58.416 16.892,-112.611 z m 33.75,0 c 0,-23.663 -3.43,-45.66 -9.306,-64.022 a 101.421,101.421 0 0 0 17.641,-11.759 C 303.508,323.052 312,349.631 312,378.75 c 0,55.147 -30.44,101.206 -70.595,111.222 23.063,-14.511 39.845,-58.813 39.845,-111.222 z m 23.83,80.08 a 112.655,112.655 0 0 1 -48.1,28.607 C 290.9,470.778 315,428.4 315,378.75 c 0,-29.9 -8.751,-57.157 -23.115,-77.753 a 101.562,101.562 0 0 0 7.661,-7.5 q 2.837,2.487 5.534,5.175 a 113.251,113.251 0 0 1 0,160.16 z"
         class="cls-3" />
    </g>
    <g
       transform="translate(0,-245.90551)"
       inkscape:label="docker"
       style="display:inline"
       id="g4359">
      <g
         id="g908"
         transform="translate(-0.91760254,-0.323372)"
         style="display:inline;fill:#ed301d;fill-opacity:1">
        <g
           id="g902"
           style="fill:#ed301d;fill-opacity:1">
          <polygon
             class="cls-2"
             points="138.946,157.423 138.946,157.422 "
             id="polygon898"
             style="fill:#ed301d;fill-opacity:1" />
          <path
             class="cls-3"
             d="m 164.232,157.422 v 0 a 19.371,19.371 0 0 0 -9.831,2.539 19.378,19.378 0 0 0 -9.832,-2.539 v 0 a 20.8,20.8 0 0 0 -5.6,0.756 16.151,16.151 0 0 0 32.24,0.442 20.41,20.41 0 0 0 -6.977,-1.198 z"
             id="path900"
             inkscape:connector-curvature="0"
             style="fill:#ed301d;fill-opacity:1" />
        </g>
        <path
           class="cls-3"
           d="m 198.3,236.4 a 26.167,26.167 0 0 1 -1.828,3.758 70.012,70.012 0 0 0 95.428,-43.365 c -54.3,0.982 -83.468,27.907 -93.6,39.607 z"
           id="path904"
           inkscape:connector-curvature="0"
           style="fill:#ed301d;fill-opacity:1" />
        <path
           sodipodi:nodetypes="cccccccccccccssss"
           class="cls-3"
           d="M 291.28,176.259 H 231.14993 158.72 c -2.06858,0.006 -3.70655,1.7501 -3.583,3.815 1.11866,20.72901 11.39773,39.88698 28.051,52.281 -0.038,0.062 -0.08,0.12 -0.118,0.183 -3.444,5.6 -4.064,11.686 -1.825,14.9 3.882,0.544 9.03,-2.757 12.474,-8.358 1.03326,-1.66849 1.84443,-3.46465 2.413,-5.343 5.73412,-6.47966 12.23829,-12.23461 19.368,-17.137 14.9,-10.372 40.339,-22.69 77.341,-23.15 1.10673,-4.38294 1.78558,-8.86294 2.027,-13.377 0.12306,-2.06648 -1.51786,-3.81076 -3.588,-3.814 z m -28.606,16.146 c -2.39759,0 -3.59788,-2.89858 -1.90273,-4.59373 1.69515,-1.69515 4.59373,-0.49486 4.59373,1.90273 0,1.4862 -1.2048,2.691 -2.691,2.691 z"
           id="path906"
           inkscape:connector-curvature="0"
           style="fill:#ed301d;fill-opacity:1" />
      </g>
    </g>
    <path
       inkscape:label="white rim"
       id="circle1613"
       d="M 224.0824,-140.91137 A 124.82458,124.82458 0 0 0 99.258177,-16.087152 124.82458,124.82458 0 0 0 224.0824,108.73707 124.82458,124.82458 0 0 0 348.90662,-16.087152 124.82458,124.82458 0 0 0 224.0824,-140.91137 Z m 0,3.55664 A 121.26749,121.26749 0 0 1 345.34998,-16.087152 121.26749,121.26749 0 0 1 224.0824,105.18043 121.26749,121.26749 0 0 1 102.81482,-16.087152 121.26749,121.26749 0 0 1 224.0824,-137.35473 Z"
       style="display:inline;fill:#ffffff;fill-opacity:1;stroke:none;stroke-width:2.55351758;stroke-linecap:round;stroke-linejoin:miter;stroke-miterlimit:4;stroke-dasharray:none;stroke-dashoffset:0;stroke-opacity:1;paint-order:stroke fill markers"
       inkscape:connector-curvature="0" />
    <g
       transform="translate(0,-245.90551)"
       inkscape:label="text"
       id="g1678">
      <circle
         style="display:none;fill:#ff00ff;fill-opacity:1;stroke:none;stroke-width:2.65720463;stroke-linecap:round;stroke-linejoin:miter;stroke-miterlimit:4;stroke-dasharray:none;stroke-dashoffset:0;stroke-opacity:1;paint-order:stroke fill markers"
         id="circle1666"
         cx="-119.91691"
         cy="-297.74017"
         r="129.89314"
         inkscape:label="text path"
         transform="rotate(157.66142)" />
      <text
         xml:space="preserve"
         style="font-style:normal;font-variant:normal;font-weight:normal;font-stretch:normal;font-size:13.33333302px;line-height:1.25;font-family:Iosevka;-inkscape-font-specification:Iosevka;text-align:start;letter-spacing:0px;word-spacing:0px;text-anchor:start;display:inline;fill:#ffffff;fill-opacity:1;stroke:none"
         id="text1670"
         x="965.8476"
         y="0"><textPath
           xlink:href="#circle1666"
           id="textPath1672"
           style="font-style:normal;font-variant:normal;font-weight:bold;font-stretch:normal;font-size:16px;font-family:'DejaVu Sans';-inkscape-font-specification:'DejaVu Sans Bold';text-align:start;letter-spacing:5px;text-anchor:start;fill:#ffffff">Abteilung  für  Redundanz  Abteilung</textPath></text>
      <g
         transform="matrix(0.52824948,0.31556339,-0.31556339,0.52824948,118.13559,52.700312)"
         id="g4344">
        <path
           style="fill:none;fill-opacity:1;stroke:#ed301d;stroke-width:2px;stroke-miterlimit:10;stroke-opacity:1"
           inkscape:connector-curvature="0"
           id="path3682"
           d="m 424.09971,146.95106 c 0,0 -3.7163,-17.74585 2.00177,-33.47331"
           class="cls-1" />
        <path
           id="path3684"
           d="m 434.63127,131.97534 h -22.825 a 2.853,2.853 0 0 0 0,5.706 h 22.825 a 2.853,2.853 0 1 0 0,-5.706 z"
           inkscape:connector-curvature="0"
           style="fill:#ed301d;fill-opacity:1" />
        <polygon
           transform="translate(283.62027,60.905337)"
           id="polygon3686"
           points="147.207,93.895 151.011,76.776 128.186,76.776 131.99,93.895 "
           style="fill:#ed301d;fill-opacity:1" />
        <path
           style="fill:#ed301d;fill-opacity:1;stroke-width:0.7313571"
           inkscape:connector-curvature="0"
           id="path3688"
           d="m 427.85664,99.229711 a 9.8148121,9.8148121 0 0 0 -2.83109,0.08411 11.373334,11.373334 0 0 0 -2.23722,1.957839 11.375528,11.375528 0 0 0 -2.55317,1.52269 9.8184689,9.8184689 0 0 0 -0.95515,2.66653 9.8155435,9.8155435 0 0 0 -0.79425,2.71772 11.359438,11.359438 0 0 0 1.17017,2.73308 11.380648,11.380648 0 0 0 0.65822,2.8991 9.8082299,9.8082299 0 0 0 2.24015,1.73186 l 2.34034,1.59582 2.96053,-0.26914 a 11.385767,11.385767 0 0 0 2.96054,0.26914 9.8089613,9.8089613 0 0 0 2.34034,-1.59582 9.8243198,9.8243198 0 0 0 2.24088,-1.73186 11.371871,11.371871 0 0 0 0.65822,-2.8991 11.384304,11.384304 0 0 0 1.17017,-2.73308 9.8155435,9.8155435 0 0 0 -0.79425,-2.71772 9.8184689,9.8184689 0 0 0 -0.95515,-2.66653 11.375528,11.375528 0 0 0 -2.55317,-1.52269 11.396006,11.396006 0 0 0 -2.23722,-1.957839 9.8148121,9.8148121 0 0 0 -2.82889,-0.08411 z" />
        <path
           inkscape:connector-curvature="0"
           id="path3696"
           d="m 418.33767,120.91469 c 0.83564,2.27869 2.6922,3.76844 4.44332,3.73084 1.35926,-1.10545 1.80994,-3.43839 0.97242,-5.71941 -0.83752,-2.28099 -2.69159,-3.76763 -4.44332,-3.73081 -1.35927,1.10545 -1.80993,3.43838 -0.97242,5.71938 z"
           style="fill:#ed301d;fill-opacity:1" />
        <path
           inkscape:connector-curvature="0"
           id="path3698"
           d="m 420.69314,123.9492 a 3.727,3.727 0 0 0 -4.15053,-0.63955 4.223,4.223 0 0 0 5.69821,4.54441 3.73,3.73 0 0 0 -1.54768,-3.90486 z"
           style="fill:#ed301d;fill-opacity:1" />
      </g>
    </g>
    <path
       inkscape:label="star1"
       sodipodi:type="star"
       style="display:inline;fill:#ed301d;fill-opacity:1;stroke:none;stroke-width:1.88976383;stroke-linecap:round;stroke-linejoin:miter;stroke-miterlimit:4;stroke-dasharray:none;stroke-dashoffset:0;stroke-opacity:1;paint-order:stroke fill markers"
       id="path1652"
       sodipodi:sides="5"
       sodipodi:cx="60.793938"
       sodipodi:cy="54.839413"
       sodipodi:r1="23.318687"
       sodipodi:r2="11.659343"
       sodipodi:arg1="0.98279372"
       sodipodi:arg2="1.6111123"
       inkscape:flatsided="false"
       inkscape:rounded="0"
       inkscape:randomized="0"
       d="M 73.728818,74.241733 60.324007,66.489281 46.338332,73.136862 49.569038,57.99249 38.925002,46.745538 54.326498,45.138253 61.733797,31.539673 68.02174,45.690689 83.243739,48.533257 71.728405,58.88635 Z"
       inkscape:transform-center-x="-0.010465362"
       inkscape:transform-center-y="-1.8888469"
       transform="matrix(0.8520927,-0.03291829,0.03291829,0.8520927,92.261045,-33.248522)" />
    <path
       inkscape:label="star2"
       transform="matrix(0.8520927,-0.03291829,0.03291829,0.8520927,170.46227,-147.12047)"
       inkscape:transform-center-y="-1.8888499"
       inkscape:transform-center-x="-0.010463362"
       d="M 73.728818,74.241733 60.324007,66.489281 46.338332,73.136862 49.569038,57.99249 38.925002,46.745538 54.326498,45.138253 61.733797,31.539673 68.02174,45.690689 83.243739,48.533257 71.728405,58.88635 Z"
       inkscape:randomized="0"
       inkscape:rounded="0"
       inkscape:flatsided="false"
       sodipodi:arg2="1.6111123"
       sodipodi:arg1="0.98279372"
       sodipodi:r2="11.659343"
       sodipodi:r1="23.318687"
       sodipodi:cy="54.839413"
       sodipodi:cx="60.793938"
       sodipodi:sides="5"
       id="path1654"
       style="display:inline;fill:#ed301d;fill-opacity:1;stroke:none;stroke-width:1.88976383;stroke-linecap:round;stroke-linejoin:miter;stroke-miterlimit:4;stroke-dasharray:none;stroke-dashoffset:0;stroke-opacity:1;paint-order:stroke fill markers"
       sodipodi:type="star" />
  </g>
</svg>
