<?xml version="1.0" encoding="UTF-8" standalone="no"?>
<svg
   xmlns:dc="http://purl.org/dc/elements/1.1/"
   xmlns:cc="http://creativecommons.org/ns#"
   xmlns:rdf="http://www.w3.org/1999/02/22-rdf-syntax-ns#"
   xmlns:svg="http://www.w3.org/2000/svg"
   xmlns="http://www.w3.org/2000/svg"
   xmlns:sodipodi="http://sodipodi.sourceforge.net/DTD/sodipodi-0.dtd"
   xmlns:inkscape="http://www.inkscape.org/namespaces/inkscape"
   width="26mm"
   height="30mm"
   viewBox="0 0 26 30"
   version="1.1"
   id="svg880"
   inkscape:version="1.0 (unknown)"
   sodipodi:docname="spectre_bug.svg">
  <defs
     id="defs874" />
  <sodipodi:namedview
     id="base"
     pagecolor="#ffffff"
     bordercolor="#666666"
     borderopacity="1.0"
     inkscape:pageopacity="0.0"
     inkscape:pageshadow="2"
     inkscape:zoom="2.6517653"
     inkscape:cx="158.83525"
     inkscape:cy="58.504866"
     inkscape:document-units="mm"
     inkscape:current-layer="layer1"
     inkscape:document-rotation="0"
     showgrid="false"
     inkscape:window-width="1916"
     inkscape:window-height="1041"
     inkscape:window-x="0"
     inkscape:window-y="18"
     inkscape:window-maximized="1" />
  <metadata
     id="metadata877">
    <rdf:RDF>
      <cc:Work
         rdf:about="">
        <dc:format>image/svg+xml</dc:format>
        <dc:type
           rdf:resource="http://purl.org/dc/dcmitype/StillImage" />
        <dc:title></dc:title>
      </cc:Work>
    </rdf:RDF>
  </metadata>
  <g
     inkscape:label="Layer 1"
     inkscape:groupmode="layer"
     id="layer1">
    <path
       d="m 24.252202,3.4160079 a 0.20160628,0.20160628 0 0 0 -0.191356,0.1187426 c -0.0034,0.00686 -0.230651,0.4954725 -0.468136,1.0507442 L 23.247587,3.9097722 a 0.20502334,0.20502334 0 0 0 -0.274219,-0.090555 0.20502334,0.20502334 0 0 0 -0.09055,0.2742182 l 0.492056,0.9636094 c 0.0034,0.00686 0.0069,0.013671 0.01367,0.020501 L 23.280903,5.344931 C 23.070755,5.8908054 23.016936,6.2384908 23.00754,6.4383888 l -1.102,1.272853 -0.146934,-0.867078 a 0.20546811,0.20546811 0 1 0 -0.404921,0.07005 l 0.205024,1.197678 -1.570992,1.816166 a 1.2796873,1.2796873 0 0 0 -0.70135,-0.264823 c -0.06321,-0.0025 -0.12814,0 -0.196481,0.0086 -0.240048,0.03246 -0.415172,0.09397 -0.542458,0.213567 a 0.50230717,0.50230717 0 0 0 -0.139245,0.4373822 c 0.0085,0.04442 0.02392,0.0803 0.03759,0.117034 -0.04528,0.02563 -0.09227,0.05296 -0.138391,0.08799 a 0.55014596,0.55014596 0 0 0 -0.229797,0.386128 c -0.01282,0.155475 0.05724,0.305826 0.175123,0.441654 -0.05296,0.01367 -0.11447,0.04271 -0.186229,0.117034 a 0.36306217,0.36306217 0 0 0 -0.07005,0.317786 c 0.03075,0.09397 0.08201,0.153768 0.145225,0.218691 0.06834,0.06834 0.131558,0.138391 0.196481,0.207587 l -0.216983,0.298991 c -0.03674,0.04357 -0.05296,0.09739 -0.04954,0.153768 0.006,0.05724 0.03332,0.107638 0.07688,0.140954 l 0.223818,0.177687 a 0.20502334,0.20502334 0 0 0 0.287887,-0.03417 l 0.234068,-0.298134 c 0.216983,0.09995 0.484368,0.142662 0.804716,0.101658 h 0.006 c 0.0085,0 0.0094,-8.4e-4 0.01282,-0.0017 h 0.0034 l 0.0069,-8.39e-4 0.01367,-0.0025 a 0.48351338,0.48351338 0 0 0 0.06663,-0.01794 1.5633029,1.5633029 0 0 0 0.593713,-0.337435 c 0.304972,-0.281054 0.545875,-0.803009 0.330601,-1.523152 a 0.24175668,0.24175668 0 0 0 -0.01282,-0.03246 c 0,0 -0.08713,-0.188793 -0.249445,-0.414318 l 2.84124,-3.6392432 1.093457,-0.546729 a 0.2058776,0.2058776 0 0 0 0.09397,-0.273364 0.20673186,0.20673186 0 0 0 -0.274219,-0.093969 l -0.760294,0.378439 -0.02307,-0.01709 c 0.03075,-0.170852 0.09397,-0.4151717 0.221254,-0.743209 0.294721,-0.7628591 0.766275,-1.7768694 0.768838,-1.7862659 a 0.20331481,0.20331481 0 0 0 -0.17939,-0.2904745 z m -5.040157,6.7315991 h 0.05553 c 0.263113,0.01367 0.49291,0.187084 0.679139,0.398942 0.203316,0.230651 0.316078,0.461302 0.326329,0.484367 0.163164,0.564668 -0.0017,0.827781 -0.198189,1.008031 a 1.1037089,1.1037089 0 0 1 -0.408338,0.23236 l -0.01965,0.0052 c -0.316932,0.04357 -0.478388,-0.006 -0.635573,-0.107637 -0.128993,-0.08371 -0.263112,-0.227235 -0.420298,-0.392107 0.01538,-0.0052 0.02563,-0.006 0.04271,-0.01281 a 0.34512263,0.34512263 0 0 0 0.190506,-0.165766 c 0.05211,-0.102511 0.03246,-0.23065 -0.0077,-0.310097 a 0.7859228,0.7859228 0 0 0 -0.16829,-0.213564 c -0.0897,-0.08799 -0.08799,-0.12045 -0.08799,-0.119596 8.4e-4,-8.39e-4 0.0069,-0.01623 0.04271,-0.04271 0.08372,-0.06492 0.261405,-0.118742 0.261405,-0.118742 a 0.24175668,0.24175668 0 0 0 0.113617,-0.40663 c 0,0 -0.08543,-0.117034 -0.09397,-0.152059 0.01538,-0.01282 0.09056,-0.05809 0.269947,-0.08202 0.01879,-0.0025 0.03845,-0.0042 0.05724,-0.0052 z m 0.458739,2.127117 h 8.4e-4 a 0.24175668,0.24175668 0 0 0 -0.0085,0 z m 0.0598,0.0034 h 0.0017 a 0.24175668,0.24175668 0 0 0 -0.0017,0 z M 3.0596227,11.831361 c -0.401504,0.0034 -0.8944143,0.151204 -1.3283804,0.620195 a 0.24175668,0.24175668 0 0 0 -0.017086,0.02136 c -0.5441661,0.742355 -0.6825568,1.56074 -0.6825568,1.56074 a 0.24175668,0.24175668 0 0 0 0.3622079,0.250299 l 0.475825,-0.281907 0.077738,0.523663 a 0.24175668,0.24175668 0 0 0 0.3929614,0.151206 l 0.3758761,-0.307535 0.213566,0.432257 a 0.24175668,0.24175668 0 0 0 0.4501971,-0.041 c 0,0 0.079446,-0.274218 0.1905009,-0.529643 0.055527,-0.128139 0.1221597,-0.251153 0.1734155,-0.316932 0.019647,-0.02562 0.029046,-0.03246 0.035879,-0.03844 a 0.41004667,0.41004667 0 0 0 0.243465,-0.05724 0.52793509,0.52793509 0 0 0 0.1734159,-0.183667 1.1404423,1.1404423 0 0 0 0.142662,-0.478388 c 0.035879,-0.354521 -0.029897,-0.789342 -0.3536649,-1.070395 a 0.24175668,0.24175668 0 0 0 -0.034171,-0.02563 c 0,0 -0.3015551,-0.182812 -0.7261242,-0.222109 -0.052965,-0.0042 -0.1084915,-0.0069 -0.1657271,-0.0069 z M 2.9340458,12.32 c 0.085427,-0.0086 0.1682901,-0.0069 0.246028,0 a 1.2643105,1.2643105 0 0 1 0.4971816,0.145225 c 0.1366825,0.131556 0.203315,0.405776 0.1793954,0.643261 a 0.7594406,0.7594406 0 0 1 -0.076884,0.276781 l -0.00255,0.0052 a 0.42200637,0.42200637 0 0 0 -0.2374852,0.05895 0.65607467,0.65607467 0 0 0 -0.1793954,0.167436 c -0.096531,0.12472 -0.1708522,0.273362 -0.2349219,0.420296 l -0.014535,0.03759 -0.094823,-0.193919 A 0.24175668,0.24175668 0 0 0 2.6453058,13.80052 L 2.363402,14.03199 2.2950612,13.574105 A 0.24175668,0.24175668 0 0 0 1.9319991,13.401501 l -0.2477365,0.146933 a 3.3709252,3.3709252 0 0 1 0.4117552,-0.77738 c 0.294721,-0.315224 0.582608,-0.427132 0.8371786,-0.451051 z m 0.90552,1.078081 0.00342,8.4e-4 h -0.00427 8.395e-4 z M 8.3013859,9.2275648 a 0.24175668,0.24175668 0 0 0 -0.1110541,0.463011 c 0,0 2.7045992,1.2583302 5.6586442,0.0034 a 0.24228907,0.24228907 0 1 0 -0.189647,-0.445926 c -2.749021,1.1677792 -5.2648279,0.0034 -5.2648279,0.0034 a 0.24175668,0.24175668 0 0 0 -0.09311,-0.02392 z M 8.8754517,7.9376258 A 1.6957138,1.6957138 0 0 1 7.4138058,5.8361371 1.6914425,1.6914425 0 0 1 8.5482686,4.6401677 c 0.5723567,0.143516 1.1404412,0.3041179 1.7127994,0.4544682 0.05382,0.00686 0.08371,0.057238 0.113616,0.093969 a 1.6555634,1.6555634 0 0 1 0.334872,0.6996421 c 0.0803,0.3442688 0.04357,0.7192898 -0.09995,1.0439098 a 1.6675232,1.6675232 0 0 1 -0.6962247,0.782506 1.67692,1.67692 0 0 1 -1.0370755,0.224671 z m 4.7240793,-0.08286 a 1.6888797,1.6888797 0 0 1 -1.957119,-0.645823 1.6974223,1.6974223 0 0 1 0.120451,-2.0673185 c 0.01709,-0.020501 0.04015,-0.030752 0.06321,-0.037592 0.559543,-0.1537675 1.118232,-0.3109512 1.67692,-0.4681359 0.04271,-0.013671 0.08713,0.012816 0.130703,0.025631 a 1.6914425,1.6914425 0 0 1 0.628738,2.7609814 1.6171216,1.6171216 0 0 1 -0.662909,0.432257 z m -3.30771,-6.96481301 c 1.395013,-0.2007521 2.847261,0.12814001 4.051773,0.89697761 1.037077,0.6560744 1.890487,1.6299353 2.456009,2.7609809 0.512558,1.0165734 0.790195,2.1612865 0.816676,3.3128345 0.0034,0.06321 0.01367,0.126432 0.01367,0.187084 V 15.42867 c 0,0.07432 -0.0034,0.147787 0.006,0.222108 0.01709,0.129848 0,0.260551 0.02734,0.391253 0.03674,0.176833 0.08372,0.357937 0.170853,0.515121 a 1.7649093,1.7649093 0 0 0 1.190844,0.903812 c 0.100803,0.02307 0.217838,0.01965 0.294721,0.106782 0.119597,0.117035 0.106783,0.351103 -0.03075,0.448489 -0.06663,0.04015 -0.106783,0.117035 -0.160601,0.173416 a 2.3509342,2.3509342 0 0 1 -1.686317,0.823511 2.3996273,2.3996273 0 0 1 -1.940888,-0.803009 2.0382737,2.0382737 0 0 1 -0.642406,0.709039 c -0.09995,0.05125 -0.193918,0.117035 -0.300701,0.157185 -0.294721,0.130702 -0.622758,0.158039 -0.937128,0.123868 a 1.8845062,1.8845062 0 0 1 -1.1746,-0.658638 c -0.341705,0.548438 -0.94994,0.896978 -1.571845,0.883309 -0.177687,0.01025 -0.351956,-0.03674 -0.519393,-0.07346 A 1.9135512,1.9135512 0 0 1 9.344484,18.591157 1.8503356,1.8503356 0 0 1 8.2766548,19.307885 1.8024968,1.8024968 0 0 1 6.6074227,18.846582 C 6.5407478,18.78934 6.4903463,18.70904 6.4228595,18.648387 A 2.3919389,2.3919389 0 0 1 4.9338776,19.287376 2.3808335,2.3808335 0 0 1 2.8264087,18.300701 c -0.043567,-0.05979 -0.053819,-0.136682 -0.097386,-0.200752 a 0.30155515,0.30155515 0 0 1 0.076884,-0.398087 c 0.0803,-0.06407 0.187938,-0.05125 0.281907,-0.06407 a 1.841793,1.841793 0 0 0 0.9661726,-0.455324 c 0.3212031,-0.290449 0.5424575,-0.726124 0.5458745,-1.177175 0.017087,-0.425423 0.00342,-0.849993 0.00683,-1.275416 V 8.0708898 c 0.00598,-0.09397 -0.017087,-0.190501 -0.013667,-0.28447 A 7.9010866,7.9010866 0 0 1 5.2687451,4.8486083 7.0972243,7.0972243 0 0 1 7.2634517,2.2285802 C 8.1501768,1.5127075 9.1975048,1.0411534 10.291817,0.88994899 M 10.773622,1.432407 A 5.5270875,5.5270875 0 0 0 8.3235924,2.1952643 6.154117,6.154117 0 0 0 6.4766745,3.8918323 C 5.6975858,4.9596624 5.2422632,6.2837718 5.1687964,7.6335078 c 0.0094,0.276782 0.00342,0.557834 0.00598,0.836325 V 13.4519 c -0.00255,0.856827 0.00683,1.7128 -0.00255,2.566209 a 2.2424427,2.2424427 0 0 1 -0.331451,1.104563 2.3475172,2.3475172 0 0 1 -1.3821989,1.033659 c 0.1776868,0.170853 0.3818558,0.307535 0.6056732,0.398086 a 1.9374705,1.9374705 0 0 0 0.9234583,0.130704 1.8349588,1.8349588 0 0 0 1.151548,-0.551855 c 0.052964,-0.04699 0.046131,-0.130702 0.093969,-0.184521 a 0.27165592,0.27165592 0 0 1 0.3707507,-0.06321 c 0.07005,0.04699 0.103366,0.13412 0.1469332,0.204169 0.059798,0.09397 0.1281396,0.183667 0.2007521,0.264822 a 1.262602,1.262602 0 0 0 0.6492406,0.370751 c 0.1281391,0.0299 0.2579873,0.02734 0.3844183,0.02392 0.4758253,-0.03075 0.9174798,-0.358791 1.1045641,-0.823511 0.074319,-0.213566 0.378438,-0.270802 0.5159746,-0.09995 0.056383,0.06663 0.070054,0.160602 0.1136173,0.240903 a 1.3599881,1.3599881 0 0 0 0.7995911,0.705622 c 0.140099,0.03417 0.28447,0.06321 0.427986,0.05382 0.468991,-0.01025 0.920897,-0.307535 1.127629,-0.753461 0.05382,-0.09397 0.06749,-0.210149 0.134119,-0.297284 a 0.27336445,0.27336445 0 0 1 0.387835,-0.04015 c 0.05724,0.04271 0.07689,0.119597 0.120452,0.173415 0.04699,0.05979 0.08371,0.12814 0.130702,0.187939 0.254571,0.32462 0.642407,0.535623 1.043911,0.518537 0.211003,0.0034 0.428841,-0.04699 0.612507,-0.160601 a 1.4009928,1.4009928 0 0 0 0.492056,-0.468137 c 0.0598,-0.09397 0.09056,-0.205023 0.143516,-0.301554 0.03674,-0.05724 0.0205,-0.134121 0.05382,-0.190502 a 0.26653033,0.26653033 0 0 1 0.334872,-0.147787 c 0.103366,0.03417 0.160601,0.137537 0.227234,0.224671 a 1.7614922,1.7614922 0 0 0 0.441654,0.48864 1.9144054,1.9144054 0 0 0 2.001541,0.170852 2.2595281,2.2595281 0 0 0 0.410901,-0.28447 2.4483203,2.4483203 0 0 1 -0.913209,-0.619341 2.1911869,2.1911869 0 0 1 -0.492055,-0.883309 c -0.06323,-0.200751 -0.08031,-0.415171 -0.09996,-0.626175 V 8.2280848 c 0,-0.06321 -0.01367,-0.126433 -0.01367,-0.190503 A 7.2902882,7.2902882 0 0 0 16.843166,6.1735778 C 16.498898,4.8656932 15.769356,3.670578 14.775847,2.8111894 14.313691,2.4199367 13.798569,2.0850651 13.246715,1.8638109 12.449686,1.522105 11.606529,1.378589 10.773622,1.432408 Z"
       fill="#036994"
       id="path83630"
       style="stroke-width:0.0854262" />
    <g
       id="g24"
       transform="matrix(0.08542639,0,0,0.08542639,-25.667564,-2.683437)"
       aria-label="SPECTRE"
       fill="#036994">
      <path
         d="M 365.33,337.62 H 353.1 v -3.75 q 0,-2.62 -0.47,-3.34 -0.47,-0.72 -1.56,-0.72 -1.19,0 -1.81,0.97 -0.6,0.97 -0.6,2.94 0,2.53 0.69,3.81 0.66,1.28 3.72,3.1 8.78,5.21 11.06,8.56 2.28,3.34 2.28,10.78 0,5.4 -1.28,7.97 -1.25,2.56 -4.87,4.3 -3.63,1.73 -8.44,1.73 -5.28,0 -9.03,-2 -3.72,-2 -4.88,-5.1 -1.15,-3.09 -1.15,-8.78 v -3.31 h 12.21 v 6.16 q 0,2.84 0.5,3.65 0.54,0.81 1.85,0.81 1.31,0 1.94,-1.03 0.65,-1.03 0.65,-3.06 0,-4.47 -1.22,-5.84 -1.25,-1.38 -6.15,-4.6 -4.9,-3.25 -6.5,-4.72 -1.6,-1.46 -2.66,-4.06 -1.03,-2.6 -1.03,-6.62 0,-5.82 1.47,-8.5 1.5,-2.69 4.81,-4.19 3.31,-1.53 8,-1.53 5.13,0 8.72,1.65 3.62,1.66 4.78,4.2 1.19,2.5 1.19,8.52 z"
         id="S" />
      <path
         d="m 372.58,322.31 h 13.25 q 5.37,0 8.25,0.84 2.9,0.85 4.34,2.44 1.47,1.6 1.97,3.88 0.53,2.25 0.53,7 v 4.4 q 0,4.85 -1,7.07 -1,2.21 -3.69,3.4 -2.65,1.19 -6.96,1.19 h -3.54 v 20.37 h -13.15 z m 13.15,8.66 v 12.87 q 0.57,0.03 0.97,0.03 1.82,0 2.5,-0.87 0.72,-0.9 0.72,-3.72 v -4.16 q 0,-2.59 -0.81,-3.37 -0.81,-0.78 -3.38,-0.78 z"
         id="P" />
      <path
         id="use16"
         d="m 406.7,322.31 h 21.94 v 10.13 h -8.78 v 9.59 h 8.22 v 9.62 h -8.22 v 11.13 h 9.65 V 372.9 H 406.7 Z" />
      <path
         d="m 466.05,344.37 h -13.16 v -8.8 q 0,-3.85 -0.44,-4.79 -0.4,-0.97 -1.84,-0.97 -1.63,0 -2.06,1.16 -0.44,1.15 -0.44,5 v 23.5 q 0,3.68 0.44,4.81 0.43,1.12 1.97,1.12 1.46,0 1.9,-1.12 0.47,-1.13 0.47,-5.28 v -6.35 h 13.16 v 1.97 q 0,7.85 -1.13,11.13 -1.1,3.28 -4.9,5.75 -3.79,2.47 -9.35,2.47 -5.78,0 -9.53,-2.1 -3.75,-2.09 -4.97,-5.78 -1.22,-3.72 -1.22,-11.15 v -14.79 q 0,-5.46 0.38,-8.18 0.37,-2.75 2.22,-5.28 1.87,-2.54 5.15,-3.97 3.32,-1.47 7.6,-1.47 5.8,0 9.6,2.25 3.77,2.25 4.96,5.62 1.19,3.35 1.19,10.44 z"
         id="C" />
      <path
         id="use19"
         d="m 499.34,322.31 v 10.13 h -7.81 v 40.46 h -13.16 v -40.46 h -7.78 V 322.3 Z" />
      <path
         d="m 504.33,322.31 h 9.31 q 9.31,0 12.6,0.72 3.3,0.72 5.37,3.69 2.1,2.93 2.1,9.4 0,5.91 -1.48,7.94 -1.46,2.03 -5.78,2.44 3.9,0.97 5.25,2.6 1.35,1.62 1.66,3 0.34,1.34 0.34,7.46 v 13.34 h -12.22 v -16.8 q 0,-4.07 -0.65,-5.04 -0.63,-0.97 -3.35,-0.97 v 22.81 h -13.15 z m 13.15,8.66 v 11.25 q 2.22,0 3.1,-0.6 0.9,-0.62 0.9,-3.97 v -2.78 q 0,-2.4 -0.87,-3.15 -0.84,-0.75 -3.13,-0.75 z"
         id="R" />
      <path
         id="use22"
         d="m 540.83,322.31 h 21.94 v 10.13 h -8.78 v 9.59 h 8.22 v 9.62 h -8.22 v 11.13 h 9.65 v 10.12 h -22.81 z" />
    </g>
  </g>
</svg>
