<?xml version="1.0" encoding="UTF-8" standalone="no"?>
<svg
   xmlns:dc="http://purl.org/dc/elements/1.1/"
   xmlns:cc="http://creativecommons.org/ns#"
   xmlns:rdf="http://www.w3.org/1999/02/22-rdf-syntax-ns#"
   xmlns:svg="http://www.w3.org/2000/svg"
   xmlns="http://www.w3.org/2000/svg"
   xmlns:sodipodi="http://sodipodi.sourceforge.net/DTD/sodipodi-0.dtd"
   xmlns:inkscape="http://www.inkscape.org/namespaces/inkscape"
   inkscape:export-ydpi="96"
   inkscape:export-xdpi="96"
   inkscape:export-filename="/home/manu/1nput/make/gfx/designs/heartphones.png"
   sodipodi:docname="heartphones.svg"
   inkscape:version="1.0 (4035a4fb49, 2020-05-01)"
   id="svg8"
   version="1.1"
   viewBox="0 0 44.450001 44.45"
   height="44.450001mm"
   width="44.450001mm">
  <defs
     id="defs2" />
  <sodipodi:namedview
     inkscape:document-rotation="0"
     fit-margin-bottom="0"
     fit-margin-right="0"
     fit-margin-left="0"
     fit-margin-top="0"
     inkscape:window-maximized="1"
     inkscape:window-y="0"
     inkscape:window-x="0"
     inkscape:window-height="1031"
     inkscape:window-width="1916"
     showgrid="false"
     inkscape:current-layer="layer1"
     inkscape:document-units="mm"
     inkscape:cy="36.754036"
     inkscape:cx="-21.641285"
     inkscape:zoom="2.8"
     inkscape:pageshadow="2"
     inkscape:pageopacity="0.0"
     borderopacity="1.0"
     bordercolor="#666666"
     pagecolor="#ffffff"
     id="base" />
  <metadata
     id="metadata5">
    <rdf:RDF>
      <cc:Work
         rdf:about="">
        <dc:format>image/svg+xml</dc:format>
        <dc:type
           rdf:resource="http://purl.org/dc/dcmitype/StillImage" />
        <dc:title></dc:title>
      </cc:Work>
    </rdf:RDF>
  </metadata>
  <g
     transform="translate(-64.259123,-60.032061)"
     id="layer1"
     inkscape:groupmode="layer"
     inkscape:label="Layer 1">
    <g
       transform="matrix(1.0330957,0,0,1.0330957,-0.8615747,-8.2984819)"
       id="text3715"
       style="font-style:normal;font-weight:normal;font-size:10.58333302px;line-height:1.25;font-family:sans-serif;letter-spacing:0px;word-spacing:0px;fill:#d40000;fill-opacity:1;stroke:none;stroke-width:0.26458332"
       aria-label="♥">
      <path
         inkscape:connector-curvature="0"
         id="path3815"
         style="stroke-width:0.88181275;fill:#d40000"
         d="m 78.230786,77.386967 q 3.496251,0 5.494106,4.047382 0.723362,1.601732 0.75781,2.445656 h 0.05166 q 0.6028,-2.790114 2.187307,-4.632963 1.860075,-1.860075 4.185168,-1.860075 3.599585,0 5.769672,3.857931 0.551134,1.429503 0.551134,2.686775 0,4.305724 -3.582365,8.215324 L 84.534367,103.08355 H 84.431011 L 74.751735,91.216962 q -2.893448,-3.530696 -2.893448,-7.285289 0,-3.634034 3.427358,-5.769675 1.446724,-0.775031 2.945117,-0.775031 z" />
    </g>
    <path
       style="stroke:#000000;stroke-width:0.21666509px"
       inkscape:connector-curvature="0"
       id="path2992"
       d="m 69.942941,85.223582 h 2.645833 V 73.840384 c 0,-1.672783 2.987146,-3.66117 5.291667,-4.30132 6.518539,-1.810625 10.679377,-1.810625 17.197916,0 2.304627,0.64015 5.291663,2.628555 5.291663,4.30132 v 11.383198 h 2.64584 V 73.840384 c 0,-2.132296 -2.48804,-4.316579 -5.291669,-5.322757 -7.77584,-2.790722 -14.713744,-2.790722 -22.489583,0 -2.803525,1.006178 -5.291667,3.190461 -5.291667,5.322757 z"
       sodipodi:nodetypes="ccsccsccsccsc" />
    <path
       inkscape:connector-curvature="0"
       id="path2994"
       style="color:#000000;stroke-width:0.17371857"
       d="m 103.41273,73.025879 c 2.03359,1.227109 3.40179,3.522069 3.40179,6.14885 0,2.626958 -1.36822,4.916276 -3.40179,6.143349 z" />
    <path
       inkscape:connector-curvature="0"
       id="path2994-4"
       style="color:#000000;stroke-width:0.17371857"
       d="m 69.555515,85.318078 c -2.03359,-1.227109 -3.40179,-3.522069 -3.40179,-6.14885 0,-2.626958 1.36822,-4.916276 3.40179,-6.143349 z" />
  </g>
</svg>
