<?xml version="1.0" encoding="UTF-8" standalone="no"?>
<svg
   xmlns:dc="http://purl.org/dc/elements/1.1/"
   xmlns:cc="http://creativecommons.org/ns#"
   xmlns:rdf="http://www.w3.org/1999/02/22-rdf-syntax-ns#"
   xmlns:svg="http://www.w3.org/2000/svg"
   xmlns="http://www.w3.org/2000/svg"
   viewBox="0 0 358.31518 262.97128"
   height="262.97128"
   width="358.31519"
   xml:space="preserve"
   version="1.1"
   id="svg2"><metadata
     id="metadata8"><rdf:RDF><cc:Work
         rdf:about=""><dc:format>image/svg+xml</dc:format><dc:type
           rdf:resource="http://purl.org/dc/dcmitype/StillImage" /><dc:title></dc:title></cc:Work></rdf:RDF></metadata><defs
     id="defs6" /><g
     transform="matrix(1.25,0,0,-1.25,-275.04332,470.51216)"
     id="g10"><g
       transform="scale(0.1,0.1)"
       id="g12"><path
         id="path14"
         transform="matrix(8,0,0,-8,0,5421.8)"
         d="m 367.80469,217.52539 c -23.88375,0.005 -64.22531,2.7093 -71.44531,3.0918 -9.71625,0.51625 -11.58274,46.69742 -10.86524,58.20117 0.60875,9.7875 0.84016,63.70969 12.25391,64.02344 39.38125,1.09 80.49929,-0.21516 121.18554,0.87109 8.05,0 20.21086,1.31805 21.97461,-5.2207 2.44,-9.055 4.18883,-16.83555 4.70508,-22.68555 0.49625,-5.625 -0.14344,-8.56703 -3.39844,-8.64453 -6.18,-0.145 -4.36625,5.28719 -6.09375,13.05469 -0.98625,4.435 -2.89578,11.31234 -7.58203,13.18359 -6.47,2.58125 -60.08187,1.61133 -89.45312,1.61133 -16.3275,-0.59875 -34.29406,4.10023 -39.16406,-9.57227 -5.65626,-15.8825 -6.15102,-31.53 -5.88477,-45.84375 0.32,-17.2 -1.68336,-49.69461 14.80664,-51.19336 38.0775,-3.46125 112.48437,-5.27781 123.14063,2.17969 7.35874,5.15 2.46023,19.00102 7.70898,20.38477 1.68,0.025 4.25125,0.71906 6.46875,-0.46094 0.805,-18.36125 -5.84828,-28.35867 -9.05078,-28.88867 -21.35125,-3.52875 -46.08039,-4.09805 -69.30664,-4.0918 z M 395,229.92578 c -1.95875,8.7025 -2.67477,24.58352 1.52148,27.19727 17.18,10.7 41.89657,6.37914 62.66407,6.30664 11.8375,-0.04 44.59672,-4.78469 60.48047,10.44531 1.305,1.30625 3.48078,2.82836 2.17578,4.56836 -7.615,-4.13375 -19.37344,-7.83828 -25.02344,-7.83203 -35.04375,0.0375 -101.32594,0.67531 -104.42969,-1.52344 -14.08,-9.97625 -21.54047,-25.45476 -32.41797,-38.07227 l -8.48632,-0.4375 16.7539,21.32227 c 7.8325,7.615 13.0557,20.01625 23.06445,23.0625 36.98625,2.3925 75.05922,1.52258 112.69922,2.61133 6.745,0.86875 15.23055,2.61047 17.8418,9.35547 -4.56875,-1.9575 -9.79187,-2.61172 -14.57813,-3.69922 0,0 -105.12539,-3.50235 -115.96289,-0.43359 -3.8925,1.10124 -5.51023,1.42226 -7.83398,3.47851 -14.415,12.75 -25.67344,29.37367 -36.11719,43.95117 l 7.83399,0 c 16.7525,-17.40625 26.24461,-44.06508 52.75586,-42.61133 17.92375,0.98375 62.12054,0.83649 90.40429,1.27149 8.92,-0.2175 18.0586,0 23.9336,5.875 -20.66875,-1.52375 -46.40133,-0.80508 -68.42383,-0.36133 -12.0525,0.24375 -53.74508,-3.47094 -58.42383,7.53906 -3.69875,8.7025 -2.04078,24.95836 -1.51953,27.84961 2.2275,0.98875 5.28711,0.0918 5.28711,0.0918 4.14125,-3.71125 -0.30367,-13.57602 1.45508,-20.54102 0.69625,-2.75 1.11211,-6.14593 4.78711,-6.74218 33.50625,-5.43875 69.84304,-0.65594 104.43554,-2.17969 0.65375,0.21875 1.95899,0.87078 1.52149,2.17578 -1.08625,1.305 -0.21657,3.69781 1.52344,4.13281 20.45125,8.2675 40.9032,-2.39328 57.43945,-13.48828 l 0.43555,0.4336 c -10.44376,13.92499 -26.97727,20.23546 -44.38477,20.88671 -2.8275,0.43625 -6.74649,0.87047 -7.83399,3.69922 5.87501,6.09 16.3179,3.69899 24.1504,1.95899 15.0125,-3.48 32.19984,-15.66508 35.46484,-31.33008 -6.745,-0.43375 -0.21844,-5.87422 -1.52344,-9.35547 -3.915,-5.6575 -5.43937,3.91656 -8.48437,4.13281 -3.26375,-8.48375 -3.04735,-19.36343 -12.40235,-24.36718 -1.52375,0 -1.52257,1.52382 -2.17382,2.61132 3.91624,8.05 7.17812,16.53367 8.48437,26.10742 -0.87,1.52251 -3.04711,3.91633 -4.78711,2.61133 -2.3925,-12.18375 -9.35602,-22.62656 -15.66602,-33.07031 -3.045,-2.39375 -6.74265,-6.52726 -10.4414,-4.13476 8.2675,13.27249 18.05851,25.89234 21.32226,41.33984 l -1.52343,1.52148 c -1.0875,1.52375 -2.39313,-0.21789 -3.04688,-1.08789 -3.69875,-14.36 -13.48875,-26.54351 -23.0625,-38.50976 -2.61,-1.0875 -5.65562,-5.22149 -8.26562,-1.74024 9.355,11.53 19.14539,22.84469 23.93164,36.11719 l 0,4.78711 c -4.1325,-10.44375 -10.66078,-20.23375 -19.36328,-28.71875 -32.20125,-19.79875 -76.36836,-5.65805 -114.22461,-12.18555 -10.44375,-4.35125 -3.47985,-16.96953 -6.3086,-25.01953 l -0.002,0 -5.65625,0 z m 185.9043,65.97461 c -0.51565,-0.0684 -1.00547,0.39336 -1.6211,0.81836 -7.70125,13.56 -20.23609,26.97953 -35.46484,31.33203 -5.87625,3.69875 -15.01258,0.65195 -20.01758,5.2207 7.3975,9.1375 19.14516,3.04665 28.28516,1.0879 14.57625,-7.8325 26.10914,-21.97438 29.80664,-37.64063 -0.36094,-0.54562 -0.67889,-0.77731 -0.98828,-0.81836 z m 2.72461,10.60742 c -0.13332,-0.004 -0.2761,8e-5 -0.42579,0.0137 -8.70124,15.23 -19.58109,37.85829 -41.12109,36.98829 l 0,2.17382 c 5.6575,5.00625 15.23172,1.74157 21.32422,-1.08593 13.92375,-6.745 20.45055,-20.88821 23.06055,-34.37696 -0.61055,-1.63242 -0.83819,-3.64664 -2.83789,-3.71289 z m -4.34571,31.11328 -7.83398,7.17969 c 11.96625,13.055 17.40609,30.67758 12.40234,48.51758 -0.32,8.4875 -10.1975,14.83023 -12.4375,16.33398 -0.5025,1.82875 -0.70211,4.22657 -1.28711,7.16407 1.93375,-0.34 2.61508,-1.34368 5.89258,-3.04493 11.31375,-7.8325 16.09805,-20.01476 17.4043,-32.85351 0.87125,-4.78625 -1.95625,-9.13844 0,-13.05469 9.13875,2.61125 20.88734,3.91711 29.58984,-0.65039 -2.175,-13.2725 -12.15945,-3.04641 -22.4082,-5.22266 l -0.002,-0.002 c -11.58125,-2.46125 -16.75157,-15.22969 -21.32032,-24.36719 z m -15.29101,12.27149 c -2.85196,-0.0642 -6.6836,1.43164 -6.6836,1.43164 -3.04625,18.71 -25.89148,30.68336 -19.36523,51.56836 l 5.87695,-1.08789 c -0.65375,-15.01 9.35414,-26.97828 18.27539,-36.55078 l 1.95703,4.13281 c 2.82875,21.7575 -8.70382,38.94562 -8.26757,60.48437 -0.2175,12.185 3.48062,23.93485 14.57812,29.8086 3.48,1.30625 2.17367,-4.13305 3.04492,-6.31055 -7.8325,-6.525 -9.13836,-16.10078 -10.44336,-25.45703 3.04625,-25.02 14.79453,-53.51922 2.17578,-77.88672 -0.35343,-0.0817 -0.74101,-0.12363 -1.14843,-0.13281 z"
         style="fill:#000000;fill-opacity:1;stroke:#000000;stroke-width:0.625;stroke-linecap:butt;stroke-linejoin:miter;stroke-miterlimit:4;stroke-dasharray:none;stroke-opacity:1" /></g></g></svg>