<?xml version="1.0" encoding="UTF-8" standalone="no"?>
<!-- Created with Inkscape (http://www.inkscape.org/) -->

<svg
   width="50mm"
   height="30mm"
   viewBox="0 0 50 30"
   version="1.1"
   id="svg767"
   inkscape:version="1.2.2 (b0a8486541, 2022-12-01)"
   sodipodi:docname="12V5A.svg"
   inkscape:export-filename="mlem.pdf"
   inkscape:export-xdpi="96"
   inkscape:export-ydpi="96"
   xml:space="preserve"
   xmlns:inkscape="http://www.inkscape.org/namespaces/inkscape"
   xmlns:sodipodi="http://sodipodi.sourceforge.net/DTD/sodipodi-0.dtd"
   xmlns="http://www.w3.org/2000/svg"
   xmlns:svg="http://www.w3.org/2000/svg"><sodipodi:namedview
     id="namedview769"
     pagecolor="#ffffff"
     bordercolor="#000000"
     borderopacity="0.25"
     inkscape:showpageshadow="2"
     inkscape:pageopacity="0.0"
     inkscape:pagecheckerboard="0"
     inkscape:deskcolor="#d1d1d1"
     inkscape:document-units="mm"
     showgrid="false"
     inkscape:zoom="1.5518659"
     inkscape:cx="-23.197881"
     inkscape:cy="5.7994702"
     inkscape:window-width="1536"
     inkscape:window-height="791"
     inkscape:window-x="0"
     inkscape:window-y="0"
     inkscape:window-maximized="1"
     inkscape:current-layer="svg767" /><defs
     id="defs764" /><path
     id="path291"
     style="opacity:0.996;fill:#000000;stroke:none;stroke-width:0.126567"
     d="m 7.2712942,14.957614 a 4.880787,4.880787 0 0 0 -4.8807214,4.880721 4.880787,4.880787 0 0 0 4.8807214,4.880721 4.880787,4.880787 0 0 0 4.8406748,-4.320071 h 8.949637 v -0.363384 a 4.880787,4.880787 0 0 0 4.867867,4.683455 4.880787,4.880787 0 0 0 2.787924,-0.88646 v -1.309172 a 3.8759192,3.8759192 0 0 1 -2.787924,1.190516 3.8759192,3.8759192 0 0 1 -3.875606,-3.875605 3.8759192,3.8759192 0 0 1 3.875606,-3.8761 3.8759192,3.8759192 0 0 1 2.787924,1.185078 v -1.303239 a 4.880787,4.880787 0 0 0 -2.787924,-0.88646 4.880787,4.880787 0 0 0 -4.867867,4.683455 V 19.277685 H 12.111969 A 4.880787,4.880787 0 0 0 7.2712942,14.957614 Z m 35.4574118,0 a 4.880787,4.880787 0 0 0 -4.84018,4.320071 H 27.764688 a 1.5860466,1.5860466 0 0 0 -1.472326,-1.025387 1.5860466,1.5860466 0 0 0 -1.586035,1.586037 1.5860466,1.5860466 0 0 0 1.586035,1.586037 1.5860466,1.5860466 0 0 0 1.472326,-1.025387 h 10.123838 a 4.880787,4.880787 0 0 0 4.84018,4.320071 4.880787,4.880787 0 0 0 4.880721,-4.880721 4.880787,4.880787 0 0 0 -4.880721,-4.880721 z M 7.2712942,15.962235 a 3.8759192,3.8759192 0 0 1 3.8760998,3.8761 3.8759192,3.8759192 0 0 1 -3.8760998,3.875605 3.8759192,3.8759192 0 0 1 -3.8756053,-3.875605 3.8759192,3.8759192 0 0 1 3.8756053,-3.8761 z m 35.4574118,0 a 3.8759192,3.8759192 0 0 1 3.8761,3.8761 3.8759192,3.8759192 0 0 1 -3.8761,3.875605 3.8759192,3.8759192 0 0 1 -3.875604,-3.875605 3.8759192,3.8759192 0 0 1 3.875604,-3.8761 z" /><path
     id="rect616"
     style="opacity:0.996;fill:#000000;stroke:none;stroke-width:0.126567"
     d="m 42.510989,18.145013 v 1.475786 h -1.475784 v 0.435072 h 1.475784 v 1.475786 h 0.435568 v -1.475786 h 1.475786 v -0.435072 h -1.475786 v -1.475786 z" /><rect
     style="opacity:0.996;fill:#000000;stroke:none;stroke-width:0.126567"
     id="rect616-0"
     width="3.3869431"
     height="0.43514368"
     x="5.5778227"
     y="19.620764" /><text
     xml:space="preserve"
     style="font-style:normal;font-variant:normal;font-weight:normal;font-stretch:normal;font-size:7.04363px;font-family:'Nimbus Mono PS';-inkscape-font-specification:'Nimbus Mono PS, Normal';font-variant-ligatures:normal;font-variant-caps:normal;font-variant-numeric:normal;font-variant-east-asian:normal;text-align:center;text-anchor:middle;fill:#000000;stroke-width:0.166385"
     x="24.728823"
     y="10.508637"
     id="text570"><tspan
       sodipodi:role="line"
       id="tspan568"
       style="font-style:normal;font-variant:normal;font-weight:normal;font-stretch:normal;font-size:7.04363px;font-family:'Nimbus Mono PS';-inkscape-font-specification:'Nimbus Mono PS, Normal';font-variant-ligatures:normal;font-variant-caps:normal;font-variant-numeric:normal;font-variant-east-asian:normal;stroke-width:0.166385"
       x="24.728823"
       y="10.508637">12.0V 5A</tspan></text></svg>
