<?xml version="1.0" encoding="UTF-8" standalone="no"?><!DOCTYPE svg PUBLIC "-//W3C//DTD SVG 1.1//EN" "http://www.w3.org/Graphics/SVG/1.1/DTD/svg11.dtd"><svg width="100%" height="100%" viewBox="0 0 6667 3334" version="1.1" xmlns="http://www.w3.org/2000/svg" xmlns:xlink="http://www.w3.org/1999/xlink" xml:space="preserve" xmlns:serif="http://www.serif.com/" style="fill-rule:evenodd;clip-rule:evenodd;stroke-linecap:round;stroke-linejoin:round;stroke-miterlimit:1.5;"><g id="Ebene-1" serif:id="Ebene 1"><path d="M6511.66,631.677c0,-275.715 -223.845,-499.56 -499.559,-499.56l-4236.57,0c-275.714,0 -499.559,223.845 -499.559,499.56l-0,999.118c-0,275.714 223.845,499.559 499.559,499.559l4236.57,0c275.714,0 499.559,-223.845 499.559,-499.559l0,-999.118Z" style="fill:none;stroke:#000;stroke-width:62.5px;"/><g id="text5790"><g transform="matrix(400,0,0,400,2478.72,2674.74)"></g><text x="175.205px" y="2674.74px" style="font-family:'Helvetica-Bold', 'Helvetica';font-weight:700;font-size:400px;">ZERTIFIKA<tspan x="2234.39px " y="2674.74px ">T</tspan></text><g transform="matrix(400,0,0,400,2469.48,3155.88)"></g><text x="179.833px" y="3155.88px" style="font-family:'Helvetica-Bold', 'Helvetica';font-weight:700;font-size:400px;">2/5 STERNE</text></g><g id="text57901" serif:id="text5790"><g transform="matrix(916.667,0,0,916.667,6211.86,1495.04)"></g><text x="2290.96px" y="1495.04px" style="font-family:'Helvetica-Bold', 'Helvetica';font-weight:700;font-size:916.667px;">OFFLINE</text></g><g id="text57902" serif:id="text5790"><g transform="matrix(916.667,0,0,916.667,6174.36,1461.71)"></g><text x="2253.46px" y="1461.71px" style="font-family:'Helvetica-Bold', 'Helvetica';font-weight:700;font-size:916.667px;fill:#d96526;">OFFLINE</text></g><g id="Layer_2"></g><g id="Ebene-11" serif:id="Ebene 1"></g><rect x="1235.26" y="65.383" width="216.227" height="2089.19" style="fill:#fff;stroke:#fff;stroke-width:4.17px;"/><rect x="1452.22" y="66.456" width="490.201" height="176.5" style="fill:#fff;stroke:#fff;stroke-width:4.17px;"/><path d="M1553.45,2009.62l-274.604,-117.23l-69.298,162.327l274.604,117.23l69.298,-162.327Z" style="fill:#fff;stroke:#fff;stroke-width:4.17px;"/><path d="M1537.7,2039.25c16.997,-0.03 30.821,13.758 30.852,30.773c0.031,17.014 -13.744,30.853 -30.741,30.884c-16.997,0.031 -30.821,-13.758 -30.852,-30.773c-0.03,-17.014 13.744,-30.853 30.741,-30.884Z" style="stroke:#000;stroke-width:4.17px;"/><ellipse cx="1943.22" cy="132.388" rx="30.796" ry="29.998" style="stroke:#000;stroke-width:4.17px;"/><path d="M2943.05,2388.62l129.553,196.685l227.094,62.433l-147.025,183.992l10.798,235.271l-220.42,-82.973l-220.419,82.973l10.798,-235.271l-147.025,-183.992l227.093,-62.433l129.553,-196.685Z" style="fill:#d96526;stroke:#fff;stroke-width:4.17px;"/><path d="M3740.5,2391.03l129.553,196.686l227.093,62.433l-147.025,183.991l10.799,235.271l-220.42,-82.972l-220.419,82.972l10.798,-235.271l-147.025,-183.991l227.093,-62.433l129.553,-196.686Z" style="fill:#d96526;stroke:#fff;stroke-width:4.17px;"/><path d="M4537.65,2389.28l129.553,196.685l227.094,62.433l-147.025,183.992l10.798,235.271l-220.42,-82.973l-220.419,82.973l10.798,-235.271l-147.025,-183.992l227.093,-62.433l129.553,-196.685Z" style="fill:none;stroke:#d96526;stroke-width:41.67px;"/><path d="M5337.4,2390.28l129.553,196.686l227.094,62.433l-147.025,183.991l10.798,235.272l-220.42,-82.973l-220.419,82.973l10.798,-235.272l-147.025,-183.991l227.093,-62.433l129.553,-196.686Z" style="fill:none;stroke:#d96526;stroke-width:41.67px;"/><path d="M6134.06,2390.66l129.553,196.686l227.093,62.433l-147.025,183.992l10.798,235.271l-220.419,-82.973l-220.42,82.973l10.798,-235.271l-147.025,-183.992l227.094,-62.433l129.553,-196.686Z" style="fill:none;stroke:#d96526;stroke-width:41.67px;"/><g transform="matrix(300,0,0,300,6203.09,510.541)"></g><text x="2135.95px" y="510.541px" style="font-family:'Helvetica-Bold', 'Helvetica';font-weight:700;font-size:300px;">DIESES SYSTEM DARF NUR</text><g transform="matrix(300,0,0,300,5776.8,1997.87)"></g><text x="2526.75px" y="1997.87px" style="font-family:'Helvetica-Bold', 'Helvetica';font-weight:700;font-size:300px;">BETRIEBEN WERDEN!</text></g><g id="Ebene1"><g id="layer1"><path d="M1117.29,2161.84c-6.025,0.255 -12.057,-0.285 -17.942,-1.605c-196.045,-52.143 -379,-144.804 -537.037,-271.992c-230.139,-181.34 -352.556,-392.873 -352.556,-610.865l-0,-914.551c0.142,-43.677 36.119,-79.538 79.796,-79.538c0.605,0 1.21,0.007 1.815,0.021c276.488,-0.135 548.429,-70.76 790.04,-205.181c25.291,-14.301 56.321,-14.301 81.612,0c238.39,133.63 506.978,204.259 780.266,205.181c0.605,-0.014 1.21,-0.021 1.815,-0.021c43.678,0 79.655,35.861 79.796,79.538l0,914.551c0,217.922 -120.811,429.351 -347.704,610.865c-34.843,26.908 -85.257,21.995 -114.249,-11.135c-11.608,-14.087 -17.961,-31.784 -17.961,-50.037c0,-23.817 10.815,-46.39 29.376,-61.315c132.226,-104.964 288.921,-273.563 288.921,-486.702l0,-838.211c-258.217,-12.803 -510.565,-81.742 -739.425,-202.004c-231.955,121.552 -487.662,191.042 -749.234,203.61l-0,838.245c-0,392.874 545.205,679.177 762.289,726.894c37.047,7.645 63.865,40.561 63.865,78.39c-0,5.731 -0.616,11.445 -1.836,17.045c-11.672,35.057 -44.697,58.849 -81.647,58.817Z" style="fill-rule:nonzero;"/><path d="M1327.49,1285.77c10.981,-10.004 10.981,-26.012 0,-36.016l-39.531,-36.016c-10.981,-10.005 -28.55,-10.005 -39.531,-0l-96.631,88.039c-6.589,6.003 -19.766,6.003 -26.354,0l-96.632,-88.039c-10.981,-10.005 -28.55,-10.005 -39.531,-0l-39.531,36.016c-10.981,10.004 -10.981,26.012 0,36.016l96.632,88.039c6.588,6.003 6.588,18.009 -0,24.011l-96.632,88.04c-10.981,10.004 -10.981,26.011 0,36.016l39.531,36.016c10.981,10.004 28.55,10.004 39.531,-0l96.632,-88.039c6.588,-6.003 19.765,-6.003 26.354,-0l96.631,88.039c10.981,10.004 28.55,10.004 39.531,-0l39.531,-36.016c10.981,-10.005 10.981,-26.012 0,-36.016l-96.631,-88.04c-6.589,-6.002 -6.589,-18.008 -0,-24.011l96.631,-88.039Zm285.502,-490.22c-120.789,-122.054 -292.09,-190.085 -474.372,-190.085c-182.282,0 -353.584,68.031 -474.373,190.085c-8.785,8.004 -6.589,22.01 2.196,28.013l65.885,52.023c8.785,8.004 21.962,6.003 30.747,-2.001c96.631,-94.042 232.794,-148.066 375.545,-148.066c142.751,0 278.913,54.024 375.545,148.066c8.784,8.004 21.961,8.004 30.746,2.001l65.885,-52.023c8.785,-8.004 10.981,-20.009 2.196,-28.013Zm-474.372,90.041c-92.239,-0 -180.086,36.016 -241.579,100.045c-8.785,8.003 -6.589,22.009 2.196,30.013l70.278,48.022c8.784,6.002 21.961,6.002 28.55,-2.001c37.335,-36.016 87.847,-56.025 140.555,-56.025c52.708,-0 103.22,20.009 138.358,54.024c6.589,8.003 19.766,8.003 28.551,2.001l70.277,-48.022c10.981,-8.003 10.981,-20.009 2.196,-30.013c-59.296,-62.028 -147.143,-98.044 -239.382,-98.044Z" style="fill:#d96526;fill-rule:nonzero;"/></g></g></svg>