<?xml version="1.0" encoding="UTF-8" standalone="no"?>
<svg
   inkscape:export-ydpi="95.900002"
   inkscape:export-xdpi="95.900002"
   inkscape:export-filename="/home/alice/Bilder/STICKER/Smash_the_cistem.png"
   sodipodi:docname="Smash_the_cistem_alt.svg"
   inkscape:version="1.2.2 (b0a8486541, 2022-12-01)"
   id="svg8"
   version="1.1"
   viewBox="0 0 72 105"
   height="105mm"
   width="72mm"
   xmlns:inkscape="http://www.inkscape.org/namespaces/inkscape"
   xmlns:sodipodi="http://sodipodi.sourceforge.net/DTD/sodipodi-0.dtd"
   xmlns="http://www.w3.org/2000/svg"
   xmlns:svg="http://www.w3.org/2000/svg"
   xmlns:rdf="http://www.w3.org/1999/02/22-rdf-syntax-ns#"
   xmlns:cc="http://creativecommons.org/ns#"
   xmlns:dc="http://purl.org/dc/elements/1.1/">
  <defs
     id="defs2">
    <inkscape:perspective
       sodipodi:type="inkscape:persp3d"
       inkscape:vp_x="-7.6888775 : 115.50367 : 1"
       inkscape:vp_y="0 : 1000 : 0"
       inkscape:vp_z="64.311123 : 115.50367 : 1"
       inkscape:persp3d-origin="28.311123 : 98.00367 : 1"
       id="perspective895" />
    <filter
       color-interpolation-filters="sRGB"
       height="1.0000022"
       width="1.0000026"
       y="-1.1227855e-06"
       x="-1.2886121e-06"
       id="a">
      <feGaussianBlur
         id="feGaussianBlur4"
         stdDeviation="0.00012508789" />
    </filter>
  </defs>
  <sodipodi:namedview
     inkscape:window-maximized="1"
     inkscape:window-y="0"
     inkscape:window-x="0"
     inkscape:window-height="887"
     inkscape:window-width="1884"
     showgrid="false"
     inkscape:document-rotation="0"
     inkscape:current-layer="layer1"
     inkscape:document-units="mm"
     inkscape:cy="259.6092"
     inkscape:cx="-230.31478"
     inkscape:zoom="0.98994949"
     inkscape:pageshadow="2"
     inkscape:pageopacity="0.0"
     borderopacity="1.0"
     bordercolor="#666666"
     pagecolor="#ffffff"
     id="base"
     inkscape:showpageshadow="0"
     inkscape:pagecheckerboard="0"
     inkscape:deskcolor="#d1d1d1" />
  <metadata
     id="metadata5">
    <rdf:RDF>
      <cc:Work
         rdf:about="">
        <dc:format>image/svg+xml</dc:format>
        <dc:type
           rdf:resource="http://purl.org/dc/dcmitype/StillImage" />
      </cc:Work>
    </rdf:RDF>
  </metadata>
  <g
     id="layer1"
     inkscape:groupmode="layer"
     inkscape:label="Ebene 1">
    <g
       id="g2438"
       transform="translate(-4.5655093,-5.4025841)">
      <text
         id="text435"
         y="93.868423"
         x="11.472805"
         style="font-style:normal;font-variant:normal;font-weight:bold;font-stretch:normal;font-size:9.91755px;line-height:1.25;font-family:sans-serif;-inkscape-font-specification:'sans-serif, Bold';font-variant-ligatures:normal;font-variant-caps:normal;font-variant-numeric:normal;font-variant-east-asian:normal;fill:#ffff00;fill-opacity:1;stroke:none;stroke-width:0.247939"
         xml:space="preserve"><tspan
           id="tspan433"
           style="font-style:normal;font-variant:normal;font-weight:bold;font-stretch:normal;font-size:9.91755px;font-family:sans-serif;-inkscape-font-specification:'sans-serif, Bold';font-variant-ligatures:normal;font-variant-caps:normal;font-variant-numeric:normal;font-variant-east-asian:normal;fill:#ffff00;stroke-width:0.247939"
           y="93.868423"
           x="11.472805"
           sodipodi:role="line">SMASH THE</tspan></text>
      <g
         id="g55534"
         transform="matrix(0.2601311,0,0,0.2601311,6.9907884,9.4792323)"
         style="display:inline;fill:#ffff00">
        <path
           id="path55526"
           style="display:inline;fill:#ffff00"
           d="M 77,59 67,49 81,35 69,23 55,37 40,22 H 60 L 52,8 H 10 v 42 l 14,8 V 38 L 39,53 25,67 37,79 51,65 61,75" />
        <path
           id="path55528"
           style="display:inline;fill:#ffff00"
           d="m 173,59 v 0 0 l 10,-10 -14,-14 12,-12 14,14 15,-15 h -20 l 8,-14 h 42 v 42 l -14,8 V 38 l -15,15 14,14 -12,12 -14,-14 -10,10 v 0" />
        <path
           id="path55530"
           d="m 136.3137,201.21677 v 14.14214 h 19.79899 v 16.97056 H 136.3137 v 21.21321 l 14.14214,-14.14214 4.24264,15.55635 -29.69847,29.69848 -29.698495,-29.69848 4.24264,-15.55635 14.142145,14.14214 V 232.32947 H 93.887305 V 215.35891 H 113.6863 v -14.14214 0"
           style="fill:#ffff00" />
        <path
           d="m 125,37.864869 c -45.975062,0 -83.591502,37.61643 -83.591502,83.591511 0,45.97506 37.61644,83.5915 83.591502,83.5915 45.97506,0 83.5915,-37.61644 83.5915,-83.5915 0,-45.975081 -37.61644,-83.591511 -83.5915,-83.591511 z m 11.13571,18.762416 c 31.13764,5.242542 54.6233,32.125452 54.6233,64.829095 0,12.14353 -3.24119,23.4825 -8.90667,33.21123 z m -22.29353,0.0043 -45.705463,98.016095 c -5.658314,-9.72474 -8.894662,-21.05716 -8.894662,-33.19122 0,-32.694156 23.474078,-59.57296 54.600125,-64.824875 z m 11.1473,18.289098 21.17932,45.420067 H 103.80911 Z M 95.49366,138.17321 h 58.99058 l 14.89324,31.938 c -11.66962,10.6397 -27.22319,17.10165 -44.37853,17.10165 -17.16167,0 -32.72153,-6.46828 -44.392223,-17.11533 z"
           stroke-width="0.278635"
           id="path55532"
           style="fill:#ffff00" />
      </g>
      <text
         id="text863"
         y="92.810089"
         x="12.531138"
         style="font-style:normal;font-variant:normal;font-weight:bold;font-stretch:normal;font-size:9.91755px;line-height:1.25;font-family:sans-serif;-inkscape-font-specification:'sans-serif, Bold';font-variant-ligatures:normal;font-variant-caps:normal;font-variant-numeric:normal;font-variant-east-asian:normal;fill:#ff00ff;fill-opacity:1;stroke:none;stroke-width:0.247939"
         xml:space="preserve"><tspan
           id="tspan865"
           style="font-style:normal;font-variant:normal;font-weight:bold;font-stretch:normal;font-size:9.91755px;font-family:sans-serif;-inkscape-font-specification:'sans-serif, Bold';font-variant-ligatures:normal;font-variant-caps:normal;font-variant-numeric:normal;font-variant-east-asian:normal;fill:#ff00ff;stroke-width:0.247939"
           y="92.810089"
           x="12.531138"
           sodipodi:role="line">SMASH THE</tspan></text>
      <text
         transform="scale(1.2124643,0.82476655)"
         id="text439"
         y="128.83127"
         x="9.3033867"
         style="font-style:normal;font-variant:normal;font-weight:bold;font-stretch:normal;font-size:12.8319px;line-height:1.25;font-family:sans-serif;-inkscape-font-specification:'sans-serif, Bold';font-variant-ligatures:normal;font-variant-caps:normal;font-variant-numeric:normal;font-variant-east-asian:normal;fill:#ffff00;fill-opacity:1;stroke:none;stroke-width:0.320797"
         xml:space="preserve"><tspan
           style="font-style:normal;font-variant:normal;font-weight:bold;font-stretch:normal;font-size:12.8319px;font-family:sans-serif;-inkscape-font-specification:'sans-serif, Bold';font-variant-ligatures:normal;font-variant-caps:normal;font-variant-numeric:normal;font-variant-east-asian:normal;fill:#ffff00;stroke-width:0.320797"
           y="128.83127"
           x="9.3033867"
           id="tspan437"
           sodipodi:role="line">CISTEM</tspan></text>
      <text
         transform="scale(1.2124643,0.82476655)"
         id="text871"
         y="127.54808"
         x="10.176265"
         style="font-style:normal;font-variant:normal;font-weight:bold;font-stretch:normal;font-size:12.8319px;line-height:1.25;font-family:sans-serif;-inkscape-font-specification:'sans-serif, Bold';font-variant-ligatures:normal;font-variant-caps:normal;font-variant-numeric:normal;font-variant-east-asian:normal;fill:#ff00ff;fill-opacity:1;stroke:none;stroke-width:0.320797"
         xml:space="preserve"><tspan
           style="font-style:normal;font-variant:normal;font-weight:bold;font-stretch:normal;font-size:12.8319px;font-family:sans-serif;-inkscape-font-specification:'sans-serif, Bold';font-variant-ligatures:normal;font-variant-caps:normal;font-variant-numeric:normal;font-variant-east-asian:normal;fill:#ff00ff;stroke-width:0.320797"
           y="127.54808"
           x="10.176265"
           id="tspan869"
           sodipodi:role="line">CISTEM</tspan></text>
      <g
         id="g55524"
         transform="matrix(0.2601311,0,0,0.2601311,9.1074552,7.3625655)"
         style="display:inline;fill:#00ffff">
        <path
           id="path55516"
           style="display:inline;fill:#00ffff"
           d="M 77,59 67,49 81,35 69,23 55,37 40,22 H 60 L 52,8 H 10 v 42 l 14,8 V 38 L 39,53 25,67 37,79 51,65 61,75" />
        <path
           id="path55518"
           style="display:inline;fill:#00ffff"
           d="m 173,59 v 0 0 l 10,-10 -14,-14 12,-12 14,14 15,-15 h -20 l 8,-14 h 42 v 42 l -14,8 V 38 l -15,15 14,14 -12,12 -14,-14 -10,10 v 0" />
        <path
           id="path55520"
           d="m 136.3137,201.21677 v 14.14214 h 19.79899 v 16.97056 H 136.3137 v 21.21321 l 14.14214,-14.14214 4.24264,15.55635 -29.69847,29.69848 -29.698495,-29.69848 4.24264,-15.55635 14.142145,14.14214 V 232.32947 H 93.887305 V 215.35891 H 113.6863 v -14.14214 0"
           style="fill:#00ffff" />
        <path
           d="m 125,37.864869 c -45.975062,0 -83.591502,37.61643 -83.591502,83.591511 0,45.97506 37.61644,83.5915 83.591502,83.5915 45.97506,0 83.5915,-37.61644 83.5915,-83.5915 0,-45.975081 -37.61644,-83.591511 -83.5915,-83.591511 z m 11.13571,18.762416 c 31.13764,5.242542 54.6233,32.125452 54.6233,64.829095 0,12.14353 -3.24119,23.4825 -8.90667,33.21123 z m -22.29353,0.0043 -45.705463,98.016095 c -5.658314,-9.72474 -8.894662,-21.05716 -8.894662,-33.19122 0,-32.694156 23.474078,-59.57296 54.600125,-64.824875 z m 11.1473,18.289098 21.17932,45.420067 H 103.80911 Z M 95.49366,138.17321 h 58.99058 l 14.89324,31.938 c -11.66962,10.6397 -27.22319,17.10165 -44.37853,17.10165 -17.16167,0 -32.72153,-6.46828 -44.392223,-17.11533 z"
           stroke-width="0.278635"
           id="path55522"
           style="fill:#00ffff" />
      </g>
      <g
         id="g55432"
         transform="matrix(0.2601311,0,0,0.2601311,8.0491218,8.4208989)"
         style="display:inline;fill:#ff00ff">
        <path
           id="path55368"
           style="display:inline;fill:#ff00ff"
           d="M 77,59 67,49 81,35 69,23 55,37 40,22 H 60 L 52,8 H 10 v 42 l 14,8 V 38 L 39,53 25,67 37,79 51,65 61,75" />
        <path
           id="path55246"
           style="display:inline;fill:#ff00ff"
           d="m 173,59 v 0 0 l 10,-10 -14,-14 12,-12 14,14 15,-15 h -20 l 8,-14 h 42 v 42 l -14,8 V 38 l -15,15 14,14 -12,12 -14,-14 -10,10 v 0" />
        <path
           id="path55373"
           d="m 136.55934,201.29671 v 14.14214 h 19.79899 v 16.97056 h -19.79899 v 21.21321 l 14.14214,-14.14214 4.24264,15.55635 -29.69847,29.69848 -29.698463,-29.69848 4.24264,-15.55635 14.142113,14.14214 V 232.40941 H 94.132977 v -16.97056 h 19.798963 v -14.14214 0"
           style="fill:#ff00ff" />
        <path
           d="m 125,37.864869 c -45.975062,0 -83.591502,37.61643 -83.591502,83.591511 0,45.97506 37.61644,83.5915 83.591502,83.5915 45.97506,0 83.5915,-37.61644 83.5915,-83.5915 0,-45.975081 -37.61644,-83.591511 -83.5915,-83.591511 z m 11.13571,18.762416 c 31.13764,5.242542 54.6233,32.125452 54.6233,64.829095 0,12.14353 -3.24119,23.4825 -8.90667,33.21123 z m -22.29353,0.0043 -45.705463,98.016095 c -5.658314,-9.72474 -8.894662,-21.05716 -8.894662,-33.19122 0,-32.694156 23.474078,-59.57296 54.600125,-64.824875 z m 11.1473,18.289098 21.17932,45.420067 H 103.80911 Z M 95.49366,138.17321 h 58.99058 l 14.89324,31.938 c -11.66962,10.6397 -27.22319,17.10165 -44.37853,17.10165 -17.16167,0 -32.72153,-6.46828 -44.392223,-17.11533 z"
           stroke-width="0.278635"
           id="path55415"
           style="fill:#ff00ff" />
      </g>
      <text
         id="text443"
         y="91.751755"
         x="13.589471"
         style="font-style:normal;font-variant:normal;font-weight:bold;font-stretch:normal;font-size:9.91755px;line-height:1.25;font-family:sans-serif;-inkscape-font-specification:'sans-serif, Bold';font-variant-ligatures:normal;font-variant-caps:normal;font-variant-numeric:normal;font-variant-east-asian:normal;fill:#00ffff;fill-opacity:1;stroke:none;stroke-width:0.247939"
         xml:space="preserve"><tspan
           id="tspan441"
           style="font-style:normal;font-variant:normal;font-weight:bold;font-stretch:normal;font-size:9.91755px;font-family:sans-serif;-inkscape-font-specification:'sans-serif, Bold';font-variant-ligatures:normal;font-variant-caps:normal;font-variant-numeric:normal;font-variant-east-asian:normal;fill:#00ffff;stroke-width:0.247939"
           y="91.751755"
           x="13.589471"
           sodipodi:role="line">SMASH THE</tspan></text>
      <text
         transform="scale(1.2124643,0.82476655)"
         id="text447"
         y="126.26488"
         x="11.049143"
         style="font-style:normal;font-variant:normal;font-weight:bold;font-stretch:normal;font-size:12.8319px;line-height:1.25;font-family:sans-serif;-inkscape-font-specification:'sans-serif, Bold';font-variant-ligatures:normal;font-variant-caps:normal;font-variant-numeric:normal;font-variant-east-asian:normal;fill:#00ffff;fill-opacity:1;stroke:none;stroke-width:0.320797"
         xml:space="preserve"><tspan
           style="font-style:normal;font-variant:normal;font-weight:bold;font-stretch:normal;font-size:12.8319px;font-family:sans-serif;-inkscape-font-specification:'sans-serif, Bold';font-variant-ligatures:normal;font-variant-caps:normal;font-variant-numeric:normal;font-variant-east-asian:normal;fill:#00ffff;stroke-width:0.320797"
           y="126.26488"
           x="11.049143"
           id="tspan445"
           sodipodi:role="line">CISTEM</tspan></text>
      <g
         id="g2175">
        <text
           id="text2165"
           y="92.810089"
           x="12.531138"
           style="font-style:normal;font-variant:normal;font-weight:bold;font-stretch:normal;font-size:9.91755px;line-height:1.25;font-family:sans-serif;-inkscape-font-specification:'sans-serif, Bold';font-variant-ligatures:normal;font-variant-caps:normal;font-variant-numeric:normal;font-variant-east-asian:normal;fill:#ff00ff;fill-opacity:1;stroke:none;stroke-width:0.247939"
           xml:space="preserve"><tspan
             id="tspan2163"
             style="font-style:normal;font-variant:normal;font-weight:bold;font-stretch:normal;font-size:9.91755px;font-family:sans-serif;-inkscape-font-specification:'sans-serif, Bold';font-variant-ligatures:normal;font-variant-caps:normal;font-variant-numeric:normal;font-variant-east-asian:normal;fill:#ff00ff;stroke-width:0.247939"
             y="92.810089"
             x="12.531138"
             sodipodi:role="line">SMASH THE</tspan></text>
        <text
           id="text2169"
           y="91.751755"
           x="13.589471"
           style="font-style:normal;font-variant:normal;font-weight:bold;font-stretch:normal;font-size:9.91755px;line-height:1.25;font-family:sans-serif;-inkscape-font-specification:'sans-serif, Bold';font-variant-ligatures:normal;font-variant-caps:normal;font-variant-numeric:normal;font-variant-east-asian:normal;fill:#00ffff;fill-opacity:1;stroke:none;stroke-width:0.247939"
           xml:space="preserve"><tspan
             id="tspan2167"
             style="font-style:normal;font-variant:normal;font-weight:bold;font-stretch:normal;font-size:9.91755px;font-family:sans-serif;-inkscape-font-specification:'sans-serif, Bold';font-variant-ligatures:normal;font-variant-caps:normal;font-variant-numeric:normal;font-variant-east-asian:normal;fill:#00ffff;stroke-width:0.247939"
             y="91.751755"
             x="13.589471"
             sodipodi:role="line">SMASH THE</tspan></text>
      </g>
      <g
         id="g2223">
        <path
           id="path2193"
           style="display:inline;fill:#00ffff;stroke-width:0.260131"
           d="m 11.708846,9.443868 v 1.058333 h 9.867098 l 1.476396,2.583305 h 1.662947 l -2.08101,-3.641638 z m 11.343494,3.641638 h -3.539836 l 1.058333,1.058334 h 3.086117 z m -2.481503,1.058334 h -2.116666 l 3.902087,3.902087 1.058333,-1.058333 z m -8.861991,-3.641639 h -1.058333 v 10.925432 l 3.641638,2.08101 v -1.662948 l -2.583305,-1.476396 z m 2.583305,11.343494 1.058333,0.604614 v -3.086116 l -1.058333,-1.058334 z m 1.058333,-2.481502 2.843754,2.843754 1.058334,-1.058334 -3.902088,-3.902087 z m 45.26287,-9.920325 -0.604614,1.058333 h 10.471712 v 10.471713 l 1.058334,-0.604615 V 9.443868 Z m 9.867098,11.530046 -2.583304,1.476395 v -5.202783 l -1.058334,1.058333 v 5.202784 l 3.641638,-2.08101 z M 60.00874,10.502201 h -0.453719 l -2.08101,3.641639 h 5.202783 l 1.058334,-1.058334 h -5.202783 z m -32.951994,2.843238 -1.058333,1.058333 3.121257,3.121773 1.058333,-1.058333 z m 29.134656,0 -1.058333,1.058333 3.641638,3.642155 1.058333,-1.058333 z m -3.121773,3.121773 -1.058333,1.058333 3.641638,3.641638 1.058333,-1.058333 z m -11.445813,0.745174 c -5.026553,0 -9.665067,1.733528 -13.358358,4.625558 l -1.729093,-1.729094 -1.058334,1.058333 1.729094,1.729094 c 3.69329,-2.89203 8.331806,-4.625558 13.358358,-4.625558 5.026696,0 9.665532,1.733378 13.358874,4.625558 L 54.98269,21.837944 C 51.289347,18.945763 46.650511,17.212386 41.623816,17.212386 Z m 22.371244,3.937227 -1.058333,1.058334 3.641638,3.641638 1.058333,-1.058333 z m -19.474263,0.943612 0.674894,1.447457 c 7.221739,2.003856 12.475724,8.586684 12.475724,16.474963 0,2.520736 -0.538063,4.907165 -1.503784,7.054867 l 0.245463,0.526066 c 1.473764,-2.530741 2.316655,-5.480362 2.316655,-8.639266 0,-8.507216 -6.109102,-15.500341 -14.208952,-16.864087 z m 11.646834,24.977287 -10.97194,-23.52983 c -0.566639,-0.157229 -1.143927,-0.289905 -1.733228,-0.389124 l 11.892298,25.503353 c 0.297732,-0.511265 0.568381,-1.040671 0.81287,-1.584399 z M 38.721151,22.094259 c -3.834996,0.64708 -7.222055,2.557449 -9.726538,5.291666 2.366401,-2.167025 5.349503,-3.673367 8.668204,-4.233333 l -11.137821,23.88588 c 0.09929,0.186254 0.201061,0.370937 0.306958,0.552938 z M 26.524996,47.038472 C 25.244171,44.635927 24.5184,41.88666 24.5184,38.957312 c 0,-4.47655 1.692972,-8.532842 4.476213,-11.571387 -3.407052,3.119997 -5.534546,7.610866 -5.534546,12.62972 0,3.15644 0.841653,6.104397 2.313554,8.634099 z m -4.150651,-22.767602 -1.058333,1.058333 1.780253,1.780253 c -2.682924,3.616332 -4.275708,8.08387 -4.275708,12.906189 0,10.98335 8.255225,20.12605 18.866032,21.546489 v 1.822111 h 0.994254 V 60.496049 C 28.100809,59.047518 19.87889,49.918614 19.87889,38.957312 c 0,-4.822318 1.592785,-9.289858 4.275708,-12.906189 z m 15.312244,39.113375 h -4.156336 v 1.079004 h 4.156336 z m -4.156336,1.079004 h -0.994254 v 4.414717 h 5.15059 v 3.444751 l 0.994254,0.994255 v -5.518526 h -5.15059 z m 4.156336,7.859468 -2.684591,-2.68459 -0.444417,1.628841 3.129008,3.129008 z m -3.129008,-1.055749 -0.549838,-0.549837 -1.103808,4.046781 7.725626,7.725627 7.72511,-7.725627 -0.01809,-0.06615 -6.712768,6.712769 -7.725627,-7.725627 z m 13.779003,3.430798 1.012859,-1.012858 -1.103809,-4.046781 -3.678845,3.678845 v -4.439006 h -0.994255 v 5.51801 l 3.678845,-3.678845 z m -3.769795,-5.8198 h 4.155818 v -1.07952 h -4.155818 z m 4.155818,-1.07952 h 0.994772 v -4.414201 h -5.15059 v -2.001428 c -0.328975,0.06185 -0.660365,0.116566 -0.994255,0.163297 v 2.917135 h 5.150073 z m -4.155818,-6.415629 c 4.638994,-0.872178 8.767818,-3.231656 11.874727,-6.556706 -3.211656,2.999822 -7.323727,5.046853 -11.874727,5.669938 z m 11.874727,-6.556706 c 4.25471,-3.974078 6.927226,-9.622499 6.927226,-15.868799 0,-4.822318 -1.592784,-9.289858 -4.275708,-12.906189 l -1.058333,1.058333 c 2.682921,3.616332 4.275708,8.08387 4.275708,12.906189 0,5.710639 -2.234906,10.921331 -5.868893,14.810466 z m 4.431771,-30.555241 -1.058333,1.058333 3.642155,3.642155 1.058333,-1.058333 z m -45.262354,0.520382 -1.058333,1.058333 3.121257,3.121773 1.058333,-1.058333 z m 26.010299,2.060339 -0.77618,1.663981 4.733561,10.151318 h 1.551844 z m 3.957381,11.815299 h -9.467122 l 4.733561,-10.151318 -0.282153,-0.605648 -5.509741,11.8153 h 11.018965 z m -11.630298,4.638994 -0.493509,1.058333 h 14.780493 l 3.815271,8.18193 c 0.385456,-0.295403 0.758956,-0.605576 1.117244,-0.932243 l -3.874182,-8.30802 z m 18.102255,9.240263 c -2.880346,2.207419 -6.490842,3.516064 -10.426754,3.516064 -4.464278,0 -8.512228,-1.682301 -11.548132,-4.451925 l 3.379122,-7.246069 H 32.889982 L 29.01735,52.66862 c 3.035905,2.769623 7.083856,4.451924 11.548133,4.451924 4.462628,0 8.508375,-1.680595 11.543998,-4.448307 z" />
      </g>
      <path
         id="path2388"
         style="display:inline;fill:#ffff00;stroke-width:0.260131"
         d="m 9.5921794,11.560535 v 10.925431 l 3.6416386,2.08101 V 23.357231 L 11.708846,22.485966 V 11.560535 Z m 48.9045086,0 -2.08101,3.641638 h 2.116667 l 2.081009,-3.641638 z m 3.121773,3.641638 -2.843754,2.843754 1.058333,1.058333 3.902088,-3.902087 z m -36.678381,0.259932 -2.583822,2.583822 1.058333,1.058333 2.583822,-2.583821 z m 29.134656,0 -3.121774,3.121774 3.641638,3.641638 -0.838708,0.839225 c 0.418717,0.283717 0.829291,0.578588 1.226798,0.889868 l 1.728577,-1.729093 -3.641638,-3.641638 2.06344,-2.06344 z m -14.567587,3.866948 c -4.485554,0 -8.659966,1.383404 -12.131559,3.735689 l 0.889868,0.889868 c 3.432497,-2.687815 7.681925,-4.372786 12.300025,-4.597652 -0.350885,-0.01708 -0.703385,-0.02791 -1.058334,-0.02791 z m -24.156665,0.03514 v 2.116666 l 1.785421,1.785421 -3.641638,3.641638 3.121256,3.121774 1.058334,-1.058334 -2.062924,-2.06344 3.641639,-3.641638 z m 52.546664,0 -2.116667,2.116666 v 3.086117 l 2.116667,-1.209745 z m -23.376351,4.845699 0.272335,0.58446 c 6.881833,2.210921 11.81995,8.632097 11.81995,16.279627 0,2.275122 -0.439305,4.440585 -1.23455,6.42028 l 1.034562,2.218986 c 1.473763,-2.530741 2.316655,-5.480362 2.316655,-8.639266 0,-8.507217 -6.109102,-15.500342 -14.208952,-16.864087 z m -5.799646,0.001 c -0.818679,0.138136 -1.615802,0.336578 -2.389519,0.585494 L 25.750366,47.488057 c 0.308693,0.769394 0.669406,1.511617 1.081588,2.22002 z m -16.346806,2.176612 -1.058333,1.058333 0.721919,0.72192 c -2.682923,3.61633 -4.275708,8.083871 -4.275708,12.906189 0,10.961302 8.221919,20.090206 18.801953,21.538737 v 2.888195 h 2.116667 V 62.612716 C 28.100809,61.164185 19.87889,52.035281 19.87889,41.073979 c 0,-4.822318 1.592785,-9.289859 4.275708,-12.906189 z m 38.498942,0 -1.058333,1.058333 2.583821,2.583822 1.058334,-1.058334 z m -19.252055,2.580721 -1.058333,2.269629 4.450891,9.54567 h 2.116667 z m 5.555733,16.454292 3.874182,8.30802 c -2.793597,2.547047 -6.443997,4.169507 -10.486181,4.412651 0.350456,0.0211 0.702795,0.03566 1.05885,0.03566 4.462627,0 8.508376,-1.680596 11.543998,-4.448308 L 49.293632,45.42255 Z M 31.413586,65.500911 v 4.414201 h 2.116667 v -4.414201 z m 5.15059,4.414201 v 3.40186 l 2.116667,2.116667 v -5.518527 z m -3.678845,1.839681 -1.103808,4.046782 7.725626,7.725626 1.058334,-1.058333 -6.667294,-6.667293 0.65009,-2.383834 z m 13.243636,0 -1.562178,1.562179 v 2.116667 l 2.015897,-2.015898 z" />
    </g>
  </g>
</svg>
