<?xml version="1.0" encoding="UTF-8" standalone="no"?>
<!-- Created with Inkscape (http://www.inkscape.org/) -->

<svg
   xmlns:dc="http://purl.org/dc/elements/1.1/"
   xmlns:cc="http://creativecommons.org/ns#"
   xmlns:rdf="http://www.w3.org/1999/02/22-rdf-syntax-ns#"
   xmlns:svg="http://www.w3.org/2000/svg"
   xmlns="http://www.w3.org/2000/svg"
   xmlns:sodipodi="http://sodipodi.sourceforge.net/DTD/sodipodi-0.dtd"
   xmlns:inkscape="http://www.inkscape.org/namespaces/inkscape"
   width="299.40625"
   height="410"
   id="svg2"
   version="1.1"
   inkscape:version="0.48.3.1 r9886"
   sodipodi:docname="legacy-ip-only.svg">
  <title
     id="title4198">CAUTION: Legacy IP Only</title>
  <defs
     id="defs4">
    <clipPath
       id="clipPath3945"
       clipPathUnits="userSpaceOnUse">
      <path
         id="path3947"
         d="M 0,6045.7 0,0 l 6045.66,0 0,6045.7 -6045.66,0 z"
         inkscape:connector-curvature="0" />
    </clipPath>
  </defs>
  <sodipodi:namedview
     id="base"
     pagecolor="#ffffff"
     bordercolor="#666666"
     borderopacity="1.0"
     inkscape:pageopacity="0.0"
     inkscape:pageshadow="2"
     inkscape:zoom="0.98994949"
     inkscape:cx="160.15793"
     inkscape:cy="201.3789"
     inkscape:document-units="px"
     inkscape:current-layer="layer1"
     showgrid="false"
     inkscape:window-width="1440"
     inkscape:window-height="855"
     inkscape:window-x="0"
     inkscape:window-y="25"
     inkscape:window-maximized="1"
     fit-margin-top="0"
     fit-margin-left="0"
     fit-margin-right="0"
     fit-margin-bottom="0" />
  <metadata
     id="metadata7">
    <rdf:RDF>
      <cc:Work
         rdf:about="">
        <dc:format>image/svg+xml</dc:format>
        <dc:type
           rdf:resource="http://purl.org/dc/dcmitype/StillImage" />
        <dc:title>CAUTION: Legacy IP Only</dc:title>
        <dc:creator>
          <cc:Agent>
            <dc:title>Phil Benchoff, Juerd Waalboer</dc:title>
          </cc:Agent>
        </dc:creator>
        <dc:rights>
          <cc:Agent>
            <dc:title></dc:title>
          </cc:Agent>
        </dc:rights>
        <dc:description>Some small changes from Phil's original version: font, s/of/of the/, vector based image, different aspect ratio</dc:description>
        <dc:source>https://secure.flickr.com/photos/n3pb/9138035991/</dc:source>
        <cc:license
           rdf:resource="http://creativecommons.org/licenses/by/2.0/" />
      </cc:Work>
      <cc:License
         rdf:about="http://creativecommons.org/licenses/by/3.0/">
        <cc:permits
           rdf:resource="http://creativecommons.org/ns#Reproduction" />
        <cc:permits
           rdf:resource="http://creativecommons.org/ns#Distribution" />
        <cc:requires
           rdf:resource="http://creativecommons.org/ns#Notice" />
        <cc:requires
           rdf:resource="http://creativecommons.org/ns#Attribution" />
        <cc:permits
           rdf:resource="http://creativecommons.org/ns#DerivativeWorks" />
      </cc:License>
    </rdf:RDF>
  </metadata>
  <g
     inkscape:label="Laag 1"
     inkscape:groupmode="layer"
     id="layer1"
     transform="translate(-318.6875,-315.9375)">
    <path
       style="opacity:0.98999999;fill:#f9d716;fill-opacity:1;stroke:#ff0000;stroke-width:0;stroke-miterlimit:4;stroke-dasharray:none"
       d="m 324.68021,401.20901 0,-62.84681 c 0,-9.10143 7.32715,-16.42858 16.42856,-16.42858 l 0,0 254.57146,0 c 9.10144,0 16.42858,7.32715 16.42858,16.42858 l -2e-5,62.84679"
       id="path3865"
       inkscape:connector-curvature="0"
       sodipodi:nodetypes="csccssc" />
    <path
       style="font-size:medium;font-style:normal;font-variant:normal;font-weight:normal;font-stretch:normal;text-indent:0;text-align:start;text-decoration:none;line-height:normal;letter-spacing:normal;word-spacing:normal;text-transform:none;direction:ltr;block-progression:tb;writing-mode:lr-tb;text-anchor:start;baseline-shift:baseline;color:#000000;fill:#000000;fill-opacity:1;stroke:none;stroke-width:10;marker:none;visibility:visible;display:inline;overflow:visible;enable-background:accumulate;font-family:Sans;-inkscape-font-specification:Sans"
       d="m 340.09375,315.9375 c -11.78494,0 -21.40625,9.65255 -21.40625,21.4375 l 0,367.125 c 0,11.78495 9.62131,21.4375 21.40625,21.4375 l 256.59375,0 c 11.78494,0 21.40625,-9.65256 21.40625,-21.4375 l 0,-367.125 c 0,-11.78494 -9.6213,-21.4375 -21.40625,-21.4375 l -256.59375,0 z m 0,10 256.59375,0 c 6.41791,0 11.40625,5.01958 11.40625,11.4375 l 0,58.4375 -279.40625,0 0,-58.4375 c 0,-6.41791 4.98835,-11.4375 11.40625,-11.4375 z m -11.40625,79.875 279.40625,0 0,150.125 -279.40625,0 0,-150.125 z m 0,160.125 279.40625,0 0,138.5625 c 0,6.41792 -4.98833,11.4375 -11.40625,11.4375 l -256.59375,0 c -6.4179,0 -11.40625,-5.01959 -11.40625,-11.4375 l 0,-138.5625 z"
       id="path3854"
       inkscape:connector-curvature="0" />
    <g
       style="font-size:37.2874527px;font-style:normal;font-weight:normal;line-height:125%;letter-spacing:0px;word-spacing:0px;fill:#000000;fill-opacity:1;stroke:none;font-family:Sans"
       id="text3869">
      <path
         d="m 348.39124,610.06537 15.69802,0 0,-4.7728 -9.99304,0 0,-20.35894 -5.70498,0 0,25.13174"
         style="font-variant:normal;font-weight:bold;font-stretch:normal;fill:#000000;font-family:Myriad Pro;-inkscape-font-specification:Myriad Pro Bold"
         id="path4146"
         inkscape:connector-curvature="0" />
      <path
         d="m 383.05813,602.75703 c 0.0746,-0.41016 0.18643,-1.26778 0.18643,-2.23725 0,-4.51178 -2.23725,-9.09814 -8.12866,-9.09814 -6.33886,0 -9.21,5.10839 -9.21,9.73203 0,5.70497 3.54231,9.32186 9.73202,9.32186 2.46097,0 4.73551,-0.41016 6.59988,-1.15591 l -0.74575,-3.84061 c -1.52878,0.48474 -3.09486,0.74575 -5.0338,0.74575 -2.64741,0 -4.95924,-1.11862 -5.14567,-3.46773 l 11.74555,0 m -11.78284,-3.8779 c 0.14915,-1.52878 1.11863,-3.69145 3.50502,-3.69145 2.61012,0 3.20672,2.31182 3.20672,3.69145 l -6.71174,0"
         style="font-variant:normal;font-weight:bold;font-stretch:normal;fill:#000000;font-family:Myriad Pro;-inkscape-font-specification:Myriad Pro Bold"
         id="path4148"
         inkscape:connector-curvature="0" />
      <path
         d="m 403.87734,597.23848 c 0,-2.72198 0.0746,-4.25077 0.14915,-5.40668 l -4.92194,0 -0.18644,2.16268 -0.0746,0 c -0.93218,-1.4915 -2.49826,-2.57284 -4.99651,-2.57284 -4.47449,0 -8.27782,3.72875 -8.27782,9.58288 0,5.25752 3.20673,8.9117 7.7185,8.9117 2.0881,0 3.84061,-0.85761 4.92195,-2.3864 l 0.0746,0 0,1.1932 c 0,3.35587 -2.05081,4.81008 -4.7355,4.81008 -2.12539,0 -4.13891,-0.70846 -5.29482,-1.37963 l -1.11863,4.28805 c 1.64065,0.93219 4.1762,1.41693 6.5626,1.41693 2.68469,0 5.40668,-0.52203 7.4202,-2.23725 2.05081,-1.82708 2.75927,-4.69822 2.75927,-8.20324 l 0,-10.17948 m -5.66769,4.69822 c 0,0.48474 -0.0373,1.08134 -0.18644,1.4915 -0.37287,1.34235 -1.52879,2.31182 -2.983,2.31182 -2.38639,0 -3.72874,-2.12538 -3.72874,-4.84736 0,-3.31858 1.67794,-5.18296 3.72874,-5.18296 1.56607,0 2.64741,1.00676 3.05757,2.49826 0.0746,0.2983 0.11187,0.67117 0.11187,1.04405 l 0,2.68469"
         style="font-variant:normal;font-weight:bold;font-stretch:normal;fill:#000000;font-family:Myriad Pro;-inkscape-font-specification:Myriad Pro Bold"
         id="path4150"
         inkscape:connector-curvature="0" />
      <path
         d="m 423.67465,599.28929 c 0,-4.28805 -1.93896,-7.86765 -8.0168,-7.86765 -3.31858,0 -5.81685,0.8949 -7.08462,1.60336 l 1.04405,3.65417 c 1.1932,-0.74575 3.16943,-1.37963 5.0338,-1.37963 2.79656,0 3.31859,1.37963 3.31859,2.34911 l 0,0.26101 c -6.45073,-0.0373 -10.7015,2.23725 -10.7015,6.97275 0,2.90842 2.19996,5.59312 5.89142,5.59312 2.16267,0 4.02704,-0.78304 5.22024,-2.23725 l 0.11186,0 0.33559,1.82709 5.10838,0 c -0.18644,-1.00676 -0.26101,-2.6847 -0.26101,-4.43721 l 0,-6.33887 m -5.51855,4.13891 c 0,0.33559 -0.0373,0.67118 -0.11186,0.96948 -0.37287,1.15591 -1.52878,2.08809 -2.94571,2.08809 -1.26777,0 -2.23724,-0.70846 -2.23724,-2.16267 0,-2.19996 2.31182,-2.90842 5.29481,-2.87113 l 0,1.97623"
         style="font-variant:normal;font-weight:bold;font-stretch:normal;fill:#000000;font-family:Myriad Pro;-inkscape-font-specification:Myriad Pro Bold"
         id="path4152"
         inkscape:connector-curvature="0" />
      <path
         d="m 441.13799,605.40444 c -0.85761,0.37287 -1.90166,0.5966 -3.24401,0.5966 -2.75927,0 -4.99652,-1.75252 -4.99652,-5.10838 -0.0373,-2.983 1.90167,-5.10839 4.88466,-5.10839 1.4915,0 2.49826,0.26102 3.16943,0.55932 l 0.8949,-4.21349 c -1.19319,-0.44745 -2.83384,-0.70846 -4.32534,-0.70846 -6.78631,0 -10.44049,4.36264 -10.44049,9.69474 0,5.74226 3.76604,9.35915 9.65745,9.35915 2.16267,0 4.06434,-0.41016 5.0711,-0.85761 l -0.67118,-4.21348"
         style="font-variant:normal;font-weight:bold;font-stretch:normal;fill:#000000;font-family:Myriad Pro;-inkscape-font-specification:Myriad Pro Bold"
         id="path4154"
         inkscape:connector-curvature="0" />
      <path
         d="m 443.4562,591.8318 6.67445,16.6675 c 0.22373,0.44744 0.26102,0.74574 0.26102,0.93218 0,0.26101 -0.11187,0.55931 -0.2983,0.82033 -0.55931,0.93218 -1.4915,1.82708 -2.34911,2.27453 -0.85761,0.52202 -1.75251,0.85761 -2.46097,0.96947 l 1.19319,4.81009 c 1.41693,-0.18644 3.50503,-0.78304 5.48126,-2.49826 2.05081,-1.82709 3.80332,-4.73552 6.41344,-11.96928 l 4.25077,-12.00656 -6.07785,0 -2.23725,8.94899 c -0.26101,1.04405 -0.55931,2.42369 -0.82033,3.39316 l -0.11186,0 c -0.22372,-0.96947 -0.5966,-2.31182 -0.8949,-3.39316 l -2.72198,-8.94899 -6.30158,0"
         style="font-variant:normal;font-weight:bold;font-stretch:normal;fill:#000000;font-family:Myriad Pro;-inkscape-font-specification:Myriad Pro Bold"
         id="path4156"
         inkscape:connector-curvature="0" />
      <path
         d="m 472.71228,584.93363 0,25.13174 5.70498,0 0,-25.13174 -5.70498,0"
         style="font-variant:normal;font-weight:bold;font-stretch:normal;fill:#000000;font-family:Myriad Pro;-inkscape-font-specification:Myriad Pro Bold"
         id="path4158"
         inkscape:connector-curvature="0" />
      <path
         d="m 483.34504,610.06537 5.6304,0 0,-8.98628 c 0.52202,0.0746 1.1932,0.11186 1.93895,0.11186 3.35587,0 6.22701,-0.82032 8.16595,-2.6474 1.4915,-1.41693 2.31182,-3.50503 2.31182,-5.966 0,-2.46097 -1.08134,-4.54907 -2.68469,-5.81684 -1.67794,-1.34235 -4.1762,-2.01352 -7.68122,-2.01352 -3.46773,0 -5.92871,0.22372 -7.68121,0.52202 l 0,24.79616 m 5.6304,-20.8064 c 0.41016,-0.11186 1.1932,-0.22372 2.34911,-0.22372 2.83384,0 4.43721,1.37963 4.43721,3.69145 0,2.57283 -1.86438,4.10162 -4.88466,4.10162 -0.82032,0 -1.41692,-0.0373 -1.90166,-0.14915 l 0,-7.4202"
         style="font-variant:normal;font-weight:bold;font-stretch:normal;fill:#000000;font-family:Myriad Pro;-inkscape-font-specification:Myriad Pro Bold"
         id="path4160"
         inkscape:connector-curvature="0" />
      <path
         d="m 523.55024,584.52346 c -7.4202,0 -12.23029,5.63042 -12.23029,13.16247 0,7.15919 4.36264,12.7896 11.82013,12.7896 7.34562,0 12.34214,-4.99653 12.34214,-13.23705 0,-6.93545 -4.21349,-12.71502 -11.93198,-12.71502 m -0.14915,4.51179 c 3.91518,0 6.07785,3.87789 6.07785,8.38967 0,4.88465 -2.19996,8.53883 -6.04056,8.53883 -3.80332,0 -6.11515,-3.46774 -6.11515,-8.38968 0,-4.88465 2.23725,-8.53882 6.07786,-8.53882"
         style="font-variant:normal;font-weight:bold;font-stretch:normal;fill:#000000;font-family:Myriad Pro;-inkscape-font-specification:Myriad Pro Bold"
         id="path4162"
         inkscape:connector-curvature="0" />
      <path
         d="m 539.16609,610.06537 5.66769,0 0,-10.51506 c 0,-0.52203 0.0746,-1.04405 0.22373,-1.41693 0.37287,-1.04404 1.30506,-2.12538 2.87113,-2.12538 2.05081,0 2.87114,1.60336 2.87114,3.95247 l 0,10.1049 5.66769,0 0,-10.81336 c 0,-5.36939 -2.79656,-7.83037 -6.52531,-7.83037 -3.02028,0 -4.88465,1.75251 -5.6304,2.90842 l -0.11186,0 -0.26102,-2.49826 -4.92194,0 c 0.0746,1.60336 0.14915,3.54231 0.14915,5.81685 l 0,12.41672"
         style="font-variant:normal;font-weight:bold;font-stretch:normal;fill:#000000;font-family:Myriad Pro;-inkscape-font-specification:Myriad Pro Bold"
         id="path4164"
         inkscape:connector-curvature="0" />
      <path
         d="m 561.0142,610.06537 5.6677,0 0,-26.47409 -5.6677,0 0,26.47409"
         style="font-variant:normal;font-weight:bold;font-stretch:normal;fill:#000000;font-family:Myriad Pro;-inkscape-font-specification:Myriad Pro Bold"
         id="path4166"
         inkscape:connector-curvature="0" />
      <path
         d="m 569.23201,591.8318 6.67445,16.6675 c 0.22373,0.44744 0.26102,0.74574 0.26102,0.93218 0,0.26101 -0.11187,0.55931 -0.2983,0.82033 -0.55931,0.93218 -1.4915,1.82708 -2.34911,2.27453 -0.85761,0.52202 -1.75251,0.85761 -2.46097,0.96947 l 1.19319,4.81009 c 1.41693,-0.18644 3.50503,-0.78304 5.48126,-2.49826 2.05081,-1.82709 3.80332,-4.73552 6.41344,-11.96928 l 4.25077,-12.00656 -6.07785,0 -2.23725,8.94899 c -0.26101,1.04405 -0.55931,2.42369 -0.82032,3.39316 l -0.11187,0 c -0.22372,-0.96947 -0.5966,-2.31182 -0.8949,-3.39316 l -2.72198,-8.94899 -6.30158,0"
         style="font-variant:normal;font-weight:bold;font-stretch:normal;fill:#000000;font-family:Myriad Pro;-inkscape-font-specification:Myriad Pro Bold"
         id="path4168"
         inkscape:connector-curvature="0" />
    </g>
    <g
       style="font-size:19.74931717px;font-style:normal;font-weight:normal;text-align:center;line-height:125%;letter-spacing:0px;word-spacing:0px;text-anchor:middle;fill:#000000;fill-opacity:1;stroke:none;font-family:Sans"
       id="text3873">
      <path
         d="m 347.54803,646.03967 1.73794,0 0,-11.84959 4.06836,0 0,-1.46145 -9.85491,0 0,1.46145 4.04861,0 0,11.84959"
         style="font-variant:normal;font-stretch:normal;fill:#000000;font-family:Myriad Pro;-inkscape-font-specification:Myriad Pro"
         id="path4001"
         inkscape:connector-curvature="0" />
      <path
         d="m 354.62013,646.03967 1.73794,0 0,-5.7668 c 0,-0.33574 0.0197,-0.59248 0.1185,-0.82947 0.31599,-0.94797 1.20471,-1.73794 2.33042,-1.73794 1.63919,0 2.21192,1.30346 2.21192,2.8439 l 0,5.49031 1.73794,0 0,-5.6878 c 0,-3.29813 -2.05393,-4.08811 -3.33763,-4.08811 -0.65173,0 -1.26396,0.19749 -1.77744,0.49373 -0.53323,0.29624 -0.96772,0.73073 -1.24421,1.22446 l -0.0395,0 0,-5.96429 -1.73794,0 0,14.02201"
         style="font-variant:normal;font-stretch:normal;fill:#000000;font-family:Myriad Pro;-inkscape-font-specification:Myriad Pro"
         id="path4003"
         inkscape:connector-curvature="0" />
      <path
         d="m 367.31277,646.03967 0,-9.55867 -1.73794,0 0,9.55867 1.73794,0 m -0.86897,-13.33079 c -0.63197,0 -1.08621,0.47399 -1.08621,1.08622 0,0.59248 0.43449,1.06646 1.04671,1.06646 0.69123,0 1.12572,-0.47398 1.10597,-1.06646 0,-0.61223 -0.41474,-1.08622 -1.06647,-1.08622"
         style="font-variant:normal;font-stretch:normal;fill:#000000;font-family:Myriad Pro;-inkscape-font-specification:Myriad Pro"
         id="path4005"
         inkscape:connector-curvature="0" />
      <path
         d="m 369.5321,645.58544 c 0.67148,0.39498 1.6392,0.67148 2.68591,0.67148 2.27117,0 3.57463,-1.20471 3.57463,-2.8834 0,-1.42195 -0.84923,-2.25143 -2.50817,-2.88341 -1.2442,-0.47398 -1.81693,-0.82947 -1.81693,-1.61944 0,-0.71097 0.57273,-1.30345 1.59969,-1.30345 0.88872,0 1.57995,0.31599 1.95518,0.55298 l 0.43449,-1.26396 c -0.53323,-0.31599 -1.38246,-0.59248 -2.35017,-0.59248 -2.05393,0 -3.29814,1.26396 -3.29814,2.8044 0,1.14546 0.80973,2.09343 2.52792,2.70566 1.2837,0.47398 1.77743,0.92822 1.77743,1.75769 0,0.78997 -0.59248,1.42195 -1.85643,1.42195 -0.86897,0 -1.77744,-0.35549 -2.29092,-0.69123 l -0.43449,1.32321"
         style="font-variant:normal;font-stretch:normal;fill:#000000;font-family:Myriad Pro;-inkscape-font-specification:Myriad Pro"
         id="path4007"
         inkscape:connector-curvature="0" />
      <path
         d="m 382.23832,649.95004 1.71819,0 0,-5.19407 0.0395,0 c 0.57273,0.94796 1.67869,1.50095 2.94265,1.50095 2.25142,0 4.34485,-1.69845 4.34485,-5.13483 0,-2.90314 -1.73794,-4.85833 -4.04861,-4.85833 -1.5602,0 -2.68591,0.69123 -3.39689,1.85644 l -0.0395,0 -0.079,-1.6392 -1.5602,0 c 0.0395,0.90847 0.079,1.89594 0.079,3.1204 l 0,10.34864 m 1.71819,-9.44018 c 0,-0.23699 0.0593,-0.49373 0.1185,-0.71097 0.33573,-1.30346 1.4417,-2.15268 2.62666,-2.15268 1.83668,0 2.8439,1.6392 2.8439,3.55488 0,2.19217 -1.06647,3.69312 -2.90315,3.69312 -1.24421,0 -2.29092,-0.82947 -2.60691,-2.03418 -0.0395,-0.21724 -0.079,-0.45423 -0.079,-0.71097 l 0,-1.6392"
         style="font-variant:normal;font-stretch:normal;fill:#000000;font-family:Myriad Pro;-inkscape-font-specification:Myriad Pro"
         id="path4009"
         inkscape:connector-curvature="0" />
      <path
         d="m 393.46303,646.03967 1.71819,0 0,-5.09532 c 0,-0.29624 0.0395,-0.57273 0.079,-0.80972 0.23699,-1.30346 1.10596,-2.23168 2.33042,-2.23168 0.23699,0 0.41473,0.0197 0.59248,0.0593 l 0,-1.63919 c -0.158,-0.0395 -0.29624,-0.0592 -0.49374,-0.0592 -1.16521,0 -2.21192,0.80972 -2.64641,2.09343 l -0.079,0 -0.0593,-1.87619 -1.5207,0 c 0.0593,0.88872 0.079,1.85644 0.079,2.98215 l 0,6.57652"
         style="font-variant:normal;font-stretch:normal;fill:#000000;font-family:Myriad Pro;-inkscape-font-specification:Myriad Pro"
         id="path4011"
         inkscape:connector-curvature="0" />
      <path
         d="m 403.75585,636.26376 c -2.6464,0 -4.73983,1.87619 -4.73983,5.07558 0,3.02164 1.99468,4.91758 4.58184,4.91758 2.31066,0 4.75958,-1.54045 4.75958,-5.07558 0,-2.9229 -1.85644,-4.91758 -4.60159,-4.91758 m -0.0395,1.30346 c 2.05393,0 2.86365,2.05393 2.86365,3.67337 0,2.15267 -1.2442,3.71287 -2.90315,3.71287 -1.69844,0 -2.90315,-1.57995 -2.90315,-3.67337 0,-1.81694 0.88873,-3.71287 2.94265,-3.71287"
         style="font-variant:normal;font-stretch:normal;fill:#000000;font-family:Myriad Pro;-inkscape-font-specification:Myriad Pro"
         id="path4013"
         inkscape:connector-curvature="0" />
      <path
         d="m 417.0635,632.01766 0,5.70755 -0.0395,0 c -0.43449,-0.77022 -1.42195,-1.46145 -2.8834,-1.46145 -2.33042,0 -4.30535,1.95519 -4.2856,5.13482 0,2.90315 1.77744,4.85834 4.08811,4.85834 1.56019,0 2.7254,-0.80973 3.25863,-1.87619 l 0.0395,0 0.079,1.65894 1.5602,0 c -0.0593,-0.65172 -0.079,-1.61944 -0.079,-2.46866 l 0,-11.55335 -1.73794,0 m 0,10.0129 c 0,0.27649 -0.0197,0.51348 -0.079,0.75048 -0.31599,1.30345 -1.38245,2.07367 -2.54766,2.07367 -1.87618,0 -2.82415,-1.59969 -2.82415,-3.53512 0,-2.11318 1.06646,-3.69313 2.86365,-3.69313 1.30345,0 2.25142,0.90847 2.50816,2.01443 0.0592,0.21725 0.079,0.51349 0.079,0.73073 l 0,1.65894"
         style="font-variant:normal;font-stretch:normal;fill:#000000;font-family:Myriad Pro;-inkscape-font-specification:Myriad Pro"
         id="path4015"
         inkscape:connector-curvature="0" />
      <path
         d="m 429.69226,636.481 -1.73794,0 0,5.86555 c 0,0.31599 -0.0593,0.63198 -0.158,0.88872 -0.31599,0.77022 -1.12571,1.57995 -2.29092,1.57995 -1.57994,0 -2.13292,-1.22446 -2.13292,-3.0414 l 0,-5.29282 -1.73794,0 0,5.58906 c 0,3.35738 1.79718,4.18686 3.29813,4.18686 1.69844,0 2.70566,-1.00722 3.15989,-1.77744 l 0.0395,0 0.0987,1.56019 1.54044,0 c -0.0592,-0.75047 -0.079,-1.61944 -0.079,-2.60691 l 0,-6.95176"
         style="font-variant:normal;font-stretch:normal;fill:#000000;font-family:Myriad Pro;-inkscape-font-specification:Myriad Pro"
         id="path4017"
         inkscape:connector-curvature="0" />
      <path
         d="m 439.08861,644.38073 c -0.49373,0.21724 -1.14546,0.47398 -2.13292,0.47398 -1.89593,0 -3.31789,-1.3627 -3.31789,-3.57462 0,-1.99468 1.18496,-3.61413 3.37714,-3.61413 0.94796,0 1.59969,0.21725 2.01443,0.45424 l 0.39498,-1.34296 c -0.47398,-0.23699 -1.38245,-0.49373 -2.40941,-0.49373 -3.12039,0 -5.13483,2.13293 -5.13483,5.07557 0,2.9229 1.87619,4.89784 4.75959,4.89784 1.2837,0 2.29092,-0.33574 2.74515,-0.57273 l -0.29624,-1.30346"
         style="font-variant:normal;font-stretch:normal;fill:#000000;font-family:Myriad Pro;-inkscape-font-specification:Myriad Pro"
         id="path4019"
         inkscape:connector-curvature="0" />
      <path
         d="m 442.05623,634.72331 0,1.75769 -1.4812,0 0,1.32321 1.4812,0 0,5.21382 c 0,1.12571 0.17774,1.97493 0.67148,2.48841 0.41473,0.47398 1.06646,0.75048 1.87618,0.75048 0.67148,0 1.20471,-0.1185 1.54045,-0.25675 l -0.079,-1.30345 c -0.25674,0.079 -0.53323,0.1185 -1.00721,0.1185 -0.96772,0 -1.30346,-0.67148 -1.30346,-1.85644 l 0,-5.15457 2.48842,0 0,-1.32321 -2.48842,0 0,-2.29092 -1.69844,0.53323"
         style="font-variant:normal;font-stretch:normal;fill:#000000;font-family:Myriad Pro;-inkscape-font-specification:Myriad Pro"
         id="path4021"
         inkscape:connector-curvature="0" />
      <path
         d="m 458.90178,632.01766 0,5.70755 -0.0395,0 c -0.43449,-0.77022 -1.42195,-1.46145 -2.8834,-1.46145 -2.33042,0 -4.30535,1.95519 -4.2856,5.13482 0,2.90315 1.77744,4.85834 4.08811,4.85834 1.56019,0 2.7254,-0.80973 3.25863,-1.87619 l 0.0395,0 0.079,1.65894 1.56019,0 c -0.0592,-0.65172 -0.079,-1.61944 -0.079,-2.46866 l 0,-11.55335 -1.73794,0 m 0,10.0129 c 0,0.27649 -0.0197,0.51348 -0.079,0.75048 -0.31599,1.30345 -1.38245,2.07367 -2.54766,2.07367 -1.87618,0 -2.82415,-1.59969 -2.82415,-3.53512 0,-2.11318 1.06646,-3.69313 2.86365,-3.69313 1.30345,0 2.25142,0.90847 2.50816,2.01443 0.0592,0.21725 0.079,0.51349 0.079,0.73073 l 0,1.65894"
         style="font-variant:normal;font-stretch:normal;fill:#000000;font-family:Myriad Pro;-inkscape-font-specification:Myriad Pro"
         id="path4023"
         inkscape:connector-curvature="0" />
      <path
         d="m 467.58068,636.26376 c -2.64641,0 -4.73984,1.87619 -4.73984,5.07558 0,3.02164 1.99469,4.91758 4.58185,4.91758 2.31066,0 4.75958,-1.54045 4.75958,-5.07558 0,-2.9229 -1.85644,-4.91758 -4.60159,-4.91758 m -0.0395,1.30346 c 2.05393,0 2.86365,2.05393 2.86365,3.67337 0,2.15267 -1.24421,3.71287 -2.90315,3.71287 -1.69844,0 -2.90315,-1.57995 -2.90315,-3.67337 0,-1.81694 0.88873,-3.71287 2.94265,-3.71287"
         style="font-variant:normal;font-stretch:normal;fill:#000000;font-family:Myriad Pro;-inkscape-font-specification:Myriad Pro"
         id="path4025"
         inkscape:connector-curvature="0" />
      <path
         d="m 482.05354,641.57633 c 0.0197,-0.17775 0.0592,-0.45424 0.0592,-0.80972 0,-1.75769 -0.82947,-4.50285 -3.94986,-4.50285 -2.78465,0 -4.48309,2.27118 -4.48309,5.15457 0,2.8834 1.75769,4.83859 4.70033,4.83859 1.5207,0 2.56742,-0.33574 3.17964,-0.61223 l -0.29624,-1.24421 c -0.65172,0.27649 -1.4022,0.49373 -2.6464,0.49373 -1.73794,0 -3.23889,-0.96772 -3.27839,-3.31788 l 6.71477,0 m -6.69502,-1.24421 c 0.13824,-1.20471 0.90847,-2.82415 2.66616,-2.82415 1.95518,0 2.42916,1.71819 2.40941,2.82415 l -5.07557,0"
         style="font-variant:normal;font-stretch:normal;fill:#000000;font-family:Myriad Pro;-inkscape-font-specification:Myriad Pro"
         id="path4027"
         inkscape:connector-curvature="0" />
      <path
         d="m 483.6128,645.58544 c 0.67148,0.39498 1.63919,0.67148 2.68591,0.67148 2.27117,0 3.57462,-1.20471 3.57462,-2.8834 0,-1.42195 -0.84922,-2.25143 -2.50816,-2.88341 -1.24421,-0.47398 -1.81694,-0.82947 -1.81694,-1.61944 0,-0.71097 0.57273,-1.30345 1.5997,-1.30345 0.88872,0 1.57994,0.31599 1.95518,0.55298 l 0.43448,-1.26396 c -0.53323,-0.31599 -1.38245,-0.59248 -2.35016,-0.59248 -2.05393,0 -3.29814,1.26396 -3.29814,2.8044 0,1.14546 0.80972,2.09343 2.52791,2.70566 1.28371,0.47398 1.77744,0.92822 1.77744,1.75769 0,0.78997 -0.59248,1.42195 -1.85644,1.42195 -0.86896,0 -1.77743,-0.35549 -2.29092,-0.69123 l -0.43448,1.32321"
         style="font-variant:normal;font-stretch:normal;fill:#000000;font-family:Myriad Pro;-inkscape-font-specification:Myriad Pro"
         id="path4029"
         inkscape:connector-curvature="0" />
      <path
         d="m 496.31902,646.03967 1.73794,0 0,-5.74705 c 0,-0.29624 0.0395,-0.59248 0.1185,-0.80972 0.29624,-0.96772 1.18496,-1.77744 2.33042,-1.77744 1.63919,0 2.21192,1.28371 2.21192,2.82415 l 0,5.51006 1.73794,0 0,-5.70755 c 0,-3.27838 -2.05393,-4.06836 -3.37713,-4.06836 -1.57995,0 -2.68591,0.88872 -3.1599,1.79719 l -0.0395,0 -0.0987,-1.57995 -1.54045,0 c 0.0592,0.78998 0.079,1.5997 0.079,2.58716 l 0,6.97151"
         style="font-variant:normal;font-stretch:normal;fill:#000000;font-family:Myriad Pro;-inkscape-font-specification:Myriad Pro"
         id="path4031"
         inkscape:connector-curvature="0" />
      <path
         d="m 511.32233,636.26376 c -2.64641,0 -4.73984,1.87619 -4.73984,5.07558 0,3.02164 1.99468,4.91758 4.58184,4.91758 2.31067,0 4.75959,-1.54045 4.75959,-5.07558 0,-2.9229 -1.85644,-4.91758 -4.60159,-4.91758 m -0.0395,1.30346 c 2.05392,0 2.86365,2.05393 2.86365,3.67337 0,2.15267 -1.24421,3.71287 -2.90315,3.71287 -1.69844,0 -2.90315,-1.57995 -2.90315,-3.67337 0,-1.81694 0.88872,-3.71287 2.94265,-3.71287"
         style="font-variant:normal;font-stretch:normal;fill:#000000;font-family:Myriad Pro;-inkscape-font-specification:Myriad Pro"
         id="path4033"
         inkscape:connector-curvature="0" />
      <path
         d="m 518.50769,634.72331 0,1.75769 -1.4812,0 0,1.32321 1.4812,0 0,5.21382 c 0,1.12571 0.17775,1.97493 0.67148,2.48841 0.41473,0.47398 1.06646,0.75048 1.87618,0.75048 0.67148,0 1.20471,-0.1185 1.54045,-0.25675 l -0.079,-1.30345 c -0.25674,0.079 -0.53323,0.1185 -1.00721,0.1185 -0.96772,0 -1.30346,-0.67148 -1.30346,-1.85644 l 0,-5.15457 2.48842,0 0,-1.32321 -2.48842,0 0,-2.29092 -1.69844,0.53323"
         style="font-variant:normal;font-stretch:normal;fill:#000000;font-family:Myriad Pro;-inkscape-font-specification:Myriad Pro"
         id="path4035"
         inkscape:connector-curvature="0" />
      <path
         d="m 528.16448,645.58544 c 0.67148,0.39498 1.63919,0.67148 2.68591,0.67148 2.27117,0 3.57462,-1.20471 3.57462,-2.8834 0,-1.42195 -0.84922,-2.25143 -2.50816,-2.88341 -1.24421,-0.47398 -1.81694,-0.82947 -1.81694,-1.61944 0,-0.71097 0.57273,-1.30345 1.5997,-1.30345 0.88872,0 1.57994,0.31599 1.95518,0.55298 l 0.43449,-1.26396 c -0.53324,-0.31599 -1.38246,-0.59248 -2.35017,-0.59248 -2.05393,0 -3.29814,1.26396 -3.29814,2.8044 0,1.14546 0.80972,2.09343 2.52791,2.70566 1.28371,0.47398 1.77744,0.92822 1.77744,1.75769 0,0.78997 -0.59248,1.42195 -1.85643,1.42195 -0.86897,0 -1.77744,-0.35549 -2.29092,-0.69123 l -0.43449,1.32321"
         style="font-variant:normal;font-stretch:normal;fill:#000000;font-family:Myriad Pro;-inkscape-font-specification:Myriad Pro"
         id="path4037"
         inkscape:connector-curvature="0" />
      <path
         d="m 544.66474,636.481 -1.73794,0 0,5.86555 c 0,0.31599 -0.0592,0.63198 -0.158,0.88872 -0.31599,0.77022 -1.12571,1.57995 -2.29092,1.57995 -1.57994,0 -2.13292,-1.22446 -2.13292,-3.0414 l 0,-5.29282 -1.73794,0 0,5.58906 c 0,3.35738 1.79719,4.18686 3.29813,4.18686 1.69844,0 2.70566,-1.00722 3.15989,-1.77744 l 0.0395,0 0.0987,1.56019 1.54044,0 c -0.0592,-0.75047 -0.079,-1.61944 -0.079,-2.60691 l 0,-6.95176"
         style="font-variant:normal;font-stretch:normal;fill:#000000;font-family:Myriad Pro;-inkscape-font-specification:Myriad Pro"
         id="path4039"
         inkscape:connector-curvature="0" />
      <path
         d="m 547.54381,649.95004 1.71819,0 0,-5.19407 0.0395,0 c 0.57273,0.94796 1.67869,1.50095 2.94265,1.50095 2.25142,0 4.34485,-1.69845 4.34485,-5.13483 0,-2.90314 -1.73794,-4.85833 -4.04861,-4.85833 -1.56019,0 -2.68591,0.69123 -3.39688,1.85644 l -0.0395,0 -0.079,-1.6392 -1.56019,0 c 0.0395,0.90847 0.079,1.89594 0.079,3.1204 l 0,10.34864 m 1.71819,-9.44018 c 0,-0.23699 0.0593,-0.49373 0.1185,-0.71097 0.33574,-1.30346 1.4417,-2.15268 2.62666,-2.15268 1.83668,0 2.8439,1.6392 2.8439,3.55488 0,2.19217 -1.06647,3.69312 -2.90315,3.69312 -1.24421,0 -2.29092,-0.82947 -2.60691,-2.03418 -0.0395,-0.21724 -0.079,-0.45423 -0.079,-0.71097 l 0,-1.6392"
         style="font-variant:normal;font-stretch:normal;fill:#000000;font-family:Myriad Pro;-inkscape-font-specification:Myriad Pro"
         id="path4041"
         inkscape:connector-curvature="0" />
      <path
         d="m 558.76853,649.95004 1.71819,0 0,-5.19407 0.0395,0 c 0.57273,0.94796 1.67869,1.50095 2.94265,1.50095 2.25142,0 4.34485,-1.69845 4.34485,-5.13483 0,-2.90314 -1.73795,-4.85833 -4.04861,-4.85833 -1.5602,0 -2.68591,0.69123 -3.39689,1.85644 l -0.0395,0 -0.079,-1.6392 -1.5602,0 c 0.0395,0.90847 0.079,1.89594 0.079,3.1204 l 0,10.34864 m 1.71819,-9.44018 c 0,-0.23699 0.0593,-0.49373 0.1185,-0.71097 0.33573,-1.30346 1.4417,-2.15268 2.62665,-2.15268 1.83669,0 2.84391,1.6392 2.84391,3.55488 0,2.19217 -1.06647,3.69312 -2.90315,3.69312 -1.24421,0 -2.29092,-0.82947 -2.60691,-2.03418 -0.0395,-0.21724 -0.079,-0.45423 -0.079,-0.71097 l 0,-1.6392"
         style="font-variant:normal;font-stretch:normal;fill:#000000;font-family:Myriad Pro;-inkscape-font-specification:Myriad Pro"
         id="path4043"
         inkscape:connector-curvature="0" />
      <path
         d="m 574.04184,636.26376 c -2.64641,0 -4.73984,1.87619 -4.73984,5.07558 0,3.02164 1.99469,4.91758 4.58185,4.91758 2.31066,0 4.75958,-1.54045 4.75958,-5.07558 0,-2.9229 -1.85644,-4.91758 -4.60159,-4.91758 m -0.0395,1.30346 c 2.05393,0 2.86365,2.05393 2.86365,3.67337 0,2.15267 -1.24421,3.71287 -2.90315,3.71287 -1.69844,0 -2.90315,-1.57995 -2.90315,-3.67337 0,-1.81694 0.88872,-3.71287 2.94265,-3.71287"
         style="font-variant:normal;font-stretch:normal;fill:#000000;font-family:Myriad Pro;-inkscape-font-specification:Myriad Pro"
         id="path4045"
         inkscape:connector-curvature="0" />
      <path
         d="m 580.83222,646.03967 1.71819,0 0,-5.09532 c 0,-0.29624 0.0395,-0.57273 0.079,-0.80972 0.23699,-1.30346 1.10596,-2.23168 2.33042,-2.23168 0.23699,0 0.41473,0.0197 0.59248,0.0593 l 0,-1.63919 c -0.158,-0.0395 -0.29624,-0.0592 -0.49374,-0.0592 -1.16521,0 -2.21192,0.80972 -2.64641,2.09343 l -0.079,0 -0.0593,-1.87619 -1.5207,0 c 0.0592,0.88872 0.079,1.85644 0.079,2.98215 l 0,6.57652"
         style="font-variant:normal;font-stretch:normal;fill:#000000;font-family:Myriad Pro;-inkscape-font-specification:Myriad Pro"
         id="path4047"
         inkscape:connector-curvature="0" />
      <path
         d="m 588.14282,634.72331 0,1.75769 -1.48119,0 0,1.32321 1.48119,0 0,5.21382 c 0,1.12571 0.17775,1.97493 0.67148,2.48841 0.41474,0.47398 1.06646,0.75048 1.87619,0.75048 0.67147,0 1.2047,-0.1185 1.54044,-0.25675 l -0.079,-1.30345 c -0.25675,0.079 -0.53324,0.1185 -1.00722,0.1185 -0.96772,0 -1.30345,-0.67148 -1.30345,-1.85644 l 0,-5.15457 2.48841,0 0,-1.32321 -2.48841,0 0,-2.29092 -1.69845,0.53323"
         style="font-variant:normal;font-stretch:normal;fill:#000000;font-family:Myriad Pro;-inkscape-font-specification:Myriad Pro"
         id="path4049"
         inkscape:connector-curvature="0" />
      <path
         d="m 350.73611,659.40996 0,1.75769 -1.4812,0 0,1.3232 1.4812,0 0,5.21382 c 0,1.12571 0.17774,1.97494 0.67148,2.48842 0.41473,0.47398 1.06646,0.75047 1.87618,0.75047 0.67148,0 1.20471,-0.11849 1.54045,-0.25674 l -0.079,-1.30345 c -0.25674,0.079 -0.53323,0.11849 -1.00721,0.11849 -0.96772,0 -1.30346,-0.67148 -1.30346,-1.85643 l 0,-5.15458 2.48842,0 0,-1.3232 -2.48842,0 0,-2.29092 -1.69844,0.53323"
         style="font-variant:normal;font-stretch:normal;fill:#000000;font-family:Myriad Pro;-inkscape-font-specification:Myriad Pro"
         id="path4051"
         inkscape:connector-curvature="0" />
      <path
         d="m 356.85994,670.72632 1.73794,0 0,-5.7668 c 0,-0.33574 0.0198,-0.59248 0.1185,-0.82947 0.31599,-0.94797 1.20471,-1.73794 2.33042,-1.73794 1.63919,0 2.21192,1.30345 2.21192,2.8439 l 0,5.49031 1.73794,0 0,-5.6878 c 0,-3.29814 -2.05393,-4.08811 -3.33763,-4.08811 -0.65173,0 -1.26396,0.19749 -1.77744,0.49373 -0.53323,0.29624 -0.96772,0.73073 -1.24421,1.22446 l -0.0395,0 0,-5.9643 -1.73794,0 0,14.02202"
         style="font-variant:normal;font-stretch:normal;fill:#000000;font-family:Myriad Pro;-inkscape-font-specification:Myriad Pro"
         id="path4053"
         inkscape:connector-curvature="0" />
      <path
         d="m 375.49712,666.26297 c 0.0197,-0.17774 0.0593,-0.45423 0.0593,-0.80972 0,-1.75769 -0.82947,-4.50284 -3.94986,-4.50284 -2.78465,0 -4.4831,2.27117 -4.4831,5.15457 0,2.8834 1.7577,4.83858 4.70034,4.83858 1.5207,0 2.56741,-0.33574 3.17964,-0.61223 l -0.29624,-1.2442 c -0.65172,0.27649 -1.4022,0.49373 -2.64641,0.49373 -1.73793,0 -3.23888,-0.96772 -3.27838,-3.31789 l 6.71476,0 m -6.69501,-1.2442 c 0.13824,-1.20471 0.90847,-2.82416 2.66615,-2.82416 1.95518,0 2.42917,1.7182 2.40942,2.82416 l -5.07557,0"
         style="font-variant:normal;font-stretch:normal;fill:#000000;font-family:Myriad Pro;-inkscape-font-specification:Myriad Pro"
         id="path4055"
         inkscape:connector-curvature="0" />
      <path
         d="m 388.44959,669.06738 c -0.49373,0.21724 -1.14546,0.47398 -2.13292,0.47398 -1.89594,0 -3.31789,-1.3627 -3.31789,-3.57463 0,-1.99468 1.18496,-3.61412 3.37713,-3.61412 0.94797,0 1.5997,0.21724 2.01443,0.45423 l 0.39499,-1.34295 c -0.47398,-0.23699 -1.38245,-0.49373 -2.40942,-0.49373 -3.12038,0 -5.13482,2.13293 -5.13482,5.07557 0,2.9229 1.87619,4.89783 4.75959,4.89783 1.2837,0 2.29092,-0.33574 2.74515,-0.57273 l -0.29624,-1.30345"
         style="font-variant:normal;font-stretch:normal;fill:#000000;font-family:Myriad Pro;-inkscape-font-specification:Myriad Pro"
         id="path4057"
         inkscape:connector-curvature="0" />
      <path
         d="m 398.76398,661.16765 -1.73794,0 0,5.86555 c 0,0.31599 -0.0593,0.63198 -0.15799,0.88872 -0.31599,0.77022 -1.12571,1.57994 -2.29092,1.57994 -1.57995,0 -2.13293,-1.22446 -2.13293,-3.04139 l 0,-5.29282 -1.73794,0 0,5.58906 c 0,3.35738 1.79719,4.18685 3.29814,4.18685 1.69844,0 2.70565,-1.00721 3.15989,-1.77744 l 0.0395,0 0.0987,1.5602 1.54045,0 c -0.0593,-0.75047 -0.079,-1.61945 -0.079,-2.60691 l 0,-6.95176"
         style="font-variant:normal;font-stretch:normal;fill:#000000;font-family:Myriad Pro;-inkscape-font-specification:Myriad Pro"
         id="path4059"
         inkscape:connector-curvature="0" />
      <path
         d="m 401.64306,670.72632 1.71819,0 0,-5.09532 c 0,-0.29624 0.0395,-0.57273 0.079,-0.80973 0.23699,-1.30345 1.10596,-2.23167 2.33042,-2.23167 0.23699,0 0.41473,0.0197 0.59248,0.0593 l 0,-1.63919 c -0.158,-0.0395 -0.29624,-0.0593 -0.49374,-0.0593 -1.1652,0 -2.21192,0.80972 -2.6464,2.09342 l -0.079,0 -0.0592,-1.87618 -1.5207,0 c 0.0593,0.88872 0.079,1.85644 0.079,2.98215 l 0,6.57652"
         style="font-variant:normal;font-stretch:normal;fill:#000000;font-family:Myriad Pro;-inkscape-font-specification:Myriad Pro"
         id="path4061"
         inkscape:connector-curvature="0" />
      <path
         d="m 408.16373,670.72632 1.71819,0 0,-5.09532 c 0,-0.29624 0.0395,-0.57273 0.079,-0.80973 0.23699,-1.30345 1.10597,-2.23167 2.33042,-2.23167 0.23699,0 0.41474,0.0197 0.59248,0.0593 l 0,-1.63919 c -0.15799,-0.0395 -0.29624,-0.0593 -0.49373,-0.0593 -1.16521,0 -2.21192,0.80972 -2.64641,2.09342 l -0.079,0 -0.0592,-1.87618 -1.5207,0 c 0.0593,0.88872 0.079,1.85644 0.079,2.98215 l 0,6.57652"
         style="font-variant:normal;font-stretch:normal;fill:#000000;font-family:Myriad Pro;-inkscape-font-specification:Myriad Pro"
         id="path4063"
         inkscape:connector-curvature="0" />
      <path
         d="m 422.09042,666.26297 c 0.0197,-0.17774 0.0593,-0.45423 0.0593,-0.80972 0,-1.75769 -0.82948,-4.50284 -3.94987,-4.50284 -2.78465,0 -4.48309,2.27117 -4.48309,5.15457 0,2.8834 1.75769,4.83858 4.70034,4.83858 1.52069,0 2.56741,-0.33574 3.17964,-0.61223 l -0.29624,-1.2442 c -0.65173,0.27649 -1.40221,0.49373 -2.64641,0.49373 -1.73794,0 -3.23889,-0.96772 -3.27839,-3.31789 l 6.71477,0 m -6.69502,-1.2442 c 0.13825,-1.20471 0.90847,-2.82416 2.66616,-2.82416 1.95518,0 2.42916,1.7182 2.40941,2.82416 l -5.07557,0"
         style="font-variant:normal;font-stretch:normal;fill:#000000;font-family:Myriad Pro;-inkscape-font-specification:Myriad Pro"
         id="path4065"
         inkscape:connector-curvature="0" />
      <path
         d="m 424.32117,670.72632 1.73794,0 0,-5.74705 c 0,-0.29624 0.0395,-0.59248 0.11849,-0.80972 0.29624,-0.96772 1.18496,-1.77744 2.33042,-1.77744 1.63919,0 2.21192,1.2837 2.21192,2.82415 l 0,5.51006 1.73794,0 0,-5.70755 c 0,-3.27839 -2.05393,-4.06836 -3.37713,-4.06836 -1.57994,0 -2.68591,0.88872 -3.15989,1.79719 l -0.0395,0 -0.0987,-1.57995 -1.54044,0 c 0.0593,0.78997 0.079,1.5997 0.079,2.58716 l 0,6.97151"
         style="font-variant:normal;font-stretch:normal;fill:#000000;font-family:Myriad Pro;-inkscape-font-specification:Myriad Pro"
         id="path4067"
         inkscape:connector-curvature="0" />
      <path
         d="m 435.59186,659.40996 0,1.75769 -1.4812,0 0,1.3232 1.4812,0 0,5.21382 c 0,1.12571 0.17775,1.97494 0.67148,2.48842 0.41473,0.47398 1.06646,0.75047 1.87618,0.75047 0.67148,0 1.20471,-0.11849 1.54045,-0.25674 l -0.079,-1.30345 c -0.25674,0.079 -0.53323,0.11849 -1.00721,0.11849 -0.96772,0 -1.30346,-0.67148 -1.30346,-1.85643 l 0,-5.15458 2.48842,0 0,-1.3232 -2.48842,0 0,-2.29092 -1.69844,0.53323"
         style="font-variant:normal;font-stretch:normal;fill:#000000;font-family:Myriad Pro;-inkscape-font-specification:Myriad Pro"
         id="path4069"
         inkscape:connector-curvature="0" />
      <path
         d="m 454.07661,663.79431 c 0,-1.16521 0.0395,-1.93543 0.079,-2.62666 l -1.5207,0 -0.079,1.4417 -0.0395,0 c -0.41473,-0.78997 -1.3232,-1.65894 -2.98214,-1.65894 -2.19218,0 -4.30535,1.83669 -4.30535,5.07557 0,2.64641 1.69844,4.66084 4.06835,4.66084 1.4812,0 2.50817,-0.71098 3.0414,-1.59969 l 0.0395,0 0,1.06646 c 0,2.40941 -1.30346,3.33763 -3.0809,3.33763 -1.18495,0 -2.17242,-0.35548 -2.8044,-0.75047 l -0.43448,1.3232 c 0.77022,0.51349 2.03418,0.78998 3.17964,0.78998 1.2047,0 2.54766,-0.27649 3.47588,-1.14546 0.92821,-0.82947 1.3627,-2.17243 1.3627,-4.3646 l 0,-5.54956 m -1.71819,2.86365 c 0,0.29624 -0.0395,0.63198 -0.13825,0.92822 -0.37523,1.10596 -1.34295,1.77744 -2.40941,1.77744 -1.87619,0 -2.82416,-1.5602 -2.82416,-3.43638 0,-2.21193 1.18497,-3.61413 2.84391,-3.61413 1.26395,0 2.11317,0.82947 2.42916,1.83669 0.079,0.23699 0.0987,0.49373 0.0987,0.78997 l 0,1.71819"
         style="font-variant:normal;font-stretch:normal;fill:#000000;font-family:Myriad Pro;-inkscape-font-specification:Myriad Pro"
         id="path4071"
         inkscape:connector-curvature="0" />
      <path
         d="m 464.63447,666.26297 c 0.0197,-0.17774 0.0592,-0.45423 0.0592,-0.80972 0,-1.75769 -0.82948,-4.50284 -3.94986,-4.50284 -2.78466,0 -4.4831,2.27117 -4.4831,5.15457 0,2.8834 1.75769,4.83858 4.70034,4.83858 1.52069,0 2.56741,-0.33574 3.17964,-0.61223 l -0.29624,-1.2442 c -0.65173,0.27649 -1.4022,0.49373 -2.64641,0.49373 -1.73794,0 -3.23889,-0.96772 -3.27839,-3.31789 l 6.71477,0 m -6.69502,-1.2442 c 0.13825,-1.20471 0.90847,-2.82416 2.66616,-2.82416 1.95518,0 2.42917,1.7182 2.40942,2.82416 l -5.07558,0"
         style="font-variant:normal;font-stretch:normal;fill:#000000;font-family:Myriad Pro;-inkscape-font-specification:Myriad Pro"
         id="path4073"
         inkscape:connector-curvature="0" />
      <path
         d="m 466.86522,670.72632 1.73794,0 0,-5.74705 c 0,-0.29624 0.0395,-0.59248 0.11849,-0.80972 0.29624,-0.96772 1.18496,-1.77744 2.33042,-1.77744 1.63919,0 2.21193,1.2837 2.21193,2.82415 l 0,5.51006 1.73794,0 0,-5.70755 c 0,-3.27839 -2.05393,-4.06836 -3.37714,-4.06836 -1.57994,0 -2.6859,0.88872 -3.15989,1.79719 l -0.0395,0 -0.0987,-1.57995 -1.54045,0 c 0.0592,0.78997 0.079,1.5997 0.079,2.58716 l 0,6.97151"
         style="font-variant:normal;font-stretch:normal;fill:#000000;font-family:Myriad Pro;-inkscape-font-specification:Myriad Pro"
         id="path4075"
         inkscape:connector-curvature="0" />
      <path
         d="m 485.5024,666.26297 c 0.0197,-0.17774 0.0592,-0.45423 0.0592,-0.80972 0,-1.75769 -0.82948,-4.50284 -3.94987,-4.50284 -2.78465,0 -4.48309,2.27117 -4.48309,5.15457 0,2.8834 1.75769,4.83858 4.70034,4.83858 1.52069,0 2.56741,-0.33574 3.17964,-0.61223 l -0.29624,-1.2442 c -0.65173,0.27649 -1.40221,0.49373 -2.64641,0.49373 -1.73794,0 -3.23889,-0.96772 -3.27839,-3.31789 l 6.71477,0 m -6.69502,-1.2442 c 0.13825,-1.20471 0.90847,-2.82416 2.66616,-2.82416 1.95518,0 2.42916,1.7182 2.40941,2.82416 l -5.07557,0"
         style="font-variant:normal;font-stretch:normal;fill:#000000;font-family:Myriad Pro;-inkscape-font-specification:Myriad Pro"
         id="path4077"
         inkscape:connector-curvature="0" />
      <path
         d="m 487.73315,670.72632 1.71819,0 0,-5.09532 c 0,-0.29624 0.0395,-0.57273 0.079,-0.80973 0.23699,-1.30345 1.10596,-2.23167 2.33042,-2.23167 0.23699,0 0.41474,0.0197 0.59248,0.0593 l 0,-1.63919 c -0.15799,-0.0395 -0.29624,-0.0593 -0.49373,-0.0593 -1.16521,0 -2.21193,0.80972 -2.64641,2.09342 l -0.079,0 -0.0593,-1.87618 -1.52069,0 c 0.0592,0.88872 0.079,1.85644 0.079,2.98215 l 0,6.57652"
         style="font-variant:normal;font-stretch:normal;fill:#000000;font-family:Myriad Pro;-inkscape-font-specification:Myriad Pro"
         id="path4079"
         inkscape:connector-curvature="0" />
      <path
         d="m 500.79086,664.86077 c 0,-1.91568 -0.71098,-3.91036 -3.63387,-3.91036 -1.20471,0 -2.35017,0.33574 -3.14014,0.84922 l 0.39498,1.14546 c 0.67148,-0.43449 1.5997,-0.71098 2.48842,-0.71098 1.95518,0 2.17242,1.42195 2.17242,2.21193 l 0,0.19749 c -3.69312,-0.0198 -5.74705,1.24421 -5.74705,3.55488 0,1.38245 0.98747,2.74515 2.9229,2.74515 1.3627,0 2.38967,-0.67148 2.9229,-1.42195 l 0.0592,0 0.13824,1.20471 1.57995,0 c -0.1185,-0.65173 -0.158,-1.46145 -0.158,-2.29092 l 0,-3.57463 m -1.67869,2.64641 c 0,0.17774 -0.0395,0.37524 -0.0987,0.55298 -0.27649,0.80972 -1.06646,1.5997 -2.31067,1.5997 -0.88872,0 -1.63919,-0.53324 -1.63919,-1.65895 0,-1.85643 2.15268,-2.19217 4.04861,-2.15267 l 0,1.65894"
         style="font-variant:normal;font-stretch:normal;fill:#000000;font-family:Myriad Pro;-inkscape-font-specification:Myriad Pro"
         id="path4081"
         inkscape:connector-curvature="0" />
      <path
         d="m 503.91958,659.40996 0,1.75769 -1.4812,0 0,1.3232 1.4812,0 0,5.21382 c 0,1.12571 0.17775,1.97494 0.67148,2.48842 0.41473,0.47398 1.06646,0.75047 1.87618,0.75047 0.67148,0 1.20471,-0.11849 1.54045,-0.25674 l -0.079,-1.30345 c -0.25674,0.079 -0.53323,0.11849 -1.00721,0.11849 -0.96772,0 -1.30346,-0.67148 -1.30346,-1.85643 l 0,-5.15458 2.48842,0 0,-1.3232 -2.48842,0 0,-2.29092 -1.69844,0.53323"
         style="font-variant:normal;font-stretch:normal;fill:#000000;font-family:Myriad Pro;-inkscape-font-specification:Myriad Pro"
         id="path4083"
         inkscape:connector-curvature="0" />
      <path
         d="m 511.78135,670.72632 0,-9.55867 -1.73794,0 0,9.55867 1.73794,0 m -0.86897,-13.33079 c -0.63198,0 -1.08621,0.47398 -1.08621,1.08621 0,0.59248 0.43448,1.06647 1.04671,1.06647 0.69123,0 1.12571,-0.47399 1.10596,-1.06647 0,-0.61223 -0.41473,-1.08621 -1.06646,-1.08621"
         style="font-variant:normal;font-stretch:normal;fill:#000000;font-family:Myriad Pro;-inkscape-font-specification:Myriad Pro"
         id="path4085"
         inkscape:connector-curvature="0" />
      <path
         d="m 518.72077,660.95041 c -2.6464,0 -4.73983,1.87619 -4.73983,5.07557 0,3.02164 1.99468,4.91758 4.58184,4.91758 2.31067,0 4.75958,-1.54045 4.75958,-5.07557 0,-2.9229 -1.85643,-4.91758 -4.60159,-4.91758 m -0.0395,1.30345 c 2.05393,0 2.86366,2.05393 2.86366,3.67338 0,2.15267 -1.24421,3.71287 -2.90315,3.71287 -1.69844,0 -2.90315,-1.57995 -2.90315,-3.67338 0,-1.81693 0.88872,-3.71287 2.94264,-3.71287"
         style="font-variant:normal;font-stretch:normal;fill:#000000;font-family:Myriad Pro;-inkscape-font-specification:Myriad Pro"
         id="path4087"
         inkscape:connector-curvature="0" />
      <path
         d="m 525.51114,670.72632 1.73794,0 0,-5.74705 c 0,-0.29624 0.0395,-0.59248 0.11849,-0.80972 0.29624,-0.96772 1.18496,-1.77744 2.33042,-1.77744 1.63919,0 2.21193,1.2837 2.21193,2.82415 l 0,5.51006 1.73794,0 0,-5.70755 c 0,-3.27839 -2.05393,-4.06836 -3.37714,-4.06836 -1.57994,0 -2.6859,0.88872 -3.15989,1.79719 l -0.0395,0 -0.0987,-1.57995 -1.54045,0 c 0.0593,0.78997 0.079,1.5997 0.079,2.58716 l 0,6.97151"
         style="font-variant:normal;font-stretch:normal;fill:#000000;font-family:Myriad Pro;-inkscape-font-specification:Myriad Pro"
         id="path4089"
         inkscape:connector-curvature="0" />
      <path
         d="m 544.7189,660.95041 c -2.64641,0 -4.73984,1.87619 -4.73984,5.07557 0,3.02164 1.99468,4.91758 4.58184,4.91758 2.31067,0 4.75959,-1.54045 4.75959,-5.07557 0,-2.9229 -1.85644,-4.91758 -4.60159,-4.91758 m -0.0395,1.30345 c 2.05392,0 2.86365,2.05393 2.86365,3.67338 0,2.15267 -1.24421,3.71287 -2.90315,3.71287 -1.69844,0 -2.90315,-1.57995 -2.90315,-3.67338 0,-1.81693 0.88872,-3.71287 2.94265,-3.71287"
         style="font-variant:normal;font-stretch:normal;fill:#000000;font-family:Myriad Pro;-inkscape-font-specification:Myriad Pro"
         id="path4091"
         inkscape:connector-curvature="0" />
      <path
         d="m 553.40521,670.72632 0,-8.23547 2.31067,0 0,-1.3232 -2.31067,0 0,-0.51348 c 0,-1.46145 0.37524,-2.76491 1.85644,-2.76491 0.49373,0 0.84922,0.0987 1.10596,0.21725 l 0.23699,-1.34296 c -0.33574,-0.13824 -0.86897,-0.27649 -1.4812,-0.27649 -0.80972,0 -1.67869,0.25674 -2.33042,0.88872 -0.80972,0.77022 -1.10596,1.99468 -1.10596,3.33764 l 0,0.45423 -1.34295,0 0,1.3232 1.34295,0 0,8.23547 1.71819,0"
         style="font-variant:normal;font-stretch:normal;fill:#000000;font-family:Myriad Pro;-inkscape-font-specification:Myriad Pro"
         id="path4093"
         inkscape:connector-curvature="0" />
      <path
         d="m 561.89463,659.40996 0,1.75769 -1.48119,0 0,1.3232 1.48119,0 0,5.21382 c 0,1.12571 0.17775,1.97494 0.67148,2.48842 0.41474,0.47398 1.06646,0.75047 1.87619,0.75047 0.67147,0 1.2047,-0.11849 1.54044,-0.25674 l -0.079,-1.30345 c -0.25675,0.079 -0.53324,0.11849 -1.00722,0.11849 -0.96772,0 -1.30345,-0.67148 -1.30345,-1.85643 l 0,-5.15458 2.48841,0 0,-1.3232 -2.48841,0 0,-2.29092 -1.69845,0.53323"
         style="font-variant:normal;font-stretch:normal;fill:#000000;font-family:Myriad Pro;-inkscape-font-specification:Myriad Pro"
         id="path4095"
         inkscape:connector-curvature="0" />
      <path
         d="m 568.01846,670.72632 1.73794,0 0,-5.7668 c 0,-0.33574 0.0198,-0.59248 0.1185,-0.82947 0.31599,-0.94797 1.20471,-1.73794 2.33042,-1.73794 1.63919,0 2.21192,1.30345 2.21192,2.8439 l 0,5.49031 1.73794,0 0,-5.6878 c 0,-3.29814 -2.05393,-4.08811 -3.33763,-4.08811 -0.65173,0 -1.26396,0.19749 -1.77744,0.49373 -0.53323,0.29624 -0.96772,0.73073 -1.24421,1.22446 l -0.0395,0 0,-5.9643 -1.73794,0 0,14.02202"
         style="font-variant:normal;font-stretch:normal;fill:#000000;font-family:Myriad Pro;-inkscape-font-specification:Myriad Pro"
         id="path4097"
         inkscape:connector-curvature="0" />
      <path
         d="m 586.65564,666.26297 c 0.0198,-0.17774 0.0593,-0.45423 0.0593,-0.80972 0,-1.75769 -0.82947,-4.50284 -3.94986,-4.50284 -2.78465,0 -4.4831,2.27117 -4.4831,5.15457 0,2.8834 1.75769,4.83858 4.70034,4.83858 1.5207,0 2.56741,-0.33574 3.17964,-0.61223 l -0.29624,-1.2442 c -0.65173,0.27649 -1.4022,0.49373 -2.64641,0.49373 -1.73794,0 -3.23889,-0.96772 -3.27839,-3.31789 l 6.71477,0 m -6.69502,-1.2442 c 0.13825,-1.20471 0.90847,-2.82416 2.66616,-2.82416 1.95518,0 2.42917,1.7182 2.40942,2.82416 l -5.07558,0"
         style="font-variant:normal;font-stretch:normal;fill:#000000;font-family:Myriad Pro;-inkscape-font-specification:Myriad Pro"
         id="path4099"
         inkscape:connector-curvature="0" />
      <path
         d="m 376.66368,682.10193 0,13.31104 1.7182,0 0,-13.31104 -1.7182,0"
         style="font-variant:normal;font-stretch:normal;fill:#000000;font-family:Myriad Pro;-inkscape-font-specification:Myriad Pro"
         id="path4101"
         inkscape:connector-curvature="0" />
      <path
         d="m 381.50779,695.41297 1.73794,0 0,-5.74706 c 0,-0.29623 0.0395,-0.59248 0.11849,-0.80972 0.29624,-0.96771 1.18496,-1.77744 2.33042,-1.77744 1.6392,0 2.21193,1.28371 2.21193,2.82416 l 0,5.51006 1.73794,0 0,-5.70756 c 0,-3.27838 -2.05393,-4.06836 -3.37714,-4.06836 -1.57994,0 -2.6859,0.88872 -3.15989,1.79719 l -0.0395,0 -0.0987,-1.57994 -1.54045,0 c 0.0593,0.78997 0.079,1.59969 0.079,2.58716 l 0,6.97151"
         style="font-variant:normal;font-stretch:normal;fill:#000000;font-family:Myriad Pro;-inkscape-font-specification:Myriad Pro"
         id="path4103"
         inkscape:connector-curvature="0" />
      <path
         d="m 392.77848,684.09661 0,1.75769 -1.4812,0 0,1.3232 1.4812,0 0,5.21382 c 0,1.12571 0.17775,1.97493 0.67148,2.48841 0.41473,0.47399 1.06646,0.75048 1.87618,0.75048 0.67148,0 1.20471,-0.1185 1.54045,-0.25674 l -0.079,-1.30346 c -0.25674,0.079 -0.53323,0.1185 -1.00721,0.1185 -0.96772,0 -1.30346,-0.67148 -1.30346,-1.85644 l 0,-5.15457 2.48842,0 0,-1.3232 -2.48842,0 0,-2.29092 -1.69844,0.53323"
         style="font-variant:normal;font-stretch:normal;fill:#000000;font-family:Myriad Pro;-inkscape-font-specification:Myriad Pro"
         id="path4105"
         inkscape:connector-curvature="0" />
      <path
         d="m 406.46633,690.94962 c 0.0197,-0.17774 0.0592,-0.45423 0.0592,-0.80972 0,-1.75769 -0.82948,-4.50285 -3.94987,-4.50285 -2.78465,0 -4.48309,2.27118 -4.48309,5.15458 0,2.88339 1.75769,4.83858 4.70034,4.83858 1.52069,0 2.56741,-0.33574 3.17964,-0.61223 l -0.29624,-1.24421 c -0.65173,0.27649 -1.4022,0.49374 -2.64641,0.49374 -1.73794,0 -3.23889,-0.96772 -3.27839,-3.31789 l 6.71477,0 m -6.69502,-1.24421 c 0.13825,-1.2047 0.90847,-2.82415 2.66616,-2.82415 1.95518,0 2.42917,1.71819 2.40942,2.82415 l -5.07558,0"
         style="font-variant:normal;font-stretch:normal;fill:#000000;font-family:Myriad Pro;-inkscape-font-specification:Myriad Pro"
         id="path4107"
         inkscape:connector-curvature="0" />
      <path
         d="m 408.69708,695.41297 1.71819,0 0,-5.09533 c 0,-0.29624 0.0395,-0.57273 0.079,-0.80972 0.237,-1.30345 1.10597,-2.23167 2.33042,-2.23167 0.237,0 0.41474,0.0198 0.59248,0.0593 l 0,-1.6392 c -0.15799,-0.0395 -0.29624,-0.0592 -0.49373,-0.0592 -1.16521,0 -2.21192,0.80973 -2.64641,2.09343 l -0.079,0 -0.0593,-1.87618 -1.5207,0 c 0.0592,0.88871 0.079,1.85643 0.079,2.98214 l 0,6.57653"
         style="font-variant:normal;font-stretch:normal;fill:#000000;font-family:Myriad Pro;-inkscape-font-specification:Myriad Pro"
         id="path4109"
         inkscape:connector-curvature="0" />
      <path
         d="m 415.21774,695.41297 1.73794,0 0,-5.74706 c 0,-0.29623 0.0395,-0.59248 0.1185,-0.80972 0.29624,-0.96771 1.18496,-1.77744 2.33042,-1.77744 1.63919,0 2.21192,1.28371 2.21192,2.82416 l 0,5.51006 1.73794,0 0,-5.70756 c 0,-3.27838 -2.05393,-4.06836 -3.37713,-4.06836 -1.57995,0 -2.68591,0.88872 -3.15989,1.79719 l -0.0395,0 -0.0987,-1.57994 -1.54045,0 c 0.0593,0.78997 0.079,1.59969 0.079,2.58716 l 0,6.97151"
         style="font-variant:normal;font-stretch:normal;fill:#000000;font-family:Myriad Pro;-inkscape-font-specification:Myriad Pro"
         id="path4111"
         inkscape:connector-curvature="0" />
      <path
         d="m 433.85493,690.94962 c 0.0197,-0.17774 0.0592,-0.45423 0.0592,-0.80972 0,-1.75769 -0.82947,-4.50285 -3.94986,-4.50285 -2.78465,0 -4.48309,2.27118 -4.48309,5.15458 0,2.88339 1.75769,4.83858 4.70033,4.83858 1.5207,0 2.56741,-0.33574 3.17964,-0.61223 l -0.29624,-1.24421 c -0.65172,0.27649 -1.4022,0.49374 -2.64641,0.49374 -1.73793,0 -3.23888,-0.96772 -3.27838,-3.31789 l 6.71477,0 m -6.69502,-1.24421 c 0.13824,-1.2047 0.90847,-2.82415 2.66616,-2.82415 1.95518,0 2.42916,1.71819 2.40941,2.82415 l -5.07557,0"
         style="font-variant:normal;font-stretch:normal;fill:#000000;font-family:Myriad Pro;-inkscape-font-specification:Myriad Pro"
         id="path4113"
         inkscape:connector-curvature="0" />
      <path
         d="m 436.48066,684.09661 0,1.75769 -1.4812,0 0,1.3232 1.4812,0 0,5.21382 c 0,1.12571 0.17774,1.97493 0.67148,2.48841 0.41473,0.47399 1.06646,0.75048 1.87618,0.75048 0.67148,0 1.20471,-0.1185 1.54045,-0.25674 l -0.079,-1.30346 c -0.25674,0.079 -0.53323,0.1185 -1.00721,0.1185 -0.96772,0 -1.30346,-0.67148 -1.30346,-1.85644 l 0,-5.15457 2.48841,0 0,-1.3232 -2.48841,0 0,-2.29092 -1.69844,0.53323"
         style="font-variant:normal;font-stretch:normal;fill:#000000;font-family:Myriad Pro;-inkscape-font-specification:Myriad Pro"
         id="path4115"
         inkscape:connector-curvature="0" />
      <path
         d="m 446.86818,695.41297 1.71819,0 0,-5.33232 c 0.39499,0.0987 0.86897,0.1185 1.38246,0.1185 1.67869,0 3.15989,-0.49374 4.06836,-1.46145 0.67147,-0.69123 1.02696,-1.6392 1.02696,-2.84391 0,-1.18495 -0.43449,-2.15267 -1.16521,-2.78465 -0.78997,-0.71097 -2.03418,-1.10596 -3.73262,-1.10596 -1.38245,0 -2.46867,0.1185 -3.29814,0.25674 l 0,13.15305 m 1.71819,-11.90884 c 0.29624,-0.079 0.86897,-0.13825 1.61945,-0.13825 1.89593,0 3.14014,0.84922 3.14014,2.60691 0,1.83669 -1.26396,2.8439 -3.33764,2.8439 -0.57272,0 -1.04671,-0.0395 -1.42195,-0.13824 l 0,-5.17432"
         style="font-variant:normal;font-stretch:normal;fill:#000000;font-family:Myriad Pro;-inkscape-font-specification:Myriad Pro"
         id="path4117"
         inkscape:connector-curvature="0" />
      <path
         d="m 456.98479,695.41297 1.71819,0 0,-5.09533 c 0,-0.29624 0.0395,-0.57273 0.079,-0.80972 0.23699,-1.30345 1.10596,-2.23167 2.33042,-2.23167 0.23699,0 0.41474,0.0198 0.59248,0.0593 l 0,-1.6392 c -0.15799,-0.0395 -0.29624,-0.0592 -0.49373,-0.0592 -1.16521,0 -2.21193,0.80973 -2.64641,2.09343 l -0.079,0 -0.0593,-1.87618 -1.52069,0 c 0.0592,0.88871 0.079,1.85643 0.079,2.98214 l 0,6.57653"
         style="font-variant:normal;font-stretch:normal;fill:#000000;font-family:Myriad Pro;-inkscape-font-specification:Myriad Pro"
         id="path4119"
         inkscape:connector-curvature="0" />
      <path
         d="m 467.27761,685.63705 c -2.6464,0 -4.73983,1.87619 -4.73983,5.07558 0,3.02164 1.99468,4.91758 4.58184,4.91758 2.31067,0 4.75958,-1.54045 4.75958,-5.07558 0,-2.92289 -1.85644,-4.91758 -4.60159,-4.91758 m -0.0395,1.30346 c 2.05393,0 2.86365,2.05393 2.86365,3.67337 0,2.15268 -1.2442,3.71287 -2.90315,3.71287 -1.69843,0 -2.90314,-1.57994 -2.90314,-3.67337 0,-1.81694 0.88872,-3.71287 2.94264,-3.71287"
         style="font-variant:normal;font-stretch:normal;fill:#000000;font-family:Myriad Pro;-inkscape-font-specification:Myriad Pro"
         id="path4121"
         inkscape:connector-curvature="0" />
      <path
         d="m 474.46297,684.09661 0,1.75769 -1.4812,0 0,1.3232 1.4812,0 0,5.21382 c 0,1.12571 0.17774,1.97493 0.67148,2.48841 0.41473,0.47399 1.06646,0.75048 1.87618,0.75048 0.67148,0 1.20471,-0.1185 1.54045,-0.25674 l -0.079,-1.30346 c -0.25674,0.079 -0.53323,0.1185 -1.00721,0.1185 -0.96772,0 -1.30346,-0.67148 -1.30346,-1.85644 l 0,-5.15457 2.48842,0 0,-1.3232 -2.48842,0 0,-2.29092 -1.69844,0.53323"
         style="font-variant:normal;font-stretch:normal;fill:#000000;font-family:Myriad Pro;-inkscape-font-specification:Myriad Pro"
         id="path4123"
         inkscape:connector-curvature="0" />
      <path
         d="m 484.51695,685.63705 c -2.64641,0 -4.73984,1.87619 -4.73984,5.07558 0,3.02164 1.99468,4.91758 4.58184,4.91758 2.31067,0 4.75959,-1.54045 4.75959,-5.07558 0,-2.92289 -1.85644,-4.91758 -4.60159,-4.91758 m -0.0395,1.30346 c 2.05392,0 2.86365,2.05393 2.86365,3.67337 0,2.15268 -1.24421,3.71287 -2.90315,3.71287 -1.69844,0 -2.90315,-1.57994 -2.90315,-3.67337 0,-1.81694 0.88872,-3.71287 2.94265,-3.71287"
         style="font-variant:normal;font-stretch:normal;fill:#000000;font-family:Myriad Pro;-inkscape-font-specification:Myriad Pro"
         id="path4125"
         inkscape:connector-curvature="0" />
      <path
         d="m 497.82459,693.75402 c -0.49373,0.21725 -1.14546,0.47399 -2.13292,0.47399 -1.89594,0 -3.31789,-1.36271 -3.31789,-3.57463 0,-1.99468 1.18496,-3.61412 3.37713,-3.61412 0.94797,0 1.5997,0.21724 2.01443,0.45423 l 0.39499,-1.34295 c -0.47398,-0.237 -1.38245,-0.49374 -2.40942,-0.49374 -3.12038,0 -5.13482,2.13293 -5.13482,5.07558 0,2.92289 1.87619,4.89783 4.75959,4.89783 1.2837,0 2.29092,-0.33574 2.74515,-0.57273 l -0.29624,-1.30346"
         style="font-variant:normal;font-stretch:normal;fill:#000000;font-family:Myriad Pro;-inkscape-font-specification:Myriad Pro"
         id="path4127"
         inkscape:connector-curvature="0" />
      <path
         d="m 504.07065,685.63705 c -2.64641,0 -4.73984,1.87619 -4.73984,5.07558 0,3.02164 1.99469,4.91758 4.58185,4.91758 2.31066,0 4.75958,-1.54045 4.75958,-5.07558 0,-2.92289 -1.85644,-4.91758 -4.60159,-4.91758 m -0.0395,1.30346 c 2.05393,0 2.86365,2.05393 2.86365,3.67337 0,2.15268 -1.24421,3.71287 -2.90315,3.71287 -1.69844,0 -2.90315,-1.57994 -2.90315,-3.67337 0,-1.81694 0.88872,-3.71287 2.94265,-3.71287"
         style="font-variant:normal;font-stretch:normal;fill:#000000;font-family:Myriad Pro;-inkscape-font-specification:Myriad Pro"
         id="path4129"
         inkscape:connector-curvature="0" />
      <path
         d="m 510.86101,695.41297 1.73794,0 0,-14.02202 -1.73794,0 0,14.02202"
         style="font-variant:normal;font-stretch:normal;fill:#000000;font-family:Myriad Pro;-inkscape-font-specification:Myriad Pro"
         id="path4131"
         inkscape:connector-curvature="0" />
      <path
         d="m 515.44937,697.72364 c 0.55298,-0.92822 1.42195,-3.1204 1.87619,-4.79909 l -1.93543,0.19749 c -0.21725,1.4417 -0.75048,3.55488 -1.16521,4.72009 l 1.22445,-0.11849"
         style="font-variant:normal;font-stretch:normal;fill:#000000;font-family:Myriad Pro;-inkscape-font-specification:Myriad Pro"
         id="path4133"
         inkscape:connector-curvature="0" />
      <path
         d="m 523.68329,682.10193 0,13.31104 1.71819,0 0,-13.31104 -1.71819,0"
         style="font-variant:normal;font-stretch:normal;fill:#000000;font-family:Myriad Pro;-inkscape-font-specification:Myriad Pro"
         id="path4135"
         inkscape:connector-curvature="0" />
      <path
         d="m 528.38919,695.41297 1.7182,0 0,-5.33232 c 0.39498,0.0987 0.86897,0.1185 1.38245,0.1185 1.67869,0 3.15989,-0.49374 4.06836,-1.46145 0.67147,-0.69123 1.02696,-1.6392 1.02696,-2.84391 0,-1.18495 -0.43448,-2.15267 -1.16521,-2.78465 -0.78997,-0.71097 -2.03418,-1.10596 -3.73262,-1.10596 -1.38245,0 -2.46866,0.1185 -3.29814,0.25674 l 0,13.15305 m 1.7182,-11.90884 c 0.29623,-0.079 0.86897,-0.13825 1.61944,-0.13825 1.89593,0 3.14014,0.84922 3.14014,2.60691 0,1.83669 -1.26396,2.8439 -3.33763,2.8439 -0.57273,0 -1.04672,-0.0395 -1.42195,-0.13824 l 0,-5.17432"
         style="font-variant:normal;font-stretch:normal;fill:#000000;font-family:Myriad Pro;-inkscape-font-specification:Myriad Pro"
         id="path4137"
         inkscape:connector-curvature="0" />
      <path
         d="m 537.7158,685.8543 3.63388,9.55867 1.65894,0 3.75237,-9.55867 -1.81694,0 -1.85643,5.37181 c -0.31599,0.86897 -0.59248,1.65894 -0.80972,2.44892 l -0.0593,0 c -0.19749,-0.78998 -0.45424,-1.57995 -0.77023,-2.44892 l -1.87618,-5.37181 -1.85644,0"
         style="font-variant:normal;font-stretch:normal;fill:#000000;font-family:Myriad Pro;-inkscape-font-specification:Myriad Pro"
         id="path4139"
         inkscape:connector-curvature="0" />
      <path
         d="m 555.1637,682.37842 c -0.31599,0 -0.75047,0.0198 -1.26396,0.0987 -1.61944,0.1975 -3.04139,0.84922 -4.10785,1.89594 -1.26396,1.26395 -2.17243,3.25864 -2.17243,5.78655 0,3.33763 1.79719,5.47056 4.54234,5.47056 2.66616,0 4.26586,-2.17243 4.26586,-4.5226 0,-2.50816 -1.5997,-4.14735 -3.87087,-4.14735 -1.42195,0 -2.48841,0.67148 -3.10064,1.4812 l -0.0593,0 c 0.29624,-2.11318 1.73794,-4.10786 4.46335,-4.5621 0.49373,-0.079 0.94796,-0.0987 1.30345,-0.079 l 0,-1.42195 m -3.0019,11.90883 c -1.81693,0 -2.78465,-1.56019 -2.82415,-3.67337 0,-0.31599 0.079,-0.57273 0.1975,-0.77022 0.47398,-0.92822 1.4417,-1.57995 2.48841,-1.57995 1.59969,0 2.64641,1.10597 2.64641,2.94265 0,1.83669 -1.00722,3.08089 -2.48842,3.08089 l -0.0198,0"
         style="font-variant:normal;font-stretch:normal;fill:#000000;font-family:Myriad Pro;-inkscape-font-specification:Myriad Pro"
         id="path4141"
         inkscape:connector-curvature="0" />
      <path
         d="m 559.28483,695.63021 c 0.73072,0 1.18496,-0.53323 1.18496,-1.24421 0,-0.73072 -0.47399,-1.24421 -1.16521,-1.24421 -0.69123,0 -1.18496,0.51349 -1.18496,1.24421 0,0.71098 0.47398,1.24421 1.14546,1.24421 l 0.0198,0"
         style="font-variant:normal;font-stretch:normal;fill:#000000;font-family:Myriad Pro;-inkscape-font-specification:Myriad Pro"
         id="path4143"
         inkscape:connector-curvature="0" />
    </g>
    <g
       id="g3958"
       transform="matrix(0.99195056,0,0,0.99195056,73.144269,2.8992818)">
      <g
         style="font-size:48.89840317px;font-style:normal;font-weight:normal;line-height:125%;letter-spacing:0px;word-spacing:0px;fill:#000000;fill-opacity:1;stroke:none;font-family:Sans"
         id="text3883">
        <path
           d="m 350.58417,369.91526 c -1.46695,0.58678 -3.96078,1.07576 -6.2101,1.07576 -6.65018,0 -10.56206,-4.15637 -10.56206,-10.75764 0,-7.33476 4.59646,-10.90435 10.51316,-10.90435 2.64051,0 4.74315,0.58678 6.259,1.22246 l 1.51585,-5.91671 c -1.32026,-0.68457 -4.25417,-1.46695 -8.11714,-1.46695 -9.97526,0 -17.99461,6.25901 -17.99461,17.50563 0,9.38848 5.86782,16.52766 17.26114,16.52766 4.00966,0 7.09027,-0.78237 8.45942,-1.46695 l -1.12466,-5.81891"
           style="font-variant:normal;font-weight:bold;font-stretch:normal;fill:#000000;font-family:Myriad Pro;-inkscape-font-specification:Myriad Pro Bold"
           id="path4171"
           inkscape:connector-curvature="0" />
        <path
           d="m 374.23639,368.20381 2.54272,8.45943 8.01934,0 -10.21977,-32.95753 -9.77968,0 -10.07307,32.95753 7.72595,0 2.34712,-8.45943 9.43739,0 m -8.36162,-5.57441 1.95593,-6.99247 c 0.53789,-1.90704 1.02687,-4.40086 1.51585,-6.3568 l 0.0978,0 c 0.48898,1.95594 1.07577,4.40086 1.66255,6.3568 l 2.05373,6.99247 -7.28586,0"
           style="font-variant:normal;font-weight:bold;font-stretch:normal;fill:#000000;font-family:Myriad Pro;-inkscape-font-specification:Myriad Pro Bold"
           id="path4173"
           inkscape:connector-curvature="0" />
        <path
           d="m 387.45119,343.70571 0,18.3858 c 0,10.51315 4.88985,15.10961 13.20257,15.10961 8.60611,0 13.74045,-4.84095 13.74045,-15.01181 l 0,-18.4836 -7.43255,0 0,18.97259 c 0,5.8189 -2.15154,8.55722 -6.06341,8.55722 -3.81407,0 -5.9656,-2.88502 -5.9656,-8.55722 l 0,-18.97259 -7.48146,0"
           style="font-variant:normal;font-weight:bold;font-stretch:normal;fill:#000000;font-family:Myriad Pro;-inkscape-font-specification:Myriad Pro Bold"
           id="path4175"
           inkscape:connector-curvature="0" />
        <path
           d="m 427.18802,376.66324 7.48146,0 0,-26.69853 8.9973,0 0,-6.259 -25.32937,0 0,6.259 8.85061,0 0,26.69853"
           style="font-variant:normal;font-weight:bold;font-stretch:normal;fill:#000000;font-family:Myriad Pro;-inkscape-font-specification:Myriad Pro Bold"
           id="path4177"
           inkscape:connector-curvature="0" />
        <path
           d="m 447.66805,343.70571 0,32.95753 7.48146,0 0,-32.95753 -7.48146,0"
           style="font-variant:normal;font-weight:bold;font-stretch:normal;fill:#000000;font-family:Myriad Pro;-inkscape-font-specification:Myriad Pro Bold"
           id="path4179"
           inkscape:connector-curvature="0" />
        <path
           d="m 476.13457,343.16783 c -9.73078,0 -16.03868,7.38367 -16.03868,17.26114 0,9.38848 5.72112,16.77215 15.50079,16.77215 9.63298,0 16.18537,-6.5524 16.18537,-17.35893 0,-9.0951 -5.52553,-16.67436 -15.64748,-16.67436 m -0.1956,5.91671 c 5.13433,0 7.97044,5.08544 7.97044,11.00214 0,6.40568 -2.88501,11.19773 -7.92154,11.19773 -4.98763,0 -8.01934,-4.54755 -8.01934,-11.00214 0,-6.40568 2.93391,-11.19773 7.97044,-11.19773"
           style="font-variant:normal;font-weight:bold;font-stretch:normal;fill:#000000;font-family:Myriad Pro;-inkscape-font-specification:Myriad Pro Bold"
           id="path4181"
           inkscape:connector-curvature="0" />
        <path
           d="m 503.50773,376.66324 0,-9.92638 c 0,-5.37882 -0.0978,-10.02417 -0.29339,-14.37613 l 0.1467,-0.0489 c 1.61364,3.86297 3.76518,8.11714 5.72111,11.63782 l 7.04137,12.71359 7.82375,0 0,-32.95753 -6.84578,0 0,9.58409 c 0,4.98763 0.14669,9.4374 0.63568,13.78935 l -0.1467,0 c -1.46695,-3.71627 -3.42289,-7.82375 -5.37882,-11.29553 l -6.84578,-12.07791 -8.70391,0 0,32.95753 6.84577,0"
           style="font-variant:normal;font-weight:bold;font-stretch:normal;fill:#000000;font-family:Myriad Pro;-inkscape-font-specification:Myriad Pro Bold"
           id="path4183"
           inkscape:connector-curvature="0" />
      </g>
      <path
         inkscape:connector-curvature="0"
         id="path3887"
         d="m 295.7101,340.48661 -22.75,39.39574 45.5,0 -22.75,-39.39574 z m -2.20636,10.63955 4.43723,0 0,7.6487 -1.20124,8.94801 -2.05926,0 -1.17673,-8.94801 0,-7.6487 z m 0,20.12688 4.43723,0 0,4.26563 -4.43723,0 0,-4.26563 z"
         style="opacity:0.98999999;fill:#000000;fill-opacity:1;stroke:#ff0000;stroke-width:0;stroke-miterlimit:4;stroke-opacity:1" />
    </g>
    <g
       transform="matrix(0.66213128,0,0,-0.66213128,273.35844,680.72688)"
       inkscape:label="ink_ext_XXXXXX"
       id="g3937"
       style="fill:#000000">
      <g
         transform="scale(0.1,0.1)"
         id="g3939"
         style="fill:#000000">
        <g
           id="g3941"
           style="fill:#000000">
          <g
             clip-path="url(#clipPath3945)"
             id="g3943"
             style="fill:#000000">
            <path
               id="path3949"
               style="fill:#000000;fill-opacity:1;fill-rule:evenodd;stroke:none"
               d="m 3400.84,2247.25 c -59.61,3.25 -113.93,27.32 -155.7,64.96 l 155.7,155.69 0,-220.65 z m -770.45,626.19 61.64,-13.39 -2.67,35.4 -1.47,57.94 10.02,69.68 -1.82,43.38 -14.96,46.73 -21.6,28 -29.88,16.43 -30.45,7.66 16.6,-23.39 19.06,-50.35 5.96,-31.41 0,-35.03 -3.02,-68.67 -5.94,-72.56 -1.47,-10.42 z m 66.11,-41.57 -69.78,15.2 -4.56,-32.84 0,-34.72 3.35,-15.84 15.31,-25.25 13.11,-15.79 18.65,-12.23 34.69,-16.1 31.83,-16.43 5.86,-7.02 3.75,-30.03 21.99,-81.7 25.41,-70.53 25,-52.63 19.79,-29.78 20.27,-22.54 10.67,-13.33 2.59,-16.05 -3.74,-16.43 3.74,-10.43 8.25,-4.14 8.63,3.78 5.94,4.36 19.04,4.94 15.31,-2.97 16.47,-15.62 8.14,-19.89 8.61,-24.24 6.37,-34.39 0,-19.31 -7.83,-9.34 -77.34,38.43 -10.76,14.51 -8.95,16.42 -11.97,12.06 -14.91,7.03 -17.18,4.83 -13.11,7.87 -10.76,12.97 -10.59,28.01 -26.04,61.3 -31.36,63.78 -26.46,48.9 -18.32,29.18 -17.19,21.33 -29.49,26.88 -26.06,20.84 -28.83,28.02 -53.34,47.36 -44.37,28.72 -31.58,25.61 -4.65,-18.45 0,-39.97 5.2,-40.03 16.77,-39.86 4.65,-29.81 1.39,-12.35 -3.42,-9.72 -31.35,-27.65 -101.88,-86.16 -39.17,-43.8 -25.73,-31.25 -14.99,-25.73 -8.56,-13.88 -12.29,-7.13 -11.64,-1.44 -3.03,-4.45 6.06,-10.42 9.26,-11.54 3.43,-15.84 -1.89,-13.28 -1.86,-11.59 -37.71,-26.21 -27.6,-13.66 -21.33,-5.74 -14.17,3.72 0,8.18 13.84,60.87 5.22,10.09 11.23,22.34 7.83,16.1 0.31,16.74 3.42,25.15 12.29,17.11 24.68,20.46 30.94,27.7 18.24,16.85 33.15,37.27 38.11,46.67 18.74,26.79 5.94,34.02 -8.14,23.6 -21.66,51.13 -16.46,39.93 -11.55,31.78 -13.85,61.57 -2.03,67.29 -62.87,-28.23 -69.47,-24.93 -88.02,-25.09 -107.59,-31.72 -52.93,-9.32 -53.99,-0.15 -7.57,-81.56 -6.37,-58.2 -1.93,-81.38 6.83,-36.52 13.85,-23.59 20.67,-17.92 35.58,-26.9 36.9,-24.24 17.28,-16.74 4.06,-12.82 2.93,-16.04 10.84,-8.52 11.96,1.18 7.82,7.34 16.78,8.03 11.98,-2.4 19.76,-14.15 23.96,-26.83 17.51,-39.88 3,-15.36 -6.34,-6 -18.73,-0.31 -42.59,5.15 -25.33,8.5 -22.38,10.1 -24.2,15.37 -14.98,10.85 -20.52,20.08 -21.02,23.92 -39.82,41.03 -51.88,43.6 -25.41,22.22 -11.14,16.21 -7.08,23.23 -3.34,39.18 c -5.16,25.78 -3.5,19.56 -6.77,39.92 l -2.28,18.44 -7.48,48.53 -8.24,56.29 -9.7,72.88 -26.86,10.11 -1.15,-12.12 -15.94,-11.21 -62.71,-50.35 c -26.62,-14.14 -51.47,-27.48 -76.96,-43.33 l -25.33,-19.72 -33.62,-26.47 -19.8,-18.28 -16.77,-24.77 -15.32,-31.27 -18.3,-46.24 -7.83,-43.32 0,-31.79 -4.48,-29.82 -5.21,-21.58 -8.22,-7.54 -5.62,-12.45 3.42,-16.68 7.81,-5.59 6.36,-27.32 1.14,-17.91 -13.85,-21.21 -28.01,-22.76 -28.77,-13.91 -23.51,-5.81 -11.56,4.05 1.87,16.79 11.23,57.78 9.28,13.92 7.5,18.98 0.97,19.35 -0.23,27.7 4.45,30.72 24.3,71.93 9.61,38.42 17.99,80.33 5.62,28.06 11.56,15.9 16.45,16.42 10.43,10.1 13.58,17.17 69.31,105.36 22.38,31.58 5.96,10.89 0,7.5 -56.76,101.53 -3.34,21.58 3.34,34.66 9.38,41.15 0,28.32 -34.71,91.17 -29.56,98.81 c -22.96,-26.36 -60.26,-50.28 -112.94,-36.94 -21.17,3.24 -36.97,12.22 -58.22,15.68 l -47.07,23.44 -16.94,29.66 -11.07,-3.4 -6.45,0.75 -11.56,3.35 -16.37,8.55 -27.28,8.61 -3.02,9.79 -7.8,0.63 -6.37,11.59 -1.87,19.09 0,9.72 3.02,15.21 1.15,16.95 5.2,14.4 16.04,10.21 19.79,9.2 63.76,57.93 29.88,31 1.16,15.31 8.22,8.98 17.52,9.3 42.99,30.62 31.66,20.84 -3.32,6.01 -22,31.79 -9.35,18.6 0,19.4 5.94,3.03 15.54,-12.71 16.55,-16.14 22.05,-9.26 -6.74,22.48 -2.93,21.96 6.01,9.57 13.04,0 12.61,-15.9 19.06,-25.47 17.91,-15.56 12.71,-15.85 12.7,-18.86 256.45,-245.33 90.54,-51.29 c 47.56,2.03 55.13,-16.1 78.19,-22.01 l 452.29,8.35 30.11,-12.7 50.98,-11.91 69.8,-28.34 40.64,-21.57 37.72,-7.98 26.52,0 27.93,4.78 51.56,0 40.22,-13.34 48.3,-28.01 29.81,-25.04 29.47,-48.1 14.99,-58.26 11.88,-104.62 3.43,-62.94 6.34,-44.54 -2.19,-13.51 401.21,-85.84 c 42.19,28.55 92.03,46.41 145.78,49.75 l -3.9,905.85 -191.78,0 0,113.49 1437.23,0 0,-1061.22 c 88.28,-50.66 147.89,-145.76 147.89,-254.41 0,-161.5 -131.76,-293 -293.17,-293 -161.39,0 -293,131.5 -293,293 0,74.2 27.85,142.14 73.77,193.97 l -636.31,0 c 43.8,-51.3 70.35,-117.74 70.35,-190.25 0,-161.39 -131.6,-293 -292.99,-293 -161.33,0 -293.01,131.61 -293.01,293 0,88.77 39.74,168.35 102.28,222.14 l -368.49,74.58 14.89,-34.34 19.88,-38.49 23.12,-48.53 11.56,-44.76 -3.41,-44.74 -17.91,-28.33 -13.36,-6.87 -11.56,-10.11 -26.88,-36.08 -4.88,34.6 -20.2,49.7 -29.47,30.35 -28.34,34.67 -6.35,38.36 -3.36,39.94 -13.51,35.19 -28.26,41.35 -18.31,8.19 -2.95,14.4 z m -1277.46,465.29 c -33.38,-19.79 -70.43,-31.06 -113.67,-27.33 l -52.6,10.09 -28.1,19.46 -14.59,20.2 9.71,14.14 52.59,13.02 15.73,2.66 11.56,4.84 42.19,-4.09 26.13,3.4 20.12,6.69 6.75,2.94 4.08,-6.6 15.72,-47.41 c 2.68,-7.02 1.71,-5.06 4.38,-12.01 z M 4479.02,2243.32 c -59.6,3.4 -113.84,27.53 -155.7,65.17 l 155.7,155.63 0,-220.8 z m -174.25,83.72 c -37.64,41.89 -61.74,96.11 -64.98,155.71 l 220.68,0 -155.7,-155.71 z m -65.16,181.91 c 2.95,60.11 26.71,114.65 64.18,156.64 l 156.68,-156.64 -220.86,0 z m 82.73,175.41 c 2.29,2.28 4.9,4.46 7.35,6.54 l 149.33,0 0,-163.19 -156.68,156.65 z m 316.14,20.67 c 8.63,-5.95 16.94,-12.65 24.6,-19.67 l -157.67,-157.65 0,163.19 133.07,0 0,14.13 z m 43.32,-38.27 c 38.11,-42.15 62.15,-97.22 65.15,-157.81 l -222.97,0 157.82,157.81 z m 65,-184.01 c -3.26,-60.13 -27.85,-114.83 -65.97,-156.88 l -156.85,156.88 222.82,0 z m -84.71,-175.33 c -42.18,-37.58 -96.74,-61.34 -156.68,-64.1 l 0,220.8 156.68,-156.7 z m -1352.14,424.36 87.32,-17.28 -0.16,39.6 c -30.88,-2.28 -60.37,-9.94 -87.16,-22.32 z m 273.15,-40.88 -156.05,0 0,-159.47 157.83,157.87 c -0.64,0.43 -1.38,0.96 -1.78,1.6 z m -182.26,0 -7.81,0 -117.01,22.17 c -11.33,-7.5 -22.02,-15.84 -31.94,-24.78 l 156.76,-156.86 0,159.47 z m -174.26,-360.09 c -37.71,41.9 -61.76,96.06 -65.08,155.71 l 220.77,0 -155.69,-155.71 z m -65.15,182.06 c 2.77,59.91 26.54,114.45 64.08,156.65 l 156.76,-156.65 -220.84,0 z m 442.03,157.67 c 38.1,-42.21 62.38,-97.23 65.13,-157.67 l -222.96,0 157.83,157.67 z m 65.13,-184.02 c -3.41,-60.13 -27.85,-114.88 -66.12,-156.72 l -156.84,156.72 222.96,0 z m -84.86,-175.32 c -42.01,-37.43 -96.74,-61.34 -156.68,-64.11 l 0,220.81 156.68,-156.7 z m -154.08,1387.76 325.1,0 0,-721.29 -325.1,-110.93 0,832.22"
               inkscape:connector-curvature="0" />
          </g>
        </g>
      </g>
    </g>
  </g>
</svg>
