<?xml version="1.0" encoding="UTF-8" standalone="no"?>
<!-- Created with Inkscape (http://www.inkscape.org/) -->

<svg
   xmlns:dc="http://purl.org/dc/elements/1.1/"
   xmlns:cc="http://creativecommons.org/ns#"
   xmlns:rdf="http://www.w3.org/1999/02/22-rdf-syntax-ns#"
   xmlns:svg="http://www.w3.org/2000/svg"
   xmlns="http://www.w3.org/2000/svg"
   xmlns:sodipodi="http://sodipodi.sourceforge.net/DTD/sodipodi-0.dtd"
   xmlns:inkscape="http://www.inkscape.org/namespaces/inkscape"
   width="744.0625"
   height="246.125"
   id="svg1"
   sodipodi:version="0.32"
   inkscape:version="0.48.4 r9939"
   sodipodi:docname="bubbles.png"
   version="1.1">
  <defs
     id="defs3">
    <inkscape:perspective
       sodipodi:type="inkscape:persp3d"
       inkscape:vp_x="0 : 526.18109 : 1"
       inkscape:vp_y="0 : 1000 : 0"
       inkscape:vp_z="744.09448 : 526.18109 : 1"
       inkscape:persp3d-origin="372.04724 : 350.78739 : 1"
       id="perspective2447" />
    <inkscape:perspective
       id="perspective10"
       inkscape:persp3d-origin="372.04724 : 350.78739 : 1"
       inkscape:vp_z="744.09448 : 526.18109 : 1"
       inkscape:vp_y="0 : 1000 : 0"
       inkscape:vp_x="0 : 526.18109 : 1"
       sodipodi:type="inkscape:persp3d" />
    <inkscape:perspective
       id="perspective2447-6"
       inkscape:persp3d-origin="372.04724 : 350.78739 : 1"
       inkscape:vp_z="744.09448 : 526.18109 : 1"
       inkscape:vp_y="0 : 1000 : 0"
       inkscape:vp_x="0 : 526.18109 : 1"
       sodipodi:type="inkscape:persp3d" />
  </defs>
  <sodipodi:namedview
     id="base"
     pagecolor="#ffffff"
     bordercolor="#666666"
     borderopacity="1.0"
     inkscape:pageopacity="0.0"
     inkscape:pageshadow="2"
     inkscape:zoom="1"
     inkscape:cx="327.61914"
     inkscape:cy="29.812554"
     inkscape:current-layer="svg1"
     showgrid="false"
     inkscape:grid-bbox="true"
     inkscape:grid-points="true"
     inkscape:guide-bbox="true"
     inkscape:guide-points="true"
     guidetolerance="2.0000000px"
     inkscape:window-width="1438"
     inkscape:window-height="884"
     inkscape:window-x="0"
     inkscape:window-y="14"
     inkscape:window-maximized="0"
     fit-margin-top="0"
     fit-margin-left="0"
     fit-margin-right="0"
     fit-margin-bottom="0">
    <inkscape:grid
       id="GridFromPre046Settings"
       type="xygrid"
       originx="1.15pt"
       originy="1.4599976pt"
       spacingx="1.0000000pt"
       spacingy="1.0000000pt"
       color="#3f3fff"
       empcolor="#3f3fff"
       opacity="0.15"
       empopacity="0.38"
       empspacing="5"
       units="pt"
       visible="true"
       enabled="true"
       snapvisiblegridlinesonly="true" />
  </sodipodi:namedview>
  <metadata
     id="metadata4">
    <rdf:RDF>
      <cc:Work
         rdf:about="">
        <dc:format>image/svg+xml</dc:format>
        <dc:type
           rdf:resource="http://purl.org/dc/dcmitype/StillImage" />
        <dc:title></dc:title>
      </cc:Work>
    </rdf:RDF>
  </metadata>
  <g
     inkscape:label="Layer 1"
     inkscape:groupmode="layer"
     id="layer1"
     transform="translate(1.4375,0.6875)" />
  <rect
     style="fill:#ff6600;fill-opacity:1;stroke:#ff6600;stroke-width:7.11335373;stroke-miterlimit:4;stroke-opacity:1;stroke-dasharray:none"
     id="rect3871"
     width="297.66403"
     height="239.01692"
     x="270.99289"
     y="3.5669672" />
  <path
     inkscape:connector-curvature="0"
     d="m 6.4375,124.3 75,-118.7499969 c 0,0 68.75,0 68.75,0 0,0 -68.75,118.7499969 -68.75,118.7499969 0,0 68.75,116.25 68.75,116.25 l -75,0 -68.75,-116.25 z m 87.5,0 68.75,-118.7499969 c 0,0 75,0 75,0 0,0 -68.75,118.7499969 -68.75,118.7499969 l 68.75,116.25 -75,0 -68.75,-116.25 z m 87.5,0 68.75,-118.7499969 c 0,0 75,0 75,0 0,0 -67.5,118.7499969 -67.5,118.7499969 l 67.5,116.25 -75,0 -68.75,-116.25 z M 425.1875,5.5500031 c 0,0 68.75,0 68.75,0 l -87.5,234.9999969 -68.75,0 87.5,-234.9999969 z M 575.1875,124.3 c 0,0 -68.75,-118.7499969 -68.75,-118.7499969 0,0 75,0 75,0 0,0 68.75,118.7499969 68.75,118.7499969 l -68.75,116.25 -75,0 c 0,0 68.75,-116.25 68.75,-116.25 z m 18.75,116.25 c 0,0 68.75,-116.25 68.75,-116.25 0,0 -68.75,-118.7499969 -68.75,-118.7499969 l 75,0 68.75,118.7499969 -68.75,116.25 c 0,0 -75,0 -75,0 z"
     id="path1103"
     sodipodi:nodetypes="cccccccccccccccccccccccccccccccccccccccc"
     style="fill:#000000;fill-opacity:1;stroke:#ff6600;stroke-width:11;stroke-miterlimit:4;stroke-opacity:1;stroke-dasharray:none" />
  <g
     id="g5588"
     transform="translate(1.4375,0.6875)">
    <path
       transform="matrix(1.1088619,0,0,1.1088619,-40.302965,-231.491)"
       d="m 200,318.61249 c 0,31.06601 -25.18398,56.25 -56.25,56.25 -31.06602,0 -56.25,-25.18399 -56.25,-56.25 0,-31.06602 25.18398,-56.25 56.25,-56.25 31.06602,0 56.25,25.18398 56.25,56.25 z"
       sodipodi:ry="56.25"
       sodipodi:rx="56.25"
       sodipodi:cy="318.61249"
       sodipodi:cx="143.75"
       id="path3759"
       style="fill:#000000;fill-opacity:1;stroke:#ff6600;stroke-width:11;stroke-miterlimit:4;stroke-opacity:1;stroke-dasharray:none"
       sodipodi:type="arc" />
    <path
       sodipodi:type="arc"
       style="fill:#000000;fill-opacity:1;stroke:#ff6600;stroke-width:11;stroke-miterlimit:4;stroke-opacity:1;stroke-dasharray:none"
       id="path3761"
       sodipodi:cx="143.75"
       sodipodi:cy="318.61249"
       sodipodi:rx="56.25"
       sodipodi:ry="56.25"
       d="m 200,318.61249 c 0,31.06601 -25.18398,56.25 -56.25,56.25 -31.06602,0 -56.25,-25.18399 -56.25,-56.25 0,-31.06602 25.18398,-56.25 56.25,-56.25 31.06602,0 56.25,25.18398 56.25,56.25 z"
       transform="matrix(1.1088619,0,0,1.1088619,84.443994,-231.491)" />
    <path
       transform="matrix(1.1088619,0,0,1.1088619,209.19097,-231.491)"
       d="m 200,318.61249 c 0,31.06601 -25.18398,56.25 -56.25,56.25 -31.06602,0 -56.25,-25.18399 -56.25,-56.25 0,-31.06602 25.18398,-56.25 56.25,-56.25 31.06602,0 56.25,25.18398 56.25,56.25 z"
       sodipodi:ry="56.25"
       sodipodi:rx="56.25"
       sodipodi:cy="318.61249"
       sodipodi:cx="143.75"
       id="path3763"
       style="fill:#000000;fill-opacity:1;stroke:#ff6600;stroke-width:11;stroke-miterlimit:4;stroke-opacity:1;stroke-dasharray:none"
       sodipodi:type="arc" />
    <g
       style="fill:#ff6600"
       transform="matrix(0.12162999,0,0,0.12162999,73.906498,57.753093)"
       inkscape:label="Layer 1"
       id="layer1-2">
      <path
         inkscape:connector-curvature="0"
         style="fill:#ff6600;fill-opacity:1;stroke:none"
         d="M 363.83244,666.94213 183.06775,802.047 225.5365,669.51575 l -19.5,0 -58.78125,183.40625 216.53125,-161.875 220.25,161.1875 -60.625,-182.71875 -19.59375,0 L 547.599,801.4845 363.83244,666.94213 z m 0.76656,-493.05138 -80.9375,259.46875 -272.031243,0.34375 41.34375,29.75 32.5625,0 -15.6875,-11.28125 227.062493,-0.28125 67.53125,-216.5625 70.40625,216.49824 224.875,-0.59199 -84.40625,62.0625 33.3125,0 109.75,-80.71875 -269.40625,0.99824 -84.375,-259.68574 z"
         id="path3555"
         sodipodi:nodetypes="cccccccccccccccccccccccccc" />
      <rect
         style="fill:#ff6600;fill-opacity:1;stroke:none"
         id="rect2461"
         width="24.243662"
         height="25.75889"
         x="68.690369"
         y="474.80746"
         ry="4.5456762"
         rx="4.5456762" />
      <rect
         style="fill:#ff6600;fill-opacity:1;stroke:none"
         id="rect3233"
         width="24.243662"
         height="25.75889"
         x="119.70308"
         y="474.80746"
         ry="4.5456762"
         rx="4.5456762" />
      <rect
         style="fill:#ff6600;fill-opacity:1;stroke:none"
         id="rect3235"
         width="24.243662"
         height="25.75889"
         x="146.80885"
         y="474.80746"
         ry="4.5456762"
         rx="4.5456762" />
      <rect
         style="fill:#ff6600;fill-opacity:1;stroke:none"
         id="rect3237"
         width="24.243662"
         height="25.75889"
         x="173.9146"
         y="474.80746"
         ry="4.5456762"
         rx="4.5456762" />
      <rect
         style="fill:#ff6600;fill-opacity:1;stroke:none"
         id="rect3239"
         width="24.243662"
         height="25.75889"
         x="201.02036"
         y="474.80746"
         ry="4.5456762"
         rx="4.5456762" />
      <rect
         style="fill:#ff6600;fill-opacity:1;stroke:none"
         id="rect3241"
         width="24.243662"
         height="25.75889"
         x="236.62825"
         y="474.80746"
         ry="4.5456762"
         rx="4.5456762" />
      <rect
         style="fill:#ff6600;fill-opacity:1;stroke:none"
         id="rect3243"
         width="24.243662"
         height="25.75889"
         x="263.73401"
         y="474.80746"
         ry="4.5456762"
         rx="4.5456762" />
      <rect
         style="fill:#ff6600;fill-opacity:1;stroke:none"
         id="rect3245"
         width="24.243662"
         height="25.75889"
         x="290.83975"
         y="474.80746"
         ry="4.5456762"
         rx="4.5456762" />
      <rect
         style="fill:#ff6600;fill-opacity:1;stroke:none"
         id="rect3247"
         width="24.243662"
         height="25.75889"
         x="317.9455"
         y="474.80746"
         ry="4.5456762"
         rx="4.5456762" />
      <rect
         style="fill:#ff6600;fill-opacity:1;stroke:none"
         id="rect3249"
         width="24.243662"
         height="25.75889"
         x="354.8161"
         y="474.80746"
         ry="4.5456762"
         rx="4.5456762" />
      <rect
         style="fill:#ff6600;fill-opacity:1;stroke:none"
         id="rect3251"
         width="24.243662"
         height="25.75889"
         x="381.92184"
         y="474.80746"
         ry="4.5456762"
         rx="4.5456762" />
      <rect
         style="fill:#ff6600;fill-opacity:1;stroke:none"
         id="rect3253"
         width="24.243662"
         height="25.75889"
         x="409.02759"
         y="474.80746"
         ry="4.5456762"
         rx="4.5456762" />
      <rect
         style="fill:#ff6600;fill-opacity:1;stroke:none"
         id="rect3255"
         width="24.243662"
         height="25.75889"
         x="436.13336"
         y="474.80746"
         ry="4.5456762"
         rx="4.5456762" />
      <rect
         style="fill:#ff6600;fill-opacity:1;stroke:none"
         id="rect3257"
         width="24.243662"
         height="25.75889"
         x="472.49884"
         y="474.80746"
         ry="4.5456762"
         rx="4.5456762" />
      <rect
         style="fill:#ff6600;fill-opacity:1;stroke:none"
         id="rect3259"
         width="24.243662"
         height="25.75889"
         x="499.60461"
         y="474.80746"
         ry="4.5456762"
         rx="4.5456762" />
      <rect
         style="fill:#ff6600;fill-opacity:1;stroke:none"
         id="rect3261"
         width="24.243662"
         height="25.75889"
         x="526.71039"
         y="474.80746"
         ry="4.5456762"
         rx="4.5456762" />
      <rect
         style="fill:#ff6600;fill-opacity:1;stroke:none"
         id="rect3265"
         width="22.995056"
         height="23.255365"
         x="473.42484"
         y="526.93475"
         ry="4.2782836"
         rx="4.2782836" />
      <rect
         style="fill:#ff6600;fill-opacity:1;stroke:none"
         id="rect3267"
         width="22.995087"
         height="23.255365"
         x="499.13458"
         y="526.93475"
         ry="4.2782836"
         rx="4.2782836" />
      <rect
         style="fill:#ff6600;fill-opacity:1;stroke:none"
         id="rect3269"
         width="22.995056"
         height="23.255365"
         x="524.5918"
         y="526.93475"
         ry="4.2782836"
         rx="4.2782836" />
      <rect
         style="fill:#ff6600;fill-opacity:1;stroke:none"
         id="rect3271"
         width="22.816484"
         height="23.035706"
         x="474.28705"
         y="553.36334"
         ry="4.2782836"
         rx="4.2782836" />
      <rect
         style="fill:#ff6600;fill-opacity:1;stroke:none"
         id="rect3273"
         width="22.816484"
         height="23.035706"
         x="499.9968"
         y="553.36334"
         ry="4.2782836"
         rx="4.2782836" />
      <rect
         style="fill:#ff6600;fill-opacity:1;stroke:none"
         id="rect3275"
         width="22.995056"
         height="23.035706"
         x="525.70654"
         y="553.36334"
         ry="4.2782836"
         rx="4.2782836" />
      <rect
         style="fill:#ff6600;fill-opacity:1;stroke:none"
         id="rect3277"
         width="21.718281"
         height="23.075672"
         x="96.469582"
         y="527.20514"
         ry="4.0721684"
         rx="4.0721684" />
      <rect
         style="fill:#ff6600;fill-opacity:1;stroke:none"
         id="rect3279"
         width="21.718281"
         height="23.075672"
         x="122.60726"
         y="527.2052"
         ry="4.0721684"
         rx="4.0721684" />
      <rect
         style="fill:#ff6600;fill-opacity:1;stroke:none"
         id="rect3281"
         width="21.718281"
         height="23.075672"
         x="148.74496"
         y="527.2052"
         ry="4.0721684"
         rx="4.0721684" />
      <rect
         style="fill:#ff6600;fill-opacity:1;stroke:none"
         id="rect3283"
         width="21.718281"
         height="23.075672"
         x="174.88266"
         y="527.2052"
         ry="4.0721684"
         rx="4.0721684" />
      <rect
         style="fill:#ff6600;fill-opacity:1;stroke:none"
         id="rect3285"
         width="21.718281"
         height="23.075672"
         x="201.02036"
         y="527.2052"
         ry="4.0721684"
         rx="4.0721684" />
      <rect
         style="fill:#ff6600;fill-opacity:1;stroke:none"
         id="rect3287"
         width="21.718281"
         height="23.075672"
         x="227.15805"
         y="527.2052"
         ry="4.0721684"
         rx="4.0721684" />
      <rect
         style="fill:#ff6600;fill-opacity:1;stroke:none"
         id="rect3289"
         width="21.718281"
         height="23.075672"
         x="253.29576"
         y="527.2052"
         ry="4.0721684"
         rx="4.0721684" />
      <rect
         style="fill:#ff6600;fill-opacity:1;stroke:none"
         id="rect3291"
         width="21.718281"
         height="23.075672"
         x="279.43344"
         y="527.2052"
         ry="4.0721684"
         rx="4.0721684" />
      <rect
         style="fill:#ff6600;fill-opacity:1;stroke:none"
         id="rect3293"
         width="21.718281"
         height="23.075672"
         x="305.57114"
         y="527.2052"
         ry="4.0721684"
         rx="4.0721684" />
      <rect
         style="fill:#ff6600;fill-opacity:1;stroke:none"
         id="rect3295"
         width="21.718281"
         height="23.075672"
         x="331.70883"
         y="527.2052"
         ry="4.0721684"
         rx="4.0721684" />
      <rect
         style="fill:#ff6600;fill-opacity:1;stroke:none"
         id="rect3297"
         width="21.718281"
         height="23.075672"
         x="357.84653"
         y="527.2052"
         ry="4.0721684"
         rx="4.0721684" />
      <rect
         style="fill:#ff6600;fill-opacity:1;stroke:none"
         id="rect3299"
         width="21.718281"
         height="23.075672"
         x="383.98422"
         y="527.2052"
         ry="4.0721684"
         rx="4.0721684" />
      <rect
         style="fill:#ff6600;fill-opacity:1;stroke:none"
         id="rect3301"
         width="21.718281"
         height="23.075672"
         x="109.03335"
         y="553.45465"
         ry="4.0721684"
         rx="4.0721684" />
      <rect
         style="fill:#ff6600;fill-opacity:1;stroke:none"
         id="rect3303"
         width="21.718281"
         height="23.075672"
         x="135.17104"
         y="553.37836"
         ry="4.0721684"
         rx="4.0721684" />
      <rect
         style="fill:#ff6600;fill-opacity:1;stroke:none"
         id="rect3305"
         width="21.718281"
         height="23.075672"
         x="161.30873"
         y="553.37836"
         ry="4.0721684"
         rx="4.0721684" />
      <rect
         style="fill:#ff6600;fill-opacity:1;stroke:none"
         id="rect3307"
         width="21.718281"
         height="23.075672"
         x="187.44643"
         y="553.37836"
         ry="4.0721684"
         rx="4.0721684" />
      <rect
         style="fill:#ff6600;fill-opacity:1;stroke:none"
         id="rect3309"
         width="21.718281"
         height="23.075672"
         x="213.58412"
         y="553.37836"
         ry="4.0721684"
         rx="4.0721684" />
      <rect
         style="fill:#ff6600;fill-opacity:1;stroke:none"
         id="rect3311"
         width="21.718281"
         height="23.075672"
         x="239.72182"
         y="553.37836"
         ry="4.0721684"
         rx="4.0721684" />
      <rect
         style="fill:#ff6600;fill-opacity:1;stroke:none"
         id="rect3313"
         width="21.718281"
         height="23.075672"
         x="265.85953"
         y="553.37836"
         ry="4.0721684"
         rx="4.0721684" />
      <rect
         style="fill:#ff6600;fill-opacity:1;stroke:none"
         id="rect3315"
         width="21.718281"
         height="23.075672"
         x="291.99722"
         y="553.37836"
         ry="4.0721684"
         rx="4.0721684" />
      <rect
         style="fill:#ff6600;fill-opacity:1;stroke:none"
         id="rect3317"
         width="21.718281"
         height="23.075672"
         x="318.13492"
         y="553.37836"
         ry="4.0721684"
         rx="4.0721684" />
      <rect
         style="fill:#ff6600;fill-opacity:1;stroke:none"
         id="rect3319"
         width="21.718281"
         height="23.075672"
         x="344.27261"
         y="553.37836"
         ry="4.0721684"
         rx="4.0721684" />
      <rect
         style="fill:#ff6600;fill-opacity:1;stroke:none"
         id="rect3321"
         width="21.718281"
         height="23.075672"
         x="370.41031"
         y="553.37836"
         ry="4.0721684"
         rx="4.0721684" />
      <rect
         style="fill:#ff6600;fill-opacity:1;stroke:none"
         id="rect3323"
         width="21.718281"
         height="23.075672"
         x="396.548"
         y="553.37836"
         ry="4.0721684"
         rx="4.0721684" />
      <rect
         style="fill:#ff6600;fill-opacity:1;stroke:none"
         id="rect3325"
         width="21.718281"
         height="23.075672"
         x="115.09427"
         y="579.70416"
         ry="4.0721684"
         rx="4.0721684" />
      <rect
         style="fill:#ff6600;fill-opacity:1;stroke:none"
         id="rect3327"
         width="21.718281"
         height="23.075672"
         x="141.23195"
         y="579.64233"
         ry="4.0721684"
         rx="4.0721684" />
      <rect
         style="fill:#ff6600;fill-opacity:1;stroke:none"
         id="rect3329"
         width="21.718281"
         height="23.075672"
         x="167.36964"
         y="579.64233"
         ry="4.0721684"
         rx="4.0721684" />
      <rect
         style="fill:#ff6600;fill-opacity:1;stroke:none"
         id="rect3331"
         width="21.718281"
         height="23.075672"
         x="193.50734"
         y="579.64233"
         ry="4.0721684"
         rx="4.0721684" />
      <rect
         style="fill:#ff6600;fill-opacity:1;stroke:none"
         id="rect3333"
         width="21.718281"
         height="23.075672"
         x="219.64502"
         y="579.64233"
         ry="4.0721684"
         rx="4.0721684" />
      <rect
         style="fill:#ff6600;fill-opacity:1;stroke:none"
         id="rect3335"
         width="21.718281"
         height="23.075672"
         x="245.78271"
         y="579.64233"
         ry="4.0721684"
         rx="4.0721684" />
      <rect
         style="fill:#ff6600;fill-opacity:1;stroke:none"
         id="rect3337"
         width="21.718281"
         height="23.075672"
         x="271.92044"
         y="579.64233"
         ry="4.0721684"
         rx="4.0721684" />
      <rect
         style="fill:#ff6600;fill-opacity:1;stroke:none"
         id="rect3339"
         width="21.718281"
         height="23.075672"
         x="298.05814"
         y="579.64233"
         ry="4.0721684"
         rx="4.0721684" />
      <rect
         style="fill:#ff6600;fill-opacity:1;stroke:none"
         id="rect3341"
         width="21.718281"
         height="23.075672"
         x="324.19583"
         y="579.64233"
         ry="4.0721684"
         rx="4.0721684" />
      <rect
         style="fill:#ff6600;fill-opacity:1;stroke:none"
         id="rect3343"
         width="21.718281"
         height="23.075672"
         x="350.33353"
         y="579.64233"
         ry="4.0721684"
         rx="4.0721684" />
      <rect
         style="fill:#ff6600;fill-opacity:1;stroke:none"
         id="rect3345"
         width="21.718281"
         height="23.075672"
         x="376.47122"
         y="579.64233"
         ry="4.0721684"
         rx="4.0721684" />
      <rect
         style="fill:#ff6600;fill-opacity:1;stroke:none"
         id="rect3349"
         width="21.718281"
         height="23.075672"
         x="128.73132"
         y="605.95367"
         ry="4.0721684"
         rx="4.0721684" />
      <rect
         style="fill:#ff6600;fill-opacity:1;stroke:none"
         id="rect3351"
         width="21.718281"
         height="23.075672"
         x="154.869"
         y="605.95367"
         ry="4.0721684"
         rx="4.0721684" />
      <rect
         style="fill:#ff6600;fill-opacity:1;stroke:none"
         id="rect3353"
         width="21.718281"
         height="23.075672"
         x="181.0067"
         y="605.95367"
         ry="4.0721684"
         rx="4.0721684" />
      <rect
         style="fill:#ff6600;fill-opacity:1;stroke:none"
         id="rect3355"
         width="21.718281"
         height="23.075672"
         x="207.14439"
         y="605.95367"
         ry="4.0721684"
         rx="4.0721684" />
      <rect
         style="fill:#ff6600;fill-opacity:1;stroke:none"
         id="rect3357"
         width="21.718281"
         height="23.075672"
         x="233.28209"
         y="605.95367"
         ry="4.0721684"
         rx="4.0721684" />
      <rect
         style="fill:#ff6600;fill-opacity:1;stroke:none"
         id="rect3359"
         width="21.718281"
         height="23.075672"
         x="259.41977"
         y="605.95367"
         ry="4.0721684"
         rx="4.0721684" />
      <rect
         style="fill:#ff6600;fill-opacity:1;stroke:none"
         id="rect3361"
         width="21.718281"
         height="23.075672"
         x="285.5575"
         y="605.95367"
         ry="4.0721684"
         rx="4.0721684" />
      <rect
         style="fill:#ff6600;fill-opacity:1;stroke:none"
         id="rect3363"
         width="21.718281"
         height="23.075672"
         x="311.69519"
         y="605.95367"
         ry="4.0721684"
         rx="4.0721684" />
      <rect
         style="fill:#ff6600;fill-opacity:1;stroke:none"
         id="rect3365"
         width="21.718281"
         height="23.075672"
         x="337.83289"
         y="605.95367"
         ry="4.0721684"
         rx="4.0721684" />
      <rect
         style="fill:#ff6600;fill-opacity:1;stroke:none"
         id="rect3367"
         width="21.718281"
         height="23.075672"
         x="363.97058"
         y="605.95367"
         ry="4.0721684"
         rx="4.0721684" />
      <rect
         style="fill:#ff6600;fill-opacity:1;stroke:none"
         id="rect3373"
         width="22.995062"
         height="24.243662"
         x="565.18036"
         y="526.93481"
         ry="4.2782836"
         rx="4.2782836" />
      <rect
         style="fill:#ff6600;fill-opacity:1;stroke:none"
         id="rect3375"
         width="22.995062"
         height="24.243662"
         x="590.59546"
         y="526.80853"
         ry="4.2782836"
         rx="4.2782836" />
      <rect
         style="fill:#ff6600;fill-opacity:1;stroke:none"
         id="rect3377"
         width="22.995062"
         height="24.243662"
         x="616.01056"
         y="526.80853"
         ry="4.2782836"
         rx="4.2782836" />
      <rect
         style="fill:#ff6600;fill-opacity:1;stroke:none"
         id="rect3379"
         width="22.995062"
         height="24.243662"
         x="565.18036"
         y="552.86292"
         ry="4.2782836"
         rx="4.2782836" />
      <rect
         style="fill:#ff6600;fill-opacity:1;stroke:none"
         id="rect3381"
         width="22.995062"
         height="24.243662"
         x="590.63757"
         y="552.77875"
         ry="4.2782836"
         rx="4.2782836" />
      <rect
         style="fill:#ff6600;fill-opacity:1;stroke:none"
         id="rect3383"
         width="22.995062"
         height="24.243662"
         x="616.09479"
         y="552.77875"
         ry="4.2782836"
         rx="4.2782836" />
      <rect
         style="fill:#ff6600;fill-opacity:1;stroke:none"
         id="rect3385"
         width="22.995062"
         height="24.243662"
         x="565.18036"
         y="578.79102"
         ry="4.2782836"
         rx="4.2782836" />
      <rect
         style="fill:#ff6600;fill-opacity:1;stroke:none"
         id="rect3387"
         width="22.995062"
         height="24.243662"
         x="590.60693"
         y="578.74896"
         ry="4.2782836"
         rx="4.2782836" />
      <rect
         style="fill:#ff6600;fill-opacity:1;stroke:none"
         id="rect3389"
         width="22.995062"
         height="24.243662"
         x="616.03351"
         y="578.74896"
         ry="4.2782836"
         rx="4.2782836" />
      <rect
         style="fill:#ff6600;fill-opacity:1;stroke:none"
         id="rect3391"
         width="22.995062"
         height="24.243662"
         x="565.15747"
         y="604.71918"
         ry="4.2782836"
         rx="4.2782836" />
      <rect
         style="fill:#ff6600;fill-opacity:1;stroke:none"
         id="rect3393"
         width="22.995062"
         height="24.243662"
         x="590.58405"
         y="604.71918"
         ry="4.2782836"
         rx="4.2782836" />
      <rect
         style="fill:#ff6600;fill-opacity:1;stroke:none"
         id="rect3395"
         width="22.995062"
         height="24.243662"
         x="616.01062"
         y="604.71918"
         ry="4.2782836"
         rx="4.2782836" />
      <rect
         style="fill:#ff6600;fill-opacity:1;stroke:none"
         id="rect3397"
         width="22.520977"
         height="23.928574"
         x="642.367"
         y="526.93475"
         ry="4.1857142"
         rx="4.1857142" />
      <rect
         style="fill:#ff6600;fill-opacity:1;stroke:none"
         id="rect3401"
         width="22.995062"
         height="24.243662"
         x="499.88794"
         y="602.73834"
         ry="4.2782836"
         rx="4.2782836" />
      <rect
         style="fill:#ff6600;fill-opacity:1;stroke:none"
         id="rect3403"
         width="22.995062"
         height="24.243662"
         x="499.88794"
         y="630.87604"
         ry="4.2782836"
         rx="4.2782836" />
      <rect
         style="fill:#ff6600;fill-opacity:1;stroke:none"
         id="rect3405"
         width="22.995062"
         height="24.243662"
         x="525.60229"
         y="630.87604"
         ry="4.2782836"
         rx="4.2782836" />
      <rect
         style="fill:#ff6600;fill-opacity:1;stroke:none"
         id="rect3407"
         width="22.995062"
         height="24.243662"
         x="474.17365"
         y="630.87604"
         ry="4.2782836"
         rx="4.2782836" />
      <rect
         style="fill:#ff6600;fill-opacity:1;stroke:none"
         id="rect3409"
         width="22.995064"
         height="23.107233"
         x="69.314667"
         y="527.08289"
         ry="4.2782836"
         rx="4.2782836" />
      <rect
         style="fill:#ff6600;fill-opacity:1;stroke:none"
         id="rect3411"
         width="35.062794"
         height="23.035706"
         x="69.19545"
         y="553.36334"
         ry="4.2782836"
         rx="4.2782836" />
      <rect
         style="fill:#ff6600;fill-opacity:1;stroke:none"
         id="rect3413"
         width="41.42329"
         height="23.035721"
         x="69.19545"
         y="579.70258"
         ry="4.2782836"
         rx="4.2782836" />
      <rect
         style="fill:#ff6600;fill-opacity:1;stroke:none"
         id="rect3415"
         width="54.569508"
         height="23.029411"
         x="69.19545"
         y="605.95258"
         ry="4.2782836"
         rx="4.2782836" />
      <rect
         style="fill:#ff6600;fill-opacity:1;stroke:none"
         id="rect3417"
         width="35.362373"
         height="22.980982"
         x="69.19545"
         y="632.13873"
         ry="4.2782836"
         rx="4.2782836" />
      <rect
         style="fill:#ff6600;fill-opacity:1;stroke:none"
         id="rect3419"
         width="35.116894"
         height="22.980974"
         x="136.48981"
         y="632.13873"
         ry="4.2782836"
         rx="4.2782836" />
      <rect
         style="fill:#ff6600;fill-opacity:1;stroke:none"
         id="rect3421"
         width="35.504673"
         height="22.980974"
         x="355.94547"
         y="632.13873"
         ry="4.2782836"
         rx="4.2782836" />
      <rect
         style="fill:#ff6600;fill-opacity:1;stroke:none"
         id="rect3423"
         width="34.478481"
         height="22.980974"
         x="421.10031"
         y="632.13873"
         ry="4.2782836"
         rx="4.2782836" />
      <rect
         style="fill:#ff6600;fill-opacity:1;stroke:none"
         id="rect3425"
         width="33.183258"
         height="23.090775"
         x="422.52887"
         y="553.36334"
         ry="4.2782836"
         rx="4.2782836" />
      <rect
         style="fill:#ff6600;fill-opacity:1;stroke:none"
         id="rect3427"
         width="53.508842"
         height="23.01543"
         x="402.20325"
         y="579.70258"
         ry="4.2782836"
         rx="4.2782836" />
      <rect
         style="fill:#ff6600;fill-opacity:1;stroke:none"
         id="rect3429"
         width="65.778618"
         height="22.857193"
         x="389.9335"
         y="606.17218"
         ry="4.2782836"
         rx="4.2782836" />
      <rect
         style="fill:#ff6600;fill-opacity:1;stroke:none"
         id="rect3431"
         width="45.728737"
         height="23.19244"
         x="409.98337"
         y="526.9566"
         ry="4.2782836"
         rx="4.2782836" />
      <rect
         style="fill:#ff6600;fill-opacity:1;stroke:none"
         id="rect3433"
         width="48.25769"
         height="22.980974"
         x="565.15747"
         y="632.13873"
         ry="4.2782836"
         rx="4.2782836" />
      <rect
         style="fill:#ff6600;fill-opacity:1;stroke:none"
         id="rect3437"
         width="22.237513"
         height="50.255085"
         x="642.61951"
         y="552.58923"
         ry="4.2782836"
         rx="4.2782836" />
      <rect
         style="fill:#ff6600;fill-opacity:1;stroke:none"
         id="rect3439"
         width="176.03316"
         height="22.980974"
         x="175.88577"
         y="632.13873"
         ry="4.2782836"
         rx="4.2782836" />
      <rect
         style="fill:#ff6600;fill-opacity:1;stroke:none"
         id="rect3441"
         width="21.959351"
         height="50.507618"
         x="642.92865"
         y="604.61206"
         ry="4.2782836"
         rx="4.2782836" />
      <rect
         style="fill:#ff6600;fill-opacity:1;stroke:none"
         id="rect3447"
         width="22.9261"
         height="22.980974"
         x="615.95941"
         y="632.13873"
         ry="4.2782836"
         rx="4.2782836" />
    </g>
    <g
       style="fill:#ff6600"
       transform="matrix(0.11766781,0,0,0.11766781,205.48717,95.353814)"
       id="g4298">
      <path
         inkscape:connector-curvature="0"
         style="fill:#ff6600;stroke:none"
         d="m 294.407,7.95792 c 6.213,1.027 19.117,20.42198 17.554,56.04198 -4.3,2.287 -9.289,0.945 -12.547,0.894 -10.184,-2.682 -0.678,-29.555 -14.953,-39.546 C 263.79,10.8809 119.447,14.4069 45.5808,21.1209 13.592,24.0289 17.478,87.0639 16.8569,120.43 c -0.5169,27.768 0.4448,58.119 11.4189,88.93 9.4468,26.524 44.2989,17.409 75.9712,18.571 56.978,0 160.981,1.883 173.53,-3.125 9.092,-3.629 12.796,-16.972 14.709,-25.575 3.351,-15.069 -0.168,-25.607 11.822,-25.324 6.313,0.149 7.555,5.857 6.592,16.772 -1.001,11.346 -4.393,26.441 -9.128,44.005 -3.421,12.688 -27.012,10.129 -42.628,10.129 C 180.218,242.704 100.45,245.236 24.0554,243.125 1.9155,242.514 1.46946,137.911 0.285625,118.923 -1.10525,96.6069 2.51438,7.01993 21.3615,6.01993 35.3674,5.27692 113.628,0.0309143 159.959,0.0189209 205.016,0.00692749 252.988,1.11093 294.407,7.95792"
         id="path4300" />
      <path
         inkscape:connector-curvature="0"
         style="fill:#ff6600;stroke:none"
         d="m 223.69,24.0759 c 5.487,15.616 -8.019,40.096 12.24,48.537 73.438,12.662 159.117,-14.772 221.582,23.635 16.882,16.4601 29.544,35.4531 37.563,55.7121 l 0,-9.285 c -9.285,-25.746 -28.278,-47.6931 -46.427,-70.0621 5.065,-6.753 10.974,1.266 16.038,3.376 18.571,23.213 37.563,46.8491 44.739,74.7051 1.265,1.688 3.798,5.065 5.908,2.11 l 2.955,-2.954 c -6.331,-29.966 -25.324,-54.4461 -41.362,-80.1921 7.175,-4.643 14.35,3.377 20.259,8.019 12.24,20.259 25.746,40.5181 30.388,64.1531 3.376,2.532 7.597,-2.11 9.285,-5.065 -2.532,-18.571 -8.864,-35.031 -16.461,-50.6471 1.266,-2.11 1.266,-5.065 4.221,-5.065 18.149,9.707 17.727,30.8111 24.057,47.2711 5.909,-0.422 8.863,-18.993 16.46,-8.019 2.532,6.753 -10.129,17.305 2.955,18.149 -6.331,30.388 -39.674,54.024 -68.796,60.777 -15.194,3.376 -35.453,8.018 -46.849,-3.798 2.11,-5.487 9.707,-6.331 15.194,-7.175 33.765,-1.266 65.842,-13.506 86.101,-40.518 l -0.844,-0.844 c -32.077,21.525 -71.75,42.206 -111.424,26.168 -3.376,-0.844 -5.065,-5.487 -2.954,-8.019 0.844,-2.532 -1.688,-3.798 -2.955,-4.221 -67.108,2.954 -137.596,-6.324 -202.593,4.227 -7.13,1.158 -7.934,7.746 -9.284,13.082 -3.414,13.511 5.21,32.647 -2.824,39.846 0,0 -5.936,1.741 -10.256,-0.177 -1.011,-5.609 -4.227,-37.144 2.948,-54.026 9.077,-21.357 89.954,-14.153 113.334,-14.626 42.722,-0.863 92.638,-2.254 132.734,0.701 -11.396,-11.396 -29.122,-11.818 -46.427,-11.396 -54.868,-0.844 -140.604,-0.559 -175.376,-2.466 -51.431,-2.822 -69.842,48.893 -102.341,82.658 l -15.194,0 c 20.259,-28.277 42.097,-60.522 70.062,-85.256 4.509,-3.988 7.645,-4.615 15.194,-6.752 21.025,-5.953 224.959,0.844 224.959,0.844 9.285,2.11 19.415,3.376 28.278,7.174 -5.065,-13.084 -21.525,-16.46 -34.609,-18.147 -73.017,-2.11 -146.877,-0.422 -218.628,-5.065 -19.415,-5.909 -29.544,-29.9661 -44.739,-44.7391 l -32.499,-41.362 16.46,0.844 c 21.103,24.479 35.575,54.506 62.887,73.8601 6.02,4.266 134.602,3.027 202.584,2.954 10.96,-0.012 33.77,7.175 48.542,15.195 2.532,-3.376 -1.688,-6.331 -4.221,-8.863 -30.811,-29.5441 -94.362,-20.3431 -117.328,-20.2641 -40.285,0.14 -88.233,8.522 -121.559,-12.235 -8.141,-5.071 -6.752,-35.875 -2.953,-52.758 l 10.973,0"
         id="path4302" />
      <path
         inkscape:connector-curvature="0"
         style="fill:#ff6600;stroke:none"
         d="m 575.267,153.649 c -7.175,30.389 -29.544,57.822 -57.823,73.017 -17.727,3.799 -40.518,15.616 -54.868,-2.11 9.708,-8.863 27.434,-2.954 38.83,-10.13 29.544,-8.441 53.858,-34.474 68.796,-60.777 1.91,-1.321 3.195,-2.823 5.065,0"
         id="path4304" />
      <path
         inkscape:connector-curvature="0"
         style="fill:#ff6600;stroke:none"
         d="m 584.142,179.84 c -5.065,26.168 -17.727,53.602 -44.739,66.686 -11.818,5.487 -30.388,11.818 -41.362,2.11 l 0,-4.221 c 41.784,1.688 62.887,-42.206 79.77,-71.75 4.643,-0.422 5.065,3.798 6.331,7.175"
         id="path4306" />
      <path
         inkscape:connector-curvature="0"
         style="fill:#ff6600;stroke:none"
         d="m 611.567,280.265 c 19.879,4.224 39.249,-15.615 43.47,10.131 -16.883,8.863 -39.674,6.331 -57.4,1.266 -3.799,7.597 1.688,16.038 0,25.324 -2.532,24.902 -11.818,48.537 -33.765,63.731 -6.357,3.3 -7.677,5.247 -11.431,5.909 1.138,-5.702 1.527,-10.353 2.5,-13.899 4.346,-2.92 23.503,-15.22 24.125,-31.684 9.707,-34.609 -0.844,-68.796 -24.058,-94.12 l 15.194,-13.928 c 8.863,17.726 18.896,42.495 41.364,47.269"
         id="path4308" />
      <path
         inkscape:connector-curvature="0"
         style="fill:#ff6600;stroke:none"
         d="m 542.769,257.054 c 24.479,47.271 1.688,102.561 -4.221,151.098 2.532,18.149 5.065,36.719 20.259,49.381 -1.688,4.221 0.844,14.772 -5.909,12.24 -21.525,-11.396 -28.7,-34.187 -28.278,-57.822 -0.844,-41.784 21.525,-75.127 16.038,-117.333 L 536.86,286.6 c -17.305,18.57 -36.719,41.784 -35.453,70.905 l -11.396,2.11 c -12.662,-40.518 31.655,-63.743 37.564,-100.04 0,0 9.707,-3.786 15.194,-2.521"
         id="path4310" />
    </g>
    <path
       inkscape:connector-curvature="0"
       style="fill:#ff6600"
       d="m 354.50106,157.83969 c -0.9658,-0.96697 -1.3185,-1.83469 -1.3203,-3.24817 -0.002,-1.88038 0.88777,-3.30485 2.67976,-4.28832 0.88485,-0.48561 1.20602,-0.55641 2.48973,-0.54879 1.57244,0.009 1.82239,-0.2063 0.69483,-0.59943 -0.35864,-0.12503 -0.63511,-0.30976 -0.61438,-0.41047 0.0207,-0.10072 0.87852,-1.45453 1.90622,-3.00848 1.0277,-1.55395 2.05494,-3.13267 2.28277,-3.50828 l 0.41422,-0.6829 4.09599,-0.13609 c 2.25279,-0.0748 4.13418,-0.0979 4.18087,-0.0512 0.0932,0.0932 -1.78485,3.14319 -4.60297,7.47548 -0.95949,1.47502 -1.24459,2.10855 -0.83493,1.85537 0.28532,-0.17634 1.47282,0.39631 1.69927,0.81942 0.11265,0.2105 0.20483,0.97266 0.20483,1.69369 0,1.11663 -0.0773,1.42537 -0.52133,2.08282 -0.63656,0.94247 -1.26423,1.4481 -2.45547,1.97806 -1.22138,0.54335 -2.27514,0.71934 -2.93337,0.48988 -0.65665,-0.22892 -0.91453,-0.66412 -0.91453,-1.54339 0,-0.84707 -0.16201,-1.26021 -0.49422,-1.26021 -0.17201,0 -0.26408,0.21664 -0.26408,0.62133 0,1.46928 -2.09559,3.17017 -3.90581,3.17017 -0.80643,0 -0.97009,-0.0825 -1.7871,-0.90048 z m 32.75738,0.72024 c -0.85208,-0.27056 -1.82299,-0.94944 -1.95566,-1.36742 -0.0814,-0.25633 0.0176,-0.58315 0.28664,-0.94709 0.22596,-0.30564 0.38355,-0.74376 0.35018,-0.97362 -0.0542,-0.37328 -0.15825,-0.31321 -0.97462,0.56265 -1.10121,1.18144 -2.0261,1.5848 -3.94011,1.71829 -1.27111,0.0886 -1.57049,0.0428 -2.49872,-0.38208 -1.17244,-0.53676 -2.12895,-1.64764 -2.32681,-2.70233 -0.20453,-1.09019 0.37551,-2.58918 1.46179,-3.77776 0.53441,-0.58472 0.92047,-1.11431 0.85792,-1.17687 -0.0625,-0.0626 -0.38742,-3.8e-4 -0.72193,0.13819 -0.51729,0.21427 -0.63238,0.21099 -0.76994,-0.0219 -0.089,-0.15059 -1.0826,-1.85202 -2.2081,-3.78094 -1.12551,-1.92892 -2.16482,-3.69519 -2.30956,-3.92506 -0.14476,-0.22986 -0.22376,-0.4526 -0.17558,-0.495 0.0482,-0.0424 2.10102,-0.13142 4.56186,-0.19783 l 4.47426,-0.12075 2.44523,3.62481 c 1.34487,1.99365 2.53054,3.64987 2.6348,3.68049 2.18158,0.64076 3.90447,2.05648 4.85677,3.99087 0.53834,1.09353 0.58812,1.33839 0.49865,2.45293 -0.12189,1.51854 -0.71286,2.50618 -1.92444,3.21622 -0.95325,0.55864 -1.86058,0.72615 -2.62263,0.48417 z m -49.14994,-0.73238 c -1.37653,-0.49204 -2.32901,-1.1577 -3.56177,-2.48923 -1.24845,-1.34847 -1.73051,-2.2022 -2.135,-3.78112 -0.61398,-2.39661 0.47764,-4.52859 3.2797,-6.40539 0.5474,-0.36664 0.99526,-0.74632 0.99526,-0.84371 0,-0.37905 -0.58921,-0.37303 -1.21285,0.0124 l -0.65375,0.40403 -0.48264,-0.63278 c -0.75786,-0.99359 -1.0631,-1.9228 -1.0631,-3.23622 0,-2.49708 1.60111,-4.54721 4.39176,-5.62339 2.70676,-1.04384 4.91082,-0.82168 6.56016,0.66122 1.47776,1.32864 2.08804,3.2438 1.65784,5.20251 l -0.13948,0.63505 6.3993,-0.14041 c 5.88678,-0.12917 6.38975,-0.11552 6.28006,0.17034 -0.0656,0.17091 -0.83024,1.39529 -1.69922,2.72082 -0.86899,1.32553 -2.08611,3.23766 -2.7047,4.24917 l -1.12473,1.8391 -2.46447,0.0325 c -1.35546,0.018 -3.05041,0.0191 -3.76654,0.003 -1.29712,-0.0296 -1.30518,-0.0331 -2.11701,-0.92374 -1.05608,-1.15859 -1.29372,-0.75909 -0.47466,0.79795 1.00113,1.9032 0.71366,3.8109 -0.86453,5.73686 -1.36812,1.66962 -3.26211,2.26801 -5.09963,1.61121 z m 65.11896,-1.90725 c -1.62241,-0.3589 -3.33614,-1.6299 -3.97386,-2.94725 -0.37477,-0.77419 -0.51954,-2.4946 -0.3426,-4.07159 0.028,-0.25011 -0.0439,-0.48793 -0.15998,-0.52847 -0.23043,-0.0805 -0.64224,0.7673 -0.69171,1.42406 -0.0305,0.40438 -0.0876,0.41225 -2.99558,0.41225 l -2.96452,0 -0.57313,-0.90047 c -0.31522,-0.49527 -1.69171,-2.54268 -3.05886,-4.54981 l -2.48573,-3.64931 2.5092,-0.0244 c 1.38005,-0.0134 3.0637,-0.0412 3.74142,-0.0618 0.67774,-0.0205 2.41437,-0.0522 3.85919,-0.0703 2.34462,-0.0295 2.61416,-0.0663 2.5081,-0.34271 -0.19683,-0.51293 0.26195,-2.53312 0.83148,-3.66133 0.55044,-1.09043 1.98934,-2.59582 2.96109,-3.09792 2.26058,-1.16804 5.22,-0.85768 7.37582,0.77351 1.09952,0.83194 2.11825,2.64368 2.26073,4.0205 0.17345,1.6759 -0.6073,3.9229 -2.07276,5.96543 -1.09564,1.52711 -1.09979,1.99045 -0.009,1.03293 0.37837,-0.33223 0.79672,-0.54642 0.95132,-0.4871 0.47405,0.18192 1.5918,2.07013 1.81274,3.06226 0.49264,2.21233 -0.62056,4.84373 -2.64165,6.24435 -1.6938,1.17379 -4.96904,1.8714 -6.84148,1.45719 z M 367.5874,139.86604 c -0.55185,-0.24827 -0.78134,-0.25996 -1.36357,-0.0694 -0.8744,0.28621 -3.77589,0.003 -4.70194,-0.45902 -0.59022,-0.29445 -0.65581,-0.29089 -1.23496,0.067 -0.33641,0.20791 -0.8575,0.37718 -1.158,0.37617 -0.65691,-0.002 -2.45969,-0.80923 -2.57403,-1.15226 -0.0626,-0.18784 -0.18677,-0.17035 -0.53823,0.0759 -0.62573,0.43826 -1.17098,0.40207 -2.2606,-0.15008 -1.70098,-0.86195 -2.33034,-1.72671 -2.55524,-3.51101 l -0.13142,-1.04266 -1.83588,-1.23167 c -1.97606,-1.32573 -3.55706,-2.61861 -6.10129,-4.98946 -5.16274,-4.81089 -8.4644,-10.04328 -11.13049,-17.63933 -0.86339,-2.4599 -1.95017,-6.58153 -1.95017,-7.39602 0,-0.2424 -0.0815,-0.68805 -0.18113,-0.99034 -0.38675,-1.17364 -1.24025,-11.482209 -0.9728,-11.749648 0.0438,-0.04382 2.39482,-0.07966 5.22445,-0.07966 l 5.14479,0 -0.18313,1.469211 c -0.2245,1.800992 0.067,5.061587 0.733,8.199114 0.6014,2.833193 2.36393,8.341293 2.66912,8.341293 0.23098,0 0.39975,-0.79393 0.44329,-2.08532 0.0122,-0.36494 0.27184,-1.60191 0.57676,-2.74884 2.22455,-8.367474 8.5137,-14.482316 17.06719,-16.594205 2.32501,-0.574054 6.89937,-0.718715 9.17071,-0.29003 2.75438,0.519855 4.79645,1.380291 7.70145,3.245045 4.54986,2.920603 7.89217,6.394039 10.25541,10.65777 1.15946,2.09189 2.36313,5.09195 2.5472,6.34871 0.0728,0.49655 0.20395,0.94713 0.2916,1.0013 0.19968,0.12341 0.81324,-0.78684 0.67794,-1.00576 -0.0547,-0.0885 -0.0215,-0.49751 0.0738,-0.90882 0.82486,-3.55839 1.03162,-5.36995 1.02654,-8.994345 -0.005,-2.827628 -0.0852,-4.068121 -0.34553,-5.27657 -0.1872,-0.868937 -0.31195,-1.60811 -0.27724,-1.642631 0.0348,-0.03448 4.6058,-0.123513 10.15798,-0.197754 8.82163,-0.117969 10.09485,-0.09981 10.09485,0.143999 0,0.995009 -0.41819,6.572514 -0.58678,7.826044 -0.56156,4.175417 -1.13185,6.611207 -2.48558,10.616197 -2.73874,8.10249 -8.39736,17.0735 -13.74857,21.79647 -2.89228,2.55273 -7.07366,5.08 -10.51632,6.35613 l -1.64986,0.61159 -0.20754,0.99966 c -0.27269,1.31354 -0.69156,1.66711 -2.13894,1.8055 -0.95984,0.0918 -1.30448,0.0401 -1.96542,-0.29448 l -0.80149,-0.40577 -0.49021,0.48974 c -0.44403,0.44359 -0.63082,0.48973 -1.98223,0.48973 -1.18162,0 -1.57199,-0.0724 -1.87653,-0.34809 -0.37437,-0.33889 -0.40035,-0.33638 -0.98299,0.0948 -0.51545,0.38144 -0.85273,0.44964 -2.4315,0.49164 -1.34632,0.0358 -2.00921,-0.0305 -2.49654,-0.24976 z m 3.90722,-1.17631 c 0.43203,-0.28584 0.83192,-1.38204 0.82538,-2.26258 -0.009,-1.21239 -0.459,-3.04118 -0.85639,-3.48029 -0.7174,-0.79271 -2.73852,-0.9597 -3.48116,-0.28762 -0.28942,0.26192 -0.33509,0.67867 -0.34337,3.13362 -0.009,2.74532 0.003,2.83394 0.39593,2.91092 0.71605,0.14021 3.24195,0.12995 3.45961,-0.0141 z m -5.39964,-0.35775 c 0.28409,-0.34205 0.39371,-3.21514 0.18679,-4.89598 -0.1008,-0.81884 -0.18717,-0.96871 -0.65232,-1.13185 -0.4527,-0.1588 -0.72655,-0.0894 -1.75966,0.44631 -0.67293,0.3489 -1.32163,0.81558 -1.44152,1.03707 -0.23577,0.43552 -0.69153,2.73544 -0.70773,3.57141 -0.0123,0.63492 0.38313,0.86728 1.83874,1.08047 1.73221,0.25369 2.25412,0.23158 2.5357,-0.10743 z m 10.40243,-0.0659 c 0.32257,-0.32257 0.37914,-0.63191 0.37914,-2.07298 0,-0.93161 -0.0792,-1.9022 -0.17603,-2.15685 -0.30544,-0.80334 -2.32068,-1.20852 -2.9384,-0.59079 -0.22841,0.22839 -0.29791,0.71204 -0.29791,2.07298 0,2.00901 0.18435,2.68177 0.80294,2.93028 0.77296,0.31054 1.82308,0.22454 2.23026,-0.18264 z m -16.23346,-0.43261 c 0.28411,-0.38199 0.41302,-0.89478 0.46755,-1.86005 0.0668,-1.18143 0.0267,-1.38449 -0.35378,-1.7894 -0.89433,-0.95197 -2.56842,-1.05511 -3.13327,-0.19301 -0.36926,0.56355 -0.5581,2.70369 -0.29751,3.37168 0.24858,0.63722 1.1918,1.08378 2.18542,1.0347 0.56399,-0.0279 0.83238,-0.16162 1.13159,-0.56392 z m 20.8121,0.43519 c 0.71231,-0.005 0.97053,-2.45028 0.42726,-4.04467 -0.16619,-0.48777 -0.37824,-0.88685 -0.4712,-0.88685 -0.53387,0 -1.95149,0.51616 -2.40019,0.87393 -0.48817,0.38922 -0.52313,0.51282 -0.52313,1.84964 0,1.07455 0.0777,1.51034 0.31079,1.74383 0.36184,0.3624 1.41742,0.65459 1.96411,0.54365 0.20854,-0.0424 0.5201,-0.0781 0.69236,-0.0796 z m -25.49453,-1.3296 c 0.30335,-1.16718 0.30382,-2.51104 7.2e-4,-2.92512 -0.18645,-0.25499 -0.59102,-0.36785 -1.56952,-0.43786 -1.54576,-0.1106 -1.88001,0.12125 -1.84956,1.28291 0.0304,1.15607 0.6132,2.11476 1.58495,2.60683 1.20823,0.61182 1.56374,0.50965 1.8331,-0.52676 z m 11.8163,-9.95443 c 0.0835,-1.1673 0.13998,-1.32527 0.47393,-1.32527 0.2639,0 0.39528,0.14406 0.43223,0.47393 0.093,0.83068 0.2344,1.32711 0.37708,1.32412 0.39447,-0.008 0.68084,-0.42236 0.80392,-1.16249 0.0755,-0.45382 0.4134,-1.76114 0.75095,-2.90514 0.47659,-1.61525 0.59375,-2.31416 0.52435,-3.12799 -0.15037,-1.76325 -0.69787,-5.49199 -1.10825,-7.54772 -0.2141,-1.07247 -0.46222,-2.7276 -0.55138,-3.67807 -0.15564,-1.65927 -0.42356,-2.26743 -0.82294,-1.86804 -0.23784,0.23783 -0.52433,4.49012 -0.46034,6.83254 0.0451,1.64987 0.006,1.99053 -0.22438,1.99053 -0.50064,0 -0.75761,-0.90025 -0.78465,-2.74883 -0.0387,-2.64507 -0.23077,-4.41443 -0.48843,-4.49927 -0.33731,-0.11106 -0.62601,1.18215 -0.62722,2.80949 -5.6e-4,0.8579 -0.2299,2.54071 -0.56824,4.17065 -0.98333,4.73729 -0.73685,7.18109 1.18951,11.79332 0.56578,1.35464 0.96287,1.15982 1.08386,-0.53176 z m -20.66366,-0.0119 c 0,-0.26817 -0.22138,-0.86533 -0.49195,-1.32703 -0.27058,-0.46169 -0.43074,-0.83944 -0.35594,-0.83944 0.0748,0 0.0449,-0.10977 -0.0664,-0.24392 -0.39271,-0.47317 -0.63242,-3.58001 -0.50775,-6.58078 0.115,-2.76836 0.0952,-3.02618 -0.34237,-4.45501 -0.57058,-1.86318 -1.18045,-2.93841 -1.66665,-2.93841 -0.47962,0 -0.46283,0.1416 0.25569,2.15761 l 0.61611,1.72867 -0.0389,3.69671 c -0.0503,4.77949 0.21482,6.2872 1.46186,8.31389 0.65472,1.06406 1.1363,1.27076 1.1363,0.48771 z m 41.53318,-0.42494 c 0.9211,-1.02886 1.77926,-3.74876 1.66819,-5.28721 -0.029,-0.40168 0.008,-0.82869 0.0824,-0.94891 0.0743,-0.12022 0.0538,-0.26882 -0.0455,-0.33021 -0.0993,-0.0614 -0.18633,-0.25923 -0.19331,-0.43964 -0.0365,-0.94141 -0.20565,-2.67185 -0.31003,-3.17165 -0.47252,-2.26266 -0.38398,-5.44422 0.16356,-5.87682 0.2205,-0.17421 0.24548,-0.32593 0.16392,-0.99527 -0.0465,-0.38213 -0.67405,-0.27206 -0.94779,0.16627 -0.71288,1.1415 -1.05108,4.71149 -0.62629,6.61103 0.372,1.6635 0.64231,4.66297 0.53816,5.97161 -0.166,2.08567 -0.58595,3.20875 -1.46358,3.91404 -0.89276,0.71743 -0.96859,1.1097 -0.21451,1.1097 0.38331,0 0.72338,-0.2075 1.18484,-0.72294 z m -26.28278,-7.49934 c 0.26347,-0.17264 0.60478,-0.5058 0.75848,-0.74037 0.36984,-0.56445 0.81055,-2.33882 1.04634,-4.21281 0.10496,-0.83413 0.31497,-2.49766 0.46669,-3.69671 0.32325,-2.55475 0.21412,-3.24723 -0.80669,-5.11852 -1.19863,-2.19726 -1.46771,-2.46507 -2.47221,-2.46037 -1.12069,0.005 -4.02861,0.64511 -5.03382,1.10768 -0.42521,0.19566 -1.45557,0.58976 -2.28971,0.87577 -0.83413,0.28602 -2.12939,0.8101 -2.87836,1.16462 -1.26638,0.59943 -1.39916,0.72076 -1.89575,1.73201 -0.5083,1.03513 -0.53175,1.1993 -0.48756,3.41349 0.0568,2.84426 0.24283,3.34626 1.64942,4.45024 1.02065,0.80107 2.60887,1.42724 4.46534,1.76051 0.36493,0.0655 1.32653,0.49842 2.13688,0.96201 2.36439,1.35265 4.06884,1.59596 5.34095,0.76245 z m 15.27114,-1.01399 c 0.57347,-0.17531 1.42656,-0.58996 1.89576,-0.92143 0.98391,-0.69512 2.33805,-1.40434 2.69388,-1.41088 0.56272,-0.0103 2.44585,-0.93536 3.25647,-1.59962 1.04035,-0.85248 1.39452,-1.82044 1.56336,-4.2727 0.11094,-1.61118 0.11085,-1.61157 -0.68039,-3.12798 -1.43439,-2.74904 -2.97274,-3.87181 -5.86622,-4.28145 -3.94348,-0.55831 -6.68362,0.39354 -8.36006,2.90404 -0.41458,0.62083 -0.84416,1.46445 -0.95463,1.87471 -0.29209,1.08472 -0.0384,2.86399 0.67228,4.71601 0.34011,0.88626 0.93521,2.46447 1.32244,3.50713 0.809,2.17836 1.18705,2.88882 1.60296,3.01249 0.44269,0.13163 1.6831,-0.0424 2.85415,-0.40032 z"
       id="path2451"
       sodipodi:nodetypes="csssssscccssssssssssssccsssssssssssssscccssssccsssscccssscccsscccssssccssssccccccssssssssssssccssssssscccssssscccsssssssssssssssssssscccscccssssccsssssccssssssccsssssccsssssccssssssccssssccssssssssssssssssccsssssscccsccssssssssssssccsssssssssssssccsssssssssssc" />
    <path
       sodipodi:type="arc"
       style="fill:#000000;fill-opacity:1;stroke:#ff6600;stroke-width:11;stroke-miterlimit:4;stroke-opacity:1;stroke-dasharray:none"
       id="path3765"
       sodipodi:cx="143.75"
       sodipodi:cy="318.61249"
       sodipodi:rx="56.25"
       sodipodi:ry="56.25"
       d="m 200,318.61249 c 0,31.06601 -25.18398,56.25 -56.25,56.25 -31.06602,0 -56.25,-25.18399 -56.25,-56.25 0,-31.06602 25.18398,-56.25 56.25,-56.25 31.06602,0 56.25,25.18398 56.25,56.25 z"
       transform="matrix(1.1088619,0,0,1.1088619,339.60825,-231.491)" />
    <path
       transform="matrix(1.1088619,0,0,1.1088619,464.35521,-231.491)"
       d="m 200,318.61249 c 0,31.06601 -25.18398,56.25 -56.25,56.25 -31.06602,0 -56.25,-25.18399 -56.25,-56.25 0,-31.06602 25.18398,-56.25 56.25,-56.25 31.06602,0 56.25,25.18398 56.25,56.25 z"
       sodipodi:ry="56.25"
       sodipodi:rx="56.25"
       sodipodi:cy="318.61249"
       sodipodi:cx="143.75"
       id="path3767"
       style="fill:#000000;fill-opacity:1;stroke:#ff6600;stroke-width:11;stroke-miterlimit:4;stroke-opacity:1;stroke-dasharray:none"
       sodipodi:type="arc" />
    <path
       sodipodi:nodetypes="ccscsssssssccccscccsccsscscccccscccscsssscsccsscsssccccccsscccccscscssscscssscscsscsccccccccccccccccccsccssccsscccsccccccccccccccccsscccscccccscssccsccccccccssscssscscccccssccscssccssscsscscsscscsssssccsssscccsccscsscsscssccsscssccsccscscccscscsccccsccccsccscsssscccscsccccscssccssccccsccsccsccccssccsscsscccccccsssssccccsccccccss"
       inkscape:connector-curvature="0"
       id="rect3105"
       d="m 498.13482,82.38483 c -0.30242,0 -0.55821,0.358763 -0.69749,0.980157 -0.0699,0.311731 -0.21065,0.758434 -0.31203,0.994818 -0.10137,0.236403 -0.35747,1.041388 -0.57266,1.787774 -0.21518,0.746377 -0.77031,2.464383 -1.22978,3.817792 -0.45945,1.35341 -0.87953,2.637641 -0.9361,2.852342 -0.0566,0.214692 -0.18055,0.47901 -0.27532,0.587354 -0.0947,0.108344 -0.2113,0.462544 -0.25696,0.785588 -0.0456,0.323045 -0.2058,0.90452 -0.35609,1.292179 -0.15029,0.38765 -0.38264,1.180578 -0.51761,1.762053 -0.21117,0.909927 -0.9449,3.007053 -2.38245,6.813313 -0.42538,1.12632 -0.83538,2.4246 -1.09761,3.46538 -0.10581,0.41997 -0.3613,1.10717 -0.56533,1.52713 l -0.37078,0.76356 -3.28918,0.0697 c -1.80905,0.0403 -8.62822,0.11324 -15.15372,0.16153 -6.52551,0.0483 -11.88469,0.10706 -11.90861,0.12847 -0.14294,0.12805 0.16631,0.68354 0.47355,0.85167 0.19869,0.10873 0.71045,0.44932 1.138,0.75622 0.54828,0.39354 0.88898,0.55799 1.16003,0.55799 0.18097,0 0.33424,-0.0187 0.37443,-0.0405 5.9e-4,-5.8e-4 0.003,5.9e-4 0.004,0 0.005,-0.003 0.007,-0.008 0.007,-0.0111 0,-0.027 0.0322,-0.12976 0.0697,-0.2276 0.0455,-0.11856 -0.0556,-0.24018 -0.30102,-0.3671 -0.41867,-0.21651 -0.82597,-0.59334 -0.82597,-0.76356 0,-0.0631 0.12969,-0.19837 0.28634,-0.30102 0.26085,-0.17092 0.35104,-0.16981 1.07192,0.0111 0.1136,0.0285 0.21296,0.0502 0.30836,0.0698 0.26018,0.008 0.69597,0.0121 1.34724,0.0147 0.0504,-0.006 0.0955,-0.0113 0.15052,-0.0183 0.69318,-0.0888 4.9371,-0.12848 13.21546,-0.12848 l 11.64797,0 c 0.29349,-0.0281 0.49895,-0.0634 0.64976,-0.10646 l 0.27899,-0.29735 c 0.40055,-0.42471 0.57001,-0.89418 1.47573,-4.06009 0.26801,-0.93682 0.58771,-1.96762 0.70848,-2.29067 0.12079,-0.32304 0.32534,-1.00447 0.45521,-1.51244 0.12987,-0.50797 0.33441,-1.08945 0.45519,-1.29218 0.1208,-0.20273 0.31359,-0.76356 0.42584,-1.248132 0.25953,-1.120273 0.43881,-1.697112 1.127,-3.58285 0.30652,-0.839915 0.61695,-1.836503 0.68645,-2.213601 0.0695,-0.37709 0.33878,-1.189914 0.60205,-1.8061 0.26327,-0.616214 0.53546,-1.416582 0.60203,-1.77676 0.0666,-0.36016 0.29659,-1.000008 0.51028,-1.424329 0.35725,-0.709407 0.69646,-1.708426 1.17103,-3.436021 0.1985,-0.722626 0.30366,-0.849831 0.62039,-0.745198 0.23138,0.07639 0.96803,1.655224 0.96914,2.077758 0,0.152092 0.15196,0.807617 0.33773,1.453697 0.18576,0.646099 0.40403,1.491892 0.48457,1.879542 0.0806,0.38765 0.26752,1.021991 0.41481,1.40965 0.8361,2.200618 2.94385,8.994064 3.48007,11.218464 0.20263,0.84063 0.47621,1.65451 0.63875,1.90523 0.34151,0.52682 0.86942,2.05628 0.87002,2.51828 0,0.18243 0.11355,0.51465 0.24963,0.73786 0.13606,0.2232 0.38738,0.79943 0.55798,1.28117 0.20217,0.57094 0.41061,0.94922 0.60204,1.08293 0.2724,0.19025 1.23798,0.21279 13.3256,0.33039 7.44404,0.0724 13.07756,0.17411 13.13838,0.23494 0.13755,0.13755 -0.0874,0.55673 -0.47724,0.89204 -0.19503,0.16778 -0.27249,0.32497 -0.22392,0.45153 0.10952,0.2854 0.37498,0.24147 0.81127,-0.1395 0.21225,-0.18529 0.65834,-0.4745 0.99118,-0.64241 0.68671,-0.34647 1.12654,-0.8331 1.07558,-1.18939 -0.0332,-0.23211 -0.13345,-0.24282 -2.44485,-0.31938 -0.63419,-0.0211 -2.42494,-0.0384 -4.76126,-0.0513 -1.18304,-0.005 -2.32919,-0.0105 -3.90956,-0.0147 -0.6323,-0.002 -0.87591,-0.002 -1.46104,-0.004 -1.18904,-0.002 -2.39341,-0.005 -3.62323,-0.004 -9.43525,0.006 -11.40274,-0.019 -11.68469,-0.15417 -0.46187,-0.2216 -0.7909,-0.85978 -1.10129,-2.12549 -0.14365,-0.5857 -0.41715,-1.36896 -0.60572,-1.74004 -0.18856,-0.37107 -0.3414,-0.71677 -0.3414,-0.77091 0,-0.1215 -0.85331,-2.90387 -1.18572,-3.86551 -0.13402,-0.38766 -0.5061,-1.656349 -0.82597,-2.819299 -0.33207,-1.207342 -0.75324,-2.442056 -0.98014,-2.878044 -0.39222,-0.753608 -0.8847,-2.372406 -0.8847,-2.903728 0,-0.150286 -0.18075,-0.724331 -0.4038,-1.2775 -0.22307,-0.553169 -0.49552,-1.386669 -0.60204,-1.850165 -0.10652,-0.463487 -0.29096,-1.157815 -0.41115,-1.545465 -0.1202,-0.38766 -0.38147,-1.312747 -0.58001,-2.055749 -0.49861,-1.865951 -1.16359,-3.524115 -1.41333,-3.524115 z m -15.78881,35.02467 c -0.3977,0.007 -0.70795,0.03 -0.93977,0.0735 -0.0832,0.0309 -0.16299,0.0709 -0.26063,0.12114 -0.5032,0.259 -0.59541,0.43826 -0.91775,1.83915 -0.0442,0.1922 -0.0809,0.32729 -0.16152,0.42216 l -0.0294,0.11747 -0.12849,-0.004 c -0.25462,0.10819 -0.75452,0.10893 -1.84282,0.10646 -1.36981,-0.003 -1.91002,-0.0435 -2.12916,-0.16886 -0.0277,-0.0159 -0.0714,-0.0309 -0.13216,-0.0441 -2.0066,-0.0307 -4.95007,-0.0627 -7.9146,-0.0844 l -6.39481,-0.0477 -1.51978,0 -0.38912,0.40014 -0.26798,0.27899 -0.0441,0.0513 -0.007,0 -0.0697,0.0735 -2.52561,0.24963 c -1.71452,0.17096 -2.54615,0.30034 -2.74589,0.44785 -0.009,0.0259 -0.0147,0.0538 -0.0147,0.0844 0,0.0252 9e-4,0.0454 0.007,0.0661 0.0286,0.0265 0.0689,0.0519 0.12483,0.0807 0.12059,0.0623 0.64314,0.14927 1.16001,0.19088 3.07641,0.24774 3.92456,0.37308 4.19592,0.6204 0.63347,0.57734 0.52504,0.56407 6.31772,0.59102 2.17885,-0.028 3.63009,-0.0192 4.68415,0.033 1.04224,0.01 1.89161,0.0177 2.24663,0.0258 0.80762,0.0183 2.12917,-0.0361 2.93677,-0.12115 0.80762,-0.0851 2.15559,-0.13796 2.9955,-0.11747 l 1.52713,0.0405 0.0844,0.76356 c 0.13162,1.21989 0.20868,1.52288 0.45153,1.76572 0.31783,0.31783 1.00606,0.29466 1.77307,-0.0624 l 0.62772,-0.29366 0.27166,0 0.066,-0.0258 4.04174,0.0258 2.1475,0 6.52698,0 0.3928,-0.29369 0.39646,-0.29 0.37444,0.23127 c 0.13823,0.0855 0.26231,0.13833 1.00216,0.17254 0.0445,0.002 0.0799,0.006 0.12849,0.007 0.0244,9.1e-4 0.0514,-9e-4 0.0771,0 0.56405,0.0182 1.37018,0.0325 2.58803,0.0405 0.558,0.003 1.15926,0.006 1.9089,0.007 0.11957,3.4e-4 0.1983,-3.6e-4 0.32303,0 1.70802,0.004 3.85175,0.007 6.7509,0.007 l 0.0624,0 c 4.10995,0 6.81614,-0.005 8.68552,-0.0147 2.93611,-0.0222 3.75872,-0.0889 3.96463,-0.29368 0.019,-0.0817 0.0397,-0.17477 0.0624,-0.29368 -0.004,-0.046 -0.007,-0.0936 -0.007,-0.14684 0,-0.23223 0.0202,-0.38585 0.11747,-0.4809 l 0.0111,-0.0624 0.0844,0 c 0.19438,-0.0914 0.55956,-0.0859 1.24814,-0.0441 0.64981,0.0395 1.28777,0.13698 1.41699,0.21657 0.14586,0.0899 1.05882,0.18121 2.40815,0.24229 2.74143,0.12412 3.04209,0.10866 3.43234,-0.17988 0.17518,-0.12951 0.47784,-0.23494 0.6718,-0.23494 0.42502,0 2.06505,0.37228 3.35525,0.76356 1.10079,0.33384 3.24863,0.52175 6.57469,0.569 0.29272,0.003 0.56324,0.006 0.88471,0.007 0.21682,9.1e-4 0.42021,0.003 0.64609,0.004 3.87175,0.008 3.87374,0.008 4.38313,1.1013 0.14714,0.31574 0.2522,0.72421 0.31202,1.18939 9.1e-4,0.005 0.003,0.01 0.004,0.0147 0.004,0.0342 0.007,0.0679 0.0111,0.10279 0.004,0.0354 0.009,0.0687 0.0111,0.10646 0.0603,0.6373 0.0412,1.36386 -0.0624,2.1108 -0.12237,0.88134 -0.17614,0.98762 -1.58953,3.09095 -0.20676,0.30766 -0.53645,0.54173 -1.1894,0.85167 -0.49712,0.23595 -1.14515,0.61259 -1.43902,0.83698 -0.29387,0.22438 -0.75158,0.46708 -1.01686,0.53963 -1.01417,0.27736 -5.25043,-0.12082 -5.92492,-0.55799 -0.33285,-0.21573 -1.42805,-0.57454 -2.0741,-0.67912 -0.25844,-0.0418 -1.0778,-0.25433 -1.8208,-0.47356 -0.743,-0.21924 -1.87953,-0.48877 -2.52562,-0.5947 -1.23409,-0.20232 -3.27413,-0.83875 -4.88239,-1.52712 -0.52503,-0.22472 -1.14739,-0.40972 -1.38394,-0.41115 -0.53593,-0.003 -1.37505,-0.37559 -1.83916,-0.81495 -0.19383,-0.18349 -0.72674,-0.468 -1.18572,-0.63141 -0.45896,-0.1634 -1.33122,-0.55099 -1.93827,-0.86268 l -0.93976,-0.48088 c -0.0944,-0.0323 -0.18673,-0.0592 -0.27899,-0.0844 l -1.41334,0 c -2.8239,0.006 -3.29174,0.37531 -3.50209,2.74222 -0.12322,1.38631 -0.12305,1.3949 0.17621,1.9089 0.1654,0.28411 0.34063,0.70262 0.38912,0.92874 0.0485,0.22614 0.24037,0.69428 0.42583,1.04257 0.18548,0.34829 0.33772,0.81187 0.33772,1.03154 0,0.21966 0.24389,0.99379 0.54331,1.718 0.64332,1.55608 1.94747,5.27501 2.26865,6.46825 0.28237,1.04901 0.36446,1.27954 1.13801,3.30753 0.34501,0.90452 0.71259,1.9882 0.81861,2.40814 0.10603,0.41997 0.35094,1.16003 0.54331,1.64461 0.39507,0.995 0.55478,2.02946 0.33406,2.16587 -0.33128,0.20474 -2.86483,-1.38902 -5.08795,-3.20109 -0.46757,-0.3811 -1.30099,-0.98462 -1.85017,-1.3399 -0.54918,-0.35528 -1.42695,-0.99001 -1.95296,-1.41332 -0.52598,-0.42332 -1.37177,-1.04766 -1.87953,-1.38762 -0.50774,-0.33997 -1.34797,-0.9446 -1.86484,-1.34357 -0.51687,-0.39899 -1.51395,-1.11183 -2.21727,-1.5822 -0.70331,-0.47037 -1.60196,-1.11678 -1.997,-1.43535 -0.86454,-0.69716 -3.94993,-2.90113 -4.57035,-3.26714 -0.72114,-0.42543 -0.79628,-0.38228 -6.31038,3.73703 -2.03519,1.52039 -4.12323,3.11837 -4.64011,3.54982 -0.51687,0.43146 -1.07191,0.85204 -1.23344,0.93609 -0.16151,0.0841 -0.58442,0.39919 -0.93977,0.70116 -0.35534,0.30197 -1.17471,0.91273 -1.8208,1.35459 -0.64608,0.44187 -1.41258,0.99855 -1.70331,1.23711 -0.29075,0.23857 -0.7665,0.55183 -1.05724,0.69749 -0.29074,0.14565 -0.87222,0.59127 -1.29218,0.99116 -0.90759,0.86422 -3.00462,2.46625 -3.38829,2.58802 -0.32619,0.10353 -0.84066,-0.01 -0.84066,-0.18353 0,-0.0687 0.1566,-0.48362 0.34874,-0.92143 0.30352,-0.69154 0.73404,-2.25619 1.17839,-4.29136 0.0705,-0.32304 0.26605,-0.93095 0.43317,-1.3509 0.1671,-0.41996 0.48147,-1.4111 0.69748,-2.19891 0.21601,-0.78782 0.65428,-2.08631 0.97648,-2.88538 0.60087,-1.49016 0.9471,-2.62718 0.9471,-3.11297 0,-0.15115 0.0769,-0.42047 0.16887,-0.59837 0.092,-0.17791 0.33283,-0.95348 0.53597,-1.72535 0.20313,-0.77188 0.4963,-1.5912 0.65342,-1.8208 0.15712,-0.22961 0.28633,-0.51022 0.28633,-0.62407 0,-0.11384 0.0495,-0.30159 0.11014,-0.41481 0.13942,-0.26053 0.2596,-1.47788 0.16885,-1.71435 -0.15767,-0.41087 -0.74887,-0.10653 -0.74887,0.38546 0,0.15455 -0.10572,0.41573 -0.23494,0.58001 -0.12921,0.16428 -0.23493,0.42772 -0.23493,0.58735 0,0.47321 -0.32171,1.5716 -0.82965,2.83766 -0.26187,0.6527 -0.55051,1.54236 -0.64241,1.97865 -0.17835,0.84671 -1.6245,5.2366 -2.03372,6.17088 -0.26623,0.6078 -1.26017,3.84973 -2.09245,6.828 -0.28687,1.02658 -0.70658,2.32169 -0.93242,2.87803 -0.42708,1.05199 -0.52669,1.77348 -0.28634,2.06309 0.17222,0.20749 0.52824,0.0917 1.15635,-0.37444 0.23787,-0.17653 0.67092,-0.51626 0.96179,-0.75622 0.29088,-0.23994 0.7402,-0.52543 0.99851,-0.6314 0.25831,-0.10598 0.68133,-0.39109 0.93976,-0.63509 0.51726,-0.48836 1.28931,-1.08946 3.75906,-2.92943 2.32597,-1.73282 5.49303,-4.13629 6.4609,-4.90073 0.45226,-0.35722 1.43021,-1.09397 2.17321,-1.64093 0.74301,-0.54693 2.03812,-1.52557 2.87803,-2.17321 1.73064,-1.33453 3.81011,-2.7617 4.36833,-2.99917 0.44387,-0.18881 0.64289,-0.13481 1.27016,0.35975 0.25843,0.20376 0.68133,0.49945 0.93977,0.65343 0.25844,0.154 0.70775,0.48428 0.9985,0.73788 0.29074,0.2536 0.79261,0.6131 1.11596,0.79659 0.32337,0.1835 0.87842,0.60381 1.23345,0.93243 0.35503,0.32861 0.80466,0.68184 0.99851,0.78558 0.29202,0.15631 1.61164,1.03729 2.68714,1.7951 0.48706,0.3432 4.13315,3.09092 4.42718,3.33691 0.16469,0.13779 0.74794,0.50537 1.29952,0.81495 0.55158,0.30957 1.58191,1.01566 2.28701,1.56751 0.70514,0.55183 1.96838,1.45074 2.80829,2.00067 0.83991,0.54994 1.82369,1.28025 2.18422,1.62257 0.66697,0.63322 1.32704,0.93959 1.8722,0.86267 0.26885,-0.0379 0.29061,-0.0844 0.27532,-0.68647 -0.017,-0.66887 -0.92167,-3.55408 -2.1365,-6.82064 -0.51103,-1.37408 -1.10592,-3.15814 -2.85234,-8.56803 -0.19815,-0.61379 -0.58862,-1.61818 -0.87002,-2.23195 -0.29468,-0.64272 -0.54593,-1.38998 -0.59104,-1.76206 -0.0487,-0.4019 -0.20277,-0.8489 -0.41115,-1.17839 -0.18421,-0.29132 -0.37162,-0.76708 -0.41481,-1.05723 -0.0432,-0.29016 -0.20291,-0.75743 -0.35607,-1.03889 -0.22615,-0.4155 -0.2823,-0.6989 -0.29368,-1.50876 l -0.0147,-0.9985 0.45519,-0.46622 c 0.65185,-0.67333 0.96009,-0.80027 1.9456,-0.80027 0.83992,0 1.13248,0.0975 1.58586,0.53964 0.0793,0.0773 0.50223,0.25377 0.93977,0.39279 0.43758,0.13902 1.08734,0.4246 1.4427,0.63507 0.35534,0.21048 0.88396,0.48385 1.1747,0.60571 0.29074,0.12189 0.79292,0.36659 1.11597,0.54331 0.32305,0.1767 1.40672,0.56435 2.40816,0.86268 1.00144,0.29832 2.58111,0.78528 3.50943,1.07925 0.92833,0.29396 2.19702,0.63586 2.8193,0.7599 0.62229,0.12403 1.23639,0.27107 1.36561,0.33039 0.12922,0.0592 0.41995,0.14336 0.64609,0.18721 0.22612,0.0439 0.5433,0.14687 0.70482,0.2276 0.16152,0.0807 0.55799,0.18278 0.88103,0.22761 0.32305,0.0448 0.96488,0.21337 1.42801,0.37076 0.46311,0.15738 0.94996,0.28634 1.07925,0.28634 0.12931,0 0.56252,0.084 0.96547,0.18722 0.0422,0.0109 0.0856,0.0198 0.12849,0.0294 0.59944,0.0583 1.29096,0.0915 2.14017,0.10647 l 0.42583,0.007 c 1.83257,-0.0399 1.96787,-0.0575 2.46688,-0.34508 0.29074,-0.16754 0.94551,-0.48311 1.45371,-0.70115 0.58497,-0.25101 1.01598,-0.52341 1.1747,-0.73786 0.1379,-0.18632 0.63568,-0.74923 1.10864,-1.25181 0.81415,-0.86514 0.88206,-0.97738 1.25547,-2.12915 0.58778,-1.81296 0.70473,-2.64575 0.52493,-3.69667 -0.19855,-1.16085 -0.74263,-2.23546 -1.34722,-2.65411 -0.69279,-0.47971 -2.60532,-0.69748 -6.57837,-0.75621 -1.74444,-0.0258 -3.35673,-0.0989 -3.58286,-0.16152 -0.0549,-0.0152 -0.13016,-0.0308 -0.21659,-0.0441 -0.33194,-0.0202 -0.62368,-0.0397 -0.88838,-0.066 -0.035,-5.8e-4 -0.0726,-0.004 -0.10645,-0.004 -0.52809,0 -0.96663,-0.0781 -1.29219,-0.22394 -0.27104,-0.12145 -1.11464,-0.31247 -1.87586,-0.42583 -1.1539,-0.17186 -1.45208,-0.25895 -1.79143,-0.52862 -0.45874,-0.36457 -0.48713,-0.3723 -2.99183,-0.70115 -1.00144,-0.13147 -2.32299,-0.34078 -2.93677,-0.46621 -0.61379,-0.12542 -1.38028,-0.26374 -1.70333,-0.30469 -0.8709,-0.11039 -0.99851,-0.16267 -0.99851,-0.42217 0,-0.12983 -0.14468,-0.38329 -0.32303,-0.56165 l -0.23127,-0.2276 c -0.21451,-0.0566 -0.60076,-0.0913 -1.35459,-0.12115 l -2.73119,-0.055 c -2.19603,-0.0452 -5.02482,-0.13256 -6.28469,-0.19088 -1.25988,-0.0583 -4.74876,-0.16191 -7.75308,-0.23128 -2.70925,-0.0625 -5.10864,-0.14928 -7.36028,-0.2643 -0.23896,-0.01 -0.37933,-0.0187 -0.46254,-0.0258 -3.11587,-0.16663 -5.95994,-0.38866 -8.91678,-0.70115 -0.90452,-0.0956 -2.64896,-0.24026 -3.87652,-0.31938 -0.7042,-0.0454 -1.17273,-0.072 -1.51978,-0.0844 z m -4.90441,4.07476 c 2.379,-9.1e-4 2.72386,0.0823 2.72386,0.43317 0,0.0276 -0.0193,0.0501 -0.0698,0.0697 -0.004,0.003 -0.0104,0.005 -0.022,0.007 -0.2409,0.0769 -1.08086,0.0946 -3.40666,0.0954 -0.0244,3e-5 -0.0452,0 -0.0697,0 -0.0314,2e-5 -0.0452,0 -0.0771,0 -0.63265,-2.3e-4 -1.16958,-0.002 -1.60422,-0.007 -1.7078,-0.0114 -2.0617,-0.0519 -2.1108,-0.17988 -0.0388,-0.10124 -0.024,-0.22953 0.033,-0.28633 0.057,-0.0568 1.61042,-0.1118 3.45436,-0.12481 0.42787,-0.003 0.80917,-0.007 1.14902,-0.007 z m 20.20132,0.1909 c 0.577,-0.003 1.35432,0.003 2.19524,0.022 1.36713,0.0303 2.10935,0.0487 2.5513,0.0844 0.28072,0.0128 0.49108,0.0284 0.51394,0.0441 0.024,0.0163 0.0514,0.0425 0.0771,0.0735 0.0627,0.0344 0.10303,0.0756 0.1505,0.12849 0.19413,0.21657 0.44031,0.28557 1.417,0.39279 0.65015,0.0714 1.38228,0.0983 1.62624,0.0588 0.41671,-0.0676 0.44119,-0.0551 0.40379,0.20925 l -0.0405,0.28267 -4.93743,0.0294 c -3.48118,0.0216 -4.97826,-0.008 -5.06961,-0.0991 -0.15467,-0.15468 -0.0582,-1.07047 0.12481,-1.18939 0.0346,-0.0225 0.41048,-0.0342 0.9875,-0.0367 z"
       style="fill:#ff6600;fill-opacity:1;stroke:#ff6600;stroke-width:0.98594058;stroke-opacity:1" />
    <g
       transform="matrix(0.85312489,0,0,0.85312489,-69.963372,-156.34917)"
       id="g4669">
      <path
         inkscape:connector-curvature="0"
         d="m 768.75,281.1125 h 88 v 88 h -88 z m 0,29.33333 h 88 m -88,29.33333 h 88 M 798.08333,281.1125 v 88 m 29.33333,-88 v 88"
         style="fill:none;stroke:#ff6600;stroke-width:1.46666658;stroke-opacity:1"
         id="path4638" />
      <circle
         d="M 3.8,1 C 3.8,1.4418278 3.4418278,1.8 3,1.8 2.5581722,1.8 2.2,1.4418278 2.2,1 2.2,0.55817219 2.5581722,0.19999999 3,0.19999999 3.4418278,0.19999999 3.8,0.55817219 3.8,1 z"
         sodipodi:ry="0.80000001"
         sodipodi:rx="0.80000001"
         sodipodi:cy="1"
         sodipodi:cx="3"
         cx="3"
         cy="1"
         r="0.80000001"
         id="circle4640"
         transform="matrix(14.666666,0,0,14.666666,768.75,281.1125)"
         style="fill:#ff6600" />
      <circle
         d="M 5.8,3 C 5.8,3.4418278 5.4418278,3.8 5,3.8 4.5581722,3.8 4.2,3.4418278 4.2,3 4.2,2.5581722 4.5581722,2.2 5,2.2 5.4418278,2.2 5.8,2.5581722 5.8,3 z"
         sodipodi:ry="0.80000001"
         sodipodi:rx="0.80000001"
         sodipodi:cy="3"
         sodipodi:cx="5"
         cx="5"
         cy="3"
         r="0.80000001"
         id="circle4642"
         transform="matrix(14.666666,0,0,14.666666,768.75,281.1125)"
         style="fill:#ff6600" />
      <circle
         d="M 1.8,5 C 1.8,5.4418278 1.4418278,5.8 1,5.8 0.55817219,5.8 0.19999999,5.4418278 0.19999999,5 0.19999999,4.5581722 0.55817219,4.2 1,4.2 1.4418278,4.2 1.8,4.5581722 1.8,5 z"
         sodipodi:ry="0.80000001"
         sodipodi:rx="0.80000001"
         sodipodi:cy="5"
         sodipodi:cx="1"
         cx="1"
         cy="5"
         r="0.80000001"
         id="circle4644"
         transform="matrix(14.666666,0,0,14.666666,768.75,281.1125)"
         style="fill:#ff6600" />
      <circle
         d="M 3.8,5 C 3.8,5.4418278 3.4418278,5.8 3,5.8 2.5581722,5.8 2.2,5.4418278 2.2,5 2.2,4.5581722 2.5581722,4.2 3,4.2 3.4418278,4.2 3.8,4.5581722 3.8,5 z"
         sodipodi:ry="0.80000001"
         sodipodi:rx="0.80000001"
         sodipodi:cy="5"
         sodipodi:cx="3"
         cx="3"
         cy="5"
         r="0.80000001"
         id="circle4646"
         transform="matrix(14.666666,0,0,14.666666,768.75,281.1125)"
         style="fill:#ff6600" />
      <circle
         d="M 5.8,5 C 5.8,5.4418278 5.4418278,5.8 5,5.8 4.5581722,5.8 4.2,5.4418278 4.2,5 4.2,4.5581722 4.5581722,4.2 5,4.2 5.4418278,4.2 5.8,4.5581722 5.8,5 z"
         sodipodi:ry="0.80000001"
         sodipodi:rx="0.80000001"
         sodipodi:cy="5"
         sodipodi:cx="5"
         cx="5"
         cy="5"
         r="0.80000001"
         id="circle4648"
         transform="matrix(14.666666,0,0,14.666666,768.75,281.1125)"
         style="fill:#ff6600" />
    </g>
  </g>
</svg>
