<?xml version="1.0" encoding="UTF-8" standalone="no"?>
<!-- Created with Inkscape (http://www.inkscape.org/) -->

<svg
   width="56mm"
   height="56mm"
   viewBox="0 0 56 56"
   version="1.1"
   id="svg415"
   inkscape:version="1.2.2 (b0a8486541, 2022-12-01)"
   sodipodi:docname="timetravel_52x52mm.svg"
   xmlns:inkscape="http://www.inkscape.org/namespaces/inkscape"
   xmlns:sodipodi="http://sodipodi.sourceforge.net/DTD/sodipodi-0.dtd"
   xmlns="http://www.w3.org/2000/svg"
   xmlns:svg="http://www.w3.org/2000/svg"
   xmlns:rdf="http://www.w3.org/1999/02/22-rdf-syntax-ns#"
   xmlns:cc="http://creativecommons.org/ns#"
   xmlns:dc="http://purl.org/dc/elements/1.1/">
  <title
     id="title496">Time Travel</title>
  <defs
     id="defs409" />
  <sodipodi:namedview
     id="base"
     pagecolor="#ffffff"
     bordercolor="#666666"
     borderopacity="1.0"
     inkscape:pageopacity="0.0"
     inkscape:pageshadow="2"
     inkscape:zoom="1.979899"
     inkscape:cx="89.3985"
     inkscape:cy="103.54064"
     inkscape:document-units="mm"
     inkscape:current-layer="svg415"
     showgrid="false"
     fit-margin-top="0"
     fit-margin-left="0"
     fit-margin-right="0"
     fit-margin-bottom="0"
     inkscape:showpageshadow="0"
     inkscape:pagecheckerboard="1"
     inkscape:deskcolor="#d1d1d1"
     inkscape:window-width="1920"
     inkscape:window-height="1058"
     inkscape:window-x="0"
     inkscape:window-y="22"
     inkscape:window-maximized="1" />
  <metadata
     id="metadata412">
    <rdf:RDF>
      <cc:Work
         rdf:about="">
        <dc:format>image/svg+xml</dc:format>
        <dc:type
           rdf:resource="http://purl.org/dc/dcmitype/StillImage" />
        <cc:license
           rdf:resource="http://creativecommons.org/licenses/by-sa/4.0/" />
        <dc:title>Time Travel</dc:title>
        <dc:date>11.08.2017</dc:date>
        <dc:creator>
          <cc:Agent>
            <dc:title>das_mool (echo bW9vbEBtdHdlZy5kZQo= | base64 -d)</dc:title>
          </cc:Agent>
        </dc:creator>
        <dc:language>english</dc:language>
        <dc:publisher>
          <cc:Agent>
            <dc:title>das_mool</dc:title>
          </cc:Agent>
        </dc:publisher>
        <dc:description>Sticker saying:'interested in time travel? meet here last friday 7pm.' 
The font used is https://www.fontsquirrel.com/fonts/riffic
The printed sticker will be 52x52mm 
Cut is already incorporated
makes more sense in public spaces than on a laptop...
be excellent to each other!
</dc:description>
      </cc:Work>
      <cc:License
         rdf:about="http://creativecommons.org/licenses/by-sa/4.0/">
        <cc:permits
           rdf:resource="http://creativecommons.org/ns#Reproduction" />
        <cc:permits
           rdf:resource="http://creativecommons.org/ns#Distribution" />
        <cc:requires
           rdf:resource="http://creativecommons.org/ns#Notice" />
        <cc:requires
           rdf:resource="http://creativecommons.org/ns#Attribution" />
        <cc:permits
           rdf:resource="http://creativecommons.org/ns#DerivativeWorks" />
        <cc:requires
           rdf:resource="http://creativecommons.org/ns#ShareAlike" />
      </cc:License>
    </rdf:RDF>
  </metadata>
  <rect
     y="95.130951"
     x="88.416664"
     height="56"
     width="56"
     id="rect4415"
     style="display:inline;fill:#ffffff;fill-opacity:1;fill-rule:nonzero;stroke:none;stroke-width:3.96522;stroke-linecap:round;stroke-linejoin:round;stroke-miterlimit:4;stroke-dasharray:none;stroke-dashoffset:0;stroke-opacity:1"
     transform="translate(-88.416667,-95.130953)"
     inkscape:label="56x56 square" />
  <rect
     style="display:inline;fill:#ffffff;fill-opacity:1;fill-rule:nonzero;stroke:none;stroke-width:3.96522;stroke-linecap:round;stroke-linejoin:round;stroke-miterlimit:4;stroke-dasharray:none;stroke-dashoffset:0;stroke-opacity:1"
     id="rect4417"
     width="52.000004"
     height="52.000004"
     x="90.416664"
     y="97.130951"
     inkscape:label="52x52 square"
     transform="translate(-88.416667,-95.130953)" />
  <rect
     y="99.130951"
     x="92.416656"
     height="48"
     width="48"
     id="rect4419"
     style="display:inline;fill:#ffffff;fill-opacity:1;fill-rule:nonzero;stroke:none;stroke-width:3.96522;stroke-linecap:round;stroke-linejoin:round;stroke-miterlimit:4;stroke-dasharray:none;stroke-dashoffset:0;stroke-opacity:1"
     inkscape:label="48x48 square"
     transform="translate(-88.416667,-95.130953)" />
  <rect
     style="display:inline;fill:#000000;fill-opacity:1;fill-rule:nonzero;stroke:none;stroke-width:3.96522;stroke-linecap:round;stroke-linejoin:round;stroke-miterlimit:4;stroke-dasharray:none;stroke-dashoffset:0;stroke-opacity:1"
     id="rect4502"
     width="50"
     height="50"
     x="91.416664"
     y="98.130951"
     transform="translate(-88.416667,-95.130953)"
     inkscape:label="50x50 square " />
  <g
     transform="translate(-64.982148,-132.92851)"
     style="display:inline;fill:#ffffff"
     id="g4813"
     inkscape:label="Text"
     sodipodi:insensitive="true">
    <g
       style="display:inline;fill:#ffffff"
       id="g4338"
       inkscape:label="7pm."
       sodipodi:insensitive="true">
      <path
         d="m 89.297368,174.96363 h -3.661147 v 1.92515 l 1.847493,-0.0797 c -0.345137,0.70822 -0.703807,1.77552 -1.021873,2.81291 -0.230091,0.73813 -0.500786,1.78548 -0.744411,2.94257 h 1.590331 c 0.324835,-1.42641 0.561692,-2.32414 0.785016,-2.98247 0.365438,-1.06732 0.730876,-1.96505 1.238428,-2.86279 z"
         style="font-style:normal;font-variant:normal;font-weight:bold;font-stretch:normal;font-size:7.05556px;line-height:6.61458px;font-family:Riffic;-inkscape-font-specification:'Riffic, Bold';font-variant-ligatures:normal;font-variant-caps:normal;font-variant-numeric:normal;font-feature-settings:normal;text-align:center;letter-spacing:0px;word-spacing:0px;writing-mode:lr-tb;text-anchor:middle;fill:#ffffff;fill-opacity:1;stroke:none;stroke-width:0.264583px;stroke-linecap:butt;stroke-linejoin:miter;stroke-opacity:1"
         id="path4139"
         inkscape:connector-curvature="0" />
      <path
         d="m 91.743455,177.11819 c -0.35867,-0.0199 -0.825619,0.25936 -1.136918,0.6384 l -0.04737,-0.52866 -1.103082,-0.01 v 7.71054 h 1.339939 l -0.06091,-2.74306 c 0.270695,0.21944 0.595529,0.26932 0.832387,0.26932 0.954199,0 1.556494,-1.26681 1.556494,-2.80293 0,-1.42641 -0.51432,-2.47376 -1.380543,-2.53362 z m -0.311299,3.71065 c -0.392507,0 -0.737643,-0.4788 -0.737643,-1.05734 0,-0.54861 0.290997,-0.94761 0.676736,-0.94761 0.399275,0 0.663203,0.40897 0.663203,1.03739 0,0.5985 -0.243625,0.96756 -0.602296,0.96756 z"
         style="font-style:normal;font-variant:normal;font-weight:bold;font-stretch:normal;font-size:7.05556px;line-height:6.61458px;font-family:Riffic;-inkscape-font-specification:'Riffic, Bold';font-variant-ligatures:normal;font-variant-caps:normal;font-variant-numeric:normal;font-feature-settings:normal;text-align:center;letter-spacing:0px;word-spacing:0px;writing-mode:lr-tb;text-anchor:middle;fill:#ffffff;fill-opacity:1;stroke:none;stroke-width:0.264583px;stroke-linecap:butt;stroke-linejoin:miter;stroke-opacity:1"
         id="path4141"
         inkscape:connector-curvature="0" />
      <path
         d="m 98.724314,180.27025 c -0.0068,-2.1845 -0.372205,-3.10218 -1.211359,-3.10218 -0.588762,0 -0.940664,0.14963 -1.170755,0.51869 -0.23009,-0.33914 -0.588761,-0.49874 -1.048942,-0.46881 -0.358671,0.03 -0.663203,0.17955 -0.872991,0.41894 l -0.0068,-0.39899 -1.163987,0.0598 v 5.25674 h 1.272265 l -0.05413,-2.52363 0.0068,0.0199 c -0.03384,-0.798 0.121812,-1.24686 0.439879,-1.24686 0.277462,0 0.439879,0.34912 0.439879,0.96756 l 0.01353,2.76303 1.272265,-0.0199 v -2.47376 l 0.0068,0.03 c -0.03384,-0.71819 0.12858,-1.26681 0.372205,-1.26681 0.297765,0 0.392507,0.23941 0.392507,0.96756 l 0.0068,2.77301 h 1.31287 z"
         style="font-style:normal;font-variant:normal;font-weight:bold;font-stretch:normal;font-size:7.05556px;line-height:6.61458px;font-family:Riffic;-inkscape-font-specification:'Riffic, Bold';font-variant-ligatures:normal;font-variant-caps:normal;font-variant-numeric:normal;font-feature-settings:normal;text-align:center;letter-spacing:0px;word-spacing:0px;writing-mode:lr-tb;text-anchor:middle;fill:#ffffff;fill-opacity:1;stroke:none;stroke-width:0.264583px;stroke-linecap:butt;stroke-linejoin:miter;stroke-opacity:1"
         id="path4143"
         inkscape:connector-curvature="0" />
      <path
         d="m 99.59815,182.58441 c 0.42634,0 0.73088,-0.53864 0.73088,-1.20695 0,-0.69824 -0.331605,-1.10721 -0.703811,-1.10721 -0.406041,0 -0.785014,0.48876 -0.785014,1.14711 0,0.60846 0.318066,1.16705 0.757945,1.16705 z"
         style="font-style:normal;font-variant:normal;font-weight:bold;font-stretch:normal;font-size:7.05556px;line-height:6.61458px;font-family:Riffic;-inkscape-font-specification:'Riffic, Bold';font-variant-ligatures:normal;font-variant-caps:normal;font-variant-numeric:normal;font-feature-settings:normal;text-align:center;letter-spacing:0px;word-spacing:0px;writing-mode:lr-tb;text-anchor:middle;display:inline;fill:#ffffff;fill-opacity:1;stroke:none;stroke-width:0.264583px;stroke-linecap:butt;stroke-linejoin:miter;stroke-opacity:1"
         id="path4145"
         inkscape:connector-curvature="0" />
    </g>
    <g
       id="g4332"
       transform="matrix(1.1674407,0,0,1,-15.57011,-8.1249999e-7)"
       style="display:inline;fill:#ffffff;stroke-width:0.925513"
       inkscape:label="last friday"
       sodipodi:insensitive="true">
      <path
         d="m 73.778786,171.10311 v -5.60585 h -1.353474 v 7.60082 h 3.180663 v -1.99497 z"
         style="font-style:normal;font-variant:normal;font-weight:bold;font-stretch:normal;font-size:7.05556px;line-height:6.61458px;font-family:Riffic;-inkscape-font-specification:'Riffic, Bold';font-variant-ligatures:normal;font-variant-caps:normal;font-variant-numeric:normal;font-feature-settings:normal;text-align:center;letter-spacing:0px;word-spacing:0px;writing-mode:lr-tb;text-anchor:middle;fill:#ffffff;fill-opacity:1;stroke:none;stroke-width:0.244875px;stroke-linecap:butt;stroke-linejoin:miter;stroke-opacity:1"
         id="path4119"
         inkscape:connector-curvature="0" />
      <path
         d="m 79.53972,173.07813 1.353474,-0.4788 -1.590332,-7.08212 -1.353474,-0.0199 -2.219697,6.67315 1.353474,0.81794 0.433112,-1.58599 1.718912,0.01 z m -1.482054,-3.67075 0.487251,-1.78548 0.324834,1.79547 z"
         style="font-style:normal;font-variant:normal;font-weight:bold;font-stretch:normal;font-size:7.05556px;line-height:6.61458px;font-family:Riffic;-inkscape-font-specification:'Riffic, Bold';font-variant-ligatures:normal;font-variant-caps:normal;font-variant-numeric:normal;font-feature-settings:normal;text-align:center;letter-spacing:0px;word-spacing:0px;writing-mode:lr-tb;text-anchor:middle;fill:#ffffff;fill-opacity:1;stroke:none;stroke-width:0.244875px;stroke-linecap:butt;stroke-linejoin:miter;stroke-opacity:1"
         id="path4121"
         inkscape:connector-curvature="0" />
      <path
         d="m 82.887665,173.15792 c 1.13015,0 2.097884,-1.17702 2.097884,-2.71315 0,-1.42639 -0.812085,-2.17451 -1.881329,-2.17451 -0.345136,0 -0.730876,-0.0997 -0.730876,-0.37904 0,-0.24938 0.290997,-0.43889 0.615831,-0.43889 0.378972,0 0.778247,0.22941 1.204592,0.68826 l 0.764713,-1.52615 c -0.521088,-0.75809 -1.231661,-1.17704 -1.935468,-1.17704 -1.062477,0 -1.949003,1.02742 -1.949003,2.45382 0,1.3865 0.852689,2.38398 1.854259,2.38398 0.304532,0 0.581994,0.0898 0.581994,0.37905 0,0.24937 -0.236858,0.49874 -0.609063,0.49874 -0.399275,0 -0.812084,-0.28927 -1.103081,-0.76806 l -0.913595,1.47627 c 0.473716,0.79799 1.272266,1.29672 2.003142,1.29672 z"
         style="font-style:normal;font-variant:normal;font-weight:bold;font-stretch:normal;font-size:7.05556px;line-height:6.61458px;font-family:Riffic;-inkscape-font-specification:'Riffic, Bold';font-variant-ligatures:normal;font-variant-caps:normal;font-variant-numeric:normal;font-feature-settings:normal;text-align:center;letter-spacing:0px;word-spacing:0px;writing-mode:lr-tb;text-anchor:middle;fill:#ffffff;fill-opacity:1;stroke:none;stroke-width:0.244875px;stroke-linecap:butt;stroke-linejoin:miter;stroke-opacity:1"
         id="path4123"
         inkscape:connector-curvature="0" />
      <path
         d="m 89.326922,167.34259 -0.108278,-1.99496 -4.249908,0.14963 0.09474,1.99497 1.407613,-0.0499 0.01353,5.70561 1.33994,-0.0898 -0.01353,-5.66572 z"
         style="font-style:normal;font-variant:normal;font-weight:bold;font-stretch:normal;font-size:7.05556px;line-height:6.61458px;font-family:Riffic;-inkscape-font-specification:'Riffic, Bold';font-variant-ligatures:normal;font-variant-caps:normal;font-variant-numeric:normal;font-feature-settings:normal;text-align:center;letter-spacing:0px;word-spacing:0px;writing-mode:lr-tb;text-anchor:middle;fill:#ffffff;fill-opacity:1;stroke:none;stroke-width:0.244875px;stroke-linecap:butt;stroke-linejoin:miter;stroke-opacity:1"
         id="path4125"
         inkscape:connector-curvature="0" />
      <path
         d="m 94.710365,167.49223 v -1.99497 l -3.397219,0.0898 v 7.50107 h 1.353474 l -0.05413,-2.64333 1.67154,-0.03 -0.108278,-1.99498 -1.603867,0.03 -0.0203,-0.87779 z"
         style="font-style:normal;font-variant:normal;font-weight:bold;font-stretch:normal;font-size:7.05556px;line-height:6.61458px;font-family:Riffic;-inkscape-font-specification:'Riffic, Bold';font-variant-ligatures:normal;font-variant-caps:normal;font-variant-numeric:normal;font-feature-settings:normal;text-align:center;letter-spacing:0px;word-spacing:0px;writing-mode:lr-tb;text-anchor:middle;fill:#ffffff;fill-opacity:1;stroke:none;stroke-width:0.244875px;stroke-linecap:butt;stroke-linejoin:miter;stroke-opacity:1"
         id="path4127"
         inkscape:connector-curvature="0" />
      <path
         d="m 97.799881,170.60437 c 0.534621,-0.48876 0.900059,-1.31667 0.900059,-2.4139 0,-1.60596 -0.785014,-2.75307 -2.294138,-2.75307 -0.561692,0 -1.251964,0.1596 -1.576797,0.42892 l 0.05414,7.13201 h 1.353474 l -0.01353,-1.9052 c 0.06091,0.01 0.121813,0.01 0.182719,0.0199 0.297765,1.35658 1.285801,2.35407 2.273837,2.35407 v -1.99498 c -0.399275,0 -0.717342,-0.31918 -0.879758,-0.8678 z m -1.603867,-3.19195 c 0.08797,-0.0797 0.318066,-0.1596 0.473716,-0.1596 0.385739,0 0.676736,0.49875 0.676736,0.97754 0,0.74812 -0.703806,1.17702 -1.136918,0.93763 z"
         style="font-style:normal;font-variant:normal;font-weight:bold;font-stretch:normal;font-size:7.05556px;line-height:6.61458px;font-family:Riffic;-inkscape-font-specification:'Riffic, Bold';font-variant-ligatures:normal;font-variant-caps:normal;font-variant-numeric:normal;font-feature-settings:normal;text-align:center;letter-spacing:0px;word-spacing:0px;writing-mode:lr-tb;text-anchor:middle;fill:#ffffff;fill-opacity:1;stroke:none;stroke-width:0.244875px;stroke-linecap:butt;stroke-linejoin:miter;stroke-opacity:1"
         id="path4129"
         inkscape:connector-curvature="0" />
      <path
         d="m 98.820697,173.07813 h 1.312873 l 0.0406,-7.58087 h -1.312872 z"
         style="font-style:normal;font-variant:normal;font-weight:bold;font-stretch:normal;font-size:7.05556px;line-height:6.61458px;font-family:Riffic;-inkscape-font-specification:'Riffic, Bold';font-variant-ligatures:normal;font-variant-caps:normal;font-variant-numeric:normal;font-feature-settings:normal;text-align:center;letter-spacing:0px;word-spacing:0px;writing-mode:lr-tb;text-anchor:middle;fill:#ffffff;fill-opacity:1;stroke:none;stroke-width:0.244875px;stroke-linecap:butt;stroke-linejoin:miter;stroke-opacity:1"
         id="path4131"
         inkscape:connector-curvature="0" />
      <path
         d="m 101.65813,165.4374 c -0.43311,0 -0.77148,0.12964 -1.17076,0.37904 l -0.0541,7.23176 c 0.52108,0.0898 0.85945,0.0998 1.17752,0.0998 1.8881,0 3.24834,-1.05733 3.24834,-3.54106 0,-2.40394 -1.57003,-4.16949 -3.20097,-4.16949 z m 0.12181,5.60587 v -3.38148 c 0.69704,-0.21944 1.61063,0.41895 1.61063,1.63587 0,1.32666 -0.66997,1.77553 -1.61063,1.74561 z"
         style="font-style:normal;font-variant:normal;font-weight:bold;font-stretch:normal;font-size:7.05556px;line-height:6.61458px;font-family:Riffic;-inkscape-font-specification:'Riffic, Bold';font-variant-ligatures:normal;font-variant-caps:normal;font-variant-numeric:normal;font-feature-settings:normal;text-align:center;letter-spacing:0px;word-spacing:0px;writing-mode:lr-tb;text-anchor:middle;fill:#ffffff;fill-opacity:1;stroke:none;stroke-width:0.244875px;stroke-linecap:butt;stroke-linejoin:miter;stroke-opacity:1"
         id="path4133"
         inkscape:connector-curvature="0" />
      <path
         d="m 108.38035,173.07813 1.35347,-0.4788 -1.59033,-7.08212 -1.35347,-0.0199 -2.2197,6.67315 1.35347,0.81794 0.43311,-1.58599 1.71892,0.01 z m -1.48206,-3.67075 0.48725,-1.78548 0.32484,1.79547 z"
         style="font-style:normal;font-variant:normal;font-weight:bold;font-stretch:normal;font-size:7.05556px;line-height:6.61458px;font-family:Riffic;-inkscape-font-specification:'Riffic, Bold';font-variant-ligatures:normal;font-variant-caps:normal;font-variant-numeric:normal;font-feature-settings:normal;text-align:center;letter-spacing:0px;word-spacing:0px;writing-mode:lr-tb;text-anchor:middle;fill:#ffffff;fill-opacity:1;stroke:none;stroke-width:0.244875px;stroke-linecap:butt;stroke-linejoin:miter;stroke-opacity:1"
         id="path4135"
         inkscape:connector-curvature="0" />
      <path
         d="m 113.54089,165.94613 -1.35347,-0.48878 -1.04895,2.31416 -1.07601,-2.31416 -1.42115,0.86782 1.75952,3.38146 0.007,3.38147 h 1.35347 l -0.007,-3.21189 z"
         style="font-style:normal;font-variant:normal;font-weight:bold;font-stretch:normal;font-size:7.05556px;line-height:6.61458px;font-family:Riffic;-inkscape-font-specification:'Riffic, Bold';font-variant-ligatures:normal;font-variant-caps:normal;font-variant-numeric:normal;font-feature-settings:normal;text-align:center;letter-spacing:0px;word-spacing:0px;writing-mode:lr-tb;text-anchor:middle;fill:#ffffff;fill-opacity:1;stroke:none;stroke-width:0.244875px;stroke-linecap:butt;stroke-linejoin:miter;stroke-opacity:1"
         id="path4137"
         inkscape:connector-curvature="0" />
    </g>
    <g
       id="g4320"
       transform="matrix(1.3447567,0,0,1,-32.102584,-8.1249999e-7)"
       style="display:inline;fill:#ffffff;stroke-width:0.862339"
       inkscape:label="meet here"
       sodipodi:insensitive="true">
      <path
         d="m 80.806751,163.56187 -0.236857,-7.51104 h -0.805318 -1.312869 l -0.51432,4.06973 -0.757946,-4.00989 -1.035408,-0.0499 -0.974501,-0.0898 v 7.56092 l 1.353474,-0.01 0.03384,-4.07971 0.751178,4.18943 h 1.353474 l 0.649667,-4.4787 0.142116,4.4787 z"
         style="font-style:normal;font-variant:normal;font-weight:bold;font-stretch:normal;font-size:7.05556px;line-height:6.61458px;font-family:Riffic;-inkscape-font-specification:'Riffic, Bold';font-variant-ligatures:normal;font-variant-caps:normal;font-variant-numeric:normal;font-feature-settings:normal;text-align:center;letter-spacing:0px;word-spacing:0px;writing-mode:lr-tb;text-anchor:middle;fill:#ffffff;fill-opacity:1;stroke:none;stroke-width:0.228161px;stroke-linecap:butt;stroke-linejoin:miter;stroke-opacity:1"
         id="path4103"
         inkscape:connector-curvature="0" />
      <path
         d="m 82.453443,161.62676 -0.03384,-0.94761 1.888096,-0.0598 -0.06767,-1.99498 -1.901631,0.0598 -0.02707,-0.78801 2.287371,-0.0399 -0.09475,-1.99496 -3.573172,0.16956 0.175953,7.58087 3.573171,-0.11974 v -1.99498 z"
         style="font-style:normal;font-variant:normal;font-weight:bold;font-stretch:normal;font-size:7.05556px;line-height:6.61458px;font-family:Riffic;-inkscape-font-specification:'Riffic, Bold';font-variant-ligatures:normal;font-variant-caps:normal;font-variant-numeric:normal;font-feature-settings:normal;text-align:center;letter-spacing:0px;word-spacing:0px;writing-mode:lr-tb;text-anchor:middle;fill:#ffffff;fill-opacity:1;stroke:none;stroke-width:0.228161px;stroke-linecap:butt;stroke-linejoin:miter;stroke-opacity:1"
         id="path4105"
         inkscape:connector-curvature="0" />
      <path
         d="m 86.326176,161.62676 -0.03384,-0.94761 1.888096,-0.0598 -0.06767,-1.99498 -1.901631,0.0598 -0.02707,-0.78801 2.28737,-0.0399 -0.09474,-1.99496 -3.573172,0.16956 0.175952,7.58087 3.573171,-0.11974 v -1.99498 z"
         style="font-style:normal;font-variant:normal;font-weight:bold;font-stretch:normal;font-size:7.05556px;line-height:6.61458px;font-family:Riffic;-inkscape-font-specification:'Riffic, Bold';font-variant-ligatures:normal;font-variant-caps:normal;font-variant-numeric:normal;font-feature-settings:normal;text-align:center;letter-spacing:0px;word-spacing:0px;writing-mode:lr-tb;text-anchor:middle;fill:#ffffff;fill-opacity:1;stroke:none;stroke-width:0.228161px;stroke-linecap:butt;stroke-linejoin:miter;stroke-opacity:1"
         id="path4107"
         inkscape:connector-curvature="0" />
      <path
         d="m 92.902262,157.87623 -0.108278,-1.99497 -4.249908,0.14962 0.09474,1.99496 1.407613,-0.0499 0.01353,5.70561 1.339939,-0.0898 -0.01353,-5.6657 z"
         style="font-style:normal;font-variant:normal;font-weight:bold;font-stretch:normal;font-size:7.05556px;line-height:6.61458px;font-family:Riffic;-inkscape-font-specification:'Riffic, Bold';font-variant-ligatures:normal;font-variant-caps:normal;font-variant-numeric:normal;font-feature-settings:normal;text-align:center;letter-spacing:0px;word-spacing:0px;writing-mode:lr-tb;text-anchor:middle;fill:#ffffff;fill-opacity:1;stroke:none;stroke-width:0.228161px;stroke-linecap:butt;stroke-linejoin:miter;stroke-opacity:1"
         id="path4109"
         inkscape:connector-curvature="0" />
      <path
         d="m 97.771385,163.67161 1.353474,0.01 -0.03384,-7.65069 -1.353474,0.0399 0.01353,2.80292 -1.509124,-0.22941 v -2.60343 h -1.353474 v 7.56092 h 1.353474 v -2.9725 l 1.515892,0.23939 z"
         style="font-style:normal;font-variant:normal;font-weight:bold;font-stretch:normal;font-size:7.05556px;line-height:6.61458px;font-family:Riffic;-inkscape-font-specification:'Riffic, Bold';font-variant-ligatures:normal;font-variant-caps:normal;font-variant-numeric:normal;font-feature-settings:normal;text-align:center;letter-spacing:0px;word-spacing:0px;writing-mode:lr-tb;text-anchor:middle;fill:#ffffff;fill-opacity:1;stroke:none;stroke-width:0.228161px;stroke-linecap:butt;stroke-linejoin:miter;stroke-opacity:1"
         id="path4111"
         inkscape:connector-curvature="0" />
      <path
         d="m 100.77292,161.62676 -0.0338,-0.94761 1.88809,-0.0598 -0.0677,-1.99498 -1.90163,0.0598 -0.0271,-0.78801 2.28737,-0.0399 -0.0948,-1.99496 -3.573169,0.16956 0.175951,7.58087 3.573168,-0.11974 v -1.99498 z"
         style="font-style:normal;font-variant:normal;font-weight:bold;font-stretch:normal;font-size:7.05556px;line-height:6.61458px;font-family:Riffic;-inkscape-font-specification:'Riffic, Bold';font-variant-ligatures:normal;font-variant-caps:normal;font-variant-numeric:normal;font-feature-settings:normal;text-align:center;letter-spacing:0px;word-spacing:0px;writing-mode:lr-tb;text-anchor:middle;fill:#ffffff;fill-opacity:1;stroke:none;stroke-width:0.228161px;stroke-linecap:butt;stroke-linejoin:miter;stroke-opacity:1"
         id="path4113"
         inkscape:connector-curvature="0" />
      <path
         d="m 106.09387,161.13799 c 0.53463,-0.48877 0.90006,-1.31668 0.90006,-2.41391 0,-1.60594 -0.78501,-2.75305 -2.29413,-2.75305 -0.5617,0 -1.25197,0.1596 -1.5768,0.42892 l 0.0541,7.13201 h 1.35348 l -0.0135,-1.9052 c 0.0609,0.01 0.12182,0.01 0.18272,0.0199 0.29777,1.35657 1.2858,2.35406 2.27384,2.35406 v -1.99497 c -0.39928,0 -0.71734,-0.3192 -0.87976,-0.86782 z m -1.60386,-3.19194 c 0.088,-0.0799 0.31806,-0.1596 0.47371,-0.1596 0.38574,0 0.67674,0.49875 0.67674,0.97753 0,0.74812 -0.70381,1.17704 -1.13692,0.93763 z"
         style="font-style:normal;font-variant:normal;font-weight:bold;font-stretch:normal;font-size:7.05556px;line-height:6.61458px;font-family:Riffic;-inkscape-font-specification:'Riffic, Bold';font-variant-ligatures:normal;font-variant-caps:normal;font-variant-numeric:normal;font-feature-settings:normal;text-align:center;letter-spacing:0px;word-spacing:0px;writing-mode:lr-tb;text-anchor:middle;fill:#ffffff;fill-opacity:1;stroke:none;stroke-width:0.228161px;stroke-linecap:butt;stroke-linejoin:miter;stroke-opacity:1"
         id="path4115"
         inkscape:connector-curvature="0" />
      <path
         d="m 108.63735,161.62676 -0.0338,-0.94761 1.88809,-0.0598 -0.0677,-1.99498 -1.90164,0.0598 -0.0271,-0.78801 2.28737,-0.0399 -0.0948,-1.99496 -3.57317,0.16956 0.17595,7.58087 3.57317,-0.11974 v -1.99498 z"
         style="font-style:normal;font-variant:normal;font-weight:bold;font-stretch:normal;font-size:7.05556px;line-height:6.61458px;font-family:Riffic;-inkscape-font-specification:'Riffic, Bold';font-variant-ligatures:normal;font-variant-caps:normal;font-variant-numeric:normal;font-feature-settings:normal;text-align:center;letter-spacing:0px;word-spacing:0px;writing-mode:lr-tb;text-anchor:middle;fill:#ffffff;fill-opacity:1;stroke:none;stroke-width:0.228161px;stroke-linecap:butt;stroke-linejoin:miter;stroke-opacity:1"
         id="path4117"
         inkscape:connector-curvature="0" />
    </g>
    <g
       id="g4310"
       transform="matrix(1.0635766,0,0,1,-5.9109268,-8.1249999e-7)"
       style="display:inline;fill:#ffffff;stroke-width:0.969651"
       inkscape:label="time travel?"
       sodipodi:insensitive="true">
      <path
         d="m 74.774434,148.40984 -0.108278,-1.99496 -4.249907,0.14962 0.09475,1.99496 1.407614,-0.0499 0.01353,5.7056 1.339939,-0.0898 -0.01353,-5.6657 z"
         style="font-style:normal;font-variant:normal;font-weight:bold;font-stretch:normal;font-size:7.05556px;line-height:6.61458px;font-family:Riffic;-inkscape-font-specification:'Riffic, Bold';font-variant-ligatures:normal;font-variant-caps:normal;font-variant-numeric:normal;font-feature-settings:normal;text-align:center;letter-spacing:0px;word-spacing:0px;writing-mode:lr-tb;text-anchor:middle;fill:#ffffff;fill-opacity:1;stroke:none;stroke-width:0.256554px;stroke-linecap:butt;stroke-linejoin:miter;stroke-opacity:1"
         id="path4081"
         inkscape:connector-curvature="0" />
      <path
         d="m 74.949857,154.14537 h 1.31287 l 0.0406,-7.58087 h -1.312869 z"
         style="font-style:normal;font-variant:normal;font-weight:bold;font-stretch:normal;font-size:7.05556px;line-height:6.61458px;font-family:Riffic;-inkscape-font-specification:'Riffic, Bold';font-variant-ligatures:normal;font-variant-caps:normal;font-variant-numeric:normal;font-feature-settings:normal;text-align:center;letter-spacing:0px;word-spacing:0px;writing-mode:lr-tb;text-anchor:middle;fill:#ffffff;fill-opacity:1;stroke:none;stroke-width:0.256554px;stroke-linecap:butt;stroke-linejoin:miter;stroke-opacity:1"
         id="path4083"
         inkscape:connector-curvature="0" />
      <path
         d="m 82.267287,154.0955 -0.236857,-7.51106 h -0.805317 -1.31287 l -0.51432,4.06974 -0.757945,-4.00988 -1.035408,-0.0499 -0.974501,-0.0898 v 7.56093 l 1.353474,-0.01 0.03384,-4.07971 0.751178,4.18944 h 1.353474 l 0.649667,-4.4787 0.142115,4.4787 z"
         style="font-style:normal;font-variant:normal;font-weight:bold;font-stretch:normal;font-size:7.05556px;line-height:6.61458px;font-family:Riffic;-inkscape-font-specification:'Riffic, Bold';font-variant-ligatures:normal;font-variant-caps:normal;font-variant-numeric:normal;font-feature-settings:normal;text-align:center;letter-spacing:0px;word-spacing:0px;writing-mode:lr-tb;text-anchor:middle;fill:#ffffff;fill-opacity:1;stroke:none;stroke-width:0.256554px;stroke-linecap:butt;stroke-linejoin:miter;stroke-opacity:1"
         id="path4085"
         inkscape:connector-curvature="0" />
      <path
         d="m 83.913978,152.16038 -0.03384,-0.94761 1.888097,-0.0598 -0.06767,-1.99497 -1.901631,0.0598 -0.02707,-0.78801 2.287371,-0.0399 -0.09475,-1.99496 -3.573171,0.16956 0.175951,7.58087 3.573172,-0.11974 v -1.99497 z"
         style="font-style:normal;font-variant:normal;font-weight:bold;font-stretch:normal;font-size:7.05556px;line-height:6.61458px;font-family:Riffic;-inkscape-font-specification:'Riffic, Bold';font-variant-ligatures:normal;font-variant-caps:normal;font-variant-numeric:normal;font-feature-settings:normal;text-align:center;letter-spacing:0px;word-spacing:0px;writing-mode:lr-tb;text-anchor:middle;fill:#ffffff;fill-opacity:1;stroke:none;stroke-width:0.256554px;stroke-linecap:butt;stroke-linejoin:miter;stroke-opacity:1"
         id="path4087"
         inkscape:connector-curvature="0" />
      <path
         d="m 92.48591,148.40984 -0.108278,-1.99496 -4.249908,0.14962 0.09475,1.99496 1.407612,-0.0499 0.01353,5.7056 1.339939,-0.0898 -0.01353,-5.6657 z"
         style="font-style:normal;font-variant:normal;font-weight:bold;font-stretch:normal;font-size:7.05556px;line-height:6.61458px;font-family:Riffic;-inkscape-font-specification:'Riffic, Bold';font-variant-ligatures:normal;font-variant-caps:normal;font-variant-numeric:normal;font-feature-settings:normal;text-align:center;letter-spacing:0px;word-spacing:0px;writing-mode:lr-tb;text-anchor:middle;fill:#ffffff;fill-opacity:1;stroke:none;stroke-width:0.256554px;stroke-linecap:butt;stroke-linejoin:miter;stroke-opacity:1"
         id="path4089"
         inkscape:connector-curvature="0" />
      <path
         d="m 95.579338,151.67162 c 0.534622,-0.48877 0.90006,-1.31669 0.90006,-2.41392 0,-1.60594 -0.785015,-2.75305 -2.294139,-2.75305 -0.561692,0 -1.251963,0.1596 -1.576797,0.42892 l 0.05414,7.132 h 1.353475 l -0.01353,-1.90519 c 0.06091,0.01 0.121813,0.01 0.182719,0.0199 0.297765,1.35658 1.285801,2.35405 2.273837,2.35405 v -1.99496 c -0.399275,0 -0.717342,-0.3192 -0.879758,-0.86781 z m -1.603867,-3.19195 c 0.08797,-0.0797 0.318066,-0.1596 0.473716,-0.1596 0.38574,0 0.676737,0.49874 0.676737,0.97754 0,0.7481 -0.703807,1.17702 -1.136919,0.93763 z"
         style="font-style:normal;font-variant:normal;font-weight:bold;font-stretch:normal;font-size:7.05556px;line-height:6.61458px;font-family:Riffic;-inkscape-font-specification:'Riffic, Bold';font-variant-ligatures:normal;font-variant-caps:normal;font-variant-numeric:normal;font-feature-settings:normal;text-align:center;letter-spacing:0px;word-spacing:0px;writing-mode:lr-tb;text-anchor:middle;fill:#ffffff;fill-opacity:1;stroke:none;stroke-width:0.256554px;stroke-linecap:butt;stroke-linejoin:miter;stroke-opacity:1"
         id="path4091"
         inkscape:connector-curvature="0" />
      <path
         d="m 100.41018,154.14537 1.35348,-0.47879 -1.59033,-7.08214 -1.353478,-0.0199 -2.219698,6.67317 1.353474,0.81793 0.433112,-1.586 1.71891,0.01 z m -1.482051,-3.67074 0.48725,-1.78549 0.324834,1.79547 z"
         style="font-style:normal;font-variant:normal;font-weight:bold;font-stretch:normal;font-size:7.05556px;line-height:6.61458px;font-family:Riffic;-inkscape-font-specification:'Riffic, Bold';font-variant-ligatures:normal;font-variant-caps:normal;font-variant-numeric:normal;font-feature-settings:normal;text-align:center;letter-spacing:0px;word-spacing:0px;writing-mode:lr-tb;text-anchor:middle;fill:#ffffff;fill-opacity:1;stroke:none;stroke-width:0.256554px;stroke-linecap:butt;stroke-linejoin:miter;stroke-opacity:1"
         id="path4093"
         inkscape:connector-curvature="0" />
      <path
         d="m 104.17665,146.5645 -0.81209,4.37895 -1.33994,-4.45875 -1.35347,0.91769 2.13849,7.06217 1.36701,-0.35909 1.3264,-7.00233 z"
         style="font-style:normal;font-variant:normal;font-weight:bold;font-stretch:normal;font-size:7.05556px;line-height:6.61458px;font-family:Riffic;-inkscape-font-specification:'Riffic, Bold';font-variant-ligatures:normal;font-variant-caps:normal;font-variant-numeric:normal;font-feature-settings:normal;text-align:center;letter-spacing:0px;word-spacing:0px;writing-mode:lr-tb;text-anchor:middle;fill:#ffffff;fill-opacity:1;stroke:none;stroke-width:0.256554px;stroke-linecap:butt;stroke-linejoin:miter;stroke-opacity:1"
         id="path4095"
         inkscape:connector-curvature="0" />
      <path
         d="m 107.15038,152.16038 -0.0338,-0.94761 1.88809,-0.0598 -0.0677,-1.99497 -1.90163,0.0598 -0.0271,-0.78801 2.28737,-0.0399 -0.0948,-1.99496 -3.57317,0.16956 0.17596,7.58087 3.57317,-0.11974 v -1.99497 z"
         style="font-style:normal;font-variant:normal;font-weight:bold;font-stretch:normal;font-size:7.05556px;line-height:6.61458px;font-family:Riffic;-inkscape-font-specification:'Riffic, Bold';font-variant-ligatures:normal;font-variant-caps:normal;font-variant-numeric:normal;font-feature-settings:normal;text-align:center;letter-spacing:0px;word-spacing:0px;writing-mode:lr-tb;text-anchor:middle;fill:#ffffff;fill-opacity:1;stroke:none;stroke-width:0.256554px;stroke-linecap:butt;stroke-linejoin:miter;stroke-opacity:1"
         id="path4097"
         inkscape:connector-curvature="0" />
      <path
         d="m 110.85393,152.17035 v -5.60585 h -1.35348 v 7.60083 h 3.18067 v -1.99498 z"
         style="font-style:normal;font-variant:normal;font-weight:bold;font-stretch:normal;font-size:7.05556px;line-height:6.61458px;font-family:Riffic;-inkscape-font-specification:'Riffic, Bold';font-variant-ligatures:normal;font-variant-caps:normal;font-variant-numeric:normal;font-feature-settings:normal;text-align:center;letter-spacing:0px;word-spacing:0px;writing-mode:lr-tb;text-anchor:middle;fill:#ffffff;fill-opacity:1;stroke:none;stroke-width:0.256554px;stroke-linecap:butt;stroke-linejoin:miter;stroke-opacity:1"
         id="path4099"
         inkscape:connector-curvature="0" />
      <path
         d="m 114.12584,151.2028 c 0.71734,0 1.42115,-0.98751 1.42115,-2.03487 0,-1.5461 -0.65643,-2.66328 -1.69184,-2.66328 -0.80532,0 -1.5362,0.87779 -1.60387,2.0249 l 0.89329,0.53864 c 0.0203,-0.4788 0.27747,-0.84786 0.59553,-0.84786 0.29777,0 0.52109,0.31918 0.52109,0.76805 0,0.4788 -0.27746,0.79799 -0.71057,0.79799 -0.13535,0 -0.29777,-0.0399 -0.48049,-0.11974 v 1.985 l 1.06925,0.12964 z m -0.51432,2.98248 c 0.42635,0 0.73088,-0.53864 0.73088,-1.20697 0,-0.69823 -0.3316,-1.1072 -0.70381,-1.1072 -0.40604,0 -0.78501,0.48877 -0.78501,1.14711 0,0.60847 0.31806,1.16706 0.75794,1.16706 z"
         style="font-style:normal;font-variant:normal;font-weight:bold;font-stretch:normal;font-size:7.05556px;line-height:6.61458px;font-family:Riffic;-inkscape-font-specification:'Riffic, Bold';font-variant-ligatures:normal;font-variant-caps:normal;font-variant-numeric:normal;font-feature-settings:normal;text-align:center;letter-spacing:0px;word-spacing:0px;writing-mode:lr-tb;text-anchor:middle;fill:#ffffff;fill-opacity:1;stroke:none;stroke-width:0.256554px;stroke-linecap:butt;stroke-linejoin:miter;stroke-opacity:1"
         id="path4101"
         inkscape:connector-curvature="0" />
    </g>
    <g
       style="display:inline;fill:#ffffff"
       id="g4297"
       inkscape:label="interested in"
       sodipodi:insensitive="true">
      <path
         d="m 68.982148,144.679 h 1.31287 l 0.0406,-7.58087 H 69.02275 Z"
         style="font-style:normal;font-variant:normal;font-weight:bold;font-stretch:normal;font-size:7.05556px;line-height:6.61458px;font-family:Riffic;-inkscape-font-specification:'Riffic, Bold';font-variant-ligatures:normal;font-variant-caps:normal;font-variant-numeric:normal;font-feature-settings:normal;text-align:center;letter-spacing:0px;word-spacing:0px;writing-mode:lr-tb;text-anchor:middle;fill:#ffffff;fill-opacity:1;stroke:none;stroke-width:0.264583px;stroke-linecap:butt;stroke-linejoin:miter;stroke-opacity:1"
         id="path4057"
         inkscape:connector-curvature="0" />
      <path
         d="m 74.100182,137.04825 -0.02031,4.17946 -2.172326,-4.19941 -1.31287,-0.0799 0.04737,7.79035 1.312869,-0.0698 -0.02707,-4.22932 2.131721,4.2393 h 1.31287 l 0.0406,-7.70057 z"
         style="font-style:normal;font-variant:normal;font-weight:bold;font-stretch:normal;font-size:7.05556px;line-height:6.61458px;font-family:Riffic;-inkscape-font-specification:'Riffic, Bold';font-variant-ligatures:normal;font-variant-caps:normal;font-variant-numeric:normal;font-feature-settings:normal;text-align:center;letter-spacing:0px;word-spacing:0px;writing-mode:lr-tb;text-anchor:middle;fill:#ffffff;fill-opacity:1;stroke:none;stroke-width:0.264583px;stroke-linecap:butt;stroke-linejoin:miter;stroke-opacity:1"
         id="path4059"
         inkscape:connector-curvature="0" />
      <path
         d="m 79.896223,138.94346 -0.108278,-1.99497 -4.249908,0.14964 0.09475,1.99496 1.407613,-0.0499 0.01353,5.7056 1.339939,-0.0898 -0.01353,-5.66571 z"
         style="font-style:normal;font-variant:normal;font-weight:bold;font-stretch:normal;font-size:7.05556px;line-height:6.61458px;font-family:Riffic;-inkscape-font-specification:'Riffic, Bold';font-variant-ligatures:normal;font-variant-caps:normal;font-variant-numeric:normal;font-feature-settings:normal;text-align:center;letter-spacing:0px;word-spacing:0px;writing-mode:lr-tb;text-anchor:middle;fill:#ffffff;fill-opacity:1;stroke:none;stroke-width:0.264583px;stroke-linecap:butt;stroke-linejoin:miter;stroke-opacity:1"
         id="path4061"
         inkscape:connector-curvature="0" />
      <path
         d="m 81.514998,142.694 -0.03384,-0.94761 1.888096,-0.0598 -0.06768,-1.99496 -1.901631,0.0598 -0.02707,-0.78801 2.287371,-0.0399 -0.09475,-1.99497 -3.573171,0.16958 0.175951,7.58088 3.573171,-0.11975 v -1.99497 z"
         style="font-style:normal;font-variant:normal;font-weight:bold;font-stretch:normal;font-size:7.05556px;line-height:6.61458px;font-family:Riffic;-inkscape-font-specification:'Riffic, Bold';font-variant-ligatures:normal;font-variant-caps:normal;font-variant-numeric:normal;font-feature-settings:normal;text-align:center;letter-spacing:0px;word-spacing:0px;writing-mode:lr-tb;text-anchor:middle;fill:#ffffff;fill-opacity:1;stroke:none;stroke-width:0.264583px;stroke-linecap:butt;stroke-linejoin:miter;stroke-opacity:1"
         id="path4063"
         inkscape:connector-curvature="0" />
      <path
         d="m 86.835948,142.20523 c 0.534623,-0.48876 0.900061,-1.31667 0.900061,-2.4139 0,-1.60595 -0.785015,-2.75306 -2.294138,-2.75306 -0.561692,0 -1.251964,0.1596 -1.576797,0.42892 l 0.05413,7.132 h 1.353474 l -0.01353,-1.90519 c 0.06091,0.01 0.121813,0.01 0.182719,0.0199 0.297764,1.35659 1.2858,2.35406 2.273836,2.35406 V 143.073 c -0.399275,0 -0.717341,-0.31919 -0.879758,-0.86781 z m -1.603866,-3.19195 c 0.08797,-0.0797 0.318067,-0.15959 0.473716,-0.15959 0.38574,0 0.676737,0.49874 0.676737,0.97754 0,0.7481 -0.703807,1.17702 -1.136918,0.93763 z"
         style="font-style:normal;font-variant:normal;font-weight:bold;font-stretch:normal;font-size:7.05556px;line-height:6.61458px;font-family:Riffic;-inkscape-font-specification:'Riffic, Bold';font-variant-ligatures:normal;font-variant-caps:normal;font-variant-numeric:normal;font-feature-settings:normal;text-align:center;letter-spacing:0px;word-spacing:0px;writing-mode:lr-tb;text-anchor:middle;fill:#ffffff;fill-opacity:1;stroke:none;stroke-width:0.264583px;stroke-linecap:butt;stroke-linejoin:miter;stroke-opacity:1"
         id="path4065"
         inkscape:connector-curvature="0" />
      <path
         d="m 89.379423,142.694 -0.03384,-0.94761 1.888096,-0.0598 -0.06767,-1.99496 -1.90163,0.0598 -0.02707,-0.78801 2.287371,-0.0399 -0.09474,-1.99497 -3.573171,0.16958 0.175951,7.58088 3.573172,-0.11975 v -1.99497 z"
         style="font-style:normal;font-variant:normal;font-weight:bold;font-stretch:normal;font-size:7.05556px;line-height:6.61458px;font-family:Riffic;-inkscape-font-specification:'Riffic, Bold';font-variant-ligatures:normal;font-variant-caps:normal;font-variant-numeric:normal;font-feature-settings:normal;text-align:center;letter-spacing:0px;word-spacing:0px;writing-mode:lr-tb;text-anchor:middle;fill:#ffffff;fill-opacity:1;stroke:none;stroke-width:0.264583px;stroke-linecap:butt;stroke-linejoin:miter;stroke-opacity:1"
         id="path4067"
         inkscape:connector-curvature="0" />
      <path
         d="m 93.73264,144.75879 c 1.130151,0 2.097885,-1.17702 2.097885,-2.71315 0,-1.4264 -0.812085,-2.17452 -1.881329,-2.17452 -0.345136,0 -0.730876,-0.0998 -0.730876,-0.37904 0,-0.24937 0.290997,-0.4389 0.615831,-0.4389 0.378972,0 0.778247,0.22943 1.204592,0.68827 l 0.764712,-1.52615 c -0.521087,-0.75808 -1.231661,-1.17703 -1.935468,-1.17703 -1.062477,0 -1.949002,1.0274 -1.949002,2.45381 0,1.3865 0.852688,2.38399 1.854259,2.38399 0.304532,0 0.581993,0.0898 0.581993,0.37904 0,0.24937 -0.236857,0.49875 -0.609063,0.49875 -0.399274,0 -0.812084,-0.28929 -1.103081,-0.76807 l -0.913594,1.47627 c 0.473716,0.79798 1.272265,1.29673 2.003141,1.29673 z"
         style="font-style:normal;font-variant:normal;font-weight:bold;font-stretch:normal;font-size:7.05556px;line-height:6.61458px;font-family:Riffic;-inkscape-font-specification:'Riffic, Bold';font-variant-ligatures:normal;font-variant-caps:normal;font-variant-numeric:normal;font-feature-settings:normal;text-align:center;letter-spacing:0px;word-spacing:0px;writing-mode:lr-tb;text-anchor:middle;fill:#ffffff;fill-opacity:1;stroke:none;stroke-width:0.264583px;stroke-linecap:butt;stroke-linejoin:miter;stroke-opacity:1"
         id="path4069"
         inkscape:connector-curvature="0" />
      <path
         d="m 100.1719,138.94346 -0.10828,-1.99497 -4.249909,0.14964 0.09475,1.99496 1.407614,-0.0499 0.01353,5.7056 1.339939,-0.0898 -0.01353,-5.66571 z"
         style="font-style:normal;font-variant:normal;font-weight:bold;font-stretch:normal;font-size:7.05556px;line-height:6.61458px;font-family:Riffic;-inkscape-font-specification:'Riffic, Bold';font-variant-ligatures:normal;font-variant-caps:normal;font-variant-numeric:normal;font-feature-settings:normal;text-align:center;letter-spacing:0px;word-spacing:0px;writing-mode:lr-tb;text-anchor:middle;fill:#ffffff;fill-opacity:1;stroke:none;stroke-width:0.264583px;stroke-linecap:butt;stroke-linejoin:miter;stroke-opacity:1"
         id="path4071"
         inkscape:connector-curvature="0" />
      <path
         d="m 101.79067,142.694 -0.0338,-0.94761 1.8881,-0.0598 -0.0677,-1.99496 -1.90163,0.0598 -0.0271,-0.78801 2.28737,-0.0399 -0.0947,-1.99497 -3.57317,0.16958 0.17595,7.58088 3.57317,-0.11975 v -1.99497 z"
         style="font-style:normal;font-variant:normal;font-weight:bold;font-stretch:normal;font-size:7.05556px;line-height:6.61458px;font-family:Riffic;-inkscape-font-specification:'Riffic, Bold';font-variant-ligatures:normal;font-variant-caps:normal;font-variant-numeric:normal;font-feature-settings:normal;text-align:center;letter-spacing:0px;word-spacing:0px;writing-mode:lr-tb;text-anchor:middle;fill:#ffffff;fill-opacity:1;stroke:none;stroke-width:0.264583px;stroke-linecap:butt;stroke-linejoin:miter;stroke-opacity:1"
         id="path4073"
         inkscape:connector-curvature="0" />
      <path
         d="m 105.36564,137.03827 c -0.43311,0 -0.77148,0.12964 -1.17075,0.37904 l -0.0541,7.23176 c 0.52109,0.0898 0.85946,0.0998 1.17752,0.0998 1.8881,0 3.24834,-1.05734 3.24834,-3.54108 0,-2.40392 -1.57003,-4.16948 -3.20096,-4.16948 z m 0.12181,5.60585 v -3.38146 c 0.69704,-0.21945 1.61064,0.41894 1.61064,1.63587 0,1.32665 -0.66997,1.77552 -1.61064,1.74559 z"
         style="font-style:normal;font-variant:normal;font-weight:bold;font-stretch:normal;font-size:7.05556px;line-height:6.61458px;font-family:Riffic;-inkscape-font-specification:'Riffic, Bold';font-variant-ligatures:normal;font-variant-caps:normal;font-variant-numeric:normal;font-feature-settings:normal;text-align:center;letter-spacing:0px;word-spacing:0px;writing-mode:lr-tb;text-anchor:middle;fill:#ffffff;fill-opacity:1;stroke:none;stroke-width:0.264583px;stroke-linecap:butt;stroke-linejoin:miter;stroke-opacity:1"
         id="path4075"
         inkscape:connector-curvature="0" />
      <path
         d="m 110.55125,144.679 h 1.31287 l 0.0406,-7.58087 h -1.31287 z"
         style="font-style:normal;font-variant:normal;font-weight:bold;font-stretch:normal;font-size:7.05556px;line-height:6.61458px;font-family:Riffic;-inkscape-font-specification:'Riffic, Bold';font-variant-ligatures:normal;font-variant-caps:normal;font-variant-numeric:normal;font-feature-settings:normal;text-align:center;letter-spacing:0px;word-spacing:0px;writing-mode:lr-tb;text-anchor:middle;fill:#ffffff;fill-opacity:1;stroke:none;stroke-width:0.264583px;stroke-linecap:butt;stroke-linejoin:miter;stroke-opacity:1"
         id="path4077"
         inkscape:connector-curvature="0" />
      <path
         d="m 115.66928,137.04825 -0.0203,4.17946 -2.17233,-4.19941 -1.31287,-0.0799 0.0474,7.79035 1.31287,-0.0698 -0.0271,-4.22932 2.13173,4.2393 h 1.31287 l 0.0406,-7.70057 z"
         style="font-style:normal;font-variant:normal;font-weight:bold;font-stretch:normal;font-size:7.05556px;line-height:6.61458px;font-family:Riffic;-inkscape-font-specification:'Riffic, Bold';font-variant-ligatures:normal;font-variant-caps:normal;font-variant-numeric:normal;font-feature-settings:normal;text-align:center;letter-spacing:0px;word-spacing:0px;writing-mode:lr-tb;text-anchor:middle;fill:#ffffff;fill-opacity:1;stroke:none;stroke-width:0.264583px;stroke-linecap:butt;stroke-linejoin:miter;stroke-opacity:1"
         id="path4079"
         inkscape:connector-curvature="0" />
    </g>
  </g>
</svg>
