<?xml version="1.0" encoding="UTF-8" standalone="no"?>
<svg
   xmlns:dc="http://purl.org/dc/elements/1.1/"
   xmlns:cc="http://creativecommons.org/ns#"
   xmlns:rdf="http://www.w3.org/1999/02/22-rdf-syntax-ns#"
   xmlns:svg="http://www.w3.org/2000/svg"
   xmlns="http://www.w3.org/2000/svg"
   xmlns:sodipodi="http://sodipodi.sourceforge.net/DTD/sodipodi-0.dtd"
   xmlns:inkscape="http://www.inkscape.org/namespaces/inkscape"
   inkscape:export-ydpi="600"
   inkscape:export-xdpi="600"
   inkscape:export-filename="/home/mgr/brokencomputers.png"
   sodipodi:docname="all_computers_are_broken_nofont.svg"
   inkscape:version="1.0 (4035a4fb49, 2020-05-01)"
   id="svg8"
   version="1.1"
   viewBox="0 0 107.95 35.052001"
   height="1.38in"
   width="4.25in">
  <defs
     id="defs2" />
  <sodipodi:namedview
     inkscape:document-rotation="0"
     units="in"
     inkscape:window-maximized="1"
     inkscape:window-y="0"
     inkscape:window-x="0"
     inkscape:window-height="1031"
     inkscape:window-width="1916"
     showgrid="false"
     inkscape:current-layer="layer1"
     inkscape:document-units="mm"
     inkscape:cy="43.91416"
     inkscape:cx="228.66187"
     inkscape:zoom="1.4859432"
     inkscape:pageshadow="2"
     inkscape:pageopacity="0.0"
     borderopacity="1.0"
     bordercolor="#666666"
     pagecolor="#ffffff"
     id="base" />
  <metadata
     id="metadata5">
    <rdf:RDF>
      <cc:Work
         rdf:about="">
        <dc:format>image/svg+xml</dc:format>
        <dc:type
           rdf:resource="http://purl.org/dc/dcmitype/StillImage" />
        <dc:title></dc:title>
      </cc:Work>
    </rdf:RDF>
  </metadata>
  <g
     transform="translate(0,-261.94798)"
     id="layer1"
     inkscape:groupmode="layer"
     inkscape:label="Layer 1">
    <path
       inkscape:connector-curvature="0"
       id="path851"
       d="m 24.247502,277.745 c -0.302033,-0.0208 -1.394236,0.23447 -7.053759,1.50722 -7.5645553,1.70118 -6.981856,1.55268 -7.149002,1.81921 -0.04525,0.0722 -0.09547,0.18602 -0.1120391,0.25358 -0.02861,0.11678 0.01789,0.34634 0.9488601,4.66625 l 0.978969,4.54303 -0.614833,1.20664 -0.614831,1.20591 0.05252,0.14389 c 0.06456,0.17754 0.219137,0.36758 0.397054,0.48792 0.177894,0.12033 0.306899,0.16415 0.513992,0.1738 h 6.98e-4 c 0.14843,0.007 1.264107,-0.23901 8.410176,-1.85126 7.925614,-1.78814 8.245231,-1.8624 8.369561,-1.9467 0.157343,-0.10669 0.347505,-0.36983 0.410358,-0.56771 0.02554,-0.0804 0.0456,-0.23182 0.04411,-0.3362 l -0.0028,-0.18947 -1.060904,-0.83268 -1.060198,-0.83267 -0.995076,-4.53947 c -0.965808,-4.40597 -0.997471,-4.5422 -1.077708,-4.64346 -0.04546,-0.0573 -0.138509,-0.13959 -0.206577,-0.18235 -0.06485,-0.0408 -0.07789,-0.0786 -0.178569,-0.0855 z m -0.895634,0.79849 c 0.06181,-0.006 0.09198,-0.004 0.115535,0.004 0.146301,0.0433 0.325394,0.18428 0.392851,0.30985 0.04067,0.0754 0.290949,1.19541 0.85222,3.80794 l 0.795502,3.70038 -0.06022,0.15457 c -0.03497,0.0895 -0.109112,0.19626 -0.176468,0.25429 l -0.11624,0.0997 -6.011073,1.35195 -6.011071,1.35193 -0.146354,-0.0413 c -0.09633,-0.0269 -0.188521,-0.0842 -0.268199,-0.16738 l -0.121145,-0.12679 -0.810205,-3.68399 c -0.570799,-2.59619 -0.807923,-3.72019 -0.802502,-3.80581 0.0091,-0.14275 0.112851,-0.34738 0.227584,-0.44946 0.07402,-0.0658 0.27562,-0.11669 2.270256,-0.57269 l 2.189027,-0.50003 1.272381,0.3476 c 0.700083,0.19153 1.301122,0.35085 1.335404,0.35401 0.03426,0.003 0.06435,0.0157 0.06652,0.0271 0.0022,0.0114 -0.171606,0.3249 -0.385846,0.69663 -0.805703,1.39797 -1.233532,2.14487 -1.520275,2.65473 -0.0044,0.0894 -0.0049,0.18102 0.0028,0.2721 0.0137,0.16413 0.03166,0.22534 0.180669,0.61898 0.05487,0.14498 0.08388,0.21451 0.115549,0.28919 0.281773,0.13461 0.643721,0.30718 1.021685,0.4865 0.475154,0.22544 1.288481,0.61169 1.807382,0.85832 0.5189,0.24664 0.947479,0.44236 0.952359,0.4345 0.0049,-0.007 -0.264165,-0.42366 -0.598026,-0.92385 -0.252079,-0.37765 -0.620062,-0.92885 -0.945357,-1.41605 -0.04857,0.0858 -0.100874,0.17186 -0.16246,0.25928 -0.116321,0.1651 -0.461013,0.54174 -0.514696,0.56272 -0.01166,0.005 -0.04685,-0.0191 -0.07843,-0.0527 -0.03159,-0.0337 -0.09415,-0.0842 -0.139353,-0.11254 -0.06106,-0.0383 -0.0747,-0.0551 -0.05182,-0.0641 0.05565,-0.0218 0.309094,-0.24425 0.42716,-0.37537 0.130116,-0.14449 0.242197,-0.31992 0.329124,-0.50218 -0.03625,-0.0543 -0.08324,-0.12508 -0.11624,-0.1745 -0.140176,-0.20992 -0.252362,-0.38341 -0.356435,-0.54562 -8.38e-4,7.4e-4 -0.0013,9.2e-4 -0.002,0.002 l -0.106443,0.094 -0.08544,-0.0919 c -0.06471,-0.0695 -0.385579,-0.3759 -0.456573,-0.43593 -0.01139,-0.01 0.196265,-0.20555 0.210779,-0.19873 0.0092,0.005 0.100711,0.0978 0.179967,0.17238 0.01964,-0.0232 0.544959,-0.44979 1.190452,-0.96587 1.053858,-0.84259 1.182338,-0.95442 1.163139,-1.01147 -0.01193,-0.0353 -0.0845,-0.16028 -0.16176,-0.27779 -0.68842,-1.04698 -1.11089,-1.7165 -1.098015,-1.74014 0.0085,-0.0156 0.960868,-0.23734 2.116198,-0.4922 1.432868,-0.31615 1.902765,-0.41695 2.088189,-0.43593 z m -5.298204,4.9234 c -1.9e-4,2.3e-4 -0.01178,0.009 -0.01192,0.009 -0.0057,0.009 0.11227,0.20024 0.271702,0.44875 0.0575,-0.0509 0.101009,-0.10351 0.09594,-0.11682 -0.0053,-0.014 -0.19898,-0.19367 -0.355736,-0.3412 z m 0.732477,1.17813 c 0.05927,0.0888 0.124994,0.18686 0.190473,0.28492 0.254842,-0.45026 0.338277,-0.90033 0.305317,-1.58486 -0.0084,-0.17533 -0.02332,-0.32833 -0.03362,-0.33976 -0.01742,-0.0196 -0.315595,-5.2e-4 -0.321422,0.0206 -0.0016,0.006 0.0095,0.11843 0.0238,0.25074 0.03286,0.30262 0.03127,0.66999 -0.0035,0.88182 -0.02574,0.15672 -0.08379,0.32449 -0.161061,0.4865 z m -2.04757,0.8455 c -0.07246,-0.0346 -0.215311,-0.10267 -0.262603,-0.12537 -0.06479,-0.0311 -0.07303,-0.0332 -0.130942,-0.0606 5.77e-4,0.002 8.21e-4,0.003 0.0014,0.005 0.122513,0.32433 0.214848,0.48814 0.386544,0.68452 0.187893,0.21492 0.496317,0.42944 0.693963,0.48294 0.123516,0.0335 0.144546,0.024 0.140754,-0.062 -0.0023,-0.0529 -0.0226,-0.0734 -0.15056,-0.14887 -0.178472,-0.10531 -0.378327,-0.29059 -0.522397,-0.48436 -0.05942,-0.08 -0.102784,-0.16473 -0.156157,-0.29062 z m -0.39355,-0.18591 c -0.07927,-0.21053 -0.126551,-0.38712 -0.148455,-0.5563 -0.143587,0.26526 -0.205447,0.39462 -0.187672,0.40031 0.01867,0.006 0.187356,0.0858 0.336127,0.15599 z m -0.148455,-0.5563 c 0.05468,-0.10102 0.150632,-0.27384 0.24299,-0.43807 0.008,-0.16369 0.03355,-0.31816 0.07702,-0.43094 0.05705,-0.14826 0.05737,-0.14994 0.0035,-0.22508 -0.05063,-0.0706 -0.05696,-0.0728 -0.09033,-0.0335 -0.06837,0.0805 -0.175264,0.3641 -0.212882,0.56486 -0.03757,0.20049 -0.04435,0.37708 -0.02031,0.56272 z m 7.765231,-3.80082 -0.488085,0.18449 -0.488084,0.18448 0.03992,0.104 0.03921,0.1047 0.491584,-0.19233 0.492286,-0.19231 -0.04342,-0.0969 z m -1.275881,0.50502 c -0.05618,-8.1e-4 -0.163692,0.0402 -0.175768,0.079 -0.01057,0.0343 -0.01616,2.46178 -0.0055,2.48949 0.0028,0.007 0.05425,-0.006 0.11414,-0.0292 l 0.109235,-0.042 -0.0014,-1.22372 c -6.78e-4,-0.673 -0.0041,-1.23866 -0.0071,-1.25721 -0.002,-0.0112 -0.01489,-0.0161 -0.03362,-0.0163 z m -3.248527,0.98653 c -0.03344,-0.005 -0.04023,0.0105 -0.03711,0.0755 0.0036,0.0773 0.0096,0.0835 0.146359,0.16311 0.166442,0.0969 0.417342,0.33508 0.549706,0.52141 0.07686,0.10782 0.121065,0.20546 0.252796,0.55773 0.139295,0.37163 0.162617,0.45108 0.178565,0.61114 0.02363,0.2378 -0.0072,0.54516 -0.07213,0.72512 -0.05767,0.15966 -0.05717,0.14832 -0.0028,0.21013 0.02207,0.0251 0.04576,0.0428 0.05323,0.0399 0.04097,-0.016 0.127718,-0.16857 0.173664,-0.30628 0.158745,-0.47571 0.140553,-0.90287 -0.05951,-1.42175 -0.165326,-0.4283 -0.369958,-0.7039 -0.699563,-0.94165 -0.164854,-0.11892 -0.374669,-0.22047 -0.483183,-0.23435 z m -2.223338,1.31989 c 0.01084,0.008 0.110169,0.0801 0.22058,0.16026 0.110414,0.0802 0.244077,0.19017 0.296915,0.24432 l 0.09594,0.0983 -0.09384,0.0983 c -0.05176,0.0538 -0.102269,0.10088 -0.112039,0.1047 -0.0098,0.004 -0.08256,-0.0535 -0.161764,-0.12679 -0.0792,-0.0732 -0.211615,-0.1871 -0.29411,-0.25358 l -0.149857,-0.12109 0.08894,-0.10969 c 0.04968,-0.0612 0.09808,-0.103 0.109248,-0.0947 z m 5.19176,0.12536 -0.633741,0.24788 -0.634439,0.24788 0.03922,0.104 0.03921,0.10399 0.634439,-0.24787 0.634439,-0.24788 -0.03921,-0.10401 z m -8.826832,1.13896 c -0.03462,-0.0214 -0.253543,0.0585 -0.242296,0.0883 0.0063,0.0165 0.866932,0.99165 1.485261,1.68315 l 0.16176,0.18164 0.121146,-0.0477 c 0.06666,-0.0261 0.119384,-0.0526 0.116945,-0.0591 -0.0094,-0.0246 -1.614728,-1.82888 -1.642819,-1.84628 z m -0.460776,0.16241 -0.488086,0.18448 -0.488085,0.18448 0.03922,0.104 0.03992,0.10471 0.491585,-0.19232 0.492287,-0.19233 -0.04342,-0.0969 z m 3.333959,1.0257 -0.623936,0.24361 -0.623935,0.24432 0.03922,0.10399 0.03922,0.104 0.623934,-0.24431 0.624638,-0.2436 -0.03992,-0.10401 z m 5.388533,3.53799 0.327726,0.2607 0.327023,0.25999 -2.771647,0.62326 -2.771647,0.62325 0.189071,-0.37609 0.189073,-0.37681 2.25555,-0.50715 z m -0.610628,1.19807 c 0.03385,9.2e-4 0.04691,0.01 0.06022,0.0214 0.07638,0.0683 0.08688,0.14577 0.03221,0.23292 -0.04511,0.0719 -0.08639,0.0828 -1.447447,0.38892 -1.38044,0.31044 -1.401329,0.31424 -1.476159,0.26568 -0.07743,-0.0503 -0.101334,-0.17218 -0.04972,-0.25643 0.01444,-0.0236 0.539434,-0.15322 1.454448,-0.359 1.036982,-0.2332 1.324907,-0.29637 1.426442,-0.29346 z"
       style="fill:#000000;stroke-width:0.030785" />
    <g
       style="font-style:normal;font-variant:normal;font-weight:normal;font-stretch:normal;font-size:12.7px;line-height:125%;font-family:Hack;-inkscape-font-specification:Hack;text-align:start;letter-spacing:0.484188px;word-spacing:0px;writing-mode:lr-tb;text-anchor:start;fill:#000000;fill-opacity:1;stroke:none;stroke-width:0.264583px;stroke-linecap:butt;stroke-linejoin:miter;stroke-opacity:1"
       id="text1699"
       aria-label="all computers
are broken">
      <path
         id="path1782"
         style="font-style:normal;font-variant:normal;font-weight:normal;font-stretch:normal;font-size:12.7px;font-family:'Alike Angular';-inkscape-font-specification:'Alike Angular';text-align:end;text-anchor:end;stroke-width:0.264583px"
         d="m 16.316058,274.43239 0.9525,0.2413 1.2827,-0.7366 -0.0508,-1.7145 h -1.1049 l -0.9779,0.3937 -0.4445,0.7874 z m 3.2766,-1.6002 0.0889,1.7907 0.8763,0.127 -0.0889,0.4191 -1.7653,0.1524 -0.1651,-0.7493 h -0.0635 l -1.2573,0.7493 h -1.3208 l -0.889,-0.6477 -0.2667,-1.2446 0.5588,-0.9906 1.524,-0.6604 1.6764,-0.0635 -0.0508,-1.5875 -0.2413,-0.7874 -1.0287,-0.2921 -1.2319,0.2921 -0.0381,1.3462 -0.4953,0.1016 -0.3302,-1.7399 1.4605,-0.4318 1.6383,-0.0762 0.9906,0.4826 0.4064,1.0922 z" />
      <path
         id="path1784"
         style="font-style:normal;font-variant:normal;font-weight:normal;font-stretch:normal;font-size:12.7px;font-family:'Alike Angular';-inkscape-font-specification:'Alike Angular';text-align:end;text-anchor:end;stroke-width:0.264583px"
         d="m 23.582025,267.35849 -0.0762,4.445 0.0381,1.2319 0.1016,1.4732 0.9271,0.254 -0.0635,0.4445 -1.5494,-0.0635 -1.5494,0.0635 0.0254,-0.4445 0.8382,-0.254 0.0635,-1.3335 0.0508,-2.7813 -0.0762,-2.8321 -0.0635,-1.27 -0.9017,0.0381 -0.0635,-0.4445 1.7526,-0.3429 0.635,0.1397 z" />
      <path
         id="path1786"
         style="font-style:normal;font-variant:normal;font-weight:normal;font-stretch:normal;font-size:12.7px;font-family:'Alike Angular';-inkscape-font-specification:'Alike Angular';text-align:end;text-anchor:end;stroke-width:0.264583px"
         d="m 27.609505,267.35849 -0.0762,4.445 0.0381,1.2319 0.1016,1.4732 0.9271,0.254 -0.0635,0.4445 -1.5494,-0.0635 -1.5494,0.0635 0.0254,-0.4445 0.8382,-0.254 0.0635,-1.3335 0.0508,-2.7813 -0.0762,-2.8321 -0.0635,-1.27 -0.9017,0.0381 -0.0635,-0.4445 1.7526,-0.3429 0.635,0.1397 z" />
      <path
         id="path1788"
         style="font-style:normal;font-variant:normal;font-weight:normal;font-stretch:normal;font-size:12.7px;font-family:'Alike Angular';-inkscape-font-specification:'Alike Angular';text-align:end;text-anchor:end;stroke-width:0.264583px"
         d="m 37.531365,269.26349 -1.6002,-0.127 -1.143,1.2192 -0.3302,1.3208 0.1651,1.3462 0.8128,1.4732 1.5621,0.254 1.1938,-0.635 0.2286,0.3302 -1.0033,0.8001 -1.1938,0.1524 -1.8161,-0.5207 -1.1303,-1.8415 -0.0127,-2.1209 0.8636,-1.5113 1.3335,-0.6985 1.1557,-0.1651 1.9431,0.254 -0.381,1.9939 -0.4191,0.0635 z" />
      <path
         id="path1790"
         style="font-style:normal;font-variant:normal;font-weight:normal;font-stretch:normal;font-size:12.7px;font-family:'Alike Angular';-inkscape-font-specification:'Alike Angular';text-align:end;text-anchor:end;stroke-width:0.264583px"
         d="m 39.806223,272.73059 v -1.6637 l 0.7493,-1.5113 1.4351,-0.9525 1.7399,-0.0635 1.5875,0.9525 0.8255,1.524 -0.1524,2.3241 -0.9398,1.4986 -1.9685,0.5588 -1.651,-0.3175 -1.2065,-1.0922 z m 1.397,-2.0955 -0.0635,1.4224 0.1524,1.4732 0.5461,0.9525 1.3462,0.3302 1.2446,-0.5461 0.3683,-1.9812 -0.127,-1.651 -0.4699,-1.0541 -0.9271,-0.4699 -1.27,0.1397 z" />
      <path
         id="path1792"
         style="font-style:normal;font-variant:normal;font-weight:normal;font-stretch:normal;font-size:12.7px;font-family:'Alike Angular';-inkscape-font-specification:'Alike Angular';text-align:end;text-anchor:end;stroke-width:0.264583px"
         d="m 53.650791,274.52129 0.9017,0.2413 -0.0635,0.4445 -1.4986,-0.0635 -1.5494,0.0635 0.0254,-0.4445 0.8382,-0.254 0.0889,-1.3335 -0.0508,-2.7686 -0.3429,-0.8382 -1.0795,-0.1905 -1.2573,0.6731 -0.0254,0.4826 -0.0762,1.27 0.0254,1.2319 0.0635,1.4732 0.9271,0.254 -0.0635,0.4445 -1.4986,-0.0635 -1.5494,0.0635 0.0254,-0.4445 0.8382,-0.254 0.0889,-1.3335 -0.0508,-2.4384 -0.0635,-1.3208 -0.9017,0.0381 -0.0635,-0.4445 1.7526,-0.3429 0.635,0.1397 -0.0381,0.5969 1.2319,-0.7747 1.2954,-0.0889 1.1684,0.8001 0.0635,0.3429 1.27,-1.0541 1.2954,-0.0889 1.1684,0.8001 0.1905,1.016 -0.0254,2.6797 0.1016,1.4859 0.9017,0.2413 -0.0635,0.4445 -1.4986,-0.0635 -1.5494,0.0635 0.0254,-0.4445 0.8382,-0.254 0.0889,-1.3335 -0.0508,-2.7686 -0.3429,-0.8382 -1.0795,-0.1905 -1.1684,0.8509 0.0254,0.127 -0.0254,2.6797 z" />
      <path
         id="path1794"
         style="font-style:normal;font-variant:normal;font-weight:normal;font-stretch:normal;font-size:12.7px;font-family:'Alike Angular';-inkscape-font-specification:'Alike Angular';text-align:end;text-anchor:end;stroke-width:0.264583px"
         d="m 61.259664,269.36509 h 0.0889 l 1.3589,-0.8255 1.4097,0.1524 0.9271,0.6604 0.7366,1.5113 0.0127,2.159 -0.4826,1.0033 -1.4605,1.1811 -1.4097,0.1905 -1.2065,-0.3175 0.0381,1.1303 0.1016,1.4732 0.9271,0.254 -0.0635,0.4445 -1.5494,-0.0635 -1.5494,0.0635 0.0254,-0.4445 0.8382,-0.254 0.0635,-1.3335 0.0508,-2.7813 -0.0762,-2.8321 -0.0635,-1.3589 -0.9017,0.0381 -0.0635,-0.4445 1.7526,-0.3429 0.4826,0.1397 z m -0.0127,5.0165 1.3716,0.4445 0.8001,-0.2286 0.9779,-1.0414 0.1778,-1.4605 -0.381,-2.1336 -1.1303,-0.6731 -1.778,0.6096 0.0254,0.635 z" />
      <path
         id="path1796"
         style="font-style:normal;font-variant:normal;font-weight:normal;font-stretch:normal;font-size:12.7px;font-family:'Alike Angular';-inkscape-font-specification:'Alike Angular';text-align:end;text-anchor:end;stroke-width:0.264583px"
         d="m 69.173347,270.76209 v 2.7686 l 0.3429,0.8382 1.0668,0.1397 1.3843,-0.8255 v -1.3462 l -0.0127,-1.5875 -0.0635,-1.3208 -0.9017,0.0381 -0.0635,-0.4445 1.7526,-0.3429 0.635,0.1397 -0.0889,1.7272 -0.0127,1.016 0.0254,0.7747 v 2.286 l 0.889,0.254 -0.0635,0.4445 h -1.7399 l -0.2921,-1.0668 -1.4351,1.0541 -1.2954,0.0889 -1.1684,-0.8001 -0.1905,-1.016 0.0127,-2.7178 -0.127,-1.4478 -0.9017,0.0381 -0.0635,-0.4445 1.7526,-0.3429 0.635,0.1397 z" />
      <path
         id="path1798"
         style="font-style:normal;font-variant:normal;font-weight:normal;font-stretch:normal;font-size:12.7px;font-family:'Alike Angular';-inkscape-font-specification:'Alike Angular';text-align:end;text-anchor:end;stroke-width:0.264583px"
         d="m 78.141116,275.27059 -0.8636,0.127 -0.9017,-0.3048 -0.4064,-1.016 0.0635,-2.3622 -0.0635,-2.1336 -0.8763,-0.127 -0.0762,-0.4445 1.0033,-0.2667 0.4572,-1.2827 h 0.6477 l -0.0381,1.4224 1.5367,0.0508 -0.0762,0.5588 -1.3335,0.0889 -0.0508,0.5842 0.0508,3.8481 0.254,0.762 1.1938,-0.3175 0.1905,0.381 z" />
      <path
         id="path1800"
         style="font-style:normal;font-variant:normal;font-weight:normal;font-stretch:normal;font-size:12.7px;font-family:'Alike Angular';-inkscape-font-specification:'Alike Angular';text-align:end;text-anchor:end;stroke-width:0.264583px"
         d="m 81.178001,271.72729 -0.0127,0.1143 0.3429,1.7907 1.0033,0.9906 1.1684,0.127 1.1938,-0.635 0.2286,0.3302 -1.0033,0.8001 -1.1938,0.1524 -1.2446,-0.2921 -1.0795,-0.9017 -0.6477,-1.905 0.2159,-1.7018 0.6604,-1.1938 1.3335,-0.7366 1.1176,-0.1397 0.889,0.2794 0.6858,0.6223 0.3937,1.1303 0.0127,1.0541 -0.1778,0.1397 -1.6891,0.1143 z m 0.635,-2.0574 -0.4953,0.9652 -0.0762,0.5715 1.9304,0.0254 0.8763,-0.1905 -0.0762,-1.1811 -0.381,-0.6477 -0.8128,-0.1143 z" />
      <path
         id="path1802"
         style="font-style:normal;font-variant:normal;font-weight:normal;font-stretch:normal;font-size:12.7px;font-family:'Alike Angular';-inkscape-font-specification:'Alike Angular';text-align:end;text-anchor:end;stroke-width:0.264583px"
         d="m 88.748777,269.83499 h 0.0508 l 0.7874,-0.9017 0.8636,-0.381 0.9525,0.2413 -0.2159,1.8923 -0.4445,-0.0889 -0.3175,-1.3081 -0.8255,0.2667 -0.901699,1.0541 -0.0635,1.1938 0.0381,1.2319 0.0508,1.4732 1.269999,0.254 -0.0635,0.4445 -1.841499,-0.0635 -1.5494,0.0635 0.0254,-0.4445 0.8382,-0.254 0.0635,-1.3335 -0.0254,-2.4384 -0.0635,-1.3208 -0.9017,0.0381 -0.0635,-0.4445 1.7526,-0.3429 0.634999,0.1397 z" />
      <path
         id="path1804"
         style="font-style:normal;font-variant:normal;font-weight:normal;font-stretch:normal;font-size:12.7px;font-family:'Alike Angular';-inkscape-font-specification:'Alike Angular';text-align:end;text-anchor:end;stroke-width:0.264583px"
         d="m 93.500162,274.64829 1.0541,0.1651 1.1811,-0.1651 0.2794,-0.8636 -0.3429,-0.6604 -2.3622,-1.4351 -0.508,-0.8001 -0.0254,-1.3462 0.9017,-0.762 1.3335,-0.2413 1.8669,0.381 -0.2667,1.8669 -0.5334,-0.1778 -0.2413,-1.3208 -0.8763,-0.1651 -0.9525,0.2159 -0.2413,0.6985 0.3048,0.7493 2.4384,1.397 0.5969,0.7493 0.0508,1.1938 -0.8636,1.016 -1.524,0.254 -1.0541,-0.0508 -1.1811,-0.4572 0.3175,-1.8288 0.5461,0.1778 z" />
      <path
         id="path1806"
         style="font-style:normal;font-variant:normal;font-weight:normal;font-stretch:normal;font-size:12.7px;font-family:'Alike Angular';-inkscape-font-specification:'Alike Angular';text-align:end;text-anchor:end;stroke-width:0.264583px"
         d="m 34.419918,290.62391 0.9525,0.2413 1.2827,-0.7366 -0.0508,-1.7145 h -1.1049 l -0.9779,0.3937 -0.4445,0.7874 z m 3.2766,-1.6002 0.0889,1.7907 0.8763,0.127 -0.0889,0.4191 -1.7653,0.1524 -0.1651,-0.7493 h -0.0635 l -1.2573,0.7493 h -1.3208 l -0.889,-0.6477 -0.2667,-1.2446 0.5588,-0.9906 1.524,-0.6604 1.6764,-0.0635 -0.0508,-1.5875 -0.2413,-0.7874 -1.0287,-0.2921 -1.2319,0.2921 -0.0381,1.3462 -0.4953,0.1016 -0.3302,-1.7399 1.4605,-0.4318 1.6383,-0.0762 0.9906,0.4826 0.4064,1.0922 z" />
      <path
         id="path1808"
         style="font-style:normal;font-variant:normal;font-weight:normal;font-stretch:normal;font-size:12.7px;font-family:'Alike Angular';-inkscape-font-specification:'Alike Angular';text-align:end;text-anchor:end;stroke-width:0.264583px"
         d="m 41.850986,286.02651 h 0.0508 l 0.7874,-0.9017 0.8636,-0.381 0.9525,0.2413 -0.2159,1.8923 -0.4445,-0.0889 -0.3175,-1.3081 -0.8255,0.2667 -0.9017,1.0541 -0.0635,1.1938 0.0381,1.2319 0.0508,1.4732 1.27,0.254 -0.0635,0.4445 -1.8415,-0.0635 -1.5494,0.0635 0.0254,-0.4445 0.8382,-0.254 0.0635,-1.3335 -0.0254,-2.4384 -0.0635,-1.3208 -0.9017,0.0381 -0.0635,-0.4445 1.7526,-0.3429 0.635,0.1397 z" />
      <path
         id="path1810"
         style="font-style:normal;font-variant:normal;font-weight:normal;font-stretch:normal;font-size:12.7px;font-family:'Alike Angular';-inkscape-font-specification:'Alike Angular';text-align:end;text-anchor:end;stroke-width:0.264583px"
         d="m 46.945258,287.91881 -0.0127,0.1143 0.3429,1.7907 1.0033,0.9906 1.1684,0.127 1.1938,-0.635 0.2286,0.3302 -1.0033,0.8001 -1.1938,0.1524 -1.2446,-0.2921 -1.0795,-0.9017 -0.6477,-1.905 0.2159,-1.7018 0.6604,-1.1938 1.3335,-0.7366 1.1176,-0.1397 0.889,0.2794 0.6858,0.6223 0.3937,1.1303 0.0127,1.0541 -0.1778,0.1397 -1.6891,0.1143 z m 0.635,-2.0574 -0.4953,0.9652 -0.0762,0.5715 1.9304,0.0254 0.8763,-0.1905 -0.0762,-1.1811 -0.381,-0.6477 -0.8128,-0.1143 z" />
      <path
         id="path1812"
         style="font-style:normal;font-variant:normal;font-weight:normal;font-stretch:normal;font-size:12.7px;font-family:'Alike Angular';-inkscape-font-specification:'Alike Angular';text-align:end;text-anchor:end;stroke-width:0.264583px"
         d="m 57.540214,285.53121 0.0889,0.0889 1.3208,-0.7239 1.3843,-0.0381 1.3462,1.0287 0.5334,2.1209 -0.381,1.8923 -0.9144,1.1557 -1.8288,0.5334 -2.4003,-0.3175 -0.4445,-0.4445 0.1016,-4.191 -0.0127,-2.8829 -0.0635,-1.27 -0.9017,0.0381 -0.0635,-0.4445 1.7526,-0.3429 0.635,0.1397 z m -0.0254,3.8608 0.1016,1.1811 1.651,0.3683 1.2573,-0.7874 0.3683,-1.397 -0.0508,-1.6764 -0.9017,-1.3081 -0.7874,-0.1905 -1.6129,0.6477 z" />
      <path
         id="path1814"
         style="font-style:normal;font-variant:normal;font-weight:normal;font-stretch:normal;font-size:12.7px;font-family:'Alike Angular';-inkscape-font-specification:'Alike Angular';text-align:end;text-anchor:end;stroke-width:0.264583px"
         d="m 65.758683,286.02651 h 0.0508 l 0.7874,-0.9017 0.8636,-0.381 0.9525,0.2413 -0.2159,1.8923 -0.4445,-0.0889 -0.3175,-1.3081 -0.8255,0.2667 -0.9017,1.0541 -0.0635,1.1938 0.0381,1.2319 0.0508,1.4732 1.27,0.254 -0.0635,0.4445 -1.8415,-0.0635 -1.5494,0.0635 0.0254,-0.4445 0.8382,-0.254 0.0635,-1.3335 -0.0254,-2.4384 -0.0635,-1.3208 -0.9017,0.0381 -0.0635,-0.4445 1.7526,-0.3429 0.635,0.1397 z" />
      <path
         id="path1816"
         style="font-style:normal;font-variant:normal;font-weight:normal;font-stretch:normal;font-size:12.7px;font-family:'Alike Angular';-inkscape-font-specification:'Alike Angular';text-align:end;text-anchor:end;stroke-width:0.264583px"
         d="m 69.582956,288.92211 v -1.6637 l 0.7493,-1.5113 1.4351,-0.9525 1.7399,-0.0635 1.5875,0.9525 0.8255,1.524 -0.1524,2.3241 -0.9398,1.4986 -1.9685,0.5588 -1.651,-0.3175 -1.2065,-1.0922 z m 1.397,-2.0955 -0.0635,1.4224 0.1524,1.4732 0.5461,0.9525 1.3462,0.3302 1.2446,-0.5461 0.3683,-1.9812 -0.127,-1.651 -0.4699,-1.0541 -0.9271,-0.4699 -1.27,0.1397 z" />
      <path
         id="path1818"
         style="font-style:normal;font-variant:normal;font-weight:normal;font-stretch:normal;font-size:12.7px;font-family:'Alike Angular';-inkscape-font-specification:'Alike Angular';text-align:end;text-anchor:end;stroke-width:0.264583px"
         d="m 80.938322,286.35671 0.5842,-0.8509 -0.8509,-0.1397 0.0635,-0.4445 1.3335,0.0635 1.1684,-0.0635 -0.0254,0.4445 -0.889,0.2794 -1.8161,1.9558 1.0541,1.4859 1.3081,1.6129 0.7493,0.254 -0.0635,0.4445 -1.3208,-0.0635 -1.2065,0.0635 0.0254,-0.4445 0.6096,-0.0381 -0.3429,-0.635 -1.4732,-1.9558 h -0.6223 l 0.0254,0.9017 0.0254,1.4732 0.8763,0.254 -0.0762,0.4445 -1.4097,-0.0635 -1.6256,0.0635 0.0508,-0.4445 0.889,-0.2159 0.0381,-1.3716 0.0508,-2.7813 -0.0508,-2.8321 -0.0635,-1.27 -0.9017,0.0381 -0.0635,-0.4445 1.7526,-0.3429 0.635,0.1397 -0.0889,1.6764 -0.0762,4.2799 h 0.3937 z" />
      <path
         id="path1820"
         style="font-style:normal;font-variant:normal;font-weight:normal;font-stretch:normal;font-size:12.7px;font-family:'Alike Angular';-inkscape-font-specification:'Alike Angular';text-align:end;text-anchor:end;stroke-width:0.264583px"
         d="m 85.448381,287.91881 -0.0127,0.1143 0.3429,1.7907 1.0033,0.9906 1.1684,0.127 1.1938,-0.635 0.2286,0.3302 -1.0033,0.8001 -1.1938,0.1524 -1.2446,-0.2921 -1.0795,-0.9017 -0.6477,-1.905 0.2159,-1.7018 0.6604,-1.1938 1.3335,-0.7366 1.1176,-0.1397 0.889,0.2794 0.6858,0.6223 0.3937,1.1303 0.0127,1.0541 -0.1778,0.1397 -1.6891,0.1143 z m 0.635,-2.0574 -0.4953,0.9652 -0.0762,0.5715 1.9304,0.0254 0.8763,-0.1905 -0.0762,-1.1811 -0.381,-0.6477 -0.8128,-0.1143 z" />
      <path
         id="path1822"
         style="font-style:normal;font-variant:normal;font-weight:normal;font-stretch:normal;font-size:12.7px;font-family:'Alike Angular';-inkscape-font-specification:'Alike Angular';text-align:end;text-anchor:end;stroke-width:0.264583px"
         d="m 97.121256,290.71281 0.9017,0.2413 -0.0635,0.4445 -1.4986,-0.0635 -1.5494,0.0635 0.0254,-0.4445 0.8382,-0.254 0.0889,-1.3335 -0.0508,-2.7686 -0.3429,-0.8382 -1.0795,-0.1905 -1.3843,0.7112 -0.0254,0.4445 -0.0762,1.27 0.0254,1.2319 0.0635,1.4732 0.9271,0.254 -0.0635,0.4445 -1.498599,-0.0635 -1.5494,0.0635 0.0254,-0.4445 0.8382,-0.254 0.0889,-1.3335 -0.1143,-3.7592 -0.9017,0.0381 -0.0635,-0.4445 1.7526,-0.3429 0.634999,0.1397 -0.0381,0.6477 1.3589,-0.8255 1.2954,-0.0889 1.1684,0.8001 0.1905,1.016 -0.0254,2.6797 z" />
    </g>
  </g>
</svg>
