<?xml version="1.0" encoding="UTF-8" standalone="no"?><!DOCTYPE svg PUBLIC "-//W3C//DTD SVG 1.1//EN" "http://www.w3.org/Graphics/SVG/1.1/DTD/svg11.dtd"><svg width="100%" height="100%" viewBox="0 0 6667 3334" version="1.1" xmlns="http://www.w3.org/2000/svg" xmlns:xlink="http://www.w3.org/1999/xlink" xml:space="preserve" xmlns:serif="http://www.serif.com/" style="fill-rule:evenodd;clip-rule:evenodd;stroke-linecap:round;stroke-linejoin:round;stroke-miterlimit:1.5;"><g id="Ebene-1" serif:id="Ebene 1"><path d="M6511.66,631.677c0,-275.715 -223.845,-499.56 -499.559,-499.56l-4236.57,0c-275.714,0 -499.559,223.845 -499.559,499.56l-0,999.118c-0,275.714 223.845,499.559 499.559,499.559l4236.57,0c275.714,0 499.559,-223.845 499.559,-499.559l0,-999.118Z" style="fill:none;stroke:#000;stroke-width:62.5px;"/><g id="text5790"><g transform="matrix(400,0,0,400,2478.72,2674.74)"></g><text x="175.205px" y="2674.74px" style="font-family:'Helvetica-Bold', 'Helvetica';font-weight:700;font-size:400px;">ZERTIFIKA<tspan x="2234.39px " y="2674.74px ">T</tspan></text><g transform="matrix(400,0,0,400,2469.48,3155.88)"></g><text x="179.833px" y="3155.88px" style="font-family:'Helvetica-Bold', 'Helvetica';font-weight:700;font-size:400px;">3/5 STERNE</text></g><g id="text57901" serif:id="text5790"><g transform="matrix(833.333,0,0,833.333,6186.47,1369.87)"></g><text x="2265.98px" y="1369.87px" style="font-family:'Helvetica-Bold', 'Helvetica';font-weight:700;font-size:833.333px;">UPDA<tspan x="4565.78px 5074.82px " y="1369.87px 1369.87px ">TE</tspan>S</text></g><g id="text57902" serif:id="text5790"><g transform="matrix(833.333,0,0,833.333,6148.97,1340.71)"></g><text x="2228.48px" y="1340.71px" style="font-family:'Helvetica-Bold', 'Helvetica';font-weight:700;font-size:833.333px;fill:#ced926;">UPDA<tspan x="4528.28px 5037.32px " y="1340.71px 1340.71px ">TE</tspan>S</text></g><g id="Layer_2"></g><g id="Ebene-11" serif:id="Ebene 1"></g><rect x="1235.26" y="65.383" width="216.227" height="2089.19" style="fill:#fff;stroke:#fff;stroke-width:4.17px;"/><rect x="1452.22" y="66.456" width="490.201" height="176.5" style="fill:#fff;stroke:#fff;stroke-width:4.17px;"/><path d="M1553.45,2009.62l-274.604,-117.23l-69.298,162.327l274.604,117.23l69.298,-162.327Z" style="fill:#fff;stroke:#fff;stroke-width:4.17px;"/><path d="M1537.7,2039.25c16.997,-0.03 30.821,13.758 30.852,30.773c0.031,17.014 -13.744,30.853 -30.741,30.884c-16.997,0.031 -30.821,-13.758 -30.852,-30.773c-0.03,-17.014 13.744,-30.853 30.741,-30.884Z" style="stroke:#000;stroke-width:4.17px;"/><ellipse cx="1943.22" cy="132.388" rx="30.796" ry="29.998" style="stroke:#000;stroke-width:4.17px;"/><path d="M2943.05,2388.62l129.553,196.685l227.094,62.433l-147.025,183.992l10.798,235.271l-220.42,-82.973l-220.419,82.973l10.798,-235.271l-147.025,-183.992l227.093,-62.433l129.553,-196.685Z" style="fill:#ced926;stroke:#fff;stroke-width:4.17px;"/><path d="M3740.5,2391.03l129.553,196.686l227.093,62.433l-147.025,183.991l10.799,235.271l-220.42,-82.972l-220.419,82.972l10.798,-235.271l-147.025,-183.991l227.093,-62.433l129.553,-196.686Z" style="fill:#ced926;"/><path d="M4537.65,2389.28l129.553,196.685l227.094,62.433l-147.025,183.992l10.798,235.271l-220.42,-82.973l-220.419,82.973l10.798,-235.271l-147.025,-183.992l227.093,-62.433l129.553,-196.685Z" style="fill:#ced926;"/><path d="M5337.4,2390.28l129.553,196.686l227.094,62.433l-147.025,183.991l10.798,235.272l-220.42,-82.973l-220.419,82.973l10.798,-235.272l-147.025,-183.991l227.093,-62.433l129.553,-196.686Z" style="fill:none;stroke:#ced926;stroke-width:41.67px;"/><path d="M6134.06,2390.66l129.553,196.686l227.093,62.433l-147.025,183.992l10.798,235.271l-220.419,-82.973l-220.42,82.973l10.798,-235.271l-147.025,-183.992l227.094,-62.433l129.553,-196.686Z" style="fill:none;stroke:#ced926;stroke-width:41.67px;"/><g transform="matrix(266.667,0,0,266.667,6258.27,513.33)"></g><text x="2084.71px" y="513.33px" style="font-family:'Helvetica-Bold', 'Helvetica';font-weight:700;font-size:266.667px;">DIESES SYSTEM ERHÄL<tspan x="5206.32px 5369.21px " y="513.33px 513.33px ">T </tspan>KEINE</text><g transform="matrix(300,0,0,300,6012.83,1950.41)"></g><text x="2296.37px" y="1950.41px" style="font-family:'Helvetica-Bold', 'Helvetica';font-weight:700;font-size:300px;">UPCYCLE IT WITH LINUX!</text></g><g id="Ebene1"><g id="layer1"><path d="M1117.29,2161.84c-6.025,0.255 -12.057,-0.285 -17.942,-1.605c-196.045,-52.143 -379,-144.804 -537.037,-271.992c-230.139,-181.34 -352.556,-392.873 -352.556,-610.865l-0,-914.551c0.142,-43.677 36.119,-79.538 79.796,-79.538c0.605,0 1.21,0.007 1.815,0.021c276.488,-0.135 548.429,-70.76 790.04,-205.181c25.291,-14.301 56.321,-14.301 81.612,0c238.39,133.63 506.978,204.259 780.266,205.181c0.605,-0.014 1.21,-0.021 1.815,-0.021c43.678,0 79.655,35.861 79.796,79.538l0,914.551c0,217.922 -120.811,429.351 -347.704,610.865c-34.843,26.908 -85.257,21.995 -114.249,-11.135c-11.608,-14.087 -17.961,-31.784 -17.961,-50.037c0,-23.817 10.815,-46.39 29.376,-61.315c132.226,-104.964 288.921,-273.563 288.921,-486.702l0,-838.211c-258.217,-12.803 -510.565,-81.742 -739.425,-202.004c-231.955,121.552 -487.662,191.042 -749.234,203.61l-0,838.245c-0,392.874 545.205,679.177 762.289,726.894c37.047,7.645 63.865,40.561 63.865,78.39c-0,5.731 -0.616,11.445 -1.836,17.045c-11.672,35.057 -44.697,58.849 -81.647,58.817Z" style="fill-rule:nonzero;"/><path d="M763.278,532.203l-0,1.265l744.612,0l-20.307,-1.265l-724.305,0Z" style="fill:#ced926;fill-rule:nonzero;"/><path d="M768.919,1488.8l-0,149.311l733.33,-0l0,-149.311c10.978,-0.038 25.148,-2.062 31.116,-13.944c7.108,-14.134 3.859,-34.949 3.859,-50.588l-0,-846.516c-0,-21.361 -6.995,-43.098 -29.334,-44.237c-63.642,-3.245 -128.084,-0.05 -191.794,-0.05l-518.972,0c-22.249,0 -43.154,-4.07 -57.777,18.981c-9.635,15.19 -5.403,40.491 -5.403,58.205l0,793.371c0,18.803 -2.923,41.162 1.178,59.471c3.719,16.602 19.671,24.978 33.797,25.307Z" style="fill:#ced926;fill-rule:nonzero;"/><path d="M1513.16,533.89l0.745,0.422l-0.745,-0.422m-762.292,4.64l1.129,1.265l-1.129,-1.265m776.203,3.796l1.128,1.265l-1.128,-1.265Z" style="fill:#ced926;fill-rule:nonzero;"/><path d="M1536.47,560.885l0.383,0.842l-0.383,-0.842Z" style="fill:#ced926;fill-rule:nonzero;"/><path d="M734.32,563.415l0.377,0.843l-0.377,-0.843Z" style="fill:#ced926;fill-rule:nonzero;"/><path d="M1537.22,566.367l-0,890.803l1.128,-0l-0,-866.761l-1.128,-24.042Z" style="fill:#ced926;fill-rule:nonzero;"/><path d="M776.816,568.898l-0,1.265l717.536,0l-20.308,-1.265l-697.228,0Z" style="fill:#ced926;fill-rule:nonzero;"/><path d="M776.816,570.163l-0,885.741l1.128,0l0,-860.434l-1.128,-25.307Z" style="fill:#ced926;fill-rule:nonzero;"/><rect x="777.944" y="570.163" width="716.408" height="885.741" style="fill:#fff;fill-rule:nonzero;"/><path d="M860.303,641.681c-37.637,9.161 -25.949,72.921 -25.949,104.365l0,339.112c0,15.589 -0.146,30.774 10.65,42.427c11.497,12.426 27.754,9.453 42.376,9.453l480.613,-0c14.25,-0 31.308,2.834 45.128,-1.291c35.155,-10.477 23.693,-72.707 23.693,-103.733l-0,-345.439c-0,-14.298 0.383,-27.319 -10.199,-37.543c-11.158,-10.793 -29.176,-8.009 -42.827,-8.009l-478.357,-0c-14.294,-0 -31.15,-2.746 -45.128,0.658Z" style="fill:#ced926;fill-rule:nonzero;"/><path d="M1408.61,641.023l-0,1.265l3.384,-0l-3.384,-1.265Z" style="fill:#ced926;fill-rule:nonzero;"/><path d="M1416.13,642.706l0.744,0.43l-0.744,-0.43Z" style="fill:#ced926;fill-rule:nonzero;"/><path d="M847.893,647.349l1.128,1.266l-1.128,-1.266m-13.166,21.094l0.383,0.835l-0.383,-0.835m40.242,5.479l0,426.421l1.129,-0l-0,-388.461l-1.129,-37.96Z" style="fill:#ced926;fill-rule:nonzero;"/><path d="M876.098,673.922l-0,1.265l518.972,-0c-11.846,-5.58 -32.244,-1.265 -45.128,-1.265l-473.844,-0Z" style="fill:#ced926;fill-rule:nonzero;"/><path d="M1395.07,673.922l0,426.421l1.128,-0l0,-388.461l-1.128,-37.96Z" style="fill:#ced926;fill-rule:nonzero;"/><rect x="876.098" y="675.187" width="518.973" height="423.89" style="fill:#fff;fill-rule:nonzero;"/><path d="M974.251,758.7l0,1.265l14.667,0l-14.667,-1.265m57.538,-0l0,1.265l18.052,0l-18.052,-1.265m188.41,18.98l1.128,-0l0,-17.715l18.051,0c-15.512,-7.301 -19.179,3.024 -19.179,17.715m62.051,-18.98l0,1.265l14.667,0l-0,17.715c5.911,-15.804 -2.945,-18.98 -14.667,-18.98Z" style="fill:#ced926;fill-rule:nonzero;"/><path d="M974.251,759.965c0,16.956 5.664,29.027 20.308,36.695c-9.409,15.943 -20.308,21.46 -20.308,41.756l18.051,-2.72l19.18,-15.02l18.051,15.172l20.308,2.568c-0,-21.523 -12.286,-25.395 -22.564,-41.756c15.467,-7.731 22.564,-18.487 22.564,-36.695c-18.164,0 -26.919,6.567 -37.231,24.042c-12.444,-13.843 -20.488,-24.042 -38.359,-24.042Z" style="fill:#ced926;fill-rule:nonzero;"/><path d="M1049.84,759.965l-0,17.715l1.128,-0l-1.128,-17.715Z" style="fill:#ced926;fill-rule:nonzero;"/><path d="M1221.33,759.965c0,18.208 7.097,28.964 22.564,36.695c-10.221,16.272 -22.564,20.448 -22.564,41.756l20.308,-2.568l16.923,-15.298l19.179,14.159l19.18,3.707c-0,-18.183 -8.112,-28.698 -21.436,-39.225l-0,-1.266c14.272,-10.591 21.436,-18.841 21.436,-37.96c-16.517,0 -27.506,8.579 -37.231,24.042l-21.436,-23.283l-16.923,-0.759Z" style="fill:#ced926;fill-rule:nonzero;"/><path d="M1239.38,759.965l1.129,1.265l-1.129,-1.265Z" style="fill:#ced926;fill-rule:nonzero;"/><path d="M1269.84,771.353l1.128,1.265l-1.128,-1.265m-267.384,2.531l1.128,1.265l-1.128,-1.265m248.204,-0l1.129,1.265l-1.129,-1.265m-234.665,3.796l1.128,1.265l-1.128,-1.265m28.205,3.796l1.128,1.265l-1.128,-1.265Z" style="fill:#ced926;fill-rule:nonzero;"/><path d="M981.02,784.007l1.129,1.265l-1.129,-1.265Z" style="fill:#ced926;fill-rule:nonzero;"/><path d="M1289.02,784.007l1.128,1.265l-1.128,-1.265m-250.46,2.53l1.128,1.266l-1.128,-1.266m-5.641,5.062l1.128,1.265l-1.128,-1.265m247.076,1.265l1.128,1.265l-1.128,-1.265m-291.076,11.388l1.128,1.265l-1.128,-1.265m51.897,8.857l1.128,1.266l-1.128,-1.266Z" style="fill:#ced926;fill-rule:nonzero;"/><path d="M1041.94,814.375l1.128,1.265l-1.128,-1.265Z" style="fill:#ced926;fill-rule:nonzero;"/><path d="M1225.84,816.905l1.128,1.266l-1.128,-1.266m-221.127,6.327l1.128,1.266l-1.128,-1.266m45.128,0l-0,15.184l1.128,0l-1.128,-15.184Z" style="fill:#ced926;fill-rule:nonzero;"/><path d="M1220.2,823.232l-0,15.184l1.128,0l-1.128,-15.184m76.718,0l-0,15.184l1.128,0l-1.128,-15.184Z" style="fill:#ced926;fill-rule:nonzero;"/><path d="M1241.63,834.62l1.128,1.266l-1.128,-1.266Z" style="fill:#ced926;fill-rule:nonzero;"/><path d="M1281.12,837.151l1.128,1.265l-1.128,-1.265Z" style="fill:#ced926;fill-rule:nonzero;"/><path d="M1205.53,876.377c-4.896,-0.253 -15.524,-6.656 -19.518,-3.708c-3.768,2.784 -5.201,11.92 -6.915,16.361c-3.893,10.123 -9.703,21.157 -17.612,27.926c-31.251,26.75 -73.186,-7.022 -73.288,-46.906c-5.11,1.329 -15.918,3.315 -19.145,8.301c-2.708,4.175 -0.53,11.413 0.722,15.74c4.14,14.312 11.316,27.787 21.808,37.366c42.387,38.694 106.243,2.645 113.948,-55.08Z" style="fill:#ced926;fill-rule:nonzero;"/><path d="M1185.98,870.468l0.744,0.43l-0.744,-0.43m-113.949,5.061l0.745,0.43l-0.745,-0.43Z" style="fill:#ced926;fill-rule:nonzero;"/><path d="M1199.52,875.529l0.745,0.43l-0.745,-0.43Z" style="fill:#ced926;fill-rule:nonzero;"/><path d="M1066.76,876.377l-0,10.122l1.128,0l1.128,-10.122l-2.256,-0m21.435,1.265l0,3.796l1.129,0l-1.129,-3.796m1.501,7.175l0.384,0.835l-0.384,-0.835m103.422,21.928l1.128,1.265l-1.128,-1.265m-91.384,2.531l1.128,1.265l-1.128,-1.265m1.128,1.265l1.128,1.265l-1.128,-1.265Z" style="fill:#ced926;fill-rule:nonzero;"/><path d="M1188.61,914.337l1.129,1.265l-1.129,-1.265m-66.936,9.275l0.745,0.43l-0.745,-0.43m4.513,1.265l0.745,0.431l-0.745,-0.431Z" style="fill:#ced926;fill-rule:nonzero;"/><path d="M1143.48,924.46l0,1.265l3.385,0l-3.385,-1.265Z" style="fill:#ced926;fill-rule:nonzero;"/><path d="M1131.07,925.725l0,1.265l10.154,0l-10.154,-1.265Z" style="fill:#ced926;fill-rule:nonzero;"/><path d="M1173.94,932.052l1.128,1.265l-1.128,-1.265Z" style="fill:#ced926;fill-rule:nonzero;"/><path d="M1113.78,943.857l0.744,0.431l-0.744,-0.431Z" style="fill:#ced926;fill-rule:nonzero;"/><path d="M1155.52,943.857l0.745,0.431l-0.745,-0.431Z" style="fill:#ced926;fill-rule:nonzero;"/><path d="M1118.29,945.123l0.744,0.43l-0.744,-0.43Z" style="fill:#ced926;fill-rule:nonzero;"/><path d="M1151.01,945.123l0.745,0.43l-0.745,-0.43m-27.832,0.848l-0,1.265l3.384,-0l-3.384,-1.265Z" style="fill:#ced926;fill-rule:nonzero;"/><path d="M1143.48,945.971l0,1.265l3.385,-0l-3.385,-1.265Z" style="fill:#ced926;fill-rule:nonzero;"/><path d="M1113.02,985.196l-0,1.266l5.641,-0l-5.641,-1.266Z" style="fill:#ced926;fill-rule:nonzero;"/><path d="M1118.66,985.196l-0,1.266l9.025,-0l-9.025,-1.266Z" style="fill:#ced926;fill-rule:nonzero;"/><path d="M1006.97,1066.18c5.37,0.139 13.978,6.087 18.706,4.163c4.467,-1.809 7.953,-14.956 10.672,-19.347c7.04,-11.363 16.134,-20.359 27.032,-26.85c38.652,-23.03 93.438,-23.295 134.256,-7.314c21.244,8.313 44.124,27.192 46.256,54.41l20.308,-2.531c-2.618,-33.481 -33.395,-61.319 -59.795,-71.277c-46.628,-17.613 -109.638,-19.575 -153.435,8.554c-18.841,12.084 -40.006,35.063 -44,60.192Z" style="fill:#ced926;fill-rule:nonzero;"/><path d="M1142.35,985.196l0,1.266l10.154,-0l-10.154,-1.266Z" style="fill:#ced926;fill-rule:nonzero;"/><path d="M1152.51,985.196l-0,1.266l3.385,-0l-3.385,-1.266m-48.513,1.266l0,1.265l3.385,-0l-3.385,-1.265m58.667,-0l-0,1.265l3.384,-0l-3.384,-1.265Z" style="fill:#ced926;fill-rule:nonzero;"/><path d="M1097.98,988.145l0.745,0.43l-0.745,-0.43m72.205,-0l0.744,0.43l-0.744,-0.43Z" style="fill:#ced926;fill-rule:nonzero;"/><path d="M1091.21,989.41l0.744,0.43l-0.744,-0.43Z" style="fill:#ced926;fill-rule:nonzero;"/><path d="M1176.2,988.992l0,1.266l3.385,-0l-3.385,-1.266m-89.5,1.683l0.745,0.43l-0.745,-0.43Z" style="fill:#ced926;fill-rule:nonzero;"/><path d="M1183.72,990.675l0.745,0.43l-0.745,-0.43Z" style="fill:#ced926;fill-rule:nonzero;"/><path d="M1082.19,991.941l0.745,0.43l-0.745,-0.43Z" style="fill:#ced926;fill-rule:nonzero;"/><path d="M1188.24,991.941l0.745,0.43l-0.745,-0.43m4.513,1.265l0.744,0.43l-0.744,-0.43Z" style="fill:#ced926;fill-rule:nonzero;"/><path d="M1200.65,995.737l0.745,0.43l-0.745,-0.43Z" style="fill:#ced926;fill-rule:nonzero;"/><path d="M1122.05,1006.71l0,1.265l30.462,0l-30.462,-1.265m-11.282,1.265l0,1.266l3.385,-0l-3.385,-1.266m50.77,0l-0,1.266l3.384,-0l-3.384,-1.266Z" style="fill:#ced926;fill-rule:nonzero;"/><path d="M1100.61,1009.24l-0,1.265l3.384,0l-3.384,-1.265Z" style="fill:#ced926;fill-rule:nonzero;"/><path d="M1171.31,1009.65l0.745,0.431l-0.745,-0.431m-75.589,1.266l0.744,0.43l-0.744,-0.43m81.602,-0.418l0,1.265l3.385,0l-3.385,-1.265m-87.243,1.683l0.744,0.43l-0.744,-0.43m93.64,0l0.745,0.43l-0.745,-0.43Z" style="fill:#ced926;fill-rule:nonzero;"/><path d="M1189.37,1013.45l0.745,0.431l-0.745,-0.431Z" style="fill:#ced926;fill-rule:nonzero;"/><path d="M1082.19,1014.72l0.745,0.43l-0.745,-0.43Z" style="fill:#ced926;fill-rule:nonzero;"/><path d="M1222.45,1030.75l1.129,1.265l-1.129,-1.265Z" style="fill:#ced926;fill-rule:nonzero;"/><path d="M1248.4,1032.01l1.128,1.265l-1.128,-1.265m-201.948,3.796l1.128,1.265l-1.128,-1.265Z" style="fill:#ced926;fill-rule:nonzero;"/><path d="M1041.94,1040.87l1.128,1.266l-1.128,-1.266Z" style="fill:#ced926;fill-rule:nonzero;"/><path d="M1243.13,1065.76l0.384,0.835l-0.384,-0.835Z" style="fill:#ced926;fill-rule:nonzero;"/><path d="M1013.37,1066.6l0.744,0.43l-0.744,-0.43m240.679,2.113l0,1.265l4.513,0l-4.513,-1.265Z" style="fill:#ced926;fill-rule:nonzero;"/><path d="M1258.56,1068.71l-0,1.265l5.641,0l-5.641,-1.265Z" style="fill:#ced926;fill-rule:nonzero;"/><path d="M1249.16,1070.39l0.745,0.43l-0.745,-0.43Z" style="fill:#ced926;fill-rule:nonzero;"/><path d="M1025.78,1071.66l0.745,0.43l-0.745,-0.43m218.871,0l0.745,0.43l-0.745,-0.43Z" style="fill:#ced926;fill-rule:nonzero;"/><path d="M876.098,1099.08l-0,1.266l518.972,-0c-11.846,-5.581 -32.244,-1.266 -45.128,-1.266l-473.844,0Z" style="fill:#ced926;fill-rule:nonzero;"/><path d="M834.727,1106.25l0.383,0.835l-0.383,-0.835Z" style="fill:#ced926;fill-rule:nonzero;"/><path d="M1435.68,1105.4l0,3.796l1.129,-0l-1.129,-3.796Z" style="fill:#ced926;fill-rule:nonzero;"/><path d="M1428.92,1124.38l1.128,1.265l-1.128,-1.265Z" style="fill:#ced926;fill-rule:nonzero;"/><path d="M843.38,1125.65l1.128,1.266l-1.128,-1.266m583.28,1.266l1.128,1.265l-1.128,-1.265Z" style="fill:#ced926;fill-rule:nonzero;"/><path d="M845.636,1128.18l1.128,1.266l-1.128,-1.266m569.369,6.744l0.745,0.431l-0.745,-0.431Z" style="fill:#ced926;fill-rule:nonzero;"/><path d="M864.816,1137.04l-0,1.265l540.408,-0c-12.388,-5.833 -33.914,-1.265 -47.384,-1.265l-493.024,-0Z" style="fill:#ced926;fill-rule:nonzero;"/><rect x="1136.71" y="1282.55" width="266.255" height="31.634" style="fill:#ced926;fill-rule:nonzero;"/><path d="M1402.97,1282.55l-0,31.634l1.128,-0l-1.128,-31.634Z" style="fill:#ced926;fill-rule:nonzero;"/><path d="M776.816,1455.9l-0,1.266l717.536,-0l-20.308,-1.266l-697.228,0Z" style="fill:#ced926;fill-rule:nonzero;"/><path d="M733.944,1459.7l0,3.796l1.128,0l-1.128,-3.796Z" style="fill:#ced926;fill-rule:nonzero;"/><path d="M1535.34,1469.41l0.384,0.835l-0.384,-0.835Z" style="fill:#ced926;fill-rule:nonzero;"/><path d="M738.457,1472.35l1.128,1.265l-1.128,-1.265m9.026,8.857l1.128,1.266l-1.128,-1.266m770.189,5.479l0.744,0.43l-0.744,-0.43Z" style="fill:#ced926;fill-rule:nonzero;"/><path d="M760.649,1487.95l0.744,0.431l-0.744,-0.431Z" style="fill:#ced926;fill-rule:nonzero;"/><path d="M1511.28,1487.54l-0,1.265l3.384,0l-3.384,-1.265m-743.485,1.265l0,149.311l1.129,-0l-0,-103.758l-1.129,-45.553Z" style="fill:#ced926;fill-rule:nonzero;"/><path d="M1502.25,1488.8l0,149.311l1.128,-0l0,-103.758l-1.128,-45.553Z" style="fill:#ced926;fill-rule:nonzero;"/><path d="M800.508,1496.39l0,1.266l671.28,-0l-19.18,-1.266l-652.1,0Z" style="fill:#ced926;fill-rule:nonzero;"/><path d="M799.38,1497.66l-0,101.227l1.128,0l0,-69.594l-1.128,-31.633Z" style="fill:#ced926;fill-rule:nonzero;"/><rect x="800.508" y="1497.66" width="670.151" height="101.228" style="fill:#fff;fill-rule:nonzero;"/><path d="M1470.66,1497.66l-0,101.227l-670.152,0l0,1.266l671.28,-0l-0,-70.86l-1.128,-31.633Z" style="fill:#ced926;fill-rule:nonzero;"/></g></g></svg>