<?xml version="1.0" encoding="UTF-8" standalone="no"?>
<!-- Created with Inkscape (http://www.inkscape.org/) -->

<svg
   width="87mm"
   height="57mm"
   viewBox="0 0 87 57"
   version="1.1"
   id="svg5"
   inkscape:version="1.2.2 (732a01da63, 2022-12-09)"
   sodipodi:docname="85x55_LOK_UNLOCK.svg"
   xmlns:inkscape="http://www.inkscape.org/namespaces/inkscape"
   xmlns:sodipodi="http://sodipodi.sourceforge.net/DTD/sodipodi-0.dtd"
   xmlns:xlink="http://www.w3.org/1999/xlink"
   xmlns="http://www.w3.org/2000/svg"
   xmlns:svg="http://www.w3.org/2000/svg">
  <sodipodi:namedview
     id="namedview7"
     pagecolor="#ffffff"
     bordercolor="#000000"
     borderopacity="0.25"
     inkscape:showpageshadow="2"
     inkscape:pageopacity="0.0"
     inkscape:pagecheckerboard="0"
     inkscape:deskcolor="#d1d1d1"
     inkscape:document-units="mm"
     showgrid="false"
     inkscape:zoom="1.7852694"
     inkscape:cx="194.08836"
     inkscape:cy="119.30973"
     inkscape:window-width="2048"
     inkscape:window-height="1099"
     inkscape:window-x="2040"
     inkscape:window-y="-6"
     inkscape:window-maximized="1"
     inkscape:current-layer="g4185">
    <sodipodi:guide
       position="0,55.999999"
       orientation="0,1"
       id="guide3585"
       inkscape:locked="false"
       inkscape:label=""
       inkscape:color="rgb(0,134,229)" />
    <sodipodi:guide
       position="85.999998,56.999999"
       orientation="-1,0"
       id="guide3587"
       inkscape:locked="false"
       inkscape:label=""
       inkscape:color="rgb(0,134,229)" />
    <sodipodi:guide
       position="86.999998,0.99999997"
       orientation="0,1"
       id="guide3589"
       inkscape:locked="false"
       inkscape:label=""
       inkscape:color="rgb(0,134,229)" />
    <sodipodi:guide
       position="0.99999997,0"
       orientation="-1,0"
       id="guide3591"
       inkscape:locked="false"
       inkscape:label=""
       inkscape:color="rgb(0,134,229)" />
  </sodipodi:namedview>
  <defs
     id="defs2">
    <color-profile
       name="PSO-Coated-v3"
       xlink:href="../../../../../../../WINDOWS/system32/spool/drivers/color/PSOcoated_v3.icc"
       id="color-profile4275" />
  </defs>
  <g
     inkscape:label="Ebene 1"
     inkscape:groupmode="layer"
     id="layer1">
    <g
       id="g4185"
       transform="matrix(0.9411765,0,0,0.9411765,3.5000002,4.9147858)">
      <g
         id="g7982"
         transform="matrix(0.26540713,0,0,0.26540713,37.306488,-11.385888)" />
      <g
         id="g4268"
         transform="matrix(1.0380274,0,0,1.0380274,-3.1393585,-0.95293963)">
        <g
           id="g18657"
           transform="matrix(0.26540713,0,0,0.26540713,-11.235703,-11.385888)">
          <g
             id="g7798">
            <g
               id="g6939"
               transform="translate(-0.01488172)">
              <rect
                 style="fill:#000000;stroke:none;stroke-width:3;stroke-miterlimit:4;stroke-dasharray:none;paint-order:markers fill stroke;stop-color:#000000"
                 id="rect6669"
                 width="4.256948"
                 height="12.457685"
                 x="132.86026"
                 y="176.09866"
                 rx="1.1627386"
                 ry="1.1627386" />
              <rect
                 style="fill:#000000;stroke:none;stroke-width:3;stroke-miterlimit:4;stroke-dasharray:none;paint-order:markers fill stroke;stop-color:#000000"
                 id="rect6917"
                 width="4.256948"
                 height="12.457685"
                 x="85.241135"
                 y="176.09866"
                 rx="1.1627386"
                 ry="1.1627386" />
            </g>
            <path
               id="rect5971"
               style="stroke-width:3.77953;paint-order:markers fill stroke"
               transform="scale(0.26458333)"
               d="m 352.04297,162.14062 c -28.40782,0 -51.86378,22.12499 -53.94141,50.0625 a 8.7672779,8.7672779 0 0 0 8.74219,9.41602 h 11.36328 a 8.7672779,8.7672779 0 0 0 8.72461,-7.91992 c 1.25546,-12.95347 11.69355,-22.68945 25.11133,-22.68945 h 136.21094 c 13.41777,0 23.86127,9.73741 25.11718,22.68945 a 8.7672779,8.7672779 0 0 0 8.72461,7.91992 h 11.36328 a 8.7672779,8.7672779 0 0 0 8.74219,-9.41602 c -2.07844,-27.93866 -25.53943,-50.06249 -53.94726,-50.0625 z" />
            <rect
               style="fill:#000000;stroke:none;stroke-width:3;stroke-miterlimit:4;stroke-dasharray:none;paint-order:markers fill stroke;stop-color:#000000"
               id="rect6199"
               width="39.958458"
               height="23.739813"
               x="91.185059"
               y="54.28088"
               rx="4.6635141"
               ry="4.6635141" />
            <g
               id="g6360">
              <g
                 id="g5867"
                 transform="matrix(-1,0,0,1,223.40881,0.43209238)">
                <path
                   id="path4690-1"
                   style="fill:#ff0000;stroke:none;stroke-width:0.999999px;stroke-linecap:butt;stroke-linejoin:miter;stroke-opacity:1"
                   d="m 420.23047,245.46875 -136.95703,0.64063 c -18.10947,-10e-6 -35.19922,35.23311 -35.19922,46.71874 v 230.7168 h 172.15625 172.1582 v -230.7168 c 0,-11.48563 -17.08976,-46.71875 -35.19922,-46.71874 z"
                   transform="matrix(-0.26458333,0,0,0.26458333,223.40881,-0.43209238)" />
                <path
                   id="path5847"
                   style="fill:#000000;stroke:none;stroke-width:3.77953;-inkscape-stroke:none;paint-order:markers fill stroke;stop-color:#000000"
                   d="m 248.07422,522.91406 v 124.41211 c 1.75605,6.55365 7.40457,16.41016 15.48242,16.41016 h 15.48242 l 28.58594,28.58789 h 112.25 0.54688 112.25 l 28.58593,-28.58789 h 15.48242 c 8.07785,0 13.72638,-9.85651 15.48243,-16.41016 V 522.91406 H 420.42188 419.875 Z"
                   transform="matrix(-0.26458333,0,0,0.26458333,223.40881,-0.43209238)" />
                <circle
                   style="fill:#000000;stroke:none;stroke-width:1;-inkscape-stroke:none;paint-order:markers fill stroke;stop-color:#000000"
                   id="circle5851"
                   cx="91.417564"
                   cy="132.24748"
                   r="4.5719361" />
                <circle
                   style="fill:#ffffff;stroke:none;stroke-width:1;-inkscape-stroke:none;paint-order:markers fill stroke;stop-color:#000000"
                   id="circle5853"
                   cx="80.305069"
                   cy="132.24748"
                   r="4.5719361" />
                <rect
                   style="fill:#ffffff;stroke:none;stroke-width:1;-inkscape-stroke:none;paint-order:markers fill stroke;stop-color:#000000"
                   id="rect5855"
                   width="27.770277"
                   height="9.651866"
                   x="75.521606"
                   y="114.8064" />
                <rect
                   style="fill:#ffffff;stroke:none;stroke-width:1;-inkscape-stroke:none;paint-order:markers fill stroke;stop-color:#000000"
                   id="rect5857"
                   width="13.391078"
                   height="9.6518631"
                   x="105.54898"
                   y="114.8064"
                   rx="1.5766652"
                   ry="1.5766652" />
                <path
                   id="path5861"
                   style="fill:#000000;stroke:none;stroke-width:3.77953;-inkscape-stroke:none;paint-order:markers fill stroke;stop-color:#000000"
                   d="m 312.76953,292.34375 c -16.04389,0 -28.96094,12.91704 -28.96094,28.96094 v 39.6289 c 0,16.0439 12.91705,28.96094 28.96094,28.96094 h 106.08399 v -97.55078 z"
                   transform="scale(0.26458333)" />
                <rect
                   style="fill:#ffffff;stroke:none;stroke-width:1;-inkscape-stroke:none;paint-order:markers fill stroke;stop-color:#000000"
                   id="rect5863"
                   width="31.375343"
                   height="1.2905025"
                   x="78.156067"
                   y="142.27791" />
                <rect
                   style="fill:#000000;stroke:#ffffff;stroke-width:1;-inkscape-stroke:none;paint-order:markers fill stroke;stop-color:#000000"
                   id="rect5865"
                   width="17.018499"
                   height="10.969275"
                   x="74.607185"
                   y="150.10158"
                   rx="1.2905027"
                   ry="1.2905027" />
              </g>
              <g
                 id="g4708"
                 transform="translate(-1.0802308,0.43209238)">
                <circle
                   style="fill:#000000;stroke:none;stroke-width:1;-inkscape-stroke:none;paint-order:markers fill stroke;stop-color:#000000"
                   id="circle4692"
                   cx="91.417564"
                   cy="132.24748"
                   r="4.5719361" />
                <circle
                   style="fill:#ffffff;stroke:none;stroke-width:1;-inkscape-stroke:none;paint-order:markers fill stroke;stop-color:#000000"
                   id="circle4694"
                   cx="80.305069"
                   cy="132.24748"
                   r="4.5719361" />
                <rect
                   style="fill:#ffffff;stroke:none;stroke-width:1;-inkscape-stroke:none;paint-order:markers fill stroke;stop-color:#000000"
                   id="rect4696"
                   width="27.770277"
                   height="9.651866"
                   x="75.521606"
                   y="114.8064" />
                <rect
                   style="fill:#ffffff;stroke:none;stroke-width:1;-inkscape-stroke:none;paint-order:markers fill stroke;stop-color:#000000"
                   id="rect4698"
                   width="13.391078"
                   height="9.6518631"
                   x="105.54898"
                   y="114.8064"
                   rx="1.5766652"
                   ry="1.5766652" />
                <circle
                   style="fill:#ffffff;stroke:none;stroke-width:0.73815;-inkscape-stroke:none;paint-order:markers fill stroke;stop-color:#000000"
                   id="circle4700"
                   cx="112.24454"
                   cy="109.50868"
                   r="3.374774" />
                <path
                   id="path4702"
                   style="fill:#000000;stroke:none;stroke-width:3.77953;-inkscape-stroke:none;paint-order:markers fill stroke;stop-color:#000000"
                   d="m 312.76953,292.34375 c -16.04389,0 -28.96094,12.91704 -28.96094,28.96094 v 39.6289 c 0,16.0439 12.91705,28.96094 28.96094,28.96094 h 106.08399 v -97.55078 z"
                   transform="scale(0.26458333)" />
                <rect
                   style="fill:#ffffff;stroke:none;stroke-width:1;-inkscape-stroke:none;paint-order:markers fill stroke;stop-color:#000000"
                   id="rect4704"
                   width="31.375343"
                   height="1.2905025"
                   x="78.156067"
                   y="142.27791" />
                <rect
                   style="fill:#000000;stroke:#ffffff;stroke-width:1;-inkscape-stroke:none;paint-order:markers fill stroke;stop-color:#000000"
                   id="rect4706"
                   width="17.018499"
                   height="10.969275"
                   x="74.607185"
                   y="150.10158"
                   rx="1.2905027"
                   ry="1.2905027" />
              </g>
            </g>
            <rect
               style="fill:#000000;stroke:none;stroke-width:3;stroke-miterlimit:4;stroke-dasharray:none;paint-order:markers fill stroke;stop-color:#000000"
               id="rect6543"
               width="22.748343"
               height="19.769592"
               x="99.790115"
               y="45.218945"
               rx="4.6635141"
               ry="4.6635141" />
          </g>
          <g
             aria-label="LOK"
             id="text10892"
             style="font-weight:bold;font-size:45.0739px;font-family:Bahnschrift;-inkscape-font-specification:'Bahnschrift Bold';text-align:center;text-anchor:middle;stroke-width:1.12685">
            <path
               d="m 69.919853,199.40547 h 6.030394 v 32.0007 h -6.030394 z m 2.685066,26.1904 h 18.751446 v 5.8103 H 72.604919 Z"
               id="path18659" />
            <path
               d="m 105.90414,231.7363 q -3.47738,0 -6.140437,-1.45257 -2.641048,-1.47459 -4.093625,-4.13765 -1.452577,-2.68506 -1.452577,-6.20646 v -9.0676 q 0,-3.5214 1.452577,-6.18446 1.452577,-2.68506 4.093625,-4.13764 2.663057,-1.47458 6.140437,-1.47458 3.47738,0 6.11843,1.47458 2.66306,1.45258 4.11564,4.13764 1.45257,2.66306 1.45257,6.18446 v 9.0676 q 0,3.5214 -1.45257,6.20646 -1.45258,2.66306 -4.11564,4.13765 -2.64105,1.45257 -6.11843,1.45257 z m 0,-6.03039 q 1.62865,0 2.86114,-0.68227 1.23249,-0.70428 1.89275,-1.98079 0.68227,-1.2765 0.68227,-2.94917 v -9.37572 q 0,-1.67267 -0.68227,-2.94917 -0.66026,-1.27651 -1.89275,-1.95878 -1.23249,-0.70428 -2.86114,-0.70428 -1.62865,0 -2.86113,0.70428 -1.23249,0.68227 -1.91476,1.95878 -0.66027,1.2765 -0.66027,2.94917 v 9.37572 q 0,1.67267 0.66027,2.94917 0.68227,1.27651 1.91476,1.98079 1.23248,0.68227 2.86113,0.68227 z"
               id="path18661" />
            <path
               d="m 127.16458,218.90521 12.8311,-19.49974 h 7.59301 l -19.6538,27.33485 z m -3.63144,-19.49974 h 6.0304 v 32.0007 h -6.0304 z m 8.95756,15.80227 5.19406,-3.2793 11.24647,19.47773 h -7.15284 z"
               id="path18663" />
          </g>
        </g>
        <g
           id="g7938"
           transform="matrix(0.26540713,0,0,0.26540713,37.302536,-11.385888)">
          <rect
             style="fill:#000000;stroke:none;stroke-width:3;stroke-miterlimit:4;stroke-dasharray:none;paint-order:markers fill stroke;stop-color:#000000"
             id="rect7934"
             width="4.256948"
             height="12.457685"
             x="132.86026"
             y="176.09866"
             rx="1.1627386"
             ry="1.1627386" />
          <rect
             style="fill:#000000;stroke:none;stroke-width:3;stroke-miterlimit:4;stroke-dasharray:none;paint-order:markers fill stroke;stop-color:#000000"
             id="rect7936"
             width="4.256948"
             height="12.457685"
             x="85.241135"
             y="176.09866"
             rx="1.1627386"
             ry="1.1627386" />
        </g>
        <path
           id="path7940"
           style="stroke-width:0.265407;paint-order:markers fill stroke"
           d="m 47.459629,3.735509e-7 c -1.994861,0 -3.641993,1.5536680264491 -3.787888,3.5155040264491 -0.02649,0.356955 0.255959,0.661172 0.613895,0.661215 h 0.797957 c 0.316928,-5.9e-5 0.58203,-0.240711 0.612661,-0.556155 0.08816,-0.909623 0.821148,-1.593306 1.763375,-1.593306 h 9.56504 c 0.942221,0 1.675584,0.683783 1.763779,1.593306 v 2.522379 h 2.024499 V 3.5155044 C 60.666994,1.5535874 59.019522,1.3735509e-6 57.024669,3.735509e-7 Z"
           sodipodi:nodetypes="sccccssccccss" />
        <rect
           style="fill:#000000;stroke:none;stroke-width:0.796221;stroke-miterlimit:4;stroke-dasharray:none;paint-order:markers fill stroke;stop-color:#000000"
           id="rect7942"
           width="10.60526"
           height="6.3007154"
           x="61.507652"
           y="3.0206444"
           rx="1.2377299"
           ry="1.2377299" />
        <g
           id="g7962"
           transform="matrix(-0.26540713,0,0,0.26540713,96.600779,-11.271208)">
          <path
             id="path7944"
             style="fill:#ff0000;stroke:none;stroke-width:0.999999px;stroke-linecap:butt;stroke-linejoin:miter;stroke-opacity:1"
             d="m 420.23047,245.46875 -136.95703,0.64063 c -18.10947,-10e-6 -35.19922,35.23311 -35.19922,46.71874 v 230.7168 h 172.15625 172.1582 v -230.7168 c 0,-11.48563 -17.08976,-46.71875 -35.19922,-46.71874 z"
             transform="matrix(-0.26458333,0,0,0.26458333,223.40881,-0.43209238)" />
          <path
             id="path7946"
             style="fill:#000000;stroke:none;stroke-width:3.77953;-inkscape-stroke:none;paint-order:markers fill stroke;stop-color:#000000"
             d="m 248.07422,522.91406 v 124.41211 c 1.75605,6.55365 7.40457,16.41016 15.48242,16.41016 h 15.48242 l 28.58594,28.58789 h 112.25 0.54688 112.25 l 28.58593,-28.58789 h 15.48242 c 8.07785,0 13.72638,-9.85651 15.48243,-16.41016 V 522.91406 H 420.42188 419.875 Z"
             transform="matrix(-0.26458333,0,0,0.26458333,223.40881,-0.43209238)" />
          <circle
             style="fill:#000000;stroke:none;stroke-width:1;-inkscape-stroke:none;paint-order:markers fill stroke;stop-color:#000000"
             id="circle7948"
             cx="91.417564"
             cy="132.24748"
             r="4.5719361" />
          <circle
             style="fill:#ffffff;stroke:none;stroke-width:1;-inkscape-stroke:none;paint-order:markers fill stroke;stop-color:#000000"
             id="circle7950"
             cx="80.305069"
             cy="132.24748"
             r="4.5719361" />
          <rect
             style="fill:#ffffff;stroke:none;stroke-width:1;-inkscape-stroke:none;paint-order:markers fill stroke;stop-color:#000000"
             id="rect7952"
             width="27.770277"
             height="9.651866"
             x="75.521606"
             y="114.8064" />
          <rect
             style="fill:#ffffff;stroke:none;stroke-width:1;-inkscape-stroke:none;paint-order:markers fill stroke;stop-color:#000000"
             id="rect7954"
             width="13.391078"
             height="9.6518631"
             x="105.54898"
             y="114.8064"
             rx="1.5766652"
             ry="1.5766652" />
          <path
             id="path7956"
             style="fill:#000000;stroke:none;stroke-width:3.77953;-inkscape-stroke:none;paint-order:markers fill stroke;stop-color:#000000"
             d="m 312.76953,292.34375 c -16.04389,0 -28.96094,12.91704 -28.96094,28.96094 v 39.6289 c 0,16.0439 12.91705,28.96094 28.96094,28.96094 h 106.08399 v -97.55078 z"
             transform="scale(0.26458333)" />
          <rect
             style="fill:#ffffff;stroke:none;stroke-width:1;-inkscape-stroke:none;paint-order:markers fill stroke;stop-color:#000000"
             id="rect7958"
             width="31.375343"
             height="1.2905025"
             x="78.156067"
             y="142.27791" />
          <rect
             style="fill:#000000;stroke:#ffffff;stroke-width:1;-inkscape-stroke:none;paint-order:markers fill stroke;stop-color:#000000"
             id="rect7960"
             width="17.018499"
             height="10.969275"
             x="74.607185"
             y="150.10158"
             rx="1.2905027"
             ry="1.2905027" />
        </g>
        <g
           id="g7980"
           transform="matrix(0.26540713,0,0,0.26540713,37.019788,-11.271208)">
          <circle
             style="fill:#000000;stroke:none;stroke-width:1;-inkscape-stroke:none;paint-order:markers fill stroke;stop-color:#000000"
             id="circle7964"
             cx="91.417564"
             cy="132.24748"
             r="4.5719361" />
          <circle
             style="fill:#ffffff;stroke:none;stroke-width:1;-inkscape-stroke:none;paint-order:markers fill stroke;stop-color:#000000"
             id="circle7966"
             cx="80.305069"
             cy="132.24748"
             r="4.5719361" />
          <rect
             style="fill:#ffffff;stroke:none;stroke-width:1;-inkscape-stroke:none;paint-order:markers fill stroke;stop-color:#000000"
             id="rect7968"
             width="27.770277"
             height="9.651866"
             x="75.521606"
             y="114.8064" />
          <rect
             style="fill:#ffffff;stroke:none;stroke-width:1;-inkscape-stroke:none;paint-order:markers fill stroke;stop-color:#000000"
             id="rect7970"
             width="13.391078"
             height="9.6518631"
             x="105.54898"
             y="114.8064"
             rx="1.5766652"
             ry="1.5766652" />
          <circle
             style="fill:#ffffff;stroke:none;stroke-width:0.73815;-inkscape-stroke:none;paint-order:markers fill stroke;stop-color:#000000"
             id="circle7972"
             cx="112.24454"
             cy="109.50868"
             r="3.374774" />
          <path
             id="path7974"
             style="fill:#000000;stroke:none;stroke-width:3.77953;-inkscape-stroke:none;paint-order:markers fill stroke;stop-color:#000000"
             d="m 312.76953,292.34375 c -16.04389,0 -28.96094,12.91704 -28.96094,28.96094 v 39.6289 c 0,16.0439 12.91705,28.96094 28.96094,28.96094 h 106.08399 v -97.55078 z"
             transform="scale(0.26458333)" />
          <rect
             style="fill:#ffffff;stroke:none;stroke-width:1;-inkscape-stroke:none;paint-order:markers fill stroke;stop-color:#000000"
             id="rect7976"
             width="31.375343"
             height="1.2905025"
             x="78.156067"
             y="142.27791" />
          <rect
             style="fill:#000000;stroke:#ffffff;stroke-width:1;-inkscape-stroke:none;paint-order:markers fill stroke;stop-color:#000000"
             id="rect7978"
             width="17.018499"
             height="10.969275"
             x="74.607185"
             y="150.10158"
             rx="1.2905027"
             ry="1.2905027" />
        </g>
        <rect
           style="fill:#000000;stroke:none;stroke-width:0.796221;stroke-miterlimit:4;stroke-dasharray:none;paint-order:markers fill stroke;stop-color:#000000"
           id="rect7984"
           width="6.0375724"
           height="5.2469907"
           x="63.791496"
           y="0.61554265"
           rx="1.2377299"
           ry="1.2377299" />
        <path
           d="m 50.910309,50.118579 q -0.981334,0 -1.676446,-0.368001 -0.695112,-0.373841 -1.057271,-1.080634 -0.362159,-0.712637 -0.362159,-1.711494 v -5.420704 h 1.600509 v 5.461593 q 0,0.730159 0.391367,1.133206 0.391364,0.40305 1.104,0.40305 0.718476,0 1.109843,-0.40305 0.397205,-0.403047 0.397205,-1.133206 v -5.461593 h 1.600512 v 5.420704 q 0,0.998857 -0.368001,1.711494 -0.362161,0.706793 -1.063112,1.080634 -0.695112,0.368001 -1.676447,0.368001 z"
           id="path18771"
           style="font-weight:bold;font-size:45.0739px;line-height:1.25;font-family:Bahnschrift;-inkscape-font-specification:'Bahnschrift Bold';text-align:center;text-anchor:middle;stroke-width:0.299074" />
        <path
           d="m 55.653427,41.537746 h 1.956825 l 3.160131,6.50718 -0.14019,0.151874 v -6.659054 h 1.530414 v 8.487372 h -1.968509 l -3.148447,-6.407878 0.14019,-0.151874 v 6.559752 h -1.530414 z"
           id="path18773"
           style="font-weight:bold;font-size:45.0739px;line-height:1.25;font-family:Bahnschrift;-inkscape-font-specification:'Bahnschrift Bold';text-align:center;text-anchor:middle;stroke-width:0.299074" />
        <path
           d="m 64.029816,41.537746 h 1.600509 v 8.493214 h -1.600509 z m 0.712634,6.951119 h 4.976769 V 50.03096 H 64.74245 Z"
           id="path18775"
           style="font-weight:bold;font-size:45.0739px;line-height:1.25;font-family:Bahnschrift;-inkscape-font-specification:'Bahnschrift Bold';text-align:center;text-anchor:middle;stroke-width:0.299074" />
        <path
           d="m 73.580303,50.118579 q -0.922921,0 -1.629716,-0.385523 Q 71.249633,49.34169 70.864108,48.634894 70.478586,47.92226 70.478586,46.987656 V 44.58105 q 0,-0.934605 0.385522,-1.6414 0.385525,-0.712634 1.086479,-1.098159 0.706795,-0.391364 1.629716,-0.391364 0.922922,0 1.623876,0.391364 0.706792,0.385525 1.092317,1.098159 0.385525,0.706795 0.385525,1.6414 v 2.406606 q 0,0.934604 -0.385525,1.647238 -0.385525,0.706796 -1.092317,1.098162 -0.700954,0.385523 -1.623876,0.385523 z m 0,-1.600509 q 0.432253,0 0.759365,-0.181079 0.327111,-0.186921 0.502352,-0.525716 0.181079,-0.338792 0.181079,-0.782731 v -2.488383 q 0,-0.443938 -0.181079,-0.78273 -0.175241,-0.338795 -0.502352,-0.519875 -0.327112,-0.18692 -0.759365,-0.18692 -0.432255,0 -0.759366,0.18692 -0.327112,0.18108 -0.508191,0.519875 -0.175238,0.338792 -0.175238,0.78273 v 2.488383 q 0,0.443939 0.175238,0.782731 0.181079,0.338795 0.508191,0.525716 0.327111,0.181079 0.759366,0.181079 z"
           id="path18777"
           style="font-weight:bold;font-size:45.0739px;line-height:1.25;font-family:Bahnschrift;-inkscape-font-specification:'Bahnschrift Bold';text-align:center;text-anchor:middle;stroke-width:0.299074" />
        <path
           d="m 79.222976,46.713116 3.405465,-5.17537 h 2.015239 l -5.216258,7.254864 z m -0.96381,-5.17537 h 1.600508 v 8.493214 h -1.600508 z m 2.3774,4.194035 1.378541,-0.87035 2.98489,5.169529 h -1.898414 z"
           id="path18779"
           style="font-weight:bold;font-size:45.0739px;line-height:1.25;font-family:Bahnschrift;-inkscape-font-specification:'Bahnschrift Bold';text-align:center;text-anchor:middle;stroke-width:0.299074" />
      </g>
    </g>
  </g>
</svg>
