<?xml version="1.0" encoding="UTF-8" standalone="no"?>
<!-- Created with Inkscape (http://www.inkscape.org/) -->

<svg
   width="60mm"
   height="52mm"
   viewBox="0 0 212.59843 184.25197"
   id="svg9519"
   version="1.1"
   inkscape:version="1.2.2 (b0a8486541, 2022-12-01)"
   sodipodi:docname="sdfa_60x52.svg"
   xmlns:inkscape="http://www.inkscape.org/namespaces/inkscape"
   xmlns:sodipodi="http://sodipodi.sourceforge.net/DTD/sodipodi-0.dtd"
   xmlns="http://www.w3.org/2000/svg"
   xmlns:svg="http://www.w3.org/2000/svg"
   xmlns:rdf="http://www.w3.org/1999/02/22-rdf-syntax-ns#"
   xmlns:cc="http://creativecommons.org/ns#"
   xmlns:dc="http://purl.org/dc/elements/1.1/">
  <title
     id="title720">Alles Zweifelhafte muss angezweifelt werden</title>
  <defs
     id="defs9521" />
  <sodipodi:namedview
     id="base"
     pagecolor="#ffffff"
     bordercolor="#666666"
     borderopacity="1.0"
     inkscape:pageopacity="0.0"
     inkscape:pageshadow="2"
     inkscape:zoom="1.979899"
     inkscape:cx="197.48482"
     inkscape:cy="103.54064"
     inkscape:document-units="mm"
     inkscape:current-layer="layer1"
     showgrid="false"
     showborder="true"
     inkscape:showpageshadow="false"
     inkscape:pagecheckerboard="1"
     inkscape:deskcolor="#d1d1d1"
     inkscape:window-width="1920"
     inkscape:window-height="1058"
     inkscape:window-x="0"
     inkscape:window-y="22"
     inkscape:window-maximized="1" />
  <metadata
     id="metadata9524">
    <rdf:RDF>
      <cc:Work
         rdf:about="">
        <dc:format>image/svg+xml</dc:format>
        <dc:type
           rdf:resource="http://purl.org/dc/dcmitype/StillImage" />
        <dc:title>Alles Zweifelhafte muss angezweifelt werden</dc:title>
        <dc:date>03.03.2017</dc:date>
        <dc:creator>
          <cc:Agent>
            <dc:title>das_mool (echo bW9vbEBtdHdlZy5kZQo= | base64 -d)</dc:title>
          </cc:Agent>
        </dc:creator>
        <cc:license
           rdf:resource="http://creativecommons.org/licenses/by-sa/4.0/&quot;" />
        <dc:language>english</dc:language>
        <dc:description>Sticker saying:'Alles Zweifelhafte muss angezweifelt werden.' 
The font used is https://www.dafont.com/moms-typewriter.font
Cut is already incorporated
be excellent to each other!</dc:description>
      </cc:Work>
    </rdf:RDF>
  </metadata>
  <g
     inkscape:label="holy mess of layers"
     inkscape:groupmode="layer"
     id="layer1"
     transform="translate(0,-868.11024)">
    <rect
       style="display:inline;opacity:1;fill:#ffffff;fill-opacity:1;stroke:none;stroke-width:7.19646;stroke-linecap:round;stroke-linejoin:round;stroke-miterlimit:4;stroke-dasharray:none;stroke-dashoffset:0;stroke-opacity:1"
       id="rect9437"
       width="212.59842"
       height="184.25197"
       x="9.3396256e-06"
       y="868.11023"
       inkscape:export-xdpi="90"
       inkscape:export-ydpi="90"
       inkscape:label="60x52 square" />
    <g
       id="g9439"
       transform="matrix(0.10823021,0,0,0.10823021,-47.635934,815.16131)"
       inkscape:export-xdpi="90"
       inkscape:export-ydpi="90"
       style="display:inline">
      <rect
         transform="scale(-1,1)"
         style="opacity:1;fill:#ffffff;fill-opacity:1;stroke:#008033;stroke-width:6.66164;stroke-linecap:round;stroke-linejoin:round;stroke-miterlimit:4;stroke-dasharray:none;stroke-dashoffset:0;stroke-opacity:1"
         id="rect9263"
         width="1859.4393"
         height="1601.6758"
         x="-2352.0134"
         y="539.59113"
         inkscape:export-xdpi="90"
         inkscape:export-ydpi="90"
         ry="12.141395" />
      <rect
         transform="scale(-1,1)"
         ry="12.141395"
         inkscape:export-ydpi="90"
         inkscape:export-xdpi="90"
         y="551.72937"
         x="-2337.9219"
         height="1577.3993"
         width="1831.2561"
         id="rect8991"
         style="opacity:1;fill:#ffffff;fill-opacity:1;stroke:#008033;stroke-width:6.55996;stroke-linecap:round;stroke-linejoin:miter;stroke-miterlimit:4;stroke-dasharray:none;stroke-dashoffset:0;stroke-opacity:1" />
      <g
         style="fill:#008033"
         id="g9426">
        <path
           inkscape:connector-curvature="0"
           style="color:#000000;font-style:normal;font-variant:normal;font-weight:normal;font-stretch:normal;font-size:medium;line-height:normal;font-family:sans-serif;text-indent:0;text-align:start;text-decoration:none;text-decoration-line:none;text-decoration-style:solid;text-decoration-color:#000000;letter-spacing:normal;word-spacing:normal;text-transform:none;writing-mode:lr-tb;direction:ltr;baseline-shift:baseline;text-anchor:start;white-space:normal;clip-rule:nonzero;display:inline;overflow:visible;visibility:visible;opacity:1;isolation:auto;mix-blend-mode:normal;color-interpolation:sRGB;color-interpolation-filters:linearRGB;solid-color:#000000;solid-opacity:1;fill:#008033;fill-opacity:1;fill-rule:nonzero;stroke:none;stroke-width:14.1732;stroke-linecap:round;stroke-linejoin:miter;stroke-miterlimit:4;stroke-dasharray:none;stroke-dashoffset:0;stroke-opacity:1;color-rendering:auto;image-rendering:auto;shape-rendering:auto;text-rendering:auto;enable-background:accumulate"
           d="m 1375.5888,635.20635 -3.623,2.63282 -54.1504,39.35547 -67.8066,-22.41993 -49.3477,51.63086 -70.7226,-9.95312 -39.336,59.61133 -71.3633,2.83789 -28.05854,65.67578 -69.70899,15.5332 -12.28125,53.85156 H 605.00878 l 1.98243,12.15235 4.77734,29.44922 0.63476,3.92773 65.48829,403.78709 -72.86915,449.3164 h 309.72071 l 8.52344,3.1992 18.64648,68.9414 70.27342,12.7403 30.6543,64.5078 71.4219,-0.012 41.6797,57.9941 70.2695,-12.7637 51.3672,49.6192 66.8593,-25.1055 59.4024,39.6504 61.3027,-36.6406 65.5274,28.4082 53.7754,-46.9981 69.5468,16.25 44.5176,-55.8457 71.3301,3.5742 33.834,-62.8984 70.8222,-9.2227 22.0567,-67.9257 68.041,-21.7207 0.7734,-5.752 h 274.211 l -72.8711,-449.3164 72.8711,-449.31639 h -288.6094 l -4.9863,-28.30273 -68.8477,-18.98828 -24.75,-66.99414 -71.1328,-6.38867 -36.3145,-61.49805 -71.1308,6.41406 -46.711,-54.02539 -68.8437,19.01172 -55.6074,-44.81641 -64.3399,31 -62.7168,-34.16797 z"
           id="path8771"
           inkscape:export-xdpi="90"
           inkscape:export-ydpi="90" />
      </g>
      <path
         inkscape:export-ydpi="90"
         inkscape:export-xdpi="90"
         id="path5527"
         d="m 1376.1318,643.57159 -57.0898,41.49219 -67.0059,-22.1543 -48.7637,51.01953 -69.8867,-9.83398 -38.8691,58.90625 -70.5195,2.80273 -27.7266,64.90039 -68.88476,15.34961 -12.54297,54.99414 h 7.26953 l 11.1875,-49.05273 68.0606,-15.16602 27.3945,-64.12305 69.6758,-2.76953 38.4043,-58.20117 69.0488,9.7168 48.1796,-50.40821 66.2051,21.88868 56.4063,-40.9961 61.2324,33.35938 62.8203,-30.26563 54.293,43.75586 67.2129,-18.56054 45.6074,52.74609 69.4473,-6.26172 35.457,60.04297 69.4492,6.24023 24.166,65.40821 67.2188,18.53906 4.2461,24.10742 h 7.1972 l -5.2402,-29.74805 -68.0352,-18.76367 -24.457,-66.20117 -70.291,-6.31445 -35.8848,-60.76953 -70.291,6.33789 -46.1582,-53.38672 -68.0293,18.78711 -54.9492,-44.28711 -63.5801,30.63281 z m 46.166,74.73437 c -165.6047,2.1e-4 -324.4354,65.73272 -441.60933,182.74219 h 10.08594 c 5.40027,-5.26833 10.88779,-10.42773 16.45699,-15.47851 l 13.2344,15.47851 h 7.4649 l -17.4434,-18.39844 c 8.58,-7.67133 17.3456,-15.09417 26.3008,-22.24414 l 24.9375,33.18164 c -3.0561,2.45055 -6.0822,4.94424 -9.0918,7.46094 h 11.1387 c 100.9359,-81.83608 227.3937,-127.08406 358.5253,-127.08398 131.1318,-6e-5 257.5898,45.24766 358.5254,127.08398 h 11.1387 c -6.1044,-5.10299 -12.2999,-10.07796 -18.5918,-14.91015 l 24.2363,-33.69336 c 9.1044,6.96182 18.0323,14.18713 26.7695,21.67578 l -24.4785,26.92773 h 8.0684 l 19.7187,-24.06641 c 8.6443,7.51575 17.1037,15.28467 25.3575,23.31055 l -0.7793,0.75586 h 11.6445 C 1746.7328,784.03861 1587.9028,718.30567 1422.2978,718.30596 Z m 0,7.08789 c 3.5893,0 7.1734,0.0412 10.7559,0.10352 l -1.9375,41.45508 c -2.9375,-0.0449 -5.876,-0.0762 -8.8184,-0.0762 -6.9756,-10e-6 -13.9383,0.12923 -20.8847,0.38086 l -2.8028,-41.40625 c 7.8781,-0.30199 15.7743,-0.45703 23.6875,-0.45704 z m 15.1289,0.18555 c 11.5078,0.28153 22.976,0.89481 34.3946,1.8125 l -4.5332,41.25 c -9.8523,-0.77102 -19.7428,-1.29299 -29.6661,-1.55664 z m -43.1855,0.46289 0.6738,41.49024 c -9.9143,0.47116 -19.7952,1.19061 -29.6309,2.16797 l -5.3964,-41.14258 c 11.3995,-1.15699 22.8553,-1.99337 34.3535,-2.51563 z m 81.9394,1.70703 c 11.4621,1.00291 22.8705,2.33086 34.2149,3.96485 l -7.1153,40.88867 c -9.7881,-1.38891 -19.6278,-2.53228 -29.5097,-3.41797 z m -120.6425,1.26758 3.2753,41.36719 c -9.8602,1.09238 -19.6728,2.43726 -29.4316,4.03125 l -7.9687,-40.72266 c 11.3095,-1.87169 22.688,-3.43313 34.125,-4.67578 z m 159.1855,3.33203 c 11.372,1.72027 22.6748,3.75877 33.9004,6.10352 l -9.668,40.36133 c -9.6866,-2.00216 -19.4349,-3.75947 -29.2383,-5.26368 z m -197.625,2.06836 5.8691,41.08203 c -9.768,1.70895 -19.4774,3.67215 -29.1211,5.87696 l -10.5117,-40.14454 c 11.175,-2.57965 22.4326,-4.85665 33.7637,-6.81445 z m 235.8027,4.94336 c 11.2363,2.43015 22.3923,5.16838 33.4532,8.21485 l -12.1856,39.67578 c -9.5453,-2.60752 -19.1645,-4.96981 -28.8496,-7.08594 z m -273.8242,2.85938 8.4375,40.64062 c -9.6379,2.31826 -19.205,4.88803 -28.6953,7.69531 l -13.0137,-39.4082 c 10.9972,-3.2782 22.0892,-6.26294 33.2715,-8.92773 z m 311.4883,6.53711 c 11.0552,3.12925 22.0182,6.55315 32.8691,10.28906 l -14.6523,38.83789 c -9.3663,-3.20282 -18.8205,-6.16184 -28.3496,-8.88086 z m -348.9453,3.64843 10.9726,40.0293 c -9.4693,2.91763 -18.8575,6.07785 -28.1562,9.47656 l -15.4629,-38.51562 c 10.7737,-3.96359 21.6588,-7.63008 32.6465,-10.99024 z m 385.9394,8.08789 c 10.8338,3.81593 21.5595,7.92979 32.1602,12.3418 l -17.0586,37.83008 c -9.1501,-3.78582 -18.4004,-7.33004 -27.7363,-10.64063 z m -422.6816,4.42578 13.4629,39.25977 c -9.2643,3.50509 -18.437,7.24726 -27.5078,11.22461 l -17.8496,-37.4707 c 10.5077,-4.63374 21.1443,-8.97221 31.8945,-13.01368 z m 458.873,9.61329 c 10.568,4.48641 21.0098,9.26729 31.3164,14.33789 l -19.4003,36.68554 c -8.8978,-4.35427 -17.9037,-8.47868 -27.0098,-12.36718 z m -494.7597,5.18359 15.9004,38.33203 c -9.0224,4.07801 -17.9435,8.38527 -26.75,12.92578 l -20.1699,-36.27734 c 10.2009,-5.28676 20.5478,-10.27385 31.0195,-14.98047 z m 529.9961,11.09375 c 10.262,5.13917 20.3826,10.57267 30.3554,16.2832 l -21.6679,35.39649 c -8.6106,-4.90643 -17.3386,-9.59206 -26.1797,-14.04297 z m -289.5215,4.35156 a 548.57141,548.57141 0 0 0 -11.5117,0.40821 L 1272.249,901.04815 h 11.0254 z m 51.1855,1.4668 -124.4433,104.41992 h 11.0234 l 123.8242,-103.90039 a 548.57141,548.57141 0 0 0 -10.4043,-0.51953 z m -326.5488,0.10547 18.2774,37.25586 c -8.7457,4.63476 -17.381,9.49138 -25.8887,14.57812 l -22.4004,-34.93164 c 9.8515,-5.91841 19.862,-11.55065 30.0117,-16.90234 z m 203.6973,4.89453 a 548.57141,548.57141 0 0 0 -13.586,2.14844 L 1208.29,901.04815 h 11.0254 z m 178.7246,1.7832 -116.3594,97.63672 h 11.0273 l 114.6758,-96.22461 a 548.57141,548.57141 0 0 0 -9.3437,-1.41211 z m 216.6094,5.85938 c 9.9139,5.77034 19.6717,11.8305 29.2695,18.1582 l -23.8477,33.96875 c -8.2885,-5.43951 -16.7055,-10.66309 -25.2461,-15.6582 z m -166.168,5.48242 -102.8418,86.29492 h 11.0254 l 100.2695,-84.13672 a 548.57141,548.57141 0 0 0 -8.4531,-2.1582 z m -466.6133,1.15039 20.5782,36.03516 c -8.4336,5.17246 -16.7417,10.56662 -24.9161,16.17968 l -24.5488,-33.45507 c 9.4649,-6.52862 19.0969,-12.7837 28.8867,-18.75977 z m 146.5762,8.30664 a 548.57141,548.57141 0 0 0 -18.2578,6.06641 l -84.3418,70.77148 h 11.0273 z m 366.1953,5.47852 -85.043,71.35937 h 11.0274 l 81.6992,-68.55469 a 548.57141,548.57141 0 0 0 -7.6836,-2.80468 z m 152.9238,0.15625 c 9.5287,6.37937 18.8898,13.03504 28.0762,19.95703 l -25.9336,32.40429 c -7.9346,-5.95261 -16.0092,-11.69097 -24.2168,-17.21093 z m -698.1777,7.3125 22.8027,34.66992 c -8.0888,5.68974 -16.0384,11.60047 -23.8476,17.71875 l -26.6035,-31.84766 c 9.0396,-7.11313 18.2582,-13.9652 27.6484,-20.54101 z m 587.8789,10.43164 -63.7109,53.45898 h 11.0273 l 59.6816,-50.07812 a 548.57141,548.57141 0 0 0 -6.998,-3.38086 z m 39.6015,20.4375 -39.3535,33.02148 h 11.0293 l 34.6973,-29.11523 a 548.57141,548.57141 0 0 0 -6.3731,-3.90625 z m 36.9336,22.67968 -12.3242,10.3418 h 11.0235 l 7.0859,-5.94531 a 548.57141,548.57141 0 0 0 -5.7852,-4.39649 z m -816.25579,894.80275 13.13086,4.9258 18.42578,68.1269 69.44145,12.5898 30.2929,63.7442 70.5762,-0.012 41.1875,57.3086 69.4375,-12.6133 50.7597,49.0332 66.0703,-24.8086 58.6993,39.1816 60.5781,-36.207 64.7519,28.0723 53.1387,-46.4434 68.7246,16.0586 43.9922,-55.1855 70.4863,3.5312 33.4336,-62.1543 69.9844,-9.1133 21.7969,-67.123 67.2324,-21.4629 0.2988,-2.2188 0.7071,-5.2304 h -7.1485 l -0.2793,2.0605 -66.4277,21.2051 -21.5371,66.3203 -69.1465,9.0039 -33.0332,61.4102 -69.6426,-3.4864 -43.4668,54.5235 -67.9004,-15.8672 -52.5039,45.8867 -63.9765,-27.7344 -59.8535,35.7735 -57.9961,-38.7129 -65.2813,24.5117 -50.1504,-48.4473 -68.6074,12.4629 -40.6953,-56.623 -69.7304,0.012 -29.9297,-62.9805 -68.61137,-12.4394 -18.08789,-66.8789 z m 64.66016,0 c 117.17403,117.0099 276.00433,182.7419 441.60933,182.7422 165.6054,3e-4 324.435,-65.7322 441.6094,-182.7422 h -10.084 c -5.4004,5.2685 -10.8876,10.4275 -16.457,15.4785 l -13.2344,-15.4785 h -7.4648 l 17.4433,18.3984 c -8.5804,7.6717 -17.3471,15.0939 -26.3027,22.2441 l -24.9395,-33.1816 c 3.0558,-2.4503 6.0809,-4.9441 9.0899,-7.4609 h -11.1367 c -100.9353,81.8352 -227.3926,127.0821 -358.5235,127.082 -131.1307,10e-5 -257.5879,-45.247 -358.5234,-127.082 h -11.1406 c 6.1044,5.103 12.2998,10.078 18.5918,14.9101 l -24.2344,33.6934 c -9.1049,-6.9621 -18.0338,-14.1868 -26.7715,-21.6758 l 24.4785,-26.9277 h -8.0664 l -19.7187,24.0683 c -8.6451,-7.5163 -17.105,-15.286 -25.35939,-23.3125 l 0.77929,-0.7558 z m 132.91403,0 -7.08,5.9414 a 548.57141,548.57141 0 0 0 5.7851,4.3984 l 12.3223,-10.3398 z m 63.961,0 -34.6953,29.1132 a 548.57141,548.57141 0 0 0 6.371,3.9063 l 39.3516,-33.0195 z m 63.9589,0 -59.6777,50.0761 a 548.57141,548.57141 0 0 0 6.9961,3.3809 l 63.707,-53.457 z m 63.9571,0 -81.6973,68.5527 a 548.57141,548.57141 0 0 0 7.6836,2.8047 l 85.041,-71.3574 z m 63.9589,0 -100.2675,84.1347 a 548.57141,548.57141 0 0 0 8.4531,2.1582 l 102.8398,-86.2929 z m 63.9571,0 -114.6739,96.2226 a 548.57141,548.57141 0 0 0 9.3418,1.4121 l 116.3575,-97.6347 z m 63.959,0 -123.8223,103.9004 a 548.57141,548.57141 0 0 0 10.4043,0.5214 l 124.4453,-104.4218 z m 63.9589,0 -126.1914,105.8867 a 548.57141,548.57141 0 0 0 11.5137,-0.4082 l 125.7051,-105.4785 z m 63.9571,0 -118.4864,99.4218 a 548.57141,548.57141 0 0 0 13.586,-2.1484 l 115.9258,-97.2734 z m 63.957,0 -91.5781,76.8437 a 548.57141,548.57141 0 0 0 18.2558,-6.0644 l 84.3516,-70.7793 z m 88.543,11.498 26.6035,31.8535 c -9.0392,7.1128 -18.2567,13.9655 -27.6465,20.541 l -22.8027,-34.6757 c 8.0883,-5.6895 16.037,-11.6008 23.8457,-17.7188 z m -701.3613,7.3457 c 7.9334,5.9516 16.0066,11.69 24.2129,17.209 l -22.0742,35.1504 c -9.528,-6.3789 -18.8885,-13.0337 -28.0743,-19.9551 z m 672.1718,14.0821 24.5528,33.4589 c -9.4653,6.529 -19.0984,12.7834 -28.8887,18.7598 l -20.5801,-36.0391 c 8.4335,-5.1725 16.7417,-10.5665 24.916,-16.1796 z m -642.541,6.7246 c 8.2899,5.4403 16.708,10.6623 25.25,15.6582 l -19.8261,36.4687 c -9.9145,-5.7706 -19.6732,-11.8302 -29.2715,-18.1582 z m 612.0625,12.8281 22.4023,34.9355 c -9.8515,5.9184 -19.8619,11.5507 -30.0117,16.9024 l -18.2754,-37.2617 c 8.7447,-4.6344 17.378,-9.49 25.8848,-14.5762 z m -581.1777,6.082 c 8.6101,4.906 17.337,9.5924 26.1777,14.043 l -17.4921,37.6328 c -10.2614,-5.1388 -20.3814,-10.5712 -30.3536,-16.2813 z m 549.5293,11.5098 20.1699,36.2812 c -10.2,5.2863 -20.545,10.2743 -31.0156,14.9805 l -15.9024,-38.3359 c 9.0218,-4.0779 17.9422,-8.3855 26.7481,-12.9258 z m -517.5254,5.4219 c 8.8984,4.3545 17.9069,8.4785 27.0136,12.3671 l -15.0956,38.6563 c -10.5679,-4.4863 -21.0119,-9.2674 -31.3184,-14.3379 z m 484.834,10.1503 17.8535,37.4747 c -10.508,4.6338 -21.146,8.9682 -31.8965,13.0097 l -13.4629,-39.2597 c 9.264,-3.5051 18.4352,-7.2474 27.5059,-11.2247 z m -451.8243,4.7403 c 9.1496,3.7854 18.3991,7.3303 27.7344,10.6406 l -12.6367,39.5293 c -10.8328,-3.8156 -21.5565,-7.9263 -32.1562,-12.3379 z m 418.2227,8.75 15.4629,38.5195 c -10.773,3.9633 -21.6576,7.6303 -32.6445,10.9902 l -10.9747,-40.0312 c 9.4697,-2.9178 18.8572,-6.0796 28.1563,-9.4785 z m -384.3457,4.0312 c 9.3665,3.2029 18.8202,6.1619 28.3496,8.8809 l -10.1309,40.248 c -11.056,-3.1294 -22.0194,-6.5567 -32.871,-10.2929 z m 349.9629,7.3262 13.0137,39.4121 c -10.9966,3.278 -22.0879,6.2631 -33.2696,8.9277 l -8.4375,-40.6464 c 9.6371,-2.3182 19.2039,-4.8863 28.6934,-7.6934 z m -315.3496,3.3047 c 9.5461,2.6077 19.1675,4.9697 28.8535,7.0859 l -7.5859,40.8067 c -11.2356,-2.43 -22.3891,-5.1668 -33.4493,-8.2129 z m 280.3222,5.873 10.5137,40.1485 c -11.1763,2.5799 -22.4352,4.8565 -33.7676,6.8144 l -5.8672,-41.084 c 9.7682,-1.709 19.4775,-3.674 29.1211,-5.8789 z m -245.1074,2.5664 c 9.6866,2.0021 19.435,3.7576 29.2383,5.2618 l -5.0059,41.2031 c -11.3715,-1.7202 -22.6751,-3.7589 -33.9004,-6.1035 z m 209.5742,4.3946 7.9688,40.7265 c -11.3103,1.8718 -22.6894,3.4331 -34.127,4.6758 l -3.2773,-41.3691 c 9.8616,-1.0926 19.6754,-2.4389 29.4355,-4.0332 z m -173.9004,1.8164 c 9.7893,1.389 19.6287,2.5303 29.5118,3.416 l -2.4102,41.4375 c -11.4628,-1.0029 -22.8717,-2.3327 -34.2168,-3.9668 z m 137.9961,2.9004 5.3965,41.1425 c -11.3998,1.1571 -22.855,1.9954 -34.3535,2.5176 l -0.6719,-41.4922 c 9.9136,-0.4712 19.794,-1.1906 29.6289,-2.1679 z m -102.0039,1.0586 c 9.8527,0.771 19.7443,1.293 29.668,1.5566 l 0.1953,41.5078 c -11.5084,-0.2815 -22.9772,-0.8947 -34.3965,-1.8125 z m 65.877,1.3847 2.8027,41.4082 c -7.8787,0.302 -15.7774,0.4571 -23.6914,0.4571 -3.588,0 -7.1707,-0.041 -10.7519,-0.1035 l 1.9355,-41.4571 c 2.9369,0.045 5.8747,0.076 8.8164,0.076 6.977,0 13.9409,-0.1291 20.8887,-0.3809 z"
         style="color:#000000;font-style:normal;font-variant:normal;font-weight:normal;font-stretch:normal;font-size:medium;line-height:normal;font-family:sans-serif;text-indent:0;text-align:start;text-decoration:none;text-decoration-line:none;text-decoration-style:solid;text-decoration-color:#000000;letter-spacing:normal;word-spacing:normal;text-transform:none;writing-mode:lr-tb;direction:ltr;baseline-shift:baseline;text-anchor:start;white-space:normal;clip-rule:nonzero;display:inline;overflow:visible;visibility:visible;opacity:1;isolation:auto;mix-blend-mode:normal;color-interpolation:sRGB;color-interpolation-filters:linearRGB;solid-color:#000000;solid-opacity:1;fill:#ffffff;fill-opacity:1;fill-rule:nonzero;stroke:none;stroke-width:7.08661;stroke-linecap:square;stroke-linejoin:round;stroke-miterlimit:4;stroke-dasharray:none;stroke-dashoffset:0;stroke-opacity:1;color-rendering:auto;image-rendering:auto;shape-rendering:auto;text-rendering:auto;enable-background:accumulate"
         inkscape:connector-curvature="0" />
      <path
         inkscape:export-ydpi="90"
         inkscape:export-xdpi="90"
         inkscape:connector-curvature="0"
         id="rect6574"
         d="m 643.42469,929.33677 0.63729,3.92788 66.49594,410.01395 -67.13323,413.9418 h 374.55751 808.6362 374.5575 l -67.1333,-413.9418 67.1333,-413.94183 h -374.5575 -808.6362 z m 7.07714,6.65592 h 367.48037 808.6362 367.482 l -66.0538,407.28591 66.0538,407.2859 h -367.482 -808.6362 -367.48037 l 66.05208,-407.2859 z"
         style="color:#000000;font-style:normal;font-variant:normal;font-weight:normal;font-stretch:normal;font-size:medium;line-height:normal;font-family:sans-serif;text-indent:0;text-align:start;text-decoration:none;text-decoration-line:none;text-decoration-style:solid;text-decoration-color:#000000;letter-spacing:normal;word-spacing:normal;text-transform:none;writing-mode:lr-tb;direction:ltr;baseline-shift:baseline;text-anchor:start;white-space:normal;clip-rule:nonzero;display:inline;overflow:visible;visibility:visible;opacity:1;isolation:auto;mix-blend-mode:normal;color-interpolation:sRGB;color-interpolation-filters:linearRGB;solid-color:#000000;solid-opacity:1;fill:#ffffff;fill-opacity:1;fill-rule:nonzero;stroke:none;stroke-width:7.08661;stroke-linecap:square;stroke-linejoin:miter;stroke-miterlimit:4;stroke-dasharray:none;stroke-dashoffset:0;stroke-opacity:1;color-rendering:auto;image-rendering:auto;shape-rendering:auto;text-rendering:auto;enable-background:accumulate" />
      <path
         d="m 952.07823,1004.3824 c 0,-31.10592 -37.44127,-33.93374 -52.87738,-33.93374 -42.36735,0 -75.86732,21.20867 -75.86732,50.61784 0,41.5687 67.32797,58.8184 67.32797,107.1739 0,23.7534 -16.09287,37.6097 -38.09769,37.6097 -21.01967,0 -31.52931,-13.0079 -31.52931,-27.1468 0,-19.5119 20.69092,-26.5815 38.42642,-26.5815 -0.98551,-14.7046 -17.40712,-18.6635 -28.90192,-18.6635 -22.99033,0 -48.2793,15.8357 -48.2793,46.376 0,34.4993 32.18608,48.6384 69.62735,48.6384 47.6222,0 92.28858,-23.1881 92.28858,-70.6953 0,-61.0805 -73.89668,-66.7361 -73.89668,-108.3049 0,-16.96696 12.15193,-25.73311 30.2158,-25.73311 18.06351,0 24.30384,9.049 24.30384,18.94641 0,9.3317 -5.91195,19.7946 -14.7797,24.3191 4.26969,4.2416 9.19613,5.9384 15.10808,5.9384 16.42125,0 26.93126,-12.1597 26.93126,-28.5609 z"
         id="path4415"
         inkscape:connector-curvature="0"
         style="font-style:normal;font-variant:normal;font-weight:normal;font-stretch:normal;font-size:medium;line-height:125%;font-family:'Lobster 1.4';-inkscape-font-specification:'Lobster 1.4, Normal';text-align:start;letter-spacing:0px;word-spacing:0px;writing-mode:lr-tb;text-anchor:start;opacity:1;fill:#ffffff;fill-opacity:1;stroke:none;stroke-width:1px;stroke-linecap:butt;stroke-linejoin:miter;stroke-opacity:1" />
      <path
         d="m 989.62196,1003.5342 c 0,12.4421 11.49484,22.3395 25.94574,22.3395 14.451,0 26.2745,-9.8974 26.2745,-22.3395 0,-12.4424 -11.8235,-22.62263 -26.2745,-22.62263 -14.4509,0 -25.94574,10.18023 -25.94574,22.62263 z m -6.56873,37.6097 -22.33319,90.7727 c -1.64228,6.7867 -2.62741,13.0078 -2.62741,18.3806 0,23.7535 15.43609,33.9337 35.14188,33.9337 17.73509,0 50.24999,-6.2211 68.97029,-52.3143 h -13.7939 c -4.9264,14.1389 -16.75,24.8845 -29.5587,24.8845 -9.1961,0 -13.4658,-2.545 -13.4658,-10.4627 0,-2.5452 0.327,-5.373 1.3139,-9.049 l 23.6467,-96.1455 z"
         id="path4417"
         inkscape:connector-curvature="0"
         style="font-style:normal;font-variant:normal;font-weight:normal;font-stretch:normal;font-size:medium;line-height:125%;font-family:'Lobster 1.4';-inkscape-font-specification:'Lobster 1.4, Normal';text-align:start;letter-spacing:0px;word-spacing:0px;writing-mode:lr-tb;text-anchor:start;opacity:1;fill:#ffffff;fill-opacity:1;stroke:none;stroke-width:1px;stroke-linecap:butt;stroke-linejoin:miter;stroke-opacity:1" />
      <path
         d="m 1140.2327,1081.8643 c 3.941,2.2623 7.8823,3.3934 11.4948,3.3934 9.5245,0 17.4071,-6.7868 17.4071,-20.643 0,-13.0079 -7.2255,-26.0158 -36.4558,-26.0158 -66.6715,0 -88.3479,67.8673 -88.3479,100.6699 0,31.9543 20.3629,44.9621 51.2351,44.9621 43.6812,0 71.598,-26.2986 90.3182,-52.3143 h -11.1664 c -16.4216,16.1183 -32.1861,28.5607 -58.1322,28.5607 -15.7648,0 -23.6471,-4.5244 -23.6471,-23.7535 0,-31.3887 21.3481,-83.1376 42.039,-83.1376 6.2404,0 9.1962,4.5246 9.1962,11.594 0,4.8073 -1.3136,10.4629 -3.941,16.6841 z"
         id="path4419"
         inkscape:connector-curvature="0"
         style="font-style:normal;font-variant:normal;font-weight:normal;font-stretch:normal;font-size:medium;line-height:125%;font-family:'Lobster 1.4';-inkscape-font-specification:'Lobster 1.4, Normal';text-align:start;letter-spacing:0px;word-spacing:0px;writing-mode:lr-tb;text-anchor:start;opacity:1;fill:#ffffff;fill-opacity:1;stroke:none;stroke-width:1px;stroke-linecap:butt;stroke-linejoin:miter;stroke-opacity:1" />
      <path
         d="m 1269.5568,1080.1677 c 0,18.0978 -14.7793,52.8799 -14.7793,72.109 0,16.1185 10.1812,31.9542 38.7548,31.9542 17.4067,0 42.6961,-5.9385 61.088,-52.3143 h -13.7939 c -7.2254,14.7044 -13.1374,24.8845 -27.5883,24.8845 -9.8529,0 -13.1371,-4.8073 -13.1371,-11.8767 0,-15.8357 15.7645,-50.0522 15.7645,-72.9575 0,-22.6224 -15.4361,-31.9541 -36.4558,-31.9541 -10.1813,0 -24.6322,2.2622 -38.4261,15.8357 l 17.7352,-71.26072 -48.6077,5.65564 -47.6226,192.29078 h 47.2942 l 22.6616,-91.9038 c 1.9706,-7.635 12.1519,-24.8847 24.9606,-24.8847 8.211,0 12.1519,5.0902 12.1519,14.422 z"
         id="path4421"
         inkscape:connector-curvature="0"
         style="font-style:normal;font-variant:normal;font-weight:normal;font-stretch:normal;font-size:medium;line-height:125%;font-family:'Lobster 1.4';-inkscape-font-specification:'Lobster 1.4, Normal';text-align:start;letter-spacing:0px;word-spacing:0px;writing-mode:lr-tb;text-anchor:start;opacity:1;fill:#ffffff;fill-opacity:1;stroke:none;stroke-width:1px;stroke-linecap:butt;stroke-linejoin:miter;stroke-opacity:1" />
      <path
         d="m 1385.4467,1136.7238 c 0,-3.3933 0.3306,-7.3524 0.6571,-11.3113 39.4116,-1.9794 75.539,-27.147 75.539,-59.6668 0,-14.1389 -6.8971,-27.1468 -36.1274,-27.1468 -67.3283,0 -88.6764,68.1501 -88.6764,100.6699 0,31.9543 20.3629,44.9621 51.2355,44.9621 43.6812,0 71.5976,-26.2986 90.3183,-52.3143 h -11.1668 c -16.4216,16.1183 -32.1861,28.5607 -58.1322,28.5607 -15.7645,0 -23.6471,-4.5244 -23.6471,-23.7535 z m 50.9067,-71.5436 c 0,23.4708 -22.3332,45.245 -47.6222,46.6589 6.5688,-27.9954 22.6616,-58.2529 39.4116,-58.2529 6.2403,0 8.2106,4.5246 8.2106,11.594 z"
         id="path4423"
         inkscape:connector-curvature="0"
         style="font-style:normal;font-variant:normal;font-weight:normal;font-stretch:normal;font-size:medium;line-height:125%;font-family:'Lobster 1.4';-inkscape-font-specification:'Lobster 1.4, Normal';text-align:start;letter-spacing:0px;word-spacing:0px;writing-mode:lr-tb;text-anchor:start;opacity:1;fill:#ffffff;fill-opacity:1;stroke:none;stroke-width:1px;stroke-linecap:butt;stroke-linejoin:miter;stroke-opacity:1" />
      <path
         d="m 1489.8106,1041.1439 -34.8135,141.3903 h 47.2938 l 26.2745,-107.4566 c 8.2106,-6.504 14.1225,-10.7458 23.9754,-10.7458 9.8529,0 0.6568,18.6636 19.049,18.6636 16.0929,0 23.6468,-10.7456 23.6468,-20.643 0,-10.7456 -7.8823,-21.2085 -22.6616,-21.2085 -15.7649,0 -28.2452,9.049 -39.74,17.5325 l 4.2694,-17.5325 z"
         id="path4425"
         inkscape:connector-curvature="0"
         style="font-style:normal;font-variant:normal;font-weight:normal;font-stretch:normal;font-size:medium;line-height:125%;font-family:'Lobster 1.4';-inkscape-font-specification:'Lobster 1.4, Normal';text-align:start;letter-spacing:0px;word-spacing:0px;writing-mode:lr-tb;text-anchor:start;opacity:1;fill:#ffffff;fill-opacity:1;stroke:none;stroke-width:1px;stroke-linecap:butt;stroke-linejoin:miter;stroke-opacity:1" />
      <path
         d="m 1685.868,1080.1677 c 0,18.0978 -14.7794,52.8799 -14.7794,72.109 0,16.1185 10.1813,31.9542 38.7545,31.9542 17.4071,0 42.6961,-5.9385 61.0883,-52.3143 h -13.7942 c -7.2254,14.7044 -13.137,24.8845 -27.588,24.8845 -9.8529,0 -13.1374,-4.8073 -13.1374,-11.8767 0,-15.8357 15.7648,-50.0522 15.7648,-72.9575 0,-22.6224 -15.4364,-31.9541 -36.4557,-31.9541 -10.1817,0 -24.6323,2.2622 -38.4265,15.8357 l 17.7352,-71.26072 -48.6077,5.65564 -47.6222,192.29078 h 47.2938 l 22.6616,-91.9038 c 1.9706,-7.635 12.1519,-24.8847 24.9609,-24.8847 8.2107,0 12.152,5.0902 12.152,14.422 z"
         id="path4427"
         inkscape:connector-curvature="0"
         style="font-style:normal;font-variant:normal;font-weight:normal;font-stretch:normal;font-size:medium;line-height:125%;font-family:'Lobster 1.4';-inkscape-font-specification:'Lobster 1.4, Normal';text-align:start;letter-spacing:0px;word-spacing:0px;writing-mode:lr-tb;text-anchor:start;opacity:1;fill:#ffffff;fill-opacity:1;stroke:none;stroke-width:1px;stroke-linecap:butt;stroke-linejoin:miter;stroke-opacity:1" />
      <path
         d="m 1801.7579,1136.7238 c 0,-3.3933 0.3269,-7.3524 0.6567,-11.3113 39.4116,-1.9794 75.539,-27.147 75.539,-59.6668 0,-14.1389 -6.8971,-27.1468 -36.1274,-27.1468 -67.3283,0 -88.676,68.1501 -88.676,100.6699 0,31.9543 20.3625,44.9621 51.2351,44.9621 43.6812,0 71.5976,-26.2986 90.3183,-52.3143 h -11.1668 c -16.4212,16.1183 -32.1861,28.5607 -58.1322,28.5607 -15.7645,0 -23.6467,-4.5244 -23.6467,-23.7535 z m 50.9067,-71.5436 c 0,23.4708 -22.3336,45.245 -47.6226,46.6589 6.5688,-27.9954 22.6616,-58.2529 39.4116,-58.2529 6.2403,0 8.211,4.5246 8.211,11.594 z"
         id="path4429"
         inkscape:connector-curvature="0"
         style="font-style:normal;font-variant:normal;font-weight:normal;font-stretch:normal;font-size:medium;line-height:125%;font-family:'Lobster 1.4';-inkscape-font-specification:'Lobster 1.4, Normal';text-align:start;letter-spacing:0px;word-spacing:0px;writing-mode:lr-tb;text-anchor:start;opacity:1;fill:#ffffff;fill-opacity:1;stroke:none;stroke-width:1px;stroke-linecap:butt;stroke-linejoin:miter;stroke-opacity:1" />
      <path
         d="m 1912.6901,1003.5342 c 0,12.4421 11.4951,22.3395 25.9461,22.3395 14.4506,0 26.2741,-9.8974 26.2741,-22.3395 0,-12.4424 -11.8235,-22.62263 -26.2741,-22.62263 -14.451,0 -25.9461,10.18023 -25.9461,22.62263 z m -6.5687,37.6097 -22.3332,90.7727 c -1.6423,6.7867 -2.6275,13.0078 -2.6275,18.3806 0,23.7535 15.4362,33.9337 35.1419,33.9337 17.7355,0 50.25,-6.2211 68.9706,-52.3143 h -13.7942 c -4.9264,14.1389 -16.75,24.8845 -29.5586,24.8845 -9.1962,0 -13.4659,-2.545 -13.4659,-10.4627 0,-2.5452 0.327,-5.373 1.3139,-9.049 l 23.6471,-96.1455 z"
         id="path4431"
         inkscape:connector-curvature="0"
         style="font-style:normal;font-variant:normal;font-weight:normal;font-stretch:normal;font-size:medium;line-height:125%;font-family:'Lobster 1.4';-inkscape-font-specification:'Lobster 1.4, Normal';text-align:start;letter-spacing:0px;word-spacing:0px;writing-mode:lr-tb;text-anchor:start;opacity:1;fill:#ffffff;fill-opacity:1;stroke:none;stroke-width:1px;stroke-linecap:butt;stroke-linejoin:miter;stroke-opacity:1" />
      <path
         d="m 2039.9826,1052.4552 h 19.7059 l 2.6274,-11.3113 h -19.7058 c 6.2401,-25.4502 11.1666,-44.6793 11.1666,-44.6793 l -48.6077,5.6556 -9.8529,39.0237 h -10.838 l -2.6278,11.3113 h 10.8384 l -21.0193,84.8342 c -1.3135,5.0899 -1.9703,10.18 -1.9703,14.9873 0,18.098 9.8529,31.9542 32.8425,31.9542 11.1668,0 25.6177,-3.3933 34.8136,-27.7125 -2.6275,0.8484 -6.2401,0.8484 -8.5391,0.8484 -8.8678,0 -11.4952,-4.2417 -11.4952,-10.1802 0,-3.1105 0.6568,-6.5039 1.6423,-9.8972 z"
         id="path4433"
         inkscape:connector-curvature="0"
         style="font-style:normal;font-variant:normal;font-weight:normal;font-stretch:normal;font-size:medium;line-height:125%;font-family:'Lobster 1.4';-inkscape-font-specification:'Lobster 1.4, Normal';text-align:start;letter-spacing:0px;word-spacing:0px;writing-mode:lr-tb;text-anchor:start;opacity:1;fill:#ffffff;fill-opacity:1;stroke:none;stroke-width:1px;stroke-linecap:butt;stroke-linejoin:miter;stroke-opacity:1" />
      <path
         d="m 1106.0605,1224.3121 -6.2687,25.3345 v -0.4406 c 0,-3.1943 -3.0704,-5.6176 -10.3625,-5.6176 -22.2603,0 -32.8786,23.6822 -32.8786,38.5525 0,13.108 8.3156,17.7344 17.015,17.7344 9.0832,0 15.096,-5.067 18.9339,-10.1339 1.0235,6.1684 5.6291,9.4729 12.5374,9.4729 6.9083,0 18.4222,-1.7623 25.7144,-19.7169 h -5.3732 c -1.919,5.5075 -5.3731,9.6932 -10.3625,9.6932 -3.5821,0 -5.2452,-0.9914 -5.2452,-4.0755 0,-0.9913 0.1278,-2.0929 0.5117,-3.5248 l 14.7122,-59.4813 z m -13.6888,55.7361 c -1.6631,6.0583 -6.9083,9.1424 -10.4904,9.1424 -2.3028,0 -6.3967,-0.1095 -6.3967,-8.5917 0,-10.3541 7.0363,-30.1812 17.9106,-30.1812 3.8379,0 4.9893,2.5335 5.2452,3.8552 l -6.2687,25.2245 z"
         id="path4435"
         inkscape:connector-curvature="0"
         style="font-style:normal;font-variant:normal;font-weight:normal;font-stretch:normal;font-size:medium;line-height:125%;font-family:'Lobster 1.4';-inkscape-font-specification:'Lobster 1.4, Normal';text-align:start;letter-spacing:0px;word-spacing:0px;writing-mode:lr-tb;text-anchor:start;opacity:1;fill:#ffffff;fill-opacity:1;stroke:none;stroke-width:1px;stroke-linecap:butt;stroke-linejoin:miter;stroke-opacity:1" />
      <path
         d="m 1165.7269,1244.139 -8.6994,35.3584 c -1.919,5.5075 -5.2452,9.6932 -10.2346,9.6932 -2.8145,0 -3.838,-1.9827 -3.838,-4.5162 0,-0.9912 0.128,-1.9827 0.3838,-3.0841 l 9.2112,-37.4513 h -18.4223 l -8.6994,35.3584 c -0.6396,2.6435 -1.0234,5.0668 -1.0234,7.1597 0,9.2527 6.0128,13.2182 13.6887,13.2182 5.3732,0 12.5374,-1.432 18.934,-10.4644 0.7676,6.8293 5.3731,10.4644 12.6653,10.4644 6.9083,0 18.4222,-2.4233 25.7144,-20.3779 h -5.3732 c -1.919,5.5075 -5.3731,9.6932 -10.3625,9.6932 -3.5821,0 -5.2452,-0.9914 -5.2452,-4.0755 0,-0.9913 0.1278,-2.0929 0.5117,-3.5248 l 9.2111,-37.4513 z"
         id="path4437"
         inkscape:connector-curvature="0"
         style="font-style:normal;font-variant:normal;font-weight:normal;font-stretch:normal;font-size:medium;line-height:125%;font-family:'Lobster 1.4';-inkscape-font-specification:'Lobster 1.4, Normal';text-align:start;letter-spacing:0px;word-spacing:0px;writing-mode:lr-tb;text-anchor:start;opacity:1;fill:#ffffff;fill-opacity:1;stroke:none;stroke-width:1px;stroke-linecap:butt;stroke-linejoin:miter;stroke-opacity:1" />
      <path
         d="m 1198.8433,1244.139 -13.5608,55.0753 h 18.4223 l 10.2345,-41.8571 c 3.1983,-2.5335 5.5011,-4.1858 9.3391,-4.1858 3.838,0 0.2559,7.2699 7.4201,7.2699 6.2686,0 9.2111,-4.1857 9.2111,-8.0409 0,-4.1858 -3.0704,-8.2614 -8.8273,-8.2614 -6.1408,0 -11.0022,3.5249 -15.4798,6.8295 l 1.6631,-6.8295 z"
         id="path4439"
         inkscape:connector-curvature="0"
         style="font-style:normal;font-variant:normal;font-weight:normal;font-stretch:normal;font-size:medium;line-height:125%;font-family:'Lobster 1.4';-inkscape-font-specification:'Lobster 1.4, Normal';text-align:start;letter-spacing:0px;word-spacing:0px;writing-mode:lr-tb;text-anchor:start;opacity:1;fill:#ffffff;fill-opacity:1;stroke:none;stroke-width:1px;stroke-linecap:butt;stroke-linejoin:miter;stroke-opacity:1" />
      <path
         d="m 1274.0615,1260.0007 c 1.5352,0.8812 3.0704,1.3219 4.4777,1.3219 3.71,0 6.7804,-2.6437 6.7804,-8.041 0,-5.067 -2.8145,-10.1339 -14.2005,-10.1339 -25.9703,0 -34.4138,26.4362 -34.4138,39.2136 0,12.447 7.9318,17.514 19.9574,17.514 17.015,0 27.8893,-10.244 35.1814,-20.3779 h -4.3497 c -6.3966,6.2785 -12.5374,11.1251 -22.644,11.1251 -6.1408,0 -9.2111,-1.7623 -9.2111,-9.2526 0,-12.2266 8.3156,-32.3843 16.3753,-32.3843 2.4307,0 3.5821,1.7625 3.5821,4.5162 0,1.8727 -0.5117,4.0756 -1.5352,6.4989 z"
         id="path4441"
         inkscape:connector-curvature="0"
         style="font-style:normal;font-variant:normal;font-weight:normal;font-stretch:normal;font-size:medium;line-height:125%;font-family:'Lobster 1.4';-inkscape-font-specification:'Lobster 1.4, Normal';text-align:start;letter-spacing:0px;word-spacing:0px;writing-mode:lr-tb;text-anchor:start;opacity:1;fill:#ffffff;fill-opacity:1;stroke:none;stroke-width:1px;stroke-linecap:butt;stroke-linejoin:miter;stroke-opacity:1" />
      <path
         d="m 1324.3089,1259.3399 c 0,7.0495 -5.757,20.5981 -5.757,28.0883 0,6.2786 3.0704,12.4471 12.9212,12.4471 6.7804,0 12.9212,-3.4147 14.0726,-11.3455 -0.7676,0.4404 -2.047,0.6608 -4.2218,0.6608 -3.838,0 -5.1173,-1.8725 -5.1173,-4.6264 0,-6.1683 6.1407,-19.4965 6.1407,-28.4187 0,-8.812 -6.0128,-12.4469 -14.2004,-12.4469 -3.9659,0 -9.467,0.881 -14.9681,6.0582 l 6.9083,-27.6478 -18.9339,2.2031 -18.5502,74.9022 h 18.4222 l 9.0832,-36.6801 c 1.919,-4.9568 5.3732,-8.812 9.5949,-8.812 3.0704,0 4.6056,1.9827 4.6056,5.6177 z"
         id="path4443"
         inkscape:connector-curvature="0"
         style="font-style:normal;font-variant:normal;font-weight:normal;font-stretch:normal;font-size:medium;line-height:125%;font-family:'Lobster 1.4';-inkscape-font-specification:'Lobster 1.4, Normal';text-align:start;letter-spacing:0px;word-spacing:0px;writing-mode:lr-tb;text-anchor:start;opacity:1;fill:#ffffff;fill-opacity:1;stroke:none;stroke-width:1px;stroke-linecap:butt;stroke-linejoin:miter;stroke-opacity:1" />
      <path
         d="m 1428.4789,1320.0513 c 0.3216,-1.6615 0.4824,-3.4613 0.4824,-5.6765 0,-8.9992 -9.1656,-14.9526 -18.9745,-14.9526 -10.6129,0 -24.4418,3.7381 -29.2658,23.5365 l -19.4569,79.0555 c -15.2761,4.015 -27.6578,8.03 -27.6578,20.7675 0,8.9992 9.1657,14.9526 18.9745,14.9526 10.6129,0 23.9594,-3.7381 28.7834,-23.5365 l 18.4921,-74.7634 h 11.8993 l 1.1256,-5.5379 h -11.7385 l 2.7337,-10.9378 c 2.2512,-9.2761 7.7184,-11.3529 11.256,-11.3529 3.2161,0 6.1105,1.5229 6.1105,4.7074 0,1.246 -0.1608,2.3536 -0.3216,3.7381 z m -86.0285,100.7921 c 0,-7.4763 7.5576,-11.3529 17.6881,-14.2605 l -2.0904,8.0302 c -2.0904,8.1686 -5.7889,10.7992 -9.1657,10.7992 -3.5376,0 -6.432,-2.6306 -6.432,-4.5689 z"
         id="path4445"
         inkscape:connector-curvature="0"
         style="font-style:normal;font-variant:normal;font-weight:normal;font-stretch:normal;font-size:medium;line-height:125%;font-family:'Lobster 1.4';-inkscape-font-specification:'Lobster 1.4, Normal';text-align:start;letter-spacing:0px;word-spacing:0px;writing-mode:lr-tb;text-anchor:start;opacity:1;fill:#ffffff;fill-opacity:1;stroke:none;stroke-width:1px;stroke-linecap:butt;stroke-linejoin:miter;stroke-opacity:1" />
      <path
         d="m 1421.0142,1333.8965 -17.0449,69.2251 h 23.1554 l 12.864,-52.6112 c 4.0201,-3.1843 6.9145,-5.2611 11.7385,-5.2611 4.824,0 0.3216,9.1378 9.3265,9.1378 7.8792,0 11.5777,-5.2612 11.5777,-10.107 0,-5.261 -3.8593,-10.3836 -11.0953,-10.3836 -7.7185,0 -13.8289,4.4303 -19.457,8.5839 l 2.0905,-8.5839 z"
         id="path4447"
         inkscape:connector-curvature="0"
         style="font-style:normal;font-variant:normal;font-weight:normal;font-stretch:normal;font-size:medium;line-height:125%;font-family:'Lobster 1.4';-inkscape-font-specification:'Lobster 1.4, Normal';text-align:start;letter-spacing:0px;word-spacing:0px;writing-mode:lr-tb;text-anchor:start;opacity:1;fill:#ffffff;fill-opacity:1;stroke:none;stroke-width:1px;stroke-linecap:butt;stroke-linejoin:miter;stroke-opacity:1" />
      <path
         d="m 1484.8447,1315.4824 c 0,6.0918 5.628,10.9376 12.7033,10.9376 7.0752,0 12.8641,-4.8458 12.8641,-10.9376 0,-6.0918 -5.7889,-11.076 -12.8641,-11.076 -7.0753,0 -12.7033,4.9842 -12.7033,11.076 z m -3.216,18.4141 -10.9345,44.4426 c -0.804,3.3227 -1.2864,6.3687 -1.2864,8.9992 0,11.6299 7.5577,16.6141 17.2057,16.6141 8.6833,0 24.6026,-3.0458 33.7682,-25.6133 h -6.7536 c -2.412,6.9226 -8.2009,12.1836 -14.4721,12.1836 -4.5024,0 -6.5928,-1.246 -6.5928,-5.1226 0,-1.2461 0.1607,-2.6307 0.6432,-4.4305 l 11.5776,-47.0731 z"
         id="path4449"
         inkscape:connector-curvature="0"
         style="font-style:normal;font-variant:normal;font-weight:normal;font-stretch:normal;font-size:medium;line-height:125%;font-family:'Lobster 1.4';-inkscape-font-specification:'Lobster 1.4, Normal';text-align:start;letter-spacing:0px;word-spacing:0px;writing-mode:lr-tb;text-anchor:start;opacity:1;fill:#ffffff;fill-opacity:1;stroke:none;stroke-width:1px;stroke-linecap:butt;stroke-linejoin:miter;stroke-opacity:1" />
      <path
         d="m 1575.147,1378.3391 c -3.0552,2.2152 -7.236,4.7073 -11.5777,6.9226 0.4824,-1.6615 0.6433,-3.3229 0.6433,-5.2613 0,-9.1378 -1.608,-14.5373 -3.5377,-50.396 l -23.7985,2.769 c -4.9849,13.5682 -10.7737,27.2748 -19.7785,40.9813 -4.3417,1.8 -8.5225,6.5073 -8.5225,12.876 0,8.4455 7.0753,17.7217 23.477,17.7217 8.2008,0 18.4921,-2.2152 25.2457,-8.3071 7.3969,-3.7381 16.2409,-8.9992 24.6026,-17.3062 z m -46.6323,0 c 0,-2.3537 -1.608,-4.0152 -3.6984,-4.8458 5.3064,-8.8609 9.8089,-17.168 13.0249,-26.1672 1.608,21.3215 3.0552,25.6133 3.0552,32.8128 0,9.6915 -6.9144,12.8759 -13.9897,12.8759 -7.0752,0 -9.8088,-3.1844 -9.8088,-9.6915 0.804,1.3845 2.7336,1.7998 4.3416,1.7998 4.1808,0 7.0752,-3.4613 7.0752,-6.784 z"
         id="path4451"
         inkscape:connector-curvature="0"
         style="font-style:normal;font-variant:normal;font-weight:normal;font-stretch:normal;font-size:medium;line-height:125%;font-family:'Lobster 1.4';-inkscape-font-specification:'Lobster 1.4, Normal';text-align:start;letter-spacing:0px;word-spacing:0px;writing-mode:lr-tb;text-anchor:start;opacity:1;fill:#ffffff;fill-opacity:1;stroke:none;stroke-width:1px;stroke-linecap:butt;stroke-linejoin:miter;stroke-opacity:1" />
      <path
         d="m 1620.1412,1353.8332 c 1.9296,1.1077 3.8592,1.6615 5.628,1.6615 4.6632,0 8.5225,-3.3228 8.5225,-10.1069 0,-6.3687 -3.5377,-12.7376 -17.8489,-12.7376 -32.6427,0 -43.2555,33.2282 -43.2555,49.2886 0,15.6449 9.9696,22.0136 25.0849,22.0136 21.3866,0 35.0547,-12.876 44.2203,-25.6133 h -5.4672 c -8.0401,7.8916 -15.7585,13.9834 -28.4618,13.9834 -7.7185,0 -11.5777,-2.2151 -11.5777,-11.6297 0,-15.3681 10.4521,-40.7045 20.5825,-40.7045 3.0553,0 4.5025,2.215 4.5025,5.6763 0,2.3537 -0.6432,5.1228 -1.9296,8.1686 z"
         id="path4453"
         inkscape:connector-curvature="0"
         style="font-style:normal;font-variant:normal;font-weight:normal;font-stretch:normal;font-size:medium;line-height:125%;font-family:'Lobster 1.4';-inkscape-font-specification:'Lobster 1.4, Normal';text-align:start;letter-spacing:0px;word-spacing:0px;writing-mode:lr-tb;text-anchor:start;opacity:1;fill:#ffffff;fill-opacity:1;stroke:none;stroke-width:1px;stroke-linecap:butt;stroke-linejoin:miter;stroke-opacity:1" />
      <path
         d="m 1683.4591,1353.0027 c 0,8.8607 -7.236,25.8901 -7.236,35.3048 0,7.8917 4.9848,15.6449 18.9745,15.6449 8.5224,0 20.9041,-2.9074 29.909,-25.6133 h -6.7537 c -3.5376,7.1994 -6.432,12.1836 -13.5073,12.1836 -4.824,0 -6.432,-2.3536 -6.432,-5.8149 0,-7.7532 7.7184,-24.5057 7.7184,-35.7203 0,-11.076 -7.5576,-15.6449 -17.8489,-15.6449 -4.9848,0 -12.06,1.1076 -18.8137,7.7533 l 8.6833,-34.8897 -23.7986,2.7691 -23.3161,94.1463 h 23.1553 l 11.0953,-44.9963 c 0.9648,-3.7382 5.9496,-12.1837 12.2209,-12.1837 4.02,0 5.9496,2.4921 5.9496,7.0611 z"
         id="path4455"
         inkscape:connector-curvature="0"
         style="font-style:normal;font-variant:normal;font-weight:normal;font-stretch:normal;font-size:medium;line-height:125%;font-family:'Lobster 1.4';-inkscape-font-specification:'Lobster 1.4, Normal';text-align:start;letter-spacing:0px;word-spacing:0px;writing-mode:lr-tb;text-anchor:start;opacity:1;fill:#ffffff;fill-opacity:1;stroke:none;stroke-width:1px;stroke-linecap:butt;stroke-linejoin:miter;stroke-opacity:1" />
      <path
         d="m 1740.1992,1380.6928 c 0,-1.6616 0.1608,-3.5998 0.3216,-5.5381 19.2962,-0.9692 36.9843,-13.2913 36.9843,-29.2131 0,-6.9225 -3.3769,-13.2914 -17.6881,-13.2914 -32.9643,0 -43.4163,33.3667 -43.4163,49.2886 0,15.6449 9.9696,22.0136 25.0849,22.0136 21.3866,0 35.0547,-12.876 44.2203,-25.6133 h -5.4672 c -8.0401,7.8916 -15.7585,13.9834 -28.4618,13.9834 -7.7184,0 -11.5777,-2.2151 -11.5777,-11.6297 z m 24.9242,-35.0282 c 0,11.4915 -10.9345,22.1522 -23.3161,22.8444 3.216,-13.7066 11.0952,-28.5207 19.2961,-28.5207 3.0552,0 4.02,2.215 4.02,5.6763 z"
         id="path4457"
         inkscape:connector-curvature="0"
         style="font-style:normal;font-variant:normal;font-weight:normal;font-stretch:normal;font-size:medium;line-height:125%;font-family:'Lobster 1.4';-inkscape-font-specification:'Lobster 1.4, Normal';text-align:start;letter-spacing:0px;word-spacing:0px;writing-mode:lr-tb;text-anchor:start;opacity:1;fill:#ffffff;fill-opacity:1;stroke:none;stroke-width:1px;stroke-linecap:butt;stroke-linejoin:miter;stroke-opacity:1" />
      <path
         d="m 1826.6725,1353.0027 c 0,8.8607 -7.236,25.8901 -7.236,35.3048 0,7.8917 3.8592,15.6449 16.2409,15.6449 8.5224,0 16.2409,-4.2919 17.6881,-14.2604 -0.9648,0.5539 -2.5728,0.8307 -5.3064,0.8307 -4.8241,0 -6.4321,-2.3536 -6.4321,-5.8149 0,-7.7532 7.7185,-24.5057 7.7185,-35.7203 0,-11.076 -7.5577,-15.6449 -17.8489,-15.6449 -4.9849,0 -12.0601,1.1076 -18.8138,7.7533 l 1.7688,-7.1994 h -23.1553 l -17.0449,69.2251 h 23.1553 l 10.9345,-44.4426 c 2.412,-6.9226 6.7537,-12.7374 12.5425,-12.7374 3.8592,0 5.7888,2.4921 5.7888,7.0611 z"
         id="path4459"
         inkscape:connector-curvature="0"
         style="font-style:normal;font-variant:normal;font-weight:normal;font-stretch:normal;font-size:medium;line-height:125%;font-family:'Lobster 1.4';-inkscape-font-specification:'Lobster 1.4, Normal';text-align:start;letter-spacing:0px;word-spacing:0px;writing-mode:lr-tb;text-anchor:start;opacity:1;fill:#ffffff;fill-opacity:1;stroke:none;stroke-width:1px;stroke-linecap:butt;stroke-linejoin:miter;stroke-opacity:1" />
      <path
         d="m 1187.6046,1679.4812 58.5863,-236.4725 c -8.9559,-3.213 -20.8971,-4.498 -29.4798,-4.498 -43.6598,0 -92.1707,43.3745 -129.86,94.7817 -7.8364,-0.6426 -14.1801,-0.9639 -19.4044,-0.9639 -44.0329,0 -76.12481,17.671 -76.12481,39.5192 0,12.5304 10.44851,18.6349 23.13601,18.6349 11.568,0 20.897,-4.8194 20.897,-12.5305 0,-4.498 -2.9853,-9.96 -4.8511,-9.96 4.8511,-10.924 20.5239,-15.4221 43.6598,-16.7073 -32.4649,49.158 -54.8546,101.8502 -54.8546,130.7667 0,33.4145 29.8529,34.0571 50.0036,34.0571 -2.239,-2.8917 -5.2243,-7.7111 -5.2243,-17.9925 0,-33.4145 20.5239,-94.4605 48.5109,-146.8313 16.4191,1.2852 30.9724,4.1769 50.0036,11.5666 l -28.7334,116.6298 z m -21.6434,-130.7667 c -14.5532,-5.1408 -30.5991,-8.675 -45.5256,-11.2454 20.897,-35.9849 44.7793,-65.8652 67.169,-76.1466 z"
         id="path4461"
         inkscape:connector-curvature="0"
         style="font-style:normal;font-variant:normal;font-weight:normal;font-stretch:normal;font-size:medium;line-height:125%;font-family:'Lobster 1.4';-inkscape-font-specification:'Lobster 1.4, Normal';text-align:start;letter-spacing:0px;word-spacing:0px;writing-mode:lr-tb;text-anchor:start;opacity:1;fill:#ffffff;fill-opacity:1;stroke:none;stroke-width:1px;stroke-linecap:butt;stroke-linejoin:miter;stroke-opacity:1" />
      <path
         d="m 1273.7931,1474.4955 -11.1948,44.3386 h -12.3143 l -2.9853,12.8518 h 12.3143 l -22.3896,90.2835 c -1.8659,7.7111 -2.9853,14.7796 -2.9853,20.8842 0,26.9886 17.5385,38.5552 39.9282,38.5552 20.1507,0 57.0936,-7.0684 78.3638,-59.4394 h -15.6728 c -5.5974,16.0648 -19.0312,28.2739 -33.5845,28.2739 -10.4485,0 -15.2996,-2.8916 -15.2996,-11.8879 0,-2.8916 0.3731,-6.1045 1.4927,-10.2814 l 23.8823,-96.3881 h 22.3896 l 2.9853,-12.8518 h -22.3896 l 12.6875,-50.7644 z"
         id="path4463"
         inkscape:connector-curvature="0"
         style="font-style:normal;font-variant:normal;font-weight:normal;font-stretch:normal;font-size:medium;line-height:125%;font-family:'Lobster 1.4';-inkscape-font-specification:'Lobster 1.4, Normal';text-align:start;letter-spacing:0px;word-spacing:0px;writing-mode:lr-tb;text-anchor:start;opacity:1;fill:#ffffff;fill-opacity:1;stroke:none;stroke-width:1px;stroke-linecap:butt;stroke-linejoin:miter;stroke-opacity:1" />
      <path
         d="m 1387.4499,1627.4315 c 0,-3.8555 0.3731,-8.3538 0.7462,-12.8518 44.7794,-2.249 85.8271,-30.8443 85.8271,-67.793 0,-16.0646 -7.8364,-30.8442 -41.0477,-30.8442 -76.498,0 -100.7535,77.4318 -100.7535,114.3807 0,36.3062 23.136,51.0856 58.2132,51.0856 49.6303,0 81.349,-29.8802 102.6192,-59.4394 h -12.6875 c -18.658,18.3138 -36.5697,32.4507 -66.0495,32.4507 -17.9117,0 -26.8675,-5.1406 -26.8675,-26.9886 z m 57.8399,-81.2875 c 0,26.6675 -25.375,51.4071 -54.1084,53.0136 7.4633,-31.8082 25.7481,-66.1866 44.7794,-66.1866 7.09,0 9.329,5.1408 9.329,13.173 z"
         id="path4465"
         inkscape:connector-curvature="0"
         style="font-style:normal;font-variant:normal;font-weight:normal;font-stretch:normal;font-size:medium;line-height:125%;font-family:'Lobster 1.4';-inkscape-font-specification:'Lobster 1.4, Normal';text-align:start;letter-spacing:0px;word-spacing:0px;writing-mode:lr-tb;text-anchor:start;opacity:1;fill:#ffffff;fill-opacity:1;stroke:none;stroke-width:1px;stroke-linecap:butt;stroke-linejoin:miter;stroke-opacity:1" />
      <path
         d="m 1680.2937,1563.1727 c 0,20.5627 -16.7922,60.0819 -16.7922,81.9299 0,18.3138 8.9558,36.3062 37.6892,36.3062 19.7776,0 37.6893,-9.96 41.0478,-33.0932 -2.239,1.2852 -5.9706,1.9277 -12.3144,1.9277 -11.1948,0 -14.9264,-5.4619 -14.9264,-13.4943 0,-17.9924 17.9117,-56.8691 17.9117,-82.8939 0,-25.7035 -17.5385,-36.3062 -41.4209,-36.3062 -13.8069,0 -33.9576,3.5343 -51.8693,27.31 -4.1048,-19.9203 -18.6581,-27.6312 -38.4356,-27.6312 -13.0607,0 -29.8529,2.8916 -45.5256,18.3136 l 4.1047,-16.7072 h -53.7352 l -39.555,160.6471 h 53.7351 l 25.375,-103.1355 c 5.5974,-16.0646 15.6728,-29.8803 30.2261,-29.8803 8.2095,0 11.1948,7.0685 11.1948,14.1369 0,2.8916 -0.3731,5.4621 -1.1195,8.0324 l -27.2408,110.8465 h 53.7352 l 25.375,-103.1355 c 5.5974,-16.0646 15.6727,-29.559 29.1065,-29.559 8.9559,0 13.4338,5.7833 13.4338,16.386 z"
         id="path4467"
         inkscape:connector-curvature="0"
         style="font-style:normal;font-variant:normal;font-weight:normal;font-stretch:normal;font-size:medium;line-height:125%;font-family:'Lobster 1.4';-inkscape-font-specification:'Lobster 1.4, Normal';text-align:start;letter-spacing:0px;word-spacing:0px;writing-mode:lr-tb;text-anchor:start;opacity:1;fill:#ffffff;fill-opacity:1;stroke:none;stroke-width:1px;stroke-linecap:butt;stroke-linejoin:miter;stroke-opacity:1" />
      <path
         inkscape:export-ydpi="90"
         inkscape:export-xdpi="90"
         inkscape:connector-curvature="0"
         id="path7386"
         d="m 613.3454,901.0473 0.63897,3.92787 4.77991,29.45628 0.63572,3.92787 65.67159,404.91928 -71.72128,442.2313 h 404.63189 808.6362 404.6319 l -71.7214,-442.2313 71.7214,-442.2313 h -404.6319 -808.6362 z m 7.07881,6.65591 h 397.55799 808.6362 397.5547 l -70.6402,435.57539 70.6402,435.5754 H 1826.6184 1017.9822 620.42745 l 70.64022,-435.5754 -65.86355,-406.1191 -0.6373,-3.92787 z"
         style="color:#000000;font-style:normal;font-variant:normal;font-weight:normal;font-stretch:normal;font-size:medium;line-height:normal;font-family:sans-serif;text-indent:0;text-align:start;text-decoration:none;text-decoration-line:none;text-decoration-style:solid;text-decoration-color:#000000;letter-spacing:normal;word-spacing:normal;text-transform:none;writing-mode:lr-tb;direction:ltr;baseline-shift:baseline;text-anchor:start;white-space:normal;clip-rule:nonzero;display:inline;overflow:visible;visibility:visible;opacity:1;isolation:auto;mix-blend-mode:normal;color-interpolation:sRGB;color-interpolation-filters:linearRGB;solid-color:#000000;solid-opacity:1;fill:#ffffff;fill-opacity:1;fill-rule:nonzero;stroke:none;stroke-width:7.08661;stroke-linecap:square;stroke-linejoin:miter;stroke-miterlimit:4;stroke-dasharray:none;stroke-dashoffset:0;stroke-opacity:1;color-rendering:auto;image-rendering:auto;shape-rendering:auto;text-rendering:auto;enable-background:accumulate" />
    </g>
  </g>
</svg>
