<?xml version="1.0" encoding="UTF-8" standalone="no"?>
<svg
   xmlns:dc="http://purl.org/dc/elements/1.1/"
   xmlns:cc="http://creativecommons.org/ns#"
   xmlns:rdf="http://www.w3.org/1999/02/22-rdf-syntax-ns#"
   xmlns:svg="http://www.w3.org/2000/svg"
   xmlns="http://www.w3.org/2000/svg"
   xmlns:xlink="http://www.w3.org/1999/xlink"
   version="1.1"
   width="333"
   height="252"
   id="图层_1"
   style="display:inline">
  <defs>
    <linearGradient
       id="linearGradient4697">
      <stop
         id="stop4699"
         style="stop-color:#482957"
         offset="0" />
      <stop
         id="stop4701"
         style="stop-color:#c19ed3"
         offset="1" />
    </linearGradient>
    <linearGradient
       id="linearGradient4606">
      <stop
         id="stop4608"
         style="stop-color:#003333"
         offset="0" />
      <stop
         id="stop4610"
         style="stop-color:#003333;stop-opacity:0"
         offset="1" />
    </linearGradient>
    <linearGradient
       x1="297.03323"
       y1="247.01682"
       x2="297.03323"
       y2="125.66936"
       id="linearGradient5018"
       xlink:href="#linearGradient4697"
       gradientUnits="userSpaceOnUse"
       gradientTransform="matrix(0.6140245,0,0,0.6140245,35.343477,26.159943)" />
    <linearGradient
       x1="285.63058"
       y1="233.62509"
       x2="285.63058"
       y2="-5.5356889"
       id="linearGradient5020"
       xlink:href="#linearGradient4606"
       gradientUnits="userSpaceOnUse" />
    <linearGradient
       x1="297.03323"
       y1="247.01682"
       x2="297.03323"
       y2="125.66936"
       id="linearGradient3876"
       xlink:href="#linearGradient4697"
       gradientUnits="userSpaceOnUse"
       gradientTransform="matrix(0.6140245,0,0,0.6140245,35.343477,26.159943)" />
    <linearGradient
       x1="285.63058"
       y1="233.62509"
       x2="285.63058"
       y2="-5.5356889"
       id="linearGradient3878"
       xlink:href="#linearGradient4606"
       gradientUnits="userSpaceOnUse" />
  </defs>
  <g
     transform="translate(-22.000336,-19.00017)"
     id="g4956">
    <path
       d="m 353.09001,133.84616 a 164.48862,113.56644 0 1 1 -328.977232,0 164.48862,113.56644 0 1 1 328.977232,0 z"
       transform="matrix(0.98376446,0,0,1.0714286,3.0620463,1.5933983)"
       id="path3318"
       style="fill:#009933" />
    <path
       d="m 220.96875,28.9375 2.34375,2.25 c 2.00204,1.935058 4.38147,4.396409 7.0625,7.53125 3.89038,4.548905 8.35485,10.445196 12.90625,17.75 4.55017,7.302858 9.14225,16.022643 13.28125,26.125 3.75584,9.144529 7.17341,19.43834 9.6875,30.75 2.51413,11.31187 4.14035,23.6323 4.28125,36.71875 0.11663,11.44193 -1.05736,23.42284 -3.625,35.53125 -2.51544,11.90758 -6.41663,24.06063 -12.1875,35.78125 -5.307,10.81138 -12.35285,21.30641 -21.6875,30.125 -2.6875,2.53388 -7.80354,5.09931 -10.87086,7.25584 l 2.99586,1.58791 c 29.46135,-5.19384 55.73456,-16.48752 76.28125,-31.9375 28.72675,-21.60094 46.15625,-51.08045 46.15625,-83.40625 0,-32.3258 -17.4295,-61.805304 -46.15625,-83.40625 -20.77239,-15.619702 -47.42418,-27.020098 -77.28125,-32.125 z"
       transform="translate(0,-8.8157895e-6)"
       id="path4583"
       style="fill:url(#linearGradient3878);font-family:Sans;-inkscape-font-specification:Sans" />
    <path
       d="m 192.15035,267.18529 c -1.49026,-29.81242 -0.99807,-59.73295 -1.31971,-89.59075 0.0119,-50.81001 -0.33119,-101.637392 1.0526,-152.432255 0.67659,-5.625367 0.74503,7.099369 0.85255,9.371103 1.10528,73.197942 1.08491,146.418642 0.0302,219.617122 -0.17532,4.34066 -0.0399,8.72943 -0.61563,13.03478 z"
       id="path4287" />
    <path
       d="m 201.02135,269.4376 c 18.07614,-4.20422 34.05425,-15.43875 44.50726,-30.72471 20.08288,-28.70358 27.9135,-64.90802 25.54622,-99.56294 -3.18537,-39.160952 -18.16959,-78.213091 -45.35646,-106.982498 -2.33474,-3.095646 -11.68524,-10.267574 -5.59067,-2.76186 31.56182,39.185428 48.09995,91.371208 41.03961,141.530048 -4.4046,28.32567 -15.07788,57.51122 -37.35565,76.64917 -7.37486,6.11973 -16.01762,10.79812 -25.32251,13.18332 0.84407,2.88982 1.68813,5.77965 2.5322,8.66947 z"
       id="path4289" />
    <path
       d="m 201.5625,36.999991 c 0.11935,16.003229 11.99865,28.549101 20.21253,41.302884 15.23968,20.747603 25.17031,46.038615 23.85626,72.060655 -0.97011,31.89085 -7.92624,64.65111 -25.73999,91.55734 -2.21875,3.88777 -15.78111,18.3466 -7.71191,6.96086 12.29681,-22.74386 19.38367,-48.40853 21.13662,-74.17756 1.1857,-22.55761 -10.59992,-42.93946 -24.10921,-60.03872 -3.25046,-3.12435 -9.28018,-18.26318 -5.92555,-6.69671 8.18412,16.01492 20.7634,30.22826 24.15254,48.42742 4.62313,22.0755 -2.34402,44.48516 -8.92923,65.41119 -5.51543,14.24574 -11.01395,30.36014 -24.0909,39.43325 -11.64118,3.60365 -25.30539,-2.19958 -36.12462,-7.41892 -25.5062,-14.53253 -44.59823,-39.66313 -53.50779,-67.47794 -4.964803,-13.27595 1.30886,-27.67587 11.36459,-36.70335 14.02662,-14.0818 32.77798,-21.91272 47.85416,-34.60915 3.05335,-2.53806 4.804,-8.42232 0.62058,-2.19461 -19.51173,14.87885 -44.75759,22.97396 -59.38204,43.76619 -8.876658,11.46798 -7.444875,27.04731 -1.9547,39.62722 10.47265,25.77081 28.75509,49.32448 53.46616,62.7387 C 111.97123,246.02206 76.826892,205.61015 68.681851,159.95453 65.058082,140.58598 75.23382,121.68905 89.469644,109.19139 111.27983,88.65271 139.94614,77.541114 162.4478,57.980518 c 5.37642,-3.11517 11.19528,-19.648206 4.6492,-7.231838 -12.70686,14.716236 -31.32485,22.19885 -47.43018,32.467295 -21.124419,12.930792 -44.358732,27.609335 -53.27249,52.001135 -7.500149,22.88113 1.797935,47.19913 12.840228,67.32739 20.03986,35.73026 57.093192,62.02725 98.247412,65.94907 11.05362,2.53445 17.38826,-0.71958 27.10953,-5.0398 21.10209,-12.5005 31.15295,-36.65675 37.92094,-59.17791 7.02931,-26.63475 10.79935,-55.13866 4.56138,-82.30295 -5.503,-25.351267 -23.21591,-44.93258 -37.4201,-65.731321 -3.85412,-5.874355 -6.62796,-12.369311 -8.09122,-19.241598 z m -0.90625,110.531249 c -2.58326,14.53593 7.21422,27.74616 6.01514,42.35239 0.0315,20.62045 -3.10006,41.56786 -10.39014,60.89761 -4.20863,2.75702 -6.39683,15.36751 1.34375,7.8125 8.46368,-12.32857 9.83039,-27.94376 12.1621,-42.37244 2.32099,-17.94215 2.18104,-36.90438 -5.58592,-53.60178 -1.87252,-4.85784 -2.09014,-10.15296 -3.54493,-15.08828 z M 192.75,255.96874 c -17.56149,-5.15687 -25.48318,-24.3744 -29.62984,-40.60559 -3.2694,-13.40491 -2.87037,-29.1314 6.9268,-39.84764 3.59508,-3.73361 6.97018,-14.86266 4.97493,-17.02081 -1.53365,13.16285 -15.27821,20.14122 -16.9654,33.2228 -3.48675,20.88286 3.27064,43.39042 17.02192,59.38777 3.59843,3.25673 18.06172,16.74401 17.67159,4.86347 z"
       id="path4328" />
    <path
       d="m 353.09001,133.84616 a 164.48862,113.56644 0 1 1 -328.977232,0 164.48862,113.56644 0 1 1 328.977232,0 z"
       transform="matrix(0.98376446,0,0,1.0714286,3.0620463,1.5933983)"
       id="path4779"
       style="fill:none;stroke:#000000;stroke-width:7.79224873" />
  </g>
  <g
     transform="translate(-22.000336,-19.00017)"
     id="g4964">
    <g
       transform="matrix(0.6140245,0,0,0.6140245,35.54784,33.640918)"
       id="g4665"
       style="fill:#ffffff;stroke:#ffffff;stroke-width:13.0287962;stroke-linecap:round;stroke-linejoin:round">
      <path
         d="m 379.5,290.99999 c -2.8685,-0.12405 -5.54264,1.86403 -6.50555,4.52402 -0.98089,2.59012 -0.87298,5.49219 -0.21898,8.14584 0.75774,2.84503 3.31227,5.19626 6.31007,5.34411 1.64721,0.0857 3.44872,-0.25804 4.73129,-1.34636 0.53263,-0.5746 1.4116,-1.65695 1.1443,-0.22024 -0.0234,1.40446 0.18123,2.90933 -0.41686,4.22222 -0.81001,1.28714 -2.66008,1.45131 -3.94389,0.84067 -1.08767,-0.0398 -0.79645,-1.89795 -2.00759,-1.65471 -1.92677,-0.20185 -3.85353,-0.4037 -5.78029,-0.60555 -0.62153,2.64316 1.08445,5.61329 3.75146,6.27343 2.72654,0.85612 5.64846,0.78211 8.46332,0.5277 2.37561,-0.2563 4.84284,-1.38985 5.93188,-3.63361 1.02127,-1.82494 1.02372,-3.9493 0.97834,-5.97849 0,-5.29218 0,-10.58435 0,-15.87653 -2.14583,0 -4.29167,0 -6.4375,0 0,0.86458 0,1.72917 0,2.59375 -1.30797,-1.98269 -3.60703,-3.25379 -6,-3.15625 z m 2.46875,5.1875 c 1.80427,-0.0658 3.12476,1.74757 3.10398,3.43817 0.17938,1.63402 -0.2251,3.66237 -1.87788,4.40238 -1.45048,0.66785 -3.463,-0.0936 -3.80952,-1.73361 -0.50992,-1.70591 -0.43849,-3.71569 0.56181,-5.22955 0.47499,-0.60714 1.25354,-0.94463 2.02161,-0.87739 z"
         id="path4667"
         style="fill:#ffffff;stroke:#ffffff;stroke-width:13.0287962;stroke-linecap:round;stroke-linejoin:round" />
      <path
         d="m 341.6875,290.99999 c -2.88542,-0.0478 -5.89521,0.95975 -7.80337,3.20338 -1.82863,1.95343 -2.50165,4.72762 -2.29255,7.34552 0.15446,3.17317 2.06934,6.20976 4.95277,7.59051 2.58333,1.26198 5.62159,1.37121 8.39278,0.75015 2.75789,-0.65216 5.23588,-2.56898 6.3261,-5.21697 1.5442,-3.68397 0.8849,-8.4067 -2.13797,-11.15409 -2.00077,-1.84208 -4.79232,-2.45794 -7.43776,-2.5185 z m 0.125,4.9375 c 1.64607,-0.0639 2.91367,1.40696 3.13229,2.94585 0.23768,1.50882 0.25059,3.11999 -0.29246,4.56626 -0.51857,1.08967 -1.54962,2.08705 -2.83983,2.01914 -1.06025,0.14819 -2.09635,-0.64149 -2.70513,-1.49935 -0.84808,-1.38684 -0.74349,-3.10796 -0.62125,-4.66701 0.11079,-1.31433 0.79561,-2.65517 2.08936,-3.14063 0.39101,-0.16049 0.81592,-0.22517 1.23702,-0.22426 z"
         id="path4669"
         style="fill:#ffffff;stroke:#ffffff;stroke-width:13.0287962;stroke-linecap:round;stroke-linejoin:round" />
      <path
         d="m 356.153,291.554 c 2.13967,0 4.27933,0 6.419,0 0,0.95567 0,1.91133 0,2.867 0.64294,-1.16795 1.30989,-2.45239 2.59219,-3.02613 1.4445,-0.73239 3.13384,-0.3193 4.48968,0.40549 0.61075,0.11593 0.58008,0.47395 0.31278,0.90747 -0.59855,1.43606 -1.1971,2.87211 -1.79565,4.30817 -0.96007,-0.32379 -2.02838,-0.84488 -3.02138,-0.31065 -1.4079,0.72372 -1.71752,2.43736 -1.8882,3.86389 -0.23684,2.43421 -0.11331,4.88338 -0.14442,7.32505 0,0.65323 0,1.30647 0,1.95971 -2.32167,0 -4.64333,0 -6.965,0 6.7e-4,-6.09967 -10e-4,-12.202 0.001,-18.3 z"
         id="path4671"
         style="fill:#ffffff;stroke:#ffffff;stroke-width:13.0287962;stroke-linecap:round;stroke-linejoin:round" />
      <path
         d="m 265.25361,290.99999 c -2.90991,-0.0487 -5.95106,0.97891 -7.85221,3.26396 -2.4512,2.82923 -2.85185,7.09345 -1.4269,10.48609 1.01247,2.48512 3.18031,4.55884 5.85054,5.11406 2.52163,0.54915 5.16963,0.50182 7.69534,0.003 1.70719,-0.32012 3.24175,-1.26521 4.35632,-2.58834 0.4684,-0.63698 1.56946,-1.70675 1.4579,-2.23283 -2.17283,-0.21322 -4.34566,-0.42644 -6.51849,-0.63966 -0.60814,0.67235 -1.21199,1.44167 -2.1875,1.52425 -1.53768,0.38873 -3.36142,-0.24817 -4.06295,-1.72957 -0.0845,-0.51011 -0.95566,-2.02192 0.0158,-1.85718 4.44279,0 8.88559,0 13.32838,0 0.0708,-2.81085 -0.29752,-5.82492 -2.10048,-8.09482 -1.09183,-1.31794 -2.58807,-2.29682 -4.27036,-2.65829 -1.39716,-0.35981 -2.84333,-0.55934 -4.28541,-0.59064 z m 0.28125,4.25 c 1.10954,-0.0333 2.34059,0.43821 2.78073,1.53537 0.2123,0.60105 0.92467,1.95624 0.39909,2.27713 -2.19536,0 -4.39071,0 -6.58607,0 0.12324,-1.52218 0.86049,-3.24648 2.45791,-3.69339 0.30819,-0.0858 0.62906,-0.11918 0.94834,-0.11911 z"
         id="path4673"
         style="fill:#ffffff;stroke:#ffffff;stroke-width:13.0287962;stroke-linecap:round;stroke-linejoin:round" />
      <path
         d="m 293.466,302.616 c 2.18533,0.273 4.37067,0.546 6.556,0.819 -0.60712,2.24069 -1.96919,4.33444 -4.02375,5.48992 -1.96174,1.30945 -4.44017,1.38565 -6.71997,1.31109 -1.94534,-0.13636 -3.97078,-0.3384 -5.67853,-1.36478 -2.04999,-1.16047 -3.68454,-3.21528 -3.991,-5.58996 -0.32914,-2.27734 -0.38778,-4.72466 0.56385,-6.8683 0.82704,-1.83923 2.26248,-3.47671 4.10727,-4.33476 3.13787,-1.29161 6.7155,-1.38418 9.97051,-0.4929 2.70847,0.74122 4.75683,3.13689 5.35962,5.84069 -2.13933,0.273 -4.27867,0.546 -6.418,0.819 -0.17936,-1.40246 -1.5585,-2.38197 -2.93203,-2.31431 -1.70158,-0.20161 -3.43762,0.95615 -3.78168,2.6593 -0.33309,1.55451 -0.40154,3.23162 0.10164,4.75717 0.65552,1.95725 3.1658,2.57533 4.93552,1.85463 1.02923,-0.50346 1.69148,-1.48278 1.95055,-2.58579 z"
         id="path4675"
         style="fill:#ffffff;stroke:#ffffff;stroke-width:13.0287962;stroke-linecap:round;stroke-linejoin:round" />
      <path
         d="m 312.176,284.588 c 0,2.32167 0,4.64333 0,6.965 1.27467,0 2.54933,0 3.824,0 0,1.68433 0,3.36867 0,5.053 -1.27467,0 -2.54933,0 -3.824,0 0.0146,2.34659 -0.03,4.69509 0.0235,7.04044 -0.12571,1.23333 1.11352,1.87381 2.17327,1.4853 0.57479,-0.0116 1.56012,-0.73366 1.41904,0.2436 0.16039,1.40155 0.32077,2.80311 0.48116,4.20466 -2.65763,0.61659 -5.54307,1.10742 -8.1797,0.14706 -1.22034,-0.66042 -2.32873,-1.80608 -2.44791,-3.2523 -0.46329,-2.53361 -0.2484,-5.11795 -0.29839,-7.67812 0,-0.73021 0,-1.46043 0,-2.19064 -0.81967,0 -1.63933,0 -2.459,0 0,-1.68433 0,-3.36867 0,-5.053 0.81967,0 1.63933,0 2.459,0 0,-1.13833 0,-2.27667 0,-3.415 2.27633,-1.18333 4.55267,-2.36667 6.829,-3.55 z"
         id="path4677"
         style="fill:#ffffff;stroke:#ffffff;stroke-width:13.0287962;stroke-linecap:round;stroke-linejoin:round" />
      <path
         d="m 320.43814,302.752 h 7.238 v 7.102 h -7.238 v -7.102 z"
         id="path4679"
         style="fill:#ffffff;stroke:#ffffff;stroke-width:13.0287962;stroke-linecap:round;stroke-linejoin:round" />
      <path
         d="m 229.34736,290.99999 c -2.84487,-0.0449 -5.81171,0.92619 -7.72238,3.11184 -1.79149,1.8543 -2.66131,4.46816 -2.5204,7.02575 0.0393,2.60089 1.20666,5.18821 3.27403,6.79991 2.74932,2.33928 6.65413,2.711 10.07144,1.98252 2.78457,-0.60245 5.33021,-2.47776 6.44396,-5.14052 1.5418,-3.63065 0.97297,-8.27222 -1.91509,-11.08082 -2.00796,-1.97798 -4.90259,-2.61755 -7.63156,-2.69868 z m 0,4.9375 c 1.59278,-0.11784 2.97274,1.18808 3.22057,2.71573 0.28033,1.51165 0.28438,3.11645 -0.15504,4.59789 -0.46723,1.24761 -1.65877,2.33521 -3.06553,2.21763 -1.01928,0.13593 -2.00342,-0.65002 -2.55022,-1.49935 -0.88115,-1.41941 -0.79403,-3.19584 -0.6252,-4.79543 0.15791,-1.51307 1.19652,-3.08701 2.82397,-3.21749 l 0.17393,-0.0142 0.17752,-0.005 z"
         id="path4681"
         style="fill:#ffffff;stroke:#ffffff;stroke-width:13.0287962;stroke-linecap:round;stroke-linejoin:round" />
      <path
         d="m 244.437,284.588 c 2.27633,0 4.55267,0 6.829,0 0,1.59333 0,3.18667 0,4.78 -2.27633,0 -4.55267,0 -6.829,0 0,-1.59333 0,-3.18667 0,-4.78 z"
         id="path4683"
         style="fill:#ffffff;stroke:#ffffff;stroke-width:13.0287962;stroke-linecap:round;stroke-linejoin:round" />
      <path
         d="m 244.437,291.554 c 2.27633,0 4.55267,0 6.829,0 -0.009,6.28384 0.019,12.56801 -0.0152,18.85163 -0.0692,1.73192 -0.13098,3.65411 -1.27537,5.06169 -0.98013,0.98911 -2.29285,1.66738 -3.70116,1.72305 -1.99249,0.16961 -3.96439,-0.27384 -5.93322,-0.50537 0.36433,-1.73 0.72867,-3.46 1.093,-5.19 0.948,0.23846 2.28658,0.30999 2.71628,-0.79378 0.45547,-1.28978 0.23483,-2.68516 0.28772,-4.02754 -6.7e-4,-5.03956 0.001,-10.08179 -0.001,-15.11968 z"
         id="path4685"
         style="fill:#ffffff;stroke:#ffffff;stroke-width:13.0287962;stroke-linecap:round;stroke-linejoin:round" />
      <path
         d="m 178.46875,284.59374 c 0,8.41667 0,16.83333 0,25.25 2.55208,0 5.10417,0 7.65625,0 0,-3.13542 0,-6.27083 0,-9.40625 2.33416,-0.0524 4.68954,0.15746 7.00131,-0.24833 2.99265,-0.44643 5.54845,-2.8895 6.05315,-5.88401 0.5438,-2.89419 0.0549,-6.37108 -2.41142,-8.27926 -2.28163,-1.66766 -5.2189,-1.40977 -7.89917,-1.43215 -3.4667,0 -6.93341,0 -10.40012,0 z m 7.65625,5.0625 c 1.49718,0.0695 3.06708,-0.2313 4.47882,0.41154 1.63451,0.77735 1.84217,3.21493 0.52845,4.39058 -1.0644,0.98617 -2.60816,0.7637 -3.94722,0.79163 -0.31169,-0.0854 -0.96691,0.17279 -1.06005,-0.13113 0,-1.82087 0,-3.64175 0,-5.46262 z"
         id="path4687"
         style="fill:#ffffff;stroke:#ffffff;stroke-width:13.0287962;stroke-linecap:round;stroke-linejoin:round" />
      <path
         d="m 203.39786,291.554 c 2.13967,0 4.27933,0 6.419,0 0,0.95567 0,1.91133 0,2.867 0.64294,-1.16795 1.30989,-2.45239 2.59219,-3.02613 1.4445,-0.73239 3.13384,-0.3193 4.48968,0.40549 0.61075,0.11593 0.58008,0.47395 0.31278,0.90747 -0.59855,1.43606 -1.1971,2.87211 -1.79565,4.30817 -0.95997,-0.32412 -2.02842,-0.84472 -3.02138,-0.31065 -1.40803,0.72363 -1.71674,2.43756 -1.88791,3.86389 -0.23728,2.43418 -0.11356,4.88337 -0.14471,7.32505 0,0.65323 0,1.30647 0,1.95971 -2.32167,0 -4.64333,0 -6.965,0 6.7e-4,-6.09967 -0.001,-12.202 0.001,-18.3 z"
         id="path4689"
         style="fill:#ffffff;stroke:#ffffff;stroke-width:13.0287962;stroke-linecap:round;stroke-linejoin:round" />
      <path
         d="m 145.80889,290.99999 c -2.88516,-0.0475 -5.89526,0.95956 -7.80303,3.20338 -1.7603,1.88611 -2.4218,4.54477 -2.27963,7.07215 0.0495,2.52386 1.08714,5.08808 3.11391,6.66197 2.68774,2.29201 6.48904,2.6852 9.84722,2.03944 2.82917,-0.56142 5.45653,-2.40522 6.62073,-5.09133 1.58544,-3.60805 1.05861,-8.24321 -1.77274,-11.09423 -2.0118,-2.03957 -4.94936,-2.73409 -7.72646,-2.79138 z m 0.125,4.9375 c 1.59908,-0.0628 2.90264,1.30914 3.12086,2.82981 0.24718,1.54464 0.27317,3.19271 -0.25658,4.6823 -0.50858,1.10891 -1.57216,2.08345 -2.86428,2.01914 -1.05601,0.15325 -2.06937,-0.65307 -2.67551,-1.49935 -0.8671,-1.37825 -0.785,-3.10735 -0.64362,-4.66701 0.12775,-1.3635 0.8869,-2.74721 2.24739,-3.19891 0.34359,-0.11959 0.70902,-0.16639 1.07174,-0.16598 z"
         id="path4691"
         style="fill:#ffffff;stroke:#ffffff;stroke-width:13.0287962;stroke-linecap:round;stroke-linejoin:round" />
      <path
         d="m 160.28714,291.554 h 6.419 v 2.867 c 0.683,-1.229 1.229,-2.185 1.912,-2.594 0.683,-0.546 1.502,-0.82 2.458,-0.82 0.956,0 2.049,0.41 3.278,1.093 l -2.049,4.916 c -0.82,-0.273 -1.502,-0.546 -1.913,-0.546 -0.956,0 -1.639,0.41 -2.185,1.229 -0.683,1.093 -0.956,3.005 -0.956,6.009 v 6.146 h -6.965 v -18.3 z"
         id="path4693"
         style="fill:#ffffff;stroke:#ffffff;stroke-width:13.0287962;stroke-linecap:round;stroke-linejoin:round" />
      <path
         d="m 113.463,284.588 c 7.739,0 15.478,0 23.217,0 0,2.04867 0,4.09733 0,6.146 -2.595,0 -5.19,0 -7.785,0 0,6.37333 0,12.74667 0,19.12 -2.54933,0 -5.09867,0 -7.648,0 0,-6.37333 0,-12.74667 0,-19.12 -2.595,0 -5.19,0 -7.785,0 6.7e-4,-2.04833 -0.001,-4.09933 10e-4,-6.146 z"
         id="path4695"
         style="fill:#ffffff;stroke:#ffffff;stroke-width:13.0287962;stroke-linecap:round;stroke-linejoin:round" />
    </g>
    <path
       d="m 213.62501,65.562493 c -7.79934,5.618938 -14.59833,11.99951 -18.87501,20.468751 l 3,-12.000001 c -4.60686,8.208591 -7.73028,16.707505 -8.65624,25.000004 l -5.21875,-2.156251 c 2.60039,6.708824 3.05829,11.870724 0.375,14.218754 -10.56675,8.72099 -28.25,18.55318 -28.25,33.3125 0,16.18508 9.8905,33.78125 35.81249,33.78125 0.87441,-0.056 1.7015,-0.2028 2.5,-0.46876 20.15229,1.96568 43.32135,-20.93581 29.625,-45.65625 -3.85791,-7.04409 -13.69462,-14.07416 -24.09375,-20.53125 -2.34741,-1.34102 -2.83525,-6.55883 -2.5,-8.90625 l -2.9375,-1.49999 c 4.81429,-7.620637 10.74446,-15.21559 17.83932,-22.521911 2.52043,-2.595554 5.18785,-5.154682 8.00443,-7.665596 -6.19517,2.107771 -11.85874,5.037884 -16.57804,9.649687 -1.47693,1.443285 -2.86138,3.051277 -4.1407,4.850313 3.18679,-6.62471 8.39129,-13.25029 14.09375,-19.875 z m -116.906254,11 c -2.600395,0 -4.719364,2.08772 -4.71875,4.6875 l 0,19.875007 c 0,2.59978 2.118969,4.6875 4.71875,4.6875 l 15.249994,0 c 1.42516,0 3.28125,1.17472 3.28125,3.1875 l 0,65.65625 c 0,2.1804 1.68436,3.875 3.78126,3.875 l 22.875,0 c 2.09628,0 3.87499,-1.6946 3.87499,-3.875 l 0,-65.0625 c 0,-2.01278 1.33422,-3.78125 4.4375,-3.78125 l 13.84376,0 c 2.51504,0 4.6875,-2.08772 4.6875,-4.6875 l 0,-19.875007 c 0,-2.59978 -2.17246,-4.6875 -4.6875,-4.6875 z M 193.78126,101.125 c 0.0399,1.47445 0.006,2.9084 0,4.28125 -0.0452,-1.76586 -0.002,-3.32097 0,-4.28125 z m 75.6875,1.74999 c -0.80719,0 -2.5878,0.13639 -3.09375,0.18751 -15.09301,1.5247 -27.01349,13.66506 -28.1875,28.84375 -0.0932,0.56176 -0.0857,1.62262 -0.0625,2.34375 l 0,41 c 0,1.67751 1.57135,3.125 3.5,3.125 l 21.40625,0 c 1.92865,0 3.5,-1.44749 3.5,-3.125 l 0,-35.96875 c 0,-3.85731 3.03154,-7.375 9.65625,-7.375 3.35442,0 3.1875,-1.1076 3.1875,-3.87501 l 0,-21.28124 c 0,-2.09628 -1.7571,-3.87501 -3.9375,-3.87501 l -5.875,0 z"
       id="path4615"
       style="fill:#ffffff;stroke:#ffffff;stroke-width:25;stroke-linecap:round;stroke-linejoin:round" />
    <g
       transform="matrix(0.6140245,0,0,0.6140245,35.54784,33.640918)"
       id="g3130"
       style="fill:#7d4698">
      <path
         d="m 379.5,290.99999 c -2.8685,-0.12405 -5.54264,1.86403 -6.50555,4.52402 -0.98089,2.59012 -0.87298,5.49219 -0.21898,8.14584 0.75774,2.84503 3.31227,5.19626 6.31007,5.34411 1.64721,0.0857 3.44872,-0.25804 4.73129,-1.34636 0.53263,-0.5746 1.4116,-1.65695 1.1443,-0.22024 -0.0234,1.40446 0.18123,2.90933 -0.41686,4.22222 -0.81001,1.28714 -2.66008,1.45131 -3.94389,0.84067 -1.08767,-0.0398 -0.79645,-1.89795 -2.00759,-1.65471 -1.92677,-0.20185 -3.85353,-0.4037 -5.78029,-0.60555 -0.62153,2.64316 1.08445,5.61329 3.75146,6.27343 2.72654,0.85612 5.64846,0.78211 8.46332,0.5277 2.37561,-0.2563 4.84284,-1.38985 5.93188,-3.63361 1.02127,-1.82494 1.02372,-3.9493 0.97834,-5.97849 0,-5.29218 0,-10.58435 0,-15.87653 -2.14583,0 -4.29167,0 -6.4375,0 0,0.86458 0,1.72917 0,2.59375 -1.30797,-1.98269 -3.60703,-3.25379 -6,-3.15625 z m 2.46875,5.1875 c 1.80427,-0.0658 3.12476,1.74757 3.10398,3.43817 0.17938,1.63402 -0.2251,3.66237 -1.87788,4.40238 -1.45048,0.66785 -3.463,-0.0936 -3.80952,-1.73361 -0.50992,-1.70591 -0.43849,-3.71569 0.56181,-5.22955 0.47499,-0.60714 1.25354,-0.94463 2.02161,-0.87739 z"
         id="path3078"
         style="fill:#7d4698" />
      <path
         d="m 341.6875,290.99999 c -2.88542,-0.0478 -5.89521,0.95975 -7.80337,3.20338 -1.82863,1.95343 -2.50165,4.72762 -2.29255,7.34552 0.15446,3.17317 2.06934,6.20976 4.95277,7.59051 2.58333,1.26198 5.62159,1.37121 8.39278,0.75015 2.75789,-0.65216 5.23588,-2.56898 6.3261,-5.21697 1.5442,-3.68397 0.8849,-8.4067 -2.13797,-11.15409 -2.00077,-1.84208 -4.79232,-2.45794 -7.43776,-2.5185 z m 0.125,4.9375 c 1.64607,-0.0639 2.91367,1.40696 3.13229,2.94585 0.23768,1.50882 0.25059,3.11999 -0.29246,4.56626 -0.51857,1.08967 -1.54962,2.08705 -2.83983,2.01914 -1.06025,0.14819 -2.09635,-0.64149 -2.70513,-1.49935 -0.84808,-1.38684 -0.74349,-3.10796 -0.62125,-4.66701 0.11079,-1.31433 0.79561,-2.65517 2.08936,-3.14063 0.39101,-0.16049 0.81592,-0.22517 1.23702,-0.22426 z"
         id="path3072"
         style="fill:#7d4698" />
      <path
         d="m 356.153,291.554 c 2.13967,0 4.27933,0 6.419,0 0,0.95567 0,1.91133 0,2.867 0.64294,-1.16795 1.30989,-2.45239 2.59219,-3.02613 1.4445,-0.73239 3.13384,-0.3193 4.48968,0.40549 0.61075,0.11593 0.58008,0.47395 0.31278,0.90747 -0.59855,1.43606 -1.1971,2.87211 -1.79565,4.30817 -0.96007,-0.32379 -2.02838,-0.84488 -3.02138,-0.31065 -1.4079,0.72372 -1.71752,2.43736 -1.8882,3.86389 -0.23684,2.43421 -0.11331,4.88338 -0.14442,7.32505 0,0.65323 0,1.30647 0,1.95971 -2.32167,0 -4.64333,0 -6.965,0 6.7e-4,-6.09967 -10e-4,-12.202 0.001,-18.3 z"
         id="path3070"
         style="fill:#7d4698" />
      <path
         d="m 265.25361,290.99999 c -2.90991,-0.0487 -5.95106,0.97891 -7.85221,3.26396 -2.4512,2.82923 -2.85185,7.09345 -1.4269,10.48609 1.01247,2.48512 3.18031,4.55884 5.85054,5.11406 2.52163,0.54915 5.16963,0.50182 7.69534,0.003 1.70719,-0.32012 3.24175,-1.26521 4.35632,-2.58834 0.4684,-0.63698 1.56946,-1.70675 1.4579,-2.23283 -2.17283,-0.21322 -4.34566,-0.42644 -6.51849,-0.63966 -0.60814,0.67235 -1.21199,1.44167 -2.1875,1.52425 -1.53768,0.38873 -3.36142,-0.24817 -4.06295,-1.72957 -0.0845,-0.51011 -0.95566,-2.02192 0.0158,-1.85718 4.44279,0 8.88559,0 13.32838,0 0.0708,-2.81085 -0.29752,-5.82492 -2.10048,-8.09482 -1.09183,-1.31794 -2.58807,-2.29682 -4.27036,-2.65829 -1.39716,-0.35981 -2.84333,-0.55934 -4.28541,-0.59064 z m 0.28125,4.25 c 1.10954,-0.0333 2.34059,0.43821 2.78073,1.53537 0.2123,0.60105 0.92467,1.95624 0.39909,2.27713 -2.19536,0 -4.39071,0 -6.58607,0 0.12324,-1.52218 0.86049,-3.24648 2.45791,-3.69339 0.30819,-0.0858 0.62906,-0.11918 0.94834,-0.11911 z"
         id="path3066"
         style="fill:#7d4698" />
      <path
         d="m 293.466,302.616 c 2.18533,0.273 4.37067,0.546 6.556,0.819 -0.60712,2.24069 -1.96919,4.33444 -4.02375,5.48992 -1.96174,1.30945 -4.44017,1.38565 -6.71997,1.31109 -1.94534,-0.13636 -3.97078,-0.3384 -5.67853,-1.36478 -2.04999,-1.16047 -3.68454,-3.21528 -3.991,-5.58996 -0.32914,-2.27734 -0.38778,-4.72466 0.56385,-6.8683 0.82704,-1.83923 2.26248,-3.47671 4.10727,-4.33476 3.13787,-1.29161 6.7155,-1.38418 9.97051,-0.4929 2.70847,0.74122 4.75683,3.13689 5.35962,5.84069 -2.13933,0.273 -4.27867,0.546 -6.418,0.819 -0.17936,-1.40246 -1.5585,-2.38197 -2.93203,-2.31431 -1.70158,-0.20161 -3.43762,0.95615 -3.78168,2.6593 -0.33309,1.55451 -0.40154,3.23162 0.10164,4.75717 0.65552,1.95725 3.1658,2.57533 4.93552,1.85463 1.02923,-0.50346 1.69148,-1.48278 1.95055,-2.58579 z"
         id="path3062"
         style="fill:#7d4698" />
      <path
         d="m 312.176,284.588 c 0,2.32167 0,4.64333 0,6.965 1.27467,0 2.54933,0 3.824,0 0,1.68433 0,3.36867 0,5.053 -1.27467,0 -2.54933,0 -3.824,0 0.0146,2.34659 -0.03,4.69509 0.0235,7.04044 -0.12571,1.23333 1.11352,1.87381 2.17327,1.4853 0.57479,-0.0116 1.56012,-0.73366 1.41904,0.2436 0.16039,1.40155 0.32077,2.80311 0.48116,4.20466 -2.65763,0.61659 -5.54307,1.10742 -8.1797,0.14706 -1.22034,-0.66042 -2.32873,-1.80608 -2.44791,-3.2523 -0.46329,-2.53361 -0.2484,-5.11795 -0.29839,-7.67812 0,-0.73021 0,-1.46043 0,-2.19064 -0.81967,0 -1.63933,0 -2.459,0 0,-1.68433 0,-3.36867 0,-5.053 0.81967,0 1.63933,0 2.459,0 0,-1.13833 0,-2.27667 0,-3.415 2.27633,-1.18333 4.55267,-2.36667 6.829,-3.55 z"
         id="path3060"
         style="fill:#7d4698" />
      <path
         d="m 320.43814,302.752 h 7.238 v 7.102 h -7.238 v -7.102 z"
         id="path3058"
         style="fill:#7d4698" />
      <path
         d="m 229.34736,290.99999 c -2.84487,-0.0449 -5.81171,0.92619 -7.72238,3.11184 -1.79149,1.8543 -2.66131,4.46816 -2.5204,7.02575 0.0393,2.60089 1.20666,5.18821 3.27403,6.79991 2.74932,2.33928 6.65413,2.711 10.07144,1.98252 2.78457,-0.60245 5.33021,-2.47776 6.44396,-5.14052 1.5418,-3.63065 0.97297,-8.27222 -1.91509,-11.08082 -2.00796,-1.97798 -4.90259,-2.61755 -7.63156,-2.69868 z m 0,4.9375 c 1.59278,-0.11784 2.97274,1.18808 3.22057,2.71573 0.28033,1.51165 0.28438,3.11645 -0.15504,4.59789 -0.46723,1.24761 -1.65877,2.33521 -3.06553,2.21763 -1.01928,0.13593 -2.00342,-0.65002 -2.55022,-1.49935 -0.88115,-1.41941 -0.79403,-3.19584 -0.6252,-4.79543 0.15791,-1.51307 1.19652,-3.08701 2.82397,-3.21749 l 0.17393,-0.0142 0.17752,-0.005 z"
         id="path3054"
         style="fill:#7d4698" />
      <path
         d="m 244.437,284.588 c 2.27633,0 4.55267,0 6.829,0 0,1.59333 0,3.18667 0,4.78 -2.27633,0 -4.55267,0 -6.829,0 0,-1.59333 0,-3.18667 0,-4.78 z"
         id="path3052"
         style="fill:#7d4698" />
      <path
         d="m 244.437,291.554 c 2.27633,0 4.55267,0 6.829,0 -0.009,6.28384 0.019,12.56801 -0.0152,18.85163 -0.0692,1.73192 -0.13098,3.65411 -1.27537,5.06169 -0.98013,0.98911 -2.29285,1.66738 -3.70116,1.72305 -1.99249,0.16961 -3.96439,-0.27384 -5.93322,-0.50537 0.36433,-1.73 0.72867,-3.46 1.093,-5.19 0.948,0.23846 2.28658,0.30999 2.71628,-0.79378 0.45547,-1.28978 0.23483,-2.68516 0.28772,-4.02754 -6.7e-4,-5.03956 0.001,-10.08179 -0.001,-15.11968 z"
         id="path3050"
         style="fill:#7d4698" />
      <path
         d="m 178.46875,284.59374 c 0,8.41667 0,16.83333 0,25.25 2.55208,0 5.10417,0 7.65625,0 0,-3.13542 0,-6.27083 0,-9.40625 2.33416,-0.0524 4.68954,0.15746 7.00131,-0.24833 2.99265,-0.44643 5.54845,-2.8895 6.05315,-5.88401 0.5438,-2.89419 0.0549,-6.37108 -2.41142,-8.27926 -2.28163,-1.66766 -5.2189,-1.40977 -7.89917,-1.43215 -3.4667,0 -6.93341,0 -10.40012,0 z m 7.65625,5.0625 c 1.49718,0.0695 3.06708,-0.2313 4.47882,0.41154 1.63451,0.77735 1.84217,3.21493 0.52845,4.39058 -1.0644,0.98617 -2.60816,0.7637 -3.94722,0.79163 -0.31169,-0.0854 -0.96691,0.17279 -1.06005,-0.13113 0,-1.82087 0,-3.64175 0,-5.46262 z"
         id="path3046"
         style="fill:#7d4698" />
      <path
         d="m 203.39786,291.554 c 2.13967,0 4.27933,0 6.419,0 0,0.95567 0,1.91133 0,2.867 0.64294,-1.16795 1.30989,-2.45239 2.59219,-3.02613 1.4445,-0.73239 3.13384,-0.3193 4.48968,0.40549 0.61075,0.11593 0.58008,0.47395 0.31278,0.90747 -0.59855,1.43606 -1.1971,2.87211 -1.79565,4.30817 -0.95997,-0.32412 -2.02842,-0.84472 -3.02138,-0.31065 -1.40803,0.72363 -1.71674,2.43756 -1.88791,3.86389 -0.23728,2.43418 -0.11356,4.88337 -0.14471,7.32505 0,0.65323 0,1.30647 0,1.95971 -2.32167,0 -4.64333,0 -6.965,0 6.7e-4,-6.09967 -0.001,-12.202 0.001,-18.3 z"
         id="path3044"
         style="fill:#7d4698" />
      <path
         d="m 145.80889,290.99999 c -2.88516,-0.0475 -5.89526,0.95956 -7.80303,3.20338 -1.7603,1.88611 -2.4218,4.54477 -2.27963,7.07215 0.0495,2.52386 1.08714,5.08808 3.11391,6.66197 2.68774,2.29201 6.48904,2.6852 9.84722,2.03944 2.82917,-0.56142 5.45653,-2.40522 6.62073,-5.09133 1.58544,-3.60805 1.05861,-8.24321 -1.77274,-11.09423 -2.0118,-2.03957 -4.94936,-2.73409 -7.72646,-2.79138 z m 0.125,4.9375 c 1.59908,-0.0628 2.90264,1.30914 3.12086,2.82981 0.24718,1.54464 0.27317,3.19271 -0.25658,4.6823 -0.50858,1.10891 -1.57216,2.08345 -2.86428,2.01914 -1.05601,0.15325 -2.06937,-0.65307 -2.67551,-1.49935 -0.8671,-1.37825 -0.785,-3.10735 -0.64362,-4.66701 0.12775,-1.3635 0.8869,-2.74721 2.24739,-3.19891 0.34359,-0.11959 0.70902,-0.16639 1.07174,-0.16598 z"
         id="path3040"
         style="fill:#7d4698" />
      <path
         d="m 160.28714,291.554 h 6.419 v 2.867 c 0.683,-1.229 1.229,-2.185 1.912,-2.594 0.683,-0.546 1.502,-0.82 2.458,-0.82 0.956,0 2.049,0.41 3.278,1.093 l -2.049,4.916 c -0.82,-0.273 -1.502,-0.546 -1.913,-0.546 -0.956,0 -1.639,0.41 -2.185,1.229 -0.683,1.093 -0.956,3.005 -0.956,6.009 v 6.146 h -6.965 v -18.3 z"
         id="path3038"
         style="fill:#7d4698" />
      <path
         d="m 113.463,284.588 c 7.739,0 15.478,0 23.217,0 0,2.04867 0,4.09733 0,6.146 -2.595,0 -5.19,0 -7.785,0 0,6.37333 0,12.74667 0,19.12 -2.54933,0 -5.09867,0 -7.648,0 0,-6.37333 0,-12.74667 0,-19.12 -2.595,0 -5.19,0 -7.785,0 6.7e-4,-2.04833 -0.001,-4.09933 10e-4,-6.146 z"
         id="path3036"
         style="fill:#7d4698" />
    </g>
    <path
       d="m 183.8767,96.859657 9.89562,4.105333 c 0,2.51627 -0.20455,10.19098 1.36889,12.45489 16.45763,21.19557 13.68875,63.6825 -3.33385,64.77239 -25.922,0 -35.80807,-17.6096 -35.80807,-33.79468 0,-14.75931 17.69373,-24.57081 28.26048,-33.2918 2.68329,-2.34803 2.21732,-7.5373 -0.38307,-14.246133 z"
       id="path2534"
       style="fill:#fffcdb" />
    <path
       d="m 193.77529,100.81731 3.56627,1.81924 c -0.33526,2.34742 0.16763,7.54759 2.51505,8.88862 10.39911,6.45708 20.21,13.50117 24.06791,20.54526 13.75292,24.82256 -9.64387,47.79936 -29.85387,45.61896 10.98551,-8.1346 14.1723,-24.82195 10.06325,-43.01979 -1.6769,-7.12821 -4.27729,-13.58529 -8.88985,-20.88113 -1.99816,-3.58128 -1.30052,-8.02274 -1.46876,-12.97116 z"
       id="path2536"
       style="fill:url(#linearGradient3876)" />
    <g
       id="g4942">
      <path
         d="m 197.76094,74.040206 -3.01916,11.991285 c 4.27668,-8.46924 11.06902,-14.842201 18.86836,-20.461139 -5.70245,6.62471 -10.90139,13.250035 -14.08818,19.874746 5.36719,-7.54759 12.57891,-11.740149 20.71289,-14.507558 -10.81788,9.64387 -19.40457,19.992194 -25.94578,30.3907 l -5.19894,-2.263909 c 0.92165,-8.302226 4.05826,-16.805406 8.67081,-25.024125 z"
         id="path2554"
         style="fill:#abcd03" />
      <path
         d="m 213.625,65.562491 c -3.8783,4.139732 -10.59035,11.403096 -14.1875,17.75 -3.0686,5.414324 -5.17334,10.229691 -6.34375,13.46875 -0.74869,2.071977 -3.78242,2.05123 -2.90625,-1.375 0.009,-0.03382 0.0218,-0.05927 0.0312,-0.09375 1.16794,-2.75933 2.93857,-6.610655 4.71875,-10 l 2.8125,-11.28125 c -1.38689,4.761536 -3.37234,9.099106 -4.59375,14.03125 0.002,0 -2.14655,4.93454 -2.71875,6.1875 -0.19435,0.425577 -0.3569,0.83615 -0.5,1.21875 -0.009,0.02435 -0.0223,0.03842 -0.0312,0.0625 -0.24256,0.541551 -0.40681,1.133389 -0.53125,1.65625 -0.0203,0.08536 -0.0136,0.137377 -0.0312,0.21875 -0.16096,0.741401 -0.25,1.3125 -0.25,1.3125 0.87344,0.754335 5.1875,2.624999 5.1875,2.624999 6.5412,-10.39851 15.15087,-20.76238 25.96875,-30.406249 -8.13398,2.767408 -15.35156,6.95241 -20.71875,14.5 3.18679,-6.62471 8.3913,-13.25029 14.09375,-19.875 z"
         id="path4724"
         style="fill:#437202" />
      <path
         d="m 193.34005,100.63542 0.94121,0.70833 c 6.5412,-10.398512 15.15087,-20.762386 25.96875,-30.406255 -6.20491,5.075957 -14.5371,12.068569 -18.0625,16.687498 -4.45925,5.842443 -1.83462,0.354218 -1.83462,0.354218 0,0 2.36194,-6.109707 6.52082,-9.94312 -2.41648,1.153989 -6.60439,6.363511 -7.34245,7.401405 0,0 -3.14533,6.10431 -4.8986,11.625422 -0.47038,1.481254 -1.29261,3.572502 -1.29261,3.572502 z"
         id="path4720"
         style="fill:#153902" />
    </g>
    <path
       d="m 190.9375,99.781241 0,78.406249 c 0.29415,0.005 0.57661,0 0.875,0 17.0226,-1.08989 19.80138,-43.58568 3.34375,-64.78125 -1.57344,-2.26391 -1.375,-9.92123 -1.375,-12.4375 l -2.84375,-1.187499 z"
       id="path4748"
       style="fill:#f3ecaa" />
    <g
       transform="matrix(0.6140245,0,0,0.6140245,35.343477,26.159943)"
       id="layer4"
       style="display:inline">
      <path
         d="m 255.226,120.58877 12.018,1.639 c -3.551,11.745 6.966,19.939 10.38,21.852 7.64801,4.234 15.02301,8.604 20.89601,13.93 11.063,10.106 17.345,24.31 17.345,39.333 0,14.886 -6.829,29.226 -18.301,38.786 -10.789,9.014 -25.67501,12.838 -40.15201,12.838 -9.014,0 -17.072,-0.409 -25.812,-3.278 -19.939,-6.692 -34.826,-23.763 -36.055,-44.25 -1.093,-15.979 2.458,-28.134 14.887,-40.835 6.418,-6.692 19.393,-14.34 28.271,-20.486 4.371,-3.005 9.014,-11.473 0.136,-27.451 l 1.776,-1.366 13.15659,8.81203 -11.10759,-4.57803 c 0.956,1.366 3.551,7.512 4.098,9.287 1.229,5.053 0.683,9.971 -0.41,12.155 -5.599,10.107 -15.159,12.838 -22.124,18.574 -12.292,10.106 -25.676,18.164 -24.174,45.888 0.683,13.657 11.336,30.319 27.314,38.104 9.014,4.371 19.394,6.146 29.91,6.692 9.423,0.41 27.45101,-5.19 37.28401,-13.384 10.516,-8.74 16.389,-21.988 16.389,-35.508 0,-13.658 -5.463,-26.632 -15.706,-35.783 -5.873,-5.326 -15.56901,-11.745 -21.57801,-15.16 -6.009,-3.414 -13.521,-12.974 -11.063,-22.124 z"
         id="path2538" />
      <path
         d="m 251.539,140.80177 c -1.229,6.283 -2.595,17.618 -8.058,21.852 -2.322,1.638 -4.644,3.278 -7.102,4.916 -9.833,6.693 -19.667,12.974 -24.173,29.09 -0.956,3.415 -0.136,7.102 0.684,10.516 2.458,9.833 9.423,20.486 14.886,26.769 0,0.273 1.093,0.956 1.093,1.229 4.507,5.327 5.873,6.829 22.944,10.652 l -0.41,1.913 c -10.243,-2.731 -18.71,-5.189 -24.037,-11.336 0,-0.136 -0.956,-1.093 -0.956,-1.093 -5.736,-6.556 -12.702,-17.481 -15.296,-27.724 -0.956,-4.098 -1.775,-7.238 -0.683,-11.473 4.643,-16.661 14.75,-23.217 24.993,-30.182 2.322,-1.502 5.053,-2.869 7.238,-4.644 4.233,-3.14 6.554,-12.701 8.877,-20.485 z"
         id="path2540" />
      <path
         d="m 255.90625,166.74951 c 0.137,7.102 -0.55625,10.66475 1.21875,15.71875 1.092,3.004 4.782,7.1015 5.875,11.0625 1.502,5.327 3.138,11.19901 3,14.75001 0,4.09799 -0.25625,11.74249 -2.03125,19.93749 -1.35362,6.77108 -4.47323,12.58153 -9.71875,15.875 -5.37327,-1.10644 -11.68224,-2.99521 -15.40625,-6.1875 -7.238,-6.282 -13.64875,-16.7865 -14.46875,-25.9375 -0.682,-7.51099 6.27275,-18.5885 15.96875,-24.1875 8.194,-4.78 10.1,-10.22775 11.875,-18.96875 -2.458,7.648 -4.7665,14.05925 -12.6875,18.15625 -11.472,6.009 -17.3585,16.09626 -16.8125,25.65625 0.819,12.291 5.7415,20.6195 15.4375,27.3125 4.097,2.868 11.75125,5.89875 16.53125,6.71875 l 0,-0.625 c 3.62493,-0.67888 8.31818,-6.63267 10.65625,-14.6875 2.049,-7.238 2.85675,-16.502 2.71875,-22.37499 -0.137,-3.414 -1.643,-10.80801 -4.375,-17.50001 -1.502,-3.687 -3.8095,-7.37375 -5.3125,-9.96875 -1.637,-2.597 -1.64875,-8.195 -2.46875,-14.75 z"
         id="path2542" />
      <path
         d="m 255.09375,193.53076 c 0.136,4.78 2.056,10.90451 2.875,17.18751 0.684,4.64399 0.387,9.30824 0.25,13.40624 -0.13495,4.74323 -1.7152,13.24218 -3.875,17.375 -2.03673,-0.93403 -2.83294,-1.99922 -4.15625,-3.71875 -1.638,-2.322 -2.75075,-4.644 -3.84375,-7.375 -0.819,-2.049 -1.7765,-4.394 -2.1875,-7.125 -0.546,-4.097 -0.393,-10.5065 4.25,-17.06249 3.551,-5.19001 4.36475,-5.58476 5.59375,-11.59376 -1.64,5.326 -2.8625,5.869 -6.6875,10.37501 -4.233,4.917 -4.9375,12.15924 -4.9375,18.03124 0,2.459 0.9805,5.18725 1.9375,7.78125 1.092,2.732 2.02925,5.452 3.53125,7.5 2.25796,3.32082 5.14798,5.20922 6.5625,5.5625 0.009,0.002 0.022,-0.002 0.0312,0 0.0303,0.007 0.0649,0.0255 0.0937,0.0312 l 0,-0.15625 c 2.64982,-2.95437 4.24444,-5.88934 4.78125,-8.84375 0.683,-3.551 0.84,-7.10975 1.25,-11.34375 0.409,-3.551 0.11225,-8.334 -0.84375,-13.24999 -1.365,-6.146 -3.669,-12.41226 -4.625,-16.78126 z"
         id="path2544" />
      <path
         d="m 255.499,135.06577 c 0.137,7.101 0.683,20.35 2.595,25.539 0.546,1.775 5.599,9.56 9.149,18.983 2.459,6.556 3.005,12.565 3.415,14.34 1.639,7.785 -0.41,20.896 -3.142,33.324 -1.365,6.692 -6.009,15.023 -11.335,18.301 l -1.092,1.912 c 3.005,-0.137 10.379,-7.375 12.974,-16.389 4.371,-15.296 6.146,-22.398 4.098,-39.333 -0.273,-1.64 -0.956,-7.238 -3.551,-13.248 -3.824,-9.151 -9.287,-17.891 -9.969,-19.667 -1.23,-2.867 -2.869,-15.295 -3.142,-23.762 z"
         id="path2550" />
      <path
         d="m 258.06151,125.35303 c -0.40515,7.29812 -0.51351,9.98574 0.85149,15.31174 1.502,5.873 9.151,14.34 12.292,24.037 6.009,18.574 4.507,42.884 0.136,61.867 -1.638,6.691 -9.424,16.389 -17.208,19.529 l 5.736,1.366 c 3.141,-0.137 11.198,-7.648 14.34,-16.252 5.052,-13.521 6.009,-29.636 3.96,-46.571 -0.137,-1.639 -2.869,-16.252 -5.463,-22.398 -3.688,-9.15 -10.244,-17.345 -10.926,-19.119 -1.228,-3.005 -3.92651,-9.24362 -3.71849,-17.77074 z"
         id="path2552" />
      <path
         d="m 253.71959,120.21687 c 0.0596,-0.006 0.11897,3.26521 0.16759,9.56217 0.0486,6.29696 0.0862,15.61453 0.10736,27.25144 0.0212,11.6369 0.0259,25.58407 0.0163,40.79811 -0.01,15.21403 -0.0332,31.68333 -0.063,48.17895 0.0313,0 0.0626,0 0.094,0 0,-15.52743 0.005,-31.04508 0.0154,-45.52599 0.0101,-14.48092 0.0252,-27.91654 0.0441,-39.41367 0.0189,-11.49713 0.0417,-21.04872 0.0668,-28.0132 0.0251,-6.96448 0.0526,-11.33724 0.0806,-12.81648 -0.34673,0.007 -0.53049,-0.007 -0.52906,-0.0213 -0.001,-0.0142 0.18228,-0.0285 0.57174,-0.0213 0.028,1.42429 0.0554,5.74972 0.0806,12.6966 0.0251,6.94688 0.0479,16.51125 0.0668,28.05675 0.0189,11.5455 0.034,25.06498 0.0441,39.64964 0.0101,14.58467 0.0154,30.22517 0.0154,45.86549 -0.33562,0 -0.67125,0 -1.00687,0 -0.0298,-16.55575 -0.0534,-33.09645 -0.063,-48.37561 -0.01,-15.27917 -0.005,-29.28466 0.0163,-40.96371 0.0212,-11.67905 0.0587,-21.02256 0.10736,-27.33241 0.0486,-6.30986 0.10801,-9.58139 0.16759,-9.5754 z"
         id="rect2556" />
    </g>
    <path
       d="m 96.710928,76.555864 h 67.338842 c 2.51504,0 4.69544,2.09628 4.69544,4.69606 v 19.874126 c 0,2.59978 -2.1804,4.69668 -4.69544,4.69668 h -13.83643 c -3.10328,0 -4.44492,1.7604 -4.44492,3.77318 v 65.07432 c 0,2.1804 -1.76103,3.8573 -3.85731,3.8573 h -22.89329 c -2.09689,0 -3.77379,-1.6769 -3.77379,-3.8573 v -65.66072 c 0,-2.01277 -1.84514,-3.18617 -3.2703,-3.18617 H 96.710928 c -2.59978,0 -4.69606,-2.09689 -4.69606,-4.69667 V 81.251924 c -6.14e-4,-2.59978 2.095666,-4.69606 4.69606,-4.69606 z"
       id="path2528"
       style="fill:#7d4698" />
    <path
       d="m 269.47524,102.88769 0.0835,0 5.87008,0 c 2.1804,0 3.94142,1.76102 3.94142,3.8573 l 0,21.30051 c 0,2.76741 0.16763,3.8573 -3.18679,3.8573 -6.62471,0 -9.64325,3.52205 -9.64325,7.37935 l 0,35.97509 c 0,1.67751 -1.59339,3.10266 -3.52204,3.10266 l -21.38464,0 c -1.92865,0 -3.52204,-1.42515 -3.52204,-3.10266 l 0,-41.00702 c -0.0232,-0.72112 -0.009,-1.78565 0.0841,-2.34742 1.17402,-15.17868 13.08335,-27.32277 28.17636,-28.84748 0.50595,-0.0511 2.2961,-0.16763 3.10328,-0.16763 z"
       id="path2532"
       style="fill:#7d4698" />
    <g
       transform="matrix(1.1068335,0,0,1.1068335,-144.70963,-43.125949)"
       id="layer7"
       style="fill:#ffffff">
      <path
         d="m 405.999,129.09724 0.0312,0 c 0.29816,1e-5 0.56491,-0.003 0.78125,0.0312 0.21024,0.0277 0.37403,0.10689 0.5,0.1875 0.12813,0.0739 0.21506,0.16487 0.28125,0.3125 0.0586,0.1308 0.11844,0.32702 0.125,0.5625 a 0.15001501,0.15001501 0 0 0 0,0.0312 0.15001501,0.15001501 0 0 0 0,0.0312 0.15001501,0.15001501 0 0 0 0,0.0312 c -0.007,0.49813 -0.14426,0.82695 -0.375,1 -0.24457,0.18343 -0.67856,0.28126 -1.28125,0.28125 l -0.0625,0 0,-2.46875 z m 0.625,-2.4375 c 1.95831,-0.0375 3.90891,1.14013 4.72606,2.92277 0.94546,1.84767 0.68553,4.27571 -0.7474,5.80757 -0.14352,0.16632 -0.0421,-0.31577 -0.0724,-0.44909 -0.0236,-0.19491 -0.28474,-0.17507 -0.44391,-0.22712 -0.20534,0.002 -0.32408,-0.1269 -0.4168,-0.29538 -0.5256,-0.73209 -1.05119,-1.46417 -1.57679,-2.19625 0.63268,-0.20484 1.2203,-0.63169 1.43849,-1.28394 0.35818,-0.91764 -0.0675,-2.06192 -0.97661,-2.47397 -0.93872,-0.47062 -2.01455,-0.30384 -3.02795,-0.33584 -0.68878,0.007 -1.38765,-0.0136 -2.07052,0.01 -0.15496,0.15266 -0.0527,0.41114 -0.0822,0.61548 0.0393,0.0813 0.0741,0.16179 0.18374,0.16506 0.18875,0.0283 0.37751,0.0566 0.56626,0.0849 0,1.89583 0,3.79167 0,5.6875 -0.21596,0.0683 -0.49754,0.0175 -0.65625,0.1875 0.008,0.22065 -0.0158,0.45329 0.01,0.66784 0.11881,0.11314 0.321,0.0203 0.47342,0.0509 0.94316,-1e-5 1.88655,2e-5 2.82956,0 0.13479,-0.11252 0.0289,-0.32638 0.0625,-0.48139 0.006,-0.12094 0.0317,-0.30654 -0.125,-0.33111 -0.23958,-0.0312 -0.47917,-0.0625 -0.71875,-0.0937 0,-0.71875 0,-1.4375 0,-2.15625 0.21876,-0.0694 0.30382,0.1124 0.40128,0.27094 0.60582,0.89927 1.21165,1.79854 1.81747,2.69781 -0.003,0.0913 0.13491,0.11386 0.17842,0.10486 0.66945,-0.0261 1.36222,-0.004 2.04033,-0.0111 -0.54665,0.64521 -1.32529,1.06905 -2.1123,1.35732 -1.71663,0.58639 -3.72578,0.20423 -5.08354,-1.00715 -1.4728,-1.29497 -2.10049,-3.43589 -1.61476,-5.32965 0.52153,-2.16588 2.54701,-3.91152 4.79875,-3.95358 0.0664,-0.003 0.13288,-0.004 0.19935,-0.004 z m 0.0312,-1.0625 c -1.85848,-0.0313 -3.69181,0.86988 -4.86917,2.29428 -1.29016,1.56522 -1.76877,3.74905 -1.22655,5.70564 0.56643,2.1547 2.35377,3.91987 4.51526,4.45959 2.2617,0.59006 4.83625,-0.14858 6.36032,-1.94335 0.99171,-1.09626 1.55992,-2.56656 1.53264,-4.04741 0.0254,-0.54978 -0.0361,-1.16051 -0.1622,-1.71881 -0.62765,-2.75866 -3.34248,-4.79666 -6.1503,-4.74994 z"
         id="text4064"
         style="font-size:18.31413078px;fill:#ffffff;font-family:Liberation Serif;-inkscape-font-specification:Sans" />
    </g>
  </g>
</svg>