<?xml version="1.0" encoding="UTF-8" standalone="no"?>
<!-- Created with Inkscape (http://www.inkscape.org/) -->

<svg
   version="1.1"
   id="svg1"
   width="150.97734"
   height="150.93201"
   viewBox="0 0 150.97734 150.93201"
   xmlns="http://www.w3.org/2000/svg"
   xmlns:svg="http://www.w3.org/2000/svg">
  <defs
     id="defs1">
    <clipPath
       clipPathUnits="userSpaceOnUse"
       id="clipPath2">
      <path
         d="M 0,792 H 612 V 0 H 0 Z"
         transform="translate(-212.81221,-464.26121)"
         id="path2" />
    </clipPath>
    <clipPath
       clipPathUnits="userSpaceOnUse"
       id="clipPath4">
      <path
         d="M 0,792 H 612 V 0 H 0 Z"
         transform="translate(-188.5764,-535.05742)"
         id="path4" />
    </clipPath>
    <clipPath
       clipPathUnits="userSpaceOnUse"
       id="clipPath6">
      <path
         d="M 0,792 H 612 V 0 H 0 Z"
         transform="translate(-177.68811,-515.51501)"
         id="path6" />
    </clipPath>
    <clipPath
       clipPathUnits="userSpaceOnUse"
       id="clipPath8">
      <path
         d="M 0,792 H 612 V 0 H 0 Z"
         transform="translate(-198.32211,-537.22051)"
         id="path8" />
    </clipPath>
    <clipPath
       clipPathUnits="userSpaceOnUse"
       id="clipPath10">
      <path
         d="M 0,792 H 612 V 0 H 0 Z"
         transform="translate(-199.59831,-517.15511)"
         id="path10" />
    </clipPath>
    <clipPath
       clipPathUnits="userSpaceOnUse"
       id="clipPath12">
      <path
         d="M 0,792 H 612 V 0 H 0 Z"
         transform="translate(-170.2225,-515.88251)"
         id="path12" />
    </clipPath>
    <clipPath
       clipPathUnits="userSpaceOnUse"
       id="clipPath14">
      <path
         d="M 0,792 H 612 V 0 H 0 Z"
         transform="translate(-157.4106,-513.84751)"
         id="path14" />
    </clipPath>
    <clipPath
       clipPathUnits="userSpaceOnUse"
       id="clipPath16">
      <path
         d="M 0,792 H 612 V 0 H 0 Z"
         transform="translate(-179.5933,-500.92582)"
         id="path16" />
    </clipPath>
    <clipPath
       clipPathUnits="userSpaceOnUse"
       id="clipPath18">
      <path
         d="M 0,792 H 612 V 0 H 0 Z"
         transform="translate(-181.60461,-502.90241)"
         id="path18" />
    </clipPath>
    <clipPath
       clipPathUnits="userSpaceOnUse"
       id="clipPath20">
      <path
         d="M 0,792 H 612 V 0 H 0 Z"
         transform="translate(-156.7762,-535.05742)"
         id="path20" />
    </clipPath>
    <clipPath
       clipPathUnits="userSpaceOnUse"
       id="clipPath22">
      <path
         d="M 0,792 H 612 V 0 H 0 Z"
         transform="translate(-142.98051,-515.88251)"
         id="path22" />
    </clipPath>
    <clipPath
       clipPathUnits="userSpaceOnUse"
       id="clipPath24">
      <path
         d="M 0,792 H 612 V 0 H 0 Z"
         transform="translate(-157.1601,-533.04611)"
         id="path24" />
    </clipPath>
    <clipPath
       clipPathUnits="userSpaceOnUse"
       id="clipPath26">
      <path
         d="M 0,792 H 612 V 0 H 0 Z"
         transform="translate(-195.1278,-562.04891)"
         id="path26" />
    </clipPath>
    <clipPath
       clipPathUnits="userSpaceOnUse"
       id="clipPath28">
      <path
         d="M 0,792 H 612 V 0 H 0 Z"
         transform="translate(-184.72581,-551.64691)"
         id="path28" />
    </clipPath>
    <clipPath
       clipPathUnits="userSpaceOnUse"
       id="clipPath30">
      <path
         d="M 0,792 H 612 V 0 H 0 Z"
         transform="translate(-177.30231,-544.22341)"
         id="path30" />
    </clipPath>
    <clipPath
       clipPathUnits="userSpaceOnUse"
       id="clipPath32">
      <path
         d="M 0,792 H 612 V 0 H 0 Z"
         transform="translate(-198.32391,-531.59801)"
         id="path32" />
    </clipPath>
    <clipPath
       clipPathUnits="userSpaceOnUse"
       id="clipPath34">
      <path
         d="M 0,792 H 612 V 0 H 0 Z"
         transform="translate(-198.32391,-508.91062)"
         id="path34" />
    </clipPath>
    <clipPath
       clipPathUnits="userSpaceOnUse"
       id="clipPath36">
      <path
         d="M 0,792 H 612 V 0 H 0 Z"
         transform="translate(-165.82701,-515.88251)"
         id="path36" />
    </clipPath>
    <clipPath
       clipPathUnits="userSpaceOnUse"
       id="clipPath38">
      <path
         d="M 0,792 H 612 V 0 H 0 Z"
         transform="translate(-181.60461,-526.94641)"
         id="path38" />
    </clipPath>
  </defs>
  <g
     id="layer-MC0"
     transform="translate(-155.51894,-286.05307)">
    <g
       id="g83">
      <path
         id="path1"
         d="m 0,0 h -79.113 c -9.422,0 -17.06,7.638 -17.06,17.06 v 79.079 c 0,9.422 7.638,17.06 17.06,17.06 H 0 c 9.422,0 17.06,-7.638 17.06,-17.06 V 17.06 C 17.06,7.638 9.422,0 0,0"
         style="fill:#50ade5;fill-opacity:1;fill-rule:nonzero;stroke:none"
         transform="matrix(1.3333333,0,0,-1.3333333,283.7496,436.98507)"
         clip-path="url(#clipPath2)" />
      <path
         id="path3"
         d="M 0,0 2.041,3.682 5.933,1.344 7.213,3.675 7.636,3.425 V 8.093 L 5.699,9.246 c 0,0 -0.685,-1.248 -1.28,-2.32 L 0.547,9.248 -1.465,5.619 -4.589,0 Z"
         style="fill:#ffffff;fill-opacity:1;fill-rule:nonzero;stroke:none"
         transform="matrix(1.3333333,0,0,-1.3333333,251.4352,342.59013)"
         clip-path="url(#clipPath4)" />
      <path
         id="path5"
         d="m 0,0 c 0,-0.318 0.403,-0.652 1.21,-1 1.033,-0.472 1.809,-0.707 2.33,-0.706 0.133,0 0.216,0.024 0.25,0.077 0.132,0.15 0.086,0.567 -0.148,1.251 C 3.138,1.044 2.376,1.755 1.359,1.753 1.042,1.753 0.73,1.547 0.444,1.132 0.185,0.808 0.03,0.414 0,0"
         style="fill:#ffffff;fill-opacity:1;fill-rule:nonzero;stroke:none"
         transform="matrix(1.3333333,0,0,-1.3333333,236.91747,368.64667)"
         clip-path="url(#clipPath6)" />
      <path
         id="path7"
         d="M 0,0 2.306,-1.373 1.88,-2.169 H 6.429 L 7.65,0.11 0,4.668 Z"
         style="fill:#ffffff;fill-opacity:1;fill-rule:nonzero;stroke:none"
         transform="matrix(1.3333333,0,0,-1.3333333,264.42947,339.706)"
         clip-path="url(#clipPath8)" />
      <path
         id="path9"
         d="m 0,0 c -0.151,0.772 -0.569,1.817 -1.252,3.136 -0.789,1.523 -1.46,2.285 -2.012,2.285 -0.25,0 -0.671,-0.334 -1.254,-1.005 -0.4,-0.418 -0.763,-0.871 -1.083,-1.353 z"
         style="fill:#ffffff;fill-opacity:1;fill-rule:nonzero;stroke:none"
         transform="matrix(1.3333333,0,0,-1.3333333,266.13107,366.45987)"
         clip-path="url(#clipPath10)" />
      <path
         id="path11"
         d="m 0,0 c 0.221,1.753 0.973,3.695 2.275,5.886 2.011,3.474 4.402,5.302 7.096,5.405 V 7.268 C 8.177,7.122 6.971,5.99 5.752,3.873 4.861,2.375 4.301,1.084 4.072,0 Z"
         style="fill:#ffffff;fill-opacity:1;fill-rule:nonzero;stroke:none"
         transform="matrix(1.3333333,0,0,-1.3333333,226.96333,368.15667)"
         clip-path="url(#clipPath12)" />
      <path
         id="path13"
         d="m 0,0 h -4.01 v -2.819 c -0.358,-0.418 -0.774,-0.783 -1.236,-1.083 -0.777,-0.536 -1.444,-0.819 -1.914,-0.819 -1.975,-0.012 -3.586,1.579 -3.599,3.554 0,0 0,0 0,0 v 0.042 c 0.004,0.378 0.03,0.754 0.077,1.129 h -4.022 c -0.039,-0.414 -0.057,-0.792 -0.057,-1.129 -0.008,-4.19 3.383,-7.594 7.573,-7.602 v 0 h 0.035 c 1.322,0 2.704,0.501 4.16,1.505 1.433,0.969 2.433,2.057 3,3.263 z"
         style="fill:#ffffff;fill-opacity:1;fill-rule:nonzero;stroke:none"
         transform="matrix(1.3333333,0,0,-1.3333333,209.8808,370.87)"
         clip-path="url(#clipPath14)" />
      <path
         id="path15"
         d="m 0,0 c -2.026,-1.638 -4.558,-2.522 -7.164,-2.499 -2.845,0 -5.088,0.813 -6.747,2.433 -1.341,1.318 -2.152,2.99 -2.433,5.017 1.389,-1.375 2.701,-2.289 3.936,-2.742 1.12,-0.45 2.652,-0.676 4.595,-0.677 1.889,0 3.706,0.599 5.451,1.798 1.744,1.198 2.936,2.689 3.576,4.472 -1.683,0.006 -3.31,0.61 -4.589,1.704 -1.114,0.95 -1.776,2.088 -1.986,3.416 h -4.041 c 0.234,-2.527 1.404,-4.754 3.423,-6.468 0.15,-0.126 0.314,-0.215 0.466,-0.334 -0.711,-0.373 -1.501,-0.571 -2.304,-0.58 -1.857,0 -2.742,0.243 -3.108,0.388 l -0.055,0.022 -0.055,0.02 c -0.387,0.142 -1.228,0.57 -2.499,1.828 l -0.26,0.256 c 0,0.172 0.019,0.342 0.019,0.516 v 4.352 h -4.001 V 8.568 c 0,-2.143 -1.447,-4.225 -4.341,-6.248 -2.539,-1.79 -5.264,-2.686 -8.175,-2.686 -2.803,0 -5.084,0.902 -6.842,2.705 -1.758,1.802 -2.635,4.111 -2.633,6.926 0.03,1.246 0.254,2.48 0.666,3.657 h -4.176 c -0.318,-1.194 -0.486,-2.422 -0.5,-3.657 0,-3.877 1.269,-7.146 3.767,-9.717 2.498,-2.57 5.851,-3.918 9.718,-3.918 3.741,0 7.27,1.15 10.486,3.417 0.353,0.247 0.686,0.5 1.01,0.752 0.56,-1.002 1.261,-1.919 2.08,-2.723 2.441,-2.377 5.654,-3.585 9.561,-3.585 2.495,-0.02 4.956,0.577 7.164,1.737 z"
         style="fill:#ffffff;fill-opacity:1;fill-rule:nonzero;stroke:none"
         transform="matrix(1.3333333,0,0,-1.3333333,239.45773,388.09893)"
         clip-path="url(#clipPath16)" />
      <path
         id="path17"
         d="M 0,0 C 1.414,1.719 2.314,3.801 2.598,6.008 H 14.717 V 2.004 H 5.703 C 4.796,-0.454 3.299,-2.651 1.344,-4.396 0.918,-4.779 0.472,-5.141 0.009,-5.48 Z"
         style="fill:#ffffff;fill-opacity:1;fill-rule:nonzero;stroke:none"
         transform="matrix(1.3333333,0,0,-1.3333333,242.13947,385.46347)"
         clip-path="url(#clipPath18)" />
      <path
         id="path19"
         d="m 0,0 -0.249,1.318 4.5,4.571 0.446,-5.267 0.585,-0.618 h 5.524 C 10.044,0.81 8.925,1.989 8.575,2.36 L 7.511,14.911 1.395,8.694 -4.571,2.633 c 0,0 0.234,-1.245 0.495,-2.64 z"
         style="fill:#ffffff;fill-opacity:1;fill-rule:nonzero;stroke:none"
         transform="matrix(1.3333333,0,0,-1.3333333,209.03493,342.59013)"
         clip-path="url(#clipPath20)" />
      <path
         id="path21"
         d="M 0,0 C 0.307,1.68 0.475,2.704 0.506,3.063 -0.42,2.197 -1.166,1.156 -1.688,0 H -6.03 c 0.914,2.542 2.218,4.571 3.858,6.047 L 5.363,12.812 4.502,2.719 C 4.472,2.375 4.396,1.786 4.074,-0.004 Z"
         style="fill:#ffffff;fill-opacity:1;fill-rule:nonzero;stroke:none"
         transform="matrix(1.3333333,0,0,-1.3333333,190.64067,368.15667)"
         clip-path="url(#clipPath22)" />
      <path
         id="path23"
         d="m 0,0 0.251,-1.335 v -15.821 h -4.01 v 15.439 c -0.035,0.183 -0.163,0.867 -0.32,1.71 z"
         style="fill:#ffffff;fill-opacity:1;fill-rule:nonzero;stroke:none"
         transform="matrix(1.3333333,0,0,-1.3333333,209.5468,345.27187)"
         clip-path="url(#clipPath24)" />
      <path
         id="path25"
         d="M 0,0 C -9.842,9.846 -25.802,9.849 -35.648,0.007 -35.65,0.004 -35.652,0.002 -35.655,0 l 3.474,-3.474 c 7.91,7.926 20.746,7.941 28.674,0.033 l 0.033,-0.033 z"
         style="fill:#ffffff;fill-opacity:1;fill-rule:nonzero;stroke:none"
         transform="matrix(1.3333333,0,0,-1.3333333,260.1704,306.60147)"
         clip-path="url(#clipPath26)" />
      <path
         id="path27"
         d="M 0,0 3.465,3.474 C -2.533,9.489 -12.272,9.503 -18.287,3.505 -18.289,3.502 -18.291,3.5 -18.294,3.498 L -18.317,3.474 -14.854,0 c 4.089,4.1 10.727,4.109 14.827,0.02 z"
         style="fill:#ffffff;fill-opacity:1;fill-rule:nonzero;stroke:none"
         transform="matrix(1.3333333,0,0,-1.3333333,246.30107,320.4708)"
         clip-path="url(#clipPath28)" />
      <path
         id="path29"
         d="M 0,0 3.96,3.96 C 1.777,6.145 -1.765,6.146 -3.95,3.962 L -3.951,3.96 Z"
         style="fill:#ffffff;fill-opacity:1;fill-rule:nonzero;stroke:none"
         transform="matrix(1.3333333,0,0,-1.3333333,236.40307,330.3688)"
         clip-path="url(#clipPath30)" />
      <path
         id="path31"
         d="M 0,0 0.022,-0.013 0.801,1.45 H 5.35 L 3.82,-1.404 c 4,-4.721 4.549,-11.421 4.633,-13.896 l 0.018,-0.408 H 4.449 L 4.428,-15.3 c -0.109,1.753 -0.342,3.496 -0.696,5.216 C 2.946,-6.32 1.702,-4.23 0,-3.816 Z"
         style="fill:#ffffff;fill-opacity:1;fill-rule:nonzero;stroke:none"
         transform="matrix(1.3333333,0,0,-1.3333333,264.43187,347.20267)"
         clip-path="url(#clipPath32)" />
      <path
         id="path33"
         d="M 0,0 H 1.646 C 3.055,0 3.84,0.152 4.034,0.452 4.368,0.918 4.535,2.243 4.535,4.418 V 4.955 H 8.544 V 4.418 C 8.544,1.238 8.228,-0.457 7.402,-1.713 5.939,-4.002 3.043,-4.01 1.646,-4.01 H 0 Z"
         style="fill:#ffffff;fill-opacity:1;fill-rule:nonzero;stroke:none"
         transform="matrix(1.3333333,0,0,-1.3333333,264.43187,377.45253)"
         clip-path="url(#clipPath34)" />
      <path
         id="path35"
         d="m 0,0 v 13.022 c 0.305,0.649 1.296,2.765 1.94,4.134 h -4.43 l -1.52,-3.24 V 0 Z"
         style="fill:#ffffff;fill-opacity:1;fill-rule:nonzero;stroke:none"
         transform="matrix(1.3333333,0,0,-1.3333333,221.10267,368.15667)"
         clip-path="url(#clipPath36)" />
      <path
         id="path37"
         d="m 0,0 c 1.766,-0.477 3.927,-1.841 5.44,-5.388 0.477,1.594 1.344,3.271 2.616,5.057 0.397,0.571 0.824,1.12 1.28,1.646 L 1.541,6.1 h 7.667 l 2.377,-1.463 1.28,2.377 1.752,-1.072 V 0.545 c -1.056,-0.512 -2.141,-1.57 -3.255,-3.172 -1.56,-2.195 -2.339,-4.06 -2.335,-5.597 0,-1.654 0.861,-2.975 2.584,-3.963 l 1.883,-0.804 H 3.072 c -0.068,1.91 -0.452,3.795 -1.138,5.579 -0.538,1.422 -1.185,2.426 -1.939,3.011 z"
         style="fill:#ffffff;fill-opacity:1;fill-rule:nonzero;stroke:none"
         transform="matrix(1.3333333,0,0,-1.3333333,242.13947,353.4048)"
         clip-path="url(#clipPath38)" />
      <path
         id="path39"
         d="m 0.44387969,-3.4912078 c 0,1.125 0.28710937,2.0126953 0.86718751,2.66015624 0.5859375,0.65039062 1.3476562,0.97265625 2.2851562,0.97265625 0.4980469,0 0.8935547,-0.0703125 1.1835938,-0.2109375 0.2871094,-0.140625 0.5097656,-0.34277344 0.6679687,-0.609375 V 2.8369172 H 7.9673172 V -7.2177703 H 5.5415359 l -0.046875,0.75 H 5.4712234 C 5.3130203,-6.7314422 5.0786453,-6.9423797 4.7680984,-7.1005828 4.4546219,-7.2646453 4.0649734,-7.3466766 3.5962234,-7.3466766 c -0.9082031,0 -1.6611328,0.3251953 -2.2617187,0.9726563 -0.59472658,0.6416015 -0.89062501,1.5292969 -0.89062501,2.6601562 z m 2.57812501,0.1640625 v -0.5507813 c 0,-0.5390625 0.099609,-0.9404297 0.3046875,-1.2070312 0.2109375,-0.272461 0.5068359,-0.4101563 0.890625,-0.4101563 0.3105469,0 0.5683594,0.079102 0.7734375,0.234375 0.2109375,0.1582032 0.3574219,0.3486328 0.4453125,0.5742188 v 2.109375 c -0.087891,0.2666015 -0.2402344,0.477539 -0.4570313,0.6328125 -0.2109375,0.149414 -0.4658203,0.2226562 -0.7617187,0.2226562 -0.3837891,0 -0.6796875,-0.1289062 -0.890625,-0.3867187 -0.2050781,-0.2636719 -0.3046875,-0.6708985 -0.3046875,-1.21875 z m 7.6201173,1.2070312 c 0,0.7675782 0.237305,1.33300785 0.714844,1.69921879 0.474609,0.36914062 1.072265,0.55078125 1.792968,0.55078125 0.577149,0 1.069336,-0.10253907 1.476563,-0.3046875 0.404297,-0.20214844 0.670898,-0.42773438 0.796875,-0.6796875 0.01465,0.14941406 0.03809,0.3046875 0.07031,0.46875 0.03809,0.15820312 0.08203,0.28710937 0.128907,0.3867187475 h 2.496093 V -0.10448906 c -0.09375,-0.16992188 -0.172851,-0.38964844 -0.234375,-0.65625 C 17.828645,-1.0332 17.802278,-1.3115203 17.802278,-1.5927703 v -3.3398438 c 0,-0.8583984 -0.298828,-1.4882812 -0.890625,-1.8867187 -0.585937,-0.3984375 -1.391601,-0.5976563 -2.414062,-0.5976563 -1.016602,0 -1.857422,0.2109375 -2.519532,0.6328125 -0.665039,0.421875 -0.996093,0.9814453 -0.996093,1.6757813 v 0.1523437 h 2.496093 v -0.1523437 c 0,-0.2021485 0.06445,-0.366211 0.199219,-0.4921875 0.131836,-0.1230469 0.366211,-0.1875 0.703125,-0.1875 0.342774,0 0.577149,0.079102 0.703125,0.234375 0.123047,0.149414 0.1875,0.3486328 0.1875,0.5976562 v 0.3515625 h -1.230469 c -0.978515,0 -1.790039,0.2050782 -2.4375,0.609375 -0.641601,0.3984375 -0.960937,1.0253907 -0.960937,1.875 z m 2.542969,-0.2578125 c 0,-0.2636718 0.09668,-0.4599609 0.292968,-0.5859375 0.19336,-0.1318359 0.506836,-0.1992187 0.9375,-0.1992187 h 0.855469 v 0.4570312 c 0,0.375 -0.09961,0.6738282 -0.292969,0.890625 -0.196289,0.2197266 -0.486328,0.328125 -0.867187,0.328125 -0.328125,0 -0.568359,-0.082031 -0.714844,-0.2460937 -0.140625,-0.1699219 -0.210937,-0.3867188 -0.210937,-0.6445313 z m 7.646484,-0.5859375 c 0,1.1191407 0.237305,1.9160157 0.714844,2.39062504 0.483398,0.47753906 1.081054,0.71484375 1.792969,0.71484375 0.451171,0 0.858398,-0.07910157 1.21875,-0.234375 0.357421,-0.15527344 0.626953,-0.36914063 0.808593,-0.64453125 h 0.03516 l 0.04687,0.7382812475 h 2.4375 V -7.2060516 h -2.53125 v 4.6757813 c -0.08789,0.2109375 -0.231446,0.3984375 -0.433594,0.5625 -0.205078,0.1582031 -0.430664,0.234375 -0.679688,0.234375 -0.257812,0 -0.46875,-0.073242 -0.632812,-0.2226563 -0.164063,-0.1552734 -0.246094,-0.4570312 -0.246094,-0.9023437 v -4.3476563 h -2.53125 z M 30.880403,9.796875e-4 h 2.542969 V -10.416989 H 30.880403 Z M 36.399934,-1.2880828 c 0,0.39843749 0.131836,0.73828124 0.398438,1.01953124 0.263672,0.28125 0.644531,0.421875 1.136719,0.421875 0.506836,0 0.890625,-0.140625 1.148437,-0.421875 0.263672,-0.28125 0.398438,-0.62109375 0.398438,-1.01953124 0,-0.3984375 -0.134766,-0.7382813 -0.398438,-1.0195313 -0.257812,-0.28125 -0.641601,-0.421875 -1.148437,-0.421875 -0.492188,0 -0.873047,0.140625 -1.136719,0.421875 -0.266602,0.28125 -0.398438,0.6210938 -0.398438,1.0195313 z m 6.202149,1.2890624875 h 2.53125 V -4.6748016 c 0.09375,-0.2636718 0.246094,-0.4628906 0.457031,-0.5976562 0.216797,-0.131836 0.436524,-0.1992188 0.65625,-0.1992188 0.28125,0 0.495117,0.070312 0.644531,0.2109375 0.155274,0.1347657 0.234375,0.3837891 0.234375,0.75 V 9.796875e-4 h 2.53125 V -4.4169891 c 0,-1.1162109 -0.251953,-1.8867187 -0.75,-2.3085937 -0.492187,-0.421875 -1.113281,-0.6328125 -1.863281,-0.6328125 -0.430664,0 -0.829101,0.087891 -1.195312,0.2578125 -0.360352,0.1728515 -0.606446,0.383789 -0.738282,0.6328125 h -0.03516 l -0.03516,-0.7382813 h -2.4375 z M 52.229036,-3.5029266 c 0,1.1337891 0.354492,2.0361328 1.066406,2.70703129 0.708985,0.67382812 1.664063,1.0078125 2.859375,1.0078125 0.764649,0 1.441406,-0.140625 2.027344,-0.421875 0.591797,-0.28125 1.001953,-0.66796875 1.230469,-1.16015629 l -1.828125,-1.1367187 c -0.149414,0.234375 -0.351563,0.4453125 -0.609375,0.6328125 -0.251953,0.1875 -0.544922,0.28125 -0.878907,0.28125 -0.439453,0 -0.779296,-0.1435547 -1.019531,-0.4335938 -0.234375,-0.2871093 -0.351562,-0.7207031 -0.351562,-1.3007812 v -0.5742188 c 0,-0.6005859 0.108398,-1.0458984 0.328125,-1.3359375 0.216797,-0.2871093 0.521484,-0.4335937 0.914062,-0.4335937 0.357422,0 0.635742,0.1054687 0.832031,0.3164062 0.202149,0.2109375 0.298829,0.4775391 0.292969,0.796875 v 0.1640625 h -3.082031 v 1.4179688 h 5.578125 v -0.8554688 c 0,-1.1396484 -0.325195,-2.0214843 -0.972656,-2.6484375 -0.641602,-0.6240234 -1.508789,-0.9375 -2.601563,-0.9375 -1.086914,0 -1.989258,0.3369141 -2.707031,1.0078125 -0.720703,0.6650391 -1.078125,1.5644532 -1.078125,2.6953125 z m 9.073242,-1.8867187 h 4.652344 v -1.8164063 h -4.652344 z m 0.925781,3 c 0,0.890625 0.237305,1.54687499 0.714844,1.96874999 0.483399,0.41601562 1.113281,0.62109375 1.886719,0.62109375 0.225586,0 0.436523,-0.0234375 0.632812,-0.0703125 0.19336,-0.04101563 0.339844,-0.08789063 0.433594,-0.140625 V -1.7333953 c -0.0791,0.032226 -0.164062,0.058594 -0.257812,0.082031 -0.08789,0.023437 -0.175782,0.035156 -0.269532,0.035156 -0.18164,0 -0.328125,-0.052734 -0.445312,-0.1640625 -0.111328,-0.1171875 -0.164063,-0.3427735 -0.164063,-0.6796875 v -6.3867188 h -2.519531 v 2.3320313 l -0.01172,0.1875 z m 0,0"
         style="fill:#ffffff;fill-opacity:1;fill-rule:nonzero;stroke:none"
         aria-label="qaul.net"
         transform="matrix(1.3333333,0,0,1.3333333,185.78707,419.6276)" />
    </g>
  </g>
</svg>
