<?xml version="1.0" encoding="UTF-8" standalone="no"?>
<!-- Created with Inkscape (http://www.inkscape.org/) -->

<svg
   xmlns:dc="http://purl.org/dc/elements/1.1/"
   xmlns:cc="http://creativecommons.org/ns#"
   xmlns:rdf="http://www.w3.org/1999/02/22-rdf-syntax-ns#"
   xmlns:svg="http://www.w3.org/2000/svg"
   xmlns="http://www.w3.org/2000/svg"
   xmlns:sodipodi="http://sodipodi.sourceforge.net/DTD/sodipodi-0.dtd"
   xmlns:inkscape="http://www.inkscape.org/namespaces/inkscape"
   width="80mm"
   height="24mm"
   viewBox="0 0 283.46457 85.039369"
   id="svg2"
   version="1.1"
   inkscape:version="0.91 r13725"
   sodipodi:docname="employees_libc.svg">
  <defs
     id="defs4" />
  <sodipodi:namedview
     id="base"
     pagecolor="#ffffff"
     bordercolor="#666666"
     borderopacity="1.0"
     inkscape:pageopacity="1"
     inkscape:pageshadow="2"
     inkscape:zoom="2.8"
     inkscape:cx="153.88952"
     inkscape:cy="28.696532"
     inkscape:document-units="mm"
     inkscape:current-layer="text4320"
     showgrid="false"
     showguides="true"
     inkscape:guide-bbox="true"
     inkscape:snap-bbox="true"
     inkscape:bbox-paths="true"
     inkscape:bbox-nodes="true"
     inkscape:snap-bbox-edge-midpoints="true">
    <sodipodi:guide
       position="137.85715,70.866143"
       orientation="0,1"
       id="guide4328"
       inkscape:label=""
       inkscape:color="rgb(0,0,255)" />
    <sodipodi:guide
       position="185.00001,12.857143"
       orientation="0,1"
       id="guide4330" />
    <sodipodi:guide
       position="14.173229,40.000001"
       orientation="1,0"
       id="guide4332"
       inkscape:label=""
       inkscape:color="rgb(0,0,255)" />
    <sodipodi:guide
       position="269.29135,36.428572"
       orientation="1,0"
       id="guide4334"
       inkscape:label=""
       inkscape:color="rgb(0,0,255)" />
  </sodipodi:namedview>
  <metadata
     id="metadata7">
    <rdf:RDF>
      <cc:Work
         rdf:about="">
        <dc:format>image/svg+xml</dc:format>
        <dc:type
           rdf:resource="http://purl.org/dc/dcmitype/StillImage" />
        <dc:title></dc:title>
      </cc:Work>
    </rdf:RDF>
  </metadata>
  <g
     inkscape:label="icon"
     inkscape:groupmode="layer"
     id="layer1"
     transform="translate(0,-967.32283)"
     style="display:inline"
     sodipodi:insensitive="true">
    <g
       inkscape:groupmode="layer"
       id="layer2"
       inkscape:label="background"
       sodipodi:insensitive="true">
      <rect
         style="fill:#000000;fill-opacity:1;stroke:none;stroke-width:0.35433072;stroke-miterlimit:4;stroke-dasharray:none"
         id="rect3509"
         width="283.46457"
         height="85.039368"
         x="-7.0380892e-08"
         y="967.32281" />
    </g>
    <g
       id="g3434"
       transform="matrix(0.87406436,0,0,0.87406436,179.50756,948.71348)"
       style="opacity:1">
      <g
         transform="matrix(0.66365828,0,0,0.66365828,35.731269,37.506573)"
         id="g3447"
         style="fill:#ffffff">
        <path
           inkscape:connector-curvature="0"
           d="m 44.69,23.112 c -0.654,-2.628 -1.941,-4.649 -3.853,-5.989 -1.912,-1.341 -4.415,-1.992 -7.472,-1.992 l -7.268,0 c -0.189,-1.482 -1.364,-2.656 -2.844,-2.846 l 0,-6.845 7.238,0 c 1.502,0 2.721,-1.217 2.721,-2.721 0,-1.503 -1.219,-2.72 -2.721,-2.72 l -20.111,0 c -1.502,0 -2.72,1.218 -2.72,2.72 0,1.503 1.217,2.72 2.72,2.72 l 7.239,0 0,6.845 c -1.482,0.189 -2.656,1.363 -2.846,2.846 l -9.716,0 0,-6.281 C 5.057,7.875 4.268,7.086 3.294,7.086 l -2.872,0 C 0.311,7.086 0.202,7.131 0.124,7.21 0.045,7.288 0,7.397 0,7.508 l 0,22.983 c 0,0.111 0.045,0.22 0.124,0.299 0.079,0.078 0.188,0.123 0.298,0.123 l 2.872,0 C 4.268,30.911 5.057,30.125 5.057,29.15 l 0,-6.281 9.717,0 c 0.207,1.621 1.591,2.873 3.267,2.873 l 4.789,0 c 1.676,0 3.06,-1.253 3.267,-2.873 l 7.268,0 c 1.669,0.003 3.022,1.354 3.025,3.026 l 0,8.235 c 0,0.112 0.045,0.22 0.124,0.299 0.079,0.079 0.187,0.124 0.298,0.124 l 7.469,0 c 0.111,0 0.22,-0.044 0.298,-0.123 0.079,-0.079 0.124,-0.188 0.124,-0.299 l 0,0 0,-10.917 -0.013,-0.102 z"
           id="path3406"
           style="fill:#ffffff" />
        <path
           inkscape:connector-curvature="0"
           d="m 58.426,42.708 c -1.397,0 -2.53,1.133 -2.53,2.53 0,1.397 1.133,2.53 2.53,2.53 1.397,0 2.53,-1.133 2.53,-2.53 0,-1.397 -1.133,-2.53 -2.53,-2.53 z m 0,4.428 c -1.048,0 -1.898,-0.85 -1.898,-1.898 0,-1.048 0.851,-1.897 1.898,-1.897 1.047,0 1.897,0.85 1.897,1.897 0,1.048 -0.849,1.898 -1.897,1.898 z"
           id="path3408"
           style="fill:#ffffff" />
        <path
           inkscape:connector-curvature="0"
           d="m 45.679,42.634 c -2.576,0 -4.665,2.089 -4.665,4.665 0,2.576 2.089,4.665 4.665,4.665 2.576,0 4.665,-2.088 4.665,-4.665 0,-2.577 -2.089,-4.665 -4.665,-4.665 z m 0,8.164 c -1.933,0 -3.499,-1.567 -3.499,-3.499 0,-1.932 1.566,-3.499 3.499,-3.499 1.933,0 3.498,1.567 3.498,3.499 0,1.932 -1.566,3.499 -3.498,3.499 z"
           id="path3410"
           style="fill:#ffffff" />
        <path
           inkscape:connector-curvature="0"
           d="m 32.025,44.928 c -1.675,0 -3.033,1.358 -3.033,3.033 0,1.675 1.358,3.033 3.033,3.033 1.675,0 3.034,-1.358 3.034,-3.033 0,-1.675 -1.359,-3.033 -3.034,-3.033 z m 0,5.308 c -1.256,0 -2.275,-1.019 -2.275,-2.275 0,-1.256 1.019,-2.275 2.275,-2.275 1.257,0 2.275,1.019 2.275,2.275 0,1.256 -1.018,2.275 -2.275,2.275 z"
           id="path3412"
           style="fill:#ffffff" />
        <path
           inkscape:connector-curvature="0"
           d="m 24.882,51.476 c -0.575,0 -1.04,0.466 -1.04,1.04 0,0.574 0.465,1.04 1.04,1.04 0.574,0 1.04,-0.466 1.04,-1.04 0,-0.574 -0.466,-1.04 -1.04,-1.04 z m 0,1.82 c -0.431,0 -0.78,-0.35 -0.78,-0.78 0,-0.43 0.349,-0.78 0.78,-0.78 0.431,0 0.78,0.35 0.78,0.78 0,0.43 -0.349,0.78 -0.78,0.78 z"
           id="path3414"
           style="fill:#ffffff" />
        <path
           inkscape:connector-curvature="0"
           d="m 52.435,35.894 c -1.104,0 -2.001,0.896 -2.001,2.001 0,1.105 0.896,2.001 2.001,2.001 1.105,0 2.002,-0.896 2.002,-2.001 0,-1.105 -0.897,-2.001 -2.002,-2.001 z m 0,3.503 c -0.828,0 -1.501,-0.672 -1.501,-1.501 0,-0.829 0.673,-1.501 1.501,-1.501 0.83,0 1.502,0.672 1.502,1.501 0,0.829 -0.672,1.501 -1.502,1.501 z"
           id="path3416"
           style="fill:#ffffff" />
        <path
           inkscape:connector-curvature="0"
           d="m 27.324,66.159 c -0.381,0.185 -0.807,0.292 -1.258,0.292 -1.594,0 -2.886,-1.293 -2.886,-2.887 0,-1.594 1.292,-2.886 2.886,-2.886 1.148,0 2.137,0.672 2.602,1.643 0.26,-0.195 0.541,-0.355 0.838,-0.474 -0.631,-1.263 -1.933,-2.132 -3.44,-2.132 -2.125,0 -3.848,1.724 -3.848,3.849 0,2.126 1.723,3.849 3.848,3.849 0.58,0 1.127,-0.132 1.62,-0.361 -0.162,-0.283 -0.282,-0.583 -0.362,-0.893 z"
           id="path3418"
           style="fill:#ffffff" />
        <g
           id="g3420"
           style="fill:#ffffff">
          <path
             inkscape:connector-curvature="0"
             d="m 60.877,62.658 c -1.694,-1.694 -2.878,-1.098 -3.977,0 -1.098,1.099 -1.098,2.878 0,3.977 l 7.754,7.753 -0.796,0.795 -21.47,-21.471 c -1.098,-1.098 -2.878,-1.098 -3.976,0 -1.098,1.098 -1.098,2.878 0,3.977 L 53.72,72.996 52.925,73.791 35.231,56.098 C 34.133,55 32.352,55 31.254,56.098 c -1.098,1.099 -1.098,2.879 0,3.977 L 48.947,77.768 48.152,78.563 32.845,63.255 c -1.098,-1.098 -2.878,-1.098 -3.976,0 -1.098,1.099 -1.098,2.878 0,3.977 l 16.501,16.5 -0.795,0.796 -9.344,-9.344 c -1.098,-1.098 -2.878,-1.099 -3.976,0 -1.098,1.098 -1.098,2.878 0.597,4.572 l 16.5,16.501 c 5.179,5.175 15.498,5.175 21.869,-1.193 6.367,-6.37 6.367,-16.69 0,-23.062 l 0,0 -9.344,-9.344 z"
             id="path3422"
             style="fill:#ffffff" />
        </g>
        <g
           id="g3424"
           style="fill:#ffffff">
          <path
             inkscape:connector-curvature="0"
             d="m 72.889,50.016 0,0 -13.215,0 c -1.761,0 -2.448,0.682 -2.69,1.659 -0.017,0 -0.033,-0.003 -0.05,-0.003 -2.329,0 -4.218,1.889 -4.218,4.218 0,0.3 0.033,0.592 0.093,0.874 l -6.177,0 5.623,5.623 3.765,0 c 0.088,-0.112 0.182,-0.222 0.284,-0.324 0.608,-0.608 1.449,-1.307 2.563,-1.307 0.875,0 1.727,0.428 2.605,1.307 l 0.325,0.324 0.126,0 0,0.126 8.894,8.894 c 3.095,3.096 4.753,7.091 4.982,11.152 C 82.687,81.804 89.193,74.828 89.195,66.324 89.193,57.316 81.896,50.018 72.889,50.016 Z m -15.955,2.711 c 1.747,0 3.163,1.416 3.163,3.163 0,1.746 -1.416,3.163 -3.163,3.163 -1.747,0 -3.163,-1.417 -3.163,-3.163 0,-1.747 1.416,-3.163 3.163,-3.163 z M 68.408,63.07 c -0.839,0 -1.519,-0.68 -1.519,-1.519 0,-0.838 0.68,-1.518 1.519,-1.518 0.838,0 1.519,0.68 1.519,1.518 0,0.84 -0.681,1.519 -1.519,1.519 z m 2.231,-6.306 -9.58,0 c 0.06,-0.282 0.092,-0.574 0.092,-0.874 0,-0.085 -0.007,-0.167 -0.013,-0.251 l 9.501,0 0,1.125 z"
             id="path3426"
             style="fill:#ffffff" />
        </g>
      </g>
    </g>
  </g>
  <g
     inkscape:groupmode="layer"
     id="layer4"
     inkscape:label="Text"
     sodipodi:insensitive="true">
    <g
       style="font-style:normal;font-variant:normal;font-weight:500;font-stretch:normal;font-size:20px;line-height:100%;font-family:Roboto;-inkscape-font-specification:'Roboto Medium';letter-spacing:0.37px;word-spacing:0px;fill:#000000;fill-opacity:1;stroke:none;stroke-width:1px;stroke-linecap:butt;stroke-linejoin:miter;stroke-opacity:1"
       id="text4320">
      <path
         d="m 24.041572,22.263142 -5.839844,0 0,4.375 6.826172,0 0,1.972656 -9.296875,0 0,-14.21875 9.228515,0 0,1.992187 -6.757812,0 0,3.925782 5.839844,0 0,1.953125 z"
         style="font-style:normal;font-variant:normal;font-weight:500;font-stretch:normal;font-size:20px;line-height:100%;font-family:Roboto;-inkscape-font-specification:'Roboto Medium';letter-spacing:0.37px;fill:#ffffff"
         id="path4375"
         inkscape:connector-curvature="0" />
      <path
         d="m 29.431103,18.044392 0.06836,1.103515 q 1.113281,-1.298828 3.046875,-1.298828 2.119141,0 2.900391,1.621094 1.152344,-1.621094 3.242187,-1.621094 1.748047,0 2.597657,0.966797 0.859375,0.966797 0.878906,2.851563 l 0,6.943359 -2.373047,0 0,-6.875 q 0,-1.005859 -0.439453,-1.474609 -0.439453,-0.46875 -1.455078,-0.46875 -0.810547,0 -1.328125,0.439453 -0.507813,0.429687 -0.712891,1.132812 l 0.0098,7.246094 -2.373047,0 0,-6.953125 q -0.04883,-1.865234 -1.904297,-1.865234 -1.425781,0 -2.021484,1.162109 l 0,7.65625 -2.373047,0 0,-10.566406 2.236328,0 z"
         style="font-style:normal;font-variant:normal;font-weight:500;font-stretch:normal;font-size:20px;line-height:100%;font-family:Roboto;-inkscape-font-specification:'Roboto Medium';letter-spacing:0.37px;fill:#ffffff"
         id="path4377"
         inkscape:connector-curvature="0" />
      <path
         d="m 54.244462,23.435017 q 0,2.451172 -1.113281,3.916015 -1.113281,1.455078 -2.988281,1.455078 -1.738282,0 -2.783204,-1.142578 l 0,5.009766 -2.373046,0 0,-14.628906 2.1875,0 0.09766,1.074218 q 1.044922,-1.269531 2.841797,-1.269531 1.933593,0 3.027343,1.445313 1.103516,1.435547 1.103516,3.99414 l 0,0.146485 z m -2.363281,-0.205078 q 0,-1.582032 -0.634766,-2.509766 -0.625,-0.927734 -1.796875,-0.927734 -1.455078,0 -2.089844,1.201171 l 0,4.6875 q 0.644532,1.230469 2.109375,1.230469 1.132813,0 1.767579,-0.908203 0.644531,-0.917969 0.644531,-2.773437 z"
         style="font-style:normal;font-variant:normal;font-weight:500;font-stretch:normal;font-size:20px;line-height:100%;font-family:Roboto;-inkscape-font-specification:'Roboto Medium';letter-spacing:0.37px;fill:#ffffff"
         id="path4379"
         inkscape:connector-curvature="0" />
      <path
         d="m 59.135947,28.610798 -2.373047,0 0,-15 2.373047,0 0,15 z"
         style="font-style:normal;font-variant:normal;font-weight:500;font-stretch:normal;font-size:20px;line-height:100%;font-family:Roboto;-inkscape-font-specification:'Roboto Medium';letter-spacing:0.37px;fill:#ffffff"
         id="path4381"
         inkscape:connector-curvature="0" />
      <path
         d="m 61.654384,23.229939 q 0,-1.552735 0.615234,-2.792969 0.615234,-1.25 1.728516,-1.914063 1.113281,-0.673828 2.558593,-0.673828 2.138672,0 3.466797,1.376953 1.337891,1.376953 1.445313,3.652344 l 0.0098,0.556641 q 0,1.5625 -0.605468,2.792968 -0.595703,1.230469 -1.71875,1.904297 -1.113282,0.673828 -2.578125,0.673828 -2.236328,0 -3.583985,-1.484375 -1.33789,-1.49414 -1.33789,-3.974609 l 0,-0.117187 z m 2.373047,0.205078 q 0,1.630859 0.673828,2.558593 0.673828,0.917969 1.875,0.917969 1.201172,0 1.865234,-0.9375 0.673828,-0.9375 0.673828,-2.74414 0,-1.601563 -0.693359,-2.539063 -0.683594,-0.9375 -1.865235,-0.9375 -1.162109,0 -1.845703,0.927734 -0.683593,0.917969 -0.683593,2.753907 z"
         style="font-style:normal;font-variant:normal;font-weight:500;font-stretch:normal;font-size:20px;line-height:100%;font-family:Roboto;-inkscape-font-specification:'Roboto Medium';letter-spacing:0.37px;fill:#ffffff"
         id="path4383"
         inkscape:connector-curvature="0" />
      <path
         d="m 77.571258,25.21236 2.148437,-7.167968 2.529297,0 -4.199219,12.167968 q -0.966797,2.666016 -3.28125,2.666016 -0.517578,0 -1.142578,-0.175781 l 0,-1.835938 0.449219,0.0293 q 0.898437,0 1.347656,-0.332031 0.458984,-0.322266 0.722656,-1.09375 l 0.341797,-0.908203 -3.710937,-10.517578 2.558593,0 2.236329,7.167968 z"
         style="font-style:normal;font-variant:normal;font-weight:500;font-stretch:normal;font-size:20px;line-height:100%;font-family:Roboto;-inkscape-font-specification:'Roboto Medium';letter-spacing:0.37px;fill:#ffffff"
         id="path4385"
         inkscape:connector-curvature="0" />
      <path
         d="m 88.624854,28.80611 q -2.255859,0 -3.662109,-1.416015 -1.396485,-1.425781 -1.396485,-3.789063 l 0,-0.292968 q 0,-1.582032 0.605469,-2.822266 0.615234,-1.25 1.71875,-1.943359 1.103516,-0.69336 2.460938,-0.69336 2.158203,0 3.330078,1.376953 1.18164,1.376953 1.18164,3.896485 l 0,0.957031 -6.904297,0 q 0.107422,1.308594 0.869141,2.070312 0.771484,0.761719 1.933594,0.761719 1.630859,0 2.65625,-1.318359 l 1.279297,1.220703 q -0.634766,0.947266 -1.699219,1.474609 -1.054688,0.517578 -2.373047,0.517578 z m -0.283203,-9.052734 q -0.976563,0 -1.582031,0.683594 -0.595703,0.683594 -0.761719,1.904297 l 4.521484,0 0,-0.175782 Q 90.44126,20.974079 89.88462,20.36861 89.327979,19.753376 88.341651,19.753376 Z"
         style="font-style:normal;font-variant:normal;font-weight:500;font-stretch:normal;font-size:20px;line-height:100%;font-family:Roboto;-inkscape-font-specification:'Roboto Medium';letter-spacing:0.37px;fill:#ffffff"
         id="path4387"
         inkscape:connector-curvature="0" />
      <path
         d="m 99.737037,28.80611 q -2.25586,0 -3.66211,-1.416015 -1.396484,-1.425781 -1.396484,-3.789063 l 0,-0.292968 q 0,-1.582032 0.605469,-2.822266 0.615234,-1.25 1.71875,-1.943359 1.103515,-0.69336 2.460937,-0.69336 2.158201,0 3.330081,1.376953 1.18164,1.376953 1.18164,3.896485 l 0,0.957031 -6.904299,0 q 0.107422,1.308594 0.869141,2.070312 0.771484,0.761719 1.933593,0.761719 1.630855,0 2.656255,-1.318359 l 1.27929,1.220703 q -0.63476,0.947266 -1.69922,1.474609 -1.05468,0.517578 -2.373043,0.517578 z m -0.283203,-9.052734 q -0.976563,0 -1.582032,0.683594 -0.595703,0.683594 -0.761718,1.904297 l 4.521486,0 0,-0.175782 q -0.0781,-1.191406 -0.63477,-1.796875 -0.55664,-0.615234 -1.542966,-0.615234 z"
         style="font-style:normal;font-variant:normal;font-weight:500;font-stretch:normal;font-size:20px;line-height:100%;font-family:Roboto;-inkscape-font-specification:'Roboto Medium';letter-spacing:0.37px;fill:#ffffff"
         id="path4389"
         inkscape:connector-curvature="0" />
      <path
         d="m 112.11876,25.739704 q 0,-0.634765 -0.52735,-0.966797 -0.51757,-0.332031 -1.72851,-0.585937 -1.21094,-0.253906 -2.02149,-0.644531 -1.77734,-0.859375 -1.77734,-2.490235 0,-1.367187 1.15234,-2.285156 1.15235,-0.917969 2.92969,-0.917969 1.89453,0 3.05664,0.9375 1.17188,0.9375 1.17188,2.431641 l -2.37305,0 q 0,-0.683594 -0.50781,-1.132813 -0.50781,-0.458984 -1.34766,-0.458984 -0.78125,0 -1.27929,0.361328 -0.48829,0.361328 -0.48829,0.966797 0,0.546875 0.45899,0.849609 0.45898,0.302735 1.85547,0.615235 1.39648,0.302734 2.1875,0.732422 0.80078,0.419921 1.18164,1.015625 0.39062,0.595703 0.39062,1.445312 0,1.425781 -1.18164,2.314453 -1.18164,0.878906 -3.0957,0.878906 -1.29883,0 -2.31445,-0.46875 -1.01563,-0.46875 -1.58204,-1.289062 -0.5664,-0.820313 -0.5664,-1.767578 l 2.30469,0 q 0.0488,0.839844 0.63476,1.298828 0.58594,0.449219 1.55274,0.449219 0.9375,0 1.42578,-0.351563 0.48828,-0.361328 0.48828,-0.9375 z"
         style="font-style:normal;font-variant:normal;font-weight:500;font-stretch:normal;font-size:20px;line-height:100%;font-family:Roboto;-inkscape-font-specification:'Roboto Medium';letter-spacing:0.37px;fill:#ffffff"
         id="path4391"
         inkscape:connector-curvature="0" />
      <path
         d="m 124.47985,18.044392 0.0684,1.103515 q 1.11328,-1.298828 3.04687,-1.298828 2.11914,0 2.90039,1.621094 1.15235,-1.621094 3.24219,-1.621094 1.74805,0 2.59766,0.966797 0.85937,0.966797 0.8789,2.851563 l 0,6.943359 -2.37304,0 0,-6.875 q 0,-1.005859 -0.43946,-1.474609 -0.43945,-0.46875 -1.45507,-0.46875 -0.81055,0 -1.32813,0.439453 -0.50781,0.429687 -0.71289,1.132812 l 0.01,7.246094 -2.37305,0 0,-6.953125 q -0.0488,-1.865234 -1.9043,-1.865234 -1.42578,0 -2.02148,1.162109 l 0,7.65625 -2.37305,0 0,-10.566406 2.23633,0 z"
         style="font-style:normal;font-variant:normal;font-weight:500;font-stretch:normal;font-size:20px;line-height:100%;font-family:Roboto;-inkscape-font-specification:'Roboto Medium';letter-spacing:0.37px;fill:#ffffff"
         id="path4393"
         inkscape:connector-curvature="0" />
      <path
         d="m 146.44165,27.575642 q -1.04492,1.230468 -2.96875,1.230468 -1.71875,0 -2.60742,-1.005859 -0.87891,-1.005859 -0.87891,-2.910156 l 0,-6.845703 2.37305,0 0,6.816406 q 0,2.011719 1.66992,2.011719 1.72852,0 2.33398,-1.240235 l 0,-7.58789 2.37305,0 0,10.566406 -2.23633,0 -0.0586,-1.035156 z"
         style="font-style:normal;font-variant:normal;font-weight:500;font-stretch:normal;font-size:20px;line-height:100%;font-family:Roboto;-inkscape-font-specification:'Roboto Medium';letter-spacing:0.37px;fill:#ffffff"
         id="path4395"
         inkscape:connector-curvature="0" />
      <path
         d="m 157.46595,25.739704 q 0,-0.634765 -0.52734,-0.966797 -0.51758,-0.332031 -1.72852,-0.585937 -1.21094,-0.253906 -2.02148,-0.644531 -1.77735,-0.859375 -1.77735,-2.490235 0,-1.367187 1.15235,-2.285156 1.15234,-0.917969 2.92968,-0.917969 1.89453,0 3.05664,0.9375 1.17188,0.9375 1.17188,2.431641 l -2.37305,0 q 0,-0.683594 -0.50781,-1.132813 -0.50781,-0.458984 -1.34766,-0.458984 -0.78125,0 -1.27929,0.361328 -0.48829,0.361328 -0.48829,0.966797 0,0.546875 0.45899,0.849609 0.45898,0.302735 1.85547,0.615235 1.39648,0.302734 2.1875,0.732422 0.80078,0.419921 1.18164,1.015625 0.39062,0.595703 0.39062,1.445312 0,1.425781 -1.18164,2.314453 -1.18164,0.878906 -3.0957,0.878906 -1.29883,0 -2.31445,-0.46875 -1.01563,-0.46875 -1.58203,-1.289062 -0.56641,-0.820313 -0.56641,-1.767578 l 2.30469,0 q 0.0488,0.839844 0.63476,1.298828 0.58594,0.449219 1.55274,0.449219 0.9375,0 1.42578,-0.351563 0.48828,-0.361328 0.48828,-0.9375 z"
         style="font-style:normal;font-variant:normal;font-weight:500;font-stretch:normal;font-size:20px;line-height:100%;font-family:Roboto;-inkscape-font-specification:'Roboto Medium';letter-spacing:0.37px;fill:#ffffff"
         id="path4397"
         inkscape:connector-curvature="0" />
      <path
         d="m 165.19923,15.476032 0,2.56836 1.86523,0 0,1.757812 -1.86523,0 0,5.898438 q 0,0.605468 0.23437,0.878906 0.24414,0.263672 0.85938,0.263672 0.41015,0 0.83007,-0.09766 l 0,1.835937 q -0.81054,0.224609 -1.5625,0.224609 -2.73437,0 -2.73437,-3.017578 l 0,-5.986328 -1.73828,0 0,-1.757812 1.73828,0 0,-2.56836 2.37305,0 z"
         style="font-style:normal;font-variant:normal;font-weight:500;font-stretch:normal;font-size:20px;line-height:100%;font-family:Roboto;-inkscape-font-specification:'Roboto Medium';letter-spacing:0.37px;fill:#ffffff"
         id="path4399"
         inkscape:connector-curvature="0" />
      <path
         d="m 24.783759,45.339314 1.679688,-7.294922 2.314453,0 -2.88086,10.566406 -1.953125,0 -2.265625,-7.255859 -2.226562,7.255859 -1.953125,0 -2.890625,-10.566406 2.314453,0 1.708984,7.216797 2.167969,-7.216797 1.787109,0 2.197266,7.294922 z"
         style="font-style:normal;font-variant:normal;font-weight:500;font-stretch:normal;font-size:20px;line-height:100%;font-family:Roboto;-inkscape-font-specification:'Roboto Medium';letter-spacing:0.37px;fill:#ffffff"
         id="path4401"
         inkscape:connector-curvature="0" />
      <path
         d="m 37.067822,48.610798 q -0.15625,-0.302734 -0.273438,-0.986328 -1.132812,1.18164 -2.773437,1.18164 -1.591797,0 -2.597657,-0.908203 -1.005859,-0.908203 -1.005859,-2.246093 0,-1.689454 1.25,-2.587891 1.259766,-0.908203 3.59375,-0.908203 l 1.455078,0 0,-0.69336 q 0,-0.820312 -0.458984,-1.308593 -0.458985,-0.498047 -1.396485,-0.498047 -0.810547,0 -1.328125,0.410156 -0.517578,0.400391 -0.517578,1.025391 l -2.373047,0 q 0,-0.869141 0.576172,-1.621094 0.576172,-0.761719 1.5625,-1.191406 0.996094,-0.429688 2.216797,-0.429688 1.855469,0 2.958984,0.9375 1.103516,0.927735 1.132813,2.617188 l 0,4.765625 q 0,1.425781 0.400391,2.27539 l 0,0.166016 -2.421875,0 z M 34.4604,46.901814 q 0.703125,0 1.318359,-0.341797 0.625,-0.341797 0.9375,-0.917969 l 0,-1.992188 -1.279297,0 q -1.318359,0 -1.982422,0.458985 -0.664062,0.458984 -0.664062,1.298828 0,0.683594 0.449219,1.09375 0.458984,0.400391 1.220703,0.400391 z"
         style="font-style:normal;font-variant:normal;font-weight:500;font-stretch:normal;font-size:20px;line-height:100%;font-family:Roboto;-inkscape-font-specification:'Roboto Medium';letter-spacing:0.37px;fill:#ffffff"
         id="path4403"
         inkscape:connector-curvature="0" />
      <path
         d="m 47.867509,45.739704 q 0,-0.634765 -0.527344,-0.966797 -0.517578,-0.332031 -1.728515,-0.585937 -1.210938,-0.253906 -2.021485,-0.644531 -1.777344,-0.859375 -1.777344,-2.490235 0,-1.367187 1.152344,-2.285156 1.152344,-0.917969 2.929688,-0.917969 1.894531,0 3.05664,0.9375 1.171875,0.9375 1.171875,2.431641 l -2.373047,0 q 0,-0.683594 -0.507812,-1.132813 -0.507813,-0.458984 -1.347656,-0.458984 -0.78125,0 -1.279297,0.361328 -0.488281,0.361328 -0.488281,0.966797 0,0.546875 0.458984,0.849609 0.458984,0.302735 1.855469,0.615235 1.396484,0.302734 2.1875,0.732422 0.800781,0.419921 1.18164,1.015625 0.390625,0.595703 0.390625,1.445312 0,1.425781 -1.18164,2.314453 -1.181641,0.878906 -3.095703,0.878906 -1.298829,0 -2.314454,-0.46875 -1.015625,-0.46875 -1.582031,-1.289062 -0.566406,-0.820313 -0.566406,-1.767578 l 2.304687,0 q 0.04883,0.839844 0.634766,1.298828 0.585938,0.449219 1.552734,0.449219 0.9375,0 1.425782,-0.351563 0.488281,-0.361328 0.488281,-0.9375 z"
         style="font-style:normal;font-variant:normal;font-weight:500;font-stretch:normal;font-size:20px;line-height:100%;font-family:Roboto;-inkscape-font-specification:'Roboto Medium';letter-spacing:0.37px;fill:#ffffff"
         id="path4405"
         inkscape:connector-curvature="0" />
      <path
         d="m 54.966025,39.196735 q 1.16211,-1.347656 2.939453,-1.347656 3.378907,0 3.427735,3.857422 l 0,6.904297 -2.373047,0 0,-6.816406 q 0,-1.09375 -0.478516,-1.542969 -0.46875,-0.458984 -1.386718,-0.458984 -1.425782,0 -2.128907,1.269531 l 0,7.548828 -2.373047,0 0,-15 2.373047,0 0,5.585937 z"
         style="font-style:normal;font-variant:normal;font-weight:500;font-stretch:normal;font-size:20px;line-height:100%;font-family:Roboto;-inkscape-font-specification:'Roboto Medium';letter-spacing:0.37px;fill:#ffffff"
         id="path4407"
         inkscape:connector-curvature="0" />
      <path
         d="m 71.799773,39.196735 q 1.16211,-1.347656 2.939453,-1.347656 3.378907,0 3.427735,3.857422 l 0,6.904297 -2.373047,0 0,-6.816406 q 0,-1.09375 -0.478516,-1.542969 -0.46875,-0.458984 -1.386719,-0.458984 -1.425781,0 -2.128906,1.269531 l 0,7.548828 -2.373047,0 0,-15 2.373047,0 0,5.585937 z"
         style="font-style:normal;font-variant:normal;font-weight:500;font-stretch:normal;font-size:20px;line-height:100%;font-family:Roboto;-inkscape-font-specification:'Roboto Medium';letter-spacing:0.37px;fill:#ffffff"
         id="path4409"
         inkscape:connector-curvature="0" />
      <path
         d="m 87.238135,48.610798 q -0.15625,-0.302734 -0.273437,-0.986328 -1.132813,1.18164 -2.773438,1.18164 -1.591797,0 -2.597656,-0.908203 -1.005859,-0.908203 -1.005859,-2.246093 0,-1.689454 1.25,-2.587891 1.259765,-0.908203 3.59375,-0.908203 l 1.455078,0 0,-0.69336 q 0,-0.820312 -0.458985,-1.308593 -0.458984,-0.498047 -1.396484,-0.498047 -0.810547,0 -1.328125,0.410156 -0.517578,0.400391 -0.517578,1.025391 l -2.373047,0 q 0,-0.869141 0.576172,-1.621094 0.576172,-0.761719 1.5625,-1.191406 0.996094,-0.429688 2.216797,-0.429688 1.855469,0 2.958984,0.9375 1.103516,0.927735 1.132813,2.617188 l 0,4.765625 q 0,1.425781 0.40039,2.27539 l 0,0.166016 -2.421875,0 z m -2.607422,-1.708984 q 0.703125,0 1.31836,-0.341797 0.625,-0.341797 0.9375,-0.917969 l 0,-1.992188 -1.279297,0 q -1.318359,0 -1.982422,0.458985 -0.664062,0.458984 -0.664062,1.298828 0,0.683594 0.449218,1.09375 0.458985,0.400391 1.220703,0.400391 z"
         style="font-style:normal;font-variant:normal;font-weight:500;font-stretch:normal;font-size:20px;line-height:100%;font-family:Roboto;-inkscape-font-specification:'Roboto Medium';letter-spacing:0.37px;fill:#ffffff"
         id="path4411"
         inkscape:connector-curvature="0" />
      <path
         d="m 94.317115,38.044392 0.06836,1.220703 q 1.171875,-1.416016 3.076172,-1.416016 3.300783,0 3.359373,3.779297 l 0,6.982422 -2.373045,0 0,-6.845703 q 0,-1.00586 -0.439453,-1.484375 -0.429687,-0.488281 -1.416016,-0.488281 -1.435546,0 -2.138671,1.298828 l 0,7.519531 -2.373047,0 0,-10.566406 2.236328,0 z"
         style="font-style:normal;font-variant:normal;font-weight:500;font-stretch:normal;font-size:20px;line-height:100%;font-family:Roboto;-inkscape-font-specification:'Roboto Medium';letter-spacing:0.37px;fill:#ffffff"
         id="path4413"
         inkscape:connector-curvature="0" />
      <path
         d="m 103.17345,43.24947 q 0,-2.441406 1.13281,-3.916016 1.13281,-1.484375 3.03711,-1.484375 1.67969,0 2.71484,1.171875 l 0,-5.410156 2.37305,0 0,15 -2.14844,0 -0.11719,-1.09375 q -1.06445,1.289062 -2.84179,1.289062 -1.85547,0 -3.00782,-1.49414 -1.14257,-1.494141 -1.14257,-4.0625 z m 2.37304,0.205078 q 0,1.611328 0.61524,2.519531 0.625,0.898438 1.76758,0.898438 1.45507,0 2.1289,-1.298828 l 0,-4.511719 q -0.6543,-1.269531 -2.10937,-1.269531 -1.15235,0 -1.77735,0.917968 -0.625,0.908203 -0.625,2.744141 z"
         style="font-style:normal;font-variant:normal;font-weight:500;font-stretch:normal;font-size:20px;line-height:100%;font-family:Roboto;-inkscape-font-specification:'Roboto Medium';letter-spacing:0.37px;fill:#ffffff"
         id="path4415"
         inkscape:connector-curvature="0" />
      <path
         d="m 121.1997,45.739704 q 0,-0.634765 -0.52735,-0.966797 -0.51757,-0.332031 -1.72851,-0.585937 -1.21094,-0.253906 -2.02149,-0.644531 -1.77734,-0.859375 -1.77734,-2.490235 0,-1.367187 1.15234,-2.285156 1.15235,-0.917969 2.92969,-0.917969 1.89453,0 3.05664,0.9375 1.17188,0.9375 1.17188,2.431641 l -2.37305,0 q 0,-0.683594 -0.50781,-1.132813 -0.50781,-0.458984 -1.34766,-0.458984 -0.78125,0 -1.27929,0.361328 -0.48829,0.361328 -0.48829,0.966797 0,0.546875 0.45899,0.849609 0.45898,0.302735 1.85547,0.615235 1.39648,0.302734 2.1875,0.732422 0.80078,0.419921 1.18164,1.015625 0.39062,0.595703 0.39062,1.445312 0,1.425781 -1.18164,2.314453 -1.18164,0.878906 -3.0957,0.878906 -1.29883,0 -2.31445,-0.46875 -1.01563,-0.46875 -1.58204,-1.289062 -0.5664,-0.820313 -0.5664,-1.767578 l 2.30469,0 q 0.0488,0.839844 0.63476,1.298828 0.58594,0.449219 1.55274,0.449219 0.9375,0 1.42578,-0.351563 0.48828,-0.361328 0.48828,-0.9375 z"
         style="font-style:normal;font-variant:normal;font-weight:500;font-stretch:normal;font-size:20px;line-height:100%;font-family:Roboto;-inkscape-font-specification:'Roboto Medium';letter-spacing:0.37px;fill:#ffffff"
         id="path4417"
         inkscape:connector-curvature="0" />
      <path
         d="m 140.60181,43.435017 q 0,2.460937 -1.10352,3.916015 -1.09375,1.455078 -3.01758,1.455078 -1.85547,0 -2.89062,-1.33789 l -0.11719,1.142578 -2.14844,0 0,-15 2.37305,0 0,5.449219 q 1.02539,-1.210938 2.76367,-1.210938 1.93359,0 3.03711,1.435547 1.10352,1.435547 1.10352,4.013672 l 0,0.136719 z m -2.37305,-0.205078 q 0,-1.71875 -0.60547,-2.578125 -0.60547,-0.859375 -1.75781,-0.859375 -1.54297,0 -2.16797,1.347656 l 0,4.355469 q 0.63476,1.376953 2.1875,1.376953 1.11328,0 1.71875,-0.830078 0.60547,-0.830079 0.625,-2.509766 l 0,-0.302734 z"
         style="font-style:normal;font-variant:normal;font-weight:500;font-stretch:normal;font-size:20px;line-height:100%;font-family:Roboto;-inkscape-font-specification:'Roboto Medium';letter-spacing:0.37px;fill:#ffffff"
         id="path4419"
         inkscape:connector-curvature="0" />
      <path
         d="m 147.60267,48.80611 q -2.25586,0 -3.66211,-1.416015 -1.39649,-1.425781 -1.39649,-3.789063 l 0,-0.292968 q 0,-1.582032 0.60547,-2.822266 0.61524,-1.25 1.71875,-1.943359 1.10352,-0.69336 2.46094,-0.69336 2.1582,0 3.33008,1.376953 1.18164,1.376953 1.18164,3.896485 l 0,0.957031 -6.9043,0 q 0.10742,1.308594 0.86914,2.070312 0.77149,0.761719 1.9336,0.761719 1.63086,0 2.65625,-1.318359 l 1.27929,1.220703 q -0.63476,0.947266 -1.69922,1.474609 -1.05468,0.517578 -2.37304,0.517578 z m -0.28321,-9.052734 q -0.97656,0 -1.58203,0.683594 -0.5957,0.683594 -0.76172,1.904297 l 4.52149,0 0,-0.175782 q -0.0781,-1.191406 -0.63477,-1.796875 -0.55664,-0.615234 -1.54297,-0.615234 z"
         style="font-style:normal;font-variant:normal;font-weight:500;font-stretch:normal;font-size:20px;line-height:100%;font-family:Roboto;-inkscape-font-specification:'Roboto Medium';letter-spacing:0.37px;fill:#ffffff"
         id="path4421"
         inkscape:connector-curvature="0" />
      <path
         d="m 154.89649,48.610798 0,-8.808594 -1.61133,0 0,-1.757812 1.61133,0 0,-0.966797 q 0,-1.757813 0.97656,-2.714844 0.97657,-0.957031 2.73438,-0.957031 0.625,0 1.32812,0.175781 l -0.0586,1.855469 q -0.39063,-0.07813 -0.9082,-0.07813 -1.69922,0 -1.69922,1.748047 l 0,0.9375 2.14844,0 0,1.757812 -2.14844,0 0,8.808594 -2.37305,0 z"
         style="font-style:normal;font-variant:normal;font-weight:500;font-stretch:normal;font-size:20px;line-height:100%;font-family:Roboto;-inkscape-font-specification:'Roboto Medium';letter-spacing:0.37px;fill:#ffffff"
         id="path4423"
         inkscape:connector-curvature="0" />
      <path
         d="m 161.09656,43.229939 q 0,-1.552735 0.61524,-2.792969 0.61523,-1.25 1.72851,-1.914063 1.11329,-0.673828 2.5586,-0.673828 2.13867,0 3.46679,1.376953 1.3379,1.376953 1.44532,3.652344 l 0.01,0.556641 q 0,1.5625 -0.60547,2.792968 -0.5957,1.230469 -1.71875,1.904297 -1.11328,0.673828 -2.57812,0.673828 -2.23633,0 -3.58399,-1.484375 -1.33789,-1.49414 -1.33789,-3.974609 l 0,-0.117187 z m 2.37305,0.205078 q 0,1.630859 0.67383,2.558593 0.67383,0.917969 1.875,0.917969 1.20117,0 1.86523,-0.9375 0.67383,-0.9375 0.67383,-2.74414 0,-1.601563 -0.69336,-2.539063 -0.68359,-0.9375 -1.86523,-0.9375 -1.16211,0 -1.84571,0.927734 -0.68359,0.917969 -0.68359,2.753907 z"
         style="font-style:normal;font-variant:normal;font-weight:500;font-stretch:normal;font-size:20px;line-height:100%;font-family:Roboto;-inkscape-font-specification:'Roboto Medium';letter-spacing:0.37px;fill:#ffffff"
         id="path4425"
         inkscape:connector-curvature="0" />
      <path
         d="m 178.84939,40.21236 q -0.46875,-0.07813 -0.9668,-0.07813 -1.63086,0 -2.19727,1.25 l 0,7.226563 -2.37304,0 0,-10.566406 2.26562,0 0.0586,1.18164 q 0.85937,-1.376953 2.38281,-1.376953 0.50781,0 0.83984,0.136719 l -0.01,2.226562 z"
         style="font-style:normal;font-variant:normal;font-weight:500;font-stretch:normal;font-size:20px;line-height:100%;font-family:Roboto;-inkscape-font-specification:'Roboto Medium';letter-spacing:0.37px;fill:#ffffff"
         id="path4427"
         inkscape:connector-curvature="0" />
      <path
         d="m 185.37173,48.80611 q -2.25586,0 -3.66211,-1.416015 -1.39649,-1.425781 -1.39649,-3.789063 l 0,-0.292968 q 0,-1.582032 0.60547,-2.822266 0.61524,-1.25 1.71875,-1.943359 1.10352,-0.69336 2.46094,-0.69336 2.1582,0 3.33008,1.376953 1.18164,1.376953 1.18164,3.896485 l 0,0.957031 -6.9043,0 q 0.10742,1.308594 0.86914,2.070312 0.77149,0.761719 1.93359,0.761719 1.63086,0 2.65625,-1.318359 l 1.2793,1.220703 q -0.63476,0.947266 -1.69922,1.474609 -1.05468,0.517578 -2.37304,0.517578 z m -0.28321,-9.052734 q -0.97656,0 -1.58203,0.683594 -0.5957,0.683594 -0.76172,1.904297 l 4.52149,0 0,-0.175782 q -0.0781,-1.191406 -0.63477,-1.796875 -0.55664,-0.615234 -1.54297,-0.615234 z"
         style="font-style:normal;font-variant:normal;font-weight:500;font-stretch:normal;font-size:20px;line-height:100%;font-family:Roboto;-inkscape-font-specification:'Roboto Medium';letter-spacing:0.37px;fill:#ffffff"
         id="path4429"
         inkscape:connector-curvature="0" />
      <path
         d="m 21.033759,60.21236 q -0.46875,-0.07813 -0.966797,-0.07813 -1.630859,0 -2.197265,1.25 l 0,7.226563 -2.373047,0 0,-10.566406 2.265625,0 0.05859,1.18164 q 0.859375,-1.376953 2.382813,-1.376953 0.507812,0 0.839844,0.136719 l -0.0098,2.226562 z"
         style="font-style:normal;font-variant:normal;font-weight:500;font-stretch:normal;font-size:20px;line-height:100%;font-family:Roboto;-inkscape-font-specification:'Roboto Medium';letter-spacing:0.37px;fill:#ffffff"
         id="path4431"
         inkscape:connector-curvature="0" />
      <path
         d="m 27.556103,68.80611 q -2.25586,0 -3.66211,-1.416015 -1.396484,-1.425781 -1.396484,-3.789063 l 0,-0.292968 q 0,-1.582032 0.605469,-2.822266 0.615234,-1.25 1.71875,-1.943359 1.103515,-0.69336 2.460937,-0.69336 2.158203,0 3.330078,1.376953 1.181641,1.376953 1.181641,3.896485 l 0,0.957031 -6.904297,0 q 0.107422,1.308594 0.869141,2.070312 0.771484,0.761719 1.933594,0.761719 1.630859,0 2.65625,-1.318359 l 1.279296,1.220703 q -0.634765,0.947266 -1.699218,1.474609 -1.054688,0.517578 -2.373047,0.517578 z M 27.2729,59.753376 q -0.976563,0 -1.582032,0.683594 -0.595703,0.683594 -0.761718,1.904297 l 4.521484,0 0,-0.175782 Q 29.372509,60.974079 28.815868,60.36861 28.259228,59.753376 27.2729,59.753376 Z"
         style="font-style:normal;font-variant:normal;font-weight:500;font-stretch:normal;font-size:20px;line-height:100%;font-family:Roboto;-inkscape-font-specification:'Roboto Medium';letter-spacing:0.37px;fill:#ffffff"
         id="path4433"
         inkscape:connector-curvature="0" />
      <path
         d="m 36.988603,55.476032 0,2.56836 1.865234,0 0,1.757812 -1.865234,0 0,5.898438 q 0,0.605468 0.234375,0.878906 0.24414,0.263672 0.859375,0.263672 0.410156,0 0.830078,-0.09766 l 0,1.835937 q -0.810547,0.224609 -1.5625,0.224609 -2.734375,0 -2.734375,-3.017578 l 0,-5.986328 -1.738281,0 0,-1.757812 1.738281,0 0,-2.56836 2.373047,0 z"
         style="font-style:normal;font-variant:normal;font-weight:500;font-stretch:normal;font-size:20px;line-height:100%;font-family:Roboto;-inkscape-font-specification:'Roboto Medium';letter-spacing:0.37px;fill:#ffffff"
         id="path4435"
         inkscape:connector-curvature="0" />
      <path
         d="m 47.426963,67.575642 q -1.044922,1.230468 -2.96875,1.230468 -1.71875,0 -2.607422,-1.005859 -0.878906,-1.005859 -0.878906,-2.910156 l 0,-6.845703 2.373047,0 0,6.816406 q 0,2.011719 1.669921,2.011719 1.728516,0 2.333985,-1.240235 l 0,-7.58789 2.373047,0 0,10.566406 -2.236328,0 -0.05859,-1.035156 z"
         style="font-style:normal;font-variant:normal;font-weight:500;font-stretch:normal;font-size:20px;line-height:100%;font-family:Roboto;-inkscape-font-specification:'Roboto Medium';letter-spacing:0.37px;fill:#ffffff"
         id="path4437"
         inkscape:connector-curvature="0" />
      <path
         d="m 58.060634,60.21236 q -0.46875,-0.07813 -0.966797,-0.07813 -1.63086,0 -2.197266,1.25 l 0,7.226563 -2.373047,0 0,-10.566406 2.265625,0 0.05859,1.18164 q 0.859375,-1.376953 2.382813,-1.376953 0.507812,0 0.839843,0.136719 l -0.0098,2.226562 z"
         style="font-style:normal;font-variant:normal;font-weight:500;font-stretch:normal;font-size:20px;line-height:100%;font-family:Roboto;-inkscape-font-specification:'Roboto Medium';letter-spacing:0.37px;fill:#ffffff"
         id="path4439"
         inkscape:connector-curvature="0" />
      <path
         d="m 62.131804,58.044392 0.06836,1.220703 q 1.171875,-1.416016 3.076172,-1.416016 3.300781,0 3.359375,3.779297 l 0,6.982422 -2.373047,0 0,-6.845703 q 0,-1.00586 -0.439453,-1.484375 -0.429688,-0.488281 -1.416016,-0.488281 -1.435547,0 -2.138672,1.298828 l 0,7.519531 -2.373047,0 0,-10.566406 2.236328,0 z"
         style="font-style:normal;font-variant:normal;font-weight:500;font-stretch:normal;font-size:20px;line-height:100%;font-family:Roboto;-inkscape-font-specification:'Roboto Medium';letter-spacing:0.37px;fill:#ffffff"
         id="path4441"
         inkscape:connector-curvature="0" />
      <path
         d="m 73.956885,68.610798 -2.373047,0 0,-10.566406 2.373047,0 0,10.566406 z M 71.437354,55.300251 q 0,-0.546875 0.341797,-0.908203 0.351562,-0.361328 0.996094,-0.361328 0.644531,0 0.996093,0.361328 0.351563,0.361328 0.351563,0.908203 0,0.537109 -0.351563,0.898438 -0.351562,0.351562 -0.996093,0.351562 -0.644532,0 -0.996094,-0.351562 -0.341797,-0.361329 -0.341797,-0.898438 z"
         style="font-style:normal;font-variant:normal;font-weight:500;font-stretch:normal;font-size:20px;line-height:100%;font-family:Roboto;-inkscape-font-specification:'Roboto Medium';letter-spacing:0.37px;fill:#ffffff"
         id="path4443"
         inkscape:connector-curvature="0" />
      <path
         d="m 79.121806,58.044392 0.06836,1.220703 q 1.171875,-1.416016 3.076171,-1.416016 3.300782,0 3.359375,3.779297 l 0,6.982422 -2.373046,0 0,-6.845703 q 0,-1.00586 -0.439454,-1.484375 -0.429687,-0.488281 -1.416015,-0.488281 -1.435547,0 -2.138672,1.298828 l 0,7.519531 -2.373047,0 0,-10.566406 2.236328,0 z"
         style="font-style:normal;font-variant:normal;font-weight:500;font-stretch:normal;font-size:20px;line-height:100%;font-family:Roboto;-inkscape-font-specification:'Roboto Medium';letter-spacing:0.37px;fill:#ffffff"
         id="path4445"
         inkscape:connector-curvature="0" />
      <path
         d="m 88.00743,63.24947 q 0,-2.460938 1.152344,-3.925781 1.162109,-1.47461 3.076172,-1.47461 1.80664,0 2.841797,1.259766 l 0.107421,-1.064453 2.138672,0 0,10.24414 q 0,2.080078 -1.298828,3.28125 -1.289062,1.201172 -3.486328,1.201172 -1.162109,0 -2.275391,-0.488281 -1.103515,-0.478516 -1.679687,-1.259766 l 1.123047,-1.425781 q 1.09375,1.298828 2.695312,1.298828 1.181641,0 1.865235,-0.644531 0.683593,-0.634766 0.683593,-1.875 l 0,-0.712891 q -1.02539,1.142578 -2.734375,1.142578 -1.855468,0 -3.037109,-1.474609 Q 88.00743,65.856892 88.00743,63.24947 Z m 2.363281,0.205078 q 0,1.591797 0.644532,2.509766 0.654296,0.908203 1.80664,0.908203 1.435547,0 2.128906,-1.230469 l 0,-4.648438 q -0.673828,-1.201171 -2.109375,-1.201171 -1.171875,0 -1.826171,0.927734 -0.644532,0.927734 -0.644532,2.734375 z"
         style="font-style:normal;font-variant:normal;font-weight:500;font-stretch:normal;font-size:20px;line-height:100%;font-family:Roboto;-inkscape-font-specification:'Roboto Medium';letter-spacing:0.37px;fill:#ffffff"
         id="path4447"
         inkscape:connector-curvature="0" />
      <path
         d="m 108.46422,55.476032 0,2.56836 1.86524,0 0,1.757812 -1.86524,0 0,5.898438 q 0,0.605468 0.23438,0.878906 0.24414,0.263672 0.85937,0.263672 0.41016,0 0.83008,-0.09766 l 0,1.835937 q -0.81054,0.224609 -1.5625,0.224609 -2.73437,0 -2.73437,-3.017578 l 0,-5.986328 -1.73828,0 0,-1.757812 1.73828,0 0,-2.56836 2.37304,0 z"
         style="font-style:normal;font-variant:normal;font-weight:500;font-stretch:normal;font-size:20px;line-height:100%;font-family:Roboto;-inkscape-font-specification:'Roboto Medium';letter-spacing:0.37px;fill:#ffffff"
         id="path4449"
         inkscape:connector-curvature="0" />
      <path
         d="m 111.78345,63.229939 q 0,-1.552735 0.61523,-2.792969 0.61524,-1.25 1.72852,-1.914063 1.11328,-0.673828 2.55859,-0.673828 2.13867,0 3.4668,1.376953 1.33789,1.376953 1.44531,3.652344 l 0.01,0.556641 q 0,1.5625 -0.60547,2.792968 -0.59571,1.230469 -1.71875,1.904297 -1.11328,0.673828 -2.57813,0.673828 -2.23633,0 -3.58398,-1.484375 -1.33789,-1.49414 -1.33789,-3.974609 l 0,-0.117187 z m 2.37304,0.205078 q 0,1.630859 0.67383,2.558593 0.67383,0.917969 1.875,0.917969 1.20117,0 1.86524,-0.9375 0.67382,-0.9375 0.67382,-2.74414 0,-1.601563 -0.69336,-2.539063 -0.68359,-0.9375 -1.86523,-0.9375 -1.16211,0 -1.8457,0.927734 -0.6836,0.917969 -0.6836,2.753907 z"
         style="font-style:normal;font-variant:normal;font-weight:500;font-stretch:normal;font-size:20px;line-height:100%;font-family:Roboto;-inkscape-font-specification:'Roboto Medium';letter-spacing:0.37px;fill:#ffffff"
         id="path4451"
         inkscape:connector-curvature="0" />
      <path
         d="m 131.89844,68.610798 -2.37304,0 0,-15 2.37304,0 0,15 z"
         style="font-style:normal;font-variant:normal;font-weight:500;font-stretch:normal;font-size:20px;line-height:100%;font-family:Roboto;-inkscape-font-specification:'Roboto Medium';letter-spacing:0.37px;fill:#ffffff"
         id="path4453"
         inkscape:connector-curvature="0" />
      <path
         d="m 137.38563,68.610798 -2.37304,0 0,-10.566406 2.37304,0 0,10.566406 z M 134.8661,55.300251 q 0,-0.546875 0.3418,-0.908203 0.35156,-0.361328 0.99609,-0.361328 0.64454,0 0.9961,0.361328 0.35156,0.361328 0.35156,0.908203 0,0.537109 -0.35156,0.898438 -0.35156,0.351562 -0.9961,0.351562 -0.64453,0 -0.99609,-0.351562 -0.3418,-0.361329 -0.3418,-0.898438 z"
         style="font-style:normal;font-variant:normal;font-weight:500;font-stretch:normal;font-size:20px;line-height:100%;font-family:Roboto;-inkscape-font-specification:'Roboto Medium';letter-spacing:0.37px;fill:#ffffff"
         id="path4455"
         inkscape:connector-curvature="0" />
      <path
         d="m 149.62087,63.435017 q 0,2.460937 -1.10351,3.916015 -1.09375,1.455078 -3.01758,1.455078 -1.85547,0 -2.89063,-1.33789 l -0.11718,1.142578 -2.14844,0 0,-15 2.37304,0 0,5.449219 q 1.0254,-1.210938 2.76368,-1.210938 1.93359,0 3.03711,1.435547 1.10351,1.435547 1.10351,4.013672 l 0,0.136719 z m -2.37305,-0.205078 q 0,-1.71875 -0.60546,-2.578125 -0.60547,-0.859375 -1.75782,-0.859375 -1.54297,0 -2.16797,1.347656 l 0,4.355469 q 0.63477,1.376953 2.1875,1.376953 1.11329,0 1.71875,-0.830078 0.60547,-0.830079 0.625,-2.509766 l 0,-0.302734 z"
         style="font-style:normal;font-variant:normal;font-weight:500;font-stretch:normal;font-size:20px;line-height:100%;font-family:Roboto;-inkscape-font-specification:'Roboto Medium';letter-spacing:0.37px;fill:#ffffff"
         id="path4457"
         inkscape:connector-curvature="0" />
      <path
         d="m 156.30923,66.911579 q 0.88867,0 1.47461,-0.517578 0.58593,-0.517578 0.625,-1.279297 l 2.23632,0 q -0.0391,0.986328 -0.61523,1.845703 -0.57617,0.84961 -1.5625,1.347657 -0.98633,0.498046 -2.12891,0.498046 -2.21679,0 -3.51562,-1.435546 -1.29883,-1.435547 -1.29883,-3.964844 l 0,-0.244141 q 0,-2.412109 1.28906,-3.857422 1.28906,-1.455078 3.51563,-1.455078 1.88476,0 3.0664,1.103516 1.19141,1.09375 1.25,2.880859 l -2.23632,0 q -0.0391,-0.908203 -0.625,-1.49414 -0.57618,-0.585938 -1.47461,-0.585938 -1.15235,0 -1.77735,0.839844 -0.625,0.830078 -0.63476,2.529297 l 0,0.380859 q 0,1.71875 0.61523,2.568359 0.625,0.839844 1.79688,0.839844 z"
         style="font-style:normal;font-variant:normal;font-weight:500;font-stretch:normal;font-size:20px;line-height:100%;font-family:Roboto;-inkscape-font-specification:'Roboto Medium';letter-spacing:0.37px;fill:#ffffff"
         id="path4459"
         inkscape:connector-curvature="0" />
    </g>
  </g>
  <g
     inkscape:groupmode="layer"
     id="layer3"
     inkscape:label="beschnitt"
     style="display:inline"
     sodipodi:insensitive="true">
    <rect
       style="fill:none;fill-opacity:1;stroke:#ff00ff;stroke-width:0.06951935;stroke-miterlimit:4;stroke-dasharray:none"
       id="rect3517"
       width="269.22183"
       height="70.796616"
       x="7.1213741"
       y="7.1213737" />
  </g>
</svg>
