<?xml version="1.0" encoding="UTF-8" standalone="no"?>
<!-- Created with Inkscape (http://www.inkscape.org/) -->

<svg
   width="95mm"
   height="95mm"
   viewBox="0 0 95 95"
   version="1.1"
   id="svg827"
   inkscape:version="1.3 (0e150ed6c4, 2023-07-21)"
   sodipodi:docname="anti-eso_green_print.svg"
   xmlns:inkscape="http://www.inkscape.org/namespaces/inkscape"
   xmlns:sodipodi="http://sodipodi.sourceforge.net/DTD/sodipodi-0.dtd"
   xmlns="http://www.w3.org/2000/svg"
   xmlns:svg="http://www.w3.org/2000/svg"
   xmlns:rdf="http://www.w3.org/1999/02/22-rdf-syntax-ns#"
   xmlns:cc="http://creativecommons.org/ns#"
   xmlns:dc="http://purl.org/dc/elements/1.1/">
  <title
     id="title1">Antiesoterische Aktion</title>
  <sodipodi:namedview
     id="namedview829"
     pagecolor="#ffffff"
     bordercolor="#666666"
     borderopacity="1.0"
     inkscape:pageshadow="2"
     inkscape:pageopacity="0.0"
     inkscape:pagecheckerboard="0"
     inkscape:document-units="mm"
     showgrid="false"
     inkscape:zoom="1.0847363"
     inkscape:cx="-38.719088"
     inkscape:cy="150.72788"
     inkscape:window-width="1920"
     inkscape:window-height="1042"
     inkscape:window-x="0"
     inkscape:window-y="2"
     inkscape:window-maximized="1"
     inkscape:current-layer="layer1"
     showguides="true"
     inkscape:guide-bbox="true"
     inkscape:showpageshadow="2"
     inkscape:deskcolor="#d1d1d1">
    <sodipodi:guide
       position="103.32877,126.24505"
       orientation="0,-1"
       id="guide50334"
       inkscape:locked="false" />
  </sodipodi:namedview>
  <defs
     id="defs824" />
  <g
     inkscape:label="Layer 1"
     inkscape:groupmode="layer"
     id="layer1">
    <circle
       style="fill:#ffffff;fill-opacity:1;stroke:none;stroke-width:0.335;stroke-miterlimit:4;stroke-dasharray:none"
       id="path50735"
       cx="47.5"
       cy="47.5"
       r="47.5" />
    <circle
       style="fill:#000000;fill-opacity:1;stroke:#000000;stroke-width:0.335;stroke-miterlimit:4;stroke-dasharray:none"
       id="path2405"
       cx="47.5"
       cy="47.5"
       r="46.3325" />
    <circle
       style="fill:#ffffff;fill-opacity:1;stroke:#ffffff;stroke-width:0.335;stroke-miterlimit:4;stroke-dasharray:none"
       id="path2795"
       cx="47.5"
       cy="47.5"
       r="35.3325" />
    <circle
       style="fill:none;fill-opacity:1;stroke:none;stroke-width:0.335;stroke-miterlimit:4;stroke-dasharray:none"
       id="path2943"
       cx="-58.039352"
       cy="-33.822086"
       r="38.275471"
       transform="rotate(-165.23124)" />
    <g
       aria-label="ANTIESOTERISCHE AKTION"
       id="text3979"
       style="font-weight:bold;font-size:7.05556px;line-height:125%;-inkscape-font-specification:'sans-serif, Bold';letter-spacing:-0.232833px;word-spacing:0px;fill:#ffffff;stroke-width:0.264583px">
      <path
         d="m 10.724847,33.843925 -0.668517,1.96325 0.781553,0.611869 -0.429761,1.262089 -4.2548866,-3.461416 0.5097163,-1.496896 5.4830923,-0.145485 -0.429761,1.262089 z m -1.4652651,1.342567 0.4541916,-1.333836 -2.1637005,0.0057 z"
         id="path1995" />
      <path
         d="m 7.7636224,29.83442 0.6716094,-1.320403 3.9925032,-0.06802 -3.1444011,-1.599368 0.5700871,-1.120807 4.584561,2.331891 -0.67161,1.320402 -3.9925025,0.06802 3.1444005,1.599368 -0.570087,1.120806 z"
         id="path1997" />
      <path
         d="m 10.438265,24.736465 2.697785,-3.89793 0.824345,0.570534 -0.970497,1.402235 3.405023,2.356642 -0.754831,1.090627 -3.405023,-2.356641 -0.972458,1.405068 z"
         id="path1999" />
      <path
         d="m 13.759534,20.149431 0.851491,-1.016956 3.943678,3.302017 -0.851491,1.016956 z"
         id="path2001" />
      <path
         d="m 15.613824,17.966227 2.538836,-2.523256 0.706706,0.71107 -1.598074,1.588266 0.675135,0.679304 1.502776,-1.493554 0.706706,0.71107 -1.502776,1.493554 0.830561,0.83569 1.651832,-1.641695 0.706706,0.71107 -2.592594,2.576683 z"
         id="path2003" />
      <path
         d="m 22.313365,12.29018 0.66685,0.860506 q -0.451009,0.109794 -0.828703,0.28045 -0.377693,0.170656 -0.660897,0.390126 -0.375791,0.291219 -0.475326,0.533977 -0.09953,0.242758 0.06929,0.460607 0.126617,0.163387 0.318184,0.163121 0.19218,-0.0051 0.561432,-0.186648 l 0.516231,-0.256224 q 0.783572,-0.389306 1.284749,-0.333127 0.501177,0.05618 0.89791,0.568125 0.521241,0.672611 0.376287,1.31232 -0.144341,0.634877 -0.964001,1.270073 -0.386683,0.299661 -0.833067,0.527907 -0.446384,0.228247 -0.947636,0.385693 l -0.685843,-0.885015 q 0.549788,-0.09481 0.994265,-0.26928 0.445089,-0.1793 0.782756,-0.440975 0.343113,-0.265896 0.43693,-0.521657 0.09382,-0.25576 -0.07079,-0.468163 -0.14772,-0.190619 -0.353175,-0.197024 -0.202731,-0.0085 -0.636384,0.196789 l -0.475385,0.22457 q -0.711273,0.341994 -1.216057,0.275536 -0.502062,-0.06857 -0.877693,-0.553283 -0.470594,-0.607256 -0.331699,-1.237912 0.138896,-0.630656 0.874138,-1.200433 0.334944,-0.259566 0.729045,-0.482164 0.391991,-0.225321 0.848586,-0.417895 z"
         id="path2005" />
      <path
         d="m 26.306304,10.602826 q -0.525776,0.302 -0.592482,0.856801 -0.06671,0.554801 0.33825,1.259819 0.403239,0.70203 0.916082,0.923944 0.512843,0.221914 1.038619,-0.08009 0.528763,-0.303716 0.595469,-0.858517 0.06671,-0.554801 -0.336534,-1.256831 -0.404955,-0.705018 -0.917798,-0.926932 -0.512843,-0.221914 -1.041606,0.0818 z m -0.47874,-0.8334748 q 1.075451,-0.6177285 2.038351,-0.3523776 0.9629,0.2653508 1.585777,1.3497634 0.62116,1.081426 0.365216,2.046869 -0.255945,0.965443 -1.331396,1.583172 -1.072463,0.616012 -2.038351,0.352377 -0.9629,-0.26535 -1.58406,-1.346776 -0.622876,-1.084413 -0.366932,-2.049856 0.258931,-0.967159 1.331395,-1.5831718 z"
         id="path2007" />
      <path
         d="m 28.944317,8.1734058 4.389977,-1.7888583 0.378312,0.9284034 -1.579243,0.643521 1.562651,3.8348491 -1.2283,0.500516 -1.562651,-3.8348488 -1.582434,0.644821 z"
         id="path2009" />
      <path
         d="m 34.361023,6.0740224 3.452274,-0.9456826 0.264864,0.9669024 -2.173039,0.5952613 0.253032,0.9237074 2.043453,-0.559764 0.264864,0.9669024 -2.043453,0.5597641 0.311283,1.1363595 2.246138,-0.6152853 0.264864,0.9669024 -3.525373,0.965707 z"
         id="path2011" />
      <path
         d="M 41.629606,6.772248 Q 42.04244,6.7144753 42.19837,6.536114 42.357713,6.3572752 42.308534,6.0058546 42.259833,5.6578457 42.057997,5.5330297 41.859572,5.4077362 41.446738,5.465509 l -0.55272,0.077349 0.182868,1.306739 z m -0.425715,0.9849012 0.269765,1.927696 -1.313563,0.1838224 -0.712849,-5.093894 2.006169,-0.280747 q 1.006496,-0.140851 1.521188,0.1315101 0.518104,0.2718837 0.620281,1.0020199 0.07066,0.504954 -0.12963,0.863457 -0.196883,0.3580256 -0.666704,0.5803133 0.278131,0.023694 0.520223,0.2124498 0.245027,0.1848666 0.524978,0.5944379 l 0.91552,1.3468356 -1.398859,0.195759 -0.798095,-1.1788989 Q 42.321187,7.8860433 42.107136,7.7733727 41.896496,7.6602246 41.575782,7.7051059 Z"
         id="path2013" />
      <path
         d="m 45.122782,4.1306523 1.325346,-0.051909 0.2013,5.1395903 -1.325347,0.051909 z"
         id="path2015" />
      <path
         d="M 51.57052,4.3957535 51.509502,5.482693 Q 51.097041,5.2697596 50.700005,5.1508561 50.302969,5.0319527 49.945242,5.0118706 q -0.474676,-0.026647 -0.709033,0.091316 -0.234357,0.1179635 -0.249804,0.393138 -0.01159,0.2063809 0.133195,0.3318264 0.148413,0.1221989 0.546221,0.2273436 l 0.557736,0.1451774 q 0.846826,0.2200652 1.188297,0.5911879 0.341471,0.3711228 0.305168,1.017783 -0.04769,0.8496014 -0.576693,1.2374177 Q 50.614964,9.4316305 49.57962,9.3735083 49.091185,9.3460885 48.604524,9.2256042 48.117863,9.10512 47.636223,8.895204 l 0.06276,-1.1178967 q 0.4772,0.2890287 0.927146,0.4488582 0.45358,0.1565829 0.880101,0.1805269 0.4334,0.02433 0.671968,-0.1071989 0.238569,-0.1315291 0.253631,-0.3998243 0.01352,-0.2407778 -0.137371,-0.3803681 -0.147448,-0.1393973 -0.609452,-0.268849 L 49.178862,7.1081712 Q 48.417641,6.8998127 48.08019,6.5185641 47.746178,6.1375085 47.780549,5.5252451 q 0.04306,-0.7670491 0.561546,-1.152005 0.518486,-0.3849558 1.4472,-0.3328197 0.423081,0.023751 0.866571,0.1142075 0.443683,0.087017 0.914654,0.2411256 z"
         id="path2017" />
      <path
         d="M 56.619073,9.9751891 Q 56.225396,10.094681 55.81825,10.117052 55.411104,10.139424 54.987731,10.06066 53.724387,9.8256253 53.117089,8.9837672 52.510422,8.1385221 52.735374,6.9293694 52.960956,5.7168298 53.830383,5.1497033 54.70044,4.5791898 55.963784,4.814224 q 0.423373,0.078765 0.795233,0.2460639 0.37186,0.1672991 0.696223,0.4203757 L 57.260534,6.5272411 Q 56.944125,6.2125688 56.613303,6.031879 56.282481,5.8511893 55.892978,5.7787257 55.19526,5.6489213 54.71242,6.021649 q -0.48284,0.3727277 -0.629027,1.1585076 -0.145557,0.7823929 0.170931,1.3038285 0.316488,0.5214356 1.014206,0.65124 0.389503,0.072464 0.763174,0.022839 0.37367,-0.049625 0.782076,-0.2294521 z"
         id="path2019" />
      <path
         d="m 59.037533,5.5788671 1.258656,0.4183561 -0.618297,1.8601961 1.856926,0.6172111 0.618298,-1.8601961 1.258657,0.4183562 L 61.78942,11.913762 60.530764,11.495406 61.218606,9.4259785 59.36168,8.8087674 58.673837,10.878195 57.41518,10.459839 Z"
         id="path2021" />
      <path
         d="m 65.0237,7.7289426 3.215803,1.5719797 -0.440275,0.9006727 -2.024192,-0.9894851 -0.420606,0.8604361 1.903483,0.930479 -0.440276,0.900672 -1.903483,-0.930478 -0.517437,1.058522 2.092284,1.02277 -0.440275,0.900673 -3.283895,-1.605266 z"
         id="path2023" />
      <path
         d="m 71.817027,16.707886 -1.660691,-1.242323 -0.823385,0.554297 -1.067587,-0.798636 4.606564,-2.977421 1.266208,0.94722 -1.555526,5.25983 -1.067588,-0.798637 z m -0.824229,-1.808351 1.128277,0.844037 0.663055,-2.059609 z"
         id="path2025" />
      <path
         d="m 76.51634,15.122264 0.943408,0.932319 -1.319777,1.335473 2.679754,0.0085 1.095333,1.08246 -3.473922,-0.0087 0.03979,3.846358 -1.181097,-1.167216 -0.03164,-2.879276 -1.423907,1.44084 -0.943407,-0.932319 z"
         id="path2027" />
      <path
         d="m 80.237242,18.874464 2.918731,3.735361 -0.789964,0.61726 -1.049979,-1.343752 -3.263012,2.549647 -0.81665,-1.045141 3.263011,-2.549647 -1.0521,-1.346467 z"
         id="path2029" />
      <path
         d="m 83.626412,23.404996 0.718707,1.114764 -4.322968,2.787088 -0.718706,-1.114764 z"
         id="path2031" />
      <path
         d="m 85.505684,28.364178 q -0.272829,-0.541488 -0.823157,-0.6384 -0.550329,-0.09691 -1.276415,0.268927 -0.723009,0.364289 -0.972606,0.864244 -0.249596,0.499956 0.02323,1.041443 0.274379,0.544565 0.824708,0.641477 0.550329,0.09691 1.273338,-0.267377 0.726086,-0.365839 0.975682,-0.865795 0.249597,-0.499955 -0.02478,-1.044519 z m 0.858382,-0.432496 q 0.558059,1.107588 0.240506,2.054556 -0.317552,0.946968 -1.434371,1.509678 -1.113742,0.56116 -2.063763,0.252861 -0.95002,-0.3083 -1.50808,-1.415888 -0.55651,-1.104512 -0.240507,-2.054557 0.317553,-0.946967 1.431295,-1.508128 1.116818,-0.56271 2.066839,-0.25441 0.951571,0.311376 1.508081,1.415888 z"
         id="path2033" />
      <path
         d="m 88.038593,31.771712 0.462992,1.407182 -2.766394,2.879543 3.351056,-1.102567 0.393005,1.194468 -4.885866,1.607552 -0.462992,-1.407182 2.766394,-2.879543 -3.351057,1.102567 -0.393004,-1.194469 z"
         id="path2035" />
    </g>
    <circle
       style="fill:none;fill-opacity:1;stroke:none;stroke-width:0.335;stroke-miterlimit:4;stroke-dasharray:none"
       id="path9812"
       cx="-41.266811"
       cy="53.005192"
       r="43.876114"
       transform="matrix(-0.99233687,0.12356189,0.12356189,0.99233687,0,0)" />
    <g
       aria-label="STEINE SIND ZUM WERFEN DA"
       id="text11854"
       style="font-weight:bold;font-size:7.05556px;line-height:125%;-inkscape-font-specification:'sans-serif, Bold';letter-spacing:0.293687px;word-spacing:0px;fill:#ffffff;stroke-width:0.264583px">
      <path
         d="m 9.5494115,56.194812 -1.0708716,0.195946 q 0.1101159,-0.450931 0.1324538,-0.864787 0.022338,-0.413856 -0.04215,-0.766295 -0.085571,-0.467659 -0.2552722,-0.667759 -0.1697011,-0.2001 -0.4408078,-0.150493 -0.2033301,0.0372 -0.2912669,0.207396 -0.083928,0.17296 -0.09271,0.584336 l -0.010138,0.576231 q -0.015042,0.874824 -0.2955942,1.2939 -0.2805526,0.419076 -0.9176534,0.535651 -0.8370421,0.15316 -1.3382429,-0.269969 -0.497192,-0.42036 -0.6838363,-1.440399 -0.088052,-0.481215 -0.085225,-0.98256 0.00283,-0.501346 0.093764,-1.018813 L 5.353231,53.22567 q -0.1688798,0.53173 -0.2185736,1.006628 -0.045685,0.477667 0.031205,0.897882 0.07813,0.426994 0.2620066,0.628002 0.1838765,0.201008 0.4482056,0.152642 0.2372184,-0.0434 0.3374703,-0.222855 0.1008721,-0.176061 0.1182061,-0.655544 l 0.019439,-0.525399 q 0.023766,-0.788863 0.3151051,-1.20641 0.2919593,-0.414159 0.8951718,-0.524533 0.75571,-0.138278 1.2516618,0.275304 0.4959518,0.413583 0.6633736,1.328568 0.07627,0.416826 0.092493,0.869156 0.019612,0.45171 -0.019584,0.945701 z"
         id="path2038" />
      <path
         d="m 9.80479,56.733272 1.401333,4.528595 -0.957719,0.296358 -0.504113,-1.62911 -3.9559385,1.22413 -0.3920881,-1.267085 3.9559384,-1.22413 -0.5051317,-1.6324 z"
         id="path2040" />
      <path
         d="m 11.372864,61.606332 1.450695,3.272307 -0.916498,0.406307 -0.913142,-2.059758 -0.875555,0.388155 0.858689,1.936928 -0.916498,0.406307 -0.8586886,-1.936929 -1.0771212,0.477515 0.9438594,2.129046 -0.9164978,0.406307 -1.4814126,-3.341596 z"
         id="path2042" />
      <path
         d="m 13.34535,65.803924 0.646934,1.157892 -4.4902169,2.508758 -0.6469335,-1.157893 z"
         id="path2044" />
      <path
         d="m 14.483421,67.902719 0.853341,1.210922 -1.806091,3.561283 2.883683,-2.032143 0.724348,1.027875 -4.204432,2.962881 -0.853342,-1.210921 1.806091,-3.561284 -2.883682,2.032143 -0.724348,-1.027875 z"
         id="path2046" />
      <path
         d="m 17.750526,72.373377 2.420889,2.636627 -0.738458,0.678036 -1.523833,-1.659629 -0.705469,0.647745 1.432962,1.56066 -0.738459,0.678036 -1.432961,-1.56066 -0.86788,0.796866 1.575093,1.715457 -0.738459,0.678036 -2.47215,-2.692456 z"
         id="path2048" />
      <path
         d="m 25.411174,79.558162 -0.65602,0.868792 q -0.223988,-0.406564 -0.487533,-0.726438 -0.263544,-0.319875 -0.549476,-0.53578 -0.379409,-0.28649 -0.639754,-0.319032 -0.260345,-0.03254 -0.426426,0.187406 -0.12456,0.16496 -0.07417,0.349782 0.05521,0.184149 0.327061,0.493026 l 0.382383,0.431195 q 0.580786,0.654393 0.657713,1.152807 0.07693,0.498414 -0.313362,1.01529 -0.512775,0.679088 -1.168126,0.706584 -0.650525,0.02682 -1.478076,-0.598056 -0.390407,-0.294794 -0.72751,-0.665896 -0.337103,-0.371101 -0.620231,-0.813686 l 0.674704,-0.893536 q 0.235379,0.50582 0.520077,0.889153 0.289523,0.382661 0.630441,0.640086 0.346417,0.261578 0.617816,0.285198 0.271398,0.02362 0.433327,-0.190828 0.145321,-0.192454 0.09774,-0.392425 -0.04483,-0.197896 -0.356462,-0.562713 l -0.341143,-0.400054 q -0.516204,-0.596995 -0.584154,-1.101581 -0.0652,-0.50251 0.304329,-0.991893 0.462951,-0.613103 1.107977,-0.644078 0.645027,-0.03097 1.387349,0.529548 0.338169,0.255349 0.656139,0.577468 0.320046,0.31937 0.625392,0.709661 z"
         id="path2050" />
      <path
         d="m 26.620145,80.130846 1.128831,0.696403 -2.700597,4.37752 -1.128831,-0.696403 z"
         id="path2052" />
      <path
         d="m 28.6393,81.412026 1.334454,0.643237 0.153333,3.990138 1.531803,-3.177863 1.132734,0.546004 -2.233381,4.633349 -1.334454,-0.643238 -0.153333,-3.990137 -1.531803,3.177862 -1.132734,-0.546004 z"
         id="path2054" />
      <path
         d="m 34.560808,85.092005 -0.951909,2.990644 0.453028,0.144197 q 0.774744,0.246598 1.304067,-0.0079 0.532606,-0.253476 0.76562,-0.985543 0.231969,-0.728785 -0.05389,-1.23916 -0.28586,-0.510375 -1.063887,-0.758018 z m -0.959815,-1.357588 1.332822,0.424232 q 1.116157,0.355268 1.609904,0.689581 0.498074,0.332074 0.76752,0.837225 0.23916,0.441279 0.268656,0.927901 0.0295,0.486621 -0.145004,1.034851 -0.176589,0.554796 -0.482985,0.93812 -0.305351,0.380041 -0.755582,0.60189 -0.515147,0.255418 -1.11786,0.240732 -0.601668,-0.01797 -1.704694,-0.369058 l -1.332822,-0.424232 z"
         id="path2056" />
      <path
         d="m 40.97168,85.751816 4.296317,0.484922 -0.09003,0.797643 -3.116526,3.007736 2.82085,0.318387 -0.11244,0.996198 -4.453793,-0.502695 0.09003,-0.797643 3.116525,-3.007737 -2.663374,-0.300613 z"
         id="path2058" />
      <path
         d="m 45.938695,86.271018 1.326143,-0.02414 0.05611,3.082852 q 0.0116,0.637237 0.223285,0.909038 0.215069,0.268293 0.686969,0.259704 0.475345,-0.0087 0.677064,-0.28453 0.2051,-0.279387 0.193502,-0.916624 l -0.05611,-3.082852 1.326143,-0.02414 0.05611,3.082852 q 0.01987,1.091915 -0.518089,1.635785 -0.537962,0.54387 -1.660878,0.564308 -1.119471,0.02038 -1.676869,-0.503559 -0.557397,-0.523934 -0.57727,-1.615849 z"
         id="path2060" />
      <path
         d="m 51.197946,86.160686 1.664199,-0.283051 1.616297,2.517259 0.699995,-2.911221 1.660802,-0.282474 0.862441,5.07071 -1.236261,0.210267 -0.630801,-3.708785 -0.703322,2.932754 -0.828703,0.140949 -1.633348,-2.535327 0.630801,3.708785 -1.239658,0.210845 z"
         id="path2062" />
      <path
         d="m 59.461705,84.532678 1.167573,-0.50282 2.294832,3.081543 -0.668457,-3.781947 1.173901,-0.505545 2.288504,3.084268 -0.662129,-3.784672 1.158081,-0.498732 0.920661,5.203736 -1.404885,0.605019 -2.404098,-3.222035 0.698619,3.956506 -1.404884,0.605019 z"
         id="path2064" />
      <path
         d="m 66.495523,81.314222 3.036543,-1.895235 0.530812,0.850465 -1.911356,1.192959 0.507099,0.812472 1.797376,-1.121818 0.530812,0.850465 -1.797377,1.121819 0.623841,0.999517 1.975653,-1.233089 0.530811,0.850466 -3.100839,1.935365 z"
         id="path2066" />
      <path
         d="m 73.17504,79.490824 q 0.323668,-0.262696 0.365067,-0.495963 0.04407,-0.235437 -0.179542,-0.510955 -0.221447,-0.272844 -0.458744,-0.275475 -0.234623,-0.0048 -0.55829,0.257893 l -0.433339,0.351709 0.831509,1.024499 z m 0.144158,1.063241 1.226639,1.511338 -1.02985,0.835851 -3.241366,-3.993677 1.572862,-1.276573 q 0.789106,-0.640457 1.370505,-0.673071 0.584074,-0.03479 1.048677,0.53765 0.321314,0.395891 0.334968,0.806324 0.01633,0.408263 -0.271165,0.841265 0.250398,-0.123363 0.555191,-0.08677 0.305297,0.03175 0.756557,0.237865 l 1.479583,0.680424 -1.096723,0.890128 -1.292295,-0.597271 q -0.390278,-0.180186 -0.631762,-0.166109 -0.238809,0.01191 -0.490253,0.215984 z"
         id="path2068" />
      <path
         d="m 74.180708,75.636496 2.481012,-2.580134 0.722636,0.694874 -1.561676,1.624069 0.690353,0.663832 1.468549,-1.527221 0.722636,0.694875 -1.468549,1.52722 1.57192,1.511531 -0.919336,0.956065 z"
         id="path2070" />
      <path
         d="m 77.271347,72.338993 2.166067,-2.849678 0.798129,0.606665 -1.363434,1.793734 0.762474,0.579563 1.282128,-1.686767 0.79813,0.606665 -1.282128,1.686768 0.938007,0.712988 1.409299,-1.854073 0.798129,0.606665 -2.211932,2.910018 z"
         id="path2072" />
      <path
         d="m 79.949818,68.773952 0.738259,-1.284327 3.990757,0.136247 -3.058492,-1.758084 0.626661,-1.090185 4.459305,2.563301 -0.738259,1.284327 -3.990757,-0.136247 3.058492,1.758084 -0.626661,1.090185 z"
         id="path2074" />
      <path
         d="m 84.960021,60.815445 2.980893,0.982019 0.148758,-0.451551 q 0.254398,-0.772218 0.0052,-1.304081 -0.248092,-0.535135 -0.977772,-0.775519 -0.726409,-0.239307 -1.23964,0.04139 -0.513232,0.280699 -0.768708,1.056189 z m -1.367197,0.946077 0.43765,-1.328477 q 0.366505,-1.112517 0.70578,-1.602868 0.33708,-0.4947 0.844922,-0.759038 0.443668,-0.234698 0.930563,-0.259286 0.486894,-0.02459 1.033336,0.155432 0.552987,0.182175 0.933202,0.492421 0.376943,0.309167 0.59424,0.761613 0.25021,0.517696 0.229447,1.12023 -0.02403,0.601457 -0.386229,1.700886 l -0.43765,1.328477 z"
         id="path2076" />
      <path
         d="m 89.929331,54.251134 -0.374748,2.03981 0.862504,0.491219 -0.24091,1.311307 -4.71462,-2.80318 0.28573,-1.555271 5.403111,-0.944379 -0.240909,1.311307 z m -1.253571,1.542091 0.254604,-1.385851 -2.139694,0.321463 z"
         id="path2078" />
    </g>
    <path
       d="m 57.371656,46.719701 4.777658,-8.427358 -3.815234,-10.348624 -9.691161,7.768403 1.139894,9.395098 3.420015,3.714874 4.168828,-2.102393"
       style="fill:#15a400;fill-opacity:1;fill-rule:evenodd;stroke:#000000;stroke-width:0.335;stroke-miterlimit:4;stroke-dasharray:none"
       id="path918" />
    <path
       d="m 53.202828,48.822094 2.231781,-6.146858 6.714705,-4.382893 -4.777658,8.427358 -4.168828,2.102393"
       style="fill:#00ff00;fill-opacity:1;fill-rule:evenodd;stroke:#000000;stroke-width:0.335;stroke-miterlimit:4;stroke-dasharray:none"
       id="path920" />
    <path
       d="M 55.434609,42.675236 58.33408,27.943719 62.149314,38.292343 Z"
       style="fill:#00ff00;fill-opacity:1;fill-rule:evenodd;stroke:#000000;stroke-width:0.335;stroke-miterlimit:4;stroke-dasharray:none"
       id="path922" />
    <path
       d="m 55.434609,42.675236 -6.79169,-6.963114 1.139894,9.395098 3.420015,3.714874 2.231781,-6.146858"
       style="fill:#00ff00;fill-opacity:1;fill-rule:evenodd;stroke:#000000;stroke-width:0.335;stroke-miterlimit:4;stroke-dasharray:none"
       id="path924" />
    <path
       d="m 52.861429,48.598674 1.649135,-6.524552 -3.563018,-3.999268 -0.177019,8.105378 2.090902,2.418442"
       style="fill:#00ff00;fill-opacity:1;fill-rule:evenodd;stroke:#000000;stroke-width:0.335;stroke-miterlimit:4;stroke-dasharray:none"
       id="path926" />
    <path
       d="M 50.947546,38.074854 57.83155,28.92723 54.510564,42.074122 Z"
       style="fill:#15a400;fill-opacity:1;fill-rule:evenodd;stroke:#000000;stroke-width:0.335;stroke-miterlimit:4;stroke-dasharray:none"
       id="path928" />
    <path
       d="m 58.728963,30.037162 0.727553,10.012769 -2.197094,6.333246 4.072708,-7.606853 -2.603167,-8.739162"
       style="fill:#15a400;fill-opacity:1;fill-rule:evenodd;stroke:#000000;stroke-width:0.335;stroke-miterlimit:4;stroke-dasharray:none"
       id="path930" />
    <path
       d="m 48.642919,35.712122 6.300911,7.210026 -1.741002,5.899946 2.574857,-5.794221 6.371629,-4.73553 -6.344325,3.756941 2.529091,-14.105565 -3.146875,14.021659 -6.544286,-6.253256"
       style="fill:#00ff00;fill-opacity:1;fill-rule:evenodd;stroke:#000000;stroke-width:0.335;stroke-miterlimit:4;stroke-dasharray:none"
       id="path932" />
    <path
       d="M 32.404339,62.627716 29.478797,53.39283 19.298043,49.146424 18.39705,61.532889 l 7.661732,5.557938 5.04968,0.02191 1.295877,-4.485038"
       style="fill:#15a400;fill-opacity:1;fill-rule:evenodd;stroke:#000000;stroke-width:0.335;stroke-miterlimit:4;stroke-dasharray:none"
       id="path934" />
    <path
       d="m 31.108462,67.112754 -2.986414,-5.817939 1.356749,-7.901985 2.925542,9.234886 -1.295877,4.485038"
       style="fill:#00ff00;fill-opacity:1;fill-rule:evenodd;stroke:#000000;stroke-width:0.335;stroke-miterlimit:4;stroke-dasharray:none"
       id="path936" />
    <path
       d="M 28.122048,61.294815 19.298043,49.146424 29.478797,53.39283 Z"
       style="fill:#00ff00;fill-opacity:1;fill-rule:evenodd;stroke:#000000;stroke-width:0.335;stroke-miterlimit:4;stroke-dasharray:none"
       id="path938" />
    <path
       d="m 28.122048,61.294815 -9.724998,0.238074 7.661732,5.557938 5.04968,0.02191 -2.986414,-5.817939"
       style="fill:#15a400;fill-opacity:1;fill-rule:evenodd;stroke:#000000;stroke-width:0.335;stroke-miterlimit:4;stroke-dasharray:none"
       id="path940" />
    <path
       d="m 30.712459,67.210646 -3.659697,-5.647887 -5.355673,-0.110647 5.820269,5.644867 3.195101,0.113667"
       style="fill:#15a400;fill-opacity:1;fill-rule:evenodd;stroke:#000000;stroke-width:0.335;stroke-miterlimit:4;stroke-dasharray:none"
       id="path942" />
    <path
       d="M 21.697089,61.452112 19.67687,50.18386 27.052762,61.562759 Z"
       style="fill:#15a400;fill-opacity:1;fill-rule:evenodd;stroke:#000000;stroke-width:0.335;stroke-miterlimit:4;stroke-dasharray:none"
       id="path944" />
    <path
       d="m 21.101115,50.28153 7.833528,6.280216 3.146762,5.9193 -2.804022,-8.159972 -8.176268,-4.039544"
       style="fill:#15a400;fill-opacity:1;fill-rule:evenodd;stroke:#000000;stroke-width:0.335;stroke-miterlimit:4;stroke-dasharray:none"
       id="path946" />
    <path
       d="m 18.39705,61.532889 9.572035,0.289538 3.139377,5.290327 -2.494516,-5.829353 0.864851,-7.890571 -1.563423,7.204654 -8.617331,-11.45106 8.13528,11.84677 -9.036273,0.539695"
       style="fill:#00ff00;fill-opacity:1;fill-rule:evenodd;stroke:#000000;stroke-width:0.335;stroke-miterlimit:4;stroke-dasharray:none"
       id="path948" />
    <path
       d="m 62.749975,65.51571 13.966403,-15.878369 -1.09256,-16.232905 -13.672896,7.175457 -6.323292,20.287888 2.83323,4.144594 4.289115,0.503335"
       style="fill:#15a400;fill-opacity:1;fill-rule:evenodd;stroke:#000000;stroke-width:0.335;stroke-miterlimit:4;stroke-dasharray:none"
       id="path950" />
    <path
       d="M 58.46086,65.012375 68.444293,50.012019 76.716378,49.637341 62.749975,65.51571 58.46086,65.012375"
       style="fill:#00ff00;fill-opacity:1;fill-rule:evenodd;stroke:#000000;stroke-width:0.335;stroke-miterlimit:4;stroke-dasharray:none"
       id="path952" />
    <path
       d="m 68.444293,50.012019 7.179525,-16.607583 1.09256,16.232905 z"
       style="fill:#00ff00;fill-opacity:1;fill-rule:evenodd;stroke:#000000;stroke-width:0.335;stroke-miterlimit:4;stroke-dasharray:none"
       id="path954" />
    <path
       d="m 68.444293,50.012019 -6.493371,-9.432126 -6.323292,20.287888 2.83323,4.144594 9.983433,-15.000356"
       style="fill:#15a400;fill-opacity:1;fill-rule:evenodd;stroke:#000000;stroke-width:0.335;stroke-miterlimit:4;stroke-dasharray:none"
       id="path956" />
    <path
       d="m 58.161086,64.573817 9.469605,-15.743443 -3.661934,-5.319306 -7.368407,18.779677 1.560736,2.283072"
       style="fill:#15a400;fill-opacity:1;fill-rule:evenodd;stroke:#000000;stroke-width:0.335;stroke-miterlimit:4;stroke-dasharray:none"
       id="path958" />
    <path
       d="M 63.968757,43.511068 74.57456,34.496693 67.630691,48.830374 Z"
       style="fill:#15a400;fill-opacity:1;fill-rule:evenodd;stroke:#000000;stroke-width:0.335;stroke-miterlimit:4;stroke-dasharray:none"
       id="path960" />
    <path
       d="M 75.121066,36.340984 73.753015,49.77137 62.77314,65.023452 75.784502,49.679297 75.121066,36.340984"
       style="fill:#15a400;fill-opacity:1;fill-rule:evenodd;stroke:#000000;stroke-width:0.335;stroke-miterlimit:4;stroke-dasharray:none"
       id="path962" />
    <path
       d="m 61.950922,40.579893 5.798939,9.55407 -9.289001,14.878412 10.225467,-14.390179 8.030051,-0.984855 -7.544643,-0.299382 6.452083,-15.933523 -7.143381,15.564328 -6.529515,-8.388871"
       style="fill:#00ff00;fill-opacity:1;fill-rule:evenodd;stroke:#000000;stroke-width:0.335;stroke-miterlimit:4;stroke-dasharray:none"
       id="path964" />
    <path
       d="M 52.282923,64.078425 58.216029,38.035248 47.218137,20.67328 36.36504,36.877771 l 5.209469,26.332491 5.643628,2.893474 5.064786,-2.025311"
       style="fill:#15a400;fill-opacity:1;fill-rule:evenodd;stroke:#000000;stroke-width:0.335;stroke-miterlimit:4;stroke-dasharray:none"
       id="path966" />
    <path
       d="M 47.218137,66.103736 49.2588,43.436 l 8.957229,-5.400752 -5.933106,26.043177 -5.064786,2.025311"
       style="fill:#00ff00;fill-opacity:1;fill-rule:evenodd;stroke:#000000;stroke-width:0.335;stroke-miterlimit:4;stroke-dasharray:none"
       id="path968" />
    <path
       d="M 49.2588,43.436 47.218137,20.67328 58.216029,38.035248 Z"
       style="fill:#00ff00;fill-opacity:1;fill-rule:evenodd;stroke:#000000;stroke-width:0.335;stroke-miterlimit:4;stroke-dasharray:none"
       id="path970" />
    <path
       d="M 49.2588,43.436 36.36504,36.877771 41.574509,63.210262 47.218137,66.103736 49.2588,43.436"
       style="fill:#15a400;fill-opacity:1;fill-rule:evenodd;stroke:#000000;stroke-width:0.335;stroke-miterlimit:4;stroke-dasharray:none"
       id="path972" />
    <path
       d="m 46.621167,65.79764 1.02229,-23.183376 -7.271504,-3.698431 3.140385,25.287894 3.108829,1.593913"
       style="fill:#15a400;fill-opacity:1;fill-rule:evenodd;stroke:#000000;stroke-width:0.335;stroke-miterlimit:4;stroke-dasharray:none"
       id="path974" />
    <path
       d="m 40.371953,38.915833 6.339851,-16.397701 0.931653,20.096132 z"
       style="fill:#15a400;fill-opacity:1;fill-rule:evenodd;stroke:#000000;stroke-width:0.335;stroke-miterlimit:4;stroke-dasharray:none"
       id="path976" />
    <path
       d="m 48.430204,24.236227 6.577184,15.733822 -2.99548,23.54776 5.195146,-24.874062 -8.77685,-14.40752"
       style="fill:#15a400;fill-opacity:1;fill-rule:evenodd;stroke:#000000;stroke-width:0.335;stroke-miterlimit:4;stroke-dasharray:none"
       id="path978" />
    <path
       d="m 36.36504,36.877771 12.196641,7.11202 -1.343544,22.113945 2.677354,-22.136319 8.320538,-5.932169 -8.555742,4.214184 -2.44215,-21.576152 1.452197,21.582752 -12.305294,-5.378261"
       style="fill:#00ff00;fill-opacity:1;fill-rule:evenodd;stroke:#000000;stroke-width:0.335;stroke-miterlimit:4;stroke-dasharray:none"
       id="path980" />
    <path
       d="m 46.461266,64.471561 -8.46589,-19.377207 -15.1687,-5.889766 0.706047,15.423029 15.699561,14.32417 4.955463,-0.809427 2.273519,-3.670799"
       style="fill:#15a400;fill-opacity:1;fill-rule:evenodd;stroke:#000000;stroke-width:0.335;stroke-miterlimit:4;stroke-dasharray:none"
       id="path982" />
    <path
       d="m 44.187747,68.14236 -9.358491,-15.397858 3.16612,-7.650148 8.46589,19.377207 -2.273519,3.670799"
       style="fill:#00ff00;fill-opacity:1;fill-rule:evenodd;stroke:#000000;stroke-width:0.335;stroke-miterlimit:4;stroke-dasharray:none"
       id="path984" />
    <path
       d="m 34.829256,52.744502 -12.00258,-13.539914 15.1687,5.889766 z"
       style="fill:#00ff00;fill-opacity:1;fill-rule:evenodd;stroke:#000000;stroke-width:0.335;stroke-miterlimit:4;stroke-dasharray:none"
       id="path986" />
    <path
       d="M 34.829256,52.744502 23.532723,54.627617 39.232284,68.951787 44.187747,68.14236 34.829256,52.744502"
       style="fill:#15a400;fill-opacity:1;fill-rule:evenodd;stroke:#000000;stroke-width:0.335;stroke-miterlimit:4;stroke-dasharray:none"
       id="path988" />
    <path
       d="M 43.663399,68.227944 33.413873,52.980451 27.043251,54.042388 40.933675,68.673885 43.663399,68.227944"
       style="fill:#15a400;fill-opacity:1;fill-rule:evenodd;stroke:#000000;stroke-width:0.335;stroke-miterlimit:4;stroke-dasharray:none"
       id="path990" />
    <path
       d="M 27.043251,54.042388 23.371569,40.617593 33.413873,52.980451 Z"
       style="fill:#15a400;fill-opacity:1;fill-rule:evenodd;stroke:#000000;stroke-width:0.335;stroke-miterlimit:4;stroke-dasharray:none"
       id="path992" />
    <path
       d="M 25.273938,40.904334 36.86119,47.834891 46.025092,64.241989 37.638761,45.956254 25.273938,40.904334"
       style="fill:#15a400;fill-opacity:1;fill-rule:evenodd;stroke:#000000;stroke-width:0.335;stroke-miterlimit:4;stroke-dasharray:none"
       id="path994" />
    <path
       d="M 23.532723,54.627617 34.645521,53.424939 44.187747,68.14236 35.484636,52.783772 37.995376,45.094354 34.527022,51.799925 22.826676,39.204588 33.899505,52.269473 23.532723,54.627617"
       style="fill:#00ff00;fill-opacity:1;fill-rule:evenodd;stroke:#000000;stroke-width:0.335;stroke-miterlimit:4;stroke-dasharray:none"
       id="path996" />
    <path
       d="m 57.189711,71.250415 3.704008,-9.403601 -10.294173,-8.935837 -11.519554,10.094326 5.783388,8.739384 6.838686,2.654617 5.487645,-3.148889"
       style="fill:#15a400;fill-opacity:1;fill-rule:evenodd;stroke:#000000;stroke-width:0.335;stroke-miterlimit:4;stroke-dasharray:none"
       id="path998" />
    <path
       d="m 51.702066,74.399304 0.780818,-6.520976 8.410835,-6.031514 -3.704008,9.403601 -5.487645,3.148889"
       style="fill:#00ff00;fill-opacity:1;fill-rule:evenodd;stroke:#000000;stroke-width:0.335;stroke-miterlimit:4;stroke-dasharray:none"
       id="path1000" />
    <path
       d="M 52.482884,67.878328 50.599546,52.910977 60.893719,61.846814 Z"
       style="fill:#00ff00;fill-opacity:1;fill-rule:evenodd;stroke:#000000;stroke-width:0.335;stroke-miterlimit:4;stroke-dasharray:none"
       id="path1002" />
    <path
       d="m 52.482884,67.878328 -13.402892,-4.873025 5.783388,8.739384 6.838686,2.654617 0.780818,-6.520976"
       style="fill:#15a400;fill-opacity:1;fill-rule:evenodd;stroke:#000000;stroke-width:0.335;stroke-miterlimit:4;stroke-dasharray:none"
       id="path1004" />
    <path
       d="m 51.082941,74.276104 -0.274818,-6.727253 -7.180084,-2.889894 3.210545,7.852513 4.244357,1.764634"
       style="fill:#15a400;fill-opacity:1;fill-rule:evenodd;stroke:#000000;stroke-width:0.335;stroke-miterlimit:4;stroke-dasharray:none"
       id="path1006" />
    <path
       d="m 43.628039,64.658957 6.623733,-10.665461 0.556351,13.555355 z"
       style="fill:#15a400;fill-opacity:1;fill-rule:evenodd;stroke:#000000;stroke-width:0.335;stroke-miterlimit:4;stroke-dasharray:none"
       id="path1008" />
    <path
       d="m 52.104447,54.820379 5.416255,9.445217 -0.647659,6.691139 2.975672,-8.423442 -7.744268,-7.712914"
       style="fill:#15a400;fill-opacity:1;fill-rule:evenodd;stroke:#000000;stroke-width:0.335;stroke-miterlimit:4;stroke-dasharray:none"
       id="path1010" />
    <path
       d="m 39.079992,63.005303 12.756685,5.243226 -0.134611,6.150775 1.458239,-6.273838 7.733414,-6.278652 -8.111736,5.328928 -2.182437,-14.264765 1.199199,14.350575 -12.718753,-4.256249"
       style="fill:#00ff00;fill-opacity:1;fill-rule:evenodd;stroke:#000000;stroke-width:0.335;stroke-miterlimit:4;stroke-dasharray:none"
       id="path1012" />
    <path
       style="fill:#ff0000;fill-opacity:1;stroke:none;stroke-width:2.60614;stroke-linejoin:round;stroke-miterlimit:4;stroke-dasharray:none;stroke-dashoffset:0;stroke-opacity:1"
       d="m 62.653825,24.662542 c -4.470185,2.86324 -6.862486,7.91058 -10.486527,11.67436 -2.889433,2.15972 -4.651266,10.51418 -8.415343,5.80635 -4.808464,-3.53915 -9.985331,-6.63324 -15.582848,-8.70092 -1.418855,4.60964 4.334207,6.28204 6.924694,8.75253 3.104454,1.95482 9.000205,4.52832 6.654606,9.19618 -3.427891,5.32441 -6.163456,11.11728 -10.134449,16.09101 -0.520744,5.17009 6.534519,2.48724 6.861122,-1.13704 3.138516,-4.28451 5.851215,-9.84119 9.944541,-12.65644 3.409512,0.15794 4.686925,3.99352 7.301441,5.7189 2.620536,2.50862 5.259677,5.00118 8.029337,7.34112 5.071173,0.72436 3.629589,-6.34945 0.176959,-7.65271 -4.198234,-3.19124 -7.965924,-6.90079 -11.940624,-10.36481 -1.147707,-4.58324 3.578238,-7.47906 5.084329,-11.31549 1.845905,-3.79572 4.722359,-6.92039 6.777918,-10.56804 0.706169,-1.08472 0.151629,-2.39103 -1.195156,-2.185 z"
       id="path4395"
       inkscape:connector-curvature="0" />
  </g>
  <metadata
     id="metadata1">
    <rdf:RDF>
      <cc:Work
         rdf:about="">
        <dc:title>Antiesoterische Aktion</dc:title>
        <dc:date>2023-08-22</dc:date>
        <dc:creator>
          <cc:Agent>
            <dc:title>Tido Klaassen</dc:title>
          </cc:Agent>
        </dc:creator>
        <cc:license
           rdf:resource="http://creativecommons.org/licenses/by-sa/4.0/" />
        <dc:contributor>
          <cc:Agent>
            <dc:title>https://publicdomainvectors.org/en/free-clipart/Crystal-minerals/68103.html&#10;https://freesvg.org/cross-gradient&#10;</dc:title>
          </cc:Agent>
        </dc:contributor>
      </cc:Work>
      <cc:License
         rdf:about="http://creativecommons.org/licenses/by-sa/4.0/">
        <cc:permits
           rdf:resource="http://creativecommons.org/ns#Reproduction" />
        <cc:permits
           rdf:resource="http://creativecommons.org/ns#Distribution" />
        <cc:requires
           rdf:resource="http://creativecommons.org/ns#Notice" />
        <cc:requires
           rdf:resource="http://creativecommons.org/ns#Attribution" />
        <cc:permits
           rdf:resource="http://creativecommons.org/ns#DerivativeWorks" />
        <cc:requires
           rdf:resource="http://creativecommons.org/ns#ShareAlike" />
      </cc:License>
    </rdf:RDF>
  </metadata>
</svg>
