<?xml version="1.0" encoding="UTF-8" standalone="no"?>
<!-- Created with Inkscape (http://www.inkscape.org/) -->

<svg
   xmlns:dc="http://purl.org/dc/elements/1.1/"
   xmlns:cc="http://creativecommons.org/ns#"
   xmlns:rdf="http://www.w3.org/1999/02/22-rdf-syntax-ns#"
   xmlns:svg="http://www.w3.org/2000/svg"
   xmlns="http://www.w3.org/2000/svg"
   xmlns:sodipodi="http://sodipodi.sourceforge.net/DTD/sodipodi-0.dtd"
   xmlns:inkscape="http://www.inkscape.org/namespaces/inkscape"
   width="52mm"
   height="37mm"
   viewBox="0 0 184.25197 131.10236"
   id="svg10590"
   version="1.1"
   inkscape:version="0.91 r13725"
   sodipodi:docname="kein_backup.svg">
  <defs
     id="defs10592" />
  <sodipodi:namedview
     id="base"
     pagecolor="#ffffff"
     bordercolor="#666666"
     borderopacity="1.0"
     inkscape:pageopacity="0.0"
     inkscape:pageshadow="2"
     inkscape:zoom="2.8"
     inkscape:cx="47.627599"
     inkscape:cy="85.502959"
     inkscape:document-units="mm"
     inkscape:current-layer="text12604"
     showgrid="false"
     width="9mm"
     showguides="true"
     inkscape:guide-bbox="true"
     inkscape:window-width="1920"
     inkscape:window-height="1018"
     inkscape:window-x="-8"
     inkscape:window-y="-8"
     inkscape:window-maximized="1" />
  <metadata
     id="metadata10595">
    <rdf:RDF>
      <cc:Work
         rdf:about="">
        <dc:format>image/svg+xml</dc:format>
        <dc:type
           rdf:resource="http://purl.org/dc/dcmitype/StillImage" />
        <dc:title></dc:title>
      </cc:Work>
    </rdf:RDF>
  </metadata>
  <g
     inkscape:groupmode="layer"
     id="layer1"
     inkscape:label="floppy"
     transform="translate(0,-53.149606)"
     sodipodi:insensitive="true">
    <g
       transform="matrix(0.44366398,0,0,0.44366398,69.546286,95.450875)"
       id="g3">
      <g
         id="g12613">
        <g
           id="g12620">
          <path
             style="fill:#000000"
             inkscape:connector-curvature="0"
             d="m 84.88968,12.596613 -3.385,0 -38.651,0 -29.759,0 c -2.868,0 -5.2010003,2.333001 -5.2010003,5.201001 l 0,75.6 c 0,2.866 2.3330003,5.199 5.2010003,5.199 l 3.199,0 69.061,0 3.34,0 c 2.867,0 5.199,-2.333 5.199,-5.199 l 0,-71.796 -9.004,-9.005001 z m -5.385,2.000001 0,15.802 c 0,1.764 -1.436,3.198 -3.199,3.198 l -29.25,0 c -1.766,0 -3.202,-1.435 -3.202,-3.198 l 0,-15.802 35.651,0 z m -61.211,82 0,-45.251 c 0,-1.764 1.437,-3.199 3.201,-3.199 l 58.66,0 c 1.764,0 3.199,1.435 3.199,3.199 l 0,45.251 -65.06,0 z m 73.6,-3.199 c 0,1.764 -1.436,3.199 -3.199,3.199 l -3.34,0 0,-45.251 c 0,-2.867 -2.332,-5.199 -5.199,-5.199 l -58.66,0 c -2.868,0 -5.201,2.333 -5.201,5.199 l 0,45.251 -3.199,0 c -1.765,0 -3.2020003,-1.435 -3.2020003,-3.199 l 0,-75.6 c 0,-1.765 1.4370003,-3.201 3.2010003,-3.201 l 28.759,0 0,15.802 c 0,2.866 2.334,5.198 5.202,5.198 l 29.25,0 c 2.867,0 5.199,-2.332 5.199,-5.198 l 0,-15.802 2.557,0 7.832,7.833 0,70.968 z"
             id="path5" />
          <rect
             height="12.473"
             width="4.2090001"
             x="71.351997"
             y="12.603493"
             id="rect7" />
          <rect
             height="2"
             width="47.25"
             x="26.375"
             y="54.25"
             id="rect9" />
          <rect
             height="2"
             width="47.25"
             x="26.375"
             y="63.875"
             id="rect11" />
          <rect
             height="2"
             width="47.25"
             x="26.375"
             y="72.625"
             id="rect13" />
        </g>
      </g>
    </g>
  </g>
  <g
     inkscape:groupmode="layer"
     id="layer2"
     inkscape:label="kein backup"
     transform="translate(0,-53.149606)"
     sodipodi:insensitive="true">
    <g
       style="font-style:normal;font-variant:normal;font-weight:normal;font-stretch:normal;font-size:27.42875099px;line-height:125%;font-family:'Eras Light ITC';-inkscape-font-specification:'Eras Light ITC, Normal';text-align:start;letter-spacing:0px;word-spacing:0px;writing-mode:lr-tb;text-anchor:start;fill:#000000;fill-opacity:1;stroke:#000000;stroke-width:0.14173228;stroke-linecap:butt;stroke-linejoin:miter;stroke-miterlimit:4;stroke-dasharray:none;stroke-opacity:1"
       id="text12604">
      <path
         d="m 25.315281,93.240211 q 0.174108,-2.745553 0.294644,-6.093789 l 0.214287,-6.817009 q 0.107144,-3.468773 0.107144,-5.370571 0.348217,0.01339 0.549111,0.01339 0.200894,0 0.549111,-0.01339 l -0.160716,2.678589 -0.441967,12.683119 -0.05357,2.919661 q -0.361609,-0.01339 -0.535718,-0.01339 -0.174108,0 -0.522324,0.01339 z m 1.36608,-7.513442 3.642881,-3.495558 1.1384,-1.125008 q 0.267859,-0.281251 0.522325,-0.562503 0.267859,-0.281252 0.776791,-0.830363 0.334824,0.01339 0.696433,0.01339 0.36161,0 0.68304,-0.01339 l -4.727709,4.486637 q -0.642862,0.589289 -1.580368,1.526795 l 4.848246,5.236642 2.169657,2.2768 q -0.334823,-0.01339 -0.669647,-0.01339 -0.361609,0 -0.68304,0.01339 l -2.825911,-3.174127 -3.991098,-4.339315 z"
         id="path12651"
         inkscape:connector-curvature="0" />
      <path
         d="m 46.797564,91.941096 q -0.107144,0.495539 -0.160716,1.004471 -1.111614,0.32143 -1.995548,0.441967 -0.883935,0.133929 -1.808048,0.133929 -1.607153,0 -2.852697,-0.428574 -1.232151,-0.441967 -2.116086,-1.446438 -0.883934,-1.017864 -1.258936,-2.276801 -0.375003,-1.258936 -0.375003,-2.678589 0,-1.861619 0.642862,-3.482165 0.642861,-1.633939 2.116085,-2.705375 1.473224,-1.071436 3.656274,-1.071436 1.50001,0 2.718768,0.562504 1.218758,0.549111 1.888405,1.808048 0.68304,1.258936 0.68304,2.986626 0,0.321431 -0.02679,0.616076 l -10.593819,0.01339 q -0.06697,0.870541 -0.06697,1.312508 0,1.27233 0.375002,2.464302 0.375003,1.191972 1.125008,1.995549 0.763398,0.803577 1.82144,1.191972 1.058043,0.388395 2.236622,0.388395 1.794655,0 3.991098,-0.830362 z m -9.361669,-7.258976 9.522384,0.01339 q -0.01339,-0.924114 -0.107144,-1.419652 -0.09375,-0.495539 -0.348216,-1.017864 -0.254466,-0.522325 -0.616076,-0.897328 -0.348216,-0.388395 -0.830362,-0.642861 -0.468753,-0.267859 -1.058043,-0.401788 -0.589289,-0.13393 -1.232151,-0.13393 -0.709826,0 -1.392866,0.160716 -0.68304,0.160715 -1.245544,0.441967 -0.562504,0.281252 -1.058043,0.723219 -0.482146,0.428574 -0.803576,0.937506 -0.308038,0.508932 -0.482146,0.977685 -0.160716,0.45536 -0.348217,1.258937 z"
         id="path12653"
         inkscape:connector-curvature="0" />
      <path
         d="m 51.083306,76.284743 0.04018,-1.325901 q 0.334823,0.01339 0.68304,0.01339 0.348216,0 0.68304,-0.01339 l -0.04018,1.325901 q -0.334823,-0.02679 -0.68304,-0.02679 -0.348217,0 -0.68304,0.02679 z M 50.60116,93.240211 q 0.147322,-2.008941 0.334823,-7.00451 0.200895,-4.995568 0.200895,-6.522364 0.348216,0.01339 0.535717,0.01339 0.200895,0 0.549111,-0.01339 -0.187501,2.54466 -0.375002,6.937546 -0.174109,4.392886 -0.174109,6.589328 -0.348216,-0.01339 -0.535717,-0.01339 -0.187502,0 -0.535718,0.01339 z"
         id="path12655"
         inkscape:connector-curvature="0" />
      <path
         d="m 55.55655,93.240211 0.45536,-8.183089 0.120536,-3.843775 q 0.02679,-1.031257 0.02679,-1.50001 0.348217,0.01339 0.522325,0.01339 0.160715,0 0.508932,-0.01339 l -0.174109,3.053592 q 0.294645,-0.629469 0.482147,-0.950899 0.200894,-0.334824 0.535717,-0.709827 0.334824,-0.375002 0.790184,-0.696433 0.468753,-0.334823 1.111614,-0.54911 0.656255,-0.22768 1.339295,-0.321431 0.68304,-0.107144 1.352687,-0.107144 1.125008,0 2.18305,0.254466 1.058043,0.254466 1.754476,0.883935 0.696433,0.616075 0.950899,1.433045 0.267859,0.803576 0.267859,1.72769 0,0.415181 -0.04018,1.232151 l -0.281252,6.093789 -0.05357,2.18305 q -0.267859,-0.01339 -0.522325,-0.01339 -0.254466,0 -0.508932,0.01339 0.133929,-1.674118 0.214287,-3.200913 l 0.187501,-3.428594 q 0.107144,-1.901798 0.107144,-2.745554 0,-0.883934 -0.254466,-1.580367 -0.254466,-0.696434 -0.883934,-1.151794 -0.616076,-0.468753 -1.473224,-0.669647 -0.857149,-0.214287 -1.767869,-0.214287 -1.27233,0 -2.250015,0.348217 -0.924113,0.334823 -1.620546,0.991077 -0.696433,0.642862 -1.1384,1.63394 -0.334824,0.723219 -0.508932,2.022334 -0.160716,1.125008 -0.267859,3.68306 -0.09375,2.54466 -0.09375,4.312528 -0.348216,-0.01339 -0.535718,-0.01339 -0.187501,0 -0.535717,0.01339 z"
         id="path12657"
         inkscape:connector-curvature="0" />
      <path
         d="m 78.445094,93.240211 0.281252,-4.406278 0.388395,-11.491147 q 0.01339,-0.656254 0.01339,-1.285723 l -0.01339,-1.098221 2.77234,0.01339 2.906269,-0.01339 q 1.379473,0 2.075906,0.120536 0.709826,0.120537 1.285723,0.428575 0.589289,0.308037 1.044649,0.830362 0.45536,0.522325 0.683041,1.245544 0.241073,0.723219 0.241073,1.513403 0,0.656254 -0.160716,1.27233 -0.147322,0.602682 -0.482146,1.151793 -0.334823,0.549111 -0.790184,0.977685 -0.441967,0.415181 -0.870541,0.656254 -0.415181,0.241073 -1.098221,0.522325 0.68304,0.214287 1.084828,0.388395 0.415181,0.174109 0.830363,0.441967 0.415181,0.267859 0.736612,0.629469 0.334823,0.361609 0.562503,0.81697 0.22768,0.441967 0.36161,1.017863 0.133929,0.562504 0.133929,1.178579 0,1.245544 -0.508932,2.276801 -0.495539,1.017864 -1.500009,1.714297 -0.991078,0.696433 -2.129479,0.897327 -1.125007,0.200894 -2.491087,0.200894 l -3.241093,-0.01339 -2.116085,0.01339 z m 1.526795,-9.897386 2.638411,0 q 2.075906,0 2.772339,-0.107143 0.897327,-0.147323 1.714297,-0.562504 0.549111,-0.294645 1.017864,-0.843756 0.468753,-0.54911 0.736612,-1.285722 0.267859,-0.750005 0.267859,-1.553582 0,-0.776791 -0.267859,-1.36608 -0.254466,-0.602683 -0.763398,-1.031257 -0.495539,-0.428574 -1.165186,-0.616075 -0.656255,-0.187502 -2.062514,-0.187502 l -4.620566,0 -0.267859,7.553621 z m -0.334823,9.053631 3.883954,0 q 1.834833,0 2.665196,-0.214287 0.830362,-0.214287 1.580367,-0.696433 0.750005,-0.495539 1.191972,-1.433045 0.45536,-0.950899 0.45536,-1.995549 0,-1.004471 -0.415181,-1.781262 -0.415181,-0.790184 -1.151793,-1.285723 -0.736612,-0.508931 -1.580368,-0.656254 -0.843755,-0.147322 -1.995548,-0.147322 l -4.352707,0 -0.281252,8.209875 z"
         id="path12659"
         inkscape:connector-curvature="0" />
      <path
         d="m 94.101443,81.132989 q 0.09375,-0.45536 0.147322,-1.044649 1.366081,-0.375003 2.370552,-0.508932 1.004471,-0.147323 2.035727,-0.147323 1.191972,0 2.209836,0.214287 1.03126,0.200895 1.67412,0.696434 0.65625,0.482146 0.85715,1.111614 0.21428,0.629468 0.21428,1.285723 0,0.669647 -0.0536,1.700904 -0.0402,1.017864 -0.12053,2.196443 -0.0804,1.178579 -0.14733,2.946448 -0.067,1.754475 -0.067,2.531266 l 0,1.125007 q -0.34822,-0.01339 -0.56251,-0.01339 -0.22768,0 -0.5625,0.01339 0.1875,-2.04912 0.25447,-3.32145 0.0803,-1.27233 0.12053,-2.732161 0.0536,-1.473224 0.13393,-2.745553 -0.41518,0.348216 -0.64286,0.522325 -0.21429,0.160715 -0.48214,0.294644 -0.25447,0.13393 -0.62947,0.281252 -0.36161,0.13393 -0.66965,0.241073 -0.308038,0.09375 -1.50001,0.415182 -1.178579,0.32143 -1.687511,0.482146 -1.151793,0.375002 -1.781262,0.709826 -0.68304,0.361609 -1.1384,0.803576 -0.401788,0.388396 -0.589289,0.81697 -0.214288,0.508932 -0.214288,1.084828 0,0.870542 0.522325,1.513403 0.522325,0.642862 1.312509,0.91072 0.803577,0.254466 1.928584,0.254466 0.562504,0 1.084828,-0.05357 0.522325,-0.06697 0.977685,-0.160716 0.468754,-0.107143 1.339299,-0.388395 -0.12054,0.508932 -0.2009,1.017864 -1.084827,0.214287 -1.767867,0.267859 -0.669647,0.06696 -1.27233,0.06696 -1.125007,0 -2.075906,-0.174108 -0.950899,-0.174108 -1.593761,-0.68304 -0.642861,-0.508932 -0.950899,-1.178579 -0.308037,-0.669648 -0.308037,-1.406259 0,-0.562504 0.187501,-1.084829 0.187501,-0.535718 0.575896,-1.017864 0.321431,-0.401788 0.857149,-0.750005 0.629468,-0.428574 1.392866,-0.723219 0.883935,-0.348216 1.901798,-0.642861 0.281252,-0.08036 2.209836,-0.575897 0.870544,-0.22768 1.647334,-0.562503 0.77679,-0.348217 1.20536,-0.9509 0.42858,-0.616075 0.42858,-1.245543 0,-0.45536 -0.2009,-0.870542 -0.20089,-0.428574 -0.72322,-0.803576 -0.50893,-0.375003 -1.27233,-0.522325 -0.763393,-0.147323 -1.607149,-0.147323 -0.977685,0 -1.834833,0.13393 -0.857149,0.120536 -1.446438,0.294645 -0.58929,0.160715 -1.486617,0.522324 z"
         id="path12661"
         inkscape:connector-curvature="0" />
      <path
         d="m 116.33373,92.168776 q -0.13393,0.549111 -0.1875,1.017864 -1.7009,0.334823 -3.17413,0.334823 -1.39286,0 -2.61162,-0.388395 -1.20537,-0.388395 -2.07591,-1.245544 -0.87054,-0.870541 -1.29911,-2.169657 -0.41518,-1.312509 -0.41518,-2.745554 0,-1.95537 0.65625,-3.723238 0.66965,-1.767869 2.11609,-2.785733 1.45983,-1.031257 3.93752,-1.031257 1.80805,0 3.44199,0.495539 0.0134,0.441968 0.0937,0.937506 -1.39287,-0.428574 -2.18305,-0.54911 -0.79019,-0.13393 -1.44644,-0.13393 -1.40626,0 -2.49109,0.549111 -1.08483,0.535718 -1.80804,1.526796 -0.70983,0.991078 -1.01787,2.223229 -0.29464,1.218758 -0.29464,2.450908 0,1.325902 0.33482,2.477695 0.33482,1.151794 1.07144,1.875013 0.73661,0.723219 1.80804,1.111614 1.07144,0.375002 2.25002,0.375002 0.65625,0 1.39286,-0.120536 0.73662,-0.13393 1.9018,-0.482146 z"
         id="path12663"
         inkscape:connector-curvature="0" />
      <path
         d="m 119.60161,93.240211 q 0.17411,-2.745553 0.29465,-6.093789 l 0.21428,-6.817009 q 0.10715,-3.468773 0.10715,-5.370571 0.34821,0.01339 0.54911,0.01339 0.20089,0 0.54911,-0.01339 l -0.16072,2.678589 -0.44196,12.683119 -0.0536,2.919661 q -0.36161,-0.01339 -0.53571,-0.01339 -0.17411,0 -0.52233,0.01339 z m 1.36608,-7.513442 3.64288,-3.495558 1.1384,-1.125008 q 0.26786,-0.281251 0.52233,-0.562503 0.26786,-0.281252 0.77679,-0.830363 0.33482,0.01339 0.69643,0.01339 0.36161,0 0.68304,-0.01339 l -4.72771,4.486637 q -0.64286,0.589289 -1.58036,1.526795 l 4.84824,5.236642 2.16966,2.2768 q -0.33483,-0.01339 -0.66965,-0.01339 -0.36161,0 -0.68304,0.01339 l -2.82591,-3.174127 -3.9911,-4.339315 z"
         id="path12665"
         inkscape:connector-curvature="0" />
      <path
         d="m 142.69105,93.240211 q -0.26786,-0.01339 -0.49554,-0.01339 -0.22768,0 -0.49554,0.01339 l 0.10714,-2.906269 q -0.30803,0.683041 -0.50893,0.991078 -0.1875,0.294645 -0.49554,0.629469 -0.30803,0.334823 -0.77679,0.642861 -0.45536,0.294645 -1.08483,0.508932 -0.62946,0.214287 -1.29911,0.308038 -0.65626,0.09375 -1.3259,0.09375 -1.1518,0 -2.15627,-0.254466 -0.99107,-0.254466 -1.76787,-0.883934 -0.76339,-0.629468 -1.04465,-1.459831 -0.28125,-0.843755 -0.28125,-1.901798 0,-0.81697 0.17411,-4.031276 0.1875,-3.2277 0.1875,-5.263428 0.34822,0.01339 0.52233,0.01339 0.17411,0 0.52232,-0.01339 -0.10714,1.151793 -0.32143,4.781282 -0.20089,3.629488 -0.20089,4.540208 0,1.017864 0.26786,1.72769 0.26786,0.709826 0.92411,1.178579 0.66965,0.45536 1.50001,0.642861 0.84375,0.187501 1.72769,0.187501 0.92411,0 1.76787,-0.22768 0.85715,-0.241073 1.41965,-0.589289 0.5625,-0.348217 0.99108,-0.857149 0.49554,-0.589289 0.84375,-1.36608 0.30804,-0.68304 0.45536,-1.687511 0.14733,-1.017864 0.25447,-3.669667 0.0937,-2.54466 0.10714,-4.660745 0.36161,0.01339 0.53572,0.01339 0.17411,0 0.52233,-0.01339 l -0.49554,9.375062 -0.0536,2.022334 q -0.0268,1.245544 -0.0268,2.129478 z"
         id="path12667"
         inkscape:connector-curvature="0" />
      <path
         d="m 146.28036,99.186679 0.16071,-2.705375 0.42858,-12.134008 0.0937,-4.071455 q 1.74108,-0.468753 3.0402,-0.656254 1.3125,-0.187502 2.54465,-0.187502 1.95537,0 3.37503,0.669648 1.43304,0.656254 2.22323,2.263407 0.79018,1.607154 0.79018,3.656274 0,2.169657 -0.84376,3.977705 -0.83036,1.808047 -2.2634,2.665196 -1.41966,0.843755 -3.17413,0.843755 -0.79019,0 -1.55358,-0.174108 -0.7634,-0.174108 -1.40626,-0.522325 -0.62947,-0.361609 -1.08483,-0.870541 -0.44197,-0.522325 -1.03126,-1.620546 l -0.21428,7.09826 0,0.45536 q 0,0.455361 0.0134,1.312509 -0.34822,-0.01339 -0.54911,-0.01339 -0.2009,0 -0.54911,0.01339 z m 1.71429,-18.080476 q -0.10714,1.138401 -0.20089,3.254486 -0.0804,2.116085 -0.0804,2.799126 0,1.165186 0.24107,2.169657 0.24108,0.991078 0.9643,1.82144 0.72322,0.81697 1.7009,1.232151 0.99108,0.415181 2.04912,0.415181 1.5134,0 2.71877,-0.816969 1.20536,-0.81697 1.86162,-2.41073 0.66965,-1.607154 0.66965,-3.495559 0,-1.888405 -0.68304,-3.267879 -0.68304,-1.379473 -1.86162,-1.995548 -1.16519,-0.629469 -2.65181,-0.629469 -2.23662,0 -4.72771,0.924113 z"
         id="path12669"
         inkscape:connector-curvature="0" />
    </g>
  </g>
  <g
     inkscape:groupmode="layer"
     id="layer3"
     inkscape:label="kein mitleid"
     transform="translate(0,-53.149606)"
     sodipodi:insensitive="true">
    <g
       style="font-style:normal;font-variant:normal;font-weight:normal;font-stretch:normal;font-size:27.42875099px;line-height:125%;font-family:'Eras Light ITC';-inkscape-font-specification:'Eras Light ITC, Normal';text-align:start;letter-spacing:0px;word-spacing:0px;writing-mode:lr-tb;text-anchor:start;fill:#000000;fill-opacity:1;stroke:#000000;stroke-width:0.14173228;stroke-linecap:butt;stroke-linejoin:miter;stroke-miterlimit:4;stroke-dasharray:none;stroke-opacity:1"
       id="text12609">
      <path
         d="m 29.962633,162.16148 q 0.174108,-2.74555 0.294645,-6.09379 l 0.214287,-6.81701 q 0.107143,-3.46877 0.107143,-5.37057 0.348217,0.0134 0.549111,0.0134 0.200894,0 0.549111,-0.0134 l -0.160716,2.67859 -0.441967,12.68312 -0.05357,2.91966 q -0.361609,-0.0134 -0.535717,-0.0134 -0.174109,0 -0.522325,0.0134 z m 1.36608,-7.51344 3.642881,-3.49556 1.1384,-1.125 q 0.267859,-0.28126 0.522325,-0.56251 0.267859,-0.28125 0.776791,-0.83036 0.334824,0.0134 0.696433,0.0134 0.36161,0 0.68304,-0.0134 l -4.727709,4.48664 q -0.642861,0.58929 -1.580368,1.52679 l 4.848246,5.23664 2.169658,2.2768 q -0.334824,-0.0134 -0.669648,-0.0134 -0.361609,0 -0.68304,0.0134 l -2.825911,-3.17412 -3.991098,-4.33932 z"
         id="path12628"
         inkscape:connector-curvature="0" />
      <path
         d="m 51.444916,160.86237 q -0.107144,0.49554 -0.160715,1.00447 -1.111615,0.32143 -1.995549,0.44197 -0.883935,0.13393 -1.808048,0.13393 -1.607153,0 -2.852697,-0.42858 -1.232151,-0.44197 -2.116085,-1.44644 -0.883935,-1.01786 -1.258937,-2.2768 -0.375003,-1.25893 -0.375003,-2.67859 0,-1.86162 0.642862,-3.48216 0.642861,-1.63394 2.116085,-2.70538 1.473224,-1.07143 3.656274,-1.07143 1.50001,0 2.718768,0.5625 1.218758,0.54911 1.888405,1.80805 0.68304,1.25894 0.68304,2.98663 0,0.32143 -0.02679,0.61607 L 41.962711,154.34 q -0.06696,0.87055 -0.06696,1.31251 0,1.27233 0.375003,2.4643 0.375002,1.19198 1.125007,1.99555 0.763398,0.80358 1.821441,1.19198 1.058042,0.38839 2.236621,0.38839 1.794655,0 3.991098,-0.83036 z m -9.361669,-7.25898 9.522384,0.0134 q -0.01339,-0.92411 -0.107143,-1.41965 -0.09375,-0.49554 -0.348217,-1.01786 -0.254466,-0.52233 -0.616075,-0.89733 -0.348217,-0.38839 -0.830363,-0.64286 -0.468753,-0.26786 -1.058043,-0.40179 -0.589289,-0.13393 -1.232151,-0.13393 -0.709826,0 -1.392866,0.16072 -0.68304,0.16071 -1.245544,0.44197 -0.562503,0.28125 -1.058042,0.72321 -0.482146,0.42858 -0.803577,0.93751 -0.308038,0.50893 -0.482146,0.97769 -0.160715,0.45536 -0.348217,1.25893 z"
         id="path12630"
         inkscape:connector-curvature="0" />
      <path
         d="m 55.730658,145.20602 0.04018,-1.32591 q 0.334823,0.0134 0.68304,0.0134 0.348217,0 0.68304,-0.0134 l -0.04018,1.32591 q -0.334823,-0.0268 -0.68304,-0.0268 -0.348216,0 -0.68304,0.0268 z m -0.482146,16.95546 q 0.147322,-2.00894 0.334824,-7.00451 0.200894,-4.99556 0.200894,-6.52236 0.348216,0.0134 0.535718,0.0134 0.200894,0 0.54911,-0.0134 -0.187501,2.54466 -0.375002,6.93754 -0.174108,4.39289 -0.174108,6.58933 -0.348217,-0.0134 -0.535718,-0.0134 -0.187501,0 -0.535718,0.0134 z"
         id="path12632"
         inkscape:connector-curvature="0" />
      <path
         d="m 60.203902,162.16148 0.45536,-8.18309 0.120536,-3.84377 q 0.02679,-1.03126 0.02679,-1.50001 0.348217,0.0134 0.522325,0.0134 0.160715,0 0.508932,-0.0134 l -0.174108,3.05359 q 0.294645,-0.62947 0.482146,-0.9509 0.200894,-0.33482 0.535718,-0.70982 0.334823,-0.37501 0.790183,-0.69644 0.468753,-0.33482 1.111615,-0.54911 0.656254,-0.22768 1.339294,-0.32143 0.68304,-0.10714 1.352688,-0.10714 1.125007,0 2.18305,0.25446 1.058042,0.25447 1.754475,0.88394 0.696434,0.61607 0.950899,1.43304 0.267859,0.80358 0.267859,1.72769 0,0.41518 -0.04018,1.23215 l -0.281252,6.09379 -0.05357,2.18305 q -0.267859,-0.0134 -0.522325,-0.0134 -0.254466,0 -0.508932,0.0134 0.13393,-1.67411 0.214287,-3.20091 l 0.187501,-3.42859 q 0.107144,-1.9018 0.107144,-2.74556 0,-0.88393 -0.254466,-1.58037 -0.254466,-0.69643 -0.883934,-1.15179 -0.616076,-0.46875 -1.473224,-0.66965 -0.857149,-0.21428 -1.767869,-0.21428 -1.27233,0 -2.250015,0.34821 -0.924113,0.33483 -1.620546,0.99108 -0.696433,0.64286 -1.1384,1.63394 -0.334824,0.72322 -0.508932,2.02234 -0.160716,1.125 -0.267859,3.68306 -0.09375,2.54466 -0.09375,4.31252 -0.348216,-0.0134 -0.535717,-0.0134 -0.187502,0 -0.535718,0.0134 z"
         id="path12634"
         inkscape:connector-curvature="0" />
      <path
         d="m 82.717443,162.16148 0.281252,-2.47769 0.776791,-9.83042 0.415181,-5.97326 q 0.468753,0.0134 0.857149,0.0134 0.401788,0 0.870541,-0.0134 l 0.58929,1.80805 q 0.254466,0.73661 1.058042,3.00002 l 3.522345,9.84382 0.964292,2.59823 7.071475,-15.64296 q 0.241073,-0.56251 0.656254,-1.60716 0.455365,0.0134 0.870545,0.0134 0.41518,0 0.87054,-0.0134 l -0.13393,7.75452 q -0.0268,2.62502 -0.0268,3.89735 0,4.19199 0.0804,6.6295 -0.34822,-0.0134 -0.62947,-0.0134 -0.29464,0 -0.62947,0.0134 l 0.22768,-11.78579 q 0.0402,-2.12948 0.0402,-3.76342 l 0,-1.76786 -2.276798,4.99556 -5.437536,12.32151 q -0.321431,-0.0134 -0.709826,-0.0134 -0.388395,0 -0.709826,0.0134 l -5.839324,-16.15189 -0.415181,-1.07143 -0.147323,1.56697 q -0.05357,0.65626 -0.187501,2.6518 l -0.709826,9.85721 q -0.04018,0.62947 -0.06696,1.27233 -0.02679,0.62947 -0.04018,1.87501 -0.348217,-0.0134 -0.602683,-0.0134 -0.254466,0 -0.58929,0.0134 z"
         id="path12636"
         inkscape:connector-curvature="0" />
      <path
         d="m 105.98099,145.20602 0.0402,-1.32591 q 0.33483,0.0134 0.68305,0.0134 0.34821,0 0.68304,-0.0134 l -0.0402,1.32591 q -0.33483,-0.0268 -0.68304,-0.0268 -0.34822,0 -0.68304,0.0268 z m -0.48215,16.95546 q 0.14732,-2.00894 0.33482,-7.00451 0.2009,-4.99556 0.2009,-6.52236 0.34821,0.0134 0.53572,0.0134 0.20089,0 0.54911,-0.0134 -0.1875,2.54466 -0.37501,6.93754 -0.1741,4.39289 -0.1741,6.58933 -0.34822,-0.0134 -0.53572,-0.0134 -0.1875,0 -0.53572,0.0134 z"
         id="path12638"
         inkscape:connector-curvature="0" />
      <path
         d="m 115.98552,161.31773 q -0.10715,0.40179 -0.16072,0.84375 -1.08483,0.26786 -1.99555,0.26786 -0.7634,0 -1.36608,-0.17411 -0.58929,-0.16071 -0.96429,-0.58929 -0.375,-0.44196 -0.49554,-0.96429 -0.12054,-0.53572 -0.12054,-1.1384 0,-0.10714 0,-0.33482 0.0134,-0.22768 0.0536,-1.00447 l 0.44196,-8.86613 -1.64733,0 q 0.0536,-0.36161 0.067,-0.72322 l 1.63393,0 q 0.067,-0.84376 0.10715,-2.51787 0.50893,-0.067 0.88393,-0.17411 -0.0937,2.16965 -0.0937,2.69198 l 4.01789,0 q -0.0536,0.36161 -0.067,0.72322 l -3.9911,0 -0.44196,9.18756 -0.0134,0.54911 q 0,1.12501 0.25447,1.63394 0.26786,0.50893 0.73661,0.73661 0.48215,0.22768 0.99108,0.22768 0.36161,0 0.7634,-0.0536 0.41518,-0.067 1.40626,-0.32143 z"
         id="path12640"
         inkscape:connector-curvature="0" />
      <path
         d="m 118.1016,162.16148 q 0.61608,-11.16971 0.72322,-18.28137 0.34822,0.0134 0.54911,0.0134 0.20089,0 0.54911,-0.0134 l -0.33482,6.52237 -0.3884,11.759 q -0.34822,-0.0134 -0.54911,-0.0134 -0.20089,0 -0.54911,0.0134 z"
         id="path12642"
         inkscape:connector-curvature="0" />
      <path
         d="m 133.35616,160.86237 q -0.10714,0.49554 -0.16071,1.00447 -1.11162,0.32143 -1.99555,0.44197 -0.88393,0.13393 -1.80805,0.13393 -1.60715,0 -2.85269,-0.42858 -1.23216,-0.44197 -2.11609,-1.44644 -0.88393,-1.01786 -1.25894,-2.2768 -0.375,-1.25893 -0.375,-2.67859 0,-1.86162 0.64286,-3.48216 0.64286,-1.63394 2.11609,-2.70538 1.47322,-1.07143 3.65627,-1.07143 1.50001,0 2.71877,0.5625 1.21876,0.54911 1.8884,1.80805 0.68304,1.25894 0.68304,2.98663 0,0.32143 -0.0268,0.61607 l -10.59382,0.0134 q -0.067,0.87055 -0.067,1.31251 0,1.27233 0.37501,2.4643 0.375,1.19198 1.125,1.99555 0.7634,0.80358 1.82144,1.19198 1.05805,0.38839 2.23663,0.38839 1.79465,0 3.99109,-0.83036 z m -9.36166,-7.25898 9.52238,0.0134 q -0.0134,-0.92411 -0.10714,-1.41965 -0.0937,-0.49554 -0.34822,-1.01786 -0.25447,-0.52233 -0.61608,-0.89733 -0.34821,-0.38839 -0.83036,-0.64286 -0.46875,-0.26786 -1.05804,-0.40179 -0.58929,-0.13393 -1.23215,-0.13393 -0.70983,0 -1.39287,0.16072 -0.68304,0.16071 -1.24554,0.44197 -0.56251,0.28125 -1.05805,0.72321 -0.48214,0.42858 -0.80357,0.93751 -0.30804,0.50893 -0.48215,0.97769 -0.16071,0.45536 -0.34821,1.25893 z"
         id="path12644"
         inkscape:connector-curvature="0" />
      <path
         d="m 137.64191,145.20602 0.0402,-1.32591 q 0.33483,0.0134 0.68304,0.0134 0.34822,0 0.68304,-0.0134 l -0.0402,1.32591 q -0.33483,-0.0268 -0.68304,-0.0268 -0.34822,0 -0.68304,0.0268 z m -0.48215,16.95546 q 0.14732,-2.00894 0.33482,-7.00451 0.2009,-4.99556 0.2009,-6.52236 0.34821,0.0134 0.53571,0.0134 0.2009,0 0.54912,-0.0134 -0.18751,2.54466 -0.37501,6.93754 -0.17411,4.39289 -0.17411,6.58933 -0.34821,-0.0134 -0.53571,-0.0134 -0.1875,0 -0.53572,0.0134 z"
         id="path12646"
         inkscape:connector-curvature="0" />
      <path
         d="m 153.76701,162.16148 q -0.34822,-0.0134 -0.52232,-0.0134 -0.18751,0 -0.53572,0.0134 l 0.20089,-3.4018 q -0.32143,0.77679 -0.60268,1.23215 -0.26786,0.45536 -0.69643,0.89732 -0.41518,0.42858 -1.01787,0.77679 -0.60268,0.34822 -1.39286,0.56251 -0.79019,0.21429 -1.63394,0.21429 -1.29912,0 -2.43752,-0.46876 -1.12501,-0.46875 -1.91519,-1.3259 -0.77679,-0.87054 -1.12501,-1.99555 -0.33482,-1.1384 -0.33482,-2.39733 0,-1.70091 0.62947,-3.28128 0.62947,-1.58036 1.82144,-2.6518 1.20536,-1.08483 2.71877,-1.5268 1.52679,-0.44196 3.2143,-0.44196 1.37948,0 3.01342,0.29464 0.067,-1.27233 0.067,-2.43751 0,-1.03126 -0.0402,-2.33038 0.34822,0.0134 0.56251,0.0134 0.21428,0 0.54911,-0.0134 -0.14733,2.50448 -0.22768,5.25004 l -0.18751,6.48218 q -0.10714,3.72324 -0.10714,4.90182 l 0,1.64733 z m -0.65625,-12.58936 q -0.9509,-0.29465 -1.64734,-0.37501 -0.69643,-0.0937 -1.3259,-0.0937 -1.50001,0 -2.86609,0.42858 -1.36608,0.42857 -2.38394,1.39286 -1.01787,0.9643 -1.58037,2.43752 -0.54911,1.47322 -0.54911,2.90627 0,1.58037 0.60268,2.87948 0.61608,1.29912 1.72769,1.92859 1.12501,0.61607 2.50448,0.61607 0.81697,0 1.48662,-0.1875 0.68304,-0.20089 1.21876,-0.54911 0.54911,-0.34822 1.03126,-0.92411 0.49553,-0.58929 0.85714,-1.37948 0.37501,-0.79018 0.54911,-1.72769 0.17411,-0.9375 0.24108,-2.87948 l 0.13393,-4.47324 z"
         id="path12648"
         inkscape:connector-curvature="0" />
    </g>
  </g>
  <g
     inkscape:groupmode="layer"
     id="layer7"
     inkscape:label="beschnittrahmen"
     transform="translate(0,60.236224)"
     style="display:inline"
     sodipodi:insensitive="true">
    <rect
       style="fill:none;fill-opacity:1;stroke:#ff00ff;stroke-width:0.18979155;stroke-miterlimit:4;stroke-dasharray:none;stroke-opacity:1"
       id="rect15126"
       width="169.88895"
       height="116.43562"
       x="7.1814947"
       y="-52.751007" />
  </g>
</svg>
