<?xml version="1.0" encoding="iso-8859-1"?>
<!DOCTYPE svg PUBLIC "-//W3C//DTD SVG 20000303 Stylable//EN" "http://www.w3.org/TR/2000/03/WD-SVG-20000303/DTD/svg-20000303-stylable.dtd">
<svg x="-19.051in" y="-9.62863in" width="8.28248in" height="7.9641in" style="shape-rendering:geometricPrecision; text-rendering:geometricPrecision; image-rendering:optimizeQuality" viewBox="-19051 0 8282 7964" xml:space="preserve">
<g id="Ebene 1">
<path id="74177144" style="fill:#CA2E28" d="M-15240 4881l-80 0 -40 0 40 0 80 0zm579 -4659c205,785 596,1971 850,2669 12,77 119,91 180,92 928,-30 1682,3 2609,3 86,-72 256,4 253,2 -15,109 -248,270 -344,265 -64,-55 53,-114 84,-154 -508,-75 -2144,-8 -2759,-29 -61,-6 -99,-34 -123,-79 -248,-685 -576,-1684 -749,-2404 -36,-102 -97,-359 -135,-266 -348,839 -515,1739 -856,2624 -12,71 -65,124 -147,126 -611,0 -2273,0 -2849,14 -55,-33 -102,-35 -147,5 42,60 141,53 138,158 -64,33 -139,1 -235,-99 -120,-19 -195,-128 -143,-171 85,-22 162,-26 286,16 849,-2 2225,-43 2841,-22 62,-12 111,-24 128,-92 304,-771 720,-2123 900,-2658 23,-70 48,-217 107,-222 60,8 91,146 111,222zm-3915 3374c-17,-49 -99,-17 -118,-55 -21,-43 -19,-130 23,-154 63,-35 135,14 207,19 42,2 41,168 0,176 -31,6 -100,46 -112,14zm553 5c-26,-3 -31,-18 -54,-31 -17,-9 -56,-6 -64,-25 -25,-111 -15,-133 3,-144 63,-1 188,-44 263,14 17,12 36,106 8,158 -36,44 -104,19 -156,28zm600 -25c-27,-40 -58,-90 -109,-17 -26,60 -165,34 -177,21 -46,-12 -30,-164 6,-175 27,-18 153,-22 171,45 17,72 83,58 100,-14 32,-67 169,-58 179,-33 23,15 23,119 2,169 -23,52 -162,24 -172,4zm584 -21c-86,54 -260,52 -255,26 -48,-96 -34,-143 -13,-161 47,-65 196,-37 263,-8 26,22 33,89 5,143zm804 25c-73,30 -211,24 -260,-6 -16,-10 -38,-31 -72,1 -9,17 -168,50 -219,2 -24,-17 -36,-137 -6,-164 11,-37 215,-26 219,-5 34,46 54,12 67,3 42,-36 267,-30 273,11 8,13 37,122 -2,158zm173 -1c-19,-36 -48,-49 -48,-87 6,-53 17,-28 29,-65 40,-44 172,-27 172,-4 15,16 52,61 12,144 -42,54 -153,21 -165,12zm327 -1c-20,-12 -35,-132 -12,-162 31,-38 199,-23 212,1 13,36 27,112 -36,151 -57,24 -106,39 -164,10zm462 -1c-21,-40 -21,-144 10,-169 106,-43 156,-19 218,-10 41,8 45,148 11,183 -12,26 -228,27 -239,-4zm334 7c-27,-46 -30,-114 3,-164 8,-24 206,-28 234,-4 12,7 34,134 5,162 -24,24 -230,27 -242,6zm360 -10c-29,-25 -45,-45 -47,-83 0,-26 14,-64 34,-81 58,-12 99,-48 184,10 11,7 43,120 -9,157 -43,31 -133,18 -162,-3zm336 -5c-31,-43 -38,-100 1,-148 24,-29 133,-28 167,1 21,13 34,116 1,152 -42,31 -147,26 -169,-5zm725 -2c-21,44 -160,43 -219,-6 -30,-24 -11,-108 4,-133 20,-31 199,-65 225,19 23,73 48,5 59,-26 12,-32 254,-37 269,-3 27,61 43,28 65,-4 25,-36 246,-26 260,-5 21,33 15,156 -3,172 -39,36 -237,34 -261,-17 -29,-61 -48,-38 -58,0 -13,51 -254,56 -280,-5 -20,-48 -43,-30 -61,8zm73 381c14,-19 82,-84 106,-89 54,-10 133,-6 149,9 24,22 4,74 31,91 20,13 48,-12 69,-26 24,-16 34,-53 61,-62 50,-18 114,-42 159,-14 38,25 13,87 23,132 8,32 17,104 -9,123 -53,41 -76,24 -3,76 19,13 11,167 -7,189 -16,20 -93,34 -139,16 -56,-22 -16,-61 -121,-112 -20,-10 -41,-17 -48,10 -17,69 -39,91 -95,101 -53,9 -104,8 -155,-15 -54,-24 -35,-125 -22,-162 8,-22 42,-33 66,-36 52,-7 113,-4 153,4 28,6 42,31 56,58 11,20 38,27 46,7 8,-22 18,-45 38,-52 186,-64 49,-91 -9,-101 -28,-5 -34,-70 -79,-24 -26,27 -179,47 -256,9 -41,-20 -24,-118 -14,-132zm-293 -72c33,-44 113,-25 165,-6 35,12 59,52 64,88 6,47 0,104 -33,137 -74,82 -78,13 -117,10 -25,-1 -64,1 -72,-22 -23,-65 -48,-151 -7,-207zm19 348c40,-43 137,-59 180,-19 46,42 49,132 7,178 -43,46 -135,48 -181,5 -44,-41 -47,-120 -6,-164zm265 469c3,-16 18,-33 34,-35 70,-11 143,-18 212,-2 22,5 26,37 34,58 7,20 13,41 9,62 -5,26 -9,64 -35,72 -67,21 -142,13 -212,6 -17,-2 -34,-17 -38,-33 -11,-41 -12,-86 -4,-128zm-2 297c4,-16 16,-30 29,-39 15,-10 34,-15 51,-16 55,-1 111,-2 164,12 20,5 28,31 46,40 10,6 25,8 35,2 18,-12 18,-46 39,-50 65,-14 135,-18 199,0 27,7 40,42 50,69 8,23 2,48 1,72 -1,26 4,55 -8,78 -8,17 -28,27 -45,30 -36,6 -73,6 -108,-2 -15,-4 -27,-18 -36,-31 -9,-12 -5,-32 -16,-42 -11,-10 -31,-4 -43,-13 -20,-16 -23,-62 -48,-57 -25,5 -18,48 -27,71 -10,26 -5,66 -30,77 -44,19 -98,16 -142,-2 -26,-11 -20,-54 -40,-74 -19,-19 -58,-16 -71,-39 -14,-25 -7,-58 0,-86zm-301 1c7,-19 18,-37 34,-49 16,-12 36,-19 56,-23 30,-5 62,-13 90,-2 28,12 45,40 62,62 22,30 24,85 0,113 -13,15 -22,37 -33,61 -8,18 -33,28 -53,29 -45,3 -96,7 -128,-26 -24,-25 -33,-60 -38,-94 -4,-26 0,-47 10,-71zm1212 -1057c5,-28 14,-62 38,-77 25,-15 60,-9 87,0 18,7 26,30 40,43 32,27 63,42 98,73 9,7 28,4 33,-6 9,-20 -9,-49 3,-67 18,-25 47,-47 77,-50 34,-4 67,16 98,30 42,19 74,65 119,68 22,1 19,-42 35,-58 14,-14 33,-27 53,-31 42,-6 88,-13 127,2 28,11 52,34 63,62 14,32 26,-4 46,59 5,14 32,21 45,14 12,-7 9,-27 19,-37 34,-35 66,-74 109,-96 25,-12 59,-13 85,-2 20,10 30,36 36,58 8,29 6,60 2,90 -4,24 -2,60 -25,69 -57,23 -123,19 -184,16 -18,-1 -30,-21 -46,-27 -10,-4 -23,-6 -33,-2 -18,6 -29,26 -48,29 -57,6 -115,2 -173,-2 -57,-5 -61,-38 -84,-39 -21,-1 -33,27 -52,35 -17,7 -38,1 -54,9 -17,10 -22,34 -40,43 -17,8 -48,-13 -56,3 -7,16 21,29 37,37 15,7 34,0 50,6 23,9 48,20 65,38 11,12 15,30 14,46 -2,16 -9,34 -22,44 -11,10 -34,-2 -44,10 -13,16 -16,51 -9,71 5,15 39,-2 53,6 18,8 17,33 37,32 22,-1 51,-14 52,-36 0,-36 -41,-54 -50,-89 -4,-14 16,-27 19,-42 3,-12 -11,-29 -2,-38 16,-16 42,-18 63,-25 27,-9 53,-19 81,-21 33,-2 68,-1 100,9 19,7 42,16 54,33 13,20 -8,68 15,75 20,6 29,-32 40,-50 6,-10 3,-35 12,-42 18,-16 43,-19 67,-23 20,-4 41,2 61,7 28,8 62,11 81,33 19,22 19,56 21,84 1,24 -10,46 -12,70 -1,21 3,42 2,63 0,17 -8,34 -7,52 1,26 14,50 15,76 1,24 -10,48 -11,71 -1,19 5,37 5,56 4,120 8,239 6,359 0,18 -10,34 -11,52 -2,13 7,28 1,40 -5,13 -19,24 -32,29 -18,6 -39,7 -58,4 -21,-4 -43,-10 -59,-23 -15,-13 -15,-37 -29,-50 -12,-12 -36,-7 -44,-21 -17,-31 -16,-68 -23,-102 -10,-45 -17,-93 -29,-134 -72,-13 -173,5 -259,-6 -24,-3 -41,-35 -65,-35 -30,0 -52,31 -81,35 -66,8 -133,7 -199,2 -19,-2 -34,-21 -52,-21 -18,-1 -32,17 -50,19 -61,6 -124,12 -184,4 -17,-2 -35,-17 -39,-33 -9,-39 -2,-80 4,-119 3,-19 23,-34 23,-54 0,-31 -20,-59 -23,-90 -4,-41 -6,-84 4,-125 3,-14 24,-16 27,-30 3,-17 -5,-32 -10,-48 -6,-24 -14,-48 -17,-73 -2,-13 -3,-27 2,-39 8,-22 14,-52 36,-61 33,-12 71,-2 104,8 28,8 57,22 77,44 9,11 9,31 2,44 -14,25 -44,31 -58,56 -10,16 -18,55 -6,69 20,21 49,-1 75,11 19,9 35,51 54,42 17,-8 26,-33 27,-53 0,-18 -23,-29 -25,-46 -5,-45 -10,-92 4,-135 8,-27 44,-38 57,-63 8,-15 14,-37 4,-50 -11,-14 -37,-4 -52,-13 -15,-10 -18,-41 -36,-41 -21,1 -25,36 -44,45 -19,8 -42,-4 -62,1 -14,4 -20,23 -34,25 -27,6 -58,13 -81,-2 -25,-15 -35,-48 -42,-76 -10,-35 -14,-72 -8,-108zm265 660c21,7 40,28 44,50 6,33 0,70 -17,98 -8,13 -32,12 -46,6 -23,-11 -44,-30 -56,-52 -8,-15 -8,-36 0,-52 7,-13 26,-16 38,-25 13,-8 23,-29 37,-25zm635 29c9,-14 24,-34 40,-31 20,5 33,29 39,48 3,11 -7,27 -17,29 -20,5 -44,3 -60,-9 -10,-8 -8,-26 -2,-37zm-378 71c10,-40 54,-69 92,-84 16,-6 35,18 31,34 -7,31 -2,69 -19,94 -11,16 -38,17 -56,10 -25,-9 -54,-28 -48,-54zm-512 317c11,-29 39,-50 67,-65 23,-13 51,-8 77,-14 33,-7 66,-20 99,-27 15,-3 30,-5 45,-2 26,6 48,24 74,29 21,4 43,3 64,0 16,-2 30,-17 46,-15 27,3 50,19 75,31 20,9 35,35 57,34 29,-1 48,-35 77,-40 57,-10 117,-10 175,-2 17,2 36,14 42,31 11,30 13,65 4,96 -6,19 -48,23 -62,38 -13,14 -12,47 -30,56 -39,16 -72,20 -114,19 -22,-1 -45,-13 -61,-29 -14,-14 -6,-49 -25,-54 -33,-8 -68,9 -98,23 -28,14 -41,53 -71,60 -63,15 -130,0 -196,4 -45,2 -89,14 -134,13 -25,0 -52,-3 -73,-17 -20,-14 -35,-38 -40,-62 -8,-35 -12,-74 2,-107zm-1628 -877c21,3 62,3 79,-11 15,-11 23,-31 25,-49 6,-56 10,-114 3,-170 -2,-18 -14,-38 -31,-45 -24,-10 -49,0 -75,-3 -25,-3 -49,-11 -74,-12 -26,-2 -57,6 -83,6 -28,-1 -56,-8 -84,-8 -20,0 -40,0 -59,8 -16,7 -40,21 -43,39 -5,24 -1,58 1,157 1,25 9,53 28,70 24,20 60,25 92,25 37,-1 16,-33 34,-38 40,-11 71,-5 112,-3 43,2 13,26 75,34zm-219 45c36,-7 73,10 110,11 32,1 64,0 95,-6 13,-2 21,-21 34,-19 22,5 39,23 54,39 13,14 23,32 27,50 6,35 7,71 3,106 -2,13 -20,22 -20,36 -1,18 15,33 18,51 3,15 -2,30 0,45 4,23 18,44 18,67 0,54 -24,51 -25,82 -3,46 30,42 12,145 -4,23 -8,53 -29,62 -44,18 -95,4 -142,8 -29,2 -58,12 -87,11 -17,-1 -33,-14 -50,-16 -51,-4 -103,5 -154,-3 -22,-3 -47,-13 -60,-31 -18,-24 -22,-56 -27,-86 -4,-26 7,-54 2,-80 -4,-20 -23,-34 -27,-53 -5,-27 1,-55 -1,-83 -2,-24 -13,-47 -13,-71 0,-14 22,-28 14,-39 -12,-18 -43,-14 -60,-28 -18,-15 -26,-39 -41,-56 -14,-16 -37,-25 -46,-44 -7,-13 -7,-31 0,-45 8,-18 15,-38 40,-45 4,-8 -6,-28 -11,-36 -17,-23 -34,-1 -51,-51 -14,-8 -35,3 -48,-6 -16,-10 -26,-29 -30,-47 -5,-22 -8,-48 3,-68 14,-26 48,-36 67,-58 10,-11 10,-30 20,-42 9,-10 20,-19 33,-21 39,-8 80,-16 118,-7 18,5 30,26 36,44 4,12 -10,24 -10,37 1,17 13,33 14,50 3,25 0,51 -3,76 -3,32 -21,64 -14,95 7,27 46,38 53,65 13,49 13,84 2,151 1,11 9,25 20,27 36,6 75,7 110,-2 14,-4 25,-20 27,-34 1,-17 -17,-30 -19,-47 -3,-31 -4,-64 5,-95 4,-16 16,-35 33,-39zm285 765c19,11 34,31 40,52 9,38 12,79 2,117 -7,27 -25,58 -51,64 -79,17 -161,10 -241,0 -30,-4 -57,-25 -83,-41 -12,-8 -26,-17 -29,-31 -7,-39 -7,-80 3,-119 2,-9 19,-1 28,-5 36,-17 67,-49 107,-58 24,-5 46,19 71,19 22,-1 40,-23 62,-23 31,1 64,9 91,25zm-3444 40c5,-14 16,-25 28,-33 15,-10 34,-12 51,-18 8,-3 15,-9 23,-8 15,1 27,12 41,13 47,3 94,3 141,-3 21,-2 40,-21 61,-20 21,0 38,19 59,23 27,5 55,7 82,5 19,-1 37,-10 56,-13 34,-4 68,-10 102,-7 12,0 19,17 31,17 89,2 177,-12 266,-12 7,0 11,12 18,12 96,4 193,4 289,0 10,0 18,-11 28,-12 11,-1 22,7 33,7 23,2 46,1 69,-2 30,-4 58,-18 87,-18 24,0 46,13 69,18 25,5 50,4 74,10 13,3 23,16 36,15 11,-1 15,-17 26,-20 19,-5 41,2 61,-3 21,-4 38,-23 59,-23 28,1 51,26 79,28 66,6 133,-7 200,-5 25,1 49,13 74,16 19,2 39,2 59,0 35,-4 70,-6 104,-16 21,-6 35,-27 57,-30 19,-3 36,14 56,15 20,1 39,-12 59,-10 20,2 37,15 56,23 17,7 39,9 51,23 10,12 2,31 8,46 6,15 25,25 28,41 6,32 7,67 0,99 -4,18 -15,41 -33,44 -98,16 -199,20 -297,10 -24,-2 -45,-16 -69,-13 -49,7 -39,-29 -95,-5 -15,7 -47,7 -64,8 -198,6 -397,-4 -595,0 -58,1 -114,17 -172,15 -66,-2 -130,-25 -196,-25 -82,-1 -162,22 -243,23 -24,0 -45,-20 -69,-21 -229,-3 -457,20 -686,10 -18,0 -20,-31 -35,-40 -17,-11 -43,-2 -57,-16 -9,-9 8,-26 3,-38 -4,-9 -25,-6 -26,-15 -3,-32 3,-65 13,-95zm-1360 38c1,-10 26,-48 33,-56 12,-14 31,-22 49,-26 22,-4 41,-3 64,-7 10,-2 18,-9 28,-10 28,-3 56,12 84,10 22,-2 40,-24 61,-21 27,4 52,21 72,39 23,20 35,50 54,74 31,41 -14,61 -31,123 -3,12 -16,23 -28,28 -16,6 -35,-2 -51,2 -25,6 -46,28 -72,28 -28,1 -52,-19 -79,-25 -20,-5 -43,3 -61,-5 -18,-8 -27,-27 -41,-39 -20,-17 -49,-35 -69,-51 0,0 -13,-61 -13,-64zm130 -1171c24,-10 52,-4 77,3 17,5 34,18 43,33 11,16 10,37 13,56 7,39 20,79 16,118 -3,21 -27,34 -34,54 -5,16 -10,37 0,51 13,18 44,15 59,30 17,18 24,42 33,64 6,13 12,27 11,41 -2,19 -28,36 -21,54 13,29 53,38 72,64 14,20 22,45 25,69 3,25 -7,49 -7,74 -1,23 -3,47 5,69 5,13 18,21 30,28 12,7 29,1 39,10 10,10 3,29 13,39 21,21 58,24 76,48 12,16 11,40 5,59 -5,18 -17,40 -35,41 -139,11 -279,-19 -417,-5 -22,2 -42,-15 -44,51 -27,0 -53,-26 -64,-51 -12,-30 -9,-68 6,-97 8,-17 43,-4 53,-21 12,-18 10,-46 0,-66 -10,-21 -42,-24 -53,-44 -19,-32 -35,-70 -34,-107 2,-38 18,-77 41,-107 11,-14 43,2 51,-13 11,-20 1,-47 -10,-67 -11,-20 -50,-22 -54,-46 -4,-29 18,-58 34,-84 11,-18 51,-23 46,-43 -9,-35 -58,-45 -77,-75 -15,-23 -24,-52 -20,-79 3,-28 20,-52 38,-74 24,-30 50,-61 84,-77zm3846 161c-3,27 -7,57 -26,77 -14,15 -41,3 -59,13 -20,11 -28,46 -51,46 -68,0 -49,-35 -77,-46 -15,-7 -39,5 -51,-8 -16,-18 -18,-47 -18,-71 0,-23 6,-46 18,-64 12,-17 37,-21 51,-36 19,-19 -10,-49 47,-64 20,-6 42,-1 63,2 21,3 43,6 62,16 13,7 24,19 28,33 5,18 -5,38 -3,56 2,16 17,30 16,46zm-795 -156c22,-1 46,2 66,13 16,9 25,29 36,44 13,17 32,32 36,53 4,27 -5,54 -13,80 -6,18 -14,40 -31,48 -20,10 -45,-6 -66,0 -17,5 -24,30 -41,33 -30,6 -69,11 -90,-10 -30,-30 -39,-78 -41,-120 0,-24 28,-39 36,-61 7,-19 -8,-47 8,-59 27,-20 66,-19 100,-21zm-422 3c43,-10 91,-17 133,-3 35,12 57,34 84,59 14,13 33,38 38,56 8,27 2,56 -7,82 -6,17 -19,36 -36,41 -33,10 -69,-4 -102,3 -21,4 -34,26 -54,30 -17,4 -36,1 -51,-7 -18,-9 -40,-22 -44,-41 -11,-61 -8,-124 3,-184 3,-17 19,-32 36,-36zm1245 330c12,1 23,5 31,15 13,19 23,41 25,64 2,23 -9,46 -13,69 -2,14 -9,29 -2,41 8,14 25,22 41,28 9,4 22,-4 30,3 12,9 20,24 21,38 2,46 -8,92 -10,138 -1,13 -6,27 0,38 7,15 21,26 35,34 11,6 32,-4 36,7 16,45 17,94 15,141 0,16 -4,41 -20,43 -71,13 -145,8 -217,0 -13,-1 -24,-13 -28,-25 -7,-16 -9,-35 -3,-51 8,-20 36,-28 43,-49 6,-15 7,-40 -7,-48 -25,-16 -69,-33 -87,-11 -28,36 -5,91 -13,136 -3,16 -4,42 -20,46 -65,15 -134,15 -200,5 -22,-3 -41,-23 -51,-43 -9,-18 -4,-40 0,-59 5,-21 23,-38 26,-59 1,-13 -3,-29 -13,-36 -24,-16 -67,-3 -82,-28 -25,-42 -7,-99 -23,-146 -3,-10 -27,-17 -31,-7 -17,43 -30,92 -23,138 4,22 34,31 51,46 13,10 34,13 39,28 10,34 8,72 2,107 -3,23 -9,54 -30,62 -42,15 -89,-8 -133,-3 -19,2 -33,26 -51,23 -28,-4 -46,-39 -75,-41 -58,-4 -115,23 -173,26 -30,1 -63,0 -90,-13 -24,-12 -27,-59 -54,-59 -30,0 -39,52 -69,59 -69,15 -142,14 -212,2 -19,-3 -36,-24 -41,-43 -11,-44 8,-92 -5,-136 -8,-27 -49,-38 -56,-66 -15,-60 7,-126 -8,-187 -3,-14 -30,-3 -41,-12 -20,-19 -40,-42 -46,-69 -10,-45 7,-93 0,-139 -2,-17 -12,-34 -25,-46 -14,-12 -37,-8 -51,-20 -12,-9 -9,-30 -21,-38 -15,-10 -37,-2 -54,-11 -14,-7 -18,-27 -33,-33 -9,-4 -21,1 -28,8 -7,6 -3,20 -10,25 -12,9 -29,5 -41,13 -10,7 -9,27 -20,31 -22,8 -48,10 -70,2 -13,-4 -13,-26 -25,-33 -16,-9 -43,5 -54,-10 -19,-26 -31,-63 -23,-95 8,-31 45,-46 67,-69 14,-15 23,-40 43,-46 35,-10 75,-10 110,0 29,8 45,46 74,51 28,5 55,-12 79,-25 20,-10 28,-37 49,-44 30,-9 64,-7 95,0 20,5 46,16 51,36 15,68 7,138 2,207 -1,14 -16,25 -18,39 -1,13 -2,29 8,38 21,18 58,12 74,33 21,27 24,64 28,97 3,17 -11,33 -7,49 3,13 15,27 28,31 34,9 62,12 97,5 12,-3 23,-19 23,-31 -1,-23 -17,-44 -15,-66 2,-30 6,-65 28,-85 24,-22 62,-25 94,-28 48,-4 105,-20 144,8 27,20 21,71 7,102 -9,21 -48,9 -64,26 -16,17 -16,57 -10,66 28,40 80,13 118,-13 35,-24 10,-89 20,-130 4,-18 18,-37 36,-41 57,-14 162,-25 184,-10 53,36 -2,131 26,189 7,16 46,6 51,-10 9,-31 -23,-63 -21,-95 1,-15 24,-21 28,-36 5,-14 -12,-30 -5,-43 6,-11 27,-2 36,-10 6,-6 5,-19 0,-26 -10,-12 -26,-19 -41,-25 -16,-8 -39,-5 -51,-18 -20,-24 -30,-55 -36,-85 -3,-18 -3,-40 8,-56 13,-20 42,-24 59,-41 14,-14 17,-39 33,-51 17,-14 41,-30 61,-23 29,10 42,45 64,66 20,19 51,29 62,54 11,26 15,61 0,84 -16,25 -57,21 -80,39 -14,11 -29,28 -28,46 1,15 18,29 34,33 36,10 76,-6 112,5 21,7 41,25 46,46 11,46 -16,97 0,141 5,15 43,13 49,-3 14,-40 -13,-86 -3,-128 6,-23 25,-48 49,-53 60,-14 127,-5 189,0zm-156 424c-3,12 -31,11 -36,0 -12,-24 -6,-54 -5,-82 1,-24 -2,-50 10,-71 5,-8 26,-4 28,5 10,48 14,100 3,148zm-1642 -409c27,-16 66,-15 95,-2 26,11 44,39 51,66 5,20 -15,39 -18,59 -3,18 -7,39 0,56 5,13 21,19 33,23 12,4 27,-7 36,0 23,19 45,43 51,72 7,31 -7,63 -15,94 -3,11 -15,20 -15,31 -1,14 3,31 13,41 13,14 42,8 51,25 19,41 29,88 25,133 -1,18 -24,30 -41,36 -23,8 -49,7 -74,5 -24,-1 -54,4 -71,-12 -26,-24 -34,-62 -44,-95 -7,-24 3,-52 -8,-74 -9,-19 -40,-22 -48,-41 -14,-31 -15,-66 -13,-100 1,-15 24,-23 23,-38 0,-15 -23,-22 -25,-36 -3,-13 14,-26 10,-38 -6,-16 -31,-18 -36,-34 -10,-31 -9,-66 -5,-99 3,-25 4,-59 25,-72zm-516 -235c4,-18 29,-22 43,-33 11,-8 22,-14 31,-23 16,-18 21,-51 44,-59 32,-12 71,-4 104,5 20,5 39,18 49,36 7,12 -4,29 -3,43 3,24 15,47 16,72 1,20 -4,40 -10,59 -4,9 -10,19 -18,23 -17,7 -39,-1 -54,10 -13,9 -24,28 -21,43 4,18 22,33 39,39 28,9 60,-2 89,5 16,3 37,8 41,23 11,43 -9,89 0,133 5,22 23,42 41,56 12,9 40,-7 44,8 15,59 3,122 7,184 1,12 -2,28 8,36 19,14 51,7 69,23 13,11 12,31 13,48 0,34 -1,68 -10,100 -6,18 -15,41 -34,46 -39,10 -81,2 -120,-8 -20,-5 -45,-14 -51,-33 -11,-37 29,-85 5,-115 -28,-35 -93,-66 -128,-38 -37,29 6,96 -2,143 -4,20 -13,48 -34,53 -60,15 -124,8 -186,0 -20,-2 -40,-12 -51,-28 -10,-14 -11,-35 -5,-51 8,-23 34,-36 43,-59 6,-15 14,-41 0,-51 -29,-20 -73,-6 -105,-23 -20,-11 -36,-33 -41,-56 -7,-34 13,-71 5,-105 -3,-14 -24,-39 -33,-28 -16,21 -5,53 -8,79 -2,28 -13,55 -7,82 3,17 19,30 33,41 11,8 32,1 38,13 15,29 19,64 18,97 -1,30 6,77 -23,87 -71,25 -155,23 -227,0 -26,-8 -28,-52 -23,-79 3,-19 32,-21 43,-36 10,-13 20,-30 18,-46 -1,-13 -13,-27 -25,-31 -31,-8 -78,-29 -95,-2 -30,45 0,110 -10,163 -3,15 -14,33 -28,36 -49,10 -100,7 -149,0 -19,-3 -36,-15 -51,-28 -13,-12 -13,-44 -31,-44 -21,0 -31,31 -48,44 -14,10 -26,26 -44,28 -60,7 -122,9 -181,-3 -20,-3 -35,-22 -44,-40 -5,-12 10,-24 8,-36 -2,-15 -18,-24 -20,-39 -3,-17 12,-37 5,-53 -11,-23 -41,-31 -54,-51 -14,-23 -19,-49 -26,-75 -6,-28 -13,-57 -12,-87 0,-14 16,-24 18,-38 1,-11 -1,-26 -11,-33 -8,-7 -26,8 -33,0 -17,-20 -20,-47 -28,-72 -7,-20 -22,-41 -15,-61 11,-33 30,-66 64,-82 5,-2 -5,-16 -11,-18 -39,-11 -72,-27 -107,-51 -13,-9 -19,-27 -20,-43 -6,-54 -11,-108 -3,-161 3,-20 17,-42 36,-49 30,-12 65,-9 97,-5 15,2 29,13 41,23 17,15 37,29 43,51 6,20 27,30 41,43 11,11 21,34 36,31 17,-3 25,-27 31,-43 6,-20 -2,-42 5,-62 4,-12 15,-24 28,-28 41,-11 85,-15 128,-13 19,1 37,13 53,23 33,22 54,69 92,72 23,1 7,-51 26,-64 26,-18 63,-17 95,-20 15,-2 33,-2 46,7 18,14 22,41 38,57 18,17 50,19 61,40 13,24 16,57 6,82 -10,23 -40,28 -59,44 -15,12 -38,19 -44,38 -3,13 10,30 23,33 17,4 32,-15 49,-15 27,-1 55,2 79,13 16,7 33,21 36,38 10,55 -15,114 2,166 7,21 40,30 62,26 12,-2 -5,-24 -5,-36 -2,-61 -25,-127 -3,-184 10,-25 53,-13 79,-13 16,0 31,13 46,13 22,0 43,-9 64,-10 19,-1 41,-8 57,2 19,13 34,36 38,59 7,47 -11,96 -8,143 1,11 9,21 18,26 17,10 50,-1 56,18 23,62 5,133 21,197 3,13 30,36 36,23 15,-37 1,-81 5,-121 4,-40 18,-79 18,-120 0,-12 -15,-21 -18,-33 -4,-13 6,-30 -3,-41 -13,-17 -43,-18 -56,-36 -12,-15 -14,-37 -13,-56 1,-18 21,-33 18,-51 -4,-26 -17,-53 -36,-72 -14,-13 -48,0 -56,-18 -16,-35 -15,-79 -5,-117zm-1102 181c11,-24 41,-33 59,-53 12,-15 12,-54 30,-49 25,7 22,47 39,67 10,12 25,21 41,25 18,5 38,4 56,-2 17,-7 26,-30 43,-36 33,-12 70,-6 103,-16 19,-5 33,-31 53,-30 19,1 32,21 44,36 11,14 12,36 25,48 12,11 42,-2 46,13 7,20 -3,50 -23,59 -14,7 -22,-28 -38,-31 -31,-5 -63,8 -95,8 -32,-1 -64,-10 -97,-10 -20,-1 -44,-4 -61,7 -24,15 -26,60 -54,64 -19,3 -5,-46 -23,-54 -39,-17 -87,0 -128,-12 -12,-4 -25,-22 -20,-34zm169 156c23,1 57,31 46,52 -15,27 -59,28 -90,28 -13,-1 -32,-19 -25,-31 13,-25 41,-49 69,-49zm593 -416c3,-15 16,-26 28,-34 16,-9 35,-11 54,-15 26,-5 52,-11 79,-10 26,1 53,7 77,18 12,6 24,17 28,30 11,45 21,93 15,138 -4,30 -17,66 -43,80 -33,17 -75,-7 -110,2 -18,5 -24,32 -41,39 -18,7 -41,10 -59,2 -16,-7 -24,-27 -31,-43 -8,-20 -13,-41 -12,-62 0,-22 15,-42 17,-64 3,-27 -8,-55 -2,-81zm855 1406c-20,0 -40,14 -52,31 -9,12 0,32 -5,47 -9,25 -29,47 -37,73 -9,32 -6,66 -15,99 -14,48 -36,93 -52,140 -10,29 -19,59 -27,89 -7,29 -9,60 -20,88 -10,26 -33,47 -42,73 -9,28 -1,60 -10,89 -28,85 -73,164 -99,250 -7,21 6,46 0,67 -15,54 -41,105 -63,157 -21,49 -48,96 -68,145 -13,34 -26,69 -31,105 -4,25 13,53 5,78 -10,32 -46,51 -57,83 -14,40 -4,85 -16,125 -21,72 -62,137 -83,208 -14,48 -8,99 -21,146 -8,30 -33,54 -41,84 -16,52 -13,110 -32,161 -8,22 -38,31 -47,52 -14,36 -11,77 -20,115 -7,26 -29,51 -26,78 3,31 12,73 41,83 30,11 61,-21 89,-36 35,-20 69,-41 99,-68 33,-29 53,-72 88,-99 24,-18 58,-16 84,-31 32,-19 58,-46 88,-68 29,-21 61,-40 89,-62 93,-75 182,-155 276,-230 114,-90 230,-180 349,-265 38,-28 78,-52 120,-73 33,-17 76,-16 104,-42 20,-18 5,-60 26,-78 119,-100 261,-171 385,-266 116,-88 220,-189 333,-281 42,-33 85,-65 131,-94 62,-39 132,-67 192,-109 21,-14 26,-45 47,-57 18,-11 44,-15 63,-5 45,22 77,65 120,93 46,31 100,52 145,84 25,17 40,44 63,62 15,12 36,16 52,26 29,19 57,40 83,63 49,41 89,93 141,130 24,17 59,14 83,31 31,22 46,63 78,84 33,20 77,16 110,36 38,24 61,68 99,94 31,21 73,24 104,47 67,48 121,112 187,161 28,21 66,26 94,47 31,23 48,61 78,83 35,25 78,36 115,58 38,22 75,46 109,72 98,76 186,163 287,235 61,43 134,69 198,109 58,37 116,74 166,120 11,10 -2,35 11,42 65,37 134,71 208,83 22,4 49,-20 52,-42 7,-42 -15,-83 -26,-125 -17,-66 -36,-132 -57,-198 -20,-61 -45,-121 -68,-182 -29,-80 -61,-159 -88,-239 -37,-106 -71,-212 -105,-318 -18,-59 -29,-120 -52,-177 -24,-62 -67,-115 -88,-177 -9,-25 8,-54 0,-78 -20,-62 -61,-116 -84,-178 -10,-29 -5,-63 -15,-93 -37,-110 -92,-213 -125,-323 -10,-33 7,-72 -5,-104 -12,-30 -50,-44 -63,-73 -31,-72 -37,-152 -68,-224 -7,-17 -23,-34 -41,-37 -17,-2 -39,10 -42,26 -10,51 -1,105 5,157 4,32 11,65 26,93 12,23 43,34 52,58 13,30 2,67 11,99 35,128 71,256 120,380 6,15 34,11 41,26 9,19 -5,42 0,62 11,37 35,68 47,105 8,23 5,49 11,72 4,19 16,34 20,53 5,20 -2,42 6,62 13,37 44,67 57,104 19,56 18,116 36,172 16,47 47,88 63,135 7,24 -4,51 5,73 23,61 68,111 89,172 9,30 -11,65 0,94 21,60 73,106 93,167 12,34 -6,73 0,109 5,23 39,40 32,63 -6,16 -36,6 -52,0 -55,-22 -107,-52 -157,-84 -77,-50 -150,-107 -224,-161 -58,-43 -113,-89 -172,-130 -66,-47 -138,-87 -203,-136 -60,-45 -113,-99 -172,-146 -28,-22 -60,-40 -88,-62 -25,-20 -47,-43 -73,-63 -44,-33 -90,-62 -135,-93 -47,-33 -94,-67 -141,-99 -53,-36 -109,-68 -162,-105 -62,-43 -121,-89 -182,-135 -38,-29 -75,-61 -114,-89 -47,-31 -101,-53 -146,-88 -41,-32 -70,-76 -110,-109 -13,-11 -31,-13 -47,-21 -66,-36 -122,-112 -197,-110 -86,4 -152,80 -224,125 -19,12 -31,32 -47,47 -39,36 -79,71 -120,104 -37,30 -76,56 -115,84 -27,19 -56,37 -83,57 -27,20 -52,42 -78,63 -45,35 -90,70 -136,104 -32,23 -67,43 -98,67 -35,27 -66,56 -99,84 -33,26 -65,53 -99,78 -31,22 -63,41 -94,62 -38,26 -79,49 -115,78 -17,15 -24,39 -41,53 -62,47 -130,85 -193,130 -58,40 -113,85 -172,125 -58,38 -123,66 -177,109 -32,25 -48,66 -78,94 -31,29 -70,49 -104,73 -51,35 -103,67 -151,104 -30,22 -50,59 -84,73 -26,10 -63,14 -83,-5 -15,-14 9,-39 16,-58 12,-38 30,-75 41,-114 12,-43 18,-87 26,-130 6,-32 6,-64 16,-94 9,-28 29,-52 42,-78 9,-21 22,-40 26,-63 5,-38 -10,-77 0,-114 6,-26 35,-39 46,-63 16,-31 20,-66 32,-99 14,-39 36,-75 47,-114 15,-58 16,-119 31,-177 6,-25 21,-46 31,-68 14,-31 31,-61 42,-94 17,-51 23,-106 41,-156 13,-34 44,-59 53,-94 5,-22 -15,-45 -11,-68 8,-38 35,-71 47,-109 16,-48 26,-97 36,-146 8,-34 3,-71 16,-104 17,-42 53,-74 73,-115 10,-20 12,-45 16,-67 8,-45 13,-91 20,-136 4,-21 19,-43 11,-62 -7,-18 -28,-31 -47,-31zm-1230 -297c3,-10 6,-20 14,-27 15,-14 33,-28 53,-34 17,-6 37,6 54,1 18,-4 29,-28 48,-29 23,-1 43,18 65,24 15,4 32,0 46,7 12,6 20,19 26,31 4,9 -1,19 1,29 4,16 15,30 17,46 4,22 4,46 0,68 -2,15 -7,29 -15,41 -6,10 -13,21 -24,24 -17,6 -36,0 -55,2 -18,2 -36,10 -54,10 -17,0 -33,-10 -50,-12 -30,-3 -60,3 -90,-2 -15,-2 -35,-3 -41,-17 -13,-28 -10,-62 -9,-94 1,-23 8,-46 14,-68zm5395 -1569c3,-13 15,-25 28,-26 104,-10 209,-1 313,-7 25,-1 49,-15 74,-13 21,1 37,19 58,23 21,4 43,-3 64,0 11,1 19,12 30,13 22,4 45,6 67,3 13,-2 24,-14 37,-16 15,-4 32,0 48,-3 23,-3 46,-14 69,-14 18,0 35,12 53,14 32,5 65,10 97,10 40,-1 80,-14 120,-14 35,-1 73,-3 106,11 17,8 22,31 30,49 4,9 2,20 4,30 3,11 12,22 12,34 0,14 -4,30 -12,42 -6,10 -17,20 -30,23 -30,6 -61,6 -92,4 -13,0 -25,-10 -39,-11 -38,-3 -77,-3 -115,0 -19,1 -37,12 -55,14 -48,3 -96,4 -143,0 -15,-2 -27,-15 -42,-17 -50,-4 -100,-4 -150,0 -23,2 -43,17 -66,19 -38,4 -76,4 -113,0 -15,-2 -27,-17 -42,-19 -46,-5 -92,-5 -138,-2 -17,1 -33,14 -51,14 -32,0 -69,6 -96,-12 -20,-12 -20,-42 -24,-64 -4,-28 -8,-58 -2,-85z"/>
</g>
</svg>
