<?xml version="1.0" encoding="UTF-8" standalone="no"?>
<!-- Creator: CorelDRAW -->

<svg
   xml:space="preserve"
   width="3.7cm"
   height="3.7cm"
   style="clip-rule:evenodd;fill-rule:evenodd;image-rendering:optimizeQuality;shape-rendering:geometricPrecision;text-rendering:geometricPrecision"
   viewBox="0 0 36.999999 36.999999"
   version="1.1"
   id="svg32"
   sodipodi:docname="Spotify_Nein_Danke print.svg"
   inkscape:version="1.2.2 (b0a8486541, 2022-12-01)"
   inkscape:export-filename="/home/shiro/Desktop/Facebook_Nein_Danke.svg.png"
   inkscape:export-xdpi="96"
   inkscape:export-ydpi="96"
   xmlns:inkscape="http://www.inkscape.org/namespaces/inkscape"
   xmlns:sodipodi="http://sodipodi.sourceforge.net/DTD/sodipodi-0.dtd"
   xmlns:xlink="http://www.w3.org/1999/xlink"
   xmlns="http://www.w3.org/2000/svg"
   xmlns:svg="http://www.w3.org/2000/svg"
   xmlns:rdf="http://www.w3.org/1999/02/22-rdf-syntax-ns#"
   xmlns:cc="http://creativecommons.org/ns#"
   xmlns:dc="http://purl.org/dc/elements/1.1/"><metadata
   id="metadata36"><rdf:RDF><cc:Work
       rdf:about=""><dc:format>image/svg+xml</dc:format><dc:type
         rdf:resource="http://purl.org/dc/dcmitype/StillImage" /><dc:title /></cc:Work></rdf:RDF></metadata><sodipodi:namedview
   pagecolor="#ffffff"
   bordercolor="#666666"
   borderopacity="1"
   objecttolerance="10"
   gridtolerance="10"
   guidetolerance="10"
   inkscape:pageopacity="0"
   inkscape:pageshadow="2"
   inkscape:window-width="1920"
   inkscape:window-height="951"
   id="namedview34"
   showgrid="false"
   inkscape:zoom="5.2052345"
   inkscape:cx="90.38978"
   inkscape:cy="70.121721"
   inkscape:window-x="0"
   inkscape:window-y="0"
   inkscape:window-maximized="1"
   inkscape:current-layer="g841"
   showguides="true"
   inkscape:guide-bbox="true"
   inkscape:snap-global="false"
   units="cm"
   inkscape:showpageshadow="2"
   inkscape:pagecheckerboard="0"
   inkscape:deskcolor="#d1d1d1"
   inkscape:document-units="cm" />
 <defs
   id="defs4">
  <style
   type="text/css"
   id="style2">
   <![CDATA[
    .fil1 {fill:#1F1A17}
    .fil2 {fill:#DE411A}
    .fil0 {fill:#FACF00}
    .fil3 {fill:#1F1A17;fill-rule:nonzero}
   ]]>
  </style>
 
    
    
    
    
    
    
    
    
    
    
   <path
   inkscape:connector-curvature="0"
   id="path833"
   d="M 39.326675,62.01092 A 65.908504,65.908504 0 0 1 129.78989,39.554947 65.908504,65.908504 0 0 1 152.24585,130.01816 65.908504,65.908504 0 0 1 61.78265,152.47412 65.908504,65.908504 0 0 1 39.326675,62.01092 Z"
   style="fill:#ff0000;fill-opacity:0;stroke:#ffffff;stroke-width:0;stroke-miterlimit:4;stroke-dasharray:none;stroke-opacity:1" /></defs>
 <g
   id="Ebene_x0020_1"
   transform="translate(0,-154.93502)"
   inkscape:label="Ebene 1">
  <metadata
   id="CorelCorpID_0Corel-Layer" />
  <g
   id="_81132720">
   
   
   
   
   
   
   
  <g
   id="g5843"
   transform="translate(0.10166049,-0.10166049)">

<rect
   style="fill:#ffffff;fill-opacity:1;stroke:#ffffff;stroke-width:0;stroke-miterlimit:4;stroke-dasharray:none;stroke-opacity:1"
   id="rect843"
   width="37"
   height="36.999996"
   x="0.11399445"
   y="155.03668" /><g
   style="clip-rule:evenodd;fill-rule:evenodd;image-rendering:optimizeQuality;shape-rendering:geometricPrecision;text-rendering:geometricPrecision"
   id="g841"
   transform="matrix(0.14588265,0,0,0.14588265,4.3983395,159.53669)"><path
   inkscape:connector-curvature="0"
   id="_78721264"
   class="fil0"
   d="M 0,95.9772 C 0,42.9775 42.9612,0.0043 95.9618,0 h 0.0158 c 52.9925,0.0043 95.9575,42.9774 95.9575,95.9773 1e-4,52.4434 -42.0664,95.0614 -94.2879,95.9577 H 94.2919 C 42.0626,191.0387 0,148.4207 0,95.9772 Z"
   style="fill:#ffffff;fill-opacity:1" /><path
   inkscape:connector-curvature="0"
   id="path4554"
   d="M 34.385683,72.973082 A 66.073952,66.073952 0 0 1 119.35273,34.086882 66.073952,66.073952 0 0 1 158.23892,119.05394 66.073952,66.073952 0 0 1 73.271867,157.94013 66.073952,66.073952 0 0 1 34.385683,72.973082 Z"
   style="fill:#ff0000;fill-opacity:0;stroke-width:0.28798187" /><path
   inkscape:connector-curvature="0"
   id="_83477624"
   class="fil3"
   d="m 28.9798,115.403 c 1.0217,-0.4763 1.8748,-0.5693 2.559,-0.2787 0.6844,0.2907 1.274,0.967 1.7691,2.0287 0.2428,0.5208 0.3622,1.0384 0.3582,1.5525 -0.0042,0.5141 -0.1713,1.0188 -0.5013,1.5142 l -9.89151,15.112 0.028,0.0602 12.8314,-5.9833 c 0.8013,-0.3738 1.4954,-0.4414 2.0821,-0.2029 0.5868,0.2386 1.053,0.7285 1.3987,1.4697 0.3457,0.7413 0.4213,1.4134 0.2269,2.0162 -0.1945,0.6028 -0.6925,1.0912 -1.4938,1.4648 l -16.9782,7.9171 c -0.981601,0.4577 -1.843,0.585 -2.584,0.3818 -0.7412,-0.2032 -1.3545,-0.8257 -1.8403,-1.8674 -0.1868,-0.4008 -0.3233,-0.7455 -0.4093,-1.0347 -0.0861,-0.2892 -0.1207,-0.5596 -0.1039,-0.8113 0.0167,-0.2517 0.0753,-0.4924 0.1754,-0.722 0.1002,-0.2297 0.2332,-0.4807 0.3989,-0.7531 l 9.5288,-14.8698 -0.028,-0.0601 -12.4707,5.8151 c -0.8013,0.3737 -1.4955,0.4413 -2.0822,0.2028 -0.5868,-0.2386 -1.053,-0.7285 -1.3986,-1.4696 -0.3457,-0.7414 -0.4213,-1.4134 -0.2268,-2.0162 0.1943,-0.6029 0.6924,-1.0912 1.4936,-1.4648 l 17.1585,-8.0012 z m 28.6983,38.4149 c 0.5118,-1.0044 1.1267,-1.6029 1.8449,-1.795 0.7182,-0.1924 1.5992,-0.0225 2.643,0.5093 0.5121,0.2609 0.9248,0.5952 1.2381,1.0029 0.3132,0.4078 0.4923,0.9084 0.5372,1.5018 l 1.5093,17.9983 0.0592,0.0301 6.4274,-12.6147 c 0.4015,-0.7877 0.9067,-1.2684 1.516,-1.4416 0.6093,-0.1734 1.2782,-0.0744 2.007,0.297 0.7287,0.3712 1.202,0.8543 1.42,1.449 0.2179,0.5948 0.1262,1.2861 -0.2752,2.074 l -8.5048,16.6915 c -0.4917,0.9651 -1.0921,1.5956 -1.8013,1.8917 -0.709,0.2963 -1.5756,0.1834 -2.5997,-0.3385 -0.394,-0.2007 -0.7138,-0.3885 -0.9596,-0.5633 -0.2459,-0.1749 -0.4396,-0.3667 -0.5813,-0.5754 -0.1418,-0.2086 -0.2439,-0.4344 -0.3064,-0.6769 -0.0624,-0.2427 -0.1121,-0.5224 -0.1493,-0.8389 l -1.6459,-17.5843 -0.0591,-0.03 -6.2469,12.2601 c -0.4013,0.7878 -0.9067,1.2684 -1.516,1.4417 -0.6092,0.1733 -1.2783,0.0742 -2.0069,-0.297 -0.7288,-0.3713 -1.2021,-0.8543 -1.42,-1.4491 -0.218,-0.5947 -0.1262,-1.2862 0.2752,-2.0739 z m -4.9303,-4.6374 c 0.4978,-0.6489 1.091,-1.0226 1.7795,-1.1211 0.6886,-0.0986 1.366,0.1079 2.0325,0.6192 0.6665,0.5114 1.0411,1.1122 1.1242,1.8029 0.083,0.6906 -0.1245,1.3603 -0.6223,2.0091 L 45.3144,167.8 c -0.4979,0.6489 -1.0911,1.0226 -1.7797,1.1211 -0.6886,0.0986 -1.366,-0.1078 -2.0323,-0.6192 -0.6665,-0.5113 -1.0411,-1.1123 -1.1242,-1.8029 -0.083,-0.6906 0.1244,-1.3603 0.6223,-2.0092 z M 38.408,135.5043 c 0.9134,-0.8023 1.73,-1.1371 2.4498,-1.0044 0.7196,0.1327 1.4004,0.5643 2.0423,1.2949 l 8.4252,9.5901 c 0.5251,0.5978 0.847,1.1903 0.965701,1.7775 0.1186,0.5872 -0.1458,1.1653 -0.7935,1.7343 -0.6477,0.569 -1.2549,0.7567 -1.822,0.5634 -0.567,-0.1933 -1.113,-0.5888 -1.6384,-1.1866 l -6.9368,-7.8962 -3.8859,3.4138 6.0835,6.9247 c 0.4669,0.5314 0.7606,1.0751 0.8813,1.6312 0.1207,0.556 -0.1345,1.1111 -0.7656,1.6656 -0.631,0.5543 -1.2145,0.7358 -1.7502,0.5446 -0.5359,-0.1913 -1.0372,-0.5527 -1.504,-1.0841 l -6.0836,-6.9248 -4.3343,3.8079 7.1121,8.0954 c 0.5252,0.5977 0.8472,1.1903 0.965801,1.7775 0.1187,0.5871 -0.1458,1.1652 -0.7934,1.7343 -0.6477,0.5689 -1.2551,0.7566 -1.822,0.5634 -0.5671,-0.1934 -1.1132,-0.5888 -1.6383,-1.1867 l -8.6002,-9.78931 c -0.6419,-0.7306 -0.982301,-1.4613 -1.0211,-2.1921 -0.0389,-0.7309 0.3983,-1.4976 1.3116,-2.3 l 13.152,-11.5544 z"
   style="fill:#000000;fill-opacity:1;fill-rule:nonzero" /><path
   inkscape:connector-curvature="0"
   id="_82549976"
   class="fil3"
   d="m 92.9802,181.566 h 4.5756 c 1.0831,0 1.9894,-0.2212 2.7188,-0.6632 0.7295,-0.4421 1.3209,-1.0223 1.774,-1.7407 0.4531,-0.7184 0.7736,-1.5252 0.9614,-2.4204 0.1879,-0.8952 0.2819,-1.807 0.2819,-2.7354 0,-2.3431 -0.4642,-4.1888 -1.3926,-5.5372 -0.9283,-1.3484 -2.387299,-2.0226 -4.376599,-2.0225 h -4.5424 z m -5.4376,-16.3131 c 0,-1.2156 0.2873,-2.0501 0.8622,-2.5032 0.5746,-0.4531 1.3483,-0.6798 2.3209,-0.6797 h 6.6312 c 1.481,0 2.9067,0.1823 4.2772,0.547 1.3705,0.3647 2.5807,1.0003 3.6306,1.9066 1.0499,0.9062 1.8899,2.1274 2.5199,3.6637 0.6299,1.5362 0.9449,3.4759 0.9449,5.819 0,1.901 -0.2597,3.5864 -0.7791,5.0563 -0.5194,1.4699 -1.2655,2.7188 -2.2381,3.7467 -0.9725,1.0279 -2.1718,1.807 -3.5974,2.3375 -1.4258,0.5305 -3.0449,0.7957 -4.8575,0.7958 h -6.5318 c -0.972601,0 -1.7462,-0.2266 -2.3208,-0.6798 -0.5749,-0.453 -0.8622,-1.2876 -0.8621,-2.5032 z m 28.1331,-0.6118 -0.0638,0.0183 -0.4504,10.0974 6.1194,-1.7546 z m -4.3252,-3.1749 c 0.0631,-0.6619 0.2683,-1.1691 0.6156,-1.5217 0.3474,-0.3526 0.8398,-0.6202 1.4772,-0.8029 l 1.243,-0.3565 c 0.5949,-0.1706 1.1703,-0.2092 1.726,-0.1155 0.5557,0.0935 1.0981,0.5015 1.627,1.2235 l 11.3464,15.752 c 0.1793,0.2245 0.3838,0.5166 0.6134,0.8761 0.2295,0.3596 0.387,0.6881 0.4723,0.9856 0.1828,0.6374 0.0991,1.2478 -0.251,1.8311 -0.3502,0.5833 -0.8652,0.9724 -1.5451,1.1673 -0.5737,0.1645 -1.0944,0.1932 -1.5621,0.0859 -0.4676,-0.1074 -0.8703,-0.3886 -1.2077,-0.8438 l -2.4354,-3.4408 -8.4142,2.4127 -0.2737,4.2178 c -0.0238,0.5586 -0.1949,1.0044 -0.5134,1.3371 -0.3185,0.3328 -0.7859,0.5875 -1.402,0.7642 -0.7225,0.2071 -1.3662,0.1676 -1.9312,-0.1188 -0.565,-0.2863 -0.9481,-0.7802 -1.1491,-1.4814 -0.0853,-0.2975 -0.1259,-0.6595 -0.1217,-1.0861 0.004,-0.4265 0.0227,-0.7826 0.0559,-1.0681 z m 11.4969,-1.0023 c -0.5974,-0.9559 -0.7935,-1.7914 -0.5884,-2.5059 0.2049,-0.7147 0.8043,-1.3823 1.7978,-2.0032 0.4874,-0.3045 0.9865,-0.4861 1.4973,-0.5446 0.5108,-0.0585 1.0321,0.0458 1.564,0.313 l 16.2049,7.9761 0.0563,-0.0352 -7.5025,-12.0066 c -0.4686,-0.7498 -0.6203,-1.4304 -0.4551,-2.0419 0.1653,-0.6115 0.5947,-1.1339 1.2883,-1.5674 0.6937,-0.4333 1.3514,-0.5903 1.9735,-0.4707 0.622,0.1194 1.1674,0.5542 1.636,1.304 l 9.92721,15.8868 c 0.5739,0.9185 0.8051,1.7579 0.6938,2.5183 -0.1113,0.7603 -0.6545,1.4449 -1.6292,2.054 -0.375,0.2344 -0.7006,0.4117 -0.9771,0.5324 -0.2766,0.1207 -0.5407,0.188 -0.7926,0.202 -0.2518,0.0141 -0.4979,-0.0147 -0.738,-0.0861 -0.2402,-0.0715 -0.5056,-0.1728 -0.796,-0.3041 l -15.9203,-7.6456 -0.0563,0.0351 7.2916,11.669 c 0.4686,0.7498 0.6202,1.4305 0.455,2.0421 -0.1652,0.6114 -0.5947,1.1339 -1.2882,1.5673 -0.6936,0.4334 -1.3514,0.5903 -1.9735,0.4707 -0.622,-0.1194 -1.1674,-0.5542 -1.6359,-1.304 l -10.0326,-16.0555 z m 19.1074,-12.9893 c -0.6172,-0.5365 -0.9541,-1.1515 -1.0103,-1.8447 -0.0563,-0.6934 0.1911,-1.3569 0.7422,-1.9909 0.551,-0.634 1.1737,-0.9713 1.8681,-1.0119 0.6944,-0.0408 1.3501,0.2071 1.9674,0.7437 l 5.9555,5.1771 -1.4944,-12.6338 c -0.0472,-0.4511 -0.0533,-0.8737 -0.0181,-1.2678 0.0351,-0.3943 0.2122,-0.7748 0.5312,-1.1419 0.4206,-0.4837 0.9545,-0.8031 1.6017,-0.9579 0.6472,-0.1551 1.2294,-0.008 1.7466,0.4418 0.317,0.2756 0.5257,0.5743 0.6266,0.8963 0.1009,0.3219 0.1634,0.6544 0.1873,0.9975 l 0.7747,8.0541 11.9109,1.6114 c 0.4432,0.0631 0.8707,0.1272 1.2826,0.1923 0.4119,0.0652 0.7513,0.2138 1.0183,0.4459 0.3837,0.3336 0.6462,0.6716 0.7878,1.0142 0.1414,0.3427 0.2002,0.6793 0.1763,1.0101 -0.0239,0.3306 -0.1113,0.6501 -0.262,0.9584 -0.1508,0.3082 -0.335,0.5874 -0.5525,0.8377 -0.3626,0.417 -0.727,0.6933 -1.0936,0.8286 -0.3666,0.1353 -0.8901,0.1562 -1.5703,0.0627 l -11.4182,-1.6223 0.2944,4.2099 4.0788,3.5457 c 0.6173,0.5366 0.9541,1.1515 1.0104,1.8448 0.0564,0.6933 -0.191,1.3568 -0.7421,1.9908 -0.5511,0.6339 -1.1738,0.9713 -1.8683,1.012 -0.6943,0.0407 -1.35,-0.2072 -1.9673,-0.7438 z m 13.4092,-15.232 c -1.1018,-0.5138 -1.7366,-1.1269 -1.9044,-1.8393 -0.1677,-0.7123 -0.0462,-1.5092 0.3648,-2.3907 l 5.3948,-11.5692 c 0.3364,-0.7212 0.7495,-1.2541 1.2394,-1.5988 0.4901,-0.3447 1.1256,-0.3348 1.907,0.0295 0.7813,0.3643 1.1974,0.8449 1.2483,1.4419 0.0509,0.5968 -0.0918,1.2558 -0.4281,1.9771 l -4.442,9.5257 4.6879,2.186 3.8954,-8.3539 c 0.2989,-0.6411 0.6787,-1.1285 1.1394,-1.4625 0.4605,-0.334 1.0714,-0.3235 1.8328,0.0314 0.7612,0.3551 1.162,0.8164 1.2022,1.3838 0.0402,0.5676 -0.0892,1.1718 -0.3882,1.813 l -3.8954,8.3537 5.2288,2.4382 4.554,-9.76621 c 0.3363,-0.721 0.7494,-1.254 1.2395,-1.5987 0.4899,-0.3447 1.1255,-0.3349 1.9069,0.0295 0.7812,0.3642 1.1973,0.8449 1.2483,1.4418 0.0508,0.5969 -0.0919,1.2559 -0.4281,1.9771 l -5.5069,11.8096 c -0.4111,0.8815 -0.9434,1.4868 -1.5969,1.8162 -0.6535,0.3293 -1.5314,0.2372 -2.6332,-0.2765 l -15.8663,-7.3987 z"
   style="fill:#000000;fill-opacity:1;fill-rule:nonzero" /><path
   inkscape:connector-curvature="0"
   id="path858"
   d="M 39.326675,62.01092 A 65.908504,65.908504 0 0 1 129.78989,39.554947 65.908504,65.908504 0 0 1 152.24585,130.01816 65.908504,65.908504 0 0 1 61.78265,152.47412 65.908504,65.908504 0 0 1 39.326675,62.01092 Z"
   style="fill:#ff0000;fill-opacity:0;stroke:#ffffff;stroke-width:0;stroke-miterlimit:4;stroke-dasharray:none;stroke-opacity:1" /><text
   id="text837"
   style="font-style:normal;font-variant:normal;font-weight:500;font-stretch:normal;font-size:33.4854px;line-height:1.25;font-family:'AG Book Rounded';-inkscape-font-specification:'AG Book Rounded, Medium';font-variant-ligatures:normal;font-variant-caps:normal;font-variant-numeric:normal;font-feature-settings:normal;text-align:start;letter-spacing:-1.56369px;word-spacing:0px;writing-mode:lr-tb;text-anchor:start;fill:#000000;fill-opacity:0.972574;stroke:none;stroke-width:0.837135"
   xml:space="preserve"><textPath
     id="textPath840"
     xlink:href="#path833"
     style="font-style:normal;font-variant:normal;font-weight:normal;font-stretch:normal;font-family:'AG Book Rounded';-inkscape-font-specification:'AG Book Rounded'"> SPOTIFY?</textPath></text>
<path
   fill="#1ed760"
   d="m 53.38365,69.623273 c -10.984667,0 -19.889929,8.905022 -19.889929,19.889698 0,10.985159 8.905262,19.889469 19.889929,19.889469 10.985871,0 19.890179,-8.90431 19.890179,-19.889469 0,-10.983963 -8.904308,-19.888748 -19.890418,-19.888748 z m 9.121398,28.686654 c -0.356264,0.58428 -1.121047,0.76953 -1.705337,0.41089 -4.669942,-2.85251 -10.548829,-3.49854 -17.472301,-1.91672 -0.667167,0.15201 -1.3322,-0.26601 -1.484205,-0.93342 -0.15272,-0.6674 0.263633,-1.332437 0.932469,-1.484445 7.576616,-1.730985 14.075651,-0.985672 19.318482,2.218355 0.584278,0.35865 0.769542,1.12106 0.410892,1.70534 z m 2.434501,-5.415742 c -0.448908,0.729635 -1.4037,0.960021 -2.132864,0.511124 -5.346386,-3.28621 -13.496118,-4.237919 -19.819859,-2.31835 -0.820126,0.247724 -1.686341,-0.214473 -1.935247,-1.033175 -0.247009,-0.820127 0.215421,-1.684671 1.034128,-1.934058 7.22344,-2.191757 16.203518,-1.130079 22.343188,2.642792 0.729164,0.448897 0.95955,1.403693 0.510654,2.131904 z m 0.209006,-5.639476 c -6.410434,-3.807548 -16.986833,-4.15764 -23.107268,-2.300062 -0.982827,0.298077 -2.022178,-0.25675 -2.320011,-1.239574 -0.297845,-0.983297 0.256514,-2.021936 1.240045,-2.320725 7.025835,-2.132854 18.705465,-1.720772 26.085895,2.660605 0.885927,0.524664 1.175687,1.666381 0.650783,2.549211 -0.52252,0.884019 -1.667322,1.175445 -2.54849,0.650545 z m 22.459096,0.729636 c -3.434417,-0.81894 -4.044822,-1.393719 -4.044822,-2.601465 0,-1.141005 1.073551,-1.90888 2.672007,-1.90888 1.548574,0 3.082898,0.58309 4.693231,1.783474 0.04746,0.03633 0.109231,0.05082 0.168628,0.04133 0.06177,-0.0091 0.114001,-0.04203 0.149632,-0.09168 l 1.676841,-2.363716 c 0.0689,-0.09738 0.0498,-0.231574 -0.0428,-0.305914 -1.916731,-1.537413 -4.073338,-2.284862 -6.5957,-2.284862 -3.707566,0 -6.298818,2.225246 -6.298818,5.409089 0,3.414229 2.234988,4.623163 6.096931,5.556347 3.284785,0.756948 3.840563,1.391105 3.840563,2.524509 0,1.25644 -1.12106,2.03785 -2.926148,2.03785 -2.004601,0 -3.641049,-0.6769 -5.469891,-2.258735 -0.04508,-0.04038 -0.106846,-0.057 -0.163882,-0.05463 -0.06177,0.0048 -0.116386,0.03326 -0.15439,0.07838 l -1.881084,2.237355 c -0.07835,0.095 -0.06892,0.23276 0.02134,0.31352 2.128106,1.90009 4.745485,2.90239 7.57187,2.90239 3.994952,0 6.576699,-2.18273 6.576699,-5.562521 0.007,-2.851802 -1.700578,-4.431253 -5.883154,-5.448753 z M 102.53763,84.59743 c -1.73145,0 -3.151782,0.682132 -4.325082,2.079888 v -1.573276 c 0,-0.12422 -0.0998,-0.225399 -0.22327,-0.225399 h -3.07577 c -0.12351,0 -0.22326,0.101182 -0.22326,0.225399 v 17.481098 c 0,0.12351 0.0997,0.22563 0.22326,0.22563 h 3.07577 c 0.12351,0 0.22327,-0.1022 0.22327,-0.22563 v -5.517403 c 1.1733,1.31344 2.593632,1.9571 4.325082,1.9571 3.21828,0 6.47695,-2.47725 6.47695,-7.212993 0.005,-4.736694 -3.25392,-7.214652 -6.47458,-7.214652 z m 2.90002,7.214414 c 0,2.410505 -1.48445,4.094463 -3.61255,4.094463 -2.101982,0 -3.688562,-1.759961 -3.688562,-4.094463 0,-2.334739 1.58658,-4.094225 3.688562,-4.094225 2.09247,-2.61e-4 3.61255,1.721246 3.61255,4.093988 z m 11.92546,-7.214414 c -4.14459,0 -7.39137,3.191205 -7.39137,7.265954 0,4.031043 3.22541,7.187573 7.34148,7.187573 4.15884,0 7.41512,-3.18028 7.41512,-7.239113 0,-4.045059 -3.23491,-7.21394 -7.36523,-7.21394 z m 0,11.332627 c -2.20412,0 -3.86669,-1.771836 -3.86669,-4.119401 0,-2.358252 1.60557,-4.069523 3.8168,-4.069523 2.21837,0 3.89045,1.771123 3.89045,4.121063 0,2.357779 -1.61508,4.067861 -3.84056,4.067861 z m 16.21491,-11.051414 h -3.38454 v -3.459594 c 0,-0.123981 -0.0997,-0.22516 -0.22326,-0.22516 h -3.07578 c -0.1235,0 -0.22564,0.101181 -0.22564,0.22516 v 3.459594 h -1.47731 c -0.1235,0 -0.22327,0.101182 -0.22327,0.225399 v 2.642792 c 0,0.123979 0.0998,0.225397 0.22327,0.225397 h 1.47731 v 6.839147 c 0,2.762259 1.3752,4.163579 4.08996,4.163579 1.10205,0 2.01647,-0.22801 2.87864,-0.71729 0.0712,-0.038 0.114,-0.114 0.114,-0.19476 v -2.51762 c 0,-0.076 -0.0404,-0.14963 -0.10685,-0.19001 -0.0665,-0.0427 -0.14963,-0.0451 -0.21852,-0.01 -0.5914,0.29689 -1.1638,0.43465 -1.80509,0.43465 -0.98566,0 -1.42744,-0.4489 -1.42744,-1.451197 v -6.355809 h 3.38455 c 0.1235,0 0.22325,-0.101182 0.22325,-0.225399 v -2.642561 c 0.005,-0.124218 -0.095,-0.225398 -0.22088,-0.225398 z m 11.79007,0.01354 v -0.424908 c 0,-1.250024 0.47978,-1.807464 1.55333,-1.807464 0.64128,0 1.15668,0.127307 1.73384,0.31969 0.0712,0.02232 0.14487,0.01121 0.20189,-0.03135 0.0594,-0.04251 0.0927,-0.110674 0.0927,-0.182884 v -2.591251 c 0,-0.09905 -0.0618,-0.186685 -0.15912,-0.215898 -0.60803,-0.181222 -1.38708,-0.367193 -2.55564,-0.367193 -2.83826,0 -4.34171,1.599403 -4.34171,4.623638 v 0.650782 h -1.47731 c -0.12352,0 -0.22564,0.101182 -0.22564,0.225161 v 2.65633 c 0,0.12398 0.10208,0.225398 0.22564,0.225398 h 1.47731 v 10.546713 c 0,0.12588 0.10208,0.22563 0.22564,0.22563 h 3.0734 c 0.12589,0 0.22564,-0.0998 0.22564,-0.22563 V 87.972942 h 2.87152 l 4.39871,10.545995 c -0.49878,1.1068 -0.99042,1.32768 -1.6602,1.32768 -0.54153,0 -1.11394,-0.1615 -1.69583,-0.48214 -0.0546,-0.0285 -0.12114,-0.0333 -0.17815,-0.0166 -0.0594,0.0214 -0.10923,0.0641 -0.133,0.12114 l -1.04267,2.287243 c -0.0498,0.10923 -0.007,0.23513 0.0974,0.29213 1.0878,0.58903 2.06872,0.84079 3.28241,0.84079 2.27061,0 3.52705,-1.0593 4.63148,-3.904693 l 5.33451,-13.784459 c 0.0285,-0.06936 0.019,-0.147733 -0.0237,-0.209248 -0.0404,-0.06104 -0.10923,-0.09785 -0.18289,-0.09785 H 157.916 c -0.0974,0 -0.18288,0.06104 -0.21377,0.151058 l -3.28002,9.366031 -3.59118,-9.372207 c -0.0333,-0.08717 -0.11639,-0.144882 -0.20901,-0.144882 h -5.25376 z m -6.83557,-0.01354 h -3.07578 c -0.12351,0 -0.22564,0.101182 -0.22564,0.225399 v 13.414895 c 0,0.12588 0.10207,0.22563 0.22564,0.22563 h 3.07578 c 0.1235,0 0.22562,-0.0998 0.22562,-0.22563 V 85.104992 c 0,-0.124219 -0.0997,-0.225398 -0.22562,-0.225398 z m -1.52008,-6.108561 c -1.21844,0 -2.20649,0.986148 -2.20649,2.204346 0,1.218909 0.98805,2.206245 2.20649,2.206245 1.21843,0 2.2041,-0.987336 2.2041,-2.206245 0,-1.21796 -0.98805,-2.204346 -2.2041,-2.204346 z M 163.951,89.192091 c -1.21606,0 -2.16373,-0.97736 -2.16373,-2.164205 0,-1.186846 0.95955,-2.175369 2.17561,-2.175369 1.21605,0 2.16373,0.977123 2.16373,2.163018 0,1.186845 -0.95955,2.176556 -2.17561,2.176556 z m 0.0119,-4.124389 c -1.10918,0 -1.9476,0.881169 -1.9476,1.960184 0,1.07854 0.83367,1.947832 1.93572,1.947832 1.10918,0 1.9476,-0.880456 1.9476,-1.960183 0,-1.07854 -0.83367,-1.947833 -1.93572,-1.947833 z m 0.47977,2.170381 0.61279,0.856942 h -0.51779 l -0.55102,-0.786163 H 163.514 v 0.786163 h -0.43227 v -2.271561 h 1.01181 c 0.52965,0 0.87641,0.270051 0.87641,0.724648 0.002,0.372418 -0.21377,0.599954 -0.5249,0.689971 z M 164.0769,86.21322 h -0.5629 v 0.718472 h 0.5629 c 0.28027,0 0.4489,-0.137517 0.4489,-0.359591 0,-0.233711 -0.16863,-0.358881 -0.4489,-0.358881 z"
   id="path3661"
   style="stroke-width:0.237512" /></g></g></g>
 </g>
<style
   id="style1793"
   type="text/css">
	.st0{fill:#4285F4;}
	.st1{fill:#34A853;}
	.st2{fill:#FBBC04;}
	.st3{fill:#EA4335;}
</style></svg>
