<?xml version="1.0" encoding="UTF-8" standalone="no"?>
<!-- Created with Inkscape (http://www.inkscape.org/) -->

<svg
   width="107mm"
   height="37mm"
   viewBox="0 0 107 37"
   version="1.1"
   id="svg891"
   inkscape:version="1.3 (0e150ed6c4, 2023-07-21)"
   sodipodi:docname="105x35-NDSZ.svg"
   xml:space="preserve"
   xmlns:inkscape="http://www.inkscape.org/namespaces/inkscape"
   xmlns:sodipodi="http://sodipodi.sourceforge.net/DTD/sodipodi-0.dtd"
   xmlns:xlink="http://www.w3.org/1999/xlink"
   xmlns="http://www.w3.org/2000/svg"
   xmlns:svg="http://www.w3.org/2000/svg"><sodipodi:namedview
     id="namedview893"
     pagecolor="#ffffff"
     bordercolor="#000000"
     borderopacity="0.25"
     inkscape:showpageshadow="2"
     inkscape:pageopacity="0.0"
     inkscape:pagecheckerboard="0"
     inkscape:deskcolor="#d1d1d1"
     inkscape:document-units="mm"
     showgrid="false"
     showguides="false"
     inkscape:zoom="1.7852694"
     inkscape:cx="231.6177"
     inkscape:cy="210.3324"
     inkscape:window-width="3830"
     inkscape:window-height="2021"
     inkscape:window-x="-8"
     inkscape:window-y="-8"
     inkscape:window-maximized="1"
     inkscape:current-layer="g1498"><sodipodi:guide
       position="0,36"
       orientation="0,1"
       id="guide1012"
       inkscape:locked="false"
       inkscape:label=""
       inkscape:color="rgb(0,134,229)" /><sodipodi:guide
       position="106,37"
       orientation="-1,0"
       id="guide1014"
       inkscape:locked="false"
       inkscape:label=""
       inkscape:color="rgb(0,134,229)" /><sodipodi:guide
       position="107,1"
       orientation="0,1"
       id="guide1016"
       inkscape:locked="false"
       inkscape:label=""
       inkscape:color="rgb(0,134,229)" /><sodipodi:guide
       position="1,0"
       orientation="-1,0"
       id="guide1018"
       inkscape:locked="false"
       inkscape:label=""
       inkscape:color="rgb(0,134,229)" /><sodipodi:guide
       position="-38.564841,23.481347"
       orientation="0,-1"
       id="guide2129"
       inkscape:locked="false" /></sodipodi:namedview><defs
     id="defs888"><color-profile
       name="PSO-Coated-v3"
       xlink:href="file:///WINDOWS/system32/spool/drivers/color/PSOcoated_v3.icc"
       id="color-profile2" /><radialGradient
       inkscape:collect="always"
       xlink:href="#linearGradient6674"
       id="radialGradient6676"
       cx="293.3602"
       cy="257.66605"
       fx="293.3602"
       fy="257.66605"
       r="129.78416"
       gradientTransform="matrix(1.0121715,1.0874004,-0.56345111,0.5244633,140.26964,-161.67431)"
       gradientUnits="userSpaceOnUse" /><linearGradient
       inkscape:collect="always"
       id="linearGradient6674"><stop
         style="stop-color:#ff0000;stop-opacity:1"
         offset="0"
         id="stop6670" /><stop
         style="stop-color:#ab0000;stop-opacity:1;"
         offset="1"
         id="stop6672" /></linearGradient><radialGradient
       inkscape:collect="always"
       xlink:href="#linearGradient5670"
       id="radialGradient5672"
       cx="288.88455"
       cy="213.34908"
       fx="288.88455"
       fy="213.34909"
       r="102.06708"
       gradientTransform="matrix(1.306693,1.4634962,-0.49200685,0.43927982,27.549477,-224.11062)"
       gradientUnits="userSpaceOnUse" /><linearGradient
       inkscape:collect="always"
       id="linearGradient5670"><stop
         style="stop-color:#e6e6e6;stop-opacity:1"
         offset="0"
         id="stop5666" /><stop
         style="stop-color:#999999;stop-opacity:1"
         offset="1"
         id="stop5668" /></linearGradient><radialGradient
       inkscape:collect="always"
       xlink:href="#linearGradient5670"
       id="radialGradient5674"
       cx="294.18228"
       cy="227.84123"
       fx="294.18228"
       fy="227.84123"
       r="125.17687"
       gradientTransform="matrix(1.0654548,1.1933094,-0.56218089,0.5018872,114.71379,-173.01027)"
       gradientUnits="userSpaceOnUse" /></defs><g
     inkscape:label="Ebene 1"
     inkscape:groupmode="layer"
     id="layer1"><g
       id="g7872"
       transform="matrix(0.60196095,0,0,0.60196095,-6.894605,-35.785975)"><path
         id="path6565"
         style="fill:url(#radialGradient6676);fill-opacity:1;stroke:none;stroke-width:7.55906;stroke-linecap:butt;stroke-linejoin:miter;stroke-miterlimit:4;stroke-dasharray:none;stroke-opacity:1"
         sodipodi:type="inkscape:offset"
         inkscape:radius="-0.46866116"
         inkscape:original="M 299.19141 244.16992 C 267.62669 244.22152 240.0988 264.54581 230.92969 293.32812 C 204.7011 375.66097 317.76586 401.95047 357.27539 445.11328 C 396.78494 401.95047 509.84778 375.66097 483.61914 293.32812 C 468.94856 247.27643 407.28238 222.87648 357.27539 268.52539 C 338.52277 251.40705 318.13024 244.13898 299.19141 244.16992 z "
         transform="scale(0.26458333)"
         d="m 415.35742,244.63672 c -18.81885,-0.0336 -39.08917,7.18556 -57.76562,24.23437 a 0.46870803,0.46870803 0 0 1 -0.63282,0 c -18.67645,-17.04881 -38.9492,-24.26316 -57.76757,-24.23242 -31.36399,0.0513 -58.70833,20.24742 -67.81446,48.83203 -6.5254,20.48355 -4.38842,37.40698 3.08985,52.02539 7.47827,14.61842 20.3302,26.92953 35.26367,38.03711 29.70286,22.09314 67.58207,39.36624 87.54492,60.91016 19.96285,-21.54391 57.84254,-38.81702 87.54492,-60.91016 14.93323,-11.10758 27.78364,-23.41869 35.26172,-38.03711 7.47808,-14.61841 9.61526,-31.54183 3.08985,-52.02539 -7.28491,-22.8677 -26.24245,-40.36793 -49.5918,-46.47851 -5.83734,-1.52765 -11.94971,-2.34429 -18.22266,-2.35547 z" /><g
         id="g5418"
         style="opacity:1;fill:#d4aa00"><rect
           style="fill:#950000;fill-opacity:1;stroke:none;stroke-width:2;stroke-miterlimit:4;stroke-dasharray:none;paint-order:markers fill stroke;stop-color:#000000"
           id="rect3071"
           width="14.986238"
           height="2.7247674"
           x="107.00468"
           y="-50.226662"
           ry="0.68119264"
           rx="0"
           transform="rotate(58.856644)" /><rect
           style="fill:#950000;fill-opacity:1;stroke:none;stroke-width:2;stroke-miterlimit:4;stroke-dasharray:none;paint-order:markers fill stroke;stop-color:#000000"
           id="rect4913"
           width="14.986238"
           height="2.7247674"
           x="83.858322"
           y="-91.871323"
           ry="0.68119264"
           rx="0"
           transform="rotate(77.850029)" /><rect
           style="fill:#950000;fill-opacity:1;stroke:none;stroke-width:2;stroke-miterlimit:4;stroke-dasharray:none;paint-order:markers fill stroke;stop-color:#000000"
           id="rect4915"
           width="14.986238"
           height="2.7247674"
           x="27.117445"
           y="-132.16379"
           ry="0.68119264"
           rx="0"
           transform="rotate(106.9705)" /><rect
           style="fill:#950000;fill-opacity:1;stroke:none;stroke-width:2;stroke-miterlimit:4;stroke-dasharray:none;paint-order:markers fill stroke;stop-color:#000000"
           id="rect4917"
           width="14.986238"
           height="2.7247674"
           x="-54.935734"
           y="-136.35413"
           ry="0.68119264"
           rx="0"
           transform="rotate(141.41642)" /><rect
           style="fill:#950000;fill-opacity:1;stroke:none;stroke-width:2;stroke-miterlimit:4;stroke-dasharray:none;paint-order:markers fill stroke;stop-color:#000000"
           id="rect4919"
           width="14.986238"
           height="2.7247674"
           x="-127.90742"
           y="-88.86972"
           ry="0.68119264"
           rx="0"
           transform="rotate(177.73555)" /><rect
           style="fill:#950000;fill-opacity:1;stroke:none;stroke-width:2;stroke-miterlimit:4;stroke-dasharray:none;paint-order:markers fill stroke;stop-color:#000000"
           id="rect5022"
           width="14.986238"
           height="2.7247674"
           x="-154.72481"
           y="-36.417542"
           ry="0.68119264"
           rx="0"
           transform="rotate(-157.40468)" /><rect
           style="fill:#950000;fill-opacity:1;stroke:none;stroke-width:2;stroke-miterlimit:4;stroke-dasharray:none;paint-order:markers fill stroke;stop-color:#000000"
           id="rect5024"
           width="14.986238"
           height="2.7247674"
           x="-158.69382"
           y="5.0826697"
           ry="0.68119264"
           rx="0"
           transform="rotate(-139.10436)" /><rect
           style="fill:#950000;fill-opacity:1;stroke:none;stroke-width:2;stroke-miterlimit:4;stroke-dasharray:none;paint-order:markers fill stroke;stop-color:#000000"
           id="rect5028"
           width="14.986238"
           height="2.7247674"
           x="-154.61192"
           y="27.282305"
           ry="0.68119264"
           rx="0"
           transform="rotate(-127.86641)" /><rect
           style="fill:#950000;fill-opacity:1;stroke:none;stroke-width:2;stroke-miterlimit:4;stroke-dasharray:none;paint-order:markers fill stroke;stop-color:#000000"
           id="rect5030"
           width="14.986238"
           height="2.7247674"
           x="-154.15099"
           y="21.59638"
           ry="0.68119264"
           rx="0"
           transform="rotate(-127.86641)" /><rect
           style="fill:#950000;fill-opacity:1;stroke:none;stroke-width:2;stroke-miterlimit:4;stroke-dasharray:none;paint-order:markers fill stroke;stop-color:#000000"
           id="rect5032"
           width="14.986238"
           height="2.7247674"
           x="-153.46629"
           y="16.292849"
           ry="0.68119264"
           rx="0"
           transform="rotate(-127.86641)" /><rect
           style="fill:#950000;fill-opacity:1;stroke:none;stroke-width:2;stroke-miterlimit:4;stroke-dasharray:none;paint-order:markers fill stroke;stop-color:#000000"
           id="rect5034"
           width="14.986238"
           height="2.7247674"
           x="-152.95471"
           y="11.48"
           ry="0.68119264"
           rx="0"
           transform="rotate(-127.86641)" /><rect
           style="fill:#950000;fill-opacity:1;stroke:none;stroke-width:2;stroke-miterlimit:4;stroke-dasharray:none;paint-order:markers fill stroke;stop-color:#000000"
           id="rect5026"
           width="14.986238"
           height="2.7247674"
           x="-115.76614"
           y="93.992424"
           ry="0.68119264"
           rx="0"
           transform="rotate(-89.606499)" /><rect
           style="fill:#950000;fill-opacity:1;stroke:none;stroke-width:2;stroke-miterlimit:4;stroke-dasharray:none;paint-order:markers fill stroke;stop-color:#000000"
           id="rect5036"
           width="14.986238"
           height="2.7247674"
           x="-113.80623"
           y="59.587029"
           ry="0.68119264"
           rx="0"
           transform="rotate(-111.78565)" /></g><g
         id="g5446"
         transform="matrix(-1,0,0,1,190.0092,0.06755451)"
         style="opacity:1;fill:#d4aa00"><rect
           style="fill:#950000;fill-opacity:1;stroke:none;stroke-width:2;stroke-miterlimit:4;stroke-dasharray:none;paint-order:markers fill stroke;stop-color:#000000"
           id="rect5420"
           width="14.986238"
           height="2.7247674"
           x="107.00468"
           y="-50.226662"
           ry="0.68119264"
           rx="0"
           transform="rotate(58.856644)" /><rect
           style="fill:#950000;fill-opacity:1;stroke:none;stroke-width:2;stroke-miterlimit:4;stroke-dasharray:none;paint-order:markers fill stroke;stop-color:#000000"
           id="rect5422"
           width="14.986238"
           height="2.7247674"
           x="83.858322"
           y="-91.871323"
           ry="0.68119264"
           rx="0"
           transform="rotate(77.850029)" /><rect
           style="fill:#950000;fill-opacity:1;stroke:none;stroke-width:2;stroke-miterlimit:4;stroke-dasharray:none;paint-order:markers fill stroke;stop-color:#000000"
           id="rect5424"
           width="14.986238"
           height="2.7247674"
           x="27.117445"
           y="-132.16379"
           ry="0.68119264"
           rx="0"
           transform="rotate(106.9705)" /><rect
           style="fill:#950000;fill-opacity:1;stroke:none;stroke-width:2;stroke-miterlimit:4;stroke-dasharray:none;paint-order:markers fill stroke;stop-color:#000000"
           id="rect5426"
           width="14.986238"
           height="2.7247674"
           x="-54.935734"
           y="-136.35413"
           ry="0.68119264"
           rx="0"
           transform="rotate(141.41642)" /><rect
           style="fill:#950000;fill-opacity:1;stroke:none;stroke-width:2;stroke-miterlimit:4;stroke-dasharray:none;paint-order:markers fill stroke;stop-color:#000000"
           id="rect5428"
           width="14.986238"
           height="2.7247674"
           x="-127.90742"
           y="-88.86972"
           ry="0.68119264"
           rx="0"
           transform="rotate(177.73555)" /><rect
           style="fill:#950000;fill-opacity:1;stroke:none;stroke-width:2;stroke-miterlimit:4;stroke-dasharray:none;paint-order:markers fill stroke;stop-color:#000000"
           id="rect5430"
           width="14.986238"
           height="2.7247674"
           x="-154.72481"
           y="-36.417542"
           ry="0.68119264"
           rx="0"
           transform="rotate(-157.40468)" /><rect
           style="fill:#950000;fill-opacity:1;stroke:none;stroke-width:2;stroke-miterlimit:4;stroke-dasharray:none;paint-order:markers fill stroke;stop-color:#000000"
           id="rect5432"
           width="14.986238"
           height="2.7247674"
           x="-158.69382"
           y="5.0826697"
           ry="0.68119264"
           rx="0"
           transform="rotate(-139.10436)" /><rect
           style="fill:#950000;fill-opacity:1;stroke:none;stroke-width:2;stroke-miterlimit:4;stroke-dasharray:none;paint-order:markers fill stroke;stop-color:#000000"
           id="rect5434"
           width="14.986238"
           height="2.7247674"
           x="-154.61192"
           y="27.282305"
           ry="0.68119264"
           rx="0"
           transform="rotate(-127.86641)" /><rect
           style="fill:#950000;fill-opacity:1;stroke:none;stroke-width:2;stroke-miterlimit:4;stroke-dasharray:none;paint-order:markers fill stroke;stop-color:#000000"
           id="rect5436"
           width="14.986238"
           height="2.7247674"
           x="-154.15099"
           y="21.59638"
           ry="0.68119264"
           rx="0"
           transform="rotate(-127.86641)" /><rect
           style="fill:#950000;fill-opacity:1;stroke:none;stroke-width:2;stroke-miterlimit:4;stroke-dasharray:none;paint-order:markers fill stroke;stop-color:#000000"
           id="rect5438"
           width="14.986238"
           height="2.7247674"
           x="-153.46629"
           y="16.292849"
           ry="0.68119264"
           rx="0"
           transform="rotate(-127.86641)" /><rect
           style="fill:#950000;fill-opacity:1;stroke:none;stroke-width:2;stroke-miterlimit:4;stroke-dasharray:none;paint-order:markers fill stroke;stop-color:#000000"
           id="rect5440"
           width="14.986238"
           height="2.7247674"
           x="-152.95471"
           y="11.48"
           ry="0.68119264"
           rx="0"
           transform="rotate(-127.86641)" /><rect
           style="fill:#950000;fill-opacity:1;stroke:none;stroke-width:2;stroke-miterlimit:4;stroke-dasharray:none;paint-order:markers fill stroke;stop-color:#000000"
           id="rect5444"
           width="14.986238"
           height="2.7247674"
           x="-113.80623"
           y="59.587029"
           ry="0.68119264"
           rx="0"
           transform="rotate(-111.78565)" /></g><path
         id="path1440"
         style="fill:none;fill-opacity:1;stroke:url(#radialGradient5672);stroke-width:7.55906;stroke-linecap:butt;stroke-linejoin:miter;stroke-miterlimit:4;stroke-dasharray:none;stroke-opacity:1"
         sodipodi:type="inkscape:offset"
         inkscape:radius="-32.122547"
         inkscape:original="M 299.19141 244.16992 C 267.62669 244.22149 240.0988 264.54582 230.92969 293.32812 C 204.7011 375.66096 317.76586 401.95047 357.27539 445.11328 C 396.78494 401.95047 509.84778 375.66096 483.61914 293.32812 C 468.94856 247.27642 407.28238 222.87648 357.27539 268.52539 C 338.52277 251.40705 318.13024 244.13898 299.19141 244.16992 z "
         d="M 415.29492,276.14062 C 404.5672,275.91458 392.4639,279.89707 378.93164,292.25 a 32.125759,32.125759 0 0 1 -43.3125,0 c -13.53228,-12.35295 -25.69216,-15.97448 -36.375,-15.95703 -17.80628,0.0291 -32.85455,11.55299 -37.70703,26.78515 -4.38104,13.75231 -2.95653,20.05017 1.11133,28.00196 4.06786,7.95179 13.04418,17.43842 25.97265,27.05469 19.08688,14.19691 45.11605,26.45939 68.6543,44.13281 23.53772,-17.6729 49.56616,-29.93619 68.65234,-44.13281 12.92822,-9.61623 21.90491,-19.10291 25.97266,-27.05469 4.06775,-7.95178 5.49241,-14.24954 1.11133,-28.00196 -3.88218,-12.18636 -14.35482,-22.03707 -27.44531,-25.46289 -3.27263,-0.85645 -6.69558,-1.39926 -10.27149,-1.47461 z"
         transform="scale(0.26458333)" /><path
         id="path2456-2"
         style="opacity:1;fill:none;fill-opacity:1;stroke:url(#radialGradient5674);stroke-width:7.55906;stroke-linecap:butt;stroke-linejoin:miter;stroke-miterlimit:4;stroke-dasharray:none;stroke-opacity:1"
         sodipodi:type="inkscape:offset"
         inkscape:radius="-8.8805647"
         inkscape:original="M 299.19141 244.16992 C 267.62669 244.22152 240.0988 264.54581 230.92969 293.32812 C 204.7011 375.66097 317.76586 401.95047 357.27539 445.11328 C 396.78494 401.95047 509.84778 375.66097 483.61914 293.32812 C 468.94856 247.27643 407.28238 222.87648 357.27539 268.52539 C 338.52277 251.40705 318.13024 244.13898 299.19141 244.16992 z "
         transform="scale(0.26458333)"
         d="m 415.3418,253.00781 c -16.66866,-0.0847 -34.77068,6.27527 -52.08008,22.07617 a 8.8814527,8.8814527 0 0 1 -11.97266,0 c -17.30941,-15.8009 -35.42759,-22.06041 -52.08398,-22.0332 -27.76109,0.0454 -51.83872,17.9364 -59.81446,42.97266 -5.95554,18.69475 -4.00555,32.79384 2.56641,45.64062 6.57197,12.84678 18.39232,24.40787 32.79297,35.11914 26.16976,19.46519 60.03036,35.2379 82.52539,55.97461 22.49494,-20.73632 56.35443,-36.50965 82.52344,-55.97461 14.4004,-10.71126 26.22312,-22.27236 32.79492,-35.11914 6.5718,-12.84678 8.52002,-26.94584 2.56445,-45.64062 -6.38064,-20.02918 -23.08588,-35.49546 -43.70898,-40.89258 -5.15578,-1.34928 -10.5512,-2.09481 -16.10742,-2.12305 z" /><g
         id="g1498"><path
           style="font-weight:300;font-stretch:condensed;font-size:21.4195px;line-height:1.25;font-family:Bahnschrift;-inkscape-font-specification:'Bahnschrift Light Condensed';letter-spacing:-0.84664px;fill:#b70e0e;stroke-width:0.316618"
           d="m 25.078469,100.42425 h 1.506058 v 10.85617 h -1.506058 z m 5.124782,3.18991 q 0,-0.99358 -0.449725,-1.48514 -0.449726,-0.49156 -1.359637,-0.49156 -0.90991,0 -1.359636,0.54385 -0.449726,0.54386 -0.449726,1.64203 l -0.219633,-1.56881 q 0.376514,-1.0145 1.024956,-1.51652 0.648442,-0.50202 1.558353,-0.50202 1.391012,0 2.07083,0.84716 0.690277,0.8367 0.690277,2.53101 v 7.66626 h -1.506059 z m 7.886409,-3.18991 h 1.4956 v 10.85617 h -1.4956 z m -3.430467,7.9591 q 0,0.7844 0.449726,1.22367 0.449726,0.42881 1.275967,0.42881 0.857616,0 1.275966,-0.41835 0.428808,-0.42881 0.428808,-1.27597 l 0.146423,1.41193 q -0.324221,0.84716 -0.930828,1.26551 -0.596148,0.41835 -1.485141,0.41835 -1.265508,0 -1.966244,-0.79486 -0.690276,-0.80533 -0.690276,-2.25909 v -7.9591 h 1.495599 z m 6.380349,-7.9591 h 1.506059 v 10.85617 h -1.506059 z m 4.967902,1.21321 q -0.02092,0 -0.04183,0 -0.01046,0 -0.03138,0 -1.526976,0 -2.415969,0.73211 -0.888993,0.72165 -0.972663,2.03946 l -0.219633,-2.09175 q 0.606606,-0.98312 1.568811,-1.52698 0.962204,-0.55431 2.112665,-0.55431 0,0 0,0 0,0 0,0 z"
           id="text13126"
           transform="scale(1.231218,0.81220385)"
           aria-label="nur" /><path
           style="font-weight:300;font-stretch:condensed;font-size:20.0718px;line-height:1.25;font-family:Bahnschrift;-inkscape-font-specification:'Bahnschrift Light Condensed';letter-spacing:-0.84664px;fill:#af1215;stroke-width:0.333782"
           d="m 119.49682,96.582144 -3.81246,7.615136 h 4.07708 v 1.36229 h -5.7138 v -1.23489 l 3.93988,-7.575924 h -3.80267 v -1.362295 h 5.31197 z m 5.79823,1.528907 q 0,-0.823258 -0.46064,-1.274089 -0.45083,-0.450832 -1.28389,-0.450832 -0.73505,0 -1.14668,0.450832 -0.40182,0.450831 -0.40182,1.274089 h -1.3623 q 0,-1.381897 0.77426,-2.136549 0.77425,-0.764454 2.18555,-0.764454 0.95066,0 1.62691,0.343024 0.67625,0.343024 1.02907,0.989869 0.35283,0.646845 0.35283,1.56811 v 7.448519 h -1.31329 z m -2.19536,7.595529 q -1.33289,0 -1.99934,-0.70565 -0.66644,-0.71545 -0.66644,-2.14635 0,-1.71512 0.77425,-2.55798 0.78406,-0.852656 2.36197,-0.852656 h 1.81312 l 0.13721,1.019266 h -1.94053 q -0.93107,0 -1.3917,0.59785 -0.46063,0.59784 -0.46063,1.79352 0,0.91147 0.42143,1.3623 0.42143,0.45083 1.26428,0.45083 0.94087,0 1.4113,-0.49004 0.47044,-0.49983 0.47044,-1.4995 l 0.20581,0.84286 q -0.01,0.72525 -0.28422,1.21528 -0.26462,0.49004 -0.79385,0.73505 -0.52924,0.23522 -1.3231,0.23522 z m 1.26429,-13.838565 h 1.4113 v 1.411299 h -1.4113 z m -2.8422,0 h 1.4113 v 1.411299 h -1.4113 z m 6.39607,-0.558639 h 1.4113 v 14.250194 h -1.4113 z m 4.80233,7.066293 q 0,-0.931065 -0.42143,-1.391697 -0.42143,-0.460632 -1.27408,-0.460632 -0.85266,0 -1.27409,0.509635 -0.42143,0.509636 -0.42143,1.538708 l -0.20582,-1.666116 q 0.35283,-0.85266 0.95067,-1.274089 0.60764,-0.42143 1.4701,-0.42143 1.30349,0 1.94054,0.793856 0.64684,0.784054 0.64684,2.371765 v 7.183901 h -1.4113 z m 4.13211,4.508311 q 0,0.64685 0.28422,1.00947 0.29402,0.35283 0.82326,0.35283 h 0.64684 v 1.31329 h -0.78405 q -1.13688,0 -1.76412,-0.70565 -0.61745,-0.70565 -0.61745,-1.98954 V 91.309376 h 1.4113 z m 5.02397,2.72459 q -1.23489,0 -1.81313,-0.67624 -0.56844,-0.68605 -0.56844,-2.01894 V 92.426654 h 1.4113 v 10.506336 q 0,0.65664 0.29402,1.00947 0.29402,0.35282 0.87226,0.35282 h 0.76446 v 1.31329 z m -3.43024,-10.222109 h 4.39071 v 1.313291 h -4.39071 z"
           id="text16942"
           transform="scale(1.1679022,0.85623608)"
           aria-label="zählt" /><g
           id="text958"
           style="font-weight:300;font-size:18.6261px;line-height:1.25;font-family:Bahnschrift;-inkscape-font-specification:'Bahnschrift Light';letter-spacing:-0.84664px;fill:#ffffff;stroke-width:0.401719"
           transform="scale(1.01761,0.98269474)"
           aria-label="die Schiene"><path
             style="font-weight:normal;font-stretch:condensed;-inkscape-font-specification:'Bahnschrift Condensed'"
             d="m 66.453914,78.716153 h 1.728007 v 13.223804 h -1.728007 z m -1.864429,13.38751 q -0.654824,0 -1.127752,-0.327412 -0.463834,-0.336507 -0.709393,-0.964047 -0.245559,-0.636634 -0.245559,-1.527922 v -4.028985 q 0,-0.918573 0.245559,-1.573397 0.245559,-0.663918 0.709393,-1.000425 0.472928,-0.345601 1.127752,-0.345601 0.645729,0 1.182321,0.436549 0.536592,0.436549 0.873098,1.227795 l -0.19099,1.346026 q 0,-0.436549 -0.136422,-0.754866 -0.127327,-0.318317 -0.372885,-0.482023 -0.245559,-0.163706 -0.600256,-0.163706 -0.518402,0 -0.81853,0.372886 -0.291032,0.372885 -0.291032,1.036804 v 3.856185 q 0,0.60935 0.291032,0.945857 0.300128,0.336506 0.81853,0.336506 0.354697,0 0.600256,-0.154611 0.245558,-0.163706 0.372885,-0.463833 0.136422,-0.309223 0.136422,-0.736677 l 0.127327,1.318742 q -0.254654,0.782151 -0.773056,1.2187 -0.518402,0.427455 -1.2187,0.427455 z m 4.728457,-13.269278 h 1.728008 v 1.728007 h -1.728008 z m 0,3.665195 h 1.728008 v 9.440377 h -1.728008 z m 5.556082,9.576798 q -0.909477,0 -1.555206,-0.363791 -0.636635,-0.372886 -0.982236,-1.073183 -0.336507,-0.700298 -0.336507,-1.691629 v -3.301403 q 0,-1.045899 0.327412,-1.791671 0.336507,-0.745771 0.964046,-1.127752 0.62754,-0.391075 1.509733,-0.391075 0.891288,0 1.527922,0.363791 0.636635,0.354696 0.964046,1.045899 0.336507,0.682108 0.336507,1.655249 v 2.491968 H 73.20968 v -1.427879 h 2.764812 v -1.02771 q 0,-0.736677 -0.309222,-1.136847 -0.300128,-0.40017 -0.864004,-0.40017 -0.545687,0 -0.845814,0.427454 -0.300128,0.427455 -0.300128,1.2187 v 3.44692 q 0,0.691203 0.318317,1.082279 0.318318,0.38198 0.900383,0.38198 0.536592,0 0.827625,-0.281938 0.300127,-0.291033 0.300127,-0.81853 v -0.06366 h 1.65525 v 0.06366 q 0,1.300553 -0.727583,2.009946 -0.727582,0.709392 -2.055419,0.709392 z"
             id="path1" /><path
             style="font-weight:bold;font-stretch:condensed;-inkscape-font-specification:'Bahnschrift Bold Condensed'"
             d="m 84.476456,92.076378 q -1.036804,0 -1.782576,-0.38198 -0.745771,-0.391076 -1.145942,-1.118658 -0.391075,-0.736677 -0.391075,-1.764386 v -0.709393 l 2.24641,-0.01819 v 0.709392 q 0,0.500213 0.281938,0.791246 0.281938,0.281938 0.78215,0.281938 0.491118,0 0.754867,-0.281938 0.272843,-0.281938 0.272843,-0.773056 v -1.155037 q 0,-0.363791 -0.20918,-0.627539 -0.200085,-0.272843 -0.527497,-0.463834 -0.318317,-0.200085 -0.873098,-0.472928 -0.03638,-0.01819 -0.07276,-0.03638 -0.02729,-0.01819 -0.06366,-0.03638 l -0.118232,-0.05457 Q 82.893965,85.591803 82.375563,85.191633 81.857161,84.782368 81.511559,84.11845 81.165958,83.454531 81.165958,82.48139 v -0.682108 q 0,-1.00952 0.38198,-1.728008 0.391076,-0.727582 1.127753,-1.109562 0.736676,-0.381981 1.773481,-0.381981 1.00952,0 1.737102,0.381981 0.727582,0.38198 1.109563,1.118657 0.38198,0.727582 0.38198,1.755292 v 0.745772 l -2.246409,0.02728 V 81.85385 q 0,-0.509307 -0.263749,-0.791245 -0.254654,-0.291033 -0.718487,-0.291033 -0.491118,0 -0.763961,0.263749 -0.263749,0.254653 -0.263749,0.709392 v 0.882193 q 0,0.372886 0.190991,0.645729 0.200085,0.272844 0.491117,0.463834 0.300128,0.181896 0.827625,0.445644 0.100043,0.04547 0.200085,0.100043 0.109137,0.05457 0.218275,0.109137 0.01819,0.0091 0.02728,0.01819 0.01819,0.0091 0.03638,0.01819 0.754866,0.40017 1.2187,0.745772 0.463834,0.336506 0.791246,0.954951 0.327411,0.618445 0.327411,1.582491 v 1.100468 q 0,1.027709 -0.391075,1.764386 -0.38198,0.727582 -1.118657,1.118658 -0.736677,0.38198 -1.764387,0.38198 z m 6.90211,0 q -0.936762,0 -1.600681,-0.300127 -0.663918,-0.309223 -1.018615,-0.891288 -0.345601,-0.591161 -0.345601,-1.409691 v -4.401871 q 0,-0.864004 0.345601,-1.473354 0.354697,-0.618444 1.018615,-0.936762 0.663919,-0.327411 1.600681,-0.327411 0.936762,0 1.609775,0.327411 0.673014,0.318318 1.018615,0.936762 0.354696,0.618445 0.354696,1.491544 v 0.818529 h -2.219125 v -0.618444 q 0,-0.445644 -0.19099,-0.691203 -0.190991,-0.245559 -0.545687,-0.245559 -0.345601,0 -0.536592,0.245559 -0.19099,0.236464 -0.19099,0.654824 v 4.03808 q 0,0.363791 0.19099,0.563876 0.190991,0.200085 0.536592,0.200085 0.354696,0 0.536592,-0.20918 0.19099,-0.218274 0.19099,-0.60935 v -0.572971 l 2.24641,0.02729 v 0.745771 q 0,0.827625 -0.354696,1.418785 -0.354697,0.591161 -1.02771,0.909478 -0.673013,0.309222 -1.61887,0.309222 z M 94.78828,78.716153 h 2.255505 V 91.939957 H 94.78828 Z m 3.710669,6.611902 q 0,-0.454739 -0.181896,-0.682108 -0.181895,-0.236465 -0.545686,-0.236465 -0.363791,0 -0.545687,0.236465 -0.181895,0.227369 -0.181895,0.663918 l -0.154612,-1.155036 q 0.263749,-0.864004 0.809435,-1.336932 0.545687,-0.482023 1.209606,-0.482023 0.882193,0 1.364216,0.618444 0.48202,0.618445 0.48202,1.773482 v 7.212157 h -2.255501 z m 3.027731,-6.611902 h 2.25551 v 2.237315 h -2.25551 z m 0,3.783427 h 2.25551 v 9.440377 h -2.25551 z m 5.81074,9.576798 q -0.93676,0 -1.60978,-0.336506 -0.66392,-0.345602 -1.01861,-0.991331 -0.3547,-0.654824 -0.3547,-1.573396 v -3.765237 q 0,-0.973141 0.3456,-1.664344 0.3456,-0.691203 0.99133,-1.045899 0.65483,-0.363791 1.5734,-0.363791 0.93676,0 1.59159,0.354696 0.66391,0.345601 1.00952,1.018615 0.35469,0.673013 0.35469,1.627965 v 2.673864 h -4.04717 v -1.646155 h 1.86443 v -1.127752 q 0,-0.41836 -0.20918,-0.654824 -0.20009,-0.236464 -0.56388,-0.236464 -0.3456,0 -0.53659,0.254654 -0.1819,0.245559 -0.1819,0.700297 v 3.947133 q 0,0.391075 0.20009,0.600255 0.20918,0.20918 0.59116,0.20918 0.35469,0 0.54568,-0.172801 0.19099,-0.1728 0.19099,-0.491118 v -0.327411 l 2.17366,0.01819 v 0.263749 q 0,1.300553 -0.76397,2.01904 -0.76396,0.709392 -2.14636,0.709392 z m 3.66437,-9.576798 h 2.27369 v 9.440377 h -2.27369 z m 3.71067,2.773906 q 0,-0.445644 -0.1819,-0.673013 -0.18189,-0.236464 -0.54568,-0.236464 -0.3547,0 -0.5366,0.227369 -0.1728,0.227369 -0.1728,0.673013 l -0.19099,-1.118657 q 0.29104,-0.873099 0.82763,-1.336932 0.54568,-0.472928 1.2096,-0.472928 0.8731,0 1.35512,0.627539 0.49112,0.62754 0.49112,1.764387 v 7.212157 h -2.2555 z m 5.99263,6.802892 q -0.93677,0 -1.60978,-0.336506 -0.66392,-0.345602 -1.01861,-0.991331 -0.3547,-0.654824 -0.3547,-1.573396 v -3.765237 q 0,-0.973141 0.3456,-1.664344 0.3456,-0.691203 0.99133,-1.045899 0.65483,-0.363791 1.5734,-0.363791 0.93676,0 1.59158,0.354696 0.66392,0.345601 1.00952,1.018615 0.3547,0.673013 0.3547,1.627965 v 2.673864 h -4.04718 v -1.646155 h 1.86443 v -1.127752 q 0,-0.41836 -0.20918,-0.654824 -0.20008,-0.236464 -0.56387,-0.236464 -0.3456,0 -0.53659,0.254654 -0.1819,0.245559 -0.1819,0.700297 v 3.947133 q 0,0.391075 0.20009,0.600255 0.20918,0.20918 0.59116,0.20918 0.35469,0 0.54568,-0.172801 0.19099,-0.1728 0.19099,-0.491118 v -0.327411 l 2.17365,0.01819 v 0.263749 q 0,1.300553 -0.76396,2.01904 -0.76396,0.709392 -2.14636,0.709392 z"
             id="path2" /></g></g></g></g></svg>
