<?xml version="1.0" encoding="UTF-8" standalone="no"?>
<!-- Created with Inkscape (http://www.inkscape.org/) -->

<svg
   width="512"
   height="546.19672"
   viewBox="0 0 135.46667 144.51455"
   version="1.1"
   id="svg1151"
   inkscape:version="1.1.2 (0a00cf5339, 2022-02-04)"
   sodipodi:docname="divoc_bb3_logo_bunny_big_clean.svg"
   xmlns:inkscape="http://www.inkscape.org/namespaces/inkscape"
   xmlns:sodipodi="http://sodipodi.sourceforge.net/DTD/sodipodi-0.dtd"
   xmlns:xlink="http://www.w3.org/1999/xlink"
   xmlns="http://www.w3.org/2000/svg"
   xmlns:svg="http://www.w3.org/2000/svg">
  <sodipodi:namedview
     id="namedview1153"
     pagecolor="#505050"
     bordercolor="#ffffff"
     borderopacity="1"
     inkscape:pageshadow="0"
     inkscape:pageopacity="0"
     inkscape:pagecheckerboard="1"
     inkscape:document-units="px"
     showgrid="false"
     units="px"
     fit-margin-top="0"
     fit-margin-left="0"
     fit-margin-right="0"
     fit-margin-bottom="0"
     inkscape:zoom="1.4609989"
     inkscape:cx="269.67851"
     inkscape:cy="248.46015"
     inkscape:window-width="3840"
     inkscape:window-height="2118"
     inkscape:window-x="0"
     inkscape:window-y="0"
     inkscape:window-maximized="1"
     inkscape:current-layer="layer1" />
  <defs
     id="defs1148">
    <linearGradient
       inkscape:collect="always"
       xlink:href="#media-dark"
       id="linearGradient96428"
       gradientUnits="userSpaceOnUse"
       gradientTransform="matrix(1.6073821,0,0,0.80513432,-2009.5797,-218.30909)"
       x1="1297.4017"
       y1="446.52237"
       x2="1297.4017"
       y2="273.33926" />
    <linearGradient
       inkscape:collect="always"
       id="media-dark">
      <stop
         style="stop-color:#020613;stop-opacity:1"
         offset="0"
         id="stop305514" />
      <stop
         style="stop-color:#332a39;stop-opacity:1"
         offset="1"
         id="stop305516" />
    </linearGradient>
  </defs>
  <g
     inkscape:label="Layer 1"
     inkscape:groupmode="layer"
     id="layer1">
    <rect
       style="display:inline;fill:url(#linearGradient96428);fill-opacity:1;stroke-width:3.4557;stroke-linecap:round;stroke-linejoin:round;stroke-dashoffset:3.96851"
       id="rect140689-4"
       width="135.46666"
       height="144.51454"
       x="0"
       y="0"
       inkscape:export-filename="/home/betalars/Development/congress/bridging-bubbles-design/Logo/DiVOC-bridging-bubbles-logo.png"
       inkscape:export-xdpi="520.19202"
       inkscape:export-ydpi="520.19202" />
    <g
       id="g96474"
       transform="matrix(2.7093333,0,0,2.7093333,-42.99426,-370.67014)"
       style="display:inline">
      <g
         id="g5341">
        <g
           aria-label="ブリッジ"
           id="text140697-5"
           style="font-weight:bold;font-size:4.91365px;line-height:1.25;font-family:'Noto Sans JP';-inkscape-font-specification:'Noto Sans JP Bold';letter-spacing:-0.264583px;fill:none;stroke:#62c1a6;stroke-width:0.158;stroke-linejoin:round">
          <path
             d="m 48.771263,178.00253 -0.486451,0.19654 c 0.137582,0.18672 0.284992,0.46189 0.388178,0.66335 l 0.486452,-0.20638 c -0.08845,-0.16706 -0.260424,-0.46679 -0.388179,-0.65351 z m -0.171977,1.07609 -0.353783,-0.22603 0.176891,-0.0737 c -0.08353,-0.17689 -0.235855,-0.45205 -0.368523,-0.6486 l -0.481538,0.19655 c 0.08353,0.13267 0.16215,0.27025 0.235855,0.40783 -0.09336,0.01 -0.186719,0.01 -0.250596,0.01 -0.304646,0 -1.74926,0 -2.16692,0 -0.16215,0 -0.486451,-0.0246 -0.638774,-0.0442 v 0.84023 c 0.127755,-0.01 0.398005,-0.0246 0.638774,-0.0246 0.41766,0 1.85736,0 2.162006,0 -0.06388,0.39309 -0.226028,0.87955 -0.540501,1.26772 -0.388179,0.48154 -0.943421,0.91394 -1.931065,1.13506 l 0.648602,0.71248 c 0.864802,-0.28008 1.557627,-0.78619 1.999856,-1.38074 0.422574,-0.56998 0.624033,-1.31686 0.741961,-1.77874 0.02948,-0.1081 0.07371,-0.28499 0.127755,-0.39309 z"
             style="font-weight:900;-inkscape-font-specification:'Noto Sans JP Heavy'"
             id="path5147" />
          <path
             d="m 52.983015,178.43984 h -0.899197 c 0.01965,0.14741 0.03439,0.31448 0.03439,0.53068 0,0.23585 0,0.73704 0,1.01712 0,0.67809 -0.06879,1.02696 -0.398006,1.37582 -0.294819,0.30465 -0.678083,0.48646 -1.189103,0.59947 l 0.624034,0.65843 c 0.358696,-0.11302 0.874629,-0.36361 1.203844,-0.70757 0.373437,-0.39309 0.604379,-0.88445 0.604379,-1.8721 0,-0.27516 0,-0.78618 0,-1.07117 0,-0.2162 0.0098,-0.38327 0.01965,-0.53068 z m -2.275019,0.0442 h -0.859889 c 0.01474,0.12284 0.01965,0.29481 0.01965,0.38817 0,0.25551 0,1.34634 0,1.66573 0,0.15232 -0.01965,0.36361 -0.02457,0.46188 h 0.864803 c -0.0098,-0.12775 -0.01966,-0.33412 -0.01966,-0.45697 0,-0.31447 0,-1.41513 0,-1.67064 0,-0.17689 0.0098,-0.26533 0.01966,-0.38817 z"
             style="font-weight:900;-inkscape-font-specification:'Noto Sans JP Heavy'"
             id="path5149" />
          <path
             d="m 56.153074,179.33413 -0.707566,0.23094 c 0.132669,0.27516 0.339042,0.85497 0.407833,1.10066 l 0.712479,-0.24569 c -0.0737,-0.23094 -0.314473,-0.86971 -0.412746,-1.08591 z m 1.832791,0.40292 -0.840234,-0.27025 c -0.04422,0.60929 -0.275164,1.27754 -0.599465,1.68538 -0.407833,0.51593 -1.125226,0.88937 -1.646073,1.02204 l 0.624034,0.63877 c 0.589638,-0.22603 1.208757,-0.65351 1.665727,-1.25298 0.324301,-0.42257 0.530674,-0.92377 0.658429,-1.39548 0.0344,-0.11792 0.06879,-0.23585 0.137582,-0.42748 z m -2.972758,-0.13759 -0.717393,0.25551 c 0.132669,0.23586 0.368524,0.87955 0.452056,1.14488 l 0.72722,-0.27025 c -0.09827,-0.28499 -0.324301,-0.85497 -0.461883,-1.13014 z"
             style="font-weight:900;-inkscape-font-specification:'Noto Sans JP Heavy'"
             id="path5151" />
          <path
             d="m 61.883144,178.46932 -0.491365,0.20146 c 0.191632,0.27025 0.27025,0.43241 0.427487,0.77145 l 0.506106,-0.2162 c -0.1081,-0.22112 -0.294819,-0.53559 -0.442228,-0.75671 z m 0.697738,-0.24076 -0.501192,0.20637 c 0.191632,0.26042 0.284991,0.40292 0.456969,0.74196 l 0.501192,-0.22111 c -0.117927,-0.21129 -0.294819,-0.51594 -0.456969,-0.72722 z m -2.849917,0.13266 -0.432401,0.65843 c 0.343955,0.19164 0.845148,0.51102 1.139967,0.70757 l 0.442228,-0.65843 c -0.280078,-0.19163 -0.805839,-0.52085 -1.149794,-0.70757 z m -1.007298,3.47395 0.447142,0.78619 c 0.422574,-0.0688 1.14488,-0.3243 1.646073,-0.60438 0.815666,-0.4668 1.518317,-1.081 1.990028,-1.77383 l -0.45697,-0.81566 c -0.388178,0.70756 -1.095744,1.40039 -1.940891,1.86718 -0.555243,0.29974 -1.13014,0.44715 -1.685382,0.5405 z m 0.240769,-2.34381 -0.432402,0.65843 c 0.34887,0.18672 0.845148,0.51102 1.144881,0.7174 l 0.437315,-0.66826 c -0.275165,-0.19163 -0.796012,-0.52085 -1.149794,-0.70757 z"
             style="font-weight:900;-inkscape-font-specification:'Noto Sans JP Heavy'"
             id="path5153" />
        </g>
        <g
           aria-label="bridging"
           id="text141205-9"
           style="font-size:6.89877px;line-height:1.25;font-family:'Andale Mono';-inkscape-font-specification:'Andale Mono';fill:#62c1a6;stroke-width:0.0900601">
          <path
             d="m 21.002591,181.44843 q -0.469116,0 -0.772662,-0.0483 -0.296647,-0.0483 -0.462217,-0.18627 -0.165571,-0.13797 -0.22766,-0.40702 -0.06209,-0.26906 -0.06209,-0.71748 l -0.0069,-2.15241 h 1.021018 v 0.74507 q 0.03449,0 0.11728,0 0.08968,-0.007 0.200064,-0.007 0.117279,-0.007 0.241457,-0.007 0.131076,-0.007 0.241457,-0.007 0.531205,0 0.820953,0.13108 0.289749,0.13107 0.400129,0.44152 0.117279,0.30354 0.117279,0.83475 0,0.47601 -0.09658,0.75196 -0.09658,0.27596 -0.296647,0.41393 -0.200064,0.13108 -0.510509,0.17247 -0.303546,0.0414 -0.724371,0.0414 z m 0.0138,-0.545 q 0.248356,0 0.365635,-0.0552 0.124178,-0.0621 0.16557,-0.24836 0.04829,-0.18626 0.04829,-0.57949 0,-0.31735 -0.05519,-0.48982 -0.05519,-0.17246 -0.186266,-0.24145 -0.124178,-0.069 -0.351838,-0.069 -0.05519,0 -0.131076,0 -0.07589,0 -0.151773,0.007 -0.07589,0 -0.137976,0 -0.05519,0 -0.08968,0 v 1.00032 q 0,0.22076 0.0207,0.35874 0.0207,0.13107 0.07589,0.20006 0.05519,0.069 0.151773,0.0966 0.103482,0.0207 0.275951,0.0207 z"
             style="font-weight:bold;font-family:Genos;-inkscape-font-specification:'Genos Bold'"
             id="path5156" />
          <path
             d="m 24.203619,181.42084 h -0.745067 q -0.151773,0 -0.22076,-0.0759 -0.06899,-0.0759 -0.06899,-0.30354 v -2.23521 q 0.193166,-0.0483 0.5588,-0.10348 0.372534,-0.0552 0.834751,-0.0552 0.482914,0 0.758865,0.0552 0.28285,0.0552 0.413926,0.17247 0.131077,0.11038 0.165571,0.28975 0.04139,0.17247 0.04139,0.42082 h -0.986524 v -0.0966 q 0,-0.16557 -0.06209,-0.24146 -0.05519,-0.0759 -0.137975,-0.0966 -0.08279,-0.0207 -0.172469,-0.0207 -0.137976,0 -0.241457,0.0276 -0.09658,0.0276 -0.137976,0.0828 z"
             style="font-weight:bold;font-family:Genos;-inkscape-font-specification:'Genos Bold'"
             id="path5158" />
          <path
             d="m 27.163187,181.44843 q -0.462217,0 -0.641585,-0.17937 -0.179368,-0.17936 -0.179368,-0.58639 l 0.0069,-2.01444 h 1.027916 v 1.97305 q 0,0.21386 0.06209,0.31044 0.06899,0.0897 0.220761,0.0897 0.08968,0 0.151773,-0.0138 0.06209,-0.0138 0.07589,-0.0207 v 0.37943 q -0.02759,0.007 -0.103481,0.0207 -0.07589,0.0138 -0.220761,0.0276 -0.144874,0.0138 -0.400129,0.0138 z m -0.289748,-3.11134 q -0.241457,0 -0.344938,-0.0621 -0.103482,-0.0621 -0.103482,-0.22766 0,-0.16557 0.103482,-0.22766 0.11038,-0.069 0.358736,-0.069 0.234558,0.007 0.331141,0.069 0.103481,0.0621 0.09658,0.22766 0,0.16557 -0.09658,0.22766 -0.08968,0.0621 -0.344939,0.0621 z"
             style="font-weight:bold;font-family:Genos;-inkscape-font-specification:'Genos Bold'"
             id="path5160" />
          <path
             d="m 28.116035,180.04108 q 0,-0.5588 0.16557,-0.86234 0.165571,-0.31045 0.469117,-0.42083 0.310444,-0.11728 0.72437,-0.11728 0.137976,0 0.289749,0.0138 0.158671,0.0138 0.303546,0.0414 0.151773,0.0207 0.262153,0.0621 0.117279,0.0345 0.179368,0.0828 l -0.248356,0.0966 v -1.00032 h 1.021018 l -0.0069,2.09722 q 0,0.46912 -0.08278,0.75197 -0.08279,0.27595 -0.275951,0.42083 -0.186266,0.13797 -0.510509,0.18626 -0.317343,0.0414 -0.786459,0.0414 -0.434623,0 -0.724371,-0.0552 -0.289749,-0.0552 -0.462218,-0.20696 -0.16557,-0.15177 -0.241457,-0.42082 -0.07589,-0.26906 -0.07589,-0.71058 z m 1.552223,0.86235 q 0.186267,0 0.303546,-0.0345 0.117279,-0.0345 0.179368,-0.11728 0.06209,-0.0828 0.08279,-0.22766 0.02759,-0.14488 0.02759,-0.37254 l -0.0069,-0.91753 q -0.04139,0 -0.117279,0 -0.06899,-0.007 -0.151773,-0.007 -0.07589,-0.007 -0.151773,-0.007 -0.262153,0 -0.413926,0.069 -0.144874,0.0621 -0.206963,0.24145 -0.06209,0.17247 -0.06209,0.52431 0,0.35874 0.04829,0.53811 0.05519,0.17936 0.172469,0.24835 0.117279,0.0621 0.296647,0.0621 z"
             style="font-weight:bold;font-family:Genos;-inkscape-font-specification:'Genos Bold'"
             id="path5162" />
          <path
             d="m 33.172835,182.24869 q -0.289749,0 -0.524307,-0.0138 -0.227659,-0.0138 -0.386331,-0.0621 -0.158672,-0.0414 -0.248356,-0.12417 -0.08278,-0.0759 -0.08278,-0.20697 0,-0.0414 0,-0.11038 0,-0.069 0,-0.0966 0.06899,0.0345 0.248356,0.069 0.186266,0.0414 0.407027,0.0621 0.220761,0.0276 0.39323,0.0276 0.400129,0 0.600193,-0.11038 0.200064,-0.10348 0.262153,-0.33804 0.06209,-0.24146 0.02759,-0.61399 l 0.117279,0.0138 q -0.07589,0.20696 -0.200064,0.32424 -0.117279,0.11728 -0.324242,0.17247 -0.206963,0.0483 -0.524307,0.0483 -0.434622,0 -0.703674,-0.10348 -0.262153,-0.11038 -0.386331,-0.37943 -0.117279,-0.26906 -0.117279,-0.76577 0,-0.42772 0.08279,-0.69677 0.08968,-0.27595 0.289748,-0.42773 0.200065,-0.15177 0.531206,-0.20696 0.338039,-0.0552 0.841649,-0.0552 0.151773,0 0.372534,0.0138 0.220761,0.007 0.441521,0.0276 0.22766,0.0138 0.400129,0.0276 0.172469,0.0138 0.227659,0.0207 -0.0069,0.0207 -0.0138,0.0966 0,0.0759 0,0.17937 0,0.0966 0,0.20006 v 1.64881 q 0,0.5588 -0.186267,0.85544 -0.179368,0.29665 -0.5588,0.40703 -0.379433,0.11728 -0.986524,0.11728 z m 0.117279,-1.53153 q 0.151773,0 0.282849,-0.0414 0.137976,-0.0483 0.220761,-0.17247 0.08279,-0.12418 0.08968,-0.35184 v -0.92443 q -0.05519,-0.007 -0.213862,-0.0138 -0.158672,-0.0138 -0.33804,-0.0138 -0.213862,0 -0.338039,0.0621 -0.11728,0.0552 -0.17247,0.22076 -0.04829,0.16557 -0.04829,0.48292 0,0.30354 0.05519,0.46911 0.05519,0.16557 0.165571,0.22766 0.117279,0.0552 0.296647,0.0552 z"
             style="font-weight:bold;font-family:Genos;-inkscape-font-specification:'Genos Bold'"
             id="path5164" />
          <path
             d="m 36.291076,181.44843 q -0.462217,0 -0.641586,-0.17937 -0.179368,-0.17936 -0.179368,-0.58639 l 0.0069,-2.01444 h 1.027917 v 1.97305 q 0,0.21386 0.06209,0.31044 0.06899,0.0897 0.220761,0.0897 0.08968,0 0.151772,-0.0138 0.06209,-0.0138 0.07589,-0.0207 v 0.37943 q -0.0276,0.007 -0.103482,0.0207 -0.07589,0.0138 -0.22076,0.0276 -0.144874,0.0138 -0.400129,0.0138 z m -0.289748,-3.11134 q -0.241457,0 -0.344939,-0.0621 -0.103481,-0.0621 -0.103481,-0.22766 0,-0.16557 0.103481,-0.22766 0.110381,-0.069 0.358736,-0.069 0.234558,0.007 0.331141,0.069 0.103482,0.0621 0.09658,0.22766 0,0.16557 -0.09658,0.22766 -0.08968,0.0621 -0.344938,0.0621 z"
             style="font-weight:bold;font-family:Genos;-inkscape-font-specification:'Genos Bold'"
             id="path5166" />
          <path
             d="m 37.643235,181.42084 q -0.262154,0 -0.262154,-0.26905 v -2.31799 q 0.206963,-0.069 0.62089,-0.12418 0.413926,-0.0621 0.910637,-0.0621 0.531206,0 0.834751,0.0621 0.310445,0.0552 0.455319,0.20007 0.151773,0.13797 0.193166,0.37253 0.04829,0.23456 0.04829,0.58639 v 1.1659 q 0,0.15177 -0.0207,0.24145 -0.0207,0.0828 -0.11038,0.11728 -0.08279,0.0345 -0.262154,0.0345 l -0.627788,-0.007 v -1.79368 q 0,-0.22766 -0.137975,-0.32424 -0.137976,-0.0966 -0.372534,-0.0966 -0.08279,0 -0.179368,0.0207 -0.09658,0.0138 -0.186267,0.0414 -0.08279,0.0207 -0.137975,0.0621 v 2.09033 z"
             style="font-weight:bold;font-family:Genos;-inkscape-font-specification:'Genos Bold'"
             id="path5168" />
          <path
             d="m 42.368895,182.24869 q -0.289749,0 -0.524307,-0.0138 -0.227659,-0.0138 -0.386331,-0.0621 -0.158672,-0.0414 -0.248356,-0.12417 -0.08279,-0.0759 -0.08279,-0.20697 0,-0.0414 0,-0.11038 0,-0.069 0,-0.0966 0.06899,0.0345 0.248356,0.069 0.186267,0.0414 0.407027,0.0621 0.220761,0.0276 0.39323,0.0276 0.400129,0 0.600193,-0.11038 0.200064,-0.10348 0.262153,-0.33804 0.06209,-0.24146 0.02759,-0.61399 l 0.11728,0.0138 q -0.07589,0.20696 -0.200065,0.32424 -0.117279,0.11728 -0.324242,0.17247 -0.206963,0.0483 -0.524306,0.0483 -0.434623,0 -0.703675,-0.10348 -0.262153,-0.11038 -0.386331,-0.37943 -0.117279,-0.26906 -0.117279,-0.76577 0,-0.42772 0.08278,-0.69677 0.08968,-0.27595 0.289748,-0.42773 0.200065,-0.15177 0.531206,-0.20696 0.338039,-0.0552 0.84165,-0.0552 0.151773,0 0.372533,0.0138 0.220761,0.007 0.441521,0.0276 0.22766,0.0138 0.400129,0.0276 0.172469,0.0138 0.22766,0.0207 -0.0069,0.0207 -0.0138,0.0966 0,0.0759 0,0.17937 0,0.0966 0,0.20006 v 1.64881 q 0,0.5588 -0.186267,0.85544 -0.179368,0.29665 -0.5588,0.40703 -0.379433,0.11728 -0.986524,0.11728 z m 0.117279,-1.53153 q 0.151773,0 0.282849,-0.0414 0.137976,-0.0483 0.220761,-0.17247 0.08279,-0.12418 0.08968,-0.35184 v -0.92443 q -0.05519,-0.007 -0.213862,-0.0138 -0.158672,-0.0138 -0.33804,-0.0138 -0.213861,0 -0.338039,0.0621 -0.117279,0.0552 -0.17247,0.22076 -0.04829,0.16557 -0.04829,0.48292 0,0.30354 0.05519,0.46911 0.05519,0.16557 0.165571,0.22766 0.117279,0.0552 0.296647,0.0552 z"
             style="font-weight:bold;font-family:Genos;-inkscape-font-specification:'Genos Bold'"
             id="path5170" />
        </g>
        <g
           aria-label="バブルス"
           id="text143139-0"
           style="font-weight:bold;font-size:4.91365px;line-height:1.25;font-family:'Noto Sans JP';-inkscape-font-specification:'Noto Sans JP Bold';letter-spacing:-0.264583px;fill:none;stroke:#62c1a6;stroke-width:0.158;stroke-linejoin:round">
          <path
             d="m 24.299088,181.71697 -0.461883,0.18671 c 0.132668,0.19164 0.275164,0.48154 0.378351,0.683 l 0.466797,-0.19654 c -0.08845,-0.17198 -0.260424,-0.49137 -0.383265,-0.67317 z m 0.604379,-0.23586 -0.461883,0.18672 c 0.132668,0.18672 0.289905,0.47662 0.388178,0.67808 l 0.461883,-0.19654 c -0.08353,-0.16707 -0.260423,-0.48154 -0.388178,-0.66826 z m -3.601706,2.64846 c -0.171977,0.44714 -0.466796,0.98273 -0.771443,1.38073 l 0.840234,0.35379 c 0.245683,-0.35379 0.550329,-0.94342 0.722307,-1.43479 0.152323,-0.4324 0.334128,-1.07609 0.402919,-1.44461 0.01966,-0.11302 0.08845,-0.40784 0.132669,-0.56507 l -0.869716,-0.18181 c -0.05896,0.65843 -0.235855,1.32177 -0.45697,1.89176 z m 2.427343,-0.054 c 0.191633,0.53559 0.343956,1.13014 0.486452,1.75908 l 0.88937,-0.2899 c -0.137582,-0.51102 -0.398005,-1.31195 -0.560156,-1.73452 -0.171977,-0.44714 -0.520847,-1.24807 -0.732133,-1.64116 l -0.796012,0.25551 c 0.206374,0.37835 0.530674,1.13014 0.712479,1.65099 z"
             style="font-weight:900;-inkscape-font-specification:'Noto Sans JP Heavy'"
             id="path5173" />
          <path
             d="m 29.532879,181.38775 -0.486451,0.19655 c 0.137582,0.18672 0.284992,0.46188 0.388178,0.66334 l 0.486452,-0.20637 c -0.08845,-0.16707 -0.260424,-0.4668 -0.388179,-0.65352 z m -0.171978,1.07609 -0.353782,-0.22603 0.176891,-0.0737 c -0.08353,-0.17689 -0.235855,-0.45206 -0.368524,-0.6486 l -0.481537,0.19654 c 0.08353,0.13267 0.16215,0.27025 0.235855,0.40783 -0.09336,0.01 -0.186719,0.01 -0.250596,0.01 -0.304647,0 -1.74926,0 -2.16692,0 -0.162151,0 -0.486451,-0.0246 -0.638775,-0.0442 v 0.84023 c 0.127755,-0.01 0.398006,-0.0246 0.638775,-0.0246 0.41766,0 1.85736,0 2.162006,0 -0.06388,0.39309 -0.226028,0.87954 -0.540502,1.26772 -0.388178,0.48153 -0.94342,0.91394 -1.931064,1.13505 l 0.648602,0.71248 c 0.864802,-0.28008 1.557627,-0.78618 1.999855,-1.38074 0.422574,-0.56998 0.624034,-1.31685 0.741962,-1.77874 0.02948,-0.1081 0.0737,-0.28499 0.127754,-0.39309 z"
             style="font-weight:900;-inkscape-font-specification:'Noto Sans JP Heavy'"
             id="path5175" />
          <path
             d="m 32.137868,185.57418 0.496278,0.40783 c 0.05405,-0.0393 0.117928,-0.0983 0.235856,-0.16215 0.545415,-0.28007 1.262808,-0.82549 1.660813,-1.3316 l -0.456969,-0.65842 c -0.304647,0.4324 -0.722307,0.78618 -1.090831,0.9385 0,-0.38326 0,-1.97529 0,-2.41751 0,-0.24077 0.03931,-0.46189 0.03931,-0.46189 h -0.884457 c 0,0 0.04422,0.2162 0.04422,0.45697 0,0.44714 0,2.54036 0,2.82044 0,0.15232 -0.01966,0.30464 -0.04422,0.40783 z m -2.289761,-0.0983 0.72722,0.48154 c 0.427488,-0.38818 0.72722,-0.87463 0.879543,-1.44462 0.127755,-0.49628 0.142496,-1.52323 0.142496,-2.12761 0,-0.23585 0.03931,-0.49628 0.03931,-0.49628 h -0.874629 c 0.03439,0.13267 0.05405,0.27517 0.05405,0.50611 0,0.61421 -0.0049,1.51832 -0.142496,1.92124 -0.127755,0.38817 -0.378351,0.85006 -0.825493,1.15962 z"
             style="font-weight:900;-inkscape-font-specification:'Noto Sans JP Heavy'"
             id="path5177" />
          <path
             d="m 38.565676,182.33117 -0.486451,-0.35869 c -0.113014,0.0393 -0.343956,0.0737 -0.589638,0.0737 -0.235856,0 -1.346341,0 -1.64116,0 -0.142495,0 -0.456969,-0.0147 -0.628947,-0.0393 v 0.84515 c 0.137582,-0.01 0.407833,-0.0393 0.628947,-0.0393 0.235856,0 1.307031,0 1.528146,0 -0.103187,0.31447 -0.368524,0.74687 -0.687911,1.11048 -0.437315,0.48646 -1.213672,1.09083 -2.009683,1.38074 l 0.61912,0.64369 c 0.643688,-0.30956 1.287376,-0.80584 1.803309,-1.34143 0.442229,0.42749 0.859889,0.8992 1.174363,1.34634 l 0.682997,-0.59455 c -0.270251,-0.33413 -0.859889,-0.95816 -1.336513,-1.37091 0.319387,-0.44223 0.579811,-0.93359 0.741961,-1.2972 0.05405,-0.12284 0.157237,-0.29482 0.20146,-0.3587 z"
             style="font-weight:900;-inkscape-font-specification:'Noto Sans JP Heavy'"
             id="path5179" />
        </g>
        <g
           aria-label="bubbles"
           id="text150488-8"
           style="font-size:6.89877px;line-height:1.25;font-family:'Andale Mono';-inkscape-font-specification:'Andale Mono';fill:#62c1a6;stroke-width:0.0900601">
          <path
             d="m 40.937162,185.60311 q -0.469117,0 -0.772663,-0.0483 -0.296647,-0.0483 -0.462217,-0.18627 -0.165571,-0.13797 -0.227659,-0.40702 -0.06209,-0.26906 -0.06209,-0.71748 l -0.0069,-2.15241 h 1.021018 v 0.74506 q 0.03449,0 0.117279,0 0.08968,-0.007 0.200064,-0.007 0.117279,-0.007 0.241457,-0.007 0.131077,-0.007 0.241457,-0.007 0.531205,0 0.820954,0.13107 0.289748,0.13108 0.400128,0.44153 0.117279,0.30354 0.117279,0.83475 0,0.47601 -0.09658,0.75196 -0.09658,0.27595 -0.296647,0.41393 -0.200065,0.13108 -0.510509,0.17247 -0.303546,0.0414 -0.724371,0.0414 z m 0.0138,-0.545 q 0.248356,0 0.365635,-0.0552 0.124178,-0.0621 0.165571,-0.24836 0.04829,-0.18626 0.04829,-0.57949 0,-0.31735 -0.05519,-0.48982 -0.05519,-0.17247 -0.186267,-0.24145 -0.124178,-0.069 -0.351837,-0.069 -0.05519,0 -0.131077,0 -0.07589,0 -0.151773,0.007 -0.07589,0 -0.137975,0 -0.05519,0 -0.08968,0 v 1.00032 q 0,0.22076 0.0207,0.35873 0.0207,0.13108 0.07589,0.20007 0.05519,0.069 0.151772,0.0966 0.103482,0.0207 0.275951,0.0207 z"
             style="font-weight:bold;font-family:Genos;-inkscape-font-specification:'Genos Bold'"
             id="path5182" />
          <path
             d="m 44.083,182.82291 v 1.78678 q 0,0.24835 0.117279,0.35184 0.124178,0.0966 0.39323,0.0966 0.282849,0 0.400128,-0.10348 0.117279,-0.11038 0.117279,-0.33804 v -1.79368 q 0.0069,0 0.08968,0 0.08279,0 0.186267,0 0.11038,-0.007 0.200064,-0.007 0.09658,0 0.11728,0 0.158671,0 0.255254,0.0207 0.09658,0.0138 0.137975,0.0828 0.04139,0.069 0.04139,0.24146 v 1.33836 q 0,0.41392 -0.124178,0.66228 -0.124178,0.24146 -0.462217,0.35184 -0.33804,0.10348 -0.979626,0.10348 -0.593294,0 -0.924435,-0.0828 -0.331141,-0.0897 -0.462217,-0.31734 -0.131077,-0.22766 -0.131077,-0.64159 v -1.41424 q 0,-0.20007 0.06899,-0.26906 0.06899,-0.0759 0.296647,-0.0759 0.16557,0 0.331141,0.007 0.16557,0 0.331141,0 z"
             style="font-weight:bold;font-family:Genos;-inkscape-font-specification:'Genos Bold'"
             id="path5184" />
          <path
             d="m 48.236064,185.60311 q -0.469116,0 -0.772662,-0.0483 -0.296647,-0.0483 -0.462218,-0.18627 -0.16557,-0.13797 -0.227659,-0.40702 -0.06209,-0.26906 -0.06209,-0.71748 l -0.0069,-2.15241 h 1.021018 v 0.74506 q 0.03449,0 0.117279,0 0.08968,-0.007 0.200065,-0.007 0.117279,-0.007 0.241457,-0.007 0.131076,-0.007 0.241457,-0.007 0.531205,0 0.820953,0.13107 0.289749,0.13108 0.400129,0.44153 0.117279,0.30354 0.117279,0.83475 0,0.47601 -0.09658,0.75196 -0.09658,0.27595 -0.296647,0.41393 -0.200064,0.13108 -0.510509,0.17247 -0.303546,0.0414 -0.724371,0.0414 z m 0.0138,-0.545 q 0.248355,0 0.365635,-0.0552 0.124177,-0.0621 0.16557,-0.24836 0.04829,-0.18626 0.04829,-0.57949 0,-0.31735 -0.05519,-0.48982 -0.05519,-0.17247 -0.186267,-0.24145 -0.124177,-0.069 -0.351837,-0.069 -0.05519,0 -0.131076,0 -0.07589,0 -0.151773,0.007 -0.07589,0 -0.137976,0 -0.05519,0 -0.08968,0 v 1.00032 q 0,0.22076 0.0207,0.35873 0.0207,0.13108 0.07589,0.20007 0.05519,0.069 0.151773,0.0966 0.103482,0.0207 0.275951,0.0207 z"
             style="font-weight:bold;font-family:Genos;-inkscape-font-specification:'Genos Bold'"
             id="path5186" />
          <path
             d="m 51.926905,185.60311 q -0.469116,0 -0.772662,-0.0483 -0.296647,-0.0483 -0.462218,-0.18627 -0.16557,-0.13797 -0.227659,-0.40702 -0.06209,-0.26906 -0.06209,-0.71748 l -0.0069,-2.15241 h 1.021018 v 0.74506 q 0.03449,0 0.117279,0 0.08968,-0.007 0.200064,-0.007 0.117279,-0.007 0.241457,-0.007 0.131077,-0.007 0.241457,-0.007 0.531206,0 0.820954,0.13107 0.289748,0.13108 0.400129,0.44153 0.117279,0.30354 0.117279,0.83475 0,0.47601 -0.09658,0.75196 -0.09658,0.27595 -0.296647,0.41393 -0.200065,0.13108 -0.510509,0.17247 -0.303546,0.0414 -0.724371,0.0414 z m 0.0138,-0.545 q 0.248356,0 0.365635,-0.0552 0.124178,-0.0621 0.165571,-0.24836 0.04829,-0.18626 0.04829,-0.57949 0,-0.31735 -0.05519,-0.48982 -0.05519,-0.17247 -0.186267,-0.24145 -0.124178,-0.069 -0.351837,-0.069 -0.05519,0 -0.131077,0 -0.07589,0 -0.151773,0.007 -0.07589,0 -0.137975,0 -0.05519,0 -0.08968,0 v 1.00032 q 0,0.22076 0.0207,0.35873 0.0207,0.13108 0.07589,0.20007 0.05519,0.069 0.151773,0.0966 0.103481,0.0207 0.27595,0.0207 z"
             style="font-weight:bold;font-family:Genos;-inkscape-font-specification:'Genos Bold'"
             id="path5188" />
          <path
             d="m 54.996856,185.60311 q -0.482914,0 -0.696775,-0.15867 -0.213862,-0.16557 -0.213862,-0.5795 v -2.40077 q 0,-0.15177 0.02759,-0.23456 0.0276,-0.0828 0.11038,-0.11038 0.08279,-0.0276 0.241457,-0.0276 h 0.669181 q -0.0069,0.0207 -0.0207,0.15177 -0.0069,0.13108 -0.0069,0.28975 v 2.2145 q 0,0.24836 0.06209,0.35184 0.06209,0.0966 0.234558,0.0966 0.06209,0 0.131076,-0.0138 0.07589,-0.0138 0.08968,-0.0207 v 0.37943 q -0.04829,0.007 -0.179368,0.0345 -0.131076,0.0276 -0.44842,0.0276 z"
             style="font-weight:bold;font-family:Genos;-inkscape-font-specification:'Genos Bold'"
             id="path5190" />
          <path
             d="m 57.446731,185.61691 q -0.482914,0 -0.793359,-0.0552 -0.310444,-0.0621 -0.489812,-0.20696 -0.179368,-0.14488 -0.255255,-0.40703 -0.07589,-0.26216 -0.07589,-0.68298 0,-0.5381 0.151773,-0.85545 0.151773,-0.31734 0.524306,-0.46222 0.379433,-0.14487 1.048613,-0.14487 0.524307,0 0.834751,0.11038 0.310445,0.11038 0.44842,0.34494 0.137976,0.23456 0.137976,0.60019 v 0.53121 H 57.0604 q 0,-0.14488 0.06209,-0.24146 0.06899,-0.10348 0.248355,-0.10348 h 0.689877 l -0.0069,-0.14488 q 0,-0.28284 -0.117279,-0.42082 -0.110381,-0.14487 -0.420825,-0.14487 -0.255255,0 -0.400129,0.0828 -0.137975,0.0759 -0.193166,0.27595 -0.04829,0.19317 -0.04829,0.5588 0,0.33114 0.06209,0.49671 0.06899,0.16557 0.241457,0.22766 0.172469,0.0552 0.489813,0.0552 0.117279,0 0.317343,-0.007 0.200064,-0.007 0.407027,-0.0138 0.213862,-0.0138 0.372534,-0.0207 0.16557,-0.0138 0.206963,-0.0276 v 0.12417 q 0,0.0966 -0.03449,0.20697 -0.02759,0.10348 -0.117279,0.17247 -0.124178,0.0966 -0.462218,0.12417 -0.33114,0.0276 -0.910637,0.0276 z"
             style="font-weight:bold;font-family:Genos;-inkscape-font-specification:'Genos Bold'"
             id="path5192" />
          <path
             d="m 60.744342,185.60311 q -0.16557,0 -0.351837,-0.007 -0.186267,-0.007 -0.372534,-0.0276 -0.179368,-0.0207 -0.331141,-0.0621 -0.124177,-0.0276 -0.206963,-0.069 -0.07589,-0.0483 -0.117279,-0.17247 -0.03449,-0.13108 -0.03449,-0.40703 0.213862,0.0759 0.441522,0.12418 0.227659,0.0414 0.441521,0.0621 0.220761,0.0138 0.407027,0.0138 0.131077,0 0.28285,0 0.158672,-0.007 0.303546,-0.0345 0.144874,-0.0345 0.241457,-0.10348 0.09658,-0.0759 0.09658,-0.20696 0,-0.15867 -0.08279,-0.20696 -0.08278,-0.0483 -0.22076,-0.0483 h -0.78646 q -0.317343,0 -0.565699,-0.0345 -0.241457,-0.0345 -0.386331,-0.18627 -0.137976,-0.15867 -0.137976,-0.5312 0,-0.40703 0.200065,-0.60019 0.206963,-0.20007 0.586395,-0.26216 0.379432,-0.0621 0.910638,-0.0621 0.193165,0 0.44842,0.007 0.262153,0.007 0.455319,0.0345 0.213861,0.0207 0.33114,0.069 0.124178,0.0414 0.179368,0.13798 0.05519,0.0897 0.05519,0.28285 v 0.19316 q -0.04139,-0.069 -0.213862,-0.10348 -0.165571,-0.0414 -0.407028,-0.0552 -0.234558,-0.0138 -0.496711,-0.0138 -0.255255,0 -0.476015,0 -0.151773,0 -0.28285,0.0207 -0.124178,0.0138 -0.200064,0.0828 -0.07589,0.0621 -0.07589,0.20696 0,0.11038 0.04829,0.16557 0.04829,0.0483 0.131076,0.0621 0.08279,0.0138 0.186267,0.0138 h 0.876144 q 0.289748,0 0.510509,0.0552 0.220761,0.0483 0.33804,0.22076 0.117279,0.16557 0.117279,0.5243 0,0.41393 -0.234558,0.6071 -0.234559,0.19316 -0.648485,0.25525 -0.413926,0.0552 -0.958929,0.0552 z"
             style="font-weight:bold;font-family:Genos;-inkscape-font-specification:'Genos Bold'"
             id="path5194" />
        </g>
      </g>
    </g>
    <path
       id="path2523"
       style="font-weight:bold;font-size:33.8307px;line-height:1.25;font-family:Genos;-inkscape-font-specification:'Genos Bold';display:inline;fill:#ffebd8;stroke-width:0.441642"
       d="m 82.724151,91.283832 c -1.78175,0 -3.31519,0.12398 -4.60076,0.37207 -1.26301,0.24809 -2.31156,0.67676 -3.14606,1.28571 -0.81193,0.5864 -1.40975,1.39803 -1.79317,2.43551 -0.38341,1.01492 -0.57516,2.33454 -0.57516,3.95842 0,1.578758 0.18019,2.886828 0.54106,3.924298 0.38341,1.03748 0.97019,1.86067 1.75958,2.46962 0.81193,0.5864 1.84946,1.00351 3.11247,1.2516 1.26301,0.2481 2.79645,0.37207 4.60075,0.37207 1.78175,0 3.30415,-0.11242 4.56716,-0.33796 1.28557,-0.24809 2.33413,-0.66573 3.14606,-1.25212 0.81194,-0.60895 1.40976,-1.43214 1.79318,-2.46962 0.38341,-1.03747 0.57516,-2.35658 0.57516,-3.957888 0,-1.60132 -0.19175,-2.92094 -0.57516,-3.95842 -0.36086,-1.03748 -0.94713,-1.84911 -1.75907,-2.43551 -0.78938,-0.60895 -1.81587,-1.03762 -3.07888,-1.28571 -1.26301,-0.24809 -2.78541,-0.37207 -4.56716,-0.37207 z m 23.207879,0.10129 c -2.12006,0 -3.90145,0.12397 -5.34489,0.37207 -1.420889,0.24809 -2.559799,0.66572 -3.416849,1.25212 -0.85704,0.58639 -1.46641,1.39803 -1.82728,2.43551 -0.36086,1.01492 -0.54105,2.31195 -0.54105,3.89072 0,1.601308 0.16916,2.920418 0.50747,3.957888 0.3383,1.01493 0.91353,1.81605 1.72547,2.40244 0.83449,0.5864 1.95082,1.00351 3.349149,1.2516 1.42089,0.22554 3.2028,0.33797 5.34541,0.33797 0.90216,0 1.77052,-0.0226 2.60501,-0.0677 0.85704,-0.0451 1.71386,-0.13495 2.5709,-0.27027 0.96982,-0.13532 1.61281,-0.37224 1.92857,-0.71055 0.31575,-0.36086 0.47335,-0.81212 0.47335,-1.3534 v -1.59009 c -0.8796,0.20299 -1.71382,0.37214 -2.5032,0.50747 -0.76684,0.13532 -1.51122,0.24826 -2.23294,0.33848 -0.69917,0.0677 -1.36476,0.10128 -1.99626,0.10128 -1.48855,0 -2.68368,-0.12398 -3.58583,-0.37207 -0.90215,-0.24809 -1.54515,-0.72142 -1.92856,-1.42058 -0.38342,-0.69918 -0.57516,-1.72566 -0.57516,-3.078888 0,-1.42088 0.19174,-2.481 0.57516,-3.18016 0.38341,-0.69917 0.99227,-1.16146 1.82676,-1.387 0.85705,-0.22554 1.95129,-0.33796 3.28197,-0.33796 0.65406,0 1.40948,0.0447 2.26653,0.13487 0.85704,0.0677 1.71386,0.18061 2.5709,0.33848 0.8796,0.15788 1.64657,0.36118 2.30063,0.60927 v -1.72548 c 0,-0.5864 -0.14656,-1.04869 -0.43976,-1.38699 -0.2932,-0.33831 -0.91361,-0.5642 -1.86087,-0.67696 -0.87959,-0.13533 -1.72537,-0.22516 -2.53731,-0.27027 -0.78938,-0.0677 -1.63516,-0.1018 -2.53732,-0.1018 z m -77.547716,0.13539 c -0.699169,0 -1.398378,0.0116 -2.097547,0.0341 h -1.894458 c -0.857044,0.0225 -1.443312,0.20275 -1.759065,0.54106 -0.315753,0.3383 -0.473873,0.90198 -0.473873,1.69137 v 13.329408 h 1.962154 2.300634 c 0.811938,0.0225 1.680303,0.0341 2.605008,0.0341 h 2.909385 c 1.668981,0 3.101028,-0.0904 4.296378,-0.27078 1.195351,-0.20299 2.176661,-0.57545 2.94349,-1.11673 0.789381,-0.54129 1.364615,-1.3193 1.725475,-2.33423 0.383415,-1.03747 0.575159,-2.37917 0.575159,-4.025588 0,-1.64643 -0.169156,-2.97708 -0.507463,-3.992 -0.338307,-1.03748 -0.868363,-1.82704 -1.590082,-2.36834 -0.721723,-0.56384 -1.64682,-0.94733 -2.774508,-1.15031 -1.127692,-0.22554 -2.491971,-0.34952 -4.09329,-0.37207 h -1.996263 z m 17.896581,0.0341 c -0.586399,0 -1.015063,0.0673 -1.285708,0.20258 -0.248092,0.13532 -0.406213,0.33862 -0.473874,0.60926 -0.04511,0.24809 -0.06718,0.56381 -0.06718,0.94723 v 1.04541 h 5.547985 v -2.80448 z m 6.157248,0 5.412589,13.058638 c 0.405966,0.92471 0.868257,1.57874 1.386994,1.96215 0.518739,0.36086 1.297268,0.54105 2.334741,0.54105 h 3.552238 L 71.687611,91.554612 H 67.560216 L 63.39923,102.38031 h -0.270785 c -0.18043,0 -0.349586,-0.0678 -0.507463,-0.20309 -0.157874,-0.13532 -0.293407,-0.37224 -0.406175,-0.71055 l -3.687114,-9.912058 z m 30.218828,2.6386 c 0.74427,0 1.38675,0.0788 1.92805,0.23668 0.56384,0.13532 1.01509,0.39483 1.3534,0.77825 0.36086,0.36086 0.62037,0.87936 0.77825,1.55598 0.18043,0.65405 0.27027,1.51139 0.27027,2.57142 0,1.037468 -0.0898,1.894278 -0.27027,2.570898 -0.15788,0.65406 -0.41739,1.17308 -0.77825,1.55649 -0.33831,0.38342 -0.78956,0.65396 -1.3534,0.81184 -0.5413,0.13533 -1.18378,0.20309 -1.92805,0.20309 -0.76683,0 -1.43242,-0.0678 -1.99626,-0.20309 -0.54129,-0.15788 -0.98099,-0.42842 -1.3193,-0.81184 -0.33831,-0.38341 -0.59782,-0.90243 -0.77825,-1.55649 -0.18043,-0.67662 -0.27078,-1.53343 -0.27078,-2.570898 0,-1.06003 0.0904,-1.91737 0.27078,-2.57142 0.18043,-0.67662 0.43994,-1.19512 0.77825,-1.55598 0.33831,-0.38342 0.77801,-0.64293 1.3193,-0.77825 0.56384,-0.15788 1.22943,-0.23668 1.99626,-0.23668 z m -52.445897,0.1354 h 1.049034 c 1.150244,0 2.041199,0.13501 2.672704,0.40565 0.654061,0.2481 1.116349,0.73297 1.386996,1.4547 0.293198,0.72172 0.439767,1.79338 0.439767,3.21427 0,0.992358 -0.07932,1.815558 -0.237197,2.469618 -0.157876,0.65406 -0.405833,1.16153 -0.74414,1.52239 -0.338307,0.36086 -0.789043,0.60882 -1.352889,0.74414 -0.563845,0.13532 -1.240467,0.20308 -2.029849,0.20308 h -0.880052 -1.048514 c -0.338307,-0.0225 -0.665581,-0.0341 -0.981334,-0.0341 h -0.77773 v -8.829438 c 0,-0.2932 0.0226,-0.51908 0.0677,-0.67696 0.04511,-0.15788 0.10132,-0.29289 0.168982,-0.40566 0.293198,-0.0225 0.642546,-0.0341 1.048514,-0.0341 0.405969,-0.0225 0.812046,-0.0336 1.218012,-0.0336 z m 16.069821,1.67535 c -0.58638,0 -1.015045,0.0678 -1.285708,0.20308 -0.247933,0.13533 -0.405628,0.33863 -0.473358,0.60927 -0.02241,0.12071 -0.03895,0.25757 -0.05013,0.41031 h -0.01757 v 0.53692 2.451528 4.44985 1.16686 1.28467 h 5.547984 v -1.28467 -8.605158 -1.22266 z" />
    <g
       id="g6021"
       style="display:inline">
      <path
         id="circle140701-7"
         style="font-variation-settings:normal;fill:#ffebd8;fill-opacity:1;stroke:none;stroke-width:17.508;stroke-linecap:butt;stroke-linejoin:miter;stroke-miterlimit:4;stroke-dasharray:none;stroke-dashoffset:0;stroke-opacity:1;stop-color:#000000"
         d="m 263.94727,36.519531 a 147.83179,147.83179 0 0 0 -147.83204,147.832029 147.83179,147.83179 0 0 0 9.62891,51.41016 c 2.92964,3.6266 6.69773,7.54026 11.67969,11.66211 10.0929,8.3505 25.93241,16.1721 45.10937,22.83594 l 6.34766,1.10351 a 88.399058,34.595392 9.5621092 0 1 -18.31445,-26.03906 88.399058,34.595392 9.5621092 0 1 42.50195,-21.58984 c -0.28946,-0.21629 -0.59806,-0.45036 -0.94922,-0.72657 -8.21337,-6.46021 -18.15316,-15.58435 -18.07226,-29.18164 0.003,-0.4923 0.0395,-0.95141 0.0586,-1.42773 a 126.22915,49.400369 10.626199 0 0 -67.0332,30.11133 126.22915,49.400369 10.626199 0 0 -0.0117,2.72851 142.62271,142.62275 0 0 1 -7.0293,-43.53516 142.62271,142.62275 0 0 1 142.62305,-142.623042 142.62271,142.62275 0 0 1 142.62304,142.623042 142.62271,142.62275 0 0 1 -30.16015,87.69532 126.22915,49.400369 10.626199 0 0 0.084,-0.33594 126.22915,49.400369 10.626199 0 0 -42.33203,-48.14062 c -0.45657,0.60811 -0.89998,1.27325 -1.36328,1.84179 -3.67301,4.50735 -7.40748,7.4319 -10.66016,9.82422 2.74146,5.42363 5.28353,11.14269 7.40821,16.7832 a 88.399058,34.595392 9.5621092 0 1 16.65429,25.32227 88.399058,34.595392 9.5621092 0 1 -17.48242,16.13476 c 6.45576,-0.33739 12.77619,-0.87415 18.89844,-1.63671 13.55103,-1.68786 25.70376,-8.18051 33.8418,-13.54493 A 147.83179,147.83179 0 0 0 411.7793,184.35156 147.83179,147.83179 0 0 0 263.94727,36.519531 Z M 250.22461,44.5 c -67.91918,6.784649 -99.50045,50.817308 -108.74609,85.56836 12.76426,-16.00696 27.61679,-27.81896 41.38281,-29.64844 2.5179,-27.614588 33.6261,-48.549713 67.36328,-55.91992 z m 64.74414,105.72266 c -5.95935,8.68657 -12.37037,22.55538 -12.19141,41.86914 1.49376,-0.19949 1.73053,-25.26797 15.48633,-36.13086 2.55163,0.0818 8.09087,2.62258 9.94531,3.5625 -1.47367,-1.80191 -9.67738,-7.67875 -13.24023,-9.30078 z m -75.59375,8.01172 c -4.45676,0.0485 -9.07619,3.59035 -9.51172,10.6621 v 0.002 c -0.36453,5.90366 4.28594,10.66037 8.14063,10.81445 6.62744,0.26513 5.86112,1.65788 7.5664,0.6543 1.70509,-1.00365 3.57896,-4.36948 4.12696,-10.17383 0.70552,-7.47022 -5.26794,-11.18121 -8.69532,-11.81836 -0.5343,-0.0993 -1.07963,-0.14658 -1.62695,-0.14062 z m 39.5918,10.24609 c -3.5611,0.003 -7.65664,1.03112 -11.26758,4.55469 -4.73381,4.61892 -6.18238,9.16194 -5.52734,11.30859 0.655,2.1461 0.74953,0.73963 7.2539,4.21289 5.5135,2.94422 13.69807,2.61003 18.56055,-2.01367 5.23901,-4.98204 5.33317,-14.3864 -2.16211,-16.89649 -1.64057,-0.54931 -4.08768,-1.16813 -6.85742,-1.16601 z m -39.03711,15.71289 c -1.74641,0.0172 -3.52824,0.20529 -5.29883,0.56641 -2.15821,3.89077 -0.75935,9.08004 1.4668,11.83203 2.87071,-10.65375 11.55457,-7.621 14.34375,-10.10547 -2.99911,-1.54882 -6.66963,-2.33088 -10.51172,-2.29297 z m 69.85351,20.03906 c -12.70087,10.03598 -27.62324,14.56736 -47.32226,13.41797 -6.19772,-7.4013 -0.6817,-2.08094 -18.72852,-8.68359 l -7.84375,7.21093 c 16.25946,7.34069 52.22907,10.32605 78.23242,-11.6289 z m -155.00195,79.45703 a 147.83179,147.83179 0 0 0 109.16602,48.49414 147.83179,147.83179 0 0 0 60.32421,-13.19531 131.67331,51.530971 9.5621092 0 1 -28.92968,1.26953 142.62271,142.62275 0 0 1 -32.6875,4.06836 142.62271,142.62275 0 0 1 -83.72266,-28.04297 131.67331,51.530971 9.5621092 0 1 -24.15039,-12.59375 z"
         transform="scale(0.26458333)" />
      <path
         id="path140711-7"
         style="font-variation-settings:normal;fill:#62c1a6;fill-opacity:1;stroke:none;stroke-width:17.508;stroke-linecap:butt;stroke-linejoin:miter;stroke-miterlimit:4;stroke-dasharray:none;stroke-dashoffset:0;stroke-opacity:1;stop-color:#000000"
         d="m 283.01758,78.720703 c -13.71997,-0.343842 -30.26987,25.987447 -34.36133,51.882817 -0.005,0.0289 -0.007,0.0553 -0.0117,0.084 -30.37981,14.58946 -32.48437,43.54102 -32.48437,43.54102 0,0 -13.26373,6.3232 -13.36133,22.71093 -0.10099,16.9777 29.53515,31.75977 29.53515,31.75977 -13.10894,11.27776 -18.01085,17.8766 -27.84765,28.11719 4.10359,4.20776 7.73149,7.3531 14.26953,10.71875 7.0585,-13.64351 15.64198,-24.90349 24.47656,-35.45118 4.53476,0.85162 10.06304,1.61372 13.95703,1.00586 -14.6988,-3.54619 -42.14172,-19.28454 -44.61523,-35.96875 -2.70341,-18.23504 10.03515,-21.0625 10.03516,-21.0625 0,0 5.06532,-22.75681 19.21093,-32.97265 4.35969,-3.14856 8.02217,-3.51044 11.91211,-6.03321 34.18404,-19.21255 15.57472,-47.356915 27.84766,-49.443355 24.47166,-4.160428 34.73343,14.987795 53.06445,15.394535 -7.08767,6.08621 -30.29432,7.30009 -37.54687,6.16015 0,0 -0.53906,8.09988 -5.00391,13.32227 3.99857,-1.55877 10.25851,-5.91061 11.70703,-9.07031 10.06491,1.33413 34.12316,0.89123 46.36524,-6.4336 11.33993,-6.78507 7.16526,-14.011424 -2.82813,-13.087889 -18.12477,1.674074 -40.25338,-14.571156 -64.32031,-15.173828 z m 41.73437,50.689457 c -22.26695,0.27787 -39.40625,16.03711 -39.40625,16.03711 0,0 15.26244,-9.19215 45.0586,-6.51563 20.07108,1.80317 27.3169,15.3616 42.09179,17.63867 -10.37583,7.01987 -21.94364,2.26346 -28.57031,6.12305 0,0 24.91192,11.67219 46.55274,-3.5918 10.02296,-7.06953 6.33084,-14.59694 -2.50196,-13.63672 -16.01996,1.74426 -32.43424,-10.86503 -53.40234,-15.13476 -3.35521,-0.6833 -6.64127,-0.95962 -9.82227,-0.91992 z m 0.56836,39.27929 c -8.94012,10.90223 -8.7897,24.65415 -8.19336,32.79883 1.69821,-0.45217 3.00023,-0.78219 3.64453,-2.13867 -3.69536,-22.31086 5.0184,-28.74291 4.54883,-30.66016 z m 11.42969,17.3418 c -0.33264,1.76671 -0.72955,3.6661 -1.20312,5.70703 -3.48217,15.00669 -12.34961,20.76758 -12.34961,20.76758 l -11.13282,0.89258 c -7.25836,9.86639 -23.0957,20.27539 -23.0957,20.27539 8.13896,5.60663 16.2715,15.09355 22.17969,23.76758 3.85227,5.6985 9.34348,18.31648 10.81054,22.28906 2.01803,-1.00365 3.96716,-2.09929 5.82422,-3.30469 -2.41086,-11.16292 -11.57169,-32.85163 -18.05664,-43.7539 0,0 26.12714,-11.83062 27.02344,-46.64063 z m -226.93359,11.57031 c -7.37525,5.63632 -11.847143,12.17206 -13.22266,19.32617 -6.278317,34.72878 60.00107,75.73736 148.04102,91.59571 88.04027,15.85852 164.50162,0.56387 170.7832,-34.16602 1.60191,-8.9168 -1.6189,-18.59621 -9.45117,-28.39648 l -12.07227,19.93554 c -0.0438,0.47181 -0.11058,0.9396 -0.18164,1.4043 -5.79269,30.50812 -73.68114,43.24816 -151.63867,28.45703 -77.95946,-14.79183 -136.46648,-51.51533 -130.67969,-82.02539 0.43075,-1.75102 0.52318,-1.70465 1.38477,-3.36133 -0.82312,-3.17402 -1.97711,-8.12853 -2.96289,-12.76953 z"
         transform="scale(0.26458333)" />
    </g>
  </g>
</svg>
