<?xml version="1.0" encoding="UTF-8" standalone="no"?>
<!-- Created with Inkscape (http://www.inkscape.org/) -->

<svg
   width="512"
   height="512"
   viewBox="0 0 135.46667 135.46667"
   version="1.1"
   id="svg1001"
   inkscape:version="1.1.2 (0a00cf5339, 2022-02-04)"
   sodipodi:docname="divoc_bb3_logo_bunny_small_plain.svg"
   xmlns:inkscape="http://www.inkscape.org/namespaces/inkscape"
   xmlns:sodipodi="http://sodipodi.sourceforge.net/DTD/sodipodi-0.dtd"
   xmlns="http://www.w3.org/2000/svg"
   xmlns:svg="http://www.w3.org/2000/svg">
  <sodipodi:namedview
     id="namedview1003"
     pagecolor="#505050"
     bordercolor="#ffffff"
     borderopacity="1"
     inkscape:pageshadow="0"
     inkscape:pageopacity="0"
     inkscape:pagecheckerboard="1"
     inkscape:document-units="px"
     showgrid="false"
     showguides="true"
     inkscape:guide-bbox="true"
     inkscape:snap-bbox="true"
     inkscape:bbox-paths="true"
     inkscape:bbox-nodes="true"
     inkscape:snap-bbox-edge-midpoints="true"
     inkscape:snap-bbox-midpoints="true"
     inkscape:object-paths="true"
     inkscape:snap-intersection-paths="true"
     inkscape:snap-smooth-nodes="true"
     inkscape:snap-midpoints="true"
     inkscape:snap-object-midpoints="true"
     inkscape:snap-center="true"
     inkscape:snap-text-baseline="true"
     inkscape:snap-page="true"
     units="px"
     fit-margin-top="0"
     fit-margin-left="0"
     fit-margin-right="0"
     fit-margin-bottom="0"
     inkscape:zoom="1.4609989"
     inkscape:cx="197.12541"
     inkscape:cy="249.14461"
     inkscape:window-width="3840"
     inkscape:window-height="2118"
     inkscape:window-x="0"
     inkscape:window-y="0"
     inkscape:window-maximized="1"
     inkscape:current-layer="layer1" />
  <defs
     id="defs998" />
  <g
     inkscape:label="Layer 1"
     inkscape:groupmode="layer"
     id="layer1">
    <rect
       style="display:inline;fill:#1f1c2a;fill-opacity:1;stroke:none;stroke-width:1.94847;stroke-linecap:round;stroke-linejoin:bevel;stroke-miterlimit:4;stroke-dasharray:none;stroke-opacity:1"
       id="rect232100-3"
       width="135.46666"
       height="135.46666"
       x="1.7763568e-15"
       y="3.5527137e-15"
       inkscape:export-filename="/home/betalars/Development/congress/bridging-bubbles-design/Logo/rect232100.png"
       inkscape:export-xdpi="192.80841"
       inkscape:export-ydpi="192.80841" />
    <g
       id="g6910"
       style="display:inline"
       transform="matrix(1.3521768,0,0,1.3521768,-25.180834,2.5790562)">
      <path
         id="circle232108"
         style="font-variation-settings:normal;fill:#ffebd8;fill-opacity:1;stroke:none;stroke-width:11.0612;stroke-linecap:butt;stroke-linejoin:miter;stroke-miterlimit:4;stroke-dasharray:none;stroke-dashoffset:0;stroke-opacity:1;stop-color:#000000"
         d="m 263.94727,36.519531 a 147.99233,147.99233 0 0 0 -147.99219,147.992189 147.99233,147.99233 0 0 0 0.95703,13.39844 c 5.74599,21.32753 13.95331,35.5307 23.23242,46.13867 A 137.30915,137.30915 0 0 1 124.44727,180.98438 137.30915,137.30915 0 0 1 261.75781,43.673828 137.30915,137.30915 0 0 1 399.06641,180.98438 137.30915,137.30915 0 0 1 348.17383,287.37695 c 15.60037,-6.3032 38.16506,-23.1263 51.4375,-44.1875 A 147.99233,147.99233 0 0 0 411.93945,184.51172 147.99233,147.99233 0 0 0 263.94727,36.519531 Z m -12.00391,11.625 c -66.73115,6.665772 -97.75972,49.929153 -106.84375,84.072269 12.5411,-15.7269 27.13482,-27.33328 40.66016,-29.13086 2.47395,-27.131746 33.03662,-47.699868 66.18359,-54.941409 z m 78.32812,125.628909 c -1.64227,0.0126 -2.92812,0.13982 -3.89453,1.27539 -2.48726,25.52841 -13.91912,30.03005 -13.97265,32.26953 12.99311,-9.32925 16.86065,-24.44405 18.59375,-33.54492 -0.24921,-2.3e-4 -0.49196,-0.002 -0.72657,0 z m -143.54687,20.23242 a 112.23345,43.923095 10.626199 0 0 -45.04883,25.58008 112.23345,43.923095 10.626199 0 0 40.35547,44.09765 88.495038,34.632958 9.5621093 0 1 -10.70508,-20.73047 88.495038,34.632958 9.5621093 0 1 35.26758,-20.8457 c -9.15906,-6.93321 -17.11567,-16.58809 -19.86914,-28.10156 z m 142.77734,26.73633 c -3.92329,3.6463 -9.45555,6.78308 -18.22851,9.05078 -0.34684,3.12722 -0.25881,5.48313 0.0664,7.40039 a 88.495038,34.632958 9.5621093 0 1 34.51758,35.16016 88.495038,34.632958 9.5621093 0 1 -4.10351,7.91601 112.23345,43.923095 10.626199 0 0 20.53906,-19.29101 112.23345,43.923095 10.626199 0 0 -32.79102,-40.23633 z M 145.5918,272.72852 a 147.99233,147.99233 0 0 0 118.35547,59.77539 147.99233,147.99233 0 0 0 93.64648,-33.70118 l -37.24805,6.23633 a 137.30915,137.30915 0 0 1 -58.58789,13.25391 137.30915,137.30915 0 0 1 -92.58789,-36.20508 z"
         transform="scale(0.26458333)" />
      <path
         id="path232120"
         style="font-variation-settings:normal;fill:#62c1a6;fill-opacity:1;stroke:none;stroke-width:11.3124;stroke-linecap:butt;stroke-linejoin:miter;stroke-miterlimit:4;stroke-dasharray:none;stroke-dashoffset:0;stroke-opacity:1;stop-color:#000000"
         d="m 271.65625,82.376953 c -13.40003,-0.335716 -28.82994,24.009967 -32.82617,49.300777 -0.24779,1.56825 -0.33446,2.82893 -0.29688,3.83204 -23.55427,14.56498 -25.29297,38.46484 -25.29297,38.46484 0,0 -12.67221,6.04231 -12.76562,21.70117 -0.0898,16.2225 28.2207,30.34766 28.2207,30.34766 -12.52538,10.77652 -17.21028,17.07818 -26.60937,26.86328 21.03185,21.56675 81.8525,33.80827 114.62109,12.53906 -2.30374,-10.66627 -7.868,-25.19018 -14.06445,-35.60742 0,0 17.52708,-7.7002 21.76562,-31.60352 -4.29716,8.22037 -11.20898,12.71094 -11.20898,12.71094 l -13.07227,1.05078 c -24.52639,14.59111 -57.32359,10.05194 -71.34375,3.72266 l 9.00977,-11.17774 c 17.24244,6.31053 13.76742,3.87137 19.68945,10.94336 14.85946,0.86725 26.8724,-1.6525 37.24414,-7.46875 -1.40956,-18.17621 8.03647,-42.02172 17.02735,-48.46484 l 8.55468,4.61719 c -3.16097,-6.05795 -7.74963,-11.7946 -13.28711,-16.82422 6.85422,-1.71514 16.54328,-5.73803 24.42383,-15.19141 18.49458,-22.18585 47.93754,-10.78374 45.55274,-4.52734 -11.45155,30.04425 -37.5053,24.10402 -39.74414,29.56055 0,0 22.09917,0.99996 32.18945,-8.02344 19.96363,-17.85324 15.97252,-35.25217 3.68945,-37.875 -10.65032,-2.2741 -26.02407,-2.0283 -60.5332,12.89648 -18.01064,7.78946 -37.06352,5.60936 -39.14063,5.3418 -4.11211,-0.9183 -8.20907,-1.38067 -12.18164,-1.31445 8.21432,-12.85429 -6.0518,-26.00496 2.89063,-34.19141 v -0.0039 c 10.38759,-9.509794 13.91602,5.803745 27.19726,10.75391 -1.54989,1.81441 -5.19207,2.01201 -7.8789,1.58984 -0.95505,3.63132 -2.56946,12.18057 -10.65039,15.22266 3.73776,0.34851 20.17402,0.0319 25.60742,-14.59375 10.39567,3.16356 28.00937,6.58027 40.23047,-0.11133 9.69146,-5.30652 6.89668,-10.736845 -2.87695,-9.998049 C 287.92745,100.4797 295.16116,82.965299 271.65625,82.376959 Z M 234.5293,156.16992 c 0.57302,-0.006 1.14372,0.0426 1.70312,0.14649 3.58821,0.6676 9.84231,4.5541 9.10352,12.375 -0.57375,6.07675 -2.53284,9.60141 -4.32032,10.65234 -1.78521,1.05093 -0.98544,-0.40906 -7.92382,-0.6875 -4.0351,-0.16099 -8.90405,-5.14222 -8.52344,-11.32227 0.45672,-7.40197 5.29527,-11.11256 9.96094,-11.16406 z m 39.11328,9.57813 c 3.06663,-0.002 5.77341,0.68464 7.58984,1.29297 8.29827,2.7803 8.19384,13.18878 2.39453,18.70507 -5.38377,5.11947 -14.44422,5.49053 -20.54883,2.23243 -7.20177,-3.84556 -7.30594,-2.28773 -8.03124,-4.66602 -0.72757,-2.37627 0.87594,-7.40545 6.11914,-12.51953 3.9977,-3.9012 8.53375,-5.04192 12.47656,-5.04492 z m -39.82031,17.74804 c 4.44932,-0.0441 8.70066,0.86232 12.17382,2.65625 -3.23004,2.87749 -13.28502,-0.63625 -16.60937,11.70118 -2.57725,-3.18671 -4.20012,-9.19738 -1.69922,-13.70313 2.04988,-0.41799 4.11296,-0.6343 6.13477,-0.6543 z m -124.01563,11.58008 c -7.37537,5.63618 -11.84724,12.17372 -13.222656,19.32813 -6.278411,34.7283 60.001366,75.73548 148.041016,91.59375 88.04011,15.85871 164.50163,0.56161 170.7832,-34.16602 1.60109,-8.91696 -1.61768,-18.59633 -9.45117,-28.39648 l -12.07226,19.9375 c -0.045,0.46708 -0.11242,0.93946 -0.17969,1.40429 -5.79269,30.50797 -73.68144,43.24798 -151.63867,28.45704 -77.95949,-14.79162 -136.46632,-51.51541 -130.67969,-82.0254 0.43115,-1.7493 0.52441,-1.70341 1.38672,-3.36132 -0.82413,-3.17458 -1.97971,-8.13033 -2.96485,-12.77149 z"
         transform="scale(0.26458333)" />
    </g>
  </g>
</svg>
