<?xml version="1.0" encoding="UTF-8" standalone="no"?>
<!-- Created with Inkscape (http://www.inkscape.org/) -->

<svg
   xmlns:i="http://ns.adobe.com/AdobeIllustrator/10.0/"
   xmlns:dc="http://purl.org/dc/elements/1.1/"
   xmlns:cc="http://creativecommons.org/ns#"
   xmlns:rdf="http://www.w3.org/1999/02/22-rdf-syntax-ns#"
   xmlns:svg="http://www.w3.org/2000/svg"
   xmlns="http://www.w3.org/2000/svg"
   xmlns:xlink="http://www.w3.org/1999/xlink"
   xmlns:sodipodi="http://sodipodi.sourceforge.net/DTD/sodipodi-0.dtd"
   xmlns:inkscape="http://www.inkscape.org/namespaces/inkscape"
   id="svg2423"
   sodipodi:version="0.32"
   inkscape:version="0.47pre4 r22446"
   width="399.18607"
   height="522.89783"
   xml:space="preserve"
   sodipodi:docname="windows7sins.svg"
   inkscape:output_extension="org.inkscape.output.svg.inkscape"
   version="1.1"><metadata
     id="metadata2428"><rdf:RDF><cc:Work
         rdf:about=""><dc:format>image/svg+xml</dc:format><dc:type
           rdf:resource="http://purl.org/dc/dcmitype/StillImage" /><dc:title /></cc:Work></rdf:RDF></metadata><defs
     id="defs2426"><linearGradient
   inkscape:collect="always"
   xlink:href="#linearGradient3496"
   id="linearGradient4085"
   gradientUnits="userSpaceOnUse"
   gradientTransform="matrix(0.879174,0,0,0.973012,962.369,-945.481)"
   x1="281.48026"
   y1="1290.8563"
   x2="369.26611"
   y2="1017.7853" /><linearGradient
   id="linearGradient3496"><stop
     style="stop-color: rgb(0, 255, 0); stop-opacity: 1;"
     offset="0"
     id="stop3498" /><stop
     style="stop-color: rgb(255, 180, 0); stop-opacity: 1;"
     offset="1"
     id="stop3500" /></linearGradient><inkscape:perspective
   sodipodi:type="inkscape:persp3d"
   inkscape:vp_x="0 : 526.18109 : 1"
   inkscape:vp_y="0 : 1000 : 0"
   inkscape:vp_z="744.09448 : 526.18109 : 1"
   inkscape:persp3d-origin="372.04724 : 350.78739 : 1"
   id="perspective2430" /><clipPath
   clipPathUnits="userSpaceOnUse"
   id="clipPath2438"><path
     d="M 0,306 450,306 450,0 0,0 0,306 z"
     id="path2440" /></clipPath><clipPath
   clipPathUnits="userSpaceOnUse"
   id="clipPath2448"><path
     d="M 0,306 450,306 450,0 0,0 0,306 z"
     id="path2450" /></clipPath><linearGradient
   inkscape:collect="always"
   xlink:href="#linearGradient3496"
   id="linearGradient4138"
   gradientUnits="userSpaceOnUse"
   gradientTransform="matrix(0.879174,0,0,0.973012,962.369,-945.481)"
   x1="281.48026"
   y1="1290.8563"
   x2="369.26611"
   y2="1017.7853" /><linearGradient
   id="linearGradient6517"><stop
     style="stop-color:#000000;stop-opacity:1;"
     offset="0"
     id="stop6519" /><stop
     style="stop-color:#777777;stop-opacity:1;"
     offset="1"
     id="stop6521" /></linearGradient><inkscape:perspective
   sodipodi:type="inkscape:persp3d"
   inkscape:vp_x="0 : 526.18109 : 1"
   inkscape:vp_y="0 : 1000 : 0"
   inkscape:vp_z="744.09448 : 526.18109 : 1"
   inkscape:persp3d-origin="372.04724 : 350.78739 : 1"
   id="perspective10" /><inkscape:perspective
   id="perspective4019"
   inkscape:persp3d-origin="203.726 : 21.666667 : 1"
   inkscape:vp_z="407.452 : 32.5 : 1"
   inkscape:vp_y="0 : 1000 : 0"
   inkscape:vp_x="0 : 32.5 : 1"
   sodipodi:type="inkscape:persp3d" /><inkscape:perspective
   sodipodi:type="inkscape:persp3d"
   inkscape:vp_x="0 : 526.18109 : 1"
   inkscape:vp_y="0 : 1000 : 0"
   inkscape:vp_z="744.09448 : 526.18109 : 1"
   inkscape:persp3d-origin="372.04724 : 350.78739 : 1"
   id="perspective2450" /><inkscape:perspective
   id="perspective4552"
   inkscape:persp3d-origin="372.04724 : 350.78739 : 1"
   inkscape:vp_z="744.09448 : 526.18109 : 1"
   inkscape:vp_y="0 : 1000 : 0"
   inkscape:vp_x="0 : 526.18109 : 1"
   sodipodi:type="inkscape:persp3d" /><inkscape:perspective
   sodipodi:type="inkscape:persp3d"
   inkscape:vp_x="0 : 526.18109 : 1"
   inkscape:vp_y="0 : 1000 : 0"
   inkscape:vp_z="744.09448 : 526.18109 : 1"
   inkscape:persp3d-origin="372.04724 : 350.78739 : 1"
   id="perspective6472" /><inkscape:perspective
   id="perspective6470"
   inkscape:persp3d-origin="372.04724 : 350.78739 : 1"
   inkscape:vp_z="744.09448 : 526.18109 : 1"
   inkscape:vp_y="0 : 1000 : 0"
   inkscape:vp_x="0 : 526.18109 : 1"
   sodipodi:type="inkscape:persp3d" />
		
		
		
		
		
		
		
		
		
		
		
		
	<inkscape:perspective
   id="perspective2467"
   inkscape:persp3d-origin="100 : 66.666667 : 1"
   inkscape:vp_z="200 : 100 : 1"
   inkscape:vp_y="0 : 1000 : 0"
   inkscape:vp_x="0 : 100 : 1"
   sodipodi:type="inkscape:persp3d" /><inkscape:perspective
   id="perspective8906"
   inkscape:persp3d-origin="150 : 16.333333 : 1"
   inkscape:vp_z="300 : 24.5 : 1"
   inkscape:vp_y="0 : 1000 : 0"
   inkscape:vp_x="0 : 24.5 : 1"
   sodipodi:type="inkscape:persp3d" /></defs><sodipodi:namedview
     inkscape:window-height="958"
     inkscape:window-width="1674"
     inkscape:pageshadow="2"
     inkscape:pageopacity="0.0"
     guidetolerance="10.0"
     gridtolerance="10.0"
     objecttolerance="10.0"
     borderopacity="1.0"
     bordercolor="#666666"
     pagecolor="#ffffff"
     id="base"
     showgrid="false"
     showguides="true"
     inkscape:guide-bbox="true"
     inkscape:zoom="1.3903291"
     inkscape:cx="234.19373"
     inkscape:cy="277.74193"
     inkscape:window-x="0"
     inkscape:window-y="41"
     inkscape:current-layer="g2432"
     inkscape:window-maximized="0"><sodipodi:guide
       orientation="0,1"
       position="-15.640367,96.197524"
       id="guide3389" /><sodipodi:guide
       orientation="0,1"
       position="-16.657546,432.88377"
       id="guide3391" /><sodipodi:guide
       orientation="1,0"
       position="-83.791361,266.06641"
       id="guide3393" /><sodipodi:guide
       orientation="1,0"
       position="427.84969,-112.32418"
       id="guide3395" /></sodipodi:namedview><g
     id="g2432"
     inkscape:groupmode="layer"
     inkscape:label="4x6_postcard"
     transform="matrix(1.25,0,0,-1.25,-108.20366,450.09539)">

<rect
   style="fill:#ffff00;fill-opacity:1;stroke:none"
   id="rect8578"
   width="418.31824"
   height="319.34885"
   x="-58.241928"
   y="86.562927"
   transform="matrix(0,1,1,0,0,0)" /><g
   transform="matrix(0.00632449,0,0,-0.00632449,264.61105,-9.91028)"
   id="g29960"
   style="overflow:visible"><g
     id="g2493"
     transform="matrix(138.09437,0,0,138.09437,-8147.8019,28075.105)"><path
       i:knockout="Off"
       d="m 125.35122,-480.25345 c 0,15.65976 -13.49471,28.35475 -30.142432,28.35475 -16.647719,0 -30.142427,-12.69499 -30.142427,-28.35475 0,-15.65976 13.494708,-28.35475 30.142427,-28.35475 16.647722,0 30.142432,12.69499 30.142432,28.35475 z"
       id="path7949"
       style="overflow:visible" /><path
       i:knockout="Off"
       d="m -28.204547,-447.36194 158.105567,-1.13419 c -0.68247,3.88006 38.25586,65.21252 32.98605,75.99073 -4.65103,0.47409 -76.209157,5.67095 -76.209157,5.67095 6.948682,-10.63757 -14.786852,-48.77017 -14.786852,-48.77017 l -100.095608,-31.75732 z"
       id="path7955"
       style="overflow:visible" /><path
       i:knockout="Off"
       d="m 161.74962,-363.43188 -75.071707,-3.40257 c 0,0 -26.804012,162.59181 -27.298803,164.45755 -0.49479,1.86574 2.10997,2.8763 3.412351,1.13419 1.30238,-1.74212 58.009959,-93.00358 58.009959,-93.00358 0,0 22.46918,91.53027 22.749,93.00358 0.27981,1.47331 4.23245,1.37123 4.5498,0 0.31735,-1.37124 13.6494,-162.18917 13.6494,-162.18917 z"
       id="path7957"
       style="overflow:visible" /></g><g
     id="g29940"
     transform="translate(0,-19495.222)"><g
       transform="matrix(146.16948,0,0,145.75053,-36929.331,-24077.368)"
       id="g7998"
       style="overflow:visible"><path
         id="path7951"
         d="m 113.833,173 c 1.055,6.355 19.833,128.917 19.833,128.917 l 68.334,0 c 0,0 13.605,-125.024 13.833,-128.917 6.224,-0.622 7.667,-6 -1,-6 -12.164,0 -89.205,-0.059 -98,0 -8.795,0.059 -7.833,5.487 -3,6 z"
         i:knockout="Off" /><g
         id="g2485" /><path
         style="fill:#ffffff;stroke:#000000;stroke-width:0.88042098"
         id="path7959"
         d="m 136.857,297.945 61.499,0 c 0,0 18.9,-125.475 11.101,-125.475 -1.825,0 -86.442,-0.012 -88.2,0 -7.915,0.053 15.6,125.475 15.6,125.475 z"
         i:knockout="Off" /><path
         style="fill:#1789e5"
         id="path7961"
         i:knockout="Off"
         d="" /><path
         id="path7963"
         d="m 169.491,298.499 -5.315,0 0,-127.333 5.315,0 0,127.333 z"
         i:knockout="Off" /><path
         id="path7965"
         d="m 189.59,298.87 -5.049,-0.409 8.372,-127.345 5.049,0.409 -8.372,127.345 z"
         i:knockout="Off" /><path
         id="path7967"
         d="m 144.912,299.203 5.049,-0.409 -8.372,-127.345 -5.048,0.409 8.371,127.345 z"
         i:knockout="Off" /><g
         id="g7969">
			<path
   id="path7971"
   d="m 213.168,191.686 0,5.625 -94.334,0 0,-5.625 94.334,0 z"
   i:knockout="Off" />
			<path
   id="path7973"
   d="m 209.834,219.02 0,5.625 -86.667,0 0,-5.625 86.667,0 z"
   i:knockout="Off" />
			<path
   id="path7975"
   d="m 206.833,245.02 0,5.625 -80.333,0 0,-5.625 80.333,0 z"
   i:knockout="Off" />
			<path
   id="path7977"
   d="m 203.5,271.02 0,5.625 -73,0 0,-5.625 73,0 z"
   i:knockout="Off" />
		</g></g><g
       transform="matrix(1.6150303,-1.6150303,1.6150303,1.6150303,72542.183,-56649.695)"
       id="g29164"><path
         id="path2492"
         d="m -43772.709,-9206.1048 c 3.395,-28.3118 55.157,-368.0879 115.027,-755.0598 l 108.856,-703.5844 93.733,-52.558 c 515.721,-289.166 1022.808,-328.392 1430.583,-110.662 l 113.224,60.455 -122.339,755.804 c -67.287,415.6924 -131.951,758.0674 -143.702,760.8355 -11.747,2.7678 -102.688,-26.0181 -202.091,-63.9687 -99.403,-37.9507 -231.444,-75.8857 -293.425,-84.301 -261.753,-35.5358 -558.456,25.1555 -899.234,183.9409 -85.393,39.7884 -166.857,69.6942 -181.034,66.4585 -14.175,-3.2366 -22.995,-29.0475 -19.598,-57.36 z"
         style="fill:#000000;stroke:none;overflow:visible" /><path
         id="path2490"
         d="m -41981.533,-9187.3881 c 4.724,-28.2547 23.47,-149.1065 41.657,-268.5586 103.348,-678.7613 185.005,-1161.1543 201.18,-1188.4503 15.307,-25.833 51.832,-18.101 215.658,45.66 108.473,42.22 251.075,84.787 316.889,94.595 268.86,40.062 596.294,-14.898 940.217,-157.816 117.209,-48.707 218.548,-77.928 235.501,-67.905 22.7,13.421 3.073,191.255 -82.778,750.0411 l -112.532,732.4494 -92.737,55.9242 c -150.517,90.768 -468.088,203.532 -658.852,233.9453 -291.394,46.4603 -611.146,0.2854 -905.528,-130.764 -101.057,-44.9866 -106.768,-50.7232 -98.675,-99.1211 z"
         style="fill:#000000;stroke:none;overflow:visible" /><path
         id="path2488"
         d="m -43399.788,-11632.345 c 61.605,-392.892 118.179,-734.966 125.719,-760.163 36.033,-120.42 674.187,-338.36 967.447,-330.4 172.687,4.689 399.157,63.912 560.199,146.498 l 107.605,55.181 -40.592,260.083 c -156.184,1000.733 -196.501,1236.091 -214.137,1250.076 -10.984,8.711 -72.008,-7.455 -135.61,-35.924 -174.37,-78.049 -416.632,-127.273 -581.787,-118.211 -187.003,10.26 -508.813,104.134 -697.984,203.607 -82.665,43.466 -158.377,69.591 -174.458,60.197 -20.955,-12.238 0.993,-204.139 83.598,-730.944 z"
         style="fill:#000000;stroke:none;overflow:visible" /><path
         id="path2486"
         d="m -41595.938,-11620.202 c 65.204,-411.131 124.942,-758.321 132.754,-771.533 18.249,-30.865 65.523,-22.421 148.214,26.47 107.207,63.386 365.269,129.11 542.75,138.231 211.847,10.884 546.649,-74.152 799.478,-203.06 119.56,-60.959 197.852,-88.557 218.349,-76.968 37.834,21.389 42.053,-15.852 -96.646,853.463 -104.698,656.205 -108.241,671.411 -164.88,707.417 -136.836,86.999 -340.214,167.578 -564.133,223.519 -364.747,91.121 -666.432,59.97 -1039.229,-107.307 l -95.209,-42.72 118.552,-747.512 z"
         style="fill:#000000;stroke:none;overflow:visible" /></g></g></g><g
   transform="scale(1,-1)"
   style="font-size:28.53642082px;font-style:normal;font-variant:normal;font-weight:normal;font-stretch:normal;fill:#000000;fill-opacity:1;stroke:none;font-family:Futura Md BT;-inkscape-font-specification:Futura Md BT"
   id="text8787"><path
     d="m 130.4988,24.405218 2.07614,6.214475 0.0418,0.11147 c 0.30653,0.873192 0.5016,1.569881 0.58522,2.09007 0.0557,-0.297249 0.12539,-0.608436 0.209,-0.933565 0.0929,-0.325115 0.22293,-0.743128 0.39015,-1.254042 l 2.11794,-6.228408 5.14157,0 -5.90793,14.073137 -3.51132,0 -2.09007,-6.367746 c -0.11148,-0.362272 -0.21366,-0.72455 -0.30654,-1.086836 -0.0836,-0.37156 -0.16257,-0.738483 -0.23688,-1.10077 -0.10219,0.55736 -0.28333,1.258694 -0.54341,2.104003 l -0.0279,0.09754 -2.07614,6.353812 -3.51132,0 -5.88006,-14.073137 5.11371,0 2.104,6.228408 c 0.15791,0.455179 0.28331,0.854614 0.37621,1.198307 0.0929,0.334418 0.1672,0.664184 0.22294,0.9893 0.0836,-0.464454 0.26474,-1.110053 0.54342,-1.936798 0.0372,-0.111463 0.065,-0.195066 0.0836,-0.250809 l 2.09007,-6.228408 2.99577,0"
     style="font-weight:bold"
     id="path2919" /><path
     d="m 142.16139,20.016071 c 0,-0.752406 0.26474,-1.39336 0.79423,-1.922864 0.53877,-0.529463 1.18437,-0.794205 1.93679,-0.794226 0.78029,2.1e-5 1.43054,0.260118 1.95074,0.780292 0.52947,0.520215 0.79422,1.165814 0.79422,1.936798 0,0.771022 -0.26939,1.42591 -0.80816,1.964666 -0.52949,0.53879 -1.17509,0.808176 -1.9368,0.80816 -0.74314,1.6e-5 -1.38409,-0.274015 -1.92286,-0.822094 -0.53878,-0.548045 -0.80816,-1.198289 -0.80816,-1.950732 m 0.25081,18.462284 0,-14.073137 4.97436,0 0,14.073137 -4.97436,0"
     style="font-weight:bold"
     id="path2921" /><path
     d="m 151.19049,38.478355 0,-14.073137 4.54242,0 0,2.856429 c 0.65953,-1.142559 1.42124,-1.978586 2.28514,-2.508084 0.86389,-0.52947 1.89963,-0.794212 3.10724,-0.794226 0.91033,1.4e-5 1.71849,0.148641 2.42448,0.445881 0.71525,0.287979 1.29583,0.705993 1.74173,1.254042 0.37155,0.473762 0.63629,1.049691 0.79422,1.727791 0.1579,0.678122 0.23686,1.690644 0.23688,3.037568 l 0,8.053736 -4.97437,0 0,-7.538185 c -1e-5,-1.123984 -0.18579,-1.941433 -0.55735,-2.452349 -0.36229,-0.510895 -0.94751,-0.766348 -1.75566,-0.766359 -1.03111,1.1e-5 -1.78353,0.380868 -2.25728,1.142572 -0.47375,0.761723 -0.71063,1.997185 -0.71062,3.706391 l 0,5.90793 -4.87683,0"
     style="font-weight:bold"
     id="path2923" /><path
     d="m 180.56294,31.455721 c -1e-5,-1.096118 -0.29262,-1.960013 -0.87783,-2.591687 -0.57594,-0.631655 -1.36552,-0.947488 -2.36874,-0.947498 -1.00325,10e-6 -1.79283,0.315843 -2.36875,0.947498 -0.57594,0.631674 -0.8639,1.495569 -0.8639,2.591687 0,1.10542 0.28332,1.97396 0.84997,2.60562 0.57592,0.62238 1.37014,0.933568 2.38268,0.933565 1.00322,3e-6 1.7928,-0.315829 2.36874,-0.947499 0.58521,-0.63166 0.87782,-1.495555 0.87783,-2.591686 m 4.40308,-14.574754 0,21.597388 -4.57028,0 0,-2.285143 c -0.63168,0.9475 -1.3423,1.658123 -2.13188,2.131872 -0.78959,0.464459 -1.66742,0.696689 -2.63348,0.69669 -1.97861,-10e-7 -3.55313,-0.682756 -4.72356,-2.048269 -1.17044,-1.365509 -1.75566,-3.204769 -1.75566,-5.517784 0,-2.238688 0.58057,-4.045436 1.74172,-5.420248 1.17044,-1.384077 2.69387,-2.076122 4.57029,-2.076136 1.18901,1.4e-5 2.15509,0.213666 2.89823,0.640954 0.75241,0.427317 1.42124,1.142585 2.00647,2.145805 -0.0558,-0.334399 -0.0976,-0.710611 -0.12541,-1.128637 -0.0279,-0.42729 -0.0418,-0.887105 -0.0418,-1.379446 l 0,-7.357046 4.76536,0"
     style="font-weight:bold"
     id="path2925" /><path
     d="m 198.63508,31.483588 c -10e-6,-1.049671 -0.26475,-1.876409 -0.79422,-2.480216 -0.5295,-0.603788 -1.24477,-0.905687 -2.14581,-0.905697 -0.91035,10e-6 -1.63026,0.301909 -2.15974,0.905697 -0.5202,0.603807 -0.7803,1.430545 -0.78029,2.480216 -1e-5,1.049686 0.26009,1.876424 0.78029,2.480216 0.52019,0.594513 1.2401,0.891767 2.15974,0.891764 0.91033,3e-6 1.6256,-0.297251 2.14581,-0.891764 0.52947,-0.603792 0.79421,-1.43053 0.79422,-2.480216 m 4.93257,0 c -2e-5,1.012529 -0.19974,1.97396 -0.59916,2.884297 -0.39016,0.910344 -0.96144,1.727793 -1.71385,2.452348 -0.76173,0.724559 -1.61634,1.272621 -2.56382,1.644189 -0.93822,0.371567 -1.93681,0.557351 -2.99577,0.557352 -1.07755,-10e-7 -2.09008,-0.185785 -3.03757,-0.557352 -0.93821,-0.371568 -1.77888,-0.91963 -2.52201,-1.644189 -0.74314,-0.705976 -1.30978,-1.514136 -1.69993,-2.424481 -0.39015,-0.919626 -0.58522,-1.890346 -0.58522,-2.912164 0,-1.031093 0.19043,-2.001813 0.57129,-2.912164 0.39014,-0.910331 0.96143,-1.727779 1.71386,-2.452349 0.73384,-0.715255 1.56987,-1.254028 2.50808,-1.61632 0.94749,-0.362265 1.96466,-0.543404 3.0515,-0.543418 1.08683,1.4e-5 2.09935,0.181153 3.03757,0.543418 0.9382,0.362292 1.77887,0.901065 2.52202,1.61632 0.7617,0.733859 1.33763,1.555952 1.72779,2.466283 0.39013,0.91035 0.5852,1.876426 0.58522,2.89823"
     style="font-weight:bold"
     id="path2927" /><path
     d="m 217.55718,24.405218 2.07614,6.214475 0.0418,0.11147 c 0.30653,0.873192 0.5016,1.569881 0.58522,2.09007 0.0557,-0.297249 0.12539,-0.608436 0.209,-0.933565 0.0929,-0.325115 0.22293,-0.743128 0.39015,-1.254042 l 2.11794,-6.228408 5.14157,0 -5.90793,14.073137 -3.51132,0 -2.09007,-6.367746 c -0.11148,-0.362272 -0.21366,-0.72455 -0.30654,-1.086836 -0.0836,-0.37156 -0.16257,-0.738483 -0.23688,-1.10077 -0.10219,0.55736 -0.28333,1.258694 -0.54341,2.104003 l -0.0279,0.09754 -2.07614,6.353812 -3.51132,0 -5.88006,-14.073137 5.11371,0 2.104,6.228408 c 0.15791,0.455179 0.28331,0.854614 0.37621,1.198307 0.0929,0.334418 0.1672,0.664184 0.22294,0.9893 0.0836,-0.464454 0.26474,-1.110053 0.54342,-1.936798 0.0371,-0.111463 0.065,-0.195066 0.0836,-0.250809 l 2.09007,-6.228408 2.99577,0"
     style="font-weight:bold"
     id="path2929" /><path
     d="m 228.02146,37.307916 1.0311,-3.789993 c 0.72456,0.63167 1.51879,1.119352 2.38268,1.463049 0.87318,0.334414 1.75101,0.50162 2.63349,0.501617 0.62237,3e-6 1.09612,-0.09753 1.42125,-0.29261 0.32511,-0.204359 0.48767,-0.496969 0.48768,-0.87783 -10e-6,-0.622371 -0.65489,-1.086831 -1.96466,-1.393379 -0.42731,-0.102176 -0.77101,-0.190423 -1.0311,-0.264743 -1.48628,-0.408718 -2.56847,-0.942847 -3.24658,-1.602387 -0.66882,-0.668814 -1.00323,-1.532709 -1.00323,-2.591686 0,-1.365501 0.5109,-2.456981 1.53272,-3.274443 1.03109,-0.817436 2.42447,-1.22616 4.18013,-1.226174 0.90105,1.4e-5 1.81603,0.10684 2.74496,0.320477 0.9382,0.204376 1.89499,0.524853 2.87037,0.961432 l -1.03111,3.413781 c -0.65954,-0.445871 -1.32836,-0.784927 -2.00646,-1.017167 -0.67812,-0.232219 -1.35623,-0.348334 -2.03434,-0.348345 -0.56665,1.1e-5 -0.99395,0.08826 -1.28191,0.264742 -0.28797,0.176505 -0.43195,0.431958 -0.43194,0.766359 -1e-5,0.501626 0.65023,0.924284 1.95073,1.267975 0.29724,0.08361 0.52018,0.143992 0.66882,0.18114 1.71849,0.492336 2.91215,1.07291 3.58099,1.741725 0.6781,0.659539 1.01715,1.555946 1.01716,2.689223 -1e-5,1.439829 -0.55272,2.605622 -1.65812,3.497384 -1.10542,0.882473 -2.56847,1.32371 -4.38915,1.323711 -1.23546,-10e-7 -2.38268,-0.143983 -3.44164,-0.431948 -1.05897,-0.278676 -2.05292,-0.705979 -2.98184,-1.28191"
     style="font-weight:bold"
     id="path2931" /><path
     d="m 244.04533,38.478355 7.66359,-15.633722 -8.61109,0 0,-4.570286 15.57799,0 0,0.975365 -8.87583,19.228643 -5.75466,0"
     style="font-weight:bold"
     id="path2933" /><path
     d="m 259.67906,37.307916 1.0311,-3.789993 c 0.72455,0.63167 1.51878,1.119352 2.38268,1.463049 0.87318,0.334414 1.75101,0.50162 2.63348,0.501617 0.62237,3e-6 1.09612,-0.09753 1.42125,-0.29261 0.32512,-0.204359 0.48768,-0.496969 0.48769,-0.87783 -1e-5,-0.622371 -0.6549,-1.086831 -1.96467,-1.393379 -0.42731,-0.102176 -0.77101,-0.190423 -1.0311,-0.264743 -1.48628,-0.408718 -2.56847,-0.942847 -3.24658,-1.602387 -0.66882,-0.668814 -1.00323,-1.532709 -1.00323,-2.591686 0,-1.365501 0.5109,-2.456981 1.53272,-3.274443 1.0311,-0.817436 2.42447,-1.22616 4.18014,-1.226174 0.90104,1.4e-5 1.81603,0.10684 2.74496,0.320477 0.93819,0.204376 1.89498,0.524853 2.87036,0.961432 l -1.0311,3.413781 c -0.65955,-0.445871 -1.32837,-0.784927 -2.00647,-1.017167 -0.67812,-0.232219 -1.35623,-0.348334 -2.03433,-0.348345 -0.56665,1.1e-5 -0.99396,0.08826 -1.28191,0.264742 -0.28797,0.176505 -0.43196,0.431958 -0.43195,0.766359 -10e-6,0.501626 0.65024,0.924284 1.95073,1.267975 0.29725,0.08361 0.52019,0.143992 0.66882,0.18114 1.71849,0.492336 2.91216,1.07291 3.58099,1.741725 0.6781,0.659539 1.01715,1.555946 1.01717,2.689223 -2e-5,1.439829 -0.55272,2.605622 -1.65813,3.497384 -1.10542,0.882473 -2.56847,1.32371 -4.38914,1.323711 -1.23547,-10e-7 -2.38269,-0.143983 -3.44165,-0.431948 -1.05897,-0.278676 -2.05292,-0.705979 -2.98183,-1.28191"
     style="font-weight:bold"
     id="path2935" /><path
     d="m 274.69969,20.016071 c 0,-0.752406 0.26474,-1.39336 0.79423,-1.922864 0.53877,-0.529463 1.18437,-0.794205 1.93679,-0.794226 0.78029,2.1e-5 1.43054,0.260118 1.95074,0.780292 0.52947,0.520215 0.79422,1.165814 0.79422,1.936798 0,0.771022 -0.26939,1.42591 -0.80816,1.964666 -0.52949,0.53879 -1.17509,0.808176 -1.9368,0.80816 -0.74314,1.6e-5 -1.38409,-0.274015 -1.92286,-0.822094 -0.53878,-0.548045 -0.80816,-1.198289 -0.80816,-1.950732 m 0.25081,18.462284 0,-14.073137 4.97436,0 0,14.073137 -4.97436,0"
     style="font-weight:bold"
     id="path2937" /><path
     d="m 283.72879,38.478355 0,-14.073137 4.54242,0 0,2.856429 c 0.65953,-1.142559 1.42124,-1.978586 2.28514,-2.508084 0.86389,-0.52947 1.89964,-0.794212 3.10724,-0.794226 0.91033,1.4e-5 1.71849,0.148641 2.42448,0.445881 0.71526,0.287979 1.29583,0.705993 1.74173,1.254042 0.37155,0.473762 0.63629,1.049691 0.79422,1.727791 0.1579,0.678122 0.23686,1.690644 0.23688,3.037568 l 0,8.053736 -4.97437,0 0,-7.538185 c -10e-6,-1.123984 -0.18579,-1.941433 -0.55735,-2.452349 -0.36229,-0.510895 -0.94751,-0.766348 -1.75566,-0.766359 -1.03111,1.1e-5 -1.78353,0.380868 -2.25727,1.142572 -0.47376,0.761723 -0.71063,1.997185 -0.71063,3.706391 l 0,5.90793 -4.87683,0"
     style="font-weight:bold"
     id="path2939" /><path
     d="m 301.03457,37.307916 1.0311,-3.789993 c 0.72456,0.63167 1.51878,1.119352 2.38268,1.463049 0.87318,0.334414 1.75101,0.50162 2.63349,0.501617 0.62237,3e-6 1.09612,-0.09753 1.42125,-0.29261 0.32511,-0.204359 0.48767,-0.496969 0.48768,-0.87783 -10e-6,-0.622371 -0.6549,-1.086831 -1.96467,-1.393379 -0.4273,-0.102176 -0.771,-0.190423 -1.0311,-0.264743 -1.48627,-0.408718 -2.56846,-0.942847 -3.24657,-1.602387 -0.66883,-0.668814 -1.00324,-1.532709 -1.00324,-2.591686 0,-1.365501 0.51091,-2.456981 1.53272,-3.274443 1.0311,-0.817436 2.42448,-1.22616 4.18014,-1.226174 0.90105,1.4e-5 1.81603,0.10684 2.74496,0.320477 0.9382,0.204376 1.89499,0.524853 2.87036,0.961432 l -1.0311,3.413781 c -0.65954,-0.445871 -1.32836,-0.784927 -2.00647,-1.017167 -0.67812,-0.232219 -1.35623,-0.348334 -2.03433,-0.348345 -0.56665,1.1e-5 -0.99395,0.08826 -1.28191,0.264742 -0.28797,0.176505 -0.43195,0.431958 -0.43195,0.766359 0,0.501626 0.65024,0.924284 1.95073,1.267975 0.29725,0.08361 0.52019,0.143992 0.66883,0.18114 1.71849,0.492336 2.91215,1.07291 3.58098,1.741725 0.6781,0.659539 1.01716,1.555946 1.01717,2.689223 -10e-6,1.439829 -0.55272,2.605622 -1.65812,3.497384 -1.10543,0.882473 -2.56847,1.32371 -4.38915,1.323711 -1.23547,-10e-7 -2.38268,-0.143983 -3.44165,-0.431948 -1.05897,-0.278676 -2.05291,-0.705979 -2.98183,-1.28191"
     style="font-weight:bold"
     id="path2941" /><path
     d="m 315.99947,36.193212 c 0,-0.789579 0.26474,-1.453756 0.79423,-1.992533 0.53877,-0.538769 1.20294,-0.808155 1.99253,-0.80816 0.80815,5e-6 1.48162,0.269391 2.0204,0.80816 0.53877,0.538777 0.80815,1.202954 0.80816,1.992533 -1e-5,0.789584 -0.27404,1.458405 -0.82209,2.006467 -0.53878,0.548063 -1.20761,0.822094 -2.00647,0.822095 -0.7803,-10e-7 -1.43983,-0.274032 -1.9786,-0.822095 -0.53878,-0.548062 -0.80816,-1.216883 -0.80816,-2.006467"
     style="font-weight:bold"
     id="path2943" /><path
     d="m 335.07484,31.483588 c -10e-6,-1.049671 -0.26475,-1.876409 -0.79423,-2.480216 -0.52949,-0.603788 -1.24476,-0.905687 -2.1458,-0.905697 -0.91035,10e-6 -1.63026,0.301909 -2.15974,0.905697 -0.5202,0.603807 -0.7803,1.430545 -0.78029,2.480216 -10e-6,1.049686 0.26009,1.876424 0.78029,2.480216 0.52019,0.594513 1.2401,0.891767 2.15974,0.891764 0.91033,3e-6 1.6256,-0.297251 2.1458,-0.891764 0.52948,-0.603792 0.79422,-1.43053 0.79423,-2.480216 m 4.93257,0 c -2e-5,1.012529 -0.19974,1.97396 -0.59916,2.884297 -0.39016,0.910344 -0.96144,1.727793 -1.71385,2.452348 -0.76173,0.724559 -1.61634,1.272621 -2.56382,1.644189 -0.93822,0.371567 -1.93681,0.557351 -2.99577,0.557352 -1.07756,-10e-7 -2.09008,-0.185785 -3.03757,-0.557352 -0.93821,-0.371568 -1.77888,-0.91963 -2.52202,-1.644189 -0.74313,-0.705976 -1.30978,-1.514136 -1.69992,-2.424481 -0.39015,-0.919626 -0.58522,-1.890346 -0.58522,-2.912164 0,-1.031093 0.19043,-2.001813 0.57129,-2.912164 0.39014,-0.910331 0.96143,-1.727779 1.71385,-2.452349 0.73385,-0.715255 1.56987,-1.254028 2.50809,-1.61632 0.94749,-0.362265 1.96466,-0.543404 3.0515,-0.543418 1.08683,1.4e-5 2.09935,0.181153 3.03757,0.543418 0.93819,0.362292 1.77887,0.901065 2.52202,1.61632 0.76169,0.733859 1.33762,1.555952 1.72779,2.466283 0.39013,0.91035 0.5852,1.876426 0.58522,2.89823"
     style="font-weight:bold"
     id="path2945" /><path
     d="m 342.8917,38.478355 0,-14.073137 4.68176,0 0,3.316244 c 0.48303,-1.207584 1.14256,-2.11328 1.9786,-2.71709 0.83602,-0.603784 1.84854,-0.905683 3.03757,-0.905697 0.19506,1.4e-5 0.39013,0.0093 0.58521,0.02787 0.20435,0.0093 0.40872,0.02788 0.61309,0.05573 l -0.47375,4.514551 c -0.29726,-0.102171 -0.58987,-0.176484 -0.87783,-0.22294 -0.28797,-0.04644 -0.56665,-0.06966 -0.83602,-0.06967 -1.20761,10e-6 -2.14117,0.371577 -2.8007,1.114704 -0.65025,0.733854 -0.97537,1.778888 -0.97536,3.135104 l 0,5.824328 -4.93257,0"
     style="font-weight:bold"
     id="path2947" /><path
     d="m 366.35623,31.399985 c -2e-5,-1.086828 -0.29263,-1.936789 -0.87783,-2.549885 -0.57595,-0.622366 -1.37482,-0.933554 -2.39662,-0.933564 -1.03111,10e-6 -1.84391,0.311198 -2.43841,0.933564 -0.58523,0.613096 -0.87784,1.463057 -0.87783,2.549885 -10e-6,1.077554 0.2926,1.927514 0.87783,2.549886 0.5945,0.62238 1.4073,0.933568 2.43841,0.933564 1.01251,4e-6 1.81139,-0.311184 2.39662,-0.933564 0.5852,-0.622372 0.87781,-1.472332 0.87783,-2.549886 m 4.36127,-6.994767 0,14.04527 c -10e-6,2.127224 -0.65026,3.697098 -1.95073,4.709624 -1.29121,1.021806 -3.29303,1.532712 -6.00546,1.532718 -2.19226,-6e-6 -3.91076,-0.408731 -5.15551,-1.226174 -1.24476,-0.808165 -1.90429,-1.95538 -1.9786,-3.441649 l 5.14157,0 c 0.0743,0.436591 0.31583,0.775646 0.72456,1.017167 0.41801,0.250806 0.96607,0.37621 1.64419,0.376213 1.06825,-3e-6 1.80209,-0.2601 2.20154,-0.780293 0.40871,-0.510907 0.61307,-1.593098 0.61309,-3.246575 l 0,-1.281909 c -0.52021,0.882475 -1.18439,1.542007 -1.99254,1.978599 -0.80817,0.427303 -1.7696,0.640955 -2.88429,0.640955 -1.85785,0 -3.34876,-0.668822 -4.47275,-2.006467 -1.124,-1.346931 -1.68599,-3.139745 -1.68599,-5.378447 0,-2.257266 0.58521,-4.05008 1.75565,-5.378446 1.17973,-1.337631 2.76354,-2.006453 4.75143,-2.006467 1.04967,1.4e-5 1.95537,0.21831 2.71709,0.654888 0.77099,0.436606 1.43517,1.119361 1.99253,2.048269 l 0,-2.257276 4.58422,0"
     style="font-weight:bold"
     id="path2949" /></g>
<g
   transform="scale(1,-1)"
   style="font-size:22.8496418px;font-style:normal;font-variant:normal;font-weight:bold;font-stretch:normal;line-height:125%;fill:#000000;fill-opacity:1;stroke:none;font-family:Futura MdCn BT;-inkscape-font-specification:Futura MdCn BT Bold"
   id="text8852"><path
     d="m 116.39194,-264.32004 0,-16.28929 4.55208,0 0,16.28929 -4.55208,0"
     style="font-weight:normal;font-stretch:condensed;text-align:start;line-height:125%;writing-mode:lr-tb;text-anchor:start;font-family:Futura XBlkCn BT;-inkscape-font-specification:Futura XBlkCn BT Condensed"
     id="path2876" /><path
     d="m 122.45022,-269.73121 c 0.64711,0.51323 1.24215,0.90373 1.78513,1.17149 0.55041,0.26778 1.03016,0.40166 1.43926,0.40166 0.36446,0 0.66198,-0.10785 0.89256,-0.32356 0.23801,-0.2157 0.35702,-0.48718 0.35703,-0.81446 -1e-5,-0.38678 -0.39422,-0.95207 -1.18265,-1.69587 l -0.0446,-0.0446 c -1.36116,-1.25702 -2.23513,-2.2314 -2.62191,-2.92315 -0.38678,-0.69173 -0.58016,-1.43925 -0.58016,-2.24257 0,-1.37602 0.46487,-2.5066 1.39463,-3.39174 0.93719,-0.89255 2.13843,-1.33883 3.60373,-1.33885 0.57272,2e-5 1.16404,0.0781 1.77397,0.2343 0.61735,0.15622 1.2533,0.39051 1.90785,0.70289 l 0,4.22853 c -0.54298,-0.4314 -1.05249,-0.75495 -1.52851,-0.97067 -0.47605,-0.22312 -0.91117,-0.3347 -1.30538,-0.33471 -0.34215,10e-6 -0.61736,0.093 -0.82562,0.27893 -0.20827,0.17852 -0.3124,0.41282 -0.3124,0.70289 0,0.41654 0.39049,0.92977 1.17149,1.53968 l 0.13389,0.11157 c 1.35371,1.08596 2.2314,1.98224 2.63306,2.68885 0.40165,0.69918 0.60247,1.5248 0.60248,2.47686 -1e-5,1.59174 -0.50207,2.87108 -1.5062,3.83803 -1.00414,0.9595 -2.33555,1.43926 -3.99422,1.43926 -0.63968,0 -1.26819,-0.10042 -1.88555,-0.30124 -0.61735,-0.20083 -1.25331,-0.51323 -1.90785,-0.9372 l 0,-4.49629"
     style="font-weight:normal;font-stretch:condensed;text-align:start;line-height:125%;writing-mode:lr-tb;text-anchor:start;font-family:Futura XBlkCn BT;-inkscape-font-specification:Futura XBlkCn BT Condensed"
     id="path2878" /><path
     d="m 145.00978,-264.32004 -4.56324,0 0,-12.16118 -2.7,0 0,-4.12811 9.96324,0 0,4.12811 -2.7,0 0,12.16118"
     style="font-weight:normal;font-stretch:condensed;text-align:start;line-height:125%;writing-mode:lr-tb;text-anchor:start;font-family:Futura XBlkCn BT;-inkscape-font-specification:Futura XBlkCn BT Condensed"
     id="path2880" /><path
     d="m 153.25484,-277.22875 0,3.88266 c 0.61735,-0.0149 1.06735,-0.17479 1.35,-0.47976 0.28264,-0.31238 0.42396,-0.79957 0.42397,-1.46157 -1e-5,-0.6471 -0.13389,-1.13057 -0.40166,-1.45042 -0.26777,-0.32726 -0.66571,-0.49089 -1.1938,-0.49091 l -0.17851,0 m -4.55208,12.90871 0,-16.28929 5.23266,0 c 1.77024,10e-6 3.16487,0.45001 4.18389,1.35 1.019,0.90002 1.52851,2.12357 1.52852,3.67067 -1e-5,0.95208 -0.23059,1.76654 -0.69174,2.44339 -0.45373,0.66944 -1.13803,1.20497 -2.0529,1.60662 l 3.22439,7.21861 -4.81985,0 -2.05289,-6.30373 0,6.30373 -4.55208,0"
     style="font-weight:normal;font-stretch:condensed;text-align:start;line-height:125%;writing-mode:lr-tb;text-anchor:start;font-family:Futura XBlkCn BT;-inkscape-font-specification:Futura XBlkCn BT Condensed"
     id="path2882" /><path
     d="m 159.96023,-264.32004 3.57025,-16.28929 5.12109,0 3.5591,16.28929 -4.42935,0 -0.34587,-2.39876 -2.68885,0 -0.34587,2.39876 -4.4405,0 m 5.23265,-5.69009 1.80745,0 -0.91488,-6.03597 -0.89257,6.03597"
     style="font-weight:normal;font-stretch:condensed;text-align:start;line-height:125%;writing-mode:lr-tb;text-anchor:start;font-family:Futura XBlkCn BT;-inkscape-font-specification:Futura XBlkCn BT Condensed"
     id="path2884" /><path
     d="m 172.38918,-269.73121 c 0.64711,0.51323 1.24215,0.90373 1.78513,1.17149 0.55041,0.26778 1.03016,0.40166 1.43926,0.40166 0.36446,0 0.66198,-0.10785 0.89256,-0.32356 0.23802,-0.2157 0.35702,-0.48718 0.35703,-0.81446 -1e-5,-0.38678 -0.39422,-0.95207 -1.18265,-1.69587 l -0.0446,-0.0446 c -1.36116,-1.25702 -2.23513,-2.2314 -2.6219,-2.92315 -0.38678,-0.69173 -0.58017,-1.43925 -0.58017,-2.24257 0,-1.37602 0.46488,-2.5066 1.39463,-3.39174 0.93719,-0.89255 2.13843,-1.33883 3.60373,-1.33885 0.57272,2e-5 1.16404,0.0781 1.77397,0.2343 0.61735,0.15622 1.2533,0.39051 1.90786,0.70289 l 0,4.22853 c -0.54299,-0.4314 -1.05249,-0.75495 -1.52852,-0.97067 -0.47604,-0.22312 -0.91117,-0.3347 -1.30538,-0.33471 -0.34215,10e-6 -0.61736,0.093 -0.82562,0.27893 -0.20827,0.17852 -0.3124,0.41282 -0.3124,0.70289 0,0.41654 0.3905,0.92977 1.1715,1.53968 l 0.13388,0.11157 c 1.35371,1.08596 2.2314,1.98224 2.63306,2.68885 0.40165,0.69918 0.60248,1.5248 0.60248,2.47686 0,1.59174 -0.50207,2.87108 -1.5062,3.83803 -1.00414,0.9595 -2.33555,1.43926 -3.99422,1.43926 -0.63968,0 -1.26819,-0.10042 -1.88554,-0.30124 -0.61736,-0.20083 -1.25331,-0.51323 -1.90786,-0.9372 l 0,-4.49629"
     style="font-weight:normal;font-stretch:condensed;text-align:start;line-height:125%;writing-mode:lr-tb;text-anchor:start;font-family:Futura XBlkCn BT;-inkscape-font-specification:Futura XBlkCn BT Condensed"
     id="path2886" /><path
     d="m 182.91028,-264.32004 0,-16.28929 4.55208,0 0,5.84629 1.94133,0 0,-5.84629 4.54092,0 0,16.28929 -4.54092,0 0,-6.37067 -1.94133,0 0,6.37067 -4.55208,0"
     style="font-weight:normal;font-stretch:condensed;text-align:start;line-height:125%;writing-mode:lr-tb;text-anchor:start;font-family:Futura XBlkCn BT;-inkscape-font-specification:Futura XBlkCn BT Condensed"
     id="path2888" /><path
     d="m 195.96403,-264.32004 0,-16.28929 4.55208,0 0,16.28929 -4.55208,0"
     style="font-weight:normal;font-stretch:condensed;text-align:start;line-height:125%;writing-mode:lr-tb;text-anchor:start;font-family:Futura XBlkCn BT;-inkscape-font-specification:Futura XBlkCn BT Condensed"
     id="path2890" /><path
     d="m 202.59132,-264.32004 0,-16.28929 4.52976,0 2.51034,8.56861 0,-8.56861 4.12811,0 0,16.28929 -4.47398,0 -2.53265,-8.1558 0,8.1558 -4.16158,0"
     style="font-weight:normal;font-stretch:condensed;text-align:start;line-height:125%;writing-mode:lr-tb;text-anchor:start;font-family:Futura XBlkCn BT;-inkscape-font-specification:Futura XBlkCn BT Condensed"
     id="path2892" /><path
     d="m 226.93601,-273.82585 0,0.067 c 0.0297,0.6248 0.0446,1.08968 0.0446,1.39463 -1e-5,2.84133 -0.46861,4.94629 -1.40579,6.31489 -0.9372,1.3686 -2.37274,2.0529 -4.30662,2.0529 -1.94133,0 -3.44381,-0.73637 -4.50745,-2.2091 -1.06364,-1.48017 -1.59546,-3.56281 -1.59546,-6.24795 0,-2.72231 0.53554,-4.81611 1.60662,-6.28142 1.07107,-1.46528 2.59958,-2.19792 4.58554,-2.19794 1.41322,2e-5 2.55496,0.32357 3.42522,0.97067 0.87768,0.63968 1.53966,1.6401 1.98595,3.00124 l -3.94959,1.35001 c -0.17852,-0.56528 -0.38679,-0.97066 -0.6248,-1.21612 -0.23802,-0.25288 -0.53926,-0.37933 -0.90372,-0.37934 -0.56529,1e-5 -0.96323,0.32356 -1.1938,0.97066 -0.22315,0.63968 -0.33472,1.82977 -0.33471,3.57026 -1e-5,1.73307 0.11156,2.91943 0.33471,3.5591 0.22313,0.63223 0.61363,0.94835 1.17149,0.94835 0.41652,0 0.72892,-0.17479 0.93719,-0.52439 0.20826,-0.35702 0.31239,-0.89255 0.3124,-1.60661 l 0,-0.22314 -1.35001,0 0,-3.31365 5.7682,0"
     style="font-weight:normal;font-stretch:condensed;text-align:start;line-height:125%;writing-mode:lr-tb;text-anchor:start;font-family:Futura XBlkCn BT;-inkscape-font-specification:Futura XBlkCn BT Condensed"
     id="path2894" /><path
     d="m 232.78231,-280.60933 4.79753,0 1.22727,4.99836 1.23844,-4.99836 4.79753,0 -3.77108,9.75126 0,6.53803 -4.52977,0 0,-6.53803 -3.75992,-9.75126"
     style="font-weight:normal;font-stretch:condensed;text-align:start;line-height:125%;writing-mode:lr-tb;text-anchor:start;font-family:Futura XBlkCn BT;-inkscape-font-specification:Futura XBlkCn BT Condensed"
     id="path2896" /><path
     d="m 248.81498,-272.5651 c 0,1.69588 0.11157,2.85621 0.33471,3.481 0.22314,0.61736 0.61364,0.92604 1.17149,0.92604 0.55041,0 0.93347,-0.30496 1.14918,-0.91488 0.22313,-0.61735 0.3347,-1.7814 0.33471,-3.49216 -1e-5,-1.71074 -0.11158,-2.87479 -0.33471,-3.49216 -0.21571,-0.61734 -0.59877,-0.92602 -1.14918,-0.92603 -0.55785,1e-5 -0.94835,0.31241 -1.17149,0.93719 -0.22314,0.62481 -0.33471,1.78514 -0.33471,3.481 m -4.5967,0.11157 c 0,-2.69256 0.53182,-4.77892 1.59545,-6.2591 1.07108,-1.48016 2.57356,-2.22024 4.50745,-2.22026 1.92645,2e-5 3.41777,0.7401 4.47398,2.22026 1.06363,1.47274 1.59545,3.55911 1.59546,6.2591 -1e-5,2.69258 -0.52811,4.77522 -1.5843,6.24795 -1.05621,1.47273 -2.55126,2.2091 -4.48514,2.2091 -1.94133,0 -3.44381,-0.73637 -4.50745,-2.2091 -1.06363,-1.48017 -1.59545,-3.56281 -1.59545,-6.24795"
     style="font-weight:normal;font-stretch:condensed;text-align:start;line-height:125%;writing-mode:lr-tb;text-anchor:start;font-family:Futura XBlkCn BT;-inkscape-font-specification:Futura XBlkCn BT Condensed"
     id="path2898" /><path
     d="m 257.6179,-270.14402 0,-10.46531 4.54092,0 0,10.90044 c 0,0.47604 0.0855,0.82934 0.25662,1.05992 0.17107,0.22314 0.43512,0.33471 0.79215,0.33471 0.36445,0 0.63222,-0.11157 0.8033,-0.33471 0.17107,-0.23058 0.25661,-0.58388 0.25662,-1.05992 l 0,-10.90044 4.56323,0 0,10.46531 c -10e-6,2.12728 -0.45373,3.68555 -1.36116,4.67481 -0.90001,0.98182 -2.32067,1.47273 -4.26199,1.47273 -1.9339,0 -3.35084,-0.49091 -4.25084,-1.47273 -0.89257,-0.98926 -1.33885,-2.54753 -1.33885,-4.67481"
     style="font-weight:normal;font-stretch:condensed;text-align:start;line-height:125%;writing-mode:lr-tb;text-anchor:start;font-family:Futura XBlkCn BT;-inkscape-font-specification:Futura XBlkCn BT Condensed"
     id="path2900" /><path
     d="m 275.13447,-277.22875 0,3.88266 c 0.61735,-0.0149 1.06735,-0.17479 1.35001,-0.47976 0.28263,-0.31238 0.42396,-0.79957 0.42396,-1.46157 0,-0.6471 -0.13389,-1.13057 -0.40165,-1.45042 -0.26778,-0.32726 -0.66571,-0.49089 -1.19381,-0.49091 l -0.17851,0 m -4.55208,12.90871 0,-16.28929 5.23266,0 c 1.77025,10e-6 3.16488,0.45001 4.1839,1.35 1.019,0.90002 1.5285,2.12357 1.52851,3.67067 -1e-5,0.95208 -0.23059,1.76654 -0.69173,2.44339 -0.45374,0.66944 -1.13803,1.20497 -2.0529,1.60662 l 3.22439,7.21861 -4.81985,0 -2.0529,-6.30373 0,6.30373 -4.55208,0"
     style="font-weight:normal;font-stretch:condensed;text-align:start;line-height:125%;writing-mode:lr-tb;text-anchor:start;font-family:Futura XBlkCn BT;-inkscape-font-specification:Futura XBlkCn BT Condensed"
     id="path2902" /><path
     d="m 288.65682,-264.32004 0,-16.28929 8.06654,0 0,3.94959 -3.52562,0 0,2.35414 3.0905,0 0,3.83803 -3.0905,0 0,6.14753 -4.54092,0"
     style="font-weight:normal;font-stretch:condensed;text-align:start;line-height:125%;writing-mode:lr-tb;text-anchor:start;font-family:Futura XBlkCn BT;-inkscape-font-specification:Futura XBlkCn BT Condensed"
     id="path2904" /><path
     d="m 302.49156,-277.22875 0,3.88266 c 0.61735,-0.0149 1.06735,-0.17479 1.35,-0.47976 0.28264,-0.31238 0.42396,-0.79957 0.42397,-1.46157 -1e-5,-0.6471 -0.13389,-1.13057 -0.40165,-1.45042 -0.26778,-0.32726 -0.66571,-0.49089 -1.19381,-0.49091 l -0.17851,0 m -4.55208,12.90871 0,-16.28929 5.23266,0 c 1.77024,10e-6 3.16487,0.45001 4.18389,1.35 1.019,0.90002 1.52851,2.12357 1.52852,3.67067 -10e-6,0.95208 -0.23059,1.76654 -0.69174,2.44339 -0.45373,0.66944 -1.13803,1.20497 -2.0529,1.60662 l 3.22439,7.21861 -4.81984,0 -2.0529,-6.30373 0,6.30373 -4.55208,0"
     style="font-weight:normal;font-stretch:condensed;text-align:start;line-height:125%;writing-mode:lr-tb;text-anchor:start;font-family:Futura XBlkCn BT;-inkscape-font-specification:Futura XBlkCn BT Condensed"
     id="path2906" /><path
     d="m 310.36845,-264.32004 0,-16.28929 8.08886,0 0,3.94959 -3.51447,0 0,2.07521 3.1686,0 0,3.81572 -3.1686,0 0,2.24256 3.51447,0 0,4.20621 -8.08886,0"
     style="font-weight:normal;font-stretch:condensed;text-align:start;line-height:125%;writing-mode:lr-tb;text-anchor:start;font-family:Futura XBlkCn BT;-inkscape-font-specification:Futura XBlkCn BT Condensed"
     id="path2908" /><path
     d="m 320.00814,-264.32004 0,-16.28929 8.08886,0 0,3.94959 -3.51447,0 0,2.07521 3.1686,0 0,3.81572 -3.1686,0 0,2.24256 3.51447,0 0,4.20621 -8.08886,0"
     style="font-weight:normal;font-stretch:condensed;text-align:start;line-height:125%;writing-mode:lr-tb;text-anchor:start;font-family:Futura XBlkCn BT;-inkscape-font-specification:Futura XBlkCn BT Condensed"
     id="path2910" /><path
     d="m 334.24452,-276.70437 0,8.26738 0.20083,0 c 0.69173,0 1.17892,-0.29752 1.46157,-0.89256 0.29008,-0.59504 0.43512,-1.66612 0.43513,-3.21323 -10e-6,-1.59173 -0.14505,-2.68141 -0.43513,-3.26902 -0.29009,-0.59503 -0.79215,-0.89255 -1.5062,-0.89257 l -0.1562,0 m -4.55207,-3.90496 3.38058,0 c 1.6438,10e-6 2.89339,0.15249 3.74877,0.45744 0.86281,0.29753 1.63264,0.80704 2.30951,1.52851 0.59503,0.65456 1.04504,1.5025 1.35001,2.54381 0.30494,1.04134 0.45742,2.25001 0.45744,3.62604 -2e-5,2.69258 -0.57646,4.72316 -1.72935,6.09175 -1.1529,1.36116 -2.86365,2.04174 -5.13224,2.04174 l -4.38472,0 0,-16.28929"
     style="font-weight:normal;font-stretch:condensed;text-align:start;line-height:125%;writing-mode:lr-tb;text-anchor:start;font-family:Futura XBlkCn BT;-inkscape-font-specification:Futura XBlkCn BT Condensed"
     id="path2912" /><path
     d="m 346.28298,-272.5651 c 0,1.69588 0.11157,2.85621 0.33472,3.481 0.22313,0.61736 0.61363,0.92604 1.17149,0.92604 0.5504,0 0.93346,-0.30496 1.14917,-0.91488 0.22314,-0.61735 0.33471,-1.7814 0.33471,-3.49216 0,-1.71074 -0.11157,-2.87479 -0.33471,-3.49216 -0.21571,-0.61734 -0.59877,-0.92602 -1.14917,-0.92603 -0.55786,1e-5 -0.94836,0.31241 -1.17149,0.93719 -0.22315,0.62481 -0.33472,1.78514 -0.33472,3.481 m -4.5967,0.11157 c 0,-2.69256 0.53182,-4.77892 1.59546,-6.2591 1.07107,-1.48016 2.57355,-2.22024 4.50745,-2.22026 1.92644,2e-5 3.41776,0.7401 4.47397,2.22026 1.06363,1.47274 1.59545,3.55911 1.59546,6.2591 -10e-6,2.69258 -0.52811,4.77522 -1.5843,6.24795 -1.05621,1.47273 -2.55125,2.2091 -4.48513,2.2091 -1.94134,0 -3.44382,-0.73637 -4.50745,-2.2091 -1.06364,-1.48017 -1.59546,-3.56281 -1.59546,-6.24795"
     style="font-weight:normal;font-stretch:condensed;text-align:start;line-height:125%;writing-mode:lr-tb;text-anchor:start;font-family:Futura XBlkCn BT;-inkscape-font-specification:Futura XBlkCn BT Condensed"
     id="path2914" /><path
     d="m 354.65078,-264.32004 1.16033,-16.28929 5.42233,0 1.41695,8.59093 1.41694,-8.59093 5.41117,0 1.16034,16.28929 -4.15043,0 -0.34587,-11.53639 -1.80744,11.53639 -3.38058,0 -1.80745,-11.53639 -0.35702,11.53639 -4.13927,0"
     style="font-weight:normal;font-stretch:condensed;text-align:start;line-height:125%;writing-mode:lr-tb;text-anchor:start;font-family:Futura XBlkCn BT;-inkscape-font-specification:Futura XBlkCn BT Condensed"
     id="path2916" /></g>
<g
   id="layer1"
   transform="matrix(0.3042052,0,0,-0.3034772,110.06375,405.4408)"><g
     id="g107981"
     transform="translate(8.56136,8.85574)"><path
       id="path107101"
       style="font-size:3.49419999px;letter-spacing:0pt;fill:#000000;fill-rule:nonzero;stroke:none"
       d="m 91.577741,238.66957 2.34188,76.7998 36.300549,-76.7998 53.02887,0 -29.9438,135.19846 -37.63864,0 16.72831,-73.78873 -37.638799,73.78873 -26.26359,0 -3.68013,-70.30925 -15.89196,70.30925 -39.6461597,0 30.4455397,-135.19846 51.85793,0" /><path
       id="path107105"
       style="font-size:3.49419999px;letter-spacing:0pt;fill:#000000;fill-rule:nonzero;stroke:none"
       d="m 228.24831,238.66957 -5.35312,21.8807 -34.96224,0 4.8513,-21.8807 35.46406,0" /><path
       id="path107109"
       style="font-size:3.49419999px;letter-spacing:0pt;fill:#000000;fill-rule:nonzero;stroke:none"
       d="m 704.67151,274.46815 18.56845,0 c 2.67656,-11.14104 5.68764,-25.86199 17.23021,-31.41583 10.7062,-3.1783 21.7468,-4.48319 33.624,-2.87721 l -4.684,17.88258 c -4.6839,0.15054 -8.0296,1.07065 -10.037,6.23964 l -2.3419,10.17082 20.4085,0 5.6877,-24.85827 31.9511,0 -5.5203,24.85827 16.7283,0 -4.8512,21.86395 -16.8957,0 -10.3715,49.69993 c -0.8364,2.79368 2.0073,4.36615 4.3494,4.76761 4.0148,0.40146 6.8586,0.80291 11.208,0.40146 -1.6729,7.5612 -3.6802,15.10565 -5.1859,22.2654 -14.3863,-0.40146 -32.2856,4.3829 -41.319,-7.56121 -6.3567,-13.11497 1.1711,-26.63147 2.6766,-39.74644 2.0074,-9.15043 5.0184,-20.69308 6.6914,-29.82675 l -20.576,0 -17.5647,77.75341 -33.62403,-0.21748 17.39751,-77.53593 -18.40115,0 4.85121,-21.86395" /><path
       id="path107113"
       style="font-size:3.49419999px;letter-spacing:0pt;fill:#000000;fill-rule:nonzero;stroke:none"
       d="m 219.71681,274.46815 -22.08142,99.39988 -35.29676,0 22.41595,-99.39988 34.96223,0" /><path
       id="path107123"
       style="font-size:3.49419999px;letter-spacing:0pt;fill:#000000;fill-rule:nonzero;stroke:none"
       d="m 598.94838,303.29119 c 16.89569,-28.68917 41.31907,-34.5106 59.38563,-33.03849 18.40122,1.47204 54.3671,11.7433 39.14433,65.08993 -9.20061,32.5366 -43.99548,42.23903 -63.23312,41.41944 -31.44926,-1.32164 -58.7165,-33.79137 -35.29684,-73.47088 z m 37.30428,48.46199 c 8.19681,2.20816 22.08135,-2.65988 29.10722,-25.59433 7.69507,-25.36017 -5.52034,-31.81736 -10.53885,-32.80433 -5.18574,-1.0539 -17.56473,1.48879 -25.5944,24.10554 -7.69492,22.01449 0.50189,32.53666 7.02603,34.29312" /><path
       id="path107127"
       style="font-size:3.49419999px;letter-spacing:0pt;fill:#000000;fill-rule:nonzero;stroke:none"
       d="m 313.06103,284.40482 c 4.68384,5.9553 7.1931,13.5165 8.69864,21.46256 l 0.16737,4.38275 -36.46785,0 c 0,0 -0.50182,-10.60579 -4.85122,-13.91803 -4.34932,-1.99061 -8.53149,-1.18762 -12.54621,0.80306 -13.38263,8.73222 -19.40494,25.04225 -19.07035,40.95097 0.83642,3.96454 0.66912,10.92363 9.36784,13.58336 8.86609,1.65616 17.23021,-7.02588 20.07406,-12.5964 l 36.13326,0 c -2.34204,9.15036 -15.89197,37.77259 -56.20732,38.10711 -33.79122,0.3346 -41.98811,-21.61296 -43.82818,-37.12014 0,0 -7.19317,-54.90251 52.35975,-67.58259 15.55729,-3.31218 32.7875,-0.33453 46.17021,11.92735" /><path
       id="path107131"
       style="font-size:3.49419999px;letter-spacing:0pt;fill:#000000;fill-rule:nonzero;stroke:none"
       d="m 576.69966,317.81133 c -10.03696,-7.5612 -23.92149,-8.74897 -36.63508,-11.14104 -3.17837,-2.39214 -8.36411,-2.77699 -7.86222,-7.94598 -0.50189,-3.98137 2.67641,-6.75829 6.35668,-7.96273 4.34947,-0.80292 10.20434,-1.97394 13.38271,1.20444 4.85122,1.58923 5.18582,6.75829 5.18582,10.3382 l 34.12574,0 c 0,-8.46463 -0.33452,-10.20433 -2.34188,-15.12248 -5.52034,-9.93659 -15.72467,-13.90121 -25.76163,-15.89189 -19.40494,-1.99069 -42.49008,-2.79368 -56.87644,10.7229 -7.52769,6.37344 -9.53513,14.72095 -9.86973,24.25609 3.84758,22.66686 29.4419,24.65754 47.67575,30.22806 3.17846,1.99068 5.52034,5.16906 5.52034,9.13368 -1.17087,3.57983 -2.67648,6.75829 -6.35668,7.96266 -6.69136,3.17838 -15.05547,1.974 -21.07778,-2.39214 -3.17831,-2.77685 -3.17831,-8.54817 -2.67649,-12.12801 l -64.40413,0 32.28568,-11.72662 c 9.20061,-46.01967 -23.92156,-55.28714 -41.1517,-56.67556 -16.39386,-1.32164 -37.97331,3.3456 -54.36718,25.34341 1.84022,-8.14671 4.34947,-19.4718 5.18582,-23.13525 -11.20798,-0.0669 -23.75419,4.23221 -31.95109,12.31199 l 2.50919,-10.72291 -32.11846,0 -22.08135,99.39988 31.78386,0.23416 8.36419,-35.19647 c 3.17831,-9.51838 7.02588,-18.88622 11.54257,-25.07568 4.85115,-4.75093 14.05176,-9.75269 21.24494,-9.48495 -22.58318,39.39517 4.34947,71.51362 35.63143,72.83511 17.3975,0.73613 47.34123,-7.15974 59.88744,-32.57009 l -0.1673,2.60962 c -0.50182,8.34751 3.84758,15.12241 9.86973,20.29154 19.57217,12.71352 47.00663,12.32881 69.25536,5.95523 13.04811,-4.76753 25.0925,-17.89926 25.7617,-32.202 0.50182,-9.15043 -2.00751,-18.68556 -9.86981,-23.45317 z m -152.72976,34.3433 c -6.52406,-1.7397 -14.72095,-12.27855 -7.02588,-34.27636 8.0296,-22.6335 20.40859,-25.15952 25.76163,-24.10561 4.85121,0.98696 18.06655,7.44416 10.37163,32.78765 -7.02603,22.93459 -20.91049,27.81917 -29.10738,25.59432" /><path
       id="path107135"
       style="font-size:3.49419999px;letter-spacing:0pt;fill:#000000;fill-rule:nonzero;stroke:none"
       d="m 846.36067,274.11688 c 6.8586,0 12.7134,5.43672 12.7134,12.56296 0,7.27687 -5.8548,12.71359 -12.7134,12.71359 -7.026,0 -12.7136,-5.43672 -12.7136,-12.71359 0,-7.12624 5.6876,-12.56296 12.7136,-12.56296 z m 0,23.41974 c 5.8549,0 10.3715,-4.66724 10.3715,-10.85678 0,-6.03891 -4.5166,-10.70615 -10.3715,-10.70615 -5.855,0 -10.5389,4.66724 -10.5389,10.70615 0,6.18954 4.6839,10.85678 10.5389,10.85678 z m -5.0186,-18.18375 5.855,0 c 3.3456,0 5.0185,1.38843 5.0185,4.23221 0,2.65988 -1.6729,3.78071 -3.8475,4.01494 l 4.182,6.50731 -2.342,0 -4.0148,-6.34008 -2.5092,0 0,6.34008 -2.342,0 0,-14.75446 z m 2.342,6.55756 2.3419,0 c 2.1748,0 4.0148,-0.10044 4.0148,-2.42564 0,-1.97393 -1.6727,-2.2751 -3.3456,-2.2751 l -3.0111,0 0,4.70074" /></g></g></g></svg>