<?xml version="1.0" encoding="UTF-8" standalone="no"?>
<svg
   version="1.1"
   viewBox="0.00 0.00 1024.00 1024.00"
   id="svg1044"
   sodipodi:docname="_37b5e660-9714-4c97-ae5f-02b1f41f64f1.svg"
   inkscape:version="1.2.2 (b0a8486541, 2022-12-01)"
   xmlns:inkscape="http://www.inkscape.org/namespaces/inkscape"
   xmlns:sodipodi="http://sodipodi.sourceforge.net/DTD/sodipodi-0.dtd"
   xmlns="http://www.w3.org/2000/svg"
   xmlns:svg="http://www.w3.org/2000/svg">
  <defs
     id="defs1048" />
  <sodipodi:namedview
     id="namedview1046"
     pagecolor="#ffffff"
     bordercolor="#666666"
     borderopacity="1.0"
     inkscape:showpageshadow="2"
     inkscape:pageopacity="0.0"
     inkscape:pagecheckerboard="0"
     inkscape:deskcolor="#d1d1d1"
     showgrid="false"
     inkscape:zoom="1.0029297"
     inkscape:cx="515.98832"
     inkscape:cy="493.55404"
     inkscape:window-width="2550"
     inkscape:window-height="1354"
     inkscape:window-x="0"
     inkscape:window-y="0"
     inkscape:window-maximized="1"
     inkscape:current-layer="g888" />
  <g
     fill="#010208"
     id="g888">
    <path
       id="path864"
       d="m 504.37695,175.1582 c -14.79494,0.13834 -29.17342,1.11808 -43.13672,2.94141 -22.61325,2.95333 -46.19055,8.9235 -70.73046,17.91016 -29.29994,10.73328 -56.21364,25.32602 -80.74024,43.77929 -57.73315,43.44655 -97.96595,99.33875 -120.69922,167.67188 -11.71997,35.21988 -16.90031,73.3884 -16.57031,110.48828 0.28667,23.82658 2.40295,45.01392 6.34961,63.56055 21.92994,103.08967 85.69996,190.48069 179.92969,238.56054 50.97985,25.77994 105.12825,38.5238 162.4414,38.23047 45.03988,-0.73 90.5988,-10.52123 131.38868,-29.70117 61.79979,-29.07324 111.08499,-72.03552 147.85156,-128.88867 49.38985,-76.38979 61.62877,-171.65051 43.04883,-259.99024 -5.46329,-25.95554 -14.61484,-51.17559 -26.63477,-75.04687 -1.83846,0.12389 -3.8016,0.0507 -4.6875,-1.8125 -1.01838,-2.14181 -0.69999,-4.70988 -0.18555,-7.25195 -11.47291,-21.15445 -25.07886,-41.20917 -40.53125,-59.5586 -30.89991,-36.68655 -67.4978,-65.53131 -109.79101,-86.53125 -36.35991,-17.72661 -73.58338,-28.47667 -111.66992,-32.25 -15.62664,-1.54666 -30.83785,-2.24966 -45.63282,-2.11133 z m -5.50781,24.05274 4.04102,0.53906 c 0.44666,0.06 0.68231,0.3162 0.70898,0.76953 0.0667,1.23333 -0.1062,2.42055 -0.51953,3.56055 -2.67333,7.48664 -5.15589,15.03708 -7.44922,22.65039 -0.93,3.09 -2.17961,8.18888 -5.59961,7.37891 -1.55,-0.36 -2.68047,-2.37016 -3.23047,-3.66016 -1.72666,-4.07333 -4.45302,-10.8687 -8.17969,-20.38867 -1.17997,-3.03333 -1.9145,-5.75659 -2.20117,-8.16993 -0.0467,-0.39331 0.1231,-0.64023 0.50977,-0.74023 l 3.86133,-1.00977 a 1.81,1.81 0 0 1 2.16015,1.11915 l 6.92969,18.65039 a 0.46,0.46 0 0 0 0.85938,-0.01 c 1.60997,-4.71997 2.99117,-8.51065 4.70117,-14.14062 0.64666,-2.12667 1.50479,-4.16891 2.57812,-6.12891 a 0.83,0.82 17.9 0 1 0.83008,-0.41992 z m 10.4707,0.38867 3.6211,0.0195 a 1.46,1.46 0 0 1 1.44922,1.46094 l -0.0996,27.98047 a 1.9,3.48 0.2 0 1 -1.91016,3.46875 h -2.74023 a 1.9,3.48 0.2 0 1 -1.89063,-3.49024 l 0.0996,-27.97851 a 1.46,1.46 0 0 1 1.4707,-1.46094 z m 23.19532,1.37891 a 11.61,15.48 3.5 0 1 10.64257,16.16015 11.61,15.48 3.5 0 1 -12.5332,14.74219 11.61,15.48 3.5 0 1 -10.64258,-16.16016 11.61,15.48 3.5 0 1 12.53321,-14.74218 z m 21.15429,5.04101 2.58008,0.54102 c 0.28,0.0533 0.47961,0.20565 0.59961,0.45898 0.58667,1.22667 0.73474,2.3131 0.44141,3.25977 -2.00667,6.37997 -3.44388,12.88 -4.31055,19.5 a 0.81,0.82 8 0 0 0.67969,0.91015 l 9.38086,1.5 c 1.54,0.24667 2.07914,1.118 1.61914,2.61133 l -1,3.22852 a 1.19,1.2 87.8 0 1 -0.69922,0.75 c -3.05,1.2 -12.69047,-1.80995 -16.23047,-2.66992 a 1.2,1.2 0 0 1 -0.91016,-1.08008 c -0.18666,-2.49333 0.013,-5.08289 0.59961,-7.76953 1.44,-6.62 3.05628,-13.20954 4.84961,-19.76954 a 2.05,2.04 13.4 0 1 2.40039,-1.4707 z m -109.08984,0.94141 a 1.79,1.8 72 0 1 2.18945,1.10937 c 3.09333,8.45997 5.94414,17.07631 8.55078,25.84961 0.49,1.67 1.06024,3.81094 -0.25976,5.21094 -0.92667,0.97333 -1.99256,1.05161 -3.19922,0.23828 -7.83331,-5.26664 -16.07716,-9.64844 -24.73047,-13.14844 a 0.54,0.54 0 0 0 -0.7207,0.66016 c 1.56666,4.97997 3.22096,10.02224 4.96093,15.12891 0.9,2.65997 -0.0498,6.04929 -3.33984,5.77929 a 1.11,1.11 0 0 1 -0.79101,-0.42968 c -0.66,-0.87334 -1.18055,-1.82605 -1.56055,-2.85938 -2.73333,-7.39331 -5.56977,-14.75034 -8.50977,-22.07031 -6.80997,-16.91997 25.1711,2.53961 27.8711,4.34961 A 0.63,0.63 0 0 0 446,226.05078 c -1.7,-4.77331 -3.36359,-9.20745 -4.99023,-13.30078 -0.42,-1.06667 -0.44065,-2.47094 -0.0605,-4.21094 0.08,-0.37333 0.30325,-0.61208 0.66992,-0.71875 z m 136.62109,6.83984 c 4.32667,1.26 8.82669,2.72511 13.5,4.39844 0.24,0.0867 0.45201,0.21419 0.63868,0.38086 0.19331,0.17333 0.41348,0.29271 0.66015,0.35937 0.4,0.1 0.73953,0.30776 1.01953,0.6211 1.43,1.6 -1.08976,4.61984 -2.50976,5.33984 a 1.36,1.37 40.7 0 1 -1.0293,0.0801 l -10.00977,-3.26953 a 0.9,0.9 0 0 0 -1.06054,0.39844 c -0.78667,1.34664 -1.1355,2.80754 -1.04883,4.38085 A 0.82,0.83 5.7 0 0 582,227.25 l 9.75,2.48047 c 0.28,0.0733 0.40753,0.25239 0.38086,0.53906 -0.27,2.91 -0.73086,6.50117 -4.38086,5.45117 -1.48,-0.42 -4.04589,-1.27078 -7.69922,-2.55078 a 1.06,1.04 36.3 0 0 -0.96094,0.14063 c -1.45997,1.03 -2.84958,4.58929 -0.34961,5.52929 3.70667,1.40667 7.45977,2.69777 11.25977,3.8711 a 0.91,0.88 3.5 0 1 0.61914,0.67968 c 0.48,2.37 -1.14867,5.58016 -4.13867,4.66016 -5.70666,-1.76666 -11.03691,-3.6349 -15.99024,-5.60156 a 2.27,2.26 21 0 1 -1.29101,-2.87891 l 8.82031,-24.15039 a 2.62,2.62 0 0 1 3.20117,-1.61914 z m -109.20117,1.63281 a 2.07,2.07 0 0 1 2.39258,1.6875 l 0.52148,3.01563 a 2.07,2.07 0 0 1 -1.6875,2.39258 l -13.0664,2.25586 a 2.07,2.07 0 0 1 -2.39258,-1.6875 l -0.52149,-3.01368 a 2.07,2.07 0 0 1 1.6875,-2.39257 z m -70.20508,6.87696 a 15.53,12.8 56 0 1 12.82813,7.57226 15.53,12.8 56 0 1 -1.92774,20.03125 15.53,12.8 56 0 1 -19.29687,-5.71679 15.53,12.8 56 0 1 1.92773,-20.03321 15.53,12.8 56 0 1 6.46875,-1.85351 z m 208.13477,0.1289 c 3.89997,2.78 7.85992,16.44024 9.16992,21.24024 0.0733,0.26 0.17721,0.46776 0.31055,0.62109 a 0.54,0.55 37.8 0 0 0.90039,-0.12109 l 7.80078,-15.65039 A 0.97,0.98 6 0 1 628.7793,228 c 2.66997,-0.68 6.34005,1.17961 4.58008,4.59961 -3.78,7.37331 -6.30985,12.50086 -7.58985,15.38086 -1.4,3.15 -5.14018,11.06859 -8.66015,10.80859 -0.34,-0.0267 -0.61985,-0.16153 -0.83985,-0.4082 -0.74666,-0.84 -1.25286,-1.71445 -1.51953,-2.62109 -1.69,-5.78 -2.8993,-13.5405 -5.7793,-18.73047 a 0.67,0.67 0 0 0 -1.16992,0.01 c -2.40666,4.42 -4.62372,8.86032 -6.65039,13.32032 -1.72,3.79997 -8.12091,1.53153 -5.71094,-3.14844 3.26667,-6.34 6.07636,-12.88422 8.42969,-19.63086 0.64667,-1.84 1.56839,-3.42953 2.76172,-4.76953 a 2.49,2.5 38.8 0 1 3.31836,-0.3711 z M 374.89453,232.7168 c 1.11625,0.15125 2.17992,0.99385 3.04492,2.42382 4.54667,7.52666 9.59397,14.67902 15.14063,21.45899 0.37,0.45 0.71984,1.54133 1.08984,2.11133 0.18667,0.29333 0.24943,0.60922 0.18946,0.94922 -0.43334,2.51331 -1.96011,3.35906 -4.58008,2.53906 -7.86,-2.47333 -15.69956,-4.96209 -23.51953,-7.46875 a 0.31,0.31 0 0 0 -0.33985,0.46875 c 3.02,4.27997 8.34034,10.27073 9.82031,15.2207 a 1.29,1.29 0 0 1 -0.0801,0.92969 c -1.2,2.39 -3.71969,4.55109 -5.92969,1.37109 -4.80666,-6.9333 -9.56794,-13.90661 -14.28125,-20.91992 -1.41,-2.09 -2.83852,-4.09164 -0.97852,-6.43164 1.37334,-1.72666 3.40008,-2.03635 6.08008,-0.92969 7.79997,3.22 14.39576,5.79714 19.78906,7.73047 a 0.38,0.38 0 0 0 0.44922,-0.56054 c -3.00997,-4.74 -9.37929,-10.69964 -9.52929,-16.34961 a 1.26,1.27 63.6 0 1 0.27929,-0.82032 c 1.07,-1.335 2.23922,-1.8739 3.35547,-1.72265 z m 265.48438,0.0625 c 0.34378,-0.032 0.71054,0.0116 1.09179,0.15039 6.60666,2.41333 12.69311,5.76724 18.25977,10.06054 0.77333,0.59334 1.60667,1.17047 2.5,1.73047 0.28667,0.18 0.41534,0.4393 0.38867,0.7793 -0.14667,2.2 -1.22185,3.66086 -3.22852,4.38086 a 1.18,1.18 0 0 1 -0.91992,-0.0508 l -5.18164,-2.44922 A 1.88,1.87 30 0 0 650.96094,248 c -3.8,5.42664 -7.39769,10.96583 -10.79102,16.61914 -0.28,0.47333 -1.08039,1.27063 -2.40039,2.39063 a 1.09,1.07 29.9 0 1 -0.92969,0.24023 c -3.02997,-0.59 -4.50997,-2.86953 -2.75,-5.76953 3.66,-6.04 7.73081,-11.71112 10.80078,-18.12109 a 1.28,1.28 0 0 0 -0.41015,-1.59961 c -1.87333,-1.33334 -3.86714,-2.59264 -5.98047,-3.7793 -1.86375,-1.04125 -0.52761,-4.97723 1.87891,-5.20117 z m -124.9961,14.52539 c 19.71494,0.58666 39.33415,3.62214 58.85742,9.10547 106.1697,30.88991 191.64964,129.45939 201.34961,240.28906 3.44,39.35988 -1.45307,76.93723 -14.67968,112.73047 -11.39331,30.80657 -28.43761,58.85712 -51.13086,84.15039 -4.18667,4.66664 -7.95217,8.36008 -11.29883,11.08008 a 0.43,0.43 0 0 1 -0.70117,-0.38086 c 0.74,-6.28 2.18031,-17.03314 4.32031,-32.25977 2.69,-19.16994 1.34067,-40.54959 -7.0293,-58.26953 a 1.99,1.99 0 0 1 0.29883,-2.15039 c 6.78664,-7.85331 10.60451,-16.98709 11.45117,-27.40039 a 0.76,0.74 83.8 0 1 0.51953,-0.66016 c 11.88664,-3.77331 17.33318,-12.03886 16.33985,-24.79883 -0.56,-7.16997 -4.18956,-14.86987 -6.51953,-21.83984 -0.63334,-1.87333 -1.85969,-2.65318 -3.67969,-2.33984 a 1.31,1.28 12.4 0 0 -0.84961,0.52929 c -3.99,5.6 -7.34055,10.61019 -12.81055,15.66016 -0.22,0.2 -0.47,0.24419 -0.75,0.13086 l -2.66992,-1.11133 a 0.88,0.87 32.6 0 0 -0.9707,0.21094 c -9.32997,9.77997 -7.18888,24.78018 4.12109,31.91015 a 0.93,0.95 17.1 0 1 0.43945,0.84961 c -0.5,7.7 -3.48,18.63024 -9.5,24.24024 a 0.62,0.61 46.7 0 1 -0.85937,-0.0312 c -13.39997,-14.13997 -30.98045,-19.66839 -49.65039,-25.31836 -8.46997,-2.56 -9.85992,-11.21089 -10.91992,-18.88086 -0.92667,-6.77997 -2.07474,-16.4498 -3.44141,-29.00977 -0.12667,-1.11997 -0.14828,-2.09635 -0.0684,-2.92968 a 1.46,1.48 69.6 0 1 0.41016,-0.88086 c 3.44664,-3.56 6.06914,-6.60224 7.86914,-9.12891 1.86,-2.61 -0.97977,-4.13143 -1.50977,-6.4414 a 0.88,0.88 0 0 1 0.11914,-0.68946 c 1.36667,-2.06666 1.36667,-4.12326 0,-6.16992 a 0.63,0.64 47.1 0 1 0.0312,-0.75977 c 1.38667,-1.69997 1.35674,-3.3101 -0.0898,-4.83007 -0.3,-0.31334 -0.47484,-0.68776 -0.52148,-1.1211 -0.38,-3.85997 -2.58894,-5.79526 -6.62891,-5.80859 a 1.65,1.65 0 0 1 -1.65039,-1.58985 c -0.24667,-6.33997 -0.60055,-12.47065 -1.06055,-18.39062 -0.06,-0.76667 0.0346,-1.95078 0.28125,-3.55078 0.0467,-0.32667 0.18659,-0.60341 0.41992,-0.83008 1.72,-1.64 2.80961,-2.83987 4.09961,-5.08984 0.96,-1.66 2.13597,-3.12511 3.5293,-4.39844 a 1.88,1.89 53.3 0 0 0.34961,-2.35156 c -1.46667,-2.47333 -1.42247,-4.97644 0.13086,-7.50977 a 1.03,1.03 0 0 0 0.0801,-0.90039 c -0.66667,-1.76 -0.66667,-3.5255 0,-5.29883 a 1.61,1.61 0 0 0 -0.83008,-2.03125 l -8.29102,-3.79883 a 2.15,2.16 31.9 0 1 -0.76953,-3.33007 c 9.01997,-11.02997 14.45953,-23.65933 14.76953,-38.0293 0.007,-0.34667 0.11675,-0.38466 0.33008,-0.11133 9.73997,12.53997 26.21066,16.3807 41.39063,12.7207 7.99997,-1.92997 1.49984,-10.02049 -0.91016,-13.48046 -10.71994,-15.40002 -25.38975,-18.42047 -43.42969,-16.98047 a 1.08,1.09 75.9 0 1 -1.08008,-0.63868 l -4.05078,-9.13085 a 1.76,1.75 64.3 0 1 0.79102,-2.26954 c 5.24997,-2.71997 15.22018,-5.84971 16.91015,-12.17968 2.56,-9.61997 -9.56992,-14.03029 -16.66992,-10.32032 -4.73997,2.47 -7.04096,8.52977 -9.21093,13.50977 -0.68667,1.55333 -1.7824,1.93706 -3.28907,1.15039 l -12.37109,-6.51953 A 0.85,0.85 0 0 1 604.25,352.82031 c 0.4,-6.05997 4.69094,-10.75065 7.96094,-15.39062 1.14666,-1.62 1.50479,-3.52542 1.07812,-5.71875 -1.45,-7.50997 -13.14844,-11.09172 -18.14844,-5.01172 -1.87997,2.28666 -3.01992,4.97078 -3.41992,8.05078 -0.66,5.07997 -1.32357,10.16336 -1.99023,15.25 a 1.02,1.01 82 0 1 -0.58008,0.7793 c -1.76666,0.82 -3.62365,1.13474 -5.57031,0.9414 -0.32667,-0.0333 -0.54063,-0.20815 -0.64063,-0.52148 -2.17997,-7.07997 -4.19914,-13.60961 -11.11914,-17.34961 -6.31997,-2.96 -12.59969,-1.69992 -14.42969,5.58008 -1.47997,5.91997 1.50993,12.09031 4.91993,16.82031 a 0.56,0.55 59.4 0 1 -0.20117,0.82031 c -11.87997,5.85333 -22.36259,13.63631 -31.44922,23.34961 -6.28666,6.72666 -10.74443,14.66391 -13.3711,23.81055 -6.21997,21.63994 5.19155,43.26948 25.77149,51.18945 7.99997,3.07333 16.83026,4.41287 26.49023,4.01953 6.43997,-0.22666 12.67258,-1.04255 18.69922,-2.44922 a 0.57,0.57 0 0 1 0.69922,0.57032 c -1.85,57.14982 -6.96016,114.0089 -11.16016,170.96875 -1.28,17.27994 -3.00883,34.65076 -4.54883,51.9707 -0.51,5.67997 -0.71062,13.75995 -0.39062,20.66992 1,21.69327 2.05039,43.38681 3.15039,65.08008 0.0667,1.42 0.0462,3.45914 -0.0606,6.11914 -0.0133,0.34 -0.1831,0.55706 -0.50976,0.65039 -4.44,1.36667 -7.41328,2.1969 -8.91992,2.49024 -35.31991,6.88997 -75.44002,7.05051 -111.66993,-2.18946 A 0.78,0.78 0 0 1 454.25,772.55078 l 0.92969,-44.32031 c 0.28,-14.33997 1.68984,-29.62027 0.33984,-43.74024 -4.83997,-50.72982 -9.64969,-101.51007 -15.17969,-152.16992 -2.70664,-24.81991 -4.97411,-49.68946 -6.80078,-74.60937 a 0.5,0.5 0 0 1 0.61133,-0.52149 c 24.32994,5.85 53.47925,2.25127 67.94922,-20.88867 12.62997,-20.18994 1.53119,-42.9199 -13.46875,-57.83984 -9.65997,-9.21997 -20.5736,-16.5173 -32.74024,-21.89063 a 1.07,1.07 0 0 1 -0.40039,-1.66992 c 3.6,-4.36 7.24951,-14.24008 2.51954,-19.08008 -3.12,-3.18997 -9.61042,-2.09093 -12.65039,0.28907 -4.38,3.41997 -7.67225,8.2739 -9.87891,14.56054 a 1.06,1.08 1.3 0 1 -0.66992,0.65039 c -2.08,0.66667 -4.02652,0.66931 -5.83985,0.01 -6.99997,-2.54 -3.61034,-21.98073 -11.32031,-26.4707 -7.03997,-4.1 -16.88091,4.4701 -14.46094,12.08007 1.22,3.84 5.44003,5.42071 7.75,8.72071 1.84667,2.66664 2.84357,5.55039 2.99024,8.65039 a 1.54,1.54 0 0 1 -0.69922,1.35937 l -9.01953,5.89063 a 2.08,2.08 0 0 1 -3.01172,-0.83985 c -1.66667,-3.43331 -3.30659,-6.8849 -4.91992,-10.35156 -1.72,-3.72 -4.37544,-5.51534 -7.96875,-5.38867 -4.99,0.18 -10.68985,2.14909 -11.58985,7.78906 -1.63,10.25997 9.00933,12.52995 16.0293,15.41992 a 1.6,1.6 0 0 1 0.81055,2.19141 l -4.25977,8.51953 c -0.17333,0.34 -0.45008,0.50047 -0.83008,0.48047 -7.65997,-0.42 -15.61086,-1.16008 -23.38086,1.66992 -9.74997,3.55 -17.76026,11.36933 -22.74023,20.5293 -4.82,8.88997 3.31016,10.11906 10.16016,10.03906 15.64661,-0.16667 26.67343,-7.17912 33.08007,-21.03906 a 0.43,0.43 0 0 1 0.81055,0.23047 c -1.31333,11.03997 0.28242,21.5555 4.78906,31.54883 2.14,4.74997 5.65969,9.88023 8.67969,14.49023 a 2.72,2.73 60.5 0 1 -1.09961,3.95117 l -8.09961,3.87891 a 1.11,1.07 89 0 0 -0.5293,0.57031 c -0.49331,1.27333 -0.38325,2.51094 0.33008,3.71094 a 1.2,1.2 0 0 1 0.10938,0.98828 c -0.88,2.72 -0.67419,5.35682 0.61914,7.91016 0.13333,0.27331 0.12102,0.54078 -0.0391,0.80078 -2.76,4.40997 3.91031,11.6607 7.07031,13.7207 1.36,0.88 1.21898,1.37914 1.20898,2.86914 -0.0333,6.46664 -0.0725,12.93683 -0.11914,19.41016 a 1.29,1.28 87.8 0 1 -1.16992,1.26953 c -4.47331,0.39333 -7.06286,2.96739 -7.76953,7.7207 -0.2,1.31333 -0.11355,2.34628 0.25976,3.09961 0.14,0.28667 0.16369,0.58086 0.0703,0.88086 -0.92,2.85333 -0.68435,5.55914 0.70898,8.11914 a 0.95,0.93 44.3 0 1 0.0195,0.83984 c -1.29,2.64 -1.26015,4.74055 0.83985,7.06055 2.71331,3.00666 5.39125,5.90281 8.03125,8.68945 a 3.25,3.28 24.5 0 1 0.8789,2.38086 c -0.41333,9.68664 -1.06565,19.36886 -1.95898,29.04883 -0.49333,5.32666 -1.34412,9.4542 -2.55078,12.38086 -1.45,3.53 -9.03003,6.6993 -13.25,8.0293 -16.39997,5.15997 -32.38964,11.5394 -44.84961,23.85937 -0.51333,0.50667 -1.00406,0.48809 -1.4707,-0.0586 -5.42,-6.37997 -8.64016,-13.95097 -9.66016,-22.71094 -0.23,-1.96 0.25143,-2.85979 1.6914,-4.25976 7.76666,-7.52 9.12363,-16.33282 4.07032,-26.43946 -0.56667,-1.12666 -1.49769,-2.12976 -2.79102,-3.00976 -0.28666,-0.19334 -0.56961,-0.19598 -0.84961,-0.01 l -1.75,1.12891 a 0.91,0.89 42.6 0 1 -0.95117,0.0312 c -5.92997,-3.33 -10.97961,-9.54167 -15.09961,-14.68164 a 4.48,2.56 0.2 0 0 -2.18945,-1.25977 c -0.64667,-0.17333 -1.12612,0.1662 -1.43946,1.01953 -5.38997,14.85997 -10.83033,37.73019 8.59961,45.66016 0.85,0.35 2.35891,0.34078 3.37891,0.80078 0.35333,0.15333 0.5518,0.42388 0.5918,0.81055 1.07333,10.8733 5.2617,20.30242 12.56836,28.28906 0.26,0.28667 0.30109,0.6045 0.12109,0.95117 -15.19994,28.91991 -4.81039,57.29861 -3.90039,88.22852 0.0133,0.46 -0.17388,0.56698 -0.56055,0.32031 -1.60666,-1.00667 -3.22604,-2.39969 -4.85937,-4.17969 -52.11985,-56.62982 -78.69,-131.03094 -72.25,-207.7207 4.47997,-53.35985 26.3504,-104.38887 60.07031,-145.46875 4.30666,-5.24 8.67605,-10.27297 13.10938,-15.09961 34.53988,-37.63988 80.7996,-66.19027 130.93945,-77.49024 19.90661,-4.30997 39.71865,-6.1726 59.43359,-5.58593 z m 87.06641,81.92383 c 3.51234,0.36375 6.28242,2.98828 3.16992,7.30078 -2.6,3.57997 -8.84875,15.19065 -6.71875,19.14062 0.31333,0.58667 0.92031,1.07739 1.82031,1.4707 4.47333,1.96 8.59272,4.11542 12.35938,6.46876 l 5.83984,2.25 a 0.91,0.92 35.6 0 0 0.92969,-0.16016 l 3.41992,-2.97852 c 1.42667,-3.12664 3.3042,-6.52476 5.63086,-10.1914 1.24,-1.96 2.48992,-2.66992 4.91992,-2.66992 2.75,-0.01 7.81914,0.17088 7.36914,4.13085 -0.13333,1.18667 -0.67867,2.04675 -1.63867,2.58008 -5.31997,2.96 -10.43825,6.18946 -15.35156,9.68946 -1.09333,1.47997 -1.34953,2.92343 -0.76953,4.33007 1.69333,4.16 3.3631,8.27938 5.00976,12.35938 a 2.25,2.24 79.7 0 0 2.04102,1.41992 l 4.49023,0.11133 c 17.20997,-1.5 31.22902,2.35873 40.20899,18.13867 0.12,0.21333 0.0603,0.35016 -0.17969,0.41016 -5.51331,1.28 -9.25714,1.7769 -11.23047,1.49023 -3.36,-0.48666 -6.71698,-0.91573 -10.07031,-1.28906 -1.36,-0.14667 -2.72628,-0.60445 -4.09961,-1.37109 -1.81,-1.02 -3.55906,-1.46977 -5.03906,-3.00977 -3.21,-3.35 -6.40042,-7.59992 -10.40039,-9.91992 -1.24667,-0.3 -2.29396,-0.3093 -3.14063,-0.0293 -0.35333,0.12 -0.5138,0.36692 -0.48047,0.74023 0.84,9.44 0.55013,19.53972 -3.33984,28.42969 -4.78,10.91997 -16.10863,21.40956 -26.3086,27.76953 -5.63997,3.51333 -11.64312,5.95055 -18.00976,7.31055 -10.48664,2.24 -20.9836,2.16286 -31.49024,-0.23047 -16.42994,-3.47997 -29.11093,-15.05021 -30.71093,-31.91015 -2.03,-21.29994 8.3499,-35.08941 24.08984,-47.60938 6.93331,-5.51331 14.57328,-9.97731 22.91992,-13.39062 8.84997,-3.62 15.07993,-3.47003 23.41993,-4.25 a 3.89,3.88 89.7 0 0 3.50976,-3.56055 c 0.42667,-5.4 0.97086,-10.63258 1.63086,-15.69922 0.32667,-2.48 0.95731,-4.55714 1.89062,-6.23047 0.16667,-0.30667 0.41357,-0.51557 0.74024,-0.62891 1.145,-0.40247 2.39758,-0.53335 3.56836,-0.4121 z m -137.07422,60.375 a 5.92,5.19 48.2 0 1 3.92383,2.10742 5.92,5.19 48.2 0 1 0.0762,7.87304 5.92,5.19 48.2 0 1 -7.81445,-0.95507 5.92,5.19 48.2 0 1 -0.0762,-7.87305 5.92,5.19 48.2 0 1 3.89062,-1.15234 z m -35.95508,8.46679 a 6.31,5.3 54.3 0 1 3.86328,2.7168 6.31,5.3 54.3 0 1 -0.62109,8.2168 6.31,5.3 54.3 0 1 -7.98633,-2.03125 6.31,5.3 54.3 0 1 0.62305,-8.2168 6.31,5.3 54.3 0 1 4.12109,-0.68555 z m 187.27539,46.04883 c 0.11334,0.04 0.17867,0.21792 0.19531,0.53125 l 1.01954,18.36914 0.19922,17.41992 a 0.19,0.2 34.8 0 1 -0.37891,0.0703 c -1.26,-3.52 -3.15024,-9.56912 -7.74024,-9.36915 -6.21997,0.26 -15.30101,4.77868 -15.29101,12.13868 0,4.81997 2.54003,15.27062 9.25,14.64062 4.99997,-0.46666 9.43412,-2.31745 13.30078,-5.55078 a 0.86,0.85 68.4 0 1 1.40039,0.61133 l 2.31055,38.41992 0.83984,10.83008 0.76953,11.26953 c 0.02,0.38 -0.14666,0.50247 -0.5,0.36914 -9.92997,-3.82 -12.32057,3.01073 -14.56054,10.9707 -1.10667,3.90667 -1.89581,8.21016 -2.36915,12.91016 -0.34997,3.45 -0.79023,6.13938 2.00977,8.60938 6.85997,6.02997 18.03917,4.13093 24.36914,-1.53907 a 1.23,1.19 25.7 0 1 0.90039,-0.30078 c 1.9,0.13333 3.35271,0.94808 4.35938,2.44141 2.67331,0.0867 4.93148,0.56304 6.77148,1.42968 0.31333,0.14667 0.51914,0.38232 0.61914,0.70899 l 2.88086,9 c 3.99333,2.92 9.13016,3.73784 15.41016,2.45117 L 665.4707,597.5 a 1.27,1.23 22.9 0 1 0.92969,-0.35938 c 2.74,0.13334 5.40047,1.3566 7.98047,3.66993 8.44664,5.19331 14.44667,11.54528 18,19.05859 1.88,3.98 3.40675,9.8905 4.58008,17.73047 3.42997,17.76994 0.4082,35.15058 -2.3418,52.81055 -0.91,5.88997 -1.32883,12.90987 -2.29883,19.33984 a 1.7,1.7 0 0 1 -0.42969,0.89062 c -3.21997,3.51333 -6.77971,6.63891 -10.67968,9.37891 -5.95333,5.53333 -12.28358,10.27714 -18.99024,14.23047 -0.62666,0.37333 -0.89101,0.20047 -0.79101,-0.51953 0.84666,-6.37331 1.73659,-12.66136 2.66992,-18.86133 1.02,-6.74997 -4.64,-14.76909 -6.5,-21.28906 -2.92666,-10.2733 -5.57589,-20.62105 -7.94922,-31.04102 -0.95,-4.15997 -2.81039,-7.00968 -7.40039,-5.67968 -0.34667,0.1 -0.56065,0.32325 -0.64062,0.66992 l -4.21876,17.74023 c -0.47997,2.83333 -0.74434,4.78295 -0.79101,5.84961 -0.97333,21.49994 -1.20896,43.01441 -0.70899,64.54102 0.06,2.37997 0.42899,4.74898 -2.04101,5.70898 -4.74,1.84 -9.78026,5.69008 -14.74023,6.33008 a 0.6,0.6 0 0 1 -0.66993,-0.63867 l 0.58008,-8.05078 c 0.75333,-8.30666 1.4231,-16.64313 2.00977,-25.00977 0.24666,-3.48666 0.011,-6.13589 -0.70899,-7.94922 -4.57331,-11.51997 -8.92412,-23.12391 -13.05078,-34.81055 -2.85333,-8.07997 -8.61886,-11.93078 -17.29883,-11.55078 -0.42,0.02 -0.63086,0.24016 -0.63086,0.66016 l -0.17968,16.04101 c 0.94666,6.52 1.52382,12.96032 1.73046,19.32032 0.23334,7.0133 0.49264,12.53195 0.7793,16.55859 0.62667,8.83997 0.84682,17.69701 0.66016,26.57031 a 0.58,0.58 0 0 1 -0.54102,0.57032 l -11.70898,0.80078 a 0.58,0.57 87.1 0 1 -0.60938,-0.56055 l -0.60156,-21.36133 c -1.38,-15.57994 -1.83271,-28.42576 -1.35937,-38.53906 0.62664,-13.59997 2.29023,-34.24621 4.99023,-61.93945 l 0.58984,-4.69141 3.05078,-39.34961 -0.0898,-3.2793 1.92969,-18.55078 c -0.68,-1.59333 -0.53698,-2.78676 0.42969,-3.58007 -0.36,-1.94667 -0.31271,-4.00326 0.14062,-6.16993 a 0.69,0.69 0 0 1 0.7793,-0.53906 l 1.91992,0.26953 c 0.36667,0.0533 0.6876,-0.0424 0.96094,-0.28906 4.94997,-4.53 6.44997,-14.67024 -1.5,-17.24024 a 0.72,0.73 9 0 1 -0.51172,-0.71093 l 0.13086,-7.19922 0.49023,-9.83985 c 0.34,-8.0533 0.75667,-15.88667 1.25,-23.5 0.37,-5.65997 0.44883,-15.73057 1.54883,-23.56054 l -0.12891,-4.81055 a 1.91,1.92 81.2 0 1 1.39063,-1.88867 c 6.67997,-1.91 15.1794,-3.92136 17.35937,-11.36133 0.78667,-2.66666 2.11071,-5.03606 3.97071,-7.10937 0.21,-0.23334 0.37104,-0.33102 0.48437,-0.29102 z m -211.8789,4.4043 a 0.49,0.49 0 0 1 0.55273,0.16601 c 3.64666,4.60667 7.85445,8.63652 12.62109,12.08985 a 0.56,0.56 0 0 1 -0.14062,0.98047 l -12.29883,4.45117 a 0.72,0.71 79.9 0 1 -0.95117,-0.67188 L 404.49023,449 a 0.49,0.49 0 0 1 0.32618,-0.47656 z m 0.0742,26.3164 20.5293,6.08008 a 0.6,0.6 0 0 1 0.41992,0.67969 l -3.30078,17.20117 a 0.6,0.6 0 0 1 -0.41992,0.45899 L 405.25,504.26953 a 0.6,0.6 0 0 1 -0.76953,-0.55859 l -0.36133,-28.29102 a 0.6,0.6 0 0 1 0.77148,-0.58008 z m 2.92383,40.5 c 0.18667,-0.04 0.395,0.0228 0.625,0.18946 4.4,3.22664 8.06047,7.13714 10.98047,11.73047 a 1.98,1.98 0 0 1 -0.35937,2.54101 c -1.79,1.59 -7.12094,5.90852 -9.46094,6.22852 a 1.69,1.69 0 0 1 -1.17969,-3.06836 l 5.35938,-3.63086 a 1.72,1.72 0 0 0 0.35156,-2.51953 l -7.31055,-8.72071 a 1.12,1.11 40.3 0 1 -0.10937,-1.26953 l 0.60937,-1.05078 c 0.14334,-0.24667 0.30748,-0.38969 0.49414,-0.42969 z m 26.02149,12.13477 a 0.56,0.56 0 0 1 0.32422,0.33594 c 0.5,1.46 0.20958,2.7189 -1.15039,3.6289 -4.27,2.84 -8.5406,6.99141 -3.14063,11.44141 1.85333,1.52 3.41807,2.68667 4.69141,3.5 2.03997,1.32 2.54,2.55883 1.75,4.79883 -0.14,0.4 -0.3931,0.48953 -0.75977,0.26953 -2.85,-1.67 -11.71055,-7.16875 -13.06055,-10.71875 a 1.03,1.05 52 0 1 0.12891,-0.98047 c 2.3,-3.18 6.54,-9.97 10.75,-12.25 a 0.56,0.56 0 0 1 0.4668,-0.0254 z m 279.77539,15.26758 a 0.5,0.5 0 0 1 0.3789,0.27734 c 1.56667,3.26 2.78063,6.65808 3.64063,10.19141 2.46,10.10997 2.5988,17.80914 -7.45117,23.36914 -5.78,3.20997 -11.14034,-0.38995 -14.32031,-5.41992 -1.14,-2.88667 -1.31287,-6.44326 -0.51954,-10.66993 0.57,-3.05997 0.83954,-4.2507 4.01954,-5.4707 2.25997,-0.86 4.30109,-2.05341 6.12109,-3.58008 l 7.68945,-8.53906 a 0.5,0.5 0 0 1 0.44141,-0.1582 z m -308.13086,11.56836 17.38867,8.22851 c 0.26,0.12 0.36078,0.32159 0.30078,0.60156 l -6.11914,28.07032 a 0.45,0.45 0 0 1 -0.64062,0.30859 l -17.74024,-8.65039 c -0.39333,-0.18667 -0.48286,-0.46961 -0.26953,-0.84961 4.81,-8.65997 4.92047,-17.56987 5.98047,-27.08984 a 0.77,0.78 15.7 0 1 1.09961,-0.61914 z m -22.25977,33.58007 a 0.8,0.81 89.8 0 1 1.08008,1.07032 c -2.04,4.15997 -5.63008,6.52932 -5.83008,12.02929 -0.13333,3.7 0.0725,7.23297 0.61914,10.59961 a 2.35,2.37 66.3 0 1 -0.8789,2.23047 c -3.88,3.03 -8.7711,6.94878 -10.8711,11.71875 -1.60997,3.67 -3.21987,19.56029 -9.83984,17.07032 -2.64666,-0.99334 -5.06643,-1.9224 -7.25977,-2.78907 a 4.43,4.44 40.9 0 0 -3.84961,0.2793 c -4.25997,2.45 -10.89992,7.08104 -15.91992,7.29101 a 0.53,0.53 0 0 1 -0.55078,-0.57031 c 0.14,-1.5 0.94969,-2.65737 2.42969,-3.4707 4.40664,-2.42666 7.94778,-4.74255 10.62109,-6.94922 3.41333,-2.81333 3.95865,-6.39667 1.63868,-10.75 -1.95334,-3.64666 -3.99868,-7.25055 -6.13868,-10.81055 a 0.8,0.78 54.1 0 1 0.14844,-1 l 4.33008,-3.86914 c 0.22667,-0.2 0.40148,-0.16395 0.52148,0.10938 3.52,8.09997 7.19597,15.57018 11.0293,22.41015 0.82,1.46667 2.10914,2.52636 3.86914,3.17969 a 1.19,1.17 42.6 0 0 0.91992,-0.0293 c 1.82667,-0.83997 2.77825,-2.42643 2.85156,-4.75976 0.14,-4.63 0.78868,-8.22 3.88868,-12 1.83333,-2.24 3.59458,-4.51055 5.28125,-6.81055 4.58997,-6.28997 1.20958,-11.53034 -2.65039,-16.82031 a 1.46,1.46 0 0 1 0.81054,-2.26953 c 4.75333,-1.24 9.33669,-2.93651 13.75,-5.08985 z m 58.08985,6.25977 c 0.28666,-0.007 0.42659,0.13016 0.41992,0.41016 l -0.0606,4.40039 a 0.64,0.64 0 0 1 -0.7207,0.6289 c -3.61,-0.48 -10.03922,-2.31054 -12.44922,1.18946 -3.33,4.83997 -8.8693,12.21065 -7.0293,18.39062 2.07333,6.97997 6.78847,9.61682 14.14844,7.91016 2.55,-0.6 5.36151,-2.52063 8.27148,-3.39063 0.47334,-0.14 0.70899,0.0348 0.70899,0.52149 l 0.0312,2.44922 a 0.91,0.91 0 0 1 -0.41016,0.75976 l -7.52148,5.07031 a 1.34,1.32 32.4 0 1 -0.96875,0.20899 l -13.67969,-2.17969 c -0.30667,-0.0467 -0.53497,-0.21023 -0.68164,-0.49023 l -6.53906,-12.45899 a 3.65,3.65 0 0 1 0.30078,-3.84961 l 13.22852,-17.90039 c 0.68664,-0.92666 1.60643,-1.40302 2.75976,-1.42969 z m -47.66993,27.98047 c 3.47333,-0.0333 6.91677,-0.007 10.33008,0.0801 0.3,0.007 0.50581,0.14971 0.61914,0.42968 4.8,11.21331 7.70737,21.49941 8.72071,30.85938 0.37,3.39 -9.67008,7.89969 -12.83008,9.17969 -6.62664,2.66664 -13.33755,5.29419 -20.13086,7.88086 -0.72667,0.28 -1.18867,0.0424 -1.38867,-0.71094 -1.64667,-6.16664 -3.78855,-12.3725 -6.42188,-18.61914 -1.72,-4.09 -3.74927,-9.5912 -0.0293,-12.95117 5.3133,-4.78 9.52109,-8.82844 12.62109,-12.14844 2.61,-2.81 4.41979,-3.95 8.50976,-4 z m -8.95117,52.04883 c 0.42667,-0.1 0.6612,0.0698 0.70117,0.50976 1.96667,23.73994 2.61899,47.51991 1.95899,71.33985 -0.0133,0.60666 -0.28698,0.77023 -0.82031,0.49023 -3.82,-2.00666 -7.55258,-4.38534 -11.19922,-7.13867 -2.36,-1.78 -2.24,-3.08086 -2.75,-6.38086 -0.79333,-5.12664 -1.60612,-10.24917 -2.43946,-15.36914 -0.89997,-5.52 0.0893,-8.32016 1.7793,-13.41016 2.59333,-7.8133 4.82279,-17.18471 6.68946,-28.11132 0.06,-0.34 0.25651,-0.54891 0.58984,-0.62891 z m 260.69727,0.23633 c 1.705,0.13875 2.77312,1.15492 3.20312,3.04492 2.58667,11.30663 5.50024,20.71831 8.74024,28.23828 1.50666,3.50666 2.0869,6.50667 1.74023,9 -1.09333,7.8333 -2.20341,15.38683 -3.33008,22.66016 a 3.38,3.39 78.4 0 1 -1.56054,2.35156 l -12.16016,7.52929 a 0.52,0.52 0 0 1 -0.79883,-0.45117 c 0.04,-7.67997 -0.51148,-16.49883 -0.52148,-23.04883 -0.0133,-16.24661 0.75411,-32.46068 2.30078,-48.64062 0.0267,-0.29333 0.18404,-0.4693 0.4707,-0.5293 0.71,-0.14833 1.34769,-0.20054 1.91602,-0.15429 z m -214.92578,1.40429 a 1.55,1.55 0 0 1 1.9082,1.35938 c 0.56,5.76997 0.96141,11.13961 0.94141,17.09961 -0.0667,23.81325 -0.37636,47.77737 -0.92969,71.89062 -0.02,0.74 -0.37078,0.96636 -1.05078,0.67969 l -13,-5.44922 a 1.85,1.83 8.3 0 1 -1.11914,-1.49023 c -1.28667,-11.08664 -2.31847,-22.30686 -3.0918,-33.66016 -0.2,-2.84 -0.34984,-5.65047 0.41016,-8.48047 3.13997,-11.56663 6.14312,-23.16862 9.00976,-34.80859 0.95333,-3.86 3.26188,-6.24063 6.92188,-7.14063 z m 165.60351,0.33203 a 0.87,0.88 18.3 0 1 0.79493,0.008 c 3.00664,1.59997 5.11364,3.96318 6.32031,7.08984 4.13331,10.6933 8.17753,21.42282 12.13086,32.18945 0.88,2.4 1.21851,4.4211 0.97851,7.1211 -1.10666,12.46661 -2.26518,24.90701 -3.47851,37.32031 a 2.45,2.46 82.8 0 1 -1.61133,2.06836 l -12.70899,4.62109 A 0.74,0.74 0 0 1 597.5,765.90039 C 596.70667,739.00048 595.90628,712.03325 595.09961,685 c -0.0867,-2.86 0.0769,-5.59255 0.49023,-8.19922 a 0.87,0.88 18.3 0 1 0.47461,-0.64844 z m 10.60547,103.56836 a 1.31,1.29 80.5 0 1 0.83985,0.60938 c 4.81997,8.13997 8.17049,17.72018 11.98046,26.41015 1.15,2.62 3.65891,8.24032 -1.12109,9.57032 -1.98,0.54 -4.56008,-1.16133 -6.08008,-2.11133 -6.1733,-3.88666 -12.29893,-7.58938 -18.3789,-11.10938 a 0.66,0.66 0 0 0 -0.98047,0.71094 c 1.02,4.93333 2.31419,9.73683 3.88086,14.41016 0.62666,1.88 0.8088,3.32146 0.54883,4.32812 -0.83,3.26 -6.16032,4.31013 -7.57032,0.16016 -4.91997,-14.50663 -8.08161,-24.17644 -9.48828,-29.00977 -0.86,-2.94664 -0.13984,-4.88698 2.16016,-5.82031 2.04,-0.82 4.03922,0.36047 5.69922,1.48047 6.02664,4.04 12.08948,8.19739 18.18945,12.4707 a 0.39,0.39 0 0 0 0.61133,-0.40039 c -0.88,-4.21997 -2.25753,-8.35992 -4.13086,-12.41992 -0.89333,-1.92666 -1.43248,-4.17667 -1.61914,-6.75 -0.02,-0.3 0.0695,-0.5624 0.26953,-0.78906 1.40666,-1.59333 3.13612,-2.17357 5.18945,-1.74024 z m -172.00586,2.05469 c 0.91,-0.25 1.87959,-0.21948 2.90625,0.0937 0.33334,0.1 0.59573,0.29341 0.78907,0.58008 1.03331,1.52 1.52093,3.20412 1.46093,5.05078 -0.30666,10.26664 -0.41984,20.53414 -0.33984,30.80078 0.03,3.67 -0.91073,5.30987 -4.7207,5.33984 -4.86,0.04 -1.2505,-7.70976 -6.73047,-9.25976 -2.93333,-0.82 -5.69883,-2.03086 -8.29883,-3.63086 a 0.86,0.86 0 0 0 -1.01953,0.0801 l -4.57032,3.98047 a 0.28,0.28 0 0 1 -0.16992,0.0801 c -3.92997,0.37 -7.47976,-3.10062 -4.25976,-6.89062 7.17997,-8.4733 14.64511,-16.68422 22.39844,-24.63086 0.79331,-0.81333 1.64468,-1.34375 2.55468,-1.59375 z m 32.5,10.83984 c 1.96074,0.14606 4.01899,0.64469 6.14649,1.55469 1.26666,0.54 2.28526,1.16753 3.05859,1.88086 a 1.02,0.99 28.4 0 1 0.30078,0.95899 c -0.65333,2.85331 -1.87039,5.45101 -3.65039,7.79101 -0.23333,0.30667 -0.51318,0.36326 -0.83984,0.16992 -3.87,-2.23997 -8.93969,-2.93976 -12.42969,0.24024 -2.85,2.58997 -3.63062,6.54953 -1.64062,10.01953 2.37331,4.11331 6.26018,5.75015 11.66015,4.91015 0.32667,-0.0467 0.51698,0.0964 0.57031,0.42969 0.64,4.44 -0.06,10.82875 -6,10.21875 -6.70664,-0.69333 -11.42992,-4.11312 -14.16992,-10.25976 -5.66997,-12.72247 3.269,-28.93643 16.99414,-27.91407 z m 84.42774,1.42774 a 19.83,19.37 27 0 1 10.01172,2.1875 19.83,19.37 27 0 1 8.875,26.26172 19.83,19.37 27 0 1 -26.4629,8.25586 19.83,19.37 27 0 1 -8.875,-26.25977 19.83,19.37 27 0 1 16.45118,-10.44531 z M 489,795.75 c 5.76664,0.57333 11.53414,1.16906 17.30078,1.78906 0.33333,0.04 0.5155,0.22722 0.54883,0.56055 0.23333,2.7 -0.22248,5.28026 -1.36914,7.74023 -0.15333,0.33334 -0.41458,0.4969 -0.78125,0.49024 l -6.17969,-0.041 c -0.33333,0 -0.51859,0.16357 -0.55859,0.49024 -1.00667,7.3733 -1.50667,14.78381 -1.5,22.23047 0,1.37331 -0.2911,2.61093 -0.8711,3.71093 -1.46997,2.77 -4.85057,2.68961 -6.81054,0.59961 -0.24,-0.25333 -0.36868,-0.55372 -0.38868,-0.90039 -0.59997,-8.42997 0.91993,-17.53034 1.41993,-26.07031 a 1.2,1.2 0 0 0 -0.95117,-1.24023 l -6.70899,-1.37891 a 1.47,1.48 9 0 1 -1.16992,-1.61133 l 0.63867,-5.67969 c 0.0467,-0.40666 0.27497,-0.62992 0.68164,-0.66992 2.26,-0.23333 4.49256,-0.23959 6.69922,-0.0195 z m 29.93359,1.52734 a 3.19,3.19 0 0 1 3.3418,3.0293 l 1.58008,32.28125 a 3.19,3.19 0 0 1 -3.03125,3.3418 l -1.49805,0.0742 a 3.19,3.19 0 0 1 -3.34179,-3.03125 l -1.57813,-32.28125 a 3.19,3.19 0 0 1 3.0293,-3.3418 z" />
    <ellipse
       cx="0.00"
       cy="0.00"
       transform="translate(531.40,216.06) rotate(92.6)"
       rx="2.79"
       ry="1.72"
       id="ellipse866" />
    <ellipse
       cx="0.00"
       cy="0.00"
       transform="translate(403.29,236.16) rotate(41.3)"
       rx="2.07"
       ry="1.61"
       id="ellipse870" />
    <path
       id="path872"
       d="m 548.53906,389.69922 c -1.85333,1.75333 -2.44286,4.07737 -1.76953,6.9707 1.95,8.40999 14.27055,4.55046 14.31055,-3.01953 0.007,-2.16666 -0.47589,-2.77984 -1.44922,-1.83984 -0.5,4.12666 -2.90118,6.27588 -7.20117,6.44922 -4.38666,0.17333 -5.68396,-2.68056 -3.89063,-8.56055 z" />
    <path
       id="path874"
       d="m 598.2793,400.05078 c 0.40666,4.24666 -0.96271,7.19938 -4.10938,8.85938 -3.71333,1.94666 -6.68039,0.93736 -8.90039,-3.0293 -0.20667,3.65333 1.29644,5.84169 4.50977,6.56836 2.31333,0.52666 4.49435,0.0616 6.54101,-1.39844 3.67333,-2.60666 4.32565,-6.27334 1.95899,-11 z" />
    <path
       id="ellipse876"
       transform="translate(535.79,420.65) rotate(-35.4)"
       d="M 4.2071158,-2.9208497 A 5.9499998,4.1300001 -180 0 0 8.9297182e-4,-4.1297568 5.9499998,4.1300001 -180 0 0 -5.9509779,4.4995924e-4 5.9499998,4.1300001 -180 0 0 -1.5044483e-4,4.1288469 5.9499998,4.1300001 -180 0 0 5.9505891,2.3211569e-4 5.9499998,4.1300001 -180 0 0 4.2071158,-2.9208497 Z" />
    <path
       id="path878"
       d="m 677.24609,609.5625 c -5.64352,-0.0774 -11.3557,4.63782 -13.62695,9.72656 0.1,5.05 0.0116,12.58086 3.85156,14.38086 7.88,3.69333 15.6959,4.01427 23.44922,0.96094 1.49333,-9.34666 -0.93573,-16.85173 -7.28906,-22.51172 -1.97719,-1.76344 -4.17643,-2.52634 -6.38477,-2.55664 z" />
    <path
       id="path880"
       d="m 641.69531,615.02344 c -0.92966,0.014 -1.9482,0.093 -3.06445,0.24609 -4.68,0.64 -9.33428,1.45784 -13.96094,2.45117 -5.28999,1.14 -7.30937,4.79977 -5.85937,10.00977 2.19999,7.93999 9.39883,12.82023 17.54883,11.49023 2.47999,-0.40666 4.7207,-1.60318 6.7207,-3.58984 6.19687,-6.15937 12.56013,-20.81792 -1.38477,-20.60742 z" />
    <path
       d="   M 391.63 626.93   C 396.52 626.45 400.99 627.39 402.87 632.12   Q 406.80 642.05 407.90 652.65   A 0.94 0.92 -21.1 0 1 407.51 653.51   Q 406.65 654.12 405.49 654.68   Q 394.69 659.89 383.75 664.15   A 0.61 0.61 0.0 0 1 382.95 663.77   Q 379.93 654.38 376.93 645.00   Q 375.54 640.66 378.18 637.96   C 381.04 635.04 387.64 627.32 391.63 626.93   Z"
       id="path882" />
    <path
       id="path884"
       d="m 429.67773,799.0918 a 0.47,0.47 0 0 0 -0.41796,0.16797 l -3.44922,4.27929 a 0.6,0.6 0 0 0 0.20898,0.92188 l 3.29102,1.51953 a 1.03,1.03 0 0 0 1.44922,-1.06055 L 430.08984,799.5 a 0.47,0.47 0 0 0 -0.41211,-0.4082 z" />
    <path
       id="ellipse886"
       transform="translate(552.71,813.44) rotate(-5.8)"
       d="M 1.4420538,-9.4716659 A 10.13,9.5699997 -180 0 0 -7.9414181e-4,-9.5691456 10.13,9.5699997 -180 0 0 -10.128969,-7.0910471e-4 10.13,9.5699997 -180 0 0 6.295715e-4,9.5699927 10.13,9.5699997 -180 0 0 10.130945,-1.895655e-4 10.13,9.5699997 -180 0 0 1.4420538,-9.4716659 Z" />
  </g>
  <g
     fill="#cb1818"
     id="g916">
    <path
       id="path890"
       d="m 601.55859,329.18555 c -0.90003,0.004 -1.81898,0.1532 -2.67773,0.45507 -0.32667,0.11334 -0.57357,0.32224 -0.74024,0.62891 -0.93333,1.67333 -1.56395,3.75047 -1.89062,6.23047 -0.66,5.06666 -1.20419,10.29922 -1.63086,15.69922 a 3.89,3.88 89.7 0 1 -3.50976,3.56055 c -8.34,0.77999 -14.56994,0.63 -23.41993,4.25 -8.34666,3.41333 -15.98659,7.87729 -22.91992,13.39062 -15.73998,12.51999 -26.11984,26.3094 -24.08984,47.60938 1.6,16.85998 14.28095,28.43016 30.71093,31.91015 2.76,-0.38666 5.55845,-0.69325 8.39844,-0.91992 9.01999,-0.73 16.42056,-2.56993 24.31055,-7.16992 2.06666,-1.20667 5.34961,-3.57915 9.84961,-7.11914 17.22998,-13.55999 26.87109,-34.47088 24.37109,-56.38086 -0.68,-5.93 -3.04023,-11.92071 -5.24023,-17.7207 -3.76666,-2.35334 -7.88605,-4.50876 -12.35938,-6.46876 -0.9,-0.39333 -1.50698,-0.88403 -1.82031,-1.4707 -2.13,-3.94999 4.11875,-15.56063 6.71875,-19.14062 3.37187,-4.67187 -0.16039,-7.36229 -4.06055,-7.34375 z m -47.42382,56.79297 c 2.59077,-0.0139 4.98984,1.97328 5.49609,5.83203 0.97333,-0.94 1.45588,-0.32682 1.44922,1.83984 -0.04,7.56999 -12.36055,11.42952 -14.31055,3.01953 -0.67333,-2.89333 -0.0838,-5.21737 1.76953,-6.9707 1.44813,-2.48937 3.58066,-3.70992 5.59571,-3.7207 z m 38.7539,11.125 c 1.76042,0.0396 3.5573,1.02226 5.39063,2.94726 2.36666,4.72666 1.71434,8.39334 -1.95899,11 -2.04666,1.46 -4.22768,1.9251 -6.54101,1.39844 -3.21333,-0.72667 -4.71644,-2.91503 -4.50977,-6.56836 0.46667,-3.61333 1.96357,-6.22341 4.49024,-7.83008 1.02999,-0.655 2.07265,-0.97101 3.1289,-0.94726 z m -55.36133,18.72851 a 4.13,5.95 54.6 0 1 3.11328,1.37109 4.13,5.95 54.6 0 1 -2.45898,6.8125 4.13,5.95 54.6 0 1 -7.24219,0.082 4.13,5.95 54.6 0 1 2.45899,-6.81446 4.13,5.95 54.6 0 1 4.1289,-1.45117 z" />
    <path
       id="path892"
       d="m 633.82031,349.85938 c -2.43,0 -3.67992,0.70992 -4.91992,2.66992 -2.32666,3.66666 -4.20419,7.06474 -5.63086,10.1914 -0.74666,2.13333 -0.43698,3.3124 0.92969,3.53907 4.91333,-3.5 10.03157,-6.72946 15.35156,-9.68946 0.96,-0.53333 1.50534,-1.39341 1.63867,-2.58008 0.45,-3.95999 -4.61914,-4.14085 -7.36914,-4.13085 z" />
    <path
       id="path894"
       d="m 641.27148,384.18164 c -2.04794,0.007 -4.14953,0.11133 -6.30078,0.29883 -2.47999,0.93333 -2.75054,2.41589 -0.81054,4.44922 3.99999,2.32 7.19039,6.56992 10.40039,9.91992 1.48,1.54 3.22906,1.98977 5.03906,3.00977 1.37333,0.76666 2.73961,1.22442 4.09961,1.37109 3.35333,0.37333 6.71031,0.8024 10.07031,1.28906 1.97333,0.28667 5.71714,-0.21023 11.23047,-1.49023 0.24,-0.06 0.29969,-0.19683 0.17969,-0.41016 -7.85749,-13.80749 -19.57258,-18.48781 -33.90821,-18.4375 z" />
    <path
       id="path896"
       d="m 617.91016,463.01953 c -6.65333,1.61333 -13.29017,3.61024 -19.91016,5.99024 -0.57333,0.20666 -2.0342,0.39697 -4.38086,0.57031 -1.1,7.82999 -1.17883,17.90055 -1.54883,23.56054 -0.49333,7.61333 -0.91,15.44668 -1.25,23.5 l 10.62891,-5.75 a 2.27,2.27 0 0 1 2.99023,0.7793 c 0.9,1.40667 1.41435,3.18651 1.54102,5.33985 0.30667,5.07332 0.57526,10.15357 0.80859,15.24023 0.0933,2.04 0.48831,3.92992 1.18164,5.66992 a 1.21,1.21 0 0 0 1.5,0.69922 c 4.15,-1.38 7.36024,-5.22875 11.49024,-7.21875 l -2.31055,-38.41992 A 0.86,0.85 68.4 0 0 617.25,492.36914 c -3.86666,3.23333 -8.30079,5.08412 -13.30078,5.55078 -6.70999,0.63 -9.25,-9.82063 -9.25,-14.64062 -0.01,-7.36 9.07102,-11.87868 15.29101,-12.13868 4.59,-0.19999 6.48024,5.84915 7.74024,9.36915 a 0.19,0.2 34.8 0 0 0.37891,-0.0703 z" />
    <path
       id="path898"
       d="m 593.67969,526.00977 c -1.11667,0.0267 -2.23295,0.18403 -3.34961,0.4707 l -0.13086,7.19922 a 0.72,0.73 9 0 0 0.51172,0.71093 c 7.94999,2.57 6.44999,12.71024 1.5,17.24024 -0.27334,0.24667 -0.59427,0.3424 -0.96094,0.28906 l -1.91992,-0.26953 a 0.69,0.69 0 0 0 -0.7793,0.53906 c -0.45333,2.16667 -0.50062,4.22326 -0.14062,6.16993 3.34999,0.39999 8.34945,2.41077 10.43945,-1.19922 2.6,-4.49 5.31015,-8.3797 3.91016,-13.92969 -1.39334,-5.48 -3.0755,-10.92032 -5.04883,-16.32031 -0.12,-0.32667 -0.34831,-0.52318 -0.68164,-0.58985 -1.11667,-0.23333 -2.23295,-0.33721 -3.34961,-0.31054 z" />
    <path
       id="path900"
       d="m 519.57227,540.61719 c -0.30688,-0.002 -0.62058,0.0152 -0.94141,0.0527 -8.31999,0.97 -11.41078,12.01048 -13.30078,18.48047 a 0.57,0.57 0 0 1 -1.01953,0.16992 c -1.62,-2.31 -3.69133,-4.54937 -6.61133,-4.85937 -3.42,-0.36 -5.59597,1.32216 -6.5293,5.04883 -1.72,6.87999 1.37087,12.21024 5.38086,18.74023 3.76,6.13999 7.99844,11.36094 10.64844,18.21094 a 0.33,0.34 62.2 0 0 0.5,0.14844 c 0.15333,-0.11334 0.30141,-0.23581 0.4414,-0.36915 0.12,-0.13333 0.20954,-0.2969 0.26954,-0.49023 2.59999,-8.86999 3.40992,-16.08063 8.91992,-24.89062 5.17999,-8.28 13.78015,-19.23033 7.66015,-27.32032 -1.46416,-1.93666 -3.26984,-2.90948 -5.41796,-2.92187 z" />
    <path
       id="path902"
       d="m 621.80078,542.23047 c -3.41333,0.94 -6.46992,2.38031 -9.16992,4.32031 -1.86667,1.34 -3.65776,3.40589 -5.37109,6.19922 -5.28,8.58999 -15.31953,23.15095 -8.26954,31.96094 4.77,5.97999 14.9204,5.1386 17.15039,14.05859 0.84,3.34666 1.63225,6.59357 2.37891,9.74024 a 1.2,1.2 0 0 0 1.23047,0.91992 c 4.79,-0.24 15.01914,-0.94985 18.86914,-4.08985 a 1.23,1.2 70.8 0 0 0.44141,-0.93945 c 0.007,-5.73333 -0.75459,-11.54613 -2.28125,-17.43945 -1.00667,-1.49333 -2.45938,-2.30808 -4.35938,-2.44141 a 1.23,1.19 25.7 0 0 -0.90039,0.30078 c -6.32999,5.67 -17.50915,7.56906 -24.36914,1.53907 -2.8,-2.47 -2.35976,-5.15938 -2.00977,-8.60938 0.47334,-4.7 1.26248,-9.00349 2.36915,-12.91016 2.23999,-7.95999 4.63055,-14.7907 14.56054,-10.9707 0.35334,0.13333 0.52,0.0109 0.5,-0.36914 z" />
    <path
       id="path904"
       d="m 711.28516,547.03516 a 2,2 0 0 0 -2.25586,1.43554 c -0.41334,1.47333 -1.5955,2.46209 -3.54883,2.96875 -1.82,1.52667 -3.8611,2.72008 -6.12109,3.58008 -3.18,1.22 -3.44954,2.41071 -4.01954,5.4707 -0.79333,4.22667 -0.62046,7.78326 0.51954,10.66993 3.62666,0.98666 6.67086,1.43007 9.13085,1.33007 1.37334,-0.0533 2.40318,-0.77349 3.08985,-2.16015 a 1.72,1.75 85.3 0 1 0.58008,-0.66992 c 5.69332,-3.96 8.0658,-9.39413 7.11914,-16.30078 -0.33,-2.38 -1.83977,-3.81962 -3.25977,-5.59961 a 2,2 0 0 0 -1.23437,-0.72461 z" />
    <path
       id="path906"
       d="m 587.98047,561.93945 -1.92969,18.55078 c 3.71,-4.75999 8.38968,-14.43078 1.92969,-18.55078 z" />
    <path
       id="path908"
       d="m 586.14062,583.76953 -3.05078,39.34961 c 4.65333,0.89333 9.20683,1.02086 13.66016,0.38086 7.05999,-1.01 8.26086,-8.74008 10.13086,-14.33008 0.83333,-2.49333 1.49185,-5.02938 1.97852,-7.60937 a 2.49,2.5 22.8 0 0 -1.00977,-2.49024 z" />
    <path
       id="path910"
       d="m 647.05078,598.09961 c 0.85333,4.58666 3.15178,8.18125 6.89844,10.78125 a 1.06,1.07 43 0 0 1.27148,-0.0508 c 2.8,-2.25333 5.21357,-5.01264 7.24024,-8.2793 -6.28,1.28667 -11.41683,0.46883 -15.41016,-2.45117 z" />
    <path
       id="path912"
       d="m 674.38086,600.81055 c -4.45333,2.44666 -8.05412,5.61333 -10.80078,9.5 -1.83333,2.59999 -1.82094,5.59185 0.0391,8.97851 3.16,-7.07999 12.98173,-13.43991 20.01172,-7.16992 6.35333,5.65999 8.78239,13.16506 7.28906,22.51172 0.88667,-0.54 1.56768,-0.33419 2.04102,0.61914 0.72666,1.46667 1.14953,2.83604 1.26953,4.10938 l 2.73047,-1.75977 c -1.17333,-7.83999 -2.70008,-13.75047 -4.58008,-17.73047 -3.55333,-7.51333 -9.55334,-13.86526 -18,-19.05859 z" />
    <path
       id="path914"
       d="m 643.24805,611.3418 c -2.04656,-0.0419 -4.13969,0.24336 -6.11719,0.81836 -3.52,1.02 -8.17738,2.09403 -13.9707,3.2207 -2.4,0.46 -4.28683,1.04333 -5.66016,1.75 -8.28999,4.27 -12.05978,13.44844 -23.00977,12.14844 -3.97332,-0.47334 -7.97023,-0.96209 -11.99023,-1.46875 -2.7,27.6933 -4.36357,48.33946 -4.99023,61.93945 -0.47334,10.11332 -0.0206,22.95908 1.35937,38.53906 0.93333,-0.1 1.48992,-0.6093 1.66992,-1.52929 1.31,-6.72 2.65032,-12.66032 3.82032,-20.07032 1.04666,-6.67999 2.64745,-13.4455 4.80078,-20.29883 l 0.17968,-16.04101 c 0,-0.42 0.21086,-0.64016 0.63086,-0.66016 8.67999,-0.38 14.4455,3.47079 17.29883,11.55078 4.12666,11.68666 8.47745,23.29056 13.05078,34.81055 0.72,1.81333 0.95565,4.46256 0.70899,7.94922 -0.58667,8.36666 -1.25644,16.70311 -2.00977,25.00977 l 0.88086,0.0508 c 0.30667,0.0133 0.49698,-0.12659 0.57031,-0.41993 1.76,-6.59999 4.4493,-13.2407 5.7793,-19.4707 1.75333,-8.20666 3.19365,-16.46597 4.32031,-24.7793 1.12,-8.30999 1.16063,-17.07141 1.39063,-25.6914 0.0133,-0.34667 0.16875,-0.60287 0.46875,-0.76953 l 4.96093,-2.66016 4.21876,-17.74023 c 0.08,-0.34667 0.29395,-0.56993 0.64062,-0.66992 4.59,-1.33 6.45039,1.51969 7.40039,5.67968 2.37333,10.41999 5.02256,20.7677 7.94922,31.04102 1.86,6.51999 7.52,14.53907 6.5,21.28906 -0.93333,6.19999 -1.82326,12.488 -2.66992,18.86133 -0.1,0.72 0.16435,0.89286 0.79101,0.51953 6.70666,-3.95333 13.03691,-8.69714 18.99024,-14.23047 0.96,-6.96666 1.73169,-13.94922 2.31836,-20.94922 0.61333,-7.41332 1.35403,-13.75287 2.2207,-19.01953 2.14666,-13.07999 4.35248,-26.24668 6.61914,-39.5 -10.24999,3.39 -23.27946,6.3396 -33.18945,0.0996 a 1.64,1.56 6.4 0 1 -0.62891,-0.75 c -2.14,-5.17999 -1.85031,-12.75016 -2.57031,-18.41016 -0.8775,-6.95999 -6.59274,-10.02281 -12.73242,-10.14843 z m -1.55274,3.68164 c 13.9449,-0.2105 7.58164,14.44805 1.38477,20.60742 -2,1.98666 -4.24071,3.18318 -6.7207,3.58984 -8.15,1.33 -15.34884,-3.55024 -17.54883,-11.49023 -1.45,-5.21 0.56938,-8.86977 5.85937,-10.00977 4.62666,-0.99333 9.28094,-1.81117 13.96094,-2.45117 1.11625,-0.15312 2.13479,-0.23206 3.06445,-0.24609 z" />
  </g>
  <g
     fill="#f2c17a"
     id="g974">
    <path
       id="path970"
       d="m 616.60156,444.11523 c -0.10312,0.0213 -0.23312,0.11993 -0.39062,0.29493 -1.86,2.07333 -3.18404,4.44271 -3.97071,7.10937 -2.17999,7.43999 -10.67938,9.45133 -17.35937,11.36133 a 1.91,1.92 81.2 0 0 -1.39063,1.88867 l 0.12891,4.81055 c 2.34666,-0.17334 3.80753,-0.36365 4.38086,-0.57031 6.61999,-2.38 13.25683,-4.37691 19.91016,-5.99024 l -1.01954,-18.36914 c -0.0208,-0.39167 -0.11718,-0.57057 -0.28906,-0.53516 z" />
    <path
       id="path972"
       d="m 603.09766,510.69336 a 2.27,2.27 0 0 0 -1.64844,0.19726 l -10.62891,5.75 -0.49023,9.83985 c 2.23333,-0.57333 4.46589,-0.62682 6.69922,-0.16016 0.33333,0.0667 0.56164,0.26318 0.68164,0.58985 1.97333,5.39999 3.65549,10.84031 5.04883,16.32031 1.39999,5.54999 -1.31016,9.43969 -3.91016,13.92969 -2.09,3.60999 -7.08946,1.59921 -10.43945,1.19922 -0.96667,0.79333 -1.10969,1.98674 -0.42969,3.58007 6.45999,4.12 1.78031,13.79079 -1.92969,18.55078 l 0.0898,3.2793 21.70899,15.30078 a 2.49,2.5 22.8 0 1 1.00977,2.49024 c -0.48667,2.57999 -1.14519,5.11604 -1.97852,7.60937 -1.87,5.59 -3.07087,13.32008 -10.13086,14.33008 -4.45333,0.64 -9.00683,0.51247 -13.66016,-0.38086 L 582.5,627.81055 c 4.02,0.50666 8.01691,0.99541 11.99023,1.46875 10.94999,1.3 14.71978,-7.87844 23.00977,-12.14844 1.37333,-0.70667 3.26016,-1.29 5.66016,-1.75 5.79332,-1.12667 10.4507,-2.2007 13.9707,-3.2207 7.90999,-2.3 17.67961,0.0501 18.84961,9.33007 0.72,5.66 0.43031,13.23017 2.57031,18.41016 a 1.64,1.56 6.4 0 0 0.62891,0.75 c 9.90999,6.23999 22.93946,3.29039 33.18945,-0.0996 0.67333,-0.14 1.29466,-0.53807 1.86133,-1.1914 -0.12,-1.27334 -0.54287,-2.64271 -1.26953,-4.10938 -0.47334,-0.95333 -1.15435,-1.15914 -2.04102,-0.61914 -7.75332,3.05333 -15.56922,2.73239 -23.44922,-0.96094 -3.83999,-1.8 -3.75156,-9.33086 -3.85156,-14.38086 -1.86,-3.38666 -1.87239,-6.37852 -0.0391,-8.97851 2.74666,-3.88667 6.34745,-7.05334 10.80078,-9.5 -2.58,-2.31333 -5.24047,-3.53659 -7.98047,-3.66993 A 1.27,1.23 22.9 0 0 665.4707,597.5 l -3.00976,3.05078 c -2.02667,3.26666 -4.44024,6.02597 -7.24024,8.2793 a 1.06,1.07 43 0 1 -1.27148,0.0508 c -3.74666,-2.6 -6.04511,-6.19459 -6.89844,-10.78125 l -2.88086,-9 c -0.1,-0.32667 -0.30581,-0.56232 -0.61914,-0.70899 -1.84,-0.86666 -4.09815,-1.34302 -6.77148,-1.42968 1.52666,5.89332 2.28791,11.70612 2.28125,17.43945 a 1.23,1.2 70.8 0 1 -0.44141,0.93945 c -3.85,3.14 -14.07914,3.84985 -18.86914,4.08985 a 1.2,1.2 0 0 1 -1.23047,-0.91992 c -0.74666,-3.14667 -1.53891,-6.39358 -2.37891,-9.74024 -2.22999,-8.91999 -12.38039,-8.0786 -17.15039,-14.05859 -7.04999,-8.80999 2.98954,-23.37095 8.26954,-31.96094 1.71333,-2.79333 3.50442,-4.85922 5.37109,-6.19922 2.7,-1.94 5.75659,-3.38031 9.16992,-4.32031 l -0.83984,-10.83008 c -4.13,1.99 -7.34024,5.83875 -11.49024,7.21875 a 1.21,1.21 0 0 1 -1.5,-0.69922 c -0.69333,-1.74 -1.0883,-3.62992 -1.18164,-5.66992 -0.23333,-5.08666 -0.50192,-10.16691 -0.80859,-15.24023 -0.12667,-2.15334 -0.64102,-3.93318 -1.54102,-5.33985 a 2.27,2.27 0 0 0 -1.34179,-0.97656 z" />
  </g>
  <g
     fill="#790f11"
     id="g992">
    <path
       id="path982"
       d="m 623.26953,362.7207 -3.41992,2.97852 a 0.91,0.92 35.6 0 1 -0.92969,0.16016 l -5.83984,-2.25 c 2.2,5.79999 4.56023,11.7907 5.24023,17.7207 2.5,21.90998 -7.14111,42.82087 -24.37109,56.38086 -4.5,3.53999 -7.78295,5.91247 -9.84961,7.11914 -7.88999,4.59999 -15.29056,6.43992 -24.31055,7.16992 -2.83999,0.22667 -5.63844,0.53326 -8.39844,0.91992 10.50666,2.39333 21.00358,2.47047 31.49024,0.23047 6.36666,-1.36 12.36977,-3.79722 18.00976,-7.31055 10.19999,-6.35999 21.5286,-16.84954 26.3086,-27.76953 3.88999,-8.88999 4.17984,-18.98969 3.33984,-28.42969 -0.0333,-0.37333 0.12714,-0.62023 0.48047,-0.74023 0.84667,-0.28 1.89396,-0.2707 3.14063,0.0293 -1.94,-2.03333 -1.66945,-3.51589 0.81054,-4.44922 l -4.49023,-0.11133 a 2.25,2.24 79.7 0 1 -2.04102,-1.41992 c -1.64666,-4.08 -3.31643,-8.19938 -5.00976,-12.35938 -0.58,-1.40666 -0.3238,-2.85008 0.76953,-4.33007 -1.36667,-0.22667 -1.67635,-1.40574 -0.92969,-3.53907 z" />
    <path
       id="path984"
       d="m 713.44922,542.74414 a 0.5,0.5 0 0 0 -0.2793,0.15625 l -7.68945,8.53906 c 1.95333,-0.50666 3.13549,-1.49542 3.54883,-2.96875 a 2,2 0 0 1 3.49023,-0.71093 c 1.42,1.77999 2.92977,3.21961 3.25977,5.59961 0.94666,6.90665 -1.42582,12.34078 -7.11914,16.30078 a 1.72,1.75 85.3 0 0 -0.58008,0.66992 c -0.68667,1.38666 -1.71651,2.10682 -3.08985,2.16015 -2.45999,0.1 -5.50419,-0.34341 -9.13085,-1.33007 3.17999,5.02999 8.54031,8.62991 14.32031,5.41992 10.04999,-5.56 9.91117,-13.25915 7.45117,-23.36914 -0.86,-3.53333 -2.07396,-6.93141 -3.64063,-10.19141 a 0.5,0.5 0 0 0 -0.54101,-0.27539 z" />
    <path
       id="path986"
       d="m 696.96094,637.59961 -2.73047,1.75977 c -0.56667,0.65333 -1.188,1.0514 -1.86133,1.1914 -2.26666,13.25332 -4.47248,26.42001 -6.61914,39.5 -0.86667,5.26666 -1.60737,11.60621 -2.2207,19.01953 -0.58667,7 -1.35836,13.98256 -2.31836,20.94922 3.89999,-2.74 7.45969,-5.86558 10.67968,-9.37891 a 1.7,1.7 0 0 0 0.42969,-0.89062 c 0.97,-6.42999 1.38883,-13.44985 2.29883,-19.33984 2.75,-17.65999 5.77179,-35.04057 2.3418,-52.81055 z" />
    <path
       id="path988"
       d="m 637.39062,675.26953 -4.96093,2.66016 c -0.3,0.16666 -0.45542,0.42286 -0.46875,0.76953 -0.23,8.61999 -0.27063,17.38141 -1.39063,25.6914 -1.12666,8.31333 -2.56698,16.57264 -4.32031,24.7793 -1.33,6.23 -4.0193,12.87071 -5.7793,19.4707 -0.0733,0.29334 -0.26364,0.43326 -0.57031,0.41993 l -0.88086,-0.0508 -0.58008,8.05078 a 0.6,0.6 0 0 0 0.66993,0.63867 c 4.95999,-0.64 10.00023,-4.49008 14.74023,-6.33008 2.47,-0.96 2.10101,-3.32899 2.04101,-5.70898 -0.49999,-21.52665 -0.26434,-43.04104 0.70899,-64.54102 0.0467,-1.06666 0.31102,-3.01628 0.79101,-5.84961 z" />
    <path
       id="path990"
       d="m 589.16016,686.39062 c -2.15333,6.85333 -3.75412,13.61884 -4.80078,20.29883 -1.17,7.41 -2.51032,13.35032 -3.82032,20.07032 -0.18,0.91999 -0.73659,1.42929 -1.66992,1.52929 l 0.60156,21.36133 a 0.58,0.57 87.1 0 0 0.60938,0.56055 l 11.70898,-0.80078 a 0.58,0.58 0 0 0 0.54102,-0.57032 c 0.18666,-8.87332 -0.0335,-17.73032 -0.66016,-26.57031 -0.28666,-4.02666 -0.54596,-9.54527 -0.7793,-16.55859 -0.20666,-6.36 -0.7838,-12.80032 -1.73046,-19.32032 z" />
  </g>
</svg>
