<?xml version="1.0" encoding="UTF-8" standalone="no"?>
<!-- Created with Inkscape (http://www.inkscape.org/) -->

<svg
   width="512"
   height="512"
   viewBox="0 0 135.46667 135.46667"
   version="1.1"
   id="svg5"
   xml:space="preserve"
   inkscape:version="1.2.2 (b0a8486541, 2022-12-01)"
   sodipodi:docname="µBER_a.svg"
   xmlns:inkscape="http://www.inkscape.org/namespaces/inkscape"
   xmlns:sodipodi="http://sodipodi.sourceforge.net/DTD/sodipodi-0.dtd"
   xmlns="http://www.w3.org/2000/svg"
   xmlns:svg="http://www.w3.org/2000/svg"><sodipodi:namedview
     id="namedview7"
     pagecolor="#505050"
     bordercolor="#eeeeee"
     borderopacity="1"
     inkscape:showpageshadow="0"
     inkscape:pageopacity="0"
     inkscape:pagecheckerboard="0"
     inkscape:deskcolor="#505050"
     inkscape:document-units="mm"
     showgrid="false"
     showguides="true"
     inkscape:zoom="1.4096526"
     inkscape:cx="150.39167"
     inkscape:cy="218.49355"
     inkscape:window-width="1920"
     inkscape:window-height="1011"
     inkscape:window-x="0"
     inkscape:window-y="0"
     inkscape:window-maximized="1"
     inkscape:current-layer="layer1" /><defs
     id="defs2" /><g
     inkscape:label="Layer 1"
     inkscape:groupmode="layer"
     id="layer1"><circle
       style="fill:#000000;stroke-width:0.384732"
       id="path111"
       cx="67.73333"
       cy="67.73333"
       r="67.73333" /><circle
       style="fill:#ffffff;stroke-width:0.366698"
       id="path111-3"
       cx="67.733337"
       cy="67.733337"
       r="64.558334" /><path
       style="fill:#cccccc;stroke-width:0.613485"
       d="m 56.568329,98.96811 c -4.550465,-4.564978 -8.631673,-8.299943 -9.069344,-8.299943 -0.437694,0 -2.157786,0.690173 -3.822445,1.533726 -1.66467,0.843542 -3.552088,1.533727 -4.194296,1.533727 -1.330315,0 -1.943674,-1.867918 -3.525411,-10.736066 -0.541631,-3.036767 -1.410981,-5.999346 -1.931879,-6.5835 -0.674055,-0.755912 -0.763227,-1.286486 -0.309381,-1.840461 0.711775,-0.868768 -0.49832,-9.376363 -1.456549,-10.240497 -0.300018,-0.27057 -3.858367,-2.889836 -7.907399,-5.820596 -4.049023,-2.93076 -7.86282,-5.741935 -8.475099,-6.247056 -1.973617,-1.628222 -1.014496,-2.847439 2.953705,-3.754648 2.024505,-0.462853 19.140852,-4.296242 38.036297,-8.518662 18.895456,-4.222412 39.32464,-8.809613 45.398162,-10.193782 13.54861,-3.087742 14.11884,-3.13206 14.08405,-1.094569 -0.0162,0.906305 -4.28191,8.172094 -10.42932,17.761346 -5.72171,8.925188 -16.762368,26.179557 -24.534819,38.343047 -9.871489,15.448394 -14.495128,22.167054 -15.337212,22.286664 -0.847302,0.12042 -3.663967,-2.29508 -9.479071,-8.12873 z m 20.68541,-14.764117 c 6.245996,-9.772754 15.68892,-24.532362 20.984303,-32.799118 5.295368,-8.266765 9.850358,-15.403111 10.122138,-15.858549 0.40878,-0.68488 0.24276,-0.695559 -0.96015,-0.06173 -3.24578,1.710175 -67.756383,39.446118 -68.324655,39.967011 -0.645946,0.592086 25.306674,26.898163 26.294281,26.652383 0.290268,-0.0723 5.638098,-8.12721 11.884083,-17.899964 z m -32.816415,5.467756 c 1.827473,-0.945021 1.867319,-1.039922 0.772519,-1.840453 -1.634328,-1.195065 -1.944825,-1.079106 -2.668359,0.996407 -0.744431,2.135538 -0.667666,2.169697 1.89584,0.844046 z m -3.847208,-6.595431 -1.365425,-1.303737 0.37709,1.533707 c 0.207312,0.843546 0.391881,2.223904 0.410006,3.067452 l 0.03301,1.533724 0.955397,-1.763693 c 0.901972,-1.665082 0.879041,-1.836604 -0.410006,-3.067453 z M 61.274151,58.076988 C 74.033835,50.611818 84.749618,44.247809 85.087038,43.934745 85.817163,43.257311 86.450656,42.99258 62.081206,53.548807 51.452528,58.15287 41.296348,62.521733 39.51194,63.25738 l -3.244362,1.337521 0.375105,2.453948 c 0.440255,2.880226 0.891658,4.601177 1.206855,4.601177 0.123813,0 10.664942,-6.10786 23.424601,-13.573038 z M 84.930498,39.908309 c 5.987469,-2.565725 10.79913,-4.752088 10.692642,-4.858581 -0.106426,-0.106476 -3.901055,0.643229 -8.432316,1.666061 -4.53127,1.022838 -21.192175,4.747541 -37.024254,8.277122 -15.832046,3.529577 -28.873059,6.504908 -28.979993,6.611844 -0.106897,0.106921 2.854903,2.417694 6.581867,5.134999 l 6.776268,4.940579 19.749771,-8.553536 C 65.156835,48.422347 78.943054,42.474025 84.930498,39.908309 Z"
       id="path1030-5"
       sodipodi:nodetypes="ssssssssssssscsssssssssssssccccsscsscsssscsssssscsscssssc" /><path
       class="st0"
       d="M 28.823352,109.49258 V 76.889005 h 12.508655 c 3.242985,0 5.501493,0.521194 7.065074,1.621491 1.795223,1.331941 2.66388,3.474627 2.66388,6.601791 0,2.721791 -0.810747,4.864476 -2.142686,6.485968 2.953433,1.274031 4.343283,3.99582 4.343283,8.281193 0,3.069252 -0.752837,5.327762 -2.316419,6.891342 -1.795223,1.85313 -4.690745,2.72179 -8.802385,2.72179 z m 12.914027,-5.5594 c 3.532539,0 4.748658,-1.15821 4.748658,-4.285373 0,-3.358806 -0.810747,-4.227463 -4.459105,-4.227463 h -6.60179 v 8.512836 z m -1.38985,-13.898507 c 3.127164,0 3.93791,-1.563582 3.93791,-3.822089 0,-2.721789 -0.579103,-3.879999 -3.474626,-3.879999 h -5.44358 v 7.702088 z"
       id="path857"
       style="fill:#e61900;stroke-width:0.579104" /><polygon
       class="st0"
       points="60.9,10 60.9,23.2 80.7,23.2 80.7,33.1 60.9,33.1 60.9,46.7 84.6,46.7 84.6,56.5 49.4,56.5 49.4,0.2 84.6,0.2 84.6,10 "
       id="polygon859"
       style="fill:#e61900"
       transform="matrix(0.57910438,0,0,0.57910438,28.823352,76.773183)" /><path
       class="st0"
       d="M 98.894983,109.49258 94.030506,96.926016 h -4.806567 v 12.566564 h -6.6597 V 76.889005 h 12.277014 c 3.879998,0 6.485967,0.694925 8.165367,2.142685 1.73732,1.505673 2.60597,3.879999 2.60597,7.354625 0,2.374329 -0.46328,4.401195 -1.44776,6.080597 -0.86865,1.505672 -2.08477,2.663881 -3.59044,3.474626 l 5.84895,13.551042 z M 93.914684,91.482436 c 1.911045,0 3.242986,-0.405375 3.99582,-1.21612 0.637016,-0.694925 0.926569,-1.737313 0.926569,-3.358807 0,-3.127163 -0.637016,-4.459102 -4.401195,-4.459102 h -5.154027 v 9.034029 z"
       id="path861"
       style="fill:#e61900;stroke-width:0.579104" /><path
       style="fill:#000000;stroke-width:0.0845153"
       d="m 106.65581,87.559657 c 0.18396,-0.04546 0.84952,-0.327775 1.47903,-0.627353 0.714,-0.339794 1.43067,-0.612229 1.90518,-0.724238 1.59332,-0.376103 2.10631,-0.66221 2.3964,-1.336542 0.42852,-0.996119 0.0322,-1.951574 -0.91534,-2.206722 -0.38819,-0.104535 -0.74866,-0.03597 -1.75817,0.334375 -0.9148,0.335602 -1.27538,0.335425 -1.65832,-6.42e-4 -0.4947,-0.434343 -0.60681,-0.914565 -0.56144,-2.404756 0.0839,-2.756568 0.0507,-3.487078 -0.19224,-4.225786 -0.59194,-1.799911 -0.53745,-2.872027 -2.78501,-4.017905 -0.55993,-0.285465 -1.05893,-0.595453 -1.10893,-0.688856 -0.0647,-0.120765 -0.0651,-0.491232 -0.002,-1.282226 0.0491,-0.611868 0.0892,-1.422218 0.0892,-1.800834 0,-0.559565 0.0289,-0.714566 0.15455,-0.82826 0.21588,-0.195359 0.31206,-0.182691 1.47598,0.194307 1.26738,0.410516 0.53994,0.266514 1.74355,0.267333 2.15077,0.0014 3.7648,-0.626651 5.23354,-2.036699 0.99146,-0.951838 1.58574,-2.193707 1.60011,-3.343702 0.005,-0.444574 -0.0246,-0.554726 -0.20479,-0.747614 -0.18721,-0.200449 -0.26044,-0.222215 -0.64277,-0.191051 -0.7375,0.06013 -1.62577,0.549621 -2.46853,1.360362 -0.46824,0.450464 -0.85319,0.74579 -1.06184,0.814651 -0.66766,0.220352 -1.5857,-0.05835 -3.43327,-1.042259 -0.7205,-0.383693 -1.56197,-0.802058 -1.86994,-0.929704 -1.08081,-0.447966 -1.16482,-0.715378 -0.39085,-1.24423 0.29052,-0.198511 1.35387,-0.921896 2.363,-1.607523 4.16882,-2.832404 5.88894,-4.371258 7.34067,-6.567114 0.63624,-0.962369 0.81531,-1.515417 0.71293,-2.201713 -0.12536,-0.840355 -0.1227,-1.387129 -0.84233,-1.404527 -0.57186,-0.01383 -1.62203,0.234461 -2.17851,0.285939 -0.64316,0.0595 -0.5873,-0.01976 -1.30129,1.389822 -0.51374,1.014255 -0.74203,1.370742 -1.10423,1.724364 -0.81674,0.797397 -2.5545,1.497944 -5.71669,2.304562 -1.65201,0.421396 -2.21908,0.494541 -2.62821,0.338988 -0.11961,-0.04546 -0.630019,-0.473329 -1.134239,-0.950801 -0.50424,-0.477465 -1.21252,-1.132126 -1.573966,-1.454795 -0.753892,-0.673014 -0.972299,-0.985418 -0.972742,-1.391402 -6.42e-4,-0.489027 0.459138,-0.83512 1.740038,-1.310087 1.741539,-0.645768 2.288189,-1.123936 2.659599,-2.326416 0.43593,-1.411387 0.3975,-2.868516 -0.09,-3.414472 l -0.23904,-0.267672 -1.295929,-0.04757 c -0.73241,-0.02689 -1.4053,-0.09346 -1.547456,-0.153083 -0.13835,-0.05801 -0.559848,-0.294549 -0.936661,-0.525631 -0.885271,-0.542891 -1.379358,-0.725691 -2.255798,-0.834601 -0.815417,-0.101326 -1.828231,-0.02116 -3.135544,0.248117 -0.640011,0.131836 -1.092666,0.166639 -1.957843,0.150531 -1.023208,-0.01904 -1.14663,-0.0054 -1.359701,0.153302 -0.650186,0.483457 -0.745599,1.101398 -0.318911,2.065406 l 0.243152,0.549354 -0.02607,2.197407 c -0.02706,2.280018 0.0273,2.835686 0.368033,3.760946 0.373666,1.01474 0.395145,1.188059 0.460806,3.718693 0.07388,2.84705 0.08641,2.918934 1.005768,5.769704 0.619955,1.92237 0.718374,2.450178 0.663681,3.559133 -0.03728,0.755783 -0.108615,1.066719 -0.613111,2.672378 -1.656082,5.270836 -1.856163,6.597713 -1.202451,7.974257 2.611516,2.955578 2.960346,1.489764 11.168386,2.453062 1.039409,0.521419 2.509269,3.187352 3.222479,4.114223 0.64503,0.83826 0.94636,1.600739 1.14118,2.887647 0.2648,1.74916 0.47343,2.30216 1.02171,2.708198 0.26297,0.194731 0.82663,0.255618 1.29494,0.139876 z"
       id="path1016"
       sodipodi:nodetypes="cssssscsssscscscsssssssssssssssssssscssscssssssssccsssscccssscc" /><path
       style="fill:#000000;fill-opacity:1;stroke-width:0.0456792"
       d="m 109.0782,51.169321 c -0.0126,-0.01721 -0.13467,-0.321448 -0.27137,-0.676063 l -0.24863,-0.644746 -0.70398,0.09671 c -0.38719,0.05316 -0.97135,0.122394 -1.29813,0.153772 l -0.59415,0.05705 0.35975,-1.413865 c 0.32881,-1.286962 0.32008,-1.278957 0.5882,-2.344413 0.0692,-0.275131 0.13465,-0.511994 0.14538,-0.526362 0.0108,-0.01437 0.19588,0.0043 0.41149,0.04145 0.21558,0.03717 0.41619,0.06406 0.44579,0.05977 0.0389,-0.0056 0.0295,-0.180064 -0.0344,-0.629679 l -0.0882,-0.621866 1.13657,-1.007324 c 0.62511,-0.554025 1.15195,-1.009553 1.17075,-1.012282 0.0188,-0.0027 0.49928,0.243009 1.06772,0.546085 0.56843,0.303077 1.35993,0.724911 1.75887,0.93741 0.39895,0.212499 1.16559,0.621807 1.70366,0.909573 0.53806,0.287765 2.07803,1.111371 3.42215,1.830229 l 2.44385,1.307019 -0.35141,0.08671 c -0.3369,0.08313 -5.00494,1.308641 -6.57556,1.726297 -2.6313,0.699713 -4.26049,1.126065 -4.35577,1.139893 -0.0605,0.0088 -0.12012,0.0019 -0.13263,-0.01537 z m 4.02574,-1.290973 c 4.67555,-1.229528 4.58333,-1.204731 4.60912,-1.239293 0.0123,-0.01655 -0.50164,0.04598 -1.14221,0.138944 -0.64057,0.09296 -2.63246,0.359774 -4.4264,0.592907 -1.79396,0.233135 -3.26937,0.434097 -3.2787,0.446587 -0.0151,0.02022 0.31093,0.888993 0.38609,1.028812 0.0201,0.03733 0.0771,0.04015 0.17366,0.0086 0.0791,-0.02586 1.73438,-0.465285 3.67844,-0.976514 z m 5.97814,-1.715212 c -0.0121,-0.009 -1.85278,-0.324039 -4.09039,-0.699997 -2.2376,-0.375958 -4.3562,-0.734637 -4.70798,-0.797064 -1.69287,-0.300417 -3.0041,-0.504363 -3.02598,-0.470652 -0.0484,0.0746 -0.95229,3.621726 -0.92758,3.640172 0.0139,0.01045 1.45857,-0.169467 3.21018,-0.399771 1.75161,-0.230314 4.37714,-0.575308 5.8345,-0.766637 1.45735,-0.19134 2.89264,-0.379769 3.1895,-0.418748 0.29688,-0.03894 0.52986,-0.07831 0.51775,-0.0873 z m -0.3007,-0.511034 c -0.003,-0.02316 -0.48026,-0.282154 -3.05654,-1.660017 -1.03211,-0.552002 -2.7068,-1.448454 -3.72152,-1.992116 -1.01472,-0.543663 -1.85876,-0.980329 -1.87566,-0.970367 -0.14807,0.08733 -1.87431,1.674094 -1.84484,1.695779 0.0356,0.02617 0.96136,0.287808 4.41596,1.247949 0.71425,0.198516 2.3704,0.661297 3.68032,1.028407 2.66899,0.747991 2.40612,0.676823 2.40228,0.650365 z m -1.59272,-0.134359 c -0.0117,-0.0075 -0.34574,-0.103014 -0.74241,-0.212332 -0.39666,-0.10932 -2.41778,-0.670512 -4.49136,-1.247096 -2.07359,-0.576582 -3.78778,-1.045775 -3.80933,-1.042648 -0.0216,0.0031 -0.006,0.235867 0.035,0.517197 l 0.0742,0.511509 1.2183,0.204967 c 2.71775,0.457231 3.62582,0.610989 5.57201,0.943476 1.82146,0.311177 2.21527,0.370874 2.14349,0.32493 z"
       id="path1044"
       sodipodi:nodetypes="cscsscccssssccssssscsssccssssssssssssssssssssssssssssssscsss" /><path
       id="path3516"
       style="fill:#000000;stroke-width:0.252495"
       d="m 31.239137,46.895443 c -1.924079,0.114275 -3.095192,1.917365 -4.031655,3.386688 -2.565838,4.436508 -4.049805,9.391195 -5.448768,14.292245 -1.347359,4.600372 -2.156577,9.276392 -2.697854,14.057289 -0.435291,3.731015 -0.695075,7.459813 -0.08514,11.195991 0.195117,1.467948 0.45045,3.031758 1.540763,4.130287 1.465171,1.630372 3.362091,3.101647 5.590196,3.391755 0.492548,0.04601 0.931872,-0.371463 0.669941,-0.86532 -0.474929,-1.851056 -1.285971,-3.614015 -1.519902,-5.528388 -0.503001,-3.134173 -0.790031,-6.323654 -0.447266,-9.492188 0.21508,-2.260834 0.300519,-4.548669 0.732422,-6.779296 0.558834,-0.768977 1.476392,-0.07988 2.146539,0.113072 1.867109,0.216933 3.830904,0.110563 5.607367,-0.548619 1.799861,-0.654585 3.087621,-2.143752 4.69336,-3.107422 0.804368,-0.36958 1.300961,0.520193 1.572086,1.130564 0.87512,1.484637 2.460434,2.787917 4.277893,2.623273 1.600272,0.0084 3.268011,-0.06452 4.672561,-0.927395 4.051749,-1.966066 6.683043,-5.820427 9.016532,-9.518081 0.527967,-0.968235 1.277625,-1.833678 1.133623,-3.014017 0.02491,-0.516566 -0.52228,-0.196191 -0.634033,0.05619 -2.370758,2.549378 -4.21452,5.74283 -7.327166,7.491135 -1.196168,0.630733 -2.894059,0.747957 -3.941965,-0.220578 -1.01755,-1.236156 -0.755969,-2.972086 -0.725552,-4.459674 0.131512,-1.833669 1.605115,-3.146374 2.424771,-4.694622 1.504613,-2.535405 3.015793,-5.435221 2.517394,-8.478444 -0.129721,-1.263568 -0.903102,-2.586267 -2.256877,-2.788583 -2.148394,-0.505264 -4.061365,1.095032 -5.291066,2.681127 -2.146742,2.899529 -3.232548,6.418055 -4.166717,9.859337 -0.518121,1.920964 -0.768249,3.897323 -1.044921,5.860395 -0.298975,1.219533 -1.522791,1.863829 -2.481372,2.527183 -1.299832,0.769318 -3.164616,1.372789 -4.465391,0.29485 -1.623983,-1.54589 -1.484163,-4.025048 -1.107925,-6.051568 0.55796,-3.273404 1.938438,-6.317065 3.446474,-9.248398 0.655135,-1.480433 1.77879,-3.083447 1.164854,-4.767227 -0.465375,-1.498227 -1.925989,-2.690095 -3.533203,-2.601563 z" /></g></svg>
