<?xml version="1.0" encoding="UTF-8" standalone="no"?>
<svg
   xmlns:dc="http://purl.org/dc/elements/1.1/"
   xmlns:cc="http://creativecommons.org/ns#"
   xmlns:rdf="http://www.w3.org/1999/02/22-rdf-syntax-ns#"
   xmlns:svg="http://www.w3.org/2000/svg"
   xmlns="http://www.w3.org/2000/svg"
   xmlns:sodipodi="http://sodipodi.sourceforge.net/DTD/sodipodi-0.dtd"
   xmlns:inkscape="http://www.inkscape.org/namespaces/inkscape"
   width="26mm"
   height="30mm"
   viewBox="0 0 26 30"
   version="1.1"
   id="svg880"
   inkscape:version="1.0 (unknown)"
   sodipodi:docname="meltdown_bug.svg">
  <defs
     id="defs874" />
  <sodipodi:namedview
     id="base"
     pagecolor="#ffffff"
     bordercolor="#666666"
     borderopacity="1.0"
     inkscape:pageopacity="0.0"
     inkscape:pageshadow="2"
     inkscape:zoom="3.225686"
     inkscape:cx="149.05817"
     inkscape:cy="105.30924"
     inkscape:document-units="mm"
     inkscape:current-layer="layer1"
     inkscape:document-rotation="0"
     showgrid="false"
     inkscape:window-width="1916"
     inkscape:window-height="1041"
     inkscape:window-x="0"
     inkscape:window-y="18"
     inkscape:window-maximized="1" />
  <metadata
     id="metadata877">
    <rdf:RDF>
      <cc:Work
         rdf:about="">
        <dc:format>image/svg+xml</dc:format>
        <dc:type
           rdf:resource="http://purl.org/dc/dcmitype/StillImage" />
        <dc:title></dc:title>
      </cc:Work>
    </rdf:RDF>
  </metadata>
  <g
     inkscape:label="Layer 1"
     inkscape:groupmode="layer"
     id="layer1">
    <path
       d="m 17.796406,7.6112283 -6.768983,5.6389307 c 0.118023,0.09209 0.241554,0.176435 0.36587,0.261555 0.004,0.01006 0.01023,0.02322 0.01416,0.03715 0.048,0.129231 0.269092,0.394657 0.43511,0.285547 0.08262,-0.05417 0.220308,0.131551 0.220308,0.2306 0,0.09828 0.07947,0.230603 0.251783,0.230603 0.12825,0 0.204571,-0.09131 0.245486,-0.193459 0.127464,0.04798 0.255715,0.08822 0.38318,0.126138 a 0.70813482,0.69645106 0 0 0 0.431176,0 c 0.393408,-0.116081 0.77344,-0.27162 1.129082,-0.461986 v 0.587341 c 0,0 0.08654,0.224412 0.283254,0.224412 0.172312,0 0.251779,-0.143159 0.275385,-0.285544 0.02439,-0.13929 0.05193,-0.763776 0.166017,-0.85586 0.114091,-0.09441 0.169166,0.231374 0.527954,0.234472 0.283254,0.0039 0.324955,-0.624485 0.569656,-1.164621 0.09363,-0.203521 0.535034,-1.008306 0.535034,-1.008306 a 6.486515,6.3794915 0 0 0 0.932379,-3.3166545 c 0.0031,-0.18572 0.0031,-0.3799518 0.0031,-0.5703153 z M 17.679171,5.12335 16.86088,4.7666129 9.2460705,11.108187 c 0.079468,0.149349 0.1628707,0.2987 0.2517813,0.441084 v 0.77074 c 0,0 -0.037764,0.281675 0.1801806,0.329654 0.2140142,0.0472 0.2281772,-0.201197 0.2281772,-0.201197 v -0.325011 a 6.4676313,6.3609194 0 0 0 0.3721644,0.43412 L 16.3644,7.4928313 v 0.206614 c 0,0 -0.03855,0.2824498 0.179393,0.3296536 0.214016,0.047203 0.228177,-0.2004234 0.228177,-0.2004234 V 7.1531176 l 0.330463,-0.2747115 c 0.02754,0.047203 0.06924,0.088221 0.138481,0.1013728 0.214012,0.047981 0.228175,-0.1996498 0.228175,-0.1996498 V 6.5696464 L 17.793258,6.2980307 V 5.3028793 C 17.806648,5.2254963 17.758638,5.1465651 17.679171,5.12335 Z m -4.4046,-1.9252999 a 0.23368449,0.22982884 0 0 0 -0.214014,0 C 11.586849,3.8434277 10.119436,4.484937 8.6496639,5.1264454 a 0.16365782,0.16095757 0 0 0 -0.1101542,0.15941 v 2.9637861 a 6.7115445,6.600808 0 0 0 0.078681,0.9672936 6.8366481,6.7238478 0 0 0 0.2203091,0.9301489 L 15.829364,4.3185626 Z m 6.348033,0.3807261 a 645.06753,634.42432 0 0 1 -6.296103,-2.7533026 0.33597061,0.33042731 0 0 0 -0.303711,0 C 10.914121,1.745563 8.8078134,2.6648788 6.7022928,3.5818715 A 0.21873498,0.21512599 0 0 0 6.5402087,3.8163437 c 0.014165,1.4122478 0,2.8244958 0.014165,4.2328743 a 9.1860826,9.0345174 0 0 0 1.5704858,5.017543 c 0,0.03095 -0.00396,0.06191 -0.00396,0.08512 -0.027538,0.325786 0.1935574,0.886041 0.4697299,0.675557 0.031468,-0.02322 0.055082,-0.03405 0.075532,-0.04102 0.041702,0.05108 0.083403,0.09905 0.1243172,0.146258 0.024392,0.152444 0.00396,0.38382 0.00788,0.512277 0.0031,0.237566 0.036978,0.852765 0.5169376,0.614424 A 0.70734802,0.6956772 0 0 0 9.6087785,14.77151 c 0.03462,0.03018 0.065308,0.06114 0.099926,0.08822 0.00396,0.04411 0.014166,0.08821 0.027538,0.13929 0.090485,0.332746 0.038558,2.749432 0.038558,2.749432 0,0 0.058226,0.533172 0.4209475,0.533172 0.361935,0 0.390261,-0.533172 0.390261,-0.533172 v -1.62582 c 0,0 0.07554,-0.298703 0.445338,-0.20739 0.369017,0.09131 0.369017,0.458112 0.369017,0.458112 v 3.652498 c 0,0 0.04485,0.377632 0.390261,0.377632 0.31394,0 0.361935,-0.434895 0.361935,-0.434895 l 0.19041,-3.547258 c 0.169165,0.06114 0.341478,0.118396 0.517724,0.169468 0.08969,0.02708 0.186477,0.04411 0.279321,0.04411 l 0.01416,1.924523 c 0,0 0.04092,0.899971 0.496481,0.882947 0.448484,-0.01702 0.452418,-0.94408 0.452418,-0.94408 v -1.418435 c 0,0 0.08654,-0.441085 0.355642,-0.441085 0.26909,0 0.338332,0.362928 0.338332,0.559481 0,0.197329 0.03462,0.706513 0.048,0.831872 0.01416,0.125362 0.165233,0.369893 0.414655,0.373763 0.244697,0.0031 0.396554,-0.363703 0.396554,-0.492159 0,-0.129229 0.02754,-1.697794 0.02754,-1.697794 0,0 -0.02754,-0.594304 0.352493,-0.631448 0.479959,-0.05107 0.369803,0.288641 0.438258,0.386917 0.06924,0.09828 0.173098,0.119171 0.293483,0.125364 0.120383,0.0078 0.355639,-0.142388 0.379246,-0.437219 0.01416,-0.187267 0.04879,-0.875979 0.06924,-1.351115 a 8.4032004,8.2645523 0 0 0 0.552342,-0.645375 9.2765654,9.123508 0 0 0 2.015822,-5.7070278 V 6.1246894 c -0.007,-0.7606792 -0.007,-1.5244528 0.0031,-2.2851327 A 0.25414172,0.24994854 0 0 0 19.622637,3.5787762 Z M 18.64538,4.678396 v 3.4118352 a 7.6989989,7.5719703 0 0 1 -0.717576,3.2253428 c -0.579884,1.374329 -1.363554,2.494843 -1.594876,2.501807 -0.11409,0.0031 -0.158938,0.101371 -0.22031,0.250723 -0.06924,0.163279 -0.145562,0.390784 -0.235258,0.437989 -0.13848,0.07506 -0.189624,0.05804 -0.345412,0.07119 -0.262012,0.02398 -0.206934,0.719665 -0.272239,0.906933 -0.02123,0.05727 -0.09363,0.220543 -0.235259,0.254591 -0.0653,0.01702 -0.155001,-0.01006 -0.23447,-0.07506 -0.14871,-0.115302 -0.07868,-0.437992 -0.286403,-0.580377 -0.358788,-0.250723 -0.5728,0.237566 -0.5728,0.237566 v 0.530078 c 0,0 -0.01416,0.396977 -0.228178,0.318819 -0.214014,-0.07506 -0.179394,-0.526208 -0.179394,-0.526208 v -0.42406 c -0.03462,0.01006 -0.06924,0.02012 -0.107007,0.03405 -0.165231,0.05029 -0.345412,0.05029 -0.51143,0 a 6.0970406,5.9964433 0 0 1 -0.565722,-0.197327 c -0.01731,0.139291 -0.04484,0.309533 -0.08969,0.342808 a 0.31000568,0.30489078 0 0 1 -0.361936,-0.0069 c -0.128251,-0.08512 -0.196704,-0.386916 -0.210867,-0.59353 0,-0.01702 0,-0.03095 -0.0031,-0.04411 A 7.045941,6.9296873 0 0 1 9.205198,12.635737 7.6517906,7.5255408 0 0 1 7.6787741,8.1683901 c -0.013378,-1.1715846 0,-2.3393012 0,-3.5101132 A 0.18096778,0.17798194 0 0 1 7.8101726,4.4648192 C 9.5506106,3.7072346 11.29341,2.9434601 13.036208,2.1765903 c 0.07947,-0.041013 0.173099,-0.041013 0.251781,0 a 861.8316,847.61186 0 0 0 5.21974,2.281264 0.20614591,0.20274463 0 0 1 0.137694,0.2205423 z m -4.790925,16.95394 a 0.33518381,0.43799032 0 0 1 -0.334397,0.437988 0.33518381,0.43799032 0 0 1 -0.335184,-0.437988 0.33518381,0.43799032 0 0 1 0.335184,-0.437991 0.33518381,0.43799032 0 0 1 0.334397,0.437991 z"
       fill="#ff9600"
       id="path92"
       style="stroke-width:0.0780292" />
    <g
       id="g12"
       transform="matrix(0.07868164,0,0,0.07738345,1.3621694,-0.17741591)"
       aria-label="MELTDOWN"
       fill="#ff9600">
      <path
         d="m 46.72,322.31 v 50.6 h -11.5 v -34.16 l -4.6,34.15 H 22.47 L 17.63,339.53 V 372.9 H 6.13 v -50.59 h 17.03 q 0.75,4.56 1.59,10.75 l 1.81,12.88 3,-23.63 z"
         id="M" />
      <path
         d="m 54,322.31 h 21.94 v 10.13 h -8.78 v 9.59 h 8.22 v 9.62 h -8.22 v 11.13 h 9.65 V 372.9 H 54 Z"
         id="E" />
      <path
         d="m 95.78,322.31 v 40.47 h 8 V 372.9 H 82.62 v -50.59 z"
         id="L" />
      <path
         d="m 130.94,322.31 v 10.13 h -7.81 v 40.46 h -13.16 v -40.46 h -7.78 V 322.3 Z"
         id="T" />
      <path
         d="m 136,322.31 h 9.84 q 9.53,0 12.88,0.88 3.37,0.87 5.12,2.87 1.75,2 2.2,4.47 0.43,2.44 0.43,9.62 v 17.72 q 0,6.82 -0.66,9.13 -0.62,2.28 -2.22,3.6 -1.59,1.27 -3.93,1.8 -2.35,0.5 -7.07,0.5 H 136 Z m 13.16,8.66 v 33.28 q 2.84,0 3.5,-1.13 0.65,-1.15 0.65,-6.22 v -19.65 q 0,-3.44 -0.22,-4.4 -0.22,-0.98 -1,-1.41 -0.78,-0.47 -2.93,-0.47 z"
         id="D" />
      <path
         d="m 203.44,351.94 q 0,7.62 -0.38,10.8 -0.34,3.16 -2.25,5.79 -1.87,2.62 -5.1,4.03 -3.21,1.4 -7.5,1.4 -4.05,0 -7.3,-1.3 -3.22,-1.35 -5.2,-4 -1.96,-2.66 -2.34,-5.79 Q 173,359.75 173,351.94 v -8.66 q 0,-7.63 0.34,-10.78 0.38,-3.19 2.25,-5.81 1.91,-2.63 5.13,-4.04 3.22,-1.4 7.5,-1.4 4.06,0 7.28,1.34 3.25,1.31 5.22,3.97 1.97,2.66 2.34,5.78 0.38,3.13 0.38,10.94 z m -13.16,-16.63 q 0,-3.53 -0.4,-4.5 -0.38,-1 -1.6,-1 -1.03,0 -1.6,0.81 -0.52,0.78 -0.52,4.7 v 23.62 q 0,4.4 0.34,5.43 0.38,1.03 1.69,1.03 1.34,0 1.72,-1.18 0.37,-1.19 0.37,-5.66 z"
         id="O" />
      <path
         d="m 259.88,322.31 -5.85,50.6 H 237.6 q -2.25,-11.66 -3.97,-26.5 -0.78,6.34 -3.65,26.5 h -16.34 l -5.88,-50.6 h 12.78 l 1.34,17.66 1.38,17.03 q 0.72,-13.22 3.63,-34.69 h 13.68 q 0.28,2.22 1.44,16.69 l 1.44,19.22 q 1.1,-18.35 3.65,-35.9 z"
         id="W" />
      <path
         d="m 293.88,322.31 v 50.6 h -11.54 l -6.84,-23 v 23 h -11 v -50.6 h 11 l 7.38,22.78 v -22.78 z"
         id="N" />
    </g>
  </g>
</svg>
