<?xml version="1.0" encoding="UTF-8" standalone="no"?>
<svg
   xmlns:dc="http://purl.org/dc/elements/1.1/"
   xmlns:cc="http://creativecommons.org/ns#"
   xmlns:rdf="http://www.w3.org/1999/02/22-rdf-syntax-ns#"
   xmlns:svg="http://www.w3.org/2000/svg"
   xmlns="http://www.w3.org/2000/svg"
   xmlns:sodipodi="http://sodipodi.sourceforge.net/DTD/sodipodi-0.dtd"
   xmlns:inkscape="http://www.inkscape.org/namespaces/inkscape"
   id="svg8"
   version="1.1"
   viewBox="0 0 210 297"
   height="297mm"
   width="210mm"
   sodipodi:docname="antistatische_aktion_final.svg"
   inkscape:version="0.92.5 (2060ec1f9f, 2020-04-08)">
  <sodipodi:namedview
     pagecolor="#ffffff"
     bordercolor="#666666"
     borderopacity="1"
     objecttolerance="10"
     gridtolerance="10"
     guidetolerance="10"
     inkscape:pageopacity="0"
     inkscape:pageshadow="2"
     inkscape:window-width="2560"
     inkscape:window-height="1371"
     id="namedview845"
     showgrid="false"
     inkscape:zoom="0.98795595"
     inkscape:cx="396.85039"
     inkscape:cy="763.69802"
     inkscape:window-x="0"
     inkscape:window-y="0"
     inkscape:window-maximized="1"
     inkscape:current-layer="svg8" />
  <defs
     id="defs2" />
  <metadata
     id="metadata5">
    <rdf:RDF>
      <cc:Work
         rdf:about="">
        <dc:format>image/svg+xml</dc:format>
        <dc:type
           rdf:resource="http://purl.org/dc/dcmitype/StillImage" />
        <dc:title />
      </cc:Work>
    </rdf:RDF>
  </metadata>
  <g
     style="display:inline"
     id="layer1">
    <path
       style="color:#000000;font-style:normal;font-variant:normal;font-weight:normal;font-stretch:normal;font-size:medium;line-height:normal;font-family:'Bitstream Vera Sans';-inkscape-font-specification:'Bitstream Vera Sans';text-indent:0;text-align:start;text-decoration:none;text-decoration-line:none;letter-spacing:normal;word-spacing:normal;text-transform:none;writing-mode:lr-tb;direction:ltr;text-anchor:start;display:inline;overflow:visible;visibility:visible;fill:#000000;fill-opacity:1;stroke:none;stroke-width:10.78100014;stroke-miterlimit:4;stroke-dasharray:none;marker:none;enable-background:accumulate"
       id="path20"
       d="m 47.825233,95.811962 c -26.128423,0 -47.4253253,-21.2966 -47.4253253,-47.42532 0,-26.128823 21.2968843,-47.42656117 47.4253253,-47.42656117 26.128819,0 47.426569,21.29774817 47.426569,47.42656117 0,26.12872 -21.29777,47.42532 -47.426569,47.42532 z m 0,-10.78135 c 20.302399,0 36.645199,-16.34172 36.645199,-36.64397 0,-20.302377 -16.34282,-36.6452 -36.645199,-36.6452 -20.301892,0 -36.643968,16.342832 -36.643968,36.6452 0,20.30224 16.342058,36.64397 36.643968,36.64397 z" />
    <path
       style="fill:#ffffff;fill-opacity:1;fill-rule:evenodd;stroke:none;stroke-width:0.0396875"
       id="path34"
       d="m 64.732152,91.130862 1.21285,-0.61797 -2.15225,-4.22454 0.0163,-0.008 5.49117,2.67922 0.87471,-0.44569 -3.23295,-6.34504 -1.21285,0.61794 2.13162,4.18346 -0.0167,0.008 -5.49116,-2.67922 -0.87471,0.44557 3.25397,6.38627" />
    <path
       style="fill:#ffffff;fill-opacity:1;fill-rule:evenodd;stroke:none;stroke-width:0.0396875"
       id="path2830"
       d="m 58.204752,93.234292 c 1.98517,-0.45826 2.98649,-2.4189 2.53683,-4.36796 -0.43974,-1.90389 -2.20544,-3.25437 -4.19061,-2.7961 -1.98517,0.45827 -2.980133,2.44622 -2.54079,4.35011 0.45006,1.94905 2.2094,3.27222 4.19457,2.81395 z m -1.35175,-5.85576 c 1.16403,-0.26869 2.25028,0.6494 2.50467,1.75026 0.23733,1.02862 -0.32702,2.5369 -1.45494,2.79737 -1.12792,0.26027 -2.29592,-0.848 -2.53365,-1.87662 -0.254,-1.1009 0.31988,-2.40237 1.48392,-2.67101 z" />
    <path
       style="fill:#ffffff;fill-opacity:1;fill-rule:evenodd;stroke:none;stroke-width:0.0396875"
       id="path2832"
       d="m 51.280869,86.956212 -1.360884,0.0237 0.121841,6.98143 1.360884,-0.0239 z" />
    <path
       style="fill:#ffffff;fill-opacity:1;fill-rule:evenodd;stroke:none;stroke-width:0.0396875"
       id="path2834"
       d="m 46.027832,88.021902 1.399778,0.14712 0.123825,-1.17883 -4.153297,-0.43657 -0.124222,1.179 1.400175,0.14712 -0.606028,5.76507 1.353741,0.14232 z" />
    <path
       style="fill:#ffffff;fill-opacity:1;fill-rule:evenodd;stroke:none;stroke-width:0.0396875"
       id="path2836"
       d="m 37.142476,88.229472 -0.01812,-0.004 0.662424,-2.86929 -1.326436,-0.30634 -1.570593,6.80346 1.326436,0.30619 0.706159,-3.05871 0.01799,0.004 1.468437,3.56072 1.70565,0.39378 -1.879441,-4.29248 3.305413,-2.54433 -1.633141,-0.37703 z" />
    <path
       style="fill:#ffffff;fill-opacity:1;fill-rule:evenodd;stroke:none;stroke-width:0.0396875"
       id="path2838"
       d="m 30.66627,88.691632 -0.08076,1.56515 1.338223,0.56805 0.362625,-7.63258 -0.971907,-0.41235 -5.306338,5.5339 1.321157,0.56075 1.10367,-1.1311 z m 0.08465,-1.17126 -1.525627,-0.6477 1.698784,-2.03537 0.01706,0.007 z" />
  </g>
  <circle
     style="fill:none;fill-opacity:1;fill-rule:nonzero;stroke:#000000;stroke-width:3.93719506;stroke-linecap:square;stroke-miterlimit:4;stroke-dasharray:none;stroke-dashoffset:0;stroke-opacity:1"
     id="path2236"
     cx="48.000633"
     cy="48.913971"
     r="32.104534" />
  <path
     inkscape:connector-curvature="0"
     style="fill:none;fill-opacity:1;fill-rule:nonzero;stroke:#000000;stroke-width:3.9371953;stroke-linecap:butt;stroke-miterlimit:4;stroke-dasharray:none;stroke-dashoffset:0;stroke-opacity:1"
     d="M 47.849947,22.962648 V 56.468355"
     id="path3209" />
  <path
     inkscape:connector-curvature="0"
     style="fill:none;fill-opacity:1;fill-rule:nonzero;stroke:#000000;stroke-width:3.9371953;stroke-linecap:butt;stroke-miterlimit:4;stroke-dasharray:none;stroke-dashoffset:0;stroke-opacity:1"
     d="M 74.756376,56.44435 H 20.264513"
     id="path3211" />
  <path
     inkscape:connector-curvature="0"
     style="fill:none;fill-opacity:1;fill-rule:nonzero;stroke:#000000;stroke-width:3.9371953;stroke-linecap:butt;stroke-miterlimit:4;stroke-dasharray:none;stroke-dashoffset:0;stroke-opacity:1"
     d="M 67.488871,64.293641 H 27.499535"
     id="path4182" />
  <path
     inkscape:connector-curvature="0"
     style="fill:none;fill-opacity:1;fill-rule:nonzero;stroke:#000000;stroke-width:3.9371953;stroke-linecap:butt;stroke-miterlimit:4;stroke-dasharray:none;stroke-dashoffset:0;stroke-opacity:1"
     d="M 57.023373,71.508903 H 38.649795"
     id="path4184" />
  <g
     style="display:inline"
     id="layer4">
    <g
       transform="translate(-46.264978,-64.395848)"
       style="fill:#ff0d05;fill-opacity:1;stroke:#ff0000;stroke-opacity:0.989071"
       id="g1295">
      <path
         style="fill:#ff0d05;fill-opacity:1;fill-rule:nonzero;stroke:#ff0000;stroke-width:3.93700004;stroke-linecap:butt;stroke-miterlimit:4;stroke-dasharray:none;stroke-dashoffset:0;stroke-opacity:0.989071"
         d="M 96.231593,84.712658 V 118.21835"
         id="path3209-7" />
      <path
         style="fill:#ff0d05;fill-opacity:1;fill-rule:nonzero;stroke:#ff0000;stroke-width:3.93700004;stroke-linecap:butt;stroke-miterlimit:4;stroke-dasharray:none;stroke-dashoffset:0;stroke-opacity:0.989071"
         d="M 123.13803,118.19435 H 68.646153"
         id="path3211-7" />
      <path
         style="fill:#ff0d05;fill-opacity:1;fill-rule:nonzero;stroke:#ff0000;stroke-width:3.93700004;stroke-linecap:butt;stroke-miterlimit:4;stroke-dasharray:none;stroke-dashoffset:0;stroke-opacity:0.989071"
         d="M 115.87053,126.04364 H 75.881173"
         id="path4182-5" />
      <path
         style="fill:#ff0d05;fill-opacity:1;fill-rule:nonzero;stroke:#ff0000;stroke-width:3.93700004;stroke-linecap:butt;stroke-miterlimit:4;stroke-dasharray:none;stroke-dashoffset:0;stroke-opacity:0.989071"
         d="M 105.40503,133.2589 H 87.031433"
         id="path4184-4" />
    </g>
  </g>
  <path
     d="m 17.216806,23.299711 1.549598,0.444502 0.87997,-1.209111 -7.563842,-2.135611 -0.638959,0.877953 4.312998,6.60239 0.868759,-1.193708 -0.877009,-1.368663 z m -1.153962,-0.356833 -1.003278,1.37854 -1.644961,-2.174955 0.01121,-0.01541 z"
     style="font-style:normal;font-variant:normal;font-weight:900;font-stretch:normal;font-size:9.52499962px;line-height:1;font-family:Futura;-inkscape-font-specification:'Futura, Heavy';font-variant-ligatures:normal;font-variant-caps:normal;font-variant-numeric:normal;font-feature-settings:normal;text-align:start;letter-spacing:1.45256257px;word-spacing:0px;writing-mode:lr-tb;text-anchor:start;fill:#ffffff;fill-opacity:1;stroke:none;stroke-width:0.26458332"
     id="path847"
     inkscape:connector-curvature="0" />
  <path
     d="m 20.946223,21.143901 1.054298,-0.921382 -3.209168,-3.672113 0.01434,-0.01254 6.150509,1.291337 0.760242,-0.664399 -4.82002,-5.515343 -1.054298,0.921383 3.177829,3.636253 -0.01434,0.01254 -6.150509,-1.291337 -0.760243,0.664398 z"
     style="font-style:normal;font-variant:normal;font-weight:900;font-stretch:normal;font-size:9.52499962px;line-height:1;font-family:Futura;-inkscape-font-specification:'Futura, Heavy';font-variant-ligatures:normal;font-variant-caps:normal;font-variant-numeric:normal;font-feature-settings:normal;text-align:start;letter-spacing:1.45256257px;word-spacing:0px;writing-mode:lr-tb;text-anchor:start;fill:#ffffff;fill-opacity:1;stroke:none;stroke-width:0.26458332"
     id="path849"
     inkscape:connector-curvature="0" />
  <path
     d="M 26.767174,9.3998315 28.021166,8.6762092 27.4118,7.620216 l -3.720726,2.1470638 0.609366,1.0559932 1.253991,-0.723622 2.980183,5.164465 1.212742,-0.699818 z"
     style="font-style:normal;font-variant:normal;font-weight:900;font-stretch:normal;font-size:9.52499962px;line-height:1;font-family:Futura;-inkscape-font-specification:'Futura, Heavy';font-variant-ligatures:normal;font-variant-caps:normal;font-variant-numeric:normal;font-feature-settings:normal;text-align:start;letter-spacing:1.45256257px;word-spacing:0px;writing-mode:lr-tb;text-anchor:start;fill:#ffffff;fill-opacity:1;stroke:none;stroke-width:0.26458332"
     id="path851"
     inkscape:connector-curvature="0" />
  <path
     d="m 31.341353,5.8840987 -1.292654,0.5380879 2.759987,6.6303424 1.292653,-0.538088 z"
     style="font-style:normal;font-variant:normal;font-weight:900;font-stretch:normal;font-size:9.52499962px;line-height:1;font-family:Futura;-inkscape-font-specification:'Futura, Heavy';font-variant-ligatures:normal;font-variant-caps:normal;font-variant-numeric:normal;font-feature-settings:normal;text-align:start;letter-spacing:1.45256257px;word-spacing:0px;writing-mode:lr-tb;text-anchor:start;fill:#ffffff;fill-opacity:1;stroke:none;stroke-width:0.26458332"
     id="path853"
     inkscape:connector-curvature="0" />
  <path
     d="M 38.654483,4.2571405 C 38.107338,3.8985522 37.170731,3.8194752 36.553475,3.9815321 c -1.170022,0.307181 -1.782515,1.4626176 -1.48017,2.6142144 0.283022,1.0778874 1.055621,1.3575885 2.046011,1.4914798 0.599185,0.069187 1.315718,0.097717 1.504381,0.8163137 0.140278,0.5343435 -0.07723,1.0936865 -0.629995,1.238812 -0.580404,0.152382 -1.194457,-0.1984878 -1.519001,-0.6844535 l -0.650268,1.0865705 c 0.689496,0.675735 1.534793,1.044676 2.492921,0.793125 1.418765,-0.372496 2.02596,-1.5856192 1.660728,-2.9767482 C 39.366136,6.0300135 36.73971,7.2415002 36.432528,6.0714777 36.31405,5.6200406 36.641508,5.1795476 37.074508,5.065866 c 0.451427,-0.1185162 0.841136,0.015512 1.191007,0.2978721 z"
     style="font-style:normal;font-variant:normal;font-weight:900;font-stretch:normal;font-size:9.52499962px;line-height:1;font-family:Futura;-inkscape-font-specification:'Futura, Heavy';font-variant-ligatures:normal;font-variant-caps:normal;font-variant-numeric:normal;font-feature-settings:normal;text-align:start;letter-spacing:1.45256257px;word-spacing:0px;writing-mode:lr-tb;text-anchor:start;fill:#ffffff;fill-opacity:1;stroke:none;stroke-width:0.26458332"
     id="path855"
     inkscape:connector-curvature="0" />
  <path
     d="m 44.422147,4.0638043 1.439909,-0.1509577 -0.127122,-1.2125546 -4.27236,0.4479069 0.127122,1.2125546 1.439909,-0.1509576 0.621706,5.9301491 1.392543,-0.1459911 z"
     style="font-style:normal;font-variant:normal;font-weight:900;font-stretch:normal;font-size:9.52499962px;line-height:1;font-family:Futura;-inkscape-font-specification:'Futura, Heavy';font-variant-ligatures:normal;font-variant-caps:normal;font-variant-numeric:normal;font-feature-settings:normal;text-align:start;letter-spacing:1.45256257px;word-spacing:0px;writing-mode:lr-tb;text-anchor:start;fill:#ffffff;fill-opacity:1;stroke:none;stroke-width:0.26458332"
     id="path857"
     inkscape:connector-curvature="0" />
  <path
     d="m 51.740522,8.545005 0.464904,1.5436 1.492975,0.08556 -2.297907,-7.516127 -1.084072,-0.062123 -3.217544,7.200063 1.473957,0.084465 0.676228,-1.4782083 z m -0.324495,-1.1634698 -1.702183,-0.097544 0.938593,-2.5603455 0.01902,0.00109 z"
     style="font-style:normal;font-variant:normal;font-weight:900;font-stretch:normal;font-size:9.52499962px;line-height:1;font-family:Futura;-inkscape-font-specification:'Futura, Heavy';font-variant-ligatures:normal;font-variant-caps:normal;font-variant-numeric:normal;font-feature-settings:normal;text-align:start;letter-spacing:1.45256257px;word-spacing:0px;writing-mode:lr-tb;text-anchor:start;fill:#ffffff;fill-opacity:1;stroke:none;stroke-width:0.26458332"
     id="path859"
     inkscape:connector-curvature="0" />
  <path
     d="m 58.423899,5.2370582 1.409683,0.3300275 0.277918,-1.1871014 -4.182678,-0.9792275 -0.277918,1.1871015 1.409683,0.3300278 -1.359194,5.8056679 1.363313,0.319172 z"
     style="font-style:normal;font-variant:normal;font-weight:900;font-stretch:normal;font-size:9.52499962px;line-height:1;font-family:Futura;-inkscape-font-specification:'Futura, Heavy';font-variant-ligatures:normal;font-variant-caps:normal;font-variant-numeric:normal;font-feature-settings:normal;text-align:start;letter-spacing:1.45256257px;word-spacing:0px;writing-mode:lr-tb;text-anchor:start;fill:#ffffff;fill-opacity:1;stroke:none;stroke-width:0.26458332"
     id="path861"
     inkscape:connector-curvature="0" />
  <path
     d="m 64.166221,5.8024191 -1.310888,-0.4919987 -2.523582,6.7238756 1.310888,0.491998 z"
     style="font-style:normal;font-variant:normal;font-weight:900;font-stretch:normal;font-size:9.52499962px;line-height:1;font-family:Futura;-inkscape-font-specification:'Futura, Heavy';font-variant-ligatures:normal;font-variant-caps:normal;font-variant-numeric:normal;font-feature-settings:normal;text-align:start;letter-spacing:1.45256257px;word-spacing:0px;writing-mode:lr-tb;text-anchor:start;fill:#ffffff;fill-opacity:1;stroke:none;stroke-width:0.26458332"
     id="path863"
     inkscape:connector-curvature="0" />
  <path
     d="M 70.610515,9.6167232 C 70.456502,8.9809306 69.827185,8.2827584 69.265987,7.9789095 68.202225,7.4029564 66.965207,7.8271803 66.398324,8.8741904 c -0.530603,0.9800018 -0.158118,1.7124206 0.472959,2.4873646 0.389883,0.460219 0.893189,0.971018 0.539455,1.624352 -0.263035,0.485813 -0.804237,0.745196 -1.306802,0.473092 -0.527694,-0.285709 -0.735803,-0.961624 -0.640291,-1.538138 l -1.21749,0.348142 c 0.04101,0.964543 0.405487,1.811772 1.276597,2.283419 1.289918,0.6984 2.562521,0.228455 3.247316,-1.036334 1.147371,-2.11915 -1.597436,-3.031201 -1.021481,-4.0949653 0.222219,-0.4104283 0.762405,-0.5078886 1.156081,-0.2947386 0.410428,0.2222173 0.603126,0.5865062 0.665324,1.0317799 z"
     style="font-style:normal;font-variant:normal;font-weight:900;font-stretch:normal;font-size:9.52499962px;line-height:1;font-family:Futura;-inkscape-font-specification:'Futura, Heavy';font-variant-ligatures:normal;font-variant-caps:normal;font-variant-numeric:normal;font-feature-settings:normal;text-align:start;letter-spacing:1.45256257px;word-spacing:0px;writing-mode:lr-tb;text-anchor:start;fill:#ffffff;fill-opacity:1;stroke:none;stroke-width:0.26458332"
     id="path865"
     inkscape:connector-curvature="0" />
  <path
     d="m 77.619701,14.29811 c -0.212041,-0.512001 -0.54761,-0.976565 -0.985972,-1.328212 -1.641999,-1.317182 -3.890367,-0.812914 -5.165829,0.777076 -1.239701,1.545411 -1.163912,3.840811 0.411218,5.104352 0.453221,0.363566 0.975106,0.550205 1.53871,0.684834 l 1.043018,-1.300225 c -0.58475,0.104836 -1.249514,-0.02546 -1.717594,-0.400949 -1.017891,-0.816533 -0.885066,-2.260774 -0.128133,-3.204366 0.774813,-0.965882 2.151445,-1.448995 3.199055,-0.608621 0.468081,0.375487 0.74993,0.967909 0.756549,1.583766 z"
     style="font-style:normal;font-variant:normal;font-weight:900;font-stretch:normal;font-size:9.52499962px;line-height:1;font-family:Futura;-inkscape-font-specification:'Futura, Heavy';font-variant-ligatures:normal;font-variant-caps:normal;font-variant-numeric:normal;font-feature-settings:normal;text-align:start;letter-spacing:1.45256257px;word-spacing:0px;writing-mode:lr-tb;text-anchor:start;fill:#ffffff;fill-opacity:1;stroke:none;stroke-width:0.26458332"
     id="path867"
     inkscape:connector-curvature="0" />
  <path
     d="m 79.234294,19.674645 2.176147,-1.807541 -0.894642,-1.077083 -5.524626,4.588843 0.894641,1.077082 2.46923,-2.050981 1.655391,1.992968 -2.469229,2.050982 0.894641,1.077082 5.524627,-4.588842 -0.894642,-1.077082 -2.176146,1.807541 z"
     style="font-style:normal;font-variant:normal;font-weight:900;font-stretch:normal;font-size:9.52499962px;line-height:1;font-family:Futura;-inkscape-font-specification:'Futura, Heavy';font-variant-ligatures:normal;font-variant-caps:normal;font-variant-numeric:normal;font-feature-settings:normal;text-align:start;letter-spacing:1.45256257px;word-spacing:0px;writing-mode:lr-tb;text-anchor:start;fill:#ffffff;fill-opacity:1;stroke:none;stroke-width:0.26458332"
     id="path869"
     inkscape:connector-curvature="0" />
  <path
     d="m 86.788096,27.990067 1.066524,-0.590742 -1.799916,-3.249565 -6.282491,3.479838 1.799916,3.249565 1.066523,-0.590742 -1.121486,-2.024729 1.699773,-0.941494 1.07995,1.949738 1.066523,-0.590741 -1.079949,-1.949739 1.383147,-0.766117 z"
     style="font-style:normal;font-variant:normal;font-weight:900;font-stretch:normal;font-size:9.52499962px;line-height:1;font-family:Futura;-inkscape-font-specification:'Futura, Heavy';font-variant-ligatures:normal;font-variant-caps:normal;font-variant-numeric:normal;font-feature-settings:normal;text-align:start;letter-spacing:1.45256257px;word-spacing:0px;writing-mode:lr-tb;text-anchor:start;fill:#ffffff;fill-opacity:1;stroke:none;stroke-width:0.26458332"
     id="path871"
     inkscape:connector-curvature="0" />
  <path
     inkscape:connector-curvature="0"
     id="path902"
     d="M 15.683948,29.048106 A 37.423477,37.301632 31.14022 0 1 67.004815,16.474442 37.423477,37.301632 31.14022 0 1 79.745776,67.754031 37.423477,37.301632 31.14022 0 1 28.42491,80.327695 37.423477,37.301632 31.14022 0 1 15.683948,29.048106 Z"
     style="opacity:1;fill:none;fill-opacity:1;stroke:none;stroke-width:0.28045833;stroke-miterlimit:4;stroke-dasharray:none;stroke-opacity:0.989071" />
</svg>
