<?xml version="1.0" encoding="UTF-8" standalone="no"?>
<!-- Created with Inkscape (http://www.inkscape.org/) -->

<svg
   xmlns:dc="http://purl.org/dc/elements/1.1/"
   xmlns:cc="http://creativecommons.org/ns#"
   xmlns:rdf="http://www.w3.org/1999/02/22-rdf-syntax-ns#"
   xmlns:svg="http://www.w3.org/2000/svg"
   xmlns="http://www.w3.org/2000/svg"
   xmlns:sodipodi="http://sodipodi.sourceforge.net/DTD/sodipodi-0.dtd"
   xmlns:inkscape="http://www.inkscape.org/namespaces/inkscape"
   width="64mm"
   height="64mm"
   id="svg2"
   version="1.1"
   inkscape:version="0.91 r13725"
   sodipodi:docname="keine_software_illegal.svg">
  <defs
     id="defs4" />
  <sodipodi:namedview
     id="base"
     pagecolor="#ffffff"
     bordercolor="#666666"
     borderopacity="1.0"
     inkscape:pageopacity="0.0"
     inkscape:pageshadow="2"
     inkscape:zoom="2.3261285"
     inkscape:cx="54.568635"
     inkscape:cy="119.59597"
     inkscape:document-units="mm"
     inkscape:current-layer="layer2"
     showgrid="false"
     fit-margin-top="0"
     fit-margin-left="0"
     fit-margin-right="0"
     fit-margin-bottom="0"
     inkscape:window-width="1920"
     inkscape:window-height="1021"
     inkscape:window-x="0"
     inkscape:window-y="0"
     inkscape:window-maximized="1"
     units="mm" />
  <metadata
     id="metadata7">
    <rdf:RDF>
      <cc:Work
         rdf:about="">
        <dc:format>image/svg+xml</dc:format>
        <dc:type
           rdf:resource="http://purl.org/dc/dcmitype/StillImage" />
        <dc:title></dc:title>
      </cc:Work>
    </rdf:RDF>
  </metadata>
  <g
     inkscape:label="Hintergrund"
     inkscape:groupmode="layer"
     id="layer1"
     transform="translate(27.952759,-699.40939)"
     sodipodi:insensitive="true">
    <rect
       style="opacity:0.85;fill:#ffd700;fill-opacity:1;fill-rule:evenodd;stroke:none"
       id="rect3016"
       width="226.77165"
       height="226.77165"
       x="-27.952759"
       y="699.40942" />
    <g
       aria-label="Keine Software"
       style="font-style:normal;font-variant:normal;font-weight:bold;font-stretch:normal;line-height:0%;font-family:Dingbats;-inkscape-font-specification:'Dingbats Bold';letter-spacing:0px;word-spacing:0px;fill:#000000;fill-opacity:1;stroke:none"
       id="text3000" />
    <g
       aria-label="ist illegal"
       style="font-style:normal;font-variant:normal;font-weight:normal;font-stretch:normal;line-height:0%;font-family:Dingbats;-inkscape-font-specification:Dingbats;letter-spacing:0px;word-spacing:0px;fill:#000000;fill-opacity:1;stroke:none"
       id="text3006" />
  </g>
  <g
     inkscape:groupmode="layer"
     id="layer2"
     inkscape:label="Text und Logo"
     style="opacity:0.95"
     sodipodi:insensitive="true">
    <path
       id="path872"
       style="font-style:normal;font-variant:normal;font-weight:bold;font-stretch:normal;font-size:80px;line-height:1.25;font-family:Dingbats;-inkscape-font-specification:'Dingbats Bold';letter-spacing:0px;word-spacing:0px;fill:#000000;fill-opacity:1;stroke:none"
       d="m 163.00154,186.85786 3.69665,0 0,16.06702 -3.69665,0 z m -9.1074,10.86279 q -1.1565,0 -1.74508,0.39239 -0.57824,0.39239 -0.57824,1.1565 0,0.70215 0.46466,1.10486 0.47499,0.39237 1.31139,0.39237 1.04291,0 1.75538,-0.74345 0.7125,-0.75378 0.7125,-1.87931 l 0,-0.42336 z m 5.64824,-1.39398 0,6.59821 -3.72763,0 0,-1.71409 q -0.74347,1.05324 -1.6728,1.53855 -0.92933,0.47499 -2.26136,0.47499 -1.7967,0 -2.92221,-1.04291 -1.11519,-1.05323 -1.11519,-2.72602 0,-2.03419 1.39399,-2.98418 1.40432,-0.94997 4.39882,-0.94997 l 2.17875,0 0,-0.28912 q 0,-0.87771 -0.69184,-1.28041 -0.69182,-0.41303 -2.15811,-0.41303 -1.18746,0 -2.20973,0.23749 -1.02225,0.2375 -1.89995,0.71248 l 0,-2.81895 q 1.18748,-0.28913 2.38527,-0.4337 1.1978,-0.15488 2.39561,-0.15488 3.12873,0 4.51238,1.2391 1.394,1.22878 1.394,4.00644 z m -18.12187,4.6363 q -0.76411,1.01193 -1.68311,1.48692 -0.919,0.47499 -2.12712,0.47499 -2.11681,0 -3.50047,-1.66246 -1.38366,-1.67278 -1.38366,-4.25425 0,-2.59179 1.38366,-4.24392 1.38366,-1.66246 3.50047,-1.66246 1.20812,0 2.12712,0.47498 0.919,0.475 1.68311,1.49726 l 0,-1.7141 3.71731,0 0,10.39813 q 0,2.78798 -1.76572,4.25425 -1.7554,1.4766 -5.10098,1.4766 -1.08422,0 -2.09614,-0.16522 -1.01194,-0.16521 -2.03419,-0.50596 l 0,-2.88092 q 0.97063,0.5576 1.89995,0.82607 0.92934,0.2788 1.86899,0.2788 1.81734,0 2.66406,-0.79509 0.84672,-0.79509 0.84672,-2.48853 z m -2.43689,-7.19712 q -1.14618,0 -1.78639,0.84672 -0.6402,0.84672 -0.6402,2.3956 0,1.59018 0.61955,2.41625 0.61955,0.81575 1.80704,0.81575 1.15649,0 1.79668,-0.84672 0.64021,-0.84673 0.64021,-2.38528 0,-1.54888 -0.64021,-2.3956 -0.64019,-0.84672 -1.79668,-0.84672 z m -8.21939,3.34558 0,1.05324 -8.64273,0 q 0.13424,1.30105 0.93965,1.95158 0.80542,0.65052 2.25103,0.65052 1.16683,0 2.38527,-0.34074 1.22878,-0.35108 2.51951,-1.05324 l 0,2.84994 q -1.31139,0.49564 -2.62277,0.74345 -1.31138,0.25815 -2.62275,0.25815 -3.13906,0 -4.88413,-1.59017 -1.73475,-1.60052 -1.73475,-4.48143 0,-2.82928 1.70377,-4.45044 1.71408,-1.62116 4.70858,-1.62116 2.72603,0 4.35751,1.64181 1.64181,1.64181 1.64181,4.38849 z m -3.79991,-1.22878 q 0,-1.05324 -0.61955,-1.69344 -0.60923,-0.65052 -1.60051,-0.65052 -1.07389,0 -1.74507,0.60923 -0.67118,0.59889 -0.83638,1.73473 z m -15.01379,-9.02479 3.69667,0 0,16.06702 -3.69667,0 z m -7.2694,0 3.69666,0 0,16.06702 -3.69666,0 z m -7.269402,4.50207 3.696662,0 0,11.56495 -3.696662,0 z m 0,-4.50207 3.696662,0 0,3.01515 -3.696662,0 z m -13.433926,1.21845 0,3.28362 3.810239,0 0,2.64342 -3.810239,0 0,4.90477 q 0,0.80542 0.320106,1.09454 0.320096,0.2788 1.270076,0.2788 l 1.899959,0 0,2.64342 -3.170035,0 q -2.18908,0 -3.108082,-0.90868 -0.908672,-0.91899 -0.908672,-3.10808 l 0,-4.90477 -1.838005,0 0,-2.64342 1.838005,0 0,-3.28362 z m -7.599821,3.64502 0,2.80863 q -1.187473,-0.49564 -2.292341,-0.74345 -1.104869,-0.24782 -2.085825,-0.24782 -1.053234,0 -1.569526,0.26847 -0.505963,0.25815 -0.505963,0.80541 0,0.44402 0.382053,0.68151 0.392381,0.23749 1.393987,0.35108 l 0.650532,0.093 q 2.83961,0.36142 3.820559,1.18749 0.980958,0.82605 0.980958,2.59179 0,1.84832 -1.363011,2.77764 -1.36301,0.92933 -4.068389,0.92933 -1.146166,0 -2.374937,-0.18587 -1.218459,-0.17553 -2.509184,-0.53693 l 0,-2.80864 q 1.104869,0.53694 2.261363,0.80542 1.166815,0.26846 2.364617,0.26846 1.084209,0 1.631489,-0.29944 0.54727,-0.29945 0.54727,-0.88802 0,-0.49564 -0.382062,-0.73315 -0.371733,-0.24781 -1.497249,-0.38204 l -0.650523,-0.0826 q -2.467878,-0.30978 -3.459165,-1.14617 -0.991277,-0.83639 -0.991277,-2.54016 0,-1.838 1.259747,-2.72602 1.259757,-0.88803 3.861875,-0.88803 1.022256,0 2.147772,0.15488 1.125517,0.15489 2.44723,0.48532 z m -16.304518,-0.3614 3.696656,0 0,11.56495 -3.696656,0 z m 0,-4.50207 3.696656,0 0,3.01515 -3.696656,0 z M 202.96258,29.536307 l 0,1.053232 -8.64274,0 q 0.13424,1.301064 0.93965,1.951587 0.80541,0.650531 2.25103,0.650531 1.16683,0 2.38528,-0.340754 1.22878,-0.351075 2.51951,-1.053233 l 0,2.849931 q -1.31138,0.495643 -2.62277,0.743464 -1.31139,0.258141 -2.62277,0.258141 -3.13906,0 -4.88412,-1.590182 -1.73474,-1.600503 -1.73474,-4.48141 0,-2.829291 1.70376,-4.450442 1.71409,-1.621161 4.70859,-1.621161 2.72602,0 4.35751,1.641809 1.64181,1.641809 1.64181,4.388487 z m -3.79992,-1.228779 q 0,-1.053233 -0.61955,-1.693436 -0.60922,-0.650532 -1.6005,-0.650532 -1.07389,0 -1.74508,0.609225 -0.67117,0.598905 -0.83639,1.734743 z m -9.60304,-1.373339 q -0.48532,-0.227164 -0.97063,-0.330426 -0.47499,-0.113582 -0.96031,-0.113582 -1.42495,0 -2.19939,0.919002 -0.76412,0.908674 -0.76412,2.612439 l 0,5.328137 -3.69666,0 0,-11.564948 3.69666,0 0,1.899959 q 0.71249,-1.135846 1.63148,-1.652138 0.92933,-0.526621 2.22007,-0.526621 0.18586,0 0.40269,0.02068 0.21685,0.01029 0.62989,0.06194 z m -17.69851,3.211343 q -1.15649,0 -1.74506,0.392381 -0.57824,0.392381 -0.57824,1.156495 0,0.702158 0.46465,1.104868 0.475,0.392381 1.31138,0.392381 1.04292,0 1.7554,-0.743464 0.71248,-0.753785 0.71248,-1.879303 l 0,-0.423358 z m 5.64824,-1.393988 0,6.598215 -3.72763,0 0,-1.714094 q -0.74346,1.053242 -1.67279,1.538557 -0.92932,0.474984 -2.26136,0.474984 -1.79669,0 -2.92222,-1.042903 -1.11518,-1.053242 -1.11518,-2.726029 0,-2.03419 1.39399,-2.98417 1.40432,-0.94998 4.39881,-0.94998 l 2.17875,0 0,-0.289119 q 0,-0.877704 -0.69183,-1.280406 -0.69183,-0.413039 -2.1581,-0.413039 -1.18748,0 -2.20974,0.237493 -1.02226,0.237501 -1.89995,0.712487 l 0,-2.818952 q 1.18747,-0.289128 2.38528,-0.433688 1.19779,-0.154889 2.39559,-0.154889 3.12873,0 4.51239,1.239099 1.39399,1.228779 1.39399,4.006434 z m -31.4009,-4.966733 3.59339,0 1.94126,7.971552 1.95159,-7.971552 3.08742,0 1.94127,7.888948 1.95158,-7.888948 3.5934,0 -3.04612,11.564948 -4.03742,0 -1.95159,-7.950904 -1.94125,7.950904 -4.03741,0 z m -5.04935,-3.283619 0,3.283619 3.81024,0 0,2.643415 -3.81024,0 0,4.904778 q 0,0.80542 0.3201,1.09454 0.3201,0.278799 1.27008,0.278799 l 1.89996,0 0,2.643416 -3.17004,0 q -2.18908,0 -3.10808,-0.908673 -0.90867,-0.919003 -0.90867,-3.108082 l 0,-4.904778 -1.838,0 0,-2.643415 1.838,0 0,-3.283619 z m -5.6379,-1.21845 0,2.426571 -2.04452,0 q -0.78477,0 -1.09454,0.28912 -0.30978,0.278799 -0.30978,0.980958 l 0,0.80542 3.1597,0 0,2.643415 -3.1597,0 0,8.921533 -3.69666,0 0,-8.921533 -1.838,0 0,-2.643415 1.838,0 0,-0.80542 q 0,-1.889632 1.05324,-2.787976 1.05324,-0.908673 3.26297,-0.908673 z m -16.64528,6.866684 q -1.22878,0 -1.8793,0.888025 -0.6402,0.877696 -0.6402,2.540163 0,1.662457 0.6402,2.550482 0.65052,0.877695 1.8793,0.877695 1.20813,0 1.84833,-0.877695 0.6402,-0.888025 0.6402,-2.550482 0,-1.662467 -0.6402,-2.540163 -0.6402,-0.888025 -1.84833,-0.888025 z m 0,-2.643415 q 2.98417,0 4.65696,1.610831 1.68312,1.610832 1.68312,4.460772 0,2.84993 -1.68312,4.460762 -1.67279,1.61083 -4.65696,1.61083 -2.99449,0 -4.68793,-1.61083 -1.68312,-1.610832 -1.68312,-4.460762 0,-2.84994 1.68312,-4.460772 1.69344,-1.610831 4.68793,-1.610831 z m -9.85086,-3.087432 0,3.26297 q -1.27008,-0.567919 -2.4782,-0.857047 -1.20813,-0.289119 -2.28203,-0.289119 -1.42496,0 -2.10646,0.392381 -0.68151,0.392381 -0.68151,1.21845 0,0.619545 0.45434,0.970628 0.46466,0.340755 1.67279,0.588576 l 1.69344,0.340747 q 2.57113,0.5163 3.65534,1.569533 1.08422,1.053242 1.08422,2.9945 0,2.550482 -1.51789,3.79991 -1.50758,1.239098 -4.61566,1.239098 -1.46628,0 -2.94288,-0.278799 -1.476592,-0.27879 -2.953182,-0.82606 l 0,-3.355902 q 1.47659,0.784762 2.849932,1.187472 1.38366,0.392381 2.66407,0.392381 1.30106,0 1.99289,-0.433687 0.69184,-0.433688 0.69184,-1.239099 0,-0.722807 -0.475,-1.115188 -0.46466,-0.39239 -1.86897,-0.702159 l -1.53856,-0.340754 q -2.312992,-0.495643 -3.386882,-1.579863 -1.06356,-1.084211 -1.06356,-2.922215 0,-2.302661 1.48692,-3.54176 1.486922,-1.239108 4.274902,-1.239108 1.27008,0 2.61245,0.196195 1.34236,0.185866 2.77765,0.567919 z m -21.033757,9.117728 0,1.053232 -8.642734,0 q 0.13423,1.301064 0.939651,1.951587 0.805411,0.650531 2.251034,0.650531 1.166815,0 2.385274,-0.340754 1.22877,-0.351075 2.519505,-1.053233 l 0,2.849931 q -1.311384,0.495643 -2.622766,0.743464 -1.311384,0.258141 -2.622767,0.258141 -3.139059,0 -4.88413,-1.590182 -1.734742,-1.600503 -1.734742,-4.48141 0,-2.829291 1.703764,-4.450442 1.714094,-1.621161 4.708592,-1.621161 2.72602,0 4.357509,1.641809 1.64181,1.641809 1.64181,4.388487 z m -3.799911,-1.228779 q 0,-1.053233 -0.619554,-1.693436 -0.609225,-0.650532 -1.600511,-0.650532 -1.073882,0 -1.745062,0.609225 -0.67118,0.598905 -0.836399,1.734743 z m -11.193224,0 0,7.042231 -3.717307,0 0,-1.146166 0,-4.243927 q 0,-1.49725 -0.07232,-2.065168 -0.06194,-0.567928 -0.227163,-0.836398 -0.216845,-0.361404 -0.588577,-0.55759 -0.371733,-0.206524 -0.846717,-0.206524 -1.156495,0 -1.817347,0.898353 -0.660861,0.888025 -0.660861,2.467879 l 0,5.689541 -3.696658,0 0,-11.564948 3.696658,0 0,1.693435 q 0.836398,-1.011936 1.776049,-1.48692 0.939651,-0.485315 2.075497,-0.485315 2.003213,0 3.035797,1.22878 1.042913,1.228769 1.042913,3.572737 z m -18.896308,-4.522717 3.696657,0 0,11.564948 -3.696657,0 z m 0,-4.502069 3.696657,0 0,3.015148 -3.696657,0 z m -2.787975,10.253565 0,1.053232 -8.642742,0 q 0.13424,1.301064 0.93965,1.951587 0.805421,0.650531 2.251043,0.650531 1.166816,0 2.385266,-0.340754 1.228779,-0.351075 2.519514,-1.053233 l 0,2.849931 q -1.311384,0.495643 -2.622767,0.743464 -1.311384,0.258141 -2.622767,0.258141 -3.139059,0 -4.88413,-1.590182 -1.734742,-1.600503 -1.734742,-4.48141 0,-2.829291 1.703764,-4.450442 1.714094,-1.621161 4.708594,-1.621161 2.726019,0 4.357499,1.641809 1.641818,1.641809 1.641818,4.388487 z m -3.799919,-1.228779 q 0,-1.053233 -0.619545,-1.693436 -0.609226,-0.650532 -1.600512,-0.650532 -1.073891,0 -1.745071,0.609225 -0.671171,0.598905 -0.836389,1.734743 z m -23.604891,-8.374264 3.975457,0 0,5.627596 5.730838,-5.627596 4.61566,0 -7.424284,7.300382 8.188397,8.116113 -4.977063,0 -6.133548,-6.071594 0,6.071594 -3.975457,0 z M 158.2092,162.99808 c -15.80004,13.73238 -36.80098,19.51837 -57.22369,15.76574 -12.599864,-2.3152 -24.476829,-8.22524 -33.188063,-16.51455 -1.372274,-1.30597 -2.662792,-2.40756 -2.867636,-2.44816 -0.268814,-0.0533 -2.18089,1.70463 -6.871406,6.31736 -3.574417,3.51516 -6.722722,6.54762 -6.996222,6.73881 -0.496726,0.34727 -0.501637,0.34347 -4.516586,-3.48602 -3.043462,-2.90288 -3.984178,-3.91101 -3.874614,-4.15227 0.07954,-0.17524 3.2743,-3.73472 7.099382,-7.90993 l 6.954707,-7.59131 -1.927913,-3.34064 c -1.060347,-1.83736 -2.229365,-3.97252 -2.597811,-4.74478 -8.945414,-18.74998 -8.935771,-40.59949 0.02609,-59.131748 5.152077,-10.653955 13.609504,-20.374298 23.385925,-26.878044 16.128819,-10.72967 36.021127,-14.071037 54.884067,-9.219003 8.00475,2.059027 16.26453,6.010883 23.24635,11.122132 1.04875,0.767797 3.30531,2.624491 5.01454,4.126011 l 3.10768,2.730046 1.21613,-1.03187 c 0.66887,-0.567531 3.44826,-3.259079 6.17646,-5.981224 2.72816,-2.722138 5.35854,-5.268152 5.84527,-5.657797 l 0.88499,-0.708451 4.06112,3.873531 4.0611,3.87353 -2.47516,2.84473 c -1.36136,1.564595 -4.53787,5.007942 -7.05896,7.651872 -4.9955,5.238969 -4.88094,5.051974 -3.93909,6.429232 0.29366,0.42939 1.28117,2.148178 2.19449,3.819511 5.2516,9.610257 8.03876,20.039743 8.27916,30.980582 0.325,14.79177 -3.91503,28.73813 -12.40384,40.7988 -2.31709,3.29207 -7.6554,9.2546 -10.49651,11.72391 z m -5.36236,-18.88613 c 10.05553,-12.60228 13.6179,-28.49973 9.89624,-44.162869 -0.70994,-2.98793 -2.51132,-7.896252 -3.91377,-10.664048 -0.78258,-1.544515 -0.9811,-1.794675 -1.30302,-1.64207 -0.20888,0.099 -7.73689,8.081948 -16.72884,17.739877 -34.51907,37.07552 -39.39941,42.25571 -39.54268,41.97223 -0.0757,-0.14979 0.7193,-6.11263 1.76669,-13.25077 1.04739,-7.13813 1.90417,-13.056 1.90398,-13.15084 0,-0.54225 -1.18148,0.4286 -4.58389,3.77027 -4.316862,4.23982 -12.815551,12.5421 -18.860555,18.42471 -2.241743,2.18152 -4.139807,4.11092 -4.217915,4.28757 -0.199102,0.45032 3.513897,3.94157 6.340452,5.96177 14.514086,10.37354 33.568798,12.43833 49.841128,5.40083 7.72837,-3.34241 14.34954,-8.35436 19.40218,-14.68666 z m -3.48609,-67.655513 c -0.013,-0.550619 -1.41349,-1.905034 -4.42751,-4.281848 -9.72218,-7.666823 -22.1999,-11.635337 -34.37712,-10.933621 -24.72929,1.425064 -44.663788,20.071374 -47.764619,44.678032 -0.378125,3.00063 -0.356041,9.243 0.04424,12.49752 0.444567,3.61475 1.627444,8.32646 2.947324,11.73988 1.38373,3.57855 2.779876,6.42026 3.150001,6.41152 0.230206,-0.006 21.639482,-22.84429 47.186324,-50.337138 6.54166,-7.039965 9.01025,-9.579821 9.16632,-9.430955 0.11747,0.112057 -0.28459,3.632743 -0.89347,7.823753 -0.60889,4.191009 -1.47157,10.121621 -1.91707,13.179121 -0.44547,3.057509 -0.67426,5.551669 -0.50841,5.542579 0.16585,-0.009 5.61536,-5.222349 12.10999,-11.585019 6.49465,-6.362672 12.28545,-12.017651 12.86846,-12.566618 0.583,-0.548967 1.36738,-1.288505 1.74309,-1.643425 0.37569,-0.354912 0.6783,-0.847116 0.67246,-1.093781 z"
       inkscape:connector-curvature="0" />
  </g>
  <g
     inkscape:groupmode="layer"
     id="layer3"
     inkscape:label="beschnitt"
     sodipodi:insensitive="true"
     style="display:inline">
    <rect
       style="opacity:1;fill:none;fill-opacity:1;stroke:#ff00ff;stroke-width:0.20210263;stroke-miterlimit:4;stroke-dasharray:none"
       id="rect4209"
       width="212.39632"
       height="212.39632"
       x="7.1876655"
       y="7.187676" />
  </g>
</svg>
