<?xml version="1.0" encoding="UTF-8" standalone="no"?>
<!-- Created with Inkscape (http://www.inkscape.org/) -->

<svg
   width="233.62709mm"
   height="131.7625mm"
   viewBox="0 0 233.62709 131.7625"
   version="1.1"
   id="svg1"
   xml:space="preserve"
   xmlns="http://www.w3.org/2000/svg"
   xmlns:svg="http://www.w3.org/2000/svg"><defs
     id="defs1" /><g
     id="layer1"
     transform="translate(12.047401,-82.849267)"
     style="display:inline"><rect
       style="fill:#000000;fill-opacity:0.996078;stroke:none;stroke-width:0.771226"
       id="rect1"
       width="233.627"
       height="131.76199"
       x="-12.047356"
       y="82.849518" /></g><g
     id="layer2"
     style="display:inline"><path
       id="path106470-8"
       style="fill:#ffffff;fill-opacity:1;stroke:none;stroke-width:2.5;stroke-linecap:round;stroke-linejoin:round;stroke-miterlimit:4;stroke-dasharray:none;stop-color:#000000"
       d="m 213.29599,151.34741 c -33.6243,3.04705 -51.47918,15.83106 -61.30586,27.99416 -8.58347,10.6243 -10.80488,20.64508 -11.30267,23.59804 l -0.017,0.41496 72.64212,-0.0243 0.0992,-51.82888 z"
       transform="translate(12.047401,-82.849268)" /><path
       id="rect105357"
       style="fill:#f6ed38;fill-opacity:1;stroke:none;stroke-width:30.7537;stroke-linecap:round;stroke-linejoin:round;stop-color:#000000"
       d="m -3.8453177,135.76593 v 43.12709 H 113.3651 v 24.34166 h 24.74112 c 0.27104,-1.9348 2.23047,-13.44641 11.93881,-25.46304 10.24063,-12.67547 29.12291,-25.8214 63.33257,-28.91762 v -13.08809 z"
       transform="translate(12.047401,-82.849268)" /><g
       id="g5"><polygon
         fill="#010101"
         points="140.646,498.025 0,333.508 18.975,132.462 188.516,0 806.988,59.08 760.152,556.074 "
         id="polygon2"
         transform="matrix(0.06088183,0,0,0.06088183,175.12788,83.641033)" /><polygon
         fill-rule="evenodd"
         clip-rule="evenodd"
         fill="#f6eb16"
         points="145.831,486.848 10.244,329.482 29.154,137.616 192.541,11.274 795.682,69.196 751.031,544.768 "
         id="polygon4"
         transform="matrix(0.06088183,0,0,0.06088183,175.12788,83.641033)" /><path
         fill="#010101"
         d="m 180.59586,98.518908 c -0.0863,0.919986 -0.90215,1.592672 -1.82006,1.506282 -0.91974,-0.08816 -1.59255,-0.90416 -1.50628,-1.823902 0.0883,-0.917915 0.90416,-1.590538 1.82402,-1.504268 0.91785,0.08816 1.59054,0.904095 1.50232,1.821888 z"
         id="path5"
         style="stroke-width:0.0608818" /><path
         fill="#ffffff"
         d="m 179.98576,98.462106 c -0.0547,0.580508 -0.57052,1.006133 -1.1531,0.951157 -0.58057,-0.05492 -1.00607,-0.572655 -0.95122,-1.153102 0.0569,-0.580569 0.57278,-1.006133 1.15323,-0.951218 0.58051,0.05485 1.00607,0.570767 0.95109,1.153163 z"
         id="path28"
         style="stroke-width:0.0608818" /></g></g><g
     id="layer8"
     style="display:none"><g
       id="g6"><polygon
         fill-rule="evenodd"
         clip-rule="evenodd"
         fill="#010101"
         points="294.982,260.963 308.221,115.195 445.131,128.275 441.199,169.282 379.542,163.387 378.286,176.595 434.532,181.975 430.924,219.57 375.001,214.254 373.584,229.167 436.625,235.193 432.889,274.169 "
         id="polygon6"
         transform="matrix(0.06088183,0,0,0.06088183,175.12788,83.641033)" /><path
         fill-rule="evenodd"
         clip-rule="evenodd"
         fill="#010101"
         d="m 203.4716,97.399109 -1.57684,2.326051 c 0,0 1.98085,1.06488 4.72869,1.30403 2.7437,0.24334 4.75597,-0.54325 5.40125,-1.857141 0.64712,-1.310116 -0.1276,-2.800747 -1.39839,-3.214439 -1.2728,-0.411927 -3.47928,-0.851189 -3.24981,-1.288686 0.22952,-0.435305 1.61422,-0.345139 2.45548,0.006 0.84139,0.351105 1.07092,0.560904 1.07092,0.560904 l 1.4474,-2.069008 c 0,0 -1.53769,-1.125705 -4.41497,-1.296357 -2.87898,-0.170652 -4.99517,1.270847 -5.14226,2.610308 -0.14898,1.339583 0.71189,2.129951 2.02012,2.608604 0,0 1.11,0.356889 1.94743,0.539291 0.83548,0.184412 1.36698,0.735453 0.36876,0.931553 -0.9984,0.195979 -3.05182,-0.5413 -3.65778,-1.161077 z"
         id="path8"
         style="stroke-width:0.0608818" /><polygon
         fill-rule="evenodd"
         clip-rule="evenodd"
         fill="#010101"
         points="773.133,159.941 768.621,207.393 728.289,203.527 718.883,302.131 645.309,295.113 653.715,196.409 613.414,192.576 617.926,145.124 "
         id="polygon10"
         transform="matrix(0.06088183,0,0,0.06088183,175.12788,83.641033)" /><path
         fill-rule="evenodd"
         clip-rule="evenodd"
         fill="#010101"
         d="m 194.58924,100.7979 4.33625,0.39226 -0.46093,5.03645 c 0,0 -0.42752,1.20814 1.01593,1.34737 1.44552,0.13735 1.38092,-1.16095 1.38092,-1.16095 l 0.47445,-4.97179 4.35391,0.41576 -0.5589,5.86018 c 0,0 -0.51384,3.19879 -5.83844,2.69079 -5.3229,-0.50812 -5.25033,-3.87336 -5.25033,-3.87336 z"
         id="path12"
         style="stroke-width:0.0608818" /><polygon
         fill-rule="evenodd"
         clip-rule="evenodd"
         fill="#010101"
         points="501.277,299.492 584.005,307.063 604.428,347.297 630.779,311.541 713.793,319.431 636.352,396.167 630.359,458.853 557.525,451.894 563.387,390.237 "
         id="polygon14"
         transform="matrix(0.06088183,0,0,0.06088183,175.12788,83.641033)" /><g
         id="g18"
         transform="matrix(0.06088183,0,0,0.06088183,175.12788,83.641033)"><path
           fill-rule="evenodd"
           clip-rule="evenodd"
           fill="#010101"
           d="m 273.688,349.294 c 0,0 29.993,-5.896 29.219,-36.531 -0.771,-30.666 -61.98,-38.269 -61.98,-38.269 l -101.021,-10.02 -13.788,146.284 c 0,0 80.631,8.472 104.113,10.371 23.485,1.87 70.806,-0.129 75.478,-30.379 4.639,-30.276 -32.021,-41.456 -32.021,-41.456 z m -68.969,-41.877 c 0,0 31.023,-2.867 29.315,11.691 -1.741,14.529 -31.216,7.957 -31.216,7.957 z m -6.475,74.604 1.61,-23.771 c 0,0 38.784,-1.45 37.528,15.205 -1.256,16.655 -39.138,8.566 -39.138,8.566 z"
           id="path16" /></g><g
         id="g22"
         transform="matrix(0.06088183,0,0,0.06088183,175.12788,83.641033)"><path
           fill="#010101"
           d="m 258.934,181.686 c 0,0 29.993,-5.895 29.219,-36.531 -0.773,-30.633 -61.98,-38.303 -61.98,-38.303 L 125.118,96.868 111.364,243.15 c 0,0 80.631,8.472 104.082,10.342 23.483,1.932 70.806,-0.098 75.478,-30.347 4.669,-30.28 -31.99,-41.459 -31.99,-41.459 z m -68.357,-41.491 c 0,0 31.055,-2.835 29.347,11.693 -1.738,14.528 -31.216,7.956 -31.216,7.956 z m -6.443,74.639 1.61,-23.807 c 0,0 38.754,-1.416 37.531,15.238 -1.256,16.623 -39.141,8.569 -39.141,8.569 z"
           id="path20" /></g><path
         fill="#010101"
         d="m 218.61833,103.96327 c 0.0373,-0.39421 0.38836,-0.68432 0.78257,-0.64712 0.39421,0.0373 0.68645,0.39013 0.64913,0.78447 -0.0371,0.39421 -0.39032,0.68449 -0.78453,0.64723 -0.39421,-0.0392 -0.68449,-0.39037 -0.64717,-0.78458 z m 1.25508,0.11969 c 0.0334,-0.33534 -0.18624,-0.60017 -0.48444,-0.62757 -0.30009,-0.0294 -0.5648,0.19026 -0.59615,0.52371 -0.0333,0.33533 0.18642,0.59999 0.48437,0.62945 0.30015,0.0275 0.5648,-0.19007 0.59622,-0.52559 z m -0.77661,-0.48632 0.30009,0.0293 c 0.19622,0.0177 0.29412,0.0961 0.27853,0.26678 -0.0137,0.1393 -0.10003,0.19817 -0.23336,0.19817 l 0.18429,0.37455 -0.15695,-0.0139 -0.17449,-0.37059 -0.0922,-0.008 -0.0334,0.34909 -0.15093,-0.0138 z m 0.11774,0.36072 0.13139,0.0139 c 0.0902,0.008 0.16852,0.004 0.1785,-0.10599 0.01,-0.0941 -0.0746,-0.11757 -0.15312,-0.12548 l -0.13527,-0.0137 z"
         id="path30"
         style="stroke-width:0.0608818" /></g></g><g
     id="layer4"
     style="display:none"><g
       aria-label="Turn your computer off"
       transform="matrix(0.99656815,0,0,1.0034437,18.788916,-62.867519)"
       id="text52887"
       style="font-size:15.5598px;font-family:Arial;-inkscape-font-specification:Arial;stroke-width:0.291747"><path
         d="m -5.0606049,131.62204 v -8.49407 h -2.4919992 v -2.62876 h 8.01542438 v 2.62876 H -2.029179 v 8.49407 z"
         id="path108047" /><path
         d="m 9.6254757,123.94851 v 3.92034 q 0,1.31437 -0.1975365,1.91458 -0.2127316,0.623 -0.7141705,1.12444 -0.4786462,0.50144 -1.2611948,0.75976 -0.7445607,0.25071 -1.7930238,0.25071 -1.0408655,0 -1.7702312,-0.25071 -0.7521583,-0.24313 -1.2915849,-0.75976 -0.4938414,-0.47105 -0.6989754,-1.10924 -0.2051341,-0.59261 -0.2051341,-1.92978 v -3.92034 h 2.5831699 v 4.09508 q 0,0.96489 0.326695,1.38276 0.2963048,0.44065 1.0256705,0.44065 0.721768,0 1.0332679,-0.42546 0.3190975,-0.42546 0.3190975,-1.39795 v -4.09508 z"
         id="path108049" /><path
         d="m 11.585646,131.62204 v -7.67353 h 2.55278 v 1.80821 q 0.40267,-0.99528 1.071255,-1.48152 0.691378,-0.49384 1.663866,-0.49384 0.220329,0 0.326695,0.0152 0.08357,0.008 0.151951,0.0152 0.06838,0 0.174744,0.0152 l -0.258317,2.46161 q -0.28111,-0.0912 -0.486244,-0.12915 -0.303902,-0.0304 -0.448256,-0.0304 -0.987683,0 -1.527109,0.60781 -0.531829,0.60021 -0.531829,1.70945 v 3.17578 z"
         id="path108051" /><path
         d="m 18.522218,131.62204 v -7.67353 h 2.476804 v 1.5575 q 0.524231,-0.91171 1.245999,-1.36757 0.698976,-0.43306 1.694256,-0.43306 0.752158,0 1.33717,0.22793 0.577415,0.25832 0.9345,0.69898 0.326695,0.44065 0.433061,0.9345 0.129158,0.63059 0.129158,1.66386 v 4.39139 h -2.712328 v -4.11028 q 0,-0.9345 -0.296305,-1.33717 -0.296305,-0.41787 -0.96489,-0.41787 -0.835731,0 -1.230804,0.623 -0.387476,0.623 -0.387476,2.02095 v 3.22137 z"
         id="path108053" /><path
         d="m 33.132321,135.01055 2.157707,-4.55853 -3.092206,-6.50351 h 3.001035 l 1.071256,2.7731 q 0.159549,0.37988 0.220329,0.65339 0.08357,0.28111 0.144354,0.56222 0.04558,-0.27351 0.136756,-0.57741 0.06078,-0.26592 0.220329,-0.6382 l 1.086451,-2.7731 h 2.89467 l -4.82445,11.06204 z"
         id="path108055" /><path
         d="m 47.278978,127.80807 q 0,-0.85853 -0.433061,-1.35237 -0.448256,-0.49384 -1.170024,-0.49384 -0.74456,0 -1.170024,0.49384 -0.433061,0.47865 -0.433061,1.35237 0,0.85092 0.417866,1.33717 0.455854,0.50143 1.185219,0.50143 0.729366,0 1.185219,-0.50143 0.417866,-0.50144 0.417866,-1.33717 z m 2.689536,0 q 0,0.84332 -0.326695,1.57269 -0.34189,0.77495 -0.9345,1.33717 -0.668585,0.623 -1.382756,0.90411 -0.74456,0.2963 -1.64867,0.2963 -0.911707,0 -1.64867,-0.2963 -0.752158,-0.2963 -1.390353,-0.89651 -0.630598,-0.60781 -0.911707,-1.34477 -0.326695,-0.70657 -0.326695,-1.57269 0,-0.84333 0.326695,-1.58789 0.303902,-0.75216 0.919304,-1.33717 0.600207,-0.57742 1.382756,-0.88892 0.744561,-0.28871 1.64867,-0.28871 0.896512,0 1.64867,0.28871 0.782549,0.3115 1.382756,0.88892 0.630598,0.56981 0.9345,1.33717 0.326695,0.74456 0.326695,1.58789 z"
         id="path108057" /><path
         d="m 59.39708,123.94851 v 3.92034 q 0,1.31437 -0.197536,1.91458 -0.212732,0.623 -0.714171,1.12444 -0.478646,0.50144 -1.261195,0.75976 -0.74456,0.25071 -1.793023,0.25071 -1.040866,0 -1.770232,-0.25071 -0.752158,-0.24313 -1.291585,-0.75976 -0.493841,-0.47105 -0.698975,-1.10924 -0.205134,-0.59261 -0.205134,-1.92978 v -3.92034 h 2.58317 v 4.09508 q 0,0.96489 0.326695,1.38276 0.296305,0.44065 1.02567,0.44065 0.721768,0 1.033268,-0.42546 0.319098,-0.42546 0.319098,-1.39795 v -4.09508 z"
         id="path108059" /><path
         d="m 61.357252,131.62204 v -7.67353 h 2.55278 v 1.80821 q 0.402671,-0.99528 1.071256,-1.48152 0.691378,-0.49384 1.663865,-0.49384 0.220329,0 0.326695,0.0152 0.08357,0.008 0.151951,0.0152 0.06838,0 0.174744,0.0152 l -0.258317,2.46161 q -0.28111,-0.0912 -0.486244,-0.12915 -0.303902,-0.0304 -0.448256,-0.0304 -0.987682,0 -1.527109,0.60781 -0.531829,0.60021 -0.531829,1.70945 v 3.17578 z"
         id="path108061" /><path
         d="m 78.672087,126.4709 q -0.395073,-0.34949 -0.759755,-0.50904 -0.326695,-0.15955 -0.767354,-0.15955 -0.812939,0 -1.27639,0.53183 -0.478646,0.52423 -0.478646,1.44354 0,0.88131 0.493841,1.39795 0.478647,0.53183 1.329573,0.53183 0.402671,0 0.774951,-0.16715 0.395073,-0.18994 0.68378,-0.50144 v 2.34765 q -0.486243,0.25831 -0.980085,0.41026 -0.524231,0.12156 -0.99528,0.12156 -1.777829,0 -2.864279,-1.13963 -0.372281,-0.37988 -0.615403,-0.83573 -0.235524,-0.45585 -0.364683,-0.98768 -0.12156,-0.53183 -0.12156,-1.16243 0,-1.81582 1.109243,-2.94785 1.116841,-1.13964 2.887072,-1.13964 0.554622,0 1.056061,0.12156 0.486244,0.12157 0.888914,0.35709 z"
         id="path108063" /><path
         d="m 85.783403,127.80807 q 0,-0.85853 -0.433061,-1.35237 -0.448256,-0.49384 -1.170024,-0.49384 -0.74456,0 -1.170024,0.49384 -0.433061,0.47865 -0.433061,1.35237 0,0.85092 0.417866,1.33717 0.455854,0.50143 1.185219,0.50143 0.729366,0 1.185219,-0.50143 0.417866,-0.50144 0.417866,-1.33717 z m 2.689536,0 q 0,0.84332 -0.326695,1.57269 -0.34189,0.77495 -0.9345,1.33717 -0.668585,0.623 -1.382755,0.90411 -0.744561,0.2963 -1.648671,0.2963 -0.911707,0 -1.64867,-0.2963 -0.752158,-0.2963 -1.390353,-0.89651 -0.630598,-0.60781 -0.911707,-1.34477 -0.326695,-0.70657 -0.326695,-1.57269 0,-0.84333 0.326695,-1.58789 0.303902,-0.75216 0.919304,-1.33717 0.600208,-0.57742 1.382756,-0.88892 0.744561,-0.28871 1.64867,-0.28871 0.896512,0 1.648671,0.28871 0.782548,0.3115 1.382755,0.88892 0.630598,0.56981 0.9345,1.33717 0.326695,0.74456 0.326695,1.58789 z"
         id="path108065" /><path
         d="m 100.17318,131.62204 v -4.18626 q 0,-0.98768 -0.227924,-1.36756 -0.258317,-0.38747 -0.858524,-0.38747 -0.767353,0 -1.056061,0.52423 -0.296304,0.51663 -0.296304,2.1653 v 3.25176 h -2.613561 v -4.18626 q 0,-1.02567 -0.250719,-1.38275 -0.227927,-0.37228 -0.843329,-0.37228 -0.767353,0 -1.071256,0.50904 -0.296305,0.51663 -0.296305,2.18049 v 3.25176 h -2.628755 v -7.67353 h 2.659146 v 1.33717 q 0.486243,-0.80535 1.109243,-1.19282 0.607805,-0.38748 1.473927,-0.38748 0.934499,0 1.542304,0.35709 0.577415,0.36468 0.843329,1.08645 0.463451,-0.75216 1.101646,-1.08645 0.630597,-0.35709 1.511913,-0.35709 0.69138,0 1.20801,0.22793 0.53183,0.25072 0.87372,0.69898 0.28871,0.35708 0.40267,0.84332 0.11397,0.44826 0.11397,1.58789 v 0.16715 4.39139 z"
         id="path108067" /><path
         d="m 107.20092,127.80807 q 0,0.89651 0.47865,1.42074 0.44066,0.50904 1.27639,0.50904 0.82813,0 1.29158,-0.50904 0.46345,-0.53183 0.46345,-1.42074 0,-0.90411 -0.46345,-1.41315 -0.47105,-0.51663 -1.29158,-0.51663 -0.82814,0 -1.27639,0.51663 -0.47865,0.50144 -0.47865,1.41315 z m -2.40083,7.20248 V 123.9637 h 2.492 v 1.27639 q 0.49384,-0.73696 1.16243,-1.14723 0.6306,-0.37228 1.43594,-0.37228 0.81294,0 1.45873,0.27351 0.64579,0.26592 1.12444,0.81294 0.94969,1.08645 0.94969,3.00104 0,1.8386 -0.94969,2.97064 -0.48625,0.57742 -1.10165,0.85852 -0.6078,0.28111 -1.39035,0.28111 -0.98009,0 -1.58789,-0.35708 -0.58501,-0.34189 -1.08645,-1.18522 0.038,0.18234 0.0608,0.56222 0.0152,0.22033 0.0152,0.80534 v 3.26695 z"
         id="path108069" /><path
         d="m 122.92786,123.94851 v 3.92034 q 0,1.31437 -0.19753,1.91458 -0.21273,0.623 -0.71417,1.12444 -0.47865,0.50144 -1.2612,0.75976 -0.74456,0.25071 -1.79302,0.25071 -1.04087,0 -1.77023,-0.25071 -0.75216,-0.24313 -1.29159,-0.75976 -0.49384,-0.47105 -0.69897,-1.10924 -0.20514,-0.59261 -0.20514,-1.92978 v -3.92034 h 2.58317 v 4.09508 q 0,0.96489 0.3267,1.38276 0.2963,0.44065 1.02567,0.44065 0.72177,0 1.03327,-0.42546 0.31909,-0.42546 0.31909,-1.39795 v -4.09508 z"
         id="path108071" /><path
         d="m 125.30591,131.62204 -0.0152,-5.75895 h -1.14724 v -1.91458 h 1.14724 v -2.28687 h 2.68193 v 2.28687 h 1.13204 v 1.91458 h -1.13204 v 5.75895 z"
         id="path108073" /><path
         d="m 135.65378,126.79759 q -0.0684,-0.63819 -0.49384,-1.04087 -0.42547,-0.40267 -1.04087,-0.40267 -0.64579,0 -1.04846,0.35709 -0.41787,0.40267 -0.52423,1.08645 z m 2.66674,1.52711 h -5.83493 q 0.0228,0.89651 0.44826,1.36756 0.44066,0.48624 1.27639,0.48624 0.60781,0 1.04087,-0.23552 0.44065,-0.25072 0.63819,-0.68378 l 2.03615,0.82054 q -0.35709,0.87371 -1.29159,1.35236 -0.9269,0.48624 -2.27167,0.48624 -2.00575,0 -3.22136,-1.12443 -1.20801,-1.09405 -1.20801,-2.92506 0,-1.78543 1.20801,-2.98584 1.20801,-1.17763 3.06941,-1.17763 1.89939,0 3.00104,1.19282 0.56222,0.6154 0.83573,1.43594 0.27351,0.81294 0.27351,1.8614 z"
         id="path108075" /><path
         d="m 139.88562,131.62204 v -7.67353 h 2.55278 v 1.80821 q 0.40267,-0.99528 1.07125,-1.48152 0.69138,-0.49384 1.66387,-0.49384 0.22033,0 0.32669,0.0152 0.0836,0.008 0.15196,0.0152 0.0684,0 0.17474,0.0152 l -0.25832,2.46161 q -0.28111,-0.0912 -0.48624,-0.12915 -0.3039,-0.0304 -0.44826,-0.0304 -0.98768,0 -1.52711,0.60781 -0.53183,0.60021 -0.53183,1.70945 v 3.17578 z"
         id="path108077" /><path
         d="m 157.13968,127.80807 q 0,-0.85853 -0.43306,-1.35237 -0.44826,-0.49384 -1.17002,-0.49384 -0.74456,0 -1.17003,0.49384 -0.43306,0.47865 -0.43306,1.35237 0,0.85092 0.41787,1.33717 0.45585,0.50143 1.18522,0.50143 0.72936,0 1.18521,-0.50143 0.41787,-0.50144 0.41787,-1.33717 z m 2.68954,0 q 0,0.84332 -0.3267,1.57269 -0.34189,0.77495 -0.9345,1.33717 -0.66858,0.623 -1.38275,0.90411 -0.74456,0.2963 -1.64867,0.2963 -0.91171,0 -1.64867,-0.2963 -0.75216,-0.2963 -1.39036,-0.89651 -0.6306,-0.60781 -0.9117,-1.34477 -0.3267,-0.70657 -0.3267,-1.57269 0,-0.84333 0.3267,-1.58789 0.3039,-0.75216 0.9193,-1.33717 0.60021,-0.57742 1.38276,-0.88892 0.74456,-0.28871 1.64867,-0.28871 0.89651,0 1.64867,0.28871 0.78254,0.3115 1.38275,0.88892 0.6306,0.56981 0.9345,1.33717 0.3267,0.74456 0.3267,1.58789 z"
         id="path108079" /><path
         d="m 161.65262,131.62204 v -5.75895 h -1.15483 v -1.91458 h 1.15483 v -1.5727 q 0,-1.32957 0.72936,-2.02095 0.72177,-0.66858 2.1805,-0.66858 0.0988,0 0.49385,0.0304 0.42546,0.0684 0.6078,0.11396 v 2.06653 q -0.13676,-0.0532 -0.34189,-0.10636 -0.21273,-0.0304 -0.28111,-0.0304 -0.39507,0 -0.55462,0.22793 -0.17475,0.24312 -0.17475,0.73696 v 1.22321 h 1.35237 v 1.91458 h -1.35237 v 5.75895 z"
         id="path108081" /><path
         d="m 167.11527,131.62204 v -5.75895 h -1.15483 v -1.91458 h 1.15483 v -1.5727 q 0,-1.32957 0.72936,-2.02095 0.72177,-0.66858 2.1805,-0.66858 0.0988,0 0.49384,0.0304 0.42546,0.0684 0.60781,0.11396 v 2.06653 q -0.13676,-0.0532 -0.34189,-0.10636 -0.21274,-0.0304 -0.28111,-0.0304 -0.39508,0 -0.55463,0.22793 -0.17474,0.24312 -0.17474,0.73696 v 1.22321 h 1.35237 v 1.91458 h -1.35237 v 5.75895 z"
         id="path108083" /></g><g
       aria-label="before midnight on"
       transform="matrix(0.98746696,0,0,1.0126921,18.788916,-62.867519)"
       id="text89394"
       style="font-size:15.4177px;font-family:Arial;-inkscape-font-specification:Arial;stroke-width:0.289083"><path
         d="m -4.8583349,145.57224 q 0,0.91091 0.474275,1.40777 0.4366341,0.50439 1.2647332,0.50439 0.8205709,0 1.2797895,-0.50439 0.4592186,-0.50439 0.4592186,-1.40777 0,-0.89585 -0.4592186,-1.40024 -0.4667468,-0.51192 -1.2797895,-0.51192 -0.820571,0 -1.2647332,0.51192 -0.474275,0.49686 -0.474275,1.40024 z m -2.3789029,-7.87447 h 2.5595791 v 3.97488 q 0,0.58719 -0.015056,0.80551 -0.030113,0.38394 -0.060225,0.54956 0.4742749,-0.82057 1.0765288,-1.15181 0.6022539,-0.35383 1.5733883,-0.35383 1.52069113,0 2.46924102,1.10664 0.94102168,1.1217 0.94102168,2.94352 0,1.87452 -0.94102168,2.97363 -0.94854989,1.11417 -2.55957902,1.11417 -0.8055146,0 -1.4228249,-0.38394 -0.6398948,-0.36888 -1.1518106,-1.14428 v 1.23462 h -2.469241 z"
         style="-inkscape-font-specification:'Futura Bold'"
         id="path108124" /><path
         d="m 8.1654059,144.58605 q -0.067754,-0.63237 -0.4893313,-1.03136 -0.4215778,-0.39899 -1.0313598,-0.39899 -0.6398948,0 -1.038888,0.35382 -0.4140496,0.39899 -0.519444,1.07653 z m 2.6423891,1.51316 H 5.0261574 q 0.022584,0.88833 0.4441623,1.35507 0.436634,0.48181 1.2647332,0.48181 0.6022539,0 1.0313598,-0.23338 0.436634,-0.24843 0.6323666,-0.67753 l 2.0175507,0.81304 q -0.353824,0.86574 -1.2797897,1.34002 -0.9184372,0.4818 -2.250924,0.4818 -1.9874378,0 -3.1919456,-1.11417 -1.1969797,-1.08406 -1.1969797,-2.89835 0,-1.76912 1.1969797,-2.95857 1.1969796,-1.16687 3.0413822,-1.16687 1.8820434,0 2.9736286,1.18193 0.5570845,0.60978 0.8280995,1.42282 0.271014,0.80552 0.271014,1.8444 z"
         style="-inkscape-font-specification:'Futura Bold'"
         id="path108126" /><path
         d="m 12.607028,149.36644 v -5.70636 h -1.144282 v -1.8971 h 1.144282 v -1.55833 q 0,-1.31743 0.722705,-2.00249 0.715176,-0.66248 2.160586,-0.66248 0.09787,0 0.489331,0.0301 0.421578,0.0678 0.602254,0.11292 v 2.04767 q -0.135507,-0.0527 -0.338768,-0.1054 -0.210789,-0.0301 -0.278542,-0.0301 -0.391465,0 -0.549557,0.22585 -0.173148,0.2409 -0.173148,0.73023 v 1.21203 h 1.340015 v 1.8971 h -1.340015 v 5.70636 z"
         style="-inkscape-font-specification:'Futura Bold'"
         id="path108128" /><path
         d="m 23.154001,145.5873 q 0,-0.85069 -0.429106,-1.34002 -0.444163,-0.48933 -1.159339,-0.48933 -0.737761,0 -1.159339,0.48933 -0.429106,0.47428 -0.429106,1.34002 0,0.84315 0.41405,1.32496 0.45169,0.49685 1.174395,0.49685 0.722705,0 1.174395,-0.49685 0.41405,-0.49686 0.41405,-1.32496 z m 2.664973,0 q 0,0.83562 -0.323711,1.55833 -0.338768,0.76787 -0.925966,1.32496 -0.662479,0.61731 -1.370127,0.89585 -0.737761,0.2936 -1.633614,0.2936 -0.903381,0 -1.633614,-0.2936 -0.745289,-0.2936 -1.377656,-0.88832 -0.624838,-0.60226 -0.90338,-1.33249 -0.323712,-0.70012 -0.323712,-1.55833 0,-0.83563 0.323712,-1.57339 0.301126,-0.74529 0.910909,-1.32496 0.594725,-0.57214 1.370127,-0.8808 0.737761,-0.28607 1.633614,-0.28607 0.888324,0 1.633614,0.28607 0.775401,0.30866 1.370127,0.8808 0.624839,0.56461 0.925966,1.32496 0.323711,0.73776 0.323711,1.57339 z"
         style="-inkscape-font-specification:'Futura Bold'"
         id="path108130" /><path
         d="m 27.377306,149.36644 v -7.60346 h 2.529466 v 1.79171 q 0.398993,-0.98619 1.061473,-1.46799 0.685063,-0.48934 1.64867,-0.48934 0.218317,0 0.323711,0.0151 0.08281,0.008 0.150564,0.0151 0.06775,0 0.173148,0.0151 l -0.255958,2.43913 q -0.278543,-0.0903 -0.481803,-0.12798 -0.301127,-0.0301 -0.444163,-0.0301 -0.978662,0 -1.513163,0.60225 -0.526972,0.59473 -0.526972,1.69384 v 3.14678 z"
         style="-inkscape-font-specification:'Futura Bold'"
         id="path108132" /><path
         d="m 39.490137,144.58605 q -0.06775,-0.63237 -0.489331,-1.03136 -0.421578,-0.39899 -1.03136,-0.39899 -0.639895,0 -1.038888,0.35382 -0.414049,0.39899 -0.519444,1.07653 z m 2.642389,1.51316 h -5.781637 q 0.02258,0.88833 0.444162,1.35507 0.436634,0.48181 1.264733,0.48181 0.602254,0 1.03136,-0.23338 0.436634,-0.24843 0.632367,-0.67753 l 2.01755,0.81304 q -0.353824,0.86574 -1.279789,1.34002 -0.918438,0.4818 -2.250924,0.4818 -1.987438,0 -3.191946,-1.11417 -1.19698,-1.08406 -1.19698,-2.89835 0,-1.76912 1.19698,-2.95857 1.19698,-1.16687 3.041382,-1.16687 1.882044,0 2.973629,1.18193 0.557085,0.60978 0.828099,1.42282 0.271014,0.80552 0.271014,1.8444 z"
         style="-inkscape-font-specification:'Futura Bold'"
         id="path108134" /><path
         d="m 58.543945,149.36644 v -4.14802 q 0,-0.97867 -0.225845,-1.35508 -0.255958,-0.38393 -0.850683,-0.38393 -0.760346,0 -1.046417,0.51944 -0.293598,0.51192 -0.293598,2.14553 v 3.22206 H 53.53771 v -4.14802 q 0,-1.01631 -0.24843,-1.37013 -0.225845,-0.36888 -0.835627,-0.36888 -0.760346,0 -1.061473,0.50439 -0.293598,0.51191 -0.293598,2.16058 v 3.22206 h -2.604748 v -7.60346 h 2.63486 v 1.32496 q 0.481803,-0.79798 1.099114,-1.18192 0.602254,-0.38394 1.460465,-0.38394 0.925966,0 1.52822,0.35383 0.572141,0.36135 0.835627,1.07653 0.459219,-0.74529 1.091585,-1.07653 0.624839,-0.35383 1.498107,-0.35383 0.685064,0 1.196979,0.22585 0.526972,0.24843 0.86574,0.69259 0.286071,0.35382 0.398994,0.83563 0.112922,0.44416 0.112922,1.57339 v 0.16562 4.35128 z"
         style="-inkscape-font-specification:'Futura Bold'"
         id="path108136" /><path
         d="m 63.053317,149.36644 v -7.60346 h 2.68003 v 7.60346 z m 0.338768,-9.56078 h 0.01506 q 0,-0.42158 0.293599,-0.69259 0.293599,-0.2936 0.707648,-0.2936 0.436634,0 0.715177,0.27854 0.286071,0.27854 0.286071,0.70765 0,0.43663 -0.293599,0.7227 -0.286071,0.2936 -0.707649,0.2936 -0.429105,0 -0.722704,-0.30865 -0.293599,-0.28607 -0.293599,-0.70765 z"
         style="-inkscape-font-specification:'Futura Bold'"
         id="path108138" /><path
         d="m 73.735801,145.57224 q 0,-0.89585 -0.459218,-1.40024 -0.489332,-0.51192 -1.294846,-0.51192 -0.813043,0 -1.27979,0.51192 -0.466746,0.51192 -0.466746,1.40024 0,0.89585 0.466746,1.40777 0.459219,0.50439 1.27979,0.50439 0.813043,0 1.294846,-0.50439 0.459218,-0.50439 0.459218,-1.40777 z m 2.378903,-7.87447 v 11.66867 h -2.469241 v -1.23462 q -0.511916,0.7754 -1.159338,1.14428 -0.602254,0.38394 -1.415297,0.38394 -1.595973,0 -2.552051,-1.11417 -0.94855,-1.11417 -0.94855,-2.97363 0,-1.80676 0.956078,-2.94352 0.94855,-1.10664 2.454185,-1.10664 0.963606,0 1.56586,0.35383 0.579669,0.32371 1.084057,1.15181 -0.03011,-0.20326 -0.06023,-0.61731 -0.03011,-0.45169 -0.03011,-0.73776 v -3.97488 z"
         style="-inkscape-font-specification:'Futura Bold'"
         id="path108140" /><path
         d="m 78.102144,149.36644 v -7.60346 h 2.454185 v 1.54328 q 0.519444,-0.90338 1.23462,-1.35507 0.692592,-0.42911 1.678783,-0.42911 0.745289,0 1.324959,0.22585 0.572141,0.25596 0.925965,0.69259 0.323711,0.43663 0.429106,0.92597 0.127979,0.62483 0.127979,1.64867 v 4.35128 h -2.687558 v -4.07274 q 0,-0.92597 -0.293599,-1.32496 -0.293599,-0.41405 -0.956078,-0.41405 -0.828099,0 -1.219564,0.61731 -0.383937,0.61731 -0.383937,2.00249 v 3.19195 z"
         style="-inkscape-font-specification:'Futura Bold'"
         id="path108142" /><path
         d="m 88.107081,149.36644 v -7.60346 h 2.68003 v 7.60346 z m 0.338768,-9.56078 h 0.01506 q 0,-0.42158 0.293598,-0.69259 0.293599,-0.2936 0.707649,-0.2936 0.436634,0 0.715176,0.27854 0.286071,0.27854 0.286071,0.70765 0,0.43663 -0.293599,0.7227 -0.286071,0.2936 -0.707648,0.2936 -0.429106,0 -0.722705,-0.30865 -0.293599,-0.28607 -0.293599,-0.70765 z"
         style="-inkscape-font-specification:'Futura Bold'"
         id="path108144" /><path
         d="m 98.774509,145.54213 q 0,-0.8808 -0.459218,-1.38519 -0.49686,-0.49686 -1.309902,-0.49686 -0.813043,0 -1.309903,0.49686 -0.481803,0.50439 -0.481803,1.38519 0,0.88832 0.481803,1.37013 0.489332,0.51191 1.309903,0.51191 0.805514,0 1.294845,-0.51191 0.474275,-0.47428 0.474275,-1.37013 z m 2.356321,-3.77915 v 7.5884 q 0,1.72396 -1.04642,2.54453 -0.504386,0.40652 -1.324957,0.61731 -0.820571,0.21079 -1.927212,0.21079 -1.799234,0 -2.792953,-0.66248 -0.993719,-0.67001 -1.061472,-1.85946 h 2.777896 q 0.07528,0.36135 0.398993,0.54955 0.33124,0.20326 0.880796,0.20326 0.858212,0 1.19698,-0.41405 0.323711,-0.41404 0.323711,-1.76159 v -0.69259 q -0.429106,0.7227 -1.076529,1.06147 -0.670007,0.35383 -1.558331,0.35383 -1.505635,0 -2.416544,-1.09159 -0.444162,-0.5345 -0.677536,-1.2572 -0.233373,-0.73024 -0.233373,-1.64115 0,-1.82181 0.956078,-2.9134 0.474275,-0.54203 1.11417,-0.80551 0.647422,-0.27102 1.445409,-0.27102 0.850683,0 1.475522,0.35383 0.61731,0.33124 1.069001,1.10664 v -1.21957 z"
         style="-inkscape-font-specification:'Futura Bold'"
         id="path108146" /><path
         d="m 103.1559,149.36644 v -11.66867 h 2.63486 v 4.09533 q 0,0.2936 -0.0301,0.76034 -0.0226,0.40652 -0.0602,0.61731 0.50439,-0.85068 1.18946,-1.24967 0.69259,-0.399 1.63361,-0.399 0.74529,0 1.32496,0.22585 0.57214,0.25596 0.92596,0.69259 0.32371,0.43663 0.42911,0.92597 0.12798,0.62483 0.12798,1.64867 v 4.35128 h -2.68756 v -4.07274 q 0,-0.92597 -0.2936,-1.32496 -0.2936,-0.41405 -0.95608,-0.41405 -0.8281,0 -1.21956,0.61731 -0.38394,0.61731 -0.38394,2.00249 v 3.19195 z"
         style="-inkscape-font-specification:'Futura Bold'"
         id="path108148" /><path
         d="m 113.65018,149.36644 -0.0151,-5.70636 h -1.13675 v -1.8971 h 1.13675 V 139.497 h 2.65745 v 2.26598 h 1.12169 v 1.8971 h -1.12169 v 5.70636 z"
         style="-inkscape-font-specification:'Futura Bold'"
         id="path108150" /><path
         d="m 128.8872,145.5873 q 0,-0.85069 -0.4291,-1.34002 -0.44416,-0.48933 -1.15934,-0.48933 -0.73776,0 -1.15934,0.48933 -0.4291,0.47428 -0.4291,1.34002 0,0.84315 0.41404,1.32496 0.4517,0.49685 1.1744,0.49685 0.7227,0 1.17439,-0.49685 0.41405,-0.49686 0.41405,-1.32496 z m 2.66498,0 q 0,0.83562 -0.32371,1.55833 -0.33877,0.76787 -0.92597,1.32496 -0.66248,0.61731 -1.37013,0.89585 -0.73776,0.2936 -1.63361,0.2936 -0.90338,0 -1.63361,-0.2936 -0.74529,-0.2936 -1.37766,-0.88832 -0.62484,-0.60226 -0.90338,-1.33249 -0.32371,-0.70012 -0.32371,-1.55833 0,-0.83563 0.32371,-1.57339 0.30113,-0.74529 0.91091,-1.32496 0.59472,-0.57214 1.37013,-0.8808 0.73776,-0.28607 1.63361,-0.28607 0.88832,0 1.63361,0.28607 0.77541,0.30866 1.37013,0.8808 0.62484,0.56461 0.92597,1.32496 0.32371,0.73776 0.32371,1.57339 z"
         style="-inkscape-font-specification:'Futura Bold'"
         id="path108152" /><path
         d="m 133.09545,149.36644 v -7.60346 h 2.45418 v 1.54328 q 0.51944,-0.90338 1.23462,-1.35507 0.69259,-0.42911 1.67878,-0.42911 0.74529,0 1.32496,0.22585 0.57214,0.25596 0.92597,0.69259 0.32371,0.43663 0.4291,0.92597 0.12798,0.62483 0.12798,1.64867 v 4.35128 h -2.68756 v -4.07274 q 0,-0.92597 -0.29359,-1.32496 -0.2936,-0.41405 -0.95608,-0.41405 -0.8281,0 -1.21957,0.61731 -0.38393,0.61731 -0.38393,2.00249 v 3.19195 z"
         style="-inkscape-font-specification:'Futura Bold'"
         id="path108154" /></g><g
       aria-label="12/31/99."
       transform="matrix(0.97397591,0,0,1.0267194,18.788916,-62.867519)"
       id="text19260"
       style="font-size:20.4242px;font-family:Arial;-inkscape-font-specification:Arial;fill:#f6ed38;stroke-width:0.510602"><path
         d="m -3.9866725,164.01886 h -2.2058136 v -3.39042 h 6.2089568 v 15.39985 h -4.0031432 z"
         style="-inkscape-font-specification:Futura-Bold"
         id="path108189" /><path
         d="m 12.536483,172.63787 h 5.044777 v 3.39042 H 5.2041948 l 6.2906532,-6.84211 q 0.673999,-0.71484 1.205028,-1.69521 0.551454,-1.00078 0.551454,-2.06284 0,-0.0204 0,-0.0409 0,-0.0409 0,-0.0817 -0.04085,-0.69442 -0.510605,-1.28672 -0.469757,-0.5923 -1.245877,-0.5923 -0.816968,0 -1.245876,0.55145 -0.428908,0.55146 -0.428908,1.32757 0,0.14297 0.020424,0.32679 0.020424,0.1634 0.040848,0.32679 l -4.4116272,-0.0204 q 0.102121,-2.63472 1.6952086,-4.26865 1.5930876,-1.63394 4.3095056,-1.63394 2.43048,0 4.186961,1.49097 1.756481,1.47054 1.756481,3.98272 0,1.42969 -0.49018,2.43048 -0.490181,1.00078 -1.40927,1.91987 -0.14297,0.14297 -0.285939,0.28594 -0.142969,0.14297 -0.306363,0.28594 l -2.389631,2.20581 z"
         style="-inkscape-font-specification:Futura-Bold"
         id="path108191" /><path
         d="m 26.894674,159.0762 h 2.92066 l -7.802044,18.85154 h -2.920661 z"
         style="-inkscape-font-specification:Futura-Bold"
         id="path108193" /><path
         d="m 35.574927,165.06049 h -3.717204 q 0.122545,-1.1846 0.592302,-2.10369 0.469756,-0.93951 1.205028,-1.59309 0.735271,-0.65357 1.736057,-0.98036 1.000785,-0.34721 2.185389,-0.34721 2.062844,0 3.492538,1.16418 1.429694,1.14376 1.429694,3.30872 0,0.10212 0,0.20424 0,0.10212 -0.02042,0.20424 -0.06127,0.81697 -0.449332,1.57267 -0.38806,0.75569 -1.143756,1.1846 1.02121,0.26552 1.633936,1.14376 0.612726,0.87824 0.796544,1.89945 0.04085,0.20424 0.06127,0.42891 0.02042,0.20424 0.02042,0.40848 0,2.5326 -1.838178,3.81933 -1.838178,1.2663 -4.146113,1.2663 -1.307148,0 -2.491752,-0.38806 -1.164179,-0.38806 -2.103693,-1.32758 -0.49018,-0.5106 -0.939513,-1.22545 -0.428908,-0.73527 -0.653574,-1.49097 -0.0817,-0.28593 -0.122545,-0.55145 -0.04085,-0.26551 -0.04085,-0.53103 0,0 0,0 0,-0.0204 0,-0.0408 0,-0.0204 0,-0.0204 0,-0.0204 0,-0.0204 l 4.08484,-0.0204 q 0,0.93951 0.592302,1.57266 0.612726,0.63315 1.552239,0.63315 0.919089,0 1.531815,-0.55145 0.612726,-0.57188 0.612726,-1.51139 0,-0.87824 -0.653574,-1.47054 -0.63315,-0.5923 -1.470543,-0.5923 -0.183817,0 -0.367635,0.0408 -0.163394,0.0409 -0.326787,0.0817 v -2.69599 h 0.408484 q 0.776119,0.0204 1.2663,-0.42891 0.490181,-0.44933 0.490181,-1.24588 0,-0.71484 -0.449333,-1.12333 -0.449332,-0.42891 -1.123331,-0.42891 -0.755695,0 -1.205027,0.51061 -0.428909,0.49018 -0.428909,1.22545 0,0 0,0.0204 0,0 0,0 0,0 0,0.0204 0,0 0,0 z"
         style="-inkscape-font-specification:Futura-Bold"
         id="path108195" /><path
         d="m 49.871845,164.01886 h -2.205814 v -3.39042 h 6.208957 v 15.39985 h -4.003143 z"
         style="-inkscape-font-specification:Futura-Bold"
         id="path108197" /><path
         d="m 66.742212,159.0762 h 2.92066 l -7.802044,18.85154 h -2.920661 z"
         style="-inkscape-font-specification:Futura-Bold"
         id="path108199" /><path
         d="m 77.995918,176.02829 h -4.554596 l 4.391203,-5.18775 -0.04085,-0.0409 q -0.102121,0.0613 -0.204242,0.10213 -0.102121,0.0408 -0.204242,0.0817 -0.408484,0.14297 -0.837392,0.22467 -0.428908,0.0817 -0.919089,0.0817 -2.267086,0 -3.615083,-1.65436 -1.327573,-1.65437 -1.327573,-3.77848 0,-2.83897 1.981147,-4.32993 2.001572,-1.49097 4.636294,-1.49097 0.326787,0 0.673998,0.0204 0.347212,0.0204 0.694423,0.0817 0.816968,0.12255 1.593088,0.42891 0.796543,0.28594 1.429694,0.79654 0.898664,0.73528 1.450118,1.83818 0.571877,1.08248 0.612726,2.26709 0,0.0204 0,0.0613 0,0.0409 0,0.0817 0,1.67478 -0.735271,3.24745 -0.735272,1.55223 -1.736057,2.87981 l -3.288297,4.28908 z M 77.32192,163.18147 q -1.062059,0.0204 -1.776906,0.75569 -0.694422,0.73527 -0.694422,1.79733 0,1.06206 0.694422,1.79733 0.714847,0.73527 1.776906,0.73527 1.062058,0 1.797329,-0.73527 0.755696,-0.73527 0.755696,-1.79733 0,-1.06206 -0.755696,-1.79733 -0.735271,-0.73527 -1.797329,-0.73527 z"
         style="-inkscape-font-specification:Futura-Bold"
         id="path108201" /><path
         d="m 92.006897,176.02829 h -4.554596 l 4.391203,-5.18775 -0.04085,-0.0409 q -0.102121,0.0613 -0.204242,0.10213 -0.102121,0.0408 -0.204242,0.0817 -0.408484,0.14297 -0.837392,0.22467 -0.428908,0.0817 -0.919089,0.0817 -2.267086,0 -3.615083,-1.65436 -1.327573,-1.65437 -1.327573,-3.77848 0,-2.83897 1.981147,-4.32993 2.001572,-1.49097 4.636293,-1.49097 0.326788,0 0.673999,0.0204 0.347211,0.0204 0.694423,0.0817 0.816968,0.12255 1.593087,0.42891 0.796544,0.28594 1.429694,0.79654 0.898665,0.73528 1.450119,1.83818 0.571877,1.08248 0.612726,2.26709 0,0.0204 0,0.0613 0,0.0409 0,0.0817 0,1.67478 -0.735272,3.24745 -0.735271,1.55223 -1.736057,2.87981 l -3.288296,4.28908 z m -0.673998,-12.84682 q -1.062059,0.0204 -1.776906,0.75569 -0.694423,0.73527 -0.694423,1.79733 0,1.06206 0.694423,1.79733 0.714847,0.73527 1.776906,0.73527 1.062058,0 1.797329,-0.73527 0.755696,-0.73527 0.755696,-1.79733 0,-1.06206 -0.755696,-1.79733 -0.735271,-0.73527 -1.797329,-0.73527 z"
         style="-inkscape-font-specification:Futura-Bold"
         id="path108203" /><path
         d="m 101.74922,171.65751 q 1.00078,0.0204 1.69521,0.71485 0.69442,0.69442 0.69442,1.69521 0,0.98036 -0.69442,1.67478 -0.69443,0.69442 -1.69521,0.69442 -1.00079,0 -1.69521,-0.69442 -0.694423,-0.69442 -0.694423,-1.67478 0,-1.00079 0.694423,-1.69521 0.69442,-0.69442 1.69521,-0.69442 z"
         style="-inkscape-font-specification:Futura-Bold"
         id="path108205" /></g><text
       xml:space="preserve"
       style="font-style:normal;font-weight:normal;font-size:42.207px;line-height:1.25;font-family:sans-serif;display:inline;fill:#f6ed38;fill-opacity:1;stroke:none;stroke-width:1.05684;stroke-dasharray:none"
       x="-2.0550182"
       y="127.89413"
       id="text2"
       transform="translate(12.047401,-82.849268)"><tspan
         id="tspan2"
         style="font-style:normal;font-variant:normal;font-weight:normal;font-stretch:normal;font-size:42.207px;font-family:Gabarito;-inkscape-font-specification:'Gabarito, @wght=900';font-variant-ligatures:normal;font-variant-caps:normal;font-variant-numeric:normal;font-variant-east-asian:normal;font-variation-settings:'wght' 900;fill:#f6ed38;fill-opacity:1;stroke-width:1.05684;stroke-dasharray:none"
         x="-2.0550182"
         y="127.89413">REMEMBER</tspan></text></g><g
     id="layer5"
     style="display:inline"><g
       aria-label="REMEMBER"
       transform="matrix(0.99102399,0,0,1.0090573,18.788916,-62.867519)"
       id="text8183"
       style="font-size:36.7384px;font-family:Arial;-inkscape-font-specification:Arial;fill:#f6ed38;stroke-width:0.191346"><path
         d="m 1.6848712,86.640885 v 5.13046 h 1.4709711 q 1.3812777,0 2.0988246,-0.663731 0.6996082,-0.627854 0.6996082,-1.865622 0,-1.255707 -0.6996082,-1.955315 Q 4.53712,86.640885 3.1558423,86.640885 Z M -7.5714833,106.14022 V 79.878005 H 4.3039173 q 5.1842761,0 7.8930157,2.278212 2.726678,2.29615 2.726678,6.565553 0,2.798433 -1.363339,4.5923 -1.399217,1.865622 -3.7133052,2.134702 L 16.860987,106.14022 H 6.2771712 l -4.5923,-8.664378 v 8.664378 z"
         style="-inkscape-font-specification:Futura-Black"
         id="path108014" /><path
         d="M 18.726609,106.14022 V 79.878005 h 17.561959 v 7.121653 h -8.305605 v 2.529353 h 7.534242 v 6.727002 h -7.534242 v 2.762555 h 8.520869 v 7.121652 z"
         style="-inkscape-font-specification:Futura-Black"
         id="path108016" /><path
         d="M 64.326711,106.14022 63.178636,95.735791 q -0.05382,-0.609915 -0.107632,-1.21983 -0.05382,-0.609914 -0.107632,-1.201891 -0.143509,-1.506848 -0.179387,-2.385843 -0.197325,1.183952 -0.448467,2.385843 -0.215264,0.986627 -0.735485,2.726679 L 58.586336,106.14022 H 52.971532 L 49.957835,96.040749 q -0.466405,-1.435094 -0.735486,-2.726679 -0.340834,-1.578603 -0.448466,-2.385843 -0.14351,1.722113 -0.179387,2.421721 -0.07175,0.771363 -0.215264,2.385843 L 47.231157,106.14022 H 37.974802 L 42.45947,79.878005 h 9.740699 l 1.865622,6.4938 q 0.03588,0.179386 0.26908,0.914872 1.201891,4.305281 1.453032,6.762879 h 0.161448 q 0.215264,-1.686235 0.645793,-3.551857 0.340834,-1.632419 1.148075,-4.233527 l 1.955315,-6.386167 h 9.72276 l 4.161772,26.262215 z"
         style="-inkscape-font-specification:Futura-Black"
         id="path108018" /><path
         d="M 76.184178,106.14022 V 79.878005 h 17.561959 v 7.121653 h -8.305605 v 2.529353 h 7.534242 v 6.727002 h -7.534242 v 2.762555 h 8.520869 v 7.121652 z"
         style="-inkscape-font-specification:Futura-Black"
         id="path108020" /><path
         d="m 121.78428,106.14022 -1.14807,-10.404429 q -0.0538,-0.609915 -0.10764,-1.21983 -0.0538,-0.609914 -0.10763,-1.201891 -0.14351,-1.506848 -0.17939,-2.385843 -0.19732,1.183952 -0.44846,2.385843 -0.21527,0.986627 -0.73549,2.726679 l -3.01369,10.099471 h -5.61481 l -3.0137,-10.099471 q -0.4664,-1.435094 -0.73548,-2.726679 -0.34084,-1.578603 -0.44847,-2.385843 -0.14351,1.722113 -0.17938,2.421721 -0.0718,0.771363 -0.21527,2.385843 l -1.14807,10.404429 h -9.256359 l 4.484668,-26.262215 h 9.740701 l 1.86562,6.4938 q 0.0359,0.179386 0.26908,0.914872 1.20189,4.305281 1.45303,6.762879 h 0.16145 q 0.21526,-1.686235 0.64579,-3.551857 0.34084,-1.632419 1.14808,-4.233527 l 1.95531,-6.386167 h 9.72276 l 4.16177,26.262215 z"
         style="-inkscape-font-specification:Futura-Black"
         id="path108022" /><path
         d="m 142.50345,95.448772 v 4.19765 h 1.5786 q 1.39922,0 2.20646,-0.556099 0.73548,-0.591976 0.73548,-1.542726 0,-1.040443 -0.73548,-1.542726 -0.77137,-0.556099 -2.20646,-0.556099 z m 0,-9.328109 v 3.677428 h 1.23777 q 1.14807,0 1.77592,-0.484344 0.57404,-0.466406 0.57404,-1.363339 0,-0.914873 -0.57404,-1.363339 -0.59197,-0.466406 -1.77592,-0.466406 z m -8.86171,20.019557 V 79.878005 h 12.57501 q 2.08089,0 3.62361,0.466406 1.56067,0.466405 2.6908,1.399216 2.24234,1.919438 2.24234,5.291908 0,2.134702 -1.07632,3.569796 -1.02251,1.417155 -3.0137,1.865622 2.70874,0.556099 3.98239,2.098824 1.30952,1.524788 1.30952,4.143834 0,3.659489 -2.49348,5.560989 -2.49347,1.86562 -7.30104,1.86562 z"
         style="-inkscape-font-specification:Futura-Black"
         id="path108024" /><path
         d="M 159.36579,106.14022 V 79.878005 h 17.56196 v 7.121653 h -8.30561 v 2.529353 h 7.53424 v 6.727002 h -7.53424 v 2.762555 h 8.52087 v 7.121652 z"
         style="-inkscape-font-specification:Futura-Black"
         id="path108026" /><path
         d="m 190.2203,86.640885 v 5.13046 h 1.47097 q 1.38128,0 2.09883,-0.663731 0.69961,-0.627854 0.69961,-1.865622 0,-1.255707 -0.69961,-1.955315 -0.71755,-0.645792 -2.09883,-0.645792 z m -9.25635,19.499335 V 79.878005 h 11.8754 q 5.18427,0 7.89301,2.278212 2.72668,2.29615 2.72668,6.565553 0,2.798433 -1.36334,4.5923 -1.39921,1.865622 -3.7133,2.134702 l 7.01402,10.691448 H 194.8126 l -4.5923,-8.664378 v 8.664378 z"
         style="-inkscape-font-specification:Futura-Black"
         id="path108028" /></g><path
       style="font-size:17.4339px;line-height:1.25;font-family:Gabarito;-inkscape-font-specification:'Gabarito, @wght=700';font-variation-settings:'wght' 700;stroke-width:0.435849"
       d="M 14.771502,69.601448 V 58.931901 h 2.562783 v 10.669547 z m -3.521648,-9.414306 v -2.45818 h 9.675815 v 2.45818 z m 12.486088,9.623513 q -0.941431,0 -1.534183,-0.278943 -0.575319,-0.278942 -0.906563,-0.767091 -0.31381,-0.505583 -0.435848,-1.133204 -0.104603,-0.645054 -0.104603,-1.359844 v -5.195302 h 2.545349 v 5.055831 q 0,0.71479 0.296377,0.958864 0.296376,0.226641 0.732224,0.226641 0.383545,0 0.749657,-0.122037 0.366112,-0.139471 0.71479,-0.383546 0.348678,-0.261509 0.627621,-0.627621 l 0.435847,1.290109 h -0.71479 v -6.398241 h 2.562784 v 8.525177 h -1.900295 l -0.523018,-1.691088 0.871696,0.06974 q -0.418414,0.48815 -0.976299,0.923997 -0.540451,0.418414 -1.150637,0.662488 -0.610187,0.244075 -1.290109,0.244075 z m 8.664663,-8.734384 0.662489,2.353576 v 6.171601 h -2.54535 v -8.525177 z m 0.104604,3.765722 -0.435848,-0.191773 v -1.970031 l 0.156905,-0.209206 q 0.209207,-0.296377 0.592753,-0.679923 0.40098,-0.383545 0.923997,-0.645054 0.540451,-0.278942 1.098336,-0.278942 0.278942,0 0.505583,0.03487 0.22664,0.03487 0.366112,0.122037 v 2.318709 h -0.575319 q -1.11577,0 -1.760824,0.366112 -0.627621,0.348678 -0.871695,1.133203 z m 9.658392,-3.974929 q 0.854261,0 1.394712,0.296376 0.540451,0.278942 0.819393,0.784526 0.296376,0.505583 0.383546,1.150637 0.104603,0.62762 0.104603,1.307543 v 5.195302 h -2.545349 v -5.055831 q 0,-0.732224 -0.261509,-0.958865 -0.261508,-0.244074 -0.697356,-0.244074 -0.366112,0 -0.767091,0.156905 -0.383546,0.139471 -0.749658,0.400979 -0.366112,0.261509 -0.645054,0.592753 l -0.453282,-1.290109 h 0.71479 v 6.398242 h -2.545349 v -8.525177 h 1.882861 l 0.523017,1.691088 -0.871695,-0.06974 q 0.453281,-0.505583 1.0286,-0.923996 0.575319,-0.418414 1.255241,-0.662489 0.679922,-0.244074 1.42958,-0.244074 z m 11.593538,8.08933 -3.417045,-7.880123 h 2.580218 l 3.242705,7.496577 z m -1.83056,3.957495 5.143001,-11.837618 h 2.580218 l -5.125567,11.837618 z m 12.160445,-3.103234 q -1.324976,0 -2.336142,-0.557885 -1.011167,-0.575319 -1.569051,-1.586485 -0.557885,-1.011166 -0.557885,-2.318709 0,-1.324976 0.557885,-2.336142 0.557884,-1.011167 1.569051,-1.569052 1.011166,-0.575318 2.336142,-0.575318 1.342411,0 2.353577,0.575318 1.011166,0.557885 1.569051,1.569052 0.575319,1.011166 0.575319,2.336142 0,1.307543 -0.575319,2.318709 -0.557885,1.011166 -1.569051,1.586485 -1.011166,0.557885 -2.353577,0.557885 z m 0,-2.475614 q 0.854261,0 1.377278,-0.540451 0.540451,-0.557885 0.540451,-1.447014 0,-0.906563 -0.540451,-1.464447 -0.523017,-0.557885 -1.377278,-0.557885 -0.819393,0 -1.359844,0.557885 -0.523017,0.540451 -0.523017,1.447013 0,0.906563 0.523017,1.464448 0.540451,0.540451 1.359844,0.540451 z m 8.574692,2.475614 q -0.941431,0 -1.534184,-0.278943 -0.575318,-0.278942 -0.906563,-0.767091 -0.31381,-0.505583 -0.435847,-1.133204 -0.104603,-0.645054 -0.104603,-1.359844 v -5.195302 h 2.545349 v 5.055831 q 0,0.71479 0.296376,0.958864 0.296377,0.226641 0.732224,0.226641 0.383546,0 0.749658,-0.122037 0.366112,-0.139471 0.71479,-0.383546 0.348678,-0.261509 0.62762,-0.627621 l 0.435848,1.290109 h -0.71479 v -6.398241 h 2.562783 v 8.525177 h -1.900295 l -0.523017,-1.691088 0.871695,0.06974 q -0.418413,0.48815 -0.976298,0.923997 -0.540451,0.418414 -1.150638,0.662488 -0.610186,0.244075 -1.290108,0.244075 z m 8.664665,-8.734384 0.662488,2.353576 v 6.171601 H 79.44352 v -8.525177 z m 0.104603,3.765722 -0.435847,-0.191773 v -1.970031 l 0.156905,-0.209206 q 0.209207,-0.296377 0.592753,-0.679923 0.400979,-0.383545 0.923996,-0.645054 0.540451,-0.278942 1.098336,-0.278942 0.278942,0 0.505583,0.03487 0.226641,0.03487 0.366112,0.122037 v 2.318709 h -0.575319 q -1.115769,0 -1.760824,0.366112 -0.62762,0.348678 -0.871695,1.133203 z m 12.796496,4.968662 q -1.307542,0 -2.301275,-0.575319 -0.976298,-0.575319 -1.516749,-1.586485 -0.540451,-1.011166 -0.540451,-2.318709 0,-1.307542 0.540451,-2.301275 0.540451,-1.011166 1.516749,-1.586485 0.993733,-0.575318 2.301275,-0.575318 1.42958,0 2.475614,0.697356 1.046034,0.697356 1.499316,1.882861 l -2.301275,1.0286 Q 95.65706,63.93543 95.25608,63.639054 q -0.400979,-0.31381 -1.011166,-0.31381 -0.767092,0 -1.290109,0.540451 -0.523017,0.523017 -0.523017,1.464447 0,0.941431 0.523017,1.481882 0.523017,0.523017 1.290109,0.523017 0.610187,0 1.011166,-0.296376 0.40098,-0.296377 0.645055,-0.836828 l 2.301275,1.011167 q -0.453282,1.185505 -1.51675,1.900295 -1.063468,0.697356 -2.45818,0.697356 z m 8.89409,0 q -1.32498,0 -2.33615,-0.557885 -1.011163,-0.575319 -1.569047,-1.586485 -0.557885,-1.011166 -0.557885,-2.318709 0,-1.324976 0.557885,-2.336142 0.557884,-1.011167 1.569047,-1.569052 1.01117,-0.575318 2.33615,-0.575318 1.34241,0 2.35357,0.575318 1.01117,0.557885 1.56905,1.569052 0.57532,1.011166 0.57532,2.336142 0,1.307543 -0.57532,2.318709 -0.55788,1.011166 -1.56905,1.586485 -1.01116,0.557885 -2.35357,0.557885 z m 0,-2.475614 q 0.85426,0 1.37727,-0.540451 0.54046,-0.557885 0.54046,-1.447014 0,-0.906563 -0.54046,-1.464447 -0.52301,-0.557885 -1.37727,-0.557885 -0.8194,0 -1.35985,0.557885 -0.52301,0.540451 -0.52301,1.447013 0,0.906563 0.52301,1.464448 0.54045,0.540451 1.35985,0.540451 z m 5.73577,2.266407 v -8.525177 h 1.88286 l 0.52302,1.691088 -0.8717,-0.06974 q 0.43585,-0.505583 0.99373,-0.923996 0.55789,-0.418414 1.22038,-0.662489 0.66248,-0.244074 1.37727,-0.244074 0.85427,0 1.35985,0.296376 0.52302,0.278942 0.78452,0.784526 0.27895,0.505583 0.36612,1.150637 0.1046,0.62762 0.1046,1.307543 v 5.195302 h -2.54535 v -5.055831 q 0,-0.732224 -0.26151,-0.958865 -0.26151,-0.244074 -0.64505,-0.244074 -0.54045,0 -1.06347,0.331244 -0.52302,0.31381 -0.94143,0.819393 l -0.45328,-1.290109 h 0.71479 v 6.398242 z m 10.3906,0 v -5.055831 q 0,-0.732224 -0.26151,-0.958865 -0.24407,-0.244074 -0.62762,-0.244074 -0.55788,0 -1.0809,0.331244 -0.52301,0.31381 -0.94143,0.819393 l -0.74966,-1.795692 q 0.45329,-0.505583 1.01117,-0.923996 0.55788,-0.418414 1.20294,-0.662489 0.66249,-0.244074 1.37728,-0.244074 0.85426,0 1.37728,0.296376 0.52301,0.278942 0.78452,0.784526 0.26151,0.505583 0.36611,1.150637 0.10461,0.62762 0.10461,1.307543 v 5.195302 z m 8.96103,0.209207 q -1.1332,0 -1.97003,-0.505583 -0.8194,-0.523017 -1.27268,-1.51675 -0.45328,-0.993732 -0.45328,-2.440746 0,-1.394712 0.45328,-2.388444 0.47072,-1.011166 1.30755,-1.551617 0.83682,-0.540451 1.95259,-0.540451 1.16807,0 2.03977,0.575318 0.88913,0.557885 1.37728,1.569052 0.50558,1.011166 0.50558,2.336142 0,1.307543 -0.50558,2.318709 -0.50559,1.011166 -1.39471,1.586485 -0.88913,0.557885 -2.03977,0.557885 z m -4.70715,3.103234 V 61.076271 h 1.90029 l 0.64506,2.179237 h -0.15691 v 3.97493 h 0.15691 v 5.683451 z m 4.23643,-5.491679 q 0.78453,0 1.29011,-0.575318 0.52302,-0.592753 0.52302,-1.499316 0,-0.923996 -0.52302,-1.499315 -0.50558,-0.592753 -1.29011,-0.592753 -0.76709,0 -1.2901,0.592753 -0.52302,0.575319 -0.52302,1.481881 0,0.923997 0.52302,1.51675 0.52301,0.575318 1.2901,0.575318 z m 8.47008,2.388445 q -0.94143,0 -1.53419,-0.278943 -0.57531,-0.278942 -0.90656,-0.767091 -0.31381,-0.505583 -0.43585,-1.133204 -0.1046,-0.645054 -0.1046,-1.359844 v -5.195302 h 2.54535 v 5.055831 q 0,0.71479 0.29638,0.958864 0.29637,0.226641 0.73222,0.226641 0.38355,0 0.74966,-0.122037 0.36611,-0.139471 0.71479,-0.383546 0.34868,-0.261509 0.62762,-0.627621 l 0.43585,1.290109 h -0.71479 v -6.398241 h 2.56278 v 8.525177 h -1.9003 l -0.52301,-1.691088 0.87169,0.06974 q -0.41841,0.48815 -0.9763,0.923997 -0.54045,0.418414 -1.15063,0.662488 -0.61019,0.244075 -1.29011,0.244075 z m 10.59982,-0.06974 q -1.41214,0 -2.23154,-0.697356 -0.80196,-0.697356 -0.80196,-2.283841 v -5.578848 l -0.0349,-0.104603 0.52301,-2.057201 h 2.0572 v 7.182767 q 0,0.592753 0.27895,0.854262 0.27894,0.244074 0.73222,0.244074 0.26151,0 0.48815,-0.03487 0.24407,-0.0523 0.40098,-0.104603 v 2.388444 q -0.29638,0.08717 -0.64506,0.139472 -0.33124,0.0523 -0.76709,0.0523 z m -4.35847,-6.328506 v -2.336142 h 5.77062 v 2.336142 z m 11.10259,6.34594 q -1.27268,0 -2.24898,-0.540451 -0.95886,-0.540451 -1.49931,-1.534183 -0.52302,-0.993732 -0.52302,-2.336143 0,-1.324976 0.52302,-2.336142 0.54045,-1.011167 1.49931,-1.569052 0.9763,-0.575318 2.24898,-0.575318 1.30754,0 2.2664,0.592752 0.95887,0.592753 1.48189,1.603919 0.52301,0.993733 0.52301,2.248973 0,0.226641 -0.0174,0.435848 -0.0174,0.209207 -0.0349,0.331244 h -6.50284 v -1.813126 h 4.55024 l -0.29637,0.749658 q 0,-0.958864 -0.48815,-1.569051 -0.47072,-0.610186 -1.46445,-0.610186 -0.88913,0 -1.42958,0.54045 -0.52302,0.540451 -0.52302,1.42958 v 0.958865 q 0,0.958864 0.54046,1.499315 0.55788,0.523017 1.53418,0.523017 0.81939,0 1.29011,-0.331244 0.48815,-0.331244 0.81939,-0.819393 l 1.72596,0.958864 q -0.55789,1.028601 -1.56905,1.603919 -1.01117,0.557885 -2.40588,0.557885 z m 7.42684,-8.682082 0.66249,2.353576 v 6.171601 h -2.54535 v -8.525177 z m 0.10461,3.765722 -0.43585,-0.191773 v -1.970031 l 0.1569,-0.209206 q 0.20921,-0.296377 0.59276,-0.679923 0.40098,-0.383545 0.92399,-0.645054 0.54046,-0.278942 1.09834,-0.278942 0.27894,0 0.50558,0.03487 0.22664,0.03487 0.36611,0.122037 v 2.318709 h -0.57531 q -1.11577,0 -1.76083,0.366112 -0.62762,0.348678 -0.87169,1.133203 z m 12.91854,4.968662 q -1.32498,0 -2.33614,-0.557885 -1.01117,-0.575319 -1.56906,-1.586485 -0.55788,-1.011166 -0.55788,-2.318709 0,-1.324976 0.55788,-2.336142 0.55789,-1.011167 1.56906,-1.569052 1.01116,-0.575318 2.33614,-0.575318 1.34241,0 2.35357,0.575318 1.01117,0.557885 1.56906,1.569052 0.57531,1.011166 0.57531,2.336142 0,1.307543 -0.57531,2.318709 -0.55789,1.011166 -1.56906,1.586485 -1.01116,0.557885 -2.35357,0.557885 z m 0,-2.475614 q 0.85426,0 1.37728,-0.540451 0.54045,-0.557885 0.54045,-1.447014 0,-0.906563 -0.54045,-1.464447 -0.52302,-0.557885 -1.37728,-0.557885 -0.8194,0 -1.35985,0.557885 -0.52301,0.540451 -0.52301,1.447013 0,0.906563 0.52301,1.464448 0.54045,0.540451 1.35985,0.540451 z m 6.16598,2.266407 v -9.083062 q 0,-0.958865 0.34868,-1.638787 0.36611,-0.679922 1.01116,-1.0286 0.66249,-0.366112 1.53419,-0.366112 0.45328,0 0.80195,0.0523 0.34868,0.0523 0.55789,0.104603 v 2.318709 q -0.15691,-0.03487 -0.34868,-0.06974 -0.17434,-0.03487 -0.43585,-0.03487 -0.43584,0 -0.67992,0.261509 -0.22664,0.244075 -0.22664,0.801959 v 8.682083 z m 4.0621,-5.927526 h -5.21274 v -2.336143 h 5.21274 z m 1.83055,5.927526 v -9.083062 q 0,-0.958865 0.34868,-1.638787 0.36611,-0.679922 1.01117,-1.0286 0.66248,-0.366112 1.53418,-0.366112 0.45328,0 0.80196,0.0523 0.34868,0.0523 0.55788,0.104603 v 2.318709 q -0.1569,-0.03487 -0.34867,-0.06974 -0.17434,-0.03487 -0.43585,-0.03487 -0.43585,0 -0.67992,0.261509 -0.22664,0.244075 -0.22664,0.801959 v 8.682083 z m 4.0621,-5.927526 h -5.21274 v -2.336143 h 5.21274 z"
       id="text1"
       aria-label="Turn your computer off" /><path
       style="font-size:17.4339px;line-height:1.25;font-family:Gabarito;-inkscape-font-specification:'Gabarito, @wght=700';font-variation-settings:'wght' 700;stroke-width:0.435849"
       d="m 17.377413,88.609346 q -1.11577,0 -1.952597,-0.540451 -0.836828,-0.557885 -1.307543,-1.551617 -0.453281,-1.011167 -0.453281,-2.388445 0,-1.447014 0.453281,-2.440746 0.453281,-0.993732 1.272675,-1.499315 0.836827,-0.523017 1.970031,-0.523017 1.150637,0 2.039766,0.575318 0.889129,0.557885 1.394712,1.569051 0.505583,1.011167 0.505583,2.318709 0,1.307543 -0.505583,2.336143 -0.488149,1.011166 -1.377278,1.586485 -0.871695,0.557885 -2.039766,0.557885 z M 12.652825,88.400139 V 76.527652 h 2.54535 v 5.71832 H 15.04127 v 3.974929 h 0.156905 l -0.645054,2.179238 z m 4.236438,-2.179238 q 0.784526,0 1.290109,-0.575318 0.523017,-0.592753 0.523017,-1.51675 0,-0.906563 -0.523017,-1.481881 -0.505583,-0.592753 -1.290109,-0.592753 -0.767091,0 -1.290108,0.592753 -0.523017,0.575318 -0.523017,1.481881 0,0.923997 0.523017,1.51675 0.523017,0.575318 1.290108,0.575318 z m 9.33336,2.336143 q -1.272675,0 -2.248973,-0.540451 -0.958865,-0.540451 -1.499315,-1.534183 -0.523017,-0.993733 -0.523017,-2.336143 0,-1.324976 0.523017,-2.336143 0.54045,-1.011166 1.499315,-1.569051 0.976298,-0.575318 2.248973,-0.575318 1.307543,0 2.266407,0.592752 0.958865,0.592753 1.481882,1.603919 0.523017,0.993732 0.523017,2.248973 0,0.226641 -0.01743,0.435848 -0.01743,0.209207 -0.03487,0.331244 h -6.502845 v -1.813126 h 4.550248 l -0.296376,0.749658 q 0,-0.958865 -0.488149,-1.569051 -0.470716,-0.610187 -1.464448,-0.610187 -0.889129,0 -1.42958,0.540451 -0.523017,0.540451 -0.523017,1.42958 v 0.958865 q 0,0.958864 0.540451,1.499315 0.557885,0.523017 1.534183,0.523017 0.819394,0 1.290109,-0.331244 0.488149,-0.331244 0.819393,-0.819393 l 1.725957,0.958864 q -0.557885,1.0286 -1.569051,1.603919 -1.011167,0.557885 -2.405879,0.557885 z m 6.099098,-0.156905 v -9.083062 q 0,-0.958865 0.348678,-1.638787 0.366112,-0.679922 1.011167,-1.0286 0.662488,-0.366112 1.534183,-0.366112 0.453281,0 0.801959,0.0523 0.348678,0.0523 0.557885,0.104604 v 2.318709 q -0.156905,-0.03487 -0.348678,-0.06974 -0.174339,-0.03487 -0.435847,-0.03487 -0.435848,0 -0.679923,0.261509 -0.22664,0.244074 -0.22664,0.801959 v 8.682083 z M 36.38382,82.472613 H 31.171084 V 80.13647 h 5.212736 z m 5.175083,6.136733 q -1.324976,0 -2.336142,-0.557885 -1.011167,-0.575319 -1.569051,-1.586485 -0.557885,-1.011166 -0.557885,-2.318709 0,-1.324976 0.557885,-2.336143 0.557884,-1.011166 1.569051,-1.569051 1.011166,-0.575318 2.336142,-0.575318 1.342411,0 2.353577,0.575318 1.011166,0.557885 1.569051,1.569051 0.575319,1.011167 0.575319,2.336143 0,1.307543 -0.575319,2.318709 -0.557885,1.011166 -1.569051,1.586485 -1.011166,0.557885 -2.353577,0.557885 z m 0,-2.475614 q 0.854261,0 1.377278,-0.540451 0.540451,-0.557885 0.540451,-1.447014 0,-0.906563 -0.540451,-1.464448 -0.523017,-0.557884 -1.377278,-0.557884 -0.819393,0 -1.359844,0.557884 -0.523017,0.540451 -0.523017,1.447014 0,0.906563 0.523017,1.464448 0.540451,0.540451 1.359844,0.540451 z m 7.618633,-6.258771 0.662488,2.353577 v 6.171601 h -2.545349 v -8.525178 z m 0.104604,3.765723 -0.435848,-0.191773 V 81.47888 l 0.156905,-0.209207 q 0.209207,-0.296376 0.592753,-0.679922 0.40098,-0.383546 0.923997,-0.645054 0.54045,-0.278942 1.098335,-0.278942 0.278943,0 0.505583,0.03487 0.226641,0.03487 0.366112,0.122038 v 2.318708 h -0.575318 q -1.11577,0 -1.760824,0.366112 -0.627621,0.348678 -0.871695,1.133204 z m 7.813826,4.91636 q -1.272675,0 -2.248973,-0.540451 -0.958865,-0.540451 -1.499316,-1.534183 -0.523017,-0.993733 -0.523017,-2.336143 0,-1.324976 0.523017,-2.336143 0.540451,-1.011166 1.499316,-1.569051 0.976298,-0.575318 2.248973,-0.575318 1.307542,0 2.266407,0.592752 0.958864,0.592753 1.481881,1.603919 0.523017,0.993732 0.523017,2.248973 0,0.226641 -0.01743,0.435848 -0.01743,0.209207 -0.03487,0.331244 h -6.502845 v -1.813126 h 4.550248 l -0.296376,0.749658 q 0,-0.958865 -0.48815,-1.569051 -0.470715,-0.610187 -1.464447,-0.610187 -0.889129,0 -1.42958,0.540451 -0.523017,0.540451 -0.523017,1.42958 v 0.958865 q 0,0.958864 0.540451,1.499315 0.557884,0.523017 1.534183,0.523017 0.819393,0 1.290109,-0.331244 0.488149,-0.331244 0.819393,-0.819393 l 1.725956,0.958864 q -0.557885,1.0286 -1.569051,1.603919 -1.011166,0.557885 -2.405878,0.557885 z m 14.069166,0.0523 q -1.307543,0 -2.301275,-0.732224 -0.976298,-0.732224 -1.516749,-2.092068 -0.523017,-1.377278 -0.523017,-3.295008 0,-1.917729 0.523017,-3.295007 0.540451,-1.377278 1.516749,-2.126936 0.993732,-0.749657 2.301275,-0.749657 1.324976,0 2.301275,0.749657 0.976298,0.749658 1.499315,2.126936 0.540451,1.377278 0.540451,3.295007 0,1.91773 -0.540451,3.295008 -0.523017,1.359844 -1.499315,2.092068 -0.976299,0.732224 -2.301275,0.732224 z m 0,-2.475614 q 0.662488,0 1.0286,-0.488149 0.383546,-0.505584 0.557885,-1.342411 0.174339,-0.836827 0.174339,-1.813126 0,-0.906562 -0.174339,-1.74339 -0.156905,-0.836827 -0.540451,-1.377278 -0.383546,-0.540451 -1.046034,-0.540451 -0.662488,0 -1.063468,0.540451 -0.383546,0.540451 -0.540451,1.377278 -0.156905,0.836828 -0.156905,1.74339 0,0.976299 0.156905,1.813126 0.174339,0.836827 0.557885,1.342411 0.383546,0.488149 1.046034,0.488149 z m 9.347364,2.475614 q -1.42958,0 -2.475614,-0.505583 -1.0286,-0.523017 -1.882861,-1.551618 l 1.621353,-1.551617 q 0.540451,0.575319 1.133203,0.854261 0.592753,0.278943 1.324977,0.278943 0.854261,0 1.307542,-0.383546 0.470716,-0.383546 0.470716,-0.993732 0,-0.523017 -0.296377,-0.836828 -0.278942,-0.331244 -0.784525,-0.470715 -0.505583,-0.156905 -1.168071,-0.156905 -0.209207,0 -0.435848,0.01743 -0.226641,0 -0.470715,0.03487 v -2.214106 q 0.278942,0.03487 0.453281,0.0523 0.174339,0 0.348678,0 0.923997,0 1.412146,-0.331244 0.488149,-0.331244 0.488149,-0.941431 0,-0.523017 -0.366112,-0.819393 -0.348678,-0.296377 -0.993732,-0.296377 -0.62762,0 -1.168071,0.313811 -0.540451,0.296376 -1.063468,0.906563 L 76.32836,78.375646 q 0.941431,-1.098336 1.900295,-1.569051 0.976299,-0.488149 2.23154,-0.488149 1.133203,0 1.952597,0.418413 0.819393,0.418414 1.237806,1.133204 0.435848,0.71479 0.435848,1.638786 0,1.464448 -1.046034,2.353577 -1.046034,0.871695 -2.928895,0.871695 l 0.01743,-1.133203 q 1.34241,0 2.353576,0.400979 1.011166,0.383546 1.551617,1.150638 0.557885,0.767091 0.557885,1.865427 0,0.993732 -0.488149,1.813126 -0.470715,0.801959 -1.394712,1.290108 -0.906563,0.48815 -2.196672,0.48815 z m 7.025862,-0.03487 q -0.470716,0 -0.871695,-0.244075 -0.40098,-0.244074 -0.645055,-0.645054 -0.244074,-0.40098 -0.244074,-0.871695 0,-0.488149 0.244074,-0.889129 0.244075,-0.40098 0.645055,-0.62762 0.400979,-0.244075 0.871695,-0.244075 0.505583,0 0.906562,0.244075 0.40098,0.22664 0.627621,0.62762 0.244074,0.40098 0.244074,0.889129 0,0.470715 -0.244074,0.871695 -0.226641,0.40098 -0.627621,0.645054 -0.400979,0.244075 -0.906562,0.244075 z m 0,-5.543981 q -0.470716,0 -0.871695,-0.244074 -0.40098,-0.244075 -0.645055,-0.645055 -0.244074,-0.400979 -0.244074,-0.871695 0,-0.488149 0.244074,-0.871695 0.244075,-0.400979 0.645055,-0.645054 0.400979,-0.244075 0.871695,-0.244075 0.505583,0 0.906562,0.244075 0.40098,0.244075 0.627621,0.645054 0.244074,0.383546 0.244074,0.871695 0,0.470716 -0.244074,0.871695 -0.226641,0.40098 -0.627621,0.645055 -0.400979,0.244074 -0.906562,0.244074 z m 4.963049,-4.42821 0.871695,0.697356 q -0.104604,0.31381 -0.523017,0.62762 -0.40098,0.296376 -1.046034,0.505583 -0.627621,0.191773 -1.464448,0.191773 v -2.405878 q 0.662488,0 1.220373,-0.209207 0.575319,-0.209207 0.976298,-0.592753 0.40098,-0.383545 0.557885,-0.889129 h 1.952597 v 11.872487 h -2.545349 z m 12.029393,1.673654 v 8.124198 h -2.58022 v -4.428211 l -0.20921,-0.645054 1.0286,-3.050933 z m -7.653485,5.334774 v -1.51675 l 2.632519,-7.566313 h 2.527916 l -2.649954,7.688351 -0.191772,-1.080902 h 6.903826 v 2.475614 z m 12.046805,2.963763 q -0.47071,0 -0.87169,-0.244075 -0.40098,-0.244074 -0.64506,-0.645054 -0.24407,-0.40098 -0.24407,-0.871695 0,-0.488149 0.24407,-0.889129 0.24408,-0.40098 0.64506,-0.62762 0.40098,-0.244075 0.87169,-0.244075 0.50559,0 0.90657,0.244075 0.40098,0.22664 0.62762,0.62762 0.24407,0.40098 0.24407,0.889129 0,0.470715 -0.24407,0.871695 -0.22664,0.40098 -0.62762,0.645054 -0.40098,0.244075 -0.90657,0.244075 z m 0,-5.543981 q -0.47071,0 -0.87169,-0.244074 -0.40098,-0.244075 -0.64506,-0.645055 -0.24407,-0.400979 -0.24407,-0.871695 0,-0.488149 0.24407,-0.871695 0.24408,-0.400979 0.64506,-0.645054 0.40098,-0.244075 0.87169,-0.244075 0.50559,0 0.90657,0.244075 0.40098,0.244075 0.62762,0.645054 0.24407,0.383546 0.24407,0.871695 0,0.470716 -0.24407,0.871695 -0.22664,0.40098 -0.62762,0.645055 -0.40098,0.244074 -0.90657,0.244074 z m 7.35711,5.578849 q -1.30754,0 -2.30128,-0.732224 -0.97629,-0.732224 -1.51675,-2.092068 -0.52301,-1.377278 -0.52301,-3.295008 0,-1.917729 0.52301,-3.295007 0.54046,-1.377278 1.51675,-2.126936 0.99374,-0.749657 2.30128,-0.749657 1.32497,0 2.30127,0.749657 0.9763,0.749658 1.49932,2.126936 0.54045,1.377278 0.54045,3.295007 0,1.91773 -0.54045,3.295008 -0.52302,1.359844 -1.49932,2.092068 -0.9763,0.732224 -2.30127,0.732224 z m 0,-2.475614 q 0.66249,0 1.0286,-0.488149 0.38354,-0.505584 0.55788,-1.342411 0.17434,-0.836827 0.17434,-1.813126 0,-0.906562 -0.17434,-1.74339 -0.1569,-0.836827 -0.54045,-1.377278 -0.38354,-0.540451 -1.04603,-0.540451 -0.66249,0 -1.06347,0.540451 -0.38355,0.540451 -0.54045,1.377278 -0.15691,0.836828 -0.15691,1.74339 0,0.976299 0.15691,1.813126 0.17434,0.836827 0.55788,1.342411 0.38355,0.488149 1.04604,0.488149 z m 5.54959,2.266407 4.95123,-10.303436 0.48815,0.889129 h -5.85779 v -2.45818 h 7.77552 v 2.161804 l -4.53282,9.710683 z m 17.18984,0.209207 q -1.32498,0 -2.33614,-0.557885 -1.01117,-0.575319 -1.56905,-1.586485 -0.55789,-1.011166 -0.55789,-2.318709 0,-1.324976 0.55789,-2.336143 0.55788,-1.011166 1.56905,-1.569051 1.01116,-0.575318 2.33614,-0.575318 1.34241,0 2.35358,0.575318 1.01116,0.557885 1.56905,1.569051 0.57532,1.011167 0.57532,2.336143 0,1.307543 -0.57532,2.318709 -0.55789,1.011166 -1.56905,1.586485 -1.01117,0.557885 -2.35358,0.557885 z m 0,-2.475614 q 0.85426,0 1.37728,-0.540451 0.54045,-0.557885 0.54045,-1.447014 0,-0.906563 -0.54045,-1.464448 -0.52302,-0.557884 -1.37728,-0.557884 -0.81939,0 -1.35984,0.557884 -0.52302,0.540451 -0.52302,1.447014 0,0.906563 0.52302,1.464448 0.54045,0.540451 1.35984,0.540451 z m 10.98338,-6.467977 q 0.85426,0 1.39471,0.296376 0.54045,0.278942 0.81939,0.784525 0.29638,0.505584 0.38355,1.150638 0.1046,0.62762 0.1046,1.307542 v 5.195303 h -2.54535 v -5.055831 q 0,-0.732224 -0.26151,-0.958865 -0.26151,-0.244075 -0.69735,-0.244075 -0.36611,0 -0.76709,0.156906 -0.38355,0.139471 -0.74966,0.400979 -0.36611,0.261509 -0.64506,0.592753 l -0.45328,-1.290109 h 0.71479 v 6.398242 h -2.54535 v -8.525178 h 1.88286 l 0.52302,1.691089 -0.87169,-0.06974 q 0.45328,-0.505583 1.0286,-0.923997 0.57531,-0.418413 1.25524,-0.662488 0.67992,-0.244074 1.42958,-0.244074 z"
       id="text1-2"
       aria-label="before 03:14:07 on" /><path
       style="font-size:23.1893px;line-height:1.25;font-family:Gabarito;-inkscape-font-specification:'Gabarito, @wght=700';font-variation-settings:'wght' 700;fill:#f6ed38;stroke-width:0.579733"
       d="m 14.748885,117.55958 q -1.739197,0 -3.060987,-0.97395 -1.298601,-0.97395 -2.0174696,-2.78271 -0.695679,-1.83196 -0.695679,-4.38278 0,-2.55082 0.695679,-4.38278 0.7188686,-1.83195 2.0174696,-2.82909 1.32179,-0.99714 3.060987,-0.99714 1.762387,0 3.060988,0.99714 1.298601,0.99714 1.99428,2.82909 0.718868,1.83196 0.718868,4.38278 0,2.55082 -0.718868,4.38278 -0.695679,1.80876 -1.99428,2.78271 -1.298601,0.97395 -3.060988,0.97395 z m 0,-3.29288 q 0.881194,0 1.368169,-0.6493 0.510165,-0.67249 0.742058,-1.78557 0.231893,-1.11309 0.231893,-2.41169 0,-1.20585 -0.231893,-2.31893 -0.208704,-1.11309 -0.718869,-1.83196 -0.510164,-0.71886 -1.391358,-0.71886 -0.881193,0 -1.414547,0.71886 -0.510165,0.71887 -0.718868,1.83196 -0.208704,1.11308 -0.208704,2.31893 0,1.2986 0.208704,2.41169 0.231893,1.11308 0.742057,1.78557 0.510165,0.6493 1.391358,0.6493 z m 9.948217,-10.01778 1.159465,0.92758 q -0.139136,0.4174 -0.695679,0.83481 -0.533354,0.39422 -1.391358,0.67249 -0.834815,0.25508 -1.947902,0.25508 v -3.20012 q 0.881194,0 1.623251,-0.27827 0.765247,-0.27827 1.298601,-0.78844 0.533354,-0.51016 0.742058,-1.18265 h 2.597202 v 15.79191 h -3.385638 z m 7.366719,15.42089 -2.829094,-1.32179 8.95107,-18.34274 2.805905,1.32179 z m 12.020344,-15.42089 1.159465,0.92758 q -0.139136,0.4174 -0.695679,0.83481 -0.533354,0.39422 -1.391358,0.67249 -0.834815,0.25508 -1.947902,0.25508 v -3.20012 q 0.881194,0 1.623251,-0.27827 0.765247,-0.27827 1.298601,-0.78844 0.533354,-0.51016 0.742058,-1.18265 h 2.597202 v 15.79191 h -3.385638 z m 17.391969,4.68424 q 0,2.78272 -0.811626,4.70743 -0.811625,1.90152 -2.31893,2.92185 -1.484115,0.99714 -3.524773,0.99714 -1.368169,0 -2.597202,-0.48697 -1.205844,-0.51017 -2.179794,-1.34498 l 1.901522,-2.36531 q 0.626111,0.48697 1.34498,0.76525 0.718868,0.27827 1.460926,0.27827 0.950761,0 1.692819,-0.53336 0.765247,-0.55654 1.182654,-1.80876 0.440597,-1.25222 0.371029,-3.38564 h 0.742057 q -0.602921,1.39136 -1.739197,2.11023 -1.136276,0.71887 -2.64358,0.71887 -1.368169,0 -2.411688,-0.62612 -1.043518,-0.6493 -1.623251,-1.73919 -0.556543,-1.11309 -0.556543,-2.52764 0,-1.55368 0.649301,-2.75952 0.672489,-1.22904 1.901522,-1.92472 1.252222,-0.71886 3.037799,-0.71886 1.855144,0 3.223312,0.858 1.391358,0.858 2.133416,2.57401 0.765247,1.71601 0.765247,4.29002 z m -3.710288,-2.45806 q 0,-1.02033 -0.67249,-1.55369 -0.6493,-0.55654 -1.64644,-0.55654 -1.043519,0 -1.692819,0.55654 -0.649301,0.55655 -0.649301,1.55369 0,0.99714 0.649301,1.57687 0.6493,0.55654 1.692819,0.55654 0.99714,0 1.64644,-0.55654 0.67249,-0.57973 0.67249,-1.57687 z m 5.786165,13.19471 -2.829095,-1.32179 8.95107,-18.34274 2.805906,1.32179 z m 19.181237,-14.00634 q 0,0.97395 -0.278271,1.87833 -0.255083,0.90439 -0.904383,1.85515 -0.626111,0.95076 -1.739198,2.13341 l -3.663909,4.01175 -0.394218,-1.53049 h 7.119115 v 3.26969 H 72.785038 v -2.82909 l 4.174074,-4.42916 q 0.973951,-1.04352 1.507305,-1.71601 0.533354,-0.69568 0.718868,-1.20584 0.208704,-0.53336 0.208704,-1.02033 0,-0.74206 -0.440597,-1.15947 -0.440597,-0.4174 -1.089897,-0.4174 -0.718868,0 -1.484115,0.48697 -0.742058,0.48698 -1.576873,1.62325 l -2.411687,-1.83195 q 0.649301,-1.04352 1.437737,-1.83196 0.811625,-0.81162 1.831954,-1.27541 1.043519,-0.46378 2.295741,-0.46378 1.507305,0 2.574013,0.60292 1.066707,0.60292 1.623251,1.62325 0.579732,0.99714 0.579732,2.22617 z m 7.582906,11.89611 q -1.739198,0 -3.060988,-0.97395 -1.298601,-0.97395 -2.017469,-2.78271 -0.695679,-1.83196 -0.695679,-4.38278 0,-2.55082 0.695679,-4.38278 0.718868,-1.83195 2.017469,-2.82909 1.32179,-0.99714 3.060988,-0.99714 1.762386,0 3.060987,0.99714 1.298601,0.99714 1.99428,2.82909 0.718868,1.83196 0.718868,4.38278 0,2.55082 -0.718868,4.38278 -0.695679,1.80876 -1.99428,2.78271 -1.298601,0.97395 -3.060987,0.97395 z m 0,-3.29288 q 0.881193,0 1.368168,-0.6493 0.510165,-0.67249 0.742058,-1.78557 0.231893,-1.11309 0.231893,-2.41169 0,-1.20585 -0.231893,-2.31893 -0.208704,-1.11309 -0.718868,-1.83196 -0.510165,-0.71886 -1.391358,-0.71886 -0.881194,0 -1.414548,0.71886 -0.510164,0.71887 -0.718868,1.83196 -0.208704,1.11308 -0.208704,2.31893 0,1.2986 0.208704,2.41169 0.231893,1.11308 0.742058,1.78557 0.510164,0.6493 1.391358,0.6493 z m 12.433176,3.29288 q -1.90153,0 -3.292884,-0.67249 -1.368168,-0.69568 -2.504444,-2.06384 l 2.156605,-2.06385 q 0.718868,0.76524 1.507303,1.13627 0.78844,0.37103 1.76239,0.37103 1.13627,0 1.7392,-0.51016 0.62611,-0.51017 0.62611,-1.32179 0,-0.69568 -0.39422,-1.11309 -0.37103,-0.4406 -1.04352,-0.62611 -0.67249,-0.2087 -1.55368,-0.2087 -0.27827,0 -0.57974,0.0232 -0.30146,0 -0.62611,0.0464 v -2.94504 q 0.37103,0.0464 0.60293,0.0696 0.23189,0 0.46378,0 1.22903,0 1.87833,-0.4406 0.64931,-0.44059 0.64931,-1.25222 0,-0.69568 -0.48698,-1.0899 -0.46379,-0.39421 -1.32179,-0.39421 -0.83482,0 -1.55368,0.4174 -0.71887,0.39422 -1.414551,1.20585 l -2.179794,-2.1798 q 1.252222,-1.46092 2.527634,-2.08703 1.298601,-0.6493 2.968231,-0.6493 1.5073,0 2.5972,0.55654 1.0899,0.55654 1.64644,1.5073 0.57973,0.95076 0.57973,2.1798 0,1.9479 -1.39135,3.13055 -1.39136,1.15947 -3.89581,1.15947 l 0.0232,-1.50731 q 1.78558,0 3.13056,0.53336 1.34498,0.51016 2.06385,1.53049 0.74205,1.02033 0.74205,2.48126 0,1.32179 -0.6493,2.41168 -0.62611,1.06671 -1.85514,1.71601 -1.20584,0.6493 -2.92185,0.6493 z m 12.47584,0 q -1.80876,0 -3.06098,-0.60292 -1.22904,-0.60292 -1.85515,-1.66963 -0.62611,-1.06671 -0.62611,-2.41169 0,-1.02033 0.46379,-1.90152 0.48697,-0.90438 1.39136,-1.55368 0.90438,-0.67249 2.17979,-0.97395 l -0.0232,1.43773 q -1.20584,-0.32465 -2.01747,-0.97395 -0.81162,-0.67249 -1.22903,-1.5073 -0.41741,-0.85801 -0.41741,-1.7392 0,-1.22903 0.57973,-2.22617 0.60293,-1.02033 1.7392,-1.62325 1.15947,-0.60292 2.87547,-0.60292 1.71601,0 2.85229,0.60292 1.15946,0.60292 1.7392,1.62325 0.57973,0.99714 0.57973,2.22617 0,0.83482 -0.37103,1.66963 -0.37103,0.81163 -1.13628,1.48412 -0.76524,0.6493 -1.90152,0.99714 l -0.0464,-1.2986 q 1.25222,0.30146 2.08704,0.97395 0.858,0.6493 1.2986,1.53049 0.4406,0.88119 0.4406,1.85514 0,1.34498 -0.62611,2.41169 -0.62611,1.06671 -1.87834,1.66963 -1.22903,0.60292 -3.0378,0.60292 z m 0,-3.17693 q 0.97396,0 1.5305,-0.51017 0.57973,-0.51016 0.57973,-1.36816 0,-0.8812 -0.57973,-1.39136 -0.55654,-0.53336 -1.5305,-0.53336 -0.97395,0 -1.55368,0.53336 -0.55654,0.51016 -0.55654,1.39136 0,0.858 0.55654,1.36816 0.57973,0.51017 1.55368,0.51017 z m 0,-6.9336 q 0.81163,0 1.29861,-0.4406 0.51016,-0.4406 0.51016,-1.11309 0,-0.67249 -0.51016,-1.08989 -0.48698,-0.41741 -1.29861,-0.41741 -0.81162,0 -1.32179,0.41741 -0.48697,0.4174 -0.48697,1.08989 0,0.67249 0.48697,1.11309 0.51017,0.4406 1.32179,0.4406 z"
       id="text1-2-7"
       aria-label="01/19/2038" /></g><g
     id="layer6"
     style="display:inline"><path
       style="fill:#000000;stroke-width:0.0667006"
       d="m 194.50884,112.06914 c -0.29239,-0.38172 -0.37551,-0.70064 -0.3111,-1.19377 0.0857,-0.65601 0.46171,-1.11197 1.13205,-1.37259 0.33099,-0.12864 0.44628,-0.13862 0.89368,-0.0773 0.5481,0.0755 0.64518,0.0119 0.26995,-0.17713 -0.11936,-0.0602 -0.20728,-0.13725 -0.19542,-0.17145 0.0115,-0.0342 0.37337,-0.46695 0.80334,-0.96172 0.42998,-0.49476 0.86093,-0.99821 0.9577,-1.11874 l 0.1759,-0.21915 1.43503,0.14095 c 0.78928,0.0775 1.44661,0.15606 1.46074,0.17451 0.0282,0.0367 -0.76721,1.01429 -1.94954,2.39584 -0.40257,0.47038 -0.53115,0.67824 -0.37661,0.60879 0.10765,-0.0484 0.49552,0.20599 0.55504,0.36399 0.0297,0.0787 0.0269,0.34871 -0.007,0.60024 -0.0513,0.38949 -0.0925,0.49364 -0.27765,0.70255 -0.26543,0.29948 -0.50764,0.44697 -0.94754,0.57702 -0.45105,0.13335 -0.82672,0.14622 -1.04578,0.0359 -0.21851,-0.11006 -0.28844,-0.27374 -0.24799,-0.58046 0.039,-0.29547 0.002,-0.44705 -0.11439,-0.46231 -0.0599,-0.008 -0.10201,0.0633 -0.12069,0.20457 -0.0676,0.51252 -0.87685,1.00943 -1.50829,0.92614 -0.2813,-0.0371 -0.33459,-0.0734 -0.58195,-0.39633 z m 11.39339,1.75828 c -0.28478,-0.13357 -0.59223,-0.41506 -0.61928,-0.56696 -0.0162,-0.0932 0.0331,-0.20261 0.14356,-0.31719 0.0929,-0.0962 0.16803,-0.2418 0.16696,-0.32351 -0.002,-0.13269 -0.0407,-0.11652 -0.36586,0.15143 -0.43848,0.36145 -0.77967,0.45961 -1.45346,0.41811 -0.44745,-0.0275 -0.5498,-0.0573 -0.85402,-0.24824 -0.38429,-0.24116 -0.66682,-0.67267 -0.68733,-1.04968 -0.0214,-0.38967 0.2501,-0.88588 0.68371,-1.25052 0.21332,-0.17937 0.37235,-0.34634 0.3534,-0.37103 -0.0189,-0.0247 -0.13511,-0.018 -0.25819,0.0147 -0.19031,0.0509 -0.23029,0.0446 -0.26756,-0.0432 -0.0241,-0.0566 -0.29242,-0.69582 -0.59628,-1.42045 -0.30386,-0.72463 -0.58514,-1.38857 -0.62505,-1.47541 -0.04,-0.0869 -0.0571,-0.16819 -0.0384,-0.18075 0.0187,-0.0126 0.73892,0.0508 1.60037,0.14084 l 1.56628,0.16375 0.68619,1.37692 c 0.37741,0.7573 0.7148,1.38956 0.74974,1.40505 0.73151,0.32387 1.26738,0.89697 1.51055,1.61555 0.13747,0.40621 0.14361,0.4939 0.0614,0.87854 -0.11242,0.5241 -0.36396,0.84142 -0.81926,1.03336 -0.35822,0.15102 -0.68241,0.1677 -0.93711,0.0482 z m -17.11091,-2.51667 c -0.45754,-0.23496 -0.75916,-0.51098 -1.12793,-1.03216 -0.37345,-0.52781 -0.50231,-0.84779 -0.57077,-1.41716 -0.10388,-0.86425 0.37496,-1.5577 1.43872,-2.08347 0.20781,-0.10271 0.3815,-0.21455 0.38598,-0.24851 0.0174,-0.13223 -0.18837,-0.15724 -0.42369,-0.0512 l -0.24662,0.11088 -0.13925,-0.24293 c -0.21864,-0.38146 -0.28237,-0.71963 -0.22193,-1.17779 0.11487,-0.87103 0.76769,-1.5125 1.79065,-1.75953 0.99218,-0.23958 1.75081,-0.0607 2.25791,0.53247 0.45435,0.53145 0.57912,1.22759 0.33894,1.89103 l -0.0779,0.2151 2.23867,0.24543 c 2.05939,0.22574 2.23422,0.25366 2.1828,0.34832 -0.0307,0.0565 -0.3538,0.4485 -0.7179,0.8709 -0.3641,0.4224 -0.87663,1.0334 -1.13895,1.35777 l -0.47694,0.58979 -0.86117,-0.10204 c -0.47363,-0.0563 -1.06495,-0.13337 -1.31396,-0.1725 -0.45109,-0.0701 -0.45374,-0.0716 -0.69596,-0.41962 -0.31507,-0.45274 -0.41635,-0.32432 -0.20227,0.25651 0.26166,0.70993 0.0736,1.36215 -0.56551,1.96136 -0.55403,0.51946 -1.24223,0.64106 -1.85298,0.32742 z m 22.80271,2.33057 c -0.54942,-0.19983 -1.08873,-0.72202 -1.25058,-1.21089 -0.095,-0.28729 -0.0675,-0.89398 0.0678,-1.43601 0.0213,-0.0859 0.007,-0.17223 -0.0314,-0.19173 -0.0767,-0.0386 -0.25934,0.2381 -0.30681,0.46494 -0.0292,0.13965 -0.0496,0.13976 -1.06389,0.006 l -1.03409,-0.1364 -0.15849,-0.34045 c -0.0873,-0.18727 -0.47314,-0.96478 -0.8577,-1.72781 l -0.69918,-1.38732 0.8764,0.10693 c 0.48199,0.0588 1.07057,0.1266 1.30794,0.1506 0.23732,0.0243 0.84457,0.0928 1.34939,0.15298 0.81922,0.0976 0.91494,0.0971 0.89066,-0.004 -0.0451,-0.18797 0.20791,-0.87156 0.45848,-1.2389 0.24218,-0.35505 0.81335,-0.81397 1.17542,-0.94439 0.84228,-0.30346 1.86032,-0.0591 2.53726,0.60913 0.34527,0.34079 0.61728,1.01965 0.60364,1.50646 -0.0167,0.59258 -0.39232,1.34045 -0.99748,1.98551 -0.45243,0.4823 -0.47521,0.64373 -0.0505,0.35989 0.14725,-0.0984 0.30304,-0.15394 0.35424,-0.12615 0.15699,0.0853 0.46001,0.79535 0.49143,1.15158 0.0703,0.79435 -0.4393,1.66106 -1.20873,2.05664 -0.64485,0.33152 -1.81942,0.42417 -2.45347,0.19409 z m -11.69348,-7.23974 c -0.18106,-0.11201 -0.26059,-0.12663 -0.47243,-0.087 -0.31818,0.0595 -1.31723,-0.17294 -1.61903,-0.37644 -0.19234,-0.12985 -0.21538,-0.13164 -0.43388,-0.0334 -0.12689,0.057 -0.31646,0.0921 -0.42123,0.0779 -0.22905,-0.031 -0.82077,-0.39544 -0.84488,-0.52036 -0.0133,-0.0684 -0.0573,-0.0681 -0.19122,0.002 -0.23844,0.12406 -0.42696,0.0864 -0.78164,-0.15636 -0.55368,-0.37891 -0.73343,-0.70952 -0.72979,-1.34227 l 0.002,-0.36977 -0.58373,-0.51408 c -0.6283,-0.55336 -1.12031,-1.07708 -1.89872,-2.02113 -1.57955,-1.915669 -2.49054,-3.892743 -3.07106,-6.665079 -0.188,-0.897789 -0.37746,-2.385507 -0.34,-2.669616 0.0111,-0.08455 0.003,-0.243769 -0.0174,-0.353807 -0.0809,-0.42718 0.0956,-4.062319 0.20121,-4.1433 0.0173,-0.01327 0.83903,0.08238 1.82607,0.212557 l 1.79462,0.236692 -0.13145,0.504065 c -0.16117,0.617903 -0.20947,1.768685 -0.12152,2.893763 0.0802,1.01589 0.44085,3.018384 0.5473,3.032427 0.0806,0.01062 0.17597,-0.258553 0.25057,-0.707015 0.0214,-0.126682 0.16853,-0.546279 0.32766,-0.932318 1.16092,-2.816423 3.63603,-4.660087 6.71685,-5.003247 0.83742,-0.09327 2.43974,0.0667 3.21229,0.320739 0.93688,0.30806 1.60961,0.702152 2.53715,1.486259 1.45273,1.228099 2.45881,2.593475 3.08701,4.189486 0.3082,0.783037 0.59004,1.884904 0.59645,2.331757 0.003,0.176555 0.0275,0.339769 0.0557,0.362693 0.0639,0.05218 0.31988,-0.237051 0.28276,-0.319637 -0.015,-0.0334 0.0152,-0.174567 0.0676,-0.313609 0.45144,-1.203306 0.6069,-1.825703 0.77189,-3.090213 0.12853,-0.986539 0.15742,-1.422974 0.12221,-1.856485 -0.0253,-0.311716 -0.0348,-0.575302 -0.0211,-0.585742 0.0137,-0.01044 1.61229,0.168803 3.55242,0.398368 3.08261,0.364689 3.52591,0.429598 3.51469,0.514621 -0.0458,0.347089 -0.44824,2.273403 -0.56472,2.702909 -0.38798,1.430645 -0.69897,2.254071 -1.35544,3.58882 -1.3281,2.700336 -3.71468,5.569292 -5.79859,6.970582 -1.12633,0.75741 -2.70115,1.44658 -3.96074,1.73336 l -0.60365,0.13744 -0.11835,0.33918 c -0.15554,0.44564 -0.31792,0.5497 -0.82919,0.53137 -0.33902,-0.0121 -0.45686,-0.0461 -0.67203,-0.19312 l -0.26089,-0.17841 -0.19354,0.14826 c -0.17529,0.13431 -0.24257,0.14182 -0.71397,0.0796 -0.41218,-0.0544 -0.54502,-0.0976 -0.63858,-0.20776 -0.11495,-0.13544 -0.12416,-0.13575 -0.34724,-0.0121 -0.19734,0.10926 -0.31811,0.11765 -0.87076,0.0598 -0.47128,-0.0495 -0.69946,-0.1031 -0.85936,-0.20197 z m 1.41705,-0.23056 c 0.16385,-0.0798 0.35378,-0.44382 0.39201,-0.75128 0.0527,-0.42333 -0.0202,-1.08195 -0.13857,-1.25341 -0.21376,-0.30952 -0.9111,-0.46076 -1.20107,-0.26048 -0.11301,0.078 -0.14811,0.22133 -0.26394,1.07728 -0.1294,0.95722 -0.12961,0.98864 0.004,1.03363 0.24332,0.0817 1.12489,0.19447 1.20739,0.15451 z m -1.86706,-0.37323 c 0.11484,-0.10627 0.28525,-1.1034 0.29042,-1.69923 0.003,-0.29026 -0.0208,-0.34651 -0.17547,-0.42483 -0.15061,-0.0762 -0.24932,-0.0645 -0.63433,0.0748 -0.2508,0.0908 -0.49853,0.22368 -0.55054,0.29542 -0.10229,0.14109 -0.36709,0.92239 -0.4112,1.21325 -0.0339,0.22086 0.0937,0.32015 0.5917,0.46148 0.59256,0.16818 0.77563,0.18447 0.88945,0.0792 z m 3.63165,0.45558 c 0.12734,-0.0977 0.16132,-0.20299 0.22762,-0.70569 0.043,-0.32496 0.0598,-0.66716 0.0378,-0.76045 -0.0696,-0.29426 -0.75392,-0.52831 -0.99781,-0.34125 -0.0901,0.0691 -0.13667,0.23467 -0.19929,0.70939 -0.0924,0.70079 -0.0591,0.94395 0.14524,1.0591 0.25534,0.14387 0.62559,0.16218 0.78636,0.0389 z m -5.6427,-0.89775 c 0.11666,-0.12019 0.18523,-0.29313 0.24867,-0.62732 0.0777,-0.40904 0.0729,-0.48173 -0.0414,-0.64044 -0.26818,-0.37321 -0.84738,-0.4862 -1.08408,-0.21149 -0.15473,0.1796 -0.31906,0.91745 -0.25889,1.16245 0.0574,0.2337 0.36587,0.43287 0.71472,0.46147 0.19801,0.0162 0.29779,-0.018 0.42067,-0.14465 z m 7.2397,1.10928 c 0.24878,0.0305 0.45128,-0.81006 0.33513,-1.39121 -0.0356,-0.1778 -0.0911,-0.32676 -0.12355,-0.33103 -0.18623,-0.0246 -0.70447,0.0902 -0.87744,0.19441 -0.18819,0.11333 -0.20608,0.15482 -0.26757,0.62114 -0.0495,0.37482 -0.0424,0.53041 0.0281,0.62257 0.10951,0.14308 0.46431,0.29356 0.66012,0.28001 0.0747,-0.005 0.18501,-0.003 0.24515,0.004 z m -8.8319,-1.63668 c 0.15951,-0.39321 0.22152,-0.86195 0.13482,-1.02034 -0.0532,-0.0975 -0.18923,-0.1555 -0.52732,-0.22493 -0.53411,-0.10974 -0.66138,-0.0441 -0.7042,0.36241 -0.0426,0.40466 0.11665,0.76589 0.43294,0.98224 0.39331,0.269 0.52202,0.24973 0.66366,-0.0994 z m 4.57977,-2.92872 c 0.0828,-0.40334 0.10976,-0.45585 0.22627,-0.44049 0.0921,0.0121 0.13127,0.0686 0.12898,0.18521 -0.006,0.29404 0.0208,0.47371 0.0706,0.47924 0.13799,0.015 0.25693,-0.11598 0.3339,-0.36853 0.0471,-0.15483 0.22522,-0.5953 0.39559,-0.97883 0.24056,-0.54151 0.3136,-0.779916 0.32682,-1.066986 0.0286,-0.621972 0.01,-1.947837 -0.0394,-2.683811 -0.0248,-0.383988 -0.0358,-0.972704 -0.0231,-1.308354 0.0221,-0.585952 -0.0434,-0.810423 -0.20113,-0.689482 -0.094,0.07205 -0.38946,1.542147 -0.4749,2.362176 -0.0601,0.577594 -0.0893,0.694643 -0.16986,0.684015 -0.17464,-0.02303 -0.22286,-0.348877 -0.1473,-0.994939 0.10816,-0.924451 0.12259,-1.550474 0.0366,-1.591924 -0.1125,-0.05426 -0.27275,0.38356 -0.34804,0.951156 -0.0397,0.299226 -0.19709,0.875685 -0.3901,1.428677 -0.56095,1.607237 -0.5874,2.471022 -0.12763,4.168492 0.13499,0.49857 0.28251,0.44887 0.40252,-0.13565 z m -7.20745,-0.95451 c 0.0124,-0.0935 -0.0373,-0.31204 -0.1105,-0.48554 -0.0732,-0.1735 -0.11166,-0.31263 -0.0854,-0.30921 0.0261,0.003 0.0207,-0.0363 -0.011,-0.0882 -0.1152,-0.183127 -0.0559,-1.277891 0.12563,-2.31888 0.16752,-0.960372 0.17243,-1.05122 0.0855,-1.569763 -0.11337,-0.676163 -0.27657,-1.07929 -0.44617,-1.101658 -0.1673,-0.02206 -0.16797,0.02814 -0.0101,0.764385 l 0.13538,0.631345 -0.18366,1.287707 c -0.23741,1.66488 -0.21434,2.202993 0.12744,2.967314 0.17943,0.40128 0.3379,0.49554 0.37393,0.22241 z m 14.50726,1.76254 c 0.36865,-0.31652 0.79312,-1.2258 0.82516,-1.76755 0.009,-0.14145 0.0412,-0.28867 0.0724,-0.32723 0.0314,-0.0385 0.0311,-0.0913 -6.1e-4,-0.11726 -0.0319,-0.026 -0.0531,-0.099 -0.0472,-0.16224 0.0306,-0.33008 0.0512,-0.941465 0.0377,-1.120602 -0.0609,-0.811005 0.11651,-1.916735 0.32744,-2.042442 0.0849,-0.05062 0.10063,-0.102425 0.10293,-0.339639 9.7e-4,-0.135444 -0.22261,-0.125904 -0.33826,0.01433 -0.30119,0.365395 -0.58341,1.595124 -0.52262,2.277267 0.0535,0.597352 0.01,1.656116 -0.087,2.107816 -0.15387,0.71987 -0.35202,1.09231 -0.69061,1.29796 -0.34442,0.20919 -0.3889,0.34254 -0.12587,0.37723 0.13372,0.0177 0.26188,-0.039 0.44657,-0.19767 z m -8.82301,-3.825103 c 0.0999,-0.04812 0.23423,-0.148617 0.29864,-0.223367 0.15498,-0.179875 0.39034,-0.77854 0.5588,-1.421382 0.075,-0.286137 0.22478,-0.856754 0.33285,-1.268025 0.2303,-0.876289 0.22407,-1.122858 -0.0459,-1.82257 -0.31703,-0.821596 -0.39857,-0.927394 -0.74919,-0.971967 -0.39111,-0.05002 -1.43493,0.03969 -1.80687,0.154776 -0.15733,0.0487 -0.53486,0.138752 -0.839,0.200153 -0.30411,0.06138 -0.78003,0.184607 -1.0576,0.273815 -0.46931,0.150836 -0.52123,0.187043 -0.74098,0.516953 -0.22491,0.337684 -0.24066,0.393875 -0.3271,1.168278 -0.11107,0.994743 -0.0692,1.178421 0.37062,1.628222 0.31917,0.326395 0.84438,0.617887 1.47662,0.819538 0.12428,0.03965 0.43979,0.234895 0.70112,0.433883 0.76252,0.58061 1.34589,0.743897 1.82796,0.51167 z m 5.37357,0.348853 c 0.20811,-0.03474 0.52477,-0.140108 0.70368,-0.234194 0.37518,-0.197197 0.88017,-0.382298 1.0046,-0.368209 0.19679,0.02202 0.89619,-0.213755 1.20952,-0.408167 0.40211,-0.249501 0.5702,-0.570848 0.7419,-1.41849 0.11282,-0.556914 0.11283,-0.557056 -0.0936,-1.122398 -0.37388,-1.024917 -0.85884,-1.487334 -1.84929,-1.763356 -1.34991,-0.376171 -2.34952,-0.170207 -3.0498,0.628382 -0.17317,0.197492 -0.36183,0.472001 -0.41926,0.610037 -0.15178,0.364924 -0.14518,0.997241 0.0176,1.675969 0.0778,0.324796 0.21283,0.902688 0.29993,1.284218 0.18199,0.797065 0.28117,1.062287 0.42057,1.124562 0.14835,0.06638 0.58904,0.06268 1.01401,-0.0083 z"
       id="path2451" /></g><g
     id="layer7"
     style="display:none"><path
       style="fill:#000000;stroke-width:0.0322698"
       d="m 211.38284,114.64516 c -0.5766,-0.50584 -0.82053,-1.23598 -0.75334,-2.25496 0.0501,-0.75933 0.19777,-1.31755 0.69299,-2.61994 0.44228,-1.16314 0.51158,-1.39836 0.62058,-2.10695 l 0.0947,-0.61606 -0.0686,-0.17599 c -0.0376,-0.0968 -0.0773,-0.17614 -0.0879,-0.17632 -0.0331,-5.6e-4 -0.48723,0.41733 -0.76768,0.70623 -0.61153,0.62999 -0.99576,1.27928 -1.13121,1.91155 l -0.0525,0.24468 -0.17318,0.0131 c -0.34884,0.0273 -0.35667,0.0238 -0.38151,-0.16348 -0.0331,-0.25042 0.0741,-0.85169 0.19749,-1.10637 0.16727,-0.34543 0.50392,-0.81619 0.96785,-1.35342 0.51503,-0.59643 0.86222,-1.075 1.00757,-1.3889 0.11902,-0.25693 0.13001,-0.26182 0.5364,-0.23912 l 0.28204,0.0158 0.0676,0.26725 c 0.1608,0.63646 0.19411,1.07388 0.13459,1.76811 -0.0678,0.79313 -0.24083,1.48682 -0.78852,3.16298 -0.47463,1.45277 -0.4668,1.41917 -0.44109,1.89305 0.0445,0.81842 0.18654,1.30735 0.5122,1.76182 0.0784,0.10956 0.0797,0.12206 0.0319,0.31566 -0.0274,0.1109 -0.0662,0.23274 -0.0865,0.27073 -0.0577,0.10876 -0.18902,0.0677 -0.41412,-0.12983 z m -2.48563,-3.56812 -0.13955,-0.0305 0.0338,-0.12715 c 0.0518,-0.19508 0.20045,-0.34382 0.41703,-0.41761 0.16803,-0.0571 0.24311,-0.0602 0.70212,-0.0277 0.28269,0.0199 0.56851,0.0432 0.63516,0.0509 l 0.12129,0.0133 -0.039,0.30599 c -0.0461,0.36169 0.053,0.32335 -0.7957,0.30825 -0.59678,-0.0108 -0.65443,-0.0158 -0.93511,-0.0767 z m 2.96614,-0.0421 c -0.0131,-0.10972 0.0476,-0.31687 0.12771,-0.43228 0.0954,-0.1382 0.3398,-0.33188 0.63425,-0.50254 0.3035,-0.1759 0.57488,-0.39164 0.67475,-0.53638 0.21502,-0.31167 0.47248,-1.40032 0.46908,-1.98362 -0.004,-0.79455 -0.29816,-1.71586 -0.75188,-2.35985 -0.0765,-0.10839 -0.13701,-0.21141 -0.13478,-0.2289 0.002,-0.0174 0.17722,-0.1555 0.38885,-0.30666 0.27129,-0.19373 0.38753,-0.25995 0.39403,-0.22445 0.0256,0.13981 0.43623,1.21319 0.53543,1.39963 0.21463,0.40341 0.52849,0.71141 0.85855,0.84258 0.0771,0.0306 0.19203,0.0837 0.25568,0.11785 0.16756,0.0901 0.41069,0.11101 0.82847,0.0711 0.62502,-0.0597 0.81346,0.004 0.91606,0.30922 0.0851,0.25324 0.0565,0.29236 -0.25871,0.3553 -0.55292,0.11037 -1.25257,0.0292 -1.93187,-0.22446 -0.20927,-0.078 -0.28718,-0.0954 -0.31895,-0.071 -0.0477,0.0369 -0.0854,0.31478 -0.10521,0.77563 -0.011,0.25855 -0.0326,0.36901 -0.13008,0.66653 -0.29589,0.90449 -0.72972,1.53876 -1.36748,1.99934 -0.25159,0.18167 -0.34037,0.22675 -0.49349,0.25047 -0.10267,0.0159 -0.27523,0.0602 -0.38344,0.0982 l -0.19675,0.0692 z m -1.10248,-5.92775 c -0.0465,-0.0209 -0.13195,-0.0759 -0.18941,-0.12238 -0.0857,-0.0695 -0.10203,-0.10385 -0.0907,-0.19229 l 0.0137,-0.10776 0.22055,0.007 c 0.55101,0.0158 1.01333,-0.10773 1.49025,-0.39888 0.50879,-0.3106 0.97656,-0.79216 1.76895,-1.82112 0.25503,-0.33115 0.41187,-0.50829 0.44674,-0.50457 0.0654,0.007 0.19199,0.19557 0.20519,0.30576 0.0213,0.17755 -0.33226,0.97458 -0.62941,1.41895 -0.57396,0.85832 -1.42085,1.38432 -2.40138,1.4914 -0.27281,0.0298 -0.68101,-0.008 -0.83451,-0.0752 z m -16.02369,-2.50007 -5.22639,-0.68232 -0.0956,-0.0884 c -0.1202,-0.11112 -0.26984,-0.54693 -0.31421,-0.91499 -0.0766,-0.63527 -0.0805,-1.320473 -0.013,-2.248319 0.0255,-0.34851 0.0752,-1.102289 0.1106,-1.67502 0.0704,-1.136977 0.16555,-1.84209 0.3895,-2.885818 0.33805,-1.575041 0.70554,-2.498727 1.06347,-2.673109 0.0985,-0.04797 1.05863,0.01544 4.16802,0.275171 2.92493,0.244336 6.0544,0.748385 7.78529,1.253934 0.39035,0.114008 0.45642,0.179339 0.59831,0.591509 0.14342,0.416614 0.19748,0.876269 0.16245,1.381296 -0.0381,0.549479 -0.0671,0.676938 -0.15831,0.689306 -0.1163,0.01584 -0.47506,-0.03789 -0.53434,-0.08003 -0.0857,-0.0609 -0.12498,-0.278277 -0.1261,-0.696835 -0.003,-0.887976 -0.13063,-1.113001 -0.77094,-1.353098 -0.71525,-0.268179 -1.82843,-0.476085 -4.06034,-0.758329 -2.16904,-0.274282 -3.85262,-0.420917 -5.55265,-0.483598 -0.42012,-0.01549 -0.54167,-0.0082 -0.67887,0.04069 -0.3555,0.126688 -0.65531,0.490248 -0.88487,1.073016 -0.17591,0.446535 -0.23816,0.746468 -0.46154,2.223317 -0.32118,2.1233 -0.37143,3.164883 -0.20796,4.30666 0.0988,0.689997 0.22264,0.935717 0.5945,1.179617 0.4135,0.27124 0.24182,0.24157 4.61721,0.79754 3.79236,0.48123 5.0475,0.61767 5.54983,0.60022 0.46749,-0.0161 0.79048,-0.45773 1.07196,-1.4654 0.13132,-0.47006 0.14342,-0.49793 0.24746,-0.56948 0.21098,-0.14512 0.45664,-0.0931 0.53762,0.11372 0.0727,0.18593 -0.019,0.74546 -0.2142,1.31066 -0.25209,0.72869 -0.46026,1.21718 -0.55652,1.30589 -0.18785,0.17312 -0.68367,0.22768 -1.40927,0.1551 -0.22268,-0.0221 -2.75668,-0.34754 -5.63119,-0.72275 z m 14.78465,1.34486 c -0.20366,-0.0788 -0.32142,-0.16303 -0.45518,-0.32576 l -0.10902,-0.13264 0.0834,-0.0516 c 0.12899,-0.0798 0.3897,-0.11104 0.85403,-0.10237 0.23394,0.004 0.49342,-0.005 0.5766,-0.0204 0.91417,-0.17322 1.50627,-0.45436 2.30913,-1.09635 0.39289,-0.31417 1.22057,-1.10963 1.29105,-1.2408 0.0143,-0.0266 0.0742,-0.0352 0.16489,-0.0237 0.1665,0.0212 0.16866,0.002 -0.0532,0.46773 -0.49994,1.05176 -1.35874,1.86555 -2.50199,2.37083 -0.25707,0.11362 -0.30405,0.12167 -1.05271,0.18077 -0.84243,0.0665 -0.87122,0.0659 -1.1074,-0.0255 z m -15.50665,-2.66642 c 0.0415,-0.0771 1.43506,-1.570141 1.74027,-1.864414 0.62835,-0.605861 1.52662,-1.335863 1.85283,-1.505777 0.24276,-0.126441 0.65328,-0.203512 1.04385,-0.195968 0.46513,0.0089 4.23724,0.491291 7.15213,0.914662 2.47293,0.359047 2.40572,0.344649 3.0843,0.658732 0.21015,0.09727 0.38903,0.17149 0.39746,0.164944 0.008,-0.0067 -0.0176,-0.06881 -0.058,-0.138485 -0.0948,-0.163794 -0.32666,-0.362089 -0.57857,-0.494902 -0.42073,-0.221833 -0.56918,-0.251157 -3.087,-0.60975 -2.27041,-0.323367 -3.29057,-0.477838 -6.00112,-0.908702 l -1.26982,-0.201843 -0.17722,-0.118482 c -0.31216,-0.208698 -0.54124,-0.535762 -1.64594,-2.349908 -0.58667,-0.963452 -1.06572,-1.759529 -1.06449,-1.76906 0.003,-0.0325 0.7226,0.119204 0.76406,0.161331 0.0228,0.02309 0.30548,0.508564 0.62838,1.07885 0.69542,1.228208 0.90705,1.563683 1.2464,1.975772 0.33606,0.408095 0.45877,0.513647 0.69087,0.594214 0.44725,0.155254 1.69391,0.337016 4.49242,0.654988 3.24441,0.368636 4.32703,0.530263 4.81715,0.71916 0.39138,0.15084 0.86555,0.386315 1.15668,0.574397 0.12287,0.07936 0.22977,0.13939 0.23755,0.133364 0.034,-0.02632 -0.0695,-0.222399 -0.20098,-0.381043 -0.41241,-0.497609 -1.075,-0.859275 -1.93656,-1.057094 -0.34518,-0.07925 -2.34911,-0.350783 -3.65943,-0.495843 -0.40913,-0.04531 -1.22309,-0.143732 -1.80883,-0.218771 -0.95669,-0.122529 -1.10446,-0.148799 -1.45348,-0.25862 -0.46225,-0.145417 -0.96961,-0.382591 -1.25966,-0.588856 -0.17392,-0.123678 -0.21923,-0.175816 -0.26305,-0.302684 -0.12609,-0.364956 -0.025,-1.302009 0.21917,-2.029097 l 0.0555,-0.165129 0.25591,0.03262 c 0.14075,0.01792 0.25774,0.03657 0.26,0.04131 0.003,0.0046 -0.0322,0.365698 -0.0763,0.80204 -0.0879,0.868411 -0.0837,0.923592 0.0828,1.170754 0.12167,0.180221 0.20606,0.232518 0.5026,0.3115 0.62808,0.167276 1.11577,0.243707 3.44378,0.539679 1.43668,0.182662 2.62165,0.347562 2.85209,0.396918 1.08079,0.231521 1.92731,0.561127 2.64132,1.028451 0.34622,0.226592 0.38355,0.261692 0.61115,0.574771 0.42825,0.589023 0.81825,1.35298 1.01587,1.989871 l 0.0901,0.29025 0.0128,-0.19818 c 0.0298,-0.441925 -0.47991,-1.59343 -1.3281,-3.000401 -0.15803,-0.262148 -0.28589,-0.487915 -0.28415,-0.501707 0.005,-0.04645 0.15876,-0.107372 0.24251,-0.09671 0.14742,0.01882 0.49493,0.323833 0.64017,0.561985 0.74111,1.215143 1.17743,2.183516 1.33815,2.969813 0.036,0.17597 0.0951,0.36028 0.13129,0.40962 l 0.066,0.0897 0.11005,-0.0853 0.11008,-0.0853 -0.0467,-0.29961 c -0.10426,-0.669115 -0.25682,-1.094077 -0.88053,-2.452773 -0.47592,-1.036691 -0.47827,-1.047814 -0.21697,-1.014527 0.11314,0.01441 0.17829,0.05277 0.35476,0.208858 0.11891,0.105168 0.23691,0.21244 0.26222,0.23839 0.074,0.076 0.58096,1.254468 0.7473,1.73768 0.0841,0.244183 0.18343,0.619356 0.2208,0.833715 0.0991,0.568187 0.0996,0.568867 0.3038,0.431007 0.13068,-0.0883 0.13337,-0.0935 0.1369,-0.271257 0.009,-0.414431 -0.13318,-1.1782 -0.33565,-1.811763 -0.0565,-0.17669 -0.10016,-0.340685 -0.0972,-0.364445 0.003,-0.02374 0.0535,-0.08488 0.11227,-0.135868 0.10281,-0.08923 0.11,-0.09048 0.19283,-0.03336 0.14019,0.09665 0.3617,0.410749 0.44512,0.63115 0.0426,0.112949 0.12528,0.495549 0.18342,0.850207 0.0582,0.35466 0.1173,0.646298 0.1315,0.648108 0.0143,0.0022 0.0814,-0.05096 0.14956,-0.1171 0.31416,-0.305519 0.4184,-0.340344 0.53549,-0.178896 0.0756,0.104399 0.0616,0.226551 -0.0523,0.458605 -0.11819,0.239709 -0.12372,0.309589 -0.029,0.368219 0.0426,0.0263 0.0985,0.0506 0.12433,0.0539 0.0635,0.008 0.0483,0.0914 -0.0543,0.29965 -0.30377,0.61607 -0.85416,1.12365 -1.67432,1.54402 -0.7791,0.39932 -1.74792,0.58755 -2.63435,0.51179 -0.43971,-0.0375 -0.68772,-0.12069 -0.886,-0.29715 -0.15236,-0.13555 -0.14557,-0.23658 0.0216,-0.32069 0.18259,-0.0919 0.41157,-0.11654 0.88029,-0.0947 1.45567,0.0678 2.61277,-0.31685 3.5261,-1.17237 0.14334,-0.13427 0.14708,-0.14129 0.0499,-0.0939 -1.06505,0.51975 -2.19599,0.85419 -3.02571,0.8948 -0.24893,0.0118 -0.43082,-0.002 -0.79577,-0.0611 -0.50127,-0.0816 -0.79412,-0.18032 -1.12242,-0.37848 -0.18156,-0.10959 -0.20048,-0.1568 -0.15641,-0.39017 l 0.0254,-0.13558 -2.64443,-0.35334 c -1.45446,-0.19438 -2.98515,-0.396746 -3.40156,-0.449697 -0.96302,-0.122526 -1.90747,-0.179835 -2.71899,-0.16512 -0.38305,0.0067 -0.45512,0.04758 -0.62141,0.349964 -0.11207,0.203743 -0.18157,0.617163 -0.20562,1.222573 -0.0148,0.37695 -0.0817,0.59153 -0.20682,0.65682 -0.0452,0.0238 -0.15062,0.0286 -0.27654,0.0128 -0.24174,-0.0308 -0.24165,-0.0308 -0.23959,-0.47499 0.003,-0.6508 0.14028,-1.34118 0.35568,-1.789475 0.0864,-0.179759 0.11775,-0.212705 0.29222,-0.306828 0.36774,-0.198395 0.95128,-0.287928 1.74862,-0.268265 0.19539,0.0048 1.00261,0.0931 1.87613,0.205311 0.84327,0.108255 2.35505,0.291771 3.35942,0.408116 1.16932,0.135264 2.14855,0.265472 2.72242,0.362188 0.49294,0.08304 0.90331,0.145523 0.9119,0.138883 0.0362,-0.028 -0.31801,-0.257375 -0.53594,-0.346991 -0.42908,-0.176447 -0.63111,-0.215113 -2.57955,-0.493768 -1.06298,-0.151999 -2.7874,-0.402575 -3.83207,-0.556795 -2.88579,-0.426055 -3.1498,-0.458775 -3.4064,-0.422226 -0.4534,0.06452 -0.86001,0.200111 -1.21597,0.405411 -0.35968,0.207419 -0.79187,0.583858 -1.83516,1.598419 l -1.12574,1.09475 -0.33721,-0.043 c -0.28465,-0.0362 -0.33345,-0.0497 -0.3128,-0.0885 z"
       id="path2161" /></g></svg>
