<?xml version="1.0" encoding="UTF-8" standalone="no"?>
<!-- Created with Inkscape (http://www.inkscape.org/) -->

<svg
   width="256"
   height="256"
   viewBox="0 0 67.733335 67.733334"
   version="1.1"
   id="svg5"
   sodipodi:docname="fwlnx_favicon.svg"
   inkscape:version="1.2.1 (9c6d41e410, 2022-07-14, custom)"
   inkscape:export-filename="fwlnx.png"
   inkscape:export-xdpi="96"
   inkscape:export-ydpi="96"
   xmlns:inkscape="http://www.inkscape.org/namespaces/inkscape"
   xmlns:sodipodi="http://sodipodi.sourceforge.net/DTD/sodipodi-0.dtd"
   xmlns="http://www.w3.org/2000/svg"
   xmlns:svg="http://www.w3.org/2000/svg">
  <sodipodi:namedview
     id="namedview319"
     pagecolor="#505050"
     bordercolor="#eeeeee"
     borderopacity="1"
     inkscape:showpageshadow="0"
     inkscape:pageopacity="0"
     inkscape:pagecheckerboard="0"
     inkscape:deskcolor="#505050"
     showgrid="false"
     inkscape:zoom="1.7623604"
     inkscape:cx="156.32444"
     inkscape:cy="95.894119"
     inkscape:window-width="1920"
     inkscape:window-height="1043"
     inkscape:window-x="0"
     inkscape:window-y="18"
     inkscape:window-maximized="1"
     inkscape:current-layer="layer1" />
  <defs
     id="defs2" />
  <g
     id="layer1">
    <rect
       style="fill:#333333;stroke-width:0.00784964"
       id="rect344-2"
       width="67.733337"
       height="67.733337"
       x="9.5213011e-07"
       y="1.0521301e-06"
       ry="8.4666672" />
    <path
       id="rect344-2-3"
       style="fill:#ff0000;stroke-width:0.00784964"
       d="m 0,58.737478 v 0.529132 c 0,4.690531 3.7761685,8.4667 8.4666983,8.4667 h 8.4666977 v -5.847142 c 0,-1.74432 -1.404371,-3.14869 -3.148693,-3.14869 z" />
    <path
       id="rect344-2-0"
       style="fill:#ff0000;stroke-width:0.00784964"
       d="m 0,19.579205 v 16.93326 h 13.784703 c 1.744322,0 3.148693,-1.404233 3.148693,-3.148556 V 22.72776 c 0,-1.74432 -1.404371,-3.148555 -3.148693,-3.148555 z" />
    <path
       id="rect344-2-7"
       style="fill:#ff0000;stroke-width:0.00784964"
       d="m 39.661154,1e-6 c -1.744322,0 -3.14869,1.4042335 -3.14869,3.1485549 V 13.784704 c 0,1.744322 1.404368,3.148693 3.14869,3.148693 h 27.569409 c 0.171257,0 0.339051,-0.01413 0.502746,-0.0402 V 8.4666984 C 67.733309,3.7761687 63.95714,0 59.266609,0 Z" />
    <path
       id="rect344"
       style="fill:#ff0000;stroke-width:0.00784964"
       d="m 8.4666983,1e-6 C 3.7761685,10e-7 0,3.7761697 0,8.4666994 v 5.3180046 c 0,1.744322 1.4042338,3.148693 3.1485545,3.148693 H 30.718099 c 1.744321,0 3.148555,-1.404371 3.148555,-3.148693 V 3.1485559 C 33.866654,1.4042345 32.46242,10e-7 30.718099,10e-7 Z" />
    <path
       id="rect344-2-2"
       style="fill:#ff0000;stroke-width:0.00784964"
       d="m 39.661154,39.158272 c -1.744322,0 -3.14869,1.404371 -3.14869,3.148693 v 10.636147 c 0,1.744322 1.404368,3.148556 3.14869,3.148556 h 27.569409 c 0.171257,0 0.339051,-0.014 0.502746,-0.04006 V 39.19847 c -0.163695,-0.02606 -0.331489,-0.0402 -0.502746,-0.0402 z" />
    <path
       id="rect344-2-06"
       style="fill:#ff0000;stroke-width:0.00784964"
       d="m 59.240221,58.737478 c -1.74432,0 -3.148554,1.40437 -3.148554,3.14869 v 5.847142 h 3.174942 c 4.690531,0 8.4667,-3.776169 8.4667,-8.4667 v -0.529132 z" />
    <path
       id="rect344-2-6"
       style="fill:#ff0000;stroke-width:0.00784964"
       d="m 22.727759,58.737478 c -1.744321,0 -3.148555,1.40437 -3.148555,3.14869 v 5.847142 h 33.866653 v -5.847142 c 0,-1.74432 -1.404234,-3.14869 -3.148555,-3.14869 z" />
    <path
       id="rect344-2-9"
       style="fill:#ff0000;stroke-width:0.00784964"
       d="m 59.240221,19.579205 c -1.74432,0 -3.148554,1.404235 -3.148554,3.148555 v 10.636149 c 0,1.744323 1.404234,3.148556 3.148554,3.148556 h 8.493088 v -16.93326 z" />
    <rect
       style="fill:#ff0000;stroke-width:0.00612859"
       id="rect450-5"
       width="33.866669"
       height="16.933334"
       x="9.5213011e-07"
       y="39.158337"
       ry="3.1485977" />
    <rect
       style="fill:#ff0000;stroke-width:0.00612859"
       id="rect450-6-7-5"
       width="33.866669"
       height="16.933334"
       x="19.579168"
       y="19.579168"
       ry="3.1485977" />
    <g
       id="penguin"
       transform="matrix(0.73409548,0,0,0.73409548,0.84501341,0.8371591)">
      <path
         class="cls-1"
         d="m 51.86,28.64 a 7.39,7.39 0 0 1 5.32,-8 l 0.6,-0.18 h 1.67 l 13.62,0.68 a 1.67,1.67 0 0 1 1,3 L 61,34.2 a 7.41,7.41 0 0 1 -1.78,0.6 v 0 a 7.22,7.22 0 0 1 -7.36,-6.16 z"
         id="path935"
         style="fill:#ffa400" />
      <path
         class="cls-2"
         d="M 61.25,42.32 61,35.87 v 0 l 0.22,6.46 c 2.54,3 14.58,18.1 14.58,37.6 q 0,1 0,1.94 A 3.33,3.33 0 0 1 72.44,85 H 17.83 c 0,-3.79 23.44,-9.91 23.44,-19.73 0.01,-16.64 13.37,-21.54 19.98,-22.95 z"
         id="path937"
         style="fill:#e6e6e6" />
      <path
         class="cls-3"
         d="m 61,34.2 c -3.85,0.13 -7.43,-0.9 -8,-5.12 a 7.93,7.93 0 0 1 5.73,-8.4 l 0.64,-0.19 A 23.34,23.34 0 0 0 30.92,5.9 23,23 0 0 0 14.25,28.15 v 0.12 c 0,2.11 -0.19,33.58 0,53.46 0,1.82 2,3.26 3.79,3.26 h 3.42 A 19.77,19.77 0 0 0 41.28,65.27 v 0 c 0,-16.65 13.36,-21.54 20,-23 z"
         id="path939"
         style="fill:#404041" />
      <path
         class="cls-4"
         d="m 33.86,24.17 a 6.7,6.7 0 1 0 6.7,-6.67 6.68,6.68 0 0 0 -6.7,6.67 z m 2.91,0 a 3.79,3.79 0 1 1 3.79,3.77 3.78,3.78 0 0 1 -3.79,-3.77 z"
         id="path941"
         style="fill:#ffffff" />
      <ellipse
         class="cls-5"
         cx="40.560001"
         cy="24.17"
         rx="3.79"
         ry="3.77"
         id="ellipse943"
         style="fill:#2b2b2b" />
    </g>
  </g>
</svg>
