<?xml version="1.0" encoding="UTF-8" standalone="no"?>
<!-- Created with Inkscape (http://www.inkscape.org/) -->

<svg
   xmlns:dc="http://purl.org/dc/elements/1.1/"
   xmlns:cc="http://creativecommons.org/ns#"
   xmlns:rdf="http://www.w3.org/1999/02/22-rdf-syntax-ns#"
   xmlns:svg="http://www.w3.org/2000/svg"
   xmlns="http://www.w3.org/2000/svg"
   xmlns:sodipodi="http://sodipodi.sourceforge.net/DTD/sodipodi-0.dtd"
   xmlns:inkscape="http://www.inkscape.org/namespaces/inkscape"
   id="svg2"
   version="1.1"
   inkscape:version="0.47 r22583"
   width="405"
   height="270"
   xml:space="preserve"
   sodipodi:docname="FSF-1.svg"
   inkscape:export-filename="/home/donald/Desktop/FSF-1.png"
   inkscape:export-xdpi="90"
   inkscape:export-ydpi="90"><metadata
     id="metadata8"><rdf:RDF><cc:Work
         rdf:about=""><dc:format>image/svg+xml</dc:format><dc:type
           rdf:resource="http://purl.org/dc/dcmitype/StillImage" /><dc:title></dc:title></cc:Work></rdf:RDF></metadata><defs
     id="defs6"><inkscape:perspective
       sodipodi:type="inkscape:persp3d"
       inkscape:vp_x="0 : 0.5 : 1"
       inkscape:vp_y="0 : 1000 : 0"
       inkscape:vp_z="1 : 0.5 : 1"
       inkscape:persp3d-origin="0.5 : 0.33333333 : 1"
       id="perspective10" /><clipPath
       clipPathUnits="userSpaceOnUse"
       id="clipPath20"><path
         d="M 0,2160 0,0 l 3240,0 0,2160 -3240,0 z"
         id="path22" /></clipPath></defs><sodipodi:namedview
     pagecolor="#ffffff"
     bordercolor="#666666"
     borderopacity="1"
     objecttolerance="10"
     gridtolerance="10"
     guidetolerance="10"
     inkscape:pageopacity="0"
     inkscape:pageshadow="2"
     inkscape:window-width="1280"
     inkscape:window-height="949"
     id="namedview4"
     showgrid="false"
     showguides="true"
     inkscape:guide-bbox="true"
     inkscape:zoom="1.7938242"
     inkscape:cx="204.42743"
     inkscape:cy="172.60133"
     inkscape:window-x="0"
     inkscape:window-y="25"
     inkscape:window-maximized="1"
     inkscape:current-layer="g12" /><g
     id="g12"
     inkscape:groupmode="layer"
     inkscape:label="ink_ext_XXXXXX"
     transform="matrix(1.25,0,0,-1.25,0,270)"><path
       id="path24"
       style="fill:#9b182f;fill-opacity:1;fill-rule:nonzero;stroke:none"
       d="m 58.9766,85.3699 0,-4.1621 6.8808,0 0,-2.6437 -6.8808,0 0,-8.0879 -3.5,0 0,17.6539 12.9472,0 0,-2.7602 -9.4472,0" /><path
       id="path26"
       style="fill:#9b182f;fill-opacity:1;fill-rule:nonzero;stroke:none"
       d="m 75.5488,85.3801 0,-4.9223 c 0.6465,-0.0437 1.1426,-0.0656 1.4844,-0.0656 1.4656,0 2.5352,0.184 3.2148,0.5508 0.6766,0.3672 1.0176,1.089 1.0176,2.1652 0,0.8688 -0.3652,1.4758 -1.0926,1.8207 -0.7277,0.3449 -1.8742,0.518 -3.4386,0.518 -0.377,0 -0.7727,-0.0231 -1.1856,-0.0668 m 7.4668,-14.9039 -5.2461,7.2718 c -0.5312,0 -1.2695,0.0258 -2.2207,0.0809 l 0,-7.3527 -3.6152,0 0,17.6218 c 0.1953,0 0.9531,0.0309 2.2695,0.0942 1.3164,0.0617 2.3789,0.0937 3.1836,0.0937 4.9961,0 7.4949,-1.7371 7.4949,-5.2078 0,-1.048 -0.3433,-2 -1.0339,-2.8601 -0.6907,-0.859 -1.5594,-1.4641 -2.6114,-1.8121 l 5.8242,-7.9297 -4.0449,0" /><path
       id="path28"
       style="fill:#9b182f;fill-opacity:1;fill-rule:nonzero;stroke:none"
       d="m 92.6426,85.3699 0,-4.1621 6.3379,0 0,-2.6437 -6.3379,0 0,-5.327 8.9044,0 0,-2.7609 -12.4025,0 0,17.6539 12.4025,0 0,-2.7602 -8.9044,0" /><path
       id="path30"
       style="fill:#9b182f;fill-opacity:1;fill-rule:nonzero;stroke:none"
       d="m 108.697,85.3699 0,-4.1621 6.339,0 0,-2.6437 -6.339,0 0,-5.327 8.905,0 0,-2.7609 -12.405,0 0,17.6539 12.405,0 0,-2.7602 -8.905,0" /><path
       id="path32"
       style="fill:#9b182f;fill-opacity:1;fill-rule:nonzero;stroke:none"
       d="m 129.016,71.441 1.291,2.807 c 1.379,-0.8808 2.735,-1.323 4.069,-1.323 2.051,0 3.078,0.6461 3.078,1.9379 0,0.6 -0.244,1.175 -0.725,1.7211 -0.485,0.5469 -1.481,1.1621 -2.993,1.843 -1.509,0.682 -2.527,1.241 -3.048,1.682 -0.524,0.439 -0.929,0.9621 -1.209,1.568 -0.286,0.6062 -0.424,1.2718 -0.424,1.9992 0,1.3726 0.554,2.5097 1.672,3.4117 1.112,0.9019 2.543,1.3531 4.287,1.3531 2.273,0 3.941,-0.3808 5.007,-1.1441 L 138.96,84.591 c -1.224,0.7789 -2.517,1.1668 -3.873,1.1668 -0.803,0 -1.426,-0.1906 -1.87,-0.5719 -0.442,-0.3808 -0.662,-0.8769 -0.662,-1.4859 0,-1.0129 1.244,-2.068 3.737,-3.1609 1.312,-0.5821 2.259,-1.1153 2.839,-1.5969 0.582,-0.4844 1.023,-1.0492 1.328,-1.6981 0.305,-0.6492 0.456,-1.3711 0.456,-2.1671 0,-1.4321 -0.628,-2.609 -1.886,-3.5301 -1.256,-0.9219 -2.941,-1.3821 -5.05,-1.3821 -1.834,0 -3.488,0.425 -4.963,1.2762" /><path
       id="path34"
       style="fill:#9b182f;fill-opacity:1;fill-rule:nonzero;stroke:none"
       d="m 147.102,79.4309 c 0,-2.0598 0.391,-3.661 1.169,-4.7989 0.781,-1.1371 1.915,-1.707 3.405,-1.707 1.749,0 3.082,0.5559 4.001,1.6672 0.919,1.1109 1.38,2.7238 1.38,4.8387 0,4.1402 -1.705,6.2101 -5.114,6.2101 -1.559,0 -2.757,-0.559 -3.589,-1.6808 -0.834,-1.1204 -1.252,-2.6293 -1.252,-4.5293 m -3.618,0.0132 c 0,2.5149 0.768,4.643 2.305,6.386 1.535,1.741 3.587,2.6109 6.154,2.6109 2.83,0 4.993,-0.7879 6.487,-2.3629 1.494,-1.5769 2.243,-3.7871 2.243,-6.634 0,-2.8472 -0.78,-5.105 -2.343,-6.775 -1.562,-1.6691 -3.78,-2.5043 -6.654,-2.5043 -2.639,0 -4.666,0.8282 -6.076,2.484 -1.411,1.6563 -2.116,3.9211 -2.116,6.7953" /><path
       id="path36"
       style="fill:#9b182f;fill-opacity:1;fill-rule:nonzero;stroke:none"
       d="m 167.666,85.3699 0,-4.1621 6.882,0 0,-2.6437 -6.882,0 0,-8.0879 -3.499,0 0,17.6539 12.948,0 0,-2.7602 -9.449,0" /><path
       id="path38"
       style="fill:#9b182f;fill-opacity:1;fill-rule:nonzero;stroke:none"
       d="m 189.046,85.3699 0,-14.8937 -3.5,0 0,14.8937 -6.259,0 0,2.7602 16.293,0 0,-2.7602 -6.534,0" /><path
       id="path40"
       style="fill:#9b182f;fill-opacity:1;fill-rule:nonzero;stroke:none"
       d="m 214.512,70.243 -1.441,0 -4.277,11.1211 -4.16,-11.1211 -1.44,0 -6.453,17.8871 3.654,0 3.674,-10.6551 3.986,10.6551 1.516,0 3.988,-10.6551 3.674,10.6551 3.656,0 -6.377,-17.8871" /><path
       id="path42"
       style="fill:#9b182f;fill-opacity:1;fill-rule:nonzero;stroke:none"
       d="m 228.127,82.9578 -2.365,-6.4937 4.721,0 -2.356,6.4937 m 4.803,-12.4816 -1.43,3.5758 -6.73,0 -1.369,-3.5758 -3.887,0 7.855,17.8879 1.516,0 7.893,-17.8879 -3.848,0" /><path
       id="path44"
       style="fill:#9b182f;fill-opacity:1;fill-rule:nonzero;stroke:none"
       d="m 242.528,85.3801 0,-4.9223 c 0.646,-0.0437 1.141,-0.0656 1.482,-0.0656 1.467,0 2.538,0.184 3.217,0.5508 0.676,0.3672 1.018,1.089 1.018,2.1652 0,0.8688 -0.366,1.4758 -1.094,1.8207 -0.727,0.3449 -1.873,0.518 -3.438,0.518 -0.377,0 -0.773,-0.0231 -1.185,-0.0668 m 7.466,-14.9039 -5.247,7.2718 c -0.53,0 -1.268,0.0258 -2.219,0.0809 l 0,-7.3527 -3.616,0 0,17.6218 c 0.196,0 0.952,0.0309 2.27,0.0942 1.316,0.0617 2.377,0.0937 3.184,0.0937 4.996,0 7.494,-1.7371 7.494,-5.2078 0,-1.048 -0.344,-2 -1.035,-2.8601 -0.69,-0.859 -1.559,-1.4641 -2.609,-1.8121 l 5.822,-7.9297 -4.044,0" /><path
       id="path46"
       style="fill:#9b182f;fill-opacity:1;fill-rule:nonzero;stroke:none"
       d="m 259.621,85.3699 0,-4.1621 6.337,0 0,-2.6437 -6.337,0 0,-5.327 8.903,0 0,-2.7609 -12.403,0 0,17.6539 12.403,0 0,-2.7602 -8.903,0" /><path
       id="path48"
       style="fill:#9b182f;fill-opacity:1;fill-rule:nonzero;stroke:none"
       d="m 61.5723,62.2891 0,-2.8192 4.3164,0 0,-1.1859 -4.3164,0 0,-4.9192 -1.6719,0 0,10.1872 7.582,0 0,-1.2629 -5.9101,0" /><path
       id="path50"
       style="fill:#9b182f;fill-opacity:1;fill-rule:nonzero;stroke:none"
       d="m 82.3105,58.548 c 0,-1.1742 0.2754,-2.1531 0.8301,-2.9378 0.5547,-0.7852 1.3379,-1.1762 2.3457,-1.1762 1.1414,0 2.0137,0.359 2.6133,1.0808 0.5996,0.7204 0.8992,1.7313 0.8992,3.0332 0,2.6348 -1.1695,3.954 -3.5125,3.954 -1.0351,0 -1.8242,-0.354 -2.364,-1.061 -0.5411,-0.7051 -0.8118,-1.6699 -0.8118,-2.893 M 80.541,58.5461 c 0,1.4801 0.4453,2.716 1.336,3.7078 0.8925,0.9949 2.0957,1.493 3.6093,1.493 1.7032,0 3.011,-0.459 3.918,-1.3731 0.9082,-0.916 1.3633,-2.1918 1.3633,-3.8277 0,-1.6723 -0.4551,-2.984 -1.3672,-3.9352 -0.9121,-0.9468 -2.2149,-1.4211 -3.9141,-1.4211 -1.5488,0 -2.7597,0.5 -3.6328,1.5024 -0.875,1.0027 -1.3125,2.2867 -1.3125,3.8539" /><path
       id="path52"
       style="fill:#9b182f;fill-opacity:1;fill-rule:nonzero;stroke:none"
       d="m 104.907,63.552 1.672,0 0,-6.979 c 0,-0.6218 0.235,-1.1332 0.713,-1.5359 0.476,-0.4043 1.104,-0.6031 1.888,-0.6031 0.826,0 1.48,0.1941 1.954,0.5832 0.475,0.3867 0.714,0.9156 0.714,1.5898 l 0,6.945 1.672,0 0,-7.0942 c 0,-1.0277 -0.387,-1.8297 -1.163,-2.4058 -0.772,-0.5758 -1.825,-0.8622 -3.162,-0.8622 -1.375,0 -2.431,0.2813 -3.174,0.8461 -0.744,0.5629 -1.114,1.375 -1.114,2.4321 l 0,7.084" /><path
       id="path54"
       style="fill:#9b182f;fill-opacity:1;fill-rule:nonzero;stroke:none"
       d="m 136.188,53.2281 -6.338,7.4469 0,-7.3102 -1.597,0 0,10.1872 0.683,0 6.162,-7.0379 0,7.0379 1.593,0 0,-10.3239 -0.503,0" /><path
       id="path56"
       style="fill:#9b182f;fill-opacity:1;fill-rule:nonzero;stroke:none"
       d="m 153.096,62.3109 0,-7.6371 c 0.373,-0.0437 0.84,-0.0648 1.394,-0.0648 1.175,0 2.097,0.364 2.77,1.0961 0.67,0.7308 1.008,1.748 1.008,3.0469 0,2.421 -1.309,3.6351 -3.922,3.6351 -0.157,0 -0.575,-0.0281 -1.25,-0.0762 m 0.802,-8.9461 -2.476,0 0,10.1973 c 1.58,0.0438 2.59,0.068 3.033,0.068 1.716,0 3.077,-0.4321 4.079,-1.2981 1.003,-0.8648 1.504,-2.0191 1.504,-3.4621 0,-3.6699 -2.047,-5.5051 -6.14,-5.5051" /><path
       id="path58"
       style="fill:#9b182f;fill-opacity:1;fill-rule:nonzero;stroke:none"
       d="m 178.083,61.025 -1.906,-4.491 3.646,0 -1.74,4.491 m 3.064,-7.6602 -0.848,2.1383 -4.566,0 -0.906,-2.1383 -1.887,0 4.998,10.3243 0.446,0 4.628,-10.3243 -1.865,0" /><path
       id="path60"
       style="fill:#9b182f;fill-opacity:1;fill-rule:nonzero;stroke:none"
       d="m 199.307,62.2891 0,-8.9243 -1.67,0 0,8.9243 -3.91,0 0,1.2629 9.664,0 0,-1.2629 -4.084,0" /><path
       id="path62"
       style="fill:#9b182f;fill-opacity:1;fill-rule:nonzero;stroke:none"
       d="m 217.307,53.3648 1.67188,0 0,10.1871 -1.67188,0 0,-10.1871 z" /><path
       id="path64"
       style="fill:#9b182f;fill-opacity:1;fill-rule:nonzero;stroke:none"
       d="m 235.188,58.548 c 0,-1.1742 0.276,-2.1531 0.83,-2.9378 0.556,-0.7852 1.336,-1.1762 2.346,-1.1762 1.141,0 2.012,0.359 2.613,1.0808 0.598,0.7204 0.899,1.7313 0.899,3.0332 0,2.6348 -1.17,3.954 -3.512,3.954 -1.037,0 -1.826,-0.354 -2.366,-1.061 -0.541,-0.7051 -0.81,-1.6699 -0.81,-2.893 m -1.77,-0.0019 c 0,1.4801 0.446,2.716 1.336,3.7078 0.893,0.9949 2.094,1.493 3.61,1.493 1.703,0 3.01,-0.459 3.919,-1.3731 0.907,-0.916 1.362,-2.1918 1.362,-3.8277 0,-1.6723 -0.457,-2.984 -1.367,-3.9352 -0.91,-0.9468 -2.215,-1.4211 -3.914,-1.4211 -1.549,0 -2.76,0.5 -3.635,1.5024 -0.875,1.0027 -1.311,2.2867 -1.311,3.8539" /><path
       id="path66"
       style="fill:#9b182f;fill-opacity:1;fill-rule:nonzero;stroke:none"
       d="m 265.716,53.2281 -6.339,7.4469 0,-7.3102 -1.593,0 0,10.1872 0.679,0 6.163,-7.0379 0,7.0379 1.595,0 0,-10.3239 -0.505,0" /><path
       id="path68"
       style="fill:#9b182f;fill-opacity:1;fill-rule:nonzero;stroke:none"
       d="m 162.012,208.227 c 43.454,0 82.773,-11.614 110.988,-30.096 28.216,-18.48 44.921,-43.475 44.921,-70.147 C 317.921,81.3129 301.216,56.348 273,37.8672 244.785,19.3859 205.466,7.77305 162.012,7.77305 118.559,7.77305 79.2156,19.3859 51,37.8672 22.7852,56.348 6.07891,81.3129 6.07891,107.984 c 0,26.672 16.70629,51.667 44.92109,70.147 28.2156,18.482 67.559,30.096 111.012,30.096 m 0,7.773 C 117.721,216 77.5605,204.295 48.2324,185.085 18.9043,165.876 0,138.785 0,107.984 0,77.184 18.9043,50.1219 48.2324,30.9141 77.5605,11.7051 117.721,0 162.012,0 206.305,0 246.44,11.7051 275.768,30.9141 305.096,50.1219 324,77.184 324,107.984 c 0,30.801 -18.904,57.892 -48.232,77.101 C 246.44,204.295 206.305,216 162.012,216" /><path
       id="path70"
       style="fill:#9b182f;fill-opacity:1;fill-rule:nonzero;stroke:none"
       d="m 234.389,185.972 c -0.389,0.194 -20.295,-0.915 -21.414,-0.814 -1.119,0.103 -13.11,-0.07 -19.685,0.103 -7.783,0.202 -15.95,-0.01 -23.551,-0.714 -7.68,-0.712 -15.615,-3.101 -22.176,-5.848 -6.245,-2.615 -12.463,-5.901 -17.347,-9.767 -2.5,-1.979 -4.402,-4.178 -6.103,-6.866 -1.931,-3.052 -2.864,-6.538 -1.576,-9.461 1.386,-3.147 4.49,-4.541 8.34,-5.139 3.497,-0.543 7.784,-0.254 10.531,-0.812 1.631,-0.332 4.306,-0.772 4.475,-2.34 0.153,-1.425 -2.418,-3.807 -3.612,-4.374 -2.237,-1.069 -5.238,-0.153 -8.138,0.457 -1.998,0.42 -4.964,1.393 -6.817,2.239 -1.25,0.571 -2.587,1.023 -2.841,1.023 -0.102,0 -39.2836,0.102 -39.2316,0 0,-0.661 -0.052,-32.589 0,-34.116 0.0535,-1.684 5.8679,-1.185 9.4683,-0.835 6.9563,0.68 14.1903,1.526 21.2113,2.542 4.015,0.582 8.266,1.336 12.309,2.138 6.411,1.271 14.073,3.052 17.261,4.069 7.969,2.543 16.21,4.782 23.736,8.037 3.386,1.462 7.428,3.305 10.174,5.188 2.929,2.006 6.054,4.781 7.375,7.63 1.47,3.163 1.92,6.971 0.408,10.428 -1.424,3.255 -5.34,6.154 -8.748,6.714 -1.94,0.318 -3.459,0.507 -5.342,0.356 -2.164,-0.176 -5.849,-0.967 -8.291,-1.272 -4.013,-0.502 -8.729,-1.216 -12.666,-0.611 -2.644,0.407 -6.815,3.815 -5.341,7.782 1.081,2.91 5.268,5.895 7.784,7.529 6.104,3.968 17.084,7.43 26.501,9.665 7.935,1.881 19.074,3.408 28.484,3.509 0.908,0.009 9.408,0.58 10.274,0.611 14.293,0.509 14.751,2.848 14.548,2.95 M 116.366,158.624 c 0.956,4.025 3.631,8.126 6.834,11.539 l -37.4793,-0.15 -0.1367,-11.807 30.589,-0.124 0.143,-0.245 m -39.6031,-14.936 -20.468,0 0,15.351 20.468,0 0,11.941 -3.4121,0 0,8.529 3.4121,0 0,3.411 8.5305,0 0,-3.411 51.1716,0 c 14.135,7.406 30.728,8.846 45.068,9.022 15.828,0.204 16.648,0.025 23.105,-0.021 27.332,-0.203 29.217,-0.324 33.074,0.284 1.554,0.257 3.26,-0.771 3.395,-1.539 0.314,-1.698 -3.228,-3.666 -4.322,-4.012 -3.4,-1.08 -9.486,-1.568 -26.043,-2.523 l -0.394,-0.009 c -26.295,-2.482 -41.046,-8.681 -44.858,-10.456 -15.077,-7.036 -16.704,-10.312 -14.745,-12.402 2.078,-2.218 13.817,2.659 19.573,4.303 11.438,3.262 18.178,0.137 22.436,-3.117 l 10.234,0 0,1.706 6.824,0 0,-1.706 57.994,0 0,-15.351 -57.994,0 0,-11.941 49.467,0 0,-8.528 -49.467,0 0,-27.2922 -6.824,0 0,27.2922 -3.412,0 0,8.528 3.412,0 0,11.941 -3.412,0 c -0.058,-6.034 -1.825,-11.566 -3.517,-13.844 -15.786,-21.205 -87.387,-23.933 -109.5695,-24.295 -5.5965,-0.096 -9.6028,0.843 -9.7266,2.319" /><path
       id="path72"
       style="fill:#9b182f;fill-opacity:1;fill-rule:nonzero;stroke:none"
       d="m 118.764,17.6148 1.343,-0.2109 2.672,5.6133 0.805,-6.1543 1.361,-0.2109 4.696,8.5718 -2.328,0.3633 -2.521,-5.2851 -0.628,5.7761 -1.74,0.2688 -2.387,-5.3047 -0.762,5.7949 -2.343,0.368 1.832,-9.5903" /><path
       id="path74"
       style="fill:#9b182f;fill-opacity:1;fill-rule:nonzero;stroke:none"
       d="m 131.92,15.748 1.353,-0.139 2.373,5.748 1.127,-6.1058 1.373,-0.1383 4.233,8.8082 -2.343,0.241 -2.238,-5.4121 -0.932,5.7359 -1.75,0.1782 -2.106,-5.4243 -1.067,5.7461 -2.359,0.2403 2.336,-9.4782" /><path
       id="path76"
       style="fill:#9b182f;fill-opacity:1;fill-rule:nonzero;stroke:none"
       d="m 145.16,14.5828 1.358,-0.0637 2.056,5.8668 1.46,-6.0328 1.376,-0.064 3.749,9.0269 -2.354,0.109 -1.939,-5.5211 -1.244,5.6742 -1.759,0.0821 -1.806,-5.5321 -1.375,5.6821 -2.371,0.1109 2.849,-9.3383" /><path
       id="path78"
       style="fill:#9b182f;fill-opacity:1;fill-rule:nonzero;stroke:none"
       d="m 156.184,14.1891 2.207,-0.0219 0.021,2.125 -2.207,0.0199 -0.021,-2.123" /><path
       id="path80"
       style="fill:#9b182f;fill-opacity:1;fill-rule:nonzero;stroke:none"
       d="m 160.587,14.166 2.207,0.0231 -0.073,7.1859 1.243,0.0109 -0.018,1.8422 -1.244,-0.014 c 0.007,0.83 0.286,1.1179 1.15,1.125 l 0.215,0.0019 -0.022,2.0918 c -0.265,0.0293 -0.398,0.0293 -0.547,0.0274 -0.947,-0.009 -1.74,-0.3653 -2.296,-1.052 -0.444,-0.5352 -0.604,-1.0691 -0.708,-2.2152 l -0.796,-0.0078 0.018,-1.8442 0.798,0.0102 0.073,-7.1852" /><path
       id="path82"
       style="fill:#9b182f;fill-opacity:1;fill-rule:nonzero;stroke:none"
       d="m 164.469,17.1172 c 0.133,-0.8934 0.299,-1.3524 0.682,-1.8363 0.625,-0.7758 1.688,-1.2168 2.8,-1.1778 1.841,0.068 3.233,1.4957 3.169,3.2559 -0.029,0.7949 -0.352,1.4469 -0.932,1.875 -0.359,0.2851 -0.916,0.498 -1.72,0.7191 -0.905,0.25 -0.905,0.25 -1.125,0.3391 -0.303,0.1238 -0.461,0.3328 -0.47,0.5976 -0.017,0.4473 0.336,0.793 0.817,0.8114 0.465,0.0148 0.772,-0.2211 0.89,-0.7 l 2.155,0.0808 c -0.061,0.777 -0.26,1.236 -0.727,1.716 -0.603,0.625 -1.48,0.959 -2.391,0.9258 -1.708,-0.0617 -3.007,-1.3379 -2.949,-2.9136 0.048,-1.3442 0.805,-2.0801 2.651,-2.6274 0.857,-0.2519 0.925,-0.2808 1.162,-0.4219 0.271,-0.1578 0.431,-0.4 0.441,-0.6988 0.018,-0.5141 -0.398,-0.9101 -0.963,-0.932 -0.646,-0.0231 -1.023,0.2949 -1.267,1.0668 l -2.223,-0.0797" /><path
       id="path84"
       style="fill:#9b182f;fill-opacity:1;fill-rule:nonzero;stroke:none"
       d="m 172.509,14.5289 2.203,0.1383 -0.452,7.1719 1.242,0.0781 -0.115,1.8379 -1.242,-0.0781 c -0.037,0.83 0.228,1.1289 1.088,1.1839 l 0.216,0.0141 -0.132,2.0852 c -0.267,0.0179 -0.399,0.0097 -0.547,0 -0.945,-0.0582 -1.719,-0.459 -2.24,-1.1711 -0.412,-0.559 -0.545,-1.1 -0.59,-2.2481 l -0.793,-0.0512 0.115,-1.8378 0.795,0.0492 0.452,-7.1723" /><path
       id="path86"
       style="fill:#9b182f;fill-opacity:1;fill-rule:nonzero;stroke:none"
       d="m 177.366,14.8609 2.199,0.1832 -0.178,2.118 -2.199,-0.1859 0.178,-2.1153" /><path
       id="path88"
       style="fill:#9b182f;fill-opacity:1;fill-rule:nonzero;stroke:none"
       d="m 185.257,23.068 c 1.468,0.1781 2.804,-0.9321 2.986,-2.4489 0.184,-1.5339 -0.854,-2.9113 -2.303,-3.0839 -1.483,-0.1782 -2.801,0.916 -2.99,2.4796 -0.18,1.5 0.874,2.8813 2.307,3.0532 M 185,25.0781 c -2.654,-0.3211 -4.568,-2.741 -4.254,-5.3601 0.317,-2.636 2.75,-4.5168 5.419,-4.195 2.652,0.3161 4.603,2.725 4.295,5.2969 -0.328,2.7192 -2.709,4.5883 -5.46,4.2582" /><path
       id="path90"
       style="fill:#9b182f;fill-opacity:1;fill-rule:nonzero;stroke:none"
       d="m 192.235,16.552 2.181,0.35 -0.806,5.0468 c -0.223,1.4102 0.304,2.2172 1.609,2.4571 l -0.334,2.0972 -0.164,-0.025 c -0.934,-0.148 -1.351,-0.484 -1.791,-1.4101 l -0.141,0.8851 -2,-0.3211 1.446,-9.08" /><path
       id="path92"
       style="fill:#9b182f;fill-opacity:1;fill-rule:nonzero;stroke:none"
       d="m 200.326,25.4719 c 1.546,0.3133 2.829,-0.5969 3.159,-2.2399 0.328,-1.6269 -0.48,-2.9058 -2.025,-3.2191 -1.545,-0.3098 -2.75,0.5449 -3.083,2.1902 -0.334,1.6598 0.436,2.9641 1.949,3.2688 m 2.342,2.3191 0.229,-1.139 c -0.85,0.775 -1.914,1.0171 -3.215,0.7582 -2.555,-0.518 -4.041,-2.8813 -3.504,-5.5493 0.561,-2.7828 2.819,-4.4097 5.389,-3.891 1.269,0.2539 2.033,0.8321 2.68,1.9942 0.308,-1.9512 -0.331,-3.0621 -1.942,-3.386 -1.009,-0.2031 -1.679,-0.0691 -2.455,0.5039 l -2.455,-0.4968 c 1.095,-1.6582 3,-2.375 5.213,-1.927 1.627,0.3277 2.797,1.1559 3.427,2.3996 0.466,0.957 0.52,2.1192 0.173,3.8442 l -1.473,7.305 -2.067,-0.416" /><path
       id="path94"
       style="fill:#9b182f;fill-opacity:1;fill-rule:nonzero;stroke:none"
       d="M 162,216 C 72.5293,216 0,167.647 0,108 0,48.352 72.5293,0 162,0 c 89.471,0 162,48.352 162,108 0,59.647 -72.529,108 -162,108 M 315,108 C 315,53.325 246.5,9 162,9 77.5,9 9,53.325 9,108 c 0,54.677 68.5,99.001 153,99.001 84.5,0 153,-44.324 153,-99.001" /></g></svg>