<?xml version="1.0" encoding="UTF-8" standalone="no"?><!DOCTYPE svg PUBLIC "-//W3C//DTD SVG 1.1//EN" "http://www.w3.org/Graphics/SVG/1.1/DTD/svg11.dtd"><svg width="100%" height="100%" viewBox="0 0 6667 3334" version="1.1" xmlns="http://www.w3.org/2000/svg" xmlns:xlink="http://www.w3.org/1999/xlink" xml:space="preserve" xmlns:serif="http://www.serif.com/" style="fill-rule:evenodd;clip-rule:evenodd;stroke-linecap:round;stroke-linejoin:round;stroke-miterlimit:1.5;"><g id="Ebene-1" serif:id="Ebene 1"><path d="M6511.66,631.677c0,-275.715 -223.845,-499.56 -499.559,-499.56l-4236.57,0c-275.714,0 -499.559,223.845 -499.559,499.56l-0,999.118c-0,275.714 223.845,499.559 499.559,499.559l4236.57,0c275.714,0 499.559,-223.845 499.559,-499.559l0,-999.118Z" style="fill:none;stroke:#000;stroke-width:62.5px;"/><g id="text5790"><g transform="matrix(366.667,0,0,366.667,6174.29,722.75)"></g><text x="2181.42px" y="722.75px" style="font-family:'Helvetica-Bold', 'Helvetica';font-weight:700;font-size:366.667px;">BETRIEBSERLAUBNIS</text></g><g id="text57901" serif:id="text5790"><g transform="matrix(400,0,0,400,2478.72,2674.74)"></g><text x="175.205px" y="2674.74px" style="font-family:'Helvetica-Bold', 'Helvetica';font-weight:700;font-size:400px;">ZERTIFIKA<tspan x="2234.39px " y="2674.74px ">T</tspan></text><g transform="matrix(400,0,0,400,2469.48,3155.88)"></g><text x="179.833px" y="3155.88px" style="font-family:'Helvetica-Bold', 'Helvetica';font-weight:700;font-size:400px;">0/5 STERNE</text></g><g id="text57902" serif:id="text5790"><g transform="matrix(0.686311,0,0,1,681.765,0)"><g transform="matrix(941.022,0,0,941.022,8081.41,1701.44)"></g><text x="2173.37px" y="1701.44px" style="font-family:'Helvetica-Bold', 'Helvetica';font-weight:700;font-size:941.022px;">ERLOSCHEN</text></g></g><g id="text57903" serif:id="text5790"><g transform="matrix(0.686311,0,0,1,672.615,0)"><g transform="matrix(941.022,0,0,941.022,8052.24,1668.11)"></g><text x="2144.21px" y="1668.11px" style="font-family:'Helvetica-Bold', 'Helvetica';font-weight:700;font-size:941.022px;fill:#ba1818;">ERLOSCHEN</text></g></g><g id="Layer_2"></g><g id="Ebene-11" serif:id="Ebene 1"></g><rect x="1235.26" y="65.383" width="216.227" height="2089.19" style="fill:#fff;stroke:#fff;stroke-width:4.17px;"/><rect x="1452.22" y="66.456" width="490.201" height="176.5" style="fill:#fff;stroke:#fff;stroke-width:4.17px;"/><path d="M1553.45,2009.62l-274.604,-117.23l-69.298,162.327l274.604,117.23l69.298,-162.327Z" style="fill:#fff;stroke:#fff;stroke-width:4.17px;"/><path d="M1537.7,2039.25c16.997,-0.03 30.821,13.758 30.852,30.773c0.031,17.014 -13.744,30.853 -30.741,30.884c-16.997,0.031 -30.821,-13.758 -30.852,-30.773c-0.03,-17.014 13.744,-30.853 30.741,-30.884Z" style="stroke:#000;stroke-width:4.17px;"/><ellipse cx="1943.22" cy="132.388" rx="30.796" ry="29.998" style="stroke:#000;stroke-width:4.17px;"/><path d="M2943.05,2388.62l129.553,196.685l227.094,62.433l-147.025,183.992l10.798,235.271l-220.42,-82.973l-220.419,82.973l10.798,-235.271l-147.025,-183.992l227.093,-62.433l129.553,-196.685Z" style="fill:none;stroke:#ba1818;stroke-width:41.67px;"/><path d="M3740.5,2391.03l129.553,196.686l227.093,62.433l-147.025,183.991l10.799,235.271l-220.42,-82.972l-220.419,82.972l10.798,-235.271l-147.025,-183.991l227.093,-62.433l129.553,-196.686Z" style="fill:none;stroke:#ba1818;stroke-width:41.67px;"/><path d="M4537.65,2389.28l129.553,196.685l227.094,62.433l-147.025,183.992l10.798,235.271l-220.42,-82.973l-220.419,82.973l10.798,-235.271l-147.025,-183.992l227.093,-62.433l129.553,-196.685Z" style="fill:none;stroke:#ba1818;stroke-width:41.67px;"/><path d="M5337.4,2390.28l129.553,196.686l227.094,62.433l-147.025,183.991l10.798,235.272l-220.42,-82.973l-220.419,82.973l10.798,-235.272l-147.025,-183.991l227.093,-62.433l129.553,-196.686Z" style="fill:none;stroke:#ba1818;stroke-width:41.67px;"/><path d="M6134.06,2390.66l129.553,196.686l227.093,62.433l-147.025,183.992l10.798,235.271l-220.419,-82.973l-220.42,82.973l10.798,-235.271l-147.025,-183.992l227.094,-62.433l129.553,-196.686Z" style="fill:none;stroke:#ba1818;stroke-width:41.67px;"/></g><g id="Ebene1"><g id="layer1"><path d="M1117.29,2161.84c-6.025,0.255 -12.057,-0.285 -17.942,-1.605c-196.045,-52.143 -379,-144.804 -537.037,-271.992c-230.139,-181.34 -352.556,-392.873 -352.556,-610.865l-0,-914.551c0.142,-43.677 36.119,-79.538 79.796,-79.538c0.605,0 1.21,0.007 1.815,0.021c276.488,-0.135 548.429,-70.76 790.04,-205.181c25.291,-14.301 56.321,-14.301 81.612,0c238.39,133.63 506.978,204.259 780.266,205.181c0.605,-0.014 1.21,-0.021 1.815,-0.021c43.678,0 79.655,35.861 79.796,79.538l0,914.551c0,217.922 -120.811,429.351 -347.704,610.865c-34.843,26.908 -85.257,21.995 -114.249,-11.135c-11.608,-14.087 -17.961,-31.784 -17.961,-50.037c0,-23.817 10.815,-46.39 29.376,-61.315c132.226,-104.964 288.921,-273.563 288.921,-486.702l0,-838.211c-258.217,-12.803 -510.565,-81.742 -739.425,-202.004c-231.955,121.552 -487.662,191.042 -749.234,203.61l-0,838.245c-0,392.874 545.205,679.177 762.289,726.894c37.047,7.645 63.865,40.561 63.865,78.39c-0,5.731 -0.616,11.445 -1.836,17.045c-11.672,35.057 -44.697,58.849 -81.647,58.817Z" style="fill-rule:nonzero;"/><path d="M1513.76,1456.8c-0.195,0.201 -0.392,0.401 -0.591,0.599c-32.859,32.839 -96.949,22.788 -141.976,-22.266c-0.272,-0.272 -0.543,-0.545 -0.813,-0.819l-585.297,-585.659c-45.472,-45.499 -55.582,-110.23 -22.398,-143.394c33.185,-33.164 97.909,-23.013 143.38,22.487l585.298,585.658c45.328,45.545 55.417,110.136 22.397,143.394Z" style="fill:#ba1818;fill-rule:nonzero;"/><path d="M764.971,1454.11c0.196,0.201 0.393,0.401 0.592,0.6c32.859,32.839 96.86,22.877 141.778,-22.069c0.271,-0.271 0.541,-0.544 0.811,-0.817l583.888,-584.248c45.362,-45.39 55.383,-110.03 22.198,-143.194c-33.184,-33.165 -97.818,-23.104 -143.18,22.286l-583.889,584.248c-45.218,45.436 -55.218,109.937 -22.198,143.194Z" style="fill:#ba1818;fill-rule:nonzero;"/></g></g></svg>