<?xml version="1.0" standalone="no"?>
<!DOCTYPE svg PUBLIC "-//W3C//DTD SVG 1.1//EN" "http://www.w3.org/Graphics/SVG/1.1/DTD/svg11.dtd">
<svg width="100%" height="100%" viewBox="0 0 1000 1000" version="1.1" xmlns="http://www.w3.org/2000/svg" xmlns:xlink="http://www.w3.org/1999/xlink" xml:space="preserve" style="fill-rule:evenodd;clip-rule:evenodd;stroke-linejoin:round;stroke-miterlimit:1.41421;">
    <g id="Ebene1">
        <g transform="matrix(2.67849,-5.54779e-17,-5.54779e-17,2.90499,-252.038,-342.492)">
            <path d="M237.722,136.48C297.394,136.48 345.84,181.149 345.84,236.167C345.84,291.186 297.394,335.855 237.722,335.855C178.051,335.855 129.605,291.186 129.605,236.167C129.605,181.149 178.051,136.48 237.722,136.48ZM237.722,146.33C291.498,146.33 335.157,186.585 335.157,236.167C335.157,285.75 291.498,326.005 237.722,326.005C183.947,326.005 140.288,285.75 140.288,236.167C140.288,186.585 183.947,146.33 237.722,146.33Z" style="fill:rgb(255,204,0);"/>
        </g>
        <g transform="matrix(18.2935,0,0,18.2935,-952.376,328.75)">
            <path d="M74.372,19.537C74.387,26.703 80.183,32.502 87.351,32.514C94.518,32.502 100.312,26.703 100.327,19.537C100.312,12.372 94.518,6.573 87.351,6.559C80.183,6.573 74.387,12.372 74.372,19.537M71.381,19.537C71.383,10.716 78.529,3.569 87.351,3.567C96.17,3.569 103.316,10.716 103.318,19.537C103.316,28.357 96.17,35.506 87.351,35.506C78.529,35.506 71.383,28.357 71.381,19.537" style="fill:rgb(221,0,102);fill-rule:nonzero;"/>
        </g>
        <g transform="matrix(18.2935,0,0,18.2935,-952.376,328.75)">
            <path d="M82.332,22.55L86.325,17.987L90.543,17.987L87.624,21.06L93.522,21.06L93.522,24.038L87.91,24.038L90.733,26.767L86.42,26.767L82.332,22.55Z" style="fill:rgb(255,204,0);fill-rule:nonzero;"/>
        </g>
        <g transform="matrix(18.2935,0,0,18.2935,-952.376,328.75)">
            <path d="M66.719,25.001L64.141,25.001L65.828,23.37L62.473,23.37L62.473,21.589L65.999,21.589L64.254,19.751L66.777,19.751L69.163,22.48L66.719,25.001Z" style="fill:rgb(255,204,0);fill-rule:nonzero;"/>
        </g>
        <g transform="matrix(18.2935,0,0,18.2935,-952.376,328.75)">
            <path d="M58.886,24.832C58.895,30.414 63.41,34.928 68.99,34.939C74.573,34.928 79.087,30.414 79.097,24.832C79.087,19.25 74.573,14.736 68.99,14.726C63.41,14.736 58.895,19.25 58.886,24.832M58.287,24.832C58.287,18.919 63.079,14.127 68.99,14.127C74.905,14.127 79.694,18.919 79.696,24.832C79.694,30.744 74.905,35.535 68.99,35.535C63.079,35.535 58.287,30.744 58.287,24.832" style="fill:rgb(221,0,102);fill-rule:nonzero;"/>
        </g>
        <g transform="matrix(18.2935,0,0,18.2935,-952.376,328.75)">
            <path d="M76.589,19.538C76.599,25.48 81.406,30.287 87.349,30.297C93.291,30.287 98.098,25.48 98.11,19.538C98.098,13.595 93.291,8.786 87.349,8.776C81.406,8.786 76.599,13.595 76.589,19.538M75.99,19.538C75.99,13.263 81.075,8.178 87.349,8.178C93.623,8.178 98.706,13.263 98.708,19.538C98.706,25.81 93.623,30.896 87.349,30.896C81.075,30.896 75.99,25.81 75.99,19.538" style="fill:rgb(221,0,102);fill-rule:nonzero;"/>
        </g>
        <g transform="matrix(2.98171,-6.17585e-17,-6.17585e-17,3.23386,-324.121,-420.159)">
            <path d="M237.722,136.48C297.394,136.48 345.84,181.149 345.84,236.167C345.84,291.186 297.394,335.855 237.722,335.855C178.051,335.855 129.605,291.186 129.605,236.167C129.605,181.149 178.051,136.48 237.722,136.48ZM237.722,139.842C295.382,139.842 342.194,183.004 342.194,236.167C342.194,289.331 295.382,332.493 237.722,332.493C180.063,332.493 133.251,289.331 133.251,236.167C133.251,183.004 180.063,139.842 237.722,139.842Z" style="fill:rgb(255,204,0);"/>
        </g>
        <path id="Rheinturm" d="M385.062,599.254L407.036,599.254L399.09,412.563L455.813,338.629C456.486,337.207 455.86,336.136 454.344,335.305C431.901,328.465 408.066,327.861 384.829,327.861C361.592,327.861 337.757,328.465 315.314,335.305C313.798,336.136 313.171,337.207 313.844,338.629L370.568,412.563L362.622,599.254L385.062,599.254M331.275,299.394C367.86,293.445 401.798,293.445 438.383,299.394L438.658,299.439C440.247,299.699 441.836,298.175 442.722,296.831C445.062,293.281 450.228,282.02 444.548,278.032C431.987,269.211 411.933,267.223 397.777,265.494L394.059,195.732L390.189,180.818L389.264,99.619C387.158,96.766 382.5,96.766 380.394,99.619L379.468,180.818L375.598,195.732L371.881,265.494C357.725,267.223 337.671,269.211 325.11,278.032C319.43,282.02 324.596,293.281 326.936,296.831C327.821,298.175 329.411,299.699 331,299.439L331.275,299.394M324.756,331.474C341.413,327.377 367.804,326.089 384.829,326.089C401.854,326.089 428.245,327.377 444.902,331.474C455.141,333.139 455.539,311.15 455.8,307.118C455.842,306.468 455.563,305.529 454.932,305.368C427.899,298.448 412.977,296.095 385.062,295.31L384.596,295.31C356.681,296.095 341.758,298.448 314.726,305.368C314.095,305.529 313.815,306.468 313.857,307.118C314.072,310.426 314.378,325.819 320.134,330.323C321.395,331.309 322.916,331.773 324.756,331.474" style="fill:rgb(221,0,102);"/>
    </g>
</svg>
