<?xml version="1.0" encoding="UTF-8" standalone="no"?>
<!-- Created with Inkscape (http://www.inkscape.org/) -->

<svg
   xmlns:dc="http://purl.org/dc/elements/1.1/"
   xmlns:cc="http://creativecommons.org/ns#"
   xmlns:rdf="http://www.w3.org/1999/02/22-rdf-syntax-ns#"
   xmlns:svg="http://www.w3.org/2000/svg"
   xmlns="http://www.w3.org/2000/svg"
   xmlns:sodipodi="http://sodipodi.sourceforge.net/DTD/sodipodi-0.dtd"
   xmlns:inkscape="http://www.inkscape.org/namespaces/inkscape"
   width="64mm"
   height="44mm"
   viewBox="0 0 226.77165 155.90551"
   id="svg2"
   version="1.1"
   inkscape:version="0.91 r13725"
   sodipodi:docname="bad_gateway.svg">
  <defs
     id="defs4" />
  <sodipodi:namedview
     id="base"
     pagecolor="#ffffff"
     bordercolor="#666666"
     borderopacity="1.0"
     inkscape:pageopacity="0.0"
     inkscape:pageshadow="2"
     inkscape:zoom="1.4"
     inkscape:cx="154.60706"
     inkscape:cy="27.179322"
     inkscape:document-units="mm"
     inkscape:current-layer="layer4"
     showgrid="false"
     inkscape:snap-bbox="true"
     inkscape:bbox-paths="true"
     inkscape:bbox-nodes="true"
     inkscape:snap-bbox-edge-midpoints="true"
     inkscape:snap-bbox-midpoints="true"
     inkscape:object-paths="false"
     inkscape:snap-intersection-paths="false"
     inkscape:object-nodes="true"
     inkscape:snap-smooth-nodes="false"
     inkscape:snap-nodes="false"
     inkscape:snap-object-midpoints="false"
     inkscape:snap-center="false"
     inkscape:window-width="1920"
     inkscape:window-height="1021"
     inkscape:window-x="0"
     inkscape:window-y="27"
     inkscape:window-maximized="1" />
  <metadata
     id="metadata7">
    <rdf:RDF>
      <cc:Work
         rdf:about="">
        <dc:format>image/svg+xml</dc:format>
        <dc:type
           rdf:resource="http://purl.org/dc/dcmitype/StillImage" />
        <dc:title />
        <cc:license
           rdf:resource="http://creativecommons.org/publicdomain/zero/1.0/" />
      </cc:Work>
      <cc:License
         rdf:about="http://creativecommons.org/publicdomain/zero/1.0/">
        <cc:permits
           rdf:resource="http://creativecommons.org/ns#Reproduction" />
        <cc:permits
           rdf:resource="http://creativecommons.org/ns#Distribution" />
        <cc:permits
           rdf:resource="http://creativecommons.org/ns#DerivativeWorks" />
      </cc:License>
    </rdf:RDF>
  </metadata>
  <g
     inkscape:groupmode="layer"
     id="layer2"
     inkscape:label="background"
     sodipodi:insensitive="true">
    <rect
       style="fill:#f0ca00;fill-opacity:1;stroke:none;stroke-width:0.35433072;stroke-linecap:round;stroke-linejoin:round;stroke-miterlimit:4;stroke-dasharray:none"
       id="rect4139"
       width="226.77165"
       height="155.90535"
       x="0"
       y="0.00016669036" />
  </g>
  <g
     inkscape:groupmode="layer"
     id="layer3"
     inkscape:label="border"
     sodipodi:insensitive="true">
    <rect
       style="fill:none;fill-opacity:1;stroke:#000000;stroke-width:2.43515468;stroke-linecap:round;stroke-linejoin:round;stroke-miterlimit:4;stroke-dasharray:none"
       id="rect4161"
       width="203.7859"
       height="130.6582"
       x="11.492875"
       y="12.623654"
       ry="5.9992447" />
  </g>
  <g
     inkscape:groupmode="layer"
     id="layer4"
     inkscape:label="Bad Gateway"
     style="display:inline"
     sodipodi:insensitive="true">
    <g
       style="font-style:normal;font-weight:normal;font-size:40px;line-height:125%;font-family:sans-serif;letter-spacing:0px;word-spacing:0px;fill:#000000;fill-opacity:1;stroke:none;stroke-width:1px;stroke-linecap:butt;stroke-linejoin:miter;stroke-opacity:1"
       id="text4164">
      <path
         d="m 24.747154,43.204521 7.8,0 q 1.2675,0 2.405,0.4875 1.1375,0.4875 1.95,1.3325 0.845,0.8125 1.3325,1.95 0.4875,1.1375 0.4875,2.405 0,1.3325 -0.52,2.47 -0.4875,1.1375 -1.365,1.9825 1.17,0.9425 1.8525,2.3075 0.6825,1.365 0.6825,2.99 0,1.43 -0.5525,2.665 -0.52,1.235 -1.4625,2.1775 -0.91,0.91 -2.1775,1.4625 -1.235,0.52 -2.6325,0.52 l -7.8,0 0,-22.75 z m 7.8,19.5 q 0.7475,0 1.3975,-0.26 0.65,-0.2925 1.1375,-0.78 0.4875,-0.4875 0.7475,-1.1375 0.2925,-0.65 0.2925,-1.3975 0,-0.7475 -0.2925,-1.3975 -0.26,-0.65 -0.7475,-1.1375 -0.4875,-0.4875 -1.1375,-0.7475 -0.65,-0.2925 -1.3975,-0.2925 l -4.55,0 0,7.15 4.55,0 z m -4.55,-16.25 0,5.85 4.55,0 q 1.235,0 2.08,-0.845 0.845,-0.845 0.845,-2.08 0,-1.235 -0.845,-2.08 -0.845,-0.845 -2.08,-0.845 l -4.55,0 z"
         style="font-style:normal;font-variant:normal;font-weight:normal;font-stretch:normal;font-size:32.5px;font-family:'DIN145_14H_08.87';-inkscape-font-specification:'DIN145_14H_08.87'"
         id="path4170"
         inkscape:connector-curvature="0" />
      <path
         d="m 43.655045,50.354521 q 2.5675,-0.975 5.525,-0.975 1.365,0 2.535,0.52 1.2025,0.52 2.08,1.3975 0.8775,0.8775 1.3975,2.08 0.52,1.17 0.52,2.5025 l 0,5.2 q 0,0.6825 0.455,1.17 0.4875,0.455 1.17,0.455 l 0,3.25 q -0.9425,0 -1.7875,-0.325 -0.845,-0.3575 -1.495,-0.9425 -0.65,0.585 -1.495,0.9425 -0.8125,0.325 -1.755,0.325 l -3.25,0 q -1.0075,0 -1.9175,-0.39 -0.8775,-0.39 -1.56,-1.04 -0.65,-0.65 -1.04,-1.5275 -0.39,-0.91 -0.39,-1.9175 0,-1.0075 0.39,-1.885 0.39,-0.91 1.04,-1.56 0.6825,-0.65 1.56,-1.04 0.91,-0.39 1.9175,-0.39 l 4.875,0 0,-0.325 q 0,-1.365 -0.9425,-2.3075 -0.9425,-0.9425 -2.3075,-0.9425 -2.3725,0 -4.42,0.78 l -1.105,-3.055 z m 7.15,12.35 q 0.6825,0 1.1375,-0.455 0.4875,-0.4875 0.4875,-1.17 l 0,-1.625 -4.875,0 q -0.6825,0 -1.17,0.4875 -0.4875,0.455 -0.4875,1.1375 0,0.65 0.4875,1.1375 0.4875,0.4875 1.17,0.4875 l 3.25,0 z"
         style="font-style:normal;font-variant:normal;font-weight:normal;font-stretch:normal;font-size:32.5px;font-family:'DIN145_14H_08.87';-inkscape-font-specification:'DIN145_14H_08.87'"
         id="path4172"
         inkscape:connector-curvature="0" />
      <path
         d="m 66.317955,52.629521 q -1.365,0 -2.3075,0.9425 -0.9425,0.9425 -0.9425,2.3075 l 0,3.9 q 0,1.365 0.9425,2.3075 0.9425,0.9425 2.3075,0.9425 1.365,0 2.3075,-0.9425 0.9425,-0.9425 0.9425,-2.3075 l 0,-4.03 q -0.065,-1.3 -1.0075,-2.21 -0.91,-0.91 -2.2425,-0.91 z m -6.5,3.25 q 0,-1.3325 0.52,-2.5025 0.52,-1.2025 1.3975,-2.08 0.8775,-0.8775 2.0475,-1.3975 1.2025,-0.52 2.535,-0.52 0.91,0 1.7225,0.2275 0.8125,0.2275 1.5275,0.65 l 0,-7.0525 3.25,0 0,22.75 -3.25,0 0,-0.52 q -0.715,0.39 -1.5275,0.6175 -0.8125,0.2275 -1.7225,0.2275 -1.3325,0 -2.535,-0.52 -1.17,-0.52 -2.0475,-1.3975 -0.8775,-0.8775 -1.3975,-2.0475 -0.52,-1.2025 -0.52,-2.535 l 0,-3.9 z"
         style="font-style:normal;font-variant:normal;font-weight:normal;font-stretch:normal;font-size:32.5px;font-family:'DIN145_14H_08.87';-inkscape-font-specification:'DIN145_14H_08.87'"
         id="path4174"
         inkscape:connector-curvature="0" />
      <path
         d="m 89.112389,51.654521 q 0,-1.8525 0.6825,-3.4775 0.715,-1.625 1.9175,-2.8275 1.235,-1.235 2.86,-1.9175 1.625,-0.715 3.4775,-0.715 1.365,0 2.600001,0.39 1.235,0.39 2.275,1.0725 1.04,0.6825 1.8525,1.6575 0.845,0.9425 1.3975,2.08 l -2.9575,1.365 q -0.6825,-1.4625 -2.08,-2.3725 -1.365001,-0.9425 -3.087501,-0.9425 -1.17,0 -2.21,0.455 -1.04,0.4225 -1.82,1.2025 -0.78,0.78 -1.235,1.82 -0.4225,1.04 -0.4225,2.21 l 0,5.85 q 0,1.17 0.4225,2.21 0.455,1.04 1.235,1.82 0.78,0.78 1.82,1.235 1.04,0.4225 2.21,0.4225 1.17,0 2.210001,-0.4225 1.04,-0.455 1.7875,-1.235 0.78,-0.78 1.235,-1.82 0.455,-1.04 0.455,-2.21 l 0,-1.3 -4.875001,0 0,-3.25 8.125001,0 0,4.55 q 0,1.8525 -0.715,3.4775 -0.6825,1.625 -1.9175,2.86 -1.2025,1.2025 -2.8275,1.9175 -1.625001,0.6825 -3.477501,0.6825 -1.8525,0 -3.4775,-0.6825 -1.625,-0.715 -2.86,-1.9175 -1.2025,-1.235 -1.9175,-2.86 -0.6825,-1.625 -0.6825,-3.4775 l 0,-5.85 z"
         style="font-style:normal;font-variant:normal;font-weight:normal;font-stretch:normal;font-size:32.5px;font-family:'DIN145_14H_08.87';-inkscape-font-specification:'DIN145_14H_08.87'"
         id="path4176"
         inkscape:connector-curvature="0" />
      <path
         d="m 111.25758,50.354521 q 2.5675,-0.975 5.525,-0.975 1.365,0 2.535,0.52 1.2025,0.52 2.08,1.3975 0.8775,0.8775 1.3975,2.08 0.52,1.17 0.52,2.5025 l 0,5.2 q 0,0.6825 0.455,1.17 0.4875,0.455 1.17,0.455 l 0,3.25 q -0.9425,0 -1.7875,-0.325 -0.845,-0.3575 -1.495,-0.9425 -0.65,0.585 -1.495,0.9425 -0.8125,0.325 -1.755,0.325 l -3.25,0 q -1.0075,0 -1.9175,-0.39 -0.8775,-0.39 -1.56,-1.04 -0.65,-0.65 -1.04,-1.5275 -0.39,-0.91 -0.39,-1.9175 0,-1.0075 0.39,-1.885 0.39,-0.91 1.04,-1.56 0.6825,-0.65 1.56,-1.04 0.91,-0.39 1.9175,-0.39 l 4.875,0 0,-0.325 q 0,-1.365 -0.9425,-2.3075 -0.9425,-0.9425 -2.3075,-0.9425 -2.3725,0 -4.42,0.78 l -1.105,-3.055 z m 7.15,12.35 q 0.6825,0 1.1375,-0.455 0.4875,-0.4875 0.4875,-1.17 l 0,-1.625 -4.875,0 q -0.6825,0 -1.17,0.4875 -0.4875,0.455 -0.4875,1.1375 0,0.65 0.4875,1.1375 0.4875,0.4875 1.17,0.4875 l 3.25,0 z"
         style="font-style:normal;font-variant:normal;font-weight:normal;font-stretch:normal;font-size:32.5px;font-family:'DIN145_14H_08.87';-inkscape-font-specification:'DIN145_14H_08.87'"
         id="path4178"
         inkscape:connector-curvature="0" />
      <path
         d="m 127.64825,43.204521 3.25,0 0,6.5 3.2825,0 0,3.25 -3.2825,0 0,8.125 q 0,0.65 0.4875,1.1375 0.4875,0.4875 1.17,0.4875 l 1.625,0 0,3.25 -1.625,0 q -1.0075,0 -1.9175,-0.39 -0.8775,-0.39 -1.56,-1.04 -0.65,-0.65 -1.04,-1.5275 -0.39,-0.91 -0.39,-1.9175 l 0,-8.125 -1.5925,0 0,-3.25 1.5925,0 0,-6.5 z"
         style="font-style:normal;font-variant:normal;font-weight:normal;font-stretch:normal;font-size:32.5px;font-family:'DIN145_14H_08.87';-inkscape-font-specification:'DIN145_14H_08.87'"
         id="path4180"
         inkscape:connector-curvature="0" />
      <path
         d="m 136.37069,59.779521 0,-3.9 q 0,-1.3325 0.4875,-2.5025 0.52,-1.2025 1.3975,-2.08 0.8775,-0.8775 2.0475,-1.3975 1.2025,-0.52 2.5675,-0.52 1.3325,0 2.5025,0.52 1.2025,0.52 2.08,1.3975 0.8775,0.8775 1.3975,2.08 0.52,1.17 0.52,2.5025 l 0,3.575 -9.75,0 0,0.325 q 0,1.365 0.9425,2.3075 0.9425,0.9425 2.3075,0.9425 2.3725,0 4.42,-0.78 l 1.105,3.055 q -2.6,0.975 -5.525,0.975 -1.365,0 -2.5675,-0.52 -1.17,-0.52 -2.0475,-1.3975 -0.8775,-0.8775 -1.3975,-2.0475 -0.4875,-1.2025 -0.4875,-2.535 z m 9.75,-3.9 q 0,-1.365 -0.9425,-2.3075 -0.9425,-0.9425 -2.3075,-0.9425 -1.365,0 -2.3075,0.9425 -0.9425,0.9425 -0.9425,2.3075 l 0,0.325 6.5,0 0,-0.325 z"
         style="font-style:normal;font-variant:normal;font-weight:normal;font-stretch:normal;font-size:32.5px;font-family:'DIN145_14H_08.87';-inkscape-font-specification:'DIN145_14H_08.87'"
         id="path4182"
         inkscape:connector-curvature="0" />
      <path
         d="m 154.16063,49.704521 3.185,9.75 3.6725,-9.75 2.21,0 3.6725,9.75 3.185,-9.75 3.4125,0 -5.33,16.25 -2.3075,0 -3.7375,-9.945 -3.7375,9.945 -2.3075,0 -5.33,-16.25 3.4125,0 z"
         style="font-style:normal;font-variant:normal;font-weight:normal;font-stretch:normal;font-size:32.5px;font-family:'DIN145_14H_08.87';-inkscape-font-specification:'DIN145_14H_08.87'"
         id="path4184"
         inkscape:connector-curvature="0" />
      <path
         d="m 175.62282,50.354521 q 2.5675,-0.975 5.525,-0.975 1.365,0 2.535,0.52 1.2025,0.52 2.08,1.3975 0.8775,0.8775 1.3975,2.08 0.52,1.17 0.52,2.5025 l 0,5.2 q 0,0.6825 0.455,1.17 0.4875,0.455 1.17,0.455 l 0,3.25 q -0.9425,0 -1.7875,-0.325 -0.845,-0.3575 -1.495,-0.9425 -0.65,0.585 -1.495,0.9425 -0.8125,0.325 -1.755,0.325 l -3.25,0 q -1.0075,0 -1.9175,-0.39 -0.8775,-0.39 -1.56,-1.04 -0.65,-0.65 -1.04,-1.5275 -0.39,-0.91 -0.39,-1.9175 0,-1.0075 0.39,-1.885 0.39,-0.91 1.04,-1.56 0.6825,-0.65 1.56,-1.04 0.91,-0.39 1.9175,-0.39 l 4.875,0 0,-0.325 q 0,-1.365 -0.9425,-2.3075 -0.9425,-0.9425 -2.3075,-0.9425 -2.3725,0 -4.42,0.78 l -1.105,-3.055 z m 7.15,12.35 q 0.6825,0 1.1375,-0.455 0.4875,-0.4875 0.4875,-1.17 l 0,-1.625 -4.875,0 q -0.6825,0 -1.17,0.4875 -0.4875,0.455 -0.4875,1.1375 0,0.65 0.4875,1.1375 0.4875,0.4875 1.17,0.4875 l 3.25,0 z"
         style="font-style:normal;font-variant:normal;font-weight:normal;font-stretch:normal;font-size:32.5px;font-family:'DIN145_14H_08.87';-inkscape-font-specification:'DIN145_14H_08.87'"
         id="path4186"
         inkscape:connector-curvature="0" />
      <path
         d="m 202.0245,49.704521 -6.045,18.2975 q -0.6825,2.0475 -2.3725,3.25 -1.6575,1.2025 -3.8025,1.2025 l -0.78,0 0,-3.25 0.78,0 q 1.0725,0 1.885,-0.6175 0.845,-0.585 1.2025,-1.625 l 0.9425,-2.8925 -4.745,-14.365 3.4125,0 3.055,9.1975 3.055,-9.1975 3.4125,0 z"
         style="font-style:normal;font-variant:normal;font-weight:normal;font-stretch:normal;font-size:32.5px;font-family:'DIN145_14H_08.87';-inkscape-font-specification:'DIN145_14H_08.87'"
         id="path4188"
         inkscape:connector-curvature="0" />
    </g>
    <g
       style="font-style:normal;font-weight:normal;font-size:27.64009857px;line-height:125%;font-family:sans-serif;letter-spacing:0px;word-spacing:0px;fill:#000000;fill-opacity:1;stroke:none;stroke-width:1px;stroke-linecap:butt;stroke-linejoin:miter;stroke-opacity:1"
       id="text4164-5">
      <path
         d="m 50.331348,96.963913 -2.245758,0 0,-15.720305 2.245758,0 0,15.720305 z"
         style="font-style:normal;font-variant:normal;font-weight:normal;font-stretch:normal;font-size:22.45757866px;font-family:'DIN145_14H_08.87';-inkscape-font-specification:'DIN145_14H_08.87'"
         id="path4191"
         inkscape:connector-curvature="0" />
      <path
         d="m 52.559561,96.963913 0,-11.228789 2.245758,0 0,0.381778 q 0.494067,-0.291948 1.055506,-0.449151 0.56144,-0.157203 1.190252,-0.157203 0.920761,0 1.729233,0.359321 0.830931,0.359321 1.437285,0.965676 0.606355,0.606355 0.965676,1.437285 0.359322,0.808473 0.359322,1.729234 l 0,6.961849 -2.245758,0 0,-6.961849 q 0,-0.943219 -0.65127,-1.594489 -0.65127,-0.651269 -1.594488,-0.651269 -0.920761,0 -1.572031,0.628812 -0.628812,0.628812 -0.673727,1.527115 l 0,7.05168 -2.245758,0 z"
         style="font-style:normal;font-variant:normal;font-weight:normal;font-stretch:normal;font-size:22.45757866px;font-family:'DIN145_14H_08.87';-inkscape-font-specification:'DIN145_14H_08.87'"
         id="path4193"
         inkscape:connector-curvature="0" />
      <path
         d="m 63.748348,81.243608 2.245757,0 0,4.491516 2.268216,0 0,2.245758 -2.268216,0 0,5.614394 q 0,0.449152 0.336864,0.786015 0.336864,0.336864 0.808473,0.336864 l 1.122879,0 0,2.245758 -1.122879,0 q -0.696185,0 -1.324997,-0.269491 -0.606355,-0.269491 -1.077964,-0.718642 -0.449152,-0.449152 -0.718642,-1.055507 -0.269491,-0.628812 -0.269491,-1.324997 l 0,-5.614394 -1.100422,0 0,-2.245758 1.100422,0 0,-4.491516 z"
         style="font-style:normal;font-variant:normal;font-weight:normal;font-stretch:normal;font-size:22.45757866px;font-family:'DIN145_14H_08.87';-inkscape-font-specification:'DIN145_14H_08.87'"
         id="path4195"
         inkscape:connector-curvature="0" />
      <path
         d="m 69.775576,92.696973 0,-2.694909 q 0,-0.920761 0.336863,-1.729234 0.359321,-0.83093 0.965676,-1.437285 0.606355,-0.606355 1.414828,-0.965676 0.83093,-0.359321 1.774148,-0.359321 0.920761,0 1.729234,0.359321 0.83093,0.359321 1.437285,0.965676 0.606354,0.606355 0.965676,1.437285 0.359321,0.808473 0.359321,1.729234 l 0,2.470333 -6.737274,0 0,0.224576 q 0,0.943218 0.65127,1.594488 0.65127,0.65127 1.594488,0.65127 1.639404,0 3.054231,-0.538982 l 0.763558,2.111012 q -1.796607,0.673728 -3.817789,0.673728 -0.943218,0 -1.774148,-0.359322 -0.808473,-0.359321 -1.414828,-0.965675 -0.606355,-0.606355 -0.965676,-1.414828 -0.336863,-0.83093 -0.336863,-1.751691 z m 6.737273,-2.694909 q 0,-0.943219 -0.65127,-1.594489 -0.651269,-0.651269 -1.594488,-0.651269 -0.943218,0 -1.594488,0.651269 -0.65127,0.65127 -0.65127,1.594489 l 0,0.224575 4.491516,0 0,-0.224575 z"
         style="font-style:normal;font-variant:normal;font-weight:normal;font-stretch:normal;font-size:22.45757866px;font-family:'DIN145_14H_08.87';-inkscape-font-specification:'DIN145_14H_08.87'"
         id="path4197"
         inkscape:connector-curvature="0" />
      <path
         d="m 87.157214,88.474948 q -0.314407,-0.336863 -0.741101,-0.516524 -0.404236,-0.202118 -0.898303,-0.202118 -0.92076,0 -1.57203,0.628812 -0.628812,0.628812 -0.673728,1.527115 l 0,7.05168 -2.245757,0 0,-11.228789 2.245757,0 0,0.381778 q 0.494067,-0.291948 1.055507,-0.449151 0.561439,-0.157203 1.190251,-0.157203 1.010591,0 1.863979,0.404236 0.853388,0.404237 1.482201,1.100422 l -1.706776,1.459742 z"
         style="font-style:normal;font-variant:normal;font-weight:normal;font-stretch:normal;font-size:22.45757866px;font-family:'DIN145_14H_08.87';-inkscape-font-specification:'DIN145_14H_08.87'"
         id="path4199"
         inkscape:connector-curvature="0" />
      <path
         d="m 91.114662,96.963913 0,-11.228789 2.245758,0 0,0.381778 q 0.494067,-0.291948 1.055506,-0.449151 0.56144,-0.157203 1.190252,-0.157203 0.920761,0 1.729233,0.359321 0.830931,0.359321 1.437285,0.965676 0.606355,0.606355 0.965676,1.437285 0.359318,0.808473 0.359318,1.729234 l 0,6.961849 -2.245754,0 0,-6.961849 q 0,-0.943219 -0.65127,-1.594489 -0.65127,-0.651269 -1.594488,-0.651269 -0.920761,0 -1.572031,0.628812 -0.628812,0.628812 -0.673727,1.527115 l 0,7.05168 -2.245758,0 z"
         style="font-style:normal;font-variant:normal;font-weight:normal;font-stretch:normal;font-size:22.45757866px;font-family:'DIN145_14H_08.87';-inkscape-font-specification:'DIN145_14H_08.87'"
         id="path4201"
         inkscape:connector-curvature="0" />
      <path
         d="m 102.34345,92.696973 0,-2.694909 q 0,-0.920761 0.33687,-1.729234 0.35932,-0.83093 0.96567,-1.437285 0.60636,-0.606355 1.41483,-0.965676 0.83093,-0.359321 1.77415,-0.359321 0.92076,0 1.72923,0.359321 0.83093,0.359321 1.43729,0.965676 0.60635,0.606355 0.96567,1.437285 0.35932,0.808473 0.35932,1.729234 l 0,2.470333 -6.73727,0 0,0.224576 q 0,0.943218 0.65127,1.594488 0.65127,0.65127 1.59449,0.65127 1.6394,0 3.05423,-0.538982 l 0.76356,2.111012 q -1.79661,0.673728 -3.81779,0.673728 -0.94322,0 -1.77415,-0.359322 -0.80847,-0.359321 -1.41483,-0.965675 -0.60635,-0.606355 -0.96567,-1.414828 -0.33687,-0.83093 -0.33687,-1.751691 z m 6.73728,-2.694909 q 0,-0.943219 -0.65127,-1.594489 -0.65127,-0.651269 -1.59449,-0.651269 -0.94322,0 -1.59449,0.651269 -0.65127,0.65127 -0.65127,1.594489 l 0,0.224575 4.49152,0 0,-0.224575 z"
         style="font-style:normal;font-variant:normal;font-weight:normal;font-stretch:normal;font-size:22.45757866px;font-family:'DIN145_14H_08.87';-inkscape-font-specification:'DIN145_14H_08.87'"
         id="path4203"
         inkscape:connector-curvature="0" />
      <path
         d="m 114.12438,81.243608 2.24576,0 0,4.491516 2.26821,0 0,2.245758 -2.26821,0 0,5.614394 q 0,0.449152 0.33686,0.786015 0.33687,0.336864 0.80848,0.336864 l 1.12287,0 0,2.245758 -1.12287,0 q -0.69619,0 -1.325,-0.269491 -0.60636,-0.269491 -1.07797,-0.718642 -0.44915,-0.449152 -0.71864,-1.055507 -0.26949,-0.628812 -0.26949,-1.324997 l 0,-5.614394 -1.10042,0 0,-2.245758 1.10042,0 0,-4.491516 z"
         style="font-style:normal;font-variant:normal;font-weight:normal;font-stretch:normal;font-size:22.45757866px;font-family:'DIN145_14H_08.87';-inkscape-font-specification:'DIN145_14H_08.87'"
         id="path4205"
         inkscape:connector-curvature="0" />
      <path
         d="m 120.89727,81.243608 2.24576,0 0,9.544471 3.90762,-5.052955 2.82966,0 -3.79534,4.940667 3.79534,6.288122 -2.62754,0 -2.65,-4.379228 -1.45974,1.908894 0,2.470334 -2.24576,0 0,-15.720305 z"
         style="font-style:normal;font-variant:normal;font-weight:normal;font-stretch:normal;font-size:22.45757866px;font-family:'DIN145_14H_08.87';-inkscape-font-specification:'DIN145_14H_08.87'"
         id="path4207"
         inkscape:connector-curvature="0" />
      <path
         d="m 141.10909,85.735124 0,11.228789 -2.24576,0 0,-0.381779 q -0.49407,0.291949 -1.05551,0.449152 -0.56144,0.157203 -1.19025,0.157203 -0.92076,0 -1.75169,-0.359322 -0.80847,-0.359321 -1.41483,-0.965675 -0.60635,-0.606355 -0.96567,-1.414828 -0.35932,-0.83093 -0.35932,-1.751691 l 0,-6.961849 2.24575,0 0,6.961849 q 0,0.943218 0.65127,1.594488 0.65127,0.65127 1.59449,0.65127 0.92076,0 1.54958,-0.628812 0.65127,-0.628813 0.69618,-1.527116 l 0,-7.051679 2.24576,0 z"
         style="font-style:normal;font-variant:normal;font-weight:normal;font-stretch:normal;font-size:22.45757866px;font-family:'DIN145_14H_08.87';-inkscape-font-specification:'DIN145_14H_08.87'"
         id="path4209"
         inkscape:connector-curvature="0" />
      <path
         d="m 149.48577,88.474948 q -0.31441,-0.336863 -0.7411,-0.516524 -0.40424,-0.202118 -0.89831,-0.202118 -0.92076,0 -1.57203,0.628812 -0.62881,0.628812 -0.67373,1.527115 l 0,7.05168 -2.24575,0 0,-11.228789 2.24575,0 0,0.381778 q 0.49407,-0.291948 1.05551,-0.449151 0.56144,-0.157203 1.19025,-0.157203 1.01059,0 1.86398,0.404236 0.85339,0.404237 1.4822,1.100422 l -1.70677,1.459742 z"
         style="font-style:normal;font-variant:normal;font-weight:normal;font-stretch:normal;font-size:22.45757866px;font-family:'DIN145_14H_08.87';-inkscape-font-specification:'DIN145_14H_08.87'"
         id="path4211"
         inkscape:connector-curvature="0" />
      <path
         d="m 161.28582,92.696973 q 0,0.920761 -0.35932,1.751691 -0.35932,0.808473 -0.96567,1.414828 -0.60636,0.606354 -1.43729,0.965675 -0.80847,0.359322 -1.72923,0.359322 -0.94322,0 -1.77415,-0.359322 -0.80847,-0.359321 -1.41483,-0.965675 -0.60635,-0.606355 -0.96567,-1.414828 -0.33687,-0.83093 -0.33687,-1.751691 l 0,-2.694909 q 0,-0.920761 0.33687,-1.729234 0.35932,-0.83093 0.96567,-1.437285 0.60636,-0.606355 1.41483,-0.965676 0.83093,-0.359321 1.77415,-0.359321 0.92076,0 1.72923,0.359321 0.83093,0.359321 1.43729,0.965676 0.60635,0.606355 0.96567,1.437285 0.35932,0.808473 0.35932,1.729234 l 0,2.694909 z m -4.49151,-4.940667 q -0.94322,0 -1.59449,0.651269 -0.65127,0.65127 -0.65127,1.594489 l 0,2.694909 q 0,0.943218 0.65127,1.594488 0.65127,0.65127 1.59449,0.65127 0.94322,0 1.59449,-0.65127 0.65127,-0.65127 0.65127,-1.594488 l 0,-2.694909 q 0,-0.943219 -0.65127,-1.594489 -0.65127,-0.651269 -1.59449,-0.651269 z"
         style="font-style:normal;font-variant:normal;font-weight:normal;font-stretch:normal;font-size:22.45757866px;font-family:'DIN145_14H_08.87';-inkscape-font-specification:'DIN145_14H_08.87'"
         id="path4213"
         inkscape:connector-curvature="0" />
      <path
         d="m 169.6625,88.474948 q -0.31441,-0.336863 -0.7411,-0.516524 -0.40424,-0.202118 -0.8983,-0.202118 -0.92076,0 -1.57203,0.628812 -0.62882,0.628812 -0.67373,1.527115 l 0,7.05168 -2.24576,0 0,-11.228789 2.24576,0 0,0.381778 q 0.49407,-0.291948 1.05551,-0.449151 0.56144,-0.157203 1.19025,-0.157203 1.01059,0 1.86398,0.404236 0.85338,0.404237 1.4822,1.100422 l -1.70678,1.459742 z"
         style="font-style:normal;font-variant:normal;font-weight:normal;font-stretch:normal;font-size:22.45757866px;font-family:'DIN145_14H_08.87';-inkscape-font-specification:'DIN145_14H_08.87'"
         id="path4215"
         inkscape:connector-curvature="0" />
      <path
         d="m 174.17209,81.243608 2.24576,0 0,4.491516 2.26821,0 0,2.245758 -2.26821,0 0,5.614394 q 0,0.449152 0.33686,0.786015 0.33686,0.336864 0.80847,0.336864 l 1.12288,0 0,2.245758 -1.12288,0 q -0.69618,0 -1.32499,-0.269491 -0.60636,-0.269491 -1.07797,-0.718642 -0.44915,-0.449152 -0.71864,-1.055507 -0.26949,-0.628812 -0.26949,-1.324997 l 0,-5.614394 -1.10042,0 0,-2.245758 1.10042,0 0,-4.491516 z"
         style="font-style:normal;font-variant:normal;font-weight:normal;font-stretch:normal;font-size:22.45757866px;font-family:'DIN145_14H_08.87';-inkscape-font-specification:'DIN145_14H_08.87'"
         id="path4217"
         inkscape:connector-curvature="0" />
    </g>
  </g>
  <g
     inkscape:label="bleeding - hide before export for printing"
     inkscape:groupmode="layer"
     id="layer1"
     transform="translate(0,-896.45669)"
     sodipodi:insensitive="true">
    <rect
       style="fill:none;stroke:#ff00ff;stroke-width:0.492208;stroke-linecap:round;stroke-linejoin:round;stroke-miterlimit:4;stroke-dasharray:none"
       id="rect4136"
       width="212.10622"
       height="141.24008"
       x="7.3327179"
       y="903.78949" />
  </g>
</svg>
