<?xml version="1.0" encoding="UTF-8" standalone="no"?>
<!-- Created with Inkscape (http://www.inkscape.org/) -->

<svg
   width="625.49988"
   height="305.07031"
   id="svg2525"
   sodipodi:version="0.32"
   inkscape:version="1.1.1 (3bf5ae0d25, 2021-09-20)"
   version="1.0"
   sodipodi:docname="brokencom.svg"
   xmlns:inkscape="http://www.inkscape.org/namespaces/inkscape"
   xmlns:sodipodi="http://sodipodi.sourceforge.net/DTD/sodipodi-0.dtd"
   xmlns="http://www.w3.org/2000/svg"
   xmlns:svg="http://www.w3.org/2000/svg"
   xmlns:rdf="http://www.w3.org/1999/02/22-rdf-syntax-ns#"
   xmlns:cc="http://creativecommons.org/ns#"
   xmlns:dc="http://purl.org/dc/elements/1.1/">
  <defs
     id="defs2527" />
  <sodipodi:namedview
     id="base"
     pagecolor="#ffffff"
     bordercolor="#666666"
     borderopacity="1.0"
     inkscape:pageopacity="0.0"
     inkscape:pageshadow="2"
     inkscape:zoom="1.2129429"
     inkscape:cx="239.91237"
     inkscape:cy="371.41072"
     inkscape:document-units="px"
     inkscape:current-layer="text4609"
     inkscape:window-width="2560"
     inkscape:window-height="1376"
     inkscape:window-x="0"
     inkscape:window-y="0"
     inkscape:pagecheckerboard="0"
     showgrid="false"
     inkscape:window-maximized="1" />
  <metadata
     id="metadata2530">
    <rdf:RDF>
      <cc:Work
         rdf:about="">
        <dc:format>image/svg+xml</dc:format>
        <dc:type
           rdf:resource="http://purl.org/dc/dcmitype/StillImage" />
      </cc:Work>
    </rdf:RDF>
  </metadata>
  <g
     inkscape:label="Ebene 1"
     inkscape:groupmode="layer"
     id="layer1"
     transform="translate(-86.95071,-318.7988)">
    <path
       id="path2085"
       class="ps01"
       d="M 712.22426,585.62456 L 670.41159,585.62456 C 652.81546,585.71167 630.77667,561.49518 601.50784,561.75652 C 558.73694,562.19208 537.13376,603.65629 496.19216,603.13362 C 468.31706,602.87229 467.88151,585.189 457.51547,567.59287 L 430.94701,567.59287 C 438.61267,585.189 449.41426,623.43017 495.7566,623.86573 C 542.53455,624.30129 556.12368,582.92419 601.07228,582.92419 C 627.20518,582.92419 646.97911,605.83404 670.84715,605.83404 L 712.22426,605.83404 L 712.22426,585.62456"
       style="fill:#e21736;fill-rule:nonzero;stroke:none" />
    <path
       id="path2095"
       class="ps01"
       d="M 86.950707,585.62456 L 119.35553,585.62456 C 136.95171,585.71167 158.99045,561.49518 188.25933,561.75652 C 230.94307,562.19208 252.63341,603.65629 293.57496,603.13362 C 321.45006,602.87229 321.88562,585.189 332.2517,567.59287 L 358.82016,567.59287 C 351.1545,585.189 340.35291,623.43017 294.01052,623.86573 C 247.23262,624.30129 233.73061,582.92419 188.69489,582.92419 C 162.56194,582.92419 142.78806,605.83404 118.91997,605.83404 L 86.950707,605.83404 L 86.950707,585.62456"
       style="fill:#e21736;fill-rule:nonzero;stroke:none" />
    <path
       id="path2105"
       class="ps01 ps10"
       d="M 435.21535,469.33312 L 409.95356,469.246 L 399.23904,356.78734 C 398.6293,351.0381 395.66755,351.47366 395.66755,351.47366 C 395.66755,351.47366 392.70584,351.0381 392.09605,356.78734 L 381.20735,469.246 L 356.03263,469.246 L 370.84127,346.94394 C 375.02255,317.58799 395.66755,318.80751 395.66755,318.80751 C 395.66755,318.80751 416.22543,317.50087 420.49382,346.94394 L 435.21535,469.33312"
       style="fill:#e21736;fill-rule:nonzero;stroke:none;stroke-width:0.22400001;stroke-linecap:butt;stroke-linejoin:miter;stroke-miterlimit:4;stroke-dasharray:none" />
    <g
       id="g2571">
      <g
         aria-label="BROKENCOM"
         transform="scale(0.95240552,1.0499729)"
         id="text4609"
         style="font-size:85.7659px;line-height:1.25;stroke-width:1.03749">
        <path
           d="m 139.87463,499.27297 q 5.31749,0 7.8047,0.85765 2.48721,0.7719 2.48721,3.60217 0,0.0858 -0.0858,0.60036 -0.0858,0.34307 -0.0858,0.68613 -0.5146,3.17334 -3.00181,4.45983 -2.48721,1.20072 -6.68974,1.20072 h -8.83389 l 1.97262,-11.40686 z m 4.45983,-21.52725 q 3.7737,0 5.66055,0.60037 1.88685,0.60036 1.88685,3.08757 0,0.0858 -0.0858,0.51459 -0.0858,0.42883 -0.0858,0.68613 -0.42883,2.57298 -2.57297,4.031 -2.14415,1.37225 -5.31749,1.37225 h -8.40506 l 1.80109,-10.29191 z m -5.57479,47.34278 q 12.77912,0 20.41229,-4.37406 7.71893,-4.37406 9.43425,-14.23714 0.34306,-1.62955 0.34306,-3.08757 0,-4.11676 -2.14415,-7.03281 -2.05838,-3.0018 -6.00361,-4.03099 3.85946,-2.14415 6.77551,-5.57479 2.91604,-3.5164 3.68793,-7.89046 0.2573,-1.62955 0.2573,-3.08757 0,-3.5164 -1.71532,-5.91785 -1.62955,-2.48721 -4.71713,-3.85946 -3.0018,-1.45802 -7.0328,-2.05839 -4.031,-0.60036 -9.00542,-0.60036 h -29.50347 l -10.89227,61.75145 z"
           style="font-family:SoftMicro;-inkscape-font-specification:SoftMicro"
           id="path13" />
        <path
           d="m 202.99832,477.74572 h 9.43425 q 3.34487,0 5.23172,1.28649 1.97262,1.28649 1.97262,3.85947 0,0.0858 -0.0858,0.60036 -0.0858,0.42883 -0.0858,0.68613 -0.5146,3.08757 -3.17334,4.45982 -2.57298,1.37226 -7.46164,1.37226 h -7.97622 z m 1.62955,25.81554 q 5.40326,0 7.46164,1.37225 2.05838,1.28649 2.05838,4.5456 0,1.80108 -0.60036,4.80289 -0.94343,5.66055 -0.94343,9.09118 0,0.42883 0.0858,1.11496 0,0.42883 0,0.60036 h 20.49805 l 0.34306,-1.88685 q -1.54378,0 -1.54378,-2.05838 0,-1.28649 0.94342,-6.60397 0.17153,-0.94343 0.34307,-2.14415 0.68612,-3.60217 0.68612,-6.17515 0,-4.71712 -1.88685,-6.60397 -1.88685,-1.88685 -6.34667,-3.60217 5.40325,-1.45802 8.66235,-5.48902 3.34487,-4.03099 4.37406,-9.60578 0.42883,-2.40144 0.42883,-4.28829 0,-6.94704 -5.74631,-10.12038 -5.66055,-3.17334 -18.95427,-3.17334 h -29.1604 l -10.89227,61.75145 h 20.24075 l 3.7737,-21.52724 z"
           style="font-family:SoftMicro;-inkscape-font-specification:SoftMicro"
           id="path15" />
        <path
           d="m 279.93033,476.8023 q 5.14595,0 7.46163,3.34487 2.40144,3.34487 2.40144,8.66236 0,2.48721 -0.51459,5.06018 -1.45802,8.14776 -5.23172,12.95065 -3.7737,4.80289 -10.03461,4.80289 -5.14596,0 -7.37587,-3.2591 -2.14415,-3.34487 -2.14415,-8.66236 0,-2.7445 0.5146,-5.83208 0.60036,-3.17333 1.71532,-6.08938 1.11495,-3.0018 2.91604,-5.48901 1.80108,-2.48721 4.37406,-3.94523 2.65874,-1.54379 5.91785,-1.54379 z m 2.83027,-15.0948 q -7.11857,0 -13.46525,2.22991 -6.34667,2.22992 -11.40686,6.51821 -5.06019,4.20253 -8.49082,10.12038 -3.34488,5.91785 -4.5456,13.12218 -0.77189,4.031 -0.77189,7.8047 0,12.00722 7.20433,18.6112 7.29011,6.60397 20.06923,6.60397 6.86127,0 13.12218,-2.14414 6.34667,-2.22992 11.49263,-6.43245 5.14595,-4.28829 8.66235,-10.46344 3.51641,-6.17514 4.88866,-13.80831 0.60036,-3.34487 0.60036,-6.5182 0,-5.31749 -1.62955,-9.94885 -1.62955,-4.63136 -4.97442,-8.14776 -3.34487,-3.5164 -8.57659,-5.48902 -5.23172,-2.05838 -12.17876,-2.05838 z"
           style="font-family:SoftMicro;-inkscape-font-specification:SoftMicro"
           id="path17" />
        <path
           d="m 313.8077,525.0885 h 20.24075 l 3.43064,-19.55462 5.74632,-5.06019 10.46344,24.61481 h 24.27174 l -18.18237,-38.50889 26.6732,-23.24256 h -23.75716 l -21.26994,19.98346 3.5164,-19.98346 h -20.24075 z"
           style="font-family:SoftMicro;-inkscape-font-specification:SoftMicro"
           id="path19" />
        <path
           d="m 436.88161,525.0885 2.57298,-14.40867 h -31.30455 l 1.71532,-9.69155 h 25.47247 l 2.48721,-14.40867 h -25.47247 l 1.54378,-8.83389 h 30.10383 l 2.57298,-14.40867 h -50.34458 l -10.89227,61.75145 z"
           style="font-family:SoftMicro;-inkscape-font-specification:SoftMicro"
           id="path21" />
        <path
           d="M 476.50533,463.33705 H 457.55107 L 446.6588,525.0885 h 19.38309 l 3.43064,-19.55462 1.71532,-14.06561 16.12399,33.62023 h 18.95426 l 10.89227,-61.75145 h -19.3831 l -3.43063,19.64039 -1.71532,14.06561 z"
           style="font-family:SoftMicro;-inkscape-font-specification:SoftMicro"
           id="path23" />
        <path
           d="m 582.68336,486.92268 q 0,-0.5146 0,-1.37226 0.0858,-0.94342 0.0858,-1.28649 0,-10.8065 -6.77551,-16.63858 -6.7755,-5.91785 -19.98345,-5.91785 -6.43245,0 -12.43606,2.22991 -6.00361,2.22992 -10.97803,6.51821 -4.97443,4.2883 -8.40506,10.29191 -3.34487,6.00361 -4.63136,13.37948 -0.68613,3.94523 -0.68613,7.5474 0,11.74993 7.20434,18.43967 7.2901,6.60397 20.49805,6.60397 12.26452,0 21.35571,-6.7755 9.17695,-6.86127 12.60758,-18.78274 h -19.46886 q -1.45802,4.8029 -4.54559,7.63317 -3.0018,2.83027 -7.63316,2.83027 -5.40325,0 -7.63317,-2.7445 -2.22991,-2.83028 -2.22991,-7.63317 0,-2.74451 0.60036,-6.43244 1.54379,-8.83389 5.31749,-13.37948 3.85946,-4.63136 9.26271,-4.63136 4.45983,0 6.86127,2.31568 2.40145,2.31568 2.40145,6.51821 v 0.60036 q 0,0.34306 0,0.68613 z"
           style="font-family:SoftMicro;-inkscape-font-specification:SoftMicro"
           id="path25" />
        <path
           d="m 622.90756,476.8023 q 5.14595,0 7.46163,3.34487 2.40145,3.34487 2.40145,8.66236 0,2.48721 -0.5146,5.06018 -1.45802,8.14776 -5.23172,12.95065 -3.7737,4.80289 -10.03461,4.80289 -5.14595,0 -7.37587,-3.2591 -2.14414,-3.34487 -2.14414,-8.66236 0,-2.7445 0.51459,-5.83208 0.60036,-3.17333 1.71532,-6.08938 1.11496,-3.0018 2.91604,-5.48901 1.80109,-2.48721 4.37406,-3.94523 2.65875,-1.54379 5.91785,-1.54379 z m 2.83027,-15.0948 q -7.11857,0 -13.46524,2.22991 -6.34668,2.22992 -11.40687,6.51821 -5.06019,4.20253 -8.49082,10.12038 -3.34487,5.91785 -4.54559,13.12218 -0.7719,4.031 -0.7719,7.8047 0,12.00722 7.20434,18.6112 7.2901,6.60397 20.06922,6.60397 6.86127,0 13.12218,-2.14414 6.34668,-2.22992 11.49263,-6.43245 5.14596,-4.28829 8.66236,-10.46344 3.5164,-6.17514 4.88865,-13.80831 0.60037,-3.34487 0.60037,-6.5182 0,-5.31749 -1.62956,-9.94885 -1.62955,-4.63136 -4.97442,-8.14776 -3.34487,-3.5164 -8.57659,-5.48902 -5.23172,-2.05838 -12.17876,-2.05838 z"
           style="font-family:SoftMicro;-inkscape-font-specification:SoftMicro"
           id="path27" />
        <path
           d="m 673.68085,525.0885 3.68793,-20.92688 1.28649,-9.60578 0.77189,-9.09118 h 0.17154 l 4.20252,39.62384 h 14.06561 l 18.26814,-39.62384 h 0.17153 l -3.00181,11.14956 -1.97261,9.60578 -3.34487,18.8685 h 18.18237 l 10.89227,-61.75145 h -24.44328 l -17.66778,38.50889 -4.11676,-38.50889 h -24.44328 l -10.89227,61.75145 z"
           style="font-family:SoftMicro;-inkscape-font-specification:SoftMicro"
           id="path29" />
      </g>
    </g>
  </g>
</svg>
