<?xml version="1.0" encoding="UTF-8" standalone="no"?>
<!-- Created with Inkscape (http://www.inkscape.org/) -->

<svg
   xmlns:dc="http://purl.org/dc/elements/1.1/"
   xmlns:cc="http://creativecommons.org/ns#"
   xmlns:rdf="http://www.w3.org/1999/02/22-rdf-syntax-ns#"
   xmlns:svg="http://www.w3.org/2000/svg"
   xmlns="http://www.w3.org/2000/svg"
   xmlns:sodipodi="http://sodipodi.sourceforge.net/DTD/sodipodi-0.dtd"
   xmlns:inkscape="http://www.inkscape.org/namespaces/inkscape"
   width="466.42627"
   height="231.73177"
   id="svg3120"
   version="1.1"
   inkscape:version="0.47pre4 r22446"
   sodipodi:docname="lgpl.svg">
  <defs
     id="defs3122">
    <inkscape:perspective
       sodipodi:type="inkscape:persp3d"
       inkscape:vp_x="0 : 526.18109 : 1"
       inkscape:vp_y="0 : 1000 : 0"
       inkscape:vp_z="744.09448 : 526.18109 : 1"
       inkscape:persp3d-origin="372.04724 : 350.78739 : 1"
       id="perspective3128" />
    <inkscape:perspective
       id="perspective3080"
       inkscape:persp3d-origin="0.5 : 0.33333333 : 1"
       inkscape:vp_z="1 : 0.5 : 1"
       inkscape:vp_y="0 : 1000 : 0"
       inkscape:vp_x="0 : 0.5 : 1"
       sodipodi:type="inkscape:persp3d" />
    <inkscape:perspective
       id="perspective3238"
       inkscape:persp3d-origin="0.5 : 0.33333333 : 1"
       inkscape:vp_z="1 : 0.5 : 1"
       inkscape:vp_y="0 : 1000 : 0"
       inkscape:vp_x="0 : 0.5 : 1"
       sodipodi:type="inkscape:persp3d" />
    <inkscape:perspective
       id="perspective3425"
       inkscape:persp3d-origin="0.5 : 0.33333333 : 1"
       inkscape:vp_z="1 : 0.5 : 1"
       inkscape:vp_y="0 : 1000 : 0"
       inkscape:vp_x="0 : 0.5 : 1"
       sodipodi:type="inkscape:persp3d" />
  </defs>
  <sodipodi:namedview
     id="base"
     pagecolor="#ffffff"
     bordercolor="#666666"
     borderopacity="1.0"
     inkscape:pageopacity="0.0"
     inkscape:pageshadow="2"
     inkscape:zoom="0.35"
     inkscape:cx="8.7422466"
     inkscape:cy="-0.55222632"
     inkscape:document-units="px"
     inkscape:current-layer="layer1"
     showgrid="false"
     inkscape:window-width="607"
     inkscape:window-height="489"
     inkscape:window-x="12"
     inkscape:window-y="179"
     inkscape:window-maximized="0" />
  <metadata
     id="metadata3125">
    <rdf:RDF>
      <cc:Work
         rdf:about="">
        <dc:format>image/svg+xml</dc:format>
        <dc:type
           rdf:resource="http://purl.org/dc/dcmitype/StillImage" />
        <dc:title></dc:title>
      </cc:Work>
    </rdf:RDF>
  </metadata>
  <g
     inkscape:label="Layer 1"
     inkscape:groupmode="layer"
     id="layer1"
     transform="translate(-366.25775,-300.07819)">
    <g
       transform="matrix(1.7506768,0,0,1.7506768,335.20039,242.26165)"
       id="g3378">
      <g
         id="g68"
         transform="matrix(0.631723,0,0,0.631723,143.848,113.185)"
         style="fill:#000000;fill-opacity:0.94117599;fill-rule:evenodd;stroke:none">
        <path
           id="path70"
           d="M 3.86,0 C 3.86,0 3.85,0 3.85,0 2.91,0 2.08,0.31 1.3,0.94 0.72,1.4 0.32,2.02 0,2.71 c 0,0 0.04,0 0.04,0 C 0.36,2.02 0.76,1.4 1.33,0.94 2.11,0.31 2.94,0.01 3.86,0 z"
           style="fill:#000000;fill-opacity:0.94117599" />
      </g>
      <path
         d="m 47.554121,37.075609 c 7e-6,-4e-6 -21.97209,95.863871 -21.97209,95.863871 0.0063,0 0.0071,0 0.01974,0 0,0 101.648079,0 101.648079,0 0,0 52.86726,0 52.86726,0 -6.29827,-0.54959 -11.27071,-2.76063 -14.23349,-6.79101 -0.54959,-0.74544 -1.00365,-1.54851 -1.40164,-2.38871 -0.25268,-0.61908 -0.49037,-1.2437 -0.73043,-1.87542 -0.63173,-2.00888 -0.88362,-4.23807 -0.76991,-6.61334 0.31587,-6.62046 3.42236,-14.49551 8.80464,-22.742009 5.71708,-8.763892 14.00291,-17.949286 24.26208,-26.473114 2.29946,-1.909069 4.67711,-3.794284 7.1661,-5.626281 3.07648,-2.263454 6.17667,-4.347988 9.27843,-6.297485 11.42785,-7.194686 22.82728,-12.229037 32.92852,-14.78625 -9.65271,3.149136 -20.49702,8.495247 -31.21103,15.77332 -0.38534,0.260269 -0.76596,0.526855 -1.145,0.789651 -5.94451,4.118833 -11.32994,8.493196 -16.02995,12.910825 -15.12344,14.220082 -23.11709,28.954997 -19.48469,37.587483 0.25901,0.59382 0.56776,1.16079 0.92784,1.69776 3.90404,5.74235 13.57967,6.73494 25.8414,3.65214 0.83387,-0.20848 1.66774,-0.44457 2.52688,-0.69094 3.91668,-1.1308 8.075,-2.65798 12.35807,-4.54051 1.0297,-0.45484 2.07048,-0.92232 3.11913,-1.42138 0.10739,-0.0505 0.20847,-0.10107 0.31586,-0.15793 13.51886,-6.7171 23.90833,-14.446066 26.15726,-19.089859 0.49275,-1.010113 0.61119,-1.871322 0.27638,-2.546629 -1.60457,-3.253366 -12.83265,-1.05545 -26.43364,4.836623 -1.09288,0.473786 -2.19839,0.961323 -3.31654,1.480598 0.90968,-0.844604 1.85648,-1.692381 2.82301,-2.52689 1.5414,-1.327882 3.13729,-2.626383 4.83662,-3.908776 2.65956,-2.013939 5.34833,-3.83456 7.99524,-5.448606 12.39439,-9.350747 18.66029,-18.196137 17.35263,-21.478561 -0.24638,-0.618463 -0.77071,-1.043925 -1.57931,-1.302931 -2.58376,-0.821862 -7.29955,0.159036 -13.02927,2.507149 -4.72528,1.938133 -10.15257,4.812619 -15.65487,8.390066 0,0 -0.75017,0.493532 -0.75017,0.493532 0,0 -0.13819,0.07896 -0.13819,0.07896 0,8e-6 -2.64534,1.756979 -2.64534,1.756979 -1e-5,-4e-6 1.52008,-2.783526 1.52008,-2.783526 2.25526,-4.128311 5.92872,-8.435703 10.50238,-12.437032 3.35445,-2.925509 7.18664,-5.682028 11.31179,-8.093945 1.56035,-0.913463 3.11833,-1.761873 4.67869,-2.526887 1.59826,-0.780811 3.1973,-1.47476 4.75766,-2.092582 4.53329,-1.792802 8.86067,-2.882135 12.63444,-3.178354 -0.34367,-4e-6 -10.60109,0 -10.60109,0 1e-5,-4e-6 -35.73179,0 -35.73179,0 0,-4e-6 -157.555515,0 -157.555515,0 0,-4e-6 -12.496256,0 -12.496256,0 z m 113.354679,0.13819 c -0.61907,9.448672 1.21291,23.288134 5.36965,38.653511 0.73911,2.734098 1.54376,5.516516 2.42818,8.330842 0.5496,1.73786 1.11657,3.448575 1.69775,5.132743 -0.34112,0.501592 -0.68463,1.000018 -1.00681,1.50034 -5.18643,7.948324 -8.21792,15.459825 -8.9823,21.991835 -2.19208,-7.34062 -3.84245,-15.381014 -4.7774,-23.906743 -0.26532,-2.442873 -0.473,-4.858414 -0.61198,-7.245062 -1.0234,-17.336354 1.23975,-33.051717 5.88291,-44.457466 z M 57.405045,49.512646 c 0.118304,-0.0028 0.234926,0 0.355341,0 0,-7e-6 23.353986,0 23.353986,0 1.996246,-7e-6 3.540015,0.374135 4.63921,1.125254 1.092875,0.755545 1.502715,1.732816 1.243702,2.921715 7e-6,8e-6 -2.783526,12.575223 -2.783526,12.575223 0,1.1e-5 -8.232128,0 -8.232128,0 7e-6,1.1e-5 2.704561,-12.23962 2.704561,-12.23962 -8e-6,0 -20.60994,0 -20.60994,0 -8e-6,0 -7.442482,33.639218 -7.442482,33.639218 7e-6,0 -2.684819,12.180399 -2.684819,12.180399 0,1.1e-5 20.590201,0 20.590201,0 0,1.1e-5 0.01974,-0.07897 0.01974,-0.07897 0,7e-6 4.125934,-18.635811 4.125934,-18.635811 0,-8e-6 -9.673247,0 -9.673247,0 0,-8e-6 0.927841,-4.204902 0.927841,-4.204902 -4e-6,-7e-6 17.905382,0 17.905382,0 0,-7e-6 -5.132745,23.255288 -5.132745,23.255288 -0.06949,0.33101 -0.191093,0.63093 -0.355345,0.92783 -0.423251,0.77071 -1.161577,1.43086 -2.191284,1.97414 -1.427685,0.75176 -3.136504,1.12525 -5.132746,1.12525 0,1e-5 -23.334243,0 -23.334243,0 -1.99625,1e-5 -3.540016,-0.3735 -4.639211,-1.12525 -1.092871,-0.75174 -1.509027,-1.71181 -1.243701,-2.90197 3e-6,-10e-6 10.285225,-46.490827 10.285225,-46.490827 0.265319,-1.188895 1.092886,-2.166178 2.526891,-2.921715 0.05054,-0.02716 0.107394,-0.03332 0.157928,-0.05922 1.308855,-0.655609 2.844927,-1.02412 4.619473,-1.066031 z m 36.600415,0 c -7e-6,-7e-6 29.39483,0 29.39483,0 1.97098,-7e-6 3.52027,0.374135 4.61947,1.125254 1.10552,0.755545 1.52877,1.732816 1.26344,2.921715 1e-5,8e-6 -5.48808,24.795106 -5.48808,24.795106 -0.259,1.181311 -1.10631,2.145168 -2.54663,2.901973 -1.44033,0.759325 -3.13572,1.144996 -5.11301,1.144996 0,0 -21.360107,0 -21.360107,0 0,0 -4.125938,18.61607 -4.125938,18.61607 0,1e-5 -0.671205,3.0599 -0.671205,3.0599 3e-6,1e-5 -8.054462,0 -8.054462,0 0,1e-5 0.611979,-2.76378 0.611979,-2.76378 0,1e-5 11.469713,-51.801234 11.469713,-51.801234 z m 40.6079,0 c 0,-7e-6 8.05446,0 8.05446,0 1e-5,-7e-6 -9.12049,41.20014 -9.12049,41.20014 1e-5,8e-6 -1.99387,9.002049 -1.99387,9.002049 0,1.1e-5 19.26753,0 19.26753,0 0.20216,1.477605 0.43826,2.928815 0.69095,4.362825 -1e-5,1e-5 -28.98027,0 -28.98027,0 10e-6,1e-5 2.28999,-10.344451 2.28999,-10.344451 1e-5,0 9.7917,-44.220563 9.7917,-44.220563 z m -33.52077,4.382572 c 1e-5,0 -5.349897,24.123896 -5.349897,24.123896 0,-7e-6 20.076927,0 20.076927,0 0,-7e-6 5.33016,-24.123896 5.33016,-24.123896 0,0 -20.05719,0 -20.05719,0 z M 84.213758,107.868 c 0.07879,-0.003 0.157536,0 0.236901,0 0.934949,1e-5 1.751447,0.16425 2.408438,0.47379 0.701214,0.32849 1.202643,0.8165 1.480602,1.46086 0.271642,0.62541 0.342708,1.3353 0.197409,2.11232 0,1e-5 -0.05922,0.29612 -0.05922,0.29612 4e-6,-1e-5 -2.309736,0 -2.309736,0 -7e-6,-1e-5 0.01974,-0.27638 0.01974,-0.27638 0.05971,-0.54289 -0.0076,-0.9698 -0.217158,-1.26344 -0.02731,-0.0368 -0.06688,-0.0854 -0.09871,-0.11845 -0.05212,-0.0532 -0.130396,-0.11403 -0.197409,-0.15793 -0.323185,-0.20357 -0.828738,-0.31586 -1.480602,-0.31586 -0.865458,0 -1.512184,0.15082 -1.954388,0.45405 -0.429574,0.29691 -0.701213,0.62857 -0.789654,1.02655 -0.08845,0.4043 0.05685,0.61671 0.157933,0.73043 0.0031,0.003 0.0159,0.0162 0.01973,0.0197 0.128003,0.10908 0.5725,0.36481 1.954391,0.69094 1.250804,0.30323 2.07916,0.57566 2.546633,0.8094 0.707537,0.36007 1.201854,0.82676 1.460864,1.40163 0.258994,0.56856 0.315857,1.23423 0.157928,1.95439 -0.157928,0.70121 -0.515644,1.34794 -1.046292,1.9544 -0.524325,0.60645 -1.191585,1.08656 -1.993876,1.42137 -0.795977,0.32849 -1.669323,0.51327 -2.566371,0.51327 -1.1371,0 -2.049934,-0.17214 -2.763783,-0.51327 -0.745436,-0.35376 -1.28319,-0.91205 -1.599047,-1.63853 -0.303228,-0.70753 -0.367981,-1.51061 -0.197416,-2.3887 0,-1e-5 0.05923,-0.27638 0.05923,-0.27638 0,0 2.270252,0 2.270252,0 0,0 -0.01974,0.27638 -0.01974,0.27638 -0.05686,0.52433 -7.89e-4,0.94758 0.13819,1.26344 0.13266,0.30324 0.385353,0.55434 0.789651,0.75018 0.429567,0.20846 0.966532,0.31585 1.579304,0.31585 0.549601,0 1.051824,-0.0924 1.500344,-0.25663 0.442204,-0.15793 0.7936,-0.3664 1.046289,-0.63172 0.246366,-0.26534 0.39088,-0.54565 0.454051,-0.84888 0.06317,-0.27164 0.04817,-0.50143 -0.05923,-0.69095 -0.120026,-0.20214 -0.357712,-0.3814 -0.730424,-0.53301 0,-1e-5 -1.934657,-0.5725 -1.934657,-0.5725 -1.080242,-0.27164 -1.80751,-0.53065 -2.230764,-0.78965 -0.574875,-0.34113 -0.989438,-0.7786 -1.204225,-1.30293 -0.214784,-0.51802 -0.237682,-1.09209 -0.0987,-1.7175 0.145296,-0.66962 0.468262,-1.30687 0.967321,-1.87542 0.505386,-0.57488 1.157632,-1.02576 1.934653,-1.32267 0.686999,-0.25762 1.409969,-0.4087 2.171542,-0.43431 z m 20.728392,0.0395 c 0.12494,-0.01 0.24242,0 0.37509,0 0,0 1.42137,0.15793 1.42137,0.15793 0,0 0.47379,0.0395 0.47379,0.0395 1e-5,0 -0.69094,1.75697 -0.69094,1.75697 -1e-5,10e-6 -0.13819,0.27638 -0.13819,0.27638 0,-10e-6 -1.08577,-0.0987 -1.08577,-0.0987 -0.3206,0 -0.55611,0.0495 -0.71069,0.15793 -0.0103,0.008 -0.03,0.0312 -0.0395,0.0395 -0.0207,0.0182 -0.0555,0.0499 -0.079,0.079 -0.0951,0.12466 -0.21084,0.34744 -0.29612,0.75017 -1e-5,0 -0.0411,0.17056 -0.079,0.31586 0.49906,0 1.69775,0 1.69775,0 0,0 -0.43431,1.95438 -0.43431,1.95438 0,0 -1.24133,0 -1.65827,0 -0.12635,0.56855 -1.67801,7.52145 -1.67801,7.52145 -10e-6,-1e-5 -2.289996,0 -2.289996,0 -7e-6,-1e-5 1.488496,-6.68125 1.678016,-7.52145 -0.38536,0 -1.32267,0 -1.32267,0 0,0 0.43431,-1.95438 0.43431,-1.95438 0,0 0.94284,0 1.30292,0 0.0632,-0.27164 0.15793,-0.61199 0.15793,-0.61199 0.13898,-0.63172 0.28428,-1.08577 0.47379,-1.40163 0.25902,-0.43588 0.62462,-0.80071 1.08578,-1.06603 0.37983,-0.22071 0.86021,-0.35266 1.40163,-0.39483 z m 5.46835,0.0987 c -1e-5,0 -0.59856,2.69351 -0.75017,3.37577 0.4422,0 1.4806,0 1.4806,0 0,0 -0.43431,1.95438 -0.43431,1.95438 -1e-5,0 -1.08893,0 -1.4806,0 -0.12003,0.54328 -1.06603,4.75767 -1.06603,4.75767 1e-5,-1e-5 -0.079,0.50616 -0.079,0.65146 1e-4,0.005 -3.9e-4,0.0162 0,0.0197 3.1e-4,0.001 -4.4e-4,0.0185 0,0.0197 6.1e-4,0.001 0.019,-7.9e-4 0.0197,0 0,-1e-5 0.2369,0.0197 0.2369,0.0197 0,0 1.08577,-0.079 1.08577,-0.079 0,0 -0.11845,1.75697 -0.11845,1.75697 10e-6,0 0.0198,0.31586 0.0198,0.31586 -10e-6,0 -1.55957,0.17768 -1.55957,0.17768 -0.61908,-1e-5 -1.07314,-0.10107 -1.40163,-0.31586 -0.34744,-0.22743 -0.5496,-0.52907 -0.63173,-0.9081 -0.0126,-0.0695 -0.0395,-0.17057 -0.0395,-0.31586 0,-0.28428 0.0537,-0.76518 0.2369,-1.59905 0,1e-5 0.82992,-3.71769 1.00681,-4.50103 -0.2969,0 -1.08578,0 -1.08578,0 10e-6,0 0.43431,-1.95438 0.43431,-1.95438 -1e-5,0 0.76991,0 1.08577,0 0.10107,-0.45484 0.45405,-2.01362 0.45405,-2.01362 0,1e-5 1.83595,-0.96733 1.83595,-0.96733 0,1e-5 0.75017,-0.39482 0.75017,-0.39482 z m -72.74678,0.079 c 7e-6,0 8.883596,0 8.883596,0 0,0 -0.493531,2.21103 -0.493531,2.21103 0,1e-5 -5.926346,0 -6.494896,0 -0.10107,0.44853 -0.506168,2.26473 -0.651464,2.92172 0.821244,0 5.626278,0 5.626278,0 0,0 -0.493536,2.21102 -0.493536,2.21102 -3e-6,0 -5.057723,0 -5.626277,0 -0.120026,0.5496 -1.204221,5.42887 -1.204221,5.42887 7e-6,-10e-6 -2.388697,0 -2.388697,0 4e-6,-10e-6 2.842748,-12.77264 2.842748,-12.77264 z m 11.904014,3.11914 c 0.08916,-0.011 0.186558,0 0.276381,0 0.56855,0 1.093671,0.17293 1.59905,0.53301 0,0 0.315857,0.21715 0.315857,0.21715 0,0 -1.22396,2.01362 -1.22396,2.01362 0,-1e-5 -0.335599,-0.2369 -0.335599,-0.2369 -0.246373,-0.15792 -0.511695,-0.23689 -0.789654,-0.23689 -0.240057,0 -0.463528,0.0853 -0.690948,0.23689 -0.240049,0.15793 -0.440629,0.36719 -0.592237,0.65147 -0.265326,0.48643 -0.459582,1.03128 -0.592241,1.61879 0,0 -1.066031,4.85636 -1.066031,4.85636 0,-10e-6 -2.289994,0 -2.289994,0 0,-10e-6 2.112323,-9.47583 2.112323,-9.47583 8e-6,0 2.132061,0 2.132061,0 0,0 -0.07344,0.28743 -0.09871,0.39482 0.101078,-0.0758 0.207679,-0.18004 0.296123,-0.2369 0.305992,-0.1826 0.629184,-0.2965 0.947579,-0.33559 z m 6.791018,0 c 0.137883,-0.0104 0.273621,0 0.414571,0 1.288717,0 2.263932,0.45167 2.90197,1.3424 0.397982,0.57487 0.611987,1.28556 0.611987,2.13207 0,0.46746 -0.05765,0.97048 -0.17767,1.52008 0,0 -0.177678,0.69095 -0.177678,0.69095 0,-1e-5 -5.791311,0 -6.43567,0 -0.01264,0.13265 -0.01974,0.27479 -0.01974,0.39482 0,0.49275 0.101074,0.88046 0.315861,1.16474 0.102063,0.13897 0.220389,0.26414 0.355345,0.35534 0.254427,0.16593 0.582865,0.25664 0.967325,0.25664 0.46748,-1e-5 0.878091,-0.12872 1.263443,-0.37509 0.366407,-0.23373 0.71701,-0.60724 1.026551,-1.12525 0,-1e-5 2.447923,0 2.447923,0 0,-1e-5 -0.217151,0.47379 -0.217151,0.47379 -0.467477,0.94759 -1.11973,1.6867 -1.934653,2.21103 -0.81492,0.52433 -1.788565,0.80939 -2.862494,0.80939 -1.396106,0 -2.43529,-0.45168 -3.079648,-1.3424 -0.638035,-0.87179 -0.775436,-2.0768 -0.434306,-3.59293 0.341134,-1.5414 1.021813,-2.77326 2.013614,-3.6324 0.888957,-0.7708 1.897681,-1.19833 3.020422,-1.28318 z m 10.285234,0 c 0.137879,-0.0104 0.273613,0 0.414563,0 1.288721,0 2.26394,0.45167 2.901978,1.3424 0.397985,0.57487 0.61198,1.28556 0.61198,2.13207 0,0.46115 -0.05764,0.95705 -0.177675,1.50034 0,0 -0.177666,0.71069 -0.177666,0.71069 0,-1e-5 -5.791319,0 -6.435674,0 -0.0063,0.0884 -0.01342,0.16819 -0.01974,0.25663 -0.0047,0.0332 0.0021,0.0835 0,0.11845 -1.85e-4,0.006 0,0.0142 0,0.0197 0,0.0948 0.01343,0.18794 0.01974,0.27638 0.03157,0.36008 0.125558,0.66094 0.296119,0.88836 0.03248,0.0442 0.06301,0.0988 0.09871,0.13819 0.289336,0.30954 0.698843,0.47379 1.223964,0.47379 0.46748,-1e-5 0.884411,-0.12872 1.263447,-0.37509 0.366403,-0.23373 0.717002,-0.60724 1.026547,-1.12525 0,-1e-5 2.467665,0 2.467665,0 -4e-6,-1e-5 -0.236897,0.47379 -0.236897,0.47379 -0.467473,0.94759 -1.119726,1.6867 -1.934649,2.21103 -0.814924,0.52433 -1.788565,0.80939 -2.86249,0.80939 -1.396103,0 -2.43529,-0.45168 -3.079648,-1.3424 -0.416939,-0.56856 -0.611984,-1.29267 -0.611984,-2.15181 0,-0.13267 0.0071,-0.27559 0.01974,-0.41457 0.02528,-0.32849 0.07581,-0.66015 0.157932,-1.02655 0.341138,-1.53508 1.002071,-2.77326 1.993872,-3.6324 0.888953,-0.7708 1.917426,-1.19833 3.040168,-1.28318 z m 28.012935,0 c 0.141087,-0.0109 0.270853,0 0.414567,0 1.313986,0 2.323954,0.44457 2.980942,1.32266 0.650682,0.87809 0.808607,2.06257 0.473789,3.55344 -0.259002,1.16237 -0.633296,2.10126 -1.144991,2.78353 -0.511707,0.68226 -1.163952,1.23975 -1.934657,1.61878 -0.76437,0.37904 -1.573777,0.5725 -2.388697,0.5725 -1.339251,0 -2.336584,-0.458 -2.980942,-1.3424 -0.416942,-0.56224 -0.631722,-1.28635 -0.631722,-2.15181 8e-6,-0.46748 0.05133,-0.96417 0.177675,-1.52008 0.379039,-1.69302 1.152889,-2.98252 2.289994,-3.81008 0.834658,-0.6025 1.756419,-0.95063 2.744042,-1.02654 z m 34.685509,0 c 0.16656,-0.0103 0.32079,0 0.49353,0 0.79597,0 1.42138,0.0805 1.89517,0.27637 0.50538,0.20216 0.86388,0.48801 1.06603,0.82914 0.19584,0.32216 0.29612,0.71779 0.29612,1.20421 1e-5,1e-5 -0.2369,1.44112 -0.2369,1.44112 1e-5,0 -0.4343,1.9544 -0.4343,1.9544 -0.37273,1.66774 -0.45484,2.29315 -0.4738,2.52689 -0.019,0.31586 0.0103,0.62382 0.0987,0.9081 1e-5,-1e-5 0.15793,0.51327 0.15793,0.51327 10e-6,-10e-6 -2.32948,0 -2.32948,0 0,-10e-6 -0.0987,-0.29612 -0.0987,-0.29612 -0.0379,-0.13897 -0.0268,-0.31586 -0.0395,-0.47379 -0.4422,0.27164 -0.8852,0.51248 -1.28318,0.65146 -0.5875,0.20216 -1.19711,0.31586 -1.8162,0.31586 -1.07392,0 -1.86911,-0.27953 -2.34922,-0.82914 -0.3664,-0.40429 -0.53301,-0.89862 -0.53301,-1.46085 -10e-6,-0.21478 0.0284,-0.43747 0.079,-0.6712 0.10739,-0.48011 0.30244,-0.92469 0.61198,-1.32268 0.30323,-0.39167 0.66173,-0.71384 1.06603,-0.94758 0.39168,-0.23373 0.82835,-0.39956 1.28319,-0.51327 -1e-5,0 1.40163,-0.2369 1.40163,-0.2369 1.08025,-0.12635 1.88648,-0.28348 2.46767,-0.45405 0.0126,-0.0632 0.0395,-0.13819 0.0395,-0.13819 0.0916,-0.40646 0.0801,-0.71198 -0.0197,-0.86862 -0.007,-0.0101 -0.0312,-0.0308 -0.0395,-0.0395 -0.0213,-0.0227 -0.0541,-0.0584 -0.079,-0.079 -0.2376,-0.18803 -0.64278,-0.27638 -1.18448,-0.27638 -0.61277,0 -1.06603,0.10029 -1.38189,0.29611 -0.30954,0.19584 -0.59619,0.55434 -0.84888,1.06604 0,-1e-5 -2.3887,0 -2.3887,0 1e-5,-1e-5 0.21716,-0.47379 0.21716,-0.47379 0.28426,-0.657 0.62303,-1.20185 1.04629,-1.61879 0.42325,-0.41695 0.99496,-0.73991 1.65827,-0.96732 0.50833,-0.16781 1.06341,-0.27916 1.65827,-0.31586 z m 10.00885,0 c 0.0891,-0.011 0.18655,0 0.27638,0 0.57486,0 1.11341,0.17293 1.61879,0.53301 0,0 0.29612,0.21715 0.29612,0.21715 0,0 -1.22396,2.01362 -1.22396,2.01362 0,-1e-5 -0.33561,-0.2369 -0.33561,-0.2369 -0.24637,-0.15792 -0.49827,-0.23689 -0.76991,-0.23689 -0.24006,0 -0.47695,0.0853 -0.71069,0.23689 -0.24005,0.15793 -0.41457,0.36719 -0.57249,0.65147 -0.25902,0.48643 -0.45959,1.03128 -0.59225,1.61879 0,0 -1.08577,4.85636 -1.08577,4.85636 1e-5,-10e-6 -2.28999,0 -2.28999,0 0,-10e-6 2.11232,-9.47583 2.11232,-9.47583 -1e-5,0 2.13206,0 2.13206,0 0,0 -0.0537,0.28743 -0.079,0.39482 0.10107,-0.0758 0.20136,-0.18004 0.29612,-0.2369 0.30105,-0.1826 0.60967,-0.2965 0.92784,-0.33559 z m 6.77127,0 c 0.13776,-0.0104 0.27362,0 0.41457,0 1.28872,0 2.27025,0.45167 2.90198,1.3424 0.4043,0.57487 0.61198,1.28556 0.61198,2.13207 -1e-5,0.46746 -0.0774,0.97048 -0.19742,1.52008 0,0 -0.15793,0.69095 -0.15793,0.69095 0,-1e-5 -5.79763,0 -6.43567,0 -0.0126,0.13265 -0.0395,0.27479 -0.0395,0.39482 0,0.49275 0.10739,0.88046 0.31586,1.16474 0.0325,0.0442 0.0826,0.0988 0.11845,0.13819 0.0207,0.0221 0.0571,0.0584 0.079,0.079 0.28243,0.25674 0.66677,0.39483 1.145,0.39483 0.46748,-1e-5 0.87809,-0.12872 1.26344,-0.37509 0.36641,-0.23373 0.7107,-0.60724 1.02655,-1.12525 0,-1e-5 2.46767,0 2.46767,0 0,-1e-5 -0.2369,0.47379 -0.2369,0.47379 -0.46748,0.94759 -1.12604,1.6867 -1.93465,2.21103 -0.82123,0.52433 -1.78224,0.80939 -2.86249,0.80939 -1.3961,0 -2.41555,-0.45168 -3.0599,-1.3424 -0.63805,-0.87179 -0.78887,-2.0768 -0.45406,-3.59293 0.34113,-1.5414 1.00208,-2.77326 1.99388,-3.6324 0.89458,-0.7708 1.91845,-1.19833 3.04016,-1.28318 z m -34.56706,0.17767 c 10e-6,0 2.34922,0 2.34922,0 1e-5,0 0.2898,5.62312 0.29612,5.70523 0.0948,-0.20136 0.16828,-0.37078 0.17768,-0.39482 0,1e-5 2.58611,-5.31041 2.58611,-5.31041 0,0 2.1518,0 2.1518,0 0,0 0.19741,5.5552 0.19741,5.58679 0.0632,-0.1137 2.94146,-5.58679 2.94146,-5.58679 -1e-5,0 2.32948,0 2.32948,0 0,0 -5.13275,9.47583 -5.13275,9.47583 10e-6,-10e-6 -2.11232,0 -2.11232,0 0,-10e-6 -0.20451,-5.13827 -0.21715,-5.42887 -0.87179,1.78778 -2.64534,5.42887 -2.64534,5.42887 0,-10e-6 -2.17154,0 -2.17154,0 0,-10e-6 -0.75018,-9.47583 -0.75018,-9.47583 z m -55.157254,1.79646 c -0.544185,0.023 -1.03839,0.21912 -1.500336,0.59223 -0.366396,0.2906 -0.613566,0.68938 -0.8094,1.12526 0,1e-5 3.889041,0 3.889041,0 0.0063,-0.0695 0.01974,-0.15398 0.01974,-0.21715 -8e-6,-0.36008 -0.06397,-0.63962 -0.177671,-0.82914 -0.277951,-0.45484 -0.690155,-0.6712 -1.302928,-0.6712 -0.03671,0 -0.08217,-0.002 -0.118448,0 z m 10.285226,0 c -0.544181,0.023 -1.03839,0.21912 -1.50034,0.59223 -0.366403,0.2906 -0.607237,0.68938 -0.809388,1.12526 0,1e-5 3.889037,0 3.889037,0 0.0063,-0.0695 0.01974,-0.15398 0.01974,-0.21715 -4e-6,-0.36008 -0.05764,-0.63962 -0.177675,-0.82914 -0.05518,-0.0924 -0.129821,-0.18426 -0.197412,-0.25663 -0.263767,-0.27256 -0.626787,-0.41457 -1.105512,-0.41457 -0.03672,0 -0.08217,-0.002 -0.118452,0 z m 79.557538,0 c -0.5596,0.0172 -1.08221,0.20669 -1.55956,0.59223 -0.36009,0.2906 -0.60725,0.68938 -0.8094,1.12526 1e-5,1e-5 3.8693,0 3.8693,0 0.006,-0.0695 0.0197,-0.15398 0.0197,-0.21715 0,-0.36008 -0.0576,-0.63962 -0.17767,-0.82914 -0.27164,-0.44853 -0.69016,-0.66488 -1.30293,-0.6712 -0.0182,1.9e-4 -0.0214,-5.6e-4 -0.0395,0 z m -51.722266,0.0395 c -0.522217,0.062 -1.007794,0.30026 -1.46086,0.71069 -0.543277,0.49275 -0.937317,1.2666 -1.164733,2.28999 -0.09476,0.42957 -0.138194,0.79676 -0.138194,1.12525 7e-6,0.44852 0.08607,0.80071 0.256638,1.06603 0.04541,0.0681 0.105642,0.14008 0.157932,0.19742 0.280827,0.29818 0.672981,0.45405 1.164738,0.45405 0.638034,-1e-5 1.200272,-0.23768 1.737233,-0.73043 0.543292,-0.49907 0.931,-1.28082 1.164737,-2.32947 0.214795,-0.96023 0.18478,-1.67723 -0.118445,-2.13207 -0.290591,-0.4422 -0.715424,-0.65146 -1.302924,-0.65146 -0.0997,0 -0.19942,-0.0115 -0.296122,0 z m 35.672576,3.45473 c -0.53696,0.14529 -1.13869,0.26769 -1.93465,0.37509 -0.59382,0.0884 -1.01708,0.18161 -1.26345,0.27637 -0.21478,0.0884 -0.38772,0.21084 -0.53302,0.37509 -0.13898,0.15792 -0.23215,0.32376 -0.27637,0.51327 -0.0126,0.0758 -0.0198,0.15398 -0.0198,0.21716 0,0.005 -1.1e-4,0.0147 0,0.0197 6.7e-4,0.015 -0.002,0.0447 0,0.0592 0.004,0.0287 0.0119,0.072 0.0198,0.0987 0.003,0.009 0.0165,0.0309 0.0197,0.0395 0.007,0.017 0.0112,0.043 0.0197,0.0592 0.009,0.016 0.0289,0.0439 0.0395,0.0592 0.0165,0.0227 0.0391,0.0576 0.0592,0.079 0.15793,0.17688 0.473,0.25664 0.92784,0.25664 0.49907,1e-5 0.97917,-0.0948 1.42137,-0.31586 0.4359,-0.21478 0.78729,-0.53539 1.04629,-0.9081 0.18953,-0.26533 0.34114,-0.67358 0.4738,-1.20422 z"
         id="path74"
         style="fill:#bd0000;fill-opacity:1;fill-rule:evenodd;stroke:none" />
      <g
         id="g80"
         transform="matrix(0.631723,0,0,0.631723,146.287,113.185)"
         style="fill:#000000;fill-opacity:0.94117599;fill-rule:evenodd;stroke:none">
        <path
           id="path82"
           d="M 0.03,0 C 0.02,0 0.01,0 0,0 c 0.97,0.01 1.61,0.34 2.04,1.05 0.19,0.3 0.29,0.75 0.29,1.32 0,0.1 -0.02,0.23 -0.03,0.34 0,0 0.04,0 0.04,0 C 2.34,2.6 2.36,2.47 2.36,2.37 2.36,1.8 2.27,1.35 2.08,1.05 1.65,0.33 1,0 0.03,0 z"
           style="fill:#000000;fill-opacity:0.94117599" />
      </g>
      <g
         id="g4966"
         transform="matrix(0.631723,0,0,0.631723,-61.3054,-143.769)"
         style="fill:#bd0000;fill-opacity:1">
        <g
           transform="translate(125.127,453.393)"
           id="g84"
           style="fill:#bd0000;fill-opacity:1;fill-rule:evenodd;stroke:none">
          <path
             d="m 0,36 c 0,0 7.46,0 7.46,0 0,0 3.35,-14 3.35,-14 0,0 12.12,0 12.12,0 0,0 1.56,-6 1.56,-6 0,0 -12.17,0 -12.17,0 0,0 2.02,-9 2.02,-9 0,0 12.95,0 12.95,0 0,0 1.56,-7 1.56,-7 C 28.85,0 8.4,0 8.4,0 8.4,0 0,36 0,36 z"
             id="path86"
             style="fill:#bd0000;fill-opacity:1" />
        </g>
        <g
           transform="translate(151.077,463.393)"
           id="g88"
           style="fill:#bd0000;fill-opacity:1;fill-rule:evenodd;stroke:none">
          <path
             d="m 7.51,26 c 0,0 2.24,-9.4 2.24,-9.4 1.18,-5.09 3.67,-9.6 8.38,-9.6 0.42,0 0.83,0.21 1.14,0.26 0,0 1.82,-7.21 1.82,-7.21 -0.42,0 -0.88,-0.05 -1.4,-0.05 -3.47,0 -6.38,2.44 -8.32,5.94 0,0 -0.2,0 -0.2,0 C 11.46,4.23 11.71,2.61 11.9,1 11.9,1 5.47,1 5.47,1 5.1,3.08 4.53,7.15 3.66,10.82 3.66,10.82 0,26 0,26 c 0,0 7.51,0 7.51,0 z"
             id="path90"
             style="fill:#bd0000;fill-opacity:1" />
        </g>
        <g
           transform="translate(171.707,463.393)"
           id="g92"
           style="fill:#bd0000;fill-opacity:1;fill-rule:evenodd;stroke:none">
          <path
             d="M 20.06,19.25 C 17.99,20.26 15.63,20 12.88,20 10.71,20 9.03,19.62 8.11,18.88 7.63,18.07 7.43,16.81 7.47,16 17.6,16.27 23.99,13.93 24.31,7.53 24.55,2.7 21.02,0 15.89,0 6.73,0 0.73,8.08 0.34,15.86 0,22.65 3.52,26 10.78,26 c 2.79,0 6.49,-0.32 9.52,-1.23 0,0 -0.24,-5.52 -0.24,-5.52 z M 17.32,7.53 C 17.2,9.91 14.26,10.05 8.47,10 9.1,7.91 11.22,6 14.69,6 c 1.71,0 2.69,0.65 2.63,1.53 z"
             id="path94"
             style="fill:#bd0000;fill-opacity:1" />
        </g>
        <g
           transform="translate(198.227,463.393)"
           id="g96"
           style="fill:#bd0000;fill-opacity:1;fill-rule:evenodd;stroke:none">
          <path
             d="M 20.05,19.25 C 17.98,20.26 15.62,20 12.88,20 10.7,20 9.03,19.62 8.11,18.88 7.63,18.07 7.42,16.81 7.46,16 17.6,16.27 23.98,13.93 24.31,7.53 24.55,2.7 21.02,0 15.89,0 6.72,0 0.72,8.08 0.33,15.86 0,22.65 3.52,26 10.77,26 c 2.8,0 6.5,-0.32 9.53,-1.23 0,0 -0.25,-5.52 -0.25,-5.52 z M 17.32,7.53 C 17.2,9.91 14.26,10.05 8.46,10 9.1,7.91 11.21,6 14.68,6 c 1.71,0 2.7,0.65 2.64,1.53 z"
             id="path98"
             style="fill:#bd0000;fill-opacity:1" />
        </g>
        <g
           transform="translate(234.137,463.393)"
           id="g100"
           style="fill:#bd0000;fill-opacity:1;fill-rule:evenodd;stroke:none">
          <path
             d="M 22.74,26 C 22.8,22.83 23.56,17.85 24.35,14.58 24.35,14.58 27.56,1 27.56,1 25.52,0.31 22.34,0 19.28,0 6.86,0 0.7,9.2 0.27,17.82 0,23.23 2.93,26 7.49,26 c 2.95,0 6.28,-1.43 8.87,-5.73 0,0 0.11,0 0.11,0 -0.2,2.07 -0.44,4.08 -0.57,5.73 0,0 6.84,0 6.84,0 z M 17.61,11.72 C 16.15,18.08 13.17,20 10.95,20 8.88,20 7.98,18.53 8.1,16.39 8.34,11.56 12.16,6 16.98,6 c 0.78,0 1.39,-0.14 1.96,-0.28 0,0 -1.33,6 -1.33,6 z"
             id="path102"
             style="fill:#bd0000;fill-opacity:1" />
        </g>
        <g
           transform="translate(261.767,463.393)"
           id="g104"
           style="fill:#bd0000;fill-opacity:1;fill-rule:evenodd;stroke:none">
          <path
             d="m 0,24.82 c 1.44,1.12 4.46,1.13 7.61,1.18 6.73,0.05 11.81,-2.89 12.11,-8.29 0.17,-3.6 -2.62,-5.73 -5.35,-7.16 C 12.4,9.6 11.41,8.69 11.46,7.63 11.53,6.2 12.87,6 14.84,6 c 2.22,0 4,0.27 5.02,0.47 0,0 2.02,-5.42 2.02,-5.42 C 20.73,0.36 18.43,0 15.48,0 8.95,0 4.17,3.45 3.9,8.69 c -0.16,3.24 2.17,5.42 4.99,6.9 2.28,1.17 3.06,2.07 3,3.34 C 11.82,20.21 10.68,20 8.61,20 6.18,20 3.49,19.68 2.07,19.46 2.07,19.46 0,24.82 0,24.82 z"
             id="path106"
             style="fill:#bd0000;fill-opacity:1" />
        </g>
        <g
           transform="translate(294.217,452.393)"
           id="g108"
           style="fill:#bd0000;fill-opacity:1;fill-rule:evenodd;stroke:none">
          <path
             d="m 7.45,37 c 0,0 6.05,-25 6.05,-25 0,0 -7.41,0 -7.41,0 0,0 -6.09,25 -6.09,25 0,0 7.45,0 7.45,0 z M 10.92,9 C 13.46,9 15.72,6.9 15.86,3.3 15.98,0.86 14.4,0 12.07,0 9.64,0 7.42,1.58 7.29,3.94 7.17,6.32 8.75,9 10.92,9 z"
             id="path110"
             style="fill:#bd0000;fill-opacity:1" />
        </g>
        <g
           transform="translate(308.507,464.083)"
           id="g112"
           style="fill:#bd0000;fill-opacity:1;fill-rule:evenodd;stroke:none">
          <path
             d="m 7.46,25.31 c 0,0 2.64,-11.26 2.64,-11.26 1.37,-5.73 4.32,-7.74 6.75,-7.74 1.92,0 2.48,0.82 2.39,2.01 -0.05,0.96 -0.2,1.97 -0.4,2.87 0,0 -3.36,14.12 -3.36,14.12 0,0 7.46,0 7.46,0 0,0 3.54,-14.81 3.54,-14.81 C 26.75,9.22 27.05,7.31 27.11,6.15 27.33,1.64 25.08,0 20.94,0 c -3.32,0 -6.55,1.54 -9.1,4.88 0,0 -0.1,0 -0.1,0 0,0 0.68,-4.57 0.68,-4.57 0,0 -6.58,0 -6.58,0 C 5.41,2.45 4.86,5.04 4.08,8.06 4.08,8.06 0,25.31 0,25.31 c 0,0 7.46,0 7.46,0 z"
             id="path114"
             style="fill:#bd0000;fill-opacity:1" />
        </g>
        <g
           transform="translate(348.067,453.393)"
           id="g116"
           style="fill:#bd0000;fill-opacity:1;fill-rule:evenodd;stroke:none">
          <path
             d="m 0,36 c 0,0 7.46,0 7.46,0 0,0 3.36,-14 3.36,-14 0,0 12.11,0 12.11,0 0,0 1.56,-6 1.56,-6 0,0 -12.17,0 -12.17,0 0,0 2.02,-9 2.02,-9 0,0 12.95,0 12.95,0 0,0 1.56,-7 1.56,-7 C 28.85,0 8.4,0 8.4,0 8.4,0 0,36 0,36 z"
             id="path118"
             style="fill:#bd0000;fill-opacity:1" />
        </g>
        <g
           transform="translate(374.017,463.393)"
           id="g120"
           style="fill:#bd0000;fill-opacity:1;fill-rule:evenodd;stroke:none">
          <path
             d="m 7.51,26 c 0,0 2.24,-9.4 2.24,-9.4 1.18,-5.09 3.67,-9.6 8.38,-9.6 0.42,0 0.83,0.21 1.14,0.26 0,0 1.82,-7.21 1.82,-7.21 -0.42,0 -0.88,-0.05 -1.4,-0.05 -3.47,0 -6.38,2.44 -8.32,5.94 0,0 -0.2,0 -0.2,0 C 11.46,4.23 11.71,2.61 11.9,1 11.9,1 5.47,1 5.47,1 5.11,3.08 4.53,7.15 3.66,10.82 3.66,10.82 0,26 0,26 c 0,0 7.51,0 7.51,0 z"
             id="path122"
             style="fill:#bd0000;fill-opacity:1" />
        </g>
        <g
           transform="translate(394.647,463.393)"
           id="g124"
           style="fill:#bd0000;fill-opacity:1;fill-rule:evenodd;stroke:none">
          <path
             d="M 20.06,19.25 C 17.99,20.26 15.63,20 12.88,20 10.71,20 9.03,19.62 8.11,18.88 7.63,18.07 7.43,16.81 7.47,16 17.6,16.27 23.99,13.93 24.31,7.53 24.55,2.7 21.02,0 15.89,0 6.73,0 0.73,8.08 0.34,15.86 0,22.65 3.53,26 10.78,26 c 2.79,0 6.5,-0.32 9.52,-1.23 0,0 -0.24,-5.52 -0.24,-5.52 z M 17.32,7.53 C 17.2,9.91 14.26,10.05 8.47,10 9.1,7.91 11.22,6 14.69,6 c 1.71,0 2.69,0.65 2.63,1.53 z"
             id="path126"
             style="fill:#bd0000;fill-opacity:1" />
        </g>
        <g
           transform="translate(421.167,463.393)"
           id="g128"
           style="fill:#bd0000;fill-opacity:1;fill-rule:evenodd;stroke:none">
          <path
             d="M 20.05,19.25 C 17.98,20.26 15.62,20 12.88,20 10.7,20 9.03,19.62 8.11,18.88 7.63,18.07 7.42,16.81 7.46,16 17.6,16.27 23.98,13.93 24.31,7.53 24.55,2.7 21.02,0 15.89,0 6.72,0 0.72,8.08 0.33,15.86 0,22.65 3.52,26 10.77,26 c 2.8,0 6.5,-0.32 9.53,-1.23 0,0 -0.25,-5.52 -0.25,-5.52 z M 17.32,7.53 C 17.2,9.91 14.26,10.05 8.46,10 9.1,7.91 11.21,6 14.68,6 c 1.71,0 2.7,0.65 2.64,1.53 z"
             id="path130"
             style="fill:#bd0000;fill-opacity:1" />
        </g>
        <g
           transform="translate(447.547,452.393)"
           id="g132"
           style="fill:#bd0000;fill-opacity:1;fill-rule:evenodd;stroke:none">
          <path
             d="M 23.31,0 C 23.31,0 20.5,11.36 20.5,11.36 19.48,10.94 18.15,11 17.11,11 7.53,11 0.75,19.2 0.3,28.08 0,34.34 3.34,37 7.64,37 c 3.01,0 6.18,-1.33 8.58,-4.77 0,0 0.1,0 0.1,0 0,0 -0.57,4.77 -0.57,4.77 0,0 6.78,0 6.78,0 0.31,-3 0.96,-6.57 1.69,-9.83 0,0 6.49,-27.17 6.49,-27.17 0,0 -7.4,0 -7.4,0 z M 17.47,24.42 C 16.3,29.35 13.54,31 11.36,31 9.19,31 7.98,29.49 8.13,26.8 8.38,21.82 11.8,17 16.25,17 c 1.25,0 2.32,0.19 2.91,0.47 0,0 -1.69,6.95 -1.69,6.95 z"
             id="path134"
             style="fill:#bd0000;fill-opacity:1" />
        </g>
        <g
           transform="translate(477.257,463.393)"
           id="g136"
           style="fill:#bd0000;fill-opacity:1;fill-rule:evenodd;stroke:none">
          <path
             d="M 10.61,26 C 19.31,26 26.02,19.41 26.49,10.44 26.78,4.5 23.08,0 16.25,0 7.23,0 0.76,7.3 0.31,16.12 0,22.54 4.14,26 10.61,26 z m 1.17,-6 C 9.24,20 7.84,18.38 7.99,15.96 8.19,11.93 10.68,6 14.97,6 c 2.96,0 3.87,2.27 3.75,4.5 -0.22,4.4 -2.9,9.5 -6.94,9.5 z"
             id="path138"
             style="fill:#bd0000;fill-opacity:1" />
        </g>
        <g
           transform="translate(505.817,463.393)"
           id="g140"
           style="fill:#bd0000;fill-opacity:1;fill-rule:evenodd;stroke:none">
          <path
             d="M 7.2,26 C 7.2,26 9.9,14.58 9.9,14.58 11.03,9.49 13.85,6 16.38,6 c 1.82,0 2.32,1.33 2.23,3.07 -0.05,0.9 -0.25,1.91 -0.46,2.91 0,0 -3.34,14.02 -3.34,14.02 0,0 7.2,0 7.2,0 0,0 2.7,-11.47 2.7,-11.47 C 25.95,9.28 28.61,6 31.09,6 c 1.71,0 2.42,1.22 2.34,2.96 -0.05,1.01 -0.26,2.12 -0.52,3.13 0,0 -3.24,13.91 -3.24,13.91 0,0 7.25,0 7.25,0 0,0 3.49,-14.81 3.49,-14.81 0.27,-1.33 0.58,-3.4 0.63,-4.46 C 41.26,2.33 39.11,0 35.23,0 31.91,0 28.68,1.5 26.23,4.66 26.14,2.38 24.51,0 20.47,0 17.2,0 14.08,1.48 11.58,4.83 c 0,0 -0.1,0 -0.1,0 0,0 0.67,-3.83 0.67,-3.83 0,0 -6.42,0 -6.42,0 C 5.31,3.14 4.8,5.73 4.02,8.75 4.02,8.75 0,26 0,26 c 0,0 7.2,0 7.2,0 z"
             id="path142"
             style="fill:#bd0000;fill-opacity:1" />
        </g>
      </g>
      <path
         id="path2592"
         sodipodi:nodetypes="cccccssccccscccsccc"
         d="m 162.41188,123.00573 c 0.25643,0.65928 0.51288,1.31749 0.78001,1.96127 0.41138,0.87458 0.88687,1.71176 1.45853,2.49339 3.08802,4.19767 8.25965,6.49606 14.82569,7.06824 0,0 7.06291,0 7.06291,0 2.23319,-0.17417 4.57325,-0.499 6.99879,-0.97342 4.18325,-0.81795 8.6176,-2.07452 13.22291,-3.7537 3.48871,-1.27208 7.07359,-2.77708 10.71189,-4.52624 7.92306,-3.79805 16.10791,-8.69667 24.13783,-14.60825 2.64458,-1.94524 5.18231,-3.94122 7.61853,-5.97087 2.23321,-1.85816 4.37559,-3.74517 6.42179,-5.653003 5.71123,-5.503935 10.0227,-11.093889 12.46427,-16.002134 2.54305,-5.111247 3.05062,-9.481487 0.96701,-12.234531 -1.27689,-1.689854 -3.41392,-2.595426 -6.16535,-2.808595 12.39479,-9.300378 19.61799,-20.582334 17.02685,-27.69546 -0.82278,-2.270067 -2.63392,-3.963663 -5.23042,-4.900224 -1.15398,-0.415112 -2.45225,-0.677971 -3.86804,-0.797645 0,0 -3.8146,0 -3.8146,0 -5.32656,0.384126 -13.07241,2.291435 -19.64379,5.511949"
         style="fill:none;stroke:#bd0000;stroke-width:3.15861011;stroke-linecap:butt;stroke-linejoin:miter;stroke-miterlimit:4;stroke-opacity:1" />
    </g>
  </g>
</svg>
