<?xml version="1.0" standalone="no"?>
<!DOCTYPE svg PUBLIC "-//W3C//DTD SVG 20010904//EN"
 "http://www.w3.org/TR/2001/REC-SVG-20010904/DTD/svg10.dtd">
<svg version="1.0" xmlns="http://www.w3.org/2000/svg"
 width="701.000000pt" height="715.000000pt" viewBox="0 0 701.000000 715.000000"
 preserveAspectRatio="xMidYMid meet">
<metadata>
Created by potrace 1.12, written by Peter Selinger 2001-2015
</metadata>
<g transform="translate(0.000000,715.000000) scale(0.100000,-0.100000)"
fill="#000000" stroke="none">
<path d="M1425 7139 c-203 -21 -393 -76 -580 -168 -344 -169 -534 -359 -695
-693 -67 -140 -91 -210 -122 -353 -19 -87 -22 -130 -22 -330 0 -293 21 -458
81 -650 65 -207 228 -461 418 -650 169 -170 356 -265 605 -311 52 -10 101 -22
108 -27 8 -6 12 -37 12 -91 0 -93 -16 -136 -75 -206 -47 -55 -60 -88 -69 -164
-9 -78 -32 -113 -114 -171 -104 -74 -152 -157 -152 -265 0 -90 55 -113 152
-64 55 28 103 32 209 19 78 -9 111 4 155 62 39 52 63 70 105 81 l36 9 -5 -252
c-8 -408 24 -608 140 -885 141 -333 376 -617 759 -915 51 -40 29 -13 -108 130
-285 300 -385 430 -493 645 -77 154 -140 359 -177 575 -15 92 -18 159 -16 412
1 190 5 309 12 321 7 13 26 23 53 27 81 14 193 55 272 100 44 25 83 42 86 38
16 -18 50 -285 50 -385 0 -129 8 -154 52 -166 41 -10 53 -41 68 -183 6 -57 15
-120 21 -141 9 -36 10 -36 72 -43 87 -10 103 -23 112 -87 10 -73 34 -98 96
-98 26 0 50 -4 53 -9 6 -9 -19 -62 -52 -108 -33 -47 -37 -97 -13 -193 17 -65
20 -100 15 -151 -6 -59 -3 -74 19 -123 29 -63 65 -90 133 -100 71 -9 84 -20
84 -71 0 -51 16 -65 74 -65 44 0 113 -26 120 -47 8 -19 -8 -48 -56 -103 -58
-66 -72 -105 -57 -154 20 -60 100 -139 237 -234 131 -91 162 -121 162 -156 0
-28 -52 -77 -113 -106 -69 -32 -97 -102 -66 -163 20 -37 78 -105 111 -128 l31
-23 -27 45 c-48 78 -59 106 -52 132 8 34 32 57 60 57 45 0 130 53 153 95 34
61 29 98 -27 213 -27 56 -47 102 -43 102 3 0 29 -20 58 -44 35 -30 65 -69 90
-117 22 -42 61 -95 95 -128 l57 -57 -58 -88 c-98 -148 -97 -228 5 -324 30 -29
57 -52 59 -52 3 0 -11 31 -30 69 -39 75 -39 98 -2 145 11 14 33 33 49 41 l27
14 -4 -43 c-7 -60 14 -95 121 -201 127 -127 209 -170 306 -163 l45 3 -57 27
c-45 21 -61 35 -78 68 -12 23 -19 44 -16 47 2 3 20 -7 38 -21 77 -58 185 -90
378 -110 l55 -6 -77 41 c-42 22 -84 52 -93 66 -18 27 -37 83 -28 83 3 0 43
-24 88 -54 101 -66 154 -85 254 -93 86 -6 165 6 231 36 l45 20 -75 -5 c-41 -3
-92 -2 -113 3 l-38 8 63 42 c77 51 178 149 224 217 19 28 34 54 34 58 0 4 -21
-9 -48 -29 -44 -34 -170 -98 -178 -91 -1 2 13 23 32 47 18 24 34 47 34 52 0 4
3 14 6 23 5 14 2 14 -26 5 -52 -19 -133 -6 -181 27 -54 37 -126 128 -141 176
-14 47 -9 53 104 129 139 94 171 141 172 249 0 55 -6 78 -42 156 -23 50 -42
97 -42 105 0 16 51 104 79 136 22 26 131 53 210 53 84 0 154 18 178 45 25 29
53 118 53 170 0 47 -37 171 -58 191 -8 9 -39 33 -68 55 l-52 38 19 50 c10 28
26 79 35 114 l16 64 56 2 c84 2 184 45 251 107 53 49 55 52 59 112 4 55 2 66
-22 96 -14 19 -46 49 -71 67 -24 17 -56 49 -69 70 l-25 38 67 47 c37 27 108
89 159 139 86 85 92 94 113 164 20 64 22 88 17 180 -9 150 -35 230 -90 275
-69 56 -100 66 -161 50 -28 -8 -78 -17 -111 -20 -56 -6 -63 -4 -93 21 -36 30
-49 68 -62 184 -5 43 -18 103 -29 135 -14 41 -16 56 -7 56 7 0 68 -36 135 -80
154 -101 204 -126 285 -145 35 -8 104 -34 152 -57 l88 -43 170 -4 c110 -2 188
1 223 9 88 19 153 91 153 168 0 43 -28 62 -88 62 -52 0 -71 10 -94 53 -12 22
-39 149 -33 155 1 2 53 16 114 32 317 83 514 246 727 600 170 282 225 514 211
885 -16 408 -98 676 -283 926 -213 288 -444 451 -780 548 -189 55 -526 69
-717 30 -135 -27 -204 -58 -372 -164 -140 -89 -216 -125 -258 -125 -20 1 -57
13 -109 35 -23 9 -23 -13 0 -80 26 -74 68 -121 142 -158 l65 -32 210 0 c177 1
227 4 320 23 196 40 328 25 511 -58 210 -95 395 -311 472 -550 32 -98 42 -172
42 -299 0 -226 -48 -386 -147 -492 -95 -101 -179 -118 -297 -60 -105 52 -189
139 -384 401 -332 446 -445 562 -637 656 -151 74 -236 94 -395 94 -147 0 -197
-12 -316 -75 -94 -49 -169 -103 -261 -186 -36 -32 -69 -59 -75 -59 -12 0 -44
21 -183 125 -212 159 -346 205 -589 205 -310 0 -502 -77 -711 -285 -49 -49
-202 -216 -339 -370 -376 -423 -446 -489 -569 -545 -130 -59 -284 7 -392 170
-79 119 -88 157 -89 370 -1 194 1 207 54 340 35 89 128 253 180 317 153 189
506 345 785 346 72 1 139 -7 240 -27 111 -23 167 -28 270 -28 324 0 469 80
492 270 l6 51 -59 -24 c-40 -17 -79 -25 -119 -25 -72 0 -121 21 -313 138 -142
86 -207 115 -311 137 -152 31 -473 43 -656 24z m595 -79 c107 -19 207 -57 319
-123 58 -33 144 -82 191 -106 80 -43 89 -45 165 -45 45 0 90 5 103 12 56 32
-13 -68 -72 -103 -86 -50 -137 -60 -316 -59 -134 0 -184 5 -265 23 -200 45
-378 38 -600 -25 -179 -50 -367 -164 -476 -289 -105 -119 -228 -358 -263 -513
-21 -94 -22 -354 -1 -435 26 -101 82 -196 159 -273 96 -96 162 -127 267 -126
88 2 135 16 216 63 91 55 152 117 473 484 340 389 436 488 542 558 136 89 250
118 478 120 134 1 166 -2 238 -22 162 -46 303 -133 454 -282 l78 -77 59 5 c80
8 100 1 160 -53 72 -65 91 -106 91 -198 0 -92 11 -117 61 -145 21 -12 45 -31
53 -42 12 -18 14 -18 20 -3 4 11 -7 28 -36 55 l-43 39 0 108 c0 90 -4 113 -22
147 -26 49 -81 102 -148 145 -42 26 -45 30 -20 24 118 -27 331 -154 401 -241
45 -55 72 -139 61 -185 -12 -48 -70 -118 -143 -173 -122 -92 -136 -165 -45
-231 27 -19 51 -43 54 -55 9 -32 -13 -78 -44 -94 -42 -22 -56 -18 -31 8 14 15
22 36 22 58 0 64 -82 128 -225 174 -152 50 -224 109 -249 208 -33 124 -37 273
-10 372 4 15 -1 13 -20 -9 l-25 -30 -96 90 c-167 155 -249 202 -398 225 -168
26 -356 -5 -522 -88 -186 -93 -321 -208 -528 -448 -314 -364 -399 -439 -642
-570 -60 -32 -113 -71 -160 -116 l-70 -68 -55 65 c-52 61 -57 65 -90 60 -19
-3 -60 -8 -91 -11 l-56 -6 -13 73 c-20 116 -19 114 -106 134 l-77 18 6 72 c4
39 9 96 13 126 l6 54 -56 34 c-31 19 -56 38 -56 44 0 5 19 41 41 80 l41 71
-45 85 -46 85 60 96 59 97 -22 92 -23 93 45 36 c95 78 89 68 100 170 5 52 14
98 21 102 7 4 49 20 95 35 l83 28 37 88 38 88 107 0 107 0 49 61 50 60 150 3
149 3 49 33 c54 37 38 39 142 -21 l42 -24 78 38 78 38 144 -50 c79 -28 146
-49 148 -47 2 2 -38 37 -90 78 l-94 75 -89 12 c-49 6 -133 21 -187 33 l-98 22
-111 -33 -110 -32 -98 22 -97 22 -95 -51 -94 -51 -100 5 -99 6 -45 -78 c-51
-87 -40 -81 -192 -99 l-57 -6 -52 -88 c-48 -83 -56 -90 -115 -119 -35 -18 -64
-36 -64 -42 0 -6 -7 -56 -15 -113 l-15 -102 -56 -51 -55 -51 25 -99 25 -99
-51 -60 c-29 -33 -58 -68 -66 -77 -12 -15 -7 -26 47 -97 l61 -79 -65 -52 -65
-52 67 -55 c111 -90 110 -73 13 -162 l-85 -79 90 -27 c50 -14 96 -28 103 -31
9 -2 -8 -32 -52 -89 -36 -46 -62 -86 -58 -89 4 -2 35 -8 69 -11 33 -4 66 -11
72 -15 8 -5 -4 -34 -39 -94 -27 -48 -50 -89 -50 -91 0 -3 41 -6 90 -7 l90 -3
-46 -69 -46 -69 58 7 c33 4 78 9 102 13 26 3 42 1 42 -5 0 -6 -9 -48 -20 -94
-11 -46 -20 -87 -20 -91 0 -5 34 19 75 53 49 40 77 57 79 48 3 -7 14 -60 27
-118 12 -58 23 -106 24 -108 2 -2 25 33 51 77 27 45 51 81 54 81 3 0 14 -30
24 -67 9 -38 22 -85 27 -106 l10 -38 62 77 62 78 5 -109 5 -108 64 91 c35 51
66 91 68 89 2 -2 -13 -79 -34 -171 -32 -143 -40 -166 -56 -166 -36 0 -213 40
-282 63 -178 61 -298 140 -441 290 -224 235 -360 500 -417 812 -19 103 -22
156 -22 380 0 252 1 263 28 366 101 389 328 692 677 905 206 125 367 180 635
218 60 8 552 -2 615 -14z m3783 -40 c196 -33 346 -91 484 -187 118 -82 324
-292 404 -412 186 -278 242 -486 242 -886 -1 -345 -28 -478 -144 -705 -204
-401 -442 -616 -747 -676 -42 -8 -87 -17 -98 -19 -18 -4 -26 5 -47 53 -21 47
-73 270 -64 278 1 1 29 -40 61 -92 32 -52 61 -94 64 -94 3 0 2 47 -2 105 -4
58 -4 105 -2 105 3 0 27 -28 53 -63 26 -35 52 -64 58 -66 5 -1 15 24 22 56 8
32 18 76 24 98 l11 39 46 -84 46 -85 23 114 c13 63 24 116 26 117 1 2 30 -21
64 -51 34 -30 63 -55 66 -55 2 0 -5 40 -16 90 -11 49 -18 92 -16 94 2 2 35 -1
72 -6 101 -14 103 -12 63 52 -20 30 -36 58 -36 63 0 4 34 7 75 7 41 0 75 3 75
8 0 4 -20 44 -44 89 -28 54 -39 84 -31 87 7 2 38 7 69 11 67 9 67 8 1 99 -25
35 -45 68 -45 74 0 5 36 20 80 33 44 12 80 27 80 32 0 5 -31 41 -69 81 l-70
71 70 59 c38 33 69 63 69 67 0 4 -22 27 -50 50 -27 23 -50 46 -50 51 0 5 22
41 50 80 30 43 47 75 42 82 -5 6 -30 37 -55 69 -26 33 -47 66 -47 75 1 10 9
53 20 97 l19 80 -49 50 -49 50 -13 105 -13 104 -56 33 c-48 29 -62 44 -102
117 l-47 84 -67 7 c-107 10 -105 10 -148 91 l-40 76 -86 -7 -86 -6 -83 49 -84
49 -70 -18 c-94 -25 -108 -24 -209 10 l-86 29 -71 -18 c-40 -10 -104 -24 -144
-30 -39 -6 -81 -13 -93 -16 -19 -4 -204 -154 -190 -154 3 0 64 23 137 50 l131
51 68 -37 67 -37 59 37 58 38 46 -33 c46 -32 47 -32 175 -34 l129 -2 41 -56
41 -56 95 -3 95 -3 33 -81 34 -82 83 -32 82 -32 7 -60 c3 -34 6 -75 6 -93 0
-27 9 -40 59 -81 33 -27 60 -56 60 -64 0 -8 -8 -49 -18 -91 l-18 -77 49 -86
c26 -47 48 -92 48 -101 0 -8 -16 -48 -36 -88 l-37 -74 37 -65 c20 -36 36 -69
36 -74 0 -5 -23 -25 -51 -43 -39 -27 -49 -40 -45 -55 2 -12 8 -65 11 -118 6
-78 5 -99 -6 -102 -8 -3 -39 -12 -70 -20 -54 -15 -57 -18 -64 -53 -3 -21 -11
-60 -17 -87 l-10 -48 -78 6 -78 7 -44 -55 c-23 -30 -47 -55 -51 -55 -4 -1 -32
25 -61 57 -42 45 -76 68 -158 109 -157 78 -287 208 -523 522 -179 239 -279
332 -470 439 -153 85 -291 117 -406 93 -60 -12 -199 -62 -199 -72 0 -3 36 -29
79 -57 98 -64 211 -172 241 -232 18 -34 24 -62 24 -115 1 -76 -12 -109 -65
-170 l-31 -35 95 0 c52 0 108 -3 125 -6 33 -7 31 -3 73 -194 10 -48 20 -63 81
-123 82 -81 106 -128 114 -229 8 -86 -3 -127 -46 -187 l-30 -41 -83 1 c-65 0
-101 -5 -159 -25 -41 -14 -78 -26 -83 -26 -4 0 -5 26 -2 57 5 44 11 61 31 77
14 12 33 41 41 66 19 54 27 60 91 60 36 0 59 -6 77 -20 33 -26 41 -25 22 3
-21 33 -57 47 -115 47 -28 0 -50 5 -50 10 0 21 29 66 64 99 52 50 49 99 -8
120 -34 14 -91 0 -129 -29 -34 -27 -83 -126 -98 -198 -14 -71 -7 -279 13 -342
8 -25 54 -99 103 -165 156 -211 234 -336 321 -513 76 -156 92 -181 153 -241
43 -44 84 -74 114 -86 43 -16 50 -16 114 -1 113 28 116 28 162 4 72 -37 86
-76 86 -233 0 -117 -3 -135 -25 -180 -13 -27 -57 -82 -96 -122 -109 -109 -232
-184 -419 -254 l-100 -38 50 0 c45 -1 134 10 207 25 22 4 31 -1 58 -40 17 -25
55 -61 84 -80 87 -55 97 -125 26 -174 -55 -37 -103 -43 -334 -46 -213 -2 -225
-3 -346 -34 -244 -63 -351 -73 -511 -46 -122 20 -187 50 -254 118 -59 59 -185
246 -286 425 -35 63 -82 134 -105 159 -39 44 -43 46 -105 49 l-64 3 47 -16
c25 -9 60 -31 77 -48 18 -18 78 -123 135 -234 l103 -200 6 -124 c12 -214 42
-337 123 -498 44 -89 77 -118 150 -132 95 -17 195 7 379 92 166 77 346 130
439 130 58 0 158 -26 261 -67 53 -22 71 -34 76 -53 23 -81 -6 -261 -44 -282
-13 -6 -58 -9 -121 -5 -192 9 -561 -31 -821 -89 -169 -38 -236 -41 -325 -14
-134 40 -220 112 -259 214 -45 121 -50 261 -17 481 30 196 39 307 32 403 -7
100 -28 227 -39 239 -13 13 -14 -3 -5 -77 13 -96 3 -409 -17 -570 -52 -419
-53 -465 -10 -558 29 -63 96 -136 150 -165 37 -20 55 -22 235 -23 254 -1 238
1 300 -39 69 -44 98 -44 186 0 46 23 82 35 109 34 52 -1 121 -22 118 -37 -2
-6 -4 -35 -5 -65 -2 -49 2 -61 42 -121 35 -54 44 -79 48 -124 6 -70 -10 -99
-92 -171 l-61 -53 -3 28 c-6 57 -12 58 -43 10 -34 -50 -129 -126 -115 -90 48
116 57 191 34 269 l-12 40 -6 -65 c-12 -123 -73 -197 -232 -280 -202 -106
-246 -185 -178 -320 17 -33 26 -60 20 -60 -6 0 -35 24 -64 53 -65 63 -86 121
-86 239 l0 77 -53 25 c-69 33 -155 98 -189 142 -34 45 -53 130 -40 177 6 19
21 52 36 73 14 21 24 40 22 42 -2 2 -19 -4 -36 -13 -45 -23 -115 -23 -141 1
-19 17 -20 25 -14 129 l7 110 -49 -52 c-26 -29 -70 -63 -98 -76 -97 -48 -112
-86 -91 -230 l8 -58 -45 31 c-61 41 -107 95 -107 126 0 13 14 52 31 86 40 79
49 160 24 209 -53 101 -111 146 -218 166 -94 17 -167 52 -189 91 -22 39 -38
163 -34 262 3 88 13 113 82 209 26 37 30 67 13 104 -8 18 -24 26 -72 36 -99
20 -104 23 -109 76 -7 60 -52 119 -94 123 -83 7 -95 13 -110 47 -9 21 -14 70
-14 127 0 121 -5 135 -51 158 -55 29 -61 45 -53 162 5 79 3 117 -10 164 -10
38 -16 102 -16 167 l0 104 89 76 c91 77 141 136 227 266 40 60 50 70 56 55 4
-11 21 -56 38 -101 29 -77 70 -147 133 -224 22 -28 18 -14 -23 73 -84 176 -98
299 -60 523 12 66 23 181 25 255 5 144 0 140 -30 -25 -65 -355 -268 -670 -559
-869 -129 -88 -233 -132 -426 -177 -152 -37 -210 -62 -278 -122 -80 -71 -107
-82 -163 -68 -56 15 -102 5 -193 -41 l-59 -30 5 52 c5 45 11 58 54 101 27 28
74 66 105 85 62 37 70 51 94 158 20 90 45 142 90 191 50 54 55 71 55 188 0
112 21 201 95 407 152 424 308 669 510 802 196 129 304 176 445 190 61 6 154
25 222 45 231 67 314 76 454 47 108 -23 212 -7 325 47 84 41 157 64 225 72
l41 5 17 -61 c17 -59 44 -109 76 -135 49 -42 126 -83 191 -103 151 -45 219
-87 219 -134 0 -30 -30 -55 -75 -62 -38 -6 -38 -6 -17 -24 50 -40 158 -31 204
18 16 17 23 39 26 81 l4 59 -51 36 c-54 39 -70 72 -52 106 6 11 48 51 94 89
171 143 200 202 162 330 -36 119 -264 298 -457 358 l-57 17 75 59 c92 72 182
122 254 139 82 19 268 14 365 -10 166 -43 312 -140 455 -303 45 -51 167 -205
270 -343 315 -418 456 -539 608 -521 157 19 269 136 333 351 27 89 36 303 20
430 -22 164 -89 337 -178 462 -87 123 -263 261 -403 317 -158 63 -313 74 -515
36 -70 -14 -172 -23 -281 -27 -146 -5 -178 -3 -224 12 -51 17 -121 70 -140
105 -8 15 -3 17 43 17 67 1 106 19 300 136 169 103 281 148 415 167 98 13 374
3 505 -20z m-908 -1746 c146 -30 260 -95 359 -202 54 -59 202 -265 231 -323
13 -25 36 -88 51 -140 14 -52 40 -121 56 -154 40 -80 148 -235 219 -315 65
-74 74 -93 84 -176 14 -118 68 -184 154 -184 48 0 50 -8 16 -49 -45 -53 -92
-63 -271 -59 -158 3 -159 4 -224 37 -35 18 -102 44 -148 58 -116 33 -180 63
-275 129 -44 30 -114 74 -153 95 l-73 40 -30 92 -31 91 32 33 32 33 -29 0
c-17 0 -61 -15 -100 -34 -38 -19 -89 -37 -112 -41 -39 -6 -43 -5 -58 24 l-16
31 51 0 c95 0 138 46 128 135 -5 39 -3 45 13 45 10 0 36 -18 59 -41 50 -51 66
-47 63 15 -4 62 -24 99 -70 127 -21 12 -40 24 -42 26 -2 1 14 22 37 47 34 36
41 53 47 100 10 74 -2 180 -25 233 -10 23 -48 73 -84 111 -71 77 -97 135 -77
179 13 28 70 65 91 59 8 -3 51 -12 95 -22z m-40 -1206 c16 -57 39 -134 52
-172 14 -43 23 -93 23 -130 l0 -61 -58 110 c-32 61 -86 154 -120 207 -34 54
-62 100 -62 103 0 3 10 5 23 5 12 0 38 8 57 19 19 10 40 19 46 20 6 0 23 -45
39 -101z m-1131 -1745 c102 -110 210 -152 416 -160 115 -5 136 -3 265 27 165
37 257 45 426 35 l124 -7 -33 -67 c-18 -37 -36 -85 -39 -107 l-5 -39 -139 3
c-166 4 -239 -11 -399 -83 -223 -100 -270 -115 -372 -115 -68 0 -104 5 -133
19 -47 21 -112 89 -121 128 -4 15 -15 41 -25 58 -30 50 -62 203 -68 323 l-6
113 30 -38 c16 -21 52 -61 79 -90z"/>
<path d="M3043 5183 c-35 -44 -86 -73 -126 -73 -25 0 -51 -18 -59 -42 -3 -7
-31 -12 -76 -14 -50 -2 -79 -8 -95 -20 -36 -27 -104 -125 -111 -161 -5 -22
-18 -38 -42 -52 -20 -12 -41 -36 -50 -58 -37 -87 -50 -106 -98 -140 -78 -56
-77 -58 3 -18 41 20 100 61 130 90 31 29 75 62 99 74 33 17 42 27 42 47 0 31
44 119 75 150 15 15 36 24 56 24 28 0 31 -3 25 -22 -3 -13 -6 -60 -6 -105 0
-74 -3 -84 -27 -114 l-27 -32 25 8 c179 52 307 245 297 443 l-3 56 -32 -41z"/>
<path d="M3525 5073 c9 -47 19 -60 63 -79 20 -8 42 -23 49 -34 10 -14 26 -20
54 -20 l40 0 54 -112 c29 -62 58 -137 64 -165 6 -32 32 -88 66 -143 65 -104
83 -121 56 -53 -10 26 -27 84 -36 128 -20 90 -34 122 -65 148 -27 23 -78 132
-115 247 -33 101 -38 109 -63 87 -26 -23 -58 -21 -121 8 l-53 25 7 -37z"/>
<path d="M3004 4614 c-11 -43 2 -112 29 -153 33 -50 132 -115 216 -142 53 -18
98 -23 226 -26 150 -4 202 3 182 23 -4 4 -83 11 -175 15 -172 7 -198 11 -270
48 -80 41 -150 136 -168 229 -7 38 -31 42 -40 6z"/>
<path d="M3878 3689 c-61 -14 -161 -64 -192 -95 -43 -44 -67 -99 -73 -172 -7
-89 22 -168 85 -232 26 -27 41 -37 37 -25 -4 11 -10 42 -13 70 -5 45 -4 49 11
36 27 -22 45 -6 52 46 9 68 20 90 57 113 41 25 83 25 131 1 20 -10 37 -15 37
-11 0 17 -46 63 -76 76 -73 31 -151 11 -202 -52 -17 -21 -34 -35 -38 -31 -13
12 7 74 36 114 54 73 175 111 317 99 97 -9 123 -19 223 -86 47 -32 121 -77
164 -101 44 -23 116 -71 160 -104 120 -91 159 -109 217 -95 l34 7 -42 8 c-48
8 -69 22 -179 118 -44 38 -119 94 -169 124 -49 31 -118 76 -153 101 -77 55
-135 77 -236 91 -89 13 -136 13 -188 0z"/>
<path d="M3975 3315 c-22 -8 -41 -15 -42 -15 -1 0 -7 -16 -13 -35 -16 -49 -5
-89 36 -125 37 -32 95 -41 134 -20 23 12 34 55 20 80 -9 17 -8 20 10 20 58 0
179 -100 222 -183 12 -23 32 -71 45 -107 l23 -65 -6 74 c-21 262 -232 447
-429 376z"/>
</g>
</svg>
