<?xml version="1.0" encoding="UTF-8" standalone="no"?>
<!-- Created with Inkscape (http://www.inkscape.org/) -->
<svg
   xmlns:svg="http://www.w3.org/2000/svg"
   xmlns="http://www.w3.org/2000/svg"
   version="1.0"
   width="598"
   height="637"
   id="svg1164">
  <defs
     id="defs1466" />
  <path
     d="M 339,78 L 337,80 L 333.25,78.75 L 342,69 C 343.885,69.1397 341.8603,67.115 342,69 L 339.25,69.25 C 333.369,76.088 324.94,79.146 317,82 L 312.25,81.25 L 301.25,91.25 L 299.25,93.25 L 293.75,98.75 L 282,101 L 280,100 L 278.25,101.25 C 275.68,105.845 277.173,111.37 279.25,115.75 L 281,116 L 282.75,115.75 C 280.115,112.802 278.17,109.086 280.25,105.25 L 283.25,111.75 L 298.75,102.75 L 301.75,99.75 L 308.25,90.25 L 313.25,86.25 L 330.25,79.25 L 331.75,79.25 C 330,85.231 323.546,87.044 318.25,88.25 L 318.75,90.75 C 316.581,90.866 314.046,90.9722 315,94 L 312,96 L 310.25,96.75 L 312,96 C 313.425,96.2121 315.671,96.1135 315,94 L 320,93 L 320.25,94.75 L 322.75,94.75 L 327.25,89.25 L 328.75,88.75 L 334.75,82.75 L 337,80 L 339,78 L 345.75,74.25 L 343.75,78.75 L 341.75,80.75 L 335.25,85.25 L 331.25,90.25 L 327.25,96.25 L 321.25,102.25 L 320.25,104.25 L 321.75,110.75 C 319.272,112.821 317.434,115.655 318,119 C 316.115,118.8603 318.1397,120.885 318,119 L 324.25,114.25 C 328.663,112.382 330.217,107.213 332.25,103.25 L 335.75,100.25 L 334.25,112.75 L 338.75,108.25 L 337.25,112.25 L 339,117 C 335.609,121.038 333.86,127.05 334.75,131.75 C 329.105,137.425 324.2,143.22 316.25,146.25 C 319.021,153.992 307.947,157.93 303,158 C 302.3641,161.1 306.275,159.702 308,160 L 323.75,150.25 L 323,155 C 329.421,155.754 323.3947,164.73 318.25,165.25 C 318.7485,168.544 312.539,174.212 311.25,169.75 L 307.25,165.25 L 314,165 C 317.955,165.8687 323.241,159.775 317,159 C 311.997,162.787 297.64,165.71 300.75,155.75 L 309.75,152.75 L 299.25,147.25 C 312.17,148.627 324.17,140.719 330.75,130.25 L 321.25,133.25 C 327.706,129.405 332.68,123.715 336,117 L 331.75,112.25 C 322.422,124.48 306,133.16 290.25,127.75 C 289.547,126.121 289.8605,122.904 292,125 C 299.036,130.99 324.92,121.067 308.75,115.25 L 307.75,111.25 L 284.25,119.25 L 286,124 L 288.25,128.75 C 289.809,134.279 295.539,136.888 300,138 C 297.981,140.516 293.613,138.4098 291.25,137.25 C 291.038,141.716 297.265,142.761 301,143 L 293.25,145.25 C 297.109,156 299.354,168.15 308.75,175.75 L 308.75,169.25 C 309.353,172.716 312.864,173.274 315.75,173.25 C 311.422,177.467 319.088,181.629 321.25,176.25 C 338.02,155.93 355.4,135.97 378.25,121.25 L 383,121 C 394.7,138.37 394.88,162.54 391.25,182.75 L 407.25,196.75 C 415.328,194.661 423.88,198.359 430,204 C 437.121,201.323 445.39,198.969 452.75,199.75 C 457.582,194.107 463.14,189.46 470,188 C 486.94,198.87 504.14,209.24 523,216 C 540.75,212.536 560.36,217.588 576.75,220.25 L 592,241 L 584.75,264.75 C 579.325,266.527 573.73,265.2034 568.25,264.25 C 562.881,271.523 550.56,273.631 543,268 C 535.638,266.945 526.87,266.393 522.75,259.25 L 500,260 C 484.56,259.8301 471.3,267.223 457,271 L 453.25,266.75 C 450.603,249.29 430.72,255.75 420,259 C 425.188,262.365 430.58,266.288 434,272 L 452.25,306.75 C 459.738,304.827 462.34,294.9 465.75,289.25 C 471.858,299.56 468.667,311.29 469.25,322.75 L 478.75,322.25 C 481.726,323.948 486.179,325.594 486.25,329.75 C 516.54,335.282 544.38,324.125 572,310 L 575.75,313.25 C 576.788,343.06 546.37,358.86 523.25,370.25 C 523.4921,374.85 519.878,378.153 516.25,380.25 L 517,395 L 520.25,403.75 C 528.384,404.6237 530.62,416.66 525,422 C 527.343,432.03 521.596,441.67 511.25,442.25 L 508.25,445.25 C 507.114,457.35 490.25,461.31 486.75,448.25 L 482.25,449.25 L 471.25,453.25 L 464.75,466.75 L 440,472 L 414.25,468.75 C 410.535,463.1 415.304,457.44 416.75,452.25 C 408.492,447.535 401.75,442.676 392.25,442.75 C 390.684,431.39 383.549,422.46 373,420 L 370.25,420.75 L 378,445 L 370,477 C 373.584,485.545 373.572,493.54 373,503 C 377.066,510.6 381.199,521.78 375.75,529.75 L 368,519 L 366.75,532.75 L 350,501 L 350,495 C 359.092,475.9 330.21,463.47 338.75,443.25 L 327.75,424.25 L 314.25,423.25 L 324,444 L 334.75,473.25 C 334.4778,483.41 334.895,493.18 343.75,499.25 L 348.75,530.75 C 345.801,531.6105 341.517,530.5976 340.75,527.25 L 337.75,537.75 C 325.2,525.87 314.94,508.94 319.75,492.25 C 318.9193,486.204 317.189,480.51 313.75,475.25 L 293.25,461.75 L 286.25,454.75 L 282.75,446.25 C 256.99,422.83 210.34,403.35 222,361 L 224.75,335.25 L 179,300 C 170.915,305.172 161.98,308.884 152.25,309.25 C 146.849,318.169 136,321.76 138,334 L 133.75,339.75 C 120.2,344.984 105.58,345.722 91.25,348.25 L 90,350 C 100.36,369.96 79.12,387.88 60.25,389.75 L 55,381 C 43.79,381.79 40.66,397.75 28.25,393.75 L 12,365 C 12.6185,361.833 12.9633,357.342 17.75,356.75 C 18.3968,337.88 37.94,332.23 52.75,327.75 L 89.25,274.25 C 98.485,272.892 106.62,275.1823 115,269 C 128.26,272.579 139.23,257.37 134,246 C 139.19,246.6168 139.806,240.179 142,237 L 144.75,233.25 L 133.25,227.25 L 143.75,228.25 L 134.75,224.25 C 132.334,224.32227 129.062,221.977 130.25,219.25 L 140.75,222.75 L 133.25,218.75 L 126.25,214.75 L 125.25,212.25 L 139,218 L 139.75,217.25 L 138.75,215.25 L 123.25,206.75 L 123.25,204.25 L 129,206 L 131,207 L 132,208 L 132.25,208.75 L 137.75,210.75 L 132,208 L 131,207 L 129,206 L 125.25,202.75 L 120,197 L 120.25,196.25 L 121.75,196.25 C 125.919,200.038 130.549,203.673 136,205 C 135.8602,206.885 137.885,204.8602 136,205 L 134.75,203.25 L 120.25,193.75 L 120.25,193.25 L 125,193 L 125.25,194.75 L 135,201 L 135.75,200.75 L 134.75,199.25 L 125,193 C 124.0824,190.962 121.271,188.583 119.25,189.75 L 117.25,188.25 L 116,190 L 117,195 L 117,200 L 120,212 L 123,221 L 128,234 L 128,236 C 119.213,221.5 116.17,202.29 114,186 L 115.25,184.25 C 142.28,183.333 167.83,196 193,205 L 210.75,190.75 C 208.065,175.6 208.586,158.96 212,144 L 205,131 L 201.25,132.25 C 186.54,144.96 165.47,150.8 147.25,141.75 L 147.75,137.25 C 140.673,134.379 130.24,130.927 129.25,122.25 C 132.433,124.785 140.39,129.734 137,122 L 136.25,115.25 C 142.042,119.105 148.53,124.734 156.75,122.75 L 158.25,119.25 L 161,118 L 168.75,116.75 C 162.245,104.59 160.809,89.29 165,76 L 168,29 L 170,27 L 175.75,28.25 L 181.75,92.25 C 182.0409,96.007 185.877,98.586 189,100 L 191.75,99.75 C 199.818,92.201 214.95,85.15 208.25,72.25 L 211.75,71.75 C 208.227,59.04 222.54,50.34 231.75,45.25 C 228.313,50.264 220.61,58.65 223.75,65.75 C 229.845,51.69 248.05,56.905 258,48 L 263.75,48.25 C 254.801,59.04 233.75,56.591 231.25,73.75 L 233.75,71.75 L 255.75,60.25 L 250.25,68.75 L 256,67 L 270.75,51.25 C 271.5412,57.099 266.782,65.03 262.75,69.75 L 261,72 L 262.25,73.75 C 269.32,72.607 273.43,62.06 275.25,55.25 C 280.666,53.09 278.685,59.951 279,63 L 278,71 L 278.25,72.75 C 281.855,72.8787 285.908,72.8908 288,76 L 285,80 L 290.75,76.75 C 298.299,50.02 264.74,33.5 265.25,7.25 L 270,4 L 273.75,8.25 C 280.172,34.05 308.88,49.54 310.25,77.75 L 319,74 L 316.25,78.75 C 326.87,77.694 337.54,70.151 342.25,60.25 L 343.75,60.25 L 344.25,64.75 L 347.75,63.25 L 339,78 z "
     style="fill:#030303;stroke:#030303"
     id="path1166" />
  <path
     d="M 286,95 L 282.25,91.25 L 282.75,95.75 L 279.25,96.75 L 277.75,94.25 C 274.296,96.136 273.896,88.929 276.75,87.75 L 278,84 L 279,83 L 282,82 L 283.75,82.25 C 288.008,85.142 293.82,80.796 294.25,76.25 L 295.25,73.25 L 297,74 C 299.26,76.67 295.742,79.33 295,82 L 292,84 L 293.25,86.75 L 298.75,81.75 L 300.75,75.75 L 298.25,66.75 L 297.75,65.25 L 296,66 L 295.75,59.25 L 293.25,57.75 L 289.75,48.25 L 283.25,40.75 L 283.25,39.25 L 283.75,38.25 C 280.499,36.373 277.769,33.224 277.75,29.25 L 274.25,26.75 L 269.25,8.25 L 271.75,12.25 L 286.25,37.75 C 292.95,45.218 300.01,52.97 302.25,62.75 L 307,74 L 306.75,82.75 L 296,93 L 291,91 C 289.182,91.1523 290.2833,93.249 291.25,93.75 C 293.98,100.006 283.152,89.419 286,95 z "
     style="fill:#fbfbfb;stroke:#fbfbfb"
     id="path1167" />
  <path
     d="M 175,90 L 170.25,87.25 L 174.75,92.25 C 176.072,97.82 180.812,100.708 185,104 C 192.249,105.532 199.01,101.605 202.25,95.25 L 205.75,93.25 L 205,102 L 209,109 C 205.025,115.011 196.89,121.33 190,116 L 182,116 L 174.25,115.75 L 170.25,111.75 C 164.426,97.62 164.858,80.94 169,66 L 170.75,45.25 L 170,44 C 171.607,40.22 171.607,34.78 170,31 L 172,29 L 176,40 L 174,42 L 175,51 C 171.466,52.595 174.7029,54.36 175,57 L 174,63 L 172.25,64.75 L 174.75,67.75 L 171.25,69.75 L 175,75 L 171.25,74.25 L 171.25,75.75 C 172.613,77.588 176.021,78.991 174.75,81.75 L 171.25,80.25 L 175,90 z "
     style="fill:#fbfbfb;stroke:#fbfbfb"
     id="path1168" />
  <path
     d="M 249,72 L 254,71 L 258.75,74.25 L 260.25,76.75 C 266.95,78.387 271.55,71.195 274.25,66.25 L 275.75,65.25 L 272,75 L 274.25,77.75 L 282.75,76.25 L 279,83 L 278,84 L 276.25,84.25 L 275.75,85.75 L 270,96 L 272,98 L 271.75,99.75 L 259.75,132.75 L 256.25,133.25 L 255.25,135.75 L 258,136 L 263.75,132.75 L 268.75,125.75 L 274,102 L 274,99 L 275,100 L 275,104 C 273.561,106.008 273.561,108.992 275,111 L 277,118 L 275.25,118.25 L 273.25,124.25 C 273.26089,132.743 264.689,138 257.25,139.25 L 257.25,139.75 C 258.575,141.77 261.38,141.153 263,140 L 270,137 L 271.75,137.25 C 274.961,141.581 280.462,137.6019 281.75,133.75 L 278,126 L 278,119 L 282.75,123.25 L 286,131 L 295.25,169.75 L 296.75,169.75 C 297.2604,163.874 300.456,173.237 302,175 C 302.4464,181.084 301.3839,186.73 299,192 L 299,213 L 287.25,249.75 L 291.75,247.75 L 302,214 L 302.25,195.25 C 308.404,195.20236 315.03,196.357 320.75,200.25 L 327.25,225.75 C 337.6,244.87 346.41,265.88 363,281 L 358.75,294.75 L 354.75,298.75 L 351.25,300.25 L 350.25,302.25 L 346.75,310.75 C 338.945,314.603 330.96,317.34 322,317 C 314.068,321.354 305.03,317.6649 297.25,316.25 L 301.25,319.75 L 339,317 L 341,316 L 342.75,317.25 L 340.75,321.75 L 336,324 L 301,329 L 299.25,329.75 L 305,334 L 337.75,326.25 L 335.75,335.75 L 326.25,342.25 L 321.25,350.25 L 323,352 L 317.25,367.25 C 319.41,368.0726 319.827,371.813 317.25,373.25 C 320.475,375.839 316.5476,378.523 315,381 L 315.75,382.75 L 316,388 L 314.75,389.75 L 296.25,391.75 C 291.111,382.644 284.46,372.58 275.25,367.75 L 273.75,364.25 L 263.25,357.75 L 263,356 C 264.885,356.1397 262.8603,354.115 263,356 L 261,357 C 250.75,353.727 237.44,349.65 235.25,337.25 L 248.75,341.25 C 258.145,357.41 281.49,354.08 296,348 L 329.75,335.75 L 330.75,333.25 C 304.29,338.23 269.55,365.24 246.75,337.25 C 234.72,334.625 220.13,332.918 215,320 C 210.07,315.6 209.557,310.355 211.25,304.25 L 225.75,321.25 L 236.75,324.25 L 236.25,327.75 L 250.75,336.75 C 252.245,329.267 237.58,332.326 238.25,324.25 L 275.75,325.75 C 276.2039,324.382 277.761,322.488 275,323 L 252,321 C 244.627,321.1064 236.74,322.443 229.25,319.75 L 211.25,299.75 C 213.813,282.02 213.622,263.13 213.25,245.25 C 223.89,238.52 237.04,245.7112 248,250 L 249,249 C 241.366,238.96 225.18,239.036 213.25,240.75 C 209.957,231.801 218.798,223.64 223.25,216.25 C 228.305,223.641 232.839,233.88 242.75,237.25 C 250.561,245.428 260.17,251.9 268.75,257.25 L 271.75,262.25 L 267,267 L 275,293 L 277,295 C 284.759,293.301 281.88,287.987 281.25,282.25 C 289.568,280.155 286.852,271.34 284.25,265.75 L 278,255 L 279.25,253.25 L 283.75,251.75 C 285.831,244.743 289.854,234.84 283.25,227.75 L 283,225 C 286.791,222.185 291.104,219.114 287,214 C 290.699,207.767 291.905,197.05 285.25,192.75 L 284,187 L 285,137 L 284,134 C 274.276,147.57 286.204,166.24 280.75,181.75 L 277,178 L 280.75,190.75 C 274.681,190.72882 271.247,196.138 272.25,201.75 L 273.75,201.75 C 273.8854,196.085 282.077,189.63 285.75,196.25 L 286.75,211.75 C 274.79,218.505 261.03,223.96 247.25,218.75 L 243,211 L 245.25,209.25 L 247.25,213.75 C 247.0968,217.096 254.288,218.141 250.25,214.75 C 251.1878,209.815 247.934,201.33 242.25,205.75 L 242.75,203.75 C 240.967,201.818 244.908,199.748 246.25,201.75 L 253.75,208.75 L 251,200 C 253.054,199.5413 251.6245,197.065 251,196 L 251.75,193.25 L 249.25,192.25 L 251,200 L 245.75,198.25 L 243.25,198.25 L 241.25,199.75 L 236.75,186.25 L 234.25,185.25 L 233,187 L 221.25,164.75 L 215.25,154.25 L 215,158 L 235.75,194.25 L 237.75,197.25 L 240,203 C 237.507,210.24 241.607,219.25 248.75,222.25 C 249.1351,225.932 250.536,230.284 254.25,231.75 L 268.75,229.25 L 264.75,250.75 L 259.25,247.75 L 226.75,213.25 C 218.186,205.434 214.23,194.86 212.25,184.25 L 225,199 L 226.75,197.25 C 218.828,186.16 205.92,174 213,159 L 214.75,150.75 L 213.25,147.25 C 216.83,148.213 222.772,152.4 225,147 L 232,147 L 231,146 L 210.25,135.75 L 211.25,110.25 L 215,110 C 205.762,104.228 208.142,92.06 211.25,83.25 L 215.75,86.75 L 215,85 L 220.75,56.25 C 218.715,62.791 218.627,72.92 224.75,77.75 L 227.25,65.25 C 230.019,62.747 232.87,58.769 236.75,59.25 L 232.75,63.75 C 230.506,67.846 222.65,78.49 231.75,78.75 L 232.25,77.25 C 234.257,74.052 237.107,71.462 241,71 L 246.75,68.25 C 235.9,77.217 228.27,94.19 236.25,105.75 L 237,103 C 233.498,96.862 235.746,89.91 236.25,83.25 C 239.43,77.925 244.142,73.824 249,72 z "
     style="fill:#fcfcfc;stroke:#fcfcfc"
     id="path1169" />
  <path
     d="M 297,74 L 297.75,73.75 C 298.1455,71.388 298.6805,68.235 296.25,66.75 L 296,66 L 297.75,65.25 L 298.25,66.75 L 300.75,75.75 L 298.75,81.75 L 293.25,86.75 L 292,84 L 295,82 C 295.742,79.33 299.26,76.67 297,74 z "
     style="fill:#040404;stroke:#040404"
     id="path1170" />
  <path
     d="M 296,66 L 296.25,66.75 C 298.68,68.235 298.146,71.388 297.75,73.75 L 297,74 L 296.75,72.25 C 293.862,71.9983 295.133,68.154 295.25,66.25 L 296,66 z "
     style="fill:#fcfcfc;stroke:#fcfcfc"
     id="path1171" />
  <path
     d="M 342,69 C 341.8603,67.115 343.885,69.1397 342,69 z "
     style="fill:#f5f5f5;stroke:#f5f5f5"
     id="path1172" />
  <path
     d="M 256,70 C 255.8602,68.115 257.885,70.1398 256,70 z "
     style="fill:#fafafa;stroke:#fafafa"
     id="path1173" />
  <path
     d="M 342,69 L 333.25,78.75 L 337,80 L 334.75,82.75 L 328.75,88.75 L 327.25,89.25 L 322.75,94.75 L 320.25,94.75 L 320,93 L 315,94 C 314.0461,90.972 316.581,90.866 318.75,90.75 L 318.25,88.25 C 323.546,87.044 330,85.231 331.75,79.25 L 330.25,79.25 L 313.25,86.25 L 308.25,90.25 L 301.75,99.75 L 298.75,102.75 L 283.25,111.75 L 280.25,105.25 C 278.17,109.086 280.1153,112.802 282.75,115.75 L 281,116 L 279.25,115.75 C 277.173,111.374 275.68,105.845 278.25,101.25 L 280,100 L 282,101 L 293.75,98.75 L 299.25,93.25 L 301.25,91.25 L 312.25,81.25 L 317,82 C 324.941,79.146 333.37,76.088 339.25,69.25 L 342,69 z "
     style="fill:#fbfbfb;stroke:#fbfbfb"
     id="path1174" />
  <path
     d="M 249,72 C 244.942,72.8163 249.8163,67.942 249,72 z "
     style="fill:#f8f8f8;stroke:#f8f8f8"
     id="path1175" />
  <path
     d="M 256,70 L 254,71 L 256,70 z "
     style="fill:#fcfcfc;stroke:#fcfcfc"
     id="path1176" />
  <path
     d="M 339,78 L 337,80 L 339,78 z "
     style="fill:#fcfcfc;stroke:#fcfcfc"
     id="path1177" />
  <path
     d="M 279,83 L 278,84 L 279,83 z "
     style="fill:#080808;stroke:#080808"
     id="path1178" />
  <path
     d="M 261,84 L 261.75,84.25 L 257.75,91.75 L 256.25,92.75 L 258.25,85.25 L 261,84 z "
     style="fill:#020202;stroke:#020202"
     id="path1179" />
  <path
     d="M 244,87 L 244.75,85.25 L 244,87 z "
     style="fill:#0d0d0d;stroke:#0d0d0d"
     id="path1180" />
  <path
     d="M 249,85 L 250.75,85.25 L 251,86 L 249.75,98.75 L 249,99 L 248.25,98.75 L 247.25,94.25 L 249,87 L 249,85 z "
     style="fill:#030303;stroke:#030303"
     id="path1181" />
  <path
     d="M 224,86 L 225.75,86.25 L 225.75,89.75 C 222.892,92.489 225.73199,95.835 226.75,98.75 L 224.25,98.75 C 223.8206,94.941 221.569,90.664 224,87 L 224,86 z "
     style="fill:#030303;stroke:#030303"
     id="path1182" />
  <path
     d="M 244,87 L 244,89 L 242.75,100.75 L 242,100 L 243.25,87.25 L 244,87 z "
     style="fill:#040404;stroke:#040404"
     id="path1183" />
  <path
     d="M 218,88 L 219.75,88.25 L 220.25,95.75 L 221.25,99.75 L 223,102 L 222.75,103.75 L 218,97 L 218,88 z "
     style="fill:#040404;stroke:#040404"
     id="path1184" />
  <path
     d="M 270,88 L 271,89 L 269.75,90.75 L 265.75,94.75 L 261.75,102.75 L 261,103 L 260,102 L 263.75,92.75 L 264.25,91.25 L 270,88 z "
     style="fill:#040404;stroke:#040404"
     id="path1185" />
  <path
     d="M 175,90 C 176.885,89.8603 174.8602,91.885 175,90 z "
     style="fill:#fbfbfb;stroke:#fbfbfb"
     id="path1186" />
  <path
     d="M 212,92 L 213,93 C 210.44,98.023 213.116,104.25 217.25,107.75 L 221,107 L 222,108 L 220,110 C 215.772,109.1038 210.315,104.91 211,100 C 209.053,97.46 209.953,94.092 212,92 z "
     style="fill:#030303;stroke:#030303"
     id="path1187" />
  <path
     d="M 315,94 C 315.6705,96.113 313.425,96.212 312,96 L 315,94 z "
     style="fill:#fdfdfd;stroke:#fdfdfd"
     id="path1188" />
  <path
     d="M 256,95 C 257.885,94.8603 255.8602,96.885 256,95 z "
     style="fill:black;stroke:black"
     id="path1189" />
  <path
     d="M 286,95 L 286.75,96.75 C 284.872,97.6425 285.195,95.941 286,95 z "
     style="fill:#fefefe;stroke:#fefefe"
     id="path1190" />
  <path
     d="M 274,99 L 272,98 C 271.2675,94.716 274.828,97.1181 274,99 z "
     style="fill:white;stroke:white"
     id="path1191" />
  <path
     d="M 312,96 L 310.25,96.75 L 312,96 z "
     style="fill:white;stroke:white"
     id="path1192" />
  <path
     d="M 318,96 L 321.75,96.25 C 320.001,99.665 315.846,101.479 312.25,102.25 L 311.75,103.75 L 300,107 L 287.75,113.75 L 284.25,113.75 L 284.25,113.25 L 292.25,108.25 L 306.75,102.75 L 307,102 C 304.921,100.029 308.179,98.109 309.75,99.75 L 318,96 z "
     style="fill:#fafafa;stroke:#fafafa"
     id="path1193" />
  <path
     d="M 255,97 L 256.25,97.75 L 257.75,97.25 L 256.75,103.75 C 253.172,104.5102 253.393,98.862 255,97 z "
     style="fill:#030303;stroke:#030303"
     id="path1194" />
  <path
     d="M 274,99 L 274,102 L 268.75,125.75 L 263.75,132.75 L 258,136 L 255.25,135.75 L 256.25,133.25 L 259.75,132.75 L 271.75,99.75 L 272,98 L 274,99 z "
     style="fill:#040404;stroke:#040404"
     id="path1195" />
  <path
     d="M 176,100 L 176.75,100.25 C 178.559,104.28 181.817,108.947 187,108 L 188.75,108.75 L 190.25,107.25 C 194.231,109.615 197.537,104.808 200.25,102.25 L 202.75,102.25 C 199.595,106.545 194.858,111.474 189,111 L 186,112 C 181.328,110.1 176.146,106.43 175.25,101.25 L 176,100 z "
     style="fill:#030303;stroke:#030303"
     id="path1196" />
  <path
     d="M 229,104 C 227.115,104.1397 229.1398,102.115 229,104 z "
     style="fill:#010101;stroke:#010101"
     id="path1197" />
  <path
     d="M 230,107 C 228.291,106.6904 227.855,105.164 229,104 L 230,107 z "
     style="fill:#010101;stroke:#010101"
     id="path1198" />
  <path
     d="M 230,107 C 231.885,106.8603 229.8602,108.885 230,107 z "
     style="fill:black;stroke:black"
     id="path1199" />
  <path
     d="M 317,107 C 320.489,106.2989 318.277,111.286 316.25,111.25 C 316.0049,114.286 312.507,114.469 310.25,113.75 C 309.2526,110.269 313.651,107.448 316.75,107.75 L 317,107 z "
     style="fill:#fcfcfc;stroke:#fcfcfc"
     id="path1200" />
  <path
     d="M 216,111 C 218.852,113.039 218.473,117.875 216.75,120.75 L 216.25,120.75 L 216,111 z "
     style="fill:#040404;stroke:#040404"
     id="path1201" />
  <path
     d="M 298,115 L 301.75,116.25 C 299.369,119.066 304.884,122.258 307,120 L 308.75,120.25 L 307.75,122.75 L 307,123 L 305,122 C 301.783,122.8337 295.655,120.826 298,117 L 298,115 z "
     style="fill:#030303;stroke:#030303"
     id="path1202" />
  <path
     d="M 339,117 C 338.8603,115.115 340.885,117.1398 339,117 z "
     style="fill:black;stroke:black"
     id="path1203" />
  <path
     d="M 277,118 L 278,119 L 278,126 L 281.75,133.75 C 280.462,137.602 274.961,141.581 271.75,137.25 L 270,137 L 263,140 C 261.38,141.153 258.575,141.77 257.25,139.75 L 257.25,139.25 C 264.689,137.998 273.26,132.743 273.25,124.25 L 275.25,118.25 L 277,118 z "
     style="fill:#030303;stroke:#030303"
     id="path1204" />
  <path
     d="M 278,119 L 277,118 L 278,119 z "
     style="fill:#f7f7f7;stroke:#f7f7f7"
     id="path1205" />
  <path
     d="M 168,119 L 187,119 L 191.75,121.75 L 177,123 C 172.423,126.891 166.23,127.701 160.25,126.75 L 160.25,126.25 C 163.041,126.19135 166.618,124.206 164.25,121.25 L 168,119 z "
     style="fill:#fcfcfc;stroke:#fcfcfc"
     id="path1206" />
  <path
     d="M 318,119 C 318.1397,120.885 316.115,118.8603 318,119 z "
     style="fill:white;stroke:white"
     id="path1207" />
  <path
     d="M 142,131 L 144.75,127.25 C 141.985,127.551 139.961,124.605 140.25,122.25 L 141.75,122.25 L 156,130 L 165,130 C 166.467,130.7516 171.309,133.893 167.25,133.75 L 163.25,132.25 L 164.25,135.75 L 170,137 L 171.25,135.25 L 186.75,131.75 L 198.75,126.75 L 202.75,124.75 L 204.25,121.25 L 207.75,121.25 L 206.75,124.75 L 203.75,127.75 L 187.25,136.25 C 181.234,141.85 171.87,144.538 164,142 L 153.25,140.75 L 154.75,139.75 L 158,137 C 152.389,136.3 146.34,134.405 142,131 z "
     style="fill:#fbfbfb;stroke:#fbfbfb"
     id="path1208" />
  <path
     d="M 195,122 C 196.885,121.8603 194.8602,123.885 195,122 z "
     style="fill:#f2f2f2;stroke:#f2f2f2"
     id="path1209" />
  <path
     d="M 326,122 L 328.75,122.25 C 327.233,126.228 323.355,129.845 319.25,131.25 C 315.649,134.665 311.233,136.963 306,136 L 304.25,136.75 L 302.25,135.75 L 303.25,134.25 C 308.786,134.0252 314.29,133.4294 318.25,129.25 C 321.795,128.234 324.786,125.472 326,122 z "
     style="fill:#030303;stroke:#030303"
     id="path1210" />
  <path
     d="M 383,150 C 384.885,150.1398 382.8603,148.115 383,150 L 376.75,154.75 L 375.25,156.25 L 373.25,157.75 L 373.25,156.25 L 375.75,153.75 L 383,145 L 381.75,142.25 L 379,144 L 379.25,142.25 L 383.75,136.25 L 380,135 L 382,131 L 378.25,128.75 L 381,124 L 383.75,127.25 C 387.151,141.85 391.344,156.08 390,172 L 389,174 L 389,178 L 387.75,179.75 L 381.75,177.25 C 375.629,178.2176 376.785,171.913 379.75,169.25 L 375.75,170.75 L 375,170 L 378.25,165.25 L 382.75,160.25 L 375.25,163.75 C 374.7418,162.268 374.5412,159.721 376.75,159.75 L 383,150 z "
     style="fill:#fbfbfb;stroke:#fbfbfb"
     id="path1211" />
  <path
     d="M 216,126 L 217.75,127.25 C 217.6265,129.886 218.873,132.704 221.75,133.25 L 223.25,135.75 L 232.75,141.25 L 232.75,141.75 L 231,142 L 220.75,136.25 C 216.385,135.009 215.495,129.964 216,126 z "
     style="fill:#030303;stroke:#030303"
     id="path1212" />
  <path
     d="M 277,128 C 280.657,129.232 279.777,137.516 275,136 L 272.25,135.75 L 274.75,132.75 L 277,128 z "
     style="fill:#fafafa;stroke:#fafafa"
     id="path1213" />
  <path
     d="M 168,129 C 169.672,128.5048 172.671,129.6132 171.75,131.75 L 168,129 z "
     style="fill:#fcfcfc;stroke:#fcfcfc"
     id="path1214" />
  <path
     d="M 142,131 C 140.115,131.1398 142.1398,129.115 142,131 z "
     style="fill:#f2f2f2;stroke:#f2f2f2"
     id="path1215" />
  <path
     d="M 376,131 C 375.8603,129.115 377.885,131.1398 376,131 z "
     style="fill:white;stroke:white"
     id="path1216" />
  <path
     d="M 276,131 C 277.834,130.3347 278.559,132.431 277.75,133.75 C 275.82,134.859 275.836,132.162 276,131 z "
     style="fill:#050505;stroke:#050505"
     id="path1217" />
  <path
     d="M 348,255 L 346.25,253.75 C 339.345,242.19 331.24,230.37 329,217 L 324,199 L 322,194 L 322,181 C 335.37,163.61 351.4,144.45 369.75,131.25 L 364.75,140.75 L 359.25,147.25 L 357.75,151.75 C 340.3,182.41 336.64,220.19 348,253.05 L 348,255.05 L 348,255 z "
     style="fill:#fcfcfc;stroke:#fcfcfc"
     id="path1218" />
  <path
     d="M 376,131 L 371.75,138.75 L 370.25,138.75 L 372.75,134.75 L 376,131 z "
     style="fill:#fafafa;stroke:#fafafa"
     id="path1219" />
  <path
     d="M 380,135 L 379,136 L 380,135 z "
     style="fill:#ececec;stroke:#ececec"
     id="path1220" />
  <path
     d="M 379,136 L 378,137 L 379,136 z "
     style="fill:white;stroke:white"
     id="path1221" />
  <path
     d="M 378,137 L 372,144 L 378,137 z "
     style="fill:#fafafa;stroke:#fafafa"
     id="path1222" />
  <path
     d="M 213,139 C 215.461,138.7612 218.244,141.987 216,144 L 216.25,144.75 L 217,145 C 218.81,142.786 222.374,145.4533 221.75,147.75 C 216.183,149.413 213.527,143.316 213,139 z "
     style="fill:#fafafa;stroke:#fafafa"
     id="path1223" />
  <path
     d="M 369,140 C 370.885,139.8602 368.8603,141.885 369,140 z "
     style="fill:white;stroke:white"
     id="path1224" />
  <path
     d="M 252,141 L 256.75,149.25 L 257.75,150.25 L 257.75,150.75 C 254.043,151.2525 257.513,154.911 259.75,154.25 L 258.25,156.75 L 262.25,160.75 L 263.25,161.75 L 265.75,162.25 C 268.251,165.86 270.609,170.198 269.75,174.75 L 268.25,174.75 L 263.25,163.75 L 260.25,161.75 L 259.75,160.25 C 254.537,155.423 251.611,149.27 249,143 L 252,141 z "
     style="fill:#030303;stroke:#030303"
     id="path1225" />
  <path
     d="M 271,142 L 272.75,142.25 L 273.25,146.75 C 275.353,148.018 275.325,150.652 274.75,152.75 L 273.25,151.75 L 271,142 z "
     style="fill:#040404;stroke:#040404"
     id="path1226" />
  <path
     d="M 372,144 C 372.1397,145.885 370.115,143.8602 372,144 z "
     style="fill:white;stroke:white"
     id="path1227" />
  <path
     d="M 379,144 L 378,145 L 379,144 z "
     style="fill:white;stroke:white"
     id="path1228" />
  <path
     d="M 238,145 L 240.75,145.25 L 242,167 C 240.679,171.594 238.635,177.27 241,182 L 239.25,183.75 L 236,172 L 236.25,171.25 C 239.514,172.871 236.6732,168.588 236.25,167.25 L 238.75,167.75 L 236.25,160.25 L 237.75,160.25 L 238.25,161.75 C 240.862,160.262 239.396,157.12 238,155 C 240.001,152.01 238.8488,148.069 238,145 z "
     style="fill:#030303;stroke:#030303"
     id="path1229" />
  <path
     d="M 378,145 L 376,146 L 378,145 z "
     style="fill:#fefefe;stroke:#fefefe"
     id="path1230" />
  <path
     d="M 376,146 C 375.8294,147.597 375.1859,150.491 373,150 L 376,146 z "
     style="fill:#fafafa;stroke:#fafafa"
     id="path1231" />
  <path
     d="M 309,149 L 310.75,149.75 L 309,149 z "
     style="fill:white;stroke:white"
     id="path1232" />
  <path
     d="M 383,150 C 382.8603,148.115 384.885,150.1398 383,150 z "
     style="fill:#090909;stroke:#090909"
     id="path1233" />
  <path
     d="M 373,150 C 373.1397,151.885 371.115,149.8602 373,150 z "
     style="fill:#fcfcfc;stroke:#fcfcfc"
     id="path1234" />
  <path
     d="M 223,153 L 223.75,153.25 C 225.477,157.308 229.691,160.987 228.75,165.75 L 228.25,165.75 L 222.25,154.75 L 223,153 z "
     style="fill:#030303;stroke:#030303"
     id="path1235" />
  <path
     d="M 319,157 C 320.885,156.8602 318.8603,158.885 319,157 z "
     style="fill:white;stroke:white"
     id="path1236" />
  <path
     d="M 292,166 L 293.75,169.25 L 293,171 L 293,211 L 291.25,214.75 L 290,213 L 291,196 L 290,194 C 290.5378,185.297 288.509,175.85 292,168 L 292,166 z "
     style="fill:#020202;stroke:#020202"
     id="path1237" />
  <path
     d="M 305,178 L 309.25,180.75 L 318.75,182.25 L 319,187 L 319.75,193.75 L 303.25,190.75 L 304.25,183.25 L 305,178 z "
     style="fill:#fbfbfb;stroke:#fbfbfb"
     id="path1238" />
  <path
     d="M 421,242 C 422.834,242.6653 423.559,240.569 422.75,239.25 L 421,242 L 416.75,244.75 L 415,247 L 414,248 L 416.25,242.25 C 417.697,242.5043 418.919,240.226 417,240 L 415.25,241.25 L 412.75,243.75 L 410.25,246.25 L 409,247 C 407.081,246.7735 408.3034,244.496 409.75,244.75 L 412.75,239.25 L 411.75,239.75 L 409.75,241.75 L 404.75,246.75 C 401.483,246.1283 404.9302,242.882 406.75,242.75 L 406.75,240.25 L 404,242 C 400.776,238.87 401.548,232.037 403,228 L 400.75,224.25 L 396,223 C 391.967,225.134 388.509,228.475 386.75,232.75 L 380.75,243.75 L 380,244 L 379.75,243.25 L 369,239 L 368.25,239.25 C 366.96,241.66 369.751,243.743 372,243 C 374.541,243.8849 377.459,246.088 380,244 C 379.0245,247.771 378.812,252.979 374,254 L 361.25,249.75 C 361.8231,244.927 363.134,239.72 367.25,236.25 L 379,227 L 385.75,223.25 L 379.75,223.75 C 365.36,230.029 353.93,245.3 355.75,261.75 L 349.25,246.75 C 348.7171,240.725 345.694,233.35 348,228 L 372.25,220.25 L 392.75,210.75 L 394.75,207.25 L 390.25,206.75 L 384.25,208.75 C 380.633,206.901 382.813,210.759 384.75,210.75 L 378,211 L 377.25,212.75 C 383.595,214.331 373.78,216.215 372,213 L 371.25,214.75 C 377.568,216.852 367.684,219.937 366,216 L 364,216 L 367.75,219.75 L 357.25,218.25 L 360.75,221.75 C 358.414,223.726 356.633,221.4794 354.25,220.75 C 353.088,219.8148 350.521,218.233 350.25,220.75 L 355.75,223.75 L 346.25,220.75 C 344.783,208.34 345.9982,195.46 350.25,183.25 C 362.16,175.849 376.8,179.651 388.75,183.25 L 404,197 L 400.25,202.75 C 408.078,200.958 418.86,197.537 425,205 L 418,215 C 428.39,209.85 438.42,201.65 450.75,203.25 C 444.951,215.5 437.57,229.73 444,243 L 445.75,250.75 C 431.75,251.1841 417.66,258.704 404.25,251.75 L 404,250 L 416.25,249.25 L 433.75,247.75 L 433.75,245.25 L 429,246 L 430.75,240.25 L 425.75,246.75 C 419.859,248.386 423.951,244.059 426.25,242.25 L 428,239 L 419.75,247.75 L 416.25,247.75 L 421,242 z "
     style="fill:#fcfcfc;stroke:#fcfcfc"
     id="path1239" />
  <path
     d="M 241,184 C 242.885,183.8602 240.8602,185.885 241,184 z "
     style="fill:black;stroke:black"
     id="path1240" />
  <path
     d="M 272,185 C 271.8603,183.115 273.885,185.1398 272,185 z "
     style="fill:black;stroke:black"
     id="path1241" />
  <path
     d="M 383,190 C 383.1397,188.115 381.115,190.1398 383,190 L 384,193 L 378.25,189.75 L 373.25,187.25 L 376,191 L 365.25,187.25 L 369,191 L 359.25,187.25 L 363,192 L 355.25,188.75 L 355,188 L 360,185 L 367.75,184.25 L 377,185 L 386.75,188.25 L 393.75,192.25 L 393.75,195.75 L 383,190 z "
     style="fill:#030303;stroke:#030303"
     id="path1242" />
  <path
     d="M 272,185 L 271,192 C 273.277,194.24 270.6576,195.981 268.25,194.75 L 268,194 L 272,185 z "
     style="fill:#030303;stroke:#030303"
     id="path1243" />
  <path
     d="M 125,187 L 127,188 L 134,188 L 138,190 L 142,190 L 150,193 C 167.1,195.845 182.53,204.16 198.75,210.25 L 200.75,212.25 C 210.414,236.55 211.16,264.23 209,291 L 208,293 L 208.75,296.75 L 207.25,295.75 L 206,289 L 203.25,283.75 C 192.56,253.83 175,224.4 148.25,204.75 L 136.75,195.25 L 125.25,189.75 L 125,187 z "
     style="fill:#fdfdfd;stroke:#fdfdfd"
     id="path1244" />
  <path
     d="M 233,187 C 234.885,186.8602 232.8602,188.885 233,187 z "
     style="fill:#f8f8f8;stroke:#f8f8f8"
     id="path1245" />
  <path
     d="M 125,193 L 120.25,193.25 L 120.25,193.75 L 134.75,203.25 L 136,205 C 130.549,203.673 125.92,200.038 121.75,196.25 L 120.25,196.25 L 120,197 L 125.25,202.75 L 129,206 L 123.25,204.25 L 123.25,206.75 L 138.75,215.25 L 139.75,217.25 L 139,218 L 125.25,212.25 L 126.25,214.75 L 133.25,218.75 L 140.75,222.75 L 130.25,219.25 C 129.062,221.977 132.334,224.322 134.75,224.25 L 143.75,228.25 L 133.25,227.25 L 144.75,233.25 L 142,237 L 135.25,231.25 C 134.5794,233.163 137.129,234.819 138.75,235.25 L 142,237 C 139.806,240.179 139.19,246.617 134,246 L 132,244 L 130,240 L 129,238 L 128,236 L 128,234 L 123,221 L 120,212 L 117,200 L 117,195 L 116,190 L 117.25,188.25 L 119.25,189.75 C 121.271,188.583 124.082,190.962 125,193 z "
     style="fill:#fbfbfb;stroke:#fbfbfb"
     id="path1246" />
  <path
     d="M 383,190 C 381.115,190.1398 383.1397,188.115 383,190 z "
     style="fill:#f8f8f8;stroke:#f8f8f8"
     id="path1247" />
  <path
     d="M 369,191 C 370.885,190.8602 368.8603,192.885 369,191 z "
     style="fill:black;stroke:black"
     id="path1248" />
  <path
     d="M 450,254 C 451.885,254.1398 449.8603,252.115 450,254 C 447.306,250.984 445.702,246.365 446,242 C 439.207,223.04 451.435,204.17 465.25,191.25 L 469.75,191.25 C 486.14,202.99 504.05,212.42 522.75,219.25 L 519.25,229.75 L 522.75,226.75 L 527.25,219.25 C 533.164,216.502 540.2,218.5321 546,220 L 567.75,221.25 L 569,227 C 565.296,235.938 561.422,244.83 562,255 L 560.75,257.75 C 555.939,258.1548 550.35,259.093 547,255 L 542,249 C 544.089,243.03 549.279,249.02173 551.75,249.75 L 550.75,237.25 L 547,244 L 544.75,230.25 L 544,231 L 543.75,243.75 C 536.049,245.488 537.485,253.594 543.75,256.25 C 548.096,263.115 556.75,262.609 562.75,259.25 L 564.75,261.25 L 564.75,264.75 L 553,265 L 551.75,263.25 L 550.75,266.75 L 528.25,260.75 C 526.317,257.331 524.871,252.966 526.75,249.25 L 521.75,234.25 L 522.25,254.75 L 520.75,251.25 L 517.25,247.25 L 518.75,254.75 L 517,256 C 497.92,256.5777 479.7,259.828 462.25,266.25 L 461.75,267.75 L 459,268 L 450,254 z "
     style="fill:#fcfcfc;stroke:#fcfcfc"
     id="path1249" />
  <path
     d="M 251,200 L 249.25,192.25 L 251.75,193.25 L 251,196 C 251.6245,197.065 253.054,199.541 251,200 z "
     style="fill:#030303;stroke:#030303"
     id="path1250" />
  <path
     d="M 363,192 C 364.375,192.1402 367.63,192.8102 366.75,194.75 L 363,192 z "
     style="fill:#030303;stroke:#030303"
     id="path1251" />
  <path
     d="M 125,193 L 134.75,199.25 L 135.75,200.75 L 135,201 L 125.25,194.75 L 125,193 z "
     style="fill:#fdfdfd;stroke:#fdfdfd"
     id="path1252" />
  <path
     d="M 211,193 L 212.75,193.25 C 214.667,200.597 216.357,208.34 222,214 L 221.75,214.75 L 220.25,214.25 L 210.75,228.75 L 210,229 L 209.25,228.75 L 209,226 L 201.75,208.25 L 198.25,207.75 L 196,206 L 211.75,194.75 L 211,193 z "
     style="fill:#fbfbfb;stroke:#fbfbfb"
     id="path1253" />
  <path
     d="M 278,197 L 283.75,197.25 C 285.302,199.889 281.891,200.623 281,202 L 282.75,203.25 C 283.4288,205.276 286.804,207.89 283,209 L 281.25,207.75 L 281.75,206.25 C 278.551,204.039 277.236,200.854 278,197 z "
     style="fill:#030303;stroke:#030303"
     id="path1254" />
  <path
     d="M 469,202 L 468.25,200.25 L 469,202 z "
     style="fill:#010101;stroke:#010101"
     id="path1255" />
  <path
     d="M 469,202 L 472.75,202.25 L 478.25,208.75 L 483.25,211.75 L 488.25,214.75 L 490.75,215.25 L 511.75,226.25 L 512.75,227.75 L 510,230 L 507.75,227.25 L 500.25,224.75 L 473.25,207.75 L 472.75,206.25 L 469,202 z "
     style="fill:#040404;stroke:#040404"
     id="path1256" />
  <path
     d="M 249,234 L 227.25,206.75 L 226.25,203.25 L 228.75,203.25 L 236.75,213.25 C 238.946,220.428 243.679,226.61 248.75,232.25 L 249,234 z "
     style="fill:#040404;stroke:#040404"
     id="path1257" />
  <path
     d="M 136,205 C 137.885,204.8602 135.8602,206.885 136,205 z "
     style="fill:#fdfdfd;stroke:#fdfdfd"
     id="path1258" />
  <path
     d="M 479,205 C 480.885,204.8602 478.8603,206.885 479,205 z "
     style="fill:black;stroke:black"
     id="path1259" />
  <path
     d="M 131,207 L 129,206 L 131,207 z "
     style="fill:white;stroke:white"
     id="path1260" />
  <path
     d="M 132,208 L 131,207 L 132,208 z "
     style="fill:white;stroke:white"
     id="path1261" />
  <path
     d="M 132,208 L 137.75,210.75 L 132.25,208.75 L 132,208 z "
     style="fill:#fefefe;stroke:#fefefe"
     id="path1262" />
  <path
     d="M 242,208 C 243.885,207.8602 241.8602,209.885 242,208 z "
     style="fill:#f8f8f8;stroke:#f8f8f8"
     id="path1263" />
  <path
     d="M 439,211 L 440.75,214.75 L 431.25,216.75 L 435.75,217.75 L 430,219 L 429,219 C 427.828,217.875 425.441,217.675 425.25,219.75 L 429,220 L 427,221 L 420.25,223.75 L 420.25,222.25 L 426.25,216.25 L 438.75,211.75 L 439,211 z "
     style="fill:#040404;stroke:#040404"
     id="path1264" />
  <path
     d="M 283,217 L 284.75,218.75 L 282.75,220.75 L 280.25,221.25 L 278.75,222.75 L 259,228 L 256,228 L 253.25,226.75 L 252,224 L 253,223 L 254.25,223.75 L 255.25,223.25 L 257,224 L 260,223 L 280.75,218.75 L 283,217 z "
     style="fill:#fbfbfb;stroke:#fbfbfb"
     id="path1265" />
  <path
     d="M 321,220 L 323.75,220.25 L 322.75,224.75 L 312.25,232.25 L 302,242 L 299.25,240.75 L 299.25,239.25 C 303.675,238.101 306.409,234.083 308.25,230.25 L 310.25,228.25 L 320.75,220.75 L 321,220 z "
     style="fill:#040404;stroke:#040404"
     id="path1266" />
  <path
     d="M 573,222 C 571.115,222.1398 573.1397,220.115 573,222 z "
     style="fill:white;stroke:white"
     id="path1267" />
  <path
     d="M 194,284 C 195.959,281.668 198.305,279.234 195.75,276.25 L 192.25,281.25 C 182.977,292.06 168.8,297.03 156,298 L 152,300 L 145.25,299.75 L 138.25,292.25 C 135.843,296.456 140.028,301.725 143.75,302.75 C 139.844,303.3309 137.913,307.208 136.25,309.75 C 133.6,301.074 128.17,293.04 122.75,286.25 L 119.25,284.75 L 119.25,283.25 C 121.648,283.8374 129.54,287.198 128.25,282.25 L 129,282 C 132.005,282.206 136.683,282.6119 136.25,278.25 L 137.75,276.25 L 129,276 L 128,277 C 130.182,281.184 123.003,277.7238 121,278 L 115,281 L 108,276 L 109.25,274.25 L 135,273 C 141.175,276.479 151.17,278.063 157.25,273.25 L 159.75,272.75 L 154,271 L 139.75,269.75 L 128.25,269.25 L 129.75,268.75 C 135.264,264.117 142.29,262.374 149,261 L 151.75,262.75 L 151.75,259.25 L 147,258 L 156.75,253.75 L 150.25,253.75 L 157.75,249.25 L 150,251 L 155,246 L 158,245 L 159.75,244.25 L 158,245 L 155,246 L 151.25,246.75 L 160.75,240.75 L 160,239 L 155.25,240.75 L 158.75,236.75 L 164.75,229.25 L 163.25,228.25 L 161.75,230.75 L 149.75,239.75 L 143,255 L 144.75,258.75 L 138,261 L 137,257 C 141.673,243.97 148.68,230.85 160.25,222.25 L 162,222 L 182.75,249.25 L 182.75,250.75 C 181.192,249.997 175.568,248.68 176.25,251.75 L 185.75,253.25 L 199.75,282.75 L 194,284 z "
     style="fill:#fcfcfc;stroke:#fcfcfc"
     id="path1268" />
  <path
     d="M 573,222 C 578.034,225.464 577.885,233.15 575,238 L 574,248 L 573,254 L 571.75,256.75 L 566.25,258.75 L 565,257 L 566,251 L 573,222 z "
     style="fill:#fbfbfb;stroke:#fbfbfb"
     id="path1269" />
  <path
     d="M 347,223 L 349.75,224.75 C 348.346,227.19 346.104,225.2869 347,223 z "
     style="fill:#fbfbfb;stroke:#fbfbfb"
     id="path1270" />
  <path
     d="M 566,226 L 559.25,224.75 L 559.25,224.25 C 561.442,223.9596 565.226,223.087 566,226 z "
     style="fill:#030303;stroke:#030303"
     id="path1271" />
  <path
     d="M 278,225 L 278.75,225.25 L 282.75,232.75 L 280,232 L 279,233 L 279,237 L 279.75,238.25 L 276.25,247.25 L 276,258 L 275.75,260.75 L 274.25,260.75 C 269.377,256.064 270.965,248.85 274.75,244.25 L 272.75,242.25 L 269.75,246.75 L 268.25,249.75 L 268,247 C 270.416,242.187 273.896,236.41 271,231 L 270.25,227.25 L 278,225 z "
     style="fill:#fbfbfb;stroke:#fbfbfb"
     id="path1272" />
  <path
     d="M 389,293 L 388.25,294.75 L 389,293 L 390.75,291.75 L 395,285 L 396,284 C 397.885,284.1397 395.8603,282.115 396,284 L 395,285 L 391.25,285.75 L 395.75,281.75 L 396,280 C 397.885,280.1397 395.8603,278.115 396,280 L 392.75,281.75 L 391.25,282.75 L 393.25,278.25 C 395.191,277.5469 398.164,275.492 397.75,273.25 L 393,276 C 392.237,272.578 396,271.059 397.75,268.75 L 395.25,268.75 L 402.25,257.25 C 412.66,256.6003 421.25,263.072 428.75,269.25 L 447.25,306.75 L 454,313 L 452.75,333.75 L 449,334 C 438.27,328.852 432.77,317.61 428.75,307.25 C 424.993,297.04 415.32,282.57 402.75,288.75 L 388.75,297.75 L 374.25,300.25 L 368.25,304.25 L 367.25,308.75 L 368,314 C 374.423,323.916 374.119,335.77 376,347 L 374.75,348.75 L 373,345 L 371,330 C 366.188,317.52 360.92,305.18 362,291 C 364.454,284.177 368.485,277.46 374.75,273.25 L 379.25,297.75 L 380.75,297.75 C 376.652,281.27 377.742,263.17 382,247 L 391.25,228.25 L 394.75,227.25 L 385,249 C 380.72,263.27 380.625,279.52 384.25,293.75 L 385.75,294.75 C 387.55,293.387 387.744,289.099 386,288 L 385,280 L 384,278 C 382.815,259.95 387.115,242.76 397.75,228.75 L 398.25,226.25 L 399.75,226.25 L 401,249 L 401,253 L 395.25,260.25 C 396.2387,261.462 394.9847,264.822 393.25,263.25 L 393.75,265.75 L 392.25,266.25 L 389,288 L 388,291 L 389,293 z "
     style="fill:#fcfcfc;stroke:#fcfcfc"
     id="path1273" />
  <path
     d="M 516,226 L 517,227 L 517,233 C 518.292,234.346 518.148,236.594 516,237 C 512.088,234.932 514.134,228.935 516,226 z "
     style="fill:#040404;stroke:#040404"
     id="path1274" />
  <path
     d="M 566,226 C 567.885,225.8602 565.8603,227.885 566,226 z "
     style="fill:black;stroke:black"
     id="path1275" />
  <path
     d="M 580,228 L 580.75,229.75 L 580,228 z "
     style="fill:#f8f8f8;stroke:#f8f8f8"
     id="path1276" />
  <path
     d="M 142,237 L 138.75,235.25 C 137.129,234.8187 134.579,233.163 135.25,231.25 L 142,237 z "
     style="fill:#020202;stroke:#020202"
     id="path1277" />
  <path
     d="M 580,231 L 583,234 L 579,252 L 578,257 L 576.75,259.75 L 573.25,260.75 L 576.75,253.75 L 577,245 L 580,231 z "
     style="fill:#fcfcfc;stroke:#fcfcfc"
     id="path1278" />
  <path
     d="M 509,232 C 511.142,231.5148 512.41,234.642 511,236 L 511.75,241.75 L 510.25,241.75 L 509,232 z "
     style="fill:#040404;stroke:#040404"
     id="path1279" />
  <path
     d="M 249,234 C 250.885,233.8602 248.8602,235.885 249,234 z "
     style="fill:black;stroke:black"
     id="path1280" />
  <path
     d="M 282,234 L 283.75,234.25 L 283,244 L 280.25,247.75 L 280.25,246.25 L 282,234 z "
     style="fill:#fcfcfc;stroke:#fcfcfc"
     id="path1281" />
  <path
     d="M 129,238 L 128,236 L 129,238 z "
     style="fill:#0a0a0a;stroke:#0a0a0a"
     id="path1282" />
  <path
     d="M 130,240 L 129,238 L 130,240 z "
     style="fill:#060606;stroke:#060606"
     id="path1283" />
  <path
     d="M 502,238 C 503.885,237.8602 501.8603,239.885 502,238 z "
     style="fill:black;stroke:black"
     id="path1284" />
  <path
     d="M 586,238 L 588,240 L 585,248 L 582.75,260.75 L 580.25,262.75 L 580,261 L 585.75,239.75 L 586,238 z "
     style="fill:#fafafa;stroke:#fafafa"
     id="path1285" />
  <path
     d="M 380,244 C 377.459,246.088 374.541,243.8849 372,243 C 369.751,243.7433 366.96,241.66 368.25,239.25 L 369,239 L 379.75,243.25 L 380,244 z "
     style="fill:#030303;stroke:#030303"
     id="path1286" />
  <path
     d="M 421,242 L 422.75,239.25 C 423.5589,240.569 422.83368,242.665 421,242 z "
     style="fill:black;stroke:black"
     id="path1287" />
  <path
     d="M 132,244 L 130,240 L 132,244 z "
     style="fill:#040404;stroke:#040404"
     id="path1288" />
  <path
     d="M 162,241 C 163.885,240.8602 161.8602,242.885 162,241 z "
     style="fill:black;stroke:black"
     id="path1289" />
  <path
     d="M 165,241 C 166.885,240.8602 164.8602,242.885 165,241 z "
     style="fill:black;stroke:black"
     id="path1290" />
  <path
     d="M 134,246 L 132,244 L 134,246 z "
     style="fill:#050505;stroke:#050505"
     id="path1291" />
  <path
     d="M 158,245 L 159.75,244.25 L 158,245 z "
     style="fill:#060606;stroke:#060606"
     id="path1292" />
  <path
     d="M 158,245 L 155,246 L 158,245 z "
     style="fill:#080808;stroke:#080808"
     id="path1293" />
  <path
     d="M 494,247 L 499.75,247.25 L 506.75,248.25 C 507.1978,250.553 500.914,255.38 503,251 L 501.75,249.25 L 495.25,254.25 C 491.616,254.6867 496.483,250.645 497.75,250.25 C 493.508,249.135 490.676,253.545 487.25,255.25 C 484.938,258.103 482.418,255.3748 486,254 L 490.75,250.25 L 477.25,257.75 L 481.75,251.25 L 478.25,251.25 L 477.75,253.75 L 467.25,260.75 C 466.121,258.418 468.722,256.251 470.75,255.75 L 474.75,252.25 C 471.896,250.71 470.303,253.462 469,255 L 460.25,259.75 L 465.75,254.25 L 458.25,254.75 L 459.25,252.25 L 471,249 L 493,248 L 494,247 z "
     style="fill:#040404;stroke:#040404"
     id="path1294" />
  <path
     d="M 150,251 L 148.25,251.75 L 150,251 z "
     style="fill:white;stroke:white"
     id="path1295" />
  <path
     d="M 450,254 C 449.8603,252.115 451.885,254.1398 450,254 z "
     style="fill:black;stroke:black"
     id="path1296" />
  <path
     d="M 557,253 L 560.75,253.75 L 558.25,254.25 L 557,253 z "
     style="fill:#030303;stroke:#030303"
     id="path1297" />
  <path
     d="M 168,254 L 176,255 L 186.75,258.25 L 186.75,258.75 L 184,259 L 175,257 L 168.25,255.75 L 168,254 z "
     style="fill:#040404;stroke:#040404"
     id="path1298" />
  <path
     d="M 568,254 L 569.75,254.75 L 568,254 z "
     style="fill:#010101;stroke:#010101"
     id="path1299" />
  <path
     d="M 348,255 L 349.75,256.75 L 348,255 z "
     style="fill:#fcfcfc;stroke:#fcfcfc"
     id="path1300" />
  <path
     d="M 367,255 L 375.75,257.25 L 369.75,270.75 L 366.75,273.75 L 363.25,277.75 L 367.75,267.75 L 369.75,262.25 L 360.25,270.75 L 360,268 L 367,255 z "
     style="fill:#fbfbfb;stroke:#fbfbfb"
     id="path1301" />
  <path
     d="M 162,257 L 165,258 L 185.75,262.25 L 187.75,263.75 L 186,264 L 184,263 L 169,261 L 161.25,259.75 L 162,257 z "
     style="fill:#040404;stroke:#040404"
     id="path1302" />
  <path
     d="M 252,258 C 257.521,256.475 260.311,261.925 262,266 L 258.25,268.25 C 257.187,269.98 255.486,270.35 254,269 L 253,271 L 254.75,272.75 L 262.75,270.25 L 265.75,282.75 L 261.25,285.25 C 259.238,287.922 256.146,288.885 253,289 C 247.705,283.007 245.801,274.39 243,267 L 243.25,263.25 L 252,258 z "
     style="fill:#030303;stroke:#030303"
     id="path1303" />
  <path
     d="M 252,260 C 255.316,259.6027 258.153,261.927 259,265 C 257.489,268.196 253.581,265.5573 252.75,263.25 L 250.25,264.25 C 249.214,270.231 252.641,275.29 254.25,280.75 C 256.083,282.038 258.746,281.619 260,280 L 258,275 L 261.25,273.75 L 263.75,280.75 L 262.75,281.75 L 253.25,285.75 L 246.75,269.25 L 245,267 L 245,265 L 252,260 z "
     style="fill:#fbfbfb;stroke:#fbfbfb"
     id="path1304" />
  <path
     d="M 159,262 L 170.75,264.75 L 162.25,264.25 L 163,265 L 168.75,266.25 L 168.75,266.75 L 154.25,265.75 L 154,265 L 155,264 L 160.75,264.75 L 159,262 z "
     style="fill:#040404;stroke:#040404"
     id="path1305" />
  <path
     d="M 273,266 L 273.25,266.75 L 274.75,267.25 L 277.25,276.75 L 279,277 C 284.377,276.8979 280.461,271.618 280,269 C 278.444,267.12 277.192,264.851 278.25,262.25 L 280.75,262.25 L 284.75,277.75 L 278.25,280.25 C 277.9853,283.864 282.9,289.666 277.25,291.75 L 276,286 L 272.75,274.25 L 269,268 C 269.6692,266.46 271.385,264.253 273,266 z "
     style="fill:#fbfbfb;stroke:#fbfbfb"
     id="path1306" />
  <path
     d="M 273,266 C 272.8603,264.115 274.885,266.1397 273,266 z "
     style="fill:white;stroke:white"
     id="path1307" />
  <path
     d="M 295,265 L 304,282 L 304.25,284.75 L 306,285 C 307.927,283.771 310.879,282.084 311.25,285.75 C 313.431,285.7652 312.977,287.575 312.25,288.75 L 313.75,291.75 L 298.25,296.75 C 295.96,287.2 294.203,277.47 289,269 L 295,265 z "
     style="fill:#040404;stroke:#040404"
     id="path1308" />
  <path
     d="M 149,267 L 156,268 L 164.75,269.75 L 160.75,270.75 L 150.25,269.75 L 149,267 z "
     style="fill:#030303;stroke:#030303"
     id="path1309" />
  <path
     d="M 292,268 L 295.75,268.25 L 303.25,288.75 L 308.75,287.25 L 310,290 L 301.25,293.75 L 299.25,290.75 L 292.25,269.75 L 292,268 z "
     style="fill:#fbfbfb;stroke:#fbfbfb"
     id="path1310" />
  <path
     d="M 375,268 C 376.978,268.1194 375.5378,270.952 374.25,270.75 L 375,268 z "
     style="fill:#fdfdfd;stroke:#fdfdfd"
     id="path1311" />
  <path
     d="M 139,271 L 141,272 L 138.75,271.75 L 139,271 z "
     style="fill:#fcfcfc;stroke:#fcfcfc"
     id="path1312" />
  <path
     d="M 277,271 C 278.834,270.3347 279.559,272.431 278.75,273.75 L 277,271 z "
     style="fill:#fefefe;stroke:#fefefe"
     id="path1313" />
  <path
     d="M 315,303 L 317.25,299.25 L 321.25,296.25 L 328.75,291.75 L 336.25,278.25 L 339.25,275.25 L 344.25,271.25 L 345.75,271.25 L 339.25,279.25 L 335.25,286.25 L 334.75,288.75 L 317.75,302.75 L 315,303 z "
     style="fill:#030303;stroke:#030303"
     id="path1314" />
  <path
     d="M 152,273 L 153.75,273.75 L 152,273 z "
     style="fill:white;stroke:white"
     id="path1315" />
  <path
     d="M 352,276 L 352.75,274.25 L 352,276 z "
     style="fill:#020202;stroke:#020202"
     id="path1316" />
  <path
     d="M 413,274 C 414.885,273.8603 412.8603,275.885 413,274 z "
     style="fill:black;stroke:black"
     id="path1317" />
  <path
     d="M 120,325 C 121.885,325.1397 119.8602,323.115 120,325 L 114,329 L 116.75,325.25 L 109,330 L 109.75,327.25 L 107,331 L 103,332 L 104,330 L 103.75,329.25 L 96.25,335.75 L 96,334 L 96.75,332.25 L 96,334 L 90.25,337.75 L 90,337 L 92.75,332.25 L 90,337 L 89.25,337.25 L 88,334 C 89.885,334.1397 87.8602,332.115 88,334 L 85.25,335.25 L 85,341 C 81.629,350.36 95.86,361.04 86.25,369.25 L 82,377 L 76.25,372.25 L 76.25,374.75 L 79.75,378.75 L 63,387 L 60.25,384.75 C 58.889,378.701 65.527,374.71 70.75,374.75 C 74.065,369.711 76.935,364.13 77,358 L 77.75,356.25 L 72,357 C 69.602,355.063 67.058,353.51 64.25,354.75 L 64,353 C 65.823,349.696 69.441,344.654 67.25,341.25 L 66.25,344.25 C 62.35,349.706 63.101,336.045 59,341 L 60.75,344.25 L 61.75,345.25 L 56.25,344.25 L 56.25,345.75 L 62,361 C 61.8469,363.156 62.9855,367.374 65.75,366.75 L 64.25,358.25 C 68.186,356.909 71.488,362.369 71,366 C 70.1433,369.77 66.389,370.876 63.25,372.25 C 60.874,375.383 56.692,377.314 53.25,374.75 L 41,349 L 43,357 L 45.75,363.25 L 49.75,376.75 L 45,380 L 34,357 L 34,355 L 35.75,355.75 L 33.25,352.75 L 28,343 C 29.977,339.182 34.51,336.936 38.75,338.25 C 38.4833,341.965 41.238,345.577 44.75,345.75 L 43.75,342.25 C 37.617,335.194 49.446,327.49 56,332 L 70.75,329.75 C 70.69239,322.459 62.215,328.354 58.25,327.75 L 60.25,322.25 C 71.23,307.39 86.35,294.41 91.25,276.25 L 96,278 L 101,278 C 123.06,284.262 139.02,308.44 135,331 L 133.25,333.25 L 133.75,334.75 L 94,345 L 89.25,343.75 L 90.25,341.25 L 124.75,328.75 L 126.75,325.25 L 120,325 z "
     style="fill:#fcfcfc;stroke:#fcfcfc"
     id="path1318" />
  <path
     d="M 256,277 C 254.115,277.1397 256.1397,275.115 256,277 z "
     style="fill:#f4f4f4;stroke:#f4f4f4"
     id="path1319" />
  <path
     d="M 352,276 L 352.75,283.75 C 348.09,291.064 340.06,295.41 333.25,300.25 C 330.255,303.646 326.713,306.6 322.25,307.25 C 316.348,311.066 309.46,312.94 302.25,311.75 L 304,310 L 305.75,310.75 L 317.75,306.75 L 326.75,300.75 L 343.25,288.25 L 344.75,287.75 L 348.25,280.25 L 350.75,280.75 L 352,276 z "
     style="fill:#030303;stroke:#030303"
     id="path1320" />
  <path
     d="M 393,276 C 393.1397,277.885 391.115,275.8603 393,276 z "
     style="fill:white;stroke:white"
     id="path1321" />
  <path
     d="M 256,277 L 256.75,278.75 L 256,277 z "
     style="fill:white;stroke:white"
     id="path1322" />
  <path
     d="M 396,280 C 395.8603,278.115 397.885,280.1397 396,280 z "
     style="fill:black;stroke:black"
     id="path1323" />
  <path
     d="M 122,281 C 123.488,281.3196 127.763,279.932 126.75,282.75 L 126.25,282.75 L 122,281 z "
     style="fill:#fdfdfd;stroke:#fdfdfd"
     id="path1324" />
  <path
     d="M 356,287 L 355,288 C 352.236,286.948 355.6369,282.336 357.75,283.25 L 356.25,285.25 L 356,287 z "
     style="fill:#030303;stroke:#030303"
     id="path1325" />
  <path
     d="M 396,284 C 395.8603,282.115 397.885,284.1397 396,284 z "
     style="fill:black;stroke:black"
     id="path1326" />
  <path
     d="M 194,284 C 194.1398,285.885 192.115,283.8603 194,284 z "
     style="fill:white;stroke:white"
     id="path1327" />
  <path
     d="M 396,284 L 395,285 L 396,284 z "
     style="fill:#030303;stroke:#030303"
     id="path1328" />
  <path
     d="M 94,288 L 94.75,286.25 L 94,288 z "
     style="fill:#030303;stroke:#030303"
     id="path1329" />
  <path
     d="M 176,287 C 177.885,286.8603 175.8602,288.885 176,287 z "
     style="fill:#0c0c0c;stroke:#0c0c0c"
     id="path1330" />
  <path
     d="M 356,287 L 355,288 L 356,287 z "
     style="fill:white;stroke:white"
     id="path1331" />
  <path
     d="M 355,288 L 356,287 L 357.75,287.25 C 357.3555,288.74 353.343,291.824 356.75,292.25 L 357,293 L 353.25,296.75 L 354.75,293.75 L 355,288 z "
     style="fill:#030303;stroke:#030303"
     id="path1332" />
  <path
     d="M 94,288 L 90.25,297.25 L 80.75,311.75 L 76.25,317.25 L 76,320 L 81.25,324.75 C 83.894,326.46 80.029,329.923 79,327 L 79,326 L 78,325 L 70,319 L 73.25,314.25 L 76.75,311.75 L 85.25,299.25 L 93.25,288.25 L 94,288 z "
     style="fill:#040404;stroke:#040404"
     id="path1333" />
  <path
     d="M 386,288 L 385.25,289.75 L 386,288 z "
     style="fill:#fafafa;stroke:#fafafa"
     id="path1334" />
  <path
     d="M 426,290 C 427.885,289.8603 425.8603,291.885 426,290 z "
     style="fill:black;stroke:black"
     id="path1335" />
  <path
     d="M 188,293 C 186.115,293.1397 188.1398,291.115 188,293 z "
     style="fill:#f8f8f8;stroke:#f8f8f8"
     id="path1336" />
  <path
     d="M 188,293 L 198.75,296.25 L 203.75,302.25 L 203.75,303.75 L 203,304 L 191.75,297.25 L 188,293 z "
     style="fill:#fbfbfb;stroke:#fbfbfb"
     id="path1337" />
  <path
     d="M 216,292 L 217.75,292.25 L 228.25,305.75 C 233.847,310.967 240.37,315.312 248,316 L 252,318 L 245,317 C 242.211,316.6425 238.553,318.135 236.75,315.25 L 216.25,294.75 L 216,292 z "
     style="fill:#040404;stroke:#040404"
     id="path1338" />
  <path
     d="M 389,293 L 388.25,294.75 L 389,293 z "
     style="fill:#010101;stroke:#010101"
     id="path1339" />
  <path
     d="M 182,294 L 183.75,294.25 C 189.027,299.753 194.85,304.37 201.75,307.25 L 202.75,308.75 L 202,309 C 194.639,305.736 185.95,303.012 181,296 L 182,294 z "
     style="fill:#fbfbfb;stroke:#fbfbfb"
     id="path1340" />
  <path
     d="M 408,294 L 415.75,294.25 C 420.273,297.894 422.982,303.105 422,309 L 421.75,314.75 L 418.25,313.75 L 419,309 L 416.75,299.25 L 411.25,297.25 L 407.75,300.75 L 406.25,301.25 L 406.25,306.75 L 408.75,312.75 L 405.25,312.75 L 403,302 L 408,294 z "
     style="fill:#fbfbfb;stroke:#fbfbfb"
     id="path1341" />
  <path
     d="M 172,297 L 173,298 C 168.974,302.913 162.13,304.482 156,305 L 154,306 L 150.25,305.75 L 154.25,302.25 L 171.75,297.75 L 172,297 z "
     style="fill:#fcfcfc;stroke:#fcfcfc"
     id="path1342" />
  <path
     d="M 358,299 L 359,300 L 359,305 L 370,338 L 369.75,344.75 L 368,343 L 367,340 L 367,337 C 364.265,331.519 362.495,325.76 357.25,321.75 L 350,311 L 356.25,301.25 L 357.75,300.75 L 358,299 z "
     style="fill:#fbfbfb;stroke:#fbfbfb"
     id="path1343" />
  <path
     d="M 207,300 C 208.885,299.8603 206.8602,301.885 207,300 z "
     style="fill:white;stroke:white"
     id="path1344" />
  <path
     d="M 463,301 L 465,302 C 465.4073,307.428 467.422,313.7 465,319 L 463,346 L 454.75,373.75 L 452.25,374.75 L 454.25,367.25 C 460.82,353.9 461.579,337.94 464,324 C 463.5261,321.393 465.389,317.074 462,316 L 461.25,316.25 C 462.355,319.687 462.686,324.62 461,328 L 459,340 L 459,346 C 455.359,357.48 453.452,369.56 447.25,380.25 L 442.75,392.75 L 434.25,396.75 L 434.25,394.25 L 435.75,393.75 L 442.25,377.25 L 448.25,364.25 L 449.75,363.75 L 449,362 L 450.75,360.75 L 450,359 L 455,346 L 454.25,343.25 L 456,340 L 458,330 L 457,328 C 459.336,322.078 457.5855,315.03 457,309 L 463,301 z "
     style="fill:#fbfbfb;stroke:#fbfbfb"
     id="path1345" />
  <path
     d="M 413,302 C 415.986,300.798 418.707,304.958 415.75,306.75 C 413.363,308.196 411.351,304.59 413,303 L 413,302 z "
     style="fill:#fcfcfc;stroke:#fcfcfc"
     id="path1346" />
  <path
     d="M 315,303 C 315.1397,304.885 313.115,302.8603 315,303 z "
     style="fill:black;stroke:black"
     id="path1347" />
  <path
     d="M 391,319 L 388.25,317.75 L 389,316 C 387.182,312.751 384.068,309.509 380.25,309.25 C 376.018,310.62 374.71,316.438 377,320 L 382,328 L 380.75,331.75 L 377.25,328.75 C 375.084,322.457 371.383,316.47 373.25,309.25 C 376.608,304.15 383.157,303.968 387.75,307.25 L 392,316 L 391,319 z "
     style="fill:#fbfbfb;stroke:#fbfbfb"
     id="path1348" />
  <path
     d="M 146,307 L 147.75,307.25 C 148.3322,312.255 142.501,315.812 139.25,318.75 C 139.21347,317.133 136.313,312.13 139.75,313.75 L 141.25,309.25 L 145.75,307.75 L 146,307 z "
     style="fill:#fbfbfb;stroke:#fbfbfb"
     id="path1349" />
  <path
     d="M 206,308 C 207.597,308.4472 207.597,312.553 206,313 L 205.25,312.75 L 205.75,308.75 L 206,308 z "
     style="fill:#fafafa;stroke:#fafafa"
     id="path1350" />
  <path
     d="M 286,312 C 287.885,311.8603 285.8603,313.885 286,312 z "
     style="fill:black;stroke:black"
     id="path1351" />
  <path
     d="M 381,313 C 383.464,312.1028 385.131,314.746 384.75,316.75 L 379.25,316.75 L 381,313 z "
     style="fill:#fbfbfb;stroke:#fbfbfb"
     id="path1352" />
  <path
     d="M 568,313 L 570.75,314.75 L 569.25,315.25 L 567.75,317.75 C 556.32,325.401 543.78,330.73 531,335 L 527,335 C 517.645,337.899 507.13,336.793 497,337 L 495,336 L 482.25,334.75 L 480.25,332.25 L 482,331 C 493.7,334.283 505.26,333.976 518,334 L 523,332 C 531.553,331.0828 539.67,328.346 547.25,324.25 C 554.742,322.044 562.02,317.762 568,313 z "
     style="fill:#fbfbfb;stroke:#fbfbfb"
     id="path1353" />
  <path
     d="M 206,314 L 207.25,314.75 L 213.75,322.25 L 213.75,323.75 C 210.203,322.152 205.157,318.646 206,314 z "
     style="fill:#fcfcfc;stroke:#fcfcfc"
     id="path1354" />
  <path
     d="M 391,319 L 392.75,318.75 C 395.716,314.568 401.401,312.304 406,315 L 407.75,314.25 L 419.25,316.75 L 421.75,317.25 L 421.75,319.75 C 417.951,325.109 413.789,330.56 407.25,332.25 C 404.024,335.43 399.479,336.272 395,336 L 386,337 L 383.25,337.75 L 382,336 L 391,319 z "
     style="fill:#fdfdfd;stroke:#fdfdfd"
     id="path1355" />
  <path
     d="M 346,321 L 345,326 L 344.25,330.75 L 345.75,331.75 L 346.75,329.25 C 347.2197,331.181 346.2412,335.392 349.75,333.75 L 351,328 L 350.75,325.75 L 350.75,323.25 L 348.25,322.75 L 346,321 L 349,315 L 351.75,317.25 L 364,340 L 361,344 L 361.75,344.75 C 364.021,341.549 364.802,344.9044 364.75,346.75 L 350,346 L 347.25,348.25 L 362.75,369.75 L 360.25,370.25 C 352.864,378.464 342.62,381.89 333,386 L 330.25,385.75 L 335,369 L 335.75,363.25 C 331.664,363.4998 333.52,367.99 332.75,370.75 L 328.25,383.25 C 330.291,385.71 327.015,387.241 325,388 L 324,387 C 324.1358,379.514 323.2223,371.72 326,365 C 326.4532,355.135 329.609,345.27 337.75,338.75 L 346,321 z "
     style="fill:#fcfcfc;stroke:#fcfcfc"
     id="path1356" />
  <path
     d="M 259,318 L 271,318 L 278.75,318.25 L 278.75,318.75 L 271.75,320.25 L 259.25,320.75 L 257.25,319.75 L 259,318 z "
     style="fill:#030303;stroke:#030303"
     id="path1357" />
  <path
     d="M 577,318 C 578.885,317.8603 576.8603,319.885 577,318 z "
     style="fill:black;stroke:black"
     id="path1358" />
  <path
     d="M 293,320 L 295,321 L 293.25,323.25 C 290.893,336.72 274.29,330.696 265.75,335.75 L 262,337 L 257,337 L 253,334 L 259,335 L 268,331 L 276,330 C 283.185,330.9536 290.19,326.57 293,320 z "
     style="fill:#040404;stroke:#040404"
     id="path1359" />
  <path
     d="M 425,320 L 426,322 C 420.842,333.81 409.95,344.67 396,343 L 385.25,342.75 L 383,341 L 384,340 L 385.25,340.75 L 401,338 L 405.25,336.25 C 413.905,334.985 418.92,327.807 424.75,321.75 L 425,320 z "
     style="fill:#fbfbfb;stroke:#fbfbfb"
     id="path1360" />
  <path
     d="M 78,325 L 79,326 L 79,327 L 77,328 L 68,323 L 67.25,322.25 C 68.317,320.252 70.309,321.247 71.25,322.75 L 78,325 z "
     style="fill:#040404;stroke:#040404"
     id="path1361" />
  <path
     d="M 346,321 L 348.25,322.75 L 350.75,323.25 L 350.75,325.75 L 351,328 L 349.75,333.75 C 346.241,335.392 347.22,331.181 346.75,329.25 L 345.75,331.75 L 344.25,330.75 L 345,326 L 346,321 z "
     style="fill:#030303;stroke:#030303"
     id="path1362" />
  <path
     d="M 120,325 C 119.8602,323.115 121.885,325.1397 120,325 z "
     style="fill:black;stroke:black"
     id="path1363" />
  <path
     d="M 469,324 C 470.885,323.8603 468.8603,325.885 469,324 z "
     style="fill:#f5f5f5;stroke:#f5f5f5"
     id="path1364" />
  <path
     d="M 498,393 L 499,393 L 506.75,392.75 C 507.876,390.052 506.6434,385.917 503,387 L 502.25,386.75 L 501,380 L 500,373 L 511.75,380.25 L 512.75,381.25 L 516,400 L 515.75,402.75 L 510,404 L 503,407 L 499,407 C 483.94,411.582 466.88,409.792 450.25,409.75 C 452.476,405.154 450.4156,399.68 446.25,396.75 L 448,392 L 449.75,390.75 C 456.401,375.03 463.07,359.45 467,343 L 467,336 L 468,329 L 470,326 L 471,327 C 469.379,329.84 468.96,335.487 472.75,336.75 C 471.8629,331.653 473.0617,321.56 480.75,325.25 L 483.75,328.75 L 476.25,330.25 C 478.11,339.652 484.807,347.83 490.25,355.75 L 491.75,356.25 C 494.255,360.963 497.665,364.918 502.75,367.25 L 503.25,368.75 L 518,375 L 518.75,375.75 L 513,378 L 498.25,367.75 L 491.25,363.25 C 491.4236,366.154 495.158,368.942 497.75,370.25 C 498.6821,372.409 495.796,373.194 494.25,373.25 L 495,381 L 498,393 z "
     style="fill:#fdfdfd;stroke:#fdfdfd"
     id="path1365" />
  <path
     d="M 79,326 L 78,325 L 79,326 z "
     style="fill:#f9f9f9;stroke:#f9f9f9"
     id="path1366" />
  <path
     d="M 347,325 L 347.75,326.75 L 347,325 z "
     style="fill:white;stroke:white"
     id="path1367" />
  <path
     d="M 79,327 L 79,326 L 79,327 z "
     style="fill:white;stroke:white"
     id="path1368" />
  <path
     d="M 109,330 L 108,331 L 107,331 L 109.75,327.25 L 109,330 z "
     style="fill:#060606;stroke:#060606"
     id="path1369" />
  <path
     d="M 354,335 L 350.25,336.75 L 350,336 L 352,331 L 353.75,327.25 L 354,331 L 354,335 z "
     style="fill:#030303;stroke:#030303"
     id="path1370" />
  <path
     d="M 423,332 C 422.8603,333.885 424.885,331.8603 423,332 L 423.25,331.25 L 426,328 L 427.75,328.25 L 449.75,349.25 L 450,350 C 446.864,359.492 445.47,369.91 439.25,378.25 C 437.794,383.733 435.645,389.38 431.75,393.75 L 398.25,378.75 L 396.25,376.75 L 395,374 C 395.6023,364.592 393.315,355.7 391.25,347.25 L 393,346 L 406,345 L 416.75,339.75 L 423,332 z "
     style="fill:#fdfdfd;stroke:#fdfdfd"
     id="path1371" />
  <path
     d="M 114,329 C 114.1397,330.885 112.115,328.8603 114,329 z "
     style="fill:white;stroke:white"
     id="path1372" />
  <path
     d="M 109,330 L 108,331 L 109,330 z "
     style="fill:#ebebeb;stroke:#ebebeb"
     id="path1373" />
  <path
     d="M 446,330 C 447.885,329.8603 445.8603,331.885 446,330 z "
     style="fill:black;stroke:black"
     id="path1374" />
  <path
     d="M 108,331 L 107,331 L 108,331 z "
     style="fill:#fafafa;stroke:#fafafa"
     id="path1375" />
  <path
     d="M 59,333 C 58.8603,331.115 60.885,333.1397 59,333 z "
     style="fill:black;stroke:black"
     id="path1376" />
  <path
     d="M 56,335 C 54.115,334.8603 56.1398,336.885 56,335 L 59,333 C 57.927,335.727 63.073,335.727 62,333 L 62.25,332.25 L 63.25,334.75 L 67.75,335.75 L 61,336 L 53,337 L 47.25,337.75 L 48.25,335.25 L 51,335 L 56,335 z "
     style="fill:#020202;stroke:#020202"
     id="path1377" />
  <path
     d="M 90,337 L 92.75,332.25 L 90,337 z "
     style="fill:#030303;stroke:#030303"
     id="path1378" />
  <path
     d="M 96,334 L 96.75,332.25 L 96,334 z "
     style="fill:black;stroke:black"
     id="path1379" />
  <path
     d="M 103,332 C 103.1397,333.885 101.115,331.8603 103,332 z "
     style="fill:white;stroke:white"
     id="path1380" />
  <path
     d="M 296,332 L 297,334 L 292.25,339.25 L 271.75,347.75 L 268,349 L 260,344 L 260.25,343.25 L 268,345 L 295.75,333.75 L 296,332 z "
     style="fill:#040404;stroke:#040404"
     id="path1381" />
  <path
     d="M 423,332 C 424.885,331.8603 422.8603,333.885 423,332 z "
     style="fill:#030303;stroke:#030303"
     id="path1382" />
  <path
     d="M 88,334 C 87.8602,332.115 89.885,334.1397 88,334 z "
     style="fill:#060606;stroke:#060606"
     id="path1383" />
  <path
     d="M 354,335 L 357.75,333.25 L 355.75,339.75 L 354,335 z "
     style="fill:#050505;stroke:#050505"
     id="path1384" />
  <path
     d="M 425,335 C 424.8603,333.115 426.885,335.1397 425,335 z "
     style="fill:black;stroke:black"
     id="path1385" />
  <path
     d="M 56,335 C 56.1398,336.885 54.115,334.8603 56,335 z "
     style="fill:#f5f5f5;stroke:#f5f5f5"
     id="path1386" />
  <path
     d="M 425,335 C 425.1397,336.885 423.115,334.8603 425,335 z "
     style="fill:black;stroke:black"
     id="path1387" />
  <path
     d="M 283,388 L 282,389 C 283.035,394.915 271.1,388.8397 275.75,394.25 L 276.25,396.75 C 284.987,405.399 291.68,414.62 302.75,419.25 L 303.25,428.75 L 305.25,424.25 C 308.973,430.56 305.8518,439.02 303.75,445.75 L 292.25,447.75 L 320.25,473.75 L 321.75,472.75 L 321.75,471.25 L 318.25,468.75 L 302,451 L 306,448 L 309.25,433.25 L 311,437 C 312.715,433.403 314.785,437.1955 314,440 L 315.75,439.25 L 317.25,443.75 C 319.37,445.171 319.905,445.351 319.25,447.75 L 320.75,448.25 L 324,465 L 332,475 L 333,479 C 328.241,488.744 337.513,494.81 342,502 L 339.75,508.75 C 338.614,506.674 335.481,497.46 332.25,502.75 L 337.75,510.75 L 336.75,512.75 L 327.25,516.75 L 322,511 C 322.3851,498.55 322.2,486.36 317.75,475.25 L 292.25,456.75 L 286.25,449.75 L 284.75,444.25 L 239,407 C 240.885,407.1397 238.8602,405.115 239,407 C 233.07,402.323 227.91,395.73 226.75,388.25 L 224,376 C 222.469,373.437 222.469,369.563 224,367 L 226,350 L 227,348 L 228,338 L 229.75,338.25 L 230.25,340.75 L 231.75,341.25 L 237.75,347.25 L 249.25,356.75 C 259.008,357.7037 267.64,362.305 274.75,369.25 L 274.25,371.75 C 278.609,369.18 276.549,376.534 277,379 C 279.476,381.822 278.461,375.294 279.25,373.25 L 280,385 L 279,388 L 279.25,389.75 L 283,377 L 284,378 L 283,383 L 283,388 z "
     style="fill:#fcfcfc;stroke:#fcfcfc"
     id="path1388" />
  <path
     d="M 358,338 C 362.096,337.8712 358.844,342.681 358.75,344.75 L 358,338 z "
     style="fill:#060606;stroke:#060606"
     id="path1389" />
  <path
     d="M 24,346 L 25.75,346.25 C 28.767,353.515 33.94,359.64 34.25,367.75 L 39.25,380.75 L 40.75,382.25 L 39.75,383.75 C 35.622,385.417 33.08,380.542 32.75,377.25 L 27,367 L 27.25,366.25 L 28.75,366.75 C 30.059,362.637 27.095,358.162 23.25,356.75 L 22,354 L 24,346 z "
     style="fill:#fbfbfb;stroke:#fbfbfb"
     id="path1390" />
  <path
     d="M 401,391 C 387.43,386.627 376.51,377.08 366.25,366.75 L 357.75,357.25 C 354.814,356.5507 353.547,352.675 353.25,350.25 L 367.75,349.25 C 370.686,357.832 375.751,366.69 383.75,371.25 L 385.25,373.75 L 422.25,392.75 L 429.75,395.25 L 433,400 L 426.25,399.75 C 406.42,390.831 385.39,381.01 371.75,363.25 L 364.25,355.25 L 364.25,357.75 C 374.146,370.11 385.6,381.97 399.75,389.25 L 401,391 z "
     style="fill:#fbfbfb;stroke:#fbfbfb"
     id="path1391" />
  <path
     d="M 374,350 L 374.75,351.75 L 374,350 z "
     style="fill:white;stroke:white"
     id="path1392" />
  <path
     d="M 34,355 C 32.115,355.1397 34.1398,353.115 34,355 z "
     style="fill:white;stroke:white"
     id="path1393" />
  <path
     d="M 263,356 C 262.8603,354.115 264.885,356.1397 263,356 z "
     style="fill:black;stroke:black"
     id="path1394" />
  <path
     d="M 17,359 L 19.75,359.25 L 21.25,362.75 L 23.75,365.25 L 24.25,367.75 C 28.553,374.837 29.858,384.85 37.75,389.25 L 37.75,390.75 L 30.25,390.75 L 19.25,372.75 L 20,372 L 21.25,373.75 L 22.75,373.75 L 15,366 L 17,359 z "
     style="fill:#fbfbfb;stroke:#fbfbfb"
     id="path1395" />
  <path
     d="M 229,360 C 230.885,359.8603 228.8602,361.885 229,360 z "
     style="fill:#020202;stroke:#020202"
     id="path1396" />
  <path
     d="M 229,363 C 228.8602,361.115 230.885,363.1397 229,363 z "
     style="fill:black;stroke:black"
     id="path1397" />
  <path
     d="M 229,363 L 230.75,366.25 C 235.546,383.6 241.49,401.6 255.25,414.75 L 261.75,418.25 L 268.75,423.25 L 269.75,427.75 L 268.25,427.75 L 259.75,420.25 L 252.25,415.75 L 251.75,414.25 C 246.091,408.77 241.05,402.57 238.75,395.25 L 229,370 L 228,364 L 229,363 z "
     style="fill:#040404;stroke:#040404"
     id="path1398" />
  <path
     d="M 465,363 L 466.75,363.75 C 470.517,360.762 475.94,365.416 473.75,369.75 L 468.75,368.25 L 467.25,369.75 L 468.25,373.75 L 474.75,372.25 L 475,375 C 477.374,377.942 475.3915,383.166 471.25,382.25 L 467,383 C 465.074,382.226 463.417,380.224 464,378 L 462,369 L 462.25,365.25 L 465,363 z "
     style="fill:#030303;stroke:#030303"
     id="path1399" />
  <path
     d="M 468,380 L 463,368 L 467,365 C 468.876,363.009 471.232,364.96603 472,367 L 470.25,367.75 L 469.75,366.25 L 466.25,366.25 L 468,380 z "
     style="fill:#fcfcfc;stroke:#fcfcfc"
     id="path1400" />
  <path
     d="M 490,380 L 489,376 L 488.75,370.25 L 484,371 L 480.25,372.25 L 480,373 L 482,381 L 483.75,386.75 L 484.25,381.25 L 490,380 L 486.25,382.25 L 486.25,383.75 C 489.188,386.991 484.346,390.166 481.25,388.75 L 478.25,371.25 L 484,369 L 488.75,368.25 C 492.512,370.782 490.737,375.976 490.75,379.75 L 490,380 z "
     style="fill:#030303;stroke:#030303"
     id="path1401" />
  <path
     d="M 489,376 L 488.25,375.75 C 488.5801,372.94 485.847,370.991 483.25,372.25 C 481.752,374.877 484.0659,380.06 487.25,377.25 L 489,376 L 490,380 L 484.25,381.25 L 483.75,386.75 L 482,381 L 480,373 L 480.25,372.25 L 484,371 L 488.75,370.25 L 489,376 z "
     style="fill:#fbfbfb;stroke:#fbfbfb"
     id="path1402" />
  <path
     d="M 489,376 L 487.25,377.25 C 484.066,380.06 481.752,374.877 483.25,372.25 C 485.847,370.991 488.58,372.9402 488.25,375.75 L 489,376 z "
     style="fill:#030303;stroke:#030303"
     id="path1403" />
  <path
     d="M 500,373 C 498.115,373.1397 500.1397,371.115 500,373 z "
     style="fill:#ededed;stroke:#ededed"
     id="path1404" />
  <path
     d="M 364,373 L 365.75,375.75 L 361.25,378.25 L 359.75,380.75 L 356.25,382.25 C 353.12,385.962 348.748,388.124 344.25,389.25 C 338.633,392.871 332.08,395.564 325,395 L 313,397 C 308.262,398.629 301.74,398.629 297,397 L 295.75,397.75 L 281,397 L 279.25,394.25 L 289,394 L 291,395 L 295.75,394.25 L 297,395 L 306,394 C 327.37,394.4298 345.31,383.09 363.75,373.75 L 364,373 z "
     style="fill:#fbfbfb;stroke:#fbfbfb"
     id="path1405" />
  <path
     d="M 485,373 L 486.75,375.75 C 484.82,376.859 484.836,374.162 485,373 z "
     style="fill:#fafafa;stroke:#fafafa"
     id="path1406" />
  <path
     d="M 275,374 L 275.75,377.75 L 275,374 z "
     style="fill:#030303;stroke:#030303"
     id="path1407" />
  <path
     d="M 471,374 C 475.346,372.782 473.973,378.285 473.75,380.75 C 471.866,380.6059 469.676,378.517 471.75,376.75 L 471,374 z "
     style="fill:#fcfcfc;stroke:#fcfcfc"
     id="path1408" />
  <path
     d="M 499,393 L 498,393 L 497,384 L 496,375 L 497,374 L 497.75,374.25 L 500.25,388.75 L 502,389 C 505.628,385.514 506.004,392.944 502,392 L 500,392 L 499,393 z "
     style="fill:#fbfbfb;stroke:#fbfbfb"
     id="path1409" />
  <path
     d="M 469,375 L 469.75,377.75 L 469,375 z "
     style="fill:#f8f8f8;stroke:#f8f8f8"
     id="path1410" />
  <path
     d="M 372,378 C 370.115,378.1397 372.1397,376.115 372,378 z "
     style="fill:white;stroke:white"
     id="path1411" />
  <path
     d="M 372,378 L 385.75,387.25 L 388.25,389.75 L 432.75,406.25 C 433.3391,410.368 437.401,411.988 440,414 C 431.59,430.62 412.36,437.01 396.25,441.75 L 394.25,440.75 L 386.25,422.75 C 389.092,416.57 392.448,407.32 388.25,401.25 L 386.25,415.25 C 385.3691,418.578 383.543,422.862 379.25,421.75 L 378.25,418.25 L 380.75,416.75 C 386.386,403.54 377.157,390.23 372,378 z "
     style="fill:#fdfdfd;stroke:#fdfdfd"
     id="path1412" />
  <path
     d="M 468,380 L 469.75,380.75 L 468,380 z "
     style="fill:white;stroke:white"
     id="path1413" />
  <path
     d="M 283,388 L 284,385 L 285.25,381.25 L 285.75,381.25 L 284.75,391.75 C 282.304,392.862 283.104,389.3 283,388 z "
     style="fill:#fbfbfb;stroke:#fbfbfb"
     id="path1414" />
  <path
     d="M 288,384 C 289.362,384.6702 290.267,386.742 289,388 L 288.75,391.75 L 288,392 L 287.25,391.75 L 288,384 z "
     style="fill:#fcfcfc;stroke:#fcfcfc"
     id="path1415" />
  <path
     d="M 414,384 C 415.885,383.8603 413.8603,385.885 414,384 z "
     style="fill:black;stroke:black"
     id="path1416" />
  <path
     d="M 448,392 L 445,391 L 448.25,386.25 L 448,389 L 448,392 z "
     style="fill:#fcfcfc;stroke:#fcfcfc"
     id="path1417" />
  <path
     d="M 291,389 L 292.75,391.75 C 290.82,392.859 290.836,390.162 291,389 z "
     style="fill:#fdfdfd;stroke:#fdfdfd"
     id="path1418" />
  <path
     d="M 386,391 C 384.115,391.1397 386.1397,389.115 386,391 z "
     style="fill:black;stroke:black"
     id="path1419" />
  <path
     d="M 386,391 C 387.885,390.8603 385.8603,392.885 386,391 z "
     style="fill:#010101;stroke:#010101"
     id="path1420" />
  <path
     d="M 401,391 C 402.885,390.8603 400.8603,392.885 401,391 z "
     style="fill:white;stroke:white"
     id="path1421" />
  <path
     d="M 499,393 L 498,393 L 499,393 z "
     style="fill:#0b0b0b;stroke:#0b0b0b"
     id="path1422" />
  <path
     d="M 399,396 C 400.885,395.8603 398.8603,397.885 399,396 z "
     style="fill:black;stroke:black"
     id="path1423" />
  <path
     d="M 440,397 C 447.566,395.686 451.05,408.06 444,411 L 436.25,409.75 L 436,408 C 433.811,405.285 435.6388,402.086 436.25,399.25 L 439.75,397.75 L 440,397 z "
     style="fill:#fbfbfb;stroke:#fbfbfb"
     id="path1424" />
  <path
     d="M 239,407 C 238.8602,405.115 240.885,407.1397 239,407 z "
     style="fill:#0c0c0c;stroke:#0c0c0c"
     id="path1425" />
  <path
     d="M 516,406 L 519,406 C 526.934,404.617 528.3,416.31 523.25,420.25 L 522,423 L 521.25,434.25 L 520.75,436.75 L 508.25,440.25 L 505.25,445.25 C 505.7276,453.027 495.02,457.48 490.25,450.75 L 489.25,445.25 L 492.75,442.25 L 493.75,443.75 L 495,440 L 497.75,444.75 L 500.25,434.25 L 501.75,434.25 L 501,438 L 502.25,438.25 L 505.75,429.25 L 505.75,434.75 L 509.75,422.25 L 510.75,427.75 L 512.25,415.25 L 513.75,414.25 L 515.75,416.75 L 514.25,407.25 L 516,406 z "
     style="fill:#fbfbfb;stroke:#fbfbfb"
     id="path1426" />
  <path
     d="M 414,441 L 416.25,437.25 C 417.654,434.81 419.896,436.7131 419,439 C 417.115,438.8603 419.1397,440.885 419,439 L 422.25,434.25 C 423.658,433.9121 425.127,432.216 425.25,434.75 L 425.75,434.75 L 427.25,432.25 L 439.75,421.75 L 444.25,414.25 L 445,414 L 445.75,415.75 L 445,414 L 447,412 C 469.29,411.7562 492.25,413.507 512.75,407.25 L 505.25,423.25 L 500.75,431.75 C 493.827,440.571 483.68,444.18 474.75,449.75 C 461.96,453.32 449.06,456.015 435,455 C 428.055,452.122 421.01,449.143 415.75,443.25 L 414.25,442.75 L 414,441 z "
     style="fill:#fdfdfd;stroke:#fdfdfd"
     id="path1427" />
  <path
     d="M 445,414 L 445.75,415.75 L 445,414 z "
     style="fill:black;stroke:black"
     id="path1428" />
  <path
     d="M 358,441 L 359,440 C 360.885,440.1397 358.8603,438.115 359,440 L 358,441 L 356.25,441.25 C 351.45,444.213 343.45,444.221 339.75,439.25 L 337.25,437.75 L 337.75,436.25 L 335.25,434.75 L 335,432 L 334,430 L 331.25,423.25 L 337.75,428.75 C 340.357,427.26 337.5664,425.038 337.25,423.25 L 339,422 L 366.75,420.25 C 368.903,427.591 366.0729,436.84 360.25,442.75 L 370.75,432.25 C 379.836,450.62 365.379,468.84 366,487 L 365,489 L 366.25,492.75 L 370,495 L 369.75,497.75 C 368.285,497.4475 365.693,494.853 365.25,497.75 C 367.902,501.079 371.236,504.189 370,509 L 365,512 L 362.75,510.25 L 358.25,498.25 L 355.25,503.75 L 353,499 L 353,496 C 356.437,487.9 356.306,476.65 350.25,469.75 L 350.75,468.25 L 345.25,464.75 L 345.25,458.25 L 343.25,460.75 L 344.75,451.25 L 342.25,453.75 L 341.25,446.25 L 343,445 C 347.398,446.493 358.08,448.036 358,441 z "
     style="fill:#fcfcfc;stroke:#fcfcfc"
     id="path1430" />
  <path
     d="M 363,424 C 365.679,424.4754 364.373,426.919 363.25,428.25 L 363.25,428.75 L 364.75,429.25 L 360.25,433.75 L 363,424 z "
     style="fill:#040404;stroke:#040404"
     id="path1431" />
  <path
     d="M 285,426 L 285.75,426.25 L 291.75,433.25 L 296,438 L 301.75,434.25 C 302.1565,437.181 300.225,441.123 297.25,441.75 L 284.25,427.75 L 285,426 z "
     style="fill:#040404;stroke:#040404"
     id="path1432" />
  <path
     d="M 339,429 L 341.75,429.25 L 344.75,433.25 L 345.25,434.75 L 358.75,437.25 C 354.804,442.5 345.55,440.065 341.75,435.25 L 339.25,434.75 L 339,429 z "
     style="fill:#030303;stroke:#030303"
     id="path1433" />
  <path
     d="M 334,430 L 334,432 L 334,430 z "
     style="fill:white;stroke:white"
     id="path1434" />
  <path
     d="M 335,432 L 334,432 L 334,430 L 335,432 z "
     style="fill:#020202;stroke:#020202"
     id="path1435" />
  <path
     d="M 335,432 L 334,432 L 335,432 z "
     style="fill:white;stroke:white"
     id="path1436" />
  <path
     d="M 414,441 L 414,440 L 414,441 z "
     style="fill:#fcfcfc;stroke:#fcfcfc"
     id="path1437" />
  <path
     d="M 359,440 C 358.8603,438.115 360.885,440.1397 359,440 z "
     style="fill:black;stroke:black"
     id="path1438" />
  <path
     d="M 419,439 C 419.1397,440.885 417.115,438.8603 419,439 z "
     style="fill:#181818;stroke:#181818"
     id="path1439" />
  <path
     d="M 359,440 L 358,441 L 359,440 z "
     style="fill:#0c0c0c;stroke:#0c0c0c"
     id="path1440" />
  <path
     d="M 423,458 C 421.115,457.8603 423.1397,459.885 423,458 L 429.75,456.25 L 427.25,459.75 L 434.75,457.25 L 434,460 C 432.115,459.8603 434.1397,461.885 434,460 L 435.75,459.75 C 437.018,457.647 439.652,457.675 441.75,458.25 L 440.25,460.75 L 448.75,458.25 L 447.25,461.75 C 449.883,460.131 453.629,454.979 456.75,457.75 L 455.25,460.75 L 458.25,458.25 L 465.75,456.25 C 468.378,464.579 458.358,467.38 452,466 L 443,470 L 431,466 L 417.25,467.75 C 412.499,464.647 414.24,458.995 417.75,455.75 C 417.9245,453.88 419.897,452.205 421.75,453.25 L 418.75,456.75 L 418.25,457.75 L 424.75,455.25 L 423,458 z "
     style="fill:#fbfbfb;stroke:#fbfbfb"
     id="path1441" />
  <path
     d="M 423,458 C 423.1397,459.885 421.115,457.8603 423,458 z "
     style="fill:black;stroke:black"
     id="path1442" />
  <path
     d="M 434,460 C 434.1397,461.885 432.115,459.8603 434,460 z "
     style="fill:black;stroke:black"
     id="path1443" />
  <path
     d="M 207,489 L 207.25,489.75 L 213.25,492.75 C 216.57,490.279 217.754,494.02 217,497 L 216,500 L 215.25,499.75 L 198.75,487.25 L 196,486 L 198.75,483.75 L 204.25,476.25 L 212.25,467.25 L 213.75,466.75 L 215,461 C 217.954,463.485 215.8755,467.233 215.75,470.75 C 212.793,468.521 211.307,472.965 209.75,474.75 L 202.75,482.75 L 200.25,485.75 L 207,489 z "
     style="fill:#040404;stroke:#040404"
     id="path1444" />
  <path
     d="M 360,461 L 362,462 L 361,469 L 360,474 L 358.75,492.75 L 356.25,490.75 L 356.75,477.25 L 356,476 L 360,461 z "
     style="fill:#030303;stroke:#030303"
     id="path1445" />
  <path
     d="M 499,461 C 502.295,460.4567 501.699,464.278 503,466 L 502.25,468.75 L 509,500 L 512,518 L 515,534 L 515,538 L 516,540 L 516,545 L 517.75,549.25 L 516.75,550.75 L 514.25,549.75 L 511,535 L 511,528 L 506,502 L 503,486 L 499,461 z "
     style="fill:#030303;stroke:#030303"
     id="path1446" />
  <path
     d="M 207,489 L 207.25,486.25 L 209,486 L 211,486 C 215.307,487.077 215.033,477.559 211.25,479.75 L 209.25,478.75 L 209.25,477.25 L 211.25,476.25 L 218.75,473.25 L 218.75,474.75 C 214.659,476.27 216.109,482.187 216.25,485.75 L 236.75,484.75 L 239,483 L 244,488 L 242.75,489.75 L 212.25,488.25 L 207,489 z "
     style="fill:#030303;stroke:#030303"
     id="path1447" />
  <path
     d="M 482,508 L 480.25,506.75 L 479.75,504.25 L 473.75,490.25 L 469.25,479.25 L 470.75,479.25 L 472.75,482.25 L 482,506 L 482,508 z "
     style="fill:#030303;stroke:#030303"
     id="path1448" />
  <path
     d="M 456,502 C 454.115,501.8603 456.1397,503.885 456,502 L 457.75,503.25 L 468.25,523.75 L 470.75,527.25 L 480.25,543.75 L 481.75,544.25 L 487,555 L 486.75,556.75 L 483.25,553.75 L 481.75,550.25 L 465.25,523.75 L 446.75,489.25 L 440.25,480.25 L 442.75,480.25 L 456,502 z "
     style="fill:#030303;stroke:#030303"
     id="path1449" />
  <path
     d="M 321,481 L 323.75,481.25 L 327.75,491.25 L 327.25,492.75 L 328.75,493.25 L 328,507 L 327.25,507.75 L 326,506 C 326.7618,496.966 324.454,488.82 321,481 z "
     style="fill:#030303;stroke:#030303"
     id="path1450" />
  <path
     d="M 369,485 L 369.75,485.25 L 370,486 L 370,493 L 369.25,492.75 L 369,485 z "
     style="fill:#fafafa;stroke:#fafafa"
     id="path1451" />
  <path
     d="M 456,502 C 456.1397,503.885 454.115,501.8603 456,502 z "
     style="fill:#f7f7f7;stroke:#f7f7f7"
     id="path1452" />
  <path
     d="M 482,508 L 483.75,511.75 L 482,508 z "
     style="fill:#030303;stroke:#030303"
     id="path1453" />
  <path
     d="M 371,510 C 374.607,511.02 371.9985,514.489 371.75,516.75 L 371.25,516.75 L 371,510 z "
     style="fill:#fbfbfb;stroke:#fbfbfb"
     id="path1454" />
  <path
     d="M 338,514 C 340.973,513.4634 345.568,514.9497 343.75,518.75 L 342,518 L 340.25,518.25 L 345,523 L 344.75,523.75 C 341.236,524.264 345.2604,525.948 345.75,526.75 C 343.418,527.879 341.251,525.278 340.75,523.25 L 336.25,516.25 L 338,514 z "
     style="fill:#fbfbfb;stroke:#fbfbfb"
     id="path1455" />
  <path
     d="M 359,514 L 360,514 C 362.922,512.486 366.111,517.761 362.25,518.25 L 363.75,521.75 L 361.25,522.75 L 359,514 z "
     style="fill:#fbfbfb;stroke:#fbfbfb"
     id="path1456" />
  <path
     d="M 373,516 C 375.227,516.1705 375.595,519.619 373.25,519.75 L 373,516 z "
     style="fill:#fdfdfd;stroke:#fdfdfd"
     id="path1457" />
  <path
     d="M 336,527 L 335.75,528.75 L 333.25,528.75 L 328.25,519.25 L 332.75,518.25 C 331.037,520.213 333.2702,521.864 334.75,523.25 C 333.715,524.532 333.9996,526.652 336,527 z "
     style="fill:#fafafa;stroke:#fafafa"
     id="path1458" />
  <path
     d="M 336,527 L 336.75,525.25 L 336,527 z "
     style="fill:white;stroke:white"
     id="path1460" />
  <path
     d="M 378,535 L 380.75,536.25 L 382.75,540.25 L 382.25,541.75 L 399,593 L 403,609 L 402,614 L 400,611 L 391,580 L 380.75,544.25 L 378,538 L 378,535 z "
     style="fill:#040404;stroke:#040404"
     id="path1461" />
  <path
     d="M 353,544 L 357.75,547.25 L 358,550 L 366.75,566.25 L 371,577 L 370.75,577.75 L 368.25,576.75 L 359.75,559.25 L 358.25,557.75 L 357.75,555.25 L 353,544 z "
     style="fill:#040404;stroke:#040404"
     id="path1462" />
  <path
     d="M 338,552 L 340.75,553.25 L 343.25,559.75 L 349.25,569.75 L 352.75,573.25 L 382.75,623.75 L 378.25,621.75 L 357.75,586.25 L 356.25,585.75 L 340.75,559.25 L 337.25,554.75 L 338,552 z "
     style="fill:#040404;stroke:#040404"
     id="path1463" />
</svg>
