<?xml version="1.0" encoding="UTF-8" standalone="no"?>
<svg
   xmlns:dc="http://purl.org/dc/elements/1.1/"
   xmlns:cc="http://creativecommons.org/ns#"
   xmlns:rdf="http://www.w3.org/1999/02/22-rdf-syntax-ns#"
   xmlns:svg="http://www.w3.org/2000/svg"
   xmlns="http://www.w3.org/2000/svg"
   xmlns:sodipodi="http://sodipodi.sourceforge.net/DTD/sodipodi-0.dtd"
   xmlns:inkscape="http://www.inkscape.org/namespaces/inkscape"
   version="1.1"
   width="5.4000001cm"
   height="5.4000001cm"
   viewBox="0 0 204.09449 204.09449"
   id="svg82"
   sodipodi:docname="C3STOC_sticker.svg"
   inkscape:version="0.92.4 (5da689c313, 2019-01-14)"
   inkscape:export-filename="/home/shiro/Desktop/C3STOC.svg.png"
   inkscape:export-xdpi="96"
   inkscape:export-ydpi="96">
  <metadata
     id="metadata88">
    <rdf:RDF>
      <cc:Work
         rdf:about="">
        <dc:format>image/svg+xml</dc:format>
        <dc:type
           rdf:resource="http://purl.org/dc/dcmitype/StillImage" />
        <dc:title></dc:title>
      </cc:Work>
    </rdf:RDF>
  </metadata>
  <defs
     id="defs86" />
  <sodipodi:namedview
     pagecolor="#ffffff"
     bordercolor="#666666"
     borderopacity="1"
     objecttolerance="10"
     gridtolerance="10"
     guidetolerance="10"
     inkscape:pageopacity="0"
     inkscape:pageshadow="2"
     inkscape:window-width="3840"
     inkscape:window-height="2031"
     id="namedview84"
     showgrid="false"
     inkscape:zoom="7.8913271"
     inkscape:cx="121.06141"
     inkscape:cy="103.7338"
     inkscape:window-x="0"
     inkscape:window-y="55"
     inkscape:window-maximized="1"
     inkscape:current-layer="g4630"
     showguides="true"
     inkscape:guide-bbox="true"
     units="cm" />
  <g
     transform="translate(-371.77833,-1173.9921)"
     stroke-width="none"
     stroke-miterlimit="10"
     font-weight="none"
     font-size="none"
     text-anchor="none"
     style="font-family:none;mix-blend-mode:normal;fill:none;fill-rule:nonzero;stroke:none;stroke-linecap:butt;stroke-linejoin:miter;stroke-miterlimit:10;stroke-dasharray:none;stroke-dashoffset:0"
     id="g80">
    <path
       style="opacity:0;fill:none;stroke:#00bb31;stroke-width:6"
       inkscape:connector-curvature="0"
       d=""
       id="path16" />
    <path
       style="fill:none;stroke:none;stroke-width:1"
       inkscape:connector-curvature="0"
       d=""
       id="path18" />
    <path
       style="opacity:0;fill:none;stroke:#00bb31;stroke-width:6"
       inkscape:connector-curvature="0"
       d=""
       id="path22" />
    <path
       style="opacity:0;fill:none;stroke:#00bb31;stroke-width:6"
       inkscape:connector-curvature="0"
       d=""
       id="path28" />
    <path
       style="opacity:0;fill:none;stroke:#00bb31;stroke-width:6"
       inkscape:connector-curvature="0"
       d=""
       id="path34" />
    <path
       style="opacity:0;fill:none;stroke:#00bb31;stroke-width:6"
       inkscape:connector-curvature="0"
       d=""
       id="path40" />
    <path
       style="opacity:0;fill:none;stroke:#00bb31;stroke-width:6"
       inkscape:connector-curvature="0"
       d=""
       id="path46" />
    <path
       style="opacity:0;fill:none;stroke:#00bb31;stroke-width:6"
       inkscape:connector-curvature="0"
       d=""
       id="path50" />
    <path
       style="opacity:0;fill:none;stroke:#00bb31;stroke-width:6"
       inkscape:connector-curvature="0"
       d=""
       id="path56" />
    <path
       style="opacity:0;fill:none;stroke:#00bb31;stroke-width:6"
       inkscape:connector-curvature="0"
       d=""
       id="path62" />
    <path
       style="opacity:0;fill:none;stroke:#00bb31;stroke-width:6"
       inkscape:connector-curvature="0"
       d=""
       id="path66" />
    <path
       style="opacity:0;fill:none;stroke:#00bb31;stroke-width:6"
       inkscape:connector-curvature="0"
       d=""
       id="path72" />
    <g
       id="g1204"
       transform="matrix(0.91134147,0,0,0.91134147,145.26212,34.903471)">
      <g
         transform="matrix(1.4569392,0,0,1.4569392,-1100.6458,-475.32543)"
         id="g1061">
        <g
           transform="translate(628.30725)"
           id="g1123">
          <g
             transform="matrix(1.4875804,0,0,1.4875804,-914.36733,-341.68112)"
             id="g1170">
            <g
               id="g4630"
               transform="matrix(0.07559055,0,0,0.07559055,766.62178,1030.3016)">
              <rect
                 y="-60.734406"
                 x="637.61926"
                 height="1366.9756"
                 width="1366.9756"
                 id="rect898"
                 style="fill:#000000;fill-opacity:1;stroke:#ffffff;stroke-width:0;stroke-miterlimit:4;stroke-dasharray:none;stroke-opacity:1" />
              <g
                 transform="matrix(1.0341085,0,0,1.0341085,-45.060983,-21.241198)"
                 id="g4595">
                <g
                   id="g919"
                   transform="translate(-135.00966,18.395516)">
                  <g
                     id="g1039"
                     transform="matrix(0.56769772,0,0,0.56769772,1232.9786,310.94636)"
                     style="font-family:none;mix-blend-mode:normal;fill:none;fill-rule:nonzero;stroke:none;stroke-linecap:butt;stroke-linejoin:miter;stroke-miterlimit:10;stroke-dasharray:none;stroke-dashoffset:0">
                    <g
                       id="g1101"
                       transform="matrix(1.4569392,0,0,1.4569392,-29.785068,-818.65247)">
                      <path
                         style="fill:#d0d0ce;stroke:none;stroke-width:1"
                         inkscape:connector-curvature="0"
                         d="m 361.18267,495.46705 c 3.06531,-14.91991 8.68631,-28.57749 16.86299,-40.97273 3.14203,-4.76308 6.59188,-9.25013 10.34956,-13.46116 l 13.33373,3.41961 6.50257,7.43562 14.69063,4.79825 13.7921,2.52698 -10.97931,-5.37096 -13.28423,-6.22024 -5.09617,-8.85761 -12.17446,-4.71953 c 4.22487,-4.00101 8.77476,-7.71058 13.64968,-11.12869 12.34604,-8.65659 26.35598,-14.59195 42.02982,-17.80609 5.31167,-1.08923 10.57962,-1.81433 15.80386,-2.17529 l 8.56502,6.91174 -4.55295,9.82976 -0.59797,9.05384 2.24885,9.35407 -9.55274,13.23064 0.81445,12.54125 1.91972,11.70675 -6.8371,8.17629 -9.24239,10.2574 -9.28938,9.50802 -13.51839,-2.9738 -11.70548,4.77586 -12.14192,4.68635 -9.22233,-3.90789 -11.03598,-2.1799 -13.3136,6.53785 -9.45475,-6.24538 c 0.3612,-2.91842 0.83993,-5.82876 1.4362,-8.731 z"
                         id="path12" />
                      <path
                         style="fill:none;stroke:none;stroke-width:1"
                         inkscape:connector-curvature="0"
                         d="m 388.39521,441.03316 6.78484,-6.98789"
                         id="path14" />
                      <path
                         style="fill:none;stroke:none;stroke-width:1"
                         inkscape:connector-curvature="0"
                         d="m 514.1105,409.27146 34.99194,20.7162"
                         id="path20" />
                      <path
                         style="fill:#d0d0ce;stroke:none;stroke-width:1"
                         inkscape:connector-curvature="0"
                         d="m 614.00626,633.75138 c 2.44869,12.42773 3.03661,24.03299 1.76377,34.81579 -1.34213,12.15542 -4.48059,23.81542 -9.41537,34.98001 -4.93478,11.16458 -11.45161,21.19698 -19.55049,30.09719 -8.09888,8.90021 -17.48498,16.44027 -28.1583,22.62019 -10.67332,6.17991 -22.38737,10.52643 -35.14214,13.03956 -15.69818,3.09308 -30.91342,3.03332 -45.6457,-0.17928 -14.73229,-3.2126 -28.26431,-8.95494 -40.59608,-17.22704 -12.33176,-8.2721 -22.79427,-18.69615 -31.38753,-31.27216 -8.59326,-12.576 -14.43643,-26.7131 -17.5295,-42.41128 l 82.41545,-16.23865 c 1.67542,8.50318 6.0526,15.19999 13.13154,20.09043 7.07894,4.89044 14.87,6.49795 23.37318,4.82253 6.86795,-1.35322 12.51555,-4.58938 16.94279,-9.70847 4.42724,-5.11909 7.00982,-10.97889 7.74775,-17.57939 0.53006,-2.48264 0.44068,-5.5227 -0.26815,-9.1202 -1.67542,-8.50318 -6.16536,-15.77232 -13.46984,-21.80742 -7.30448,-6.0351 -15.20831,-8.21494 -23.71149,-6.53952 l -23.54727,4.63961 -13.91884,-70.64181 23.54727,-4.63961 c 8.50318,-1.67542 14.98935,-6.69058 19.45851,-15.04548 4.46916,-8.3549 5.86603,-16.78395 4.19061,-25.28713 -0.64439,-3.27045 -1.71491,-6.1172 -3.21156,-8.54025 -3.18662,-5.82723 -7.79903,-10.26936 -13.83725,-13.32641 -6.03822,-3.05704 -12.4913,-3.90895 -19.35925,-2.55573 -8.50318,1.67542 -15.11823,6.03649 -19.84514,13.08321 -4.72691,7.04672 -6.25266,14.82167 -4.57725,23.32485 l -82.41545,16.23865 c -2.4395,-12.38111 -2.86481,-24.60803 -1.27594,-36.68076 l 9.40626,6.31816 13.36366,-6.4349 11.01882,2.26501 9.1919,3.97895 12.17773,-4.5925 11.74199,-4.68537 13.49503,3.07805 9.36249,-9.43604 9.32129,-10.18576 6.9,-8.12327 -1.82931,-11.72121 -0.71763,-12.54716 9.65457,-13.15652 -2.17659,-9.37115 0.66783,-9.04896 4.62868,-9.79433 -8.51142,-6.97764 c 7.3048,-0.44809 14.51872,-0.18565 21.64177,0.78733 8.69471,1.18766 17.04766,3.25965 25.05886,6.21597 l -1.49665,6.56497 -0.47426,9.66505 2.59258,10.4361 -0.32352,11.65936 2.66795,11.43325 10.8713,13.82176 -0.17278,13.65367 1.59542,10.51147 1.67079,11.50862 -0.54963,8.6679 -0.39889,10.66221 0.0822,0.15034 -0.015,0.51343 3.15349,9.69822 1.75511,1.80143 -2.7821,8.93488 1.59542,10.51147 5.65941,11.20714 3.58973,10.36073 -6.38182,11.11443 10.49445,8.83598 -7.00213,16.17557 2.36177,10.05422 1.00512,-7.89458 8.68558,-15.09575 -8.81101,-7.75616 8.06527,-10.0346 -1.90629,-9.28091 -3.97597,-10.12732 0.0626,-6.70338 5.21497,9.28444 13.83116,8.28849 0.753,15.63435 8.11017,10.35496 -4.62266,-12.31385 0.99075,-16.6138 -12.08741,-9.26794 -4.62266,-12.31385 1.31347,-9.91336 -6.76875,-9.00952 1.16895,-5.37923 2.23308,-7.58807 0.0127,-10.4288 0.088,-9.43165 1.85623,-12.57385 -9.18786,-12.74194 -0.9845,-10.35343 2.00697,-10.57954 -0.90913,-9.35628 2.15771,-8.58523 2.81969,-7.44518 c 1.38727,1.21085 2.75059,2.45986 4.08995,3.74703 8.80113,8.45814 16.12812,18.05609 21.98099,28.79385 5.26807,9.49402 9.09422,20.29137 11.47847,32.39205 2.642,13.40886 2.91535,26.43508 0.82005,39.07864 -2.09531,12.64356 -6.13314,24.48077 -12.11349,35.51163 9.71782,7.93778 17.92809,17.27676 24.63079,28.01695 6.7027,10.74019 11.37505,22.81471 14.01706,36.22357 z"
                         id="path24" />
                      <g
                         id="g6"
                         style="font-family:none;mix-blend-mode:normal;fill:#d0d0ce;fill-rule:nonzero;stroke:none;stroke-width:1;stroke-linecap:butt;stroke-linejoin:miter;stroke-miterlimit:10;stroke-dasharray:none;stroke-dashoffset:0"
                         text-anchor="none"
                         font-size="none"
                         font-weight="none"
                         stroke-miterlimit="10"
                         transform="translate(-667.58929,-7.1068489)">
                        <path
                           id="path2"
                           d="m 758.56362,769.28121 c -18.13528,2.7081 -36.47954,2.66279 -55.03278,-0.13595 -18.55324,-2.79874 -35.68562,-8.70915 -51.39713,-17.73125 -7.32193,-4.2045 -14.15979,-9.13262 -20.5136,-14.78435 l 5.10255,-2.12901 8.13704,2.49617 12.84993,-2.02756 8.63553,-3.83657 13.08925,0.60333 12.77494,-2.50246 8.29979,2.02813 10.04606,-9.2211 10.7554,5.9161 13.86715,-5.03707 11.38161,1.83768 13.20264,3.32296 14.10969,-2.62741 8.1196,14.7357 9.37834,8.5035 -0.72657,14.83065 -0.0685,0.38176 z"
                           inkscape:connector-curvature="0" />
                        <path
                           id="path4"
                           d="m 928.77079,629.06972 c 0.87051,-14.34178 -2.90363,-26.22485 -11.32243,-35.6492 -8.41879,-9.42435 -18.48386,-16.58374 -30.19521,-21.47817 l 39.84357,-72.86282 c 6.02685,2.94569 13.73159,7.12627 23.11421,12.54176 9.38263,5.41548 18.61891,13.08238 27.70886,23.00069 9.08995,9.91831 16.95478,22.5978 23.59451,38.03846 6.6397,15.44066 10.0619,34.49387 10.2666,57.15961 v 0.49998 c 0.2288,25.3323 -3.5792,46.61756 -11.4238,63.85578 -7.84463,17.23822 -18.46776,31.33474 -31.86936,42.28955 -13.40161,10.95482 -28.99614,19.01265 -46.78359,24.17351 -17.78745,5.16086 -36.34293,8.32857 -55.66644,9.50314 l -44.53881,0.40227 0.12746,-0.36631 3.04203,-14.53349 -7.92967,-9.8683 -5.7097,-15.82618 -14.34711,0.3835 -12.51865,-5.35117 -10.95292,-3.59883 -14.48524,2.8014 -9.69523,-7.52869 -11.36715,7.5326 -7.87934,-3.30391 -13.00927,0.46929 -12.83292,-2.64738 -9.13012,2.43569 -13.0089,-0.0115 -7.64525,-3.74065 -5.37318,1.30296 c -6.17535,-7.53687 -11.57413,-15.91242 -16.19634,-25.12666 -8.6562,-17.25586 -13.08816,-37.38332 -13.29588,-60.38238 l -0.005,-0.49998 c -0.18364,-20.3325 2.49153,-37.85738 8.0255,-52.57463 5.53397,-14.71725 12.75336,-27.3663 21.65817,-37.94715 8.9048,-10.58085 18.99429,-19.17233 30.26845,-25.77442 11.27417,-6.60209 22.56113,-11.78757 33.86088,-15.55645 l 41.15313,72.13127 c -5.98169,2.05411 -12.12327,4.85969 -18.42474,8.41675 -6.30146,3.55706 -11.92952,7.85806 -16.88416,12.90301 -4.95464,5.04495 -8.9033,10.74751 -11.84598,17.10768 -2.94268,6.36017 -4.21575,13.03861 -3.81921,20.03531 1.48681,16.98726 8.35922,30.50908 20.61721,40.56545 12.25799,10.05637 27.55328,15.00177 45.88586,14.83619 l 72.49704,-0.65478 c 18.33259,-0.16558 33.70196,-5.47127 46.10813,-15.91707 12.40617,-10.44581 19.19912,-24.17438 20.37886,-41.18573 z"
                           inkscape:connector-curvature="0" />
                      </g>
                    </g>
                  </g>
                  <path
                     style="font-family:none;mix-blend-mode:normal;fill:#d0d0ce;fill-rule:nonzero;stroke:none;stroke-width:1;stroke-linecap:butt;stroke-linejoin:miter;stroke-miterlimit:10;stroke-dasharray:none;stroke-dashoffset:0"
                     inkscape:connector-curvature="0"
                     d="m 1093.526,760.19046 82.5581,-15.49694 4.8212,25.6841 -13.2289,-2.42747 -7.8163,-2.22453 -7.865,2.92949 -12.8038,-3.72353 -14.6155,1.98826 -14.3165,-3.33059 -12.3892,4.12331 -2.4657,2.48497 z"
                     id="path8"
                     transform="matrix(0.67223257,0,0,0.67223257,614.6675,229.68918)" />
                  <path
                     style="font-family:none;mix-blend-mode:normal;fill:#d0d0ce;fill-rule:nonzero;stroke:none;stroke-width:1;stroke-linecap:butt;stroke-linejoin:miter;stroke-miterlimit:10;stroke-dasharray:none;stroke-dashoffset:0"
                     inkscape:connector-curvature="0"
                     d="m 1427.9873,730.36694 c 12.2487,-13.89232 26.2143,-26.51385 41.8967,-37.86459 l 64.6247,-41.86459 c 15.5681,-9.688 32.4215,-16.93205 50.5603,-21.73215 18.1387,-4.8001 36.2093,-6.18015 54.2118,-4.14015 1.7918,0.20304 3.5764,0.44514 5.3539,0.72631 l -1.6722,3.74405 -2.433,10.42134 -6.3716,14.53127 -4.6224,12.16291 -5.8668,7.45861 -11.9361,7.40162 -5.8055,8.69268 -11.8106,6.76654 -6.6606,9.50434 -6.0434,7.26797 -13.9354,5.15476 -10.471,8.13031 -14.1975,3.90284 -9.2712,3.9968 -11.1625,4.56556 -9.5958,13.16633 -12.4373,4.95917 -10.3742,1.48622 -10.1951,-2.14303 -10.5076,3.66238 -7.596,3.53581 -12.0153,3.62924 -13.5597,-3.4107 -8.7363,6.59335 -14.3611,-1.25108 -6.5337,-6.29124 c 5.3281,-11.60984 12.5029,-22.5308 21.5244,-32.76287 z"
                     id="path10"
                     transform="matrix(0.67223257,0,0,0.67223257,614.6675,229.68918)" />
                  <path
                     style="font-family:none;mix-blend-mode:normal;fill:none;fill-rule:nonzero;stroke:none;stroke-width:1;stroke-linecap:butt;stroke-linejoin:miter;stroke-miterlimit:10;stroke-dasharray:none;stroke-dashoffset:0"
                     inkscape:connector-curvature="0"
                     d="m 762.16207,456.14664 -8.9787,1.34224"
                     id="path26"
                     transform="matrix(0.67223257,0,0,0.67223257,614.6675,229.68918)" />
                  <path
                     style="font-family:none;mix-blend-mode:normal;fill:#d0d0ce;fill-rule:nonzero;stroke:none;stroke-width:1;stroke-linecap:butt;stroke-linejoin:miter;stroke-miterlimit:10;stroke-dasharray:none;stroke-dashoffset:0"
                     inkscape:connector-curvature="0"
                     d="m 850.95772,729.66583 c -5.75134,10.55304 -13.66481,19.24861 -23.74042,26.08673 -10.07561,6.83811 -21.6867,11.47066 -34.83326,13.89763 -13.14656,2.42697 -27.61029,2.38305 -43.39119,-0.13178 -15.7809,-2.51483 -32.40285,-7.92018 -49.86584,-16.21605 -13.54888,-6.43646 -25.41157,-14.28609 -35.58808,-23.5489 -10.17651,-9.26281 -18.50879,-19.49468 -24.99684,-30.69561 -6.48804,-11.20093 -10.86653,-23.15262 -13.13545,-35.85506 -2.26892,-12.70244 -2.04816,-25.79055 0.66227,-39.26431 l 86.63542,4.06861 c -0.7452,0.015 -1.06899,2.44445 -0.97135,7.28828 0.0976,4.84383 0.91599,10.30681 2.45506,16.38895 1.53906,6.08214 4.12066,12.10598 7.7448,18.07154 3.62414,5.96556 8.66161,9.92703 15.11243,11.88442 5.40453,1.82938 11.52046,1.96702 18.34781,0.41294 6.82734,-1.55409 12.09292,-6.61785 15.79674,-15.19129 2.13046,-5.2615 2.35089,-10.96907 0.66128,-17.12272 -1.68961,-6.15365 -4.85264,-13.28404 -9.48911,-21.39116 -10.49229,-17.53158 -20.4634,-33.24717 -29.91332,-47.14677 -9.44992,-13.8996 -17.06508,-27.38889 -22.84547,-40.46785 -5.78039,-13.07896 -8.95257,-26.2105 -9.51653,-39.39461 -0.56396,-13.18411 2.94442,-27.75495 10.52513,-43.71252 2.36021,-4.9683 4.96456,-9.56952 7.81303,-13.80366 l 4.42658,1.14893 9.09616,1.22438 9.70724,2.55405 2.53311,1.61153 -1.76783,9.20953 -3.74093,8.84224 -1.59258,8.22211 1.97766,10.91531 1.35753,8.76696 -5.45077,12.5941 -5.77203,13.93262 9.14695,-11.78555 7.13823,-11.52056 0.32993,-7.69342 -0.29021,-9.84178 3.28004,-7.14857 5.42839,-7.7687 3.64327,-9.11531 -0.36894,-2.10168 6.47284,-1.01367 8.8949,-1.09395 13.33568,7.59167 10.91045,2.19146 11.52446,3.91909 12.09919,9.29218 14.28493,-7.93224 13.49879,0.87587 8.09269,-5.39144 11.93895,-7.1763 10.90053,-8.29931 12.85319,-10.94675 -0.009,-0.0661 c 3.214,2.65057 6.20138,5.39983 8.96215,8.2478 10.27807,10.60268 17.9912,21.55526 23.13938,32.85775 5.14818,11.30249 7.94971,22.68956 8.4046,34.1612 0.45489,11.47164 -0.71043,22.08134 -3.49597,31.82909 l -78.83331,-5.34414 c 0.6701,-3.74104 1.06736,-8.073 1.19178,-12.99585 0.12442,-4.92286 -0.57164,-9.86645 -2.08817,-14.83078 -1.51653,-4.96433 -3.88554,-9.68782 -7.10703,-14.17048 -3.22149,-4.48266 -7.69255,-8.08279 -13.41319,-10.80041 -6.02172,-2.86065 -12.4105,-3.5892 -19.16632,-2.18566 -6.75583,1.40354 -11.92164,5.86889 -15.49745,13.39604 -2.71761,5.72064 -2.77999,11.87233 -0.18712,18.45508 2.59287,6.58275 7.14083,15.84719 13.6439,27.79333 10.13112,14.40773 19.73534,28.56515 28.81266,42.47226 9.07732,13.90711 16.22387,28.18863 21.43964,42.84454 5.21577,14.65591 7.8666,29.66173 7.95248,45.01745 0.0859,15.35572 -3.9476,31.61454 -12.10045,48.77645 z"
                     id="path30"
                     transform="matrix(0.67223257,0,0,0.67223257,614.6675,229.68918)" />
                  <path
                     style="font-family:none;mix-blend-mode:normal;fill:none;fill-rule:nonzero;stroke:none;stroke-width:1;stroke-linecap:butt;stroke-linejoin:miter;stroke-miterlimit:10;stroke-dasharray:none;stroke-dashoffset:0"
                     inkscape:connector-curvature="0"
                     d="m 744.18792,450.36149 13.31871,5.50731"
                     id="path32"
                     transform="matrix(0.67223257,0,0,0.67223257,614.6675,229.68918)" />
                  <path
                     style="font-family:none;mix-blend-mode:normal;fill:#d0d0ce;fill-rule:nonzero;stroke:none;stroke-width:1;stroke-linecap:butt;stroke-linejoin:miter;stroke-miterlimit:10;stroke-dasharray:none;stroke-dashoffset:0"
                     inkscape:connector-curvature="0"
                     d="m 737.22195,424.08153 c 11.19322,-8.07236 23.43273,-13.48613 36.71853,-16.24132 l -0.29246,11.93546 11.64485,10.82039 13.47304,10.12413 -9.52066,-10.73947 -9.66865,-11.12806 2.18598,-12.33761 c 11.33674,-1.50512 23.1014,-1.29352 35.294,0.63478 14.79022,2.33912 29.15985,6.69644 43.10887,13.07194 12.07138,5.83774 22.45757,12.39554 31.15858,19.67342 l 0.009,0.0661 -12.92896,10.85716 -10.95795,8.22335 -11.98854,7.09315 -8.12997,5.33506 -13.49238,-0.96967 -14.33971,7.83276 -12.03431,-9.37605 -11.49694,-3.99909 -10.89495,-2.26724 -13.2826,-7.68418 -8.90229,1.0321 -0.7223,0.10798 0.271,-0.47102 -2.16187,-10.65462 2.25623,-14.85138 -5.61614,12.68089 0.48191,9.56938 -4.20983,5.06898 -0.52377,0.0783 -12.05691,-7.78869 -9.68925,-2.62145 -9.08743,-1.28757 -4.41849,-1.17966 c 5.6678,-8.29981 12.27261,-15.16923 19.81443,-20.60826 z"
                     id="path36"
                     transform="matrix(0.67223257,0,0,0.67223257,614.6675,229.68918)" />
                  <path
                     style="font-family:none;mix-blend-mode:normal;fill:none;fill-rule:nonzero;stroke:none;stroke-width:1;stroke-linecap:butt;stroke-linejoin:miter;stroke-miterlimit:10;stroke-dasharray:none;stroke-dashoffset:0"
                     inkscape:connector-curvature="0"
                     d="m 773.94048,407.84021 7.8221,-1.32516"
                     id="path38"
                     transform="matrix(0.67223257,0,0,0.67223257,614.6675,229.68918)" />
                  <path
                     style="font-family:none;mix-blend-mode:normal;fill:#d0d0ce;fill-rule:nonzero;stroke:none;stroke-width:1;stroke-linecap:butt;stroke-linejoin:miter;stroke-miterlimit:10;stroke-dasharray:none;stroke-dashoffset:0"
                     inkscape:connector-curvature="0"
                     d="m 924.0379,398.2765 109.1609,-0.11461 2.3293,8.77003 12.7368,3.35285 6.2322,11.20718 4.049,11.69096 10.9236,3.0591 -6.9236,-3.0633 -2.049,-11.69306 -4.2322,-11.20928 -10.7368,-3.35495 -0.9058,-8.77152 122.2336,-0.12833 1.9905,2.87971 1.7805,12.93536 -5.9005,13.46249 -0.7268,14.73219 -6.0093,11.90339 1.4369,8.26896 -3.6207,7.27556 -4.8132,12.55903 -58.3673,0.0613 0.3024,287.99984 -83.9999,0.0882 -0.3024,-287.99984 -84.49998,0.0887 z"
                     id="path42"
                     transform="matrix(0.67223257,0,0,0.67223257,614.6675,229.68918)" />
                  <path
                     style="font-family:none;mix-blend-mode:normal;fill:none;fill-rule:nonzero;stroke:none;stroke-width:1;stroke-linecap:butt;stroke-linejoin:miter;stroke-miterlimit:10;stroke-dasharray:none;stroke-dashoffset:0"
                     inkscape:connector-curvature="0"
                     d="m 1033.1988,398.1619 11.4235,-0.012"
                     id="path44"
                     transform="matrix(0.67223257,0,0,0.67223257,614.6675,229.68918)" />
                  <path
                     style="font-family:none;mix-blend-mode:normal;fill:none;fill-rule:nonzero;stroke:none;stroke-width:1;stroke-linecap:butt;stroke-linejoin:miter;stroke-miterlimit:10;stroke-dasharray:none;stroke-dashoffset:0"
                     inkscape:connector-curvature="0"
                     d="m 1238.1006,467.80818 10.1819,-13.6747"
                     id="path48"
                     transform="matrix(0.67223257,0,0,0.67223257,614.6675,229.68918)" />
                  <path
                     style="font-family:none;mix-blend-mode:normal;fill:#d0d0ce;fill-rule:nonzero;stroke:none;stroke-width:1;stroke-linecap:butt;stroke-linejoin:miter;stroke-miterlimit:10;stroke-dasharray:none;stroke-dashoffset:0"
                     inkscape:connector-curvature="0"
                     d="m 1278.312,427.60563 c 17.1353,-10.38401 35.0522,-17.12413 53.7507,-20.22036 18.6986,-3.09623 37.5697,-2.18925 56.6136,2.72095 l 0.4842,0.12484 c 19.0438,4.9102 36.0815,13.26186 51.1132,25.05498 1.7977,1.41044 3.557,2.8602 5.2779,4.34929 l -1.6448,2.28986 -8.0626,10.48222 -15.7172,5.32864 -7.3287,10.13991 -13.7045,-2.05436 -11.0836,4.7497 -6.511,8.80628 -9.9807,-0.959 -9.7362,6.87104 -13.0244,-2.13887 -7.5867,3.46024 -9.0388,1.38264 -9.6356,6.12744 -10.5067,-2.25459 -12.3085,-2.71513 -15.1296,-1.62546 -9.5696,3.01614 -9.0323,-2.44725 -9.3385,-5.15895 -12.3252,-1.75058 -9.7438,1.41277 -2.6175,-4.59168 c 1.8898,-3.42896 3.9483,-6.82834 6.1755,-10.19815 l 6.0377,1.48306 10.7576,-4.41613 9.4639,3.54165 12.609,-0.34524 10.4264,4.57778 8.615,-4.21144 2.6606,-0.007 0.74,-1.65559 2.8497,-1.39308 10.4632,3.57845 13.2262,-1.13208 -10.7576,-2.01528 -9.2289,-5.15213 -4.6967,1.9617 2.9541,-6.60967 7.1746,-7.58445 13.0252,0.58695 -15.0186,-4.05485 -8.1714,5.8505 -6.5466,10.68372 -11.2792,-1.11521 -0.2644,-0.17693 -11.3747,-1.22844 -8.2295,-5.11533 -9.5233,2.84245 -5.7305,-2.56835 c 8.7267,-10.38079 18.7366,-19.2234 30.0296,-26.52785 z"
                     id="path52"
                     transform="matrix(0.67223257,0,0,0.67223257,614.6675,229.68918)" />
                  <path
                     style="font-family:none;mix-blend-mode:normal;fill:none;fill-rule:nonzero;stroke:none;stroke-width:1;stroke-linecap:butt;stroke-linejoin:miter;stroke-miterlimit:10;stroke-dasharray:none;stroke-dashoffset:0"
                     inkscape:connector-curvature="0"
                     d="m 1224.0552,723.85989 -14.7351,-20.37186"
                     id="path54"
                     transform="matrix(0.67223257,0,0,0.67223257,614.6675,229.68918)" />
                  <path
                     style="font-family:none;mix-blend-mode:normal;fill:#d0d0ce;fill-rule:nonzero;stroke:none;stroke-width:1;stroke-linecap:butt;stroke-linejoin:miter;stroke-miterlimit:10;stroke-dasharray:none;stroke-dashoffset:0"
                     inkscape:connector-curvature="0"
                     d="m 1467.4859,659.6496 c -4.4997,17.42848 -11.7247,34.41155 -21.6749,50.94922 -9.9501,16.53767 -23.1301,29.91765 -39.5399,40.13996 -16.8993,10.78447 -34.7793,17.70093 -53.6403,20.74938 -18.8609,3.04844 -37.8125,2.11445 -56.8547,-2.80199 l -0.4841,-0.12499 c -18.7195,-4.83311 -35.5931,-13.14868 -50.6209,-24.94672 -7.5019,-5.88958 -14.3738,-12.47443 -20.6159,-19.75455 l 5.3251,-7.42288 6.2883,-11.91208 5.8292,-11.02372 3.1042,-7.92939 0.04,-12.89016 5.8291,-11.02372 3.9528,-4.73633 0.458,-10.21219 9.5133,-9.30487 4.9109,-9.24698 4.9408,-11.48285 8.9833,-12.77054 4.372,-12.30531 -6.6473,9.01549 -10.121,11.12563 -6.0784,9.83794 -0.8864,1.11407 0.7458,-5.79716 -4.4196,-12.66754 0.1566,-9.05403 8.3465,-10.01683 -0.4524,-12.15711 -5.9219,-8.82785 1.9546,8.31742 -1.5313,11.9019 -10.3301,9.76161 -2.1403,8.79882 2.436,12.41233 -3.1321,8.67121 0.8352,9.18164 -9.3383,9.88922 -0.4277,9.53845 -5.1094,6.87832 -1.1775,11.24525 -4.2419,6.28448 -6.9668,9.37881 -7.426,10.26717 -6.4082,6.78994 c -0.729,-1.19869 -1.4454,-2.41127 -2.1492,-3.63775 -9.0874,-16.80533 -14.0856,-34.44833 -14.9945,-52.929 -0.9089,-18.48067 0.9751,-37.44515 5.6522,-56.89346 l 21.749,-84.23765 c 2.6486,-10.25863 6.6691,-20.27627 12.0615,-30.05294 l 2.616,4.59253 9.7444,-1.40958 12.3246,1.75462 9.3367,5.16201 9.0316,2.4502 9.5705,-3.013 15.1291,1.63042 12.3077,2.71916 10.5058,2.25803 9.6377,-6.12429 9.0392,-1.37968 7.5878,-3.45775 13.0237,2.14313 9.7385,-6.86786 9.9804,0.96227 6.5139,-8.80414 11.0851,-4.74607 13.7038,2.05885 7.332,-10.13751 15.719,-5.32349 8.0661,-10.47958 1.6455,-2.28932 c 12.6642,10.96578 23.244,24.06183 31.7395,39.28815 8.4525,15.26435 13.5835,31.39247 15.3932,48.38439 1.8097,16.99191 0.751,33.75965 -3.176,50.30321 z"
                     id="path58"
                     transform="matrix(0.67223257,0,0,0.67223257,614.6675,229.68918)" />
                  <path
                     style="font-family:none;mix-blend-mode:normal;fill:none;fill-rule:nonzero;stroke:none;stroke-width:1;stroke-linecap:butt;stroke-linejoin:miter;stroke-miterlimit:10;stroke-dasharray:none;stroke-dashoffset:0"
                     inkscape:connector-curvature="0"
                     d="m 1813.7922,682.98125 4.768,3.8422"
                     id="path60"
                     transform="matrix(0.67223257,0,0,0.67223257,614.6675,229.68918)" />
                  <path
                     style="font-family:none;mix-blend-mode:normal;fill:none;fill-rule:nonzero;stroke:none;stroke-width:1;stroke-linecap:butt;stroke-linejoin:miter;stroke-miterlimit:10;stroke-dasharray:none;stroke-dashoffset:0"
                     inkscape:connector-curvature="0"
                     d="m 1784.267,762.91032 -18.7227,6.03552"
                     id="path64"
                     transform="matrix(0.67223257,0,0,0.67223257,614.6675,229.68918)" />
                  <path
                     style="font-family:none;mix-blend-mode:normal;fill:#d0d0ce;fill-rule:nonzero;stroke:none;stroke-width:1;stroke-linecap:butt;stroke-linejoin:miter;stroke-miterlimit:10;stroke-dasharray:none;stroke-dashoffset:0"
                     inkscape:connector-curvature="0"
                     d="m 1718.7553,688.38079 c 13.9615,3.39438 26.3248,1.78235 37.0901,-4.83608 10.7653,-6.61844 19.5926,-15.25793 26.482,-25.91849 l 31.4648,25.35503 0.2193,0.96739 -3.3413,8.56633 6.4363,9.32928 -3.3217,-6.81946 4.8986,-7.31142 -0.1232,-0.88993 28.4305,22.90989 c -3.9656,5.41055 -9.4435,12.25402 -16.4336,20.5304 -6.9902,8.27638 -16.1704,16.01037 -27.5406,23.20197 -5.6354,3.56443 -11.8853,6.71263 -18.7495,9.44461 l -6.0139,-6.0428 -12.2507,-4.75413 -8.8255,-5.88053 -7.3138,-11.04912 -3.4736,-7.99589 -9.1303,1.53022 -0.6034,-0.30956 -7.144,-9.64514 -12.76,-8.96609 -8.2085,-6.6674 -17.4195,-3.95424 13.5922,5.11667 6.2947,7.24862 7.6604,6.74297 -3.7418,-1.50057 -11.1001,3.57625 -14.0888,-1.22655 -8.0184,-0.84002 -13.8621,-2.20051 12.9551,6.09632 7.5649,2.78793 13.6353,3.17446 10.6466,-1.62834 12.2079,4.89562 6.4311,7.6577 6.126,-1.02669 0.9542,0.62154 5.4,11.63034 6.9119,6.46174 10.337,5.33535 4.5144,6.84738 c -1.362,0.34958 -2.7423,0.6868 -4.1408,1.01165 -16.3719,3.80292 -35.73,3.79991 -58.0743,-0.009 l -0.4929,-0.084 c -24.9731,-4.25706 -45.2488,-11.77107 -60.827,-22.54202 -15.5782,-10.77096 -27.5727,-23.72067 -35.9834,-38.84916 -2.216,-3.98595 -4.2071,-8.08613 -5.9734,-12.30057 l 9.0536,-0.54957 10.6432,-9.7225 1.0618,-10.89347 11.6902,-7.67071 5.4633,-11.30005 2.5401,-7.98426 4.4182,-10.21283 8.4794,-6.05267 5.9294,-8.64141 4.7702,-12.51101 -3.1939,-15.97592 4.1968,-11.30626 3.3351,-9.52933 6.7392,-13.09134 1.1051,-13.21071 5.6405,-13.746 -1.2578,-9.36824 -2.4858,-11.33654 3.0157,-13.27333 -2.4673,-10.15771 2.6332,-13.79563 -1.5176,-9.36731 -5.8223,-11.63635 -6.3813,-14.52701 -6.0227,-8.84592 -1.6235,-3.7654 c 12.7591,-10.11339 27.4748,-17.63126 44.1472,-22.55359 18.5152,-5.4664 39.1093,-6.26713 61.7822,-2.40217 l 0.4929,0.084 c 20.0442,3.41685 36.8192,9.15062 50.3251,17.20132 13.5059,8.0507 24.678,17.39428 33.5163,28.03073 8.8383,10.63646 15.509,22.08691 20.0121,34.35135 4.5031,12.26444 7.6097,24.29083 9.3197,36.07915 l -46.5482,16.49699 -1.1309,-2.0131 -9.7014,-8.10884 -14.8655,-3.39536 11.0952,4.73155 7.8163,8.77694 0.8206,2.12307 -25.7608,9.12981 c -0.9633,-6.25076 -2.638,-12.79185 -5.0239,-19.62327 -2.386,-6.83142 -5.6233,-13.13168 -9.712,-18.90079 -4.0887,-5.76911 -9.0026,-10.66446 -14.7418,-14.68607 -5.7391,-4.0216 -12.0869,-6.45626 -19.0434,-7.30396 -16.9823,-1.54234 -31.5068,2.82911 -43.5734,13.11434 -12.0666,10.28523 -19.6403,24.46416 -22.721,42.53679 l -12.1831,71.46904 c -3.0807,18.07263 -0.5782,34.13829 7.5077,48.19697 8.0859,14.05868 20.3959,23.17356 36.9301,27.34465 z"
                     id="path68"
                     transform="matrix(0.67223257,0,0,0.67223257,614.6675,229.68918)" />
                  <path
                     style="font-family:none;mix-blend-mode:normal;fill:none;fill-rule:nonzero;stroke:none;stroke-width:1;stroke-linecap:butt;stroke-linejoin:miter;stroke-miterlimit:10;stroke-dasharray:none;stroke-dashoffset:0"
                     inkscape:connector-curvature="0"
                     d="m 1833.0426,534.98902 -5.9656,2.11426"
                     id="path70"
                     transform="matrix(0.67223257,0,0,0.67223257,614.6675,229.68918)" />
                  <path
                     id="path74"
                     d="m 1539.185,788.59438 c -0.1989,-3.79479 -1.0365,-7.03874 -2.5128,-9.73183 -1.4763,-2.69309 -3.3705,-5.08056 -5.6827,-7.16241 -2.3121,-2.08185 -4.9282,-3.91411 -7.8484,-5.49678 -2.9202,-1.58267 -5.9568,-3.15924 -9.11,-4.7297 -2.2807,-1.48267 -3.9624,-2.67963 -5.0449,-3.59089 -1.0825,-0.91126 -1.6569,-1.99936 -1.7232,-3.26429 -0.087,-1.66438 0.3966,-2.94145 1.4515,-3.83122 1.0549,-0.88976 2.2481,-1.36953 3.5796,-1.43931 1.2649,-0.0663 2.394,0.14157 3.3873,0.62358 0.9932,0.48201 1.8594,1.08751 2.5986,1.81649 0.7392,0.72898 1.332,1.53239 1.7786,2.41022 0.4465,0.87783 0.7889,1.67768 1.027,2.39954 l 14.3763,-6.56139 c -0.4376,-1.97981 -1.2421,-3.95708 -2.4138,-5.9318 -1.1716,-1.97472 -2.748,-3.71127 -4.7291,-5.20964 -1.9811,-1.49837 -4.3802,-2.69111 -7.1971,-3.57823 -2.817,-0.88712 -6.0563,-1.23473 -9.7179,-1.04283 -3.059,0.22707 -5.9972,0.84836 -8.8146,1.86387 -2.8173,1.01551 -5.2809,2.41302 -7.3907,4.19255 -2.1097,1.77952 -3.7658,3.93582 -4.9682,6.46888 -1.2024,2.53307 -1.7181,5.4307 -1.5472,8.69289 0.1849,3.52849 0.9543,6.42553 2.308,8.69112 1.3538,2.26559 3.1614,4.27374 5.4228,6.02445 2.2614,1.75071 4.8846,3.39902 7.8695,4.94491 2.985,1.5459 6.2345,3.36165 9.7485,5.44727 1.5871,0.98496 2.822,1.9383 3.7048,2.86003 0.8827,0.92173 1.3871,1.94674 1.513,3.07503 0.1642,1.86062 -0.2802,3.25245 -1.3333,4.1755 -1.0532,0.92305 -2.1421,1.48081 -3.2669,1.67327 -1.3211,0.26951 -2.5842,0.052 -3.7894,-0.65258 -1.2052,-0.70456 -2.2325,-1.51857 -3.082,-2.44205 -0.8495,-0.92347 -1.5133,-1.80661 -1.9914,-2.64941 -0.4781,-0.8428 -0.6523,-1.30098 -0.5227,-1.37453 l -15.6274,7.52819 c 0.8053,2.62812 2.0119,4.95149 3.6198,6.97011 1.6078,2.01862 3.5153,3.70443 5.7225,5.05744 2.2072,1.35301 4.6465,2.36005 7.3181,3.02114 2.6716,0.66109 5.5054,0.91312 8.5013,0.75612 3.8613,-0.20237 7.2997,-0.83318 10.315,-1.89244 3.0154,-1.05926 5.5639,-2.42785 7.6456,-4.10577 2.0817,-1.67791 3.6835,-3.59771 4.8052,-5.75938 1.1217,-2.16167 1.6864,-4.44435 1.6939,-6.84804 z m -53.2346,37.03684 -5.4744,-104.45665 389.3657,-20.40579 5.4743,104.45665 z m 108.0402,-95.68553 -50.5306,2.6482 0.8792,16.77698 16.8769,-0.88448 3.0145,57.52106 16.777,-0.87924 -3.0146,-57.52106 16.8769,-0.88448 z m 30.5572,72.90067 -3.8938,-74.29804 -16.777,0.87924 3.8938,74.29804 z m 38.083,-18.51849 c -3.4093,-0.0884 -6.2112,-1.32674 -8.4059,-3.71516 -2.1947,-2.38841 -3.388,-5.41344 -3.5799,-9.07508 l -0.7589,-14.48013 c -0.1919,-3.66164 0.6638,-6.76067 2.567,-9.29708 1.9032,-2.53641 4.5455,-4.02674 7.9269,-4.47099 1.3946,-0.13985 2.74,0.0567 4.0364,0.58956 1.2963,0.53289 2.4699,1.27248 3.5209,2.21877 1.051,0.94629 1.9591,2.03359 2.7245,3.26188 0.7653,1.2283 1.3791,2.43115 1.8413,3.60857 l 14.0562,-8.84777 c -0.8509,-2.22518 -1.9848,-4.43553 -3.4017,-6.63106 -1.4168,-2.19552 -3.2209,-4.1371 -5.4122,-5.82473 -2.1913,-1.68763 -4.7813,-3.02057 -7.7699,-3.99883 -2.9887,-0.97826 -6.5135,-1.36098 -10.5746,-1.14814 l -0.1,0.005 c -4.5937,0.24075 -8.577,1.30067 -11.9499,3.17977 -3.373,1.8791 -6.1346,4.27692 -8.2849,7.19346 -2.1503,2.91654 -3.7147,6.18622 -4.6931,9.80906 -0.9784,3.62284 -1.4049,7.26682 -1.2796,10.93195 l 0.806,15.37889 c 0.402,3.8509 1.1957,7.53107 2.381,11.04051 1.1853,3.50944 2.9305,6.55562 5.2355,9.13852 2.305,2.58291 5.2137,4.58342 8.726,6.00154 3.5124,1.41812 7.7985,1.9946 12.8582,1.72943 l 0.1,-0.005 c 4.5272,-0.23726 8.3046,-1.08611 11.3323,-2.54657 3.0277,-1.46046 5.4931,-3.14179 7.3961,-5.044 1.9031,-1.90221 3.355,-3.81415 4.3558,-5.73582 1.0008,-1.92168 1.7694,-3.4974 2.3058,-4.72715 l -14.9041,-7.33003 c -0.8765,2.38247 -2.2198,4.45562 -4.03,6.21944 -1.8102,1.76382 -4.1519,2.62088 -7.0251,2.57119 z m 85.3485,-62.45238 -20.7715,1.08859 -11.178,17.90956 -0.9054,-17.27629 -16.777,0.87924 3.8938,74.29804 16.777,-0.87924 -0.8426,-16.07794 12.8261,15.4499 20.7715,-1.08859 -29.5038,-35.60468 z m 58.9995,13.73102 -0.8793,-16.77698 -45.5375,2.38652 3.8938,74.29804 45.5375,-2.38652 -0.8792,-16.77698 -28.7605,1.50728 -0.6281,-11.98355 21.171,-1.10952 -0.8793,-16.77698 -21.1709,1.10952 -0.628,-11.98355 z m 60.7353,54.49605 -16.6337,-28.86902 c 0.8655,-0.0454 2.0403,-0.55754 3.5245,-1.53656 1.4841,-0.97902 2.9289,-2.3899 4.3344,-4.23265 1.4055,-1.84275 2.5894,-4.09113 3.5518,-6.74513 0.9624,-2.65401 1.3564,-5.64539 1.182,-8.97416 -0.1675,-3.19561 -0.6933,-6.22224 -1.5774,-9.07989 -0.8841,-2.85765 -2.2317,-5.32383 -4.0427,-7.39856 -1.8111,-2.07473 -4.1654,-3.68706 -7.0629,-4.83699 -2.8975,-1.14993 -6.4766,-1.61325 -10.7374,-1.38995 l -22.6689,1.18803 3.8938,74.29804 16.777,-0.87924 -1.2666,-24.16683 0.1998,-0.0105 11.2528,23.64348 z"
                     inkscape:connector-curvature="0"
                     style="fill:#fe5000;stroke:none;stroke-width:1" />
                  <path
                     id="path78"
                     d="m 1462.6057,986.56607 c -3.3887,-0.38516 -6.0721,-1.86305 -8.0502,-4.43365 -1.9782,-2.5706 -2.9033,-5.68812 -2.7753,-9.35255 l 0.506,-14.49117 c 0.128,-3.66443 1.2505,-6.67709 3.3675,-9.03798 2.117,-2.36089 4.8791,-3.61526 8.2864,-3.7631 1.4015,-0.0178 2.7247,0.29527 3.9696,0.93911 1.245,0.64384 2.3497,1.48291 3.3142,2.5172 0.9645,1.03429 1.7744,2.1966 2.4298,3.48692 0.6554,1.29032 1.162,2.5421 1.5199,3.75533 l 14.7738,-7.58902 c -0.6538,-2.29088 -1.5907,-4.59165 -2.8108,-6.9023 -1.2201,-2.31066 -2.8481,-4.40208 -4.884,-6.27427 -2.0359,-1.87219 -4.4999,-3.4258 -7.3919,-4.66081 -2.892,-1.23501 -6.3701,-1.92348 -10.4342,-2.06541 l -0.1,-0.003 c -4.5972,-0.16054 -8.6577,0.54818 -12.1816,2.12616 -3.5239,1.57798 -6.484,3.72598 -8.8803,6.44401 -2.3963,2.71803 -4.2397,5.83893 -5.5301,9.36271 -1.2904,3.52378 -2.033,7.11672 -2.2275,10.77883 l -0.5375,15.39062 c 0.065,3.87129 0.5349,7.60663 1.4098,11.20603 0.8749,3.59939 2.3479,6.78608 4.419,9.56005 2.0711,2.77397 4.7944,5.02038 8.1698,6.73922 3.3754,1.7189 7.5949,2.6667 12.6585,2.8435 h 0.1 c 4.5306,0.1582 8.3676,-0.3582 11.5111,-1.5492 3.1435,-1.191 5.746,-2.65107 7.8076,-4.38018 2.0616,-1.7291 3.6747,-3.50723 4.8391,-5.33437 1.1645,-1.82714 2.0675,-3.32987 2.709,-4.5082 l -14.2085,-8.60111 c -1.0808,2.29701 -2.5997,4.24519 -4.5567,5.84453 -1.957,1.59934 -4.3645,2.24905 -7.2224,1.94913 z m -34.3965,30.81843 3.6505,-104.53636 360.5802,12.59174 -3.6505,104.53632 z m 118.3805,-69.0107 0.5863,-16.78977 -45.5722,-1.59142 -2.5965,74.35469 45.5722,1.5914 0.5863,-16.78976 -28.7825,-1.00511 0.4188,-11.99269 21.1871,0.73987 0.5863,-16.78977 -21.1871,-0.73987 0.4188,-11.99269 z m 48.5571,-15.11459 -1.2738,36.47777 -18.6141,-37.17227 -17.0896,-0.59678 -2.5965,74.35467 17.7892,0.6212 1.2773,-36.57768 18.7105,37.27568 16.9896,0.5934 2.5965,-74.35478 z m 77.6527,2.71169 -50.5692,-1.76591 -0.5863,16.78977 16.8897,0.5898 -2.0102,57.56494 16.7897,0.5863 2.0102,-57.56493 16.8897,0.5898 z m 53.9804,18.69528 0.5863,-16.78977 -45.5722,-1.59142 -2.5966,74.35471 45.5723,1.5914 0.5863,-16.78978 -28.7825,-1.00511 0.4188,-11.99269 21.1871,0.73987 0.5863,-16.78977 -21.1871,-0.73987 0.4188,-11.99269 z m 55.7546,59.58212 -14.0543,-30.2089 c 0.8661,0.0302 2.0811,-0.3776 3.6449,-1.22354 1.5638,-0.84594 3.1261,-2.12553 4.6868,-3.83877 1.5608,-1.71324 2.9362,-3.84988 4.1262,-6.4099 1.1901,-2.56003 1.8433,-5.50569 1.9596,-8.83699 0.1117,-3.19805 -0.1483,-6.25899 -0.78,-9.18282 -0.6316,-2.92383 -1.7592,-5.49808 -3.3825,-7.72275 -1.6234,-2.22468 -3.8281,-4.03606 -6.6144,-5.43415 -2.7862,-1.39809 -6.3114,-2.17159 -10.5754,-2.32049 l -22.6862,-0.79222 -2.5965,74.35473 16.7897,0.5863 0.8446,-24.1853 0.1999,0.007 9.1493,24.5343 z"
                     inkscape:connector-curvature="0"
                     style="fill:#fe5000;stroke:none;stroke-width:1" />
                </g>
                <path
                   d="m 1272.0076,877.78144 c -0.1761,-3.40148 -0.913,-6.6849 -2.2159,-9.85022 -1.3028,-3.16533 -3.1954,-5.97797 -5.6785,-8.43787 -2.8271,-2.78302 -6.0167,-4.88652 -9.5692,-6.31047 -3.5521,-1.42395 -7.2972,-2.07357 -11.2346,-1.94884 l -0.1009,0.004 c -3.9373,0.12464 -7.6171,1.00955 -11.0389,2.65446 -3.4216,1.64492 -6.4885,3.94661 -9.2006,6.90512 -2.2556,2.61 -3.965,5.58688 -5.1282,8.93054 -1.1634,3.34365 -1.6943,6.61718 -1.5928,9.8206 l 0.5518,17.41845 c 0.1939,4.00212 0.8967,7.75428 2.1102,11.25646 1.2134,3.50223 3.1656,6.61355 5.8572,9.33407 2.8938,2.78091 6.117,4.88334 9.6693,6.30731 3.5525,1.42395 7.2639,2.07462 11.1348,1.95199 l 0.1009,-0.004 c 3.9375,-0.12463 7.6339,-1.01008 11.0891,-2.65604 3.455,-1.64594 6.5039,-3.9805 9.1469,-7.00362 2.5809,-2.88755 4.3631,-6.20072 5.3472,-9.93955 0.9837,-3.7388 1.4184,-7.41011 1.3043,-11.01393 z m -59.683,64.51987 -3.3173,-104.71093 527.1583,-16.70064 3.3173,104.71093 z m 69.0249,-92.2724 2.3597,74.47891 17.118,-0.54233 -0.8309,-26.22776 5.606,-0.17765 c 3.2035,-0.10148 6.0878,-0.77737 8.6536,-2.02777 2.5658,-1.25034 4.7325,-2.97241 6.5001,-5.16615 1.7676,-2.19373 3.1055,-4.77467 4.0135,-7.74284 0.9078,-2.96816 1.3051,-6.25414 1.1908,-9.85795 -0.1148,-3.67058 -0.7219,-6.97491 -1.8173,-9.91299 -1.0952,-2.9381 -2.5935,-5.42921 -4.4954,-7.47329 -1.9016,-2.04409 -4.1721,-3.59217 -6.8109,-4.64424 -2.6385,-1.05206 -5.5595,-1.52735 -8.763,-1.42589 z m 100.3386,13.65592 -0.5327,-16.81782 -45.6483,1.44616 2.3594,74.47892 45.6483,-1.44618 -0.5327,-16.8178 -28.8306,0.91336 -0.3807,-12.01272 21.2225,-0.67234 -0.5328,-16.81783 -21.2224,0.67236 -0.3804,-12.01273 z m 59.688,55.82801 -16.0581,-29.25262 c 0.8677,-0.0281 2.0548,-0.51603 3.5611,-1.46559 1.5066,-0.94959 2.9824,-2.33245 4.4279,-4.14855 1.4457,-1.81612 2.6778,-4.043 3.6965,-6.6806 1.0187,-2.63766 1.475,-5.62494 1.3696,-8.9618 -0.1009,-3.20339 -0.5655,-6.24499 -1.3913,-9.1248 -0.8261,-2.87984 -2.1245,-5.37727 -3.895,-7.49231 -1.7705,-2.11505 -4.0946,-3.77834 -6.9722,-4.98986 -2.8775,-1.21152 -6.4518,-1.74964 -10.7232,-1.61431 l -22.7238,0.7199 2.3593,74.47892 16.8179,-0.53281 -0.7674,-24.22565 0.2002,-0.008 10.7779,23.9085 z m 47.8299,-21.15577 7.3286,19.40832 19.1202,-0.60574 -24.1827,-73.78753 -22.4239,0.71038 -19.4636,75.17028 19.1204,-0.60575 5.9856,-19.83009 z m 83.0517,-57.54428 -50.6535,1.60473 0.5327,16.81781 16.9178,-0.53596 1.8267,57.66107 16.8177,-0.53279 -1.8265,-57.66107 16.9178,-0.53596 z m 29.0879,73.63215 -2.3596,-74.47891 -16.8181,0.5328 2.3597,74.47889 z m 65.9807,-49.18737 c -0.1762,-3.40152 -0.9132,-6.68492 -2.2157,-9.85026 -1.3027,-3.16533 -3.1957,-5.97795 -5.6786,-8.43786 -2.8271,-2.78303 -6.017,-4.8865 -9.5694,-6.31046 -3.5522,-1.42397 -7.2971,-2.07357 -11.2346,-1.94885 l -0.1009,0.004 c -3.9375,0.12464 -7.6173,1.00958 -11.0391,2.65447 -3.4215,1.6449 -6.4885,3.9466 -9.2007,6.90513 -2.2554,2.61 -3.9649,5.58687 -5.1281,8.93051 -1.1633,3.34367 -1.6942,6.6172 -1.5927,9.82063 l 0.5517,17.41845 c 0.1938,4.00212 0.8968,7.75426 2.1102,11.25647 1.2133,3.5022 3.1656,6.61354 5.8572,9.33404 2.8938,2.78093 6.117,4.88335 9.6693,6.30732 3.5523,1.42398 7.2639,2.07461 11.1348,1.95199 l 0.1009,-0.004 c 3.9373,-0.12463 7.6337,-1.01008 11.0889,-2.65606 3.4549,-1.64592 6.5041,-3.98048 9.1474,-7.00362 2.5806,-2.88753 4.3628,-6.20073 5.3466,-9.93951 0.984,-3.73882 1.4186,-7.41014 1.3044,-11.01394 z m 45.8806,-28.91014 1.1577,36.53872 -21.0786,-35.90758 -17.1182,0.5423 2.3594,74.47892 17.8189,-0.56454 -1.1606,-36.63881 21.182,36.00455 17.0178,-0.53916 -2.3595,-74.47891 z"
                   id="path8-0"
                   inkscape:connector-curvature="0"
                   style="mix-blend-mode:normal;fill:#fe5000;fill-opacity:1;stroke-width:1.00156271" />
              </g>
            </g>
          </g>
        </g>
      </g>
    </g>
  </g>
</svg>
