<?xml version="1.0" encoding="UTF-8" standalone="no"?>
<!DOCTYPE svg PUBLIC "-//W3C//DTD SVG 1.1//EN" "http://www.w3.org/Graphics/SVG/1.1/DTD/svg11.dtd">
<svg width="100%" height="100%" viewBox="0 0 500 500" version="1.1" xmlns="http://www.w3.org/2000/svg" xmlns:xlink="http://www.w3.org/1999/xlink" xml:space="preserve" xmlns:serif="http://www.serif.com/" style="fill-rule:evenodd;clip-rule:evenodd;stroke-linejoin:round;stroke-miterlimit:1.5;">
    <g transform="matrix(1,0,0,1,85.5584,202.83)">
        <g transform="matrix(0.518467,0.897494,-0.897494,0.518467,285.114,-97.7494)">
            <circle cx="62.86" cy="171.667" r="227.79" style="fill:rgb(213,213,201);stroke:black;stroke-width:12.01px;"/>
        </g>
        <g transform="matrix(1,0,0,1,-105.696,-238.663)">
            <g>
                <g transform="matrix(-0.134606,0.990899,-0.990899,-0.134606,305.26,218.849)">
                    <text x="56.628px" y="242.223px" style="font-family:'Montserrat-Bold', 'Montserrat';font-weight:700;font-size:36px;fill:rgb(23,37,35);">c</text>
                </g>
                <g transform="matrix(-0.0238756,0.999715,-0.999715,-0.0238756,320.348,217.408)">
                    <text x="53.547px" y="264.598px" style="font-family:'Montserrat-Bold', 'Montserrat';font-weight:700;font-size:36px;fill:rgb(23,37,35);">h</text>
                </g>
                <g transform="matrix(0.0873552,0.996177,-0.996177,0.0873552,339.276,212.532)">
                    <text x="53.1px" y="290.931px" style="font-family:'Montserrat-Bold', 'Montserrat';font-weight:700;font-size:36px;fill:rgb(23,37,35);">a</text>
                </g>
                <g transform="matrix(0.202623,0.979257,-0.979257,0.202623,353.291,196.646)">
                    <text x="55.281px" y="314.761px" style="font-family:'Montserrat-Bold', 'Montserrat';font-weight:700;font-size:36px;fill:rgb(23,37,35);">o</text>
                </g>
                <g transform="matrix(0.304641,0.952467,-0.952467,0.304641,366.114,177.895)">
                    <text x="60.536px" y="339.19px" style="font-family:'Montserrat-Bold', 'Montserrat';font-weight:700;font-size:36px;fill:rgb(23,37,35);">s</text>
                </g>
                <g transform="matrix(0.370869,0.928685,-0.928685,0.370869,375.496,162.884)">
                    <text x="66.79px" y="358.084px" style="font-family:'Montserrat-Bold', 'Montserrat';font-weight:700;font-size:36px;fill:rgb(23,37,35);">.</text>
                </g>
                <g transform="matrix(0.43436,0.900739,-0.900739,0.43436,371.862,144.047)">
                    <text x="70.443px" y="367.605px" style="font-family:'Montserrat-Bold', 'Montserrat';font-weight:700;font-size:36px;fill:rgb(23,37,35);">s</text>
                </g>
                <g transform="matrix(0.526444,0.85021,-0.85021,0.526444,366.636,114.876)">
                    <text x="79.298px" y="386.062px" style="font-family:'Montserrat-Bold', 'Montserrat';font-weight:700;font-size:36px;fill:rgb(23,37,35);">o</text>
                </g>
                <g transform="matrix(0.617175,0.786826,-0.786826,0.617175,356.684,82.4482)">
                    <text x="92.586px" y="407.273px" style="font-family:'Montserrat-Bold', 'Montserrat';font-weight:700;font-size:36px;fill:rgb(23,37,35);">c</text>
                </g>
                <g transform="matrix(0.67549,0.737369,-0.737369,0.67549,348.38,58.6058)">
                    <text x="106.47px" y="424.607px" style="font-family:'Montserrat-Bold', 'Montserrat';font-weight:700;font-size:36px;fill:rgb(23,37,35);">i</text>
                </g>
                <g transform="matrix(0.729996,0.683451,-0.683451,0.729996,327.685,38.1945)">
                    <text x="114.237px" y="433.326px" style="font-family:'Montserrat-Bold', 'Montserrat';font-weight:700;font-size:36px;fill:rgb(23,37,35);">a</text>
                </g>
                <g transform="matrix(0.783951,0.620823,-0.620823,0.783951,307.753,14.6392)">
                    <text x="131.407px" y="448.987px" style="font-family:'Montserrat-Bold', 'Montserrat';font-weight:700;font-size:36px;fill:rgb(23,37,35);">l</text>
                </g>
                <g transform="matrix(0.820272,0.571974,-0.571974,0.820272,286.7,0.868273)">
                    <text x="140.377px" y="456.137px" style="font-family:'Montserrat-Bold', 'Montserrat';font-weight:700;font-size:36px;fill:rgb(23,37,35);">/</text>
                </g>
                <g transform="matrix(0.898807,0.438344,-0.438344,0.898807,220.434,-20.8187)">
                    <text x="153.142px" y="466.527px" style="font-family:'Montserrat-Bold', 'Montserrat';font-weight:700;font-size:48px;fill:rgb(23,37,35);">@</text>
                </g>
            </g>
        </g>
    </g>
    <g transform="matrix(0.982278,0,0,0.982278,4.41613,-8.63314)">
        <g transform="matrix(0.381415,0.66025,-0.66025,0.381415,338.561,152.521)">
            <circle cx="62.86" cy="171.667" r="227.79" style="fill:rgb(26,58,68);stroke:black;stroke-width:13.35px;"/>
        </g>
        <g transform="matrix(0.370001,-0.929031,0.929031,0.370001,91.6646,432.826)">
            <path d="M114.8,225.825C114.8,225.825 148.382,221.795 155.789,228.639C159.834,225.737 189.429,214.099 192.41,214.054C195.472,214.007 188.893,232.695 197.798,238.554C212.537,232.728 220.403,219.178 225.242,219.221C232.34,219.284 246.556,242.021 248.131,240.776C258.796,230.6 264.534,218.72 268.325,220.011C273.647,221.825 270.699,231.644 291.785,228.005C301.186,221.328 304.099,211.203 308.482,211.158C311.13,211.131 330.442,212.609 330.442,212.609L323.274,224.144C213.107,277.527 161.764,250.846 114.8,225.825Z" style="fill:rgb(76,82,105);"/>
        </g>
        <g transform="matrix(0.50913,0.86069,-0.86069,0.50913,226.547,-4.353)">
            <path d="M125.519,225.382C134.28,231.574 130.924,230.935 138.332,237.779C142.376,234.877 153.991,231.197 156.972,231.152C160.034,231.105 155.226,247.181 164.131,253.04C173.561,248.334 181.34,234.056 186.179,234.099C193.277,234.162 193.657,264.578 195.231,263.333C205.896,253.156 206.115,238.39 210.114,238.173C214.222,237.95 222.374,261.329 232.605,272.777C242.006,266.101 297.95,279.213 302.333,279.169C304.981,279.142 204.882,313.887 109.804,235.012L125.519,225.382Z" style="fill:rgb(76,82,105);"/>
        </g>
        <g transform="matrix(0.990676,-0.136239,0.136239,0.990676,102.886,214.345)">
            <g id="mastodon">
                <g transform="matrix(0.990676,0.136239,-0.136239,0.990676,-10.4988,-59.8333)">
                    <path d="M76.492,154.353C65.671,149.248 67.999,123.048 79.759,112.906C95.385,99.429 118.605,91.617 115.489,95.348L115.489,99.431C115.489,99.431 113.447,89.018 121.001,84.322C128.556,79.626 132.639,82.281 132.639,82.281L134.477,80.443C134.477,80.443 144.889,69.622 159.181,76.768C173.473,83.914 182.865,101.677 182.865,101.677" style="fill:rgb(173,143,80);"/>
                </g>
                <g transform="matrix(0.990676,0.136239,-0.136239,0.990676,-76.6546,-202.678)">
                    <path d="M161.082,286.929C152.316,282.986 149.964,251.46 169.526,241.262C196.229,227.343 191.989,229.079 204.637,228.262C215.157,227.583 213.971,241.262 213.971,241.262" style="fill:rgb(142,122,102);"/>
                </g>
                <g transform="matrix(0.990676,0.136239,-0.136239,0.990676,-10.4988,-59.8333)">
                    <path d="M213.577,115.456C247.374,94.111 246.373,51.697 223.545,26.977C220.831,25.752 219.081,24.962 214.989,23.116C216.123,15.241 226.181,14.478 230.903,16.604C228.798,9.279 233.291,5.144 240.403,5.202C240.403,8.722 240.327,12.506 242.241,13.764C303.935,54.301 293.392,137.69 257.127,170.73C249.652,189.638 267.207,238.095 269.147,238.304C253.823,286.077 55.402,280.071 53.829,232.557C46.696,224.433 1.767,195.654 21.365,178.377C26.931,173.47 38.95,159.741 57.265,157.426C61.93,156.836 72.212,159.479 71.525,165.615C92.514,105.504 177.009,84.038 213.49,114.335L213.577,115.456Z" style="fill:url(#_Radial1);"/>
                </g>
                <g transform="matrix(0.782015,-0.623259,0.623259,0.782015,-24.3062,93.0973)">
                    <path d="M259.045,123.339C259.51,119.21 243.943,112.916 241.622,116.555C220.11,150.291 202.563,157.018 187.737,159.436C160.271,163.915 121.525,141.081 117.163,139.769C76.045,127.396 84.627,187.614 110.22,206.419C118.312,212.365 141.183,208.869 141.183,208.869C143.716,204.019 150.699,199.407 159.058,191.837C169.966,197.735 191.236,189.527 210.668,180.051C233.464,168.934 257.843,134.02 259.045,123.339Z" style="fill:rgb(135,113,119);"/>
                </g>
                <path d="M99.384,96.919C97.585,98.243 99.844,102.754 103.14,108.869C106.204,114.556 107.964,121.835 111.027,120.109C114.098,118.379 111.361,110.385 108.717,105.419C106.235,100.756 101.399,95.435 99.384,96.919Z" style="fill:rgb(102,86,82);stroke:rgb(5,24,30);stroke-width:2.75px;stroke-linecap:round;"/>
                <g transform="matrix(0.958292,-0.586349,0.669012,1.09339,-105.398,47.8913)">
                    <path d="M104.427,137.272C111.22,137.083 115.363,139.275 115.36,140.608C115.357,142.815 111.441,142.687 104.326,142.842C97.038,143.001 95.12,142.782 94.975,140.578C94.873,139.035 98.646,137.432 104.427,137.272Z" style="fill:rgb(190,140,103);"/>
                </g>
                <path d="M181.126,85.396C221.354,70.287 227.256,25.983 207.286,-2.653C204.765,-4.236 203.138,-5.257 199.336,-7.643C201.533,-15.29 211.601,-14.676 215.989,-11.926C214.902,-19.47 219.916,-22.954 226.954,-21.928C226.475,-18.44 225.883,-14.702 227.608,-13.195C283.205,35.37 261.399,116.544 220.97,144.335C213.521,162.679 216.876,188.83 224.391,215.035" style="fill:none;stroke:black;stroke-width:2.55px;stroke-miterlimit:1.41421;"/>
                <g transform="matrix(0.990676,0.136239,-0.136239,0.990676,-10.4988,-59.8333)">
                    <path d="M213.49,114.335C177.009,84.038 91.764,105.879 70.775,165.99" style="fill:none;stroke:black;stroke-width:2.55px;"/>
                </g>
                <g transform="matrix(0.990676,0.136239,-0.136239,0.990676,-10.4988,-59.8333)">
                    <path d="M76.492,154.353C65.671,149.248 67.999,123.048 79.759,112.906C95.385,99.429 111.033,94.317 115.25,95.548L115.489,99.431C115.489,99.431 113.447,89.018 121.001,84.322C128.556,79.626 132.639,82.281 132.639,82.281L134.477,80.443C134.477,80.443 144.889,69.622 159.181,76.768C173.473,83.914 182.865,101.677 182.865,101.677" style="fill:none;stroke:black;stroke-width:2.55px;"/>
                </g>
                <g transform="matrix(0.990676,0.136239,-0.136239,0.990676,-10.4988,-59.8333)">
                    <path d="M132.639,93.306C129.576,90.837 129.168,85.871 132.639,82.281" style="fill:none;stroke:black;stroke-width:2.55px;"/>
                </g>
            </g>
            <g id="ear" transform="matrix(0.947039,0.32112,-0.32112,0.947039,42.6723,23.9777)">
                <path d="M-29.208,125.301C-23.386,103.221 -5.362,88.692 -4.55,87.327C0.956,78.077 29.001,75.428 41.188,99.72L39.685,125.18C32.781,144.236 24.857,156.327 18.872,160.921L-29.208,125.301Z" style="fill:url(#_Radial2);"/>
                <path d="M-17.05,134.498C-9.701,110.167 10.335,94.026 16.573,101.404C8.663,103.856 14.228,115.44 20.384,114.252C18.569,119.336 19.359,126.191 23.837,128.596C18.491,136.236 10.68,147.564 9.029,149.924" style="fill:rgb(139,117,121);"/>
                <path d="M23.8,128.73C17.685,124.922 17.917,118.236 20.384,114.252C15.562,116.084 10.031,105.247 15.781,101.295C9.542,93.917 -10.344,112.518 -17.467,136.678" style="fill:none;stroke:black;stroke-width:2.55px;stroke-linecap:round;"/>
                <g transform="matrix(0.990676,0.136239,-0.136239,0.990676,-83.0265,-231.212)">
                    <path d="M169.565,335.676C167.951,351.651 162.729,363.569 154.421,372.014" style="fill:none;stroke:rgb(12,9,8);stroke-width:2.55px;"/>
                </g>
                <g transform="matrix(0.990676,0.136239,-0.136239,0.990676,-83.0265,-231.212)">
                    <path d="M167.765,310.676C167.343,307.264 148.858,287.741 129.565,298.676C111.497,308.918 104.968,330.11 101.568,343.91" style="fill:none;stroke:rgb(12,9,8);stroke-width:2.55px;"/>
                </g>
            </g>
            <g id="tooth" transform="matrix(0.967128,-0.254289,0.254289,0.967128,-41.4903,36.9911)">
                <path d="M134.099,147.719C154.794,161.86 174.642,146.972 180.017,132.066C188.257,109.22 168.72,92.292 176.126,89.98C180.955,88.473 184.927,89.766 190.476,97.626C206.221,119.931 202.405,137.098 194.392,154.207C178.604,187.917 144.749,183.695 117.656,170.548C116.996,170.228 109.705,167.728 109.493,164.289C113.27,161.612 116.151,156.349 116.477,154.416C119.509,153.164 119.807,151.95 122.494,149.033C133.317,150.791 133.16,147.077 134.099,147.719Z" style="fill:rgb(210,200,181);"/>
                <path d="M120.019,155.243L116.975,155.578L112.575,158.978C113.501,162.536 111.203,164.621 107.922,166.024C135.606,183.359 156.993,186.593 179.236,172.442C195.693,161.972 199.025,147.548 201.8,126.122C201.8,126.122 196.115,124.343 193.214,127.677C184.514,137.677 194.837,152.316 167.081,165.209C148.274,173.944 125.187,158.075 120.019,155.243Z" style="fill:rgb(140,147,190);"/>
                <path d="M133.719,176.084C136.687,176.798 139.144,178.698 135.708,177.963C132.615,177.302 129.58,176.401 126.544,175.512C120.461,173.733 110.628,168.338 108.491,166.371C108.236,166.137 108.695,161.02 108.695,161.02C108.695,161.02 109.794,160.359 111.501,161.061C112.098,161.307 114.988,158.429 114.777,155.047L114.788,155.042C115.495,154.744 114.236,153.023 113.954,152.473L113.897,152.365C113.867,152.29 113.83,152.219 113.807,152.141C113.761,151.987 113.745,151.824 113.761,151.664C117.408,153.323 122.805,149.079 121.175,147.063C125.904,149.457 132.994,148.834 131.589,146.069L131.865,145.405C131.923,145.201 133.279,144.887 133.471,144.976C132.803,147.041 137.908,148.474 138.977,146.731C139.991,149.013 144.501,151.174 145.974,151.798C148.406,152.829 147.064,153.374 139.61,152.24C138.241,152.032 134.545,149.274 133.316,148.635C133.134,149.589 130.582,152.475 123.538,149.832L123.53,149.829C121.589,151.695 121.481,154.266 117.343,154.137C118.547,158.452 114.62,161.308 110.375,164.71C110.572,164.849 112.184,166.283 112.759,166.635C115.469,168.294 117.566,168.984 120.499,170.201C124.596,171.901 129.407,175.045 133.719,176.084Z" style="fill:rgb(8,8,10);"/>
                <path d="M134.099,147.719C154.794,161.86 174.642,146.972 180.017,132.066C188.257,109.22 168.72,92.292 176.126,89.98C180.955,88.473 184.927,89.766 190.476,97.626C206.221,119.931 202.405,137.098 194.392,154.207C178.604,187.917 144.749,183.695 117.656,170.548" style="fill:none;stroke:black;stroke-width:2.55px;stroke-miterlimit:1.41421;"/>
            </g>
            <g transform="matrix(0.287907,0.706058,-0.706058,0.287907,241.9,-29.1395)">
                <circle cx="62.86" cy="171.667" r="227.79" style="fill:none;stroke:black;stroke-width:13.35px;"/>
            </g>
            <g transform="matrix(0.990676,0.136239,-0.136239,0.990676,-74.1252,-156.234)">
                <path d="M234.304,357.818C234.304,357.818 245.304,332.373 263.082,332.596C280.86,332.818 303.526,350.151 304.526,359.818C305.526,369.484 289.971,372.04 278.082,371.484C266.193,370.929 253.415,362.151 248.082,359.818" style="fill:rgb(191,158,93);"/>
                <path d="M241.526,346.218C249.05,349.301 257.365,356.466 263.202,360.609C270.972,366.126 279.864,363.832 282.383,371.076C283.724,374.554 258.915,369.282 247.241,358.933L234.098,358.933L241.526,346.218Z" style="fill:rgb(135,113,119);"/>
                <path d="M234.304,357.818C234.304,357.818 245.304,332.373 263.082,332.596C280.86,332.818 303.526,350.151 304.526,359.818C305.526,369.484 289.971,372.04 278.082,371.484C266.986,370.966 255.117,363.286 249.247,360.367C248.827,360.158 234.304,357.818 234.304,357.818Z" style="fill:none;stroke:rgb(12,9,8);stroke-width:2.55px;"/>
            </g>
            <g transform="matrix(0.897152,-0.441722,0.441722,0.897152,-156.264,-2.04942)">
                <path d="M234.304,357.818C234.304,357.818 245.304,332.373 263.082,332.596C280.86,332.818 303.526,350.151 304.526,359.818C305.526,369.484 289.971,372.04 278.082,371.484C266.193,370.929 253.415,362.151 248.082,359.818" style="fill:rgb(191,158,93);"/>
                <path d="M241.526,346.218C249.05,349.301 257.365,356.466 263.202,360.609C270.972,366.126 279.864,363.832 282.383,371.076C283.724,374.554 258.915,369.282 247.241,358.933L234.098,358.933L241.526,346.218Z" style="fill:rgb(135,113,119);"/>
                <path d="M234.304,357.818C234.304,357.818 245.304,332.373 263.082,332.596C280.86,332.818 303.526,350.151 304.526,359.818C305.526,369.484 289.971,372.04 278.082,371.484C266.986,370.966 255.117,363.286 249.247,360.367C248.827,360.158 234.304,357.818 234.304,357.818Z" style="fill:none;stroke:rgb(12,9,8);stroke-width:2.55px;"/>
            </g>
        </g>
        <g id="fairydust" transform="matrix(2.02418,-0.115978,0.115978,2.02418,-235.22,107.134)">
            <g transform="matrix(0.0356844,0.106855,-0.183179,0.0611732,304.888,-129.44)">
                <path d="M1244.42,720C1197.02,729.327 1192.22,825.982 1192.22,825.982L1168.75,825.982C1168.75,825.982 1150.38,684.336 1210.86,634.013" style="fill:rgb(31,51,48);stroke:black;stroke-width:5.23px;stroke-linecap:round;"/>
            </g>
            <g transform="matrix(1.20878,-0.235244,0.235244,1.20878,-57.4237,61.6521)">
                <path d="M220.652,33.945C220.652,33.945 220.406,31.428 220.11,28.391C255.597,6.111 273.203,28.818 273.203,28.818L273.206,28.852C273.206,28.852 260.321,54.533 221.197,39.532C220.9,36.495 220.655,33.979 220.655,33.979" style="fill:rgb(31,50,48);"/>
            </g>
            <g transform="matrix(1,-6.93889e-18,6.93889e-18,1,-1.00539,11.799)">
                <path d="M218.836,40.526C244.313,40.66 262.167,36.474 280.526,20.741C280.819,20.592 274.048,46.663 231.682,48.015C225.743,45.803 223.421,45.753 219.526,47.241C221.817,46.445 219.579,40.894 218.836,40.526Z" style="fill:rgb(23,37,35);"/>
            </g>
            <g transform="matrix(1.20878,-0.235244,0.235244,1.20878,-57.4237,61.6521)">
                <path d="M220.652,33.945C220.652,33.945 220.406,31.428 220.11,28.391C255.597,6.111 273.203,28.818 273.203,28.818L273.206,28.852C273.206,28.852 260.321,54.533 221.197,39.532C220.9,36.495 220.655,33.979 220.655,33.979" style="fill:none;stroke:black;stroke-width:0.67px;stroke-linecap:round;"/>
            </g>
            <g transform="matrix(-0.0247434,-0.096315,-0.173907,0.0446768,376.272,144.565)">
                <path d="M1244.42,720C1197.02,729.327 1192.22,825.982 1192.22,825.982L1168.75,825.982C1168.75,825.982 1150.38,684.336 1210.86,634.013" style="fill:rgb(31,51,48);stroke:black;stroke-width:5.69px;stroke-linecap:round;"/>
            </g>
            <g transform="matrix(1,-6.93889e-18,6.93889e-18,1,-1.00539,11.799)">
                <path d="M221.14,42.984C229.747,41.647 244.806,44.284 231.682,48.015C225.743,45.803 223.421,45.753 219.526,47.241C221.817,46.445 221.883,43.352 221.14,42.984Z" style="fill:rgb(23,37,35);"/>
            </g>
            <g transform="matrix(-0.0247434,-0.096315,-0.173907,0.0446768,376.272,144.565)">
                <path d="M1244.42,720C1197.02,729.327 1192.22,825.982 1192.22,825.982L1168.75,825.982C1168.75,825.982 1150.38,684.336 1210.86,634.013" style="fill:none;stroke:black;stroke-width:5.69px;stroke-linecap:round;"/>
            </g>
            <g transform="matrix(0.00831308,0.0270293,-0.184591,0.0567723,339.936,-25.856)">
                <path d="M1244.42,720C1239.35,762.655 1218.71,825.321 1218.71,825.321L1156.08,823.657C1156.08,823.657 1023.03,691.423 1121.2,639.68" style="fill:rgb(31,51,48);"/>
            </g>
            <g transform="matrix(1,1.04083e-16,-4.85723e-17,1,-49.1721,19.6324)">
                <path d="M246.693,34.241C264.167,26.387 271.834,24.205 281.345,21.15C281.179,21.195 280.481,25.112 275.567,28.009C273.578,29.181 270.943,30.659 266.849,29.682C265.316,28.538 252.754,33.42 246.693,34.241Z" style="fill:rgb(23,37,35);"/>
            </g>
            <g transform="matrix(0.00831308,0.0270293,-0.184591,0.0567723,339.936,-25.856)">
                <path d="M1244.42,720C1239.35,762.655 1218.71,825.321 1218.71,825.321L1156.08,823.657C1156.08,823.657 1023.03,691.423 1121.2,639.68" style="fill:none;"/>
            </g>
            <g transform="matrix(0.00831308,0.0270293,-0.184591,0.0567723,339.936,-25.856)">
                <path d="M1125.98,635.819C1153.59,634.938 1115.17,658.38 1112.11,662.695C1110.43,665.074 1106.55,672.714 1105.09,677.735C1101.33,690.708 1102.4,703.709 1105.71,716.682C1110.15,734.079 1118.85,751.451 1130,768.782C1141,785.89 1154.42,802.966 1170.38,819.99L1171.78,821.443L1202,822.246C1204.02,815.875 1205.95,809.504 1207.85,803.133C1215.87,775.415 1223.19,747.69 1226.74,719.951L1262.1,720.049C1259.87,737.426 1256.12,754.797 1251.73,772.165C1247.47,789.002 1242.6,805.836 1237.27,822.666L1236.37,825.443C1236.07,825.795 1236.13,825.89 1235.28,826.226C1233.01,827.115 1227.44,827.765 1221.01,827.888C1218.59,827.935 1217.96,827.905 1215.56,827.868L1152.92,826.205C1150.56,826.114 1149.9,826.11 1147.73,825.94C1144.48,825.684 1141.82,825.28 1140.19,824.795C1139.11,824.471 1139.11,824.374 1138.58,824.025C1136.68,822.092 1134.85,820.157 1133.03,818.222C1115.99,799.605 1101.65,780.935 1090.4,762.223C1079.8,744.574 1071.82,726.879 1068.71,709.164C1066.45,696.293 1066.6,683.392 1072.3,670.54C1074.48,665.629 1078.55,660.255 1084.65,655.415C1097.38,645.311 1125.98,635.819 1125.98,635.819Z" style="fill-rule:nonzero;"/>
            </g>
            <g transform="matrix(0.00831308,0.0270293,-0.184591,0.0567723,339.936,-25.856)">
                <path d="M1125.98,635.819C1153.59,634.938 1115.17,658.38 1112.11,662.695C1110.43,665.074 1106.55,672.714 1105.09,677.735C1101.33,690.708 1102.4,703.709 1105.71,716.682C1110.15,734.079 1118.85,751.451 1130,768.782C1141,785.89 1154.42,802.966 1170.38,819.99L1171.78,821.443L1202,822.246C1204.02,815.875 1205.95,809.504 1207.85,803.133C1215.87,775.415 1223.19,747.69 1226.74,719.951L1262.1,720.049C1259.87,737.426 1256.12,754.797 1251.73,772.165C1247.47,789.002 1242.6,805.836 1237.27,822.666L1236.37,825.443C1236.07,825.795 1236.13,825.89 1235.28,826.226C1233.01,827.115 1227.44,827.765 1221.01,827.888C1218.59,827.935 1217.96,827.905 1215.56,827.868L1152.92,826.205C1150.56,826.114 1149.9,826.11 1147.73,825.94C1144.48,825.684 1141.82,825.28 1140.19,824.795C1139.11,824.471 1139.11,824.374 1138.58,824.025C1136.68,822.092 1134.85,820.157 1133.03,818.222C1115.99,799.605 1101.65,780.935 1090.4,762.223C1079.8,744.574 1071.82,726.879 1068.71,709.164C1066.45,696.293 1066.6,683.392 1072.3,670.54C1074.48,665.629 1078.55,660.255 1084.65,655.415C1097.38,645.311 1125.98,635.819 1125.98,635.819Z" style="fill-rule:nonzero;"/>
            </g>
            <g transform="matrix(1.22903,-0.0772172,0.0772172,1.22903,-57.9973,20.3315)">
                <path d="M228.957,42.045C229.794,42.112 230.616,42.314 231.393,42.632C231.848,42.818 232.289,43.042 232.704,43.307C233.125,43.575 233.525,43.879 233.894,44.216C234.079,44.385 234.342,44.683 234.513,44.865L234.374,44.94C234.281,44.865 234.104,44.74 234.01,44.667C233.911,44.591 233.811,44.516 233.709,44.444C232.9,43.865 231.987,43.429 231.031,43.152C230.741,43.068 230.446,42.997 230.149,42.94C229.789,42.871 229.424,42.823 229.059,42.787C228.689,42.751 228.317,42.729 227.945,42.727C227.077,42.721 226.207,42.811 225.358,42.988C224.72,43.12 224.095,43.305 223.482,43.525L223.382,43.561L223.303,43.37C223.688,43.171 224.077,42.987 224.48,42.825C224.793,42.699 225.111,42.584 225.433,42.483C225.593,42.433 225.754,42.384 225.917,42.343C226.18,42.277 226.446,42.215 226.714,42.168C226.987,42.121 227.261,42.085 227.536,42.058C227.939,42.019 228.345,42.015 228.748,42.032C228.818,42.036 228.887,42.041 228.957,42.045Z" style="fill:rgb(215,158,0);fill-rule:nonzero;"/>
            </g>
            <g transform="matrix(1.16021,-0.299835,0.0731678,0.283122,-40.8269,106.685)">
                <path d="M264.426,11.115C265.864,12.646 267.273,14.613 268.64,16.994C269.787,18.993 270.902,21.285 271.994,23.744C272.305,24.444 272.614,25.158 272.922,25.881C273.173,26.472 273.424,27.066 273.671,27.687C273.274,26.993 272.881,26.256 272.484,25.553C271.283,23.443 270.066,21.48 268.819,19.855C268.167,19.005 267.509,18.254 266.844,17.586C266.226,16.965 265.599,16.461 264.972,16.029C264.072,15.408 263.164,14.973 262.254,14.683C261.759,14.525 250.748,14.807 250.368,14.873C249.773,14.975 249.18,15.106 248.586,15.231C248.089,15.335 247.591,15.434 247.094,15.55C246.244,15.748 245.395,15.98 244.546,16.219C244.023,16.366 243.5,16.508 242.978,16.664C242.01,16.953 241.044,17.27 240.077,17.597C238.512,18.125 236.948,18.675 235.385,19.277L234.978,19.428L234.567,19.595C234.475,19.971 234.381,20.34 234.288,20.707C234.065,21.559 233.839,22.391 233.604,23.189C233.146,24.752 232.663,26.197 232.161,27.516C231.552,29.113 230.915,30.525 230.256,31.733C229.747,32.664 229.225,33.475 228.693,34.152C228.255,34.709 227.81,35.184 227.36,35.543C226.988,35.84 226.613,36.075 226.236,36.23C225.945,36.351 225.652,36.426 225.359,36.451C225.115,36.471 224.871,36.458 224.627,36.406C223.211,36.107 221.759,34.514 220.636,30.833C220.425,30.142 220.23,29.378 220.048,28.562C220.097,28.752 220.146,28.937 220.196,29.123C220.424,29.936 220.665,30.675 220.923,31.318C222.132,34.318 223.59,35.214 224.983,34.894C225.22,34.84 225.457,34.75 225.693,34.627C225.976,34.48 226.257,34.287 226.536,34.05C226.905,33.737 227.271,33.35 227.632,32.899C228.045,32.382 228.451,31.776 228.85,31.091C229.383,30.173 229.902,29.112 230.403,27.92C230.996,26.506 231.564,24.909 232.1,23.147C232.537,21.706 232.953,20.155 233.343,18.501C233.542,17.661 233.731,16.788 233.918,15.907L233.973,15.688C234.029,15.523 234.041,15.468 234.104,15.354C234.167,15.239 234.185,15.238 234.252,15.18C234.252,15.18 234.642,14.938 234.837,14.814C235.408,14.451 235.979,14.086 236.55,13.73C237.672,13.037 238.794,12.344 239.918,11.706C240.721,11.251 241.525,10.809 242.33,10.383C243.016,10.02 243.702,9.658 244.39,9.331C245.387,8.856 246.385,8.418 247.383,8.014C247.741,7.869 248.098,7.725 248.456,7.595C249.187,7.331 249.919,7.114 250.65,6.913C251.07,6.797 261.933,8.837 262.438,9.247C262.914,9.634 263.388,10.066 263.86,10.528C264.049,10.719 264.238,10.912 264.426,11.115Z" style="fill:rgb(215,158,0);fill-rule:nonzero;"/>
            </g>
            <g transform="matrix(0.0291821,0.132374,-0.181007,0.0399033,310.209,-156.335)">
                <path d="M1279.29,453.56C1303.57,453.56 1324,473.697 1324,497.982C1324,522.266 1304.28,541.982 1280,541.982C1257.63,535.634 1248.52,517.952 1249.07,499.169C1249.57,482.148 1253.87,463.361 1279.29,453.56Z" style="fill:rgb(170,170,170);"/>
            </g>
            <g transform="matrix(0.0242456,0.109981,-0.150387,0.0331531,301.279,-124.31)">
                <path d="M1280,453.982C1304.28,453.982 1319.45,473.703 1319.45,497.987C1319.45,522.271 1304.28,541.982 1280,541.982C1255.72,541.982 1233.11,525.185 1233.11,500.901C1233.11,476.617 1255.72,453.982 1280,453.982Z" style="fill:rgb(245,210,0);"/>
            </g>
        </g>
        <g id="snout" transform="matrix(0.932299,-0.361689,0.361689,0.932299,64.048,198.972)">
            <g transform="matrix(1,5.55112e-17,-5.55112e-17,1,-9.30207,22.134)">
                <path d="M234.967,42.396C237.731,38.143 243.728,38.336 253.143,43.228C256.19,52.832 249.119,52.47 243.863,57.116L234.967,42.396Z" style="fill:rgb(191,162,89);"/>
            </g>
            <g transform="matrix(1,1.11022e-16,-1.11022e-16,1,-8.90252,22.2891)">
                <path d="M242.496,57.519C241.289,54.167 239.603,50.998 237.583,48.066C236.464,46.442 235.241,44.893 233.943,43.408L233.716,43.032C233.689,42.888 233.636,42.746 233.634,42.6C233.632,42.453 233.657,42.304 233.706,42.166C233.785,41.945 233.872,41.845 233.999,41.695C234.151,41.514 234.308,41.337 234.469,41.164C235.285,40.287 236.223,39.514 237.283,38.95C237.865,38.64 238.48,38.395 239.117,38.227C239.55,38.112 239.992,38.032 240.437,37.988C240.756,37.956 241.076,37.942 241.397,37.946C243.437,37.965 245.404,38.667 247.202,39.588C247.495,39.738 247.785,39.895 248.073,40.057C248.449,40.269 248.82,40.489 249.187,40.716C249.629,40.989 250.066,41.272 250.5,41.558C251.131,41.976 251.757,42.403 252.387,42.823L252.419,42.844C253.37,43.447 258.536,44.473 254.268,45.42C254.268,45.42 250.607,46.832 251.052,46.4C252.153,45.332 250.53,44.571 249.121,43.644C248.708,43.372 248.294,43.103 247.873,42.843C247.492,42.608 247.107,42.379 246.715,42.162C246.414,41.994 246.109,41.833 245.799,41.681C245.582,41.573 245.362,41.47 245.14,41.373C243.655,40.718 242.006,40.266 240.375,40.515C240.124,40.553 239.877,40.607 239.634,40.677C239.226,40.795 238.832,40.957 238.458,41.156C237.778,41.518 237.171,41.999 236.621,42.535L236.557,42.599L236.551,42.606C236.766,42.861 236.978,43.118 237.189,43.377C238.416,44.893 239.567,46.47 240.615,48.116C242.489,51.061 244.039,54.218 245.146,57.53L244.745,56.391C245.224,58.577 245.347,69.894 242.496,57.519Z"/>
            </g>
        </g>
        <g transform="matrix(0.92959,-0.368594,0.368594,0.92959,-18.4225,233.186)">
            <g id="exaust">
                <path d="M123.061,43.502C176.895,18.2 177.393,57.847 212.061,44.752" style="fill:none;stroke:rgb(202,59,0);stroke-width:3.12px;stroke-linecap:round;stroke-dasharray:4.68,17.16,0,0;"/>
            </g>
        </g>
    </g>
    <g id="mastodon-logo" transform="matrix(-0.0537465,0.16438,-0.16438,-0.0537465,56.0611,182.048)">
        <g transform="matrix(1,0,0,1,-108.207,-116.005)">
            <clipPath id="_clip3">
                <rect x="0" y="0" width="216.414" height="232.01"/>
            </clipPath>
            <g clip-path="url(#_clip3)">
                <path d="M211.807,139.088C208.626,155.454 183.315,173.365 154.245,176.836C139.086,178.645 124.161,180.308 108.246,179.578C82.219,178.385 61.681,173.365 61.681,173.365C61.681,175.899 61.837,178.311 62.15,180.568C65.534,206.254 87.62,207.792 108.541,208.51C129.657,209.232 148.46,203.304 148.46,203.304L149.327,222.394C149.327,222.394 134.557,230.325 108.246,231.784C93.737,232.581 75.722,231.419 54.74,225.865C9.232,213.82 1.406,165.311 0.209,116.091C-0.156,101.478 0.069,87.698 0.069,76.173C0.069,25.843 33.045,11.09 33.045,11.09C49.672,3.454 78.204,0.243 107.865,0L108.594,0C138.255,0.243 166.805,3.454 183.431,11.09C183.431,11.09 216.406,25.843 216.406,76.173C216.406,76.173 216.82,113.306 211.807,139.088" style="fill:rgb(13,58,67);fill-rule:nonzero;"/>
                <path d="M177.51,80.077L177.51,141.018L153.366,141.018L153.366,81.868C153.366,69.399 148.12,63.071 137.626,63.071C126.024,63.071 120.209,70.578 120.209,85.423L120.209,117.799L96.207,117.799L96.207,85.423C96.207,70.578 90.391,63.071 78.789,63.071C68.295,63.071 63.049,69.4 63.049,81.868L63.049,141.018L38.905,141.018L38.905,80.077C38.905,67.622 42.076,57.725 48.446,50.402C55.015,43.08 63.617,39.326 74.296,39.326C86.651,39.326 96.007,44.075 102.194,53.573L108.207,63.655L114.222,53.573C120.407,44.075 129.764,39.326 142.12,39.326C152.797,39.326 161.4,43.079 167.97,50.402C174.339,57.725 177.51,67.622 177.51,80.077" style="fill:white;fill-rule:nonzero;"/>
            </g>
        </g>
    </g>
    <defs>
        <radialGradient id="_Radial1" cx="0" cy="0" r="1" gradientUnits="userSpaceOnUse" gradientTransform="matrix(169.654,0,-9.5876e-15,169.654,151.922,95.9088)"><stop offset="0" style="stop-color:rgb(207,180,103);stop-opacity:1"/><stop offset="0.52" style="stop-color:rgb(196,168,94);stop-opacity:1"/><stop offset="1" style="stop-color:rgb(160,129,63);stop-opacity:1"/></radialGradient>
        <radialGradient id="_Radial2" cx="0" cy="0" r="1" gradientUnits="userSpaceOnUse" gradientTransform="matrix(42.9838,-8.27767,8.27767,42.9838,40.768,114.116)"><stop offset="0" style="stop-color:rgb(186,157,85);stop-opacity:0"/><stop offset="0.23" style="stop-color:rgb(187,158,84);stop-opacity:0.223529"/><stop offset="0.43" style="stop-color:rgb(192,160,81);stop-opacity:1"/><stop offset="0.69" style="stop-color:rgb(188,154,70);stop-opacity:1"/><stop offset="1" style="stop-color:rgb(178,139,41);stop-opacity:1"/></radialGradient>
    </defs>
</svg>
