<?xml version="1.0" encoding="UTF-8" standalone="no"?>
<!-- Created with Inkscape (http://www.inkscape.org/) -->

<svg
   xmlns:dc="http://purl.org/dc/elements/1.1/"
   xmlns:cc="http://creativecommons.org/ns#"
   xmlns:rdf="http://www.w3.org/1999/02/22-rdf-syntax-ns#"
   xmlns:svg="http://www.w3.org/2000/svg"
   xmlns="http://www.w3.org/2000/svg"
   xmlns:sodipodi="http://sodipodi.sourceforge.net/DTD/sodipodi-0.dtd"
   xmlns:inkscape="http://www.inkscape.org/namespaces/inkscape"
   width="36mm"
   height="61mm"
   viewBox="0 0 127.55905 216.14173"
   id="svg4723"
   version="1.1"
   inkscape:version="0.91 r13725"
   sodipodi:docname="sticker-contour.svg">
  <defs
     id="defs4725" />
  <sodipodi:namedview
     id="base"
     pagecolor="#ffffff"
     bordercolor="#666666"
     borderopacity="1.0"
     inkscape:pageopacity="0.0"
     inkscape:pageshadow="2"
     inkscape:zoom="2.8284271"
     inkscape:cx="54.061195"
     inkscape:cy="99.285464"
     inkscape:document-units="px"
     inkscape:current-layer="layer1"
     showgrid="false"
     inkscape:window-width="1200"
     inkscape:window-height="1891"
     inkscape:window-x="2560"
     inkscape:window-y="0"
     inkscape:window-maximized="1"
     units="mm">
    <inkscape:grid
       type="xygrid"
       id="grid5061" />
    <sodipodi:guide
       position="0,10.629921"
       orientation="0,1"
       id="guide4216"
       inkscape:label=""
       inkscape:color="rgb(0,0,255)" />
    <sodipodi:guide
       position="116.92913,0"
       orientation="1,0"
       id="guide4218"
       inkscape:label=""
       inkscape:color="rgb(0,0,255)" />
    <sodipodi:guide
       position="106.29921,205.5118"
       orientation="0,1"
       id="guide4220"
       inkscape:label=""
       inkscape:color="rgb(0,0,255)" />
    <sodipodi:guide
       position="10.629921,198.42519"
       orientation="1,0"
       id="guide4222"
       inkscape:label=""
       inkscape:color="rgb(0,0,255)" />
  </sodipodi:namedview>
  <metadata
     id="metadata4728">
    <rdf:RDF>
      <cc:Work
         rdf:about="">
        <dc:format>image/svg+xml</dc:format>
        <dc:type
           rdf:resource="http://purl.org/dc/dcmitype/StillImage" />
        <dc:title />
      </cc:Work>
    </rdf:RDF>
  </metadata>
  <g
     inkscape:label="Layer 1"
     inkscape:groupmode="layer"
     id="layer1"
     transform="translate(0,-836.22048)">
    <rect
       style="color:#000000;clip-rule:nonzero;display:inline;overflow:visible;visibility:visible;opacity:1;isolation:auto;mix-blend-mode:normal;color-interpolation:sRGB;color-interpolation-filters:linearRGB;solid-color:#000000;solid-opacity:1;fill:#000000;fill-opacity:1;fill-rule:nonzero;stroke:none;stroke-width:1;stroke-linecap:butt;stroke-linejoin:miter;stroke-miterlimit:4;stroke-dasharray:none;stroke-dashoffset:0;stroke-opacity:1;color-rendering:auto;image-rendering:auto;shape-rendering:auto;text-rendering:auto;enable-background:accumulate"
       id="rect4222"
       width="123.18203"
       height="212.53616"
       x="1.5910187"
       y="838.76526" />
    <g
       id="g5039"
       transform="matrix(0.39298261,0,0,0.39298261,-55.037333,785.77004)">
      <path
         style="color:#000000;clip-rule:nonzero;display:inline;overflow:visible;visibility:visible;opacity:1;isolation:auto;mix-blend-mode:normal;color-interpolation:sRGB;color-interpolation-filters:linearRGB;solid-color:#000000;solid-opacity:1;fill:#ff8600;fill-opacity:1;fill-rule:nonzero;stroke:none;stroke-width:1;stroke-linecap:butt;stroke-linejoin:miter;stroke-miterlimit:4;stroke-dasharray:none;stroke-dashoffset:0;stroke-opacity:1;color-rendering:auto;image-rendering:auto;shape-rendering:auto;text-rendering:auto;enable-background:accumulate"
         d="m 299.3311,297.20582 c -1.5815,-1.60138 -3.5772,-3.94563 -4.435,-5.20945 l -1.5596,-2.29789 11.2888,-15.44882 c 6.2087,-8.49685 24.4731,-35.03952 40.5874,-58.98372 16.1143,-23.94417 29.5134,-43.7678 29.7758,-44.05249 0.2623,-0.28469 0.6444,-0.3502 0.849,-0.1456 0.7255,0.72555 -16.4851,41.43793 -24.1433,57.11181 -6.4247,13.1492 -17.2192,30.26776 -32.7727,51.97267 -11.7145,16.34766 -14.6046,19.96504 -15.9507,19.96504 -0.4204,0 -2.0583,-1.3102 -3.6397,-2.91156 z"
         id="path4482-5"
         inkscape:connector-curvature="0" />
      <path
         style="color:#000000;clip-rule:nonzero;display:inline;overflow:visible;visibility:visible;opacity:1;isolation:auto;mix-blend-mode:normal;color-interpolation:sRGB;color-interpolation-filters:linearRGB;solid-color:#000000;solid-opacity:1;fill:#ff8600;fill-opacity:1;fill-rule:nonzero;stroke:none;stroke-width:1;stroke-linecap:butt;stroke-linejoin:miter;stroke-miterlimit:4;stroke-dasharray:none;stroke-dashoffset:0;stroke-opacity:1;color-rendering:auto;image-rendering:auto;shape-rendering:auto;text-rendering:auto;enable-background:accumulate"
         d="m 270.1084,316.61626 c -0.01,-1.38775 2.8325,-31.23066 3.0891,-32.44318 0.1452,-0.68629 0.4575,-1.24781 0.694,-1.24781 0.2365,0 1.5419,1.34797 2.9009,2.99547 1.6354,1.98232 3.5078,3.49737 5.5359,4.47933 1.6857,0.81613 3.6631,1.93514 4.3942,2.48667 l 1.3295,1.0028 -8.5305,11.70998 c -4.6916,6.44049 -8.7279,11.70998 -8.9694,11.70998 -0.2417,0 -0.4412,-0.31195 -0.4437,-0.69323 z"
         id="path4490-9"
         inkscape:connector-curvature="0" />
      <path
         style="color:#000000;clip-rule:nonzero;display:inline;overflow:visible;visibility:visible;opacity:1;isolation:auto;mix-blend-mode:normal;color-interpolation:sRGB;color-interpolation-filters:linearRGB;solid-color:#000000;solid-opacity:1;fill:#ff8600;fill-opacity:1;fill-rule:nonzero;stroke:none;stroke-width:1;stroke-linecap:butt;stroke-linejoin:miter;stroke-miterlimit:4;stroke-dasharray:none;stroke-dashoffset:0;stroke-opacity:1;color-rendering:auto;image-rendering:auto;shape-rendering:auto;text-rendering:auto;enable-background:accumulate"
         d="m 402.3813,580.97663 c -9.1439,-2.53556 -85.9448,-26.83009 -86.0463,-27.21916 -0.2669,-1.02281 7.8791,-51.81865 8.314,-51.84315 0.4199,-0.0237 18.2911,17.37629 65.4175,63.69253 9.0879,8.9317 16.2005,16.21679 15.8056,16.18908 -0.3948,-0.0277 -1.9657,-0.3964 -3.4908,-0.8193 z"
         id="path4500-5"
         inkscape:connector-curvature="0" />
      <path
         style="color:#000000;clip-rule:nonzero;display:inline;overflow:visible;visibility:visible;opacity:1;isolation:auto;mix-blend-mode:normal;color-interpolation:sRGB;color-interpolation-filters:linearRGB;solid-color:#000000;solid-opacity:1;fill:#ff8600;fill-opacity:1;fill-rule:nonzero;stroke:none;stroke-width:1;stroke-linecap:butt;stroke-linejoin:miter;stroke-miterlimit:4;stroke-dasharray:none;stroke-dashoffset:0;stroke-opacity:1;color-rendering:auto;image-rendering:auto;shape-rendering:auto;text-rendering:auto;enable-background:accumulate"
         d="m 236.6905,502.08083 -19.28062,-8.69073 0.3445,-1.66377 c 0.1894,-0.91505 0.5438,-1.87698 0.7875,-2.13758 0.3064,-0.32754 47.41902,-10.88698 48.60802,-10.89459 0.048,-3.2e-4 2.2758,3.5557 4.9508,7.90226 2.675,4.34655 5.226,8.4699 5.669,9.16297 0.7749,1.21199 0.5686,1.50044 -5.3998,7.54975 l -6.2055,6.28959 -3.817,0.63039 c -2.0995,0.3467 -4.393,0.61059 -5.0968,0.58641 -0.7038,-0.0242 -9.9558,-3.95482 -20.5602,-8.73472 z"
         id="path4508-7"
         inkscape:connector-curvature="0" />
      <path
         style="color:#000000;clip-rule:nonzero;display:inline;overflow:visible;visibility:visible;opacity:1;isolation:auto;mix-blend-mode:normal;color-interpolation:sRGB;color-interpolation-filters:linearRGB;solid-color:#000000;solid-opacity:1;fill:#0bc401;fill-opacity:1;fill-rule:nonzero;stroke:none;stroke-width:1;stroke-linecap:butt;stroke-linejoin:miter;stroke-miterlimit:4;stroke-dasharray:none;stroke-dashoffset:0;stroke-opacity:1;color-rendering:auto;image-rendering:auto;shape-rendering:auto;text-rendering:auto;enable-background:accumulate"
         d="m 303.1107,359.15489 c -20.7415,-8.95501 -37.7118,-16.5493 -37.7118,-16.87619 0,-0.64245 40.6089,-42.16717 41.2228,-42.15237 0.2041,0.005 2.2428,3.67122 4.5305,8.14735 10.165,19.88927 16.5779,29.90555 27.4444,42.86548 2.9412,3.50774 6.2176,7.41705 7.2809,8.68736 l 1.9333,2.30964 -3.3598,6.70236 c -1.8479,3.68628 -3.4203,6.67892 -3.4942,6.65028 -0.074,-0.0286 -17.1048,-7.37889 -37.8461,-16.3339 z"
         id="path4476-6"
         inkscape:connector-curvature="0" />
      <path
         style="color:#000000;clip-rule:nonzero;display:inline;overflow:visible;visibility:visible;opacity:1;isolation:auto;mix-blend-mode:normal;color-interpolation:sRGB;color-interpolation-filters:linearRGB;solid-color:#000000;solid-opacity:1;fill:#0bc401;fill-opacity:1;fill-rule:nonzero;stroke:none;stroke-width:1;stroke-linecap:butt;stroke-linejoin:miter;stroke-miterlimit:4;stroke-dasharray:none;stroke-dashoffset:0;stroke-opacity:1;color-rendering:auto;image-rendering:auto;shape-rendering:auto;text-rendering:auto;enable-background:accumulate"
         d="m 416.8926,577.82557 c -1.0468,-1.90638 -19.763,-37.92982 -41.5917,-80.05209 l -39.6886,-76.58595 0.7851,-5.49256 c 0.4318,-3.02091 0.793,-5.67974 0.8026,-5.90851 0.08,-1.8916 2.2622,1.86209 9.5108,16.36025 14.1732,28.34831 23.0554,44.55331 31.2901,57.08662 7.0643,10.75208 21.6816,30.31793 35.7618,47.8685 2.9365,3.66025 5.7123,7.27892 6.1685,8.04147 0.7228,1.20816 0.76,4.00748 0.2891,21.76744 -0.2972,11.20954 -0.7392,20.38098 -0.9824,20.38098 -0.2431,0 -1.2986,-1.55976 -2.3453,-3.46615 z"
         id="path4496-9"
         inkscape:connector-curvature="0" />
      <path
         style="color:#000000;clip-rule:nonzero;display:inline;overflow:visible;visibility:visible;opacity:1;isolation:auto;mix-blend-mode:normal;color-interpolation:sRGB;color-interpolation-filters:linearRGB;solid-color:#000000;solid-opacity:1;fill:#0bc401;fill-opacity:1;fill-rule:nonzero;stroke:none;stroke-width:1;stroke-linecap:butt;stroke-linejoin:miter;stroke-miterlimit:4;stroke-dasharray:none;stroke-dashoffset:0;stroke-opacity:1;color-rendering:auto;image-rendering:auto;shape-rendering:auto;text-rendering:auto;enable-background:accumulate"
         d="m 298.686,526.24922 c -8.4744,-13.80221 -18.3541,-29.83725 -21.9553,-35.6334 -3.6009,-5.79615 -6.7029,-10.94379 -6.893,-11.43921 -0.246,-0.64147 0.046,-0.99901 1.0144,-1.2421 4.2777,-1.0736 55.4253,-11.99636 56.175,-11.99636 0.6831,0 0.8317,0.36911 0.6138,1.52511 -0.158,0.83881 -3.1161,20.05516 -6.5734,42.70301 -3.4573,22.64784 -6.4407,41.1779 -6.6298,41.1779 -0.1892,0 -7.2774,-11.29273 -15.7517,-25.09495 z"
         id="path4502-1"
         inkscape:connector-curvature="0" />
      <path
         style="color:#000000;clip-rule:nonzero;display:inline;overflow:visible;visibility:visible;opacity:1;isolation:auto;mix-blend-mode:normal;color-interpolation:sRGB;color-interpolation-filters:linearRGB;solid-color:#000000;solid-opacity:1;fill:#d40010;fill-opacity:1;fill-rule:nonzero;stroke:none;stroke-width:1;stroke-linecap:butt;stroke-linejoin:miter;stroke-miterlimit:4;stroke-dasharray:none;stroke-dashoffset:0;stroke-opacity:1;color-rendering:auto;image-rendering:auto;shape-rendering:auto;text-rendering:auto;enable-background:accumulate"
         d="m 195.51058,476.9429 c -4.2482,-6.51015 -7.9963,-12.0862 -8.329,-12.39121 -0.3328,-0.30503 -2.2773,-2.45869 -4.3211,-4.78592 l -3.7161,-4.23133 17.2609,-28.20742 c 23.748,-38.80836 26.5352,-42.5247 49.16202,-65.55084 l 17.6133,-17.92406 38.2663,16.44511 c 21.0465,9.04481 38.4391,16.61152 38.6503,16.81491 0.2112,0.20337 -0.3531,4.61236 -1.2539,9.79773 -0.9009,5.18536 -3.6565,24.5265 -6.1236,42.9803 -2.4671,18.4538 -4.5466,33.61727 -4.621,33.69661 -0.2151,0.22928 -104.94862,22.86593 -109.56222,23.68029 -2.2876,0.4038 -6.6664,0.90931 -9.7306,1.12334 l -5.5713,0.38916 -7.724,-11.83665 z"
         id="path4474-2"
         inkscape:connector-curvature="0" />
      <path
         style="color:#000000;clip-rule:nonzero;display:inline;overflow:visible;visibility:visible;opacity:1;isolation:auto;mix-blend-mode:normal;color-interpolation:sRGB;color-interpolation-filters:linearRGB;solid-color:#000000;solid-opacity:1;fill:#d40010;fill-opacity:1;fill-rule:nonzero;stroke:none;stroke-width:1;stroke-linecap:butt;stroke-linejoin:miter;stroke-miterlimit:4;stroke-dasharray:none;stroke-dashoffset:0;stroke-opacity:1;color-rendering:auto;image-rendering:auto;shape-rendering:auto;text-rendering:auto;enable-background:accumulate"
         d="m 304.7636,266.14907 c 1.0663,-11.31365 3.2552,-22.47411 6.2269,-31.74995 2.0902,-6.5243 9.9874,-27.33142 14.5187,-38.25309 2.4951,-6.0141 3.9269,-8.29447 3.9545,-6.29854 0.01,0.40669 -3.2843,15.68664 -7.311,33.95543 l -7.3212,33.21599 -4.704,6.57545 c -2.5873,3.6165 -4.9378,6.57545 -5.2235,6.57545 -0.3099,0 -0.3666,-1.62171 -0.1404,-4.02074 z"
         id="path4488-2"
         inkscape:connector-curvature="0" />
      <path
         style="color:#000000;clip-rule:nonzero;display:inline;overflow:visible;visibility:visible;opacity:1;isolation:auto;mix-blend-mode:normal;color-interpolation:sRGB;color-interpolation-filters:linearRGB;solid-color:#000000;solid-opacity:1;fill:#d40010;fill-opacity:1;fill-rule:nonzero;stroke:none;stroke-width:1;stroke-linecap:butt;stroke-linejoin:miter;stroke-miterlimit:4;stroke-dasharray:none;stroke-dashoffset:0;stroke-opacity:1;color-rendering:auto;image-rendering:auto;shape-rendering:auto;text-rendering:auto;enable-background:accumulate"
         d="m 236.8593,608.55378 c 0.4456,-0.64396 3.8771,-5.53539 7.6251,-10.86982 17.6574,-25.13041 22.9519,-33.99478 43.3607,-72.59713 2.8594,-5.40843 3.5986,-6.43766 4.1826,-5.82313 0.3901,0.41054 5.607,8.729 11.5932,18.48546 l 10.884,17.73901 39.3913,12.28322 c 21.6653,6.75579 39.5087,12.40058 39.6522,12.54403 0.3074,0.30742 -0.3449,0.35816 -40.5251,3.15231 0,0 -18.8028,0.0397 -31.0567,2.15971 -12.2539,2.12 -41.8712,11.73212 -41.8712,11.73212 -23.0291,6.45267 -42.3606,11.87454 -42.9589,12.04859 -1.0027,0.29179 -1.0244,0.2251 -0.2772,-0.85437 z"
         id="path4504-0"
         inkscape:connector-curvature="0"
         sodipodi:nodetypes="ssscscscszsss" />
      <path
         style="color:#000000;clip-rule:nonzero;display:inline;overflow:visible;visibility:visible;opacity:1;isolation:auto;mix-blend-mode:normal;color-interpolation:sRGB;color-interpolation-filters:linearRGB;solid-color:#000000;solid-opacity:1;fill:#0049da;fill-opacity:1;fill-rule:nonzero;stroke:none;stroke-width:1;stroke-linecap:butt;stroke-linejoin:miter;stroke-miterlimit:4;stroke-dasharray:none;stroke-dashoffset:0;stroke-opacity:1;color-rendering:auto;image-rendering:auto;shape-rendering:auto;text-rendering:auto;enable-background:accumulate"
         d="m 239.6108,363.95136 c 0,-0.68227 51.8084,-71.77118 52.4496,-71.96877 0.2823,-0.087 1.4998,1.21847 2.7056,2.90096 1.2059,1.6825 3.2565,3.86036 4.5569,4.83969 1.3004,0.97934 2.3103,1.96297 2.2442,2.18586 -0.2079,0.7011 -61.0165,62.5401 -61.4981,62.5401 -0.252,0 -0.4582,-0.22404 -0.4582,-0.49784 z"
         id="path4484-2"
         inkscape:connector-curvature="0" />
      <path
         style="color:#000000;clip-rule:nonzero;display:inline;overflow:visible;visibility:visible;opacity:1;isolation:auto;mix-blend-mode:normal;color-interpolation:sRGB;color-interpolation-filters:linearRGB;solid-color:#000000;solid-opacity:1;fill:#0049da;fill-opacity:1;fill-rule:nonzero;stroke:none;stroke-width:1;stroke-linecap:butt;stroke-linejoin:miter;stroke-miterlimit:4;stroke-dasharray:none;stroke-dashoffset:0;stroke-opacity:1;color-rendering:auto;image-rendering:auto;shape-rendering:auto;text-rendering:auto;enable-background:accumulate"
         d="m 414.4983,584.02194 c -1.8762,-0.52248 -3.7787,-1.16337 -4.2278,-1.42416 -0.951,-0.55227 -84.8179,-82.79015 -85.3004,-83.64349 -0.1781,-0.31512 0.7619,-7.56071 2.089,-16.10131 1.3271,-8.5406 3.6583,-24.7432 5.1805,-36.00577 1.5222,-11.26258 2.8948,-20.60455 3.0501,-20.75995 0.1555,-0.1554 0.5034,-0.0496 0.7732,0.23507 0.7505,0.79193 82.3076,158.30598 82.0619,158.48915 -0.1184,0.0883 -1.7502,-0.26703 -3.6266,-0.78954 z"
         id="path4498-4"
         inkscape:connector-curvature="0" />
      <path
         style="color:#000000;clip-rule:nonzero;display:inline;overflow:visible;visibility:visible;opacity:1;isolation:auto;mix-blend-mode:normal;color-interpolation:sRGB;color-interpolation-filters:linearRGB;solid-color:#000000;solid-opacity:1;fill:#0049da;fill-opacity:1;fill-rule:nonzero;stroke:none;stroke-width:1;stroke-linecap:butt;stroke-linejoin:miter;stroke-miterlimit:4;stroke-dasharray:none;stroke-dashoffset:0;stroke-opacity:1;color-rendering:auto;image-rendering:auto;shape-rendering:auto;text-rendering:auto;enable-background:accumulate"
         d="m 229.1805,563.5595 c 0.056,-0.14695 8.6348,-11.94823 19.0631,-26.22508 20.5668,-28.15692 18.7877,-25.89738 27.3003,-34.67115 l 3.8882,-4.00747 0.6101,0.99154 0.6101,0.99154 -4.5181,6.15122 c -9.7832,13.31947 -20.1812,26.89631 -25.437,33.21344 -4.0719,4.89428 -11.0364,12.75909 -18.101,20.44085 -2.8193,3.0657 -3.7077,3.87583 -3.4157,3.1151 z"
         id="path4518-8"
         inkscape:connector-curvature="0" />
      <path
         style="color:#000000;clip-rule:nonzero;display:inline;overflow:visible;visibility:visible;opacity:1;isolation:auto;mix-blend-mode:normal;color-interpolation:sRGB;color-interpolation-filters:linearRGB;solid-color:#000000;solid-opacity:1;fill:#ffe72d;fill-opacity:1;fill-rule:nonzero;stroke:none;stroke-width:1;stroke-linecap:butt;stroke-linejoin:miter;stroke-miterlimit:4;stroke-dasharray:none;stroke-dashoffset:0;stroke-opacity:1;color-rendering:auto;image-rendering:auto;shape-rendering:auto;text-rendering:auto;enable-background:accumulate"
         d="m 342.4581,352.93927 c -8.1029,-9.62074 -13.8201,-17.29991 -17.9026,-24.04636 -4.5189,-7.4676 -16.1763,-29.37608 -16.1763,-30.40111 0,-0.39256 3.1998,-5.11626 7.1105,-10.49712 14.4563,-19.89056 24.8934,-35.53814 32.1334,-48.17524 5.7071,-9.96166 16.2592,-33.19279 25.6745,-56.52443 2.8895,-7.16048 3.5621,-8.43202 4.1494,-7.84476 0.1747,0.17474 -1.6821,10.3902 -4.1264,22.70098 -9.8527,49.62466 -13.4729,72.06526 -21.1019,130.80455 -3.8822,29.89064 -3.8906,29.94828 -4.3741,29.94528 -0.2019,-9.9e-4 -2.6258,-2.68405 -5.3865,-5.96177 z"
         id="path4480-4"
         inkscape:connector-curvature="0" />
      <path
         style="color:#000000;clip-rule:nonzero;display:inline;overflow:visible;visibility:visible;opacity:1;isolation:auto;mix-blend-mode:normal;color-interpolation:sRGB;color-interpolation-filters:linearRGB;solid-color:#000000;solid-opacity:1;fill:#ffe72d;fill-opacity:1;fill-rule:nonzero;stroke:none;stroke-width:1;stroke-linecap:butt;stroke-linejoin:miter;stroke-miterlimit:4;stroke-dasharray:none;stroke-dashoffset:0;stroke-opacity:1;color-rendering:auto;image-rendering:auto;shape-rendering:auto;text-rendering:auto;enable-background:accumulate"
         d="m 242.8828,596.33638 c 0,-0.11614 12.3292,-23.26608 13.0395,-24.48362 0.5528,-0.94763 23.7643,-36.14616 23.9868,-36.37433 0.5324,-0.54587 -0.069,0.72033 -2.4439,5.14546 -12.7742,23.80182 -17.4204,31.43651 -31.2844,51.40598 -2.6208,3.77485 -3.298,4.65923 -3.298,4.30651 z"
         id="path4512-8"
         inkscape:connector-curvature="0" />
      <path
         style="color:#000000;clip-rule:nonzero;display:inline;overflow:visible;visibility:visible;opacity:1;isolation:auto;mix-blend-mode:normal;color-interpolation:sRGB;color-interpolation-filters:linearRGB;solid-color:#000000;solid-opacity:1;fill:#ffe72d;fill-opacity:1;fill-rule:nonzero;stroke:none;stroke-width:1;stroke-linecap:butt;stroke-linejoin:miter;stroke-miterlimit:4;stroke-dasharray:none;stroke-dashoffset:0;stroke-opacity:1;color-rendering:auto;image-rendering:auto;shape-rendering:auto;text-rendering:auto;enable-background:accumulate"
         d="m 181.42358,464.75913 c -1.23,-4.75522 -1.2101,-4.65625 -0.939,-4.65625 0.1806,0 5.4987,5.93492 5.4987,6.13642 0,0.13029 -3.1671,2.88322 -3.3162,2.8825 -0.063,-3.2e-4 -0.6229,-1.96351 -1.2435,-4.36267 z"
         id="path4520-6"
         inkscape:connector-curvature="0" />
      <path
         style="color:#000000;clip-rule:nonzero;display:inline;overflow:visible;visibility:visible;opacity:1;isolation:auto;mix-blend-mode:normal;color-interpolation:sRGB;color-interpolation-filters:linearRGB;solid-color:#000000;solid-opacity:1;fill:#ffe72d;fill-opacity:1;fill-rule:nonzero;stroke:none;stroke-width:1;stroke-linecap:butt;stroke-linejoin:miter;stroke-miterlimit:4;stroke-dasharray:none;stroke-dashoffset:0;stroke-opacity:1;color-rendering:auto;image-rendering:auto;shape-rendering:auto;text-rendering:auto;enable-background:accumulate"
         d="m 412.65,526.80282 c -16.2119,-20.48612 -29.5108,-38.59162 -36.152,-49.2184 -7.1757,-11.48203 -17.3047,-30.31466 -30.0555,-55.88191 -8.8215,-17.68838 -8.9085,-17.92756 -7.8366,-21.54636 0.2803,-0.94623 50.2051,7.5641 50.8016,8.65979 0.397,0.72935 29.8886,124.04416 29.8886,124.97495 0,1.11235 -1.4044,-0.36436 -6.6461,-6.98809 z"
         id="path4492-0"
         inkscape:connector-curvature="0" />
      <path
         style="color:#000000;clip-rule:nonzero;display:inline;overflow:visible;visibility:visible;opacity:1;isolation:auto;mix-blend-mode:normal;color-interpolation:sRGB;color-interpolation-filters:linearRGB;solid-color:#000000;solid-opacity:1;fill:#9e00a0;fill-opacity:1;fill-rule:nonzero;stroke:none;stroke-width:1;stroke-linecap:butt;stroke-linejoin:miter;stroke-miterlimit:4;stroke-dasharray:none;stroke-dashoffset:0;stroke-opacity:1;color-rendering:auto;image-rendering:auto;shape-rendering:auto;text-rendering:auto;enable-background:accumulate"
         d="m 284.6999,289.69148 c -3.0436,-1.56482 -4.7893,-2.97429 -7.3499,-5.93435 -2.0736,-2.39711 -3.2386,-4.20029 -3.0455,-4.71396 0.5634,-1.49878 48.0539,-83.99875 48.8251,-84.81841 0.4134,-0.43937 0.8734,-0.67705 1.0223,-0.52815 0.1489,0.14889 -2.1026,6.24832 -5.0033,13.5543 -11.3955,28.70149 -14.6572,40.85927 -16.2657,60.62944 -0.577,7.09269 0.2206,5.4855 -8.7741,17.67919 -2.5313,3.43149 -4.7857,6.22672 -5.0098,6.21164 -0.2241,-0.0151 -2.2037,-0.95097 -4.3991,-2.07969 z"
         id="path4486-0"
         inkscape:connector-curvature="0" />
      <path
         style="color:#000000;clip-rule:nonzero;display:inline;overflow:visible;visibility:visible;opacity:1;isolation:auto;mix-blend-mode:normal;color-interpolation:sRGB;color-interpolation-filters:linearRGB;solid-color:#000000;solid-opacity:1;fill:#9e00a0;fill-opacity:1;fill-rule:nonzero;stroke:none;stroke-width:1;stroke-linecap:butt;stroke-linejoin:miter;stroke-miterlimit:4;stroke-dasharray:none;stroke-dashoffset:0;stroke-opacity:1;color-rendering:auto;image-rendering:auto;shape-rendering:auto;text-rendering:auto;enable-background:accumulate"
         d="m 410.7342,489.69276 c -0.908,-2.75443 -4.1573,-17.32065 -3.9173,-17.56067 0.4786,-0.47857 1.0319,0.38628 4.5825,7.16221 l 3.3661,6.42384 -1.2008,2.1291 c -1.2907,2.2884 -2.4379,3.03639 -2.8305,1.84551 z"
         id="path4494-9"
         inkscape:connector-curvature="0" />
      <path
         style="color:#000000;clip-rule:nonzero;display:inline;overflow:visible;visibility:visible;opacity:1;isolation:auto;mix-blend-mode:normal;color-interpolation:sRGB;color-interpolation-filters:linearRGB;solid-color:#000000;solid-opacity:1;fill:#9e00a0;fill-opacity:1;fill-rule:nonzero;stroke:none;stroke-width:1;stroke-linecap:butt;stroke-linejoin:miter;stroke-miterlimit:4;stroke-dasharray:none;stroke-dashoffset:0;stroke-opacity:1;color-rendering:auto;image-rendering:auto;shape-rendering:auto;text-rendering:auto;enable-background:accumulate"
         d="m 219.71208,577.55822 c 0.116,-0.30942 5.10322,-5.89742 11.08262,-12.41777 19.5027,-21.26698 25.1652,-28.09068 41.4776,-49.98292 4.9433,-6.63423 9.2079,-12.0622 9.477,-12.0622 0.7768,0 8.4605,12.72109 8.1587,13.50752 -0.8985,2.34158 -35.3767,53.53716 -36.2307,53.79774 -0.5687,0.17354 -7.8968,1.83407 -16.2849,3.69007 -8.3882,1.85599 -15.84512,3.52205 -16.57122,3.70234 -0.7862,0.19521 -1.2348,0.10025 -1.1091,-0.23478 z"
         id="path4506-3"
         inkscape:connector-curvature="0" />
    </g>
    <g
       style="font-style:normal;font-weight:normal;font-size:40px;line-height:125%;font-family:sans-serif;letter-spacing:0px;word-spacing:0px;fill:#000000;fill-opacity:1;stroke:none;stroke-width:1px;stroke-linecap:butt;stroke-linejoin:miter;stroke-opacity:1"
       id="text4169">
      <path
         d="m 14.94669,1034.285 8.75,0 0,-1.0625 -6.875,0 0,-3 6.25,0 0,-1.0625 -6.25,0 0,-2.0625 6.875,0 0,-1.0625 -8.75,0 0,8.25 z"
         style="font-style:normal;font-variant:normal;font-weight:normal;font-stretch:normal;font-size:12.5px;line-height:125%;font-family:eh17;-inkscape-font-specification:'eh17, Normal';text-align:start;writing-mode:lr-tb;text-anchor:start;fill:#ffffff"
         id="path4173" />
      <path
         d="m 25.319736,1032.8475 c 0,1.4375 1.25,1.4375 2.5,1.4375 l 4.75,0 0,-4.5625 c 0,-1.4375 -1.25,-1.4375 -2.5,-1.4375 l -4.25,0 0,0.9375 4.375,0 c 0.3125,0 0.625,0 0.625,0.375 l 0,0.9375 -3,0 c -1.25,0 -2.5,0 -2.5,1.4375 l 0,0.875 z m 1.75,0.125 0,-1.125 c 0,-0.375 0.3125,-0.375 0.625,-0.375 l 3.125,0 0,1.875 -3.125,0 c -0.3125,0 -0.625,0 -0.625,-0.375 z"
         style="font-style:normal;font-variant:normal;font-weight:normal;font-stretch:normal;font-size:12.5px;line-height:125%;font-family:eh17;-inkscape-font-specification:'eh17, Normal';text-align:start;writing-mode:lr-tb;text-anchor:start;fill:#ffffff"
         id="path4175" />
      <path
         d="m 34.059971,1034.285 4.75,0 c 1.25,0 2.5,0 2.5,-1.4375 l 0,-0.875 c 0,-1.4375 -1.25,-1.4375 -2.5,-1.4375 l -2.375,0 c -0.3125,0 -0.625,0 -0.625,-0.375 l 0,-0.5625 c 0,-0.375 0.3125,-0.375 0.625,-0.375 l 4.375,0 0,-0.9375 -4.25,0 c -1.25,0 -2.5,0 -2.5,1.4375 l 0,0.3125 c 0,1.4375 1.25,1.4375 2.5,1.4375 l 2.375,0 c 0.3125,0 0.625,0 0.625,0.375 l 0,1.125 c 0,0.375 -0.3125,0.375 -0.625,0.375 l -4.875,0 0,0.9375 z"
         style="font-style:normal;font-variant:normal;font-weight:normal;font-stretch:normal;font-size:12.5px;line-height:125%;font-family:eh17;-inkscape-font-specification:'eh17, Normal';text-align:start;writing-mode:lr-tb;text-anchor:start;fill:#ffffff"
         id="path4177" />
      <path
         d="m 42.800205,1032.8475 c 0,1.4375 1.25,1.4375 2.5,1.4375 l 1.75,0 0,-0.9375 -1.875,0 c -0.3125,0 -0.625,0 -0.625,-0.375 l 0,-3.75 2.5,0 0,-0.9375 -2.5,0 0,-2.25 -1.75,0 0,6.8125 z"
         style="font-style:normal;font-variant:normal;font-weight:normal;font-stretch:normal;font-size:12.5px;line-height:125%;font-family:eh17;-inkscape-font-specification:'eh17, Normal';text-align:start;writing-mode:lr-tb;text-anchor:start;fill:#ffffff"
         id="path4179" />
      <path
         d="m 48.561924,1032.8475 c 0,1.4375 1.25,1.4375 2.5,1.4375 l 4.5,0 0,-0.9375 -4.625,0 c -0.3125,0 -0.625,0 -0.625,-0.375 l 0,-1.5 5.5,0 0,-1.75 c 0,-1.4375 -1.25,-1.4375 -2.5,-1.4375 l -2.25,0 c -1.25,0 -2.5,0 -2.5,1.4375 l 0,3.125 z m 1.75,-2.3125 0,-0.9375 c 0,-0.375 0.3125,-0.375 0.625,-0.375 l 2.5,0 c 0.3125,0 0.625,0 0.625,0.375 l 0,0.9375 -3.75,0 z"
         style="font-style:normal;font-variant:normal;font-weight:normal;font-stretch:normal;font-size:12.5px;line-height:125%;font-family:eh17;-inkscape-font-specification:'eh17, Normal';text-align:start;writing-mode:lr-tb;text-anchor:start;fill:#ffffff"
         id="path4181" />
      <path
         d="m 57.302158,1034.285 1.75,0 0,-4.6875 c 0,-0.375 0.3125,-0.375 0.625,-0.375 l 1.875,0 0,-0.9375 -1.75,0 c -1.25,0 -2.5,0 -2.5,1.4375 l 0,4.5625 z"
         style="font-style:normal;font-variant:normal;font-weight:normal;font-stretch:normal;font-size:12.5px;line-height:125%;font-family:eh17;-inkscape-font-specification:'eh17, Normal';text-align:start;writing-mode:lr-tb;text-anchor:start;fill:#ffffff"
         id="path4183" />
      <path
         d="m 63.063877,1034.285 1.75,0 0,-5.0625 3.125,0 c 0.3125,0 0.625,0 0.625,0.375 l 0,4.6875 1.75,0 0,-4.5625 c 0,-1.4375 -1.25,-1.4375 -2.5,-1.4375 l -3,0 0,-2.25 -1.75,0 0,8.25 z"
         style="font-style:normal;font-variant:normal;font-weight:normal;font-stretch:normal;font-size:12.5px;line-height:125%;font-family:eh17;-inkscape-font-specification:'eh17, Normal';text-align:start;writing-mode:lr-tb;text-anchor:start;fill:#ffffff"
         id="path4185" />
      <path
         d="m 71.804111,1032.8475 c 0,1.4375 1.25,1.4375 2.5,1.4375 l 4.5,0 0,-0.9375 -4.625,0 c -0.3125,0 -0.625,0 -0.625,-0.375 l 0,-1.5 5.5,0 0,-1.75 c 0,-1.4375 -1.25,-1.4375 -2.5,-1.4375 l -2.25,0 c -1.25,0 -2.5,0 -2.5,1.4375 l 0,3.125 z m 1.75,-2.3125 0,-0.9375 c 0,-0.375 0.3125,-0.375 0.625,-0.375 l 2.5,0 c 0.3125,0 0.625,0 0.625,0.375 l 0,0.9375 -3.75,0 z"
         style="font-style:normal;font-variant:normal;font-weight:normal;font-stretch:normal;font-size:12.5px;line-height:125%;font-family:eh17;-inkscape-font-specification:'eh17, Normal';text-align:start;writing-mode:lr-tb;text-anchor:start;fill:#ffffff"
         id="path4187" />
      <path
         d="m 80.544346,1032.8475 c 0,1.4375 1.25,1.4375 2.5,1.4375 l 3,0 0,1.5625 c 0,0.3125 -0.3125,0.3125 -0.625,0.3125 l -4.625,0 0,0.9375 4.5,0 c 1.25,0 2.5,0 2.5,-1.25 l 0,-7.5625 -4.75,0 c -1.25,0 -2.5,0 -2.5,1.4375 l 0,3.125 z m 1.75,0.125 0,-3.375 c 0,-0.375 0.3125,-0.375 0.625,-0.375 l 3.125,0 0,4.125 -3.125,0 c -0.3125,0 -0.625,0 -0.625,-0.375 z"
         style="font-style:normal;font-variant:normal;font-weight:normal;font-stretch:normal;font-size:12.5px;line-height:125%;font-family:eh17;-inkscape-font-specification:'eh17, Normal';text-align:start;writing-mode:lr-tb;text-anchor:start;fill:#ffffff"
         id="path4189" />
      <path
         d="m 89.28458,1032.8475 c 0,1.4375 1.25,1.4375 2.5,1.4375 l 3,0 0,1.5625 c 0,0.3125 -0.3125,0.3125 -0.625,0.3125 l -4.625,0 0,0.9375 4.5,0 c 1.25,0 2.5,0 2.5,-1.25 l 0,-7.5625 -4.75,0 c -1.25,0 -2.5,0 -2.5,1.4375 l 0,3.125 z m 1.75,0.125 0,-3.375 c 0,-0.375 0.3125,-0.375 0.625,-0.375 l 3.125,0 0,4.125 -3.125,0 c -0.3125,0 -0.625,0 -0.625,-0.375 z"
         style="font-style:normal;font-variant:normal;font-weight:normal;font-stretch:normal;font-size:12.5px;line-height:125%;font-family:eh17;-inkscape-font-specification:'eh17, Normal';text-align:start;writing-mode:lr-tb;text-anchor:start;fill:#ffffff"
         id="path4191" />
      <path
         d="m 102.64981,1026.035 -4.624995,0 0,1.0625 2.749995,0 0,7.1875 1.875,0 0,-8.25 z"
         style="font-style:normal;font-variant:normal;font-weight:normal;font-stretch:normal;font-size:12.5px;line-height:125%;font-family:eh17;-inkscape-font-specification:'eh17, Normal';text-align:start;writing-mode:lr-tb;text-anchor:start;fill:#ffffff"
         id="path4193" />
      <path
         d="m 104.15274,1027.0975 7.25,0 -4.75,7.1875 2.125,0 4.75,-7.1875 0,-1.0625 -9.375,0 0,1.0625 z"
         style="font-style:normal;font-variant:normal;font-weight:normal;font-stretch:normal;font-size:12.5px;line-height:125%;font-family:eh17;-inkscape-font-specification:'eh17, Normal';text-align:start;writing-mode:lr-tb;text-anchor:start;fill:#ffffff"
         id="path4195" />
    </g>
  </g>
  <g
     inkscape:groupmode="layer"
     id="layer2"
     inkscape:label="Cutkontour"
     style="display:inline"
     transform="translate(0,21.259843)">
    <path
       style="display:inline;fill:none;fill-rule:evenodd;stroke:#ff00ff;stroke-width:0.3125;stroke-linecap:butt;stroke-linejoin:miter;stroke-miterlimit:4;stroke-dasharray:none;stroke-opacity:1"
       d="m 49.059726,53.815991 0.865053,-15.86476 22.020659,-37.49532899 4.674423,-1.07532 -4.767721,22.41059899 0,0 20.006299,-29.542029 3.94016,0.102 0,0 -11.540461,78.198479 0,0 -3.46214,6.05875 0,0 -1.442558,6.92428 0,0 21.06135,3.75065 0,0 5.77023,24.523469 0,0 5.19319,6.92423 0,0 -2.8851,4.32766 0,0 4.27707,10.96353 0.86554,5.7703 -1.54255,23.65707 3.6017,6.58 -5.52514,8.4591 -11.555909,-0.2949 -0.51099,3.1805 -18.775377,-0.1017 -2.321204,-2.7883 -63.824769,0 0,-12.1378 10.350807,-0.5003 2.713787,2.2178 8.966061,0.2919 3.172662,-6.0569 0,0 3.750651,-6.9241 0,0 -15.002601,3.7506 4.904696,-8.6553 0,0 13.560043,-18.75337 -17.599206,-7.78972 0,0 -5.481719,0.577 0,0 -4.327673,-8.94383 0,0 -3.75065,-0.57703 -2.596604,-4.53116 0.390515,-4.95772 16.63408,-26.575549 6.920898,-7.78643 z"
       id="path4287-0"
       inkscape:connector-curvature="0"
       sodipodi:nodetypes="ccccccccccccccccccccccccccccccccccccccccccccccccccccccccc" />
  </g>
</svg>
