<?xml version="1.0" encoding="UTF-8" standalone="no"?>
<!-- Created with Inkscape (http://www.inkscape.org/) -->

<svg
   xmlns:dc="http://purl.org/dc/elements/1.1/"
   xmlns:cc="http://creativecommons.org/ns#"
   xmlns:rdf="http://www.w3.org/1999/02/22-rdf-syntax-ns#"
   xmlns:svg="http://www.w3.org/2000/svg"
   xmlns="http://www.w3.org/2000/svg"
   xmlns:sodipodi="http://sodipodi.sourceforge.net/DTD/sodipodi-0.dtd"
   xmlns:inkscape="http://www.inkscape.org/namespaces/inkscape"
   width="44mm"
   height="24mm"
   viewBox="0 0 155.90551 85.03937"
   id="svg2"
   version="1.1"
   inkscape:version="0.91 r13725"
   sodipodi:docname="meta.svg">
  <defs
     id="defs4" />
  <sodipodi:namedview
     id="base"
     pagecolor="#ffffff"
     bordercolor="#666666"
     borderopacity="1.0"
     inkscape:pageopacity="1"
     inkscape:pageshadow="2"
     inkscape:zoom="2.8"
     inkscape:cx="96.587686"
     inkscape:cy="56.617614"
     inkscape:document-units="mm"
     inkscape:current-layer="layer1"
     showgrid="false"
     inkscape:window-width="1920"
     inkscape:window-height="1018"
     inkscape:window-x="-8"
     inkscape:window-y="-8"
     inkscape:window-maximized="1" />
  <metadata
     id="metadata7">
    <rdf:RDF>
      <cc:Work
         rdf:about="">
        <dc:format>image/svg+xml</dc:format>
        <dc:type
           rdf:resource="http://purl.org/dc/dcmitype/StillImage" />
        <dc:title></dc:title>
      </cc:Work>
    </rdf:RDF>
  </metadata>
  <g
     inkscape:label="meta"
     inkscape:groupmode="layer"
     id="layer1"
     transform="translate(0,-967.32283)"
     sodipodi:insensitive="true">
    <g
       style="font-style:normal;font-weight:normal;font-size:63.47763062px;line-height:125%;font-family:Sans;letter-spacing:0px;word-spacing:0px;fill:#000000;fill-opacity:1;stroke:none;stroke-width:1px;stroke-linecap:butt;stroke-linejoin:miter;stroke-opacity:1"
       id="text8068">
      <path
         d="m 27.064092,1000.4106 q -0.09298,-0.61989 -0.216965,-1.30178 0,0.27895 0.09298,-0.43393 0.09299,-0.71289 0.24796,-2.4486 0.247959,-0.34095 0.340944,-0.58891 0.12398,-0.27895 0.216965,-0.49591 -0.278955,-0.34095 -0.43393,-0.55791 -0.123979,-0.24796 -0.123979,-0.40294 0.247959,-1.89069 0.464924,-3.59541 0.03099,-0.46492 0.526914,-1.05383 0.526914,-0.5889 1.425767,-1.27079 0.712883,-0.5889 1.394772,-0.99184 0.681889,-0.40293 1.301787,-0.65089 0.836864,-0.27896 0.991838,-0.46493 0.154975,-0.18597 0.340945,-0.18597 0.495919,0 0.743878,0.49592 0.278955,0.49592 0.278955,1.48776 0,0.52691 -0.278955,1.45676 -0.247959,0.92985 -0.247959,1.36378 0,0.18597 0.03099,1.42577 0.06199,1.23979 0.154974,3.56441 0.03099,1.67373 0.464924,3.56442 0.464924,1.89072 1.177808,3.93632 0.960843,2.6656 2.076661,3.9984 1.115817,1.3018 2.4486,1.3018 1.053827,0 2.789544,-1.3638 1.735716,-1.3638 4.091332,-4.0913 1.797706,-2.1077 3.192478,-3.93639 1.425767,-1.8287 2.293625,-3.34746 0.805869,-1.36377 1.890692,-2.4486 1.084822,-1.08482 2.479595,-1.98367 0.433929,-0.24796 0.712883,-0.40294 0.278954,-0.15497 0.433929,-0.15497 0.557909,0 0.836863,0.83686 0.30995,0.83687 0.30995,2.4796 -0.18597,1.51875 -0.30995,3.00651 -0.278954,2.32462 -0.836863,4.83516 -0.526914,2.5106 -1.394772,5.2072 -0.433929,1.3638 -0.743878,2.3866 -0.30995,1.0228 -0.43393,1.7357 -0.06199,0.403 -0.185969,1.0229 -0.09299,0.5889 -0.216965,1.3947 -0.309949,0.7749 -0.681888,1.5498 -0.30995,0.6199 -0.526914,1.4877 -0.18597,0.8679 -0.340945,2.0147 0,0.217 -0.03099,0.5579 -0.03099,0.341 -0.06199,0.7129 -0.712884,3.1615 -1.456762,6.137 -0.06199,0.2789 -0.278955,0.7129 -0.402934,0.124 -0.929848,0.5269 -0.495919,0.4029 -1.053828,1.1158 -0.557909,0.6199 -0.929848,0.9299 -0.371939,0.2789 -0.557909,0.2789 -0.247959,0 -0.402934,-0.155 -0.154975,-0.1549 -0.154975,-0.5269 0.03099,-0.2479 0.09298,-0.4029 0.433929,-1.0538 0.743879,-3.0375 0.340944,-1.9837 0.619898,-4.8972 0.03099,-0.6199 0.495919,-3.3475 0.464924,-2.7275 1.363778,-7.5627 0.123979,-0.7749 0.309949,-1.8907 0.216965,-1.1468 0.526914,-2.6036 0.216964,-0.7439 0.340944,-1.2708 0.154975,-0.5579 0.154975,-0.8059 0,-0.3099 -0.12398,-0.4339 -0.09299,-0.155 -0.309949,-0.155 -0.18597,0 -0.681889,0.496 -0.495919,0.4649 -1.239797,1.4257 -0.433929,0.5269 -0.898854,1.1158 -0.433929,0.5889 -0.929848,1.1469 -0.836863,0.8678 -1.549746,1.6427 l -2.293626,2.2936 q -0.309949,0.186 -0.774873,0.4649 -0.433929,0.279 -1.053828,0.6509 -0.588904,0.9299 -1.890691,1.6118 -1.270793,0.6509 -2.355615,0.6509 -1.301788,0 -2.51059,-0.8059 -1.177808,-0.8369 -2.293626,-2.5416 -0.495919,-0.8369 -0.991838,-1.6737 -0.464924,-0.8369 -1.022832,-1.6737 l -0.154975,0.031 q -0.154975,0.186 -0.588904,2.5106 -0.402934,2.3247 -1.053828,6.8189 -0.712883,4.6183 -1.084823,7.2528 -0.371939,2.6346 -0.371939,3.4095 -0.06199,1.0538 -0.402934,1.6427 -0.309949,0.5579 -0.991838,0.6509 -0.340944,0.031 -0.960843,0.186 -0.619899,0.124 -1.487757,0.3409 -0.154975,-0.031 -0.278954,-0.093 -0.12398,-0.093 -0.12398,-0.2479 l 0.185969,-1.1468 -0.309949,-1.1778 q 0.18597,-0.9609 0.371939,-1.8597 0.12398,-1.8597 0.216965,-3.5025 0.03099,-0.3409 0.216964,-1.1468 0.216965,-0.8059 0.216965,-1.2088 0,-0.2169 -0.09298,-0.6199 -0.09299,-0.4339 -0.09299,-0.6509 0,-1.7047 0.526914,-5.0522 0.557909,-3.3474 0.557909,-5.0831 -0.09298,-0.7129 -0.216964,-1.4258 0.154974,-1.1158 0.495919,-2.7895 0.340944,-1.6738 0.774873,-3.9054 z"
         style="font-style:normal;font-variant:normal;font-weight:normal;font-stretch:normal;font-family:Mistral;-inkscape-font-specification:Mistral"
         id="path8091"
         inkscape:connector-curvature="0" />
      <path
         d="m 85.892481,1021.8901 1.177808,2.8515 q -0.340945,0.31 -0.836864,0.6819 -0.464924,0.341 -1.115817,0.7439 -0.650894,0.217 -1.580742,0.6199 -0.898853,0.4029 -2.076661,0.9298 -0.898853,0.558 -1.487757,0.8369 -0.557909,0.279 -0.774873,0.279 -0.402934,0 -1.487757,0.3409 -1.053828,0.341 -2.789545,1.0228 -0.929848,0.341 -1.983675,0.7129 -1.022833,0.341 -2.138651,0.6199 l -1.921686,-0.4029 -1.177808,0.5269 q -0.588904,0 -1.208802,-0.031 -0.588904,0 -1.146813,-0.062 -0.898853,-0.031 -1.363777,-0.2479 -0.433929,-0.217 -0.433929,-0.6199 l 0.185969,-1.1778 -0.185969,-0.217 q -1.053828,0 -1.425767,-0.279 -0.340945,-0.2789 -0.340945,-1.3018 0,-0.4649 0.031,-1.5497 0.06199,-1.0848 0.154975,-2.8205 0,-0.155 0.18597,-0.6509 0.216964,-0.496 0.216964,-0.7129 -0.154975,-0.31 -0.18597,-0.4959 -0.03099,-0.186 -0.03099,-0.341 0.06199,-1.2088 0.247959,-2.9755 0.216965,-1.7667 0.526914,-4.1843 0.371939,-1.4568 0.619899,-3.2855 -0.06199,-1.3638 -0.12398,-2.7895 1.146813,-5.1452 2.355615,-10.35233 0.18597,-0.92985 0.681889,-1.76671 0.526914,-0.83686 1.239797,-1.61174 0.30995,-0.21696 0.402934,-0.34094 0.154975,-0.27896 0.402935,-0.68189 0.247959,-0.43393 0.588903,-0.96084 0.18597,-0.12398 0.588904,-0.37194 0.433929,-0.24796 1.146813,-0.68189 0.309949,-0.24796 0.712883,-0.58891 0.402935,-0.34094 0.929848,-0.80586 1.177808,-0.71289 2.169646,-1.48776 1.022833,-0.80587 2.541585,-0.99184 0.712883,-0.031 1.425767,-0.062 0.712884,-0.062 1.363777,-0.12398 0.619899,-0.12398 1.084823,-0.15497 0.309949,-0.062 0.526914,-0.12398 0.247959,-0.062 0.433929,-0.062 0.18597,0 0.495919,0.062 0.340944,0.031 0.898853,0.12398 0.433929,0.031 0.743879,0.031 0.309949,0 0.588903,-0.031 1.239798,0.37194 1.828702,1.08482 0.588904,0.71288 0.588904,1.70472 0,2.13865 -0.43393,3.19248 -0.402934,1.02283 -1.301787,1.02283 -0.681889,0 -1.549747,-0.68189 -0.867858,-0.71288 -4.680235,-0.71288 -1.580742,0.30995 -3.130489,0.6199 -0.154975,0.24796 -0.371939,0.37194 -0.18597,0.12398 -0.340944,0.18597 l -1.084823,-0.40294 q -0.495919,0.18597 -1.115818,1.02284 -0.619899,0.83686 -1.301787,2.29362 -0.154975,0.30995 -0.24796,0.77488 -0.06199,0.46492 -0.06199,1.08482 -0.557908,2.23169 -1.115817,4.30829 -0.526914,2.2317 -0.867859,3.3785 -0.309949,1.1468 -0.371939,1.3947 -0.09298,0.31 -0.154975,0.5889 -0.06199,0.279 -0.06199,0.5579 0,0.403 0.154974,0.6199 0.154975,0.217 0.464924,0.217 0.278955,0 1.332783,-1.0228 1.084822,-1.0229 1.611736,-1.1468 0.650894,-0.186 1.301788,-0.403 0.681888,-0.2169 1.394772,-0.5269 0.278954,-0.093 1.456762,-0.2479 1.208802,-0.155 3.347453,-0.372 l 0.867858,0.248 1.642732,-0.31 0.867858,0.403 q 0.30995,0.3099 0.557909,0.7748 0.278954,0.434 0.495919,0.9609 0,1.8597 -0.402934,2.8205 -0.402934,0.9609 -1.208803,0.9609 l -1.704721,-0.6819 q -2.107656,0.2169 -4.184317,0.4339 -2.045666,0.186 -4.184316,0.3719 -2.603575,0.527 -3.998347,1.7048 -1.394772,1.1778 -1.549747,3.0995 -0.031,0.4029 -0.216964,1.2398 -0.18597,0.8368 -0.43393,2.0766 l 0.216965,0.9299 q -0.278954,1.3327 -0.433929,2.5106 -0.154975,1.1778 -0.154975,2.1076 0,0.31 0.09298,0.4649 0.09298,0.124 0.216965,0.062 1.487757,-0.124 2.38661,-0.1859 0.898853,-0.062 1.270792,-0.031 0.805869,0.062 1.642732,0.1239 l 1.952681,-0.1549 q 0.309949,-0.062 1.332782,-0.496 1.053828,-0.4339 1.890691,-0.4339 0.898853,0 1.797707,-0.186 0.929848,-0.1859 1.766711,-0.4959 0.836863,-0.3099 1.642732,-0.6199 0.836863,-0.3409 1.673726,-0.6509 0.30995,-0.093 0.805869,-0.3409 0.526914,-0.248 1.208802,-0.6509 z"
         style="font-style:normal;font-variant:normal;font-weight:normal;font-stretch:normal;font-family:Mistral;-inkscape-font-specification:Mistral"
         id="path8093"
         inkscape:connector-curvature="0" />
      <path
         d="m 92.091466,987.29975 q 1.270792,-0.37194 2.758549,-0.55791 1.518752,-0.18597 3.347453,-0.18597 0.340945,0 0.991838,0.12398 0.681889,0.093 1.084824,0.093 0.5889,0.093 0.89885,0.18597 0.34095,0.093 0.92985,0.21697 l 0.86786,-0.24796 q 0.27895,0.031 0.5889,0.24796 0.34095,0.18597 0.80587,0.43393 0.24796,-0.15498 0.71288,-0.37194 0.46493,0 0.74388,0.37194 0.30995,0.34094 0.40294,0.99183 0,0.49592 0,0.99184 0,0.46493 -0.062,0.99184 -0.031,0.24796 0.031,0.77487 0.062,0.52692 0.062,0.80587 0,0.34095 -0.15497,0.49592 -0.15498,0.15497 -0.40294,0.15497 -1.1778,0 -2.32462,-0.18596 -1.14681,-0.21697 -2.29362,-0.6199 -0.99184,0.18597 -1.735719,0.27895 -0.588904,0.062 -0.867858,0.18597 -0.278955,0.12398 -0.278955,0.30995 0.12398,0.21696 0.340945,0.46492 0.216964,0.24796 0.526914,0.46493 0.216964,0.15497 0.495919,0.68189 0.278954,0.49592 0.588904,1.36377 0.12398,0.34095 0.15497,0.6509 0.062,0.30995 0.062,0.5889 0,0.6509 -0.12398,1.64273 -0.12398,0.96085 -0.27895,1.58069 -0.278955,1.2088 -0.433929,2.0147 -0.154975,0.7749 -0.24796,1.1778 -0.06199,0.31 -0.09298,0.7439 -0.03099,0.4339 -0.06199,0.9918 -0.031,0.465 -0.24796,1.1778 -0.216964,0.6819 -0.433929,1.5808 0,0.4029 -0.09299,0.9298 -0.09298,0.5269 -0.247959,1.2088 -0.09298,0.403 -0.30995,0.9299 -0.185969,0.4959 -0.371939,1.1778 0.06199,0.4649 0.09298,0.9608 -0.12398,0.8679 -0.24796,1.7977 -0.185969,1.3328 -0.371939,2.6966 -0.185969,1.3638 -0.340944,2.6346 -0.18597,0.3719 -0.402934,0.8368 0,0.217 0.06199,0.6819 0.09298,0.4339 0.09298,0.7129 0,0.3409 -0.123979,1.0228 -0.12398,0.6509 -0.12398,0.9609 0,0.5889 -0.031,1.8287 -0.031,1.2398 -0.031,1.8597 0.154975,0.5269 0.278954,1.0228 -0.09298,0.4339 -0.216964,0.7129 -0.09298,0.2479 -0.278955,0.4029 -0.557908,0.341 -1.022833,0.5579 -0.309949,0.31 -0.526913,0.496 -0.18597,0.1859 -0.340945,0.1859 -0.681888,0 -0.960843,-0.1859 -0.278954,-0.186 -0.278954,-0.496 0.06199,-1.0228 0.216964,-1.9836 -0.06199,-0.124 -0.154974,-0.372 -0.06199,-0.2479 -0.216965,-0.6199 -0.154975,-2.4176 -0.402934,-4.9592 0.09298,-1.8287 0.09298,-3.6884 0,-0.8678 0.06199,-2.1696 0.09298,-1.3328 0.309949,-3.0685 0.216965,-1.7357 0.309949,-3.0375 0.09298,-1.3018 0.09298,-2.1387 0,-0.3719 0.06199,-0.9298 0.09298,-0.5889 0.18597,-1.4258 0.09298,-0.7129 0.185969,-1.2708 0.09298,-0.5889 0.09298,-1.0538 0,-0.248 -0.031,-0.5269 -0.03099,-0.279 -0.06199,-0.4959 0.30995,-0.7749 0.464924,-1.2398 0.154975,-0.496 0.154975,-0.6509 -0.12398,-0.403 -0.278954,-0.8059 0.185969,-0.4339 0.402934,-1.54972 0.216964,-1.14681 0.464924,-2.97552 0,-0.37194 0,-0.89885 0,-0.52691 0.03099,-1.27079 l -0.18597,-0.55791 q -0.12398,-0.062 -0.464924,-0.15498 -0.309949,-0.093 -0.805868,-0.15497 l -0.402934,0.27895 q -0.402935,0.093 -0.836864,0.18597 -0.402934,0.093 -0.867858,0.21697 -3.223473,0.89885 -6.384957,1.76671 -0.247959,0 -0.402934,-0.18597 -0.154975,-0.21696 -0.154975,-0.55791 0,-0.18597 0.154975,-0.65089 0.154975,-0.46493 0.495919,-1.2088 0.06199,-1.08483 0.154975,-1.79771 0.09298,-0.71288 0.216964,-1.08482 0.24796,-0.68189 0.774873,-1.14682 0.495919,-0.46492 1.208803,-0.71288 1.425767,-0.46492 2.665565,-0.6199 1.239797,-0.15497 2.293625,-0.031 z"
         style="font-style:normal;font-variant:normal;font-weight:normal;font-stretch:normal;font-family:Mistral;-inkscape-font-specification:Mistral"
         id="path8095"
         inkscape:connector-curvature="0" />
      <path
         d="m 103.5286,1019.0386 q -0.093,-0.341 -0.093,-0.5579 -0.031,-0.217 -0.031,-0.372 0,-1.0228 0.24796,-1.7357 0.24796,-0.7439 0.74388,-1.2398 0.12398,-0.124 0.6199,-0.3719 0.52691,-0.248 1.36377,-0.5889 0.58891,-0.279 0.92985,-0.6509 0.37194,-0.403 0.40294,-0.9609 0.093,-0.4339 0.37193,-0.9918 0.27896,-0.5579 0.6509,-1.2088 0.12398,-0.186 0.74388,-2.1387 0.6199,-1.9527 1.73571,-5.734 0.30995,-1.1468 0.6199,-1.9837 0.30995,-0.83687 0.52692,-1.42578 0.99183,-2.63457 1.61173,-3.44044 0.6509,-0.83686 0.96085,-1.36377 l 0,-0.15498 -0.96085,-1.51875 1.20881,-1.39477 1.54974,-0.30995 q 0.46493,-0.062 0.83687,-0.86786 0.40293,-0.80587 1.36377,-1.76671 0.21697,-0.062 0.68189,-0.37194 0.49592,-0.34094 1.2398,-0.92985 0.65089,-0.52691 1.11582,-0.77487 0.46492,-0.24796 0.71288,-0.24796 0.83686,0 1.2088,0.34094 0.37194,0.34095 0.37194,0.89886 0,0.68189 -0.71288,1.98367 -0.71289,1.30179 -0.71289,1.98368 0,0.30995 0.12398,0.52691 0.15498,0.18597 0.34095,0.24796 l 3.71939,2.01467 q 0.30995,0.12398 0.55791,0.99184 0.24796,0.83686 0.40293,2.32462 0.18597,1.2398 0.27896,2.07666 0.12398,0.80592 0.12398,1.30182 -0.21697,1.3328 -0.43393,2.6965 0.30995,1.7357 0.68189,3.6574 -0.18597,1.8287 -0.40294,3.7194 0,0.186 0.062,0.341 0.093,0.1239 0.24796,0.1549 0.52692,0.031 0.77488,0.279 0.27895,0.248 0.27895,0.6819 0,0.5579 -0.18597,0.8988 -0.15497,0.31 -0.46492,0.496 -0.40294,0.2479 -0.6509,0.4339 -0.21696,0.186 -0.30995,0.3099 l 0.40294,1.9217 -0.55791,4.4013 q 0,0.5579 -0.093,1.4258 -0.093,0.8678 -0.27895,2.0146 -0.30995,0.8369 -0.46492,1.3948 -0.15498,0.5579 -0.15498,0.7439 0.15498,0.5269 0.27896,1.1158 -0.18597,0.8369 -0.40294,1.6737 -0.18597,0.8369 -0.37194,1.6428 -0.34094,1.0848 -0.89885,1.5807 -0.55791,0.5269 -1.30179,0.5269 -0.40293,0 -0.6199,-0.3719 -0.18597,-0.341 -0.18597,-1.0538 0,-0.31 0.093,-0.8989 0.12398,-0.5889 0.12398,-0.8988 0,-0.217 -0.062,-0.589 -0.062,-0.3719 -0.062,-0.6508 0,-0.8679 0.15497,-2.7586 0.18597,-1.9217 0.18597,-2.8825 -0.15497,-0.5269 -0.30995,-1.0848 0.093,-0.589 0.12398,-1.1779 0.031,-0.6199 -0.031,-1.1468 l 0.46492,-0.8368 -0.40293,-2.8826 -0.21697,-0.093 q -0.18597,0 -0.55791,0.1549 -0.34094,0.124 -0.86785,0.434 -0.37194,0.1239 -1.17781,0.2789 -0.77487,0.124 -2.07666,0.155 -0.55791,0.2789 -1.05383,0.4959 -0.71288,0.155 -1.79771,0.5579 -1.08482,0.372 -2.51059,0.9299 -0.83686,0.4029 -1.54974,0.6509 -0.68189,0.2169 -1.14682,0.2169 -0.37193,0 -0.61989,0.279 -0.24796,0.2789 -0.40294,0.8058 -0.093,0.496 -0.46492,1.3638 -0.34095,0.8679 -0.92985,2.1697 -0.12398,0.3409 -0.34094,1.0538 -0.21697,0.7129 -0.49592,1.7667 -0.18597,0.4029 -0.43393,1.0228 -0.24796,0.5889 -0.55791,1.3948 0,0.372 -0.093,0.9299 -0.062,0.5269 -0.21696,1.2398 -0.15498,0.4339 -0.43393,1.0848 -0.24796,0.6819 -0.65089,1.4877 -0.24796,0.496 -0.71289,0.7129 -0.46492,0.248 -1.2088,0.248 -0.52691,0 -0.80587,-0.372 -0.30995,-0.3409 -0.30995,-1.0848 0,-0.8059 0.18597,-1.8597 0.18597,-1.0228 0.58891,-2.2626 0.43392,-1.6427 0.74387,-2.6656 0.30995,-1.0228 0.34095,-1.5187 0.093,-0.217 0.27895,-0.7749 0.18597,-0.5579 0.43393,-1.3638 0.27896,-0.7748 0.52692,-1.7667 l -0.15498,-0.2479 -0.99184,0.1549 q -0.34094,-0.031 -0.49592,-0.2789 -0.15497,-0.248 -0.15497,-0.6509 0,-0.217 0.062,-0.4649 0.062,-0.279 0.18597,-0.6509 z m 11.25116,-5.7031 q 0.71288,0 2.10766,-0.341 1.39477,-0.3409 2.10765,-0.3409 0.43393,0.093 0.86786,0.155 0.77487,-0.155 1.51875,-0.341 0.74388,-0.2169 1.51875,-0.3719 0.30995,-0.062 0.46493,-0.217 0.15497,-0.1859 0.15497,-0.4649 -0.062,-0.9298 -0.062,-1.2708 0,-0.5889 0.062,-1.3018 0.093,-0.7439 0.24796,-1.5187 l -0.37194,-1.3948 0.12398,-1.2708 q -0.12398,-0.6819 -0.21696,-1.2708 -0.062,-0.6199 0,-1.0228 -0.062,-0.124 -0.21697,-0.4029 -0.15497,-0.279 -0.34094,-0.589 -0.30995,-0.5269 -0.65089,-0.9918 -0.30995,-0.49591 -0.6199,-0.99183 -0.43393,-0.5889 -0.92985,-0.86786 -0.49592,-0.27895 -1.02283,-0.27895 -0.6199,0 -1.2708,0.99184 -0.65089,0.9918 -1.2088,3.0065 -0.093,0.248 -0.52691,1.0228 -0.40294,0.7749 -1.17781,2.0147 -0.12398,1.1778 -0.83686,2.9445 -0.71289,1.7357 -1.98368,4.0914 -0.15497,0.2169 -0.18597,0.3719 0,0.155 0,0.3409 0,0.217 0.093,0.341 0.12398,0.093 0.34094,0.093 0.30995,0 0.99184,-0.062 0.71288,-0.062 1.02283,-0.062 z"
         style="font-style:normal;font-variant:normal;font-weight:normal;font-stretch:normal;font-family:Mistral;-inkscape-font-specification:Mistral"
         id="path8097"
         inkscape:connector-curvature="0" />
    </g>
  </g>
  <g
     inkscape:groupmode="layer"
     id="layer2"
     inkscape:label="beschnittkante"
     style="display:inline"
     sodipodi:insensitive="true">
    <rect
       style="fill:none;fill-opacity:1;stroke:#ff00ff;stroke-width:0.04997356;stroke-miterlimit:4;stroke-dasharray:none;stroke-opacity:1"
       id="rect8072-5"
       width="141.68231"
       height="70.81617"
       x="7.1116014"
       y="7.1115999" />
  </g>
</svg>
