<?xml version="1.0" encoding="UTF-8" standalone="no"?>
<!-- Creator: CorelDRAW -->

<svg
   xmlns:dc="http://purl.org/dc/elements/1.1/"
   xmlns:cc="http://creativecommons.org/ns#"
   xmlns:rdf="http://www.w3.org/1999/02/22-rdf-syntax-ns#"
   xmlns:svg="http://www.w3.org/2000/svg"
   xmlns="http://www.w3.org/2000/svg"
   xmlns:sodipodi="http://sodipodi.sourceforge.net/DTD/sodipodi-0.dtd"
   xmlns:inkscape="http://www.inkscape.org/namespaces/inkscape"
   xml:space="preserve"
   width="3.7cm"
   height="3.7cm"
   style="clip-rule:evenodd;fill-rule:evenodd;image-rendering:optimizeQuality;shape-rendering:geometricPrecision;text-rendering:geometricPrecision"
   viewBox="0 0 36.999999 36.999999"
   version="1.1"
   id="svg32"
   sodipodi:docname="Microsoft_Nein_Danke print.svg"
   inkscape:version="0.92.4 (5da689c313, 2019-01-14)"
   inkscape:export-filename="/home/shiro/Desktop/Microsoft_Nein_Danke.png"
   inkscape:export-xdpi="96"
   inkscape:export-ydpi="96"><metadata
   id="metadata36"><rdf:RDF><cc:Work
       rdf:about=""><dc:format>image/svg+xml</dc:format><dc:type
         rdf:resource="http://purl.org/dc/dcmitype/StillImage" /><dc:title></dc:title></cc:Work></rdf:RDF></metadata><sodipodi:namedview
   pagecolor="#ffffff"
   bordercolor="#666666"
   borderopacity="1"
   objecttolerance="10"
   gridtolerance="10"
   guidetolerance="10"
   inkscape:pageopacity="0"
   inkscape:pageshadow="2"
   inkscape:window-width="3840"
   inkscape:window-height="2031"
   id="namedview34"
   showgrid="false"
   inkscape:zoom="10.410469"
   inkscape:cx="58.301509"
   inkscape:cy="61.219425"
   inkscape:window-x="0"
   inkscape:window-y="55"
   inkscape:window-maximized="1"
   inkscape:current-layer="g5843"
   showguides="true"
   inkscape:guide-bbox="true"
   inkscape:snap-global="false"
   units="cm" />
 <defs
   id="defs4">
  <style
   type="text/css"
   id="style2">
   <![CDATA[
    .fil1 {fill:#1F1A17}
    .fil2 {fill:#DE411A}
    .fil0 {fill:#FACF00}
    .fil3 {fill:#1F1A17;fill-rule:nonzero}
   ]]>
  </style>
 
    
    
    
    
    
    
    
    
    
    
   </defs>
 <g
   id="Ebene_x0020_1"
   transform="translate(0,-154.93502)">
  <metadata
   id="CorelCorpID_0Corel-Layer" />
  <g
   id="_81132720">
   
   
   
   
   
   
   
  <g
   id="g5843"
   transform="translate(0.10166049,-0.10166049)">

<rect
   style="fill:#ffcc00;fill-opacity:1;stroke:#ffffff;stroke-width:0;stroke-miterlimit:4;stroke-dasharray:none;stroke-opacity:1"
   id="rect952"
   width="36.999992"
   height="36.999996"
   x="-0.10165619"
   y="155.03668" /><g
   style="clip-rule:evenodd;fill-rule:evenodd;image-rendering:optimizeQuality;shape-rendering:geometricPrecision;text-rendering:geometricPrecision"
   id="g950"
   transform="matrix(0.14588265,0,0,0.14588265,4.3983395,159.53669)"><path
     inkscape:connector-curvature="0"
     id="_78721264"
     class="fil0"
     d="M 0,95.9772 C 0,42.9775 42.9612,0.0043 95.9618,0 h 0.0158 c 52.9925,0.0043 95.9575,42.9774 95.9575,95.9773 1e-4,52.4434 -42.0664,95.0614 -94.2879,95.9577 H 94.2919 C 42.0626,191.0387 0,148.4207 0,95.9772 Z"
     style="fill:#ffcc00;fill-opacity:1" /><path
     inkscape:connector-curvature="0"
     id="path4554"
     d="M 34.385683,72.973082 A 66.073952,66.073952 0 0 1 119.35273,34.086882 66.073952,66.073952 0 0 1 158.23892,119.05394 66.073952,66.073952 0 0 1 73.271867,157.94013 66.073952,66.073952 0 0 1 34.385683,72.973082 Z"
     style="fill:#aa0000;fill-opacity:0;stroke-width:0.28798187" /><path
     inkscape:connector-curvature="0"
     id="_83477624"
     class="fil3"
     d="m 28.9798,115.403 c 1.0217,-0.4763 1.8748,-0.5693 2.559,-0.2787 0.6844,0.2907 1.274,0.967 1.7691,2.0287 0.2428,0.5208 0.3622,1.0384 0.3582,1.5525 -0.0042,0.5141 -0.1713,1.0188 -0.5013,1.5142 l -9.89151,15.112 0.028,0.0602 12.8314,-5.9833 c 0.8013,-0.3738 1.4954,-0.4414 2.0821,-0.2029 0.5868,0.2386 1.053,0.7285 1.3987,1.4697 0.3457,0.7413 0.4213,1.4134 0.2269,2.0162 -0.1945,0.6028 -0.6925,1.0912 -1.4938,1.4648 l -16.9782,7.9171 c -0.981601,0.4577 -1.843,0.585 -2.584,0.3818 -0.7412,-0.2032 -1.3545,-0.8257 -1.8403,-1.8674 -0.1868,-0.4008 -0.3233,-0.7455 -0.4093,-1.0347 -0.0861,-0.2892 -0.1207,-0.5596 -0.1039,-0.8113 0.0167,-0.2517 0.0753,-0.4924 0.1754,-0.722 0.1002,-0.2297 0.2332,-0.4807 0.3989,-0.7531 l 9.5288,-14.8698 -0.028,-0.0601 -12.4707,5.8151 c -0.8013,0.3737 -1.4955,0.4413 -2.0822,0.2028 -0.5868,-0.2386 -1.053,-0.7285 -1.3986,-1.4696 -0.3457,-0.7414 -0.4213,-1.4134 -0.2268,-2.0162 0.1943,-0.6029 0.6924,-1.0912 1.4936,-1.4648 l 17.1585,-8.0012 z m 28.6983,38.4149 c 0.5118,-1.0044 1.1267,-1.6029 1.8449,-1.795 0.7182,-0.1924 1.5992,-0.0225 2.643,0.5093 0.5121,0.2609 0.9248,0.5952 1.2381,1.0029 0.3132,0.4078 0.4923,0.9084 0.5372,1.5018 l 1.5093,17.9983 0.0592,0.0301 6.4274,-12.6147 c 0.4015,-0.7877 0.9067,-1.2684 1.516,-1.4416 0.6093,-0.1734 1.2782,-0.0744 2.007,0.297 0.7287,0.3712 1.202,0.8543 1.42,1.449 0.2179,0.5948 0.1262,1.2861 -0.2752,2.074 l -8.5048,16.6915 c -0.4917,0.9651 -1.0921,1.5956 -1.8013,1.8917 -0.709,0.2963 -1.5756,0.1834 -2.5997,-0.3385 -0.394,-0.2007 -0.7138,-0.3885 -0.9596,-0.5633 -0.2459,-0.1749 -0.4396,-0.3667 -0.5813,-0.5754 -0.1418,-0.2086 -0.2439,-0.4344 -0.3064,-0.6769 -0.0624,-0.2427 -0.1121,-0.5224 -0.1493,-0.8389 l -1.6459,-17.5843 -0.0591,-0.03 -6.2469,12.2601 c -0.4013,0.7878 -0.9067,1.2684 -1.516,1.4417 -0.6092,0.1733 -1.2783,0.0742 -2.0069,-0.297 -0.7288,-0.3713 -1.2021,-0.8543 -1.42,-1.4491 -0.218,-0.5947 -0.1262,-1.2862 0.2752,-2.0739 z m -4.9303,-4.6374 c 0.4978,-0.6489 1.091,-1.0226 1.7795,-1.1211 0.6886,-0.0986 1.366,0.1079 2.0325,0.6192 0.6665,0.5114 1.0411,1.1122 1.1242,1.8029 0.083,0.6906 -0.1245,1.3603 -0.6223,2.0091 L 45.3144,167.8 c -0.4979,0.6489 -1.0911,1.0226 -1.7797,1.1211 -0.6886,0.0986 -1.366,-0.1078 -2.0323,-0.6192 -0.6665,-0.5113 -1.0411,-1.1123 -1.1242,-1.8029 -0.083,-0.6906 0.1244,-1.3603 0.6223,-2.0092 z M 38.408,135.5043 c 0.9134,-0.8023 1.73,-1.1371 2.4498,-1.0044 0.7196,0.1327 1.4004,0.5643 2.0423,1.2949 l 8.4252,9.5901 c 0.5251,0.5978 0.847,1.1903 0.965701,1.7775 0.1186,0.5872 -0.1458,1.1653 -0.7935,1.7343 -0.6477,0.569 -1.2549,0.7567 -1.822,0.5634 -0.567,-0.1933 -1.113,-0.5888 -1.6384,-1.1866 l -6.9368,-7.8962 -3.8859,3.4138 6.0835,6.9247 c 0.4669,0.5314 0.7606,1.0751 0.8813,1.6312 0.1207,0.556 -0.1345,1.1111 -0.7656,1.6656 -0.631,0.5543 -1.2145,0.7358 -1.7502,0.5446 -0.5359,-0.1913 -1.0372,-0.5527 -1.504,-1.0841 l -6.0836,-6.9248 -4.3343,3.8079 7.1121,8.0954 c 0.5252,0.5977 0.8472,1.1903 0.965801,1.7775 0.1187,0.5871 -0.1458,1.1652 -0.7934,1.7343 -0.6477,0.5689 -1.2551,0.7566 -1.822,0.5634 -0.5671,-0.1934 -1.1132,-0.5888 -1.6383,-1.1867 l -8.6002,-9.78931 c -0.6419,-0.7306 -0.982301,-1.4613 -1.0211,-2.1921 -0.0389,-0.7309 0.3983,-1.4976 1.3116,-2.3 l 13.152,-11.5544 z"
     style="fill:#000000;fill-opacity:1;fill-rule:nonzero" /><path
     inkscape:connector-curvature="0"
     id="_82549976"
     class="fil3"
     d="m 92.9802,181.566 h 4.5756 c 1.0831,0 1.9894,-0.2212 2.7188,-0.6632 0.7295,-0.4421 1.3209,-1.0223 1.774,-1.7407 0.4531,-0.7184 0.7736,-1.5252 0.9614,-2.4204 0.1879,-0.8952 0.2819,-1.807 0.2819,-2.7354 0,-2.3431 -0.4642,-4.1888 -1.3926,-5.5372 -0.9283,-1.3484 -2.387299,-2.0226 -4.376599,-2.0225 h -4.5424 z m -5.4376,-16.3131 c 0,-1.2156 0.2873,-2.0501 0.8622,-2.5032 0.5746,-0.4531 1.3483,-0.6798 2.3209,-0.6797 h 6.6312 c 1.481,0 2.9067,0.1823 4.2772,0.547 1.3705,0.3647 2.5807,1.0003 3.6306,1.9066 1.0499,0.9062 1.8899,2.1274 2.5199,3.6637 0.6299,1.5362 0.9449,3.4759 0.9449,5.819 0,1.901 -0.2597,3.5864 -0.7791,5.0563 -0.5194,1.4699 -1.2655,2.7188 -2.2381,3.7467 -0.9725,1.0279 -2.1718,1.807 -3.5974,2.3375 -1.4258,0.5305 -3.0449,0.7957 -4.8575,0.7958 h -6.5318 c -0.972601,0 -1.7462,-0.2266 -2.3208,-0.6798 -0.5749,-0.453 -0.8622,-1.2876 -0.8621,-2.5032 z m 28.1331,-0.6118 -0.0638,0.0183 -0.4504,10.0974 6.1194,-1.7546 z m -4.3252,-3.1749 c 0.0631,-0.6619 0.2683,-1.1691 0.6156,-1.5217 0.3474,-0.3526 0.8398,-0.6202 1.4772,-0.8029 l 1.243,-0.3565 c 0.5949,-0.1706 1.1703,-0.2092 1.726,-0.1155 0.5557,0.0935 1.0981,0.5015 1.627,1.2235 l 11.3464,15.752 c 0.1793,0.2245 0.3838,0.5166 0.6134,0.8761 0.2295,0.3596 0.387,0.6881 0.4723,0.9856 0.1828,0.6374 0.0991,1.2478 -0.251,1.8311 -0.3502,0.5833 -0.8652,0.9724 -1.5451,1.1673 -0.5737,0.1645 -1.0944,0.1932 -1.5621,0.0859 -0.4676,-0.1074 -0.8703,-0.3886 -1.2077,-0.8438 l -2.4354,-3.4408 -8.4142,2.4127 -0.2737,4.2178 c -0.0238,0.5586 -0.1949,1.0044 -0.5134,1.3371 -0.3185,0.3328 -0.7859,0.5875 -1.402,0.7642 -0.7225,0.2071 -1.3662,0.1676 -1.9312,-0.1188 -0.565,-0.2863 -0.9481,-0.7802 -1.1491,-1.4814 -0.0853,-0.2975 -0.1259,-0.6595 -0.1217,-1.0861 0.004,-0.4265 0.0227,-0.7826 0.0559,-1.0681 z m 11.4969,-1.0023 c -0.5974,-0.9559 -0.7935,-1.7914 -0.5884,-2.5059 0.2049,-0.7147 0.8043,-1.3823 1.7978,-2.0032 0.4874,-0.3045 0.9865,-0.4861 1.4973,-0.5446 0.5108,-0.0585 1.0321,0.0458 1.564,0.313 l 16.2049,7.9761 0.0563,-0.0352 -7.5025,-12.0066 c -0.4686,-0.7498 -0.6203,-1.4304 -0.4551,-2.0419 0.1653,-0.6115 0.5947,-1.1339 1.2883,-1.5674 0.6937,-0.4333 1.3514,-0.5903 1.9735,-0.4707 0.622,0.1194 1.1674,0.5542 1.636,1.304 l 9.92721,15.8868 c 0.5739,0.9185 0.8051,1.7579 0.6938,2.5183 -0.1113,0.7603 -0.6545,1.4449 -1.6292,2.054 -0.375,0.2344 -0.7006,0.4117 -0.9771,0.5324 -0.2766,0.1207 -0.5407,0.188 -0.7926,0.202 -0.2518,0.0141 -0.4979,-0.0147 -0.738,-0.0861 -0.2402,-0.0715 -0.5056,-0.1728 -0.796,-0.3041 l -15.9203,-7.6456 -0.0563,0.0351 7.2916,11.669 c 0.4686,0.7498 0.6202,1.4305 0.455,2.0421 -0.1652,0.6114 -0.5947,1.1339 -1.2882,1.5673 -0.6936,0.4334 -1.3514,0.5903 -1.9735,0.4707 -0.622,-0.1194 -1.1674,-0.5542 -1.6359,-1.304 l -10.0326,-16.0555 z m 19.1074,-12.9893 c -0.6172,-0.5365 -0.9541,-1.1515 -1.0103,-1.8447 -0.0563,-0.6934 0.1911,-1.3569 0.7422,-1.9909 0.551,-0.634 1.1737,-0.9713 1.8681,-1.0119 0.6944,-0.0408 1.3501,0.2071 1.9674,0.7437 l 5.9555,5.1771 -1.4944,-12.6338 c -0.0472,-0.4511 -0.0533,-0.8737 -0.0181,-1.2678 0.0351,-0.3943 0.2122,-0.7748 0.5312,-1.1419 0.4206,-0.4837 0.9545,-0.8031 1.6017,-0.9579 0.6472,-0.1551 1.2294,-0.008 1.7466,0.4418 0.317,0.2756 0.5257,0.5743 0.6266,0.8963 0.1009,0.3219 0.1634,0.6544 0.1873,0.9975 l 0.7747,8.0541 11.9109,1.6114 c 0.4432,0.0631 0.8707,0.1272 1.2826,0.1923 0.4119,0.0652 0.7513,0.2138 1.0183,0.4459 0.3837,0.3336 0.6462,0.6716 0.7878,1.0142 0.1414,0.3427 0.2002,0.6793 0.1763,1.0101 -0.0239,0.3306 -0.1113,0.6501 -0.262,0.9584 -0.1508,0.3082 -0.335,0.5874 -0.5525,0.8377 -0.3626,0.417 -0.727,0.6933 -1.0936,0.8286 -0.3666,0.1353 -0.8901,0.1562 -1.5703,0.0627 l -11.4182,-1.6223 0.2944,4.2099 4.0788,3.5457 c 0.6173,0.5366 0.9541,1.1515 1.0104,1.8448 0.0564,0.6933 -0.191,1.3568 -0.7421,1.9908 -0.5511,0.6339 -1.1738,0.9713 -1.8683,1.012 -0.6943,0.0407 -1.35,-0.2072 -1.9673,-0.7438 z m 13.4092,-15.232 c -1.1018,-0.5138 -1.7366,-1.1269 -1.9044,-1.8393 -0.1677,-0.7123 -0.0462,-1.5092 0.3648,-2.3907 l 5.3948,-11.5692 c 0.3364,-0.7212 0.7495,-1.2541 1.2394,-1.5988 0.4901,-0.3447 1.1256,-0.3348 1.907,0.0295 0.7813,0.3643 1.1974,0.8449 1.2483,1.4419 0.0509,0.5968 -0.0918,1.2558 -0.4281,1.9771 l -4.442,9.5257 4.6879,2.186 3.8954,-8.3539 c 0.2989,-0.6411 0.6787,-1.1285 1.1394,-1.4625 0.4605,-0.334 1.0714,-0.3235 1.8328,0.0314 0.7612,0.3551 1.162,0.8164 1.2022,1.3838 0.0402,0.5676 -0.0892,1.1718 -0.3882,1.813 l -3.8954,8.3537 5.2288,2.4382 4.554,-9.76621 c 0.3363,-0.721 0.7494,-1.254 1.2395,-1.5987 0.4899,-0.3447 1.1255,-0.3349 1.9069,0.0295 0.7812,0.3642 1.1973,0.8449 1.2483,1.4418 0.0508,0.5969 -0.0919,1.2559 -0.4281,1.9771 l -5.5069,11.8096 c -0.4111,0.8815 -0.9434,1.4868 -1.5969,1.8162 -0.6535,0.3293 -1.5314,0.2372 -2.6332,-0.2765 l -15.8663,-7.3987 z"
     style="fill:#1a1a1a;fill-opacity:1;fill-rule:nonzero" /><path
     inkscape:connector-curvature="0"
     id="path833"
     d="M 30.988129,83.96744 A 65.908504,65.908504 0 0 1 107.83337,31.216396 65.908504,65.908504 0 0 1 160.5844,108.06164 65.908504,65.908504 0 0 1 83.739168,160.81267 65.908504,65.908504 0 0 1 30.988129,83.96744 Z"
     style="fill:#0ca900;fill-opacity:0;stroke:#ffffff;stroke-width:0;stroke-miterlimit:4;stroke-dasharray:none;stroke-opacity:1" /><g
     id="text837"
     style="font-style:normal;font-variant:normal;font-weight:500;font-stretch:normal;font-size:33.48542023px;line-height:1.25;font-family:'AG Book Rounded';-inkscape-font-specification:'AG Book Rounded, Medium';font-variant-ligatures:normal;font-variant-caps:normal;font-variant-numeric:normal;font-feature-settings:normal;text-align:start;letter-spacing:-1.56368756px;word-spacing:0px;writing-mode:lr-tb;text-anchor:start;fill:#000000;fill-opacity:1;stroke:none;stroke-width:0.83713549"
     aria-label="MICROSOFT?"><path
       id="path1263"
       style="letter-spacing:-2.66170835px;fill:#000000;fill-opacity:1"
       d="m 27.554154,80.616844 c 0.988993,0.412402 2.948963,1.193412 3.863979,-1.000919 0.927903,-2.225236 -1.050084,-3.050039 -1.977266,-3.436666 l -6.088493,-2.538847 c -3.919939,-1.562019 -4.798196,-1.891965 -8.293206,-3.167953 5.272409,0.928746 5.712851,1.003566 10.758656,1.6927 l 5.73612,0.686749 c 1.452705,0.170404 2.609237,0.181027 3.550028,-2.075115 0.992342,-2.379766 0.13998,-3.206834 -0.941612,-4.093209 l -4.900694,-3.821269 c -3.314344,-2.579293 -4.470635,-3.460537 -8.428875,-6.235769 4.97838,2.3299 5.521802,2.592782 7.672338,3.525817 l 6.490272,2.706386 c 0.927182,0.386626 2.918057,1.180523 3.871736,-1.106525 0.889241,-2.132518 -1.075859,-2.988227 -1.972135,-3.361966 L 21.040195,51.778944 c -2.534297,-1.056779 -3.868629,-0.815022 -5.28626,2.584644 -1.082554,2.596109 -0.145231,3.567445 1.423101,4.765626 l 5.578002,4.2851 c 3.716123,2.746832 4.189976,3.089545 7.293228,5.218015 -6.163554,-1.227786 -6.7843,-1.305231 -9.2544,-1.64592 l -7.00852,-0.854527 c -1.787541,-0.237468 -2.864242,-0.178523 -4.0112342,2.572117 -0.2835262,0.679933 -0.7552346,1.898157 -0.631851,2.820328 0.2520184,1.483731 1.6299032,2.094577 2.4952732,2.455428 z"
       inkscape:connector-curvature="0" /><path
       id="path1265"
       style="letter-spacing:-2.66700006px;fill:#000000;fill-opacity:1"
       d="m 38.406944,57.045155 c 0.700016,0.517648 1.561573,1.154752 2.605932,1.094108 1.091192,-0.06766 1.708387,-0.902293 1.887573,-1.144606 1.572852,-2.12697 -0.311805,-3.520637 -1.334904,-4.277199 L 27.861395,42.583509 c -0.619244,-0.457919 -1.400031,-1.035295 -2.42448,-1.001574 -1.145039,0.02784 -1.749339,0.788717 -1.968344,1.084877 -0.238914,0.323084 -0.662895,1.009072 -0.529627,1.898902 0.141416,1.104088 0.929217,1.728297 1.656156,2.265854 z"
       inkscape:connector-curvature="0" /><path
       id="path1267"
       style="letter-spacing:-2.66170835px;fill:#000000;fill-opacity:1"
       d="m 39.436566,31.522356 c 1.919501,-1.721495 3.452428,-1.566992 4.134213,-1.458777 0.378285,0.02057 0.706714,0.08586 1.084999,0.10643 0.353357,0.04293 1.27157,0.164002 2.019427,-0.50671 0.822644,-0.737784 1.193789,-2.330067 0.165363,-3.476782 -1.274353,-1.42093 -4.321208,-1.207221 -6.281279,-0.483868 -1.282642,0.475641 -2.777571,1.366566 -4.148643,2.596205 -5.534146,4.963272 -5.008587,11.868552 -0.514814,16.879198 3.711276,4.138145 8.122699,4.99458 11.406768,4.343229 1.150285,-0.221998 3.025284,-0.689137 5.617857,-3.014273 1.645286,-1.475568 3.515717,-3.602848 3.907222,-6.87763 0.123644,-0.965499 0.06843,-2.130427 -0.260995,-3.049426 -0.230499,-0.557929 -0.496212,-0.904357 -0.652712,-1.078857 -1.095496,-1.221501 -2.753853,-0.813719 -3.626353,-0.03122 -0.722929,0.648355 -0.739145,1.382569 -0.670288,1.860569 0.04907,0.405785 0.170355,0.791785 0.244355,1.175213 0.251283,1.483856 -0.22472,3.26014 -1.845078,4.71335 -2.517787,2.258065 -6.196569,2.318844 -9.773702,-1.669729 -1.833281,-2.044144 -4.769985,-6.472145 -0.80634,-10.026922 z"
       inkscape:connector-curvature="0" /><path
       id="path1269"
       style="letter-spacing:-2.66700006px;fill:#000000;fill-opacity:1"
       d="m 53.342546,16.909463 c -0.731025,0.33385 -1.766644,0.806804 -2.13336,1.857768 -0.364078,0.976135 0.06451,1.995205 0.426176,2.787149 l 7.122126,15.595205 c 0.389491,0.852863 1.073739,2.270544 2.755718,2.165024 0.346325,-0.04773 0.678739,-0.125911 1.044252,-0.292836 0.365513,-0.166925 1.265384,-0.614697 1.48508,-1.745767 0.164773,-0.848303 -0.166439,-1.654158 -0.472467,-2.324264 l -2.378679,-5.208555 3.320073,-1.516234 c 2.146067,-0.943269 3.171132,-1.116906 4.693846,1.169469 0.327855,0.476079 0.625251,0.966067 0.908736,1.425597 0.994837,1.533523 2.40363,3.651052 4.901299,2.510399 1.462051,-0.667699 1.764492,-2.020619 1.319359,-2.995319 -0.04173,-0.09138 -0.139104,-0.304594 -0.427866,-0.614465 -0.172202,-0.215854 -0.405323,-0.403887 -0.607984,-0.605831 -0.288763,-0.309871 -0.530517,-0.678023 -0.75836,-1.015714 -0.355676,-0.536997 -0.666982,-1.057446 -1.008747,-1.563983 -1.18095,-1.779837 -2.155881,-3.027955 -3.816033,-3.116463 -0.448975,-0.01583 -0.931048,0.05708 -1.368752,0.146534 0.384701,-0.286124 0.725031,-0.588797 1.020992,-0.908019 1.665197,-1.7544 1.583425,-4.109841 0.567965,-6.333376 -0.306028,-0.670106 -1.296306,-2.757893 -3.880307,-3.418418 -2.345604,-0.622149 -4.536042,0.304571 -6.651649,1.233929 z m 6.95335,1.683692 c 1.583888,-0.723341 2.799624,-1.204928 3.9506,-0.699826 0.840388,0.38926 1.232517,1.167294 1.399442,1.532806 0.542506,1.187916 0.400277,2.246797 -0.136002,3.007078 -0.632935,0.95167 -1.699014,1.438534 -2.673714,1.883667 l -3.411451,1.557965 -2.601245,-5.695905 z"
       inkscape:connector-curvature="0" /><path
       id="path1271"
       style="letter-spacing:-2.66700006px;fill:#000000;fill-opacity:1"
       d="M 75.822239,19.973615 C 76.45209,25.799616 80.642327,31.846951 88.499105,30.997552 96.022969,30.184143 99.764193,24.28975 99.026367,17.465006 98.274144,10.507097 93.444175,5.7077421 86.12006,6.4995555 78.329864,7.3417571 75.120404,13.481786 75.822239,19.973615 Z m 10.780107,-9.013008 c 1.364949,-0.147565 2.780286,0.17095 3.876206,0.961844 2.557147,1.84542 2.913463,5.141272 3.025036,6.173306 0.478688,4.42776 -1.262357,7.950359 -5.257329,8.382257 -5.093589,0.55067 -6.594415,-4.6086 -6.878748,-7.238623 -0.435497,-4.028263 1.206572,-7.843286 5.234835,-8.278784 z"
       inkscape:connector-curvature="0" /><path
       id="path1273"
       style="letter-spacing:-2.66170835px;fill:#000000;fill-opacity:1"
       d="m 113.93491,7.7420222 c -5.9721,-1.2145198 -9.82737,0.9401438 -10.68154,5.1403038 -0.96761,4.757993 3.06461,6.773988 6.66414,8.565304 2.92433,1.414809 3.38985,1.646162 3.9527,2.239018 0.47775,0.507209 0.76475,1.112307 0.5779,2.031092 -0.34701,1.706315 -1.94374,1.996669 -2.22627,2.041725 -0.78196,0.148514 -1.61565,0.04731 -2.37037,-0.106172 -3.31419,-0.673992 -3.92044,-2.061603 -4.42213,-3.291267 -0.52782,-1.26915 -1.07678,-2.098376 -2.15963,-2.318591 -1.24692,-0.253581 -2.75967,0.463904 -3.08665,2.071777 -0.12012,0.590648 -0.3442,2.868695 2.78038,5.315181 1.56562,1.206836 3.58563,2.027685 5.98103,2.514828 2.42822,0.493815 4.98934,0.502098 7.19284,-0.587476 1.78915,-0.900469 3.32468,-2.570104 3.81182,-4.965508 0.5472,-2.690727 -0.60855,-4.736822 -1.8327,-5.942554 -1.02781,-0.994951 -1.52614,-1.232977 -6.33199,-3.645498 -1.52112,-0.753565 -2.29476,-1.150091 -2.70688,-1.643953 -0.41213,-0.493863 -0.4761,-1.019435 -0.36933,-1.544455 0.30697,-1.509433 2.08834,-2.035604 4.41812,-1.561808 1.87038,0.380372 2.99051,1.257414 3.51889,2.355823 0.15017,0.269735 0.23472,0.526124 0.35207,0.789186 0.50224,1.058922 1.0395,1.441549 1.72859,1.581686 1.21411,0.246908 2.80528,-0.352116 3.12559,-1.927176 0.4738,-2.329776 -2.17418,-5.9436583 -7.91658,-7.1114658 z"
       inkscape:connector-curvature="0" /><path
       id="path1275"
       style="letter-spacing:-2.67493773px;fill:#000000;fill-opacity:1"
       d="m 123.54037,22.462909 c -2.85803,5.115728 -2.94059,12.472462 3.95833,16.326717 6.6066,3.690939 13.0689,1.04911 16.41688,-4.9436 3.4133,-6.109641 2.2519,-12.818856 -4.1793,-16.411805 -6.84046,-3.821592 -13.01126,-0.671695 -16.19591,5.028688 z m 14.00748,-1.111502 c 1.19854,0.669595 2.16844,1.748448 2.60447,3.02768 1.0174,2.984873 -0.59943,5.878913 -1.10571,6.785128 -2.1721,3.887953 -5.63059,5.753104 -9.13851,3.793313 -4.47261,-2.498733 -2.71074,-7.574789 -1.42054,-9.884175 1.97612,-3.53716 5.52313,-5.698068 9.06029,-3.721946 z"
       inkscape:connector-curvature="0" /><path
       id="path1277"
       style="letter-spacing:-2.66170835px;fill:#000000;fill-opacity:1"
       d="m 161.5399,41.454854 c 0.5581,0.578249 1.3255,1.373341 2.46605,1.156744 0.52251,-0.08546 0.93126,-0.433441 1.12401,-0.619476 0.60234,-0.58136 0.82926,-1.358827 0.53618,-2.192874 -0.20425,-0.500932 -0.57548,-0.933779 -0.94755,-1.319278 l -7.27863,-7.541327 c -0.55811,-0.578249 -1.25574,-1.30106 -2.20018,-1.45989 -1.2277,-0.211214 -2.07014,0.555342 -2.72067,1.183211 l -12.45644,12.022525 c -0.69871,0.674378 -1.54283,1.53563 -1.2349,2.867252 0.1104,0.451905 0.38694,0.883074 0.73575,1.244479 0.34882,0.361406 1.28067,1.230457 2.68793,0.663365 0.59647,-0.249923 1.07751,-0.667663 1.53529,-1.109497 l 4.9633,-4.790406 5.39502,5.589737 c 0.5581,0.578249 1.97662,2.047964 3.49453,0.582937 0.24093,-0.232544 0.45945,-0.53653 0.56003,-0.866288 0.37567,-1.153734 -0.43824,-1.997013 -0.97309,-2.551168 l -5.46478,-5.662019 3.66224,-3.534669 z"
       inkscape:connector-curvature="0" /><path
       id="path1279"
       style="letter-spacing:-2.66964602px;fill:#000000;fill-opacity:1"
       d="m 170.10564,45.561938 c -0.427,-0.68165 -0.90781,-1.525343 -2.04993,-1.568212 -0.4195,0.0078 -0.81835,0.119491 -1.19656,0.335024 -1.86194,1.061084 -0.90033,2.748471 -0.48585,3.475793 l 2.08901,3.665703 -14.11005,8.041026 c -0.72732,0.414486 -1.58759,0.866197 -1.8754,1.91666 -0.13765,0.502395 -0.14266,1.237534 0.33814,2.081227 0.74608,1.30918 1.942,1.514092 3.00155,1.141528 0.38227,-0.140767 0.73138,-0.339721 1.10959,-0.555253 l 14.13914,-8.057606 2.10559,3.694796 c 0.29843,0.523672 0.54712,0.960065 0.95379,1.267889 0.51459,0.361943 1.39895,0.628792 2.35901,0.08167 0.29093,-0.165794 0.57779,-0.406354 0.76925,-0.746705 0.63254,-1.054214 0.14767,-1.972673 -0.25024,-2.670902 z"
       inkscape:connector-curvature="0" /><path
       id="path1281"
       style="letter-spacing:-2.38389611px;fill:#000000;fill-opacity:1"
       d="m 177.944,81.744829 c 3.64431,-1.018106 6.06606,-4.545609 4.60647,-9.770196 -1.72988,-6.192103 -6.00252,-7.049749 -7.74405,-6.563221 -1.61252,0.45049 -2.00813,2.021247 -1.71981,3.053264 0.22524,0.806264 0.76019,1.352167 1.58683,1.573208 0.48233,0.108627 1.03438,0.09347 1.52571,0.234349 1.31798,0.361919 2.02268,1.764356 2.28397,2.699621 0.62167,2.225287 -0.44454,3.635716 -2.05707,4.086205 -1.64477,0.459499 -2.86313,-0.416996 -3.30276,-0.746155 -0.30685,-0.227186 -0.6227,-0.486623 -0.9708,-0.73705 -0.74647,-0.556346 -1.63096,-1.108902 -2.60462,-1.358406 -0.56485,-0.155108 -1.28194,-0.232916 -1.92695,-0.05272 -1.45127,0.405441 -1.96543,1.800714 -1.6591,2.897233 0.0901,0.322505 0.53823,1.553247 2.21618,1.710296 1.00213,0.102482 1.10789,0.107703 2.3585,0.975188 2.23563,1.531025 4.18244,2.899364 7.4075,1.998384 z m -18.85011,-3.008558 c 0.3694,1.322272 1.77225,2.112457 3.09452,1.743056 1.35453,-0.378411 2.14471,-1.781262 1.77531,-3.103534 -0.37841,-1.354522 -1.78126,-2.144708 -3.13578,-1.766297 -1.32228,0.369401 -2.11246,1.772252 -1.73405,3.126775 z"
       inkscape:connector-curvature="0" /></g><g
     inkscape:label="Layer 1"
     id="layer1"
     transform="matrix(0.10006611,0,0,0.10006611,19.281477,80.867018)"><g
       id="g1324"
       transform="matrix(9.1470732,0,0,9.1470732,1731.4787,46.199847)"><g
         id="g1272"><path
           style="stroke-width:4.69284821"
           d="m -75.884393,58.951009 24.92372,-60.0074595 c -10.93434,-12.1122405 -24.53421,-18.0486905 -40.86532,-17.7389605 l -25.083277,60.56121 c 15.31277,-2.03201 28.903257,3.7402 41.024877,17.18521 z"
           id="path4518-2"
           inkscape:connector-curvature="0" /><path
           style="stroke-width:4.69284821"
           d="m -93.238543,-18.795411 -9.221447,0.54437 -3.12543,7.65873 9.221437,-0.86349 z"
           id="path4520-4"
           inkscape:connector-curvature="0" /><path
           style="stroke-width:4.69284821"
           d="m -96.908353,-10.118341 -9.146357,0.6241505 -3.19583,7.65873 9.291837,-0.85879 z"
           id="path4522-2"
           inkscape:connector-curvature="0" /><path
           style="stroke-width:4.69284821"
           d="m -100.50307,-1.3661705 -9.13697,0.53967 -3.20991,7.58834 9.29653,-0.70862 z"
           id="path4524-0"
           inkscape:connector-curvature="0" /><path
           style="stroke-width:4.69284821"
           d="m -104.0931,7.3812995 -9.22614,0.54906 -3.12074,7.5789495 9.22145,-0.78371 z"
           id="path4526-9"
           inkscape:connector-curvature="0" /><path
           style="stroke-width:4.69284821"
           d="m -107.68782,15.973899 -9.22145,0.54907 -3.13013,7.58364 9.29654,-0.78371 z"
           id="path4528-6"
           inkscape:connector-curvature="0" /><path
           style="stroke-width:4.69284821"
           d="m -111.36232,24.880929 -9.22614,0.55375 -3.12074,7.65873 9.22144,-0.7837 z"
           id="path4530-0"
           inkscape:connector-curvature="0" /><path
           style="stroke-width:4.69284821"
           d="m -115.04151,33.637779 -9.14167,0.55376 -3.20052,7.64934 9.29183,-0.86348 z"
           id="path4532-1"
           inkscape:connector-curvature="0" /><path
           style="stroke-width:4.69284821"
           d="m -112.14602,-19.189611 -2.89549,6.95949 8.51752,-0.70392 2.89549,-6.87033 z"
           id="path4534-2"
           inkscape:connector-curvature="0" /><path
           d="m -110.11402,-4.1068005 2.81571,-6.8750205 -8.51752,0.61946 -2.89549,6.9548005 z"
           id="path4536-6"
           inkscape:connector-curvature="0"
           style="fill:#ff3300;stroke-width:4.69284821" /><path
           d="m -113.63835,4.3309495 2.89549,-6.95481 -8.59261,0.69924 -2.81571,6.87502 z"
           id="path4538-8"
           inkscape:connector-curvature="0"
           style="fill:#ff3300;stroke-width:4.69284821" /><path
           style="stroke-width:4.69284821"
           d="m -122.93488,6.8369295 -2.97058,6.9547995 8.67708,-0.70393 2.81101,-6.9547995 z"
           id="path4540-2"
           inkscape:connector-curvature="0" /><path
           d="m -126.68447,15.659479 -2.81102,6.95011 8.59261,-0.68516 2.8204,-6.96418 z"
           id="path4542-0"
           inkscape:connector-curvature="0"
           style="fill:#02a5ff;stroke-width:4.69284821" /><path
           d="m -130.19941,24.106609 -2.81102,6.95011 8.60199,-0.70393 2.8861,-6.9548 z"
           id="path4544-0"
           inkscape:connector-curvature="0"
           style="fill:#02a5ff;stroke-width:4.69284821" /><path
           style="stroke-width:4.69284821"
           d="m -128.08763,39.100259 2.8861,-6.87502 -8.50813,0.61945 -2.89549,6.87972 z"
           id="path4546-0"
           inkscape:connector-curvature="0" /><path
           style="stroke-width:4.69284821"
           d="m -112.53553,-23.014281 -7.18945,0.31442 -2.57637,6.17579 7.26453,-0.3989 z"
           id="path4548-1"
           inkscape:connector-curvature="0" /><path
           d="m -123.39948,-13.797531 -2.57637,6.0960105 7.26453,-0.38951 2.51067,-6.0209205 z"
           id="path4550-3"
           inkscape:connector-curvature="0"
           style="fill:#ff3300;stroke-width:4.69284821" /><path
           d="m -126.91442,-5.4301805 -2.50129,6.17109 7.26453,-0.3895 2.50129,-6.02093 z"
           id="path4552-5"
           inkscape:connector-curvature="0"
           style="fill:#ff3300;stroke-width:4.69284821" /><path
           style="stroke-width:4.69284821"
           d="m -123.3197,3.0826495 -7.26453,0.22995 -2.50128,6.17579 7.27391,-0.38482 z"
           id="path4554-3"
           inkscape:connector-curvature="0" /><path
           d="m -134.25873,12.229009 -2.57637,6.17109 7.34431,-0.38481 2.49659,-6.09132 z"
           id="path4556-1"
           inkscape:connector-curvature="0"
           style="fill:#02a5ff;stroke-width:4.69284821" /><path
           d="m -137.70328,20.666749 -2.50129,6.01623 7.18945,-0.30503 2.57637,-6.09601 z"
           id="path4558-2"
           inkscape:connector-curvature="0"
           style="fill:#02a5ff;stroke-width:4.69284821" /><path
           style="stroke-width:4.69284821"
           d="m -136.60515,35.125419 2.50129,-6.09601 -7.18945,0.30972 -2.57637,6.08194 z"
           id="path4560-8"
           inkscape:connector-curvature="0" /><path
           style="stroke-width:4.69284821"
           d="m -126.91442,-25.285621 -1.79267,4.37843 5.7769,-0.23934 1.87714,-4.44882 z"
           id="path4562-4"
           inkscape:connector-curvature="0" /><path
           d="m -130.58423,-16.453681 -1.79736,4.37373 5.78159,-0.22525 1.87714,-4.45821 z"
           id="path4564-1"
           inkscape:connector-curvature="0"
           style="fill:#ff3300;stroke-width:4.69284821" /><path
           d="m -134.10386,-8.0863305 -1.79736,4.37842 5.86606,-0.15955 1.86775,-4.60838 z"
           id="path4566-4"
           inkscape:connector-curvature="0"
           style="fill:#ff3300;stroke-width:4.69284821" /><path
           style="stroke-width:4.69284821"
           d="m -131.83722,0.3514095 -5.86606,0.31442 -1.87244,4.37843 5.86606,-0.14548 z"
           id="path4568-2"
           inkscape:connector-curvature="0" /><path
           d="m -141.36839,9.4883895 -1.87245,4.4581995 5.94115,-0.23464 1.79736,-4.5379795 z"
           id="path4570-3"
           inkscape:connector-curvature="0"
           style="fill:#02a5ff;stroke-width:4.69284821" /><path
           d="m -144.88334,17.935509 -1.80205,4.45352 5.86606,-0.23465 1.79267,-4.53329 z"
           id="path4572-3"
           inkscape:connector-curvature="0"
           style="fill:#02a5ff;stroke-width:4.69284821" /><path
           style="stroke-width:4.69284821"
           d="m -148.55314,26.678289 -1.80675,4.45821 5.86137,-0.23465 1.87714,-4.5286 z"
           id="path4574-8"
           inkscape:connector-curvature="0" /><path
           style="stroke-width:4.69284821"
           d="m -129.49079,-27.857301 1.56272,-3.75428 -4.45352,0.62884 -1.48763,3.66981 z"
           id="path4576-1"
           inkscape:connector-curvature="0" /><path
           d="m -136.06078,-22.155491 -1.56272,3.67919 4.44882,-0.54906 1.56272,-3.82467 z"
           id="path4578-4"
           inkscape:connector-curvature="0"
           style="fill:#ff3300;stroke-width:4.69284821" /><path
           d="m -139.57572,-13.708361 -1.56272,3.6698 4.45351,-0.54437 1.6425,-3.82467 z"
           id="path4580-1"
           inkscape:connector-curvature="0"
           style="fill:#ff3300;stroke-width:4.69284821" /><path
           style="stroke-width:4.69284821"
           d="m -143.17045,-4.9655905 -1.56271,3.67919 4.37373,-0.54906 1.6425,-3.83406 z"
           id="path4582-2"
           inkscape:connector-curvature="0" /><path
           d="m -146.84025,3.8710395 -1.47825,3.66512 4.36904,-0.53967 1.56741,-3.74959 z"
           id="path4584-2"
           inkscape:connector-curvature="0"
           style="fill:#02a5ff;stroke-width:4.69284821" /><path
           d="m -150.35989,12.304099 -1.47825,3.6698 4.36905,-0.54437 1.56271,-3.82936 z"
           id="path4586-9"
           inkscape:connector-curvature="0"
           style="fill:#02a5ff;stroke-width:4.69284821" /><path
           style="stroke-width:4.69284821"
           d="m -154.0297,21.056259 -1.40785,3.59941 4.37843,-0.47867 1.56272,-3.82467 z"
           id="path4588-2"
           inkscape:connector-curvature="0" /><path
           style="stroke-width:4.69284821"
           d="m -137.70328,-35.520721 -1.08874,2.50129 3.3507,-0.0798 1.1779,-2.73593 z"
           id="path4590-5"
           inkscape:connector-curvature="0" /><path
           d="m -141.29331,-26.768561 -1.09343,2.58107 3.28499,-0.0798 1.08874,-2.73124 z"
           id="path4592-2"
           inkscape:connector-curvature="0"
           style="fill:#ff3300;stroke-width:4.69284821" /><path
           d="m -144.80825,-18.410601 -1.01835,2.58107 h 3.20052 l 1.09344,-2.73593 z"
           id="path4594-9"
           inkscape:connector-curvature="0"
           style="fill:#ff3300;stroke-width:4.69284821" /><path
           style="stroke-width:4.69284821"
           d="m -148.40766,-9.6490505 -1.08874,2.57168 h 3.2803 l 1.16852,-2.73593 z"
           id="path4596-1"
           inkscape:connector-curvature="0" /><path
           d="m -152.07747,-0.7467205 -1.09344,2.50129 3.28031,-0.0751 1.08874,-2.57637 z"
           id="path4598-2"
           inkscape:connector-curvature="0"
           style="fill:#02a5ff;stroke-width:4.69284821" /><path
           d="m -155.59241,7.6957195 -1.09344,2.5763695 3.285,-0.0751 1.16382,-2.6655395 z"
           id="path4600-1"
           inkscape:connector-curvature="0"
           style="fill:#02a5ff;stroke-width:4.69284821" /><path
           style="stroke-width:4.69284821"
           d="m -159.26691,16.447879 -1.01835,2.58576 3.28499,-0.0892 1.09343,-2.73593 z"
           id="path4602-1"
           inkscape:connector-curvature="0" /><path
           d="m -87.921543,10.502039 7.96845,-19.1421295 c -3.90445,-1.33277 -9.06658,-1.8724505 -15.46762,-1.7222705 l -7.898067,19.0717305 c 5.861367,-0.23933 11.023497,0.3989 15.397237,1.7926695 z"
           id="path4604-0"
           inkscape:connector-curvature="0"
           style="fill:#ff3300;stroke-width:4.69284821" /><path
           d="m -61.589973,0.5062695 c -3.59472,-3.6745 -7.81829,-6.25087 -12.65661,-7.81828 l -8.12802,19.6161095 5.46717,2.26664 c 2.1024,0.8541 4.5286,2.58107 7.33962,5.23722 z"
           id="path4606-4"
           inkscape:connector-curvature="0"
           style="fill:#66cc33;stroke-width:4.69284821" /><path
           d="m -71.904853,25.284509 c -3.59942,-3.6041 -7.89337,-6.02561 -12.81617,-7.349 l -7.81359,18.82771 c 4.5286,1.56741 8.75685,4.14378 12.82086,7.57895 z"
           id="path4608-8"
           inkscape:connector-curvature="0"
           style="fill:#ffcc00;stroke-width:4.69284821" /><path
           d="m -97.926693,34.731219 7.57425,-18.28334 c -4.76793,-1.56272 -9.915987,-2.18687 -15.387847,-1.79736 l -7.73381,18.52736 c 4.60838,-0.24872 9.76582,0.30973 15.547407,1.55334 z"
           id="path4610-7"
           inkscape:connector-curvature="0"
           style="fill:#02a5ff;stroke-width:4.69284821" /></g></g></g></g></g></g>
 </g>
<style
   id="style1793"
   type="text/css">
	.st0{fill:#4285F4;}
	.st1{fill:#34A853;}
	.st2{fill:#FBBC04;}
	.st3{fill:#EA4335;}
</style><style
   id="style867"
   type="text/css">
	.st0{fill:#F3F3F3;}
	.st1{fill:#F35325;}
	.st2{fill:#81BC06;}
	.st3{fill:#05A6F0;}
	.st4{fill:#FFBA08;}
</style></svg>