<?xml version="1.0" encoding="utf-8"?>
<!-- Generator: Adobe Illustrator 23.0.6, SVG Export Plug-In . SVG Version: 6.00 Build 0)  -->
<svg version="1.1" id="Mullvad_VPN_Logo_Positive" xmlns="http://www.w3.org/2000/svg" xmlns:xlink="http://www.w3.org/1999/xlink"
	 x="0px" y="0px" viewBox="0 0 400 400" style="enable-background:new 0 0 400 400;" xml:space="preserve">
<style type="text/css">
	.st0{clip-path:url(#SVGID_1_);}
	.st1{clip-path:url(#SVGID_2_);}
	.st2{clip-path:url(#SVGID_3_);}
	.st3{clip-path:url(#SVGID_4_);fill:none;stroke:#002C5B;stroke-width:6;stroke-miterlimit:10;}
	.st4{fill-rule:evenodd;clip-rule:evenodd;fill:#192E45;}
	.st5{fill-rule:evenodd;clip-rule:evenodd;fill:#D0933A;}
	.st6{fill-rule:evenodd;clip-rule:evenodd;fill:#FFCC86;}
	.st7{fill-rule:evenodd;clip-rule:evenodd;fill:#FDD321;}
	.st8{fill:#FFFFFF;}
	.st9{fill:#1D2A3A;}
	.st10{fill:#192E45;}
</style>
<g id="Logo">
	<g id="strokes">
		<defs>
			<path id="SVGID_61_" d="M309.4,297.7c5.7-6.4,11.2-13.6,16.3-22.1"/>
		</defs>
		<defs>
			<path id="SVGID_60_" d="M74.3,275.6c5.1,8.5,10.6,15.7,16.2,22"/>
		</defs>
		<defs>
			<path id="SVGID_59_" d="M53.5,203.2c0.1,6.7,0.7,13.4,1.8,20l0,0l0,0l0,0c3.1,19.1,9.7,36.8,19.1,52.4"/>
		</defs>
		<defs>
			<path id="SVGID_58_" d="M325.7,275.6c12.8-21.3,20.6-45.6,21-72.3"/>
		</defs>
		<clipPath id="SVGID_1_">
			<use xlink:href="#SVGID_61_"  style="overflow:visible;"/>
		</clipPath>
		<clipPath id="SVGID_2_" class="st0">
			<use xlink:href="#SVGID_60_"  style="overflow:visible;"/>
		</clipPath>
		<clipPath id="SVGID_3_" class="st1">
			<use xlink:href="#SVGID_59_"  style="overflow:visible;"/>
		</clipPath>
		<clipPath id="SVGID_4_" class="st2">
			<use xlink:href="#SVGID_58_"  style="overflow:visible;"/>
		</clipPath>
		<path class="st3" d="M166.2,52l19.7-3.2C263,36.5,335.6,89,348,166.2l3.2,19.7C363.5,263,311,335.6,233.8,348l-19.7,3.2
			C137,363.5,64.4,311,52,233.8l-3.2-19.7C36.5,137,89,64.4,166.2,52z"/>
		
			<use xlink:href="#SVGID_61_"  style="overflow:visible;fill-rule:evenodd;clip-rule:evenodd;fill:none;stroke:#002C5B;stroke-width:6;stroke-miterlimit:10;"/>
		
			<use xlink:href="#SVGID_60_"  style="overflow:visible;fill-rule:evenodd;clip-rule:evenodd;fill:none;stroke:#002C5B;stroke-width:6;stroke-miterlimit:10;"/>
		
			<use xlink:href="#SVGID_59_"  style="overflow:visible;fill-rule:evenodd;clip-rule:evenodd;fill:none;stroke:#002C5B;stroke-width:6;stroke-miterlimit:10;"/>
		
			<use xlink:href="#SVGID_58_"  style="overflow:visible;fill-rule:evenodd;clip-rule:evenodd;fill:none;stroke:#002C5B;stroke-width:6;stroke-miterlimit:10;"/>
	</g>
	<path id="bg" class="st4" d="M73.7,200c0,69.8,56.6,126.3,126.3,126.3S326.3,269.8,326.3,200S269.8,73.7,200,73.7
		S73.7,130.2,73.7,200L73.7,200L73.7,200L73.7,200z"/>
	<path id="Mullvad_Fur" class="st5" d="M90.6,184.9l9.6-13.4c0,0.1-0.6,19.3-0.6,19.3l2.7-14.5c8,16.2,27.6,38.6,45.5,50.6
		c1.9,1.3,3.5,2.7,4.6,4.1c2.3,0.9,4.6,1.4,6.9,1.8c1.2,0.2,2.5,0.3,3.7,0.4c1.2,0.1,2.5,0.1,3.7,0.1c1.2,0,2.4-0.1,3.6-0.2
		c1.2-0.1,2.4-0.3,3.6-0.5c1.2-0.2,2.4-0.4,3.5-0.8c1.2-0.3,2.3-0.6,3.5-1c1.1-0.3,2.3-0.8,3.4-1.2c1.1-0.5,2.2-0.9,3.3-1.5
		c1.1-0.6,2.2-1.1,3.2-1.7c1.1-0.5,2.1-1.2,3.2-1.8c1.1-0.6,2.1-1.3,3.2-1.9c1.1-0.6,2.1-1.3,3.1-1.9c1-0.7,2.1-1.3,3.1-2
		c1-0.7,2.1-1.3,3.2-2l1-0.6l0.5,0.3l7.2,4.8l-7.3-1.9c-0.7,0.8-1.4,1.6-2.2,2.4c-0.9,0.9-1.9,1.8-2.8,2.7c-1,0.8-2,1.7-3.1,2.4
		c-1.1,0.8-2.1,1.5-3.3,2.2c-2.2,1.4-4.6,2.6-7.1,3.6c-1.2,0.5-2.5,1-3.7,1.4c-1.3,0.4-2.5,0.8-3.8,1.1c-1.3,0.3-2.6,0.6-3.9,0.8
		c-1.3,0.2-2.6,0.3-3.9,0.5c-2.6,0.1-5.3,0.1-7.9-0.3c-1.3-0.2-2.6-0.4-3.9-0.7c-1.3-0.3-2.5-0.7-3.7-1.1c-2.1-0.8-4.2-1.8-6.1-3
		c0,0-6.9,1-4.1,6.2c2.8,5.2,7,4.7,5,10.8c-1.4,3.3-3.4,6.5-5.6,9.5c-4.6,6.2-11.8,11.7-11.1,15c32.7,40.3,106.4,34.7,134.4-1.3
		c-0.4-5.2-8.6-7.7-14.3-20.4c1.6,0.5,4,1.2,4,1.1c0-0.1-6.8-11.1-7.1-12.2l4.4,0.3c0,0-5.8-7.2-6-7.9l5.9-0.8c0,0-7.4-8.5-7.5-9.2
		l7.5,1.2l-8.2-9.9h3.9l-4.6-6.7c-0.8-0.3-1.6-0.5-2.4-0.7c-1-0.3-2-0.6-3-0.9c-11.2-3.5-21.8-6.7-32-13.1
		c-14.3-8.9-27.1-19.8-36.7-28.3l-19.3-9.4c-18.5-1.4-35.9-0.9-46.5,1.2l6.8-11.6l-10.4,12.5c-0.7-0.2-0.9-0.6-0.9-0.6l0.7-15.4
		l-3.3,13.9c-1-0.5-2.2-0.7-3.4-0.7c-4.6,0-8.3,3.7-8.3,8.3c0,4.2,3.1,7.7,7.2,8.2L90.6,184.9L90.6,184.9L90.6,184.9L90.6,184.9z"/>
	<path id="Mullvad_Nose" class="st6" d="M102.2,154.5c-1-0.4-2.2-0.7-3.3-0.7c-4.6,0-8.3,3.7-8.3,8.3c0,4,2.9,7.4,6.7,8.2
		c0.1,0,0.1,0,0.2,0c2.5-0.8,7.5-7.5,6.7-11.7C103.9,157.1,103.2,155.7,102.2,154.5L102.2,154.5L102.2,154.5L102.2,154.5z"/>
	<path id="Mullvad_Helmet" class="st7" d="M175.1,143.8c-1.5-4.1-1.1-9.4,1-14.4c3-6.9,8.7-11.5,14.1-11.5c1.1,0,2.1,0.2,3.1,0.6
		c3.1-2.8,6.7-5.1,10.7-6.7c22.1-8.8,54.4,6.9,62.7,28.6c4,10.5,2.8,22-0.6,32.5c-2.8,8.6-13,21-9.2,30.4
		c-1.5-0.4-33.1-10.2-41.9-15.8c-14.1-8.8-26.8-19.6-36.3-28l-0.3-0.3L146.3,144c-0.4-0.2-0.8-0.4-1.1-0.6
		C149.8,143.4,167.3,145.5,175.1,143.8"/>
	<g id="Helmet_Lamp">
		<path class="st8" d="M184.6,147.4c-0.9,0-1.7-0.2-2.3-0.5c-1.6-0.7-2.8-2-3.6-4c-1.4-3.4-1-8.1,0.9-12.5c2.5-5.7,7.2-9.7,11.5-9.7
			c0.8,0,1.6,0.2,2.4,0.5c2.1,0.9,3.6,3,4.1,6c0.6,3.2,0.1,6.9-1.5,10.4C193.6,143.3,188.8,147.4,184.6,147.4z"/>
		<g>
			<path class="st9" d="M191,122.3c0.6,0,1.2,0.1,1.8,0.4c1.6,0.7,2.8,2.5,3.2,4.9c0.5,2.9,0.1,6.3-1.4,9.5
				c-2.2,5.1-6.5,8.8-10.1,8.8c-0.6,0-1.2-0.1-1.7-0.3l0,0l0,0c-1.5-0.6-2.3-2-2.7-3.1c-1.2-3-0.9-7.4,0.8-11.4
				C183.2,126,187.4,122.3,191,122.3 M191,119.3c-4.8,0-10.1,4.4-12.9,10.7c-2.1,4.7-2.4,9.8-0.9,13.7c0.9,2.3,2.4,3.9,4.3,4.8
				c0.9,0.4,1.9,0.6,3,0.6c4.8,0,10.1-4.4,12.8-10.7c1.7-3.8,2.2-7.8,1.6-11.3c-0.6-3.5-2.4-6-5-7.1
				C193.1,119.5,192.1,119.3,191,119.3L191,119.3z"/>
		</g>
	</g>
	<g id="Privacy_is_a_universal_right">
		<path class="st10" d="M62.6,195.3c0,0.2-0.2,0.3-0.4,0.3l-20.2-3.6c-0.2,0-0.3-0.2-0.3-0.4l1.5-8.1c0.8-4.5,4-6.8,8-6
			c3.9,0.7,6.2,4,5.4,8.5l-0.7,3.7c0,0.1,0,0.2,0.2,0.2l6.9,1.3c0.2,0,0.3,0.2,0.3,0.4L62.6,195.3z M50.5,181.9
			c-1.7-0.3-3,0.6-3.4,2.5l-0.6,3.4c0,0.1,0,0.2,0.2,0.2l5.2,0.9c0.1,0,0.2,0,0.2-0.2l0.6-3.4C53.1,183.6,52.2,182.2,50.5,181.9z"/>
		<path class="st10" d="M67.5,165.5c-0.1,0.3-0.2,0.3-0.4,0.4l-8.4,1.8l-0.6,2.8c0,0.1,0,0.2,0.1,0.2l7.4,1.7c0.2,0,0.3,0.2,0.2,0.4
			l-0.9,3.9c0,0.2-0.2,0.3-0.4,0.2l-20-4.6c-0.2,0-0.3-0.2-0.2-0.4l1.9-8.2c1-4.2,4.2-6.4,8-5.5c2.6,0.6,4.4,2.5,4.9,5l9.1-2.2
			c0.2,0,0.4,0.1,0.3,0.3L67.5,165.5z M53.2,162.6c-1.5-0.4-2.8,0.5-3.2,2.2l-0.8,3.6c0,0.1,0,0.2,0.1,0.2l4.8,1.1
			c0.1,0,0.2,0,0.2-0.1l0.8-3.6C55.5,164.2,54.8,162.9,53.2,162.6z"/>
		<path class="st10" d="M49.8,151.9c-0.2-0.1-0.3-0.2-0.2-0.4l1.3-3.7c0.1-0.2,0.2-0.3,0.4-0.2l19.5,6.5c0.2,0.1,0.3,0.2,0.2,0.4
			l-1.3,3.7c-0.1,0.2-0.2,0.3-0.4,0.2L49.8,151.9z"/>
		<path class="st10" d="M74.3,145.9c-0.1,0.2-0.3,0.3-0.4,0.2l-21.5-2.2c-0.2,0-0.3-0.2-0.2-0.4l1.6-3.7c0.1-0.2,0.2-0.3,0.4-0.2
			l14.4,1.8l0-0.1l-11-9.4c-0.2-0.1-0.2-0.3-0.1-0.5l1.6-3.7c0.1-0.2,0.2-0.2,0.4-0.1l16,14.5c0.1,0.1,0.2,0.3,0.1,0.5L74.3,145.9z"
			/>
		<path class="st10" d="M64.1,120c-0.1-0.2-0.2-0.3-0.1-0.5l2-3.3c0.1-0.2,0.3-0.2,0.5-0.2l21.3,4.6c0.2,0,0.3,0.2,0.2,0.3l-2.1,3.5
			c-0.1,0.2-0.3,0.2-0.5,0.2l-3.8-0.9l-3.9,6.3l2.5,2.9c0.2,0.2,0.2,0.3,0.1,0.5l-2.1,3.5c-0.1,0.2-0.3,0.2-0.4,0L64.1,120z
			 M77.6,122.7l-7.6-1.8l0,0.1l5.1,5.9L77.6,122.7z"/>
		<path class="st10" d="M80.1,113.9c-2.6-2-3.3-2.8-4.1-4c-2-3-1.7-6.2,0.6-9.1c2.2-2.8,5.2-3.7,8.3-2.8c0.2,0,0.3,0.2,0.2,0.4
			l-0.9,3.6c0,0.2-0.2,0.3-0.4,0.2c-1.4-0.4-2.9-0.3-4,1.1c-1,1.3-1,2.7-0.2,3.9c0.5,0.7,1,1.2,3.3,3.1c2.4,1.9,3,2.3,3.8,2.6
			c1.4,0.5,2.8,0.3,3.8-1c1.1-1.4,0.9-2.8,0.2-4.1c-0.1-0.2,0-0.3,0.2-0.4l3.3-1.7c0.2-0.1,0.3-0.1,0.4,0.1c1.6,2.8,1.3,5.9-0.9,8.7
			c-2.3,2.9-5.4,3.9-8.8,2.6C83.6,116.5,82.7,115.9,80.1,113.9z"/>
		<path class="st10" d="M103.1,103.4c-0.1,0.1-0.3,0.1-0.4,0L97,97.5L83.9,93c-0.2-0.1-0.2-0.2-0.1-0.4l2.9-2.8
			c0.2-0.2,0.3-0.2,0.6-0.1l8.1,2.9l0.1-0.1l-2.6-8.2c-0.1-0.2,0-0.4,0.1-0.5l2.8-2.7c0.2-0.2,0.3-0.1,0.4,0.1l4.2,13.2l5.7,5.8
			c0.1,0.1,0.1,0.3,0,0.4L103.1,103.4z"/>
		<path class="st10" d="M104.8,74.3c-0.1-0.2-0.1-0.3,0.1-0.4l3.2-2.3c0.2-0.1,0.3-0.1,0.4,0.1l12.2,16.5c0.1,0.2,0.1,0.3-0.1,0.4
			l-3.2,2.3c-0.2,0.1-0.3,0.1-0.4-0.1L104.8,74.3z"/>
		<path class="st10" d="M121.5,84.5c-0.2,0-0.3-0.2-0.3-0.4l0.6-3.5c0-0.2,0.2-0.3,0.4-0.3c1.8,0.2,3.9,0.2,5.9-1
			c1.9-1.1,2.4-2.7,1.7-3.9c-0.6-1.1-1.7-1.4-4-0.4l-1,0.4c-4,1.7-7.1,1.2-9-2c-2-3.3-0.8-7.1,3.1-9.4c2.4-1.4,5.1-2.1,7.3-1.8
			c0.2,0,0.3,0.1,0.3,0.4l-0.2,3.4c0,0.2-0.1,0.3-0.3,0.3c-1.9-0.1-3.6,0.2-5,1.1c-1.6,1-1.9,2.3-1.2,3.4c0.6,1,1.8,1.3,4,0.3l1-0.4
			c4-1.7,7-1.2,9,2.1c2,3.3,1,7.2-3.7,10C127.1,84.5,123.7,85,121.5,84.5z"/>
		<path class="st10" d="M143.6,52.7c0-0.2,0.1-0.4,0.3-0.4l3.7-1.3c0.2-0.1,0.4,0,0.5,0.2l13.8,16.8c0.1,0.2,0.1,0.3-0.1,0.4
			l-3.8,1.4c-0.2,0.1-0.4,0-0.5-0.2l-2.4-3.1l-7,2.5l0.2,3.9c0,0.2-0.1,0.4-0.3,0.4l-3.8,1.4c-0.2,0.1-0.3,0-0.3-0.2L143.6,52.7z
			 M152.6,63.2l-4.8-6.1l-0.1,0l0.3,7.8L152.6,63.2z"/>
		<path class="st10" d="M169.2,58.4l-2-12.9c0-0.2,0.1-0.3,0.3-0.4l3.9-0.6c0.2,0,0.3,0.1,0.4,0.3l2.1,13c0.4,2.5,2,3.7,4.1,3.4
			c2.1-0.3,3.2-2,2.9-4.5l-2.1-13c0-0.2,0.1-0.3,0.3-0.4l3.9-0.6c0.2,0,0.3,0.1,0.4,0.3l2,12.9c0.8,5.2-2.1,8.5-6.7,9.3
			C173.8,65.9,170.1,63.6,169.2,58.4z"/>
		<path class="st10" d="M189.4,42.5c0-0.2,0.1-0.3,0.3-0.3l3.7-0.1c0.2,0,0.4,0.1,0.5,0.3l7.7,13.2l0.2,0l-0.2-13.3
			c0-0.2,0.1-0.3,0.3-0.3l3.5-0.1c0.2,0,0.3,0.1,0.3,0.3l0.3,20.5c0,0.2-0.1,0.3-0.3,0.3l-3.7,0.1c-0.2,0-0.4-0.1-0.5-0.3l-7.7-13.2
			l-0.2,0l0.2,13.3c0,0.2-0.1,0.3-0.3,0.3l-3.5,0.1c-0.2,0-0.3-0.1-0.3-0.3L189.4,42.5z"/>
		<path class="st10" d="M211.3,42.7c0-0.2,0.2-0.3,0.3-0.3l3.9,0.3c0.2,0,0.3,0.2,0.3,0.3l-1.8,20.5c0,0.2-0.2,0.3-0.3,0.3l-3.9-0.3
			c-0.2,0-0.3-0.2-0.3-0.3L211.3,42.7z"/>
		<path class="st10" d="M223,65.1c-0.2,0-0.3-0.2-0.3-0.4l-2.9-21.4c0-0.2,0.1-0.3,0.3-0.3l4,0.7c0.2,0,0.3,0.2,0.3,0.4l1.7,14.4
			l0.1,0l6.5-12.9c0.1-0.2,0.2-0.3,0.5-0.2l3.9,0.7c0.2,0,0.3,0.2,0.2,0.4l-10.3,19c-0.1,0.2-0.2,0.3-0.4,0.2L223,65.1z"/>
		<path class="st10" d="M241.5,47.7c0.1-0.2,0.2-0.3,0.4-0.2l12.9,4.1c0.2,0.1,0.3,0.2,0.2,0.4l-1,3.2c-0.1,0.2-0.2,0.3-0.4,0.2
			l-8.7-2.8c-0.1,0-0.2,0-0.2,0.1l-1.3,4c0,0.1,0,0.2,0.1,0.2l7.2,2.3c0.2,0.1,0.3,0.2,0.2,0.4l-1,3.1c-0.1,0.2-0.2,0.3-0.4,0.2
			l-7.2-2.3c-0.1,0-0.2,0-0.2,0.1l-1.3,4.2c0,0.1,0,0.2,0.1,0.2l8.7,2.8c0.2,0.1,0.3,0.2,0.2,0.4l-1,3.2c-0.1,0.2-0.2,0.3-0.4,0.2
			l-12.9-4.1c-0.2-0.1-0.3-0.2-0.2-0.4L241.5,47.7z"/>
		<path class="st10" d="M261.8,77.8c-0.3-0.1-0.3-0.2-0.3-0.5l0-8.6l-2.6-1.2c-0.1-0.1-0.2,0-0.2,0.1l-3.2,6.8
			c-0.1,0.2-0.2,0.2-0.4,0.1l-3.6-1.7c-0.2-0.1-0.2-0.2-0.1-0.4l8.7-18.6c0.1-0.2,0.2-0.2,0.4-0.1l7.6,3.6c3.9,1.8,5.3,5.5,3.7,9
			c-1.2,2.4-3.4,3.8-5.9,3.7l0.2,9.3c0,0.2-0.2,0.3-0.4,0.2L261.8,77.8z M267.7,64.5c0.7-1.4,0.1-2.8-1.5-3.6l-3.4-1.6
			c-0.1-0.1-0.2,0-0.2,0.1l-2.1,4.4c-0.1,0.1,0,0.2,0.1,0.2l3.4,1.6C265.6,66.4,267,66,267.7,64.5z"/>
		<path class="st10" d="M268.6,78.4c0-0.2,0-0.4,0.3-0.5l3.5-1c0.2-0.1,0.3,0,0.4,0.2c0.6,1.7,1.6,3.6,3.5,4.8
			c1.9,1.2,3.5,1,4.3-0.2c0.7-1,0.5-2.1-1.5-3.8l-0.9-0.7c-3.3-2.8-4.2-5.8-2.2-9c2.1-3.3,6-3.8,9.8-1.4c2.4,1.5,4.1,3.6,4.8,5.8
			c0.1,0.2,0,0.3-0.2,0.4l-3.1,1.3c-0.2,0.1-0.3,0-0.4-0.2c-0.8-1.8-1.8-3.1-3.2-4c-1.6-1-2.9-0.7-3.6,0.4c-0.7,1-0.3,2.1,1.5,3.7
			l0.9,0.7c3.3,2.9,4.2,5.8,2.1,9c-2.1,3.2-6,4.1-10.6,1.1C271.1,83.4,269.1,80.6,268.6,78.4z"/>
		<path class="st10" d="M300.6,78.6c0.2-0.1,0.3-0.1,0.5,0l3,2.5c0.2,0.1,0.2,0.3,0.1,0.5l-7.9,20.2c-0.1,0.2-0.2,0.2-0.4,0.1
			l-3.1-2.6c-0.2-0.1-0.2-0.3-0.1-0.5l1.5-3.6l-5.6-4.8l-3.3,2c-0.2,0.1-0.3,0.1-0.5,0l-3.1-2.6c-0.2-0.1-0.1-0.3,0-0.4L300.6,78.6z
			 M295.8,91.5l3-7.2l-0.1-0.1l-6.6,4.1L295.8,91.5z"/>
		<path class="st10" d="M312.7,89.6c0.1-0.1,0.3-0.1,0.4,0l2.6,2.9c0.1,0.1,0.1,0.3,0,0.4l-12.3,11.1c-0.1,0.1-0.1,0.2,0,0.3
			l6.2,6.9c0.1,0.1,0.1,0.3,0,0.4l-2.6,2.3c-0.1,0.1-0.3,0.1-0.4,0l-9.2-10.2c-0.1-0.1-0.1-0.3,0-0.4L312.7,89.6z"/>
		<path class="st10" d="M318.5,131.5c-0.1-0.2-0.1-0.4,0-0.6l4.7-7.2l-1.5-2.4c-0.1-0.1-0.2-0.1-0.3-0.1l-6.4,4
			c-0.2,0.1-0.3,0.1-0.4-0.1l-2.1-3.4c-0.1-0.2-0.1-0.3,0.1-0.4l17.5-10.8c0.2-0.1,0.3-0.1,0.4,0.1l4.4,7.2c2.3,3.7,1.5,7.5-1.8,9.6
			c-2.3,1.4-4.9,1.3-7-0.1l-4.9,7.9c-0.1,0.2-0.3,0.2-0.4,0L318.5,131.5z M330.8,123.6c1.3-0.8,1.6-2.3,0.7-3.8l-2-3.2
			c-0.1-0.1-0.2-0.1-0.3-0.1l-4.2,2.6c-0.1,0.1-0.1,0.2-0.1,0.3l2,3.2C327.9,124,329.4,124.4,330.8,123.6z"/>
		<path class="st10" d="M340.7,128.7c0.2-0.1,0.3,0,0.4,0.1l1.7,3.5c0.1,0.2,0,0.3-0.1,0.4l-18.4,9c-0.2,0.1-0.3,0-0.4-0.1l-1.7-3.5
			c-0.1-0.2,0-0.3,0.1-0.4L340.7,128.7z"/>
		<path class="st10" d="M335.3,140.9c2.9-1.1,4.1-1.4,5.6-1.5c3.6-0.2,6.2,2,7.5,5.5c1.4,3.7,0.4,6.8-1.6,8.6
			c-0.1,0.2-0.3,0.2-0.5,0l-2.5-2.6c-0.1-0.2-0.1-0.3,0-0.5c1-1.3,1.4-2.5,0.8-4.2c-0.6-1.7-1.9-2.4-3.4-2.4c-0.8,0-1.8,0.3-4.3,1.2
			c-2.6,1-3.5,1.4-4.1,1.9c-1.2,0.9-1.6,2.3-1,4c0.6,1.5,1.8,2.5,3.2,2.4c0.5,0,1.2-0.2,2-0.5c0.1,0,0.2-0.1,0.1-0.2l-1-2.7
			c-0.1-0.2,0-0.3,0.2-0.4l2.8-1c0.2-0.1,0.3,0,0.4,0.2l2.5,6.8c0.1,0.2,0,0.3-0.2,0.4l-1.6,0.6c-1.8,0.6-3.4,1.1-4.6,1.2
			c-3.5,0.2-6.3-1.9-7.6-5.4c-1.3-3.5-0.7-6.9,2.1-9.1C331.3,142.6,332.4,142,335.3,140.9z"/>
		<path class="st10" d="M352.3,158.4c0.2,0,0.3,0.1,0.4,0.2l0.8,3.9c0,0.2-0.1,0.3-0.2,0.4l-7.8,1.7c-0.1,0-0.2,0.1-0.1,0.2l1.5,6.7
			c0,0.1,0.1,0.2,0.2,0.1l7.8-1.7c0.2,0,0.3,0.1,0.4,0.2l0.8,3.9c0,0.2-0.1,0.3-0.2,0.4l-20.1,4.4c-0.2,0-0.3-0.1-0.4-0.2l-0.8-3.9
			c0-0.2,0.1-0.3,0.2-0.4l8-1.7c0.1,0,0.2-0.1,0.1-0.2l-1.5-6.7c0-0.1-0.1-0.2-0.2-0.1l-8,1.7c-0.2,0-0.3-0.1-0.4-0.2l-0.8-3.9
			c0-0.2,0.1-0.3,0.2-0.4L352.3,158.4z"/>
		<path class="st10" d="M336.2,186.9c0-0.2,0.1-0.3,0.3-0.3l16.5-1.3c0.1,0,0.2-0.1,0.2-0.2l-0.4-5.3c0-0.2,0.1-0.3,0.3-0.3l3.4-0.3
			c0.2,0,0.3,0.1,0.3,0.3l1.3,15.6c0,0.2-0.1,0.3-0.3,0.3l-3.4,0.3c-0.2,0-0.3-0.1-0.3-0.3l-0.4-5.3c0-0.1-0.1-0.2-0.2-0.2
			l-16.5,1.3c-0.2,0-0.3-0.1-0.3-0.3L336.2,186.9z"/>
	</g>
	<g id="Mullvad_VPN">
		<path class="st10" d="M103.7,296.2c0.1-0.2,0.3-0.2,0.5,0l3.3,2.8c0.2,0.2,0.3,0.4,0.2,0.7l-4.3,14.8l0.1,0.1l13.8-6.8
			c0.2-0.1,0.5-0.1,0.7,0.1l3.2,2.7c0.2,0.1,0.2,0.3,0,0.5l-15.5,18.3c-0.1,0.2-0.3,0.2-0.5,0l-3.1-2.7c-0.2-0.1-0.2-0.3,0-0.5
			l9-10.6l-0.1-0.1l-10.2,5c-0.3,0.2-0.6,0.1-0.8-0.1l-1.9-1.6c-0.2-0.2-0.3-0.5-0.2-0.8l3.2-10.9l-0.1-0.1l-9,10.6
			c-0.1,0.2-0.3,0.2-0.5,0l-3.1-2.7c-0.2-0.1-0.2-0.3,0-0.5L103.7,296.2z"/>
		<path class="st10" d="M116.3,326l7.7-13.2c0.1-0.2,0.3-0.2,0.5-0.1l4,2.3c0.2,0.1,0.2,0.3,0.1,0.5l-7.7,13.3
			c-1.5,2.5-0.9,4.8,1.3,6.1c2.1,1.2,4.4,0.6,5.9-1.9l7.7-13.3c0.1-0.2,0.3-0.2,0.5-0.1l4,2.3c0.2,0.1,0.2,0.3,0.1,0.5l-7.7,13.2
			c-3.1,5.3-8.2,6.2-12.9,3.5C115,336.2,113.2,331.3,116.3,326z"/>
		<path class="st10" d="M143.5,323.6c0.1-0.2,0.3-0.3,0.5-0.2l4.3,1.7c0.2,0.1,0.3,0.3,0.2,0.5l-7.1,18.1c-0.1,0.1,0,0.2,0.1,0.3
			l10.2,4c0.2,0.1,0.3,0.3,0.2,0.5l-1.5,3.8c-0.1,0.2-0.3,0.3-0.5,0.2l-15-5.9c-0.2-0.1-0.3-0.3-0.2-0.5L143.5,323.6z"/>
		<path class="st10" d="M161.1,330.2c0.1-0.2,0.2-0.3,0.4-0.3l4.5,1.1c0.2,0.1,0.3,0.2,0.3,0.4l-4.5,18.9c0,0.1,0,0.2,0.2,0.3
			l10.6,2.5c0.2,0.1,0.3,0.2,0.3,0.4l-0.9,3.9c-0.1,0.2-0.2,0.3-0.4,0.3l-15.7-3.7c-0.2-0.1-0.3-0.2-0.3-0.4L161.1,330.2z"/>
		<path class="st10" d="M180.7,358.9c-0.3,0-0.4-0.2-0.4-0.4l-5.3-24.7c0-0.3,0.1-0.4,0.4-0.4l4.7,0.5c0.3,0,0.4,0.2,0.4,0.4
			l3.2,16.7l0.1,0l6.5-15.6c0.1-0.2,0.3-0.3,0.5-0.3l4.7,0.5c0.2,0,0.3,0.2,0.2,0.4l-10.4,23c-0.1,0.2-0.3,0.3-0.5,0.3L180.7,358.9z
			"/>
		<path class="st10" d="M202.4,335.6c0.1-0.2,0.2-0.4,0.5-0.4l4.6-0.2c0.3,0,0.4,0.1,0.5,0.3l9.2,23.7c0.1,0.2,0,0.4-0.2,0.4
			l-4.7,0.2c-0.3,0-0.4-0.1-0.5-0.3l-1.6-4.3l-8.7,0.3l-1.2,4.4c-0.1,0.3-0.2,0.4-0.5,0.4l-4.8,0.2c-0.3,0-0.3-0.1-0.3-0.4
			L202.4,335.6z M208.5,350.6l-3.1-8.5l-0.1,0l-2.5,8.8L208.5,350.6z"/>
		<path class="st10" d="M217.8,334.8c0-0.2,0.1-0.4,0.3-0.4l9-1.8c4.2-0.8,7.6,0.4,9.5,3.8c0.7,1.3,1.2,2.6,2,6.5s0.8,5.4,0.7,6.8
			c-0.5,3.9-3,6.3-7.3,7.1l-9,1.8c-0.2,0-0.4-0.1-0.4-0.3L217.8,334.8z M227.1,352.9l2.7-0.5c2.4-0.5,3.7-1.5,4-3.6
			c0.1-0.8,0.1-1.7-0.6-4.9c-0.6-3.1-1-4-1.3-4.7c-1-1.8-2.6-2.3-5-1.8l-2.7,0.5c-0.1,0-0.2,0.1-0.2,0.3l2.9,14.5
			C226.9,352.9,227,353,227.1,352.9z"/>
		<path class="st10" d="M261.1,347.9c-0.2,0.1-0.4,0-0.6-0.1l-16.7-18.9c-0.2-0.2-0.1-0.4,0.1-0.5l4.3-1.9c0.2-0.1,0.4-0.1,0.6,0.1
			l10.9,13l0.1,0l-2-16.8c0-0.3,0.1-0.4,0.3-0.5l4.3-1.9c0.2-0.1,0.4,0,0.4,0.3l2.2,25.1c0,0.2-0.1,0.4-0.3,0.5L261.1,347.9z"/>
		<path class="st10" d="M277.5,340.3c-0.2,0.1-0.4,0.1-0.5-0.1l-12.7-20.4c-0.1-0.2-0.1-0.4,0.1-0.5l8.1-5.1c4.6-2.8,9-1.8,11.5,2.2
			c2.5,4,1.4,8.5-3.1,11.3l-3.7,2.3c-0.1,0.1-0.1,0.2-0.1,0.3l4.4,7c0.1,0.2,0.1,0.4-0.1,0.5L277.5,340.3z M279.5,319.2
			c-1.1-1.7-2.9-2.1-4.8-0.9l-3.5,2.2c-0.1,0.1-0.1,0.2-0.1,0.3l3.3,5.3c0.1,0.1,0.2,0.1,0.3,0.1l3.5-2.2
			C280.2,322.8,280.6,320.9,279.5,319.2z"/>
		<path class="st10" d="M281.7,308.7c-0.1-0.2-0.1-0.4,0-0.5l3.3-2.9c0.2-0.2,0.4-0.2,0.7-0.1l16.8,6l0.1-0.1l-10.2-11.7
			c-0.1-0.2-0.1-0.4,0-0.5l3.1-2.7c0.2-0.1,0.4-0.1,0.5,0l15.8,18.1c0.1,0.2,0.1,0.4,0,0.5l-3.3,2.8c-0.2,0.2-0.4,0.2-0.7,0.1
			l-16.8-6l-0.1,0.1l10.2,11.7c0.1,0.2,0.1,0.4,0,0.5l-3.1,2.7c-0.2,0.1-0.4,0.1-0.5,0L281.7,308.7z"/>
	</g>
</g>
</svg>
