<?xml version="1.0" encoding="UTF-8"?>
<svg width="500px" height="500px" viewBox="0 0 500 500" version="1.1" xmlns="http://www.w3.org/2000/svg" xmlns:xlink="http://www.w3.org/1999/xlink">
    <!-- Generator: Sketch 52.5 (67469) - http://www.bohemiancoding.com/sketch -->
    <title>Politische Aktion</title>
    <desc>Created with Sketch.</desc>
    <g id="Page-1" stroke="none" stroke-width="1" fill="none" fill-rule="evenodd">
        <g id="Politische-Aktion">
            <g id="Background" transform="translate(26.000000, 26.000000)" fill="#FFFFFF">
                <path d="M224,448 C100.288,448 0,347.712 0,224 C0,100.288 100.288,0 224,0 C347.712,0 448,100.288 448,224 C448,347.712 347.712,448 224,448 Z" id="Path"/>
            </g>
            <g id="Logo">
                <g id="Flaggen" transform="translate(63.000000, 116.000000)">
                    <path d="M264.458,305.123 L355.978,51.843 L348.57,47.485 C326.342,27.437 316.752,14.797 293.216,5.644 C257.013,-8.437 226.968,19.154 196.022,27.437 C148.473,40.161 104.705,36.834 64.607,10.248 C60.299,7.391 58.818,4.585 55.454,0.658 C27.124,32.042 5.237,72.438 1.013,119.139 C0.89,120.503 1.226,121.273 1.449,122.624 C11.038,130.469 80.093,195.289 176.416,160.857 C215.372,146.932 241.357,162.599 274.919,183.521 C280.379,186.926 280.045,186.871 283.199,189.186 L241.793,314.711 L252.69,311.661 L264.458,305.123" id="Black" fill="#231F20"/>
                    <path d="M234.385,170.88 L179.773,321.729 C177.076,321.84 175.543,321.859 172.856,321.613 C168.065,321.174 165.342,320.578 160.798,318.998 L188.62,236.694 L184.261,233.643 C168.135,227.542 160.852,222.347 139.369,226.234 C93.605,234.515 33.768,213.128 11.388,166.334 C6.594,156.309 3.93,151.704 2.32,141.533 C1.659,137.344 1.445,134.934 1.44894513,130.693 C45.461,167.131 89.966,185.575 150.701,175.24 C179.239,170.384 197.433,155.459 224.359,166.087 C228.391,167.68 230.627,168.721 234.385,170.88" id="Red" fill="#ED1C24"/>
                    <path d="M274.557081,168.129849 C268.611066,166.510179 264.262283,162.051357 261.127592,154.357176 C258.791517,148.62412 257.872374,144.009005 256.812125,132.69819 C255.865544,122.596902 255.52846,120.626818 253.796982,115.05105 L252.29088,110.203985 L251.171837,109.165683 C250.556462,108.593274 249.990081,108.156251 249.913649,108.19408 C249.674555,108.308562 247.888202,113.003317 246.894586,116.12718 C244.729994,122.940348 244.270422,129.074588 245.540369,134.187451 L246.032277,136.165499 L244.833863,136.889224 C242.420376,138.346629 242.350804,138.350611 241.507112,137.069409 C240.379251,135.358153 239.017194,130.573804 239.000535,128.266246 C238.977018,125.13641 239.728599,120.48048 241.160229,114.877834 C242.749622,108.658976 243.549218,103.905488 243.480625,101.086246 C243.425751,98.7776926 243.486504,98.7030305 246.492829,97.4019185 L248.57903,96.5 L250.014579,98.211256 C253.43148,102.284822 255.224692,105.362892 257.261898,110.654944 C259.590133,116.69959 260.808145,122.395812 262.817914,136.6294 C264.561151,148.965575 264.498438,148.691813 266.366122,152.064551 C269.591943,157.889192 272.351333,160.95233 276.309137,163.099613 C277.262577,163.618266 277.316472,163.704874 277.660416,165.293684 C277.858355,166.202571 278.010239,167.233904 277.99946,167.584318 C277.970063,168.588773 276.879438,168.760993 274.557081,168.129849 Z M244.447949,150.235062 L243.30526,150.5 L243.092011,149.507892 C242.764091,147.984968 243.319342,146.452649 244.651139,145.204998 C245.684187,144.238256 246.228373,143.962984 249.739932,142.62608 C251.902593,141.803082 254.097443,140.987599 254.618493,140.814731 L255.566041,140.5 L256.392882,142.744457 C257.370606,145.397595 257.962069,144.796317 251.637038,147.580985 C247.188997,149.539835 246.7454,149.703307 244.447949,150.235062 Z M265.142502,139.916779 C264.657942,139.16494 264.361712,137.436106 264.525521,136.308348 C264.720719,134.958409 265.794795,132.668176 267.309292,130.367032 C268.869891,127.994474 270.059712,125.447346 270.264719,124.032936 C270.70612,120.989872 268.691368,112.132452 266.593241,107.894181 C263.734922,102.121485 258.344922,96.4638448 252.78719,93.4029269 C251.850438,92.8871533 251.048069,92.3555097 251.001967,92.2196232 C250.955865,92.0847286 251.725865,90.450123 252.713623,88.5873868 C253.979954,86.200942 254.582222,85.3003219 254.75584,85.5363875 C255.436578,86.4627963 262.210617,92.8078035 263.58877,93.8095945 C266.568719,95.9768355 269.92533,97.0926919 272.769916,96.8615856 C273.432999,96.8090164 274.451165,96.781244 275.030872,96.8020733 C276.559101,96.8566263 278.385521,96.1345432 281.252668,94.3422299 C285.544069,91.6592153 287.12919,91.4459628 288.953649,93.3017559 C290.466184,94.8411417 290.400464,95.2279719 288.352362,96.8209189 C284.760337,99.6120476 279.42919,101.535288 273.634082,102.129419 C271.847878,102.311924 271.225012,102.465664 271.083763,102.759258 C270.87091,103.19965 271.586961,105.359948 273.08184,108.78885 C273.920502,110.713083 274.157878,111.593865 274.513942,114.112229 C275.598808,121.765516 274.726795,127.947856 271.768426,133.595577 C270.601164,135.823322 270.121508,136.471015 269.103343,137.19409 C268.419661,137.679115 267.333814,138.621394 266.689368,139.287932 L265.518184,140.5 L265.142502,139.916779 Z M236.422649,101.498068 C236.012598,101.514899 235.201325,101.419849 234.622546,101.288166 C233.7583,101.091135 233.517959,100.898065 233.284485,100.215884 L233,99.3822172 L234.612736,98.6366696 C238.640651,96.777256 241.532588,94.2178395 243.934034,90.3891109 C246.496361,86.3039455 248.155203,81.1237262 250.207419,70.7959609 C250.867621,67.4721848 251.367922,65.6216821 251.632787,65.5236619 C252.128183,65.3404929 253.71149,66.2573283 254.198057,67.0117869 C254.982843,68.2266434 255.268309,75.292019 254.706206,79.5900565 C253.62222,87.8920709 249.389279,94.7564556 242.703882,99.053503 C240.843938,100.248557 237.772481,101.445592 236.422649,101.498068 Z M110.720866,140.635198 L70.3682317,154.5 L69.3590455,154.199349 C68.0891694,153.82005 65.4447461,151.172925 63.8055592,148.640287 C60.9774681,144.270888 58.4959761,139.275299 55.66591,132.245833 C54.6024134,129.604682 52.2660783,123.913214 50.4738348,119.597574 C46.9150218,111.029013 45.0813048,105.528688 42.972086,97.0885511 C39.7875211,84.3496983 39.1486332,76.268949 41.1205948,73.7024624 C41.6627114,72.9966288 48.8543971,69.9960894 72.3392058,60.6768958 C94.4297181,51.9122147 118.933588,44.3073306 133.298197,41.7587637 C136.53806,41.1853361 137.251008,41.4242643 139.754224,43.9270367 C142.286076,46.4566885 144.32321,49.6224866 145.876488,53.4413549 C147.566036,57.5977092 147.809939,58.6360512 147.19475,59.0541755 C146.407743,59.5897727 143.613225,60.490731 143.032598,60.3971508 C142.193255,60.2607626 141.129758,58.8122607 139.623879,55.7559714 C136.428452,49.2700675 134.693481,48.0873732 129.189368,48.6418856 C123.04143,49.2611077 114.222406,51.7569114 97.0237808,57.7450483 C80.3080241,63.5649399 67.5707518,68.5665026 55.0151725,74.2410463 C51.9125669,75.6437537 51.0564374,76.1355474 50.2368439,76.9877245 C48.1108382,79.1968144 47.2369344,82.9370356 47.6575932,88.0272008 C47.9795058,91.9277029 48.6016069,94.345855 52.2660783,105.95179 C57.5351755,122.637935 60.8974836,130.437944 66.1695432,138.197136 C69.3550956,142.887096 71.1325272,144.23704 74.7022024,144.679057 C78.672787,145.169856 77.3209516,145.573047 111.048704,133.852625 C140.281529,123.695192 149.871759,120.159055 153.453284,118.219755 C156.786956,116.413857 157.549276,112.020565 155.986124,103.635182 C155.25639,99.7237295 155.24454,99.4758415 155.743208,98.5788654 C156.75437,96.7550472 158.722381,96.2493159 160.04953,97.4708361 C161.242384,98.5679146 162.58237,102.989081 163.186697,107.828372 C163.964817,114.066388 164.202795,118.389992 163.821635,119.385526 C163.079064,121.329803 159.678245,123.516992 154.15537,125.604626 C152.460885,126.244755 132.915062,133.008412 110.720866,140.635198 Z M222.824385,96.4477386 C221.036742,96.6063216 219.862034,96.4160221 218.285056,95.7113189 L217,95.1374467 L217.426346,94.4624778 C218.087433,93.4188035 219.894136,92.2542097 223.348038,90.6495481 C225.088532,89.841766 226.96646,88.841702 227.521211,88.4283951 C233.62849,83.8830101 236.970038,79.7093041 240.551343,72.1508423 C242.304878,68.4528852 245.513005,59.6882016 245.555138,58.4799975 C245.564166,58.235185 245.975464,57.9556825 246.684703,57.7148345 C247.987817,57.2717933 247.934649,57.1241129 247.995842,61.3107038 C248.135282,70.7642323 244.765646,79.7737284 238.176847,87.5581709 C236.696173,89.3095218 236.379173,89.5364937 231.077437,92.656614 C225.111605,96.167245 224.895924,96.2653682 222.824385,96.4477386 Z M101.960778,133.295758 C101.985348,132.586645 106.729359,116.722704 107.884157,113.486135 C110.263533,106.822844 114.147587,98.2887208 115.897966,95.8820922 C117.200186,94.0904909 119.889146,92.056246 122.735356,90.7093263 C126.12604,89.1049072 155.076591,79.0753072 177.628083,71.6920083 C196.76039,65.4288317 196.223778,65.5655044 202.241506,65.4149663 C204.105891,65.367428 205.660692,65.2654186 205.699021,65.1881688 C205.737351,65.1099286 205.326537,64.7504199 204.786976,64.38794 C203.519155,63.5372018 201.138796,62.9271264 198.847873,62.8637419 C195.019839,62.7607422 193.844401,63.0806356 174.388751,69.5082157 C156.846626,75.3049224 148.930115,77.8422815 127.82728,84.4362458 L117.94024,87.5252477 L116.239,87.2994406 C113.242421,86.9013069 110.423731,85.3444262 95.9862936,76.1101031 C88.319415,71.2077115 82.0265008,67.1352601 82.0009478,67.0609814 C81.9154436,66.8104148 87.6422609,65.3347454 88.0914037,65.4922161 C88.3371055,65.5783794 92.1091194,68.0959308 96.4708175,71.0858945 C105.866454,77.5253592 108.58883,79.2060377 112.506299,80.9867448 C116.385439,82.749625 117.648346,83.0764511 119.611012,82.8298459 C123.391871,82.3544625 133.039106,79.2020761 154.376832,71.4711531 C179.112122,62.5081947 187.504312,59.7985092 191.715641,59.4132505 C195.077824,59.1072224 199.340259,59.1181166 202.111775,59.4409812 C203.282298,59.577654 204.268054,59.6311346 204.301469,59.5588367 C204.453805,59.2458759 203.008095,58.1901286 201.493589,57.5087457 C196.744665,55.3685298 190.6719,55.114992 183.748024,56.7689302 C180.973559,57.4305055 165.539556,62.6468482 155.562097,66.295416 C152.446599,67.4333651 146.219533,69.6399365 141.724173,71.1958269 C134.38162,73.7381379 133.219942,74.0768485 130.30985,74.5304436 C126.454298,75.1316055 121.947144,75.2276726 119.118625,74.7681353 C117.4223,74.4918187 116.909275,74.2759154 116.14072,73.5093596 C113.930387,71.3067497 111.323982,64.1264791 110.496458,57.9613503 L110.308742,56.5609499 L112.271408,55.879567 C113.352496,55.5052026 114.262575,55.2199725 114.295991,55.2467128 C114.329406,55.2744435 115.367251,58.0217636 116.602639,61.3563803 C119.06064,67.9889695 119.28472,68.3762089 121.370237,69.5755617 C122.890639,70.4500691 123.686713,70.5273189 126.109333,70.0370798 C131.238603,69.0011401 135.032239,67.8057488 152.893776,61.6039758 C163.915958,57.7761488 173.059013,54.7228007 174.897845,54.2553403 C183.524926,52.0606535 190.810476,51.4198762 197.630175,52.2567491 C200.937321,52.6628058 201.331426,52.7846228 204.089183,54.2454365 C209.279388,56.9937469 214.816523,61.1513712 218.510895,65.0762556 L220.194444,66.8638954 L219.586086,65.3743606 C218.226864,62.0526189 210.444997,55.5042122 199.310775,48.3130475 C197.236069,46.9730604 195.509277,45.7885634 195.47193,45.6825925 C195.350062,45.3240741 196.236554,44.3317112 196.87931,44.1088752 C198.010521,43.7156935 201.604647,44.6882488 203.502447,45.8994862 C213.180149,52.0794707 219.779699,57.5592551 223.740412,62.7033 C224.626904,63.8531337 225.709958,64.9821693 226.14829,65.2109476 L226.942398,65.6278985 L227.433801,64.6127568 L227.925205,63.5976151 L226.520774,61.5861489 C223.384636,57.0917948 220.769386,54.5484934 211.426821,46.9017529 C204.299504,41.0674117 204.242501,40.9951138 206.24841,40.2998655 C207.115246,39.997799 207.723604,40.0443469 209.553591,40.5464707 C210.786031,40.884191 212.020437,41.2407286 212.29464,41.3387764 C213.101525,41.6259872 220.958085,48.3803934 223.878988,51.2990496 C225.356147,52.7737286 227.409231,55.1466842 228.443144,56.5718442 C231.182228,60.350152 231.188125,60.3531232 232.171915,58.6169833 C232.799928,57.5067649 232.800911,57.4572458 232.193536,56.1529125 C230.777311,53.1074874 227.034782,48.0585192 223.317805,44.1752309 C222.279961,43.0927432 221.380692,42.0568034 221.317792,41.8735828 C221.254893,41.6893717 221.402314,41.0624598 221.644084,40.4811055 C222.06964,39.4629926 222.115832,39.4293196 222.917803,39.5471751 C224.274076,39.7472323 226.992521,41.236767 228.379262,42.5411003 C229.090814,43.2096083 231.049549,45.6964578 232.732115,48.0684231 C234.414681,50.4403883 235.880046,52.3488547 235.989138,52.3122105 C236.099212,52.2735856 236.39602,51.6486545 236.652532,50.9227044 C237.831901,47.5722416 238.459915,46.9453297 239.881054,47.6990105 C240.798996,48.1872689 241.134133,49.1251608 241.134133,51.2237806 C241.135116,53.3927175 241.343471,53.9205912 242.236843,54.0077448 C242.637828,54.0463697 243.127266,54.0216101 243.325793,53.9522834 C243.812282,53.7849088 243.999999,54.4445033 243.999999,56.3282101 C244.001964,61.9001001 241.835857,67.5680571 237.412242,73.5707633 C233.209759,79.2723933 226.886378,84.1193235 220.216066,86.7487881 C216.907937,88.0541117 214.821437,88.3393418 212.761473,87.7669009 C211.178171,87.3281616 210.867604,86.5685385 211.774735,85.3573012 C212.765405,84.0321699 214.331016,83.0318839 217.793446,81.5086762 C228.543391,76.7776207 235.527218,69.8261284 239.073186,60.3234117 C239.630438,58.8328866 239.632404,58.7675214 239.100705,59.4607889 C233.262831,67.0639526 226.288831,73.5568979 220.443094,76.8311013 C218.689766,77.81257 217.326613,78.3632225 214.481386,79.2416914 C210.570796,80.4469865 208.104933,80.7797549 205.028747,80.5163132 C203.327508,80.3707271 203.02382,80.0954008 202.509812,78.2394247 L202.212021,77.1608985 L181.862017,84.081689 C170.668826,87.8877275 158.897745,91.9096694 155.702639,93.0188974 C148.312912,95.5839872 141.290755,98.556124 135.485313,101.57679 C132.744264,103.001949 132.367849,103.556563 132.244998,106.352412 C132.161459,108.237109 133.132473,111.494476 135.114795,115.984869 C136.3492,118.781708 136.624386,120.584204 135.960992,121.506249 C135.719221,121.841989 134.975236,122.254978 134.009137,122.589727 C132.154579,123.234466 132.155562,123.234466 130.587002,119.994926 C128.291165,115.249015 126.822851,109.733577 126.781573,105.69876 C126.765848,104.080476 126.874939,103.72889 127.798778,102.418614 C129.746702,99.6544578 133.641567,96.9091185 139.467647,94.1895291 C140.895666,93.5239923 147.038211,91.2698826 153.743904,88.9504076 C160.216672,86.7121439 171.785295,82.6218657 179.450208,79.8616707 C188.374097,76.648871 195.908296,74.0818005 200.394811,72.7259673 C204.249381,71.5602875 207.434659,70.5421747 207.473971,70.4629441 C207.634169,70.1291853 204.261174,69.7320421 202.368288,69.8617821 C198.641483,70.1182911 197.045404,70.5619823 181.98585,75.5277584 C173.770565,78.2374439 160.428958,82.6040388 152.336524,85.2315226 C129.985524,92.489043 127.962907,93.1981566 126.241029,94.3856248 C123.197275,96.4822638 120.745171,98.9275173 118.905356,101.699597 C117.047851,104.498417 115.267987,108.788752 111.349535,119.914705 L107.121499,131.920118 L104.53475,132.817404 C102.34997,133.575046 101.948985,133.650315 101.960778,133.295758 Z" id="Chaosknoten" fill="#FFFFFF" fill-rule="nonzero"/>
                </g>
                <path d="M249.997,500 C112.264,500 0,387.737 0,250.003 C0,112.269 112.264,0 249.997,0 C387.731,0 500,112.269 500,250.003 C500,387.737 387.731,500 249.997,500 Z M249.997,443.168 C357.018,443.168 443.168,357.024 443.168,250.003 C443.168,142.982 357.018,56.832 249.997,56.832 C142.978,56.832 56.832,142.982 56.832,250.003 C56.832,357.024 142.978,443.168 249.997,443.168 Z" id="Circles" fill="#231F20" fill-rule="nonzero"/>
                <g id="Politische" transform="translate(99.000000, 10.000000)" fill="#FFFFFF">
                    <path d="M20.344,67.627 L23.223,65.505 C29.298,61.028 30.462,55.423 25.811,49.111 C20.84,42.366 14.946,42.875 8.714,47.468 L0.825,53.282 L22.743,83.024 L28.542,78.751 L20.344,67.627 Z M10.17,53.821 L11.195,53.066 C14.43,50.682 17.046,49.606 19.865,53.432 C22.714,57.298 21.413,59.414 17.981,61.943 L16.797,62.815 L10.17,53.821 Z" id="Shape" fill-rule="nonzero"/>
                    <path d="M71.075,33.12 C66.28,23.247 56.075,18.834 46.158,23.65 C36.24,28.466 33.399,39.216 38.193,49.089 C42.946,58.874 53.016,63.571 63.154,58.647 C73.291,53.724 75.827,42.905 71.075,33.12 Z M64.247,36.11 C66.73,41.222 67.234,48.767 60.05,52.256 C52.865,55.745 47.248,50.684 44.765,45.571 C42.153,40.193 43.135,33.017 49.261,30.041 C55.388,27.066 61.635,30.732 64.247,36.11 Z" id="Shape" fill-rule="nonzero"/>
                    <polygon id="Path" points="84.111 10.072 77.194 12.081 87.499 47.56 104.204 42.708 102.455 36.685 92.667 39.528"/>
                    <polygon id="Path" points="111.948 3.71 104.859 4.984 111.395 41.348 118.484 40.073"/>
                    <polygon id="Path" points="138.554 7.166 145.985 6.669 145.566 0.411 123.516 1.888 123.936 8.146 131.367 7.648 133.418 38.253 140.605 37.772"/>
                    <polygon id="Path" points="164.443 0.964 157.246 0.662 155.694 37.575 162.891 37.878"/>
                    <path d="M199.021,8.378 C197.193,5.552 192.95,3.232 189.709,2.71 C183.565,1.721 178.28,5.883 177.306,11.93 C176.395,17.59 179.448,20.514 183.829,23.204 C186.505,24.776 189.816,26.401 189.209,30.175 C188.757,32.981 186.57,35.16 183.668,34.692 C180.62,34.202 178.461,31.274 177.945,28.312 L172.625,32.071 C174.463,36.685 177.673,40.179 182.704,40.989 C190.154,42.188 195.535,37.744 196.71,30.439 C198.681,18.2 183.803,18.435 184.792,12.291 C185.174,9.921 187.631,8.53 189.905,8.896 C192.275,9.277 193.83,10.719 194.888,12.775 L199.021,8.378 Z" id="Path"/>
                    <path d="M238.107,17.881 C236.166,15.793 233.715,14.155 230.971,13.245 C220.692,9.839 210.755,16.302 207.457,26.256 C204.251,35.931 208.732,46.862 218.593,50.13 C221.43,51.07 224.281,51.034 227.24,50.673 L229.938,42.533 C227.306,44.087 223.867,44.651 220.937,43.68 C214.565,41.568 212.615,34.366 214.573,28.459 C216.577,22.413 222.348,17.615 228.906,19.788 C231.836,20.759 234.258,23.11 235.394,26.068 L238.107,17.881 Z" id="Path"/>
                    <polygon id="Path" points="252.962 39.394 259.933 26.619 253.61 23.169 235.913 55.601 242.236 59.051 250.146 44.555 261.845 50.939 253.936 65.435 260.259 68.885 277.955 36.453 271.632 33.003 264.662 45.778"/>
                    <polygon id="Path" points="302.642 62.646 306.522 57.718 291.507 45.896 268.652 74.925 283.667 86.747 287.547 81.819 278.191 74.453 284.375 66.599 293.384 73.692 297.263 68.764 288.255 61.671 293.286 55.28"/>
                </g>
                <g id="Aktion" transform="translate(134.000000, 425.000000)" fill="#FFFFFF">
                    <path d="M24.582,38.516 L23.902,46.781 L30.889,50.001 L34.033,9.691 L28.959,7.353 L0.004,35.77 L6.902,38.948 L12.922,33.144 L24.582,38.516 Z M25.218,32.335 L17.252,28.664 L26.564,18.172 L26.653,18.213 L25.218,32.335 Z" id="Shape" fill-rule="nonzero"/>
                    <polygon id="Path" points="59.511 36.262 59.416 36.238 63.128 21.105 56.132 19.389 47.332 55.272 54.328 56.987 58.284 40.855 58.379 40.878 65.892 59.824 74.886 62.029 65.253 39.183 82.925 25.96 74.311 23.848"/>
                    <polygon id="Path" points="105.836 34.116 113.268 34.607 113.681 28.348 91.63 26.893 91.217 33.152 98.649 33.642 96.63 64.25 103.817 64.724"/>
                    <polygon id="Path" points="133.522 27.35 126.336 27.85 128.903 64.707 136.088 64.207"/>
                    <path d="M185.728,35.929 C183.147,25.26 174.116,18.774 163.4,21.367 C152.684,23.96 147.618,33.857 150.199,44.525 C152.758,55.098 161.596,61.832 172.55,59.182 C183.504,56.531 188.286,46.501 185.728,35.929 Z M178.42,37.394 C179.757,42.919 178.642,50.398 170.879,52.276 C163.116,54.155 158.706,48.013 157.369,42.488 C155.963,36.678 158.451,29.875 165.071,28.273 C171.691,26.671 177.014,31.584 178.42,37.394 Z" id="Shape" fill-rule="nonzero"/>
                    <polygon id="Path" points="207.528 47.411 213.996 44.241 202.956 21.713 203.044 21.67 231.875 36.298 236.539 34.012 219.958 0.176 213.49 3.345 224.422 25.654 224.334 25.697 195.502 11.069 190.838 13.354"/>
                </g>
            </g>
        </g>
    </g>
</svg>