<?xml version="1.0" encoding="UTF-8" standalone="no"?>
<svg
   xmlns:dc="http://purl.org/dc/elements/1.1/"
   xmlns:cc="http://creativecommons.org/ns#"
   xmlns:rdf="http://www.w3.org/1999/02/22-rdf-syntax-ns#"
   xmlns:svg="http://www.w3.org/2000/svg"
   xmlns="http://www.w3.org/2000/svg"
   xmlns:sodipodi="http://sodipodi.sourceforge.net/DTD/sodipodi-0.dtd"
   xmlns:inkscape="http://www.inkscape.org/namespaces/inkscape"
   version="1.0"
   id="Layer_1"
   width="302"
   height="302.00015"
   viewBox="0 0 105.1413 105.14136"
   overflow="visible"
   enable-background="new 0 0 250.668 250.668"
   xml:space="preserve"
   sodipodi:version="0.32"
   inkscape:version="0.92.1 r15371"
   sodipodi:docname="sticker-nsa.svg"
   inkscape:output_extension="org.inkscape.output.svg.inkscape"
   style="overflow:visible"><metadata
     id="metadata336"><rdf:RDF><cc:Work
         rdf:about=""><dc:format>image/svg+xml</dc:format><dc:type
           rdf:resource="http://purl.org/dc/dcmitype/StillImage" /><dc:title></dc:title></cc:Work></rdf:RDF></metadata><defs
     id="defs334" /><sodipodi:namedview
     inkscape:window-height="1021"
     inkscape:window-width="1920"
     inkscape:pageshadow="2"
     inkscape:pageopacity="0.0"
     guidetolerance="10.0"
     gridtolerance="10.0"
     objecttolerance="10.0"
     borderopacity="1.0"
     bordercolor="#666666"
     pagecolor="#ffffff"
     id="base"
     inkscape:showpageshadow="false"
     width="720px"
     height="720px"
     inkscape:zoom="0.75398535"
     inkscape:cx="113.02381"
     inkscape:cy="195.73948"
     inkscape:window-x="0"
     inkscape:window-y="0"
     inkscape:current-layer="g3"
     showgrid="false"
     fit-margin-top="1"
     fit-margin-left="1"
     fit-margin-right="1"
     fit-margin-bottom="1"
     inkscape:window-maximized="1" /><g
     id="g3"
     transform="matrix(0.99999544,0,0,1,0.01415153,-145.5408)"><g
       id="g4842"
       transform="matrix(0.4177819,0,0,0.4177819,0.19446084,145.74899)"><path
         inkscape:connector-curvature="0"
         style="fill:#e0af35;stroke:none"
         id="path5"
         d="m 125.336,250.334 c 69.031,0 124.998,-55.963 124.998,-125.001 C 250.334,56.303 194.367,0.335 125.336,0.335 56.299,0.334 0.334,56.302 0.334,125.333 c 0,69.038 55.965,125.001 125.002,125.001 z" /><path
         inkscape:connector-curvature="0"
         style="fill:#ffffff;stroke:none"
         id="path7"
         d="m 125.336,246.582 c 66.999,0 121.321,-54.313 121.321,-121.321 0,-67.006 -54.322,-121.326 -121.321,-121.326 -67.005,0 -121.322,54.32 -121.322,121.326 0,67.009 54.317,121.321 121.322,121.321 z" /><path
         inkscape:connector-curvature="0"
         style="fill:#e0af35;stroke:none"
         id="path9"
         d="m 125.336,221.329 c 53.052,0 96.068,-43.012 96.068,-96.068 0,-53.059 -43.017,-96.066 -96.068,-96.066 -53.059,0 -96.068,43.007 -96.068,96.066 0,53.056 43.01,96.068 96.068,96.068 z" /><path
         inkscape:connector-curvature="0"
         style="fill:#124471;stroke:none"
         id="path11"
         d="m 125.336,218.959 c 51.746,0 93.699,-41.95 93.699,-93.698 0,-51.749 -41.953,-93.7 -93.699,-93.7 -51.744,0 -93.701,41.951 -93.701,93.7 10e-4,51.748 41.957,93.698 93.701,93.698 z" /><polyline
         style="fill:#ffffff;stroke:#000000;stroke-width:0.0738;stroke-linejoin:round"
         id="polyline13"
         points="131.981,138.484    123.026,138.403 131.981,137.541  " /><path
         inkscape:connector-curvature="0"
         style="fill:#ffffff;stroke:#ffffff;stroke-width:0.2225;stroke-linejoin:round"
         id="path15"
         d="m 118.978,188.382 4.048,2.169 4.189,-2.169 -4.189,-45.21 z m 4.048,-46.222 14.392,43.927 3.196,1.268 1.838,-2.507 z m 14.441,44.127 -2.091,2.69 -3.071,-1.294 -9.279,-45.232 z m -5.167,1.505 -2.213,1.742 -2.904,-1.119 -4.157,-45.389 z m -9.274,-45.632 -14.395,43.927 -3.196,1.268 -1.836,-2.507 z m -14.448,44.127 2.094,2.69 3.077,-1.294 9.277,-45.232 z m 5.173,1.505 2.206,1.742 2.908,-1.119 4.162,-45.389 z" /><polygon
         style="fill:#ffffff;stroke:#000000;stroke-width:0.0738;stroke-linejoin:round"
         id="polygon17"
         points="118.978,188.382 123.026,190.551 127.215,188.382 123.026,143.172 118.978,188.382 " /><path
         inkscape:connector-curvature="0"
         style="fill:none;stroke:#000000;stroke-width:0.0738;stroke-linejoin:round"
         id="path19"
         d="m 123.026,188.67 v -45.389 m 8.813,-5.269 -8.813,0.392" /><polyline
         style="fill:#ffffff;stroke:#000000;stroke-width:0.0738;stroke-linejoin:round"
         id="polyline21"
         points="131.766,139.412    123.026,138.623 131.621,138.487  " /><line
         style="fill:none;stroke:#000000;stroke-width:0.0738;stroke-linejoin:round"
         id="line23"
         y2="138.623"
         x2="123.026"
         y1="138.927"
         x1="131.547" /><polyline
         style="fill:#ffffff;stroke:#000000;stroke-width:0.0738;stroke-linejoin:round"
         id="polyline25"
         points="131.776,140.364    123.026,138.871 131.766,139.412  " /><line
         style="fill:none;stroke:#000000;stroke-width:0.0738;stroke-linejoin:round"
         id="line27"
         y2="138.871"
         x2="123.026"
         y1="139.877"
         x1="131.756" /><polyline
         style="fill:#ffffff;stroke:#000000;stroke-width:0.0738;stroke-linejoin:round"
         id="polyline29"
         points="131.61,141.307 123.026,139.127    131.766,140.342  " /><line
         style="fill:none;stroke:#000000;stroke-width:0.0738;stroke-linejoin:round"
         id="line31"
         y2="139.127"
         x2="123.026"
         y1="140.896"
         x1="131.875" /><polyline
         style="fill:#ffffff;stroke:#000000;stroke-width:0.0738;stroke-linejoin:round"
         id="polyline33"
         points="131.595,142.356    123.026,139.384 131.746,141.337  " /><line
         style="fill:none;stroke:#000000;stroke-width:0.0738;stroke-linejoin:round"
         id="line35"
         y2="139.384"
         x2="123.026"
         y1="142.02299"
         x1="132.049" /><polyline
         style="fill:#ffffff;stroke:#000000;stroke-width:0.0738;stroke-linejoin:round"
         id="polyline37"
         points="131.907,143.677    123.026,139.673 131.956,142.572  " /><line
         style="fill:none;stroke:#000000;stroke-width:0.0738;stroke-linejoin:round"
         id="line39"
         y2="139.673"
         x2="123.026"
         y1="143.052"
         x1="131.966" /><polyline
         style="fill:#ffffff;stroke:#000000;stroke-width:0.0738;stroke-linejoin:round"
         id="polyline41"
         points="132.355,145.388 123.026,139.92    131.902,143.684  " /><line
         style="fill:none;stroke:#000000;stroke-width:0.0738;stroke-linejoin:round"
         id="line43"
         y2="139.92"
         x2="123.026"
         y1="144.69"
         x1="132.41" /><polyline
         style="fill:#ffffff;stroke:#000000;stroke-width:0.0738;stroke-linejoin:round"
         id="polyline45"
         points="132.743,147.455    123.026,140.175 132.272,145.33  " /><line
         style="fill:none;stroke:#000000;stroke-width:0.0738;stroke-linejoin:round"
         id="line47"
         y2="140.175"
         x2="123.026"
         y1="146.563"
         x1="132.77499" /><polyline
         style="fill:#ffffff;stroke:#000000;stroke-width:0.0738;stroke-linejoin:round"
         id="polyline49"
         points="132.97,149.825 123.026,140.499    132.861,147.487  " /><line
         style="fill:none;stroke:#000000;stroke-width:0.0738;stroke-linejoin:round"
         id="line51"
         y2="140.49899"
         x2="123.026"
         y1="148.439"
         x1="132.713" /><polyline
         style="fill:#ffffff;stroke:#000000;stroke-width:0.0738;stroke-linejoin:round"
         id="polyline53"
         points="133.251,153.014    123.026,140.864 132.948,149.72  " /><line
         style="fill:none;stroke:#000000;stroke-width:0.0738;stroke-linejoin:round"
         id="line55"
         y2="140.864"
         x2="123.026"
         y1="151.347"
         x1="133.12" /><polyline
         style="fill:#ffffff;stroke:#000000;stroke-width:0.0738;stroke-linejoin:round"
         id="polyline57"
         points="133.543,157.482    123.026,141.223 133.322,153.018  " /><line
         style="fill:none;stroke:#000000;stroke-width:0.0738;stroke-linejoin:round"
         id="line59"
         y2="141.22301"
         x2="123.026"
         y1="154.104"
         x1="132.843" /><polyline
         style="fill:#ffffff;stroke:#000000;stroke-width:0.0738;stroke-linejoin:round"
         id="polyline61"
         points="135.055,168.648    123.026,141.761 133.598,157.493  " /><line
         style="fill:none;stroke:#000000;stroke-width:0.0738;stroke-linejoin:round"
         id="line63"
         y2="141.761"
         x2="123.026"
         y1="161.50101"
         x1="133.957" /><polygon
         style="fill:#ffffff;stroke:#000000;stroke-width:0.0738;stroke-linejoin:round"
         id="polygon65"
         points="123.026,142.16 137.417,186.087 140.614,187.354 142.452,184.848 123.026,142.16 " /><line
         style="fill:none;stroke:#000000;stroke-width:0.0738;stroke-linejoin:round"
         id="line67"
         y2="185.993"
         x2="140.16"
         y1="142.16"
         x1="123.026" /><polygon
         style="fill:#ffffff;stroke:#000000;stroke-width:0.0738;stroke-linejoin:round"
         id="polygon69"
         points="137.467,186.287 135.376,188.978 132.305,187.684 123.026,142.451 137.467,186.287 " /><line
         style="fill:none;stroke:#000000;stroke-width:0.0738;stroke-linejoin:round"
         id="line71"
         y2="142.451"
         x2="123.026"
         y1="187.701"
         x1="134.96201" /><polygon
         style="fill:#ffffff;stroke:#000000;stroke-width:0.0738;stroke-linejoin:round"
         id="polygon73"
         points="132.3,187.792 130.087,189.534 127.183,188.415 123.026,143.026 132.3,187.792 " /><line
         style="fill:none;stroke:#000000;stroke-width:0.0738;stroke-linejoin:round"
         id="line75"
         y2="143.026"
         x2="123.026"
         y1="188.604"
         x1="129.811" /><polyline
         style="fill:#ffffff;stroke:#000000;stroke-width:0.0738;stroke-linejoin:round"
         id="polyline77"
         points="114.071,138.484    123.026,138.403 114.071,137.541  " /><line
         style="fill:none;stroke:#000000;stroke-width:0.0738;stroke-linejoin:round"
         id="line79"
         y2="138.403"
         x2="123.026"
         y1="138.01199"
         x1="114.212" /><polyline
         style="fill:#ffffff;stroke:#000000;stroke-width:0.0738;stroke-linejoin:round"
         id="polyline81"
         points="114.284,139.412    123.026,138.623 114.43,138.487  " /><line
         style="fill:none;stroke:#000000;stroke-width:0.0738;stroke-linejoin:round"
         id="line83"
         y2="138.623"
         x2="123.026"
         y1="138.927"
         x1="114.503" /><polyline
         style="fill:#ffffff;stroke:#000000;stroke-width:0.0738;stroke-linejoin:round"
         id="polyline85"
         points="114.272,140.364    123.026,138.871 114.284,139.412  " /><line
         style="fill:none;stroke:#000000;stroke-width:0.0738;stroke-linejoin:round"
         id="line87"
         y2="138.871"
         x2="123.026"
         y1="139.877"
         x1="114.288" /><polyline
         style="fill:#ffffff;stroke:#000000;stroke-width:0.0738;stroke-linejoin:round"
         id="polyline89"
         points="114.434,141.307    123.026,139.127 114.284,140.342  " /><line
         style="fill:none;stroke:#000000;stroke-width:0.0738;stroke-linejoin:round"
         id="line91"
         y2="139.127"
         x2="123.026"
         y1="140.896"
         x1="114.171" /><polyline
         style="fill:#ffffff;stroke:#000000;stroke-width:0.0738;stroke-linejoin:round"
         id="polyline93"
         points="114.454,142.356    123.026,139.384 114.298,141.337  " /><line
         style="fill:none;stroke:#000000;stroke-width:0.0738;stroke-linejoin:round"
         id="line95"
         y2="139.384"
         x2="123.026"
         y1="142.02299"
         x1="114" /><polyline
         style="fill:#ffffff;stroke:#000000;stroke-width:0.0738;stroke-linejoin:round"
         id="polyline97"
         points="114.138,143.677    123.026,139.673 114.092,142.572  " /><line
         style="fill:none;stroke:#000000;stroke-width:0.0738;stroke-linejoin:round"
         id="line99"
         y2="139.673"
         x2="123.026"
         y1="143.052"
         x1="114.081" /><polyline
         style="fill:#ffffff;stroke:#000000;stroke-width:0.0738;stroke-linejoin:round"
         id="polyline101"
         points="113.691,145.388 123.026,139.92    114.146,143.684  " /><line
         style="fill:none;stroke:#000000;stroke-width:0.0738;stroke-linejoin:round"
         id="line103"
         y2="139.92"
         x2="123.026"
         y1="144.69"
         x1="113.639" /><polyline
         style="fill:#ffffff;stroke:#000000;stroke-width:0.0738;stroke-linejoin:round"
         id="polyline105"
         points="113.303,147.455    123.026,140.175 113.775,145.33  " /><line
         style="fill:none;stroke:#000000;stroke-width:0.0738;stroke-linejoin:round"
         id="line107"
         y2="140.175"
         x2="123.026"
         y1="146.563"
         x1="113.272" /><polyline
         style="fill:#ffffff;stroke:#000000;stroke-width:0.0738;stroke-linejoin:round"
         id="polyline109"
         points="113.07,149.825 123.026,140.499    113.187,147.487  " /><line
         style="fill:none;stroke:#000000;stroke-width:0.0738;stroke-linejoin:round"
         id="line111"
         y2="140.49899"
         x2="123.026"
         y1="148.439"
         x1="113.336" /><polyline
         style="fill:#ffffff;stroke:#000000;stroke-width:0.0738;stroke-linejoin:round"
         id="polyline113"
         points="112.795,153.014    123.026,140.864 113.101,149.72  " /><line
         style="fill:none;stroke:#000000;stroke-width:0.0738;stroke-linejoin:round"
         id="line115"
         y2="140.864"
         x2="123.026"
         y1="151.347"
         x1="112.927" /><polyline
         style="fill:#ffffff;stroke:#000000;stroke-width:0.0738;stroke-linejoin:round"
         id="polyline117"
         points="112.5,157.482 123.026,141.223    112.729,153.018  " /><line
         style="fill:none;stroke:#000000;stroke-width:0.0738;stroke-linejoin:round"
         id="line119"
         y2="141.22301"
         x2="123.026"
         y1="154.104"
         x1="113.202" /><polyline
         style="fill:#ffffff;stroke:#000000;stroke-width:0.0738;stroke-linejoin:round"
         id="polyline121"
         points="110.992,168.648    123.026,141.761 112.448,157.493  " /><line
         style="fill:none;stroke:#000000;stroke-width:0.0738;stroke-linejoin:round"
         id="line123"
         y2="141.761"
         x2="123.026"
         y1="161.50101"
         x1="112.089" /><polygon
         style="fill:#ffffff;stroke:#000000;stroke-width:0.0738;stroke-linejoin:round"
         id="polygon125"
         points="123.026,142.16 108.631,186.087 105.435,187.354 103.599,184.848 123.026,142.16 " /><line
         style="fill:none;stroke:#000000;stroke-width:0.0738;stroke-linejoin:round"
         id="line127"
         y2="185.993"
         x2="105.89"
         y1="142.16"
         x1="123.026" /><polygon
         style="fill:#ffffff;stroke:#000000;stroke-width:0.0738;stroke-linejoin:round"
         id="polygon129"
         points="108.578,186.287 110.672,188.978 113.749,187.684 123.026,142.451 108.578,186.287 " /><line
         style="fill:none;stroke:#000000;stroke-width:0.0738;stroke-linejoin:round"
         id="line131"
         y2="142.451"
         x2="123.026"
         y1="187.701"
         x1="111.084" /><polygon
         style="fill:#ffffff;stroke:#000000;stroke-width:0.0738;stroke-linejoin:round"
         id="polygon133"
         points="113.751,187.792 115.957,189.534 118.864,188.415 123.026,143.026 113.751,187.792 " /><line
         style="fill:none;stroke:#000000;stroke-width:0.0738;stroke-linejoin:round"
         id="line135"
         y2="143.026"
         x2="123.026"
         y1="188.604"
         x1="116.236" /><path
         inkscape:connector-curvature="0"
         style="fill:#b2b2b2;stroke:#000000;stroke-width:0.0738"
         id="path137"
         d="m 193.729,180.15 c 0,0 -2.167,-0.289 -3.431,-1.592 -0.91,-0.937 -2.316,-4.189 -2.316,-4.189 -1.943,-4.363 -4.663,-8.476 -9.348,-8.476 -4.679,0 -10.037,5.407 -11.979,9.779 0,0 -0.335,0.648 -0.73,0.937 -0.396,0.289 -1.156,0.22 -1.156,0.22 H 68.496 c -1.882,0 -3.42,1.467 -3.533,3.321 v -0.005 c 0.112,1.855 1.651,3.328 3.533,3.328 h 96.273 c 0,0 0.76,-0.075 1.156,0.212 0.396,0.289 0.73,0.938 0.73,0.938 1.941,4.372 7.3,9.783 11.979,9.783 4.685,0 7.404,-4.108 9.348,-8.479 0,0 1.406,-3.254 2.316,-4.191 1.264,-1.297 3.431,-1.586 3.431,-1.586 z" /><path
         inkscape:connector-curvature="0"
         style="fill:none;stroke:#000000;stroke-width:0.0738;stroke-linecap:round"
         id="path139"
         d="m 66.8,177.732 c 0.612,-0.582 1.477,-0.545 1.877,-0.545 h 96.741 c 0,0 0.902,-0.105 1.12,-0.289 0.414,-0.349 0.541,-0.65 0.541,-0.65 1.694,-3.862 7.269,-9.641 11.555,-9.641 4.285,0 6.936,3.898 8.633,7.762 0,0 0.521,1.327 1.152,2.621 m -21.815,5.468 0.908,1.264 c 1.7,3.867 6.836,9.963 11.122,9.963 4.285,0 6.936,-3.894 8.633,-7.757 0,0 1.083,-2.746 2.02,-4.191 0.883,-1.354 2.096,-1.586 2.096,-1.586 -0.11,0 0.76,0 0.76,0 -1.228,0.433 -2.169,1.013 -2.169,1.013" /><path
         inkscape:connector-curvature="0"
         id="path141"
         d="m 190.335,180.15 c 0,0 -0.939,0.354 -1.298,1.229 -1.161,2.74 -3.106,3.243 -4.192,4.548 -1.084,1.299 -1.731,2.594 -2.815,3.61 -1.184,1.101 -3.396,0.866 -3.396,0.866 0,0 2.026,-0.939 2.677,-1.299 0.645,-0.362 1.655,-1.59 1.729,-2.389 0.073,-0.789 0,-2.159 0,-2.159 0,0 3.536,-0.294 4.191,-1.159 0.645,-0.866 1.298,-3.248 1.298,-3.248 h 1.806 m -21.738,0.001 h -1.375 c 0,0 1.809,-2.819 2.743,-3.902 0.944,-1.083 2.17,-2.819 2.677,-3.537 0.502,-0.724 1.227,-2.169 1.227,-2.169 l 1.009,1.156 -1.084,4.116 -3.464,1.084 -1.733,3.252" /><path
         inkscape:connector-curvature="0"
         style="fill:#b2b2b2;stroke:#000000;stroke-width:0.0738"
         id="path143"
         d="m 173.47,175.456 c -0.06,-0.259 -0.022,-0.093 -0.037,-0.359 -0.133,-2.628 1.886,-4.864 4.51,-5.001 2.619,-0.126 4.852,1.892 4.984,4.51 0.015,0.274 0.029,0.542 0,0.801 0.241,-0.055 0.518,-0.086 0.774,-0.098 2.619,-0.133 4.853,1.879 4.985,4.505 0.134,2.618 -1.883,4.856 -4.502,4.989 -0.265,0.014 -0.682,-0.004 -0.93,-0.035 0.037,0.249 0.134,0.608 0.134,0.871 0,2.621 -2.132,4.751 -4.755,4.751 -2.623,0 -4.758,-2.13 -4.758,-4.751 0,-0.259 0.02,-0.532 0.064,-0.776 -0.264,0.038 -0.523,0.038 -0.797,0.038 -2.626,0 -4.754,-2.127 -4.754,-4.75 0,-2.624 2.128,-4.759 4.754,-4.759 0.275,0 0.066,0.018 0.328,0.064 z" /><path
         inkscape:connector-curvature="0"
         style="fill:#124471;stroke:#000000;stroke-width:0.0738"
         id="path145"
         d="m 182.007,183.528 c 0.631,0.353 1.36,0.542 2.133,0.498 2.194,-0.11 3.888,-1.981 3.772,-4.171 -0.11,-2.2 -1.977,-3.889 -4.172,-3.775 -0.771,0.036 -1.492,0.307 -2.077,0.714 0.358,-0.631 0.531,-1.359 0.491,-2.145 -0.111,-2.197 -1.982,-3.885 -4.173,-3.771 -2.194,0.109 -3.884,1.979 -3.774,4.173 0.028,0.483 0.14,0.944 0.313,1.363 -0.428,-0.16 -0.894,-0.245 -1.377,-0.245 -2.197,0 -3.979,1.779 -3.979,3.98 0,2.193 1.781,3.977 3.979,3.977 0.787,0 1.507,-0.203 2.116,-0.603 -0.375,0.609 -0.606,1.348 -0.606,2.114 0,2.199 1.78,3.978 3.98,3.978 2.193,0 3.979,-1.778 3.979,-3.978 0.002,-0.773 -0.221,-1.496 -0.605,-2.109 z" /><path
         inkscape:connector-curvature="0"
         style="fill:none;stroke:#000000;stroke-width:0.0738;stroke-linecap:round"
         id="path147"
         d="m 66.8,182.566 c 0.612,0.58 1.477,0.546 1.877,0.546 h 96.741 c 0,0 0.902,0.105 1.12,0.286 0.414,0.349 0.541,0.649 0.541,0.649" /><path
         inkscape:connector-curvature="0"
         id="path149"
         d="m 167.909,184.558 c 0,0 -0.791,-1.697 -1.588,-2.025 -0.792,-0.327 -2.383,-0.218 -2.383,-0.218 H 67.704 c -0.614,0 -1.952,-0.794 -1.952,-1.842 0,0 0.794,1.194 1.952,1.264 h 96.234 c 0,0 1.987,-0.146 2.564,0.289 0.578,0.432 1.407,2.532 1.407,2.532" /><path
         inkscape:connector-curvature="0"
         style="fill:#b2b2b2;stroke:#000000;stroke-width:0.0738"
         id="path151"
         d="m 161.953,185.569 c 0.721,0 1.298,-0.587 1.298,-1.306 v -9.928 c 0,-0.716 -0.577,-1.299 -1.298,-1.299 -0.72,0 -1.297,0.583 -1.297,1.299 v 9.928 c 0,0.719 0.577,1.306 1.297,1.306 z" /><path
         inkscape:connector-curvature="0"
         style="fill:none;stroke:#000000;stroke-width:0.0738"
         id="path153"
         d="m 160.656,183.868 c 0,0.714 0.577,1.303 1.297,1.303 0.721,0 1.298,-0.589 1.298,-1.303 m -2.595,-8.915 c 0,-0.723 0.577,-1.306 1.297,-1.306 0.721,0 1.298,0.583 1.298,1.306" /><path
         inkscape:connector-curvature="0"
         style="stroke:#000000;stroke-width:0.0738"
         id="path155"
         d="m 163.25,182.896 c 0,0.718 -0.577,1.299 -1.298,1.299 -0.72,0 -1.297,-0.581 -1.297,-1.299 v 0.251 c 0,0.716 0.577,1.301 1.297,1.301 0.721,0 1.298,-0.585 1.298,-1.301 z" /><path
         inkscape:connector-curvature="0"
         style="fill:#94693c"
         id="path157"
         d="m 78.36,176.563 c 0.115,-0.238 0.221,-0.479 0.327,-0.728" /><path
         inkscape:connector-curvature="0"
         style="fill:#94693c;stroke:#000000;stroke-width:0.0738"
         id="path159"
         d="m 65.362,172.526 c 2.197,0.686 4.51,-0.869 6.355,-2.199 l 0.29,0.402 c -0.808,3.177 -0.579,6.82 -1.792,9.822 l 1.501,0.176 0.173,-0.577 c 1.084,-0.63 2.376,-1.452 3.475,-2.451 0,0 3.535,-1.499 3.288,-1.536 l 1.27,-2.774 c 3.292,-2.429 5.025,-5.893 6.76,-9.185 3.409,-8.608 5.37,-18.029 5.832,-27.739 0,0 0.927,-0.398 1.1,-0.11 0.234,0.089 2.49,-0.215 2.93,-1.009 l 1.808,0.43 2.371,-0.118 c 1.634,-0.416 2.312,-1.466 2.625,-2.75 l 1.388,-0.137 3.093,-2.688 c -0.801,-0.994 -1.27,-1.643 -2.123,-2.886 0,0 -4.78,-6.126 -6.196,-17.825 -0.781,-6.464 0.816,-17.769 0.816,-17.769 H 102.4 C 99.915,90.449 96.967,89.032 95.292,86.545 94.078,80.133 99.336,74.473 96.68,68.232 91.996,60.607 81.714,60.086 74.207,62.857 61.55,70.312 60.97,85.218 58.718,98.218 l -2.076,29.529 c -0.522,7.223 0.401,14.501 -0.292,21.605 1.732,-0.573 3.465,-1.617 4.679,-3.178 1.042,4.855 0.463,10.346 0,15.251 2.427,-0.052 4.451,-1.849 5.72,-3.75 l 0.288,0.286 c -0.173,4.854 -0.805,9.476 -1.963,13.868 z m 127.286,-28.255 c -5.319,-16.582 -2.776,-35.36 -6.126,-52.696 l 0.289,-1.266 c -1.041,-6.418 -4.159,-12.02 -6.241,-18.028 -2.426,-5.027 -4.792,-10.865 -10.4,-13.869 -3.698,-3.175 -9.42,-1.62 -13.691,-0.805 -4.22,1.79 -10.287,4.909 -10.167,10.513 -0.175,4.566 2.309,8.032 2.771,12.365 -0.115,5.255 -6.384,9.041 -9.969,11.121 h 6.558 c 0,0 1.343,5.617 1.102,12.868 -0.222,6.854 -1.299,14.55 -6.047,22.134 -0.152,0.242 -2.175,3.275 -5.543,6.981 l 6.851,2.392 0.574,-1.844 c 0.163,0.293 0.402,0.288 0.685,0.436 0.665,0.354 1.658,0.164 2.425,0.238 l 1.458,-0.133 c 0.868,-0.286 1.675,-0.982 1.907,-1.962 l 0.869,0.286 0.4,0.29 c 0.811,0.117 2.14,0.464 2.66,-0.29 l 1.097,1.792 0.695,3.062 c 3.694,9.594 4.042,21.208 13.574,27.732 l 0.811,0.403 1.673,0.697 4.455,6.524 c 1.266,1.623 2.886,2.488 4.444,3.467 0.65,0.096 1.594,1.997 2.072,1.451 l 0.704,-1.853 -1.274,-6.646 c 0.972,0.424 2.094,0.355 2.999,0.641 l 1.453,-1.214 c -1.273,-4.044 -1.967,-8.437 -2.661,-12.772 v -0.895 c 3.454,2.227 4.852,0.493 4.852,0.493 -1.094,-4.336 -1.789,-9.709 -2.077,-14.851 l 0.617,-0.183 c 0.413,0.974 0.937,1.887 1.639,2.725 0.75,0.75 1.733,1.329 2.772,1.099 z" /><path
         inkscape:connector-curvature="0"
         style="fill:#ffffff;stroke:#000000;stroke-width:0.0738;stroke-linecap:square;stroke-miterlimit:2"
         id="path161"
         d="m 134.838,91.604 c -0.172,-1.201 -0.836,-3.264 -1.243,-4.651 0.469,-2.024 -1.444,-3.928 -0.692,-5.775 -1.271,-3.472 -1.557,-6.935 -1.674,-10.69 -0.526,-2.313 -0.635,-4.797 -1.562,-6.935 -1.096,-2.48 -4.368,-3.33 -6.354,-3.756 -1.984,-0.426 -5.142,-0.576 -5.142,-0.576 -0.922,-0.082 -2.5,0.497 -2.372,1.192 1.126,1.726 0.977,3.421 0.689,4.823 l -2.751,0.703 c 2.297,0.582 4.591,2.329 4.361,3.528 -0.345,1.048 -2.076,1.228 -2.298,1.02 0,0 -3.177,-2.823 -3.589,-2.944 -0.415,-0.114 -1.572,-0.966 -1.392,-0.739 0.092,0.107 1.157,1.472 1.949,2.258 0.753,0.746 1.136,1.857 1.136,1.857 0.717,0.742 1.065,1.364 0.972,2.862 l -0.979,2.77 -0.695,2.661 c 0,1.388 -1.561,2.654 -1.386,4.157 -0.521,1.097 -1.271,2.369 -0.982,3.47 l -1.964,4.765 z"
         stroke-miterlimit="2" /><path
         inkscape:connector-curvature="0"
         style="fill:#e0af35;stroke:#e0af35;stroke-width:0.0738;stroke-linecap:square;stroke-miterlimit:2"
         id="path163"
         d="m 115.8,60.413 c 1.083,1.726 1.017,3.388 0.689,4.823 l -2.751,0.703 c 2.297,0.582 4.591,2.329 4.361,3.528 -0.345,1.048 -2.076,1.228 -2.298,1.02 0,0 -3.177,-2.823 -3.589,-2.944 -0.415,-0.114 -1.572,-0.966 -1.392,-0.739 0.092,0.107 1.157,1.472 1.949,2.258 0.753,0.746 1.136,1.857 1.136,1.857 -4.748,-2.609 -6.519,-2.943 -6.519,-2.943 l -0.67,0.795 c -0.264,-2.77 -0.989,-5.372 0.579,-7.66 1.574,-1.68 5.669,-1.098 8.505,-0.698 z"
         stroke-miterlimit="2" /><path
         inkscape:connector-curvature="0"
         style="fill:none;stroke:#000000;stroke-width:0.0738;stroke-linecap:square;stroke-miterlimit:2"
         id="path165"
         d="m 113.904,70.92 c -4.782,-2.354 -6.519,-2.943 -6.519,-2.943 l -0.67,0.795 c -0.264,-2.77 -0.989,-5.372 0.579,-7.66 1.576,-1.681 5.671,-1.1 8.507,-0.699"
         stroke-miterlimit="2" /><path
         inkscape:connector-curvature="0"
         id="path167"
         d="m 114.01,76.725 c 0.982,-1.267 1.757,-2.489 2.256,-4.445 -0.232,-0.178 -0.232,-0.408 -0.466,-0.578 -0.43,0.185 -0.461,1.615 -0.631,2.368 l -1.159,2.655 m -2.113,-9.189 c 0,0 2.667,1.946 3.929,3.146 1.067,0.267 2.235,-0.227 2.545,-1.35 -0.021,-0.589 -0.852,-1.653 -1.964,-2.398 -0.439,-0.192 -0.977,-0.559 -1.477,-0.754 0.948,0.824 2.969,1.811 2.529,3.576 -0.885,0.843 -1.358,0.522 -1.862,0.075 l -3.7,-2.295 m 1.385,-0.213 3.25,1.488 c 0.017,-0.007 0.678,0.007 0,-0.217 -2.598,-1.154 -4.797,-4.161 -7.857,-2.889 -1.042,0.582 -1.496,2.144 -1.959,3.067 l 0.643,-0.774 c 0,0 0.777,-1.32 1.274,-1.483 2.117,-0.692 3.379,0.141 3.379,0.141 l 1.27,0.667 m 2.298,-2.221 c -0.117,0.184 0.241,0.604 0.068,0.684 -0.508,0.246 -1.911,0.16 -2.583,0 0.392,-0.111 1.762,-1.208 2.515,-0.684 m -6.2,-4.071 c -1.633,1.145 -1.778,2.408 -2.418,4.198 -0.174,-2.137 0.497,-4.46 2.418,-4.198 m 3.667,9.218 c -2.375,-1.825 -2.697,-1.864 -5.311,-2.862 0,0 0.161,-0.23 0.294,-0.422 2.718,1.062 3.78,2.077 3.78,2.077 l 1.237,1.207 m 3.442,-6.132 0.189,0.537 c 1.192,-1.301 0.606,-2.771 -0.878,-4.241 l 0.529,1.442 c 0.49,1.63 0.064,1.839 0.16,2.262" /><path
         inkscape:connector-curvature="0"
         style="stroke:#000000;stroke-width:0.0738;stroke-linecap:square;stroke-miterlimit:2"
         id="path169"
         d="m 116.776,65.311 c 1.215,-0.175 1.278,1.942 2.781,1.824 1.214,0.061 2.312,-0.737 2.912,-1.97 0.979,0.113 1.817,0.228 2.664,-0.221 l 0.148,-0.177 c -0.859,0.318 -1.808,0.142 -2.759,-0.16 -1.193,-0.381 -2.391,-1.243 -3.398,-1.247 -1.014,-0.07 -1.439,0.622 -1.907,1.651 z"
         stroke-miterlimit="2" /><path
         inkscape:connector-curvature="0"
         style="fill:#ffffff"
         id="path171"
         d="m 118.822,64.288 c -0.056,0.636 -0.241,1.281 0.593,1.609 1.048,0.212 1.189,-0.434 1.424,-1.162 0.131,-0.075 0.869,0.194 0.877,0.295 -0.104,0.465 -0.46,1.263 -1.174,1.555 -0.511,0.138 -0.896,0.164 -1.356,-0.018 -0.704,-0.267 -1.303,-1.214 -1.303,-1.771 -0.116,-0.349 0.59,-0.618 0.939,-0.508" /><path
         inkscape:connector-curvature="0"
         id="path173"
         d="m 109.877,91.604 c 0.685,-0.134 1.251,-0.838 1.938,-1.009 0.289,0.344 -1.157,0.661 -0.87,1.009 h -1.068 m 5.593,0 c 0.688,-0.232 1.604,-1.417 2.412,-1.417 0.464,0.352 -0.725,0.898 -0.552,1.417 h -1.86 m 8.436,0 c 0.579,-0.292 1.314,-1.47 2.064,-1.295 0.691,0.23 0.018,0.748 -0.273,1.295 h -1.791 m 8.088,0 -0.521,-0.795 c -0.058,-0.289 -0.651,-0.731 -0.419,-0.91 0.636,0.409 0.636,0.91 1.784,1.705 h -0.844 m -13.13,-10.603 c -0.576,0.639 -1.388,0.922 -2.194,0.982 -0.522,0.117 -0.871,-0.169 -1.271,-0.403 v -0.289 c 0.98,0.231 1.732,0.522 2.655,0 0.292,-0.113 0.463,-0.403 0.81,-0.29 m 5.433,-0.461 c -1.271,2.183 -2.066,1.825 -3.54,0.578 -0.288,-0.117 1.516,0.508 1.948,0.33 l 1.592,-0.908 m 3.173,7.8 c -0.865,0.174 -1.559,1.445 -2.48,0.579 -0.579,-0.461 -0.984,-1.04 -0.867,-1.79 0.867,0.575 1.737,0.75 2.657,0.288 0.863,-1.332 2.369,-1.792 2.369,-3.465 0.4,1.555 -0.755,3.177 -1.679,4.388 m -7.336,0.693 c -0.634,-0.17 -1.5,0.404 -2.253,0 -0.75,-0.519 -0.632,-1.442 -0.924,-2.194 0.924,0.98 1.677,1.271 2.774,1.098 0.923,-1.042 2.425,-2.139 3.005,-3.47 -0.524,1.676 -1.501,3.177 -2.602,4.566 m -6.642,0 c -0.521,-0.462 -1.04,0.347 -1.559,-0.114 -0.292,-0.922 -0.579,-2.023 -0.292,-3.06 0.406,0.687 0.115,1.785 1.154,2.078 1.563,0.173 1.677,-1.738 2.891,-2.199 -0.172,1.336 -1.615,2.141 -2.194,3.295 m -52.576,5.028 c 2.943,-5.951 4.908,-12.363 6.238,-19.01 -1.505,6.589 -2.541,13.346 -6.238,19.01" /><path
         inkscape:connector-curvature="0"
         style="fill:#94693c"
         id="path175"
         d="m 98.76,104.465 c -0.522,-0.523 -0.234,-1.562 0.288,-2.088 l -0.288,2.088" /><path
         inkscape:connector-curvature="0"
         id="path177"
         d="m 60.084,125.191 c -0.528,6.326 -0.968,12.671 -1.136,19.08 1.494,-6.038 1.91,-12.574 2.258,-19.08 h -1.122 m 6.413,0 c -0.017,0.748 -0.028,1.506 -0.039,2.267 -0.461,1.788 -1.903,3.178 -2.656,4.85 -2.424,5.2 -1.384,11.963 -6.76,15.83 0.522,0.754 0.984,-0.171 1.501,-0.284 3.928,-2.199 3.296,-7.055 5.259,-10.4 0.232,5.196 0.057,10.803 0.694,15.654 1.618,-5.777 0.521,-12.477 0.463,-18.543 0.576,-2.085 1.734,-3.929 3.001,-5.725 0.046,-1.222 0.085,-2.435 0.125,-3.649 h -1.588 m 6.831,0 c -0.233,4.194 -0.534,8.352 -1.033,12.378 -2.137,2.424 -2.716,5.541 -3.178,8.605 -2.082,4.855 -1.62,11.15 -7.223,14.153 l -0.173,0.406 c 2.429,-0.113 4.448,-2.948 5.549,-4.851 1.097,-3.004 2.134,-6.007 3.233,-9.015 0.291,5.951 -0.462,12.193 -0.982,17.91 2.43,-6.583 2.369,-14.56 2.082,-21.896 0.287,-1.676 0.867,-3.296 2.368,-4.334 0,0 0.26,-6.259 0.554,-13.359 h -1.197 m 7.082,0.003 c -0.234,7.375 -0.768,14.789 -1.471,21.964 -3.696,5.725 -5.259,12.307 -6.643,19.015 -0.578,2.653 -3.235,4.56 -5.547,5.66 h -1.675 l 0.289,0.696 c 2.659,0.224 4.679,-1.216 6.646,-2.777 -0.347,-2.197 1.672,-3.468 2.081,-5.372 0.925,-2.662 1.211,-5.607 2.653,-8.092 -0.579,5.376 -1.038,10.918 -1.846,15.95 1.559,-2.717 1.559,-6.182 2.254,-9.245 0.521,-4.162 1.211,-8.147 1.503,-12.365 l 1.964,-1.963 c 0,0 0.531,-13.001 0.965,-23.471 H 80.41 m 5.595,0 c -0.372,10.244 -1.019,20.885 -1.633,31.094 -4.739,4.914 -3.238,12.363 -6.702,17.798 -0.265,1.375 -1.18,2.59 -2.305,3.616 l 3.322,-1.864 c 2.137,-4.912 3.679,-10.57 5.224,-15.909 l 2.364,-2.775 c 0.458,-11.11 0.916,-21.534 1.059,-31.959 h -1.329 m 6.626,-10e-4 c -0.242,3.824 -0.693,7.694 -0.117,11.274 l 0.551,-0.054 c 0.547,-3.344 0.632,-7.374 0.756,-11.22 h -1.19 m 2.819,0 c -0.201,2.841 -0.579,5.699 -0.852,8.503 0,0 0.406,0.214 0.456,0.021 0.746,-2.633 0.884,-5.687 0.969,-8.524 H 95.45 m 2.81,0 c -0.101,3.645 -0.591,8.107 -1.716,10.155 l 1.808,0.43 c 0.606,-3.439 0.799,-6.921 0.911,-10.584 H 98.26 m 3.12,-10e-4 c -0.182,2.738 -0.583,5.482 -0.658,8.1 0.902,-2.149 1.19,-5.197 1.361,-8.1 h -0.703 m 2.986,0 c 0.033,0.059 0.047,0.1 0.047,0.1 -0.425,1.577 -0.654,5.908 -1.065,7.617 l 2.258,2.028 c 0,-1.382 5.916,-0.734 5.916,-0.734 -3.025,-3.049 -5.302,-6.067 -7.013,-9.01 h -0.143 m 0.142,-10e-4 c -3.977,-6.829 -4.914,-13.205 -5.184,-18.446 -0.106,-4.21 0.156,-7.556 0.156,-7.556 l -1.243,3.31 c -1.501,0.923 -2.774,0.169 -4.161,-0.405 -0.75,-1.04 -1.964,-2.138 -1.271,-3.584 0.46,-0.752 1.04,-1.153 1.501,-1.675 -1.332,0.461 -3.061,2.308 -4.68,0.806 -0.688,-1.673 -2.195,-3.174 -1.384,-5.255 0.461,-0.631 0.634,-1.446 1.384,-1.967 -0.75,-0.17 -1.673,0.461 -2.364,-0.23 -1.041,-1.617 -0.867,-3.348 -0.696,-5.313 0.637,-0.692 0.983,-1.387 1.79,-1.793 -0.924,-0.404 -2.199,-1.267 -2.082,-2.598 0.174,-2.888 0.988,-5.547 3.064,-7.627 l -0.113,-0.171 c -2.43,2.195 -5.493,3.927 -8.786,2.773 -1.1,-0.464 -1.211,-1.676 -1.502,-2.602 -1.555,2.602 -4.675,3.239 -7.627,3.465 -1.615,-0.113 -2.541,-1.968 -4.041,-2.364 0.689,1.149 1.905,2.655 3.233,3.466 -0.576,6.178 -2.888,11.61 -5.545,16.93 -1.33,1.614 -3.638,1.385 -5.549,1.789 0.694,0.984 2.312,0.752 3.008,1.79 -0.614,9.124 -1.57,18.172 -2.333,27.259 h 1.122 c 0.242,-4.578 0.454,-9.141 0.977,-13.507 l 0.695,-13.752 2.771,-1.502 2.488,2.603 c -0.905,8.738 -1.47,17.188 -1.64,26.159 h 1.587 c 0.264,-8.33 0.409,-16.553 0.859,-25.18 0.693,-0.518 1.968,-0.176 2.66,-0.286 0.692,1.728 1.446,3.466 2.887,4.74 -0.576,6.643 -0.771,13.727 -1.162,20.726 h 1.197 c 0.387,-9.296 0.832,-20.037 0.832,-20.037 0.173,-0.349 0.521,-0.288 0.805,-0.288 0.869,2.308 1.275,5.774 4.278,6.238 0.135,4.634 0.11,9.354 -0.031,14.087 h 1.172 c 0.291,-7.07 0.535,-12.986 0.535,-12.986 0.81,1.324 1.851,3.462 3.758,3.353 h 0.4 c -0.053,3.15 -0.149,6.374 -0.27,9.634 h 1.329 c 0.035,-2.746 0.057,-5.49 0.042,-8.249 1.563,0.81 2.83,2.772 5.028,2.19 l 0.288,0.409 c 0.132,1.847 0.068,3.743 -0.06,5.649 h 1.19 c 0.056,-1.861 0.123,-3.682 0.255,-5.363 0.404,0.174 1.214,0.637 1.502,1.271 0.019,1.353 -0.037,2.721 -0.129,4.091 h 0.572 c 0.039,-1.292 0.067,-2.546 0.136,-3.682 l 2.08,0.401 c 0.046,0.919 0.057,2.055 0.022,3.281 h 1.003 c 0.027,-0.891 0.046,-1.789 0.073,-2.706 l 2.081,-1.56 c 0.099,1.406 0.061,2.837 -0.036,4.265 h 0.703 c 0.088,-1.549 0.149,-3.058 0.241,-4.375 0,0 1.737,3.72 2.041,4.375 h 0.144" /><path
         inkscape:connector-curvature="0"
         style="fill:#94693c;stroke:#000000;stroke-width:0.0738"
         id="path179"
         d="m 98.352,173.389 c -0.806,-0.177 -1.559,-0.29 -2.368,-0.465 3.177,-12.077 3.699,-25.42 7.107,-37.267 1.212,-1.038 0.867,-3.317 5.892,-3.925 0.321,0.747 -3.149,0.607 -3.81,2.371 3.406,-2.199 5.311,-1.389 7.335,0.171 6.182,4.678 2.195,13.633 2.368,20.107 l -0.46,0.977 -0.405,13.582 c -0.749,1.387 -0.287,3.295 -0.404,4.966 -1.502,-0.461 -3.292,-2.249 -5.142,-0.982 h -0.521 z m 6.653,-47.406 -1.047,7.15 c 0,0 2.312,-1.375 2.962,-1.591 0.649,-0.212 1.984,-0.176 1.984,-0.176 0,0 -1.516,-1.845 -2.055,-2.564 -0.543,-0.723 -1.844,-2.819 -1.844,-2.819 z" /><path
         inkscape:connector-curvature="0"
         id="path181"
         d="m 84.202,167.664 c -0.931,1.104 -1.506,2.432 -2.778,3.178 0.693,-2.479 3.005,-4.91 4.044,-7.621 3.697,-8.323 5.315,-17.566 6.069,-27.154 0.458,11.381 -2.198,22.181 -7.335,31.597 M 94.307,82.677 c -0.401,2.197 0,4.396 1.272,6.125 -3.584,-3.063 -1.965,-7.624 -1.386,-11.558 0.693,-2.77 2.599,-5.774 1.271,-8.724 3.004,4.566 -1.096,9.306 -1.157,14.157" /><path
         inkscape:connector-curvature="0"
         style="fill:#94693c"
         id="path183"
         d="m 80.441,77.536 c -1.211,7.049 -4.738,13.117 -9.013,18.894 -0.808,0.749 -2.136,0.806 -3.177,0.405 -0.753,-0.351 -1.443,-1.153 -1.906,-1.793 2.081,-5.486 4.222,-10.979 5.083,-16.922 2.719,0.284 4.852,-1.506 6.932,-2.952 0.409,0.927 1.39,1.614 2.081,2.368 m 6.008,6.125 c -1.036,1.964 -2.02,4.219 -1.385,6.527 -2.774,4.047 -4.854,8.784 -9.012,11.906 -1.449,0.688 -2.6,-0.754 -3.061,-1.794 -1.853,-3.87 3,-6.299 3.867,-9.705 2.02,-4.104 3.758,-8.265 4.742,-12.769 1.906,0.171 3.464,-0.638 4.849,-1.796 -0.636,2.259 -2.538,5.723 0,7.631" /><path
         inkscape:connector-curvature="0"
         id="path185"
         d="m 74.895,85.453 c -0.578,-0.468 0,-1.332 0.174,-1.965 0.809,-1.621 1.272,-3.411 1.672,-5.259 l 0.117,0.407 -1.963,6.817 m 2.543,12.365 c -1.04,0.751 -1.675,2.364 -3.232,1.789 -0.291,-1.157 1.269,-0.925 1.847,-1.559 3.177,-4.797 5.66,-9.938 7.859,-15.253 -1.739,5.202 -4.107,10.112 -6.474,15.023 m 10.805,-10.284 2.195,-1.391 c -0.232,1.04 -1.329,1.213 -2.195,1.391 m -15.542,4.041 c -1.041,1.215 -1.215,3.466 -3.064,4.163 2.023,-2.661 3.237,-6.183 4.452,-9.477 0.401,2.079 -1.215,3.177 -1.388,5.314" /><path
         inkscape:connector-curvature="0"
         style="fill:#94693c"
         id="path187"
         d="m 87.55,97.64 c 0.461,0.869 2.194,0.869 1.677,2.085 -2.316,3.291 -3.988,7.217 -7.397,9.705 -1.737,0.694 -3.008,-1.273 -3.987,-2.367 -0.521,-0.929 -0.75,-1.909 -0.867,-3.009 4.101,-3.524 5.894,-8.26 8.61,-12.479 2.539,1.04 0.289,4.275 1.964,6.065" /><path
         inkscape:connector-curvature="0"
         id="path189"
         d="m 91.019,95.56 2.191,-2.884 c -0.519,1.15 -1.041,2.138 -2.191,2.884 m 5.66,4.565 0.867,-1.907 -0.177,1.214 -0.69,0.693" /><path
         inkscape:connector-curvature="0"
         style="fill:#94693c"
         id="path191"
         d="m 93.906,103.477 h 0.401 v 0.696 l -6.239,9.705 c -0.579,0.574 -1.559,0.695 -2.309,0.404 -1.213,-0.863 -2.779,-2.02 -2.779,-3.582 3.702,-2.713 4.917,-6.989 7.169,-10.575 0.692,1.389 1.733,3.526 3.757,3.352" /><path
         inkscape:connector-curvature="0"
         id="path193"
         d="M 80.441,107.349 H 79.23 c -0.291,-0.867 1.098,-0.52 1.504,-1.097 1.614,-1.737 2.829,-3.64 4.041,-5.543 -1.042,2.365 -2.541,5.08 -4.334,6.64" /><path
         inkscape:connector-curvature="0"
         style="fill:#94693c"
         id="path195"
         d="m 97.369,104.749 c -0.345,1.963 2.487,2.777 1.562,4.854 -2.082,2.481 -2.833,5.777 -5.142,8.318 -1.62,1.273 -3.005,-0.578 -4.335,-1.27 -0.344,-0.461 -0.577,-0.984 -0.689,-1.497 3.06,-3.125 4.562,-6.821 6.409,-10.405 0.635,0.579 1.447,0 2.195,0" /><path
         inkscape:connector-curvature="0"
         id="path197"
         d="m 86.854,112.376 c -0.518,0.349 -0.979,0.752 -1.673,0.692 2.134,-1.677 3.696,-4.449 5.142,-6.817 l -3.469,6.125" /><path
         inkscape:connector-curvature="0"
         style="fill:#94693c"
         id="path199"
         d="m 100.598,115.281 c -0.184,0.947 -1.132,2.062 -2.13,2.64 -0.461,-0.117 -0.865,0.058 -1.21,0.407 -0.117,0.23 0.111,0.404 0.288,0.518 0.923,0 1.733,-0.401 2.486,-0.925 0.23,-0.403 0.674,-0.898 0.909,-1.297 0.087,0.719 0.454,1.487 0.688,2.318 -0.127,0.191 -0.986,0.646 -1.311,0.773 -1.675,1.328 -3.581,0 -5.027,-0.869 l -0.405,-0.401 4.702,-8.661 c 0.079,1.697 0.613,3.778 1.01,5.497" /><path
         inkscape:connector-curvature="0"
         id="path201"
         d="m 90.438,116.246 c 2.485,-0.979 3.408,-3.757 4.736,-5.838 -1.268,2.081 -1.445,5.955 -4.736,5.838 m -6.762,-43.39 c 0.526,-0.984 0.636,-2.137 1.62,-2.947 0.229,1.157 -0.75,2.08 -1.62,2.947 m 4.68,5.546 c -0.057,-1.037 1.097,-1.327 1.675,-2.372 -0.057,0.695 -1.21,1.619 -1.675,2.372 m 58.416,26.112 c -0.147,2.959 0.443,16.778 -11.61,29.029 l 6.871,2.437 0.574,-1.844 c 0.163,0.293 0.402,0.288 0.685,0.436 0.665,0.354 0.501,0.238 1.271,0.307 l 2.612,-0.201 c 0.868,-0.286 1.675,-0.982 1.907,-1.962 l 0.869,0.286 0.4,0.29 c 0.811,0.117 2.14,0.464 2.66,-0.29 l 1.097,1.792 0.695,3.062 c 3.694,9.594 4.042,21.208 13.574,27.732 l 0.811,0.403 1.673,0.697 4.455,6.524 c 1.266,1.623 2.886,2.488 4.444,3.467 0.65,0.096 1.594,1.997 2.072,1.451 l 0.704,-1.853 -1.274,-6.646 c 0.972,0.424 2.094,0.355 2.999,0.641 l 1.453,-1.214 -0.695,0.175 c -1.444,-0.7 -3.293,-0.929 -4.563,-2.256 -5.666,-6.13 -4.625,-15.021 -10.399,-21.088 -2.197,-11.907 -2.947,-24.444 -4.742,-36.575 1.85,-1.731 1.218,-5.141 4.162,-5.837 1.908,10.462 1.908,21.724 3.176,32.471 1.156,0.463 2.313,1.211 3.062,2.313 0.636,8.726 1.679,17.272 5.03,24.843 -0.405,-2.947 -1.445,-5.953 -1.852,-9.013 L 177.795,143.4 c 1.444,4.454 2.207,9.962 5.258,11.991 3.307,2.198 4.852,0.493 4.852,0.493 -0.517,-0.696 -0.979,-0.234 -1.614,-0.525 -9.478,-3.519 -4.685,-15.712 -11.963,-21.377 l -2.599,-28.022 -0.578,-3.983 c 1.041,-1.907 1.385,-4.102 1.791,-6.239 l 2.947,-0.868 0.234,1.79 1.554,30.099 1.391,0.988 c 0.867,6.988 0.867,14.501 3.584,20.681 -1.732,-5.833 -1.791,-12.884 -2.082,-19.298 3.989,2.95 3.005,8.15 5.258,11.903 l 0.617,-0.183 c -2.166,-5.161 -1.087,-11.715 -6.971,-15.069 -0.695,-10.806 -1.391,-21.608 -2.081,-32.416 0.345,-0.633 0.464,-1.385 0.981,-1.963 0.748,1.792 3.006,2.138 4.679,2.081 1.792,14.561 1.849,29.814 5.319,43.677 -1.906,-14.439 -3.007,-29.576 -4.452,-44.37 0.865,-0.348 1.794,-0.926 2.37,-1.79 -0.229,-0.522 0.402,-0.813 0,-1.272 -1.445,1.272 -3.292,2.367 -5.142,1.674 l -1.559,-1.674 c -3.063,-5.489 -5.549,-11.269 -8.034,-17.042 0.75,0.284 2.195,0.171 3.063,-0.405 1.041,-0.93 1.963,-2.085 2.486,-3.352 -1.562,1.267 -4.102,2.421 -6.244,1.559 l -0.287,-0.292 c -2.657,2.028 -6.293,3.875 -9.824,2.49 -0.633,1.668 -1.156,3.867 -3.174,4.446 l -1.559,0.113 c 0.402,0.984 1.442,2.024 1.968,3.064 0.344,1.675 0.63,4.044 -0.296,5.551 -0.574,1.614 -3.698,0.687 -2.482,3.06 0.175,1.676 0.346,3.636 -0.691,4.972 -1.504,1.612 -3.413,3.003 -5.26,2.769 -0.289,1.559 -2.472,4.45 -2.472,4.45 0,0 0.076,1.83 -0.011,3.403 m 3.001,-21.837 c 1.966,-6.235 -5.023,-11.498 -1.385,-17.733 -2.022,6.295 5.086,11.498 1.385,17.733 m 14.445,-13.983 -0.117,0.117 c -0.461,-0.291 -0.922,-1.042 -0.693,-1.506 0.292,0.296 0.81,0.757 0.81,1.389" /><path
         inkscape:connector-curvature="0"
         style="fill:#94693c;stroke:#000000;stroke-width:0.0738"
         id="path203"
         d="m 170.057,71.989 c 2.596,5.606 4.733,11.44 7.62,16.93 0.118,1.329 -0.63,2.366 -1.382,3.353 -0.925,0.635 -2.081,1.038 -3.177,0.688 -4.563,-5.485 -7.859,-11.378 -10.862,-17.501 3.059,0.34 5.604,-1.389 7.801,-3.47 z" /><path
         inkscape:connector-curvature="0"
         id="path205"
         d="m 158.094,75.051 c -0.979,0 -2.252,-0.867 -3.291,-1.503 l 0.281,-0.578 c 1.335,-0.175 2.32,1.273 3.01,2.081 m 24.734,11.788 c -1.908,-4.453 -3.876,-9.073 -5.15,-13.58 2.026,4.39 3.353,9.071 5.15,13.58 M 175.025,91 c -1.622,-0.461 -2.257,-2.603 -3.179,-4.047 -1.852,-3.583 -4.164,-6.99 -4.968,-11.093 1.789,5.432 5.775,9.938 8.147,15.14" /><path
         inkscape:connector-curvature="0"
         style="fill:#94693c;stroke:#000000;stroke-width:0.0738"
         id="path207"
         d="m 171.556,94.061 c 0.464,2.081 -0.116,4.048 -1.101,5.665 -0.866,1.094 -2.018,1.906 -3.346,1.559 -3.236,-3.989 -6.36,-8.032 -8.438,-12.482 -0.29,-1.098 0.691,-2.02 0.81,-3.063 0.345,-2.195 -0.404,-3.985 -0.925,-5.834 1.1,-1.041 1.904,-2.425 2.313,-3.874 3.637,5.835 5.835,12.539 10.687,18.029 z" /><path
         inkscape:connector-curvature="0"
         id="path209"
         d="m 156.188,83.082 c 0.345,0.462 0.581,0.98 0.695,1.563 -1.214,-0.867 -2.661,-1.677 -3.47,-2.948 1.159,-0.174 1.911,0.75 2.775,1.385 m 13.174,15.95 c -0.521,0.803 -1.33,-0.351 -1.68,-0.814 -2.884,-5.024 -6.063,-9.878 -7.735,-15.423 3.174,5.428 5.718,11.096 9.415,16.237 M 152.028,92.79 c -1.677,-1.157 -2.772,-2.833 -3.468,-4.566 2.023,0.517 3.065,2.776 3.468,4.566" /><path
         inkscape:connector-curvature="0"
         style="fill:#94693c"
         id="path211"
         d="m 157.404,89.324 c 2.364,4.85 5.2,9.475 8.895,13.75 0.468,1.852 -0.693,3.061 -1.675,4.275 -0.983,0.808 -2.199,1.157 -3.583,0.984 -2.892,-3.122 -4.681,-6.701 -6.818,-10.114 2.138,-2.424 2.197,-5.776 2.661,-8.894 h 0.52" /><path
         inkscape:connector-curvature="0"
         id="path213"
         d="m 162.424,104.173 c 0.582,0.692 2.143,0.17 1.908,1.499 -0.808,0.462 -1.497,-0.175 -2.192,-0.405 -1.908,-3.001 -3.929,-6.004 -5.257,-9.3 1.674,2.832 3.578,5.372 5.541,8.206" /><path
         inkscape:connector-curvature="0"
         style="fill:#94693c"
         id="path215"
         d="m 152.72,98.335 c 1.736,3.984 4.105,7.745 7.048,11.268 0.179,1.672 -1.153,3.003 -2.486,3.874 -1.323,0.462 -2.825,-0.349 -3.174,-1.676 -1.213,-4.396 -7.106,-7.979 -3.874,-13.06 0.809,-0.113 1.623,-0.232 2.486,-0.406" /><path
         inkscape:connector-curvature="0"
         id="path217"
         d="m 155.788,110.007 c 0.461,0.923 2.361,0.806 1.616,2.197 -1.155,0.171 -2.14,-0.696 -2.601,-1.675 l -3.469,-8.843 4.454,8.321" /><path
         inkscape:connector-curvature="0"
         style="fill:#94693c"
         id="path219"
         d="m 153.531,113.991 c -0.811,1.968 -2.948,2.546 -4.853,2.773 -1.127,-0.078 -3.008,-0.507 -3.272,-1.136 0.367,-1.637 0.944,-4.38 1.146,-6.604 1.502,1.907 1.431,5.952 4.491,6.13 0.464,-0.179 0.233,-0.641 0.291,-0.988 -2.485,-1.097 -3.364,-4.509 -4.696,-6.704 0.181,-1.115 0.146,-2.209 0.226,-3.356 0.241,-0.244 0.749,-0.516 1.296,-0.629 l 5.371,10.514" /><path
         inkscape:connector-curvature="0"
         style="fill:#94693c;stroke:#000000;stroke-width:0.0738"
         id="path221"
         d="m 152.545,117.921 c 1.216,-0.921 1.391,-4.103 3.472,-2.079 l 1.672,-0.285 0.577,1.5 c 1.041,12.189 3.354,24.035 5.374,35.649 3.642,3.233 4.332,7.857 6.242,11.897 -5.315,-3.404 -8.263,-9.358 -10.226,-14.957 -1.852,-4.455 -2.888,-9.188 -4.572,-13.698 0,0 -2.132,-12.248 -2.539,-18.027 z" /><path
         inkscape:connector-curvature="0"
         style="fill:#94693c"
         id="path223"
         d="m 148.388,118.619 c 0.406,3.984 1.328,7.742 2.369,11.494 0.404,-1.733 -0.635,-3.235 -0.696,-5.029 -0.229,-2.021 -0.463,-4.101 -0.979,-6.064 0.463,-0.348 0.979,-0.461 1.56,-0.4 0.755,4.851 1.738,9.644 2.89,14.382 -0.461,-1.038 -1.735,-0.23 -2.487,-0.693 -5.196,-2.66 -2.54,-9.301 -4.446,-13.689 l 0.172,-0.698 1.617,0.697" /><path
         inkscape:connector-curvature="0"
         style="fill:#94693c;stroke:#000000;stroke-width:0.0738"
         id="path225"
         d="m 181.233,175.527 -1.066,-6.587 c -3.296,-3.638 -4.796,-8.094 -6.24,-12.478 -0.461,3.865 0.752,7.565 1.272,11.089 h -0.174 c -2.192,-4.911 -2.489,-10.57 -3.063,-16.121 -0.927,-1.554 -1.851,-3.577 -3.701,-4.39 -1.151,-12.364 -3.352,-24.265 -4.446,-36.633 h -2.945 l -1.213,3.874 c 1.443,12.539 2.947,25.016 5.658,37.034 5.491,6.932 4.51,16.816 12.48,22.477 z" /><path
         inkscape:connector-curvature="0"
         style="fill:#94693c"
         id="path227"
         d="m 143.042,132.474 c 0.164,0.294 0.4,0.499 0.68,0.653 0.668,0.354 1.585,0.383 2.354,0.451 0.925,-0.17 1.733,-1.213 1.906,-1.962 -2.195,-3.757 -1.66,-9.647 -2.409,-14.039 -0.195,0.062 -0.477,-0.418 -0.671,-0.195 -0.321,0.946 -0.893,2.195 -0.937,2.782 0.521,3.061 1.532,6.482 0.954,9.774 -0.925,-2.831 -0.132,-6.281 -1.285,-8.941 -0.784,1.773 -1.184,2.565 -1.966,4.027 l 1.174,6.881 c 0.038,0.22 0.108,0.407 0.2,0.569 m -2.28,-5.934 0.984,4.819 c 0,0 -0.671,-1.115 -1.751,-1.257 -1.083,-0.147 -1.769,-0.111 -1.769,-0.111 l 2.536,-3.451" /><path
         inkscape:connector-curvature="0"
         style="fill:#94693c;stroke:#000000;stroke-width:0.0738"
         id="path229"
         d="m 139.951,172.697 c -1.672,0.748 -3.463,1.209 -5.26,1.784 l -0.397,-8.028 -0.466,-0.463 -0.925,-10.384 v -0.419 l -0.461,-0.518 c 1.153,-7.105 -3.583,-14.502 0.867,-20.688 1.616,-1.093 3.522,-1.964 5.66,-1.38 1.213,0.399 2.197,1.38 3.182,2.191 -0.06,-0.577 -0.578,-1.331 -1.103,-1.904 -1.098,-1.449 -2.946,-1.502 -4.443,-1.792 1.153,-0.461 2.308,-0.461 3.462,0 1.617,0.694 2.833,2.312 3.758,3.696 1.266,4.218 1.445,8.782 2.486,13.061 1.499,8.378 3.694,16.465 5.313,24.844 -1.391,-0.171 -2.543,0.287 -3.929,0.112 z" /><path
         inkscape:connector-curvature="0"
         style="stroke:#000000;stroke-width:0.0738"
         id="path231"
         d="m 147.696,172.81 c -8.029,-5.372 -6.413,-15.023 -9.128,-22.763 -0.405,-2.08 -0.81,-4.219 -1.387,-6.237 0.346,6.641 2.425,12.884 3.581,19.294 1.039,1.616 0.868,3.812 1.271,5.665 -0.521,1.387 -0.926,2.77 -2.082,3.929 z m -39.753,0.114 -2.366,-5.947 c 0.401,-2.658 0.864,-5.435 0.693,-8.148 -1.062,4.982 -2.756,11.045 -7.918,14.561 z" /><path
         inkscape:connector-curvature="0"
         id="path233"
         d="m 113.896,139.127 v 0.118 c -1.389,-0.41 -3.238,-0.695 -4.453,-1.91 -1.672,0.926 -3.867,1.039 -5.833,0.926 v -0.23 c 2.021,-0.75 4.044,-1.331 5.833,-2.545 1.275,1.448 3.297,2.599 4.453,3.641 m -5.14,5.547 0.805,0.114 c 1.507,3.003 3.41,5.837 4.45,9.016 -3.234,-1.964 -3.465,-6.068 -5.254,-8.843 l -2.372,13.578 c 0.578,-7.048 2.137,-13.635 2.946,-20.509 0.23,2.366 -0.404,4.389 -0.575,6.644" /><path
         inkscape:connector-curvature="0"
         style="stroke:#000000;stroke-width:0.0738;stroke-linecap:square;stroke-miterlimit:2"
         id="path235"
         d="m 139.838,138.952 c 2.714,6.239 4.507,13.113 7.163,19.01 -3.122,-6.068 -5.605,-12.595 -7.452,-19.01 z"
         stroke-miterlimit="2" /><path
         inkscape:connector-curvature="0"
         id="path237"
         d="m 108.06,141.497 c -2.483,6.587 -2.945,14.036 -8.204,19.528 l -0.234,-0.291 5.551,-11.612 2.888,-9.189 v 1.564 m 0.577,14.673 c 1.385,4.045 3.06,7.918 4.563,11.899 -2.831,-3.29 -4.737,-7.506 -4.852,-11.899 h 0.289 m 28.945,3.468 c -0.635,1.618 -1.096,3.29 -2.486,4.566 l 2.772,-7.453 c 0.525,0.574 0.233,2.077 -0.286,2.887" /><path
         inkscape:connector-curvature="0"
         style="fill:#ffffff;stroke:none;stroke-width:0.0738"
         id="path239"
         d="m 146.772,104.514 c 0,0 0.54,14.367 -8.119,24.984 -9.496,11.643 -15.627,13.792 -15.627,13.792 0,0 -6.132,-2.149 -15.63,-13.792 -8.64,-10.593 -8.125,-24.984 -8.125,-24.984 z" /><path
         inkscape:connector-curvature="0"
         style="fill:#b11e39;stroke:none;stroke-width:0.0738"
         id="path241"
         d="m 121.182,142.367 v -37.895 h -4.041 v 35.032 c 10e-4,0 1.813,1.445 4.041,2.863 z m -15.476,-15.17 v -22.725 h -3.735 v 15.218 c -0.001,0 1.784,4.9 3.735,7.507 z m 7.473,8.734 v -31.458 h -3.742 v 27.448 c 0,-0.001 1.599,1.83 3.742,4.01 z m 11.687,6.436 v -37.895 h 4.042 v 35.032 c 0,0 -1.813,1.445 -4.042,2.863 z m 15.472,-15.17 v -22.725 h 3.738 v 15.218 c 0.001,0 -1.784,4.9 -3.738,7.507 z m -7.47,8.734 v -31.458 h 3.739 v 27.448 c 0,-0.001 -1.594,1.83 -3.739,4.01 z" /><path
         inkscape:connector-curvature="0"
         style="fill:#76bae4;stroke:none;stroke-width:0.0738"
         id="path243"
         d="m 145.698,91.604 c 0,0 1.447,6.504 1.106,12.868 0.005,-0.036 -47.562,-0.036 -47.562,0 0.029,-6.455 1.101,-12.868 1.101,-12.868 z" /><polygon
         style="stroke:#000000;stroke-width:0.0738;stroke-linejoin:round"
         id="polygon245"
         points="22.979,159.726 20.557,151.917 23.984,156.772 " /><polygon
         style="fill:#ffffff;stroke:#000000;stroke-width:0.0738;stroke-linejoin:round"
         id="polygon247"
         points="22.979,159.726 20.554,151.917 20.482,157.859 " /><polygon
         style="stroke:#000000;stroke-width:0.0738;stroke-linejoin:round"
         id="polygon249"
         points="22.979,159.726 14.806,159.615 20.482,157.859 " /><polygon
         style="fill:#ffffff;stroke:#000000;stroke-width:0.0738;stroke-linejoin:round"
         id="polygon251"
         points="22.979,159.726 14.806,159.617 20.433,161.528 " /><polygon
         style="stroke:#000000;stroke-width:0.0738;stroke-linejoin:round"
         id="polygon253"
         points="22.979,159.726 20.352,167.468 20.433,161.528 " /><polygon
         style="fill:#ffffff;stroke:#000000;stroke-width:0.0738;stroke-linejoin:round"
         id="polygon255"
         points="22.979,159.726 20.352,167.468 23.909,162.712 " /><polygon
         style="stroke:#000000;stroke-width:0.0738;stroke-linejoin:round"
         id="polygon257"
         points="22.979,159.726 29.529,164.618 23.909,162.712 " /><polygon
         style="fill:#ffffff;stroke:#000000;stroke-width:0.0738;stroke-linejoin:round"
         id="polygon259"
         points="22.979,159.726 29.529,164.618 26.104,159.769 " /><polygon
         style="stroke:#000000;stroke-width:0.0738;stroke-linejoin:round"
         id="polygon261"
         points="22.979,159.726 29.661,155.011 26.104,159.769 " /><polygon
         style="fill:#ffffff;stroke:#000000;stroke-width:0.0738;stroke-linejoin:round"
         id="polygon263"
         points="22.979,159.726 29.661,155.011 23.984,156.772 " /><polygon
         style="stroke:#000000;stroke-width:0.0738;stroke-linejoin:round"
         id="polygon265"
         points="229,156.853 231.141,148.966 231.436,154.897 " /><polygon
         style="fill:#ffffff;stroke:#000000;stroke-width:0.0738;stroke-linejoin:round"
         id="polygon267"
         points="229,156.853 231.141,148.966 227.891,153.935 " /><polygon
         style="stroke:#000000;stroke-width:0.0738;stroke-linejoin:round"
         id="polygon269"
         points="229,156.853 222.165,152.374 227.896,153.935 " /><polygon
         style="fill:#ffffff;stroke:#000000;stroke-width:0.0738;stroke-linejoin:round"
         id="polygon271"
         points="229,156.853 222.165,152.374 225.882,157.008 " /><polygon
         style="stroke:#000000;stroke-width:0.0738;stroke-linejoin:round"
         id="polygon273"
         points="229,156.853 222.624,161.974 225.882,157.008 " /><polygon
         style="fill:#ffffff;stroke:#000000;stroke-width:0.0738;stroke-linejoin:round"
         id="polygon275"
         points="229,156.853 222.624,161.974 228.179,159.867 " /><polygon
         style="stroke:#000000;stroke-width:0.0738;stroke-linejoin:round"
         id="polygon277"
         points="229,156.853 231.896,164.497 228.179,159.867 " /><polygon
         style="fill:#ffffff;stroke:#000000;stroke-width:0.0738;stroke-linejoin:round"
         id="polygon279"
         points="229,156.853 231.896,164.497 231.611,158.565 " /><polygon
         style="stroke:#000000;stroke-width:0.0738;stroke-linejoin:round"
         id="polygon281"
         points="229,156.853 237.164,156.463 231.611,158.565 " /><polygon
         style="fill:#ffffff;stroke:#000000;stroke-width:0.0738;stroke-linejoin:round"
         id="polygon283"
         points="229,156.853 237.164,156.463 231.436,154.897 " /><path
         inkscape:connector-curvature="0"
         style="stroke:#000000;stroke-width:0.0738"
         id="path285"
         d="m 132.903,155.606 v -0.011 c 2.372,-2.198 3.871,-5.028 3.988,-8.031 l -0.117,-0.116 c -0.867,2.771 -2.771,5.082 -3.871,7.739 z" /><path
         inkscape:connector-curvature="0"
         id="path287"
         d="m 136.891,142.595 h -0.117 l -0.169,-2.198 0.169,-0.059 0.117,1.851 v 0.406 m 4.332,-5.26 c -1.617,0.349 -3.235,-0.055 -4.618,-0.693 -1.33,0.866 -2.777,1.619 -4.393,1.792 0.922,-1.215 2.885,-2.022 4.158,-3.464 1.332,1.384 3.004,2.077 4.853,2.365" /><path
         inkscape:connector-curvature="0"
         style="fill:#e0af35;stroke:#000000;stroke-width:0.0738"
         id="path289"
         d="m 105.041,177.188 c 0,0 1.193,-4.696 4.659,-4.696 3.464,0 3.156,0.772 3.906,1.415 0.677,0.585 1.37,1.496 1.111,2.02 -0.024,0.051 -0.245,0.281 -0.287,0.322 -0.125,0.116 -1.595,0.939 -1.922,1.029 -0.927,0.27 -2.736,0.334 -3.784,0.414 -1.407,0.106 -2.529,-0.609 -2.891,-0.609 -0.359,-0.001 -0.792,0.105 -0.792,0.105 z" /><path
         inkscape:connector-curvature="0"
         id="path291"
         d="m 106.381,177.009 c 0,0 -0.615,-0.688 0.141,-1.553 0.115,-0.128 0.579,-0.182 0.817,-0.671 0.433,-0.889 1.999,-1.248 2.793,-1.171 1.194,0.105 3.793,2.2 3.793,2.2 0,0 0.547,0.945 -0.039,0.544 -0.47,-0.322 -0.792,-0.791 -1.517,-0.652 -0.721,0.144 -1.984,1.085 -2.852,0.834 -0.866,-0.253 -1.661,-1.013 -2.024,-0.907 -0.356,0.109 -1.112,1.376 -1.112,1.376" /><path
         inkscape:connector-curvature="0"
         style="fill:#e0af35;stroke:#000000;stroke-width:0.0738"
         id="path293"
         d="m 114.717,175.814 c 0.724,0.396 1.338,0.977 1.917,1.841 0.575,0.868 0.504,2.752 -0.041,4.012 -0.407,0.956 -2.925,2.166 -2.925,2.166 0,0 1.285,-2.64 1.158,-3.683 -0.11,-0.906 -0.689,-1.409 -1.188,-1.914 -0.427,-0.431 -1.269,-0.905 -1.269,-0.905 0,0 1.013,-0.938 1.591,-1.083 0.577,-0.146 0.757,-0.434 0.757,-0.434 z" /><path
         inkscape:connector-curvature="0"
         id="path295"
         d="m 113.749,176.394 0.43,-0.146 c 0,0 1.376,1.064 1.768,2.245 0.167,0.5 0.434,1.331 -0.146,2.704 -0.344,0.82 -0.973,1.479 -0.973,1.479 0,0 0.543,-1.046 0.905,-2.417 0.165,-0.636 -0.039,-1.596 -0.869,-2.568 -0.421,-0.497 -1.115,-1.297 -1.115,-1.297" /><path
         inkscape:connector-curvature="0"
         style="fill:#e0af35;stroke:#000000;stroke-width:0.0738"
         id="path297"
         d="m 100.527,177.009 c 0,0 -0.354,1.816 -0.25,3.318 0.106,1.588 1.298,3.257 2.453,3.472 1.42,0.265 2.275,0.144 2.275,0.144 -0.468,-0.434 -1.877,-1.484 -1.985,-2.563 -0.11,-1.088 0.359,-1.486 0.469,-2.206 0.11,-0.72 0.394,-1.083 0.394,-1.083 0,0 -0.973,-0.541 -1.55,-0.76 -0.58,-0.213 -1.806,-0.322 -1.806,-0.322 z" /><path
         inkscape:connector-curvature="0"
         id="path299"
         d="m 102.008,177.264 c 0,0 -0.542,1.114 -0.542,2.02 0,1.587 0.109,2.129 0.433,2.779 0.276,0.561 1.7,1.336 1.7,1.336 0,0 -1.086,-0.832 -1.267,-2.134 -0.181,-1.295 0.074,-2.887 0.397,-3.646 l -0.721,-0.355" /><path
         inkscape:connector-curvature="0"
         style="fill:#e0af35;stroke:#000000;stroke-width:0.0738"
         id="path301"
         d="m 101.899,173.144 c 0,0 -3.793,0.145 -4.588,-0.037 -0.792,-0.183 -0.902,-0.326 -1.548,-0.29 -0.65,0.038 -3.613,0.688 -4.265,1.913 -0.649,1.229 -1.083,1.949 -1.043,2.169 0.032,0.22 1.228,0.365 1.623,0.507 0.397,0.145 1.885,0.359 2.201,0.433 1.879,0.43 4.176,-0.15 3.359,-0.04 1.048,-0.143 2.276,-0.61 2.529,-0.862 0.251,-0.257 0.65,-0.614 0.794,-1.01 0.143,-0.4 0.938,-2.783 0.938,-2.783 z m 5.489,0.177 c 0,0 -1.587,-3.536 -2.749,-4.87 0,0 -1.729,2.274 -2.233,3.247 -0.508,0.977 -2.023,3.502 -1.989,3.869 0.039,0.358 -0.288,1.082 -0.179,1.224 0.107,0.145 0.288,0.182 1.155,0.327 0.867,0.146 1.299,0.398 1.661,0.68 0.359,0.293 1.154,0.366 1.407,0.332 0.255,-0.039 0.579,-0.942 0.579,-0.942 0,0 0.58,-1.66 0.979,-2.234 0.393,-0.585 1.369,-1.633 1.369,-1.633 z" /><path
         inkscape:connector-curvature="0"
         id="path303"
         d="m 105.766,175.382 c 0,0 -0.613,-0.722 -1.126,-0.941 -0.504,-0.214 -1.407,-0.252 -1.407,-0.252 0,0 -0.72,0.291 -0.755,0.577 -0.035,0.29 -0.035,0.616 0.112,0.721 0.141,0.114 0.466,0.328 1.188,0.51 0.724,0.181 1.517,0.464 1.517,0.464 l 0.471,-1.079" /><path
         inkscape:connector-curvature="0"
         style="fill:#e0af35;stroke:#000000;stroke-width:0.0738"
         id="path305"
         d="m 90.743,177.082 c 0,0 -0.389,1.82 0.181,3.86 0.358,1.299 1.245,2.456 2.202,2.856 0.951,0.396 3.611,0.069 3.611,0.069 0,0 -1.77,-0.284 -2.746,-2.059 -0.48,-0.877 -0.396,-2.169 -0.323,-2.782 0.071,-0.614 0.323,-1.189 0.323,-1.189 0,0 -1.484,-0.305 -1.771,-0.36 -0.36,-0.072 -1.477,-0.395 -1.477,-0.395 z" /><path
         inkscape:connector-curvature="0"
         id="path307"
         d="m 91.896,177.439 c 0,0 -0.106,1.486 -0.036,2.312 0.075,0.832 0.757,1.661 0.757,1.661 0,0 -0.288,-1.12 -0.288,-1.734 0,-0.61 0.11,-2.161 0.11,-2.161 l -0.543,-0.078 m 8.74,-2.526 c 0,0 -2.097,-0.106 -3.145,-0.04 -1.048,0.08 -1.587,0.327 -1.802,0.473 -0.218,0.141 -1.663,0.396 -1.663,0.396 l -1.807,1.735 1.192,0.214 c 1.303,-0.214 0.468,-0.977 2.784,-1.121 1.232,-0.069 3.718,-0.828 4.331,-1.225 l 0.11,-0.432" /><path
         inkscape:connector-curvature="0"
         style="fill:#e0af35;stroke:#000000;stroke-width:0.0738"
         id="path309"
         d="m 142.013,172.491 c 0,0 -0.73,0.045 -2.063,0.206 -1.328,0.157 -3.819,0.05 -4.469,0.699 -0.65,0.654 -2.564,1.517 -3.215,2.852 -0.646,1.338 -0.757,2.098 -0.508,2.311 0.256,0.216 0.329,0.146 1.055,0.253 0.72,0.114 1.562,0.419 2.525,0.581 1.736,0.285 2.556,-0.725 3.211,-1.047 0.867,-0.438 2.673,-0.94 3.289,-1.052 0.612,-0.106 0.36,-1.767 0.36,-1.767 z m -6.93,6.902 c 0,0 -0.104,1.693 0.469,2.777 0.58,1.084 1.054,1.121 1.733,1.304 0.686,0.18 1.569,0.143 1.569,0.143 0,0 -1.096,1.231 -2.289,1.007 -1.188,-0.212 -2.972,-1.689 -3.468,-2.453 -0.792,-1.228 -0.757,-3.396 -0.757,-3.396 0,0 1.317,0.176 1.701,0.293 0.469,0.145 1.042,0.325 1.042,0.325 z" /><path
         inkscape:connector-curvature="0"
         id="path311"
         d="m 141.152,174.117 c 0,0.144 -0.721,0.796 -0.721,0.796 l -2.276,0.688 -1.699,0.758 -1.587,1.081 c 0,0 -0.866,0.906 -0.938,1.054 -0.071,0.139 -0.146,0.534 -0.146,0.534 l 1.193,0.327 c 0,0 -0.017,-0.342 0.338,-0.638 0.289,-0.238 0.604,-0.501 0.814,-0.662 0.474,-0.363 1.301,-0.791 1.736,-0.904 0.431,-0.11 1.587,-0.757 1.767,-0.902 0.179,-0.146 0.61,0.039 1.086,-0.289 0.47,-0.327 0.433,-1.843 0.433,-1.843 m -7.366,4.91 c 0,0 -0.108,1.663 0.108,2.276 0.217,0.611 0.868,1.229 0.868,1.229 0,0 -0.439,-1.268 -0.469,-1.878 -0.025,-0.398 0.139,-1.441 0.139,-1.441 l -0.646,-0.186" /><path
         inkscape:connector-curvature="0"
         style="fill:#e0af35;stroke:#000000;stroke-width:0.0738"
         id="path313"
         d="m 146.488,172.65 c 0.622,-0.082 1.165,-0.013 2.643,-0.265 1.483,-0.253 2.452,0.022 3.471,0.289 1.515,0.395 3.192,1.549 3.5,1.949 0.367,0.473 0.827,2.274 0,2.67 -0.829,0.397 -1.844,0.974 -2.525,0.726 -0.688,-0.255 -2.891,-0.364 -3.899,-0.542 -1.014,-0.184 -1.738,-0.107 -1.738,-0.107 z m 9.83,4.538 c 0,0 0.328,0.942 0.36,2.129 0.039,1.192 -0.288,2.096 -0.614,2.854 -0.395,0.925 -2.346,1.698 -2.346,1.698 0,0 0.797,-1.229 1.085,-2.132 0.281,-0.904 -0.037,-2.13 -0.147,-2.6 -0.106,-0.473 -0.54,-1.082 -0.54,-1.082 0,0 0.434,-0.069 0.797,-0.217 0.359,-0.147 1.405,-0.65 1.405,-0.65 z" /><path
         inkscape:connector-curvature="0"
         id="path315"
         d="m 155.272,177.732 c 0,0 0.289,0.217 0.508,1.226 0.179,0.829 0.104,2.019 0.104,2.019 0,0 0.397,-1.299 0.286,-2.051 -0.106,-0.762 -0.501,-1.376 -0.501,-1.376 l -0.397,0.182" /><path
         inkscape:connector-curvature="0"
         style="fill:#e0af35;stroke:#000000;stroke-width:0.0738"
         id="path317"
         d="m 143.319,170.327 c -0.939,0.018 -1.985,0.647 -2.599,1.371 -0.612,0.725 -0.508,2.021 -0.257,2.856 0.257,0.827 0.977,2.236 1.702,3.031 0.72,0.792 1.985,1.34 3.176,1.266 1.188,-0.077 2.96,-0.188 2.994,-1.119 0.037,-0.941 -0.323,-2.132 -0.575,-3.036 -0.254,-0.903 -0.66,-1.88 -1.263,-2.64 -0.973,-1.225 -1.446,-1.763 -3.178,-1.729 z" /><path
         inkscape:connector-curvature="0"
         id="path319"
         d="m 147.653,174.408 c 0,0 0.183,0.505 0.183,0.647 0,0.145 0.029,0.617 0.029,0.617 0,0 -1.115,0.831 -1.655,0.756 -0.544,-0.07 -1.556,-0.142 -2.206,-0.796 -0.649,-0.646 -1.083,-1.55 -1.083,-1.55 0,0 2.204,0.903 3.216,0.87 0.393,-0.021 1.516,-0.544 1.516,-0.544" /><path
         inkscape:connector-curvature="0"
         style="fill:#e0af35;stroke:#000000;stroke-width:0.0738"
         id="path321"
         d="m 144.111,178.559 c 0,0 0.795,0.941 0.829,1.701 0.04,0.757 -0.069,1.587 -0.393,2.133 -0.327,0.533 -1.083,1.838 -1.083,1.838 0,0 0.756,0.107 1.587,-0.397 0.831,-0.504 1.842,-1.339 2.174,-2.453 0.294,-1.055 0.134,-2.887 0.134,-2.887 0,0 -1.26,0.388 -2.308,0.388 -0.397,-0.001 -0.94,-0.323 -0.94,-0.323 z" /><path
         inkscape:connector-curvature="0"
         id="path323"
         d="m 145.738,179.606 c 0,0 -0.04,1.37 -0.107,1.806 -0.072,0.435 -0.434,1.265 -0.434,1.265 0,0 0.76,-1.087 0.865,-1.734 0.106,-0.65 0,-1.479 0,-1.479 l -0.324,0.142 m 9.469,-5.293 c 0.636,0.693 1.326,1.558 0.811,2.542 -0.059,0.171 -0.229,0.117 -0.406,0.117 -0.636,-0.755 -0.287,-2.256 -1.675,-2.372 -1.733,-0.98 -4.338,0.462 -5.953,-0.808 1.79,-0.404 4.157,-0.404 6.239,0 l 0.984,0.521" /><polygon
         style="fill:#b2b2b2;stroke:#000000;stroke-width:0.0738"
         id="polygon325"
         points="90.743,184.048 90.743,187.084 88.432,187.084 88.432,190.331 90.743,190.331 90.743,194.882 80.921,194.882 80.921,190.331 82.653,190.331 82.653,187.084 77.239,187.084 77.239,187.084 77.239,190.331 78.968,190.331 78.968,194.882 69.146,194.882 69.146,190.331 71.458,190.331 71.458,187.084 69.146,187.084 69.146,184.048 " /><path
         inkscape:connector-curvature="0"
         style="fill:none;stroke:#000000;stroke-width:0.0738"
         id="path327"
         d="m 89.947,184.048 v 2.528 h -2.313 v 3.755 m 2.313,0 v 4.048 h -9.026 m 1.732,-7.295 v -0.508 H 76.44 v 3.755 m 1.736,0 v 4.048 h -9.03 m 2.312,-7.295 v -0.508 H 69.22" /><path
         inkscape:connector-curvature="0"
         id="path329"
         d="m 134.363,91.604 -1.879,-4.765 0.581,-0.071 -1.444,-4.624 0.646,0.07 -1.803,-3.897 0.722,0.142 -0.794,-3.828 h 0.43 l -0.716,-2.884 0.716,-0.075 -1.154,-3.682 0.725,3.392 -0.867,-0.143 0.939,2.958 -0.723,-0.142 1.08,3.973 -0.936,-0.074 1.734,3.828 c 0,0 -1.156,-0.507 -0.868,-0.074 0.286,0.436 1.805,4.768 1.805,4.768 l -0.867,0.07 2.022,5.058 h 0.651" /><g
         id="text3369"
         style="font-style:normal;font-variant:normal;font-weight:bold;font-stretch:normal;font-size:25.06680107px;line-height:125%;font-family:'Optima LT Std';-inkscape-font-specification:'Optima LT Std Bold';text-align:center;letter-spacing:0.05875875px;word-spacing:0px;text-anchor:middle;overflow:visible;fill:#000000;fill-opacity:1;stroke:none"
         inkscape:transform-center-y="239.98144"
         inkscape:transform-center-x="-0.79849202"
         transform="matrix(-0.99999322,0.00476494,-0.00476496,-0.99998866,251.10878,248.91308)"><path
           id="path5266"
           style="letter-spacing:0.34815001px;fill:#000000"
           d="m 217.02573,70.203674 c 2.05722,-3.691762 4.17767,-7.335712 6.29163,-10.9448 -0.10577,-0.109828 -0.22572,-0.240325 -0.31081,-0.364336 -0.0851,-0.124011 -0.16371,-0.282874 -0.22814,-0.421069 -4.22479,0.710222 -8.4573,1.364926 -12.72464,2.013142 l -0.0284,-0.04134 c 2.97669,-2.529052 6.24924,-5.291523 9.02288,-7.40763 -0.45913,-0.53617 -0.89759,-1.086524 -1.28052,-1.644574 -0.38294,-0.55805 -0.72455,-1.144468 -1.04548,-1.745066 -2.55969,2.516506 -8.65656,7.764272 -13.04156,11.563728 0.26057,0.246811 0.50047,0.507805 0.69903,0.797164 0.19856,0.28936 0.36997,0.627754 0.50652,0.959662 4.30747,-0.766953 8.98413,-1.483235 13.18419,-1.96368 -1.87891,3.508596 -4.35236,7.789994 -6.6033,11.553882 0.24638,0.226142 0.48628,0.487136 0.67066,0.755827 0.19856,0.289359 0.3416,0.586417 0.47816,0.918325 5.15088,-2.683357 10.37269,-5.263378 15.72213,-7.657375 -0.28893,-0.288148 -0.54301,-0.569811 -0.76994,-0.900507 -0.21274,-0.310028 -0.39833,-0.669091 -0.56325,-1.042336 -3.26278,1.934938 -6.53205,3.904733 -9.95084,5.612317 l -0.0284,-0.04134"
           inkscape:connector-curvature="0" /><path
           id="path5268"
           style="letter-spacing:0.34815001px;fill:#000000"
           d="m 209.17353,54.141794 c 4.42706,-4.435379 3.32349,-9.361877 -0.41997,-13.098316 -3.95636,-3.948938 -9.6283,-3.908164 -13.13453,-0.395344 -4.26769,4.275706 -3.35901,9.291011 0.40219,13.045158 4.11603,4.108312 9.66379,3.943581 13.15231,0.448502 M 198.15677,43.924861 c 3.86039,-3.867651 7.49409,-3.782439 9.62307,-1.65745 1.98705,1.983323 2.41531,5.031612 -1.35655,8.810555 -3.04582,3.051541 -6.90888,4.083213 -9.33947,1.657184 -2.28866,-2.284364 -1.99058,-5.741007 1.07295,-8.810289"
           inkscape:connector-curvature="0" /><path
           id="path5270"
           style="letter-spacing:0.34815001px;fill:#000000"
           d="m 191.67178,42.31715 c 2.93498,-4.187484 6.95478,-9.267622 7.47464,-9.790966 -0.35107,-0.154226 -0.70827,-0.343368 -1.01617,-0.559175 -0.30791,-0.215807 -0.60756,-0.487057 -0.89283,-0.778832 -0.47075,0.802656 -1.21485,1.995329 -3.5168,5.27963 -1.07903,1.539516 -2.27317,3.243252 -3.39326,4.753994 -0.83042,-5.540978 -1.49663,-10.966874 -1.97809,-16.26327 -0.28949,-0.111065 -0.58511,-0.257045 -0.87249,-0.458465 -0.28737,-0.201421 -0.52545,-0.429508 -0.76966,-0.692509 -3.82699,5.460151 -5.74049,8.19024 -10.25558,13.933368 0.35106,0.154227 0.68774,0.328981 0.99564,0.544789 0.30791,0.215807 0.58703,0.472669 0.85178,0.750057 0.50373,-1.02442 4.41704,-6.607742 6.7046,-9.871516 0.7299,5.378687 1.39207,10.679314 2.06038,16.014839 0.35107,0.154227 0.68775,0.328981 0.99565,0.544788 0.3079,0.215808 0.58703,0.47267 0.85178,0.750058 0.67005,-0.999678 1.46556,-2.30937 2.76041,-4.15679"
           inkscape:connector-curvature="0" /><path
           id="path5272"
           style="letter-spacing:0.34815001px;fill:#000000"
           d="m 178.96504,27.577436 c 1.32244,-2.476507 2.27585,-4.155496 3.44758,-6.030478 -0.51007,-0.215542 -1.14251,-0.468011 -1.8722,-0.857659 -0.72968,-0.389648 -1.29128,-0.774786 -1.75412,-1.078775 -0.90639,2.016672 -1.77135,3.742892 -3.09379,6.219399 l -1.60582,3.00719 c -1.32244,2.476507 -2.27585,4.155496 -3.44758,6.030478 0.51007,0.215542 1.14251,0.468011 1.8722,0.857659 0.72968,0.389648 1.29128,0.774786 1.75412,1.078775 0.90639,-2.016672 1.77135,-3.742892 3.09379,-6.219399 l 1.60582,-3.00719"
           inkscape:connector-curvature="0" /><path
           id="path5274"
           style="letter-spacing:0.34815001px;fill:#000000"
           d="m 169.16001,22.752295 c 1.08206,-2.590576 1.87224,-4.352281 2.86121,-6.329766 -0.52818,-0.166287 -1.18168,-0.357751 -1.94498,-0.676572 -0.76329,-0.318822 -1.35882,-0.649067 -1.84836,-0.907875 -0.71141,2.09342 -1.40907,3.89377 -2.49113,6.484346 l -2.41532,5.782541 c -0.36713,0.878946 -0.71493,1.711633 -0.89645,2.016132 -0.92521,-0.38645 -2.81017,-1.336778 -3.99157,-2.020397 -0.0755,0.375936 -0.16453,0.719082 -0.30945,1.066034 -0.14492,0.346952 -0.32643,0.651452 -0.54074,0.969421 1.99504,0.751816 3.05523,1.140314 5.92336,2.33831 2.86814,1.197995 3.88968,1.679014 5.96554,2.627579 0.0755,-0.375936 0.16453,-0.719082 0.30945,-1.066034 0.14491,-0.346952 0.32643,-0.651452 0.54074,-0.969421 -1.45544,-0.417764 -3.45634,-1.09053 -4.35841,-1.467319 0.0659,-0.352805 0.41367,-1.185493 0.7808,-2.064438 l 2.41531,-5.782541"
           inkscape:connector-curvature="0" /><path
           id="path5276"
           style="letter-spacing:0.34815001px;fill:#000000"
           d="m 161.17283,21.024696 c 1.53313,-6.076262 -1.93642,-9.743748 -7.06479,-11.0377118 -5.42003,-1.3675537 -10.27188,1.5704938 -11.48612,6.3828928 -1.47794,5.857517 1.86964,9.701045 7.02231,11.001141 5.63877,1.422747 10.32049,-1.558228 11.5286,-6.346322 m -14.69366,-3.138677 c 1.33689,-5.2985 4.50218,-7.085096 7.41879,-6.349193 2.72216,0.686844 4.65026,3.086413 3.34403,8.263388 -1.0548,4.180469 -3.8455,7.043969 -7.17529,6.203813 -3.13535,-0.791096 -4.64846,-3.913234 -3.58753,-8.118008"
           inkscape:connector-curvature="0" /><path
           id="path5278"
           style="letter-spacing:0.34815001px;fill:#000000"
           d="m 132.8234,6.928894 c -0.75346,-0.017997 -1.53415,-0.013295 -2.28308,-0.081221 -0.74893,-0.067926 -1.49106,-0.2107456 -2.23546,-0.3286003 1.56653,2.9862536 3.20571,6.0042733 4.54757,8.9701493 -2.52807,0.399951 -4.06646,1.820947 -4.28609,4.242485 -0.13359,1.472894 0.3909,2.627932 1.32381,3.442465 0.81714,0.703355 1.72045,1.01181 4.24184,1.240495 1.69758,0.153966 2.78237,0.126505 3.68108,0.208017 0.82382,0.07472 1.49107,0.210745 2.03576,0.310486 0.0495,-2.210444 0.17388,-4.137231 0.42747,-6.933233 l 0.30793,-3.395149 c 0.25359,-2.796003 0.47786,-4.7137329 0.8269,-6.8970067 -0.55374,1.161e-4 -1.23457,0.013875 -2.0584,-0.060843 -0.82382,-0.074719 -1.49106,-0.2107455 -2.03575,-0.3104866 -0.0495,2.2104442 -0.17388,4.1372313 -0.42747,6.9332333 l -0.0928,1.023538 -0.22468,-0.02038 -3.7486,-8.3439506 m -0.3877,12.6000206 c 0.21283,-2.346645 1.52207,-3.461217 3.71893,-3.261967 0.17475,0.01585 0.34723,0.05666 0.54468,0.09974 -0.20604,2.271752 -0.43478,4.516282 -0.69075,6.783506 -2.72111,-0.246799 -3.84004,-0.675492 -3.57286,-3.62128"
           inkscape:connector-curvature="0" /><path
           id="path5280"
           style="letter-spacing:0.34815001px;fill:#000000"
           d="m 125.98561,13.579524 c -0.0813,-2.806303 -0.087,-4.7370937 -5.5e-4,-6.9463994 -0.54979,0.066077 -1.22414,0.160838 -5.30831,0.2791171 -2.30518,0.066759 -3.48573,6.387e-4 -4.38848,0.00171 0.0588,0.299224 0.11619,0.5483365 0.13143,1.0745182 0.0152,0.5261817 -0.0276,0.7781968 -0.0676,1.1304358 1.9228,-0.2813806 3.84923,-0.4374803 5.72846,-0.4919032 0.0791,1.0007995 0.13539,2.0774975 0.16587,3.1298605 0.0312,1.07742 0.0374,2.155568 0.0678,3.207931 -1.90427,0.05515 -3.78567,0.0344 -5.69431,-0.06079 0.0904,0.524005 0.14706,0.748061 0.15504,1.02368 0.009,0.325731 -0.009,0.551965 -0.0926,1.131161 1.90137,-0.155373 3.50353,-0.251927 5.68197,-0.36517 0.053,1.829108 0.10522,3.633165 0.0329,5.465901 -0.75169,0.02177 -3.76352,-0.06655 -5.67143,-0.136681 0.061,0.374392 0.11764,0.598449 0.13288,1.12463 0.0131,0.451013 -0.0283,0.753141 -0.0697,1.055267 0.67434,-0.09476 2.77762,-0.205827 5.23314,-0.27694 1.47832,-0.04281 2.9846,0.01387 4.46365,-0.0039 -0.2142,-2.200598 -0.32018,-4.128487 -0.40145,-6.934789 l -0.0987,-3.407656"
           inkscape:connector-curvature="0" /><path
           id="path5282"
           style="letter-spacing:0.34815001px;fill:#000000"
           d="m 113.80154,13.956277 c -0.46618,-2.768503 -0.73725,-4.680181 -0.95522,-6.8804078 -0.53549,0.1410094 -1.19041,0.3275497 -2.00613,0.4649073 -1.28538,0.2164424 -2.98707,0.3758893 -5.45895,0.7921246 -4.64713,0.7825224 -7.949165,5.0244079 -7.033447,10.4625389 1.048913,6.229133 5.233627,7.380121 10.869507,6.431104 2.17525,-0.366287 3.36566,-0.693837 4.45329,-0.87698 0.81572,-0.137358 1.49562,-0.175585 2.04775,-0.21772 -0.5146,-2.150278 -0.88454,-4.045306 -1.35072,-6.81381 l -0.56608,-3.361757 m -3.00905,4.472162 c 0.22476,1.334814 0.73257,4.35051 0.78694,4.82433 -0.7538,0.203189 -1.36345,0.356686 -2.54995,0.556479 -3.41119,0.574404 -6.08517,-1.568143 -6.76779,-5.622022 -0.86577,-5.141507 1.05796,-8.058254 4.76578,-8.6826074 1.01347,-0.1706565 1.6892,-0.2336027 2.18774,-0.292131 0.1038,0.4654944 0.61161,3.4811904 0.83638,4.8160044 l 0.7409,4.399947"
           inkscape:connector-curvature="0" /><path
           id="path5284"
           style="letter-spacing:0.34815001px;fill:#000000"
           d="m 88.827953,19.396731 c -1.088269,-2.587974 -1.790242,-4.386646 -2.506668,-6.478354 -0.488919,0.259981 -1.083657,0.591653 -1.846185,0.912303 -1.20156,0.505267 -2.821418,1.050469 -5.13211,2.022137 -4.344099,1.826736 -6.586077,6.712486 -4.448407,11.796006 2.448603,5.822942 6.785718,5.984232 12.054094,3.768829 2.033408,-0.855068 3.117068,-1.446722 4.133772,-1.874256 0.762528,-0.320651 1.415567,-0.513681 1.943352,-0.681234 -0.993709,-1.975108 -1.78811,-3.734913 -2.876379,-6.322888 l -1.321469,-3.142543 m -1.904023,5.042752 c 0.524701,1.247774 1.710138,4.066821 1.871648,4.515569 -0.687165,0.370538 -1.245406,0.65967 -2.354538,1.126071 -3.188754,1.340902 -6.282592,-0.131789 -7.876128,-3.921323 -2.02107,-4.806237 -0.817012,-8.086237 2.649025,-9.543739 0.947383,-0.398384 1.590705,-0.614521 2.06256,-0.785748 0.207724,0.429315 1.393161,3.248363 1.917862,4.496136 l 1.729571,4.113034"
           inkscape:connector-curvature="0" /><path
           id="path5286"
           style="letter-spacing:0.34815001px;fill:#000000"
           d="m 71.82089,27.069641 c -1.436418,-2.412186 -2.380884,-4.09622 -3.380275,-6.06846 -0.448171,0.325228 -0.99121,0.736123 -4.501801,2.826624 -1.981439,1.179915 -3.045,1.696551 -3.83317,2.136719 0.196976,0.232798 0.368303,0.422523 0.637632,0.874807 0.269328,0.452285 0.354506,0.69331 0.490983,1.020484 1.542951,-1.181374 3.150033,-2.255064 4.765336,-3.216952 0.556082,0.835845 1.129103,1.74913 1.667759,2.653699 0.551482,0.926107 1.081429,1.865042 1.620086,2.769612 -1.636841,0.974712 -3.290624,1.87199 -5.004416,2.717478 0.333941,0.41381 0.492443,0.581997 0.63352,0.818908 0.166727,0.279986 0.260616,0.486648 0.469445,1.033308 1.58554,-1.060862 2.938287,-1.92475 4.786388,-3.083614 0.936237,1.572228 1.859651,3.122924 2.688201,4.759278 -0.646121,0.384755 -3.320387,1.773016 -5.021353,2.640041 0.235452,0.29741 0.393954,0.465597 0.663282,0.917882 0.230853,0.387673 0.341681,0.671773 0.452508,0.955872 0.543034,-0.410892 2.326527,-1.531283 4.43719,-2.788149 1.270705,-0.756685 2.614252,-1.440047 3.897782,-2.175195 -1.257839,-1.818337 -2.288455,-3.451071 -3.724873,-5.863256 L 71.82089,27.069641"
           inkscape:connector-curvature="0" /><path
           id="path5288"
           style="letter-spacing:0.34815001px;fill:#000000"
           d="m 54.290995,36.131948 c 3.783379,2.355413 8.077376,4.91612 11.266866,7.163207 0.526277,-0.507074 1.087744,-1.009847 1.66035,-1.457686 0.572606,-0.447838 1.195844,-0.871631 1.854268,-1.29112 -3.646161,-2.017212 -12.141493,-7.02015 -16.006388,-9.439101 -0.245544,0.255688 -0.495393,0.546564 -0.791568,0.778205 -0.296175,0.231641 -0.618935,0.388604 -0.945995,0.580755 1.996268,5.726141 4.124004,13.736199 5.245338,17.855387 0.230102,-0.275433 0.495393,-0.546565 0.791568,-0.778206 0.296176,-0.23164 0.623237,-0.423791 0.945996,-0.580754 -1.366879,-3.8635 -2.803909,-8.467721 -4.020435,-12.830687"
           inkscape:connector-curvature="0" /><path
           id="path5290"
           style="letter-spacing:0.34815001px;fill:#000000"
           d="m 48.686963,43.930753 c -1.959309,-2.010732 -3.270432,-3.428104 -4.702171,-5.112929 -0.359978,0.42077 -0.792228,0.946964 -1.384676,1.524261 -0.592448,0.577296 -1.129662,0.995772 -1.559615,1.34473 1.647175,1.474899 3.030111,2.822295 4.989419,4.833028 l 2.379163,2.441606 c 1.959309,2.010733 3.270433,3.428105 4.702172,5.11293 0.359978,-0.420771 0.792228,-0.946964 1.384676,-1.524261 0.592448,-0.577296 1.129661,-0.995772 1.559614,-1.34473 -1.647174,-1.474899 -3.03011,-2.822295 -4.989419,-4.833028 l -2.379163,-2.441607"
           inkscape:connector-curvature="0" /><path
           id="path5292"
           style="letter-spacing:0.34815001px;fill:#000000"
           d="m 31.650879,57.203745 c -0.184356,-1.549262 0.415798,-3.458752 1.436585,-4.696366 1.834225,-2.223838 5.346464,-3.291107 9.330035,-0.0055 4.099597,3.381356 3.968083,7.20456 2.261455,9.273696 -1.132435,1.372978 -2.467997,1.92856 -4.464425,1.906559 l -0.223297,0.270728 c 0.609633,0.600306 1.174806,1.293915 1.605604,2.071648 1.275146,-0.442941 3.084824,-1.809718 4.201309,-3.163358 3.349456,-4.060922 4.282267,-9.367767 -1.054944,-13.769909 -3.654829,-3.01451 -8.643932,-2.67796 -12.344284,1.808391 -1.307882,1.585693 -2.099017,3.175197 -2.402899,4.646691 0.493606,0.504607 0.926803,1.121854 1.292812,1.781164 l 0.362049,-0.123793"
           inkscape:connector-curvature="0" /><path
           id="path5294"
           style="letter-spacing:0.34815001px;fill:#000000"
           d="m 33.123009,62.002071 c -2.373922,-1.498811 -3.979235,-2.571638 -5.764166,-3.876449 -0.252018,0.493071 -0.549754,1.105507 -2.731058,4.560411 -1.231165,1.950008 -1.944916,2.892682 -2.447872,3.642346 0.281113,0.118195 0.519836,0.209627 0.964947,0.490653 0.44511,0.281027 0.630304,0.457242 0.900279,0.686985 0.839671,-1.752512 1.785323,-3.438117 2.78899,-5.027797 0.874594,0.492898 1.799395,1.04714 2.689616,1.609193 0.911417,0.575436 1.809454,1.17207 2.699674,1.734124 -1.017049,1.610875 -2.084307,3.160413 -3.228531,4.690996 0.485257,0.217439 0.702784,0.295488 0.935937,0.442693 0.275544,0.173969 0.452924,0.315606 0.886897,0.70818 0.932267,-1.664405 1.746342,-3.047701 2.868204,-4.918494 1.547289,0.976903 3.073386,1.940427 4.553764,3.023308 -0.401467,0.635872 -2.155709,3.085689 -3.278737,4.629654 0.3447,0.158342 0.562227,0.236391 1.007338,0.517418 0.381523,0.24088 0.609108,0.443859 0.836692,0.646837 0.297733,-0.612431 1.379452,-2.419642 2.690911,-4.496823 0.789552,-1.250549 1.677271,-2.468767 2.488019,-3.705933 -1.945518,-1.050463 -3.60436,-2.038507 -5.978282,-3.537317 l -2.882622,-1.819985"
           inkscape:connector-curvature="0" /></g><path
         sodipodi:nodetypes="cccccccccccccccccccccccccccccccccccccccccccscccccccccccccccccccccccccccccccccccccccccccccccccccccccccccccccccccccccccccccccccccccccccccccccccccccccccccccccccccccccccccccccccccccccccccccccccccccccccccccccccccccccccccccccccccccccccccccccccccccccccccccccccccccccccccccccccccccccccccccccccccccccccccccccccccccc"
         inkscape:connector-curvature="0"
         style="fill:#000000;stroke:none"
         id="path331"
         d="m 9.575,142.423 -0.192,-2.509 c 3.65,-3.902 7.208,-7.979 11.011,-11.868 l -11.859,0.919 c 0.025,-0.334 0.021,-0.691 -0.003,-1.021 -0.024,-0.333 -0.078,-0.683 -0.156,-1.009 l 17.387,-1.347 0.143,2.155 c -3.04,3.192 -5.944,6.173 -8.741,9.271 L 14.491,140 26.759,139.05 c 0,0.333 -0.025,0.688 0,1.017 0.028,0.333 0.106,0.684 0.157,1.013 l -17.341,1.343 m 11.287,-23.119 c 1.86,0.844 3.367,1.629 5.067,2.275 -0.068,0.404 -0.153,0.777 -0.192,1.182 -0.039,0.409 -0.028,0.813 -0.042,1.222 L 8.86,115.057 c 0.083,-0.327 0.136,-0.628 0.167,-0.952 0.036,-0.33 0.039,-0.635 0.018,-0.969 l 18.265,-5.365 c -0.12,0.731 -0.261,1.43 -0.333,2.163 -0.07,0.735 -0.063,1.452 -0.083,2.19 -1.93,0.402 -3.702,0.769 -5.462,1.289 z m -1.03,-5.462 -6.113,1.684 5.666,2.946 0.447,-4.63 m 9.684,-14.444 c -0.207,0.607 -0.433,1.203 -0.586,1.817 -0.156,0.619 -0.238,1.251 -0.341,1.882 L 13.423,99.305 c -0.439,1.753 -0.653,3.349 -0.802,4.673 -0.331,-0.136 -0.658,-0.295 -1.029,-0.389 -0.346,-0.083 -0.708,-0.098 -1.066,-0.134 L 13.7,90.758 c 0.333,0.136 0.661,0.295 1.005,0.383 0.37,0.09 0.735,0.104 1.091,0.14 -0.538,1.409 -1.069,2.822 -1.451,4.327 l 15.171,3.79 M 15.174,86.828 c 0.271,-0.583 0.562,-1.147 0.781,-1.744 0.219,-0.597 0.37,-1.222 0.539,-1.836 l 16.362,6.041 c -0.27,0.582 -0.561,1.15 -0.783,1.747 -0.217,0.597 -0.366,1.215 -0.537,1.833 L 15.174,86.828 m 22.998,-8.206 c -2.676,4.943 -7.386,6.697 -12.462,3.952 -4.45,-2.411 -6.293,-7.602 -3.277,-13.169 3.452,-6.371 8.958,-5.817 12.439,-3.963 4.369,2.335 6.266,7.698 3.3,13.18 z m -9.802,0.59 c 2.904,1.572 6.704,1.923 8.521,-1.433 1.866,-3.44 -0.745,-6.846 -4.452,-8.858 -2.888,-1.562 -6.925,-2.009 -8.74,1.341 -1.682,3.108 -0.337,6.236 4.671,8.95 m 2.15,-22.257 1.605,-1.938 c 5.337,-0.271 10.731,-0.72 16.171,-0.875 l -9.169,-7.587 c 0.253,-0.224 0.497,-0.476 0.711,-0.735 0.208,-0.255 0.415,-0.54 0.589,-0.831 l 13.434,11.125 -1.399,1.647 c -4.407,0.177 -8.568,0.302 -12.728,0.586 l -4.001,0.284 9.478,7.847 c -0.23,0.238 -0.498,0.475 -0.703,0.739 -0.217,0.247 -0.4,0.552 -0.593,0.826 L 30.52,56.955 m 24.17,-8.748 c 0.75,1.896 1.282,3.508 2.054,5.158 -0.328,0.246 -0.648,0.456 -0.957,0.714 -0.311,0.271 -0.589,0.569 -0.883,0.852 l -5.88,-18.129 c 0.283,-0.171 0.532,-0.348 0.784,-0.564 0.253,-0.217 0.469,-0.432 0.686,-0.686 l 16.853,8.859 c -0.593,0.437 -1.187,0.842 -1.744,1.318 -0.565,0.475 -1.054,0.998 -1.583,1.512 -1.665,-1.05 -3.191,-2.023 -4.815,-2.875 z m 3.061,-4.645 -5.564,-3.043 2.02,6.058 3.544,-3.015 m 13.263,-3.607 c 1.871,-1.18 3.367,-2.337 4.733,-3.41 0.146,0.326 0.284,0.689 0.477,0.994 0.188,0.298 0.456,0.583 0.688,0.852 L 68.771,43.54 59.52,28.912 c 0.561,-0.298 1.14,-0.572 1.68,-0.916 0.537,-0.333 1.032,-0.739 1.545,-1.126 l 8.269,13.085 M 87.334,18.38 c -0.963,-1.069 -2.181,-1.52 -3.528,-0.988 -1.869,0.732 -2.224,1.989 -1.692,3.338 1.257,3.196 8.216,-0.225 10.349,5.198 1.191,3.028 -0.56,6.228 -4.227,7.669 -1.3,0.512 -2.816,0.753 -4.208,0.476 -0.106,-1.101 -0.238,-2.199 -0.497,-3.274 l 0.45,-0.174 c 0.997,1.495 2.657,1.96 4.29,1.318 1.463,-0.576 2.442,-1.915 1.797,-3.547 -1.484,-3.789 -7.999,0.359 -10.237,-5.345 -1.069,-2.719 -0.085,-5.706 3.512,-7.119 1.704,-0.671 3.469,-0.625 4.182,-0.336 0.017,0.873 0.085,1.747 0.168,2.642 l -0.359,0.142 m 14.178,-7.457 c 0.04,0.354 0.061,0.745 0.149,1.087 0.089,0.348 0.257,0.695 0.394,1.029 -1.55,0.188 -3.273,0.426 -5.777,1.118 l 1.368,5.292 2.556,-0.658 c 1.108,-0.283 2.092,-0.646 2.972,-1 0.039,0.355 0.06,0.745 0.151,1.094 0.086,0.34 0.254,0.692 0.396,1.022 -0.944,0.113 -1.978,0.273 -3.084,0.561 l -2.561,0.657 1.611,6.254 c 2.503,-0.672 4.145,-1.222 5.596,-1.812 0.039,0.359 0.06,0.746 0.149,1.094 0.09,0.345 0.255,0.695 0.395,1.023 l -9.378,2.421 -4.313,-16.766 9.376,-2.416 m 20.04,11.938 -0.317,2.236 c -1.426,0.945 -3.188,1.449 -4.883,1.634 -5.407,0.596 -9.866,-2.287 -10.438,-7.464 -0.729,-6.596 3.49,-10.105 8.999,-10.713 1.667,-0.181 3.737,0.025 5.29,0.671 -0.132,0.887 -0.188,1.757 -0.295,2.664 l -0.351,0.042 c -1.087,-1.265 -2.808,-2.046 -4.449,-1.864 -4.197,0.462 -5.446,4.669 -5.039,8.382 0.476,4.318 2.937,7.116 6.825,6.69 1.57,-0.177 3.295,-1.181 4.315,-2.393 l 0.343,0.115 m 4.023,-14.559 c 0.632,0.092 1.262,0.209 1.896,0.248 0.637,0.043 1.274,0.004 1.913,-0.006 l -0.461,7.208 c -0.093,1.396 -0.271,3.472 -0.13,4.808 0.147,1.257 0.301,2.056 1.161,3.003 0.76,0.81 1.704,1.204 2.819,1.271 2.362,0.156 3.683,-0.625 4.712,-2.776 0.527,-1.09 0.715,-3.981 0.794,-5.224 l 0.491,-7.688 c 0.325,0.071 0.678,0.121 1.014,0.139 0.324,0.021 0.683,0.017 1.016,-0.011 l -0.577,9.033 c -0.259,2.891 -0.406,5.529 -3.159,7.187 -1.433,0.903 -3.208,1.144 -4.88,1.042 -3.072,-0.195 -6.333,-1.375 -7.063,-4.734 -0.211,-1.008 -0.269,-2.13 -0.204,-3.146 l 0.658,-10.354 m 21.394,2.042 5.271,1.246 c 1.163,0.277 2.977,0.654 3.886,1.449 1.233,1.073 1.717,2.364 1.319,4.047 -0.576,2.422 -2.495,3.587 -4.917,3.537 0.801,2.698 1.8,5.333 2.739,7.982 l 0.598,1.765 c -0.73,-0.224 -1.453,-0.473 -2.22,-0.653 -0.742,-0.182 -1.505,-0.281 -2.255,-0.406 l -1.714,-5.89 c -0.217,-0.753 -0.638,-2.057 -0.961,-3.124 l -0.173,-0.043 -1.881,7.942 c -0.604,-0.202 -1.206,-0.418 -1.823,-0.564 -0.623,-0.149 -1.25,-0.22 -1.886,-0.316 z m 1.827,8.845 c 2.536,0.864 4.116,-0.067 4.719,-2.617 0.084,-0.345 0.147,-0.721 0.169,-1.264 0.09,-2.149 -1.811,-2.391 -3.319,-2.746 l -1.569,6.627 m 14.915,-4.31 c 0.579,0.262 1.146,0.554 1.744,0.766 0.599,0.221 1.223,0.363 1.836,0.534 l -5.94,16.391 c -0.584,-0.261 -1.156,-0.55 -1.753,-0.769 -0.597,-0.216 -1.223,-0.361 -1.835,-0.529 l 5.948,-16.393 m 7.519,22.128 c -0.545,-0.327 -1.08,-0.675 -1.654,-0.958 -0.567,-0.278 -1.171,-0.49 -1.769,-0.721 l 6.894,-14.037 c -1.619,-0.795 -3.137,-1.342 -4.399,-1.762 0.202,-0.297 0.426,-0.582 0.599,-0.93 0.154,-0.312 0.244,-0.67 0.353,-1.009 l 11.751,5.771 c -0.204,0.295 -0.429,0.582 -0.585,0.902 -0.17,0.34 -0.258,0.692 -0.368,1.033 -1.267,-0.817 -2.536,-1.637 -3.922,-2.322 l -6.9,14.033 m 13.024,-0.888 c 0.271,-3.781 0.817,-7.563 1.168,-11.415 0.602,0.471 1.191,0.962 1.819,1.396 0.633,0.429 1.303,0.791 1.964,1.181 -0.22,1.542 -0.509,3.313 -0.764,4.954 -0.233,1.566 -0.428,2.941 -0.396,3.423 1.47,-0.443 5.406,-2.868 7.42,-4.107 0.309,0.27 0.627,0.521 0.981,0.759 0.343,0.231 0.691,0.441 1.056,0.625 -3.346,1.659 -6.652,3.128 -9.812,4.917 l -4.428,6.491 c -0.493,-0.401 -0.977,-0.824 -1.498,-1.179 -0.526,-0.361 -1.094,-0.652 -1.647,-0.973 l 4.137,-6.072 m 15.365,15.01 c -1.861,0.837 -3.446,1.449 -5.058,2.29 -0.263,-0.317 -0.483,-0.628 -0.763,-0.927 -0.275,-0.297 -0.59,-0.557 -0.886,-0.841 l 17.839,-6.696 c 0.185,0.275 0.376,0.513 0.601,0.751 0.228,0.246 0.455,0.448 0.716,0.657 l -8.075,17.239 c -0.47,-0.575 -0.896,-1.147 -1.4,-1.683 -0.506,-0.543 -1.044,-1.009 -1.582,-1.513 0.975,-1.714 1.874,-3.282 2.65,-4.945 z m 4.775,2.848 2.787,-5.692 -5.961,2.287 3.174,3.405 m 9.888,23.782 c -1.776,-1.573 -3.437,-3.191 -4.655,-5.067 -2.923,-4.498 -3.265,-9.977 1.745,-13.229 5.312,-3.445 10.538,-1.32 13.734,3.603 1.191,1.833 1.91,3.786 2.032,5.984 -0.874,0.142 -1.757,0.411 -2.538,0.798 l -0.193,-0.297 c 0.794,-1.911 0.542,-3.927 -0.551,-5.61 -2.313,-3.563 -6.665,-3.221 -10.249,-0.896 -3.713,2.411 -4.708,5.721 -2.599,8.963 0.69,1.067 1.481,1.643 2.12,1.958 l 4.979,-3.241 c 0.306,0.56 0.585,1.135 0.936,1.668 0.345,0.533 0.756,1.029 1.143,1.534 l -5.904,3.832 m 20.36,4.904 c -0.348,0.097 -0.727,0.185 -1.052,0.328 -0.331,0.148 -0.644,0.373 -0.948,0.567 -0.443,-1.505 -0.969,-3.16 -2.073,-5.507 l -4.989,2.226 1.081,2.416 c 0.468,1.042 0.986,1.959 1.486,2.761 -0.343,0.101 -0.725,0.186 -1.052,0.335 -0.322,0.142 -0.642,0.369 -0.94,0.561 -0.272,-0.908 -0.604,-1.907 -1.076,-2.951 L 224,80.987 l -5.892,2.634 c 1.083,2.359 1.904,3.886 2.726,5.217 -0.344,0.104 -0.728,0.189 -1.054,0.331 -0.321,0.149 -0.636,0.372 -0.942,0.563 l -3.957,-8.844 15.802,-7.066 3.959,8.841 m 1.911,4.79 0.652,2.43 c -2.859,4.512 -5.606,9.177 -8.614,13.708 l 11.481,-3.107 c 0.04,0.332 0.107,0.687 0.193,1 0.086,0.319 0.206,0.66 0.34,0.965 L 223.77,107 l -0.54,-2.09 c 2.396,-3.705 4.698,-7.17 6.865,-10.736 l 2.079,-3.429 -11.882,3.209 c -0.06,-0.324 -0.102,-0.683 -0.191,-1.001 -0.089,-0.319 -0.228,-0.651 -0.338,-0.963 l 16.79,-4.537 m -8.177,36.228 -2.231,-0.361 c -0.912,-1.452 -1.38,-3.217 -1.529,-4.917 -0.483,-5.416 2.498,-9.819 7.689,-10.28 6.609,-0.582 10.024,3.707 10.518,9.225 0.149,1.669 -0.107,3.735 -0.784,5.276 -0.882,-0.152 -1.757,-0.228 -2.661,-0.352 l -0.032,-0.351 c 1.283,-1.059 2.101,-2.771 1.956,-4.415 -0.37,-4.201 -4.551,-5.54 -8.271,-5.208 -4.33,0.382 -7.179,2.777 -6.833,6.674 0.14,1.573 1.114,3.324 2.303,4.369 l -0.125,0.34 m 4.047,7.06 c 3.397,-1.689 6.93,-3.145 10.429,-4.805 -0.101,0.761 -0.229,1.518 -0.273,2.275 -0.054,0.763 -0.027,1.527 -0.027,2.291 -1.439,0.598 -3.111,1.248 -4.653,1.862 -1.467,0.596 -2.748,1.123 -3.148,1.404 1.127,1.044 5.22,3.192 7.313,4.297 -0.077,0.404 -0.129,0.805 -0.155,1.239 -0.03,0.407 -0.03,0.813 -0.009,1.222 -3.126,-2.036 -6.07,-4.139 -9.217,-5.952 l -7.84,-0.504 c 0.092,-0.631 0.211,-1.264 0.257,-1.9 0.033,-0.632 0.002,-1.271 -0.008,-1.906 l 7.331,0.477" /></g></g></svg>