<?xml version="1.0" encoding="UTF-8" standalone="no"?>
<svg
   xmlns:dc="http://purl.org/dc/elements/1.1/"
   xmlns:cc="http://creativecommons.org/ns#"
   xmlns:rdf="http://www.w3.org/1999/02/22-rdf-syntax-ns#"
   xmlns:svg="http://www.w3.org/2000/svg"
   xmlns="http://www.w3.org/2000/svg"
   xmlns:sodipodi="http://sodipodi.sourceforge.net/DTD/sodipodi-0.dtd"
   xmlns:inkscape="http://www.inkscape.org/namespaces/inkscape"
   viewBox="0 0 657.40277 650.02252"
   inkscape:export-ydpi="90"
   inkscape:export-xdpi="90"
   inkscape:export-filename="/home/dodo/Pictures/matehero_white.ink.png"
   sodipodi:docname="Matehero_white.svg"
   inkscape:version="1.0 (unknown)"
   version="1.1"
   id="svg3674"
   height="693.35736"
   width="701.22961">
  <defs
     id="defs3676">
    <inkscape:perspective
       id="perspective3682"
       inkscape:persp3d-origin="372.04724 : 394.12223 : 1"
       inkscape:vp_z="744.09449 : 569.51593 : 1"
       inkscape:vp_y="0 : 999.99999 : 0"
       inkscape:vp_x="0 : 569.51593 : 1"
       sodipodi:type="inkscape:persp3d" />
    <inkscape:perspective
       sodipodi:type="inkscape:persp3d"
       inkscape:vp_x="0 : 43.834838 : 1"
       inkscape:vp_y="0 : 999.99999 : 0"
       inkscape:vp_z="1 : 43.834838 : 1"
       inkscape:persp3d-origin="0.5 : 43.668172 : 1"
       id="perspective3752" />
    <inkscape:perspective
       sodipodi:type="inkscape:persp3d"
       inkscape:vp_x="0 : 1460.6598 : 1"
       inkscape:vp_y="0 : 999.99999 : 0"
       inkscape:vp_z="2834.649 : 1460.6598 : 1"
       inkscape:persp3d-origin="1417.3245 : 988.21813 : 1"
       id="perspective5436" />
    <inkscape:perspective
       sodipodi:type="inkscape:persp3d"
       inkscape:vp_x="0 : 43.834838 : 1"
       inkscape:vp_y="0 : 999.99999 : 0"
       inkscape:vp_z="1 : 43.834838 : 1"
       inkscape:persp3d-origin="0.5 : 43.668172 : 1"
       id="perspective10640" />
  </defs>
  <sodipodi:namedview
     inkscape:document-rotation="0"
     fit-margin-bottom="0"
     fit-margin-right="0"
     fit-margin-left="0"
     fit-margin-top="0"
     inkscape:window-maximized="1"
     inkscape:window-y="18"
     inkscape:window-x="0"
     inkscape:window-height="1041"
     inkscape:window-width="1916"
     showgrid="false"
     inkscape:current-layer="layer1"
     inkscape:document-units="px"
     inkscape:cy="217.1154"
     inkscape:cx="278.86739"
     inkscape:zoom="0.47093312"
     inkscape:pageshadow="2"
     inkscape:pageopacity="0.0"
     borderopacity="1.0"
     bordercolor="#666666"
     pagecolor="#ffffff"
     id="base" />
  <metadata
     id="metadata3679">
    <rdf:RDF>
      <cc:Work
         rdf:about="">
        <dc:format>image/svg+xml</dc:format>
        <dc:type
           rdf:resource="http://purl.org/dc/dcmitype/StillImage" />
        <dc:title />
      </cc:Work>
    </rdf:RDF>
  </metadata>
  <g
     transform="translate(-171.29861,-147.35091)"
     id="layer1"
     inkscape:groupmode="layer"
     inkscape:label="Layer 1">
    <path
       inkscape:connector-curvature="0"
       id="path3001"
       transform="translate(0,52.362183)"
       d="m 500.4375,121.375 c -165.35712,0 -299.40625,134.04913 -299.40625,299.40625 0,165.35712 134.04913,299.40625 299.40625,299.40625 44.85221,0 87.39884,-9.85672 125.59375,-27.53125 0.38341,0.30505 0.65625,0.5 0.65625,0.5 17.70885,49.36906 96.66021,1.85016 83.71875,-58.9375 55.20129,-54.31224 89.4375,-129.87925 89.4375,-213.4375 0,-165.35712 -134.04913,-299.40625 -299.40625,-299.40625 z"
       style="fill:#ffffff;fill-opacity:1;stroke:none" />
    <g
       transform="matrix(-0.74736709,0,0,0.74736709,873.68354,59.54486)"
       id="g11487">
      <path
         inkscape:connector-curvature="0"
         style="fill:#fe0000;fill-rule:evenodd"
         d="m 548.84375,65.125 c -12.1928,8.876744 -23.68798,18.457517 -36.40625,26.8125 8.91781,1.049923 17.54751,3.854604 26.09375,7.0625 9.47498,0.807328 18.67446,1.78067 27.34375,2.84375 C 559.903,89.89575 556.15075,75.738 548.84375,65.125 Z m -66,3.125 c -7.431,11.049 -16.81375,20.14375 -24.71875,30.71875 3.51157,-0.415803 7.08491,-0.722152 10.6875,-1 9.41121,-2.560485 18.85336,-5.385414 28.65625,-5.96875 1.63219,-0.221872 3.26464,-0.330075 4.875,-0.40625 -6.03262,-8.255195 -10.94686,-17.607956 -19.5,-23.34375 z m -62.875,1.90625 C 414.7018,78.791535 408.78265,86.753224 403.125,95 c 4.3839,-1.909324 9.068,-3.144387 14.09375,-3.40625 13.17905,-1.433078 24.91505,4.70704 37.375,7.65625 0.69979,-0.09028 1.39117,-0.193639 2.09375,-0.28125 -11.824,-10.016 -23.65675,-20.0345 -36.71875,-28.8125 z M 611,77.125 c -15.058,7.902 -29.44425,16.47075 -43.90625,24.96875 v 0.71875 c 21.121,3.199 39.34325,9.27525 58.78125,14.15625 C 620.442,104.16175 616.12,90.245 611,77.125 Z M 371,88.15625 c -0.106,0.213 -0.19875,0.41675 -0.46875,0.46875 -7.489,10.67 -12.135,24.205 -21.375,33.125 0.044,0.204 -0.104,0.236 -0.25,0.25 -0.347,0.453 -0.5335,1.07275 -1.4375,0.96875 -12.203,-5.877 -25.555,-10.58375 -38.375,-15.84375 -2.339,13.341 -3.66275,27.71975 -7.21875,39.84375 -13.121,-3.599 -23.9795,-9.45675 -37.4375,-12.71875 -0.033,0.447 -0.14675,0.7795 -0.46875,0.9375 v 0.5 c -1.046,12.794 -2.47075,25.2205 -4.09375,37.4375 -12.295,-2.345 -27.02375,-2.27375 -39.84375,-4.09375 -2.798,10.962 -1.44225,26.079 -4.78125,36.5 V 206 c 0.464,1.904 -1.04275,1.861 -1.21875,3.125 -11.946,-1.733 -22.63625,-4.714 -35.03125,-6 0.028,3.548 -0.425,6.6175 -0.25,10.3125 -0.158,1.682 0.33825,3.99825 -0.21875,5.28125 0.009,12.009 0.19375,24.226 -2.65625,33.375 h -12.71875 -9.59375 c -7.398,-0.038 -14.23725,0.46625 -20.15625,1.90625 v 0.71875 c 0.201,0.279 0.29575,0.6305 0.21875,1.1875 4.813,13.508 8.902,29.04675 12.25,43.21875 -9.565,-0.922 -18.6195,0.71975 -28.0625,0.71875 -0.411,0.549 -1.84825,0.098 -2.65625,0.25 H 113.25 c 2.074,14.886 5.31825,28.5655 7.90625,42.9375 -9.952,4.287 -21.95275,6.55625 -30.96875,11.78125 5.355,10.325 11.61475,19.7365 15.84375,31.1875 -7.879,2.041 -16.18025,3.64975 -22.78125,6.96875 5.821,9.458 11.73325,18.79925 16.78125,29.03125 -10.247,2.633 -19.75,5.996 -29.75,8.875 4.407,6.793 10.17375,12.221 15.84375,17.75 1.061,0.86 2.016,1.84625 2.875,2.90625 3.286,2.874 6.104,6.20375 9.125,9.34375 h 0.96875 c 3.777,-48.279 16.43875,-90.09375 33.59375,-126.96875 17.04,-36.626 38.114,-69.42525 62.875,-97.65625 43.837,-49.982 97.4855,-89.76975 166.0625,-114.96875 5.01373,-1.84218 10.13476,-3.68862 15.3125,-5.46875 3.21534,-3.55392 6.6114,-7.0786 10.25,-10.28125 C 382.1991,99.335658 377.60011,92.73808 371,88.15625 Z M 677.71875,106.875 c -17.53,1.991 -30.85325,8.18925 -47.53125,11.03125 v 0.25 c 54.031,20.05 99.4725,48.6965 139.6875,82.5625 -0.435,-14.197 1.99175,-26.8265 0.96875,-40.8125 h -0.25 c -12.542,3.699 -26.0525,6.4585 -37.6875,11.0625 -0.078,-0.882 -0.59075,-1.32425 -0.71875,-2.15625 -0.269,-0.772 -0.65575,-1.42925 -0.71875,-2.40625 -3.794,-11.805 -4.4585,-26.754 -7.4375,-39.375 -14.694,3.786 -28.4165,9.80975 -43.1875,12.71875 -0.986,-11.014 -2.581,-21.418 -3.125,-32.875 z m 136.3125,91.21875 c -15.347,0.253 -27.155,4.02525 -42,4.78125 36.759,37.393 69.446,78.062 93.125,128.875 23.049,49.466 41.22575,109.94375 36.71875,183.84375 -4.237,69.466 -20.982,126.058 -47.5,174.25 -25.836,46.955 -60.6475,87.70275 -100.5625,120.96875 -40.361,33.635 -86.90175,60.44225 -144.71875,77.03125 -42.694,12.249 -96.10125,17.31675 -149.78125,12.71875 -16.512,-1.414 -32.562,-4.0925 -47.75,-7.4375 -21.03676,-4.63308 -40.76317,-10.71726 -59.34375,-18.0625 -3.88137,6.50787 -8.96371,12.09747 -14.84375,16.75 6.44795,-1.69086 12.87466,-3.39369 19.46875,-4.9375 10.279,10.04 17.34275,23.306 24.96875,36 12.089,-5.991 23.94825,-12.22175 35.28125,-18.96875 10.157,9.442 19.1745,20.00675 27.8125,30.96875 h 1.21875 c 12.303,-8.977 26.178,-16.38575 38.875,-24.96875 10.706,8.254 21.68325,16.23175 31.90625,24.96875 H 521.25 c 7.256,-7.784 14.47775,-15.60625 21.84375,-23.28125 1.42,-1.621 2.91125,-3.1425 4.53125,-4.5625 1.7,-1.181 2.6645,-3.0815 4.5625,-4.0625 12.401,7.118 22.9325,16.11 34.8125,23.75 8.921,-11.719 14.60325,-26.662 23.28125,-38.625 15.42,8.82 30.288,18.1595 44.875,27.8125 6.393,-12.246 10.51875,-26.7475 16.09375,-39.8125 13.765,6.076 27.456,12.204 41.75,17.75 1.2,-7.837 1.2445,-16.8415 1.1875,-25.9375 -0.552,-0.647 -0.0638,-2.29875 -0.21875,-3.34375 v -11.53125 c -0.396,-0.259 -0.396,-2.14725 0,-2.40625 v -6.71875 c 15.823,4.896 29.796,11.6705 45.125,17.0625 4.985,-12.056 5.32275,-28.731 9.09375,-42 h 33.84375 c 0.434,-3.488 1.04975,-6.8105 0.96875,-10.8125 0.15,-0.729 -0.297,-2.07325 0.25,-2.40625 V 800 c -0.553,-0.726 -0.095,-2.46875 -0.25,-3.59375 v -7.9375 c -0.4,-2.481 -0.4,-6.61275 0,-9.09375 0.15,-0.729 -0.297,-2.07425 0.25,-2.40625 10.729,-1.031 20.759,-2.73 32.375,-2.875 0.333,-0.547 1.67725,-0.099 2.40625,-0.25 v -3.125 -4.8125 C 837.82625,752.75225 836.432,740.803 835.875,728 c 14.38,-2.899 29.3675,-5.19625 43.9375,-7.90625 -3.316,-13.724 -8.06525,-28.125 -11.78125,-42.25 11.228,-0.691 21.62575,-2.2345 33.84375,-1.9375 -3.637,-10.955 -10.5695,-21.908 -16.3125,-32.375 -1.162,-2.12 -2.19725,-3.037 0.71875,-3.625 0.308,-0.012 0.33075,-0.28575 0.71875,-0.21875 9.824,-4.336 21.661,-6.64775 32.875,-9.59375 C 914.662,617.06575 904.381,609.109 899,596.25 c 10.362,-2.599 18.865,-7.05 29.75,-9.125 -7.182,-11.858 -17.34225,-20.7115 -25.65625,-31.4375 8.797,-7.683 18.3995,-14.52675 27.8125,-21.59375 -7.641,-11.319 -18.2555,-19.6595 -27.8125,-29.0625 9.141,-7.819 19.34325,-14.5405 28.78125,-22.0625 -4.854,-10.346 -16.45575,-13.96925 -21.84375,-23.78125 10.167,-6.153 20.51225,-12.1365 29.78125,-19.1875 -11.967,-7.233 -24.1525,-14.24125 -37.6875,-19.90625 8.576,-11.343 20.974,-18.857 29.75,-30 -13.319,-6.601 -27.03,-12.8 -41.75,-18 5.837,-12.723 16.77075,-20.35675 24.71875,-30.96875 -12.494,-6.866 -30.123,-8.61075 -44.875,-13.21875 3.155,-11.804 6.96225,-22.9215 11.03125,-33.8125 -9.968,-5.713 -22.52075,-8.86275 -33.84375,-13.21875 3.885,-14.034 11.14075,-24.68925 15.84375,-37.90625 h -0.96875 c -15.866,1.815 -34.06525,1.286 -50.15625,2.875 0.288,-13.712 1.6085,-26.42275 1.9375,-40.09375 0.15,-0.73 -0.32825,-2.042 0.21875,-2.375 z m -716.40625,264 c -12.414,8.066 -25.7705,15.188 -37.4375,24 10.309,7.189 21.0825,14.55225 31.4375,22.53125 1.088,0.839 4.43075,2.733 4.34375,3.375 -0.085,0.628 -7.2015,3.8995 -7.9375,4.3125 -7.747,4.344 -15.27775,9.45825 -21.84375,14.65625 10.417,6.144 20.94775,12.1485 30.71875,18.9375 -8.917,9.323 -17.49325,18.9855 -25.65625,29.0625 10.138,5.142 20.502,10.0305 29.75,16.0625 -6.876,9.044 -16.9155,14.94575 -22.8125,24.96875 12.459,2.341 25.50025,4.106 38.65625,5.75 C 101.23775,580.882 93.612,522.99075 97.875,462.09375 Z m 1.9375,18.71875 c -1.828,9.067 -1.69975,21.22025 -1.21875,32.15625 2.049,46.603 10.1795,88.0005 22.8125,124.3125 0.231,0.665 1.56375,2.73125 0.46875,2.15625 -1.289,-4.39 -3.20825,-8.11175 -4.53125,-12.46875 -8.183,10.137 -15.5375,21.11125 -23.0625,31.90625 11.047,5.273 25.5815,7.06725 37.9375,11.03125 -5.184,12.657 -11.3745,24.31675 -16.8125,36.71875 11.925,2.474 25.322,3.49675 38.875,4.34375 -3.526,13.354 -8.2175,25.49525 -12.9375,37.65625 11.831,5.129 28.85475,5.0915 42.71875,8.1875 -3.411,11.148 -10.0555,19.071 -13.6875,30 9.06453,2.73604 19.93615,3.64667 30.96875,4.40625 -0.20596,-5.66674 -0.56324,-11.28112 -1.34375,-16.75 -0.19773,-2.42069 -0.58346,-4.74587 -1.125,-7.03125 -16.41412,-18.42463 -31.08771,-38.29436 -44.09375,-60.3125 12.67938,19.79574 27.06293,38.49879 42.84375,55.90625 -0.17107,-0.51354 -0.34544,-1.0236 -0.53125,-1.53125 -52.6661,-59.64559 -89.07641,-135.54527 -96.8125,-240.125 -0.147,-0.012 -0.26275,-0.046 -0.21875,-0.25 -1.966,-4.071 -0.23975,-10.35375 -0.71875,-15.84375 v -9.59375 c -1.594,-5.171 1.15275,-9.952 0.46875,-14.875 z m 25.34375,166.09375 c 0.0952,-0.0232 0.17968,0.0949 0.0937,0.46875 7.798,18.122 16.0595,35.7695 25.4375,52.3125 0.269,0.498 0.249,0.48775 -0.25,0.21875 C 140.88855,683.28525 132.008,666.286 125,647.375 c -0.44938,-0.0306 -0.25243,-0.43012 -0.0937,-0.46875 z"
         transform="translate(0,52.362183)"
         id="path8058" />
      <path
         inkscape:connector-curvature="0"
         id="path3792"
         d="m 262.66405,945.68129 c -13.82729,-3.27609 -22.45586,-10.89855 -28.04592,-24.77599 -2.37704,-5.90119 -7.79864,-15.38468 -12.04757,-21.07446 -6.68136,-8.94686 -7.92456,-15.39578 -9.19884,-47.71501 -1.6045,-40.69278 -3.76881,-47.16496 -25.26878,-75.57153 -83.15928,-109.87216 -94.343137,-278.58835 -26.84155,-404.91446 42.15146,-78.8844 118.76544,-146.96946 199.41365,-177.21436 10.52478,-3.947 20.0903,-10.99753 27.97468,-20.61972 15.23055,-18.58668 28.93663,-21.84794 54.83007,-13.04645 15.88962,5.40106 19.59665,5.61238 28.93089,1.64916 20.62378,-8.75657 44.6983,-8.37052 64.04511,1.02704 9.66175,4.69307 29.722,11.05007 44.57844,14.12669 14.85645,3.07656 40.68639,10.9715 57.39989,17.54426 175.01227,68.82554 273.35754,250.39809 236.6395,436.90138 -12.83495,65.19253 -48.4634,132.46504 -97.77733,184.61973 -104.90067,110.94338 -264.16816,148.62277 -410.29308,97.06685 -8.10115,-2.85824 -15.27885,-5.19677 -15.95076,-5.19677 -0.67159,0 -5.13088,6.19307 -9.90925,13.7624 -14.31148,22.67086 -44.12194,31.57132 -78.47915,23.43124 z m 47.36909,-17.10142 c 6.94234,-1.92796 14.16358,-6.3855 16.04732,-9.90567 4.20876,-7.86405 -0.65369,-11.80391 -9.18465,-7.44183 -10.06221,5.14499 -26.53902,7.17156 -36.54686,4.49499 -16.91103,-4.52268 -12.86703,-9.56678 9.27954,-11.57499 22.34746,-2.0264 33.10623,-9.51717 33.10623,-23.05049 0,-6.53723 -8.20684,-8.84501 -11.6488,-3.27566 -3.47371,5.62065 -34.76071,10.56279 -44.18543,6.97958 -12.23427,-4.65148 -7.96574,-8.81172 11.72105,-11.42325 18.47669,-2.45102 37.36026,-15.38601 37.36026,-25.5912 0,-5.44033 -3.24176,-6.02428 -31.1354,-5.60867 -27.16872,0.40483 -31.28699,-0.2887 -32.32391,-5.4449 -1.02947,-5.11734 1.60146,-5.90881 19.64056,-5.90881 23.85438,0 38.24217,-7.65629 41.91913,-22.30669 3.73978,-14.90134 -6.32884,-22.70952 -25.9309,-20.1092 -12.9717,1.72075 -16.06353,1.15658 -16.06353,-2.93127 0,-11.41241 23.63863,-15.71654 39.96046,-7.27608 13.06692,6.75719 16.66252,16.39469 18.70359,50.1339 1.12976,18.67584 3.71681,32.33866 7.0156,37.0483 2.87439,4.10364 5.22611,10.16191 5.22611,13.46284 0,7.15368 7.71858,7.91007 13.20906,1.29442 2.14878,-2.58896 4.82564,-12.46513 5.94866,-21.947 2.28586,-19.30079 9.15899,-23.1275 14.81592,-8.24886 6.38692,16.79857 10.91442,3.8402 9.25117,-26.47808 -2.2315,-40.67799 -17.49177,-66.92449 -38.91138,-66.92449 -6.2934,0 -7.6899,1.83956 -7.6899,10.12939 0,5.99627 -1.76927,10.12938 -4.33606,10.12938 -4.67471,0 -35.03587,-30.13385 -44.1314,-43.8012 -6.17656,-9.28079 -7.22292,-34.41626 -2.31388,-55.58396 5.67076,-24.45267 -9.06344,-34.1835 -25.27453,-16.69165 -13.8901,14.98758 -14.45836,30.00007 -2.02689,53.53293 5.90949,11.18594 10.70137,23.75676 10.64868,27.93514 -0.12147,9.75348 -9.72015,19.24409 -28.28835,27.97218 -19.15467,9.0037 -28.7884,29.3396 -18.68534,39.44271 2.10083,2.10072 4.23442,18.50653 4.82091,37.07087 0.95891,30.35077 2.07517,35.23887 12.5942,55.15079 9.17791,17.37307 13.89653,22.67388 23.03525,25.87841 14.47795,5.07669 28.24954,5.34612 44.37351,0.86812 z M 467.6968,906.05696 c 4.2432,-15.36763 1.00212,-19.25998 -11.88617,-14.27498 -5.71096,2.20896 -23.28511,3.32341 -41.91138,2.65782 -17.64203,-0.63041 -32.83611,0.22015 -33.76464,1.89044 -2.85852,5.14162 51.5792,21.07893 74.96764,21.94777 7.76653,0.28868 9.64351,-1.53265 12.59455,-12.22105 z m 76.171,-95.03356 c 5.55732,-4.4814 16.57304,-10.92094 24.47937,-14.31003 7.90632,-3.38909 14.3753,-7.49989 14.3753,-9.13515 0,-6.82632 -30.61001,-25.89279 -37.74887,-23.51316 -4.17027,1.39006 -26.38065,58.90883 -23.75952,61.53006 1.81756,1.81727 4.35295,0.18604 22.65372,-14.57172 z M 216.93692,768.12071 c 1.12031,-2.91964 10.18916,-8.91367 20.15277,-13.32006 21.20791,-9.37915 22.89007,-15.7695 9.76271,-37.08324 -17.12306,-27.80066 -8.51578,-62.59555 19.18439,-77.55315 14.96619,-8.08164 28.50379,-4.75889 36.15586,8.87436 4.29013,7.64376 4.37758,12.66316 0.62194,35.78873 -3.86369,23.79297 -3.73572,28.12084 1.10984,37.49107 3.01283,5.8262 7.09667,10.59309 9.07493,10.59309 1.97861,0 9.85961,-5.36052 17.51406,-11.91224 7.6541,-6.55168 22.1155,-15.79092 32.13652,-20.53152 17.75478,-8.39934 18.15017,-8.8925 15.49964,-19.32011 -1.4961,-5.88537 -2.90848,-23.87823 -3.13909,-39.98405 L 374.5918,611.88025 355.52694,591.28801 C 324.00156,557.23667 296.01,491.34852 295.78175,450.65595 c -0.0372,-6.27629 -2.89565,-13.01762 -7.16148,-16.87825 -12.29135,-11.12341 -23.69534,-34.2185 -25.03917,-50.70823 -1.03861,-12.74735 -3.70196,-18.34893 -13.48966,-28.37247 -6.70769,-6.86914 -14.14333,-19.08574 -16.52373,-27.14802 -2.38042,-8.06225 -6.01451,-15.22077 -8.07551,-15.90774 -9.98723,-3.32916 -59.67562,80.58543 -74.50742,125.82965 -35.2226,107.44661 -19.57809,224.34369 42.54616,317.9097 12.13636,18.2787 19.70065,22.39595 23.40598,12.74012 z m 434.38753,-17.77273 c 2.85007,-7.12346 6.9302,-22.69742 9.06716,-34.60877 9.9241,-55.32353 8.40166,-52.20736 43.58408,-89.20111 40.49527,-42.5804 52.93755,-64.41382 49.55671,-86.96068 -1.67947,-11.19972 -4.91445,-17.81949 -11.07616,-22.6663 -11.51544,-9.05797 -17.92329,-8.63423 -26.23648,1.73496 l -6.87989,8.58119 -17.77574,-12.47098 c -9.77687,-6.85901 -18.52699,-11.71994 -19.44505,-10.80204 -0.91772,0.91788 3.28294,11.27468 9.33491,23.01512 10.07199,19.53883 10.99783,23.94375 10.93468,52.02371 -0.0642,28.38189 -0.92617,32.26782 -11.52387,51.93009 -25.67497,47.63604 -50.03717,64.87121 -91.61124,64.81069 -42.55223,-0.0619 -70.10553,-11.72083 -94.23947,-39.87651 -14.60524,-17.03895 -17.48976,-14.74138 -7.0889,5.64615 6.71748,13.16701 20.47589,23.88646 48.69334,37.93762 8.99827,4.48081 23.22873,15.72417 31.62329,24.98523 18.94162,20.8969 23.92496,24.40602 45.88581,32.31105 26.41916,9.50993 31.16106,8.69543 37.19682,-6.38942 z m -32.20302,-80.16359 c 42.53265,-21.19496 65.2208,-78.91555 48.91449,-124.44374 -3.28158,-9.16267 -7.71117,-17.21469 -9.84374,-17.89336 -2.13258,-0.67868 -8.49721,6.81806 -14.14333,16.6594 -13.40862,23.37087 -35.33032,44.84523 -42.83822,41.96415 -5.07855,-1.94879 -4.91647,-3.21999 1.67236,-13.11439 4.01327,-6.026 15.76134,-27.99865 26.10716,-48.82808 18.38586,-37.01694 18.68265,-38.06697 13.14289,-46.52177 -7.60886,-11.61251 -4.47314,-15.21224 13.25128,-15.21224 10.91408,0 16.68107,-1.95135 21.70559,-7.34449 7.98162,-8.56712 11.9645,-25.83862 8.55596,-37.1001 -4.19795,-13.86933 -32.70309,-36.88556 -67.47053,-54.47844 -40.35516,-20.42042 -43.17012,-22.37006 -39.41313,-27.29824 1.58186,-2.07494 2.96386,-9.26347 3.07089,-15.97455 0.16883,-10.6384 -1.27934,-12.90493 -11.30946,-17.68803 -11.46749,-5.46851 -11.49753,-5.54428 -9.36631,-23.67903 1.8476,-15.71795 1.16318,-19.1683 -5.0306,-25.36192 -9.99164,-9.99166 -23.29727,-8.94989 -42.67885,3.34155 -17.6876,11.21716 -27.20586,12.51568 -59.44704,8.10997 -20.52855,-2.80523 -19.50448,-3.34236 -37.9474,19.90132 -6.68607,8.4266 -11.10418,10.22042 -31.10129,12.62785 -26.50355,3.19071 -30.90105,6.94907 -39.46479,33.72846 -5.02181,15.70395 -4.96508,16.66272 1.18007,19.95154 8.51984,4.55957 8.15484,13.57733 -1.14157,28.22421 -10.98364,17.30503 -17.9996,14.54684 -16.67063,-6.55384 1.00316,-15.92663 0.76107,-16.47443 -4.84422,-10.95597 -5.0863,5.0077 -5.87707,12.45875 -5.7339,54.02342 0.19921,57.37088 7.4657,90.8955 28.45009,131.23 14.77034,28.3901 27.34463,40.41176 58.96522,56.37379 26.87023,13.56413 43.83258,18.08272 84.17727,22.42415 35.89047,3.86209 41.42348,8.8701 19.33533,17.50003 -3.73774,1.46032 5.43814,12.65287 15.44158,18.83531 28.83872,17.82331 67.64002,20.9254 94.47483,7.55304 z M 463.98944,588.74286 c -7.25164,-1.81086 -10.46264,-10.17083 -5.20449,-13.55041 6.85186,-4.40404 33.80685,-10.49555 38.49001,-8.69835 16.62368,6.37908 -14.23516,27.0059 -33.28552,22.24876 z m -79.29221,-29.02924 c -8.32602,-6.54926 -10.28977,-18.68837 -4.71017,-29.11432 2.77274,-5.18091 6.70835,-5.81805 27.85583,-4.50973 19.72192,1.22014 28.51999,0.0541 44.17293,-5.85405 25.88432,-9.77001 59.81338,-32.99879 66.6406,-45.62352 4.00889,-7.41381 8.33716,-10.41191 16.14491,-11.18325 22.00711,-2.17408 38.3573,30.63888 20.06531,40.26851 -4.17838,2.19967 -14.92228,11.39377 -23.87499,20.43132 -26.81013,27.06348 -57.3381,38.16769 -111.68567,40.62434 -22.04494,0.9965 -28.04659,0.1226 -34.60875,-5.0393 z m 101.42898,-19.26105 c 30.14339,-11.50867 65.71478,-51.04539 52.99766,-58.90512 -1.69464,-1.04734 -10.74662,4.63872 -20.11528,12.63571 -30.38482,25.93594 -77.83561,45.98204 -109.32992,46.18732 -12.186,0.0794 -15.48412,2.79143 -10.12939,8.32857 5.18963,5.36629 66.12435,-0.43777 86.57693,-8.24648 z m -81.76783,-61.83761 c -9.57869,-10.19629 -9.25793,-23.37952 1.11119,-45.65324 11.09202,-23.82694 16.81783,-21.65064 17.04845,6.47986 0.0979,12.15974 2.18491,24.80137 4.75339,28.81433 10.54435,16.47528 -8.90576,25.26889 -22.91303,10.35905 z m -53.26237,-25.08652 c -6.53988,-4.49195 -11.47897,-16.96102 -11.47897,-28.98019 0,-16.20896 8.01505,-18.41126 20.73014,-5.69613 8.2281,8.2282 9.87953,12.39969 9.02089,22.78657 -0.80595,9.7492 -2.62586,12.91589 -7.80402,13.57798 -3.7141,0.4749 -8.42461,-0.28497 -10.46804,-1.68823 z M 461.16976,397.985 c 0,-5.90187 14.84698,-17.15549 29.12267,-22.07425 12.49731,-4.30603 25.84076,0.75427 27.71976,10.51252 1.82836,9.49397 -2.40168,11.42498 -30.67485,14.00253 -21.54757,1.9644 -26.16758,1.53346 -26.16758,-2.4408 z m 160.38204,-8.16507 c -3.71411,-2.87672 -15.5915,-9.73915 -26.39449,-15.24987 -19.61625,-10.00651 -24.15657,-18.99488 -8.68631,-17.19613 12.17014,1.415 51.72069,25.29455 53.01354,32.00799 1.43365,7.44434 -8.57149,7.68869 -17.93274,0.43801 z M 459.08985,349.88004 c -1.02712,-2.67711 -1.31447,-7.61519 -0.63814,-10.97353 1.03858,-5.1579 4.52479,-6.05335 22.45145,-5.76675 14.7349,0.23568 22.89918,2.01707 26.71054,5.82841 7.10846,7.10835 5.57386,8.30091 -15.93017,12.37904 -24.11369,4.57308 -30.38411,4.2908 -32.59368,-1.46717 z m 403.87914,147.11191 c 0,-1.61892 -3.72154,-17.61427 -8.26998,-35.5452 -9.35449,-36.87602 -31.20391,-85.45929 -52.61037,-116.98179 -33.68968,-49.61019 -97.05951,-103.03672 -149.61248,-126.1369 -22.94881,-10.08733 -70.93783,-25.65083 -79.09265,-25.65083 -11.09912,0 3.45377,9.26062 31.28598,19.90871 33.11028,12.66749 48.74263,25.16057 63.94988,51.10771 18.70055,31.90784 26.14938,60.49703 25.0429,96.11856 -0.59662,19.19845 0.56185,33.10387 3.1462,37.76325 5.8558,10.5582 5.07414,37.24403 -1.63962,55.9752 -7.25702,20.24657 -4.99413,22.87567 28.04087,32.58109 18.58134,5.45903 33.82642,7.10439 67.52928,7.28813 23.94149,0.13033 46.56888,1.54311 50.28298,3.13913 8.98071,3.85906 21.94701,4.11486 21.94701,0.43294 z M 295.04738,396.1092 c -0.94879,-18.18797 -1.54609,-19.41467 -9.45377,-19.41467 -7.3877,0 -8.37801,1.37929 -7.93503,11.05049 0.53822,11.74639 9.15731,27.77885 14.93444,27.77885 2.087,0 3.06414,-7.72668 2.45436,-19.41467 z m 14.42729,-46.63151 c 12.35212,-6.2767 15.25183,-10.72476 21.85822,-33.52923 3.88192,-13.40011 9.71847,-24.08679 17.28986,-31.65841 11.08088,-11.08068 12.02697,-11.36237 30.96961,-9.21926 l 19.53959,2.21063 15.71846,-17.32706 c 15.11069,-16.65722 16.27725,-17.26146 30.17478,-15.62961 7.9509,0.93358 21.00296,3.70721 29.00451,6.16355 12.83292,3.93963 15.61918,3.78735 23.63524,-1.29179 33.11096,-20.98033 53.20025,-24.24612 71.84745,-11.6798 14.65283,9.8747 19.85123,20.43173 19.91336,40.44085 l 0.0507,16.06282 28.83738,14.30196 c 23.30468,11.55791 29.39515,13.3996 31.74416,9.59892 6.16982,-9.98276 -17.29358,-64.53088 -33.19705,-77.17746 -2.99055,-2.37824 -15.1151,-8.83507 -26.94318,-14.34849 -13.05441,-6.0851 -30.56208,-18.56819 -44.55245,-31.7659 -18.99193,-17.91584 -25.68544,-22.13719 -38.04059,-23.98996 -9.47133,-1.42031 -17.8095,-0.74127 -22.63987,1.84376 -4.2054,2.25068 -16.91439,5.31883 -28.24176,6.81809 -11.32769,1.49929 -25.53385,3.7927 -31.56927,5.09652 -9.02327,1.94924 -10.97351,1.3454 -10.97351,-3.39752 0,-3.17248 -1.78075,-5.17456 -3.95721,-4.44914 -3.70804,1.23607 -10.08348,12.58868 -25.17391,44.82601 -5.44118,11.62459 -8.90846,14.35947 -24.89231,19.63414 -10.2138,3.37052 -19.79958,7.3345 -21.30177,8.80876 -1.50218,1.47426 -5.68226,14.67033 -9.28899,29.3246 -8.32063,33.80732 -18.99666,45.21466 -42.31622,45.21466 -12.60974,0 -17.23617,-1.83558 -25.52979,-10.12939 -5.57115,-5.57117 -11.53196,-10.12939 -13.2462,-10.12939 -8.56169,0 1.09263,31.01225 12.93659,41.55668 13.81919,12.30271 29.25267,13.52232 48.34523,3.82046 z m -9.64926,-51.28596 c 6.01855,-6.90623 23.12303,-64.99693 19.13813,-64.99693 -1.48564,0 -14.53973,8.03993 -29.00923,17.86653 -22.88602,15.54267 -26.44852,19.31671 -27.3892,29.01578 -0.68609,7.07261 1.0484,13.50291 4.74393,17.58635 7.37657,8.15118 25.61555,8.4475 32.51637,0.52827 z m 61.93752,-80.08364 c 5.23959,-3.9632 5.49857,-4.97884 1.29048,-5.0647 -2.89464,-0.0592 -8.21257,2.12342 -11.81762,4.84994 -5.23959,3.96319 -5.49857,4.97885 -1.29049,5.06471 2.89499,0.0592 8.21292,-2.12343 11.81763,-4.84995 z"
         style="fill:#0032fc" />
    </g>
  </g>
</svg>
