<?xml version="1.0" encoding="UTF-8" standalone="no"?>
<!DOCTYPE svg PUBLIC "-//W3C//DTD SVG 1.1//EN" "http://www.w3.org/Graphics/SVG/1.1/DTD/svg11.dtd">
<svg width="100%" height="100%" viewBox="0 0 2942 1296" version="1.1" xmlns="http://www.w3.org/2000/svg" xmlns:xlink="http://www.w3.org/1999/xlink" xml:space="preserve" xmlns:serif="http://www.serif.com/" style="fill-rule:evenodd;clip-rule:evenodd;stroke-miterlimit:2;">
    <g transform="matrix(4.16667,0,0,4.16667,0,0)">
        <path d="M338.402,228.988C326.935,271.24 241.777,262.138 167.225,218.24C95.036,175.738 56.344,106.327 75.386,75.654C96.794,41.17 171.962,48.255 240.417,90.192C289.526,120.277 352.375,177.485 338.402,228.988ZM372.582,247.817C358.327,300.608 251.587,288.998 158.036,233.914C67.449,180.578 16.861,99.088 42.549,55.405C68.234,11.717 160.09,18.6 249.413,74.032C310.813,112.136 389.954,183.471 372.582,247.817ZM405.303,267.32C387.56,335.885 261.717,315.922 148.734,249.401C39.335,184.985 -21.892,86.794 8.982,34.291C39.856,-18.218 147.816,-4.87 258.549,57.23C336.684,101.047 425.379,189.742 405.303,267.32Z" style="fill:none;stroke:rgb(0,121,193);stroke-width:2px;"/>
        <path d="M247.095,178.319C243.319,191.949 216.21,189.258 192.578,175.34C169.69,161.867 157.558,139.638 163.711,129.711C170.63,118.554 194.566,120.622 216.262,133.929C231.826,143.47 251.693,161.701 247.095,178.319Z" style="fill:none;stroke:rgb(0,121,193);stroke-width:1.6px;"/>
        <path d="M165.63,127.445L18.861,20.802M162.99,131.141L3.021,46.142M162.461,137.476L1.439,78.346M164.608,146.054L14.11,116.359M169.387,154.571L38.396,154.9M177.492,163.61L76.406,196.076M187.274,171.793L122.338,233.035M198.362,178.654L174.075,263.656M209.976,183.406L225.693,287.651M221.227,186.256L277.554,303.252M325.597,310.111L231.824,187.295M365.193,305.361L238.992,186.152M393.173,288.469L244.822,182.879M406.898,262.598L247.095,178.319M407.428,229.865L247.716,170.988M395.813,193.438L245.224,162.883M373.638,155.429L240.759,155.405M334.57,113.192L232.967,146.884M287.585,75.707L225.975,140.548M236.227,45.142L213.051,132.187M183.579,21.857L201.482,126.879M132.895,6.546L188.859,123.223M85.381,0.74L178.737,122.577M46.84,6.546L172.088,123.616" style="fill:none;stroke:rgb(0,121,193);stroke-width:2px;"/>
        <path d="M687.175,65.428L689.563,65.428C691.113,65.428 692.082,65.365 692.47,65.234C692.854,65.104 693.155,64.877 693.375,64.557C693.591,64.236 693.703,63.838 693.703,63.357C693.703,62.817 693.558,62.384 693.271,62.053C692.983,61.721 692.578,61.512 692.053,61.423C691.792,61.39 691.005,61.371 689.694,61.371L687.175,61.371L687.175,65.428ZM683.94,74.665L683.94,58.662L690.745,58.662C692.455,58.662 693.695,58.807 694.471,59.094C695.245,59.381 695.868,59.892 696.333,60.626C696.799,61.363 697.03,62.202 697.03,63.148C697.03,64.348 696.677,65.343 695.972,66.125C695.268,66.904 694.21,67.4 692.805,67.601C693.506,68.01 694.083,68.458 694.538,68.946C694.992,69.434 695.604,70.298 696.374,71.543L698.331,74.665L694.467,74.665L692.131,71.181C691.3,69.937 690.733,69.154 690.428,68.83C690.122,68.506 689.798,68.286 689.455,68.163C689.112,68.044 688.572,67.984 687.827,67.984L687.175,67.984L687.175,74.665L683.94,74.665Z" style="fill:rgb(0,121,193);fill-rule:nonzero;"/>
        <path d="M690.206,51.977C698.096,51.977 704.531,58.413 704.531,66.303C704.531,74.193 698.096,80.628 690.206,80.628C682.315,80.628 675.88,74.193 675.88,66.303C675.88,58.413 682.315,51.977 690.206,51.977Z" style="fill:none;stroke:rgb(0,121,193);stroke-width:2px;"/>
        <g transform="matrix(0.141873,0,0,0.177804,155.075,29.4638)">
            <path d="M337.766,690.296L502.267,690.296L542.083,622.208L743.879,622.208L756.01,690.296L921.176,690.296L826.167,257.536L605.058,257.536L337.766,690.296ZM603.209,516.038L678.725,386.787L701.368,386.787L725.086,516.038L603.209,516.038Z" style="fill:rgb(0,121,193);fill-rule:nonzero;"/>
            <path d="M970.46,690.296L1124.97,690.296L1146.14,584.125L1232.72,584.125L1296.13,690.296L1478.61,690.296L1387.72,555.852C1454.71,533.348 1509.45,487.764 1524.06,413.906C1546.66,301.966 1468.85,257.536 1354.97,257.536L1057.27,257.536L970.46,690.296ZM1317.65,372.938C1348.95,372.938 1374.7,386.21 1367.38,423.716C1360.81,457.182 1335.24,472.185 1297.94,472.185L1168.74,472.185L1188.45,372.938L1317.65,372.938Z" style="fill:rgb(0,121,193);fill-rule:nonzero;"/>
            <path d="M1533.22,690.296L1954.8,690.296L1977.46,574.893L1711.06,574.893L1774.54,257.536L1620.03,257.536L1533.22,690.296Z" style="fill:rgb(0,121,193);fill-rule:nonzero;"/>
            <path d="M2016.07,690.296L2170.58,690.296L2215.83,463.53L2367.71,690.296L2522.22,690.296L2609.03,257.536L2454.52,257.536L2408.54,487.764L2257.39,257.536L2102.88,257.536L2016.07,690.296Z" style="fill:rgb(0,121,193);fill-rule:nonzero;"/>
            <path d="M2596.82,690.296L3022.38,690.296L3045.71,574.893L2774.65,574.893L2785.58,521.231L3033.99,521.231L3052.96,426.601L2804.55,426.601L2815.47,372.938L3085.87,372.938L3109.19,257.536L2683.62,257.536L2596.82,690.296Z" style="fill:rgb(0,121,193);fill-rule:nonzero;"/>
            <path d="M3237.5,690.296L3392.01,690.296L3455.49,372.938L3614.66,372.938L3637.99,257.536L3165.13,257.536L3141.81,372.938L3300.98,372.938L3237.5,690.296Z" style="fill:rgb(0,121,193);fill-rule:nonzero;"/>
        </g>
    </g>
</svg>
