<?xml version="1.0" encoding="UTF-8" standalone="no"?>
<!-- Created with Inkscape (http://www.inkscape.org/) -->

<svg
   xmlns:dc="http://purl.org/dc/elements/1.1/"
   xmlns:cc="http://creativecommons.org/ns#"
   xmlns:rdf="http://www.w3.org/1999/02/22-rdf-syntax-ns#"
   xmlns:svg="http://www.w3.org/2000/svg"
   xmlns="http://www.w3.org/2000/svg"
   xmlns:sodipodi="http://sodipodi.sourceforge.net/DTD/sodipodi-0.dtd"
   xmlns:inkscape="http://www.inkscape.org/namespaces/inkscape"
   width="76mm"
   height="54mm"
   viewBox="0 0 269.29134 191.33858"
   id="svg2"
   version="1.1"
   inkscape:version="0.91 r13725"
   sodipodi:docname="cyber.svg">
  <defs
     id="defs4" />
  <sodipodi:namedview
     id="base"
     pagecolor="#ffffff"
     bordercolor="#666666"
     borderopacity="1.0"
     inkscape:pageopacity="0.0"
     inkscape:pageshadow="2"
     inkscape:zoom="1.7026117"
     inkscape:cx="132.43016"
     inkscape:cy="-21.303324"
     inkscape:document-units="px"
     inkscape:current-layer="layer1"
     showgrid="false"
     width="76mm"
     inkscape:window-width="1920"
     inkscape:window-height="1031"
     inkscape:window-x="0"
     inkscape:window-y="25"
     inkscape:window-maximized="1" />
  <metadata
     id="metadata7">
    <rdf:RDF>
      <cc:Work
         rdf:about="">
        <dc:format>image/svg+xml</dc:format>
        <dc:type
           rdf:resource="http://purl.org/dc/dcmitype/StillImage" />
        <dc:title></dc:title>
      </cc:Work>
    </rdf:RDF>
  </metadata>
  <g
     inkscape:label="Layer 1"
     inkscape:groupmode="layer"
     id="layer1"
     transform="translate(0,-861.02363)">
    <rect
       style="fill:#ffffff;fill-opacity:1"
       id="rect5060"
       width="269.29135"
       height="198.4252"
       x="0"
       y="853.93701" />
    <g
       id="g5050"
       transform="translate(3.5432918,-0.0620864)">
      <path
         inkscape:connector-curvature="0"
         d="m 61.286313,1009.1784 c -0.713497,-0.1616 -1.374044,-0.3706 -1.467881,-0.4644 -0.09384,-0.094 -0.110863,-1.0822 -0.03784,-2.1965 0.158752,-2.4225 0.313749,-2.6139 1.837366,-2.2689 1.779434,0.4029 2.562437,-0.3753 3.125688,-3.1066 0.217027,-1.0523 0.208501,-1.0828 -3.142643,-11.23342 -1.848143,-5.59801 -3.360259,-10.32918 -3.360259,-10.51371 0,-0.71409 0.419418,-0.82028 3.23983,-0.82028 l 2.755045,0 1.88789,7.08873 c 1.81838,6.82772 1.896199,7.06012 2.113522,6.31226 0.124097,-0.42706 0.943447,-3.61697 1.820778,-7.08872 l 1.595145,-6.31227 2.63796,0 c 2.429535,0 2.658128,0.0323 2.893251,0.4088 0.221282,0.35432 -0.258265,2.08345 -3.599207,12.97801 -2.119979,6.91307 -4.065938,13.0346 -4.324357,13.6034 -1.386428,3.0516 -4.408087,4.421 -7.974284,3.6136 z m -13.844955,-8.4074 c -3.759745,-0.5477 -6.978524,-2.63777 -8.847491,-5.74497 -2.63968,-4.38853 -3.043202,-11.51491 -0.937258,-16.55244 1.513339,-3.61999 4.517873,-6.26712 8.278738,-7.29395 2.606219,-0.71157 7.099137,-0.38844 9.95765,0.71614 l 0.581149,0.22456 -0.141068,2.46965 c -0.189284,3.3137 -0.209223,3.32997 -2.738167,2.23437 -1.133876,-0.49122 -1.575255,-0.56908 -3.236127,-0.57074 -1.768963,-0.002 -2.031589,0.0514 -3.275188,0.66365 -0.773647,0.38086 -1.61726,0.98572 -1.972068,1.41394 -2.96596,3.57965 -2.96596,11.45056 0,15.03021 0.959593,1.15816 2.917708,2.02719 4.815134,2.13703 1.690102,0.0978 3.687071,-0.29531 4.782273,-0.9415 0.452363,-0.26689 0.729302,-0.31241 1.04466,-0.1717 0.391901,0.17488 0.441718,0.40986 0.57434,2.70924 0.08042,1.39428 0.06639,2.59004 -0.03144,2.67972 -0.368465,0.33779 -2.264587,0.81649 -4.014527,1.01349 -2.083357,0.2346 -3.140333,0.231 -4.840603,-0.017 z m 41.852597,0.017 c -1.064796,-0.268 -2.1822,-0.87185 -2.761004,-1.49194 -0.568358,-0.6089 -0.813155,-0.41771 -0.818133,0.63899 l -0.0031,0.65645 -2.585503,0 c -1.741624,0 -2.664621,-0.079 -2.827896,-0.2424 -0.184226,-0.1842 -0.242392,-3.88475 -0.242392,-15.42111 0,-14.44837 0.01778,-15.19482 0.369392,-15.51303 0.300422,-0.27187 0.820886,-0.33429 2.787497,-0.33429 1.611426,0 2.498967,0.0809 2.660496,0.24239 0.176239,0.17625 0.242392,1.69225 0.242392,5.55481 0,2.9218 0.07505,5.31239 0.166783,5.31239 0.09172,0 0.373363,-0.2199 0.625851,-0.48866 0.832307,-0.88594 2.361929,-1.40791 4.160431,-1.41968 1.435718,-0.01 1.773975,0.0652 2.970909,0.65436 2.182985,1.07469 3.641585,3.2102 4.341506,6.35634 0.498117,2.23899 0.43421,6.85113 -0.123805,8.93612 -1.135866,4.24406 -3.349395,6.41106 -6.794924,6.65216 -0.774344,0.054 -1.750172,0.012 -2.168507,-0.093 z m 1.424111,-4.85742 c 1.328844,-0.46324 1.867774,-2.29171 1.870937,-6.34765 0.0037,-4.69215 -0.87581,-6.5665 -3.079888,-6.56401 -1.074714,10e-4 -1.940079,0.67361 -2.540486,1.97398 -0.473226,1.0249 -0.543241,1.46388 -0.616782,3.86711 -0.09271,3.0294 0.1329,4.48726 0.900691,5.82035 0.771235,1.33908 1.970018,1.77156 3.465528,1.25022 z m 19.552114,4.86422 c -2.79902,-0.5058 -5.07653,-2.01116 -6.41356,-4.23916 -3.45525,-5.75775 -1.51904,-14.90902 3.69169,-17.4484 1.60318,-0.78129 3.46208,-1.05462 5.20966,-0.76601 1.93706,0.31989 3.09012,0.8645 4.34693,2.05314 1.85026,1.7499 2.78468,4.289 3.06949,8.3408 0.20831,2.9635 0.65962,2.76668 -6.34347,2.76668 l -5.75295,0 0.12468,0.9096 c 0.16255,1.18586 0.78633,2.3872 1.50541,2.89921 1.53642,1.09404 4.84479,1.10981 7.03106,0.0335 2.03913,-1.00387 2.19533,-0.84009 2.36387,2.47876 0.0933,1.83773 0.22221,1.70426 -2.37131,2.45588 -1.95633,0.5669 -4.88533,0.8008 -6.4615,0.516 z m 3.84578,-14.66069 c -0.1522,-1.29504 -0.72622,-2.54403 -1.37948,-3.00161 -0.62448,-0.43738 -2.13826,-0.40166 -2.90957,0.0687 -0.74427,0.45385 -1.43725,1.7848 -1.61874,3.10908 l -0.1302,0.94975 3.08516,0 3.08516,0 -0.13233,-1.12591 z m 63.82172,14.66069 c -2.79901,-0.5058 -5.07652,-2.01116 -6.41355,-4.23916 -3.45526,-5.75775 -1.51904,-14.90902 3.69168,-17.4484 1.60319,-0.78129 3.46209,-1.05462 5.20966,-0.76601 1.93706,0.31989 3.09013,0.8645 4.34693,2.05314 1.85027,1.7499 2.78469,4.289 3.0695,8.3408 0.20831,2.96352 0.65962,2.76668 -6.34347,2.76668 l -5.75293,0 0.12467,0.90961 c 0.16254,1.18585 0.78631,2.3872 1.50539,2.89922 1.53643,1.09403 4.84479,1.1098 7.03105,0.0335 2.03914,-1.00386 2.19535,-0.84009 2.36388,2.47875 0.0933,1.83774 0.22222,1.70427 -2.37131,2.45587 -1.95632,0.5669 -4.88532,0.8008 -6.4615,0.516 z m 3.84578,-14.66069 c -0.1522,-1.29504 -0.72622,-2.54403 -1.37947,-3.00161 -0.62449,-0.43738 -2.13826,-0.40166 -2.90958,0.0687 -0.74426,0.45385 -1.43725,1.7848 -1.61874,3.10908 l -0.13017,0.94976 3.08515,0 3.08515,0 -0.13234,-1.12591 z m -57.15686,14.08799 c -0.30196,-0.33363 -0.3343,-1.3753 -0.3343,-10.76618 0,-7.81709 0.0602,-10.45695 0.24239,-10.63919 0.16224,-0.16227 1.06383,-0.24239 2.72689,-0.24239 2.48062,0 2.48451,8.1e-4 2.48451,0.47972 0,0.26385 0.0558,0.75851 0.1239,1.09924 l 0.1239,0.61951 0.50338,-0.59822 c 1.13755,-1.35191 3.63907,-2.25326 5.00364,-1.8029 l 0.70895,0.23396 0,2.4845 c 0,1.7437 -0.0753,2.5456 -0.25249,2.68939 -0.13887,0.11266 -0.93463,0.23807 -1.76833,0.27865 -1.7588,0.0856 -2.56489,0.52452 -3.12292,1.70048 -0.56595,1.19267 -0.70572,2.92149 -0.70999,8.78317 -0.003,4.0542 -0.0699,5.63066 -0.24645,5.80726 -0.16192,0.1619 -1.05687,0.2424 -2.69559,0.2424 -2.1201,0 -2.49859,-0.05 -2.78749,-0.3694 z m 18.35011,0.1221 c -0.31487,-0.88025 -5.5549,-20.60495 -5.5549,-20.90997 0,-0.75878 0.38483,-0.85991 3.27229,-0.85991 1.53311,0 2.78748,0.0415 2.78748,0.0923 0,0.0508 0.63629,3.15807 1.41396,6.90516 0.77767,3.7471 1.41394,6.90212 1.41394,7.01115 0,0.63134 0.29827,-0.59984 1.50969,-6.23185 0.74082,-3.44397 1.43545,-6.60486 1.54368,-7.0242 l 0.19676,-0.76243 3.27236,0.0554 3.27237,0.0555 1.45009,6.76674 c 0.79754,3.72172 1.47978,6.89722 1.51609,7.05667 0.0363,0.15947 0.59604,-2.29475 1.24391,-5.45379 0.64787,-3.15905 1.31404,-6.35728 1.4804,-7.10717 l 0.30246,-1.36345 2.57841,0 c 2.22442,0 2.62349,0.0498 2.90678,0.36285 0.30571,0.3378 0.14691,1.04525 -2.30107,10.25112 -1.44618,5.43855 -2.72019,10.23141 -2.83113,10.65083 l -0.20168,0.76255 -3.16329,-0.056 -3.16325,-0.056 -1.61282,-7.01451 c -0.88705,-3.85797 -1.65569,-6.97161 -1.7081,-6.91921 -0.0524,0.0524 -0.79401,3.20892 -1.648,7.01449 l -1.55274,6.91923 -3.16576,0.056 c -2.42391,0.043 -3.18735,0 -3.25793,-0.202 z m 49.02349,0 c -0.35088,-0.3509 -0.35088,-30.6752 0,-31.02607 0.16192,-0.16192 1.05687,-0.2424 2.69559,-0.2424 2.12009,0 2.49859,0.0501 2.7875,0.36939 0.29286,0.32362 0.33429,1.01464 0.33429,5.57572 l 0,5.20634 0.71449,-0.62733 c 1.15535,-1.01441 2.00635,-1.29014 4.03745,-1.30812 1.60378,-0.0143 1.96151,0.0515 2.9742,0.54705 1.37493,0.6727 2.40724,1.81509 3.0276,3.35044 0.44295,1.09631 0.45703,1.35427 0.51702,9.47643 0.0455,6.17363 -1.4e-4,8.42395 -0.17549,8.63515 -0.18076,0.2178 -0.8241,0.2858 -2.706,0.2858 -2.13527,0 -2.51403,-0.05 -2.80316,-0.3694 -0.2976,-0.32885 -0.33429,-1.14142 -0.33429,-7.39982 0,-8.70392 -0.0947,-9.13243 -2.06223,-9.33533 -1.13596,-0.11714 -2.12837,0.42782 -2.67439,1.4686 -0.39087,0.74501 -0.41762,1.18735 -0.47464,7.85429 -0.0526,6.14719 -0.10255,7.11136 -0.38479,7.42326 -0.27668,0.3057 -0.68488,0.3584 -2.77756,0.3584 -1.63872,0 -2.53367,-0.08 -2.69559,-0.2424 z m 22.31109,-0.127 c -0.30195,-0.33367 -0.33431,-1.37535 -0.33431,-10.76622 0,-7.81709 0.0602,-10.45696 0.24239,-10.6392 0.16227,-0.16225 1.06384,-0.24239 2.72691,-0.24239 2.48061,0 2.4845,8.1e-4 2.4845,0.47972 0,0.26386 0.0558,0.75852 0.1239,1.09924 l 0.12391,0.61951 0.50338,-0.59822 c 1.13754,-1.35191 3.63906,-2.25325 5.00362,-1.8029 l 0.70895,0.23398 0,2.4845 c 0,1.74369 -0.0753,2.5456 -0.25249,2.68938 -0.13885,0.11267 -0.93461,0.23807 -1.76831,0.27865 -1.75881,0.0856 -2.56488,0.52453 -3.12293,1.7005 -0.56596,1.19267 -0.70571,2.92148 -0.70998,8.78315 -0.003,4.05421 -0.0699,5.6307 -0.24646,5.8073 -0.16191,0.1619 -1.05686,0.2424 -2.69558,0.2424 -2.1201,0 -2.4986,-0.05 -2.7875,-0.3694 z"
         style="fill:#00407f;fill-opacity:1"
         id="path5024" />
      <path
         inkscape:connector-curvature="0"
         d="m 88.018906,1037.8979 c -2.650753,-0.8759 -4.061268,-2.9095 -4.255802,-6.136 -0.206976,-3.4327 1.174279,-6.321 3.592711,-7.5125 1.163844,-0.5734 3.585813,-0.5679 4.767332,0.011 1.215627,0.5954 2.264101,1.8543 2.733446,3.2821 0.47749,1.4525 0.69435,4.1025 0.36792,4.4959 -0.18579,0.2238 -0.818109,0.2663 -3.960513,0.2663 l -3.739422,0 0.118253,0.5664 c 0.187128,0.8963 0.655816,1.5861 1.309571,1.9274 0.880183,0.4596 3.252363,0.3328 4.394602,-0.2349 1.073626,-0.5335 1.211001,-0.3891 1.313459,1.3808 l 0.0803,1.387 -1.197958,0.3809 c -1.715208,0.5453 -4.184604,0.6284 -5.523887,0.1859 z m 3.449266,-9.1225 c -0.245517,-1.4777 -0.76799,-2.0478 -1.876777,-2.0478 -0.852276,0 -1.45939,0.551 -1.773803,1.6097 -0.145926,0.4914 -0.26532,0.9576 -0.26532,1.0361 0,0.078 0.908766,0.1426 2.019482,0.1426 l 2.019482,0 -0.123064,-0.7406 z m 24.609018,9.1225 c -2.65075,-0.8759 -4.06127,-2.9095 -4.2558,-6.136 -0.20698,-3.4327 1.17428,-6.321 3.59271,-7.5125 1.16384,-0.5734 3.58581,-0.5679 4.76733,0.011 1.21563,0.5954 2.2641,1.8543 2.73345,3.2821 0.47749,1.4525 0.69435,4.1025 0.36791,4.4959 -0.18579,0.2238 -0.8181,0.2663 -3.96051,0.2663 l -3.73942,0 0.11826,0.5664 c 0.18712,0.8963 0.65581,1.5861 1.30957,1.9274 0.88018,0.4596 3.25236,0.3328 4.3946,-0.2349 1.07363,-0.5335 1.211,-0.3891 1.31346,1.3808 l 0.0803,1.387 -1.19796,0.3809 c -1.71521,0.5453 -4.1846,0.6284 -5.52389,0.1859 z m 3.44927,-9.1225 c -0.24552,-1.4777 -0.76799,-2.0478 -1.87678,-2.0478 -0.85228,0 -1.45939,0.551 -1.7738,1.6097 -0.14593,0.4914 -0.26532,0.9576 -0.26532,1.0361 0,0.078 0.90876,0.1426 2.01948,0.1426 l 2.01948,0 -0.12306,-0.7406 z m 56.32709,9.1225 c -2.65076,-0.8759 -4.06127,-2.9095 -4.25581,-6.136 -0.20697,-3.4327 1.17428,-6.321 3.59271,-7.5125 1.16385,-0.5734 3.58582,-0.5679 4.76733,0.011 1.21564,0.5954 2.26411,1.8543 2.73345,3.2821 0.4775,1.4525 0.69435,4.1025 0.36792,4.4959 -0.18578,0.2238 -0.8181,0.2663 -3.96051,0.2663 l -3.73942,0 0.11825,0.5664 c 0.18713,0.8963 0.65581,1.5861 1.30957,1.9274 0.88019,0.4596 3.25237,0.3328 4.39461,-0.2349 1.07362,-0.5335 1.211,-0.3891 1.31346,1.3808 l 0.0803,1.387 -1.19796,0.3809 c -1.7152,0.5453 -4.18459,0.6284 -5.52388,0.1859 z m 3.44927,-9.1225 c -0.24552,-1.4777 -0.76799,-2.0478 -1.87678,-2.0478 -0.85228,0 -1.4594,0.551 -1.77381,1.6097 -0.14592,0.4914 -0.26532,0.9576 -0.26532,1.0361 0,0.078 0.90878,0.1426 2.01949,0.1426 l 2.01948,0 -0.12306,-0.7406 z m 9.17862,9.2158 c -1.01608,-0.3677 -1.88186,-1.2426 -2.30662,-2.331 -0.3668,-0.9398 -0.39625,-1.3278 -0.46699,-6.1511 -0.065,-4.4315 -0.0391,-5.1783 0.18646,-5.3655 0.18025,-0.1496 0.79762,-0.2018 1.97901,-0.1673 l 1.71703,0.05 0.0871,4.8879 c 0.0749,4.2014 0.12856,4.951 0.38211,5.3375 0.59449,0.9063 2.05802,0.7697 2.67452,-0.2496 0.31048,-0.5133 0.3497,-0.9953 0.42887,-5.2704 l 0.0871,-4.7054 1.71703,-0.05 c 1.11633,-0.033 1.80224,0.021 1.96059,0.152 0.20071,0.1666 0.24357,1.3612 0.24357,6.789 0,3.6228 -0.0476,6.7109 -0.10579,6.8626 -0.0866,0.2256 -0.41849,0.2756 -1.82989,0.2756 l -1.7241,0 0,-0.4938 c 0,-0.7263 -0.14597,-0.7635 -0.84846,-0.2164 -0.34808,0.2711 -0.89947,0.581 -1.22527,0.6887 -0.75833,0.2506 -2.20326,0.2297 -2.95635,-0.043 z m 21.14404,-0.028 c -1.74833,-0.6472 -2.72428,-2.0926 -2.73387,-4.0489 -0.009,-1.8777 0.79778,-3.2694 2.36347,-4.0762 0.81334,-0.4191 2.94301,-0.8448 4.22627,-0.8448 0.93068,0 0.94318,-0.01 0.94318,-0.5201 0,-0.3284 -0.18742,-0.7298 -0.50857,-1.0892 -0.47708,-0.5339 -0.57764,-0.5684 -1.62386,-0.5568 -0.86852,0.01 -1.3739,0.1333 -2.28416,0.5592 -0.64288,0.3009 -1.27363,0.5068 -1.40169,0.4577 -0.15599,-0.06 -0.26511,-0.5604 -0.33067,-1.5169 -0.0538,-0.7851 -0.07,-1.4553 -0.0359,-1.4894 0.0341,-0.034 0.59654,-0.2587 1.24994,-0.4992 1.43076,-0.5266 3.70346,-0.7095 5.13099,-0.413 1.50003,0.3117 2.45508,1.0062 3.05026,2.2184 l 0.50057,1.0194 0.0935,5.2283 c 0.0514,2.8755 0.0626,5.3263 0.0249,5.4461 -0.0487,0.155 -0.56606,0.2178 -1.79263,0.2178 -1.67098,0 -1.72419,-0.012 -1.72677,-0.3921 -0.004,-0.6388 -0.24546,-0.8974 -0.52389,-0.5619 -0.76627,0.9233 -3.21891,1.3806 -4.62104,0.8616 z m 3.77968,-2.8843 c 0.54903,-0.2939 1.01121,-1.5083 1.01553,-2.6685 l 0.004,-1.0269 -1.06054,0.1109 c -0.58328,0.061 -1.33175,0.2395 -1.66328,0.3968 -1.25241,0.5943 -1.48925,2.338 -0.42824,3.1526 0.3452,0.2651 1.66251,0.2867 2.13269,0.035 z m 25.35296,2.8951 c -2.20716,-0.7867 -3.42846,-3.229 -3.45441,-6.9078 -0.0191,-2.7058 0.56512,-4.7048 1.7455,-5.9725 1.4194,-1.5245 4.05739,-1.7596 5.73859,-0.5115 l 0.56639,0.4205 0,-3.473 c 0,-2.7614 0.0499,-3.5145 0.24357,-3.6752 0.15834,-0.1314 0.84425,-0.1846 1.96059,-0.152 l 1.71703,0.05 0.0871,9.9337 c 0.0486,5.535 0.0198,10.0301 -0.0649,10.1515 -0.10422,0.1493 -0.69362,0.2178 -1.87346,0.2178 l -1.72142,0 0,-0.6403 0,-0.6404 -0.39212,0.3681 c -1.05433,0.9898 -3.0732,1.3583 -4.5525,0.831 z m 3.38704,-3.0612 c 0.69136,-0.37 1.09606,-1.5317 1.17653,-3.3772 0.13219,-3.0319 -0.54738,-4.6336 -1.96591,-4.6336 -0.87871,0 -1.24725,0.2377 -1.69802,1.0951 -0.33781,0.6425 -0.38713,1.0084 -0.39267,2.9132 -0.007,2.3297 0.19132,3.2502 0.82702,3.8425 0.40324,0.3756 1.49162,0.4605 2.05305,0.16 z M 9.4275694,1028.7949 c -1.4227972,-7.0457 -1.8230112,-9.3175 -1.6732152,-9.498 0.141456,-0.1705 0.675211,-0.2373 1.8958172,-0.2373 l 1.6989276,0 0.262589,1.4378 c 0.144423,0.7908 0.641317,3.5356 1.104207,6.0996 0.46289,2.5641 0.884204,4.6615 0.936253,4.661 0.05205,-5e-4 0.555343,-2.3936 1.118432,-5.3181 0.563088,-2.9245 1.098801,-5.669 1.19047,-6.0988 l 0.166671,-0.7815 2.324159,0 2.324158,0 0.170473,0.8278 c 0.09376,0.4553 0.628697,3.2338 1.188753,6.1743 0.560055,2.9406 1.05255,5.3122 1.094431,5.2704 0.04188,-0.042 0.592428,-2.8007 1.223432,-6.1308 l 1.147283,-6.0545 1.671406,-0.05 c 1.199937,-0.036 1.72343,0.014 1.855838,0.1743 0.133383,0.1619 -0.293171,2.5392 -1.541078,8.589 -0.949031,4.6009 -1.809983,8.777 -1.913225,9.2802 l -0.187715,0.9149 -2.303931,0 -2.303932,0 -1.202116,-6.6409 c -0.66698,-3.6846 -1.252412,-6.4969 -1.315101,-6.3174 -0.06214,0.1778 -0.651626,3.1662 -1.30997,6.6408 l -1.196985,6.3175 -2.277964,0 -2.277961,0 -1.8701066,-9.2607 z m 21.7000856,9.0572 c -0.335265,-0.3352 -0.30777,-13.4444 0.02878,-13.7237 0.158355,-0.1314 0.844258,-0.1846 1.960595,-0.152 l 1.717031,0.05 0,6.971 0,6.971 -1.745815,0.049 c -1.209162,0.034 -1.811836,-0.017 -1.960594,-0.1656 z m 7.207911,0.055 c -0.131538,-0.2128 -0.148469,-13.5792 -0.01747,-13.7912 0.06129,-0.099 0.830862,-0.1767 1.754504,-0.1767 l 1.645328,0 0,0.6971 c 0,0.7597 0.151122,0.879 0.468914,0.3702 0.521648,-0.8353 2.978032,-1.5589 3.504557,-1.0324 0.282922,0.2829 0.285335,3.2087 0.0028,3.3833 -0.113484,0.07 -0.607139,0.1336 -1.097007,0.141 -0.54961,0.01 -1.076782,0.1355 -1.376695,0.332 -0.88931,0.5829 -0.979736,1.1047 -0.979736,5.6535 0,2.998 -0.05817,4.2115 -0.20913,4.3625 -0.242438,0.2424 -3.55017,0.2968 -3.696059,0.061 z m 7.686862,0.038 c -0.216811,-0.2168 -0.139594,-3.6361 0.08723,-3.863 0.309861,-0.3098 3.173725,-0.2813 3.435605,0.034 0.13214,0.1592 0.184679,0.8668 0.152044,2.0477 l -0.04987,1.8045 -1.751561,0.049 c -0.963359,0.027 -1.806415,-0.01 -1.873457,-0.073 z m 13.900045,-0.1073 c -0.04587,-0.1198 -0.06302,-4.3743 -0.0381,-9.4544 l 0.0453,-9.2366 3.172955,-0.048 c 2.319688,-0.035 3.51366,0.024 4.439896,0.2167 4.307323,0.8981 6.43407,3.9169 6.449321,9.1545 0.0066,2.2713 -0.281746,3.6495 -1.104655,5.2797 -1.022662,2.0259 -3.08198,3.536 -5.529565,4.0548 -1.533635,0.325 -7.313499,0.3505 -7.435153,0.033 z m 7.152479,-3.5727 c 1.744504,-0.9013 2.701263,-2.9228 2.701263,-5.7075 0,-2.0379 -0.557682,-3.7903 -1.54408,-4.8521 -0.743336,-0.8001 -1.720059,-1.2067 -3.117778,-1.298 l -1.263494,-0.083 0,6.2326 0,6.2326 1.263494,-0.083 c 0.797187,-0.052 1.520768,-0.2154 1.960595,-0.4426 z m 10.061321,3.587 c -0.335265,-0.3352 -0.30777,-13.4444 0.02878,-13.7237 0.158355,-0.1314 0.844259,-0.1846 1.960595,-0.152 l 1.717031,0.05 0,6.971 0,6.971 -1.745814,0.049 c -1.209163,0.034 -1.811837,-0.017 -1.960595,-0.1656 z m 20.91301,0 c -0.1626,-0.1626 -0.21478,-1.8118 -0.21478,-6.7881 0,-3.6153 0.0476,-6.6974 0.10578,-6.849 0.0866,-0.2257 0.4185,-0.2757 1.82989,-0.2757 l 1.724107,0 0,0.5126 c 0,0.6267 0.22859,0.8008 0.54664,0.4163 0.42456,-0.5133 1.93199,-1.0996 2.8315,-1.1014 1.92174,0 3.3055,0.8951 3.96051,2.573 0.36436,0.9334 0.39442,1.3306 0.46504,6.146 0.065,4.4315 0.039,5.1783 -0.18647,5.3654 -0.18025,0.1496 -0.79761,0.2018 -1.979,0.1674 l -1.71703,-0.05 -0.0871,-4.8879 c -0.0754,-4.2291 -0.12746,-4.9494 -0.38622,-5.3438 -0.58993,-0.8993 -1.88026,-0.7693 -2.64793,0.2668 -0.34277,0.4626 -0.36935,0.7705 -0.45136,5.2282 l -0.0871,4.7367 -1.74581,0.049 c -1.209157,0.034 -1.811837,-0.017 -1.960597,-0.1656 z m 28.058287,0 c -0.1626,-0.1626 -0.21478,-1.8118 -0.21478,-6.7881 0,-3.6153 0.0476,-6.6974 0.10578,-6.849 0.0866,-0.2257 0.4185,-0.2757 1.82989,-0.2757 l 1.72411,0 0,0.5126 c 0,0.6267 0.22859,0.8008 0.54664,0.4163 0.42456,-0.5133 1.93198,-1.0996 2.8315,-1.1014 1.92174,0 3.3055,0.8951 3.96051,2.573 0.36436,0.9334 0.39442,1.3306 0.46504,6.146 0.065,4.4315 0.0391,5.1783 -0.18646,5.3654 -0.18025,0.1496 -0.79762,0.2018 -1.97902,0.1674 l -1.71702,-0.05 -0.0871,-4.8879 c -0.0754,-4.2291 -0.12745,-4.9494 -0.38622,-5.3438 -0.58993,-0.8993 -1.88027,-0.7693 -2.64793,0.2668 -0.34276,0.4626 -0.36934,0.7705 -0.45136,5.2282 l -0.0871,4.7367 -1.74581,0.049 c -1.20916,0.034 -1.81184,-0.017 -1.96059,-0.1656 z m 14.72049,0.093 c -0.2168,-0.2168 -0.13959,-3.6361 0.0872,-3.863 0.30987,-0.3098 3.17373,-0.2813 3.43561,0.034 0.13214,0.1592 0.18468,0.8668 0.15204,2.0477 l -0.0499,1.8045 -1.75157,0.049 c -0.96336,0.027 -1.80641,-0.01 -1.87346,-0.073 z m 14.07433,-0.1073 c -0.0459,-0.1198 -0.063,-4.3743 -0.0381,-9.4544 l 0.0453,-9.2366 2.26269,0 2.26266,0 2.70417,6.3879 2.70416,6.388 0.0458,-6.1985 c 0.0312,-4.221 0.10749,-6.2729 0.23919,-6.4316 0.25394,-0.3059 3.12496,-0.3259 3.42707,-0.024 0.33067,0.3306 0.29853,18.3214 -0.0332,18.5967 -0.16165,0.1342 -0.95027,0.1848 -2.36874,0.1521 l -2.12639,-0.049 -2.64167,-6.2477 -2.64167,-6.2477 -0.0459,6.0583 c -0.0312,4.117 -0.10782,6.133 -0.23919,6.2913 -0.26377,0.3178 -3.43515,0.3313 -3.55621,0.015 z m 45.62063,0.014 c -0.33715,-0.3371 -0.30925,-19.717 0.0288,-19.9976 0.15835,-0.1314 0.84426,-0.1846 1.9606,-0.152 l 1.71703,0.05 0,10.1079 0,10.108 -1.74582,0.049 c -1.20916,0.034 -1.81183,-0.017 -1.9606,-0.1656 z m 20.91301,0 c -0.1626,-0.1626 -0.21477,-1.8118 -0.21477,-6.7881 0,-3.6153 0.0476,-6.6974 0.10578,-6.849 0.0866,-0.2257 0.41849,-0.2757 1.82989,-0.2757 l 1.7241,0 0,0.5126 c 0,0.6267 0.2286,0.8008 0.54665,0.4163 0.42455,-0.5133 1.93198,-1.0996 2.8315,-1.1014 1.92173,0 3.30549,0.8951 3.96051,2.573 0.36435,0.9334 0.39442,1.3306 0.46503,6.146 0.065,4.4314 0.0391,5.1783 -0.18646,5.3654 -0.18025,0.1496 -0.79762,0.2018 -1.97901,0.1674 l -1.71703,-0.05 -0.0871,-4.8879 c -0.0754,-4.2291 -0.12744,-4.9494 -0.38621,-5.3438 -0.58994,-0.8993 -1.88027,-0.7693 -2.64793,0.2668 -0.34277,0.4626 -0.36934,0.7705 -0.45136,5.2282 l -0.0871,4.7367 -1.74582,0.049 c -1.20916,0.034 -1.81184,-0.017 -1.9606,-0.1656 z m 29.3596,0.093 c -0.2168,-0.2168 -0.13959,-3.6361 0.0872,-3.863 0.30986,-0.3098 3.17373,-0.2813 3.43561,0.034 0.13213,0.1592 0.18468,0.8668 0.15204,2.0477 l -0.0499,1.8045 -1.75157,0.049 c -0.96336,0.027 -1.80642,-0.01 -1.87346,-0.073 z M 31.034603,1021.9116 c -0.06695,-0.067 -0.121728,-0.8441 -0.121728,-1.727 0,-1.162 0.06725,-1.661 0.243563,-1.8074 0.158355,-0.1314 0.844259,-0.1846 1.960595,-0.152 l 1.717031,0.05 0,1.8299 0,1.8299 -1.838867,0.049 c -1.011375,0.027 -1.893643,-0.01 -1.960594,-0.073 z m 46.008618,0 c -0.06695,-0.067 -0.121728,-0.8441 -0.121728,-1.727 0,-1.162 0.06725,-1.661 0.243563,-1.8074 0.158355,-0.1314 0.844259,-0.1846 1.960595,-0.152 l 1.717031,0.05 0,1.8299 0,1.8299 -1.838867,0.049 c -1.011375,0.027 -1.893643,-0.01 -1.960594,-0.073 z"
         style="fill:#00407f;fill-opacity:1"
         id="path4806" />
      <g
         transform="matrix(1.2321754,0,0,1.2321754,-17.633814,-238.13426)"
         id="g4885">
        <path
           style="fill:#00407f;fill-opacity:1"
           d="m 99.171618,971.96197 c 2.686272,-7.53297 5.037222,-15.30898 4.723302,-15.62288 -0.32094,-0.32096 -7.883416,1.96578 -15.622883,4.72404 l -3.456031,1.23169 0,-2.2621 0,-2.26209 3.81982,-1.36076 c 2.100907,-0.74843 5.23863,-1.79252 6.9727,-2.32023 5.764374,-1.75417 13.566024,-3.62725 13.864564,-3.32872 0.3115,0.31151 -1.78003,8.89316 -3.5564,14.59214 -0.54052,1.73409 -1.53912,4.7081 -2.2191,6.60891 l -1.23635,3.45604 -2.26102,0 -2.261027,0 1.232425,-3.45604 z"
           id="path4804"
           inkscape:connector-curvature="0" />
        <path
           style="fill:#adb6bc;fill-opacity:1"
           d="m 107.03256,973.9022 c 0.3275,-0.83369 1.29398,-3.64872 2.14772,-6.25561 2.27613,-6.95012 3.7313,-13.09407 4.87182,-20.56946 l 0.16117,-1.05639 -1.0564,0.16117 c -8.01601,1.223 -13.870581,2.65059 -21.982437,5.36025 -3.372493,1.12655 -6.182793,2.04827 -6.245115,2.04827 -0.06232,0 -0.113307,-6.33 -0.113307,-14.06667 0,-7.73666 0.05891,-14.06666 0.130911,-14.06666 0.072,0 1.790926,0.58978 3.81983,1.31063 8.384493,2.97888 16.967528,5.14323 24.147698,6.08921 l 1.29904,0.17116 -0.1604,-1.05705 c -1.16532,-7.67981 -2.66971,-13.88315 -5.22634,-21.55073 -1.04521,-3.13467 -1.97569,-5.8904 -2.06772,-6.12384 -0.15821,-0.40126 0.60291,-0.42442 13.95121,-0.42442 13.35026,0 14.10918,0.0231 13.94609,0.42442 -2.53727,6.24415 -5.53958,16.93689 -6.77984,24.14646 -0.84495,4.91156 -0.88921,4.61359 0.65531,4.41134 6.96335,-0.91179 17.00406,-3.47415 24.69079,-6.30101 1.63936,-0.60288 3.01637,-1.09617 3.05999,-1.09617 0.0437,0 0.0793,6.34168 0.0793,14.09261 0,13.3236 -0.0231,14.08348 -0.42444,13.92527 -2.7492,-1.08397 -12.81476,-4.21721 -16.31004,-5.07705 -4.56138,-1.12211 -12.063,-2.47015 -12.31936,-2.2138 -0.26724,0.26724 1.16685,8.06954 2.34968,12.78367 0.65225,2.59954 2.02051,7.17328 3.04058,10.16389 1.02008,2.9906 1.91779,5.62846 1.9949,5.86189 0.13248,0.40098 -0.64417,0.42443 -14.05799,0.42443 l -14.19819,0 0.59547,-1.51581 z"
           id="path4802"
           inkscape:connector-curvature="0" />
        <path
           style="fill:#00407f;fill-opacity:1"
           d="m 138.21817,973.52159 c -2.70312,-7.0788 -6.86699,-22.16444 -6.27977,-22.75166 0.57312,-0.57312 17.28307,4.14325 23.87787,6.73951 l 0.78822,0.31031 0,2.12959 c 0,1.62132 -0.0778,2.12959 -0.32594,2.12959 -0.17924,0 -1.89817,-0.55616 -3.81982,-1.23589 -6.61724,-2.34069 -13.8897,-4.58479 -14.85786,-4.58479 -0.30661,0 -0.26677,0.35752 0.24992,2.24338 0.87293,3.18608 1.97991,6.64444 3.81764,11.92679 0.87834,2.52467 1.59698,4.68014 1.59698,4.78994 0,0.1098 -0.97269,0.19965 -2.16154,0.19965 l -2.16151,0 -0.72419,-1.89642 z"
           id="path4800"
           inkscape:connector-curvature="0" />
        <path
           style="fill:#00407f;fill-opacity:1"
           d="m 104.94588,927.52581 c -5.490923,-1.26506 -12.985768,-3.54664 -18.735335,-5.70343 l -1.394539,-0.52311 0,-2.25543 0,-2.25543 2.970974,1.06459 c 7.65075,2.74148 15.77592,5.18746 16.11283,4.85057 0.2761,-0.27611 -1.9403,-7.69833 -4.175348,-13.98229 -0.863152,-2.42682 -1.569383,-4.56526 -1.569383,-4.75207 0,-0.26579 0.469707,-0.33969 2.159031,-0.33969 l 2.15904,0 0.28408,0.78823 c 1.42888,3.96454 3.61117,10.70715 4.49221,13.87958 0.96811,3.48594 2.30449,9.18258 2.30449,9.82348 0,0.38371 -0.81899,0.27796 -4.60805,-0.595 z"
           id="path4798"
           inkscape:connector-curvature="0" />
        <path
           style="fill:#00407f;fill-opacity:1"
           d="m 131.87056,927.97056 c 0.007,-0.86018 1.41307,-6.81498 2.52504,-10.69825 1.04761,-3.6585 2.82478,-9.07974 4.0152,-12.24825 l 0.52394,-1.39454 2.16533,0 c 1.19093,0 2.16534,0.0818 2.16531,0.18191 -3e-5,0.10005 -1.02291,3.18318 -2.27306,6.85143 -2.29928,6.74642 -3.74684,11.7655 -3.47246,12.03989 0.32151,0.3215 6.57594,-1.51973 13.73453,-4.04328 2.63806,-0.92998 4.92107,-1.69087 5.0733,-1.69087 0.18663,0 0.2768,0.70264 0.2768,2.15682 l 0,2.15683 -3.09225,1.13311 c -5.93283,2.17401 -16.99497,5.32543 -20.49366,5.83829 -1.02339,0.15002 -1.15157,0.11843 -1.14802,-0.28309 z"
           id="path4794"
           inkscape:connector-curvature="0" />
      </g>
    </g>
  </g>
</svg>
