<?xml version="1.0" encoding="UTF-8" standalone="no"?>
<!-- Created with Inkscape (http://www.inkscape.org/) -->

<svg
   xmlns:dc="http://purl.org/dc/elements/1.1/"
   xmlns:cc="http://creativecommons.org/ns#"
   xmlns:rdf="http://www.w3.org/1999/02/22-rdf-syntax-ns#"
   xmlns:svg="http://www.w3.org/2000/svg"
   xmlns="http://www.w3.org/2000/svg"
   xmlns:sodipodi="http://sodipodi.sourceforge.net/DTD/sodipodi-0.dtd"
   xmlns:inkscape="http://www.inkscape.org/namespaces/inkscape"
   width="480"
   height="640"
   viewBox="0 0 480.00001 640.00001"
   id="svg5308"
   version="1.1"
   inkscape:version="0.91 r13725"
   sodipodi:docname="entwurf_tshirts.svg"
   inkscape:export-filename="/home/fxkr/gpn15/design/tshirts/entwurf_tshirts.png"
   inkscape:export-xdpi="112.5"
   inkscape:export-ydpi="112.5">
  <defs
     id="defs5310" />
  <sodipodi:namedview
     id="base"
     pagecolor="#000000"
     bordercolor="#666666"
     borderopacity="1.0"
     inkscape:pageopacity="0.70980392"
     inkscape:pageshadow="2"
     inkscape:zoom="1.4274718"
     inkscape:cx="301.33844"
     inkscape:cy="171.70962"
     inkscape:document-units="px"
     inkscape:current-layer="layer1"
     showgrid="false"
     units="px"
     inkscape:window-width="1600"
     inkscape:window-height="836"
     inkscape:window-x="0"
     inkscape:window-y="27"
     inkscape:window-maximized="1"
     borderlayer="true"
     showguides="false" />
  <metadata
     id="metadata5313">
    <rdf:RDF>
      <cc:Work
         rdf:about="">
        <dc:format>image/svg+xml</dc:format>
        <dc:type
           rdf:resource="http://purl.org/dc/dcmitype/StillImage" />
        <dc:title></dc:title>
      </cc:Work>
    </rdf:RDF>
  </metadata>
  <g
     inkscape:label="Layer 1"
     inkscape:groupmode="layer"
     id="layer1"
     transform="translate(0,-412.36216)">
    <path
       sodipodi:nodetypes="cccccc"
       inkscape:connector-curvature="0"
       id="path5258"
       d="m 119.35679,714.72697 262.8235,1.3673 c 79.3808,-27.7427 58.7617,-115.84256 4.5711,-130.37098 4.3539,-37.61258 -45.8818,-90.21405 -100.0051,-57.57868 -37.6844,-78.00773 -173.9401,-69.94403 -166.6245,53.83394 -98.255595,37.01284 -44.871096,130.88285 -0.765,132.74842 z"
       style="fill:none;fill-rule:evenodd;stroke:#ffffff;stroke-width:25;stroke-linecap:butt;stroke-linejoin:miter;stroke-miterlimit:4;stroke-dasharray:none;stroke-opacity:1" />
    <path
       style="color:#000000;font-style:normal;font-variant:normal;font-weight:normal;font-stretch:normal;font-size:medium;line-height:normal;font-family:sans-serif;text-indent:0;text-align:start;text-decoration:none;text-decoration-line:none;text-decoration-style:solid;text-decoration-color:#000000;letter-spacing:normal;word-spacing:normal;text-transform:none;direction:ltr;block-progression:tb;writing-mode:lr-tb;baseline-shift:baseline;text-anchor:start;white-space:normal;clip-rule:nonzero;display:inline;overflow:visible;visibility:visible;opacity:1;isolation:auto;mix-blend-mode:normal;color-interpolation:sRGB;color-interpolation-filters:linearRGB;solid-color:#000000;solid-opacity:1;fill:#ffffff;fill-opacity:1;fill-rule:nonzero;stroke:none;stroke-width:25;stroke-linecap:butt;stroke-linejoin:round;stroke-miterlimit:4;stroke-dasharray:none;stroke-dashoffset:0;stroke-opacity:1;marker:none;color-rendering:auto;image-rendering:auto;shape-rendering:auto;text-rendering:auto;enable-background:accumulate"
       d="M 203.64648 355.10938 A 12.50125 12.50125 0 0 0 191.63672 362.47461 L 183.7793 379.97461 A 12.50125 12.50125 0 0 0 183.7793 390.21484 C 186.98289 397.35012 193.11471 404.84375 203.03906 404.84375 C 212.96342 404.84375 219.09523 397.35012 222.29883 390.21484 A 12.50125 12.50125 0 0 0 222.29883 379.97461 L 214.44336 362.47461 A 12.50125 12.50125 0 0 0 203.64648 355.10938 z M 202.73633 368.2207 A 5.9085164 5.9085164 0 0 1 208.42969 371.70117 L 212.14258 379.97266 A 5.9085164 5.9085164 0 0 1 212.14258 384.8125 C 210.62845 388.18487 207.72965 391.72656 203.03906 391.72656 C 198.34847 391.72656 195.44967 388.18487 193.93555 384.8125 A 5.9085164 5.9085164 0 0 1 193.93555 379.97266 L 197.65039 371.70117 A 5.9085164 5.9085164 0 0 1 202.73633 368.2207 z "
       transform="translate(0,412.36216)"
       id="path5262" />
    <path
       style="color:#000000;font-style:normal;font-variant:normal;font-weight:normal;font-stretch:normal;font-size:medium;line-height:normal;font-family:sans-serif;text-indent:0;text-align:start;text-decoration:none;text-decoration-line:none;text-decoration-style:solid;text-decoration-color:#000000;letter-spacing:normal;word-spacing:normal;text-transform:none;direction:ltr;block-progression:tb;writing-mode:lr-tb;baseline-shift:baseline;text-anchor:start;white-space:normal;clip-rule:nonzero;display:inline;overflow:visible;visibility:visible;opacity:1;isolation:auto;mix-blend-mode:normal;color-interpolation:sRGB;color-interpolation-filters:linearRGB;solid-color:#000000;solid-opacity:1;fill:#ffffff;fill-opacity:1;fill-rule:nonzero;stroke:none;stroke-width:25;stroke-linecap:butt;stroke-linejoin:round;stroke-miterlimit:4;stroke-dasharray:none;stroke-dashoffset:0;stroke-opacity:1;marker:none;color-rendering:auto;image-rendering:auto;shape-rendering:auto;text-rendering:auto;enable-background:accumulate"
       d="M 376.58203 355.10938 A 12.50125 12.50125 0 0 0 364.57227 362.47461 L 356.71484 379.97461 A 12.50125 12.50125 0 0 0 356.71484 390.21484 C 359.91844 397.35012 366.05025 404.84375 375.97461 404.84375 C 385.89897 404.84375 392.03273 397.35012 395.23633 390.21484 A 12.50125 12.50125 0 0 0 395.23633 379.97461 L 387.37891 362.47461 A 12.50125 12.50125 0 0 0 376.58203 355.10938 z M 375.67188 368.2207 A 5.9085164 5.9085164 0 0 1 381.36523 371.70117 L 385.07812 379.97266 A 5.9085164 5.9085164 0 0 1 385.07812 384.8125 C 383.564 388.18487 380.6652 391.72656 375.97461 391.72656 C 371.28402 391.72656 368.38522 388.18487 366.87109 384.8125 A 5.9085164 5.9085164 0 0 1 366.87109 379.97266 L 370.58594 371.70117 A 5.9085164 5.9085164 0 0 1 375.67188 368.2207 z "
       transform="translate(0,412.36216)"
       id="path5268" />
    <path
       style="color:#000000;font-style:normal;font-variant:normal;font-weight:normal;font-stretch:normal;font-size:medium;line-height:normal;font-family:sans-serif;text-indent:0;text-align:start;text-decoration:none;text-decoration-line:none;text-decoration-style:solid;text-decoration-color:#000000;letter-spacing:normal;word-spacing:normal;text-transform:none;direction:ltr;block-progression:tb;writing-mode:lr-tb;baseline-shift:baseline;text-anchor:start;white-space:normal;clip-rule:nonzero;display:inline;overflow:visible;visibility:visible;opacity:1;isolation:auto;mix-blend-mode:normal;color-interpolation:sRGB;color-interpolation-filters:linearRGB;solid-color:#000000;solid-opacity:1;fill:#ffffff;fill-opacity:1;fill-rule:nonzero;stroke:none;stroke-width:20.15365601;stroke-linecap:butt;stroke-linejoin:round;stroke-miterlimit:4;stroke-dasharray:none;stroke-dashoffset:0;stroke-opacity:1;marker:none;color-rendering:auto;image-rendering:auto;shape-rendering:auto;text-rendering:auto;enable-background:accumulate"
       d="m 116.57031,767.46094 c 4.46784,0 7.43382,2.68009 8.76563,4.36133 1.3318,1.68124 1.87459,3.01075 2.36914,4.31835 0.9891,2.61521 1.53015,5.24441 2.03515,8.53711 a 10.077836,10.077836 0 0 1 0,3.05469 l -3.20898,20.92774 a 10.077836,10.077836 0 0 1 -19.91992,0 l -3.21094,-20.92774 a 10.077836,10.077836 0 0 1 0,-3.05469 c 0.50501,-3.2927 1.04801,-5.9219 2.03711,-8.53711 0.49455,-1.3076 1.03538,-2.63711 2.36719,-4.31835 1.33181,-1.68124 4.29779,-4.36133 8.76562,-4.36133 z"
       id="path5272"
       inkscape:connector-curvature="0" />
    <path
       style="color:#000000;font-style:normal;font-variant:normal;font-weight:normal;font-stretch:normal;font-size:medium;line-height:normal;font-family:sans-serif;text-indent:0;text-align:start;text-decoration:none;text-decoration-line:none;text-decoration-style:solid;text-decoration-color:#000000;letter-spacing:normal;word-spacing:normal;text-transform:none;direction:ltr;block-progression:tb;writing-mode:lr-tb;baseline-shift:baseline;text-anchor:start;white-space:normal;clip-rule:nonzero;display:inline;overflow:visible;visibility:visible;opacity:1;isolation:auto;mix-blend-mode:normal;color-interpolation:sRGB;color-interpolation-filters:linearRGB;solid-color:#000000;solid-opacity:1;fill:#ffffff;fill-opacity:1;fill-rule:nonzero;stroke:none;stroke-width:20.15365601;stroke-linecap:butt;stroke-linejoin:round;stroke-miterlimit:4;stroke-dasharray:none;stroke-dashoffset:0;stroke-opacity:1;marker:none;color-rendering:auto;image-rendering:auto;shape-rendering:auto;text-rendering:auto;enable-background:accumulate"
       d="m 289.50781,767.46094 c 4.46784,0 7.43382,2.68009 8.76563,4.36133 1.3318,1.68124 1.87264,3.01075 2.36718,4.31835 0.9891,2.61521 1.53211,5.24441 2.03711,8.53711 a 10.077836,10.077836 0 0 1 0,3.05469 l -3.21093,20.92774 a 10.077836,10.077836 0 0 1 -19.91992,0 l -3.20899,-20.92774 a 10.077836,10.077836 0 0 1 0,-3.05469 c 0.50501,-3.2927 1.04606,-5.9219 2.03516,-8.53711 0.49455,-1.3076 1.03733,-2.63711 2.36914,-4.31835 1.33181,-1.68124 4.29779,-4.36133 8.76562,-4.36133 z"
       id="path5274"
       inkscape:connector-curvature="0" />
    <path
       style="color:#000000;font-style:normal;font-variant:normal;font-weight:normal;font-stretch:normal;font-size:medium;line-height:normal;font-family:sans-serif;text-indent:0;text-align:start;text-decoration:none;text-decoration-line:none;text-decoration-style:solid;text-decoration-color:#000000;letter-spacing:normal;word-spacing:normal;text-transform:none;direction:ltr;block-progression:tb;writing-mode:lr-tb;baseline-shift:baseline;text-anchor:start;white-space:normal;clip-rule:nonzero;display:inline;overflow:visible;visibility:visible;opacity:1;isolation:auto;mix-blend-mode:normal;color-interpolation:sRGB;color-interpolation-filters:linearRGB;solid-color:#000000;solid-opacity:1;fill:#ffffff;fill-opacity:1;fill-rule:nonzero;stroke:none;stroke-width:25;stroke-linecap:butt;stroke-linejoin:round;stroke-miterlimit:4;stroke-dasharray:none;stroke-dashoffset:0;stroke-opacity:1;marker:none;color-rendering:auto;image-rendering:auto;shape-rendering:auto;text-rendering:auto;enable-background:accumulate"
       d="M 75.646484 435.11133 A 12.50125 12.50125 0 0 0 63.636719 442.47656 L 55.779297 459.97656 A 12.50125 12.50125 0 0 0 55.779297 470.21484 C 58.982891 477.35012 65.114705 484.84375 75.039062 484.84375 C 84.963421 484.84375 91.095234 477.35012 94.298828 470.21484 A 12.50125 12.50125 0 0 0 94.298828 459.97656 L 86.443359 442.47656 A 12.50125 12.50125 0 0 0 75.646484 435.11133 z M 74.736328 448.2207 A 5.9085164 5.9085164 0 0 1 80.429688 451.70117 L 84.142578 459.97266 A 5.9085164 5.9085164 0 0 1 84.142578 464.8125 C 82.628451 468.18487 79.729653 471.72656 75.039062 471.72656 C 70.348473 471.72656 67.449675 468.18487 65.935547 464.8125 A 5.9085164 5.9085164 0 0 1 65.935547 459.97266 L 69.650391 451.70117 A 5.9085164 5.9085164 0 0 1 74.736328 448.2207 z "
       transform="translate(0,412.36216)"
       id="path5278" />
    <path
       style="color:#000000;font-style:normal;font-variant:normal;font-weight:normal;font-stretch:normal;font-size:medium;line-height:normal;font-family:sans-serif;text-indent:0;text-align:start;text-decoration:none;text-decoration-line:none;text-decoration-style:solid;text-decoration-color:#000000;letter-spacing:normal;word-spacing:normal;text-transform:none;direction:ltr;block-progression:tb;writing-mode:lr-tb;baseline-shift:baseline;text-anchor:start;white-space:normal;clip-rule:nonzero;display:inline;overflow:visible;visibility:visible;opacity:1;isolation:auto;mix-blend-mode:normal;color-interpolation:sRGB;color-interpolation-filters:linearRGB;solid-color:#000000;solid-opacity:1;fill:#ffffff;fill-opacity:1;fill-rule:nonzero;stroke:none;stroke-width:25;stroke-linecap:butt;stroke-linejoin:round;stroke-miterlimit:4;stroke-dasharray:none;stroke-dashoffset:0;stroke-opacity:1;marker:none;color-rendering:auto;image-rendering:auto;shape-rendering:auto;text-rendering:auto;enable-background:accumulate"
       d="M 248.58203 435.11133 A 12.50125 12.50125 0 0 0 236.57227 442.47656 L 228.71484 459.97656 A 12.50125 12.50125 0 0 0 228.71484 470.21484 C 231.91844 477.35012 238.05025 484.84375 247.97461 484.84375 C 257.89897 484.84375 264.03273 477.35012 267.23633 470.21484 A 12.50125 12.50125 0 0 0 267.23633 459.97656 L 259.37891 442.47656 A 12.50125 12.50125 0 0 0 248.58203 435.11133 z M 247.67188 448.2207 A 5.9085164 5.9085164 0 0 1 253.36523 451.70117 L 257.07812 459.97266 A 5.9085164 5.9085164 0 0 1 257.07812 464.8125 C 255.56401 468.18487 252.6652 471.72656 247.97461 471.72656 C 243.28402 471.72656 240.38522 468.18487 238.87109 464.8125 A 5.9085164 5.9085164 0 0 1 238.87109 459.97266 L 242.58594 451.70117 A 5.9085164 5.9085164 0 0 1 247.67188 448.2207 z "
       transform="translate(0,412.36216)"
       id="path5284" />
    <path
       style="color:#000000;font-style:normal;font-variant:normal;font-weight:normal;font-stretch:normal;font-size:medium;line-height:normal;font-family:sans-serif;text-indent:0;text-align:start;text-decoration:none;text-decoration-line:none;text-decoration-style:solid;text-decoration-color:#000000;letter-spacing:normal;word-spacing:normal;text-transform:none;direction:ltr;block-progression:tb;writing-mode:lr-tb;baseline-shift:baseline;text-anchor:start;white-space:normal;clip-rule:nonzero;display:inline;overflow:visible;visibility:visible;opacity:1;isolation:auto;mix-blend-mode:normal;color-interpolation:sRGB;color-interpolation-filters:linearRGB;solid-color:#000000;solid-opacity:1;fill:#ffffff;fill-opacity:1;fill-rule:nonzero;stroke:none;stroke-width:20.15365601;stroke-linecap:butt;stroke-linejoin:round;stroke-miterlimit:4;stroke-dasharray:none;stroke-dashoffset:0;stroke-opacity:1;marker:none;color-rendering:auto;image-rendering:auto;shape-rendering:auto;text-rendering:auto;enable-background:accumulate"
       d="m 161.50781,847.46094 c 4.46784,0 7.43382,2.68009 8.76563,4.36133 1.3318,1.68124 1.87264,3.01075 2.36718,4.31835 0.9891,2.61521 1.53211,5.24441 2.03711,8.53711 a 10.077836,10.077836 0 0 1 0,3.05469 l -3.21093,20.92774 a 10.077836,10.077836 0 0 1 -19.91992,0 l -3.20899,-20.92774 a 10.077836,10.077836 0 0 1 0,-3.05469 c 0.50501,-3.2927 1.04606,-5.9219 2.03516,-8.53711 0.49455,-1.3076 1.03733,-2.63711 2.36914,-4.31835 1.33181,-1.68124 4.29779,-4.36133 8.76562,-4.36133 z"
       id="path5288"
       inkscape:connector-curvature="0" />
    <path
       style="color:#000000;font-style:normal;font-variant:normal;font-weight:normal;font-stretch:normal;font-size:medium;line-height:normal;font-family:sans-serif;text-indent:0;text-align:start;text-decoration:none;text-decoration-line:none;text-decoration-style:solid;text-decoration-color:#000000;letter-spacing:normal;word-spacing:normal;text-transform:none;direction:ltr;block-progression:tb;writing-mode:lr-tb;baseline-shift:baseline;text-anchor:start;white-space:normal;clip-rule:nonzero;display:inline;overflow:visible;visibility:visible;opacity:1;isolation:auto;mix-blend-mode:normal;color-interpolation:sRGB;color-interpolation-filters:linearRGB;solid-color:#000000;solid-opacity:1;fill:#ffffff;fill-opacity:1;fill-rule:nonzero;stroke:none;stroke-width:20.15365601;stroke-linecap:butt;stroke-linejoin:round;stroke-miterlimit:4;stroke-dasharray:none;stroke-dashoffset:0;stroke-opacity:1;marker:none;color-rendering:auto;image-rendering:auto;shape-rendering:auto;text-rendering:auto;enable-background:accumulate"
       d="m 334.44336,847.46094 c 4.46784,0 7.43382,2.68009 8.76562,4.36133 1.33181,1.68124 1.87264,3.01075 2.36719,4.31835 0.9891,2.61521 1.53211,5.24441 2.03711,8.53711 a 10.077836,10.077836 0 0 1 0,3.05469 l -3.20898,20.92774 a 10.077836,10.077836 0 0 1 -19.92188,0 l -3.20898,-20.92774 a 10.077836,10.077836 0 0 1 0,-3.05469 c 0.505,-3.2927 1.04801,-5.9219 2.03711,-8.53711 0.49455,-1.3076 1.03538,-2.63711 2.36718,-4.31835 1.33181,-1.68124 4.29779,-4.36133 8.76563,-4.36133 z"
       id="path5290"
       inkscape:connector-curvature="0" />
    <path
       style="color:#000000;font-style:normal;font-variant:normal;font-weight:normal;font-stretch:normal;font-size:medium;line-height:normal;font-family:sans-serif;text-indent:0;text-align:start;text-decoration:none;text-decoration-line:none;text-decoration-style:solid;text-decoration-color:#000000;letter-spacing:normal;word-spacing:normal;text-transform:none;direction:ltr;block-progression:tb;writing-mode:lr-tb;baseline-shift:baseline;text-anchor:start;white-space:normal;clip-rule:nonzero;display:inline;overflow:visible;visibility:visible;opacity:1;isolation:auto;mix-blend-mode:normal;color-interpolation:sRGB;color-interpolation-filters:linearRGB;solid-color:#000000;solid-opacity:1;fill:#ffffff;fill-opacity:1;fill-rule:nonzero;stroke:none;stroke-width:25;stroke-linecap:butt;stroke-linejoin:round;stroke-miterlimit:4;stroke-dasharray:none;stroke-dashoffset:0;stroke-opacity:1;marker:none;color-rendering:auto;image-rendering:auto;shape-rendering:auto;text-rendering:auto;enable-background:accumulate"
       d="M 203.64648 515.11133 A 12.50125 12.50125 0 0 0 191.63672 522.47656 L 183.7793 539.97656 A 12.50125 12.50125 0 0 0 183.7793 550.21484 C 186.98289 557.35012 193.1147 564.84375 203.03906 564.84375 C 212.96342 564.84375 219.09523 557.35012 222.29883 550.21484 A 12.50125 12.50125 0 0 0 222.29883 539.97656 L 214.44336 522.47656 A 12.50125 12.50125 0 0 0 203.64648 515.11133 z M 202.73633 528.2207 A 5.9085164 5.9085164 0 0 1 208.42969 531.70117 L 212.14258 539.97266 A 5.9085164 5.9085164 0 0 1 212.14258 544.8125 C 210.62845 548.18487 207.72965 551.72656 203.03906 551.72656 C 198.34847 551.72656 195.44967 548.18487 193.93555 544.8125 A 5.9085164 5.9085164 0 0 1 193.93555 539.97266 L 197.65039 531.70117 A 5.9085164 5.9085164 0 0 1 202.73633 528.2207 z "
       transform="translate(0,412.36216)"
       id="path5294" />
    <path
       style="color:#000000;font-style:normal;font-variant:normal;font-weight:normal;font-stretch:normal;font-size:medium;line-height:normal;font-family:sans-serif;text-indent:0;text-align:start;text-decoration:none;text-decoration-line:none;text-decoration-style:solid;text-decoration-color:#000000;letter-spacing:normal;word-spacing:normal;text-transform:none;direction:ltr;block-progression:tb;writing-mode:lr-tb;baseline-shift:baseline;text-anchor:start;white-space:normal;clip-rule:nonzero;display:inline;overflow:visible;visibility:visible;opacity:1;isolation:auto;mix-blend-mode:normal;color-interpolation:sRGB;color-interpolation-filters:linearRGB;solid-color:#000000;solid-opacity:1;fill:#ffffff;fill-opacity:1;fill-rule:nonzero;stroke:none;stroke-width:25;stroke-linecap:butt;stroke-linejoin:round;stroke-miterlimit:4;stroke-dasharray:none;stroke-dashoffset:0;stroke-opacity:1;marker:none;color-rendering:auto;image-rendering:auto;shape-rendering:auto;text-rendering:auto;enable-background:accumulate"
       d="M 376.58203 515.11133 A 12.50125 12.50125 0 0 0 364.57227 522.47656 L 356.71484 539.97656 A 12.50125 12.50125 0 0 0 356.71484 550.21484 C 359.91844 557.35012 366.05025 564.84375 375.97461 564.84375 C 385.89897 564.84375 392.03273 557.35012 395.23633 550.21484 A 12.50125 12.50125 0 0 0 395.23633 539.97656 L 387.37891 522.47656 A 12.50125 12.50125 0 0 0 376.58203 515.11133 z M 375.67188 528.2207 A 5.9085164 5.9085164 0 0 1 381.36523 531.70117 L 385.07812 539.97266 A 5.9085164 5.9085164 0 0 1 385.07812 544.8125 C 383.564 548.18487 380.6652 551.72656 375.97461 551.72656 C 371.28402 551.72656 368.38522 548.18487 366.87109 544.8125 A 5.9085164 5.9085164 0 0 1 366.87109 539.97266 L 370.58594 531.70117 A 5.9085164 5.9085164 0 0 1 375.67188 528.2207 z "
       transform="translate(0,412.36216)"
       id="path5300" />
    <path
       style="color:#000000;font-style:normal;font-variant:normal;font-weight:normal;font-stretch:normal;font-size:medium;line-height:normal;font-family:sans-serif;text-indent:0;text-align:start;text-decoration:none;text-decoration-line:none;text-decoration-style:solid;text-decoration-color:#000000;letter-spacing:normal;word-spacing:normal;text-transform:none;direction:ltr;block-progression:tb;writing-mode:lr-tb;baseline-shift:baseline;text-anchor:start;white-space:normal;clip-rule:nonzero;display:inline;overflow:visible;visibility:visible;opacity:1;isolation:auto;mix-blend-mode:normal;color-interpolation:sRGB;color-interpolation-filters:linearRGB;solid-color:#000000;solid-opacity:1;fill:#ffffff;fill-opacity:1;fill-rule:nonzero;stroke:none;stroke-width:20.15365601;stroke-linecap:butt;stroke-linejoin:round;stroke-miterlimit:4;stroke-dasharray:none;stroke-dashoffset:0;stroke-opacity:1;marker:none;color-rendering:auto;image-rendering:auto;shape-rendering:auto;text-rendering:auto;enable-background:accumulate"
       d="m 116.57031,927.46094 c 4.46784,0 7.43382,2.68009 8.76563,4.36133 1.3318,1.68124 1.87459,3.01075 2.36914,4.31835 0.9891,2.61521 1.53015,5.24441 2.03515,8.53711 a 10.077836,10.077836 0 0 1 0,3.05469 l -3.20898,20.92774 a 10.077836,10.077836 0 0 1 -19.91992,0 l -3.21094,-20.92774 a 10.077836,10.077836 0 0 1 0,-3.05469 c 0.50501,-3.2927 1.04801,-5.9219 2.03711,-8.53711 0.49455,-1.3076 1.03538,-2.63711 2.36719,-4.31835 1.33181,-1.68124 4.29779,-4.36133 8.76562,-4.36133 z"
       id="path5304"
       inkscape:connector-curvature="0" />
    <path
       style="color:#000000;font-style:normal;font-variant:normal;font-weight:normal;font-stretch:normal;font-size:medium;line-height:normal;font-family:sans-serif;text-indent:0;text-align:start;text-decoration:none;text-decoration-line:none;text-decoration-style:solid;text-decoration-color:#000000;letter-spacing:normal;word-spacing:normal;text-transform:none;direction:ltr;block-progression:tb;writing-mode:lr-tb;baseline-shift:baseline;text-anchor:start;white-space:normal;clip-rule:nonzero;display:inline;overflow:visible;visibility:visible;opacity:1;isolation:auto;mix-blend-mode:normal;color-interpolation:sRGB;color-interpolation-filters:linearRGB;solid-color:#000000;solid-opacity:1;fill:#ffffff;fill-opacity:1;fill-rule:nonzero;stroke:none;stroke-width:20.15365601;stroke-linecap:butt;stroke-linejoin:round;stroke-miterlimit:4;stroke-dasharray:none;stroke-dashoffset:0;stroke-opacity:1;marker:none;color-rendering:auto;image-rendering:auto;shape-rendering:auto;text-rendering:auto;enable-background:accumulate"
       d="m 289.50781,927.46094 c 4.46784,0 7.43382,2.68009 8.76563,4.36133 1.3318,1.68124 1.87264,3.01075 2.36718,4.31835 0.9891,2.61521 1.53211,5.24441 2.03711,8.53711 a 10.077836,10.077836 0 0 1 0,3.05469 l -3.21093,20.92774 a 10.077836,10.077836 0 0 1 -19.91992,0 l -3.20899,-20.92774 a 10.077836,10.077836 0 0 1 0,-3.05469 c 0.50501,-3.2927 1.04606,-5.9219 2.03516,-8.53711 0.49455,-1.3076 1.03733,-2.63711 2.36914,-4.31835 1.33181,-1.68124 4.29779,-4.36133 8.76562,-4.36133 z"
       id="path5306"
       inkscape:connector-curvature="0" />
  </g>
</svg>
