<?xml version="1.0" encoding="iso-8859-1"?>
<!DOCTYPE svg PUBLIC "-//W3C//DTD SVG 1.0//EN" "http://www.w3.org/TR/2001/REC-SVG-20010904/DTD/svg10.dtd">
<svg width="9.25197in" height="7.22359in" viewBox="0 0 9252 7224" shape-rendering="geometricPrecision" text-rendering="geometricPrecision" image-rendering="optimizeQuality" fill-rule="evenodd" xmlns="http://www.w3.org/2000/svg" xmlns:odm="http://product.corel.com/CGS/11/cddns/" xml:space="preserve">
<g id="Ebene 1">
<path fill="#FA000D" d="M4175 335l-47 170 -96 307 -107 297 17 8 -59 53 0 42c0,66 -28,140 -53,181l-51 220 -285 768c0,107 -73,246 -112,330l-1516 17 -1072 0 -292 0c8,100 52,90 120,131 57,35 91,92 158,92 42,0 39,-16 42,-56 -32,-8 -111,-47 -111,-83 0,-17 28,-42 55,-42l14 0c64,0 45,28 139,29 78,0 91,-13 153,-15 108,-4 225,0 334,0 234,0 452,-2 654,-6l320 6 140 -4 695 4 153 0c130,0 154,-206 190,-325 21,-71 106,-362 130,-398 1,-37 26,-134 39,-156 57,-95 28,-39 56,-153 22,-90 68,-241 100,-318 16,-37 43,-107 53,-141 15,-49 26,-133 39,-170 31,-86 100,-190 103,-315 78,-116 130,-314 167,-473l56 0c8,33 40,93 55,125 32,69 16,96 37,158 21,60 73,240 74,302 45,66 390,1161 390,1280 42,15 111,199 111,264l0 56c89,35 56,263 181,258l2463 20c-11,133 -74,40 -83,153l69 0c26,-98 220,-74 223,-228l-543 -8 -1767 0c-379,0 -381,62 -464,-302 -13,-56 -46,-76 -62,-132 -18,-59 -26,-105 -49,-161 -46,-112 -38,-194 -98,-298l-120 -443c-52,-19 -111,-259 -111,-348 -37,-55 -110,-261 -110,-350l-21 -42 -94 -345 -81 -195c-98,8 -60,138 -126,236zm42 3493l543 4 0 51 250 28 83 -17 1 59 -933 0c-64,0 -27,-40 -27,-84l0 -41 83 0zm-2254 -14c126,0 213,0 334,0 95,-1 298,-38 306,55l-654 0c-53,0 -64,-5 -70,-55l84 0zm1814 1911c-148,109 -374,269 -502,388 -54,50 -86,43 -140,97 -63,65 -56,50 -125,98 -90,63 -176,117 -257,188 -53,47 -88,35 -140,83 -40,37 -68,77 -113,110 -39,29 -231,186 -259,186l-69 0 -14 -6 76 -178 97 -413c70,-115 83,-288 139,-426 43,-104 133,-293 133,-424 72,-108 70,-356 153,-390 0,-95 28,-74 28,-139l0 -125 -71 26 1 71 -44 39c3,187 -147,394 -150,546l-162 484c-58,101 -128,397 -178,540 -19,55 -68,238 -77,285 -12,62 -98,235 -98,263l0 28c0,37 6,38 14,69 112,-2 224,-192 334,-194 21,-61 825,-629 948,-735 151,-131 323,-236 481,-368 68,-57 188,-131 237,-181 14,-15 254,-164 254,-164l41 0c26,0 104,79 149,103 101,54 61,39 135,101 44,36 117,68 152,99 47,41 68,78 127,109 110,56 193,129 292,195 103,69 181,144 270,203 98,66 63,45 140,111 17,15 120,64 152,84 105,66 182,135 278,209 96,72 194,121 293,194 48,36 90,90 124,112 29,19 156,71 156,-3l0 -14c0,-69 -191,-625 -225,-693 -17,-36 -219,-660 -220,-684 -61,-91 -44,-176 -97,-265 -47,-77 -84,-154 -84,-278l-70 -97c1,-158 -69,-167 -69,-209l0 -139c0,-73 55,-52 97,-133 31,-7 45,-10 56,-20l98 0c79,0 111,17 139,69 52,1 224,63 236,98l114 50c55,13 65,32 102,54 53,27 391,119 447,138 101,34 347,119 465,119 21,0 15,24 40,30 43,4 59,-1 107,19 5,14 31,24 52,27 41,0 65,8 107,8 69,46 182,57 232,63 9,6 28,16 47,20l388 0c44,0 47,-10 73,-35 27,-19 55,-21 86,-35 98,-59 132,-19 195,-132 26,-47 172,-167 166,-185 18,-80 117,-277 82,-451 -32,-158 -84,-291 -270,-291 -35,5 -36,-12 -67,-12 -121,-9 -241,-18 -361,-28 -112,11 -194,0 -305,11 -41,5 -62,-2 -83,-21l-210 -9 -57 -36 -305 -47c-7,-65 -115,-65 -184,-76 -82,-12 -151,-23 -220,-30 -134,-14 -289,-66 -432,-70l0 -41c0,-40 -32,-54 -56,-70 -662,0 -1317,-56 -1975,-56 -361,0 -633,-33 -961,-55 -300,-20 -622,-70 -932,-70 -40,0 -51,29 -97,42l-49 207 -396 2 0 -28 -1517 0 -65 87 -6 -14 -500 52 0 42c69,0 206,18 276,31 72,13 224,-7 252,40 58,100 381,54 530,54 171,0 420,-21 576,8 199,38 374,-22 551,-22l306 0c0,76 3,264 70,264l83 0c26,0 77,-48 140,-55 51,-6 139,0 194,0 125,0 251,0 376,0 125,0 250,0 375,0 97,0 313,38 320,-56 87,7 39,42 98,42l2365 0c7,-44 14,-88 21,-131 90,15 281,-13 271,44l102 0c155,-12 453,71 458,-38 108,4 323,57 439,104l351 21 71 16c171,0 309,-16 458,-16 67,-1 168,19 200,51 13,13 64,147 64,172 0,92 -3,177 -14,264 -11,91 -68,107 -95,168 -94,211 -215,134 -304,251 -50,26 -57,36 -107,45 -39,8 -61,9 -92,9l-83 0c-121,-14 -218,-22 -352,-49 -28,-14 -35,-34 -57,-44 -17,-1 -35,-7 -50,-4 -31,0 -23,-16 -56,-28 -147,-14 -149,-25 -259,-62 -104,-34 -152,-32 -268,-52 -93,-16 -388,-125 -461,-165 -45,-10 -62,-2 -94,-7 -42,-18 -45,-14 -88,-34 -66,-31 -19,-20 -65,-59 -27,-23 -127,-54 -169,-68 -116,-41 -163,-124 -349,-124l-28 0 -153 16c-49,32 -98,4 -119,60 -50,82 -36,41 -48,133l-17 153c-9,91 72,83 72,223 46,68 70,91 70,208 45,68 278,699 278,794l30 40 -2 43c11,16 138,342 139,362 11,151 98,172 98,389 -115,-9 -450,-276 -539,-351 -75,-63 -175,-110 -264,-181 -85,-68 -147,-133 -246,-186 -48,-26 -205,-150 -256,-189 -72,-54 -193,-119 -256,-176 -42,-40 -485,-364 -513,-364l-14 0c-77,0 -450,304 -537,367z"/>
</g>
</svg>
