<?xml version="1.0" encoding="UTF-8" standalone="no"?>
<!-- Created with Inkscape (http://www.inkscape.org/) -->

<svg
   xmlns:dc="http://purl.org/dc/elements/1.1/"
   xmlns:cc="http://creativecommons.org/ns#"
   xmlns:rdf="http://www.w3.org/1999/02/22-rdf-syntax-ns#"
   xmlns:svg="http://www.w3.org/2000/svg"
   xmlns="http://www.w3.org/2000/svg"
   xmlns:sodipodi="http://sodipodi.sourceforge.net/DTD/sodipodi-0.dtd"
   xmlns:inkscape="http://www.inkscape.org/namespaces/inkscape"
   width="210mm"
   height="297mm"
   viewBox="0 0 744.09448819 1052.3622047"
   id="svg2"
   version="1.1"
   inkscape:version="0.91 r13725"
   sodipodi:docname="Pollin.svg">
  <defs
     id="defs4" />
  <sodipodi:namedview
     id="base"
     pagecolor="#ffffff"
     bordercolor="#666666"
     borderopacity="1.0"
     inkscape:pageopacity="0.0"
     inkscape:pageshadow="2"
     inkscape:zoom="2"
     inkscape:cx="113.3409"
     inkscape:cy="856.3329"
     inkscape:document-units="px"
     inkscape:current-layer="layer1"
     showgrid="false"
     showguides="true"
     inkscape:guide-bbox="true"
     inkscape:window-width="1920"
     inkscape:window-height="1022"
     inkscape:window-x="0"
     inkscape:window-y="0"
     inkscape:window-maximized="1">
    <sodipodi:guide
       position="756.60426,673.77176"
       orientation="1,0"
       id="guide4395" />
  </sodipodi:namedview>
  <metadata
     id="metadata7">
    <rdf:RDF>
      <cc:Work
         rdf:about="">
        <dc:format>image/svg+xml</dc:format>
        <dc:type
           rdf:resource="http://purl.org/dc/dcmitype/StillImage" />
        <dc:title></dc:title>
      </cc:Work>
    </rdf:RDF>
  </metadata>
  <g
     inkscape:label="Ebene 1"
     inkscape:groupmode="layer"
     id="layer1">
    <rect
       ry="1.5179535"
       y="159.83128"
       x="33.57143"
       height="131.10236"
       width="379.13385"
       id="rect4465"
       style="fill:#ffffff;fill-opacity:1;stroke:none;stroke-width:8.30000019;stroke-linecap:round;stroke-linejoin:round;stroke-miterlimit:4;stroke-dasharray:none;stroke-opacity:1" />
    <g
       id="g4599"
       style="fill:#e60000;fill-opacity:1">
      <path
         id="rect4308"
         d="m 105.34528,178.13875 -61.769169,61.76917 c -0.112484,0.11248 -0.185718,0.24679 -0.228503,0.38862 l 7.818301,0 54.179371,-54.1802 0,-7.97759 z"
         style="fill:#e60000;fill-opacity:1;stroke:none;stroke-width:8.30000019;stroke-linecap:round;stroke-linejoin:round;stroke-miterlimit:4;stroke-dasharray:none;stroke-opacity:1"
         inkscape:connector-curvature="0" />
      <path
         id="rect4320"
         d="m 105.34528,188.9743 -50.932795,50.93362 c -0.112484,0.11248 -0.186552,0.24679 -0.229337,0.38862 l 7.8183,0 43.343832,-43.34383 0,-7.97841 z"
         style="fill:#e60000;fill-opacity:1;stroke:none;stroke-width:8.30000019;stroke-linecap:round;stroke-linejoin:round;stroke-miterlimit:4;stroke-dasharray:none;stroke-opacity:1"
         inkscape:connector-curvature="0" />
      <path
         id="rect4322"
         d="m 105.34528,199.80983 -40.097256,40.09809 c -0.112453,0.11245 -0.18571,0.24683 -0.228503,0.38862 l 7.817468,0 32.508291,-32.50829 0,-7.97842 z"
         style="fill:#e60000;fill-opacity:1;stroke:none;stroke-width:8.30000019;stroke-linecap:round;stroke-linejoin:round;stroke-miterlimit:4;stroke-dasharray:none;stroke-opacity:1"
         inkscape:connector-curvature="0" />
      <path
         id="rect4324"
         d="m 105.34528,210.64621 -29.261718,29.26171 c -0.11245,0.11245 -0.185708,0.24683 -0.2285,0.38862 l 7.817465,0 21.672753,-21.67275 0,-7.97758 z"
         style="fill:#e60000;fill-opacity:1;stroke:none;stroke-width:8.30000019;stroke-linecap:round;stroke-linejoin:round;stroke-miterlimit:4;stroke-dasharray:none;stroke-opacity:1"
         inkscape:connector-curvature="0" />
      <path
         id="rect4326"
         d="M 105.34528,221.48175 86.9191,239.90792 c -0.11245,0.11245 -0.185708,0.24683 -0.2285,0.38862 l 7.817465,0 10.837215,-10.83721 0,-7.97758 z"
         style="fill:#e60000;fill-opacity:1;stroke:none;stroke-width:8.30000019;stroke-linecap:round;stroke-linejoin:round;stroke-miterlimit:4;stroke-dasharray:none;stroke-opacity:1"
         inkscape:connector-curvature="0" />
      <path
         id="rect4328"
         d="m 105.34528,232.31728 -7.590638,7.59064 c -0.112454,0.11245 -0.185712,0.24683 -0.228504,0.38862 l 7.817472,0 0.002,-0.002 0,-7.97759 z"
         style="fill:#e60000;fill-opacity:1;stroke:none;stroke-width:8.30000019;stroke-linecap:round;stroke-linejoin:round;stroke-miterlimit:4;stroke-dasharray:none;stroke-opacity:1"
         inkscape:connector-curvature="0" />
    </g>
    <path
       inkscape:connector-curvature="0"
       style="fill:#1c4394;fill-opacity:1;stroke:none;stroke-width:8.30000019;stroke-linecap:round;stroke-linejoin:round;stroke-miterlimit:4;stroke-dasharray:none;stroke-opacity:1"
       d="m 383.84731,193.68477 c -3.16433,0 -5.96434,0.63511 -8.39844,1.90625 -2.43409,1.2441 -4.65097,3.19134 -6.65234,5.8418 l 0,-6.6543 -14.52344,0 0,49.73438 14.52344,0 0,-10.86915 c 2.00137,2.65047 4.21825,4.61169 6.65234,5.88282 2.4341,1.2441 5.23411,1.86523 8.39844,1.86523 5.59843,0 10.19591,-2.21687 13.79297,-6.65234 3.59705,-4.46252 5.39648,-10.19638 5.39648,-17.20117 0,-7.0048 -1.79943,-12.72469 -5.39648,-17.16016 -3.59706,-4.46252 -8.19454,-6.69336 -13.79297,-6.69336 z m -15.05078,50.82813 0,12.98632 -0.0312,0 0,0.51953 c 0,1.1425 -0.91806,2.06251 -2.06055,2.0625 l -10.35938,0 c -1.14249,0 -2.06054,-0.92 -2.06054,-2.0625 l 0,-0.51953 -0.0117,0 0,-12.98632 -308.642582,0 c -1.324512,0 -2.390625,1.06806 -2.390625,2.39257 l 0,23.33008 c 0,1.32451 1.066113,2.39063 2.390625,2.39063 l 354.687502,0 c 1.32451,0 2.39063,-1.06612 2.39063,-2.39063 l 0,-23.33008 c 0,-1.32451 -1.06612,-2.39257 -2.39063,-2.39257 l -31.52148,0 z m 9.65625,-40.28125 c 3.11024,0 5.47687,1.13637 7.09961,3.4082 1.64977,2.27183 2.47265,5.57115 2.47265,9.89844 0,4.32728 -0.82288,7.6266 -2.47265,9.89843 -1.62274,2.27182 -3.98937,3.40821 -7.09961,3.40821 -3.11024,0 -5.50482,-1.13639 -7.18164,-3.40821 -1.64978,-2.29888 -2.47461,-5.59819 -2.47461,-9.89843 0,-4.30025 0.82483,-7.58755 2.47461,-9.85938 1.67682,-2.29887 4.0714,-3.44726 7.18164,-3.44726 z m -251.76563,44.09765 1.93945,0 0,1.85938 -1.93945,0 0,-1.85938 z m 3.73828,0 1.94141,0 0,1.85938 -1.94141,0 0,-1.85938 z m 41.04492,0 1.94141,0 0,1.85938 -1.94141,0 0,-1.85938 z m 3.73829,0 1.9414,0 0,1.85938 -1.9414,0 0,-1.85938 z m -114.91407,3.20703 c 2.001441,0 3.602466,0.64455 4.800781,1.9336 1.198315,1.28294 1.796875,3.00529 1.796875,5.16797 0,1.5884 -0.334634,2.94791 -1.003906,4.07812 -0.662897,1.13021 -1.624664,1.96434 -2.886719,2.50195 l 2.542969,2.66602 -2.333984,0 -2.113281,-2.18945 c -0.210343,0.0122 -0.371596,0.0212 -0.486329,0.0273 -0.108358,0.006 -0.214422,0.008 -0.316406,0.008 -2.007815,0 -3.61367,-0.64088 -4.818359,-1.92383 -1.198315,-1.28905 -1.796875,-3.0114 -1.796875,-5.16796 0,-2.16268 0.59856,-3.88503 1.796875,-5.16797 1.204689,-1.28905 2.810544,-1.9336 4.818359,-1.9336 z m 278.68555,0 c 0.66927,0 1.35015,0.0578 2.04492,0.17383 0.69477,0.11608 1.40618,0.28933 2.13281,0.52149 l 0,1.80664 c -0.73301,-0.33601 -1.42406,-0.58701 -2.07421,-0.75196 -0.65015,-0.16495 -1.27924,-0.24804 -1.88477,-0.24804 -1.05171,0 -1.86384,0.19494 -2.4375,0.58593 -0.56729,0.391 -0.85156,0.94708 -0.85156,1.66797 0,0.60482 0.18838,1.06343 0.56445,1.375 0.38244,0.30546 1.10402,0.5528 2.16211,0.74219 l 1.16602,0.22852 c 1.44052,0.26269 2.50157,0.72862 3.18359,1.39453 0.68839,0.6598 1.0332,1.54436 1.0332,2.65625 0,1.3257 -0.46588,2.33139 -1.39648,3.01562 -0.92423,0.68424 -2.28312,1.02539 -4.07422,1.02539 -0.67565,0 -1.39528,-0.0721 -2.16016,-0.21875 -0.7585,-0.14662 -1.54545,-0.36325 -2.36132,-0.65039 l 0,-1.90625 c 0.784,0.42154 1.55255,0.7393 2.30468,0.95313 0.75214,0.21382 1.49016,0.32031 2.2168,0.32031 1.1027,0 1.95358,-0.20762 2.55273,-0.62305 0.59916,-0.41543 0.90039,-1.00758 0.90039,-1.77734 0,-0.67202 -0.21695,-1.1974 -0.65039,-1.57617 -0.42706,-0.37878 -1.13168,-0.66413 -2.11328,-0.85352 l -1.17578,-0.21875 c -1.44053,-0.27491 -2.48318,-0.70648 -3.12695,-1.29297 -0.64378,-0.58649 -0.96485,-1.40258 -0.96485,-2.44726 0,-1.20963 0.44214,-2.16097 1.32813,-2.85743 0.89236,-0.69645 2.12001,-1.04492 3.68164,-1.04492 z m -269.287112,0.2461 1.941406,0 0,8.3125 c 0,1.46622 0.277492,2.52234 0.832031,3.16992 0.554539,0.64147 1.45238,0.96289 2.695313,0.96289 1.236559,0 2.13296,-0.32142 2.6875,-0.96289 0.554539,-0.64758 0.832031,-1.7037 0.832031,-3.16992 l 0,-8.3125 1.939453,0 0,8.54101 c 0,1.7839 -0.460533,3.13074 -1.384766,4.04102 -0.917858,0.91028 -2.276746,1.36523 -4.074218,1.36523 -1.803847,0 -3.167565,-0.45495 -4.091797,-1.36523 -0.917858,-0.91028 -1.376953,-2.25712 -1.376953,-4.04102 l 0,-8.54101 z m 18.242187,0 2.189453,0 5.441407,13.68164 -2.007813,0 -1.300781,-3.50977 -6.435547,0 -1.298828,3.50977 -2.03711,0 5.449219,-13.68164 z m 9.705078,0 1.931641,0 0,12.125 6.951176,0 0,1.55664 -8.882817,0 0,-13.68164 z m 10.900397,0 1.92968,0 0,13.68164 -1.92968,0 0,-13.68164 z m 3.79492,0 12.07617,0 0,1.55859 -5.06836,0 0,12.12305 -1.9414,0 0,-12.12305 -5.06641,0 0,-1.55859 z m 16.10156,0 2.18945,0 5.43946,13.68164 -2.00782,0 -1.30078,-3.50977 -6.43359,0 -1.30078,3.50977 -2.03711,0 5.45117,-13.68164 z m 6.19531,0 12.07422,0 0,1.55859 -5.0664,0 0,12.12305 -1.94141,0 0,-12.12305 -5.06641,0 0,-1.55859 z m 20.1836,0 1.92968,0 0,5.60937 7.01758,0 0,-5.60937 1.93164,0 0,13.68164 -1.93164,0 0,-6.51563 -7.01758,0 0,6.51563 -1.92968,0 0,-13.68164 z m 18.40429,0 2.18946,0 5.43945,13.68164 -2.00781,0 -1.29883,-3.50977 -6.43555,0 -1.30078,3.50977 -2.03515,0 5.44921,-13.68164 z m 6.19532,0 12.07617,0 11.625,0 0,1.55859 -5.06641,0 0,12.12305 -1.9414,0 0,-12.12305 -4.61719,0 -5.06836,0 0,12.12305 -1.94141,0 0,-12.12305 -5.0664,0 0,-1.55859 z m 25.57617,0 9.02539,0 0,1.55859 -7.09375,0 0,4.05078 6.79687,0 0,1.55664 -6.79687,0 0,4.95899 7.26562,0 0,1.55664 -9.19726,0 0,-13.68164 z m 18.625,0 1.93164,0 0,13.68164 -1.93164,0 0,-13.68164 z m 5.77344,0 1.93164,0 0,5.60937 7.01758,0 0,-5.60937 1.93164,0 0,13.68164 -1.93164,0 0,-6.51563 -7.01758,0 0,6.51563 -1.93164,0 0,-13.68164 z m 14.72461,0 4.35937,0 c 1.63175,0 2.84922,0.32678 3.65234,0.98047 0.80313,0.65369 1.20508,1.64134 1.20508,2.96093 0,0.86141 -0.21017,1.57637 -0.63086,2.14453 -0.41431,0.56816 -1.01965,0.96171 -1.8164,1.18165 0.41431,0.1344 0.81626,0.42146 1.20508,0.86132 0.39518,0.43987 0.79035,1.04469 1.18554,1.81446 l 1.95899,3.73828 -2.07422,0 -1.82617,-3.50977 c -0.47168,-0.91639 -0.93078,-1.52291 -1.37696,-1.82226 -0.4398,-0.29936 -1.04176,-0.44922 -1.80664,-0.44922 l -2.10351,0 0,5.78125 -1.93164,0 0,-13.68164 z m 13.61523,0 9.02539,0 0,1.55859 -7.09375,0 0,4.05078 6.79688,0 0,1.55664 -6.79688,0 0,4.95899 7.26563,0 0,1.55664 -9.19727,0 0,-13.68164 z m 12.39062,0 2.60157,0 6.32812,11.44726 0,-11.44726 1.875,0 0,13.68164 -2.60156,0 -6.32813,-11.44532 0,11.44532 -1.875,0 0,-13.68164 z m 20.88086,0 4.36133,0 c 1.59988,0 2.80718,0.34846 3.62305,1.04492 0.82225,0.69034 1.23242,1.70504 1.23242,3.04297 0,1.35014 -0.41017,2.3702 -1.23242,3.06054 -0.81587,0.69035 -2.02317,1.03516 -3.62305,1.03516 l -2.42969,0 0,5.49805 -1.93164,0 0,-13.68164 z m 11.81836,0 4.35938,0 c 1.63175,0 2.84922,0.32678 3.65234,0.98047 0.80313,0.65369 1.20508,1.64134 1.20508,2.96093 0,0.86141 -0.21017,1.57637 -0.63086,2.14453 -0.41431,0.56816 -1.01965,0.96171 -1.8164,1.18165 0.41431,0.1344 0.81626,0.42146 1.20507,0.86132 0.39519,0.43987 0.79036,1.04469 1.18555,1.81446 l 1.95898,3.73828 -2.07421,0 -1.82618,-3.50977 c -0.47167,-0.91639 -0.93077,-1.52291 -1.37695,-1.82226 -0.43981,-0.29936 -1.04176,-0.44922 -1.80664,-0.44922 l -2.10352,0 0,5.78125 -1.93164,0 0,-13.68164 z m 13.61524,0 9.02539,0 0,1.55859 -7.09375,0 0,4.05078 6.79687,0 0,1.55664 -6.79687,0 0,4.95899 7.26562,0 0,1.55664 -9.19726,0 0,-13.68164 z m 12.39062,0 1.93164,0 0,13.68164 -1.93164,0 0,-13.68164 z m -268.53125,1.25586 c -1.402283,0 -2.517081,0.50199 -3.345703,1.5039 -0.822248,1.00192 -1.234375,2.36679 -1.234375,4.09571 0,1.7228 0.412127,3.08402 1.234375,4.08593 0.828622,1.00192 1.94342,1.50391 3.345703,1.50391 1.402284,0 2.512251,-0.50199 3.328125,-1.50391 0.822248,-1.00191 1.232422,-2.36313 1.232422,-4.08593 0,-1.72892 -0.410174,-3.09379 -1.232422,-4.09571 -0.815874,-1.00191 -1.925841,-1.5039 -3.328125,-1.5039 z m 185.75196,0.26562 0,4.85742 2.42773,0 c 0.93061,0 1.63184,-0.20396 2.10352,-0.61328 0.47805,-0.41543 0.71679,-1.02391 0.71679,-1.82422 0,-0.80031 -0.23874,-1.40147 -0.71679,-1.80468 -0.47168,-0.40932 -1.17291,-0.61524 -2.10352,-0.61524 l -2.42773,0 z m 46.88671,0 0,5.14063 2.42969,0 c 0.89874,0 1.59319,-0.222 2.08399,-0.66797 0.4908,-0.44598 0.73632,-1.0815 0.73632,-1.90625 0,-0.81864 -0.24552,-1.45051 -0.73632,-1.89649 -0.4908,-0.44597 -1.18525,-0.66992 -2.08399,-0.66992 l -2.42969,0 z m 11.81836,0 0,4.85742 2.42774,0 c 0.93061,0 1.63184,-0.20396 2.10351,-0.61328 0.47806,-0.41543 0.7168,-1.02391 0.7168,-1.82422 0,-0.80031 -0.23874,-1.40147 -0.7168,-1.80468 -0.47167,-0.40932 -1.1729,-0.61524 -2.10351,-0.61524 l -2.42774,0 z m -215.726561,0.30274 -2.619141,6.80859 5.25,0 -2.630859,-6.80859 z m 40.501961,0 -2.6211,6.80859 5.25,0 -2.6289,-6.80859 z m 44.7832,0 -2.61914,6.80859 5.24804,0 -2.6289,-6.80859 z"
       id="rect4397" />
    <path
       inkscape:connector-curvature="0"
       id="path4404"
       style="font-style:normal;font-variant:normal;font-weight:bold;font-stretch:normal;font-size:medium;line-height:125%;font-family:'DejaVu Sans';-inkscape-font-specification:'DejaVu Sans Bold';letter-spacing:0px;word-spacing:0px;fill:#1c4394;fill-opacity:1;stroke:none;stroke-width:1px;stroke-linecap:butt;stroke-linejoin:miter;stroke-opacity:1"
       d="m 166.76629,235.71292 q -5.84184,2.83978 -12.12993,4.25967 -6.28809,1.41989 -12.98187,1.41989 -15.13198,0 -23.97588,-8.43821 -8.8439,-8.47878 -8.8439,-22.96168 0,-14.64517 9.00617,-23.04281 9.00617,-8.39764 24.66555,-8.39764 6.04468,0 11.56198,1.13591 5.55786,1.13591 10.46662,3.36717 l 0,12.53562 q -5.07104,-2.88035 -10.10151,-4.30025 -4.98991,-1.41989 -10.02038,-1.41989 -9.33072,0 -14.40176,5.23331 -5.03047,5.19275 -5.03047,14.88858 0,9.6147 4.8682,14.84801 4.8682,5.23332 13.8338,5.23332 2.4341,0 4.50308,-0.28398 2.10956,-0.32455 3.77286,-0.97364 l 0,-11.76481 -9.53356,0 0,-10.46664 24.341,0 0,29.12807 z" />
    <path
       inkscape:connector-curvature="0"
       id="path4406"
       style="font-style:normal;font-variant:normal;font-weight:bold;font-stretch:normal;font-size:medium;line-height:125%;font-family:'DejaVu Sans';-inkscape-font-specification:'DejaVu Sans Bold';letter-spacing:0px;word-spacing:0px;fill:#1c4394;fill-opacity:1;stroke:none;stroke-width:1px;stroke-linecap:butt;stroke-linejoin:miter;stroke-opacity:1"
       d="m 179.8293,178.16997 14.52346,0 0,62.04603 -14.52346,0 0,-62.04603 z" />
    <path
       inkscape:connector-curvature="0"
       id="path4408"
       style="font-style:normal;font-variant:normal;font-weight:bold;font-stretch:normal;font-size:medium;line-height:125%;font-family:'DejaVu Sans';-inkscape-font-specification:'DejaVu Sans Bold';letter-spacing:0px;word-spacing:0px;fill:#1c4394;fill-opacity:1;stroke:none;stroke-width:1px;stroke-linecap:butt;stroke-linejoin:miter;stroke-opacity:1"
       d="m 207.90258,222.52821 0,-27.74874 14.6046,0 0,4.54365 q 0,3.69172 -0.0406,9.29015 -0.0406,5.55786 -0.0406,7.42401 0,5.47672 0.28398,7.91082 0.28397,2.39353 0.97364,3.48888 0.8925,1.41989 2.31239,2.19069 1.46046,0.7708 3.32661,0.7708 4.54365,0 7.14002,-3.48888 2.59637,-3.48888 2.59637,-9.69583 l 0,-22.43429 14.52347,0 0,45.43653 -14.52347,0 0,-6.57207 q -3.28603,3.9757 -6.97775,5.88241 -3.65115,1.86614 -8.0731,1.86614 -7.87025,0 -12.00822,-4.82763 -4.09741,-4.82763 -4.09741,-14.03664 z" />
    <path
       inkscape:connector-curvature="0"
       id="path4410"
       style="font-style:normal;font-variant:normal;font-weight:bold;font-stretch:normal;font-size:medium;line-height:125%;font-family:'DejaVu Sans';-inkscape-font-specification:'DejaVu Sans Bold';letter-spacing:0px;word-spacing:0px;fill:#1c4394;fill-opacity:1;stroke:none;stroke-width:1px;stroke-linecap:butt;stroke-linejoin:miter;stroke-opacity:1"
       d="m 309.7291,202.32518 q 2.75864,-4.21911 6.5315,-6.4098 3.81342,-2.23126 8.35707,-2.23126 7.82969,0 11.9271,4.82764 4.0974,4.82763 4.0974,14.03664 l 0,27.6676 -14.6046,0 0,-23.6919 q 0.0406,-0.52739 0.0406,-1.09535 0.0406,-0.56795 0.0406,-1.62273 0,-4.82763 -1.41989,-6.97776 -1.4199,-2.19069 -4.58423,-2.19069 -4.13797,0 -6.4098,3.40775 -2.23125,3.40773 -2.31239,9.8581 l 0,22.31258 -14.6046,0 0,-23.6919 q 0,-7.54571 -1.29818,-9.69584 -1.29819,-2.19069 -4.62479,-2.19069 -4.17855,0 -6.45037,3.44831 -2.27183,3.40774 -2.27183,9.77697 l 0,22.35315 -14.6046,0 0,-45.43653 14.6046,0 0,6.65321 q 2.67751,-3.854 6.12582,-5.80128 3.48888,-1.94728 7.66741,-1.94728 4.70593,0 8.31651,2.27183 3.61059,2.27183 5.47673,6.36923 z" />
  </g>
</svg>
