<?xml version="1.0" encoding="UTF-8" standalone="no"?>
<!-- Creator: CorelDRAW -->

<svg
   xmlns:dc="http://purl.org/dc/elements/1.1/"
   xmlns:cc="http://creativecommons.org/ns#"
   xmlns:rdf="http://www.w3.org/1999/02/22-rdf-syntax-ns#"
   xmlns:svg="http://www.w3.org/2000/svg"
   xmlns="http://www.w3.org/2000/svg"
   xmlns:sodipodi="http://sodipodi.sourceforge.net/DTD/sodipodi-0.dtd"
   xmlns:inkscape="http://www.inkscape.org/namespaces/inkscape"
   xml:space="preserve"
   width="425.19684"
   height="375.59055"
   style="fill-rule:evenodd"
   viewBox="0 0 4.7244093 4.1732283"
   id="svg2"
   version="1.1"
   inkscape:version="0.47 r22583"
   sodipodi:docname="Hacker Inside.svg"><title
   id="title3654">&quot;Hacker Inside&quot; parody</title><metadata
   id="metadata42"><rdf:RDF><cc:Work
       rdf:about=""><dc:format>image/svg+xml</dc:format><dc:type
         rdf:resource="http://purl.org/dc/dcmitype/StillImage" /><dc:title>&quot;Hacker Inside&quot; parody</dc:title><dc:date>October 1st, 1997</dc:date><dc:creator><cc:Agent><dc:title>Dagmar d'Surreal</dc:title></cc:Agent></dc:creator><dc:rights><cc:Agent><dc:title></dc:title></cc:Agent></dc:rights><dc:description>A parody of the &quot;InteL Inside&quot; logo from the 90's.</dc:description><cc:license
         rdf:resource="http://creativecommons.org/licenses/by-sa/3.0/" /></cc:Work><cc:License
       rdf:about="http://creativecommons.org/licenses/by-sa/3.0/"><cc:permits
         rdf:resource="http://creativecommons.org/ns#Reproduction" /><cc:permits
         rdf:resource="http://creativecommons.org/ns#Distribution" /><cc:requires
         rdf:resource="http://creativecommons.org/ns#Notice" /><cc:requires
         rdf:resource="http://creativecommons.org/ns#Attribution" /><cc:permits
         rdf:resource="http://creativecommons.org/ns#DerivativeWorks" /><cc:requires
         rdf:resource="http://creativecommons.org/ns#ShareAlike" /></cc:License></rdf:RDF></metadata><sodipodi:namedview
   pagecolor="#ffffff"
   bordercolor="#666666"
   borderopacity="1"
   objecttolerance="10"
   gridtolerance="10"
   guidetolerance="10"
   inkscape:pageopacity="0"
   inkscape:pageshadow="2"
   inkscape:window-width="820"
   inkscape:window-height="958"
   id="namedview40"
   showgrid="false"
   units="mm"
   inkscape:zoom="0.95353535"
   inkscape:cx="57.377134"
   inkscape:cy="36.289369"
   inkscape:window-x="889"
   inkscape:window-y="40"
   inkscape:window-maximized="0"
   inkscape:current-layer="svg2" />
 <defs
   id="defs4"><inkscape:perspective
   sodipodi:type="inkscape:persp3d"
   inkscape:vp_x="0 : 495 : 1"
   inkscape:vp_y="0 : 1000 : 0"
   inkscape:vp_z="765 : 495 : 1"
   inkscape:persp3d-origin="382.5 : 330 : 1"
   id="perspective44" />
  <style
   type="text/css"
   id="style6">
   
    .fil0 {fill:#373435}
   
  </style>
 
  
  
  
  
  
  
  
  
  
  
  
  
  
  
  
  
 </defs>
 <g
   id="g3637"><path
     class="fil0"
     d="m 3.1573852,0.7020548 0,0.367004 c 0.267898,0.031079 0.558126,0.089839 0.80376,0.287843 0.270024,0.217661 0.38311,0.495799 0.409055,0.762783 0.04298,0.442339 -0.1535,0.766256 -0.444941,1.00746 -0.263976,0.218461 -0.545756,0.345638 -0.818102,0.438957 -0.255264,0.087468 -0.526906,0.138087 -0.782232,0.158315 -0.367654,0.029126 -0.804394,-0.038843 -1.27022,-0.273453 -0.229843,-0.11576 -0.454319,-0.302626 -0.602819,-0.568488 -0.0909173,-0.162776 -0.119067,-0.373398 -0.114819,-0.489335 0.003968,-0.108169 0.010937,-0.364787 0.172232,-0.654843 0.161866,-0.291087 0.374374,-0.509858 0.63152,-0.68363 0.243476,-0.164539 0.510728,-0.285433 0.796579,-0.367 0.227256,-0.0779528 0.466476,-0.137921 0.731996,-0.158311 0.239224,-0.028787 0.487992,-0.028779 0.746346,0 0.167449,0.038374 0.337283,0.110343 0.466465,0.187098 0.03348,-0.148717 0.050221,-0.297433 0.064587,-0.446161 -0.375346,-0.092315 -0.775362,-0.090346 -1.16257,-0.057567 -0.383744,0.032488 -0.752752,0.107937 -1.10517,0.251862 -0.355862,0.145335 -0.730201,0.398724 -0.975988,0.64765 -0.245787,0.248921 -0.400953,0.548429 -0.459291,0.805961 -0.05976,0.263783 -0.04952,0.423772 -0.050232,0.654843 -8.031e-4,0.260315 0.178303,0.587827 0.416232,0.813157 0.239984,0.227287 0.483043,0.363236 0.82528,0.482138 0.374866,0.130244 0.912646,0.141642 1.26305,0.064764 0.348823,-0.076531 0.628327,-0.154591 0.904224,-0.323827 0.242142,-0.148531 0.448067,-0.33335 0.609992,-0.525311 0.162567,-0.192713 0.269358,-0.430146 0.301409,-0.640453 0.028807,-0.189012 0.023575,-0.378768 -0.028705,-0.633256 -0.049622,-0.241528 -0.189701,-0.51578 -0.423409,-0.726803 -0.241567,-0.218102 -0.525319,-0.330043 -0.904228,-0.381394 z m 0.204114,0.093024 c -0.017339,0 -0.033724,0.00313 -0.048968,0.00941 -0.015244,0.00628 -0.02885,0.015496 -0.040606,0.027504 -0.011661,0.011661 -0.02063,0.025213 -0.026858,0.040449 -0.00623,0.015252 -0.00936,0.031441 -0.00936,0.04848 0,0.017142 0.00309,0.033284 0.00917,0.048236 0.00613,0.014992 0.015197,0.028339 0.027055,0.04 0.01226,0.012102 0.02611,0.021425 0.041551,0.02785 0.015449,0.00648 0.03148,0.00972 0.048079,0.00972 0.016787,0 0.03278,-0.00319 0.047929,-0.00952 0.01515,-0.00632 0.028748,-0.015591 0.040646,-0.027701 0.012008,-0.011858 0.021181,-0.025449 0.027457,-0.040646 0.00628,-0.015252 0.00942,-0.031244 0.00942,-0.047937 0,-0.016441 -0.00324,-0.03248 -0.00967,-0.047976 -0.00647,-0.015488 -0.015795,-0.029394 -0.027898,-0.041646 -0.011551,-0.011764 -0.024858,-0.020732 -0.039803,-0.026906 -0.015,-0.00618 -0.031039,-0.00931 -0.048079,-0.00931 l -5.51e-5,0 z m -0.00378,0.051315 c -0.020331,0 -0.035417,0.00328 -0.045181,0.00976 -0.00977,0.00653 -0.014701,0.01663 -0.014701,0.030236 0,0.010165 0.00309,0.018732 0.00927,0.025606 0.00618,0.00687 0.014496,0.011063 0.024906,0.012559 l -0.032284,0.066709 0.024913,0 0.030535,-0.063669 0.03378,0 0,0.063669 0.021827,0 0,-0.144874 -0.053063,0 z m 0.00413,0.014724 0.027102,0 0,0.052063 -0.027102,0 c -0.015276,0 -0.026032,-0.00194 -0.032205,-0.00573 -0.00618,-0.00383 -0.00931,-0.010362 -0.00931,-0.01948 0,-0.00952 0.00328,-0.016394 0.00976,-0.020575 0.00652,-0.00418 0.017134,-0.00628 0.031756,-0.00628 z m -0.103984,0.060244 c 0,-0.014142 0.00253,-0.027559 0.0076,-0.040095 0.00507,-0.012528 0.012441,-0.023677 0.021937,-0.033268 0.00996,-0.00981 0.021252,-0.01737 0.033882,-0.022583 0.012622,-0.00526 0.026071,-0.00788 0.040252,-0.00788 0.01374,0 0.026827,0.00254 0.039126,0.00761 0.012315,0.00507 0.023378,0.012535 0.033102,0.022213 0.010032,0.010236 0.017779,0.021709 0.023079,0.034331 0.00535,0.01263 0.00802,0.025764 0.00802,0.039362 0,0.013638 -0.00262,0.026724 -0.00783,0.039165 -0.00525,0.012449 -0.012811,0.023685 -0.022622,0.033591 -0.00995,0.00982 -0.021197,0.017378 -0.033638,0.022591 -0.012496,0.0052 -0.025583,0.00783 -0.039228,0.00783 -0.013724,0 -0.027039,-0.00263 -0.039756,-0.00788 -0.012716,-0.00526 -0.024236,-0.012906 -0.034378,-0.022858 -0.00958,-0.00941 -0.016961,-0.020228 -0.021984,-0.032394 -0.00502,-0.012173 -0.00755,-0.025441 -0.00755,-0.039732 z"
     id="path10"
     style="fill:#0040ff;fill-opacity:1" /><path
     class="fil0"
     d="m 2.9024252,2.5172848 c 0.111425,-0.0033 0.132843,0.00171 0.169626,0.030906 -0.020575,0.094657 -0.0017,0.318016 -0.010642,0.614535 -0.047658,0.039437 -0.068949,0.024106 -0.116575,0.00155 -0.029543,-0.214783 -0.030516,-0.432252 -0.042409,-0.646992 z"
     id="path12"
     style="fill:#0040ff;fill-opacity:1" /><path
     class="fil0"
     d="m 2.9895752,2.2485348 c 0.052465,0.0049 0.100492,0.033709 0.132201,0.072059 -0.021488,0.042323 -0.047043,0.07974 -0.076646,0.112252 -0.045342,-0.020878 -0.095795,-0.047661 -0.130972,-0.085213 0.024937,-0.030842 0.050488,-0.068264 0.075417,-0.099098 z"
     id="path14"
     style="fill:#0040ff;fill-opacity:1" /><path
     class="fil0"
     d="m 1.7104252,2.8606748 c 0.100449,-0.0033 0.138417,-0.00506 0.186185,0.00432 -0.021555,0.157913 -0.026921,0.411185 -0.020614,0.64772 -0.047657,0.039437 -0.101886,-0.00891 -0.149508,-0.031472 -0.012461,-0.223634 -0.00605,-0.404614 -0.016063,-0.620567 z"
     id="path16"
     style="fill:#0040ff;fill-opacity:1" /><path
     class="fil0"
     d="m 1.7850452,2.6187048 c 0.04889,0.00957 0.09135,0.041205 0.117559,0.08028 -0.024213,0.037787 -0.051787,0.070571 -0.082709,0.098358 -0.040681,-0.023921 -0.085614,-0.053882 -0.115161,-0.092532 0.026374,-0.026661 0.053945,-0.059449 0.080311,-0.086106 z"
     id="path18"
     style="fill:#0040ff;fill-opacity:1" /><path
     class="fil0"
     d="m 2.5000752,3.4421048 c -0.024902,-0.152819 -0.084716,-0.455858 -0.09035,-0.682016 -0.021689,-0.030776 -0.02452,-0.025661 -0.091047,-0.058445 -0.017567,0.00661 -0.068732,-0.00372 -0.082921,0.00628 -0.039957,0.045791 -0.068217,0.111421 -0.106858,0.162508 0.00301,-0.05385 0.00364,-0.097638 0.00913,-0.168909 -0.053331,-0.026547 -0.118327,-0.038622 -0.182807,-0.015917 0.00587,0.281705 0.010311,0.392028 0.022819,0.687 0.04763,0.017283 0.098642,0.043992 0.146299,0.010504 0.00161,-0.155583 0.00278,-0.240083 0.00534,-0.327472 0.00991,-0.044295 0.051295,-0.167268 0.096276,-0.213228 0.01098,0.011016 0.015039,0.032189 0.026008,0.043193 0.020335,0.18826 0.064484,0.455516 0.086299,0.529929 0.050516,0.024224 0.111311,0.037587 0.161807,0.026579 z"
     id="path20"
     style="fill:#0040ff;fill-opacity:1" /><path
     class="fil0"
     d="m 3.4221952,2.4148948 c -0.022756,-0.00298 -0.046358,-0.00825 -0.073217,0.00154 -0.033528,0.012224 -0.074555,0.032291 -0.107504,0.072843 -0.032945,0.040543 -0.059764,0.106858 -0.078441,0.168976 -0.024716,0.082161 -0.053709,0.290224 0.00291,0.358354 l 0.029047,0.034961 0.069736,0.040791 c 0.028764,0.016827 0.065685,-0.013831 0.084252,-0.032043 0.028126,-0.027587 0.075658,-0.099913 0.09935,-0.136248 0.0062,0.047984 0.0059,0.097823 0.00923,0.16313 0.029216,0.04124 0.057299,0.03589 0.108843,0.046815 0.031457,-0.01774 0.042291,-0.029594 0.033453,-0.041079 -0.014831,-0.019248 -0.018161,-0.015335 -0.018319,-0.025528 -0.00672,-0.431902 0.00546,-0.763732 0.020307,-0.995996 -0.091413,-0.042972 -0.138,-0.046661 -0.183004,-0.013205 0.00341,0.121134 0.00372,0.240693 0.00336,0.356689 z m -1.063e-4,0.397736 c -0.032386,0.034972 -0.067126,0.069941 -0.099252,0.104925 -0.010646,-9.803e-4 -0.018327,-0.00146 -0.02615,-0.00875 -0.00878,-0.00817 -0.0029,-0.026217 -0.00581,-0.03787 0.00194,-0.046618 9.724e-4,-0.029134 0.0029,-0.075752 0.00291,-0.031083 0.022279,-0.117512 0.040673,-0.148587 0.017437,-0.026197 0.026161,-0.054354 0.043587,-0.096142 0.015504,-0.00389 0.028091,-0.00777 0.043579,-0.011653 1.57e-5,-7.09e-5 2.36e-5,-1.418e-4 3.54e-5,-2.166e-4 -4.567e-4,0.094732 -7.795e-4,0.186465 4.37e-4,0.274043 z"
     id="path22"
     style="fill:#0040ff;fill-opacity:1" /><path
     class="fil0"
     d="m 2.7522952,2.4672548 c 0.050984,-0.018213 0.085909,0.159614 0.066484,0.194488 -0.016205,0.029094 -0.166059,0.091315 -0.165665,0.143732 3.937e-4,0.052413 0.202618,0.125457 0.201768,0.262866 -3.622e-4,0.058378 -0.039028,0.127512 -0.080752,0.18152 -0.041724,0.054004 -0.112496,0.120732 -0.141138,0.12061 -0.021437,-9.06e-5 -0.102929,-0.053657 -0.101248,-0.087949 0.00164,-0.033441 0.171201,-0.189126 0.159799,-0.250508 -0.011402,-0.061386 -0.080193,-0.085201 -0.135528,-0.137488 -0.03235,-0.030571 -0.06063,-0.065724 -0.070008,-0.115106 -0.011929,-0.062803 0.137421,-0.26613 0.266287,-0.312165 z"
     id="path24"
     style="fill:#0040ff;fill-opacity:1" /><path
     class="fil0"
     d="m 4.1332452,2.6753148 c -0.017618,-0.028382 -0.051795,-0.068016 -0.112173,-0.070705 -0.05128,0.056776 -0.095791,0.117551 -0.144217,0.167114 -0.015957,0.016327 -0.046618,0.00357 -0.057689,-0.016071 -0.018878,-0.033496 -0.012811,-0.074992 -0.012819,-0.112476 0.060898,-0.013921 0.121638,-0.040941 0.182681,-0.080339 0.04685,-0.03024 0.086744,-0.066429 0.102555,-0.115697 0.014311,-0.044598 0.015091,-0.093843 0,-0.138189 -0.01565,-0.045992 -0.037138,-0.09061 -0.112169,-0.115689 -0.043752,-0.014622 -0.099272,-0.015693 -0.137811,0.00964 -0.064673,0.042516 -0.099598,0.101252 -0.128197,0.16711 -0.029173,0.067181 -0.054425,0.137024 -0.06089,0.202461 -0.00634,0.064173 -0.00603,0.122098 0.022433,0.183177 0.018075,0.038791 0.061126,0.080469 0.09935,0.099626 0.025638,0.01285 0.055654,0.031083 0.083323,0.038567 0.024874,0.00673 0.068118,0.00644 0.092949,-0.016071 0.086323,-0.078276 0.135492,-0.123736 0.182673,-0.202461 z m -0.314067,-0.128551 c 0.040579,-0.043929 0.079701,-0.070142 0.108969,-0.118909 0.016791,-0.02798 0.029516,-0.059024 0.028839,-0.102827 -2.244e-4,-0.014504 -0.023323,-0.018035 -0.032055,-0.00644 -0.059417,0.078929 -0.08524,0.151488 -0.105752,0.228173 z"
     id="path26"
     style="fill:#0040ff;fill-opacity:1" /><path
     class="fil0"
     d="m 0.7112352,1.6346948 c 0.080736,-0.00915 0.152362,-0.00153 0.214894,0.022854 -0.013787,0.138594 -0.02426,0.276276 -0.033646,0.41235 0,-6.26e-4 -0.00753,0.119012 -0.010791,0.177291 0.037461,-0.049528 0.071409,-0.113161 0.11015,-0.157555 0.017032,-0.00641 0.040441,-0.012811 0.057472,-0.019216 0.070634,0.019512 0.115866,0.060646 0.134114,0.096063 0.021335,0.19213 0.027705,0.384248 0.031933,0.576362 -0.048957,0.010669 -0.091524,0.00428 -0.1405,-0.019209 -0.00887,-0.072142 -0.02385,-0.252945 -0.05748,-0.435472 -0.010638,-0.010673 -0.027669,-0.021346 -0.038311,-0.032028 -0.032476,0.044567 -0.069067,0.084996 -0.103169,0.127929 -0.00248,0.084728 -0.00361,0.183071 -0.00517,0.333913 -0.014134,0.00993 -0.028256,0.014402 -0.042394,0.015339 -0.032551,0.00809 -0.06439,-0.00475 -0.095941,-0.025437 l -2.363e-4,-1.535e-4 c -0.0013,-8.544e-4 -0.0026,-0.00172 -0.00391,-0.0026 -0.00105,-0.063732 -0.00207,-0.126874 -0.00307,-0.189626 -0.00451,-0.155343 -0.00371,-0.259252 -0.00791,-0.460638 -0.00219,-0.140055 -0.00372,-0.280118 -0.00603,-0.420165 z"
     id="path28"
     style="fill:#0040ff;fill-opacity:1" /><path
     class="fil0"
     d="m 1.4960852,2.3597948 c -0.024228,0.00119 -0.051524,0.013102 -0.08148,0.035279 -0.030153,0.022398 -0.044894,0.040445 -0.044252,0.053508 5.197e-4,0.010535 0.00407,0.018177 0.010173,0.022102 0.00612,0.00413 0.016347,0.00595 0.030043,0.00528 0.040035,-0.00198 0.068524,-0.00676 0.085279,-0.013925 0.016957,-0.00738 0.024933,-0.021295 0.023945,-0.041311 -5.51e-5,-0.00106 -5.787e-4,-0.00314 -0.00113,-0.00586 -5.669e-4,-0.00293 -0.00115,-0.00607 -0.0013,-0.00923 8.071e-4,-0.00511 0.00125,-0.00893 0.00115,-0.011043 -6.418e-4,-0.013063 -0.0028,-0.022461 -0.00622,-0.027575 -0.00342,-0.00511 -0.00904,-0.00758 -0.016201,-0.00722 z m 0.043268,0.219244 c -0.02687,0.011886 -0.050012,0.020823 -0.069587,0.026437 -0.019579,0.00561 -0.036524,0.00898 -0.05085,0.00969 -0.039614,0.00196 -0.076811,-0.015642 -0.111173,-0.052811 -0.034575,-0.037161 -0.052764,-0.071961 -0.054347,-0.103988 -0.0015,-0.030551 0.00142,-0.056886 0.00838,-0.078563 0.00696,-0.021677 0.019106,-0.040866 0.035634,-0.05689 0.024161,-0.024004 0.053508,-0.045728 0.088055,-0.064752 0.034547,-0.019024 0.059606,-0.02913 0.074776,-0.029882 0.00632,-3.11e-4 0.013075,-4.331e-4 0.020051,-3.544e-4 0.00718,6.7e-5 0.011417,2.835e-4 0.012472,2.323e-4 0.00716,-3.543e-4 0.012315,-0.00293 0.014638,-0.00727 0.00231,-0.00455 0.00338,-0.012839 0.00281,-0.024429 -4.685e-4,-0.00948 -0.00176,-0.022937 -0.00345,-0.039961 -0.0019,-0.017016 -0.00315,-0.02963 -0.00355,-0.037634 -2.795e-4,-0.00569 -1.063e-4,-0.014992 1.142e-4,-0.027677 4.291e-4,-0.012693 5.629e-4,-0.022839 2.283e-4,-0.029583 -5.394e-4,-0.010957 -0.00268,-0.020146 -0.00596,-0.02674 -0.00349,-0.00659 -0.00746,-0.00998 -0.011677,-0.00978 -0.00885,4.37e-4 -0.024591,0.019591 -0.046394,0.057205 -0.014606,0.025012 -0.027327,0.045496 -0.037555,0.060783 -0.00665,0.01089 -0.014417,0.024583 -0.022488,0.040823 -0.011532,0.023169 -0.023402,0.035157 -0.035622,0.035764 -0.014118,6.968e-4 -0.033394,-0.00469 -0.057386,-0.01576 -0.024201,-0.011055 -0.036665,-0.023957 -0.037374,-0.038287 -5.197e-4,-0.010535 0.00821,-0.039059 0.025996,-0.085346 0.017772,-0.046504 0.034642,-0.081342 0.050406,-0.104299 l 0.0089,-0.012264 c 0.042433,-0.060394 0.075134,-0.091153 0.09789,-0.092276 0.00674,-3.347e-4 0.022898,0.00605 0.047815,0.018764 0.024917,0.012709 0.050807,0.023685 0.077,0.032319 0.034358,0.011402 0.059472,0.032339 0.074886,0.062209 0.015413,0.029866 0.025221,0.083031 0.028961,0.158886 0.00106,0.021492 0.00181,0.053776 0.00243,0.096409 4.134e-4,0.042646 0.00114,0.074504 0.00218,0.095575 4.685e-4,0.00948 0.00141,0.024224 0.00278,0.043587 0.00138,0.019366 0.00255,0.034516 0.00307,0.045051 4.567e-4,0.00927 0.0011,0.026559 0.00191,0.051445 8.031e-4,0.024882 0.00138,0.045134 0.00213,0.060303 7.244e-4,0.014748 0.0019,0.029902 0.00307,0.045051 5.984e-4,0.00356 9.331e-4,0.00608 9.843e-4,0.00713 5.945e-4,0.012008 -0.00317,0.021488 -0.010858,0.028205 -0.0077,0.00672 -0.019551,0.010468 -0.03472,0.011217 -0.022126,0.00109 -0.040445,-0.00202 -0.054736,-0.00913 -0.014291,-0.00711 -0.027831,-0.020386 -0.039744,-0.039228 l -8.66e-5,-1.89e-4 z"
     id="path30"
     style="fill:#0040ff;fill-opacity:1" /><path
     class="fil0"
     d="m 3.5636052,1.3761048 c -0.049256,0.053028 -0.107744,0.104083 -0.155787,0.113657 -0.00869,-0.011177 -0.012823,-0.029067 -0.02252,-0.038799 -0.04361,0.044563 -0.083736,0.163787 -0.093342,0.206728 -0.00248,0.084728 -0.00361,0.166654 -0.00518,0.317492 -0.046205,0.032472 -0.095665,0.00658 -0.141843,-0.010181 -0.01213,-0.285984 -0.016429,-0.392941 -0.022122,-0.666063 0.062512,-0.022016 0.125528,-0.010303 0.177236,0.015433 -0.00533,0.069098 -0.00594,0.111551 -0.00886,0.16376 0.037465,-0.049528 0.064862,-0.113161 0.103602,-0.157555 0.013756,-0.00969 0.063362,3.228e-4 0.080394,-0.00608 0.0645,0.031783 0.067248,0.026823 0.088272,0.056661 4.33e-5,0.00164 7.48e-5,0.0033 1.456e-4,0.00495 z"
     id="path32"
     style="fill:#0040ff;fill-opacity:1" /><path
     class="fil0"
     d="m 1.8647452,2.1910748 c -0.00218,0.033886 -0.00551,0.075043 0.012433,0.106882 0.010732,0.019043 0.040457,0.031409 0.055929,0.015579 0.046949,-0.048051 0.090106,-0.106976 0.139823,-0.16202 0.058535,0.00261 0.091673,0.041031 0.108756,0.068551 -0.045744,0.076323 -0.093417,0.120398 -0.17711,0.196291 -0.024071,0.021827 -0.066,0.022102 -0.090114,0.015579 -0.026827,-0.00726 -0.055929,-0.024933 -0.080783,-0.03739 -0.037059,-0.018575 -0.078799,-0.058984 -0.096323,-0.096591 -0.027598,-0.05922 -0.027898,-0.115378 -0.021752,-0.177594 0.00627,-0.063445 0.030752,-0.131157 0.059035,-0.196291 0.027728,-0.06385 0.061587,-0.120799 0.124287,-0.162016 0.03737,-0.024567 0.091197,-0.023528 0.133614,-0.00935 0.072748,0.024315 0.093579,0.067571 0.108752,0.112165 0.01463,0.042992 0.013874,0.090736 0,0.133976 -0.00734,0.022862 -0.014098,0.036886 -0.030319,0.054701 -0.055583,-0.00219 -0.081366,-0.061831 -0.112106,-0.105303 0.00763,-0.026 0.012347,-0.042035 0.011925,-0.067791 -2.165e-4,-0.014063 -0.02261,-0.017488 -0.031075,-0.00624 -0.057606,0.076528 -0.095768,0.188343 -0.102531,0.22122 -0.00676,0.032882 -0.01026,0.061764 -0.012441,0.095646 z"
     id="path34"
     style="fill:#0040ff;fill-opacity:1" /><path
     class="fil0"
     d="m 2.4595652,1.8655448 c 0.040516,0.016004 0.121854,0.0475 0.144732,0.072776 0.024547,0.027118 0.050441,0.213811 0.078189,0.293189 0.00484,0.013839 0.00461,0.027512 0.00315,0.041693 -0.03376,0.00458 -0.107945,0.020331 -0.136457,0.011579 -0.00311,-0.017724 -0.021122,-0.01302 -0.021933,-0.03137 -0.00347,-0.078567 -0.025362,-0.185724 -0.056579,-0.262516 -0.020988,-0.018276 -0.041823,-0.030193 -0.081716,-0.042165 -0.00248,0.084724 -0.00474,0.181941 -0.0063,0.332772 -0.014134,0.00994 -0.028256,0.014402 -0.042394,0.015343 -0.032551,0.00809 -0.06439,-0.00475 -0.095941,-0.025437 -7.88e-5,-2.76e-5 -1.575e-4,-5.51e-5 -2.363e-4,-8.66e-5 0,-2.36e-5 0,-4.33e-5 0,-7.09e-5 -0.0013,-8.504e-4 -0.0026,-0.00172 -0.00391,-0.0026 -0.00105,-0.063736 -0.00207,-0.126874 -0.00307,-0.189626 -0.00451,-0.155346 -0.00416,-0.259248 -0.00791,-0.460642 -0.00142,-0.138898 -0.00373,-0.280394 -0.00603,-0.420165 0.080732,-0.00915 0.152362,-0.00153 0.214894,0.022858 -0.013787,0.138591 -0.02426,0.276272 -0.033646,0.41235 -0.00456,0.059095 -0.00749,0.11813 -0.010795,0.177291 0.021098,-0.027894 0.118091,-0.192181 0.146374,-0.202819 0.040791,0.00218 0.094685,0.037685 0.104803,0.065756 -0.065874,0.08802 -0.118079,0.127213 -0.185224,0.19189 z"
     id="path36"
     style="fill:#0040ff;fill-opacity:1" /><path
     class="fil0"
     d="m 2.8464752,1.8228948 c 0.068449,-0.030425 0.127335,-0.061465 0.191449,-0.108567 0.034839,-0.053032 0.04924,-0.127102 0.044854,-0.184531 -0.01876,-0.058189 -0.055244,-0.094228 -0.108571,-0.10574 -0.041713,-0.009 -0.083469,-0.015661 -0.116594,0.00194 -0.060571,0.032197 -0.105161,0.075532 -0.13248,0.135819 -0.028449,0.062795 -0.036264,0.133894 -0.038319,0.204925 -0.00228,0.078953 -0.00481,0.160445 0.019161,0.236949 0.00767,0.024492 0.02915,0.04685 0.049453,0.062555 0.037551,0.029051 0.098138,0.048772 0.119709,0.050929 0.042193,0.00422 0.179709,-0.082161 0.226795,-0.203138 -0.016827,-0.036543 -0.048768,-0.05576 -0.083024,-0.070449 -0.027087,0.010591 -0.086378,0.07498 -0.113717,0.104713 -0.010535,0.011461 -0.029559,0.022799 -0.038075,0.023138 -0.015335,6.181e-4 -0.010835,-0.00477 -0.023606,-0.013307 -0.010441,-0.047945 -0.012721,-0.100425 0.00296,-0.13524 z m 3.9e-6,-0.088169 c 0.037248,-0.028819 0.074886,-0.050681 0.099055,-0.092638 0.017925,-0.044512 0.029228,-0.110823 0.00951,-0.118701 -0.021319,-0.00852 -0.056642,0.029394 -0.073512,0.070303 -0.017409,0.040181 -0.026374,0.092106 -0.035055,0.141035 z"
     id="path38"
     style="fill:#0040ff;fill-opacity:1" /></g>
</svg>