<?xml version="1.0" encoding="UTF-8" standalone="no"?>
<!-- Created with Inkscape (http://www.inkscape.org/) -->

<svg
   xmlns:dc="http://purl.org/dc/elements/1.1/"
   xmlns:cc="http://creativecommons.org/ns#"
   xmlns:rdf="http://www.w3.org/1999/02/22-rdf-syntax-ns#"
   xmlns:svg="http://www.w3.org/2000/svg"
   xmlns="http://www.w3.org/2000/svg"
   xmlns:sodipodi="http://sodipodi.sourceforge.net/DTD/sodipodi-0.dtd"
   xmlns:inkscape="http://www.inkscape.org/namespaces/inkscape"
   width="105mm"
   height="74mm"
   viewBox="0 0 105 74"
   version="1.1"
   id="svg8"
   inkscape:export-filename="/home/towa/Desktop/netthier2.png"
   inkscape:export-xdpi="192.216"
   inkscape:export-ydpi="192.216"
   inkscape:version="0.92.1 r15371"
   sodipodi:docname="nett_hier.svg">
  <defs
     id="defs2" />
  <sodipodi:namedview
     id="base"
     pagecolor="#ffffff"
     bordercolor="#666666"
     borderopacity="1.0"
     inkscape:pageopacity="0.0"
     inkscape:pageshadow="2"
     inkscape:zoom="1.979899"
     inkscape:cx="187.53021"
     inkscape:cy="169.20944"
     inkscape:document-units="mm"
     inkscape:current-layer="layer1"
     showgrid="false"
     inkscape:window-width="1600"
     inkscape:window-height="880"
     inkscape:window-x="0"
     inkscape:window-y="20"
     inkscape:window-maximized="0" />
  <metadata
     id="metadata5">
    <rdf:RDF>
      <cc:Work
         rdf:about="">
        <dc:format>image/svg+xml</dc:format>
        <dc:type
           rdf:resource="http://purl.org/dc/dcmitype/StillImage" />
        <dc:title />
      </cc:Work>
    </rdf:RDF>
  </metadata>
  <g
     inkscape:groupmode="layer"
     id="layer2"
     inkscape:label="bg">
    <rect
       style="opacity:1;fill:#faf7db;fill-opacity:1;stroke:none;stroke-width:4;stroke-linecap:butt;stroke-linejoin:miter;stroke-miterlimit:4;stroke-dasharray:none;stroke-opacity:1;paint-order:normal"
       id="rect5373"
       width="105.00001"
       height="74"
       x="0"
       y="3.0000001e-07" />
  </g>
  <g
     inkscape:label="Layer 1"
     inkscape:groupmode="layer"
     id="layer1"
     transform="translate(0,-223)">
    <flowRoot
       xml:space="preserve"
       id="flowRoot4485"
       style="font-style:normal;font-variant:normal;font-weight:normal;font-stretch:normal;font-size:64px;line-height:25px;font-family:Utopia;-inkscape-font-specification:'Utopia, Normal';font-variant-ligatures:normal;font-variant-caps:normal;font-variant-numeric:normal;font-feature-settings:normal;text-align:start;letter-spacing:0px;word-spacing:0px;writing-mode:lr-tb;text-anchor:start;fill:#000000;fill-opacity:0.98706863;stroke:none;stroke-width:1px;stroke-linecap:butt;stroke-linejoin:miter;stroke-opacity:1"
       transform="matrix(0.26458333,0,0,0.26458333,-20.914805,217.56393)"><flowRegion
         id="flowRegion4487"
         style="font-style:normal;font-variant:normal;font-weight:normal;font-stretch:normal;font-size:64px;font-family:Utopia;-inkscape-font-specification:'Utopia, Normal';font-variant-ligatures:normal;font-variant-caps:normal;font-variant-numeric:normal;font-feature-settings:normal;text-align:start;writing-mode:lr-tb;text-anchor:start;fill:#000000;fill-opacity:0.98706863"><rect
           id="rect4489"
           width="336.88593"
           height="103.54063"
           x="141.92644"
           y="95.837265"
           style="font-style:normal;font-variant:normal;font-weight:normal;font-stretch:normal;font-size:64px;font-family:Utopia;-inkscape-font-specification:'Utopia, Normal';font-variant-ligatures:normal;font-variant-caps:normal;font-variant-numeric:normal;font-feature-settings:normal;text-align:start;writing-mode:lr-tb;text-anchor:start;fill:#000000;fill-opacity:0.98706863" /></flowRegion><flowPara
         id="flowPara4491"
         style="font-style:normal;font-variant:normal;font-weight:normal;font-stretch:normal;font-size:64px;font-family:Utopia;-inkscape-font-specification:'Utopia, Normal';font-variant-ligatures:normal;font-variant-caps:normal;font-variant-numeric:normal;font-feature-settings:normal;text-align:start;writing-mode:lr-tb;text-anchor:start;fill:#000000;fill-opacity:0.98706863">Nett hier.</flowPara></flowRoot>    <text
       xml:space="preserve"
       style="font-style:normal;font-variant:normal;font-weight:normal;font-stretch:normal;font-size:4.23333311px;line-height:6.61458302px;font-family:Utopia;-inkscape-font-specification:'Utopia, Normal';font-variant-ligatures:normal;font-variant-caps:normal;font-variant-numeric:normal;font-feature-settings:normal;text-align:start;letter-spacing:0px;word-spacing:0px;writing-mode:lr-tb;text-anchor:start;fill:#000000;fill-opacity:1;stroke:none;stroke-width:0.26458332px;stroke-linecap:butt;stroke-linejoin:miter;stroke-opacity:1"
       x="8.4181042"
       y="259.08218"
       id="text4495"><tspan
         sodipodi:role="line"
         id="tspan4493"
         x="8.4181042"
         y="259.08218"
         style="font-style:normal;font-variant:normal;font-weight:normal;font-stretch:normal;font-size:4.23333311px;font-family:Utopia;-inkscape-font-specification:'Utopia, Normal';font-variant-ligatures:normal;font-variant-caps:normal;font-variant-numeric:normal;font-feature-settings:normal;text-align:start;writing-mode:lr-tb;text-anchor:start;stroke-width:0.26458332px">Aber waren Sie schon mal im Maschinendeck?</tspan></text>
    <g
       transform="matrix(0.05644445,0,0,0.05644445,40.082222,258.87122)"
       id="g5244"
       style="stroke-width:5">
      <path
         d="m 251.87,286.88498 -29.4525,81.835 h -4.84375 l -27.69625,-82.22625 -13.37875,80.66375 h -19.96 l 19.765,-122.265 H 191.03 l 30.60625,81.83625 29.2575,-81.83625 H 265.815 l 17.6375,122.265 h -19.96125 z"
         style="fill:#000000;fill-opacity:1;fill-rule:nonzero;stroke:none;stroke-width:5"
         id="path68"
         inkscape:connector-curvature="0" />
      <g
         style="fill:#000000;stroke-width:5"
         id="g3643">
        <path
           inkscape:connector-curvature="0"
           id="path3610"
           d="m 220,171.73828 a 2.5002502,2.5002502 0 0 0 -2.5,2.5 v 13.23633 a 2.5002502,2.5002502 0 0 0 2.5,2.5 c 8.13277,0 16.07577,0.81975 23.74609,2.37305 7.66395,1.55457 15.06658,3.84874 22.10938,6.79882 0.88108,0.36942 1.75517,0.74895 2.625,1.13868 0.86987,0.38975 1.73542,0.78943 2.59375,1.19922 0.85835,0.40979 1.71006,0.83016 2.55664,1.25976 0.84657,0.4296 1.68697,0.86922 2.52148,1.31836 0.83453,0.44915 1.66221,0.90657 2.48438,1.375 a 2.5002502,2.5002502 0 1 0 2.47656,-4.34375 c -0.85711,-0.48833 -1.72186,-0.96734 -2.5918,-1.43555 -0.86993,-0.4682 -1.74643,-0.92522 -2.6289,-1.37304 -0.88248,-0.44782 -1.76935,-0.88534 -2.66406,-1.3125 -0.89474,-0.42717 -1.79648,-0.84378 -2.70313,-1.25 -0.90667,-0.40624 -1.81998,-0.80248 -2.73828,-1.1875 -7.3422,-3.0755 -15.05832,-5.46747 -23.04688,-7.08789 -7.1978,-1.45773 -14.65006,-2.19545 -22.24023,-2.34766 v -8.23633 c 8.17563,0.15267 16.19331,0.94333 23.93555,2.51563 a 2.5002502,2.5002502 0 0 0 0.002,0 c 8.53884,1.73043 16.775,4.28329 24.62305,7.57031 7.84372,3.28674 15.29858,7.30763 22.27929,11.97851 6.97807,4.67294 13.47689,9.98799 19.41407,15.86719 5.93064,5.87904 11.30149,12.31917 16.00976,19.23047 a 2.5002502,2.5002502 0 0 0 0.002,0.002 c 4.71416,6.90787 8.77462,14.29409 12.08985,22.0625 a 2.5004674,2.5004674 0 0 0 4.59961,-1.96289 c -3.44442,-8.07113 -7.66339,-15.74254 -12.5586,-22.91601 l -0.002,-0.002 C 328.00369,224.03 322.42887,217.3438 316.27344,211.24219 a 2.5002502,2.5002502 0 0 0 -0.002,0 c -6.16281,-6.10264 -12.9065,-11.61912 -20.14843,-16.46875 a 2.5002502,2.5002502 0 0 0 -0.002,0 c -7.24638,-4.84878 -14.98565,-9.02329 -23.1289,-12.43555 -8.14638,-3.41196 -16.69756,-6.06312 -25.56055,-7.85937 h -0.002 C 238.56574,172.67856 229.39001,171.73828 220,171.73828 Z"
           style="color:#000000;font-style:normal;font-variant:normal;font-weight:normal;font-stretch:normal;font-size:medium;line-height:normal;font-family:sans-serif;text-indent:0;text-align:start;text-decoration:none;text-decoration-line:none;text-decoration-style:solid;text-decoration-color:#000000;letter-spacing:normal;word-spacing:normal;text-transform:none;writing-mode:lr-tb;direction:ltr;baseline-shift:baseline;text-anchor:start;white-space:normal;clip-rule:nonzero;display:inline;overflow:visible;visibility:visible;opacity:1;isolation:auto;mix-blend-mode:normal;color-interpolation:sRGB;color-interpolation-filters:linearRGB;solid-color:#000000;solid-opacity:1;fill:#000000;fill-opacity:1;fill-rule:nonzero;stroke:none;stroke-width:25.00000191;stroke-linecap:round;stroke-linejoin:round;stroke-miterlimit:4;stroke-dasharray:none;stroke-dashoffset:0;stroke-opacity:1;color-rendering:auto;image-rendering:auto;shape-rendering:auto;text-rendering:auto;enable-background:accumulate" />
        <g
           style="fill:#000000;stroke-width:5"
           transform="matrix(1.25,0,0,1.25,-343.95,-1301.2356)"
           id="g78">
          <path
             inkscape:connector-curvature="0"
             id="path80"
             d="m 503.08594,1200.3164 c -3.25119,0 -5.92969,2.6785 -5.92969,5.9297 0,3.2492 2.67604,5.9297 5.92969,5.9297 3.25164,0 5.92969,-2.6781 5.92968,-5.9297 0,-3.2537 -2.6805,-5.9297 -5.92968,-5.9297 z m 0,4 c 1.08682,0 1.92969,0.8393 1.92968,1.9297 0,1.0844 -0.84532,1.9297 -1.92968,1.9297 -1.09036,0 -1.92969,-0.8429 -1.92969,-1.9297 0,-1.0928 0.83688,-1.9297 1.92969,-1.9297 z"
             style="color:#000000;font-style:normal;font-variant:normal;font-weight:normal;font-stretch:normal;font-size:medium;line-height:normal;font-family:sans-serif;text-indent:0;text-align:start;text-decoration:none;text-decoration-line:none;text-decoration-style:solid;text-decoration-color:#000000;letter-spacing:normal;word-spacing:normal;text-transform:none;writing-mode:lr-tb;direction:ltr;baseline-shift:baseline;text-anchor:start;white-space:normal;clip-rule:nonzero;display:inline;overflow:visible;visibility:visible;opacity:1;isolation:auto;mix-blend-mode:normal;color-interpolation:sRGB;color-interpolation-filters:linearRGB;solid-color:#000000;solid-opacity:1;fill:#000000;fill-opacity:1;fill-rule:nonzero;stroke:none;stroke-width:20;stroke-linecap:round;stroke-linejoin:round;stroke-miterlimit:4;stroke-dasharray:none;stroke-dashoffset:0;stroke-opacity:1;color-rendering:auto;image-rendering:auto;shape-rendering:auto;text-rendering:auto;enable-background:accumulate" />
        </g>
      </g>
      <g
         style="fill:#000000;stroke-width:5"
         id="g3636">
        <path
           inkscape:connector-curvature="0"
           id="path3604"
           d="m 220,198.21875 c -1.88755,0 -3.76446,0.0468 -5.62891,0.14063 -1.86444,0.0938 -3.71573,0.23277 -5.55468,0.41796 -1.83896,0.18521 -3.66542,0.41721 -5.47657,0.69141 -0.4526,0.0685 -0.90411,0.13875 -1.35546,0.21289 a 2.5002502,2.5002502 0 1 0 0.81054,4.93359 c 0.43015,-0.0707 0.8605,-0.13764 1.29297,-0.20312 1.72916,-0.26178 3.47247,-0.48135 5.22852,-0.6582 1.75604,-0.17685 3.52576,-0.31081 5.30664,-0.40039 1.78087,-0.0896 3.57326,-0.13477 5.37695,-0.13477 7.21477,0 14.25522,0.72591 21.05078,2.10352 6.80195,1.37886 13.35748,3.40743 19.60352,6.02539 6.24741,2.61854 12.18642,5.81957 17.74023,9.53906 5.55541,3.71854 10.72879,7.9545 15.45508,12.63281 4.72701,4.68278 8.99991,9.8089 12.75195,15.31055 3.75208,5.5029 6.98465,11.38023 9.625,17.5664 a 2.5002502,2.5002502 0 0 0 3.26367,1.32422 l 12.31446,-5.15625 a 2.5002502,2.5002502 0 0 0 1.33398,-3.28711 c -3.10704,-7.27509 -6.9104,-14.19548 -11.32226,-20.66601 -2.20844,-3.23837 -4.56926,-6.36329 -7.07227,-9.36719 -0.31287,-0.37548 -0.62799,-0.74942 -0.94531,-1.12109 -0.31729,-0.37164 -0.6353,-0.74155 -0.95703,-1.10938 -0.3217,-0.36778 -0.64656,-0.73372 -0.97266,-1.09765 a 2.5007114,2.5007114 0 0 0 -3.72461,3.33789 c 0.31274,0.34902 0.62499,0.69991 0.93359,1.05273 0.30855,0.35275 0.6136,0.706 0.91797,1.0625 0.30435,0.35647 0.60812,0.71603 0.90821,1.07617 2.40073,2.88116 4.66344,5.8789 6.78125,8.98438 3.76016,5.51474 6.97587,11.41339 9.7539,17.54297 l -7.70312,3.22461 c -2.57085,-5.65507 -5.5349,-11.09585 -9.00391,-16.1836 -3.93295,-5.76691 -8.41029,-11.14023 -13.36328,-16.04687 -4.95093,-4.90081 -10.37167,-9.33761 -16.19336,-13.23438 -5.82119,-3.89855 -12.0428,-7.25278 -18.58789,-9.99609 -6.54646,-2.74388 -13.41742,-4.87 -20.54297,-6.31445 -7.11944,-1.44326 -14.49469,-2.20313 -22.04492,-2.20313 z"
           style="color:#000000;font-style:normal;font-variant:normal;font-weight:normal;font-stretch:normal;font-size:medium;line-height:normal;font-family:sans-serif;text-indent:0;text-align:start;text-decoration:none;text-decoration-line:none;text-decoration-style:solid;text-decoration-color:#000000;letter-spacing:normal;word-spacing:normal;text-transform:none;writing-mode:lr-tb;direction:ltr;baseline-shift:baseline;text-anchor:start;white-space:normal;clip-rule:nonzero;display:inline;overflow:visible;visibility:visible;opacity:1;isolation:auto;mix-blend-mode:normal;color-interpolation:sRGB;color-interpolation-filters:linearRGB;solid-color:#000000;solid-opacity:1;fill:#000000;fill-opacity:1;fill-rule:nonzero;stroke:none;stroke-width:25.00000191;stroke-linecap:round;stroke-linejoin:round;stroke-miterlimit:4;stroke-dasharray:none;stroke-dashoffset:0;stroke-opacity:1;color-rendering:auto;image-rendering:auto;shape-rendering:auto;text-rendering:auto;enable-background:accumulate" />
        <g
           style="fill:#000000;stroke-width:5"
           transform="matrix(1.25,0,0,1.25,-343.95,-1301.2356)"
           id="g82">
          <path
             inkscape:connector-curvature="0"
             id="path84"
             d="m 519.51562,1214.2461 c -3.25118,0 -5.92968,2.6785 -5.92968,5.9297 0,3.2492 2.6785,5.9258 5.92968,5.9258 3.24919,0 5.92579,-2.6773 5.92579,-5.9258 0,-3.2506 -2.6766,-5.9297 -5.92579,-5.9297 z m 0,4 c 1.08682,0 1.92579,0.8363 1.92579,1.9297 0,1.0874 -0.83897,1.9258 -1.92579,1.9258 -1.09281,0 -1.92968,-0.839 -1.92968,-1.9258 0,-1.0928 0.83687,-1.9297 1.92968,-1.9297 z"
             style="color:#000000;font-style:normal;font-variant:normal;font-weight:normal;font-stretch:normal;font-size:medium;line-height:normal;font-family:sans-serif;text-indent:0;text-align:start;text-decoration:none;text-decoration-line:none;text-decoration-style:solid;text-decoration-color:#000000;letter-spacing:normal;word-spacing:normal;text-transform:none;writing-mode:lr-tb;direction:ltr;baseline-shift:baseline;text-anchor:start;white-space:normal;clip-rule:nonzero;display:inline;overflow:visible;visibility:visible;opacity:1;isolation:auto;mix-blend-mode:normal;color-interpolation:sRGB;color-interpolation-filters:linearRGB;solid-color:#000000;solid-opacity:1;fill:#000000;fill-opacity:1;fill-rule:nonzero;stroke:none;stroke-width:20;stroke-linecap:round;stroke-linejoin:round;stroke-miterlimit:4;stroke-dasharray:none;stroke-dashoffset:0;stroke-opacity:1;color-rendering:auto;image-rendering:auto;shape-rendering:auto;text-rendering:auto;enable-background:accumulate" />
        </g>
        <g
           style="fill:#000000;stroke-width:5"
           transform="matrix(1.25,0,0,1.25,-343.95,-1301.2356)"
           id="g86">
          <path
             inkscape:connector-curvature="0"
             id="path88"
             d="m 432.72656,1198.1758 c -3.24918,0 -5.92578,2.6766 -5.92578,5.9258 0,3.2506 2.6766,5.9296 5.92578,5.9296 3.25069,0 5.92969,-2.679 5.92969,-5.9296 0,-3.2492 -2.679,-5.9258 -5.92969,-5.9258 z m 0,4 c 1.09132,0 1.92969,0.8389 1.92969,1.9258 0,1.0913 -0.83837,1.9296 -1.92969,1.9296 -1.08682,0 -1.92578,-0.8383 -1.92578,-1.9296 0,-1.0869 0.83896,-1.9258 1.92578,-1.9258 z"
             style="color:#000000;font-style:normal;font-variant:normal;font-weight:normal;font-stretch:normal;font-size:medium;line-height:normal;font-family:sans-serif;text-indent:0;text-align:start;text-decoration:none;text-decoration-line:none;text-decoration-style:solid;text-decoration-color:#000000;letter-spacing:normal;word-spacing:normal;text-transform:none;writing-mode:lr-tb;direction:ltr;baseline-shift:baseline;text-anchor:start;white-space:normal;clip-rule:nonzero;display:inline;overflow:visible;visibility:visible;opacity:1;isolation:auto;mix-blend-mode:normal;color-interpolation:sRGB;color-interpolation-filters:linearRGB;solid-color:#000000;solid-opacity:1;fill:#000000;fill-opacity:1;fill-rule:nonzero;stroke:none;stroke-width:20;stroke-linecap:round;stroke-linejoin:round;stroke-miterlimit:4;stroke-dasharray:none;stroke-dashoffset:0;stroke-opacity:1;color-rendering:auto;image-rendering:auto;shape-rendering:auto;text-rendering:auto;enable-background:accumulate" />
        </g>
      </g>
      <g
         style="fill:#000000;stroke:#00ff00;stroke-width:5"
         id="g3624">
        <path
           inkscape:connector-curvature="0"
           id="path76"
           d="m 157.16016,218.48633 a 2.5002502,2.5002502 0 0 0 -1.56836,0.49414 c -0.35435,0.25602 -0.70742,0.51327 -1.0586,0.77344 -1.40456,1.04052 -2.78157,2.11417 -4.13281,3.21875 -2.70247,2.20912 -5.29595,4.54307 -7.76953,6.99414 -4.95158,4.90651 -9.43033,10.27996 -13.36328,16.04687 -3.93987,5.76925 -7.3222,11.93182 -10.0957,18.41797 a 2.5002502,2.5002502 0 0 0 -0.002,0.002 c -2.76951,6.48878 -4.91987,13.29914 -6.3789,20.35743 a 2.5002502,2.5002502 0 0 0 0,0.002 c -1.45505,7.06391 -2.22071,14.37337 -2.22071,21.85351 0,7.48498 0.76563,14.79271 2.22071,21.85547 a 2.5005148,2.5005148 0 1 0 4.89843,-1.00781 c -1.38742,-6.73442 -2.11914,-13.70332 -2.11914,-20.84766 0,-7.13927 0.73169,-14.108 2.11914,-20.84375 l -0.002,0.002 c 1.39084,-6.72837 3.44189,-13.22026 6.08203,-19.40625 v -0.002 c 2.64601,-6.1877 5.87225,-12.06377 9.62891,-17.56445 a 2.5002502,2.5002502 0 0 0 0,-0.002 c 3.75204,-5.50165 8.02603,-10.62765 12.75195,-15.31055 2.36018,-2.33869 4.83468,-4.56727 7.41406,-6.67578 1.2897,-1.05426 2.60464,-2.07907 3.94532,-3.07227 0.33512,-0.24827 0.67149,-0.49388 1.00976,-0.73828 a 2.5002502,2.5002502 0 0 0 -1.35937,-4.54687 z"
           style="color:#000000;font-style:normal;font-variant:normal;font-weight:normal;font-stretch:normal;font-size:medium;line-height:normal;font-family:sans-serif;text-indent:0;text-align:start;text-decoration:none;text-decoration-line:none;text-decoration-style:solid;text-decoration-color:#000000;letter-spacing:normal;word-spacing:normal;text-transform:none;writing-mode:lr-tb;direction:ltr;baseline-shift:baseline;text-anchor:start;white-space:normal;clip-rule:nonzero;display:inline;overflow:visible;visibility:visible;opacity:1;isolation:auto;mix-blend-mode:normal;color-interpolation:sRGB;color-interpolation-filters:linearRGB;solid-color:#000000;solid-opacity:1;fill:#000000;fill-opacity:1;fill-rule:nonzero;stroke:none;stroke-width:25.00000191;stroke-linecap:round;stroke-linejoin:round;stroke-miterlimit:4;stroke-dasharray:none;stroke-dashoffset:0;stroke-opacity:1;color-rendering:auto;image-rendering:auto;shape-rendering:auto;text-rendering:auto;enable-background:accumulate" />
        <g
           style="fill:#000000;stroke:#00ff00;stroke-width:5"
           transform="matrix(1.25,0,0,1.25,-343.95,-1301.2356)"
           id="g90">
          <path
             inkscape:connector-curvature="0"
             id="path92"
             d="m 404.51562,1209.2461 c -3.25118,0 -5.92968,2.6785 -5.92968,5.9297 0,3.2492 2.6785,5.9258 5.92968,5.9258 3.24919,0 5.92579,-2.6773 5.92579,-5.9258 0,-3.2506 -2.6766,-5.9297 -5.92579,-5.9297 z m 0,4 c 1.08682,0 1.92579,0.8363 1.92579,1.9297 0,1.0874 -0.83897,1.9258 -1.92579,1.9258 -1.09281,0 -1.92968,-0.839 -1.92968,-1.9258 0,-1.0928 0.83687,-1.9297 1.92968,-1.9297 z"
             style="color:#000000;font-style:normal;font-variant:normal;font-weight:normal;font-stretch:normal;font-size:medium;line-height:normal;font-family:sans-serif;text-indent:0;text-align:start;text-decoration:none;text-decoration-line:none;text-decoration-style:solid;text-decoration-color:#000000;letter-spacing:normal;word-spacing:normal;text-transform:none;writing-mode:lr-tb;direction:ltr;baseline-shift:baseline;text-anchor:start;white-space:normal;clip-rule:nonzero;display:inline;overflow:visible;visibility:visible;opacity:1;isolation:auto;mix-blend-mode:normal;color-interpolation:sRGB;color-interpolation-filters:linearRGB;solid-color:#000000;solid-opacity:1;fill:#000000;fill-opacity:1;fill-rule:nonzero;stroke:none;stroke-width:20;stroke-linecap:round;stroke-linejoin:round;stroke-miterlimit:4;stroke-dasharray:none;stroke-dashoffset:0;stroke-opacity:1;color-rendering:auto;image-rendering:auto;shape-rendering:auto;text-rendering:auto;enable-background:accumulate" />
        </g>
      </g>
      <g
         style="fill:#000000;stroke:#00ff00;stroke-width:5"
         id="g3631">
        <path
           inkscape:connector-curvature="0"
           id="path72"
           d="m 106.06836,265.89258 a 2.5002502,2.5002502 0 0 0 -2.41016,1.72656 c -1.56144,4.58056 -2.74384,9.10053 -3.892575,14.25977 a 2.5002502,2.5002502 0 0 0 -0.04492,0.16015 c -0.0041,0.0184 -0.0096,0.0324 -0.01367,0.0508 a 2.5002502,2.5002502 0 0 0 -0.0059,0.0352 2.5002502,2.5002502 0 0 0 -0.04492,0.29688 c -1.601467,7.83462 -2.453125,15.93503 -2.453125,24.2246 0,8.39746 0.857449,16.60026 2.498047,24.5254 a 2.5002502,2.5002502 0 1 0 4.896483,-1.01368 c -1.57191,-7.59328 -2.39454,-15.45459 -2.39454,-23.51172 0,-8.04865 0.822,-15.9078 2.39258,-23.49804 6.7e-4,-0.003 0.001,-0.007 0.002,-0.01 1.13747,-5.12912 2.28566,-9.48451 3.79296,-13.90625 a 2.5002502,2.5002502 0 0 0 -2.32226,-3.33984 z"
           style="color:#000000;font-style:normal;font-variant:normal;font-weight:normal;font-stretch:normal;font-size:medium;line-height:normal;font-family:sans-serif;text-indent:0;text-align:start;text-decoration:none;text-decoration-line:none;text-decoration-style:solid;text-decoration-color:#000000;letter-spacing:normal;word-spacing:normal;text-transform:none;writing-mode:lr-tb;direction:ltr;baseline-shift:baseline;text-anchor:start;white-space:normal;clip-rule:nonzero;display:inline;overflow:visible;visibility:visible;opacity:1;isolation:auto;mix-blend-mode:normal;color-interpolation:sRGB;color-interpolation-filters:linearRGB;solid-color:#000000;solid-opacity:1;fill:#000000;fill-opacity:1;fill-rule:nonzero;stroke:none;stroke-width:25.00000191;stroke-linecap:round;stroke-linejoin:round;stroke-miterlimit:4;stroke-dasharray:none;stroke-dashoffset:0;stroke-opacity:1;color-rendering:auto;image-rendering:auto;shape-rendering:auto;text-rendering:auto;enable-background:accumulate" />
        <g
           style="fill:#000000;stroke:#00ff00;stroke-width:5"
           transform="matrix(1.25,0,0,1.25,-343.95,-1301.2356)"
           id="g94">
          <path
             inkscape:connector-curvature="0"
             id="path96"
             d="m 361.65625,1244.9609 c -3.24918,0 -5.92969,2.6748 -5.92969,5.9258 0,3.2531 2.68112,5.9297 5.92969,5.9297 3.25058,0 5.92969,-2.6785 5.92969,-5.9297 0,-3.2492 -2.6785,-5.9258 -5.92969,-5.9258 z m 0,4 c 1.09281,0 1.92969,0.839 1.92969,1.9258 0,1.0928 -0.83627,1.9297 -1.92969,1.9297 -1.08743,0 -1.92969,-0.8387 -1.92969,-1.9297 0,-1.085 0.84287,-1.9258 1.92969,-1.9258 z"
             style="color:#000000;font-style:normal;font-variant:normal;font-weight:normal;font-stretch:normal;font-size:medium;line-height:normal;font-family:sans-serif;text-indent:0;text-align:start;text-decoration:none;text-decoration-line:none;text-decoration-style:solid;text-decoration-color:#000000;letter-spacing:normal;word-spacing:normal;text-transform:none;writing-mode:lr-tb;direction:ltr;baseline-shift:baseline;text-anchor:start;white-space:normal;clip-rule:nonzero;display:inline;overflow:visible;visibility:visible;opacity:1;isolation:auto;mix-blend-mode:normal;color-interpolation:sRGB;color-interpolation-filters:linearRGB;solid-color:#000000;solid-opacity:1;fill:#000000;fill-opacity:1;fill-rule:nonzero;stroke:none;stroke-width:20;stroke-linecap:round;stroke-linejoin:round;stroke-miterlimit:4;stroke-dasharray:none;stroke-dashoffset:0;stroke-opacity:1;color-rendering:auto;image-rendering:auto;shape-rendering:auto;text-rendering:auto;enable-background:accumulate" />
        </g>
      </g>
      <g
         style="fill:#000000;stroke-width:5"
         id="g3648">
        <path
           inkscape:connector-curvature="0"
           id="path3602"
           d="m 324.70312,282.76367 a 2.5002502,2.5002502 0 0 0 -2.39453,3.03906 c 1.39095,6.73492 2.1211,13.70448 2.1211,20.84375 0,7.14434 -0.73018,14.11211 -2.1211,20.84571 -0.34806,1.68267 -0.7369,3.35033 -1.16601,5.00195 -0.4291,1.65161 -0.89808,3.2876 -1.40625,4.90625 -0.50818,1.61866 -1.05536,3.21902 -1.64063,4.80273 a 2.5002502,2.5002502 0 1 0 4.68946,1.73438 c 0.61395,-1.66136 1.18762,-3.34303 1.7207,-5.04102 0.53307,-1.69798 1.0245,-3.41399 1.47461,-5.14648 0.45011,-1.73246 0.85956,-3.48132 1.22461,-5.24609 1.45908,-7.06359 2.22461,-14.37245 2.22461,-21.85743 0,-7.48014 -0.76555,-14.78877 -2.22461,-21.85351 a 2.5002502,2.5002502 0 0 0 -2.50196,-2.0293 z"
           style="color:#000000;font-style:normal;font-variant:normal;font-weight:normal;font-stretch:normal;font-size:medium;line-height:normal;font-family:sans-serif;text-indent:0;text-align:start;text-decoration:none;text-decoration-line:none;text-decoration-style:solid;text-decoration-color:#000000;letter-spacing:normal;word-spacing:normal;text-transform:none;writing-mode:lr-tb;direction:ltr;baseline-shift:baseline;text-anchor:start;white-space:normal;clip-rule:nonzero;display:inline;overflow:visible;visibility:visible;opacity:1;isolation:auto;mix-blend-mode:normal;color-interpolation:sRGB;color-interpolation-filters:linearRGB;solid-color:#000000;solid-opacity:1;fill:#000000;fill-opacity:1;fill-rule:nonzero;stroke:none;stroke-width:25.00000191;stroke-linecap:round;stroke-linejoin:round;stroke-miterlimit:4;stroke-dasharray:none;stroke-dashoffset:0;stroke-opacity:1;color-rendering:auto;image-rendering:auto;shape-rendering:auto;text-rendering:auto;enable-background:accumulate" />
        <g
           style="fill:#000000;stroke-width:5"
           transform="matrix(1.25,0,0,1.25,-343.95,-1301.2356)"
           id="g98">
          <path
             inkscape:connector-curvature="0"
             id="path100"
             d="m 529.51562,1313.1758 c -3.25118,0 -5.92968,2.6766 -5.92968,5.9258 0,3.2506 2.6785,5.9296 5.92968,5.9296 3.24919,0 5.92579,-2.6796 5.92579,-5.9296 0,-3.2486 -2.6766,-5.9258 -5.92579,-5.9258 z m 0,4 c 1.08682,0 1.92579,0.8383 1.92579,1.9258 0,1.0919 -0.83897,1.9296 -1.92579,1.9296 -1.09281,0 -1.92968,-0.8383 -1.92968,-1.9296 0,-1.0869 0.83687,-1.9258 1.92968,-1.9258 z"
             style="color:#000000;font-style:normal;font-variant:normal;font-weight:normal;font-stretch:normal;font-size:medium;line-height:normal;font-family:sans-serif;text-indent:0;text-align:start;text-decoration:none;text-decoration-line:none;text-decoration-style:solid;text-decoration-color:#000000;letter-spacing:normal;word-spacing:normal;text-transform:none;writing-mode:lr-tb;direction:ltr;baseline-shift:baseline;text-anchor:start;white-space:normal;clip-rule:nonzero;display:inline;overflow:visible;visibility:visible;opacity:1;isolation:auto;mix-blend-mode:normal;color-interpolation:sRGB;color-interpolation-filters:linearRGB;solid-color:#000000;solid-opacity:1;fill:#000000;fill-opacity:1;fill-rule:nonzero;stroke:none;stroke-width:20;stroke-linecap:round;stroke-linejoin:round;stroke-miterlimit:4;stroke-dasharray:none;stroke-dashoffset:0;stroke-opacity:1;color-rendering:auto;image-rendering:auto;shape-rendering:auto;text-rendering:auto;enable-background:accumulate" />
        </g>
      </g>
      <g
         style="fill:#000000;stroke-width:5"
         id="g3660">
        <path
           inkscape:connector-curvature="0"
           id="path3600"
           d="m 120.17969,370.77734 a 2.5002502,2.5002502 0 0 0 -1.32031,0.41993 l -11.08204,7.40234 a 2.5002502,2.5002502 0 0 0 -0.67773,3.48828 c 4.89541,7.17852 10.46732,13.86296 16.625,19.9668 a 2.5002502,2.5002502 0 0 0 0,0.002 c 6.16193,6.09671 12.90745,11.6177 20.1543,16.4668 7.24166,4.85009 14.98223,9.02378 23.12304,12.43554 a 2.5002502,2.5002502 0 0 0 0.002,0 c 8.14723,3.4118 16.6951,6.06234 25.55859,7.85743 8.86497,1.80157 18.04214,2.74218 27.4375,2.74218 9.39045,0 18.56667,-0.94061 27.43164,-2.74218 8.86344,-1.79508 17.41437,-4.44555 25.56055,-7.85743 8.14305,-3.41217 15.8822,-7.58528 23.1289,-12.43554 a 2.5004882,2.5004882 0 1 0 -2.78125,-4.15625 c -6.98079,4.67229 -14.43484,8.69146 -22.27929,11.97851 -7.84825,3.2871 -16.08466,5.8412 -24.62305,7.57032 a 2.5002502,2.5002502 0 0 0 -0.002,0.002 c -8.53753,1.73503 -17.3785,2.64062 -26.43555,2.64062 -9.06214,0 -17.90388,-0.90559 -26.44141,-2.64062 a 2.5002502,2.5002502 0 0 0 -0.002,-0.002 c -8.53773,-1.72899 -16.77191,-4.28347 -24.62109,-7.57032 h -0.002 c -7.84275,-3.28697 -15.29872,-7.30701 -22.27343,-11.97851 a 2.5002502,2.5002502 0 0 0 -0.002,0 c -6.97989,-4.67047 -13.47652,-9.98884 -19.41406,-15.86328 l -0.002,-0.002 c -5.33354,-5.28713 -10.13407,-11.08395 -14.49024,-17.21289 l 6.92383,-4.625 c 4.06081,5.70304 8.53172,11.10279 13.50195,16.02539 a 2.5002502,2.5002502 0 0 0 0,0.002 c 5.55693,5.50113 11.63571,10.47816 18.17188,14.84961 6.53294,4.37015 13.50997,8.13812 20.85742,11.21875 a 2.5002502,2.5002502 0 0 0 0.002,0.002 c 7.34557,3.07477 15.05582,5.46663 23.05079,7.08594 7.98975,1.62066 16.26873,2.46875 24.74023,2.46875 a 2.5002502,2.5002502 0 0 0 2.5,-2.5 v -10.86329 c 6.66975,-0.14982 13.21936,-0.79518 19.54297,-2.07812 7.12611,-1.44331 13.99871,-3.57262 20.54492,-6.31641 6.54638,-2.74258 12.76827,-6.09974 18.58789,-9.99218 a 2.5002502,2.5002502 0 0 0 0,-0.002 c 0.72765,-0.48721 1.44907,-0.98244 2.16406,-1.48633 0.71497,-0.50388 1.42291,-1.0168 2.125,-1.5371 0.70206,-0.52028 1.39901,-1.0476 2.08789,-1.58399 0.68885,-0.53638 1.37145,-1.08059 2.04688,-1.63281 0.67541,-0.55221 1.34222,-1.11195 2.00391,-1.67969 a 2.5002502,2.5002502 0 1 0 -3.25586,-3.79492 c -0.63164,0.54196 -1.26932,1.07638 -1.91407,1.60351 -0.64473,0.52713 -1.29553,1.04656 -1.95312,1.5586 -0.65758,0.51201 -1.32203,1.01703 -1.99219,1.51367 -0.67013,0.49662 -1.3468,0.98384 -2.0293,1.46484 -0.68248,0.48098 -1.36991,0.95488 -2.06445,1.41993 -5.55537,3.71569 -11.49411,6.92031 -17.74023,9.53711 -6.24629,2.61807 -12.80213,4.64979 -19.60352,6.02734 -6.795,1.3787 -13.83573,2.10352 -21.05078,2.10351 a 2.5002502,2.5002502 0 0 0 -2.5,2.5 v 10.61329 c -7.25735,-0.15047 -14.37819,-0.85104 -21.24609,-2.24414 -7.66854,-1.55307 -15.06512,-3.84677 -22.11329,-6.79688 l -0.002,-0.002 c -7.04666,-2.95469 -13.73897,-6.56823 -20.00781,-10.76172 a 2.5002502,2.5002502 0 0 0 -0.002,0 c -6.26883,-4.19265 -12.10052,-8.97047 -17.4336,-14.25 -5.33035,-5.27927 -10.15004,-11.06258 -14.38086,-17.26758 a 2.5002502,2.5002502 0 0 0 -2.13476,-1.0918 z"
           style="color:#000000;font-style:normal;font-variant:normal;font-weight:normal;font-stretch:normal;font-size:medium;line-height:normal;font-family:sans-serif;text-indent:0;text-align:start;text-decoration:none;text-decoration-line:none;text-decoration-style:solid;text-decoration-color:#000000;letter-spacing:normal;word-spacing:normal;text-transform:none;writing-mode:lr-tb;direction:ltr;baseline-shift:baseline;text-anchor:start;white-space:normal;clip-rule:nonzero;display:inline;overflow:visible;visibility:visible;opacity:1;isolation:auto;mix-blend-mode:normal;color-interpolation:sRGB;color-interpolation-filters:linearRGB;solid-color:#000000;solid-opacity:1;fill:#000000;fill-opacity:1;fill-rule:nonzero;stroke:none;stroke-width:25.00000191;stroke-linecap:round;stroke-linejoin:round;stroke-miterlimit:4;stroke-dasharray:none;stroke-dashoffset:0;stroke-opacity:1;color-rendering:auto;image-rendering:auto;shape-rendering:auto;text-rendering:auto;enable-background:accumulate" />
        <g
           style="fill:#000000;stroke-width:5"
           transform="matrix(1.25,0,0,1.25,-343.95,-1301.2356)"
           id="g102">
          <path
             inkscape:connector-curvature="0"
             id="path104"
             d="m 510.58594,1341.3867 c -3.25303,0 -5.92969,2.6805 -5.92969,5.9297 0,3.2512 2.6785,5.9297 5.92969,5.9297 3.24918,0 5.92969,-2.676 5.92968,-5.9297 0,-3.2516 -2.67866,-5.9297 -5.92968,-5.9297 z m 0,4 c 1.08497,0 1.92969,0.8453 1.92968,1.9297 0,1.0904 -0.84286,1.9297 -1.92968,1.9297 -1.09281,0 -1.92969,-0.8369 -1.92969,-1.9297 0,-1.0868 0.83872,-1.9297 1.92969,-1.9297 z"
             style="color:#000000;font-style:normal;font-variant:normal;font-weight:normal;font-stretch:normal;font-size:medium;line-height:normal;font-family:sans-serif;text-indent:0;text-align:start;text-decoration:none;text-decoration-line:none;text-decoration-style:solid;text-decoration-color:#000000;letter-spacing:normal;word-spacing:normal;text-transform:none;writing-mode:lr-tb;direction:ltr;baseline-shift:baseline;text-anchor:start;white-space:normal;clip-rule:nonzero;display:inline;overflow:visible;visibility:visible;opacity:1;isolation:auto;mix-blend-mode:normal;color-interpolation:sRGB;color-interpolation-filters:linearRGB;solid-color:#000000;solid-opacity:1;fill:#000000;fill-opacity:1;fill-rule:nonzero;stroke:none;stroke-width:20;stroke-linecap:round;stroke-linejoin:round;stroke-miterlimit:4;stroke-dasharray:none;stroke-dashoffset:0;stroke-opacity:1;color-rendering:auto;image-rendering:auto;shape-rendering:auto;text-rendering:auto;enable-background:accumulate" />
        </g>
      </g>
      <g
         style="fill:#000000;stroke-width:5"
         id="g3619">
        <path
           inkscape:connector-curvature="0"
           id="path3596"
           d="m 192.97461,174.42969 a 2.5002502,2.5002502 0 0 0 -0.41016,0.0488 c -8.8637,1.79627 -17.41321,4.44704 -25.55664,7.85937 -8.14712,3.41228 -15.88887,7.5863 -23.13086,12.43555 -7.24549,4.84958 -13.98989,10.36648 -20.15234,16.46875 a 2.5002502,2.5002502 0 1 0 3.51758,3.55273 c 5.93718,-5.8792 12.43646,-11.19441 19.41797,-15.86719 6.97551,-4.67081 14.43142,-8.69157 22.27929,-11.97851 7.09084,-2.97126 14.53971,-5.24877 22.20508,-6.95508 l 1.67969,8.07422 c -7.11368,1.595 -14.02961,3.71013 -20.61524,6.4668 a 2.5002502,2.5002502 0 0 0 -0.002,0 c -7.34655,3.08023 -14.32309,6.84261 -20.85742,11.21875 -6.53635,4.37158 -12.61509,9.3525 -18.17188,14.85351 -4.96946,4.9207 -9.44086,10.31848 -13.50195,16.02539 l -9.12305,-6.09375 a 2.5002502,2.5002502 0 0 0 -3.45312,0.66992 c -4.8963,7.17478 -9.108681,14.84554 -12.556641,22.91602 -3.448771,8.07238 -6.123047,16.5488 -7.939453,25.33008 -1.81533,8.78853 -2.765625,17.88 -2.765625,27.1914 0,9.31505 0.950295,18.40678 2.765625,27.19532 1.816406,8.78253 4.490682,17.25769 7.939453,25.33008 a 2.5002502,2.5002502 0 0 0 3.263672,1.32421 l 22.451169,-9.39648 c 2.57311,5.6545 5.53546,11.09655 9.01172,16.18555 3.93275,5.76756 8.41073,11.13811 13.36133,16.04492 4.94731,4.90229 10.37268,9.33702 16.19336,13.23437 a 2.5002502,2.5002502 0 0 0 0.002,0.002 c 5.82058,3.89222 12.03946,7.24955 18.58594,9.99218 1.63657,0.68596 3.2946,1.3334 4.9707,1.94141 1.67611,0.608 3.37081,1.17724 5.08399,1.70508 0.8566,0.26392 1.71664,0.51631 2.58203,0.75976 a 2.5002502,2.5002502 0 1 0 1.35547,-4.8125 c -0.82583,-0.23232 -1.64747,-0.47472 -2.46485,-0.72656 -1.6348,-0.50368 -3.25223,-1.04681 -4.85156,-1.62695 -1.59932,-0.58016 -3.18064,-1.19706 -4.74219,-1.85156 -6.24601,-2.61675 -12.18331,-5.8212 -17.74023,-9.53711 -5.55682,-3.72069 -10.73489,-7.95559 -15.45508,-12.63282 -4.72625,-4.68444 -9.00007,-9.80988 -12.75195,-15.3125 -3.75687,-5.49977 -6.98277,-11.3781 -9.62891,-17.5664 a 2.5002502,2.5002502 0 0 0 -3.26562,-1.32227 l -22.224613,9.30078 C 95.417092,347.80054 93.077825,340.45847 91.5,332.83008 v -0.002 c -1.746918,-8.45797 -2.662109,-17.20761 -2.662109,-26.18164 0,-8.97091 0.914939,-17.72113 2.662109,-26.17968 1.748593,-8.45344 4.321895,-16.60896 7.640625,-24.37696 2.992265,-7.00386 6.663455,-13.64068 10.794925,-19.95117 l 8.92383,5.96094 a 2.5002502,2.5002502 0 0 0 3.45507,-0.67188 c 4.23017,-6.21011 9.05013,-11.98915 14.38086,-17.26757 5.33321,-5.27968 11.16495,-10.05747 17.4336,-14.25 a 2.5002502,2.5002502 0 0 0 0.002,-0.002 c 6.26769,-4.19756 12.95997,-7.8066 20.00781,-10.76172 7.04864,-2.95047 14.44537,-5.24429 22.11524,-6.79882 a 2.5002502,2.5002502 0 0 0 1.95117,-2.95899 l -2.69531,-12.96875 a 2.5002502,2.5002502 0 0 0 -2.53516,-1.99023 z"
           style="color:#000000;font-style:normal;font-variant:normal;font-weight:normal;font-stretch:normal;font-size:medium;line-height:normal;font-family:sans-serif;text-indent:0;text-align:start;text-decoration:none;text-decoration-line:none;text-decoration-style:solid;text-decoration-color:#000000;letter-spacing:normal;word-spacing:normal;text-transform:none;writing-mode:lr-tb;direction:ltr;baseline-shift:baseline;text-anchor:start;white-space:normal;clip-rule:nonzero;display:inline;overflow:visible;visibility:visible;opacity:1;isolation:auto;mix-blend-mode:normal;color-interpolation:sRGB;color-interpolation-filters:linearRGB;solid-color:#000000;solid-opacity:1;fill:#000000;fill-opacity:1;fill-rule:nonzero;stroke:none;stroke-width:25.00000191;stroke-linecap:round;stroke-linejoin:round;stroke-miterlimit:4;stroke-dasharray:none;stroke-dashoffset:0;stroke-opacity:1;color-rendering:auto;image-rendering:auto;shape-rendering:auto;text-rendering:auto;enable-background:accumulate" />
        <g
           style="fill:#000000;stroke-width:5"
           transform="matrix(1.25,0,0,1.25,-343.95,-1301.2356)"
           id="g110">
          <path
             inkscape:connector-curvature="0"
             id="path112"
             d="m 432.37109,1362.8164 c -3.24918,0 -5.92968,2.676 -5.92968,5.9297 0,3.2516 2.67804,5.9297 5.92968,5.9297 3.25164,0 5.92969,-2.6781 5.92969,-5.9297 0,-3.2537 -2.68051,-5.9297 -5.92969,-5.9297 z m 0,4 c 1.08682,0 1.92969,0.8393 1.92969,1.9297 0,1.0844 -0.84533,1.9297 -1.92969,1.9297 -1.08436,0 -1.92968,-0.8453 -1.92968,-1.9297 0,-1.0904 0.84286,-1.9297 1.92968,-1.9297 z"
             style="color:#000000;font-style:normal;font-variant:normal;font-weight:normal;font-stretch:normal;font-size:medium;line-height:normal;font-family:sans-serif;text-indent:0;text-align:start;text-decoration:none;text-decoration-line:none;text-decoration-style:solid;text-decoration-color:#000000;letter-spacing:normal;word-spacing:normal;text-transform:none;writing-mode:lr-tb;direction:ltr;baseline-shift:baseline;text-anchor:start;white-space:normal;clip-rule:nonzero;display:inline;overflow:visible;visibility:visible;opacity:1;isolation:auto;mix-blend-mode:normal;color-interpolation:sRGB;color-interpolation-filters:linearRGB;solid-color:#000000;solid-opacity:1;fill:#000000;fill-opacity:1;fill-rule:nonzero;stroke:none;stroke-width:20;stroke-linecap:round;stroke-linejoin:round;stroke-miterlimit:4;stroke-dasharray:none;stroke-dashoffset:0;stroke-opacity:1;color-rendering:auto;image-rendering:auto;shape-rendering:auto;text-rendering:auto;enable-background:accumulate" />
        </g>
      </g>
      <g
         style="fill:#000000;stroke-width:5"
         id="g3653">
        <path
           inkscape:connector-curvature="0"
           id="path3598"
           d="m 350.85938,277.46289 a 2.5002502,2.5002502 0 0 0 -0.41602,0.0488 l -13.0918,2.66992 a 2.5002502,2.5002502 0 0 0 -1.94922,2.95508 c 1.56838,7.59397 2.39063,15.45769 2.39063,23.50976 0,8.05713 -0.82224,15.9177 -2.39063,23.51172 -1.56715,7.59401 -3.87873,14.91549 -6.86132,21.89258 -0.37223,0.87218 -0.75548,1.74027 -1.14844,2.60156 -0.39295,0.86129 -0.79562,1.71634 -1.20899,2.56641 -0.41335,0.85007 -0.83805,1.6947 -1.27148,2.5332 -0.43342,0.8385 -0.8769,1.67144 -1.33008,2.49805 -0.45316,0.8266 -0.91608,1.64657 -1.38867,2.46094 a 2.500732,2.500732 0 0 0 4.32617,2.50976 c 0.49291,-0.84939 0.97457,-1.70418 1.44727,-2.5664 0.47268,-0.86221 0.93653,-1.73077 1.38867,-2.60547 0.45213,-0.8747 0.89299,-1.75575 1.32422,-2.64258 0.43123,-0.88683 0.85173,-1.78106 1.26172,-2.67969 0.40973,-0.89806 0.80909,-1.80144 1.19726,-2.71094 v -0.002 c 3.11206,-7.28024 5.52494,-14.91995 7.16016,-22.84375 1.63661,-7.9244 2.49414,-16.12598 2.49414,-24.52344 0,-7.53067 -0.78712,-14.87796 -2.11133,-22.03906 l 8.19336,-1.67383 c 1.4372,7.69989 2.28711,15.60044 2.28711,23.71289 0,8.97401 -0.91948,17.72458 -2.66797,26.1836 -1.74335,8.45303 -4.31968,16.60834 -7.63867,24.37695 -3.31529,7.76734 -7.37577,15.15474 -12.08985,22.0625 a 2.5002502,2.5002502 0 0 0 -0.002,0.002 c -4.24278,6.22801 -9.09204,12.00838 -14.33594,17.40625 l -7.60937,-7.53906 a 2.5002502,2.5002502 0 0 0 -3.51953,0 c -5.32699,5.27835 -11.16345,10.05501 -17.43164,14.24805 a 2.5002502,2.5002502 0 0 0 -0.002,0 c -6.26339,4.19311 -12.96174,7.80859 -20.00976,10.76367 v -0.002 c -1.76084,0.73758 -3.54394,1.4355 -5.34766,2.08984 -1.80371,0.65434 -3.62864,1.26561 -5.47265,1.83399 -0.46102,0.14209 -0.9233,0.28135 -1.38672,0.41796 -0.46343,0.13662 -0.92678,0.27126 -1.39258,0.40235 -0.46583,0.1311 -0.93422,0.25924 -1.40234,0.38476 a 2.5003245,2.5003245 0 0 0 1.29492,4.83008 c 0.48808,-0.13087 0.97535,-0.26568 1.46094,-0.40234 0.48561,-0.13667 0.96999,-0.27555 1.45312,-0.41797 0.48312,-0.14242 0.96473,-0.28742 1.44531,-0.43555 1.92239,-0.59253 3.82485,-1.23196 5.70508,-1.91406 1.88022,-0.6821 3.73882,-1.40696 5.57422,-2.17578 a 2.5002502,2.5002502 0 0 0 0,-0.002 c 7.34697,-3.08043 14.33027,-6.84775 20.85937,-11.21875 5.84337,-3.90886 11.26255,-8.37077 16.32813,-13.19141 l 7.7793,7.70508 a 2.5002502,2.5002502 0 0 0 3.51953,0 c 6.15516,-6.10262 11.73017,-12.78772 16.62109,-19.9668 l 0.002,-0.002 c 4.8948,-7.17289 9.11247,-14.8452 12.55664,-22.91406 l 0.002,-0.002 c 3.44779,-8.0705 6.12408,-16.54548 7.93554,-25.32812 v -0.002 c 1.81626,-8.78749 2.77149,-17.87829 2.77149,-27.19336 0,-9.31209 -0.95498,-18.40333 -2.77149,-27.1914 a 2.5002502,2.5002502 0 0 0 -2.53124,-1.99219 z"
           style="color:#000000;font-style:normal;font-variant:normal;font-weight:normal;font-stretch:normal;font-size:medium;line-height:normal;font-family:sans-serif;text-indent:0;text-align:start;text-decoration:none;text-decoration-line:none;text-decoration-style:solid;text-decoration-color:#000000;letter-spacing:normal;word-spacing:normal;text-transform:none;writing-mode:lr-tb;direction:ltr;baseline-shift:baseline;text-anchor:start;white-space:normal;clip-rule:nonzero;display:inline;overflow:visible;visibility:visible;opacity:1;isolation:auto;mix-blend-mode:normal;color-interpolation:sRGB;color-interpolation-filters:linearRGB;solid-color:#000000;solid-opacity:1;fill:#000000;fill-opacity:1;fill-rule:nonzero;stroke:none;stroke-width:25.00000191;stroke-linecap:round;stroke-linejoin:round;stroke-miterlimit:4;stroke-dasharray:none;stroke-dashoffset:0;stroke-opacity:1;color-rendering:auto;image-rendering:auto;shape-rendering:auto;text-rendering:auto;enable-background:accumulate" />
        <g
           style="fill:#000000;stroke-width:5"
           transform="matrix(1.25,0,0,1.25,-343.95,-1301.2356)"
           id="g106">
          <path
             inkscape:connector-curvature="0"
             id="path108"
             d="m 531.65625,1331.0312 c -3.24918,0 -5.92969,2.6767 -5.92969,5.9297 0,3.2511 2.68051,5.9258 5.92969,5.9258 3.25119,0 5.92969,-2.6766 5.92969,-5.9258 0,-3.2512 -2.6785,-5.9297 -5.92969,-5.9297 z m 0,4 c 1.09281,0 1.92969,0.8369 1.92969,1.9297 0,1.0869 -0.83688,1.9258 -1.92969,1.9258 -1.08682,0 -1.92969,-0.8408 -1.92969,-1.9258 0,-1.0909 0.84287,-1.9297 1.92969,-1.9297 z"
             style="color:#000000;font-style:normal;font-variant:normal;font-weight:normal;font-stretch:normal;font-size:medium;line-height:normal;font-family:sans-serif;text-indent:0;text-align:start;text-decoration:none;text-decoration-line:none;text-decoration-style:solid;text-decoration-color:#000000;letter-spacing:normal;word-spacing:normal;text-transform:none;writing-mode:lr-tb;direction:ltr;baseline-shift:baseline;text-anchor:start;white-space:normal;clip-rule:nonzero;display:inline;overflow:visible;visibility:visible;opacity:1;isolation:auto;mix-blend-mode:normal;color-interpolation:sRGB;color-interpolation-filters:linearRGB;solid-color:#000000;solid-opacity:1;fill:#000000;fill-opacity:1;fill-rule:nonzero;stroke:none;stroke-width:20;stroke-linecap:round;stroke-linejoin:round;stroke-miterlimit:4;stroke-dasharray:none;stroke-dashoffset:0;stroke-opacity:1;color-rendering:auto;image-rendering:auto;shape-rendering:auto;text-rendering:auto;enable-background:accumulate" />
        </g>
        <g
           style="fill:#000000;stroke-width:5"
           transform="matrix(1.25,0,0,1.25,-343.95,-1301.2356)"
           id="g114">
          <path
             inkscape:connector-curvature="0"
             id="path116"
             d="m 472.01562,1373.1758 c -3.25118,0 -5.92968,2.6766 -5.92968,5.9258 0,3.2506 2.6785,5.9296 5.92968,5.9296 3.24919,0 5.92579,-2.6796 5.92579,-5.9296 0,-3.2486 -2.6766,-5.9258 -5.92579,-5.9258 z m 0,4 c 1.08682,0 1.92579,0.8383 1.92579,1.9258 0,1.0919 -0.83897,1.9297 -1.92579,1.9296 -1.09281,0 -1.92968,-0.8383 -1.92968,-1.9296 0,-1.0869 0.83687,-1.9258 1.92968,-1.9258 z"
             style="color:#000000;font-style:normal;font-variant:normal;font-weight:normal;font-stretch:normal;font-size:medium;line-height:normal;font-family:sans-serif;text-indent:0;text-align:start;text-decoration:none;text-decoration-line:none;text-decoration-style:solid;text-decoration-color:#000000;letter-spacing:normal;word-spacing:normal;text-transform:none;writing-mode:lr-tb;direction:ltr;baseline-shift:baseline;text-anchor:start;white-space:normal;clip-rule:nonzero;display:inline;overflow:visible;visibility:visible;opacity:1;isolation:auto;mix-blend-mode:normal;color-interpolation:sRGB;color-interpolation-filters:linearRGB;solid-color:#000000;solid-opacity:1;fill:#000000;fill-opacity:1;fill-rule:nonzero;stroke:none;stroke-width:20;stroke-linecap:round;stroke-linejoin:round;stroke-miterlimit:4;stroke-dasharray:none;stroke-dashoffset:0;stroke-opacity:1;color-rendering:auto;image-rendering:auto;shape-rendering:auto;text-rendering:auto;enable-background:accumulate" />
        </g>
      </g>
    </g>
    <text
       xml:space="preserve"
       style="font-style:normal;font-variant:normal;font-weight:normal;font-stretch:normal;font-size:4.23333311px;line-height:6.61458302px;font-family:Utopia;-inkscape-font-specification:'Utopia, Normal';font-variant-ligatures:normal;font-variant-caps:normal;font-variant-numeric:normal;font-feature-settings:normal;text-align:start;letter-spacing:0px;word-spacing:0px;writing-mode:lr-tb;text-anchor:start;fill:#000000;fill-opacity:1;stroke:none;stroke-width:0.26458332px;stroke-linecap:butt;stroke-linejoin:miter;stroke-opacity:1"
       x="33.517403"
       y="287.93964"
       id="text5377"><tspan
         sodipodi:role="line"
         id="tspan5375"
         x="33.517403"
         y="287.93964"
         style="font-style:normal;font-variant:normal;font-weight:normal;font-stretch:normal;font-size:4.23333311px;font-family:Utopia;-inkscape-font-specification:'Utopia, Normal';font-variant-ligatures:normal;font-variant-caps:normal;font-variant-numeric:normal;font-feature-settings:normal;text-align:start;writing-mode:lr-tb;text-anchor:start;stroke-width:0.26458332px">Maschinendeck.org</tspan></text>
    <text
       xml:space="preserve"
       style="font-style:normal;font-variant:normal;font-weight:normal;font-stretch:normal;font-size:2.82222223px;line-height:6.61458302px;font-family:Utopia;-inkscape-font-specification:'Utopia, Normal';font-variant-ligatures:normal;font-variant-caps:normal;font-variant-numeric:normal;font-feature-settings:normal;text-align:start;letter-spacing:0px;word-spacing:0px;writing-mode:lr-tb;text-anchor:start;fill:#000000;fill-opacity:1;stroke:none;stroke-width:0.26458332px;stroke-linecap:butt;stroke-linejoin:miter;stroke-opacity:1"
       x="31.38475"
       y="292.21597"
       id="text5381"><tspan
         sodipodi:role="line"
         id="tspan5379"
         x="31.38475"
         y="292.21597"
         style="font-style:normal;font-variant:normal;font-weight:normal;font-stretch:normal;font-size:2.82222223px;font-family:Utopia;-inkscape-font-specification:'Utopia, Normal';font-variant-ligatures:normal;font-variant-caps:normal;font-variant-numeric:normal;font-feature-settings:normal;text-align:start;writing-mode:lr-tb;text-anchor:start;stroke-width:0.26458332px">Wir können alles. Außer Gulasch. </tspan></text>
  </g>
</svg>
