<?xml version="1.0" encoding="UTF-8" standalone="no"?>
<!-- Created with Inkscape (http://www.inkscape.org/) -->

<svg
   xmlns:dc="http://purl.org/dc/elements/1.1/"
   xmlns:cc="http://creativecommons.org/ns#"
   xmlns:rdf="http://www.w3.org/1999/02/22-rdf-syntax-ns#"
   xmlns:svg="http://www.w3.org/2000/svg"
   xmlns="http://www.w3.org/2000/svg"
   xmlns:sodipodi="http://sodipodi.sourceforge.net/DTD/sodipodi-0.dtd"
   xmlns:inkscape="http://www.inkscape.org/namespaces/inkscape"
   width="52mm"
   height="52mm"
   viewBox="0 0 52 52"
   version="1.1"
   id="SVGRoot"
   inkscape:version="0.92.0 r15299"
   sodipodi:docname="notdead_greenish.svg">
  <sodipodi:namedview
     id="base"
     pagecolor="#ffffff"
     bordercolor="#666666"
     borderopacity="1.0"
     inkscape:pageopacity="0.0"
     inkscape:pageshadow="2"
     inkscape:zoom="2.6051282"
     inkscape:cx="122.99826"
     inkscape:cy="109.78346"
     inkscape:document-units="mm"
     inkscape:current-layer="layer1"
     showgrid="false"
     inkscape:window-width="1600"
     inkscape:window-height="870"
     inkscape:window-x="0"
     inkscape:window-y="30"
     inkscape:window-maximized="0" />
  <defs
     id="defs5076" />
  <metadata
     id="metadata5079">
    <rdf:RDF>
      <cc:Work
         rdf:about="">
        <dc:format>image/svg+xml</dc:format>
        <dc:type
           rdf:resource="http://purl.org/dc/dcmitype/StillImage" />
        <dc:title></dc:title>
      </cc:Work>
    </rdf:RDF>
  </metadata>
  <g
     inkscape:groupmode="layer"
     id="layer2"
     inkscape:label="bg">
    <rect
       style="opacity:1;fill:#275043;fill-opacity:1;stroke:none;stroke-width:2.29400015;stroke-linecap:butt;stroke-linejoin:miter;stroke-miterlimit:4;stroke-dasharray:none;stroke-opacity:1;paint-order:normal"
       id="rect6421"
       width="52"
       height="52"
       x="0"
       y="7.0268288e-06" />
  </g>
  <g
     id="layer1"
     inkscape:groupmode="layer"
     inkscape:label="Layer 1">
    <g
       transform="matrix(0.07750285,0,0,0.07750285,1.6519529,-0.4073865)"
       style="font-style:normal;font-variant:normal;font-weight:normal;font-stretch:normal;font-size:180px;line-height:125%;font-family:'DejaVu Serif';-inkscape-font-specification:'DejaVu Serif';letter-spacing:0px;word-spacing:0px;display:inline;opacity:1;fill:#000000;fill-opacity:1;stroke:none;stroke-width:3.64144278px;stroke-linecap:butt;stroke-linejoin:miter;stroke-opacity:1"
       id="flowRoot4231" />
    <flowRoot
       transform="matrix(0.07750285,0,0,0.07750285,1.6519529,-0.4073865)"
       xml:space="preserve"
       id="flowRoot4247"
       style="font-style:normal;font-weight:normal;font-size:40px;line-height:125%;font-family:sans-serif;letter-spacing:0px;word-spacing:0px;display:inline;opacity:1;fill:#000000;fill-opacity:1;stroke:none;stroke-width:3.64144278px;stroke-linecap:butt;stroke-linejoin:miter;stroke-opacity:1"><flowRegion
         id="flowRegion4249"
         style="stroke-width:3.64144278px"><rect
           id="rect4251"
           width="166.33829"
           height="266.89307"
           x="-158.82018"
           y="53.566566"
           style="stroke-width:3.64144278px" /></flowRegion><flowPara
         id="flowPara4253"
         style="stroke-width:3.64144278px" /></flowRoot>    <g
       transform="matrix(0.0751939,-0.01877686,0.01877686,0.0751939,34.125908,-4.0176173)"
       style="font-style:normal;font-weight:normal;font-size:40px;line-height:125%;font-family:sans-serif;letter-spacing:0px;word-spacing:0px;display:inline;opacity:1;fill:#000000;fill-opacity:1;stroke:#000000;stroke-width:3.64144278px;stroke-linecap:butt;stroke-linejoin:miter;stroke-opacity:1"
       id="flowRoot4255" />
    <g
       style="font-style:normal;font-weight:normal;font-size:40px;line-height:125%;font-family:sans-serif;letter-spacing:0px;word-spacing:0px;display:inline;opacity:1;fill:#ff0000;fill-opacity:1;stroke:none;stroke-width:3.64144278px;stroke-linecap:butt;stroke-linejoin:miter;stroke-opacity:1"
       id="text4278"
       transform="matrix(0.12037647,-0.02118403,0.0182621,0.13011403,1.6451551,10.135048)" />
    <text
       xml:space="preserve"
       style="font-style:normal;font-weight:normal;font-size:10.03303432px;line-height:6.27064657px;font-family:sans-serif;letter-spacing:0px;word-spacing:0px;fill:#6effc4;fill-opacity:1;stroke:none;stroke-width:0.26458332px;stroke-linecap:butt;stroke-linejoin:miter;stroke-opacity:1;"
       x="0.52305353"
       y="50.684895"
       id="text5692"
       transform="scale(0.98429772,1.0159528)"><tspan
         sodipodi:role="line"
         id="tspan5690"
         x="0.52305353"
         y="50.684895"
         style="font-style:normal;font-variant:normal;font-weight:normal;font-stretch:normal;font-size:3.34434509px;font-family:'Roboto Mono';-inkscape-font-specification:'Roboto Mono';fill:#6effc4;fill-opacity:1;stroke-width:0.26458332px;">#maschinendeck on freenode</tspan></text>
    <text
       xml:space="preserve"
       style="font-style:normal;font-weight:normal;font-size:10.58333302px;line-height:6.61458302px;font-family:sans-serif;letter-spacing:0px;word-spacing:0px;fill:#000000;fill-opacity:1;stroke:none;stroke-width:0.26458332px;stroke-linecap:butt;stroke-linejoin:miter;stroke-opacity:1"
       x="149.90625"
       y="25.796873"
       id="text5696"><tspan
         sodipodi:role="line"
         id="tspan5694"
         x="149.90625"
         y="31.853352"
         style="stroke-width:0.26458332px" /></text>
    <g
       id="g6433"
       style="fill:#ff6ea4;fill-opacity:1">
      <path
         inkscape:connector-curvature="0"
         id="rect3348"
         d="M 5.6032361,25.448898 2.507814,42.000452 13.633258,42.273528 16.01859,26.486709 Z m 0.801216,1.820863 3.6895599,0.05449 c 0,0 0.973197,0.267586 1.383244,0.546154 0.450251,0.305881 0.84743,0.718191 1.11713,1.191001 0.293481,0.514496 0.416682,1.119251 0.496807,1.706123 0.126455,0.926226 -0.03361,2.804331 -0.03361,2.804331 0,0 -0.21694,1.199739 -0.407192,1.776812 -0.233581,0.708497 -0.497714,1.41986 -0.895521,2.050951 -0.323629,0.513415 -0.723112,0.990684 -1.191153,1.377036 -0.428715,0.353893 -0.9289647,0.625895 -1.4451558,0.83225 -0.5338761,0.213424 -1.676302,0.406737 -1.676302,0.406737 l -0.6251693,0.01044 -2.4339226,-0.02861 z m 2.1432864,2.375794 -1.3239062,8.130534 1.0423526,-0.267929 c 0,0 0.7606954,-0.614666 1.0546147,-0.999665 0.3218237,-0.421552 0.5577005,-0.908815 0.7515654,-1.402469 0.154155,-0.392536 0.252773,-0.807517 0.320911,-1.223698 0.09356,-0.571475 0.136792,-1.154433 0.118221,-1.733218 -0.01744,-0.543545 0.02211,-1.127901 -0.2151,-1.617268 -0.1486,-0.306559 -0.4086876,-0.578093 -0.7119065,-0.733399 -0.3109123,-0.159248 -1.036752,-0.152888 -1.036752,-0.152888 z"
         style="display:inline;opacity:1;fill:#ff6ea4;fill-opacity:1;stroke-width:0.28222221" />
      <path
         inkscape:connector-curvature="0"
         id="path4188"
         d="m 24.47397,20.55093 -7.252118,0.270805 -0.516938,11.56064 -1.979198,9.709048 8.614017,0.869639 0.545397,-12.261649 0.824679,0.153948 z m -1.532801,0.790618 -0.560685,8.120695 -1.463471,0.08644 -1.643909,-4.680141 -0.323937,4.914165 -1.526443,0.0666 0.577941,-8.090421 1.511911,-0.094 1.64194,4.739028 0.274591,-4.966238 z m -2.062757,10.70917 c 0.221277,0.0028 0.442334,0.04467 0.655898,0.10263 0.305915,0.08303 0.619485,0.174897 0.884926,0.348156 0.191986,0.125316 0.346501,0.304297 0.488178,0.484547 0.126308,0.160697 0.25281,0.330896 0.316973,0.524959 0.121573,0.367701 0.118415,0.769292 0.110654,1.156489 -0.01031,0.514484 -0.07706,1.032127 -0.208592,1.529622 -0.105073,0.397404 -0.459113,1.14453 -0.459113,1.14453 0,0 -1.824913,-0.137061 -2.733187,-0.245981 -0.278394,-0.03339 -0.442859,-0.08901 -0.831944,-0.124731 -0.08089,-0.0074 -0.12305,0.113524 -0.154402,0.188457 -0.149791,0.358024 -0.166289,0.771951 -0.123671,1.157699 0.01989,0.18001 0.06222,0.372357 0.174231,0.514669 0.08925,0.113387 0.223612,0.208005 0.366019,0.231296 0.225541,0.03689 0.481901,-0.02722 0.66604,-0.162573 0.210603,-0.154815 0.404771,-0.67164 0.404771,-0.67164 l 1.971328,0.197844 c 0,0 -0.626394,1.304637 -1.139081,1.79301 -0.252915,0.240921 -0.581322,0.402333 -0.910809,0.5183 -0.276081,0.09717 -0.574444,0.128213 -0.866912,0.139415 -0.284229,0.01088 -0.572412,-0.0098 -0.850261,-0.07069 -0.274875,-0.06022 -0.546299,-0.153766 -0.793495,-0.288213 -0.245138,-0.133328 -0.484817,-0.294241 -0.667555,-0.505132 -0.18807,-0.217044 -0.315854,-0.485152 -0.41688,-0.753987 -0.09014,-0.239876 -0.136844,-0.496367 -0.163181,-0.751263 -0.03123,-0.302248 -0.02864,-0.609838 0.0073,-0.911568 0.07122,-0.598504 0.231205,-1.18554 0.410221,-1.761071 0.08912,-0.28651 0.203655,-0.56527 0.329084,-0.837846 0.145756,-0.316753 0.49075,-0.923829 0.49075,-0.923829 0,0 0.356071,-0.571532 0.586419,-0.81393 0.252168,-0.265362 0.546979,-0.492176 0.857224,-0.686478 0.28365,-0.177641 0.585788,-0.336161 0.906722,-0.43111 0.223244,-0.06605 0.459587,-0.09434 0.69238,-0.09157 z m -0.184675,1.836605 c -0.03385,-1.46e-4 -0.06764,0.0019 -0.100662,0.0062 -0.127173,0.01637 -0.25238,0.07179 -0.354212,0.149707 -0.151509,0.115924 -0.253753,0.287716 -0.353002,0.450637 -0.133698,0.219471 -0.261002,0.450868 -0.321212,0.700703 -0.02773,0.115098 -0.01529,0.354969 -0.01529,0.354969 l 1.51842,0.135631 c 0,0 0.219314,-0.479366 0.265053,-0.736126 0.03986,-0.223744 0.0962,-0.473683 0.0048,-0.681782 -0.06314,-0.143825 -0.207114,-0.249599 -0.349217,-0.31652 -0.09037,-0.04255 -0.193179,-0.063 -0.294723,-0.06343 z"
         style="display:inline;opacity:1;fill:#ff6ea4;fill-rule:evenodd;stroke:none;stroke-width:0.28222221px;stroke-linecap:butt;stroke-linejoin:miter;stroke-opacity:1;fill-opacity:1" />
      <path
         inkscape:connector-curvature="0"
         id="path4191"
         d="m 30.083843,20.904535 -4.935356,0.708123 0.333172,8.162927 1.991308,0.200569 -3.75238,14.321379 7.021272,2.170683 0.471377,-1.455145 3.906175,0.264902 3.313851,-14.512259 -7.411514,-1.646481 z m -1.504947,1.638762 c 0.16921,0.0022 0.337199,0.02729 0.494081,0.08144 0.297832,0.102795 0.576864,0.306457 0.758983,0.563562 0.237197,0.334859 0.306532,0.7696 0.364355,1.175863 0.07768,0.545821 0.0352,1.10622 -0.02937,1.653748 -0.04606,0.390582 -0.07473,0.802196 -0.254003,1.15225 -0.148057,0.289097 -0.383909,0.539368 -0.64954,0.726286 -0.302146,0.212612 -0.659483,0.380964 -1.027216,0.416577 -0.333745,0.03232 -0.68596,-0.0454 -0.987405,-0.192243 -0.324173,-0.157911 -0.639355,-0.394995 -0.817109,-0.708727 -0.230339,-0.406541 -0.225117,-0.913473 -0.24356,-1.380369 -0.02582,-0.653532 -0.04859,-1.34318 0.1874,-1.953162 0.146393,-0.378383 0.420094,-0.71191 0.729465,-0.974387 0.278584,-0.236355 0.616567,-0.423072 0.97257,-0.505131 0.161723,-0.03728 0.332137,-0.05795 0.501347,-0.05571 z m -0.309709,1.378552 c -0.133636,-0.0019 -0.255405,0.118806 -0.327571,0.231298 -0.172943,0.269585 -0.164622,0.624496 -0.1765,0.944566 -0.01608,0.433247 0.006,0.881626 0.143654,1.292723 0.05441,0.162447 0.117285,0.350686 0.262328,0.441858 0.06619,0.04161 0.160088,0.04673 0.23372,0.02043 0.105838,-0.03781 0.186689,-0.137218 0.241137,-0.235535 0.12697,-0.229284 0.135634,-0.508173 0.167115,-0.768369 0.03613,-0.298586 0.05206,-0.602419 0.02407,-0.901879 -0.02268,-0.242671 -0.0232,-0.509422 -0.154703,-0.714631 -0.09296,-0.145061 -0.240975,-0.307946 -0.413247,-0.310465 z m 3.538036,7.136317 2.688986,0.358147 -0.706003,12.896659 -2.596951,-0.402349 -0.0056,-2.110743 -2.43695,-0.35966 -1.01889,2.042776 -2.54064,-0.232811 z m 0.2316,3.675179 -2.276343,4.813957 1.624229,0.288062 z"
         style="display:inline;opacity:1;fill:#ff6ea4;fill-opacity:1;fill-rule:evenodd;stroke:none;stroke-width:0.28222221px;stroke-linecap:butt;stroke-linejoin:miter;stroke-opacity:1" />
      <path
         inkscape:connector-curvature="0"
         id="path4210"
         d="m 40.144987,28.83556 -3.023672,16.498572 10.969532,0.168629 2.416967,-15.499965 z m 1.954525,1.720655 c 0.600523,0.0019 1.320378,0.01689 1.797552,0.06873 0.572858,0.06224 1.180139,0.0788 1.695677,0.336199 0.423917,0.211658 0.7581,0.58222 1.058852,0.948349 0.273507,0.332965 0.503099,0.710464 0.659076,1.112136 0.158246,0.407513 0.210705,0.8504 0.26793,1.283794 0.06219,0.470987 0.07894,0.947836 0.08099,1.422903 0.0016,0.368824 -0.0083,0.739101 -0.05328,1.105175 -0.04214,0.342888 -0.122797,0.680288 -0.202387,1.016468 -0.041,0.173184 -0.09187,0.343913 -0.141532,0.514818 -0.0814,0.280134 -0.158116,0.562024 -0.256123,0.836789 -0.100609,0.282055 -0.198619,0.567725 -0.340135,0.83164 -0.290434,0.541641 -0.624049,1.068907 -1.035238,1.525688 -0.373055,0.41442 -0.792974,0.804252 -1.278191,1.078984 -0.458873,0.259814 -0.985573,0.38286 -1.496926,0.511641 -0.482479,0.121509 -0.976997,0.201148 -1.472707,0.243862 -0.791379,0.06819 -2.382759,0.01848 -2.382759,0.01848 l 2.017497,-12.846555 c 0,0 0.481189,-0.01104 1.081711,-0.0091 z m 1.34313,2.356269 c -0.149551,-0.0055 -0.323481,0.01331 -0.323481,0.01331 l -1.351004,8.146429 c 0,0 0.769706,-0.0864 1.116071,-0.24492 0.287711,-0.131673 0.535882,-0.345402 0.760043,-0.568708 0.182381,-0.181685 0.331118,-0.396671 0.465016,-0.616543 0.190018,-0.312019 0.337676,-0.649292 0.474554,-0.988009 0.08504,-0.210434 0.15236,-0.427872 0.214343,-0.646211 0.05608,-0.197557 0.108004,-0.396956 0.142293,-0.599436 0.05612,-0.331426 0.07867,-0.667903 0.103237,-1.003146 0.03501,-0.477865 0.119985,-0.96035 0.06282,-1.436074 -0.03624,-0.301553 -0.125151,-0.600045 -0.254306,-0.874936 -0.136734,-0.291013 -0.299403,-0.586499 -0.541159,-0.798491 -0.205867,-0.180522 -0.467988,-0.304566 -0.734308,-0.368137 -0.03708,-0.0088 -0.08427,-0.01329 -0.134117,-0.01513 z"
         style="display:inline;opacity:1;fill:#ff6ea4;fill-rule:evenodd;stroke:none;stroke-width:0.28222221px;stroke-linecap:butt;stroke-linejoin:miter;stroke-opacity:1;fill-opacity:1" />
      <path
         sodipodi:nodetypes="ccccccccc"
         inkscape:connector-curvature="0"
         id="path4215"
         d="m 30.798513,21.371549 0.106299,1.109288 1.922841,-0.112715 0.613376,5.069558 1.459658,-0.08245 -0.460631,-5.260486 1.671825,-0.137823 -0.136455,-1.384145 z"
         style="display:inline;opacity:1;fill:#ff6ea4;fill-rule:evenodd;stroke:none;stroke-width:0.28222221px;stroke-linecap:butt;stroke-linejoin:miter;stroke-opacity:1;fill-opacity:1" />
      <path
         inkscape:connector-curvature="0"
         id="path4218"
         d="M 44.336078,7.3152552 37.954959,9.2115 l 1.850684,12.06759 6.835994,-2.24622 z m -1.90321,2.1688688 c 0.09393,0.0011 0.18764,0.0062 0.280647,0.01801 0.183125,0.02319 0.539187,0.126397 0.539187,0.126397 l -0.468042,1.53265 c 0,0 -0.248256,-0.0752 -0.375406,-0.09945 -0.129984,-0.0248 -0.262108,-0.05509 -0.394174,-0.04677 -0.116588,0.0074 -0.23547,0.03243 -0.339983,0.08461 -0.102479,0.05117 -0.200426,0.123355 -0.266719,0.216766 -0.04682,0.06597 -0.07323,0.147891 -0.08235,0.22827 -0.01299,0.114545 -0.01368,0.242006 0.04133,0.343314 0.05163,0.09507 0.153071,0.158426 0.24916,0.208137 0.116217,0.06012 0.251419,0.07368 0.37949,0.100512 0.224125,0.04696 0.458925,0.04124 0.678758,0.105355 0.20932,0.06105 0.417672,0.14181 0.598979,0.262935 0.110193,0.07361 0.199792,0.175267 0.287005,0.275044 0.0911,0.104227 0.179027,0.213767 0.244768,0.335594 0.0611,0.113206 0.102762,0.236846 0.135782,0.361174 0.03434,0.129295 0.04964,0.263263 0.06372,0.396295 0.01596,0.15072 0.02214,0.302561 0.02332,0.454118 0.0013,0.177981 0.0084,0.357733 -0.01909,0.533589 -0.03476,0.222593 -0.0831,0.448674 -0.18301,0.6506 -0.103047,0.208259 -0.260304,0.387337 -0.41885,0.557203 -0.129943,0.139225 -0.277553,0.262432 -0.431865,0.374042 -0.140763,0.101809 -0.287078,0.200401 -0.447457,0.267173 -0.229697,0.09564 -0.476454,0.152456 -0.723109,0.185129 -0.232076,0.03074 -0.46938,0.03337 -0.702219,0.0091 -0.333719,-0.03481 -0.982256,-0.220551 -0.982256,-0.220551 l 0.56477,-1.543396 c 0,0 0.442034,0.132369 0.670279,0.145317 0.129284,0.0073 0.26551,0.007 0.386604,-0.0389 0.120997,-0.04583 0.233422,-0.126342 0.315011,-0.226756 0.05505,-0.06776 0.08565,-0.154489 0.106262,-0.23932 0.02472,-0.101654 0.04065,-0.211109 0.01848,-0.313342 -0.02074,-0.09555 -0.06923,-0.188977 -0.137144,-0.259302 -0.07625,-0.07895 -0.184841,-0.120155 -0.285488,-0.163938 -0.122556,-0.05331 -0.253589,-0.08533 -0.383126,-0.118221 -0.135325,-0.03436 -0.274751,-0.05043 -0.410675,-0.08235 -0.134836,-0.03166 -0.272515,-0.05685 -0.401137,-0.108232 -0.119055,-0.04756 -0.233427,-0.109231 -0.338166,-0.183161 -0.09454,-0.06673 -0.182911,-0.144231 -0.258093,-0.232206 -0.06607,-0.07731 -0.115165,-0.168014 -0.166206,-0.255971 -0.06169,-0.106316 -0.128952,-0.211437 -0.168782,-0.327723 -0.05511,-0.160927 -0.08039,-0.332065 -0.0937,-0.501649 -0.01241,-0.158278 -0.0056,-0.318584 0.01332,-0.476219 0.02416,-0.201466 0.05784,-0.404603 0.127455,-0.595197 0.04893,-0.13396 0.12509,-0.25705 0.201176,-0.377675 0.08733,-0.138452 0.18404,-0.271622 0.291694,-0.394933 0.108064,-0.123775 0.225925,-0.240013 0.353457,-0.343616 0.114163,-0.09275 0.236752,-0.176281 0.365865,-0.246737 0.142046,-0.07751 0.295496,-0.13206 0.445947,-0.191638 0.116342,-0.04607 0.230961,-0.09974 0.352849,-0.128062 0.150233,-0.03491 0.305932,-0.0434 0.460022,-0.0501 0.09366,-0.004 0.187779,-0.007 0.281704,-0.006 z"
         style="display:inline;opacity:1;fill:#ff6ea4;fill-rule:evenodd;stroke:none;stroke-width:0.28222221px;stroke-linecap:butt;stroke-linejoin:miter;stroke-opacity:1;fill-opacity:1" />
      <path
         sodipodi:nodetypes="ccccccccsscccccsscccccsccccscsccsccsscscccccccscsccccccccccccccccccccccsscccccsss"
         inkscape:connector-curvature="0"
         d="m 35.447122,5.346506 -11.216548,-1.0196132 0.218547,12.6730952 8.667325,1.092496 0.874028,-2.549118 z m -6.283019,0.3807907 c 0.125941,-3.571e-4 0.249151,0.00518 0.369501,0.016646 0.486157,0.044486 0.922251,0.1721961 1.308466,0.3831245 0.386218,0.2109283 0.721953,0.5027596 1.007084,0.8755401 0.285129,0.3727795 0.516795,0.8149613 0.695104,1.3266307 L 30.546289,8.828163 C 30.452718,8.5344 30.339824,8.284593 30.207517,8.078565 30.079965,7.8713492 29.92645,7.7120055 29.74704,7.600681 29.57124,7.4835773 29.367155,7.4149911 29.134737,7.3949664 c -0.228807,-0.025805 -0.490686,-0.00192 -0.785625,0.07175 -0.30921,0.077213 -0.561845,0.2087156 -0.758074,0.3943258 -0.196229,0.1856108 -0.339601,0.4213558 -0.429899,0.7073658 -0.08554,0.284821 -0.118693,0.617523 -0.09945,0.998152 0.0181,0.376037 0.08453,0.79366 0.199207,1.252912 l 0.340589,1.36402 c 0.246565,0.987395 0.571596,1.682041 0.975143,2.083797 0.408303,0.40057 0.924154,0.522999 1.547333,0.367383 0.523279,-0.13067 0.903867,-0.367244 1.141803,-0.709636 0.236794,-0.346986 0.296613,-0.825379 0.179681,-1.435316 l 2.005233,-0.500741 c 0.09285,0.513493 0.09215,0.996698 -0.0019,1.449545 -0.08937,0.451659 -0.260167,0.860302 -0.512547,1.225817 -0.252378,0.365514 -0.582711,0.682054 -0.990885,0.949864 -0.409321,0.263216 -0.885138,0.462652 -1.427445,0.598073 -0.613665,0.153239 -1.185295,0.181223 -1.714903,0.08416 C 28.27224,16.19479 27.79636,15.989185 27.375399,15.679599 26.953291,15.365418 26.587879,14.95425 26.279007,14.44591 25.970134,13.937572 25.732998,13.352674 25.567858,12.691349 L 25.23075,11.341103 C 25.064463,10.675187 25.002925,10.044128 25.046076,9.447885 25.089226,8.85164 25.22798,8.31448 25.46235,7.8363691 25.696721,7.3582594 26.022411,6.9524808 26.439462,6.6190296 26.860122,6.2797973 27.365431,6.0365611 27.955309,5.8892616 28.383447,5.7823502 28.786349,5.7283301 29.16417,5.7272923 Z M 22.664611,2.6880346 13.399236,3.6055047 14.251161,20.706842 23.867116,19.562466 22.806075,4.673161 Z m -4.327142,1.596529 c 0.608897,0.01775 1.111437,0.3080064 1.507824,0.8708467 0.456365,0.6429302 0.73743,1.5891936 0.843147,2.8388447 0.08524,1.007573 0.0067,1.816181 -0.235537,2.425901 -0.239502,0.602862 -0.639646,1.003309 -1.200537,1.201142 0.245106,0.10225 0.464085,0.295918 0.65711,0.58112 0.195822,0.278347 0.383518,0.679523 0.562955,1.203415 l 1.458628,4.244945 0.914896,-0.08598 0.08795,1.040234 -1.769396,0.166359 -1.565649,-4.551476 c -0.300917,-0.881773 -0.556286,-1.444659 -0.766096,-1.688714 -0.210366,-0.2506 -0.479755,-0.360429 -0.808181,-0.329539 l -1.121066,0.105355 0.488178,5.770784 1.060668,-0.09976 0.0881,1.040234 -3.036386,0.285489 -0.08795,-1.040234 0.955161,-0.08976 -1.062788,-12.5619732 -0.955011,0.08977 -0.08886,-1.0500729 3.80536,-0.3578458 c 0.09133,-0.00854 0.18049,-0.011616 0.267475,-0.00912 z M 17.996426,5.369906 c -0.05973,-0.00173 -0.121268,4.118e-4 -0.184523,0.00634 l -1.482847,0.1395657 0.485603,5.7411153 1.482999,-0.139415 c 0.506044,-0.0476 0.860038,-0.315052 1.062033,-0.802275 0.20144,-0.493766 0.260583,-1.231365 0.177558,-2.212768 C 19.454228,7.121064 19.272444,6.4094909 18.991853,5.9676557 18.746339,5.5810484 18.414555,5.3817716 17.996426,5.3698848 Z"
         style="display:inline;opacity:1;fill:#ff6ea4;fill-rule:evenodd;stroke:none;stroke-width:0.28222221px;stroke-linecap:butt;stroke-linejoin:miter;stroke-opacity:1;fill-opacity:1"
         id="path4245" />
      <path
         sodipodi:nodetypes="ccccccccccccc"
         inkscape:connector-curvature="0"
         id="path4283"
         style="font-style:normal;font-weight:normal;font-size:180px;line-height:125%;font-family:'DejaVu Serif';letter-spacing:0px;word-spacing:0px;display:inline;opacity:1;fill:#ff6ea4;fill-opacity:1;stroke:none;stroke-width:3.64144278px;stroke-linecap:butt;stroke-linejoin:miter;stroke-opacity:1;font-variant:normal;font-stretch:normal;-inkscape-font-specification:'DejaVu Serif'"
         d="m 60.448649,91.238373 h 16.699219 v 9.316407 l -51.592536,6.71136 0.352302,-16.027767 h 16.699219 v -112.5 H 25.907634 v -9.404297 l 50.816017,-6.148015 0.424217,15.552312 -21.108884,0.865336 z"
         transform="matrix(0.12037647,-0.02118403,0.0182621,0.13011403,1.6451551,10.135048)" />
      <path
         sodipodi:nodetypes="ccccc"
         inkscape:connector-curvature="0"
         id="rect5698"
         d="M 38.18931,3.8230685 40.861547,4.0321271 38.748393,7.353371 37.764503,6.7987341 Z"
         style="opacity:1;fill:#ff6ea4;fill-opacity:1;stroke:none;stroke-width:2.29400015;stroke-linecap:butt;stroke-linejoin:miter;stroke-miterlimit:4;stroke-dasharray:none;stroke-opacity:1;paint-order:normal" />
    </g>
  </g>
</svg>
