<svg width="796" height="148" viewBox="0 0 796 148" fill="none" xmlns="http://www.w3.org/2000/svg">
<g filter="url(#filter0_dd_814_462)">
<mask id="path-1-outside-1_814_462" maskUnits="userSpaceOnUse" x="2" y="3.61633" width="792" height="140" fill="black">
<rect fill="white" x="2" y="3.61633" width="792" height="140"/>
<path d="M239.06 42.1652V48.3815H245.101V101.777H252.959V42.1652H239.06Z"/>
<path d="M271.284 44.9229H263.836V58.1765H256.33V64.0409H263.836V86.912C263.684 90.099 264.329 93.2737 265.713 96.1484C266.959 98.3265 268.931 99.9974 271.284 100.869C274.007 101.86 276.89 102.337 279.787 102.277H286.473V95.2394H278.703C276.699 95.3633 274.727 94.6886 273.219 93.3628C272.552 92.6208 272.038 91.7546 271.706 90.8138C271.374 89.8729 271.231 88.8759 271.284 87.8796V64.0409H286.297V58.1765H271.284V44.9229Z"/>
<path d="M183.845 91.3978C182.696 92.8959 181.209 94.1015 179.505 94.9164C177.513 95.8374 175.336 96.2888 173.142 96.2359C170.337 96.3177 167.571 95.5623 165.196 94.0661C163.131 92.5855 161.526 90.553 160.563 88.2017C159.498 85.5769 158.97 82.7653 159.009 79.9329C158.953 77.08 159.482 74.2459 160.563 71.6054C161.509 69.2442 163.118 67.2073 165.196 65.741C167.512 64.266 170.222 63.5298 172.966 63.6299C176.075 63.4712 179.134 64.4628 181.558 66.4155C183.624 68.1144 184.966 70.5362 185.311 73.1888H192.817C192.709 70.0352 191.69 66.9803 189.885 64.3922C188.114 61.8356 185.682 59.8086 182.848 58.5278C179.776 57.1254 176.431 56.4243 173.054 56.4753C169.762 56.412 166.496 57.0831 163.495 58.4399C160.811 59.7319 158.439 61.593 156.546 63.8938C154.758 66.0178 153.376 68.453 152.47 71.0776C151.565 73.7013 151.09 76.4539 151.063 79.2291V80.6952C151.071 83.417 151.517 86.1197 152.382 88.7001C153.313 91.3673 154.691 93.8563 156.458 96.06C158.313 98.2677 160.624 100.048 163.232 101.279C166.319 102.656 169.675 103.327 173.054 103.244C176.479 103.306 179.875 102.605 182.995 101.191C185.864 99.8901 188.348 97.8701 190.208 95.3269C192.027 92.7458 193.046 89.6866 193.14 86.5303H185.78C185.574 88.2946 184.906 89.9733 183.845 91.3978Z"/>
<path d="M427.423 51.1389C428.124 51.1951 428.83 51.1012 429.492 50.8636C430.154 50.626 430.758 50.25 431.264 49.7608C432.13 48.7971 432.592 47.5372 432.554 46.2421C432.592 44.9471 432.13 43.6871 431.264 42.7235C430.763 42.2237 430.162 41.8369 429.499 41.5891C428.837 41.3413 428.129 41.2382 427.423 41.2867C426.708 41.2327 425.99 41.3273 425.314 41.5645C424.638 41.8017 424.018 42.1763 423.494 42.6649C422.659 43.6433 422.22 44.8981 422.262 46.1835C422.22 47.4688 422.659 48.7237 423.494 49.7021C424.013 50.2011 424.631 50.5866 425.307 50.834C425.984 51.0813 426.704 51.1852 427.423 51.1389Z"/>
<path d="M226.919 84.1255C227.015 85.725 226.789 87.3275 226.255 88.8384C225.722 90.3493 224.89 91.7378 223.811 92.9221C222.754 93.9495 221.5 94.7521 220.124 95.2812C218.748 95.8104 217.279 96.0552 215.806 96.0009C214.419 96.0633 213.035 95.8346 211.742 95.3296C210.449 94.8246 209.277 94.0544 208.3 93.0687C206.339 90.8445 205.338 87.9354 205.514 84.9758V58.0876H197.685V83.3924C197.324 88.6151 198.797 93.8 201.849 98.0534C203.313 99.7534 205.147 101.095 207.211 101.974C209.275 102.854 211.513 103.248 213.753 103.126H214.076C217.106 103.254 220.102 102.456 222.667 100.839C225.029 99.1583 226.82 96.7945 227.799 94.0656C228.095 93.3111 228.34 92.5371 228.532 91.7492V101.836H234.748V58.0876H226.919V84.1255Z"/>
<path d="M296.47 51.1386C297.172 51.1986 297.878 51.1066 298.541 50.8688C299.204 50.6309 299.808 50.2529 300.311 49.7605C301.196 48.8063 301.67 47.5425 301.631 46.2419C301.67 44.9412 301.196 43.6774 300.311 42.7232C299.813 42.2203 299.211 41.8314 298.548 41.5833C297.885 41.3353 297.176 41.234 296.47 41.2864C295.76 41.233 295.046 41.3279 294.375 41.5652C293.704 41.8024 293.089 42.1768 292.57 42.6646C291.736 43.643 291.296 44.8979 291.339 46.1832C291.296 47.4686 291.736 48.7234 292.57 49.7018C293.084 50.2001 293.697 50.5853 294.368 50.8327C295.04 51.0802 295.756 51.1844 296.47 51.1386Z"/>
<path d="M287.556 58.1764V64.3927H294.271V101.778H302.1V58.1764H287.556Z"/>
<path d="M480.233 63.8056C478.166 61.5925 475.659 59.8349 472.874 58.645C466.546 56.0254 459.438 56.0254 453.111 58.645C450.334 59.8354 447.837 61.5932 445.78 63.8056C443.828 65.9057 442.322 68.3794 441.353 71.0775C440.319 73.6706 439.792 76.4375 439.798 79.229V80.6951C439.79 83.4881 440.287 86.2597 441.265 88.8759C442.302 91.5541 443.823 94.0189 445.751 96.1478C447.835 98.3213 450.326 100.065 453.081 101.279C459.52 103.898 466.728 103.898 473.167 101.279C475.857 100.109 478.283 98.4073 480.298 96.2758C482.314 94.1444 483.878 91.6273 484.896 88.8759C485.915 86.2685 486.442 83.4947 486.45 80.6951V79.229C486.442 76.4389 485.915 73.6747 484.896 71.0775C483.856 68.3596 482.269 65.8845 480.233 63.8056ZM476.539 88.2015C475.36 90.6188 473.52 92.6523 471.232 94.0659C468.712 95.5484 465.826 96.2903 462.904 96.2064C459.956 96.2772 457.045 95.5368 454.489 94.0659C452.228 92.6195 450.396 90.5947 449.181 88.2015C447.958 85.6193 447.346 82.7898 447.393 79.9327C447.339 77.0464 447.983 74.1897 449.269 71.6053C450.484 69.1845 452.353 67.1528 454.665 65.7409C457.195 64.355 460.034 63.6285 462.919 63.6285C465.804 63.6285 468.643 64.355 471.173 65.7409C473.475 67.1546 475.335 69.1866 476.539 71.6053C477.825 74.1897 478.469 77.0464 478.415 79.9327C478.462 82.7995 477.818 85.6355 476.539 88.2015Z"/>
<path d="M526.677 62.017C525.228 60.2629 523.381 58.8798 521.29 57.9822C519.2 57.0847 516.925 56.6987 514.655 56.8563H514.332C511.144 56.736 507.991 57.5624 505.272 59.2314C502.794 60.8524 500.903 63.227 499.877 66.0048C499.584 66.7509 499.339 67.5148 499.144 68.2919V58.1758H492.927V101.778H500.786V75.7103C500.713 74.1571 500.956 72.6052 501.5 71.1487C502.045 69.6921 502.879 68.3611 503.953 67.2363C505.049 66.163 506.353 65.3257 507.785 64.776C509.218 64.2263 510.747 63.9759 512.28 64.0402C513.737 63.9591 515.194 64.195 516.55 64.7316C517.907 65.2682 519.131 66.0928 520.138 67.1483C522.143 69.3545 523.197 72.2627 523.07 75.2412V101.631H530.929V76.7073C531.177 71.4749 529.681 66.3082 526.677 62.017Z"/>
<path d="M418.508 58.1764V64.3927H425.194V101.778H433.052V58.1764H418.508Z"/>
<path d="M402.293 44.9229H394.757V58.1765H387.251V64.0409H394.757V86.912C394.619 90.0978 395.264 93.269 396.634 96.1484C397.862 98.3077 399.799 99.9757 402.117 100.869C404.839 101.864 407.723 102.341 410.62 102.277H417.306V95.2394H409.623C408.635 95.3033 407.645 95.1703 406.708 94.8482C405.772 94.526 404.909 94.0211 404.17 93.3628C402.844 91.855 402.169 89.8836 402.293 87.8796V64.0409H417.306V58.1765H402.293V44.9229Z"/>
<path d="M328.785 95.5619H327.025L314.563 58.1764H306.412L321.278 101.778H334.414L347.316 58.1764H339.634L328.785 95.5619Z"/>
<path d="M376.227 59.32C372.703 58.1057 368.986 57.5491 365.261 57.6779H361.185C359.777 57.6779 358.253 57.6779 357.021 57.6779C355.79 57.6779 354.47 57.6779 353.268 57.9418V65.0377C354.47 65.0377 355.878 64.8325 357.52 64.7738H367.87C369.099 64.6802 370.335 64.8344 371.504 65.2273C372.672 65.6201 373.75 66.2437 374.673 67.0609C375.503 67.972 376.138 69.0423 376.542 70.2066C376.945 71.371 377.107 72.6053 377.019 73.8343V74.8899H365.994C362.712 74.8119 359.446 75.3695 356.376 76.5319C353.897 77.409 351.754 79.0391 350.248 81.1941C348.801 83.5094 348.085 86.2071 348.195 88.9351C348.126 91.6173 348.774 94.2694 350.072 96.6175C351.386 98.7469 353.291 100.448 355.555 101.514C358.24 102.66 361.139 103.22 364.058 103.156C366.733 103.234 369.387 102.671 371.799 101.514C373.941 100.408 375.699 98.681 376.843 96.5588C377.471 95.4698 377.964 94.3078 378.309 93.0988V101.895H384.525V74.1862C384.678 70.8196 383.972 67.4694 382.473 64.4513C381.091 62.0322 378.868 60.2058 376.227 59.32ZM375.142 92.3072C374.125 93.8384 372.676 95.0326 370.978 95.7378C369.284 96.3859 367.485 96.714 365.671 96.7055C363.061 96.8755 360.478 96.0942 358.399 94.5063C357.566 93.7808 356.906 92.877 356.469 91.8617C356.033 90.8465 355.831 89.746 355.878 88.6419C355.847 87.54 356.057 86.4446 356.492 85.4319C356.928 84.4192 357.578 83.5134 358.399 82.7775C360.454 81.136 363.047 80.3204 365.671 80.4904H377.019V85.5338C377.069 87.9266 376.417 90.2817 375.142 92.3072Z"/>
<path d="M583.563 80.3724C580.217 78.0853 576.318 76.7385 572.274 76.4726L567.436 75.9741C565.438 75.8919 563.505 75.2409 561.865 74.0975C561.326 73.5993 560.903 72.9896 560.624 72.311C560.346 71.6324 560.219 70.9012 560.252 70.1684C560.243 69.248 560.45 68.3385 560.858 67.5133C561.265 66.6881 561.861 65.9704 562.598 65.4182C564.643 64.041 567.087 63.3811 569.547 63.5416C571.981 63.3713 574.4 64.033 576.408 65.4182C577.136 65.9124 577.738 66.5703 578.166 67.3393C578.594 68.1082 578.835 68.9667 578.871 69.8458H586.202C586.272 67.9607 585.878 66.0872 585.055 64.3899C584.232 62.6925 583.004 61.2232 581.481 60.1109C577.943 57.8012 573.768 56.6626 569.547 56.8562C566.581 56.8033 563.637 57.3623 560.897 58.4982C558.544 59.4291 556.508 61.0169 555.033 63.0724C553.581 65.1478 552.841 67.6372 552.921 70.1684C552.819 71.8427 553.123 73.517 553.807 75.0486C554.491 76.5802 555.535 77.9238 556.85 78.9649C559.81 81.1203 563.315 82.4005 566.967 82.6595L571.717 83.1287C574.057 83.2257 576.332 83.9333 578.314 85.1812C578.982 85.6436 579.521 86.2686 579.88 86.9971C580.239 87.7256 580.407 88.5337 580.367 89.3449C580.353 90.3619 580.092 91.3604 579.607 92.2543C579.122 93.1482 578.427 93.9108 577.581 94.4763C575.201 95.998 572.395 96.7173 569.576 96.5288C566.701 96.6732 563.868 95.8012 561.571 94.0658C560.141 92.8485 559.238 91.1254 559.05 89.257H551.69C551.665 91.186 552.085 93.0947 552.92 94.8342C553.754 96.5738 554.979 98.097 556.499 99.2851C560.399 101.968 565.085 103.269 569.811 102.98C573.032 103.036 576.232 102.448 579.223 101.25C581.732 100.196 583.925 98.5085 585.586 96.3529C587.158 94.2572 587.993 91.7006 587.961 89.081C588 87.3797 587.62 85.695 586.852 84.176C586.085 82.657 584.955 81.3506 583.563 80.3724Z"/>
<path d="M547.615 91.8079H538.144V101.777H547.615V91.8079Z"/>
<path d="M767.999 77.9382C768.022 74.3851 767.23 70.8741 765.683 67.6755C764.21 64.4524 761.838 61.7235 758.851 59.8172C755.344 57.6228 751.255 56.5394 747.122 56.7091C743.829 56.6457 740.564 57.3168 737.563 58.6736C734.994 59.8606 732.736 61.6271 730.965 63.8343C729.212 65.9579 727.878 68.3959 727.036 71.0182C726.216 73.6876 725.801 76.465 725.805 79.2576V80.7237C725.803 83.497 726.218 86.2548 727.036 88.9046C727.896 91.5457 729.228 94.0094 730.965 96.1764C732.803 98.38 735.12 100.135 737.739 101.308C740.845 102.69 744.221 103.361 747.62 103.272C750.782 103.327 753.922 102.749 756.857 101.572C759.52 100.495 761.867 98.7601 763.677 96.5293C765.488 94.2985 766.702 91.6448 767.207 88.8166H759.877C759.3 91.0023 757.903 92.8818 755.977 94.0652C753.514 95.6906 750.598 96.4915 747.65 96.3524C744.803 96.4614 741.987 95.727 739.557 94.2412C737.447 92.7863 735.807 90.7485 734.836 88.3768C733.989 86.1532 733.513 83.8054 733.428 81.4275H767.999V77.9382ZM739.41 65.6816C741.711 64.1934 744.413 63.4463 747.151 63.5411C749.761 63.4498 752.344 64.1005 754.599 65.4177C756.568 66.7141 758.101 68.5738 758.997 70.7543C759.641 72.2902 760.065 73.909 760.258 75.5631H733.868C734.075 74.1647 734.449 72.7962 734.983 71.4873C735.87 69.1669 737.407 67.1513 739.41 65.6816Z"/>
<path d="M714.691 91.3976C713.557 92.8993 712.079 94.1061 710.38 94.9163C708.378 95.8377 706.192 96.289 703.988 96.2357C701.196 96.3222 698.44 95.5772 696.071 94.0952C694.006 92.6085 692.392 90.5787 691.409 88.2309C690.367 85.6002 689.849 82.7913 689.884 79.9621C689.833 77.1124 690.352 74.2812 691.409 71.6346C692.377 69.278 693.994 67.2444 696.071 65.7702C698.388 64.2952 701.097 63.559 703.842 63.659C706.942 63.4994 709.991 64.4915 712.404 66.4446C714.479 68.1357 715.823 70.5616 716.157 73.218H723.693C723.584 70.0644 722.566 67.0095 720.76 64.4214C718.983 61.8708 716.552 59.8452 713.723 58.557C710.65 57.1574 707.306 56.4564 703.93 56.5045C700.637 56.4382 697.371 57.1094 694.371 58.4691C691.737 59.712 689.398 61.5012 687.509 63.7177C685.71 65.8342 684.328 68.2716 683.434 70.9016C682.559 73.5302 682.113 76.2827 682.114 79.0531V80.5192C682.123 83.2409 682.568 85.9436 683.434 88.5241C684.352 91.1966 685.731 93.6875 687.509 95.8839C689.352 98.1048 691.666 99.8877 694.283 101.103C697.36 102.479 700.706 103.15 704.076 103.068C707.511 103.132 710.916 102.431 714.046 101.015C716.906 99.7132 719.381 97.6929 721.23 95.1508C723.061 92.5761 724.082 89.513 724.162 86.3542H716.655C716.468 88.1819 715.789 89.9247 714.691 91.3976Z"/>
<path d="M632.236 63.3955C629.223 60.0969 625.217 57.8712 620.825 57.0563C616.432 56.2413 611.894 56.8816 607.899 58.8799C605.038 60.3602 602.68 62.6563 601.125 65.4773C600.54 66.5529 600.059 67.682 599.688 68.8493V58.1761H593.472V118.11H601.301V95.1805C602.91 97.7599 605.204 99.8411 607.928 101.191C610.667 102.533 613.675 103.235 616.725 103.244C619.647 103.288 622.543 102.676 625.199 101.455C627.758 100.301 630.053 98.6349 631.943 96.5586C633.853 94.4658 635.346 92.0275 636.341 89.3747C637.394 86.5626 637.921 83.5808 637.895 80.5781V79.112C637.907 76.1659 637.411 73.2397 636.429 70.462C635.503 67.8569 634.079 65.4568 632.236 63.3955ZM628.307 88.5537C627.203 90.9747 625.403 93.0121 623.136 94.4064C620.87 95.8007 618.24 96.4886 615.581 96.3827C613.084 96.4022 610.62 95.8188 608.397 94.682C606.085 93.5142 604.155 91.7094 602.836 89.4805C601.516 87.2516 600.861 84.6916 600.949 82.1029V78.3496C600.877 75.5723 601.555 72.8269 602.914 70.4034C604.208 68.2531 606.077 66.5065 608.309 65.36C610.542 64.1525 613.043 63.5273 615.581 63.5421C618.296 63.4915 620.966 64.2355 623.263 65.6826C625.458 67.0651 627.209 69.05 628.307 71.4003C629.565 74.076 630.187 77.0064 630.125 79.9624C630.174 82.9265 629.552 85.8634 628.307 88.5537Z"/>
<path d="M668.301 59.32C664.777 58.1057 661.06 57.5491 657.335 57.6779H653.259C651.852 57.6779 650.327 57.6779 649.096 57.6779C647.864 57.6779 646.545 57.6779 645.342 57.9418V65.0377C646.545 65.0377 647.952 64.8325 649.594 64.7738H659.974C661.199 64.6825 662.429 64.8379 663.593 65.2308C664.756 65.6236 665.829 66.246 666.747 67.0609C667.583 67.9681 668.222 69.0378 668.626 70.2032C669.03 71.3686 669.189 72.6047 669.093 73.8343V74.8899H658.068C654.786 74.8119 651.52 75.3695 648.451 76.5319C645.972 77.409 643.829 79.0391 642.322 81.1941C640.888 83.5151 640.174 86.2087 640.27 88.9351C640.2 91.6173 640.848 94.2694 642.146 96.6175C643.46 98.7469 645.366 100.448 647.63 101.514C650.315 102.66 653.214 103.22 656.133 103.156C658.807 103.234 661.461 102.671 663.874 101.514C666.002 100.487 667.77 98.842 668.946 96.7934C669.575 95.7044 670.067 94.5424 670.413 93.3334V102.13H676.629V74.1862C676.797 70.8184 676.089 67.4646 674.576 64.4513C673.188 62.0267 670.953 60.1995 668.301 59.32ZM667.129 92.3072C666.112 93.8384 664.662 95.0326 662.965 95.7378C661.271 96.3859 659.471 96.714 657.658 96.7055C655.056 96.8791 652.481 96.0971 650.415 94.5063C649.573 93.7864 648.905 92.8843 648.463 91.8683C648.021 90.8522 647.816 89.7489 647.864 88.6419C647.833 87.5372 648.046 86.4391 648.487 85.4257C648.927 84.4122 649.586 83.5081 650.415 82.7775C652.455 81.1302 655.042 80.3134 657.658 80.4904H669.005V85.5338C669.056 87.9266 668.404 90.2817 667.129 92.3072Z"/>
<path d="M109.341 43.8495C102.275 42.144 94.7219 43.2404 88.3868 47.2607C86.5594 48.3571 84.8539 49.6972 83.3919 51.281C81.6864 52.9866 80.2244 54.9358 79.0062 56.885C77.6661 52.6211 75.595 48.479 72.793 44.8242C71.8184 43.4841 70.7219 42.2658 69.5037 41.0475C59.5138 31.0577 45.7474 27.6465 33.0774 30.6922C33.0774 30.6922 32.7119 31.6668 32.7119 31.9105V32.0323C31.8591 35.1998 31.4936 38.611 31.4936 42.144C31.4936 64.682 49.7677 82.956 72.3057 82.956C85.0975 82.956 96.4274 77.1083 103.981 67.8495C109.463 60.9053 111.29 52.012 109.341 43.8495Z"/>
<path fill-rule="evenodd" clip-rule="evenodd" d="M34.9859 99.6389V84.0668H28V106.625H114.925V84.0668H107.939V99.6389H34.9859Z"/>
</mask>
<path d="M239.06 42.1652V48.3815H245.101V101.777H252.959V42.1652H239.06Z" fill="#1F2937"/>
<path d="M271.284 44.9229H263.836V58.1765H256.33V64.0409H263.836V86.912C263.684 90.099 264.329 93.2737 265.713 96.1484C266.959 98.3265 268.931 99.9974 271.284 100.869C274.007 101.86 276.89 102.337 279.787 102.277H286.473V95.2394H278.703C276.699 95.3633 274.727 94.6886 273.219 93.3628C272.552 92.6208 272.038 91.7546 271.706 90.8138C271.374 89.8729 271.231 88.8759 271.284 87.8796V64.0409H286.297V58.1765H271.284V44.9229Z" fill="#1F2937"/>
<path d="M183.845 91.3978C182.696 92.8959 181.209 94.1015 179.505 94.9164C177.513 95.8374 175.336 96.2888 173.142 96.2359C170.337 96.3177 167.571 95.5623 165.196 94.0661C163.131 92.5855 161.526 90.553 160.563 88.2017C159.498 85.5769 158.97 82.7653 159.009 79.9329C158.953 77.08 159.482 74.2459 160.563 71.6054C161.509 69.2442 163.118 67.2073 165.196 65.741C167.512 64.266 170.222 63.5298 172.966 63.6299C176.075 63.4712 179.134 64.4628 181.558 66.4155C183.624 68.1144 184.966 70.5362 185.311 73.1888H192.817C192.709 70.0352 191.69 66.9803 189.885 64.3922C188.114 61.8356 185.682 59.8086 182.848 58.5278C179.776 57.1254 176.431 56.4243 173.054 56.4753C169.762 56.412 166.496 57.0831 163.495 58.4399C160.811 59.7319 158.439 61.593 156.546 63.8938C154.758 66.0178 153.376 68.453 152.47 71.0776C151.565 73.7013 151.09 76.4539 151.063 79.2291V80.6952C151.071 83.417 151.517 86.1197 152.382 88.7001C153.313 91.3673 154.691 93.8563 156.458 96.06C158.313 98.2677 160.624 100.048 163.232 101.279C166.319 102.656 169.675 103.327 173.054 103.244C176.479 103.306 179.875 102.605 182.995 101.191C185.864 99.8901 188.348 97.8701 190.208 95.3269C192.027 92.7458 193.046 89.6866 193.14 86.5303H185.78C185.574 88.2946 184.906 89.9733 183.845 91.3978Z" fill="#1F2937"/>
<path d="M427.423 51.1389C428.124 51.1951 428.83 51.1012 429.492 50.8636C430.154 50.626 430.758 50.25 431.264 49.7608C432.13 48.7971 432.592 47.5372 432.554 46.2421C432.592 44.9471 432.13 43.6871 431.264 42.7235C430.763 42.2237 430.162 41.8369 429.499 41.5891C428.837 41.3413 428.129 41.2382 427.423 41.2867C426.708 41.2327 425.99 41.3273 425.314 41.5645C424.638 41.8017 424.018 42.1763 423.494 42.6649C422.659 43.6433 422.22 44.8981 422.262 46.1835C422.22 47.4688 422.659 48.7237 423.494 49.7021C424.013 50.2011 424.631 50.5866 425.307 50.834C425.984 51.0813 426.704 51.1852 427.423 51.1389Z" fill="#1F2937"/>
<path d="M226.919 84.1255C227.015 85.725 226.789 87.3275 226.255 88.8384C225.722 90.3493 224.89 91.7378 223.811 92.9221C222.754 93.9495 221.5 94.7521 220.124 95.2812C218.748 95.8104 217.279 96.0552 215.806 96.0009C214.419 96.0633 213.035 95.8346 211.742 95.3296C210.449 94.8246 209.277 94.0544 208.3 93.0687C206.339 90.8445 205.338 87.9354 205.514 84.9758V58.0876H197.685V83.3924C197.324 88.6151 198.797 93.8 201.849 98.0534C203.313 99.7534 205.147 101.095 207.211 101.974C209.275 102.854 211.513 103.248 213.753 103.126H214.076C217.106 103.254 220.102 102.456 222.667 100.839C225.029 99.1583 226.82 96.7945 227.799 94.0656C228.095 93.3111 228.34 92.5371 228.532 91.7492V101.836H234.748V58.0876H226.919V84.1255Z" fill="#1F2937"/>
<path d="M296.47 51.1386C297.172 51.1986 297.878 51.1066 298.541 50.8688C299.204 50.6309 299.808 50.2529 300.311 49.7605C301.196 48.8063 301.67 47.5425 301.631 46.2419C301.67 44.9412 301.196 43.6774 300.311 42.7232C299.813 42.2203 299.211 41.8314 298.548 41.5833C297.885 41.3353 297.176 41.234 296.47 41.2864C295.76 41.233 295.046 41.3279 294.375 41.5652C293.704 41.8024 293.089 42.1768 292.57 42.6646C291.736 43.643 291.296 44.8979 291.339 46.1832C291.296 47.4686 291.736 48.7234 292.57 49.7018C293.084 50.2001 293.697 50.5853 294.368 50.8327C295.04 51.0802 295.756 51.1844 296.47 51.1386Z" fill="#1F2937"/>
<path d="M287.556 58.1764V64.3927H294.271V101.778H302.1V58.1764H287.556Z" fill="#1F2937"/>
<path d="M480.233 63.8056C478.166 61.5925 475.659 59.8349 472.874 58.645C466.546 56.0254 459.438 56.0254 453.111 58.645C450.334 59.8354 447.837 61.5932 445.78 63.8056C443.828 65.9057 442.322 68.3794 441.353 71.0775C440.319 73.6706 439.792 76.4375 439.798 79.229V80.6951C439.79 83.4881 440.287 86.2597 441.265 88.8759C442.302 91.5541 443.823 94.0189 445.751 96.1478C447.835 98.3213 450.326 100.065 453.081 101.279C459.52 103.898 466.728 103.898 473.167 101.279C475.857 100.109 478.283 98.4073 480.298 96.2758C482.314 94.1444 483.878 91.6273 484.896 88.8759C485.915 86.2685 486.442 83.4947 486.45 80.6951V79.229C486.442 76.4389 485.915 73.6747 484.896 71.0775C483.856 68.3596 482.269 65.8845 480.233 63.8056ZM476.539 88.2015C475.36 90.6188 473.52 92.6523 471.232 94.0659C468.712 95.5484 465.826 96.2903 462.904 96.2064C459.956 96.2772 457.045 95.5368 454.489 94.0659C452.228 92.6195 450.396 90.5947 449.181 88.2015C447.958 85.6193 447.346 82.7898 447.393 79.9327C447.339 77.0464 447.983 74.1897 449.269 71.6053C450.484 69.1845 452.353 67.1528 454.665 65.7409C457.195 64.355 460.034 63.6285 462.919 63.6285C465.804 63.6285 468.643 64.355 471.173 65.7409C473.475 67.1546 475.335 69.1866 476.539 71.6053C477.825 74.1897 478.469 77.0464 478.415 79.9327C478.462 82.7995 477.818 85.6355 476.539 88.2015Z" fill="#1F2937"/>
<path d="M526.677 62.017C525.228 60.2629 523.381 58.8798 521.29 57.9822C519.2 57.0847 516.925 56.6987 514.655 56.8563H514.332C511.144 56.736 507.991 57.5624 505.272 59.2314C502.794 60.8524 500.903 63.227 499.877 66.0048C499.584 66.7509 499.339 67.5148 499.144 68.2919V58.1758H492.927V101.778H500.786V75.7103C500.713 74.1571 500.956 72.6052 501.5 71.1487C502.045 69.6921 502.879 68.3611 503.953 67.2363C505.049 66.163 506.353 65.3257 507.785 64.776C509.218 64.2263 510.747 63.9759 512.28 64.0402C513.737 63.9591 515.194 64.195 516.55 64.7316C517.907 65.2682 519.131 66.0928 520.138 67.1483C522.143 69.3545 523.197 72.2627 523.07 75.2412V101.631H530.929V76.7073C531.177 71.4749 529.681 66.3082 526.677 62.017Z" fill="#1F2937"/>
<path d="M418.508 58.1764V64.3927H425.194V101.778H433.052V58.1764H418.508Z" fill="#1F2937"/>
<path d="M402.293 44.9229H394.757V58.1765H387.251V64.0409H394.757V86.912C394.619 90.0978 395.264 93.269 396.634 96.1484C397.862 98.3077 399.799 99.9757 402.117 100.869C404.839 101.864 407.723 102.341 410.62 102.277H417.306V95.2394H409.623C408.635 95.3033 407.645 95.1703 406.708 94.8482C405.772 94.526 404.909 94.0211 404.17 93.3628C402.844 91.855 402.169 89.8836 402.293 87.8796V64.0409H417.306V58.1765H402.293V44.9229Z" fill="#1F2937"/>
<path d="M328.785 95.5619H327.025L314.563 58.1764H306.412L321.278 101.778H334.414L347.316 58.1764H339.634L328.785 95.5619Z" fill="#1F2937"/>
<path d="M376.227 59.32C372.703 58.1057 368.986 57.5491 365.261 57.6779H361.185C359.777 57.6779 358.253 57.6779 357.021 57.6779C355.79 57.6779 354.47 57.6779 353.268 57.9418V65.0377C354.47 65.0377 355.878 64.8325 357.52 64.7738H367.87C369.099 64.6802 370.335 64.8344 371.504 65.2273C372.672 65.6201 373.75 66.2437 374.673 67.0609C375.503 67.972 376.138 69.0423 376.542 70.2066C376.945 71.371 377.107 72.6053 377.019 73.8343V74.8899H365.994C362.712 74.8119 359.446 75.3695 356.376 76.5319C353.897 77.409 351.754 79.0391 350.248 81.1941C348.801 83.5094 348.085 86.2071 348.195 88.9351C348.126 91.6173 348.774 94.2694 350.072 96.6175C351.386 98.7469 353.291 100.448 355.555 101.514C358.24 102.66 361.139 103.22 364.058 103.156C366.733 103.234 369.387 102.671 371.799 101.514C373.941 100.408 375.699 98.681 376.843 96.5588C377.471 95.4698 377.964 94.3078 378.309 93.0988V101.895H384.525V74.1862C384.678 70.8196 383.972 67.4694 382.473 64.4513C381.091 62.0322 378.868 60.2058 376.227 59.32ZM375.142 92.3072C374.125 93.8384 372.676 95.0326 370.978 95.7378C369.284 96.3859 367.485 96.714 365.671 96.7055C363.061 96.8755 360.478 96.0942 358.399 94.5063C357.566 93.7808 356.906 92.877 356.469 91.8617C356.033 90.8465 355.831 89.746 355.878 88.6419C355.847 87.54 356.057 86.4446 356.492 85.4319C356.928 84.4192 357.578 83.5134 358.399 82.7775C360.454 81.136 363.047 80.3204 365.671 80.4904H377.019V85.5338C377.069 87.9266 376.417 90.2817 375.142 92.3072Z" fill="#1F2937"/>
<path d="M583.563 80.3724C580.217 78.0853 576.318 76.7385 572.274 76.4726L567.436 75.9741C565.438 75.8919 563.505 75.2409 561.865 74.0975C561.326 73.5993 560.903 72.9896 560.624 72.311C560.346 71.6324 560.219 70.9012 560.252 70.1684C560.243 69.248 560.45 68.3385 560.858 67.5133C561.265 66.6881 561.861 65.9704 562.598 65.4182C564.643 64.041 567.087 63.3811 569.547 63.5416C571.981 63.3713 574.4 64.033 576.408 65.4182C577.136 65.9124 577.738 66.5703 578.166 67.3393C578.594 68.1082 578.835 68.9667 578.871 69.8458H586.202C586.272 67.9607 585.878 66.0872 585.055 64.3899C584.232 62.6925 583.004 61.2232 581.481 60.1109C577.943 57.8012 573.768 56.6626 569.547 56.8562C566.581 56.8033 563.637 57.3623 560.897 58.4982C558.544 59.4291 556.508 61.0169 555.033 63.0724C553.581 65.1478 552.841 67.6372 552.921 70.1684C552.819 71.8427 553.123 73.517 553.807 75.0486C554.491 76.5802 555.535 77.9238 556.85 78.9649C559.81 81.1203 563.315 82.4005 566.967 82.6595L571.717 83.1287C574.057 83.2257 576.332 83.9333 578.314 85.1812C578.982 85.6436 579.521 86.2686 579.88 86.9971C580.239 87.7256 580.407 88.5337 580.367 89.3449C580.353 90.3619 580.092 91.3604 579.607 92.2543C579.122 93.1482 578.427 93.9108 577.581 94.4763C575.201 95.998 572.395 96.7173 569.576 96.5288C566.701 96.6732 563.868 95.8012 561.571 94.0658C560.141 92.8485 559.238 91.1254 559.05 89.257H551.69C551.665 91.186 552.085 93.0947 552.92 94.8342C553.754 96.5738 554.979 98.097 556.499 99.2851C560.399 101.968 565.085 103.269 569.811 102.98C573.032 103.036 576.232 102.448 579.223 101.25C581.732 100.196 583.925 98.5085 585.586 96.3529C587.158 94.2572 587.993 91.7006 587.961 89.081C588 87.3797 587.62 85.695 586.852 84.176C586.085 82.657 584.955 81.3506 583.563 80.3724Z" fill="#1F2937"/>
<path d="M547.615 91.8079H538.144V101.777H547.615V91.8079Z" fill="#1F2937"/>
<path d="M767.999 77.9382C768.022 74.3851 767.23 70.8741 765.683 67.6755C764.21 64.4524 761.838 61.7235 758.851 59.8172C755.344 57.6228 751.255 56.5394 747.122 56.7091C743.829 56.6457 740.564 57.3168 737.563 58.6736C734.994 59.8606 732.736 61.6271 730.965 63.8343C729.212 65.9579 727.878 68.3959 727.036 71.0182C726.216 73.6876 725.801 76.465 725.805 79.2576V80.7237C725.803 83.497 726.218 86.2548 727.036 88.9046C727.896 91.5457 729.228 94.0094 730.965 96.1764C732.803 98.38 735.12 100.135 737.739 101.308C740.845 102.69 744.221 103.361 747.62 103.272C750.782 103.327 753.922 102.749 756.857 101.572C759.52 100.495 761.867 98.7601 763.677 96.5293C765.488 94.2985 766.702 91.6448 767.207 88.8166H759.877C759.3 91.0023 757.903 92.8818 755.977 94.0652C753.514 95.6906 750.598 96.4915 747.65 96.3524C744.803 96.4614 741.987 95.727 739.557 94.2412C737.447 92.7863 735.807 90.7485 734.836 88.3768C733.989 86.1532 733.513 83.8054 733.428 81.4275H767.999V77.9382ZM739.41 65.6816C741.711 64.1934 744.413 63.4463 747.151 63.5411C749.761 63.4498 752.344 64.1005 754.599 65.4177C756.568 66.7141 758.101 68.5738 758.997 70.7543C759.641 72.2902 760.065 73.909 760.258 75.5631H733.868C734.075 74.1647 734.449 72.7962 734.983 71.4873C735.87 69.1669 737.407 67.1513 739.41 65.6816Z" fill="#1F2937"/>
<path d="M714.691 91.3976C713.557 92.8993 712.079 94.1061 710.38 94.9163C708.378 95.8377 706.192 96.289 703.988 96.2357C701.196 96.3222 698.44 95.5772 696.071 94.0952C694.006 92.6085 692.392 90.5787 691.409 88.2309C690.367 85.6002 689.849 82.7913 689.884 79.9621C689.833 77.1124 690.352 74.2812 691.409 71.6346C692.377 69.278 693.994 67.2444 696.071 65.7702C698.388 64.2952 701.097 63.559 703.842 63.659C706.942 63.4994 709.991 64.4915 712.404 66.4446C714.479 68.1357 715.823 70.5616 716.157 73.218H723.693C723.584 70.0644 722.566 67.0095 720.76 64.4214C718.983 61.8708 716.552 59.8452 713.723 58.557C710.65 57.1574 707.306 56.4564 703.93 56.5045C700.637 56.4382 697.371 57.1094 694.371 58.4691C691.737 59.712 689.398 61.5012 687.509 63.7177C685.71 65.8342 684.328 68.2716 683.434 70.9016C682.559 73.5302 682.113 76.2827 682.114 79.0531V80.5192C682.123 83.2409 682.568 85.9436 683.434 88.5241C684.352 91.1966 685.731 93.6875 687.509 95.8839C689.352 98.1048 691.666 99.8877 694.283 101.103C697.36 102.479 700.706 103.15 704.076 103.068C707.511 103.132 710.916 102.431 714.046 101.015C716.906 99.7132 719.381 97.6929 721.23 95.1508C723.061 92.5761 724.082 89.513 724.162 86.3542H716.655C716.468 88.1819 715.789 89.9247 714.691 91.3976Z" fill="#1F2937"/>
<path d="M632.236 63.3955C629.223 60.0969 625.217 57.8712 620.825 57.0563C616.432 56.2413 611.894 56.8816 607.899 58.8799C605.038 60.3602 602.68 62.6563 601.125 65.4773C600.54 66.5529 600.059 67.682 599.688 68.8493V58.1761H593.472V118.11H601.301V95.1805C602.91 97.7599 605.204 99.8411 607.928 101.191C610.667 102.533 613.675 103.235 616.725 103.244C619.647 103.288 622.543 102.676 625.199 101.455C627.758 100.301 630.053 98.6349 631.943 96.5586C633.853 94.4658 635.346 92.0275 636.341 89.3747C637.394 86.5626 637.921 83.5808 637.895 80.5781V79.112C637.907 76.1659 637.411 73.2397 636.429 70.462C635.503 67.8569 634.079 65.4568 632.236 63.3955ZM628.307 88.5537C627.203 90.9747 625.403 93.0121 623.136 94.4064C620.87 95.8007 618.24 96.4886 615.581 96.3827C613.084 96.4022 610.62 95.8188 608.397 94.682C606.085 93.5142 604.155 91.7094 602.836 89.4805C601.516 87.2516 600.861 84.6916 600.949 82.1029V78.3496C600.877 75.5723 601.555 72.8269 602.914 70.4034C604.208 68.2531 606.077 66.5065 608.309 65.36C610.542 64.1525 613.043 63.5273 615.581 63.5421C618.296 63.4915 620.966 64.2355 623.263 65.6826C625.458 67.0651 627.209 69.05 628.307 71.4003C629.565 74.076 630.187 77.0064 630.125 79.9624C630.174 82.9265 629.552 85.8634 628.307 88.5537Z" fill="#1F2937"/>
<path d="M668.301 59.32C664.777 58.1057 661.06 57.5491 657.335 57.6779H653.259C651.852 57.6779 650.327 57.6779 649.096 57.6779C647.864 57.6779 646.545 57.6779 645.342 57.9418V65.0377C646.545 65.0377 647.952 64.8325 649.594 64.7738H659.974C661.199 64.6825 662.429 64.8379 663.593 65.2308C664.756 65.6236 665.829 66.246 666.747 67.0609C667.583 67.9681 668.222 69.0378 668.626 70.2032C669.03 71.3686 669.189 72.6047 669.093 73.8343V74.8899H658.068C654.786 74.8119 651.52 75.3695 648.451 76.5319C645.972 77.409 643.829 79.0391 642.322 81.1941C640.888 83.5151 640.174 86.2087 640.27 88.9351C640.2 91.6173 640.848 94.2694 642.146 96.6175C643.46 98.7469 645.366 100.448 647.63 101.514C650.315 102.66 653.214 103.22 656.133 103.156C658.807 103.234 661.461 102.671 663.874 101.514C666.002 100.487 667.77 98.842 668.946 96.7934C669.575 95.7044 670.067 94.5424 670.413 93.3334V102.13H676.629V74.1862C676.797 70.8184 676.089 67.4646 674.576 64.4513C673.188 62.0267 670.953 60.1995 668.301 59.32ZM667.129 92.3072C666.112 93.8384 664.662 95.0326 662.965 95.7378C661.271 96.3859 659.471 96.714 657.658 96.7055C655.056 96.8791 652.481 96.0971 650.415 94.5063C649.573 93.7864 648.905 92.8843 648.463 91.8683C648.021 90.8522 647.816 89.7489 647.864 88.6419C647.833 87.5372 648.046 86.4391 648.487 85.4257C648.927 84.4122 649.586 83.5081 650.415 82.7775C652.455 81.1302 655.042 80.3134 657.658 80.4904H669.005V85.5338C669.056 87.9266 668.404 90.2817 667.129 92.3072Z" fill="#1F2937"/>
<path d="M109.341 43.8495C102.275 42.144 94.7219 43.2404 88.3868 47.2607C86.5594 48.3571 84.8539 49.6972 83.3919 51.281C81.6864 52.9866 80.2244 54.9358 79.0062 56.885C77.6661 52.6211 75.595 48.479 72.793 44.8242C71.8184 43.4841 70.7219 42.2658 69.5037 41.0475C59.5138 31.0577 45.7474 27.6465 33.0774 30.6922C33.0774 30.6922 32.7119 31.6668 32.7119 31.9105V32.0323C31.8591 35.1998 31.4936 38.611 31.4936 42.144C31.4936 64.682 49.7677 82.956 72.3057 82.956C85.0975 82.956 96.4274 77.1083 103.981 67.8495C109.463 60.9053 111.29 52.012 109.341 43.8495Z" fill="#1F2937"/>
<path fill-rule="evenodd" clip-rule="evenodd" d="M34.9859 99.6389V84.0668H28V106.625H114.925V84.0668H107.939V99.6389H34.9859Z" fill="#1F2937"/>
<path d="M239.06 42.1652V48.3815H245.101V101.777H252.959V42.1652H239.06Z" stroke="#1F2937" stroke-width="50.9387" stroke-linejoin="round" mask="url(#path-1-outside-1_814_462)"/>
<path d="M271.284 44.9229H263.836V58.1765H256.33V64.0409H263.836V86.912C263.684 90.099 264.329 93.2737 265.713 96.1484C266.959 98.3265 268.931 99.9974 271.284 100.869C274.007 101.86 276.89 102.337 279.787 102.277H286.473V95.2394H278.703C276.699 95.3633 274.727 94.6886 273.219 93.3628C272.552 92.6208 272.038 91.7546 271.706 90.8138C271.374 89.8729 271.231 88.8759 271.284 87.8796V64.0409H286.297V58.1765H271.284V44.9229Z" stroke="#1F2937" stroke-width="50.9387" stroke-linejoin="round" mask="url(#path-1-outside-1_814_462)"/>
<path d="M183.845 91.3978C182.696 92.8959 181.209 94.1015 179.505 94.9164C177.513 95.8374 175.336 96.2888 173.142 96.2359C170.337 96.3177 167.571 95.5623 165.196 94.0661C163.131 92.5855 161.526 90.553 160.563 88.2017C159.498 85.5769 158.97 82.7653 159.009 79.9329C158.953 77.08 159.482 74.2459 160.563 71.6054C161.509 69.2442 163.118 67.2073 165.196 65.741C167.512 64.266 170.222 63.5298 172.966 63.6299C176.075 63.4712 179.134 64.4628 181.558 66.4155C183.624 68.1144 184.966 70.5362 185.311 73.1888H192.817C192.709 70.0352 191.69 66.9803 189.885 64.3922C188.114 61.8356 185.682 59.8086 182.848 58.5278C179.776 57.1254 176.431 56.4243 173.054 56.4753C169.762 56.412 166.496 57.0831 163.495 58.4399C160.811 59.7319 158.439 61.593 156.546 63.8938C154.758 66.0178 153.376 68.453 152.47 71.0776C151.565 73.7013 151.09 76.4539 151.063 79.2291V80.6952C151.071 83.417 151.517 86.1197 152.382 88.7001C153.313 91.3673 154.691 93.8563 156.458 96.06C158.313 98.2677 160.624 100.048 163.232 101.279C166.319 102.656 169.675 103.327 173.054 103.244C176.479 103.306 179.875 102.605 182.995 101.191C185.864 99.8901 188.348 97.8701 190.208 95.3269C192.027 92.7458 193.046 89.6866 193.14 86.5303H185.78C185.574 88.2946 184.906 89.9733 183.845 91.3978Z" stroke="#1F2937" stroke-width="50.9387" stroke-linejoin="round" mask="url(#path-1-outside-1_814_462)"/>
<path d="M427.423 51.1389C428.124 51.1951 428.83 51.1012 429.492 50.8636C430.154 50.626 430.758 50.25 431.264 49.7608C432.13 48.7971 432.592 47.5372 432.554 46.2421C432.592 44.9471 432.13 43.6871 431.264 42.7235C430.763 42.2237 430.162 41.8369 429.499 41.5891C428.837 41.3413 428.129 41.2382 427.423 41.2867C426.708 41.2327 425.99 41.3273 425.314 41.5645C424.638 41.8017 424.018 42.1763 423.494 42.6649C422.659 43.6433 422.22 44.8981 422.262 46.1835C422.22 47.4688 422.659 48.7237 423.494 49.7021C424.013 50.2011 424.631 50.5866 425.307 50.834C425.984 51.0813 426.704 51.1852 427.423 51.1389Z" stroke="#1F2937" stroke-width="50.9387" stroke-linejoin="round" mask="url(#path-1-outside-1_814_462)"/>
<path d="M226.919 84.1255C227.015 85.725 226.789 87.3275 226.255 88.8384C225.722 90.3493 224.89 91.7378 223.811 92.9221C222.754 93.9495 221.5 94.7521 220.124 95.2812C218.748 95.8104 217.279 96.0552 215.806 96.0009C214.419 96.0633 213.035 95.8346 211.742 95.3296C210.449 94.8246 209.277 94.0544 208.3 93.0687C206.339 90.8445 205.338 87.9354 205.514 84.9758V58.0876H197.685V83.3924C197.324 88.6151 198.797 93.8 201.849 98.0534C203.313 99.7534 205.147 101.095 207.211 101.974C209.275 102.854 211.513 103.248 213.753 103.126H214.076C217.106 103.254 220.102 102.456 222.667 100.839C225.029 99.1583 226.82 96.7945 227.799 94.0656C228.095 93.3111 228.34 92.5371 228.532 91.7492V101.836H234.748V58.0876H226.919V84.1255Z" stroke="#1F2937" stroke-width="50.9387" stroke-linejoin="round" mask="url(#path-1-outside-1_814_462)"/>
<path d="M296.47 51.1386C297.172 51.1986 297.878 51.1066 298.541 50.8688C299.204 50.6309 299.808 50.2529 300.311 49.7605C301.196 48.8063 301.67 47.5425 301.631 46.2419C301.67 44.9412 301.196 43.6774 300.311 42.7232C299.813 42.2203 299.211 41.8314 298.548 41.5833C297.885 41.3353 297.176 41.234 296.47 41.2864C295.76 41.233 295.046 41.3279 294.375 41.5652C293.704 41.8024 293.089 42.1768 292.57 42.6646C291.736 43.643 291.296 44.8979 291.339 46.1832C291.296 47.4686 291.736 48.7234 292.57 49.7018C293.084 50.2001 293.697 50.5853 294.368 50.8327C295.04 51.0802 295.756 51.1844 296.47 51.1386Z" stroke="#1F2937" stroke-width="50.9387" stroke-linejoin="round" mask="url(#path-1-outside-1_814_462)"/>
<path d="M287.556 58.1764V64.3927H294.271V101.778H302.1V58.1764H287.556Z" stroke="#1F2937" stroke-width="50.9387" stroke-linejoin="round" mask="url(#path-1-outside-1_814_462)"/>
<path d="M480.233 63.8056C478.166 61.5925 475.659 59.8349 472.874 58.645C466.546 56.0254 459.438 56.0254 453.111 58.645C450.334 59.8354 447.837 61.5932 445.78 63.8056C443.828 65.9057 442.322 68.3794 441.353 71.0775C440.319 73.6706 439.792 76.4375 439.798 79.229V80.6951C439.79 83.4881 440.287 86.2597 441.265 88.8759C442.302 91.5541 443.823 94.0189 445.751 96.1478C447.835 98.3213 450.326 100.065 453.081 101.279C459.52 103.898 466.728 103.898 473.167 101.279C475.857 100.109 478.283 98.4073 480.298 96.2758C482.314 94.1444 483.878 91.6273 484.896 88.8759C485.915 86.2685 486.442 83.4947 486.45 80.6951V79.229C486.442 76.4389 485.915 73.6747 484.896 71.0775C483.856 68.3596 482.269 65.8845 480.233 63.8056ZM476.539 88.2015C475.36 90.6188 473.52 92.6523 471.232 94.0659C468.712 95.5484 465.826 96.2903 462.904 96.2064C459.956 96.2772 457.045 95.5368 454.489 94.0659C452.228 92.6195 450.396 90.5947 449.181 88.2015C447.958 85.6193 447.346 82.7898 447.393 79.9327C447.339 77.0464 447.983 74.1897 449.269 71.6053C450.484 69.1845 452.353 67.1528 454.665 65.7409C457.195 64.355 460.034 63.6285 462.919 63.6285C465.804 63.6285 468.643 64.355 471.173 65.7409C473.475 67.1546 475.335 69.1866 476.539 71.6053C477.825 74.1897 478.469 77.0464 478.415 79.9327C478.462 82.7995 477.818 85.6355 476.539 88.2015Z" stroke="#1F2937" stroke-width="50.9387" stroke-linejoin="round" mask="url(#path-1-outside-1_814_462)"/>
<path d="M526.677 62.017C525.228 60.2629 523.381 58.8798 521.29 57.9822C519.2 57.0847 516.925 56.6987 514.655 56.8563H514.332C511.144 56.736 507.991 57.5624 505.272 59.2314C502.794 60.8524 500.903 63.227 499.877 66.0048C499.584 66.7509 499.339 67.5148 499.144 68.2919V58.1758H492.927V101.778H500.786V75.7103C500.713 74.1571 500.956 72.6052 501.5 71.1487C502.045 69.6921 502.879 68.3611 503.953 67.2363C505.049 66.163 506.353 65.3257 507.785 64.776C509.218 64.2263 510.747 63.9759 512.28 64.0402C513.737 63.9591 515.194 64.195 516.55 64.7316C517.907 65.2682 519.131 66.0928 520.138 67.1483C522.143 69.3545 523.197 72.2627 523.07 75.2412V101.631H530.929V76.7073C531.177 71.4749 529.681 66.3082 526.677 62.017Z" stroke="#1F2937" stroke-width="50.9387" stroke-linejoin="round" mask="url(#path-1-outside-1_814_462)"/>
<path d="M418.508 58.1764V64.3927H425.194V101.778H433.052V58.1764H418.508Z" stroke="#1F2937" stroke-width="50.9387" stroke-linejoin="round" mask="url(#path-1-outside-1_814_462)"/>
<path d="M402.293 44.9229H394.757V58.1765H387.251V64.0409H394.757V86.912C394.619 90.0978 395.264 93.269 396.634 96.1484C397.862 98.3077 399.799 99.9757 402.117 100.869C404.839 101.864 407.723 102.341 410.62 102.277H417.306V95.2394H409.623C408.635 95.3033 407.645 95.1703 406.708 94.8482C405.772 94.526 404.909 94.0211 404.17 93.3628C402.844 91.855 402.169 89.8836 402.293 87.8796V64.0409H417.306V58.1765H402.293V44.9229Z" stroke="#1F2937" stroke-width="50.9387" stroke-linejoin="round" mask="url(#path-1-outside-1_814_462)"/>
<path d="M328.785 95.5619H327.025L314.563 58.1764H306.412L321.278 101.778H334.414L347.316 58.1764H339.634L328.785 95.5619Z" stroke="#1F2937" stroke-width="50.9387" stroke-linejoin="round" mask="url(#path-1-outside-1_814_462)"/>
<path d="M376.227 59.32C372.703 58.1057 368.986 57.5491 365.261 57.6779H361.185C359.777 57.6779 358.253 57.6779 357.021 57.6779C355.79 57.6779 354.47 57.6779 353.268 57.9418V65.0377C354.47 65.0377 355.878 64.8325 357.52 64.7738H367.87C369.099 64.6802 370.335 64.8344 371.504 65.2273C372.672 65.6201 373.75 66.2437 374.673 67.0609C375.503 67.972 376.138 69.0423 376.542 70.2066C376.945 71.371 377.107 72.6053 377.019 73.8343V74.8899H365.994C362.712 74.8119 359.446 75.3695 356.376 76.5319C353.897 77.409 351.754 79.0391 350.248 81.1941C348.801 83.5094 348.085 86.2071 348.195 88.9351C348.126 91.6173 348.774 94.2694 350.072 96.6175C351.386 98.7469 353.291 100.448 355.555 101.514C358.24 102.66 361.139 103.22 364.058 103.156C366.733 103.234 369.387 102.671 371.799 101.514C373.941 100.408 375.699 98.681 376.843 96.5588C377.471 95.4698 377.964 94.3078 378.309 93.0988V101.895H384.525V74.1862C384.678 70.8196 383.972 67.4694 382.473 64.4513C381.091 62.0322 378.868 60.2058 376.227 59.32ZM375.142 92.3072C374.125 93.8384 372.676 95.0326 370.978 95.7378C369.284 96.3859 367.485 96.714 365.671 96.7055C363.061 96.8755 360.478 96.0942 358.399 94.5063C357.566 93.7808 356.906 92.877 356.469 91.8617C356.033 90.8465 355.831 89.746 355.878 88.6419C355.847 87.54 356.057 86.4446 356.492 85.4319C356.928 84.4192 357.578 83.5134 358.399 82.7775C360.454 81.136 363.047 80.3204 365.671 80.4904H377.019V85.5338C377.069 87.9266 376.417 90.2817 375.142 92.3072Z" stroke="#1F2937" stroke-width="50.9387" stroke-linejoin="round" mask="url(#path-1-outside-1_814_462)"/>
<path d="M583.563 80.3724C580.217 78.0853 576.318 76.7385 572.274 76.4726L567.436 75.9741C565.438 75.8919 563.505 75.2409 561.865 74.0975C561.326 73.5993 560.903 72.9896 560.624 72.311C560.346 71.6324 560.219 70.9012 560.252 70.1684C560.243 69.248 560.45 68.3385 560.858 67.5133C561.265 66.6881 561.861 65.9704 562.598 65.4182C564.643 64.041 567.087 63.3811 569.547 63.5416C571.981 63.3713 574.4 64.033 576.408 65.4182C577.136 65.9124 577.738 66.5703 578.166 67.3393C578.594 68.1082 578.835 68.9667 578.871 69.8458H586.202C586.272 67.9607 585.878 66.0872 585.055 64.3899C584.232 62.6925 583.004 61.2232 581.481 60.1109C577.943 57.8012 573.768 56.6626 569.547 56.8562C566.581 56.8033 563.637 57.3623 560.897 58.4982C558.544 59.4291 556.508 61.0169 555.033 63.0724C553.581 65.1478 552.841 67.6372 552.921 70.1684C552.819 71.8427 553.123 73.517 553.807 75.0486C554.491 76.5802 555.535 77.9238 556.85 78.9649C559.81 81.1203 563.315 82.4005 566.967 82.6595L571.717 83.1287C574.057 83.2257 576.332 83.9333 578.314 85.1812C578.982 85.6436 579.521 86.2686 579.88 86.9971C580.239 87.7256 580.407 88.5337 580.367 89.3449C580.353 90.3619 580.092 91.3604 579.607 92.2543C579.122 93.1482 578.427 93.9108 577.581 94.4763C575.201 95.998 572.395 96.7173 569.576 96.5288C566.701 96.6732 563.868 95.8012 561.571 94.0658C560.141 92.8485 559.238 91.1254 559.05 89.257H551.69C551.665 91.186 552.085 93.0947 552.92 94.8342C553.754 96.5738 554.979 98.097 556.499 99.2851C560.399 101.968 565.085 103.269 569.811 102.98C573.032 103.036 576.232 102.448 579.223 101.25C581.732 100.196 583.925 98.5085 585.586 96.3529C587.158 94.2572 587.993 91.7006 587.961 89.081C588 87.3797 587.62 85.695 586.852 84.176C586.085 82.657 584.955 81.3506 583.563 80.3724Z" stroke="#1F2937" stroke-width="50.9387" stroke-linejoin="round" mask="url(#path-1-outside-1_814_462)"/>
<path d="M547.615 91.8079H538.144V101.777H547.615V91.8079Z" stroke="#1F2937" stroke-width="50.9387" stroke-linejoin="round" mask="url(#path-1-outside-1_814_462)"/>
<path d="M767.999 77.9382C768.022 74.3851 767.23 70.8741 765.683 67.6755C764.21 64.4524 761.838 61.7235 758.851 59.8172C755.344 57.6228 751.255 56.5394 747.122 56.7091C743.829 56.6457 740.564 57.3168 737.563 58.6736C734.994 59.8606 732.736 61.6271 730.965 63.8343C729.212 65.9579 727.878 68.3959 727.036 71.0182C726.216 73.6876 725.801 76.465 725.805 79.2576V80.7237C725.803 83.497 726.218 86.2548 727.036 88.9046C727.896 91.5457 729.228 94.0094 730.965 96.1764C732.803 98.38 735.12 100.135 737.739 101.308C740.845 102.69 744.221 103.361 747.62 103.272C750.782 103.327 753.922 102.749 756.857 101.572C759.52 100.495 761.867 98.7601 763.677 96.5293C765.488 94.2985 766.702 91.6448 767.207 88.8166H759.877C759.3 91.0023 757.903 92.8818 755.977 94.0652C753.514 95.6906 750.598 96.4915 747.65 96.3524C744.803 96.4614 741.987 95.727 739.557 94.2412C737.447 92.7863 735.807 90.7485 734.836 88.3768C733.989 86.1532 733.513 83.8054 733.428 81.4275H767.999V77.9382ZM739.41 65.6816C741.711 64.1934 744.413 63.4463 747.151 63.5411C749.761 63.4498 752.344 64.1005 754.599 65.4177C756.568 66.7141 758.101 68.5738 758.997 70.7543C759.641 72.2902 760.065 73.909 760.258 75.5631H733.868C734.075 74.1647 734.449 72.7962 734.983 71.4873C735.87 69.1669 737.407 67.1513 739.41 65.6816Z" stroke="#1F2937" stroke-width="50.9387" stroke-linejoin="round" mask="url(#path-1-outside-1_814_462)"/>
<path d="M714.691 91.3976C713.557 92.8993 712.079 94.1061 710.38 94.9163C708.378 95.8377 706.192 96.289 703.988 96.2357C701.196 96.3222 698.44 95.5772 696.071 94.0952C694.006 92.6085 692.392 90.5787 691.409 88.2309C690.367 85.6002 689.849 82.7913 689.884 79.9621C689.833 77.1124 690.352 74.2812 691.409 71.6346C692.377 69.278 693.994 67.2444 696.071 65.7702C698.388 64.2952 701.097 63.559 703.842 63.659C706.942 63.4994 709.991 64.4915 712.404 66.4446C714.479 68.1357 715.823 70.5616 716.157 73.218H723.693C723.584 70.0644 722.566 67.0095 720.76 64.4214C718.983 61.8708 716.552 59.8452 713.723 58.557C710.65 57.1574 707.306 56.4564 703.93 56.5045C700.637 56.4382 697.371 57.1094 694.371 58.4691C691.737 59.712 689.398 61.5012 687.509 63.7177C685.71 65.8342 684.328 68.2716 683.434 70.9016C682.559 73.5302 682.113 76.2827 682.114 79.0531V80.5192C682.123 83.2409 682.568 85.9436 683.434 88.5241C684.352 91.1966 685.731 93.6875 687.509 95.8839C689.352 98.1048 691.666 99.8877 694.283 101.103C697.36 102.479 700.706 103.15 704.076 103.068C707.511 103.132 710.916 102.431 714.046 101.015C716.906 99.7132 719.381 97.6929 721.23 95.1508C723.061 92.5761 724.082 89.513 724.162 86.3542H716.655C716.468 88.1819 715.789 89.9247 714.691 91.3976Z" stroke="#1F2937" stroke-width="50.9387" stroke-linejoin="round" mask="url(#path-1-outside-1_814_462)"/>
<path d="M632.236 63.3955C629.223 60.0969 625.217 57.8712 620.825 57.0563C616.432 56.2413 611.894 56.8816 607.899 58.8799C605.038 60.3602 602.68 62.6563 601.125 65.4773C600.54 66.5529 600.059 67.682 599.688 68.8493V58.1761H593.472V118.11H601.301V95.1805C602.91 97.7599 605.204 99.8411 607.928 101.191C610.667 102.533 613.675 103.235 616.725 103.244C619.647 103.288 622.543 102.676 625.199 101.455C627.758 100.301 630.053 98.6349 631.943 96.5586C633.853 94.4658 635.346 92.0275 636.341 89.3747C637.394 86.5626 637.921 83.5808 637.895 80.5781V79.112C637.907 76.1659 637.411 73.2397 636.429 70.462C635.503 67.8569 634.079 65.4568 632.236 63.3955ZM628.307 88.5537C627.203 90.9747 625.403 93.0121 623.136 94.4064C620.87 95.8007 618.24 96.4886 615.581 96.3827C613.084 96.4022 610.62 95.8188 608.397 94.682C606.085 93.5142 604.155 91.7094 602.836 89.4805C601.516 87.2516 600.861 84.6916 600.949 82.1029V78.3496C600.877 75.5723 601.555 72.8269 602.914 70.4034C604.208 68.2531 606.077 66.5065 608.309 65.36C610.542 64.1525 613.043 63.5273 615.581 63.5421C618.296 63.4915 620.966 64.2355 623.263 65.6826C625.458 67.0651 627.209 69.05 628.307 71.4003C629.565 74.076 630.187 77.0064 630.125 79.9624C630.174 82.9265 629.552 85.8634 628.307 88.5537Z" stroke="#1F2937" stroke-width="50.9387" stroke-linejoin="round" mask="url(#path-1-outside-1_814_462)"/>
<path d="M668.301 59.32C664.777 58.1057 661.06 57.5491 657.335 57.6779H653.259C651.852 57.6779 650.327 57.6779 649.096 57.6779C647.864 57.6779 646.545 57.6779 645.342 57.9418V65.0377C646.545 65.0377 647.952 64.8325 649.594 64.7738H659.974C661.199 64.6825 662.429 64.8379 663.593 65.2308C664.756 65.6236 665.829 66.246 666.747 67.0609C667.583 67.9681 668.222 69.0378 668.626 70.2032C669.03 71.3686 669.189 72.6047 669.093 73.8343V74.8899H658.068C654.786 74.8119 651.52 75.3695 648.451 76.5319C645.972 77.409 643.829 79.0391 642.322 81.1941C640.888 83.5151 640.174 86.2087 640.27 88.9351C640.2 91.6173 640.848 94.2694 642.146 96.6175C643.46 98.7469 645.366 100.448 647.63 101.514C650.315 102.66 653.214 103.22 656.133 103.156C658.807 103.234 661.461 102.671 663.874 101.514C666.002 100.487 667.77 98.842 668.946 96.7934C669.575 95.7044 670.067 94.5424 670.413 93.3334V102.13H676.629V74.1862C676.797 70.8184 676.089 67.4646 674.576 64.4513C673.188 62.0267 670.953 60.1995 668.301 59.32ZM667.129 92.3072C666.112 93.8384 664.662 95.0326 662.965 95.7378C661.271 96.3859 659.471 96.714 657.658 96.7055C655.056 96.8791 652.481 96.0971 650.415 94.5063C649.573 93.7864 648.905 92.8843 648.463 91.8683C648.021 90.8522 647.816 89.7489 647.864 88.6419C647.833 87.5372 648.046 86.4391 648.487 85.4257C648.927 84.4122 649.586 83.5081 650.415 82.7775C652.455 81.1302 655.042 80.3134 657.658 80.4904H669.005V85.5338C669.056 87.9266 668.404 90.2817 667.129 92.3072Z" stroke="#1F2937" stroke-width="50.9387" stroke-linejoin="round" mask="url(#path-1-outside-1_814_462)"/>
<path d="M109.341 43.8495C102.275 42.144 94.7219 43.2404 88.3868 47.2607C86.5594 48.3571 84.8539 49.6972 83.3919 51.281C81.6864 52.9866 80.2244 54.9358 79.0062 56.885C77.6661 52.6211 75.595 48.479 72.793 44.8242C71.8184 43.4841 70.7219 42.2658 69.5037 41.0475C59.5138 31.0577 45.7474 27.6465 33.0774 30.6922C33.0774 30.6922 32.7119 31.6668 32.7119 31.9105V32.0323C31.8591 35.1998 31.4936 38.611 31.4936 42.144C31.4936 64.682 49.7677 82.956 72.3057 82.956C85.0975 82.956 96.4274 77.1083 103.981 67.8495C109.463 60.9053 111.29 52.012 109.341 43.8495Z" stroke="#1F2937" stroke-width="50.9387" stroke-linejoin="round" mask="url(#path-1-outside-1_814_462)"/>
<path fill-rule="evenodd" clip-rule="evenodd" d="M34.9859 99.6389V84.0668H28V106.625H114.925V84.0668H107.939V99.6389H34.9859Z" stroke="#1F2937" stroke-width="50.9387" stroke-linejoin="round" mask="url(#path-1-outside-1_814_462)"/>
</g>
<rect x="282.23" y="24.9854" width="31.0263" height="11.577" fill="#1F2937"/>
<rect x="411.893" y="24.9855" width="31.0263" height="11.577" fill="#1F2937"/>
<path d="M239.062 42.165V48.3813H245.103V101.777H252.961V48.3813V42.165H245.103H239.062Z" fill="#78E4CF"/>
<path d="M271.286 44.9229H263.838V58.1764H256.332V64.0408H263.838V86.9119C263.686 90.0989 264.331 93.2736 265.715 96.1483C266.961 98.3264 268.933 99.9973 271.286 100.869C274.009 101.859 276.893 102.337 279.79 102.277H286.475V95.2393H278.705C276.701 95.3632 274.729 94.6885 273.221 93.3627C272.555 92.6207 272.04 91.7545 271.708 90.8137C271.376 89.8728 271.233 88.8758 271.286 87.8795V64.0408H286.299V58.1764H271.286V44.9229Z" fill="#78E4CF"/>
<path d="M183.846 91.3976C182.697 92.8958 181.21 94.1014 179.507 94.9163C177.515 95.8372 175.338 96.2887 173.144 96.2357C170.338 96.3175 167.572 95.5621 165.198 94.0659C163.133 92.5854 161.527 90.5529 160.565 88.2015C159.5 85.5768 158.971 82.7651 159.011 79.9327C158.954 77.0799 159.483 74.2457 160.565 71.6053C161.51 69.244 163.119 67.2071 165.198 65.7409C167.514 64.2659 170.224 63.5296 172.968 63.6297C176.077 63.4711 179.135 64.4627 181.559 66.4153C183.626 68.1142 184.967 70.536 185.313 73.1887H192.819C192.71 70.0351 191.692 66.9802 189.887 64.3921C188.116 61.8355 185.683 59.8084 182.849 58.5277C179.778 57.1253 176.432 56.4242 173.056 56.4752C169.763 56.4118 166.498 57.083 163.497 58.4397C160.812 59.7318 158.441 61.5928 156.548 63.8936C154.759 66.0176 153.378 68.4529 152.472 71.0775C151.567 73.7012 151.092 76.4538 151.064 79.229V80.6951C151.073 83.4168 151.518 86.1195 152.384 88.7C153.314 91.3672 154.692 93.8562 156.46 96.0598C158.315 98.2676 160.625 100.048 163.233 101.279C166.321 102.656 169.676 103.327 173.056 103.244C176.481 103.306 179.876 102.605 182.996 101.191C185.865 99.89 188.35 97.87 190.209 95.3268C192.028 92.7456 193.048 89.6865 193.141 86.5302H185.782C185.575 88.2944 184.908 89.9732 183.846 91.3976Z" fill="#78E4CF"/>
<path d="M427.425 51.1388C428.127 51.195 428.832 51.1011 429.494 50.8635C430.157 50.6259 430.761 50.2499 431.266 49.7607C432.132 48.797 432.594 47.5371 432.557 46.242C432.594 44.947 432.132 43.687 431.266 42.7234C430.766 42.2236 430.164 41.8368 429.501 41.589C428.839 41.3412 428.131 41.2381 427.425 41.2866C426.711 41.2326 425.993 41.3272 425.316 41.5644C424.64 41.8016 424.02 42.1762 423.496 42.6647C422.661 43.6432 422.222 44.898 422.265 46.1834C422.222 47.4687 422.661 48.7235 423.496 49.702C424.015 50.201 424.633 50.5865 425.309 50.8338C425.986 51.0812 426.706 51.185 427.425 51.1388Z" fill="#78E4CF"/>
<path d="M226.92 84.1254C227.016 85.725 226.791 87.3275 226.257 88.8384C225.723 90.3492 224.892 91.7378 223.812 92.922C222.755 93.9495 221.501 94.752 220.125 95.2812C218.749 95.8103 217.28 96.0552 215.807 96.0008C214.421 96.0632 213.036 95.8346 211.744 95.3295C210.451 94.8245 209.278 94.0544 208.301 93.0686C206.34 90.8445 205.339 87.9353 205.515 84.9758V58.0875H197.686V83.3924C197.326 88.615 198.798 93.7999 201.85 98.0534C203.314 99.7534 205.149 101.095 207.212 101.974C209.276 102.854 211.515 103.248 213.755 103.126H214.077C217.107 103.254 220.104 102.456 222.669 100.839C225.031 99.1582 226.821 96.7945 227.8 94.0656C228.097 93.311 228.342 92.537 228.533 91.7491V101.836H234.749V58.0875H226.92V84.1254Z" fill="#78E4CF"/>
<path d="M296.472 51.1385C297.174 51.1985 297.88 51.1065 298.543 50.8687C299.206 50.6308 299.81 50.2528 300.313 49.7604C301.198 48.8062 301.672 47.5424 301.633 46.2417C301.672 44.9411 301.198 43.6773 300.313 42.7231C299.815 42.2202 299.213 41.8313 298.55 41.5832C297.887 41.3352 297.178 41.2339 296.472 41.2863C295.762 41.2329 295.049 41.3278 294.377 41.5651C293.706 41.8023 293.091 42.1767 292.572 42.6645C291.738 43.6429 291.298 44.8977 291.341 46.1831C291.298 47.4685 291.738 48.7233 292.572 49.7017C293.086 50.2 293.699 50.5852 294.37 50.8326C295.042 51.0801 295.758 51.1843 296.472 51.1385Z" fill="#78E4CF"/>
<path d="M287.557 58.1763V64.3925H294.271V101.778H302.1V64.3925V58.1763H294.271H287.557Z" fill="#78E4CF"/>
<path d="M480.236 63.8055C478.168 61.5924 475.661 59.8347 472.876 58.6448C466.549 56.0253 459.44 56.0253 453.113 58.6448C450.337 59.8352 447.84 61.5931 445.783 63.8055C443.831 65.9056 442.325 68.3793 441.355 71.0773C440.322 73.6704 439.794 76.4374 439.801 79.2288V80.6949C439.792 83.488 440.289 86.2595 441.267 88.8758C442.305 91.5539 443.825 94.0187 445.753 96.1476C447.838 98.3211 450.328 100.064 453.084 101.279C459.523 103.898 466.73 103.898 473.169 101.279C475.859 100.109 478.285 98.4072 480.301 96.2757C482.316 94.1442 483.88 91.6271 484.898 88.8758C485.917 86.2684 486.444 83.4945 486.452 80.6949V79.2288C486.444 76.4388 485.917 73.6746 484.898 71.0773C483.859 68.3595 482.272 65.8843 480.236 63.8055ZM476.541 88.2014C475.362 90.6187 473.522 92.6521 471.234 94.0657C468.715 95.5482 465.828 96.2901 462.907 96.2062C459.958 96.2771 457.047 95.5366 454.491 94.0657C452.231 92.6194 450.398 90.5946 449.184 88.2014C447.96 85.6192 447.348 82.7897 447.395 79.9326C447.342 77.0462 447.986 74.1896 449.272 71.6051C450.487 69.1844 452.356 67.1527 454.667 65.7407C457.198 64.3548 460.036 63.6283 462.921 63.6283C465.806 63.6283 468.645 64.3548 471.175 65.7407C473.478 67.1545 475.337 69.1864 476.541 71.6051C477.828 74.1896 478.471 77.0462 478.418 79.9326C478.464 82.7994 477.821 85.6353 476.541 88.2014Z" fill="#78E4CF"/>
<path d="M526.677 62.0168C525.228 60.2627 523.381 58.8796 521.291 57.9821C519.2 57.0845 516.925 56.6986 514.655 56.8561H514.333C511.144 56.7358 507.992 57.5622 505.272 59.2312C502.794 60.8522 500.903 63.2268 499.877 66.0046C499.585 66.7507 499.34 67.5146 499.144 68.2917V58.1756H492.928V101.777H500.786V75.7102C500.713 74.1569 500.956 72.605 501.501 71.1485C502.045 69.6919 502.879 68.3609 503.953 67.2361C505.049 66.1628 506.353 65.3255 507.786 64.7758C509.218 64.2262 510.747 63.9757 512.28 64.04C513.737 63.959 515.194 64.1949 516.551 64.7315C517.907 65.2681 519.131 66.0926 520.139 67.1481C522.144 69.3543 523.197 72.2625 523.071 75.241V101.631H530.929V76.7071C531.177 71.4747 529.681 66.308 526.677 62.0168Z" fill="#78E4CF"/>
<path d="M418.51 58.1763V64.3925H425.195V101.778H433.053V64.3925V58.1763H425.195H418.51Z" fill="#78E4CF"/>
<path d="M402.294 44.9229H394.758V58.1764H387.252V64.0408H394.758V86.9119C394.62 90.0977 395.265 93.2689 396.635 96.1483C397.863 98.3076 399.8 99.9756 402.118 100.869C404.84 101.863 407.724 102.341 410.622 102.277H417.307V95.2393H409.625C408.637 95.3032 407.646 95.1702 406.709 94.8481C405.773 94.5259 404.91 94.021 404.171 93.3627C402.845 91.8549 402.17 89.8835 402.294 87.8795V64.0408H417.307V58.1764H402.294V44.9229Z" fill="#78E4CF"/>
<path d="M328.785 95.5618H327.025L314.564 58.1763H306.412L321.278 101.778H323.214H326.996H329.107H332.685H334.415L347.316 58.1763H339.634L328.785 95.5618Z" fill="#78E4CF"/>
<path d="M376.228 59.3199C372.704 58.1056 368.987 57.5491 365.262 57.6778H361.186C359.779 57.6778 358.254 57.6778 357.022 57.6778C355.791 57.6778 354.471 57.6778 353.269 57.9417V65.0377C354.471 65.0377 355.879 64.8324 357.521 64.7738H362.652H367.872C369.101 64.6801 370.336 64.8343 371.505 65.2272C372.673 65.6201 373.751 66.2436 374.674 67.0609C375.504 67.9719 376.14 69.0422 376.543 70.2066C376.946 71.371 377.109 72.6052 377.02 73.8342V74.8898H365.995C362.713 74.8118 359.447 75.3694 356.377 76.5319C353.898 77.4089 351.756 79.039 350.249 81.194C348.802 83.5093 348.087 86.207 348.197 88.935C348.127 91.6172 348.775 94.2693 350.073 96.6174C351.387 98.7469 353.292 100.448 355.556 101.514C358.242 102.66 361.141 103.22 364.06 103.156C366.734 103.234 369.388 102.671 371.801 101.514C373.943 100.408 375.701 98.681 376.844 96.5588C377.472 95.4698 377.965 94.3077 378.31 93.0988V101.895H384.526V74.1861C384.68 70.8195 383.973 67.4693 382.474 64.4512C381.092 62.0321 378.869 60.2057 376.228 59.3199ZM375.143 92.3071C374.126 93.8383 372.677 95.0325 370.98 95.7377C369.286 96.3858 367.486 96.7139 365.672 96.7054C363.062 96.8754 360.479 96.0941 358.401 94.5062C357.567 93.7808 356.907 92.8769 356.471 91.8616C356.034 90.8464 355.832 89.7459 355.879 88.6418C355.848 87.5399 356.058 86.4445 356.494 85.4318C356.929 84.4191 357.58 83.5133 358.401 82.7774C360.455 81.1359 363.048 80.3203 365.672 80.4903H377.02V85.5337C377.071 87.9265 376.418 90.2816 375.143 92.3071Z" fill="#78E4CF"/>
<path d="M583.563 80.3723C580.217 78.0852 576.319 76.7384 572.275 76.4725L567.436 75.974C565.439 75.8919 563.506 75.2408 561.865 74.0974C561.327 73.5992 560.904 72.9895 560.625 72.3109C560.347 71.6323 560.219 70.9011 560.253 70.1683C560.243 69.248 560.451 68.3384 560.858 67.5132C561.266 66.688 561.862 65.9703 562.598 65.4181C564.643 64.041 567.087 63.381 569.548 63.5415C571.981 63.3712 574.401 64.0329 576.409 65.4181C577.137 65.9123 577.739 66.5703 578.167 67.3392C578.594 68.1081 578.836 68.9666 578.872 69.8457H586.202C586.272 67.9606 585.879 66.0872 585.056 64.3898C584.232 62.6925 583.005 61.2232 581.482 60.1109C577.943 57.8012 573.768 56.6626 569.548 56.8561C566.582 56.8032 563.637 57.3622 560.898 58.4981C558.545 59.429 556.509 61.0169 555.033 63.0724C553.582 65.1477 552.841 67.6371 552.922 70.1683C552.82 71.8426 553.124 73.5169 553.808 75.0485C554.492 76.5801 555.536 77.9237 556.851 78.9649C559.81 81.1202 563.316 82.4004 566.967 82.6594L571.717 83.1286C574.058 83.2257 576.332 83.9333 578.315 85.1811C578.983 85.6436 579.521 86.2685 579.881 86.9971C580.24 87.7256 580.407 88.5336 580.367 89.3448C580.354 90.3619 580.093 91.3603 579.608 92.2542C579.123 93.1481 578.427 93.9107 577.582 94.4762C575.201 95.9979 572.396 96.7172 569.577 96.5287C566.702 96.6731 563.868 95.8012 561.572 94.0657C560.142 92.8485 559.238 91.1253 559.05 89.2569H551.691C551.665 91.1859 552.086 93.0947 552.92 94.8342C553.754 96.5737 554.979 98.0969 556.499 99.285C560.4 101.968 565.086 103.269 569.811 102.98C573.033 103.036 576.233 102.448 579.224 101.25C581.733 100.196 583.925 98.5084 585.587 96.3528C587.159 94.2572 587.994 91.7005 587.962 89.0809C588.001 87.3797 587.62 85.6949 586.853 84.1759C586.086 82.6569 584.956 81.3505 583.563 80.3723Z" fill="white"/>
<path d="M547.618 91.8077H538.146V101.777H547.618V91.8077Z" fill="white"/>
<path d="M767.999 77.938C768.022 74.385 767.23 70.874 765.683 67.6753C764.21 64.4522 761.838 61.7233 758.851 59.817C755.344 57.6227 751.255 56.5393 747.122 56.7089C743.829 56.6456 740.564 57.3167 737.563 58.6735C734.994 59.8604 732.736 61.6269 730.965 63.8342C729.212 65.9577 727.878 68.3957 727.036 71.018C726.216 73.6875 725.801 76.4649 725.805 79.2575V80.7236C725.803 83.4969 726.218 86.2547 727.036 88.9044C727.896 91.5456 729.228 94.0093 730.965 96.1763C732.803 98.3799 735.12 100.135 737.739 101.308C740.845 102.69 744.221 103.361 747.62 103.272C750.782 103.327 753.922 102.749 756.857 101.572C759.52 100.495 761.867 98.76 763.677 96.5291C765.488 94.2983 766.702 91.6446 767.207 88.8165H759.877C759.3 91.0021 757.903 92.8816 755.977 94.0651C753.514 95.6905 750.598 96.4914 747.65 96.3522C744.803 96.4613 741.987 95.7268 739.557 94.241C737.447 92.7861 735.807 90.7484 734.836 88.3766C733.989 86.153 733.513 83.8053 733.428 81.4273H767.999V77.938ZM739.41 65.6814C741.711 64.1933 744.413 63.4462 747.151 63.5409C749.761 63.4497 752.344 64.1004 754.599 65.4175C756.568 66.7139 758.101 68.5737 758.997 70.7541C759.641 72.2901 760.065 73.9088 760.258 75.5629H733.868C734.075 74.1645 734.449 72.7961 734.983 71.4872C735.87 69.1668 737.407 67.1512 739.41 65.6814Z" fill="white"/>
<path d="M714.692 91.3975C713.558 92.8991 712.08 94.106 710.382 94.9161C708.379 95.8375 706.193 96.2888 703.989 96.2356C701.197 96.3221 698.441 95.5771 696.072 94.0951C694.007 92.6083 692.393 90.5785 691.41 88.2307C690.368 85.6 689.851 82.7912 689.886 79.9619C689.834 77.1123 690.353 74.2811 691.41 71.6345C692.378 69.2778 693.995 67.2442 696.072 65.7701C698.389 64.2951 701.099 63.5588 703.843 63.6589C706.943 63.4992 709.992 64.4914 712.405 66.4445C714.48 68.1356 715.825 70.5614 716.158 73.2179H723.694C723.585 70.0643 722.567 67.0094 720.762 64.4213C718.984 61.8706 716.554 59.8451 713.724 58.5569C710.652 57.1573 707.307 56.4563 703.931 56.5044C700.638 56.438 697.372 57.1093 694.372 58.4689C691.738 59.7119 689.399 61.5011 687.51 63.7176C685.712 65.8341 684.329 68.2715 683.435 70.9014C682.56 73.53 682.114 76.2825 682.115 79.0529V80.519C682.124 83.2408 682.569 85.9435 683.435 88.5239C684.353 91.1964 685.732 93.6874 687.51 95.8837C689.353 98.1047 691.667 99.8876 694.284 101.103C697.361 102.479 700.707 103.15 704.077 103.068C707.512 103.132 710.917 102.431 714.047 101.015C716.907 99.713 719.382 97.6927 721.231 95.1507C723.062 92.576 724.083 89.5129 724.163 86.3541H716.657C716.469 88.1818 715.79 89.9246 714.692 91.3975Z" fill="white"/>
<path d="M632.236 63.3953C629.224 60.0967 625.217 57.8711 620.825 57.0561C616.433 56.2412 611.894 56.8814 607.899 58.8797C605.038 60.36 602.681 62.6561 601.126 65.4772C600.54 66.5527 600.059 67.6819 599.689 68.8492V58.176H593.473V118.11H601.302V95.1803C602.91 97.7597 605.205 99.8409 607.928 101.191C610.667 102.533 613.675 103.234 616.725 103.244C619.648 103.287 622.543 102.676 625.199 101.455C627.758 100.301 630.054 98.6347 631.943 96.5585C633.853 94.4656 635.346 92.0273 636.341 89.3746C637.394 86.5625 637.921 83.5807 637.895 80.578V79.1119C637.908 76.1657 637.412 73.2395 636.429 70.4619C635.503 67.8567 634.079 65.4566 632.236 63.3953ZM628.307 88.5536C627.203 90.9745 625.403 93.012 623.137 94.4063C620.87 95.8005 618.24 96.4885 615.581 96.3825C613.085 96.402 610.62 95.8186 608.398 94.6818C606.085 93.5141 604.156 91.7092 602.836 89.4803C601.516 87.2514 600.862 84.6915 600.95 82.1027V78.3495C600.877 75.5722 601.556 72.8267 602.914 70.4033C604.209 68.2529 606.077 66.5063 608.31 65.3599C610.542 64.1524 613.043 63.5271 615.581 63.5419C618.296 63.4914 620.966 64.2354 623.264 65.6824C625.459 67.065 627.209 69.0498 628.307 71.4002C629.565 74.0759 630.187 77.0062 630.125 79.9622C630.174 82.9264 629.553 85.8633 628.307 88.5536Z" fill="white"/>
<path d="M668.304 59.3199C664.78 58.1056 661.063 57.5491 657.338 57.6778H653.262C651.854 57.6778 650.33 57.6778 649.098 57.6778C647.867 57.6778 646.547 57.6778 645.345 57.9417V65.0377C646.547 65.0377 647.954 64.8324 649.597 64.7738H654.728H659.976C661.201 64.6824 662.432 64.8378 663.595 65.2307C664.758 65.6235 665.831 66.2459 666.75 67.0609C667.585 67.968 668.225 69.0377 668.629 70.2031C669.032 71.3685 669.191 72.6046 669.096 73.8342V74.8898H658.071C654.789 74.8118 651.523 75.3694 648.453 76.5319C645.974 77.4089 643.831 79.039 642.325 81.194C640.891 83.515 640.177 86.2086 640.272 88.935C640.203 91.6172 640.851 94.2693 642.149 96.6174C643.463 98.7469 645.368 100.448 647.632 101.514C650.317 102.66 653.216 103.22 656.135 103.156C658.81 103.234 661.464 102.671 663.876 101.514C666.004 100.487 667.772 98.8419 668.949 96.7933C669.577 95.7043 670.07 94.5423 670.415 93.3333V102.13H676.631V74.1861C676.799 70.8184 676.092 67.4646 674.579 64.4512C673.19 62.0266 670.956 60.1995 668.304 59.3199ZM667.131 92.3071C666.114 93.8383 664.665 95.0325 662.967 95.7377C661.273 96.3858 659.474 96.7139 657.66 96.7054C655.059 96.879 652.483 96.097 650.418 94.5062C649.575 93.7864 648.908 92.8842 648.466 91.8682C648.024 90.8521 647.819 89.7488 647.866 88.6418C647.836 87.5371 648.048 86.4391 648.489 85.4256C648.93 84.4121 649.588 83.5081 650.418 82.7774C652.457 81.1301 655.044 80.3133 657.66 80.4903H669.008V85.5337C669.058 87.9265 668.406 90.2816 667.131 92.3071Z" fill="white"/>
<path d="M109.342 43.8494C102.276 42.1438 94.7224 43.2403 88.3874 47.2606C86.56 48.357 84.8544 49.6971 83.3925 51.2809C81.6869 52.9864 80.225 54.9357 79.0067 56.8849C77.6666 52.621 75.5955 48.4788 72.7935 44.824C71.8189 43.4839 70.7225 42.2657 69.5042 41.0474C59.5144 31.0576 45.7479 27.6464 33.0779 30.6921C33.0779 30.6921 32.7124 31.6667 32.7124 31.9104V32.0322C31.8596 35.1997 31.4941 38.6109 31.4941 42.1438C31.4941 64.6818 49.7682 82.9559 72.3062 82.9559C85.0981 82.9559 96.428 77.1082 103.981 67.8493C109.463 60.9052 111.291 52.0118 109.342 43.8494Z" fill="#78E4CF"/>
<path fill-rule="evenodd" clip-rule="evenodd" d="M34.9859 99.6387V84.0667H28V106.625H114.925V84.0667H107.939V99.6387H34.9859Z" fill="white"/>
<defs>
<filter id="filter0_dd_814_462" x="0.678935" y="0.907618" width="794.642" height="146.377" filterUnits="userSpaceOnUse" color-interpolation-filters="sRGB">
<feFlood flood-opacity="0" result="BackgroundImageFix"/>
<feColorMatrix in="SourceAlpha" type="matrix" values="0 0 0 0 0 0 0 0 0 0 0 0 0 0 0 0 0 0 127 0" result="hardAlpha"/>
<feOffset dy="1.85232"/>
<feGaussianBlur stdDeviation="0.926158"/>
<feComposite in2="hardAlpha" operator="out"/>
<feColorMatrix type="matrix" values="0 0 0 0 0 0 0 0 0 0 0 0 0 0 0 0 0 0 0.25 0"/>
<feBlend mode="normal" in2="BackgroundImageFix" result="effect1_dropShadow_814_462"/>
<feColorMatrix in="SourceAlpha" type="matrix" values="0 0 0 0 0 0 0 0 0 0 0 0 0 0 0 0 0 0 127 0" result="hardAlpha"/>
<feOffset dy="-1.38924"/>
<feGaussianBlur stdDeviation="0.926158"/>
<feComposite in2="hardAlpha" operator="out"/>
<feColorMatrix type="matrix" values="0 0 0 0 0 0 0 0 0 0 0 0 0 0 0 0 0 0 0.25 0"/>
<feBlend mode="normal" in2="effect1_dropShadow_814_462" result="effect2_dropShadow_814_462"/>
<feBlend mode="normal" in="SourceGraphic" in2="effect2_dropShadow_814_462" result="shape"/>
</filter>
</defs>
</svg>
