<?xml version="1.0" encoding="UTF-8" standalone="no"?>
<!-- Created with Inkscape (http://www.inkscape.org/) -->

<svg
   version="1.1"
   id="svg3096"
   xml:space="preserve"
   width="54.000046mm"
   height="54.00005mm"
   viewBox="0 0 204.09467 204.09467"
   sodipodi:docname="50x50-Formsignal-Rund.svg"
   inkscape:version="1.2.2 (732a01da63, 2022-12-09)"
   xmlns:inkscape="http://www.inkscape.org/namespaces/inkscape"
   xmlns:sodipodi="http://sodipodi.sourceforge.net/DTD/sodipodi-0.dtd"
   xmlns:xlink="http://www.w3.org/1999/xlink"
   xmlns="http://www.w3.org/2000/svg"
   xmlns:svg="http://www.w3.org/2000/svg"><defs
     id="defs3100"><color-profile
       name="PSO-Coated-v3"
       xlink:href="../../../../../../../WINDOWS/system32/spool/drivers/color/PSOcoated_v3.icc"
       id="color-profile3356" /><clipPath
       clipPathUnits="userSpaceOnUse"
       id="clipPath3110"><path
         d="M 0,153.071 H 153.071 V 0 H 0 Z"
         id="path3108" /></clipPath><clipPath
       clipPathUnits="userSpaceOnUse"
       id="clipPath3118"><path
         d="M 0,153.071 H 153.071 V 0 H 0 Z"
         id="path3116" /></clipPath><clipPath
       clipPathUnits="userSpaceOnUse"
       id="clipPath47829"><circle
         style="font-variation-settings:normal;vector-effect:none;fill:#ffffff;fill-opacity:1;stroke:none;stroke-width:12.7534;stroke-linecap:butt;stroke-linejoin:miter;stroke-miterlimit:4;stroke-dasharray:none;stroke-dashoffset:0;stroke-opacity:1;-inkscape-stroke:none;paint-order:markers fill stroke;stop-color:#000000"
         id="circle47831"
         cx="-1180.2649"
         cy="-1892.1558"
         r="174.25528"
         transform="rotate(161.05211)" /></clipPath></defs><sodipodi:namedview
     id="namedview3098"
     pagecolor="#ffffff"
     bordercolor="#666666"
     borderopacity="1.0"
     inkscape:pageshadow="2"
     inkscape:pageopacity="0.0"
     inkscape:pagecheckerboard="0"
     showgrid="false"
     units="mm"
     inkscape:zoom="2.4249054"
     inkscape:cx="153.40805"
     inkscape:cy="120.41707"
     inkscape:window-width="2560"
     inkscape:window-height="1387"
     inkscape:window-x="397"
     inkscape:window-y="1146"
     inkscape:window-maximized="1"
     inkscape:current-layer="g3106"
     inkscape:document-units="mm"
     inkscape:showpageshadow="2"
     inkscape:deskcolor="#d1d1d1" /><g
     id="g3102"
     inkscape:groupmode="layer"
     inkscape:label="aufkl_mini_rund_5,0"
     transform="matrix(1.3333333,0,0,-1.3333333,0,204.09467)"><g
       id="g3104"><g
         id="g3106"
         clip-path="url(#clipPath3110)"><rect
           style="opacity:1;fill:#ffffff;fill-opacity:1;stroke:none;stroke-width:599.787;paint-order:markers fill stroke;stop-color:#000000"
           id="rect4358"
           width="153.07101"
           height="153.07101"
           x="0"
           y="-153.071"
           transform="scale(1,-1)" /><g
           id="g46288"
           transform="matrix(-0.41637034,0,0,0.41637034,828.66919,-409.72079)"><g
             id="g95852"><g
               id="g47331"
               transform="translate(-130.62331,41.433333)"><circle
                 style="font-variation-settings:normal;opacity:1;vector-effect:none;fill:#000000;fill-opacity:1;stroke:#000000;stroke-width:11.6497;stroke-linecap:butt;stroke-linejoin:miter;stroke-miterlimit:4;stroke-dasharray:none;stroke-dashoffset:0;stroke-opacity:1;-inkscape-stroke:none;paint-order:markers fill stroke;stop-color:#000000;stop-opacity:1"
                 id="path47154"
                 cx="-1937.0288"
                 cy="-1126.4124"
                 r="159.17516"
                 transform="scale(-1)" /><circle
                 style="font-variation-settings:normal;opacity:1;vector-effect:none;fill:#ffffff;fill-opacity:1;stroke:none;stroke-width:9.11754;stroke-linecap:butt;stroke-linejoin:miter;stroke-miterlimit:4;stroke-dasharray:none;stroke-dashoffset:0;stroke-opacity:1;-inkscape-stroke:none;paint-order:markers fill stroke;stop-color:#000000;stop-opacity:1"
                 id="circle47255"
                 cx="-1937.0288"
                 cy="-1126.4124"
                 r="124.57706"
                 transform="scale(-1)" /><circle
                 style="font-variation-settings:normal;opacity:1;vector-effect:none;fill:#ffffff;fill-opacity:1;stroke:none;stroke-width:9.11754;stroke-linecap:butt;stroke-linejoin:miter;stroke-miterlimit:4;stroke-dasharray:none;stroke-dashoffset:0;stroke-opacity:1;-inkscape-stroke:none;paint-order:markers fill stroke;stop-color:#000000;stop-opacity:1"
                 id="circle47333"
                 cx="-1937.0288"
                 cy="-1126.4124"
                 r="124.57706"
                 transform="scale(-1)" /><circle
                 style="font-variation-settings:normal;opacity:1;fill:none;fill-opacity:1;stroke:#000000;stroke-width:5.19184;stroke-linecap:butt;stroke-linejoin:miter;stroke-miterlimit:4;stroke-dasharray:none;stroke-dashoffset:0;stroke-opacity:1;paint-order:markers fill stroke;stop-color:#000000;stop-opacity:1"
                 id="circle47833"
                 cx="2047.8639"
                 cy="909.08105"
                 r="133.61992"
                 transform="rotate(6.2345997)" /><g
                 aria-label="STETS ZU SPÄT UND TROTZDEM DA"
                 id="text67401"
                 style="font-size:30px;line-height:1.25;font-family:Bahnschrift;-inkscape-font-specification:Bahnschrift;fill:#ffffff;stroke-width:0.75"><path
                   d="m 2068.5955,1148.1505 q 0.3007,-1.7914 1.0608,-3.0452 0.7576,-1.2393 1.9577,-1.929 1.1977,-0.6753 2.8305,-0.7577 v 0 l 0.8529,3.7674 v 0 q -1.3199,0.1646 -2.1058,0.8645 -0.7738,0.7167 -0.9751,1.9158 -0.2062,1.2279 0.2144,1.9966 0.4325,0.7856 1.4149,0.9505 l 0.9679,0.1625 q 0.7078,0.1188 1.2236,-0.2105 0.5302,-0.3269 0.9113,-0.9164 0.3812,-0.5896 0.893,-1.6029 0.022,-0.041 0.043,-0.082 0.019,-0.026 0.039,-0.053 l 0.072,-0.1661 q 0.8038,-1.6029 1.5347,-2.5942 0.7308,-0.9913 2.0006,-1.5654 1.2818,-0.5572 3.1887,-0.2371 l 0.5779,0.097 q 1.8058,0.3032 2.9654,1.2702 1.174,0.9695 1.6105,2.5281 0.4365,1.5586 0.095,3.5955 -0.2643,1.5747 -0.9832,2.672 -0.707,1.1141 -1.866,1.7365 -1.1591,0.6223 -2.7197,0.7168 v 0 l -0.9109,-3.5989 v 0 q 1.2645,-0.1887 1.9901,-0.7947 0.7376,-0.5892 0.8977,-1.5426 0.1988,-1.1846 -0.1977,-1.9196 -0.382,-0.7325 -1.2777,-0.8829 l -0.7367,-0.1237 q -0.7657,-0.1285 -1.3272,0.208 -0.5615,0.3365 -0.9571,0.9236 -0.3836,0.604 -0.9315,1.6557 -0.029,0.084 -0.087,0.1637 -0.046,0.096 -0.089,0.1781 -0.041,0.067 -0.065,0.1227 -0.024,0.055 -0.065,0.1228 -0.7531,1.4777 -1.4862,2.3944 -0.7356,0.9311 -1.9499,1.4402 -1.2144,0.5091 -3.0346,0.2036 l -0.9246,-0.1553 q -1.8057,-0.3031 -2.975,-1.3015 -1.1571,-0.9815 -1.5888,-2.569 -0.434,-1.573 -0.087,-3.6388 z"
                   style="font-weight:bold;font-stretch:semi-condensed;-inkscape-font-specification:'Bahnschrift Bold Semi-Condensed'"
                   id="path5788" /><path
                   d="m 2085.09,1165.3615 -1.0251,3.6681 -18.8058,-5.2555 1.025,-3.668 z m 2.9489,-3.9669 -3.5089,12.556 -3.5269,-0.9856 3.5089,-12.5561 z"
                   style="font-weight:bold;font-stretch:semi-condensed;-inkscape-font-specification:'Bahnschrift Bold Semi-Condensed'"
                   id="path5790" /><path
                   d="m 2083.1417,1177.9919 -1.4102,3.5537 -19.7969,-7.8566 1.4103,-3.5536 z m -16.9194,-5.0598 -3.777,9.5172 -3.4447,-1.3671 3.7769,-9.5172 z m 8.1011,3.215 -3.3501,8.4416 -3.4311,-1.3617 3.3501,-8.4416 z m 8.251,3.2745 -3.777,9.5171 -3.4447,-1.367 3.777,-9.5172 z"
                   style="font-weight:bold;font-stretch:semi-condensed;-inkscape-font-specification:'Bahnschrift Bold Semi-Condensed'"
                   id="path5792" /><path
                   d="m 2073.7179,1195.2671 -1.7623,3.3763 -17.3101,-9.0355 1.7623,-3.3763 z m 3.7065,-3.2704 -6.0327,11.5574 -3.2465,-1.6946 6.0327,-11.5574 z"
                   style="font-weight:bold;font-stretch:semi-condensed;-inkscape-font-specification:'Bahnschrift Bold Semi-Condensed'"
                   id="path5794" /><path
                   d="m 2048.3349,1199.6777 q 1.0045,-1.5134 2.2095,-2.3487 1.1968,-0.8231 2.5738,-0.964 1.3689,-0.1288 2.8936,0.4613 v 0 l -0.7561,3.788 v 0 q -1.2724,-0.3874 -2.2753,-0.068 -0.9987,0.3392 -1.6711,1.3522 -0.6886,1.0374 -0.6177,1.9108 0.075,0.8936 0.9048,1.4445 l 0.8177,0.5427 q 0.5981,0.397 1.2032,0.3064 0.6174,-0.082 1.2057,-0.4656 0.5884,-0.3831 1.4685,-1.1 0.037,-0.029 0.073,-0.057 0.028,-0.016 0.057,-0.033 l 0.1339,-0.1221 q 1.3871,-1.1364 2.4585,-1.7439 1.0713,-0.6075 2.4648,-0.6144 1.3976,0.013 3.0086,1.0827 l 0.4882,0.324 q 1.5256,1.0126 2.1906,2.3682 0.6772,1.3638 0.4407,2.965 -0.2364,1.6012 -1.3786,3.322 -0.883,1.3303 -1.9866,2.0395 -1.0996,0.7295 -2.4116,0.8256 -1.3121,0.096 -2.7758,-0.4535 v 0 l 0.6345,-3.6578 v 0 q 1.2317,0.3429 2.1412,0.085 0.9136,-0.2375 1.4483,-1.043 0.6643,-1.0008 0.6016,-1.8336 -0.05,-0.8246 -0.8071,-1.3268 l -0.6224,-0.4132 q -0.6469,-0.4293 -1.2968,-0.3508 -0.6498,0.078 -1.2504,0.4535 -0.5964,0.3953 -1.5253,1.1325 -0.061,0.065 -0.146,0.1141 -0.081,0.069 -0.1541,0.1263 -0.065,0.045 -0.1095,0.086 -0.045,0.041 -0.1096,0.085 -1.2898,1.0427 -2.3328,1.5811 -1.0512,0.5506 -2.3676,0.5208 -1.3164,-0.03 -2.8542,-1.0505 l -0.7811,-0.5185 q -1.5255,-1.0126 -2.1865,-2.4007 -0.6569,-1.3678 -0.4042,-2.9934 0.2445,-1.6134 1.4029,-3.3587 z"
                   style="font-weight:bold;font-stretch:semi-condensed;-inkscape-font-specification:'Bahnschrift Bold Semi-Condensed'"
                   id="path5796" /><path
                   d="m 2044.4037,1233.1716 -5.7428,-14.7634 -4.8622,5.2602 -2.6892,-2.4858 7.7456,-8.3797 2.4956,2.3068 5.713,14.7957 4.5639,-4.9375 2.6892,2.4858 -7.4175,8.0247 z"
                   style="font-weight:bold;font-stretch:semi-condensed;-inkscape-font-specification:'Bahnschrift Bold Semi-Condensed'"
                   id="path5798" /><path
                   d="m 2024.6713,1226.6706 q 1.5134,-1.318 3.1058,-1.6753 1.5925,-0.3573 3.1275,0.2678 1.5446,0.6361 2.9107,2.2047 l 9.7934,11.2455 -2.8832,2.5109 -9.8607,-11.3228 q -0.8466,-0.9721 -1.8261,-1.0709 -0.97,-0.088 -1.8758,0.7012 -0.9168,0.7984 -0.9632,1.7712 -0.048,0.9934 0.7988,1.9655 l 9.8607,11.3228 -2.8832,2.5109 -9.7934,-11.2455 q -1.366,-1.5686 -1.7729,-3.1956 -0.4082,-1.6063 0.1755,-3.1442 0.5727,-1.5282 2.0861,-2.8462 z"
                   style="font-weight:bold;font-stretch:semi-condensed;-inkscape-font-specification:'Bahnschrift Bold Semi-Condensed'"
                   id="path5800" /><path
                   d="m 2006.5051,1239.9876 q 1.55,-0.947 2.9951,-1.1949 1.4325,-0.2401 2.7401,0.2141 1.295,0.4618 2.4275,1.641 v 0 l -2.2861,3.1135 v 0 q -0.9895,-0.8888 -2.0332,-1.0236 -1.0485,-0.1147 -2.086,0.5193 -1.0625,0.6492 -1.3674,1.4706 -0.3097,0.8416 0.2096,1.6916 l 0.5118,0.8375 q 0.3742,0.6125 0.961,0.7861 0.5944,0.1862 1.2895,0.088 0.6951,-0.099 1.7957,-0.3763 0.045,-0.01 0.09,-0.021 0.033,0 0.065,-0.01 l 0.1729,-0.054 q 1.7374,-0.4436 2.9651,-0.5415 1.2277,-0.098 2.4936,0.4848 1.261,0.6029 2.2692,2.2528 l 0.3055,0.5 q 0.9547,1.5625 0.9845,3.0721 0.037,1.5221 -0.8536,2.8734 -0.891,1.3512 -2.6535,2.4282 -1.3624,0.8325 -2.6623,1.0088 -1.3048,0.1964 -2.5346,-0.271 -1.2298,-0.4674 -2.3241,-1.584 v 0 l 2.1209,-3.047 v 0 q 0.9714,0.8313 1.9047,0.982 0.9284,0.1709 1.7534,-0.3332 1.0249,-0.6263 1.3201,-1.4075 0.3028,-0.7687 -0.1707,-1.5436 l -0.3896,-0.6375 q -0.4048,-0.6625 -1.0269,-0.866 -0.6222,-0.2035 -1.3249,-0.1174 -0.7076,0.1062 -1.8611,0.3818 -0.083,0.033 -0.1805,0.042 -0.1028,0.028 -0.1931,0.049 -0.078,0.013 -0.1354,0.031 -0.058,0.018 -0.1354,0.031 -1.6096,0.3999 -2.7825,0.4471 -1.1853,0.055 -2.3658,-0.5286 -1.1804,-0.5834 -2.1428,-2.1583 l -0.4888,-0.8 q -0.9547,-1.5625 -0.9671,-3.0999 -0.017,-1.5172 0.8987,-2.8838 0.9035,-1.3589 2.6909,-2.4511 z"
                   style="font-weight:bold;font-stretch:semi-condensed;-inkscape-font-specification:'Bahnschrift Bold Semi-Condensed'"
                   id="path5802" /><path
                   d="m 2001.892,1256.4634 -4.7383,2.2125 q -0.5177,0.2417 -0.791,0.6604 -0.2804,0.4381 -0.2883,0.9753 -0.015,0.5566 0.264,1.1539 l 0.5516,1.1812 q 0.2851,0.6106 0.7082,0.9627 0.4293,0.3654 0.939,0.4184 0.5027,0.072 1.0336,-0.1755 l 4.7383,-2.2126 1.5495,3.3182 -4.7517,2.2188 q -1.606,0.7499 -3.0785,0.6777 -1.4797,-0.053 -2.656,-0.91 -1.1833,-0.8378 -1.9147,-2.404 l -0.7871,-1.6856 q -0.7189,-1.5396 -0.6015,-2.9848 0.1103,-1.4256 1.0197,-2.594 0.9095,-1.1683 2.5022,-1.912 l 4.7516,-2.2188 z m 5.5593,7.7508 -3.4642,1.6176 -9.0114,-19.2986 3.4641,-1.6176 z"
                   style="font-weight:bold;font-stretch:semi-condensed;-inkscape-font-specification:'Bahnschrift Bold Semi-Condensed'"
                   id="path5804" /><path
                   d="m 1987.1176,1272.7355 -2.4167,0.8099 -12.9765,-18.1142 3.7362,-1.2521 8.205,12.2668 -0.8438,-14.7339 3.7501,-1.2567 z m -1.8115,-14.4867 -7.9586,2.6671 -1.1543,-3.4445 7.9585,-2.6672 z m 1.3626,20.4769 -3.6112,1.2103 -1.2056,-3.5973 3.6112,-1.2103 z m 5.6112,-1.8805 -3.5973,1.2056 -1.2056,-3.5973 3.5973,-1.2056 z"
                   style="font-weight:bold;font-stretch:semi-condensed;-inkscape-font-specification:'Bahnschrift Bold Semi-Condensed'"
                   id="path5806" /><path
                   d="m 1972.0438,1275.2404 -3.7183,0.8241 -4.2251,-19.0638 3.7184,-0.8241 z m 4.8885,0.7321 -12.7282,2.8209 -0.7924,-3.5754 12.7282,-2.8209 z"
                   style="font-weight:bold;font-stretch:semi-condensed;-inkscape-font-specification:'Bahnschrift Bold Semi-Condensed'"
                   id="path5808" /><path
                   d="m 1945.106,1259.2786 q 2.0032,-0.1212 3.483,0.567 1.4798,0.6883 2.3149,2.1199 0.836,1.4463 0.9616,3.5226 l 0.9007,14.8849 -3.8163,0.2309 -0.9069,-14.9872 q -0.078,-1.2867 -0.7938,-1.9625 -0.715,-0.6611 -1.914,-0.5886 -1.2136,0.073 -1.8438,0.816 -0.6438,0.758 -0.566,2.0447 l 0.9069,14.9873 -3.8162,0.2309 -0.9007,-14.8849 q -0.1257,-2.0763 0.5444,-3.6137 0.6564,-1.5219 2.057,-2.3845 1.3861,-0.8616 3.3892,-0.9828 z"
                   style="font-weight:bold;font-stretch:semi-condensed;-inkscape-font-specification:'Bahnschrift Bold Semi-Condensed'"
                   id="path5810" /><path
                   d="m 1934.3678,1281.1503 -3.8308,-0.2344 -5.4746,-15.5831 0.4097,-0.4593 -0.959,15.6739 -3.5675,-0.2183 1.2997,-21.2445 3.8746,0.2371 5.4493,15.0386 -0.3951,0.4601 0.9259,-15.1328 3.5675,0.2182 z"
                   style="font-weight:bold;font-stretch:semi-condensed;-inkscape-font-specification:'Bahnschrift Bold Semi-Condensed'"
                   id="path5812" /><path
                   d="m 1915.8001,1261.7963 -3.8021,-0.7069 q -1.3105,-0.2436 -2.142,0.302 -0.8486,0.5574 -1.0762,1.7816 l -1.5905,8.5546 q -0.2276,1.2241 0.3666,2.0349 0.5772,0.8224 1.8877,1.0661 l 3.802,0.7069 -0.6694,3.6004 -3.946,-0.7337 q -2.045,-0.3802 -3.3513,-1.368 -1.309,-0.9735 -1.8062,-2.4665 -0.5116,-1.4956 -0.1554,-3.411 l 1.644,-8.8427 q 0.3454,-1.8578 1.3343,-3.0894 0.9862,-1.2172 2.5773,-1.6812 1.5911,-0.464 3.6649,-0.079 l 3.9317,0.731 z m -1.0348,17.7466 -3.7588,-0.6989 3.8932,-20.9399 3.7588,0.6988 z"
                   style="font-weight:bold;font-stretch:semi-condensed;-inkscape-font-specification:'Bahnschrift Bold Semi-Condensed'"
                   id="path5814" /><path
                   d="m 1887.1634,1270.9509 -3.5839,-1.2886 6.6069,-18.3747 3.5839,1.2887 z m 3.7424,3.2292 -12.2682,-4.4112 1.2391,-3.4461 12.2682,4.4112 z"
                   style="font-weight:bold;font-stretch:semi-condensed;-inkscape-font-specification:'Bahnschrift Bold Semi-Condensed'"
                   id="path5816" /><path
                   d="m 1877.0637,1259.4307 -4.9905,-2.4325 q -0.4872,-0.2375 -0.9454,-0.2001 -0.4714,0.031 -0.8483,0.3362 -0.3901,0.2987 -0.66,0.819 l -0.5391,1.1061 q -0.2695,0.553 -0.271,1.0575 -0.015,0.498 0.245,0.9016 0.2464,0.3971 0.7468,0.641 l 4.9905,2.4325 -1.6045,3.2919 -5.0301,-2.4517 q -1.5669,-0.7638 -2.4172,-1.9279 -0.8504,-1.1641 -0.9173,-2.5981 -0.067,-1.4341 0.6776,-2.9615 l 0.5712,-1.1719 q 0.7573,-1.5538 1.9346,-2.3977 1.1772,-0.844 2.6376,-0.898 1.4408,-0.047 2.9946,0.71 l 5.03,2.4517 z m -2.4281,8.6592 -3.3972,-1.6559 9.3383,-19.1588 3.3972,1.6558 z m 0.4256,-12.976 -3.7057,-1.0565 0.3726,-11.0952 3.9239,1.9126 z"
                   style="font-weight:bold;font-stretch:semi-condensed;-inkscape-font-specification:'Bahnschrift Bold Semi-Condensed'"
                   id="path5818" /><path
                   d="m 1864.5929,1238.1589 q 1.6846,1.0907 2.5045,2.5465 0.82,1.4558 0.716,3.0987 -0.1162,1.6349 -1.1751,3.2703 l -4.8882,7.5498 q -1.0589,1.6354 -2.5031,2.4105 -1.4644,0.7794 -3.1203,0.6147 -1.6639,-0.1524 -3.3485,-1.2431 -1.6845,-1.0907 -2.5045,-2.5465 -0.8279,-1.4435 -0.7037,-3.0907 0.1039,-1.6429 1.1628,-3.2783 l 4.8883,-7.5498 q 1.0588,-1.6354 2.5153,-2.4025 1.4442,-0.7751 3.1081,-0.6227 1.6638,0.1524 3.3484,1.2431 z m -2.07,3.197 q -0.6762,-0.4379 -1.3635,-0.4815 -0.6995,-0.052 -1.2921,0.2977 -0.6129,0.3536 -1.0667,1.0545 l -4.6892,7.2423 q -0.4459,0.6886 -0.5097,1.3802 -0.084,0.6959 0.2492,1.3131 0.321,0.6092 0.9973,1.0471 0.6763,0.4379 1.3635,0.4815 0.6873,0.044 1.3001,-0.31 0.6049,-0.3413 1.0508,-1.0298 l 4.6892,-7.2424 q 0.4538,-0.7009 0.5256,-1.4048 0.064,-0.6916 -0.2571,-1.3008 -0.3211,-0.6092 -0.9974,-1.0471 z"
                   style="font-weight:bold;font-stretch:semi-condensed;-inkscape-font-specification:'Bahnschrift Bold Semi-Condensed'"
                   id="path5820" /><path
                   d="m 1842.0278,1246.2669 -2.9504,-2.4084 12.3475,-15.1267 2.9505,2.4084 z m 2.4538,4.2909 -10.0996,-8.2441 2.3157,-2.8369 10.0996,8.244 z"
                   style="font-weight:bold;font-stretch:semi-condensed;-inkscape-font-specification:'Bahnschrift Bold Semi-Condensed'"
                   id="path5822" /><path
                   d="m 1826.0963,1229.475 14.9684,-5.1851 -5.0741,-5.056 2.5848,-2.5941 8.0834,8.0544 -2.3988,2.4073 -14.9995,5.1541 4.7628,4.7458 -2.5848,2.5942 -7.741,-7.7132 z"
                   style="font-weight:bold;font-stretch:semi-condensed;-inkscape-font-specification:'Bahnschrift Bold Semi-Condensed'"
                   id="path5824" /><path
                   d="m 1832.5472,1215.2414 -2.425,-3.0123 q -0.8359,-1.0384 -1.8223,-1.1658 -1.007,-0.1296 -1.9769,0.6512 l -6.7778,5.4563 q -0.9699,0.7808 -1.0469,1.7831 -0.098,1 0.7383,2.0383 l 2.425,3.0124 -2.8526,2.2964 -2.5169,-3.1264 q -1.3044,-1.6203 -1.6524,-3.2207 -0.3595,-1.5911 0.2354,-3.0479 0.5858,-1.4682 2.1034,-2.6899 l 7.006,-5.6401 q 1.472,-1.1849 3.0244,-1.4756 1.5411,-0.2815 3.0508,0.4024 1.5097,0.684 2.8324,2.3271 l 2.5077,3.1151 z m -12.342,12.794 -2.3975,-2.9781 16.5909,-13.356 2.3975,2.9781 z"
                   style="font-weight:bold;font-stretch:semi-condensed;-inkscape-font-specification:'Bahnschrift Bold Semi-Condensed'"
                   id="path5826" /><path
                   d="m 1809.0251,1213.5428 -2.046,-3.2296 17.9922,-11.3983 2.046,3.2297 z m 14.0384,-10.7142 -5.4796,-8.6496 3.1307,-1.9833 5.4796,8.6496 z m -7.3627,4.6644 -4.8603,-7.6721 3.1183,-1.9755 4.8603,7.6721 z m -7.4988,4.7505 -5.4796,-8.6496 3.1307,-1.9833 5.4796,8.6496 z"
                   style="font-weight:bold;font-stretch:semi-condensed;-inkscape-font-specification:'Bahnschrift Bold Semi-Condensed'"
                   id="path5828" /><path
                   d="m 1794.9344,1188.0006 -1.8201,-3.9031 19.3033,-9.0014 1.4548,3.1199 -14.2053,6.6241 0.7692,-0.5688 12.0588,-1.6956 1.1205,2.4029 -8.7845,8.024 -1.208,0.3208 14.2052,-6.6241 1.4672,3.1464 -19.3032,9.0014 -1.8387,-3.943 10.0989,-8.8792 z"
                   style="font-weight:bold;font-stretch:semi-condensed;-inkscape-font-specification:'Bahnschrift Bold Semi-Condensed'"
                   id="path5830" /><path
                   d="m 1804.9271,1163.7736 -0.9626,-3.7455 q -0.3318,-1.2911 -1.1772,-1.8149 -0.8633,-0.5343 -2.0693,-0.2244 l -8.4273,2.1658 q -1.2059,0.3099 -1.6904,1.1907 -0.5023,0.8702 -0.1705,2.1612 l 0.9626,3.7455 -3.5469,0.9115 -0.999,-3.8873 q -0.5178,-2.0146 -0.173,-3.6157 0.3305,-1.5974 1.4745,-2.6778 1.1404,-1.0947 3.0273,-1.5797 l 8.7111,-2.2387 q 1.8302,-0.4704 3.3639,-0.093 1.5196,0.3808 2.6114,1.6278 1.0918,1.247 1.6169,3.29 l 0.9954,3.8731 z m -16.5274,6.5464 -0.9516,-3.7029 20.6285,-5.3015 0.9516,3.7029 z"
                   style="font-weight:bold;font-stretch:semi-condensed;-inkscape-font-specification:'Bahnschrift Bold Semi-Condensed'"
                   id="path5832" /><path
                   d="m 1783.6195,1147.9612 -0.3372,-2.5265 20.2456,-9.3075 0.5212,3.9058 -13.5997,5.7311 14.6266,1.9644 0.5232,3.9203 z m 14.5674,0.9674 -1.1102,-8.3198 3.6009,-0.4806 1.1102,8.3199 z"
                   style="font-weight:bold;font-stretch:semi-condensed;-inkscape-font-specification:'Bahnschrift Bold Semi-Condensed'"
                   id="path5834" /></g><path
                 id="circle79522"
                 style="opacity:1;fill:none;stroke:#000000;stroke-width:5.93957;paint-order:markers fill stroke;stop-color:#000000;stop-opacity:1"
                 d="m 2073.5236,1054.561 c -22.7926,-43.4401 -66.0481,-75.15614 -118.4714,-81.01201 -83.9025,-9.37219 -159.5167,51.04661 -168.8889,134.94921"
                 sodipodi:nodetypes="csc"
                 inkscape:transform-center-x="-8.1646271"
                 inkscape:transform-center-y="121.32725" /><g
                 aria-label="EISENBAHNER-ANTIFA"
                 transform="matrix(1.0234233,0,0,1.0234233,-45.304021,-23.825056)"
                 id="text84047"
                 style="font-size:30px;line-height:1.25;font-family:Bahnschrift;-inkscape-font-specification:Bahnschrift;letter-spacing:1.46567px;fill:#ffffff;stroke-width:0.75"><path
                   d="m 2054.2921,1063.4028 -2.0693,-3.4392 18.2501,-10.9806 2.0693,3.4392 z m 14.1888,-10.2295 -6.608,-10.9827 3.3136,-1.9937 6.608,10.9826 z m -7.4055,4.4557 -5.7773,-9.602 3.3137,-1.9938 5.7772,9.602 z m -7.531,4.5312 -6.608,-10.9827 3.3136,-1.9937 6.6081,10.9827 z"
                   style="font-weight:bold;-inkscape-font-specification:'Bahnschrift Bold'"
                   id="path5751" /><path
                   d="m 2059.8053,1032.9733 2.4725,3.3457 -17.1291,12.6584 -2.4725,-3.3457 z"
                   style="font-weight:bold;-inkscape-font-specification:'Bahnschrift Bold'"
                   id="path5753" /><path
                   d="m 2051.961,1023.1609 q 1.0181,1.1333 1.7682,2.4285 0.7403,1.2844 1.1659,2.6349 0.4049,1.3494 0.4593,2.6593 v 0 l -3.706,0.8285 v 0 q -0.07,-1.5908 -0.7332,-3.1614 -0.6736,-1.5609 -1.8092,-2.825 -1.3118,-1.4601 -2.5266,-1.826 -1.2257,-0.356 -2.1301,0.4565 l -0.011,0.01 q -0.632,0.5678 -0.6795,1.2602 -0.047,0.6924 0.2971,1.4266 0.3445,0.7342 1.0153,1.7659 0.018,0.043 0.048,0.075 0.02,0.022 0.038,0.064 l 0.1827,0.2691 q 1.1787,1.8161 1.7479,3.1951 0.5584,1.3887 0.2772,2.9607 -0.2921,1.5818 -2.0247,3.1383 l -0.011,0.01 q -1.5365,1.3803 -3.2429,1.6728 -1.7065,0.2924 -3.4478,-0.5062 -1.7523,-0.7888 -3.4165,-2.6412 -0.7636,-0.85 -1.3604,-1.9088 -0.6066,-1.0698 -0.9997,-2.2526 -0.3931,-1.1828 -0.5553,-2.4155 v 0 l 3.6637,-1.0071 v 0 q 0.1903,1.4831 0.7422,2.7989 0.5422,1.3049 1.3645,2.2202 1.2334,1.373 2.3666,1.7138 1.1222,0.3505 1.9395,-0.3837 l 0.011,-0.01 q 0.6865,-0.6168 0.7373,-1.3713 0.04,-0.7447 -0.2938,-1.4886 -0.3335,-0.744 -1.0663,-1.9761 -0.028,-0.053 -0.057,-0.1067 -0.039,-0.044 -0.067,-0.097 -0.048,-0.075 -0.075,-0.1492 -0.048,-0.075 -0.096,-0.1504 -1.0567,-1.7681 -1.5324,-3.1524 -0.4963,-1.3854 -0.1662,-2.9029 0.3193,-1.5077 1.9321,-2.9566 l 0.022,-0.019 q 1.5146,-1.3608 3.2298,-1.6216 1.7151,-0.2609 3.5054,0.5922 1.7805,0.8421 3.4937,2.7491 z"
                   style="font-weight:bold;-inkscape-font-specification:'Bahnschrift Bold'"
                   id="path5755" /><path
                   d="m 2028.9347,1030.0683 -3.0393,-2.6215 13.9111,-16.1283 3.0393,2.6215 z m 10.2872,-14.1471 -9.7058,-8.3715 2.5258,-2.9284 9.7058,8.3715 z m -5.6448,6.5445 -8.4857,-7.3191 2.5258,-2.9284 8.4857,7.3191 z m -5.7405,6.6554 -9.7058,-8.3715 2.5258,-2.9284 9.7058,8.3715 z"
                   style="font-weight:bold;-inkscape-font-specification:'Bahnschrift Bold'"
                   id="path5757" /><path
                   d="m 2016.3673,1019.3813 -4.119,-2.6674 2.2182,-18.00471 0.5021,-0.12859 -9.077,14.0169 -3.2215,-2.0862 11.5692,-17.8653 4.1436,2.68329 -2.1073,17.77981 -0.5022,0.1286 8.9417,-13.80784 3.2214,2.08614 z"
                   style="font-weight:bold;-inkscape-font-specification:'Bahnschrift Bold'"
                   id="path5759" /><path
                   d="m 2005.5872,992.48511 -6.1679,-2.85578 q -1.2495,-0.57855 -2.2044,-0.29427 -0.9743,0.29142 -1.479,1.38143 l -0.018,0.0399 q -0.3385,0.7311 -0.2728,1.39108 0.066,0.65997 0.5408,1.20279 0.4556,0.54995 1.2798,0.93155 l 6.1678,2.85578 -1.6248,3.50921 -6.1679,-2.85572 q -1.1298,-0.52315 -2.006,-0.23468 -0.8894,0.28232 -1.3694,1.31915 v 0 q -0.4309,0.93049 -0.046,1.73815 0.3714,0.8015 1.5013,1.3247 l 6.1678,2.8558 -1.6249,3.5092 -6.2874,-2.9111 q -1.8743,-0.8679 -2.9143,-2.1081 -1.0461,-1.2269 -1.1896,-2.73 -0.1496,-1.48979 0.6136,-3.13809 v 0 q 0.5231,-1.12988 1.3813,-1.79793 0.8387,-0.66093 1.948,-0.82532 1.1092,-0.16439 2.3979,0.19014 -1.1961,-0.76365 -1.8169,-1.79364 -0.6403,-1.02285 -0.6562,-2.20863 -0.029,-1.19194 0.5616,-2.46804 l 0.019,-0.0399 q 0.7693,-1.66159 2.0216,-2.51844 1.239,-0.863 2.8708,-0.86613 1.6124,0.004 3.4867,0.87182 l 6.5134,3.01581 z m -5.729,16.55689 -3.6422,-1.6864 8.9489,-19.32759 3.6422,1.68639 z"
                   style="font-weight:bold;-inkscape-font-specification:'Bahnschrift Bold'"
                   id="path5761" /><path
                   d="m 1978.0565,1000.0855 -2.4367,-0.74762 -1.5389,-22.75094 4.1312,1.26751 0.6068,15.40133 9.14,-12.41086 4.1313,1.26751 z m 8.1591,-12.16022 -10.7131,-3.28694 1.1343,-3.69709 10.7131,3.28694 z"
                   style="font-weight:bold;-inkscape-font-specification:'Bahnschrift Bold'"
                   id="path5763" /><path
                   d="m 1955.1605,994.95991 -3.9634,-0.63311 3.3596,-21.03219 3.9635,0.63311 z m 11.5142,1.83924 -3.9634,-0.63311 3.3596,-21.03219 3.9634,0.63311 z m -0.4484,-8.98694 -12.2519,-1.95709 0.61,-3.81877 12.2519,1.95708 z"
                   style="font-weight:bold;-inkscape-font-specification:'Bahnschrift Bold'"
                   id="path5765" /><path
                   d="m 1948.082,994.02941 -4.9067,-0.0748 -7.675,-16.43732 0.3573,-0.37545 -0.2546,16.69728 -3.8375,-0.0585 0.3246,-21.2817 4.9359,0.0753 7.6496,16.18787 -0.3574,0.37545 0.2509,-16.44828 3.8374,0.0585 z"
                   style="font-weight:bold;-inkscape-font-specification:'Bahnschrift Bold'"
                   id="path5767" /><path
                   d="m 1928.5236,994.05522 -3.9839,0.48818 -2.5905,-21.1407 3.9839,-0.48818 z m -3.5596,-17.12584 -12.7222,1.55896 -0.4704,-3.83848 12.7222,-1.55895 z m 1.0512,8.57842 -11.1229,1.36297 -0.4704,-3.83848 11.1229,-1.36297 z m 1.069,8.72381 -12.7223,1.55895 -0.4703,-3.83847 12.7222,-1.55896 z"
                   style="font-weight:bold;-inkscape-font-specification:'Bahnschrift Bold'"
                   id="path5769" /><path
                   d="m 1908.3122,988.06502 -7.1722,1.87043 q -0.5953,0.15525 -0.9713,0.5712 -0.3759,0.41595 -0.4727,1.03159 -0.111,0.61934 0.063,1.34593 v 0 q 0.1885,0.72289 0.5878,1.20915 0.3851,0.48996 0.9163,0.66934 0.5312,0.17937 1.1407,0.0204 l 7.1723,-1.87043 0.9758,3.74203 -7.484,1.95175 q -1.701,0.44358 -3.1904,0.0145 -1.4895,-0.42903 -2.5642,-1.64747 -1.071,-1.20426 -1.5515,-3.04693 v 0 q -0.4806,-1.84267 -0.1378,-3.43075 0.3465,-1.57392 1.4509,-2.67941 1.0903,-1.1018 2.777,-1.54168 l 7.4841,-1.95176 z m 3.7851,8.18674 -3.8837,1.01284 -5.3785,-20.6237 3.8838,-1.01284 z m -8.9319,-10.1598 -3.9831,1.7351 -8.0552,-8.13284 4.7059,-1.22724 z"
                   style="font-weight:bold;-inkscape-font-specification:'Bahnschrift Bold'"
                   id="path5771" /><path
                   d="m 1881.5912,996.59864 -1.4161,-3.59861 9.7054,-3.81904 1.416,3.5986 z"
                   style="font-weight:bold;-inkscape-font-specification:'Bahnschrift Bold'"
                   id="path5773" /><path
                   d="m 1876.9751,1008.9309 -2.2446,1.2077 -17.2641,-14.8971 3.8054,-2.04753 11.3813,10.39403 -2.4031,-15.22483 3.8054,-2.04754 z m -2.9144,-14.35093 -9.8682,5.30972 -1.8324,-3.40552 9.8682,-5.30971 z"
                   style="font-weight:bold;-inkscape-font-specification:'Bahnschrift Bold'"
                   id="path5775" /><path
                   d="m 1866.7034,1014.6005 -3.9401,2.9252 -16.0903,-8.3782 0.055,-0.5153 9.9544,13.4079 -3.0815,2.2878 -12.6875,-17.0893 3.9636,-2.9426 15.9183,8.1956 -0.055,0.5154 -9.806,-13.20799 3.0814,-2.28778 z"
                   style="font-weight:bold;-inkscape-font-specification:'Bahnschrift Bold'"
                   id="path5777" /><path
                   d="m 1846.9511,1028.1428 -2.8838,2.7917 -13.6016,-14.0507 2.8838,-2.7916 z m 5.3803,-2.7822 -11.2195,10.8609 -2.6898,-2.7785 11.2195,-10.8609 z"
                   style="font-weight:bold;-inkscape-font-specification:'Bahnschrift Bold'"
                   id="path5779" /><path
                   d="m 1821.3117,1026.7709 2.7312,-3.138 16.0658,13.9831 -2.7312,3.1381 z"
                   style="font-weight:bold;-inkscape-font-specification:'Bahnschrift Bold'"
                   id="path5781" /><path
                   d="m 1834.7634,1043.8089 -2.3632,3.2442 -17.2156,-12.5404 2.3632,-3.2443 z m -8.1205,-4.103 -6.4255,8.8209 -3.1258,-2.2769 6.4255,-8.8209 z m 7.258,5.287 -7.3742,10.1234 -3.1258,-2.277 7.3742,-10.1233 z"
                   style="font-weight:bold;-inkscape-font-specification:'Bahnschrift Bold'"
                   id="path5783" /><path
                   d="m 1823.5496,1060.633 -1.2351,2.2296 -22.5778,-3.1963 2.094,-3.7801 15.1942,2.5894 -10.2539,-11.5077 2.094,-3.7801 z m -10.2114,-10.4961 -5.4301,9.8025 -3.3828,-1.8739 5.4301,-9.8026 z"
                   style="font-weight:bold;-inkscape-font-specification:'Bahnschrift Bold'"
                   id="path5785" /></g></g><g
               id="g47417"
               transform="matrix(0.67617326,0.23213747,-0.23213747,0.67617326,962.62076,-184.87771)"
               clip-path="url(#clipPath47829)"><g
                 id="g47006"
                 transform="matrix(0.92816518,0,0,0.92816518,136.84611,103.45871)"><g
                   id="g46946"
                   transform="translate(55.036681,-55.58715)"><rect
                     style="fill:#000000;stroke:none;stroke-width:8.50395;paint-order:markers fill stroke;stop-color:#000000"
                     id="rect46920"
                     width="16.763123"
                     height="43.557461"
                     x="1635.9081"
                     y="-1533.4316"
                     transform="scale(1,-1)"
                     rx="5.5156054"
                     ry="5.5156054" /><rect
                     style="fill:#000000;stroke:none;stroke-width:8.50395;paint-order:markers fill stroke;stop-color:#000000"
                     id="rect46934"
                     width="16.763123"
                     height="399.6969"
                     x="1635.9081"
                     y="-1501.741"
                     transform="scale(1,-1)" /><rect
                     style="fill:#e6e6e6;stroke:none;stroke-width:8.50395;paint-order:markers fill stroke;stop-color:#000000"
                     id="rect46936"
                     width="16.763123"
                     height="65.118515"
                     x="1635.9081"
                     y="-1298.6492"
                     transform="scale(1,-1)" /><rect
                     style="fill:#e6e6e6;stroke:none;stroke-width:8.50395;paint-order:markers fill stroke;stop-color:#000000"
                     id="rect46938"
                     width="16.763123"
                     height="65.118515"
                     x="1635.9081"
                     y="-1436.6224"
                     transform="scale(1,-1)" /><rect
                     style="fill:#000000;stroke:none;stroke-width:8.50395;paint-order:markers fill stroke;stop-color:#000000"
                     id="rect46940"
                     width="16.763123"
                     height="109.87204"
                     x="1635.9081"
                     y="-1113.9613"
                     transform="scale(1,-1)" /><rect
                     style="fill:#e6e6e6;stroke:none;stroke-width:8.50395;paint-order:markers fill stroke;stop-color:#000000"
                     id="rect46942"
                     width="16.763123"
                     height="65.118515"
                     x="1635.9081"
                     y="-1167.1626"
                     transform="scale(1,-1)" /><rect
                     style="fill:#000000;stroke:none;stroke-width:4.27644;paint-order:markers fill stroke;stop-color:#000000"
                     id="rect46944"
                     width="4.0218081"
                     height="419.02896"
                     x="1628.3073"
                     y="-1521.6786"
                     transform="scale(1,-1)" /></g><g
                   id="g46952"
                   transform="matrix(1.3935035,-0.37338813,0.37338813,1.3935035,137.09348,-396.0492)"
                   inkscape:transform-center-x="13.260078"
                   inkscape:transform-center-y="-53.688005"
                   style="font-variation-settings:normal;opacity:1;vector-effect:none;fill:#ffffff;fill-opacity:1;stroke:#000000;stroke-width:8.50395;stroke-linecap:butt;stroke-linejoin:miter;stroke-miterlimit:4;stroke-dasharray:none;stroke-dashoffset:0;stroke-opacity:1;-inkscape-stroke:none;paint-order:markers fill stroke;stop-color:#000000;stop-opacity:1"><rect
                     style="font-variation-settings:normal;vector-effect:none;fill:#ffffff;fill-opacity:1;stroke:#000000;stroke-width:8.50395;stroke-linecap:butt;stroke-linejoin:miter;stroke-miterlimit:4;stroke-dasharray:none;stroke-dashoffset:0;stroke-opacity:1;-inkscape-stroke:none;paint-order:markers fill stroke;stop-color:#000000;stop-opacity:1"
                     id="rect46948"
                     width="113.36688"
                     height="18.24649"
                     x="720.94897"
                     y="-1459.3419"
                     transform="scale(1,-1)"
                     rx="9.1232452"
                     ry="9.1232452" /><circle
                     style="font-variation-settings:normal;vector-effect:none;fill:#ffffff;fill-opacity:1;stroke:#000000;stroke-width:8.50395;stroke-linecap:butt;stroke-linejoin:miter;stroke-miterlimit:4;stroke-dasharray:none;stroke-dashoffset:0;stroke-opacity:1;-inkscape-stroke:none;paint-order:markers fill stroke;stop-color:#000000;stop-opacity:1"
                     id="circle46950"
                     cx="829.92755"
                     cy="-1450.2186"
                     r="15.121508"
                     transform="scale(1,-1)" /></g><g
                   id="g46960"
                   transform="matrix(0.72133047,-1.249381,1.249381,0.72133047,-600.2118,1363.8528)"
                   inkscape:transform-center-x="19.786538"
                   inkscape:transform-center-y="-85.777078"
                   style="stroke:#000000"><g
                     id="g46958"
                     transform="rotate(45,789.47408,1458.0653)"
                     style="fill:#ffffff;stroke:#000000"><rect
                       style="fill:#ffffff;stroke:#000000;stroke-width:8.50395;paint-order:markers fill stroke;stop-color:#000000"
                       id="rect46954"
                       width="142.40874"
                       height="18.24646"
                       x="712.18243"
                       y="-1467.1886"
                       transform="scale(1,-1)"
                       rx="9.12323"
                       ry="9.12323" /><circle
                       style="fill:#ffffff;stroke:#000000;stroke-width:8.50395;paint-order:markers fill stroke;stop-color:#000000"
                       id="circle46956"
                       cx="846.35645"
                       cy="-1458.0653"
                       r="15.121508"
                       transform="scale(1,-1)" /></g></g></g><g
                 id="g47361"><g
                   id="g46790"
                   transform="translate(-0.56249241,11.284942)"><rect
                     style="fill:#ff0000;stroke:none;stroke-width:8.50395;paint-order:markers fill stroke;stop-color:#000000"
                     id="rect46223"
                     width="16.763269"
                     height="43.557461"
                     x="1635.9081"
                     y="-1533.4316"
                     transform="scale(1,-1)"
                     rx="5.5156054"
                     ry="5.5156054" /><rect
                     style="fill:#ff0000;stroke:none;stroke-width:8.50395;paint-order:markers fill stroke;stop-color:#000000"
                     id="rect46237"
                     width="16.763123"
                     height="399.6969"
                     x="1635.9081"
                     y="-1501.741"
                     transform="scale(1,-1)" /><rect
                     style="fill:#e6e6e6;stroke:none;stroke-width:8.50395;paint-order:markers fill stroke;stop-color:#000000"
                     id="rect46239"
                     width="16.763123"
                     height="65.118515"
                     x="1635.9081"
                     y="-1298.6492"
                     transform="scale(1,-1)" /><rect
                     style="fill:#e6e6e6;stroke:none;stroke-width:8.50395;paint-order:markers fill stroke;stop-color:#000000"
                     id="rect46241"
                     width="16.763123"
                     height="65.118515"
                     x="1635.9081"
                     y="-1436.6224"
                     transform="scale(1,-1)" /><rect
                     style="fill:#000000;stroke:none;stroke-width:8.50395;paint-order:markers fill stroke;stop-color:#000000"
                     id="rect46243"
                     width="16.763123"
                     height="109.87204"
                     x="1635.9081"
                     y="-1113.9613"
                     transform="scale(1,-1)" /><rect
                     style="fill:#e6e6e6;stroke:none;stroke-width:8.50395;paint-order:markers fill stroke;stop-color:#000000"
                     id="rect46245"
                     width="16.763123"
                     height="65.118515"
                     x="1635.9081"
                     y="-1167.1626"
                     transform="scale(1,-1)" /><rect
                     style="fill:#000000;stroke:none;stroke-width:4.27644;paint-order:markers fill stroke;stop-color:#000000"
                     id="rect46247"
                     width="3.8296654"
                     height="399.00552"
                     x="1628.4994"
                     y="-1501.6552"
                     transform="scale(1,-1)" /></g><g
                   id="g46253"
                   transform="matrix(1.3935035,-0.37338813,0.37338813,1.3935035,82.056806,-332.3816)"
                   inkscape:transform-center-x="13.260078"
                   inkscape:transform-center-y="-53.688005"
                   style="font-variation-settings:normal;opacity:1;vector-effect:none;fill:#ffffff;fill-opacity:1;stroke:#ff0000;stroke-width:8.50395;stroke-linecap:butt;stroke-linejoin:miter;stroke-miterlimit:4;stroke-dasharray:none;stroke-dashoffset:0;stroke-opacity:1;-inkscape-stroke:none;paint-order:markers fill stroke;stop-color:#000000;stop-opacity:1"><rect
                     style="font-variation-settings:normal;vector-effect:none;fill:#ffffff;fill-opacity:1;stroke:#ff0000;stroke-width:8.50395;stroke-linecap:butt;stroke-linejoin:miter;stroke-miterlimit:4;stroke-dasharray:none;stroke-dashoffset:0;stroke-opacity:1;-inkscape-stroke:none;paint-order:markers fill stroke;stop-color:#000000;stop-opacity:1"
                     id="rect46249"
                     width="113.36688"
                     height="18.24649"
                     x="720.94897"
                     y="-1459.3419"
                     transform="scale(1,-1)"
                     rx="9.1232452"
                     ry="9.1232452" /><circle
                     style="font-variation-settings:normal;vector-effect:none;fill:#ffffff;fill-opacity:1;stroke:#ff0000;stroke-width:8.50395;stroke-linecap:butt;stroke-linejoin:miter;stroke-miterlimit:4;stroke-dasharray:none;stroke-dashoffset:0;stroke-opacity:1;-inkscape-stroke:none;paint-order:markers fill stroke;stop-color:#000000;stop-opacity:1"
                     id="circle46251"
                     cx="829.92755"
                     cy="-1450.2186"
                     r="15.121508"
                     transform="scale(1,-1)" /></g><g
                   id="g46261"
                   transform="matrix(0.72133047,-1.249381,1.249381,0.72133047,-655.24848,1419.4399)"
                   inkscape:transform-center-x="19.786538"
                   inkscape:transform-center-y="-85.777078"><g
                     id="g46259"
                     transform="rotate(45,789.47408,1458.0653)"
                     style="fill:#ffffff;stroke:#ff0000"><rect
                       style="fill:#ffffff;stroke:#ff0000;stroke-width:8.50395;paint-order:markers fill stroke;stop-color:#000000"
                       id="rect46255"
                       width="142.40874"
                       height="18.24646"
                       x="712.18243"
                       y="-1467.1886"
                       transform="scale(1,-1)"
                       rx="9.12323"
                       ry="9.12323" /><circle
                       style="fill:#ffffff;stroke:#ff0000;stroke-width:8.50395;paint-order:markers fill stroke;stop-color:#000000"
                       id="circle46257"
                       cx="846.35645"
                       cy="-1458.0653"
                       r="15.121508"
                       transform="scale(1,-1)" /></g></g></g></g></g></g><g
           id="g3124"
           transform="translate(76.536,6.169)" /></g></g></g></svg>
