<?xml version="1.0" encoding="UTF-8" standalone="no"?>
<!-- Created with Inkscape (http://www.inkscape.org/) -->

<svg
   width="782.47095mm"
   height="434.18127mm"
   viewBox="0 0 782.47095 434.18127"
   version="1.1"
   id="svg1"
   xml:space="preserve"
   inkscape:version="1.3.2 (091e20e, 2023-11-25, custom)"
   sodipodi:docname="42c3-time_travel_is_not_a_crime.svg"
   xmlns:inkscape="http://www.inkscape.org/namespaces/inkscape"
   xmlns:sodipodi="http://sodipodi.sourceforge.net/DTD/sodipodi-0.dtd"
   xmlns="http://www.w3.org/2000/svg"
   xmlns:svg="http://www.w3.org/2000/svg"
   xmlns:rdf="http://www.w3.org/1999/02/22-rdf-syntax-ns#"
   xmlns:cc="http://creativecommons.org/ns#"
   xmlns:dc="http://purl.org/dc/elements/1.1/"><title
     id="title1">42c3 Time Travel Is Not A Crime</title><sodipodi:namedview
     id="namedview1"
     pagecolor="#ffffff"
     bordercolor="#666666"
     borderopacity="1.0"
     inkscape:showpageshadow="2"
     inkscape:pageopacity="0.0"
     inkscape:pagecheckerboard="true"
     inkscape:deskcolor="#d1d1d1"
     inkscape:document-units="mm"
     inkscape:zoom="0.33107602"
     inkscape:cx="1366.7556"
     inkscape:cy="1132.6704"
     inkscape:window-width="1920"
     inkscape:window-height="1111"
     inkscape:window-x="-9"
     inkscape:window-y="-9"
     inkscape:window-maximized="1"
     inkscape:current-layer="layer1"
     showgrid="false" /><defs
     id="defs1"><inkscape:path-effect
       effect="fillet_chamfer"
       id="path-effect5"
       is_visible="true"
       lpeversion="1"
       nodesatellites_param="F,0,0,1,0,3.96875,0,1 @ F,0,0,1,0,3.96875,0,1 @ F,0,0,1,0,3.96875,0,1"
       radius="15"
       unit="px"
       method="auto"
       mode="F"
       chamfer_steps="1"
       flexible="false"
       use_knot_distance="true"
       apply_no_radius="true"
       apply_with_radius="true"
       only_selected="false"
       hide_knots="false" /><inkscape:path-effect
       effect="fillet_chamfer"
       id="path-effect4"
       is_visible="true"
       lpeversion="1"
       nodesatellites_param="F,0,0,1,0,0,0,1 @ F,0,0,1,0,0,0,1 @ F,0,0,1,0,0,0,1"
       radius="0"
       unit="px"
       method="auto"
       mode="F"
       chamfer_steps="1"
       flexible="false"
       use_knot_distance="true"
       apply_no_radius="true"
       apply_with_radius="true"
       only_selected="false"
       hide_knots="false" /></defs><g
     inkscape:label="Layer 1"
     inkscape:groupmode="layer"
     id="layer1"
     transform="translate(286.78352,68.590645)"><path
       id="text4"
       style="font-size:151.291px;line-height:1.25;font-family:Staatliches;-inkscape-font-specification:Staatliches;letter-spacing:-0.986896px;fill:#000000;stroke-width:0.283671"
       d="m 48.356372,-229.9535 c 0,-3.83268 -0.756798,-7.51423 -2.269702,-11.04432 -1.512907,-3.63099 -3.58039,-6.95976 -6.202761,-9.98555 2.622371,-2.92496 4.639854,-6.00119 6.051897,-9.22873 1.512907,-3.22751 2.26922,-7.06022 2.26922,-11.49809 v -2.42062 c 0,-5.34558 -1.311169,-10.23714 -3.93354,-14.67498 -2.622368,-4.43787 -6.202965,-7.96819 -10.741683,-10.59057 -4.437854,-2.7232 -9.380108,-4.08497 -14.826569,-4.08497 -5.043018,0 -9.8338157,1.31135 -14.3725321,3.93372 -4.43785596,2.52152 -8.0689385,5.95105 -10.8930288,10.28806 -2.7232297,4.33698 -4.0848861,9.27892 -4.0848861,14.82623 v 8.01869 c 0,0.50431 0.20194,0.75627 0.605383,0.75627 H 6.9026135 c 0.4034415,0 0.6049005,-0.25196 0.6049005,-0.75627 v -7.26242 c 0,-3.22751 1.0592267,-5.95046 3.177294,-8.16939 2.218929,-2.31976 4.891754,-3.47995 8.018426,-3.47995 3.227532,0 5.900358,1.16019 8.018426,3.47995 2.218929,2.21893 3.32864,4.94188 3.32864,8.16939 v 2.11812 c 0,3.42923 -1.059226,6.20313 -3.177294,8.3212 -2.118068,2.11804 -4.538951,3.17689 -7.26218,3.17689 h -5.900069 c -0.403443,0 -0.605383,0.20212 -0.605383,0.60557 l -0.151346,16.94435 c 0,0.5043 0.252426,0.75627 0.756729,0.75627 h 5.900069 c 3.025811,0 5.497178,1.26097 7.413525,3.78246 2.017207,2.52151 3.025949,5.34577 3.025949,8.47246 v 4.08497 c 0,3.12665 -1.008742,5.95038 -3.025949,8.4719 -2.017207,2.42062 -4.791003,3.6312 -8.321117,3.6312 -3.227532,0 -5.900358,-1.16016 -8.018426,-3.47995 -2.1180673,-2.42065 -3.177294,-5.29477 -3.177294,-8.62315 v -6.8081 c 0,-0.50431 -0.2519443,-0.75683 -0.7562461,-0.75683 H -10.193176 c -0.40344,0 -0.605382,0.25252 -0.605382,0.75683 v 6.8081 c 0,5.54731 1.3111703,10.64041 3.9335399,15.28 2.7232299,4.63956 6.30382706,8.37148 10.7416832,11.19558 4.5387161,2.72323 9.4809689,4.08497 14.8265689,4.08497 5.446461,0 10.388715,-1.36174 14.826569,-4.08497 4.538718,-2.72324 8.119315,-6.40474 10.741683,-11.04433 2.723232,-4.63956 4.084886,-9.78308 4.084886,-15.43125 z m -65.581335,-2.87494 c 0,-0.40341 -0.201458,-0.60501 -0.604901,-0.60501 h -17.095789 c -0.403443,0 -0.605383,0.2016 -0.605383,0.60501 v 6.95936 c 0,3.22754 -1.109713,6.15258 -3.328639,8.77496 -2.118068,2.52151 -4.790415,3.78246 -8.017944,3.78246 -3.126672,0 -5.7995,-1.16016 -8.018426,-3.47995 -2.118068,-2.31979 -3.177294,-5.34562 -3.177294,-9.07747 v -47.20239 c 0,-3.22755 0.958255,-6.05181 2.874602,-8.47246 1.91635,-2.52148 4.690143,-3.78246 8.321118,-3.78246 3.227529,0 5.899876,1.21056 8.017944,3.63121 2.218926,2.42065 3.328639,5.2953 3.328639,8.62371 v 6.95935 c 0,0.40345 0.20194,0.60502 0.605383,0.60502 h 16.944444 c 0.40344,0 0.6049,-0.20157 0.6049,-0.60502 v -6.95935 c 0,-5.6482 -1.311172,-10.74183 -3.93354,-15.28056 -2.622368,-4.63956 -6.152481,-8.32109 -10.590338,-11.04433 -4.437854,-2.7232 -9.430113,-4.08497 -14.977432,-4.08497 -5.547322,0 -10.590543,1.41214 -15.129261,4.23623 -4.437854,2.72324 -7.967969,6.40474 -10.590337,11.04433 -2.521511,4.5387 -3.782195,9.58196 -3.782195,15.1293 l -0.151345,47.20239 c 0,5.74903 1.311172,10.9435 3.93354,15.58306 2.622368,4.63959 6.152483,8.37151 10.590337,11.19558 4.538718,2.72323 9.581939,4.08498 15.129261,4.08498 5.547319,0 10.539578,-1.36175 14.977432,-4.08498 4.437857,-2.82407 7.96797,-6.55599 10.590338,-11.19558 2.723229,-4.63956 4.084886,-9.83403 4.084886,-15.58306 z m -67.396519,-40.84861 c 0,-5.24472 -1.361657,-10.13625 -4.084886,-14.67498 -2.622368,-4.5387 -6.152481,-8.16983 -10.590338,-10.89307 -4.437864,-2.82409 -9.380114,-4.23623 -14.826564,-4.23623 -5.14389,0 -9.98518,1.36177 -14.52388,4.08497 -4.43787,2.72324 -8.06893,6.40477 -10.89303,11.04433 -2.72323,4.63959 -4.0844,9.78364 -4.0844,15.43181 v 7.41312 c 0,0.5043 0.20146,0.75627 0.6049,0.75627 h 16.94444 c 0.50431,0 0.75673,-0.25197 0.75673,-0.75627 v -7.41312 c 0,-3.63099 1.05874,-6.60643 3.17681,-8.92622 2.21893,-2.42063 4.89175,-3.6312 8.01843,-3.6312 3.22751,0 5.90034,1.26094 8.01842,3.78246 2.11807,2.42065 3.1773,5.0932 3.1773,8.01813 0,1.10947 -0.25194,2.42081 -0.75625,3.93372 -0.40344,1.41205 -0.95829,2.57221 -1.66432,3.47996 l -37.36887,51.28736 c -0.20172,0.20172 -0.30269,0.40329 -0.30269,0.60502 v 17.09616 c 0,0.5043 0.25193,0.75627 0.75624,0.75627 h 56.431675 c 0.40344,0 0.605382,-0.25197 0.605382,-0.75627 v -17.09616 c 0,-0.40345 -0.201942,-0.60502 -0.605382,-0.60502 h -27.114485 c -2.8732,5e-5 -4.7391,-2.34174 -2.70639,-5.79586 2.1e-4,-3.5e-4 2.8e-4,-7.6e-4 4.9e-4,-0.001 l 0.34751,-0.0704 h -0.29594 l 24.473646,-33.61943 c 2.017207,-2.62238 3.580804,-5.64824 4.690268,-9.07747 1.210325,-3.42926 1.815184,-6.8084 1.815184,-10.13681 z m -63.765668,41.45419 c 0,-0.50431 -0.25194,-0.75683 -0.75625,-0.75683 h -7.98372 c -1.44395,0 -2.60662,-1.23995 -2.60662,-2.7802 v 2.7802 l -0.15134,-68.23227 c 0,-0.40344 -0.15146,-0.60502 -0.45404,-0.60502 h -17.09579 c -0.40344,0 -0.70587,0.20158 -0.90759,0.60502 l -32.98178,68.83784 v 16.64184 c 0,0.5043 0.20195,0.75627 0.60539,0.75627 h 30.07247 c 1.44396,0 2.60613,1.23995 2.60613,2.7802 v 14.92098 c 0,0.5043 0.20194,0.75627 0.60538,0.75627 h 17.09579 c 0.40344,0 0.60538,-0.25197 0.60538,-0.75627 v -14.92098 c 0,-1.54025 1.16267,-2.7802 2.60662,-2.7802 h 8.13507 c 0.40345,0 0.6049,-0.25197 0.6049,-0.75627 z m -29.63723,-20.16557 v 15.49608 c 2e-4,2.23084 -1.57299,3.47211 -3.51373,3.47219 h -5.76993 c -2.8735,4e-5 -4.21302,-2.95831 -2.85195,-5.86733 l 6.90502,-14.75809 c 1.49814,-3.20185 5.23053,-1.97843 5.23059,1.65715 z"
       transform="matrix(0,-1.072142,0.93271227,0,0,0)"
       inkscape:label="42c3" /><text
       xml:space="preserve"
       style="font-size:87.4603px;line-height:0.82;font-family:Staatliches;-inkscape-font-specification:Staatliches;letter-spacing:-0.79375px;fill:#000000;stroke-width:0.218651"
       x="-243.96425"
       y="344.19196"
       id="text1"
       transform="matrix(1.1759361,0,0,0.85038634,-4.5833334e-6,-8.1250001e-7)"
       inkscape:label="text"><tspan
         sodipodi:role="line"
         id="tspan1"
         style="font-size:87.4603px;line-height:0.82;letter-spacing:-0.79375px;fill:#000000;stroke-width:0.218651"
         x="-243.96425"
         y="344.19196">TIME  TRAVEL</tspan><tspan
         sodipodi:role="line"
         style="font-size:87.4603px;line-height:0.82;letter-spacing:-0.79375px;fill:#000000;stroke-width:0.218651"
         x="-243.96425"
         y="415.90939"
         id="tspan2">IS  NOT  A  CRIME</tspan></text><path
       id="rect14"
       style="fill:#000000;stroke-width:0.440387"
       d="m -80.233862,-53.596729 c -29.782998,0 -53.760028,23.977026 -53.760028,53.76002653 V 149.41775 c 0,29.783 23.97703,53.76003 53.760028,53.76003 H 182.17183 c 29.783,0 53.76002,-23.97703 53.76002,-53.76003 v -37.8752 a 2.4812448,2.4812448 0 0 0 -2.4815,-2.48151 2.4812448,2.4812448 0 0 0 -2.48099,2.48151 v 34.78185 c 0,28.54842 -22.9828,51.53174 -51.53122,51.53174 H -77.500179 c -28.548421,0 -51.531221,-22.98332 -51.531221,-51.53174 V 3.2571655 c 0,-28.5484175 22.9828,-51.5317385 51.531221,-51.5317385 H 179.43814 c 28.54842,0 51.53122,22.983321 51.53122,51.5317385 V 45.719173 a 2.4812448,2.4812448 0 0 0 2.48099,2.480986 2.4812448,2.4812448 0 0 0 2.4815,-2.480986 V 0.16329753 c 0,-29.78300053 -23.97702,-53.76002653 -53.76002,-53.76002653 z"
       inkscape:label="innerroundedrectangle"
       transform="translate(-4.5833334e-6)" /><path
       id="rect9"
       style="fill:#000000;stroke-width:0.484797"
       d="m -76.750871,-68.590645 c -39.780559,0 -71.806469,32.025911 -71.806469,71.8064694 V 146.96002 c 0,39.78056 32.02591,71.80647 71.806469,71.80647 H 180.22362 c 39.78056,0 71.80647,-32.02591 71.80647,-71.80647 v -35.2857 a 5.408195,5.408195 0 0 0 -5.40845,-5.40845 5.408195,5.408195 0 0 0 -5.40794,5.40845 v 38.50153 c 0,32.33093 -26.02829,58.35922 -58.35923,58.35922 H -80.311894 c -32.330936,0 -58.359226,-26.02829 -58.359226,-58.35922 V 0 c 0,-32.330939 26.02829,-58.359229 58.359226,-58.359229 H 182.85447 c 32.33094,0 58.35923,26.02829 58.35923,58.359229 v 45.63184 a 5.408195,5.408195 0 0 0 5.40794,5.407939 5.408195,5.408195 0 0 0 5.40845,-5.407939 V 3.2158244 c 0,-39.7805584 -32.02591,-71.8064694 -71.80647,-71.8064694 z"
       inkscape:label="outerroundedrectangle"
       transform="translate(-4.5833334e-6)" /><path
       id="rect34"
       style="fill:#000000;stroke-width:1.00877"
       d="m 331.63195,107.87404 0.002,103.36733 -46.62764,43.76322 7.16235,7.64346 39.46529,-37.04115 0.002,87.52799 -5.1e-4,5.2e-4 24.57783,31.41772 8.25014,-6.45439 -22.2219,-28.4055 -0.003,-201.8192 z"
       inkscape:label="branch1"
       transform="translate(-4.5833334e-6)" /><path
       id="path36-61"
       style="fill:#000000;stroke-width:0.742715"
       d="m 356.52087,105.44783 -9.60716,4.90151 66.10759,114.06487 -37.4742,64.20125 8.80153,6.03322 37.03443,-63.53049 45.07477,16.90491 3.87935,-9.9043 -47.50873,-18.08003 z"
       inkscape:label="branch2"
       transform="translate(-4.5833334e-6)" /><path
       id="path36-7"
       style="fill:#000000;stroke-width:0.687935"
       d="m 123.4953,84.622742 -0.008,0.0093 h -0.002 l 5.1e-4,0.0016 -34.669716,40.452308 7.650696,7.52564 31.78927,-37.378078 186.73589,2.335774 -3.33003,-10.792623 -188.16112,-2.144572 z"
       inkscape:label="branch3"
       transform="translate(-4.5833334e-6)" /><path
       id="path36-5"
       style="fill:#000000;stroke-width:1.00877"
       d="m 102.74102,10.116695 -5.607931,9.050611 97.700501,54.122794 0.002,-0.0031 v 0.0021 l 124.84612,-0.142627 0.12558,-10.480498 -121.98791,0.02894 z"
       inkscape:label="branch4" /><circle
       style="fill:#000000;stroke-width:0.184467"
       id="circle23"
       cx="87.339798"
       cy="7.2450666"
       r="16.225018"
       inkscape:label="circle1"
       transform="translate(-4.5833334e-6)" /><circle
       style="fill:#000000;stroke-width:0.184467"
       id="circle27"
       cx="82.577209"
       cy="139.30095"
       r="16.225018"
       inkscape:label="circle2"
       transform="translate(-4.5833334e-6)" /><circle
       style="fill:#000000;stroke-width:0.338405"
       id="circle1"
       cx="339.64554"
       cy="82.587463"
       r="29.764782"
       inkscape:label="circle3"
       transform="translate(-4.5833334e-6)" /><circle
       style="fill:#000000;stroke-width:0.184467"
       id="circle34"
       cx="282.60724"
       cy="267.70068"
       r="16.225018"
       inkscape:label="circle4"
       transform="translate(-4.5833334e-6)" /><circle
       style="fill:#000000;stroke-width:0.184467"
       id="circle33"
       cx="365.82364"
       cy="349.3656"
       r="16.225018"
       inkscape:label="circle5"
       transform="translate(-4.5833334e-6)" /><circle
       style="fill:#000000;stroke-width:0.184467"
       id="circle32"
       cx="371.4028"
       cy="303.85495"
       r="16.225018"
       inkscape:label="circle6"
       transform="translate(-4.5833334e-6)" /><circle
       style="fill:#000000;stroke-width:0.184467"
       id="circle31"
       cx="479.46243"
       cy="249.53151"
       r="16.225018"
       inkscape:label="circle7"
       transform="translate(-4.5833334e-6)" /><path
       id="path27"
       style="fill:#000000;stroke-width:0.477999"
       d="M 82.577298,97.258004 A 42.042828,42.042828 0 0 0 40.534386,139.30092 42.042828,42.042828 0 0 0 82.577298,181.34383 42.042828,42.042828 0 0 0 124.62021,139.30092 42.042828,42.042828 0 0 0 82.577298,97.258004 Z m 0,16.098246 a 25.944859,25.944859 0 0 1 25.944672,25.94467 25.944859,25.944859 0 0 1 -25.944672,25.94466 25.944859,25.944859 0 0 1 -25.945187,-25.94466 25.944859,25.944859 0 0 1 25.945187,-25.94467 z"
       inkscape:label="cutoutcircle1"
       transform="translate(-4.5833334e-6)" /><path
       id="path20"
       style="fill:#000000;stroke-width:0.477999"
       d="M 87.339889,-34.797876 A 42.042828,42.042828 0 0 0 45.296977,7.2450358 42.042828,42.042828 0 0 0 87.339889,49.287948 42.042828,42.042828 0 0 0 129.3828,7.2450358 42.042828,42.042828 0 0 0 87.339889,-34.797876 Z m 0,16.098242 A 25.944859,25.944859 0 0 1 113.28456,7.2450358 25.944859,25.944859 0 0 1 87.339889,33.189705 25.944859,25.944859 0 0 1 61.394702,7.2450358 25.944859,25.944859 0 0 1 87.339889,-18.699634 Z"
       inkscape:label="cutoutcircle2"
       transform="translate(-4.5833334e-6)" /><path
       id="circle28"
       style="fill:#000000;stroke-width:0.620013"
       d="m 339.64542,28.156937 a 54.637501,54.430649 0 0 0 -54.63749,54.430786 54.637501,54.430649 0 0 0 54.63749,54.430267 54.637501,54.430649 0 0 0 54.63749,-54.430267 54.637501,54.430649 0 0 0 -54.63749,-54.430786 z m 0,14.97583 A 39.221386,39.454994 0 0 1 378.8668,82.587723 39.221386,39.454994 0 0 1 339.64542,122.04268 39.221386,39.454994 0 0 1 300.42404,82.587723 39.221386,39.454994 0 0 1 339.64542,43.132767 Z"
       inkscape:label="cutoutcircle3"
       transform="translate(-4.5833334e-6)" /></g><metadata
     id="metadata1"><rdf:RDF><cc:Work
         rdf:about=""><dc:title>42c3 Time Travel Is Not A Crime</dc:title><dc:date>2025-01-11</dc:date><dc:language>english</dc:language><dc:subject><rdf:Bag><rdf:li>CCC</rdf:li><rdf:li>42c3</rdf:li><rdf:li>timetravel</rdf:li><rdf:li>chaos</rdf:li><rdf:li>sticker</rdf:li></rdf:Bag></dc:subject><dc:contributor><cc:Agent><dc:title>Linuzifer, Macke, Psy</dc:title></cc:Agent></dc:contributor><dc:creator><cc:Agent><dc:title>FlohEinstein</dc:title></cc:Agent></dc:creator><dc:source>https://chaos.social/@fuzzle/113806241240485766</dc:source><dc:relation>Manually vectorized</dc:relation><dc:description>You need the font &quot;Staatliches Regular&quot; for this</dc:description></cc:Work></rdf:RDF></metadata></svg>
