<?xml version="1.0" encoding="UTF-8" standalone="no"?>
<!-- Created with Inkscape (http://www.inkscape.org/) -->

<svg
   width="434.18124mm"
   height="782.47107mm"
   viewBox="0 0 434.18125 782.47106"
   version="1.1"
   id="svg1"
   xml:space="preserve"
   xmlns="http://www.w3.org/2000/svg"
   xmlns:svg="http://www.w3.org/2000/svg"
   xmlns:rdf="http://www.w3.org/1999/02/22-rdf-syntax-ns#"
   xmlns:cc="http://creativecommons.org/ns#"
   xmlns:dc="http://purl.org/dc/elements/1.1/"><title
     id="title1">42c3 Time Travel Is Not A Crime</title><defs
     id="defs1" /><g
     id="layer1"
     transform="translate(112.63859,242.73557)"><path
       id="text4"
       style="font-size:151.291px;line-height:1.25;font-family:Staatliches;-inkscape-font-specification:Staatliches;letter-spacing:-0.986896px;fill:#000000;stroke-width:0.283671"
       d="m 304.79691,-170.4325 c 0,-3.57479 -0.8114,-7.00862 -2.43345,-10.30117 -1.62205,-3.38667 -3.83868,-6.49146 -6.65024,-9.31365 2.81156,-2.72814 4.97459,-5.59738 6.4885,-8.60775 1.62205,-3.01034 2.43292,-6.58515 2.43292,-10.72441 v -2.25774 c 0,-4.98589 -1.40576,-9.54831 -4.21731,-13.68753 -2.81155,-4.13926 -6.65046,-7.43203 -11.51661,-9.87796 -4.75801,-2.53996 -10.05681,-3.8101 -15.89619,-3.8101 -5.40683,0 -10.54324,1.22311 -15.40939,3.66903 -4.75801,2.35185 -8.65105,5.55062 -11.67888,9.5958 -2.91969,4.04515 -4.37957,8.65456 -4.37957,13.82861 v 7.47913 c 0,0.47037 0.2165,0.70538 0.64905,0.70538 h 18.16685 c 0.43255,0 0.64854,-0.23501 0.64854,-0.70538 v -6.77375 c 0,-3.01034 1.13564,-5.55007 3.40651,-7.61969 2.37901,-2.16367 5.24466,-3.24579 8.59689,-3.24579 3.46038,0 6.32602,1.08212 8.59689,3.24579 2.37901,2.06962 3.56878,4.60935 3.56878,7.61969 v 1.97559 c 0,3.19849 -1.13564,5.78574 -3.40651,7.76129 -2.27087,1.97552 -4.8664,2.96312 -7.78609,2.96312 h -6.32571 c -0.43255,0 -0.64906,0.18852 -0.64906,0.56483 l -0.16226,15.8042 c 0,0.47037 0.27063,0.70538 0.81132,0.70538 h 6.32571 c 3.2441,0 5.89376,1.17612 7.94835,3.52795 2.16273,2.35184 3.24425,4.98606 3.24425,7.90237 v 3.8101 c 0,2.91626 -1.08152,5.54999 -3.24425,7.90184 -2.16273,2.25774 -5.13663,3.38687 -8.92142,3.38687 -3.46037,0 -6.32602,-1.0821 -8.59689,-3.24579 -2.27087,-2.25777 -3.40651,-4.9385 -3.40651,-8.04292 v -6.35 c 0,-0.47038 -0.27012,-0.70591 -0.8108,-0.70591 h -18.16685 c -0.43255,0 -0.64906,0.23553 -0.64906,0.70591 v 6.35 c 0,5.17404 1.40576,9.92444 4.21732,14.25184 2.91968,4.32738 6.75859,7.80818 11.51661,10.44226 4.86614,2.53999 10.16494,3.8101 15.89618,3.8101 5.83938,0 11.13818,-1.27011 15.89619,-3.8101 4.86615,-2.54 8.70506,-5.97378 11.51661,-10.30119 2.91969,-4.32737 4.37958,-9.1248 4.37958,-14.39291 z m -70.31251,-2.68149 c 0,-0.37627 -0.21599,-0.5643 -0.64854,-0.5643 h -18.32911 c -0.43255,0 -0.64906,0.18803 -0.64906,0.5643 v 6.49108 c 0,3.01036 -1.18977,5.73858 -3.56877,8.18451 -2.27087,2.35184 -5.136,3.52795 -8.59637,3.52795 -3.35224,0 -6.21789,-1.0821 -8.5969,-3.24579 -2.27087,-2.1637 -3.40651,-4.98593 -3.40651,-8.46667 v -44.02625 c 0,-3.01038 1.02739,-5.6446 3.08199,-7.90237 2.0546,-2.35181 5.0285,-3.52794 8.92142,-3.52794 3.46037,0 6.3255,1.1291 8.59637,3.38687 2.379,2.25777 3.56877,4.93899 3.56877,8.04344 v 6.49107 c 0,0.3763 0.21651,0.56431 0.64906,0.56431 h 18.16685 c 0.43255,0 0.64854,-0.18801 0.64854,-0.56431 v -6.49107 c 0,-5.26815 -1.40576,-10.01904 -4.21731,-14.25237 -2.81155,-4.32737 -6.59634,-7.76118 -11.35435,-10.30118 -4.75801,-2.53996 -10.11042,-3.8101 -16.05793,-3.8101 -5.94752,0 -11.35457,1.31712 -16.22072,3.95118 -4.75801,2.54 -8.54279,5.97378 -11.35435,10.30119 -2.70341,4.2333 -4.05505,8.93721 -4.05505,14.11128 l -0.16226,44.02625 c 0,5.36219 1.40576,10.20713 4.21731,14.53451 2.81156,4.3274 6.59634,7.80821 11.35435,10.44225 4.86615,2.53999 10.2732,3.81011 16.22072,3.81011 5.94751,0 11.29992,-1.27012 16.05793,-3.81011 4.75801,-2.63404 8.5428,-6.11485 11.35435,-10.44225 2.91968,-4.32738 4.37957,-9.17232 4.37957,-14.53451 z m -72.25863,-38.1 c 0,-4.89182 -1.45989,-9.45421 -4.37958,-13.68754 -2.81155,-4.2333 -6.59634,-7.6201 -11.35435,-10.1601 -4.75802,-2.63406 -10.05681,-3.95118 -15.89618,-3.95118 -5.51498,0 -10.70553,1.27014 -15.57166,3.8101 -4.75803,2.54 -8.65104,5.97381 -11.67888,10.30118 -2.91969,4.32741 -4.379054,9.12532 -4.379054,14.39344 v 6.91431 c 0,0.47037 0.215993,0.70538 0.648538,0.70538 h 18.166846 c 0.54069,0 0.81132,-0.23501 0.81132,-0.70538 v -6.91431 c 0,-3.38667 1.13512,-6.1619 3.40599,-8.32559 2.37901,-2.25775 5.24465,-3.38687 8.5969,-3.38687 3.46035,0 6.326,1.1761 8.59688,3.52795 2.27088,2.25777 3.40652,4.75049 3.40652,7.47861 0,1.03481 -0.27011,2.25792 -0.81081,3.66903 -0.43254,1.31703 -1.02742,2.39913 -1.78438,3.2458 l -40.064739,47.83635 c -0.216273,0.18814 -0.324527,0.37615 -0.324527,0.56431 v 15.9458 c 0,0.47036 0.270105,0.70538 0.810796,0.70538 h 60.50277 c 0.43254,0 0.64906,-0.23502 0.64906,-0.70538 v -15.9458 c 0,-0.37631 -0.21652,-0.56431 -0.64906,-0.56431 h -29.07058 c -3.08048,4e-5 -5.08099,-2.18417 -2.90163,-5.40587 2.2e-4,-3.3e-4 3e-4,-7.1e-4 5.2e-4,-9.3e-4 l 0.37258,-0.0657 h -0.31729 l 26.23923,-31.35725 c 2.16273,-2.44593 3.83913,-5.26819 5.02863,-8.46667 1.29764,-3.19851 1.94614,-6.35028 1.94614,-9.45473 z m -68.365856,38.66483 c 0,-0.47038 -0.270115,-0.70591 -0.810807,-0.70591 h -8.559682 c -1.548119,0 -2.794666,-1.15651 -2.794666,-2.59312 v 2.59312 l -0.162258,-63.64107 c 0,-0.37629 -0.162387,-0.56431 -0.486796,-0.56431 H 62.716591 c -0.432545,0 -0.756793,0.18802 -0.973066,0.56431 l -35.361151,64.2059 v 15.52205 c 0,0.47036 0.216519,0.70538 0.649064,0.70538 h 32.241958 c 1.54813,0 2.794141,1.15651 2.794141,2.59312 v 13.91699 c 0,0.47036 0.216509,0.70538 0.649054,0.70538 h 18.329114 c 0.432545,0 0.649054,-0.23502 0.649054,-0.70538 v -13.91699 c 0,-1.43661 1.246547,-2.59312 2.794666,-2.59312 h 8.721951 c 0.432555,0 0.648538,-0.23502 0.648538,-0.70538 z m -31.775319,-18.80868 v 14.45339 c 2.15e-4,2.08073 -1.686468,3.23848 -3.767217,3.23855 h -6.186185 c -3.0808,4e-5 -4.516955,-2.75925 -3.057695,-5.47253 l 7.403162,-13.76505 c 1.606219,-2.9864 5.607871,-1.84531 5.607935,1.54564 z" /><text
       xml:space="preserve"
       style="font-size:87.4603px;line-height:0.82;font-family:Staatliches;-inkscape-font-specification:Staatliches;letter-spacing:-0.79375px;fill:#000000;stroke-width:0.218651"
       x="-206.50648"
       y="46.736553"
       id="text1"
       transform="matrix(0,1.1759361,-0.85038634,0,0,0)"><tspan
         id="tspan1"
         style="font-size:87.4603px;line-height:0.82;letter-spacing:-0.79375px;fill:#000000;stroke-width:0.218651"
         x="-206.50648"
         y="46.736553">TIME  TRAVEL</tspan><tspan
         style="font-size:87.4603px;line-height:0.82;letter-spacing:-0.79375px;fill:#000000;stroke-width:0.218651"
         x="-206.50648"
         y="118.45399"
         id="tspan2">IS  NOT  A  CRIME</tspan></text><path
       id="rect14"
       style="fill:#000000;stroke-width:0.440387"
       d="m 321.54265,-32.702908 c 0,-39.780522 -32.02595,-71.806472 -71.80646,-71.806472 h -143.7442 c -39.78052,0 -71.80647,32.02595 -71.80647,71.806472 V 224.27159 c 0,39.78052 32.02595,71.80647 71.80647,71.80647 h 35.2857 a 5.408195,5.408195 0 0 0 5.40845,-5.40846 5.408195,5.408195 0 0 0 -5.40845,-5.40794 h -38.50153 c -32.33089,0 -58.35923,-26.02832 -58.35923,-58.35922 V -36.26393 c 0,-32.3309 26.02834,-58.35923 58.35923,-58.35923 h 150.17585 c 32.33091,0 58.35923,26.02833 58.35923,58.35923 v 263.16637 c 0,32.3309 -26.02832,58.35922 -58.35923,58.35922 h -45.63184 a 5.408195,5.408195 0 0 0 -5.40794,5.40794 5.408195,5.408195 0 0 0 5.40794,5.40846 h 42.41602 c 39.78051,0 71.80646,-32.02595 71.80646,-71.80647 z m -14.99391,-3.482991 c 0,-29.782971 -23.97706,-53.760031 -53.76003,-53.760031 H 103.53426 c -29.78297,0 -53.76003,23.97706 -53.76003,53.760031 V 226.21979 c 0,29.78297 23.97706,53.76003 53.76003,53.76003 h 37.8752 a 2.4812448,2.4812448 0 0 0 2.48151,-2.48151 2.4812448,2.4812448 0 0 0 -2.48151,-2.48098 h -34.78185 c -28.54839,0 -51.53174,-22.98283 -51.53174,-51.53122 V -33.452216 c 0,-28.548394 22.98335,-51.531224 51.53174,-51.531224 h 143.06723 c 28.54839,0 51.53174,22.98283 51.53174,51.531224 V 223.48611 c 0,28.54839 -22.98335,51.53122 -51.53174,51.53122 h -42.462 a 2.4812448,2.4812448 0 0 0 -2.48099,2.48098 2.4812448,2.4812448 0 0 0 2.48099,2.48151 h 45.55587 c 29.78297,0 53.76003,-23.97706 53.76003,-53.76003 z M 287.74989,131.38785 a 42.042828,42.042828 0 0 0 -42.04292,-42.04291 42.042828,42.042828 0 0 0 -42.04291,42.04291 42.042828,42.042828 0 0 0 16.88683,33.68218 l -40.88898,73.81152 0.003,0.002 h -0.002 l 0.10387,91.09004 a 54.430649,54.637501 0 0 0 -9.40253,-0.91777 54.430649,54.637501 0 0 0 -3.88813,0.27905 l 1.84385,-161.78592 0.009,-0.006 -0.009,-0.008 v -0.002 l -0.002,5.2e-4 -19.99878,-17.14004 a 42.042828,42.042828 0 0 0 7.37427,-23.76808 42.042828,42.042828 0 0 0 -42.04291,-42.04291 42.042828,42.042828 0 0 0 -42.04291,42.04291 42.042828,42.042828 0 0 0 42.04291,42.04291 42.042828,42.042828 0 0 0 27.61485,-10.35699 l 16.45275,13.99295 -1.98645,158.81149 a 54.430649,54.637501 0 0 0 -39.19295,44.56472 l -74.82851,0.002 -41.10498,-43.79526 a 16.225018,16.225018 0 0 0 0.87074,-5.23172 16.225018,16.225018 0 0 0 -16.22485,-16.22485 16.225018,16.225018 0 0 0 -16.22536,16.22485 16.225018,16.225018 0 0 0 16.22536,16.22537 16.225018,16.225018 0 0 0 8.84236,-2.62568 l 33.2512,35.42729 -87.52799,0.002 -5.2e-4,-5.2e-4 -26.84332,20.99924 a 16.225018,16.225018 0 0 0 -9.38703,-3.03599 16.225018,16.225018 0 0 0 -16.22484,16.22485 16.225018,16.225018 0 0 0 16.22484,16.22485 16.225018,16.225018 0 0 0 16.22537,-16.22485 16.225018,16.225018 0 0 0 -0.70177,-4.69015 l 24.14892,-18.89187 172.86025,-0.003 a 54.430649,54.637501 0 0 0 3.87056,17.78031 L 28.5378,457.06923 -35.28208,419.81776 a 16.225018,16.225018 0 0 0 0.6041,-4.36717 16.225018,16.225018 0 0 0 -16.22485,-16.22485 16.225018,16.225018 0 0 0 -16.22536,16.22485 16.225018,16.225018 0 0 0 16.22536,16.22536 16.225018,16.225018 0 0 0 9.52448,-3.09387 L 21.83382,465.431 6.04873,507.5199 a 16.225018,16.225018 0 0 0 -2.62826,-0.23461 16.225018,16.225018 0 0 0 -16.22485,16.22485 16.225018,16.225018 0 0 0 16.22485,16.22537 16.225018,16.225018 0 0 0 16.22485,-16.22537 16.225018,16.225018 0 0 0 -4.1646,-10.82673 l 17.43252,-45.80702 91.9763,-53.22208 a 54.430649,54.637501 0 0 0 45.47475,24.67656 54.430649,54.637501 0 0 0 54.43078,-54.63749 54.430649,54.637501 0 0 0 -34.51624,-50.70956 l -0.0217,-91.11641 39.5702,-71.55635 a 42.042828,42.042828 0 0 0 15.87964,3.1197 42.042828,42.042828 0 0 0 42.04292,-42.04291 z m -16.09825,0 a 25.944859,25.944859 0 0 1 -25.94467,25.94467 25.944859,25.944859 0 0 1 -7.97057,-1.32292 l 4.83433,-8.7421 a 16.225018,16.225018 0 0 0 3.13624,0.3452 16.225018,16.225018 0 0 0 16.22485,-16.22485 16.225018,16.225018 0 0 0 -16.22485,-16.22536 16.225018,16.225018 0 0 0 -16.22485,16.22536 16.225018,16.225018 0 0 0 3.89331,10.53217 l -4.87981,8.80825 a 25.944859,25.944859 0 0 1 -8.73332,-19.34042 25.944859,25.944859 0 0 1 25.94467,-25.94518 25.944859,25.944859 0 0 1 25.94467,25.94518 z m -61.8324,252.30553 a 39.454994,39.221386 0 0 1 -39.45495,39.22138 39.454994,39.221386 0 0 1 -32.26315,-16.90543 l 8.29148,-4.79764 a 29.764782,29.764782 0 0 0 23.97218,12.2468 29.764782,29.764782 0 0 0 29.76459,-29.76511 29.764782,29.764782 0 0 0 -9.84384,-22.06532 l -0.003,-11.76879 a 39.454994,39.221386 0 0 1 19.53628,33.83411 z m -30.02297,-28.16882 a 29.764782,29.764782 0 0 0 -9.43147,-1.59577 29.764782,29.764782 0 0 0 -4.17235,0.29817 l 0.10697,-9.40149 a 39.454994,39.221386 0 0 1 4.06487,-0.35347 39.454994,39.221386 0 0 1 9.42061,1.28003 z m -24.26881,-8.06514 -0.13229,10.58126 a 29.764782,29.764782 0 0 0 -13.671,17.63924 h -9.89138 a 39.454994,39.221386 0 0 1 23.69467,-28.2205 z m -13.84876,44.03762 -8.56485,4.96352 a 39.454994,39.221386 0 0 1 -1.97611,-10.17406 h 9.64747 a 29.764782,29.764782 0 0 0 0.89349,5.21054 z m -2.08308,-264.87169 a 25.944859,25.944859 0 0 1 -3.62458,13.18524 l -7.55303,-6.4735 a 16.225018,16.225018 0 0 0 1.45831,-6.71174 16.225018,16.225018 0 0 0 -16.22537,-16.22536 16.225018,16.225018 0 0 0 -16.22485,16.22536 16.225018,16.225018 0 0 0 16.22485,16.22485 16.225018,16.225018 0 0 0 7.35563,-1.76837 l 7.70288,6.55102 a 25.944859,25.944859 0 0 1 -15.05851,4.93717 25.944859,25.944859 0 0 1 -25.94467,-25.94467 25.944859,25.944859 0 0 1 25.94467,-25.94518 25.944859,25.944859 0 0 1 25.94467,25.94518 z" /></g><metadata
     id="metadata1"><rdf:RDF><cc:Work
         rdf:about=""><dc:title>42c3 Time Travel Is Not A Crime</dc:title><dc:date>2025-01-11</dc:date><dc:language>english</dc:language><dc:subject><rdf:Bag><rdf:li>CCC</rdf:li><rdf:li>42c3</rdf:li><rdf:li>timetravel</rdf:li><rdf:li>chaos</rdf:li><rdf:li>sticker</rdf:li></rdf:Bag></dc:subject><dc:contributor><cc:Agent><dc:title>Linuzifer, Macke, Psy</dc:title></cc:Agent></dc:contributor><dc:creator><cc:Agent><dc:title>FlohEinstein</dc:title></cc:Agent></dc:creator><dc:source>https://chaos.social/@fuzzle/113806241240485766</dc:source><dc:relation>Manually vectorized</dc:relation><dc:description>You need the font &quot;Staatliches Regular&quot; for this</dc:description></cc:Work></rdf:RDF></metadata></svg>
