<?xml version="1.0" encoding="UTF-8" standalone="no"?>
<svg
   xmlns:ns2="http://ns.adobe.com/AdobeIllustrator/10.0/"
   xmlns:dc="http://purl.org/dc/elements/1.1/"
   xmlns:cc="http://creativecommons.org/ns#"
   xmlns:rdf="http://www.w3.org/1999/02/22-rdf-syntax-ns#"
   xmlns:svg="http://www.w3.org/2000/svg"
   xmlns="http://www.w3.org/2000/svg"
   xmlns:sodipodi="http://sodipodi.sourceforge.net/DTD/sodipodi-0.dtd"
   xmlns:inkscape="http://www.inkscape.org/namespaces/inkscape"
   width="1.73in"
   height="2in"
   viewBox="0 0 166.08 192"
   id="svg2"
   version="1.1"
   inkscape:version="1.0.1 (3bc2e813f5, 2020-09-07)"
   sodipodi:docname="debian_tea-source.svg">
  <defs
     id="defs4" />
  <sodipodi:namedview
     id="base"
     pagecolor="#ffffff"
     bordercolor="#666666"
     borderopacity="1.0"
     inkscape:pageopacity="0.0"
     inkscape:pageshadow="2"
     inkscape:zoom="1.7690115"
     inkscape:cx="190.40407"
     inkscape:cy="116.169"
     inkscape:document-units="px"
     inkscape:current-layer="layer3"
     showgrid="true"
     showborder="true"
     units="in"
     inkscape:window-width="1280"
     inkscape:window-height="982"
     inkscape:window-x="0"
     inkscape:window-y="0"
     inkscape:window-maximized="1"
     inkscape:document-rotation="0">
    <inkscape:grid
       type="axonomgrid"
       id="grid4136"
       units="in"
       empspacing="5"
       spacingy="9.5999999" />
  </sodipodi:namedview>
  <metadata
     id="metadata7">
    <rdf:RDF>
      <cc:Work
         rdf:about="">
        <dc:format>image/svg+xml</dc:format>
        <dc:type
           rdf:resource="http://purl.org/dc/dcmitype/StillImage" />
        <dc:title></dc:title>
        <cc:license
           rdf:resource="http://creativecommons.org/licenses/by-sa/4.0/" />
        <dc:description>Debian logo from https://www.debian.org/logos/

Tea cup from https://freesvg.org/stylized-coffee-mug</dc:description>
      </cc:Work>
      <cc:License
         rdf:about="http://creativecommons.org/licenses/by-sa/4.0/">
        <cc:permits
           rdf:resource="http://creativecommons.org/ns#Reproduction" />
        <cc:permits
           rdf:resource="http://creativecommons.org/ns#Distribution" />
        <cc:requires
           rdf:resource="http://creativecommons.org/ns#Notice" />
        <cc:requires
           rdf:resource="http://creativecommons.org/ns#Attribution" />
        <cc:permits
           rdf:resource="http://creativecommons.org/ns#DerivativeWorks" />
        <cc:requires
           rdf:resource="http://creativecommons.org/ns#ShareAlike" />
      </cc:License>
    </rdf:RDF>
  </metadata>
  <g
     inkscape:groupmode="layer"
     id="layer2"
     inkscape:label="bleed"
     style="display:inline">
    <path
       sodipodi:type="star"
       style="fill:#000000;fill-opacity:1;stroke:none;stroke-width:1;stroke-miterlimit:4;stroke-dasharray:none;stroke-dashoffset:0;stroke-opacity:1"
       id="path4229"
       sodipodi:sides="6"
       sodipodi:cx="77.942284"
       sodipodi:cy="90"
       sodipodi:r1="99"
       sodipodi:r2="85.736511"
       sodipodi:arg1="-1.5707963"
       sodipodi:arg2="-1.0471976"
       inkscape:flatsided="true"
       inkscape:rounded="0"
       inkscape:randomized="0"
       d="M 77.942286,-9 163.6788,40.500002 163.6788,139.5 77.942281,189 -7.7942327,139.5 -7.79423,40.499998 Z"
       transform="matrix(1.0636364,0,0,1.0626262,0.49599685,0.5636362)" />
  </g>
  <g
     inkscape:groupmode="layer"
     id="layer3"
     inkscape:label="artwork"
     style="display:inline;opacity:0.99">
    <path
       sodipodi:type="star"
       style="fill:#000000;fill-opacity:1;stroke:none;stroke-width:1.06667;stroke-miterlimit:4;stroke-dasharray:none;stroke-dashoffset:0;stroke-opacity:1"
       id="path4232"
       sodipodi:sides="6"
       sodipodi:cx="83.138435"
       sodipodi:cy="96"
       sodipodi:r1="96"
       sodipodi:r2="83.138435"
       sodipodi:arg1="-1.5707963"
       sodipodi:arg2="-1.0471976"
       inkscape:flatsided="true"
       inkscape:rounded="0"
       inkscape:randomized="0"
       d="M 83.138438,0 166.27688,48.000002 166.27687,144 83.138433,192 -4.6856916e-6,144 l 2.57231e-6,-96.000002 z" />
    <path
       sodipodi:type="star"
       style="fill:#000005;fill-opacity:1;stroke:none;stroke-width:1.06667;stroke-miterlimit:4;stroke-dasharray:none;stroke-dashoffset:0;stroke-opacity:1"
       id="path4234"
       sodipodi:sides="6"
       sodipodi:cx="83.138435"
       sodipodi:cy="96"
       sodipodi:r1="76.800003"
       sodipodi:r2="66.51075"
       sodipodi:arg1="-1.5707963"
       sodipodi:arg2="-1.0471976"
       inkscape:flatsided="true"
       inkscape:rounded="0"
       inkscape:randomized="0"
       d="M 83.138437,19.199997 149.64919,57.6 l 0,76.8 -66.510757,38.4 -66.510752,-38.4 2e-6,-76.800003 z" />
    <path
       d="m 79.177753,156.79203 c -36.328059,-0.92026 -56.234562,-9.18814 -38.019273,-15.79124 1.107757,-0.40155 1.107377,-0.4016 0.55422,0.075 -7.903974,6.8102 13.766646,13.4887 43.76803,13.48794 29.13793,-6.6e-4 50.72577,-6.34444 44.25025,-13.00419 -0.31477,-0.3237 -0.55498,-0.58855 -0.5338,-0.58855 0.4217,0 3.60949,1.50805 4.62931,2.19 10.89075,7.28232 -18.25782,14.55264 -54.648907,13.63071 z m -0.683476,-17.61384 c -13.53882,-2.54631 -24.318692,-12.35945 -27.41634,-24.95811 -0.146262,-0.59493 -0.291409,-1.18036 -0.322537,-1.30096 l -0.0566,-0.21929 -0.445509,0.53484 c -6.556017,7.86752 -19.57388,3.06044 -19.595144,-7.23721 -0.02134,-9.978697 12.016957,-14.975637 19.024824,-7.9055 2.296086,2.31788 3.133263,4.5157 3.256364,8.54872 0.501289,16.42687 10.865687,29.36196 26.048639,32.50897 1.259634,0.26105 0.868156,0.27996 -0.493618,0.0238 z m -34.73025,-24.66574 c 6.398058,-1.64458 8.490241,-9.56177 3.728189,-14.10687 -4.504689,-4.29934 -11.980506,-2.25211 -13.721841,3.75774 -1.759104,6.07021 3.888576,11.91823 9.99388,10.34928 z m 47.640275,24.63537 c 15.145738,-3.24308 25.428958,-15.99021 26.009908,-32.24014 0.13909,-3.89207 0.99408,-6.05799 3.29859,-8.35583 3.43118,-3.42138 9.79643,-4.545464 9.27092,-1.637291 -0.14859,0.822521 -0.61787,1.124081 -1.90165,1.222131 -4.82516,0.36829 -7.66855,3.65118 -7.85993,9.07498 -0.56022,15.88769 -12.07467,28.90252 -28.248658,31.93106 -1.52854,0.28617 -1.89671,0.28967 -0.56914,0.005 z M 81.342078,103.40223 c -17.019212,-0.46324 -30.093272,-3.81226 -30.631697,-7.844742 -0.03432,-0.257327 -0.02891,-0.290415 0.02193,-0.13396 1.725235,5.309742 32.641863,8.172052 54.680799,5.062782 8.42949,-1.18932 13.54186,-3.011 14.20863,-5.062782 0.0508,-0.156455 0.0563,-0.123367 0.0219,0.13396 -0.63067,4.728482 -18.48944,8.386962 -38.301773,7.847012 z M 51.350567,93.658954 c 3.467481,-4.361311 23.620795,-7.475666 41.306765,-6.383629 13.902588,0.858137 23.874438,3.274135 26.346328,6.383325 l 0.2714,0.341349 -0.41179,-0.364724 c -7.86296,-6.964276 -59.509147,-6.964276 -67.372113,0 l -0.411784,0.364724 0.271391,-0.341349 z"
       id="path5898"
       sodipodi:nodetypes="cscsssccccssccccccccccccccccccccccccccscccccscssccc"
       style="fill:#f9f9f9;fill-opacity:1;stroke:#ffffff;stroke-width:0.0769051;stroke-miterlimit:4;stroke-dasharray:none;stroke-opacity:1" />
    <g
       style="display:inline;opacity:0.99"
       transform="matrix(0.61820773,0,0,0.61820767,56.518299,27.62834)"
       id="Layer_1"
       ns2:layer="yes"
       ns2:dimmedPercent="50"
       ns2:rgbTrio="#4F008000FFFF">
      <g
         id="g4680">
        <path
           style="fill:#a80030"
           inkscape:connector-curvature="0"
           ns2:knockout="Off"
           d="m 51.986,57.297 c -1.797,0.025 0.34,0.926 2.686,1.287 0.648,-0.506 1.236,-1.018 1.76,-1.516 -1.461,0.358 -2.948,0.366 -4.446,0.229"
           id="path4682-3" />
        <path
           style="fill:#a80030"
           inkscape:connector-curvature="0"
           ns2:knockout="Off"
           d="m 61.631,54.893 c 1.07,-1.477 1.85,-3.094 2.125,-4.766 -0.24,1.192 -0.887,2.221 -1.496,3.307 -3.359,2.115 -0.316,-1.256 -0.002,-2.537 -3.612,4.546 -0.496,2.726 -0.627,3.996"
           id="path4684-6" />
        <path
           style="fill:#a80030"
           inkscape:connector-curvature="0"
           ns2:knockout="Off"
           d="m 65.191,45.629 c 0.217,-3.236 -0.637,-2.213 -0.924,-0.978 0.335,0.174 0.6,2.281 0.924,0.978"
           id="path4686-7" />
        <path
           style="fill:#a80030"
           inkscape:connector-curvature="0"
           ns2:knockout="Off"
           d="m 45.172,1.399 c 0.959,0.172 2.072,0.304 1.916,0.533 1.049,-0.23 1.287,-0.442 -1.916,-0.533"
           id="path4688-5" />
        <path
           style="fill:#a80030"
           inkscape:connector-curvature="0"
           ns2:knockout="Off"
           d="M 47.088,1.932 46.41,2.072 47.041,2.016 47.088,1.932"
           id="path4690-3" />
        <path
           style="fill:#a80030"
           inkscape:connector-curvature="0"
           ns2:knockout="Off"
           d="m 76.992,46.856 c 0.107,2.906 -0.85,4.316 -1.713,6.812 l -1.553,0.776 c -1.271,2.468 0.123,1.567 -0.787,3.53 -1.984,1.764 -6.021,5.52 -7.313,5.863 -0.943,-0.021 0.639,-1.113 0.846,-1.541 -2.656,1.824 -2.131,2.738 -6.193,3.846 L 60.16,65.878 C 50.142,70.591 36.226,61.251 36.409,48.507 c -0.107,0.809 -0.304,0.607 -0.526,0.934 -0.517,-6.557 3.028,-13.143 9.007,-15.832 5.848,-2.895 12.704,-1.707 16.893,2.197 -2.301,-3.014 -6.881,-6.209 -12.309,-5.91 -5.317,0.084 -10.291,3.463 -11.951,7.131 -2.724,1.715 -3.04,6.611 -4.227,7.507 -1.597,11.737 3.004,16.808 10.787,22.773 1.225,0.826 0.345,0.951 0.511,1.58 -2.586,-1.211 -4.954,-3.039 -6.901,-5.277 1.033,1.512 2.148,2.982 3.589,4.137 -2.438,-0.826 -5.695,-5.908 -6.646,-6.115 4.203,7.525 17.052,13.197 23.78,10.383 -3.113,0.115 -7.068,0.064 -10.566,-1.229 -1.469,-0.756 -3.467,-2.322 -3.11,-2.615 9.182,3.43 18.667,2.598 26.612,-3.771 2.021,-1.574 4.229,-4.252 4.867,-4.289 -0.961,1.445 0.164,0.695 -0.574,1.971 2.014,-3.248 -0.875,-1.322 2.082,-5.609 l 1.092,1.504 c -0.406,-2.696 3.348,-5.97 2.967,-10.234 0.861,-1.304 0.961,1.403 0.047,4.403 1.268,-3.328 0.334,-3.863 0.66,-6.609 0.352,0.923 0.814,1.904 1.051,2.878 -0.826,-3.216 0.848,-5.416 1.262,-7.285 -0.408,-0.181 -1.275,1.422 -1.473,-2.377 0.029,-1.65 0.459,-0.865 0.625,-1.271 -0.324,-0.186 -1.174,-1.451 -1.691,-3.877 0.375,-0.57 1.002,1.478 1.512,1.562 -0.328,-1.929 -0.893,-3.4 -0.916,-4.88 -1.49,-3.114 -0.527,0.415 -1.736,-1.337 -1.586,-4.947 1.316,-1.148 1.512,-3.396 2.404,3.483 3.775,8.881 4.404,11.117 -0.48,-2.726 -1.256,-5.367 -2.203,-7.922 0.73,0.307 -1.176,-5.609 0.949,-1.691 C 83.519,18.706 76.074,10.902 69.225,7.24 70.063,8.007 71.121,8.97 70.741,9.121 67.335,7.093 67.934,6.935 67.446,6.078 64.671,4.949 64.489,6.169 62.651,6.08 57.421,3.306 56.413,3.601 51.6,1.863 l 0.219,1.023 c -3.465,-1.154 -4.037,0.438 -7.782,0.004 -0.228,-0.178 1.2,-0.644 2.375,-0.815 -3.35,0.442 -3.193,-0.66 -6.471,0.122 0.808,-0.567 1.662,-0.942 2.524,-1.424 -2.732,0.166 -6.522,1.59 -5.352,0.295 -4.456,1.988 -12.37,4.779 -16.811,8.943 l -0.14,-0.933 c -2.035,2.443 -8.874,7.296 -9.419,10.46 l -0.544,0.127 c -1.059,1.793 -1.744,3.825 -2.584,5.67 -1.385,2.36 -2.03,0.908 -1.833,1.278 -2.724,5.523 -4.077,10.164 -5.246,13.97 0.833,1.245 0.02,7.495 0.335,12.497 -1.368,24.704 17.338,48.69 37.785,54.228 2.997,1.072 7.454,1.031 11.245,1.141 -4.473,-1.279 -5.051,-0.678 -9.408,-2.197 -3.143,-1.48 -3.832,-3.17 -6.058,-5.102 l 0.881,1.557 c -4.366,-1.545 -2.539,-1.912 -6.091,-3.037 l 0.941,-1.229 C 28.751,98.334 26.418,96.056 25.78,94.795 l -1.548,0.061 c -1.86,-2.295 -2.851,-3.949 -2.779,-5.23 l -0.5,0.891 c -0.567,-0.973 -6.843,-8.607 -3.587,-6.83 -0.605,-0.553 -1.409,-0.9 -2.281,-2.484 l 0.663,-0.758 c -1.567,-2.016 -2.884,-4.6 -2.784,-5.461 0.836,1.129 1.416,1.34 1.99,1.533 -3.957,-9.818 -4.179,-0.541 -7.176,-9.994 L 8.412,66.472 C 7.926,65.74 7.631,64.945 7.24,64.165 l 0.276,-2.75 C 4.667,58.121 6.719,47.409 7.13,41.534 7.415,39.145 9.508,36.602 11.1,32.614 l -0.97,-0.167 c 1.854,-3.234 10.586,-12.988 14.63,-12.486 1.959,-2.461 -0.389,-0.009 -0.772,-0.629 4.303,-4.453 5.656,-3.146 8.56,-3.947 3.132,-1.859 -2.688,0.725 -1.203,-0.709 5.414,-1.383 3.837,-3.144 10.9,-3.846 0.745,0.424 -1.729,0.655 -2.35,1.205 4.511,-2.207 14.275,-1.705 20.617,1.225 7.359,3.439 15.627,13.605 15.953,23.17 l 0.371,0.1 c -0.188,3.802 0.582,8.199 -0.752,12.238 l 0.908,-1.912"
           id="path4692-5" />
        <path
           style="fill:#a80030"
           inkscape:connector-curvature="0"
           ns2:knockout="Off"
           d="m 32.372,59.764 -0.252,1.26 c 1.181,1.604 2.118,3.342 3.626,4.596 -1.085,-2.118 -1.891,-2.993 -3.374,-5.856"
           id="path4694-6" />
        <path
           style="fill:#a80030"
           inkscape:connector-curvature="0"
           ns2:knockout="Off"
           d="m 35.164,59.654 c -0.625,-0.691 -0.995,-1.523 -1.409,-2.352 0.396,1.457 1.207,2.709 1.962,3.982 l -0.553,-1.63"
           id="path4696-2" />
        <path
           style="fill:#a80030"
           inkscape:connector-curvature="0"
           ns2:knockout="Off"
           d="m 84.568,48.916 -0.264,0.662 c -0.484,3.438 -1.529,6.84 -3.131,9.994 1.77,-3.328 2.915,-6.968 3.395,-10.656"
           id="path4698-9" />
        <path
           style="fill:#a80030"
           inkscape:connector-curvature="0"
           ns2:knockout="Off"
           d="M 45.527,0.537 C 46.742,0.092 48.514,0.293 49.803,0 48.123,0.141 46.451,0.225 44.8,0.438 l 0.727,0.099"
           id="path4700-1" />
        <path
           style="fill:#a80030"
           inkscape:connector-curvature="0"
           ns2:knockout="Off"
           d="m 2.872,23.219 c 0.28,2.592 -1.95,3.598 0.494,1.889 1.31,-2.951 -0.512,-0.815 -0.494,-1.889"
           id="path4702-2" />
        <path
           style="fill:#a80030"
           inkscape:connector-curvature="0"
           ns2:knockout="Off"
           d="M 0,35.215 C 0.563,33.487 0.665,32.449 0.88,31.449 -0.676,33.438 0.164,33.862 0,35.215"
           id="path4704-7" />
      </g>
    </g>
  </g>
  <g
     inkscape:label="guidelines"
     inkscape:groupmode="layer"
     id="layer1"
     transform="translate(0,-872.36217)"
     style="display:inline"
     sodipodi:insensitive="true">
    <rect
       style="display:inline;opacity:0.99;fill:#007e7f;fill-opacity:1;stroke:#0000ff;stroke-width:3;stroke-miterlimit:4;stroke-dasharray:none;stroke-dashoffset:0;stroke-opacity:1"
       id="rect4242"
       width="140.29611"
       height="108"
       x="193.06149"
       y="872.36218"
       ry="17.999998" />
    <path
       sodipodi:type="star"
       style="fill:none;fill-opacity:1;stroke:#000000;stroke-width:0.940618;stroke-miterlimit:4;stroke-dasharray:none;stroke-dashoffset:0;stroke-opacity:1"
       id="path4161"
       sodipodi:sides="6"
       sodipodi:cx="77.942284"
       sodipodi:cy="962.36218"
       sodipodi:r1="90.000015"
       sodipodi:r2="70.148056"
       sodipodi:arg1="-1.5707963"
       sodipodi:arg2="-1.0471976"
       inkscape:flatsided="true"
       inkscape:rounded="0"
       inkscape:randomized="0"
       d="m 77.942286,872.36217 77.942294,45.00001 0,90.00002 -77.942299,45 -77.942298130498,-45 2.411541e-6,-90.00003 z"
       transform="matrix(1.0636364,0,0,1.0626262,0.49599685,-54.069058)" />
    <path
       sodipodi:type="star"
       style="fill:none;fill-opacity:1;stroke:#ffff00;stroke-width:0.940618;stroke-miterlimit:4;stroke-dasharray:0.940618, 5.64371;stroke-dashoffset:0;stroke-opacity:1"
       id="path4163"
       sodipodi:sides="6"
       sodipodi:cx="77.942284"
       sodipodi:cy="962.36218"
       sodipodi:r1="72"
       sodipodi:r2="62.353828"
       sodipodi:arg1="-1.5707963"
       sodipodi:arg2="-1.0471976"
       inkscape:flatsided="true"
       inkscape:rounded="0"
       inkscape:randomized="0"
       d="m 77.942286,890.36218 62.353824,36 0,72 -62.353828,36.00002 -62.353828,-36.00002 2e-6,-72 z"
       transform="matrix(1.0636364,0,0,1.0626262,0.49599685,-54.069058)" />
    <path
       sodipodi:type="star"
       style="fill:none;fill-opacity:1;stroke:#ff00ff;stroke-width:0.940618;stroke-miterlimit:4;stroke-dasharray:1.88124, 0.940618;stroke-dashoffset:0;stroke-opacity:1"
       id="path4167"
       sodipodi:sides="6"
       sodipodi:cx="77.942284"
       sodipodi:cy="962.36218"
       sodipodi:r1="81"
       sodipodi:r2="70.148056"
       sodipodi:arg1="-1.5707963"
       sodipodi:arg2="-1.0471976"
       inkscape:flatsided="true"
       inkscape:rounded="0"
       inkscape:randomized="0"
       d="m 77.942286,881.36218 70.148054,40.5 0,81.00002 -70.148059,40.5 -70.1480562,-40.5 2.2e-6,-81.00002 z"
       transform="matrix(1.0636364,0,0,1.0626262,0.49599685,-54.069058)" />
    <path
       sodipodi:type="star"
       style="fill:none;fill-opacity:1;stroke:#0000ff;stroke-width:0.940618;stroke-miterlimit:4;stroke-dasharray:1.88124, 0.940618;stroke-dashoffset:0;stroke-opacity:1"
       id="path4171"
       sodipodi:sides="6"
       sodipodi:cx="77.942284"
       sodipodi:cy="962.36218"
       sodipodi:r1="99"
       sodipodi:r2="85.736511"
       sodipodi:arg1="-1.5707963"
       sodipodi:arg2="-1.0471976"
       inkscape:flatsided="true"
       inkscape:rounded="0"
       inkscape:randomized="0"
       d="m 77.942286,863.36218 85.736514,49.5 0,99.00002 -85.736519,49.5 -85.7365137,-49.5 2.7e-6,-99.00002 z"
       transform="matrix(1.0636364,0,0,1.0626262,0.49599685,-54.069058)" />
    <path
       style="fill:none;fill-rule:evenodd;stroke:#0000ff;stroke-width:1;stroke-linecap:butt;stroke-linejoin:miter;stroke-miterlimit:4;stroke-dasharray:2, 1;stroke-dashoffset:0;stroke-opacity:1"
       d="m 200.85572,894.86217 h 15.58845"
       id="path4173"
       inkscape:connector-curvature="0" />
    <path
       style="fill:none;fill-rule:evenodd;stroke:#000000;stroke-width:1px;stroke-linecap:butt;stroke-linejoin:miter;stroke-opacity:1"
       d="m 200.85572,912.93968 h 15.58845"
       id="path4173-6"
       inkscape:connector-curvature="0" />
    <path
       style="fill:none;fill-rule:evenodd;stroke:#ff00ff;stroke-width:1;stroke-linecap:butt;stroke-linejoin:miter;stroke-miterlimit:4;stroke-dasharray:2, 1;stroke-dashoffset:0;stroke-opacity:1"
       d="m 200.85572,931.0172 h 15.58845"
       id="path4173-7"
       inkscape:connector-curvature="0" />
    <path
       style="fill:none;fill-rule:evenodd;stroke:#ffff00;stroke-width:1;stroke-linecap:butt;stroke-linejoin:miter;stroke-miterlimit:4;stroke-dasharray:1, 6;stroke-dashoffset:0;stroke-opacity:1"
       d="m 200.85572,949.09471 h 15.58845"
       id="path4173-5"
       inkscape:connector-curvature="0" />
    <text
       xml:space="preserve"
       style="font-style:normal;font-weight:normal;line-height:0%;font-family:sans-serif;letter-spacing:0px;word-spacing:0px;fill:#000000;fill-opacity:1;stroke:none;stroke-width:1px;stroke-linecap:butt;stroke-linejoin:miter;stroke-opacity:1"
       x="232.03262"
       y="912.64813"
       id="text4208"><tspan
         sodipodi:role="line"
         id="tspan4210"
         x="232.03262"
         y="912.64813"
         style="font-size:12.5px;line-height:1.25">cut line</tspan></text>
    <text
       xml:space="preserve"
       style="font-style:normal;font-weight:normal;line-height:0%;font-family:sans-serif;letter-spacing:0px;word-spacing:0px;fill:#ff00ff;fill-opacity:1;stroke:none;stroke-width:1px;stroke-linecap:butt;stroke-linejoin:miter;stroke-opacity:1"
       x="232.03262"
       y="930.64813"
       id="text4212"><tspan
         sodipodi:role="line"
         id="tspan4214"
         x="232.03262"
         y="930.64813"
         style="font-size:12.5px;line-height:1.25">safe area</tspan></text>
    <text
       xml:space="preserve"
       style="font-style:normal;font-weight:normal;line-height:0%;font-family:sans-serif;letter-spacing:0px;word-spacing:0px;fill:#0000ff;fill-opacity:1;stroke:none;stroke-width:1px;stroke-linecap:butt;stroke-linejoin:miter;stroke-opacity:1"
       x="232.03262"
       y="894.70715"
       id="text4216"><tspan
         sodipodi:role="line"
         id="tspan4218"
         x="232.03262"
         y="894.70715"
         style="font-size:12.5px;line-height:1.25">bleed</tspan></text>
    <text
       xml:space="preserve"
       style="font-style:normal;font-weight:normal;line-height:0%;font-family:sans-serif;letter-spacing:0px;word-spacing:0px;fill:#ffff00;fill-opacity:1;stroke:none;stroke-width:1px;stroke-linecap:butt;stroke-linejoin:miter;stroke-opacity:1"
       x="232.03262"
       y="948.86218"
       id="text4220"><tspan
         sodipodi:role="line"
         id="tspan4222"
         x="232.03262"
         y="948.86218"
         style="font-size:12.5px;line-height:1.25">recommended</tspan><tspan
         sodipodi:role="line"
         x="232.03262"
         y="964.48718"
         id="tspan4224"
         style="font-size:12.5px;line-height:1.25">border</tspan></text>
    <text
       xml:space="preserve"
       style="font-style:normal;font-weight:normal;line-height:0%;font-family:sans-serif;letter-spacing:0px;word-spacing:0px;opacity:0.99;fill:#000000;fill-opacity:1;stroke:none;stroke-width:1px;stroke-linecap:butt;stroke-linejoin:miter;stroke-opacity:1"
       x="0.51609027"
       y="223.82076"
       id="text4236"
       transform="translate(0,872.36217)"><tspan
         sodipodi:role="line"
         id="tspan4238"
         x="0.51609027"
         y="223.82076"
         style="font-style:normal;font-variant:normal;font-weight:normal;font-stretch:normal;font-size:12.5px;line-height:1.25;font-family:FreeSans;-inkscape-font-specification:FreeSans">based on the specs from</tspan><tspan
         sodipodi:role="line"
         x="0.51609027"
         y="239.44576"
         style="font-style:normal;font-variant:normal;font-weight:normal;font-stretch:normal;font-size:12.5px;line-height:1.25;font-family:FreeMono;-inkscape-font-specification:FreeMono"
         id="tspan4159">https://terinjokes.github.io/StickerConstructorSpec/</tspan></text>
  </g>
</svg>
