<?xml version="1.0" encoding="UTF-8" standalone="no"?>
<svg
   xmlns:dc="http://purl.org/dc/elements/1.1/"
   xmlns:cc="http://creativecommons.org/ns#"
   xmlns:rdf="http://www.w3.org/1999/02/22-rdf-syntax-ns#"
   xmlns:svg="http://www.w3.org/2000/svg"
   xmlns="http://www.w3.org/2000/svg"
   xmlns:sodipodi="http://sodipodi.sourceforge.net/DTD/sodipodi-0.dtd"
   xmlns:inkscape="http://www.inkscape.org/namespaces/inkscape"
   version="1.1"
   width="76mm"
   height="54mm"
   viewBox="0 0 287.24408 204.09449"
   id="svg5458"
   sodipodi:docname="36c3_sticker_A8_52mm_74mm.svg"
   inkscape:version="0.92.4 5da689c313, 2019-01-14">
  <metadata
     id="metadata5464">
    <rdf:RDF>
      <cc:Work
         rdf:about="">
        <dc:format>image/svg+xml</dc:format>
        <dc:type
           rdf:resource="http://purl.org/dc/dcmitype/StillImage" />
        <dc:title />
      </cc:Work>
    </rdf:RDF>
  </metadata>
  <defs
     id="defs5462" />
  <sodipodi:namedview
     pagecolor="#000000"
     bordercolor="#666666"
     borderopacity="1"
     objecttolerance="10"
     gridtolerance="10"
     guidetolerance="10"
     inkscape:pageopacity="0"
     inkscape:pageshadow="2"
     inkscape:window-width="1920"
     inkscape:window-height="1171"
     id="namedview5460"
     showgrid="false"
     inkscape:zoom="3.2623735"
     inkscape:cx="142.34142"
     inkscape:cy="109.54252"
     inkscape:window-x="0"
     inkscape:window-y="0"
     inkscape:window-maximized="1"
     inkscape:current-layer="g5456"
     units="mm" />
  <g
     stroke-width="none"
     stroke-linecap="none"
     stroke-miterlimit="none"
     font-weight="none"
     font-size="none"
     text-anchor="none"
     style="font-family:none;display:inline;mix-blend-mode:normal;fill:none;fill-rule:nonzero;stroke:none;stroke-linejoin:miter;stroke-dasharray:none;stroke-dashoffset:0"
     id="g5456"
     transform="translate(0,-1432.7722)">
    <rect
       style="fill:#000000;fill-opacity:1;stroke:#ffffff;stroke-width:0.2756809;stroke-linecap:round;stroke-linejoin:round;stroke-miterlimit:9.86666679;stroke-dasharray:none;stroke-opacity:1;paint-order:normal"
       id="rect865"
       width="286.96841"
       height="203.81882"
       x="0.13784009"
       y="1432.91"
       inkscape:label="black_background"
       sodipodi:insensitive="true" />
    <g
       id="g7019"
       inkscape:label="inductor"
       transform="matrix(0.21987571,0,0,0.21987571,20.414392,1416.1897)"
       style="fill:#d0d0ce;fill-opacity:1;stroke:none">
      <path
         style="fill:#d0d0ce;fill-opacity:1;stroke:none;stroke-width:3.77952766;stroke-linecap:butt;stroke-miterlimit:9.86666679;stroke-dasharray:none;stroke-opacity:1"
         inkscape:connector-curvature="0"
         id="path5423"
         stroke-miterlimit="10"
         d="m 641.31007,883.68837 2.30589,7.19187" />
      <path
         style="fill:#d0d0ce;fill-opacity:1;stroke:none;stroke-width:3.77952766;stroke-linecap:butt;stroke-miterlimit:9.86666679;stroke-dasharray:none;stroke-opacity:1"
         inkscape:connector-curvature="0"
         id="path5427"
         stroke-miterlimit="10"
         d="m 641.30761,882.74598 2.62358,8.13093" />
      <path
         style="fill:#d0d0ce;fill-opacity:1;stroke:none;stroke-width:3.77952766;stroke-linecap:butt;stroke-miterlimit:9.86666679;stroke-dasharray:none;stroke-opacity:1"
         inkscape:connector-curvature="0"
         id="path5435"
         stroke-miterlimit="10"
         d="m 711.94896,888.59456 c -6.63513,-1.91748 -14.718,-11.43688 -18.10774,-21.37253 -8.95031,-25.97511 -5.96377,-71.74407 6.5533,-100.49667 2.15262,-4.9506 3.92012,-10.04451 3.91569,-11.30642 -0.007,-3.41186 -12.19462,-11.53661 -20.89423,-13.94125 -4.5947,-1.26689 -12.76522,-1.78362 -20.59954,-1.28444 -30.08849,1.90006 -40.37865,16.47784 -38.23445,54.17388 0.81871,14.3997 3.63336,29.48981 8.51815,45.54019 l -0.83915,2.05873 -8.48426,6.57077 -5.55828,7.77021 -5.58087,13.70846 6.83519,-9.91021 6.18544,-5.87109 9.11142,-4.67165 0.95411,-1.52429 c 3.23967,9.51115 7.18158,19.36132 11.84026,29.60335 l 5.13743,11.28431 -74.45265,0.24865 -74.45174,0.24818 -0.0383,-12.56334 -0.0377,-12.56255 55.37641,-0.18465 c 51.97426,-0.1735 55.3193,-0.38515 54.44537,-3.11429 -5.93221,-18.64605 -9.80163,-33.23396 -12.02006,-46.0675 l 9.65417,-10.52387 -10.21933,7.0606 c -1.63516,-10.66698 -2.10156,-20.21509 -1.65308,-30.06462 1.51094,-33.17627 13.91677,-52.3848 40.41764,-62.57955 5.66336,-2.17784 10.95164,-2.9916 22.05459,-3.16011 l 1.45006,7.47386 1.45894,-7.503 c 0.85369,-0.005 1.73881,-0.006 2.65751,-0.005 21.84658,0.0276 32.43693,3.05515 45.60428,13.04161 l 7.38885,5.60258 7.42618,-5.68874 c 5.21927,-3.99551 11.0223,-7.05417 17.14022,-9.17613 l 6.85988,11.66932 -3.00791,-12.55727 -0.16253,-0.26808 c 19.187,-5.38418 40.85099,-1.8916 57.14831,10.47328 l 7.63055,5.79219 5.29633,-4.06429 c 11.83062,-9.07906 23.14051,-13.48435 36.83951,-14.35119 18.07099,-1.14312 29.13361,1.62717 42.35301,10.61432 l 10.91683,7.42141 9.89289,-6.65451 c 2.45951,-1.65426 4.77421,-3.10663 7.00531,-4.37438 l 2.14015,3.40708 6.71618,14.90689 7.68946,1.28515 c -4.26737,1.59111 -8.37553,3.94293 -12.523,7.1286 l -5.69588,4.37064 5.76159,12.37192 c 8.85856,19.00583 13.07058,38.42818 13.24734,61.08196 0.28127,36.13057 -11.3429,56.93025 -34.24209,61.26234 -11.8452,2.24025 -26.58779,-6.22275 -33.18698,-19.05428 -11.76123,-22.86448 -7.55452,-66.1209 9.91119,-101.90828 7.69391,-15.76596 7.69219,-15.77618 -5.52572,-22.91479 -12.09979,-6.53111 -26.13441,-6.48591 -38.18929,0.12712 -12.98161,7.12244 -13.1199,7.52675 -7.03642,20.61118 9.51992,20.46256 12.59383,35.15747 12.85291,61.35601 0.18234,18.4723 -0.40143,25.34769 -2.75903,32.41901 -6.57338,19.72305 -17.20237,29.5238 -31.98862,29.49599 -10.64151,-0.0127 -18.00951,-3.83932 -24.46124,-12.68653 -7.94713,-10.91393 -10.79048,-22.69786 -10.76389,-44.80844 0.0277,-23.2865 4.21308,-42.5485 13.67403,-62.91381 l 6.45665,-13.89852 -4.4212,-4.24312 c -13.83408,-13.16915 -42.49193,-12.75742 -54.6604,0.77917 -2.7738,3.09257 -2.78417,3.5957 -0.0663,9.2552 9.73891,20.34957 13.59831,41.74012 12.44606,68.99956 -1.79656,42.52308 -16.92663,65.39424 -39.03398,59.00675 z M 818.72003,857.8305 c 6.66264,-13.15203 5.95228,-45.99727 -1.48407,-68.6567 -1.43253,-4.37338 -3.19227,-7.94667 -3.91175,-7.94396 -2.22415,0.007 -8.3865,22.26967 -10.36693,37.45617 -2.93827,22.53397 2.05132,46.30509 9.71498,46.27938 1.33958,-7.6e-4 4.06573,-3.21749 6.05006,-7.13686 z m 90.19534,5.16143 c 11.81877,-6.37631 12.2333,-58.36733 0.64037,-80.31475 l -2.18671,-4.18831 -2.65128,6.40702 c -12.13654,29.32239 -14.5111,67.52873 -4.79619,77.17954 3.04024,2.99861 4.7841,3.18126 9.01743,0.8993 z M 723.76908,849.42187 c 4.1721,-16.24811 2.43879,-58.24574 -2.61825,-63.45722 -2.74603,-2.79168 -7.27225,24.48514 -7.21724,43.32709 0.0542,18.36192 3.00695,34.41961 5.80924,31.59333 0.79921,-0.8061 2.61517,-5.96837 4.02632,-11.46311 z" />
      <path
         style="fill:#d0d0ce;fill-opacity:1;stroke:none;stroke-width:3.77952766;stroke-linecap:square;stroke-miterlimit:9.86666679;stroke-dasharray:none;stroke-opacity:1"
         inkscape:connector-curvature="0"
         stroke-miterlimit="4"
         id="path5264 1 1"
         d="m 951.47378,854.90927 c 4.27632,-7.32655 8.44574,-12.6727 13.46424,-16.76921 l 5.2029,3.73629 10.4218,8.91922 -6.9233,-10.85828 -4.7335,-4.66587 c 4.8592,-3.10037 10.567,-5.371 17.7802,-7.31398 9.1669,-2.46737 18.23098,-3.41141 28.04398,-2.73073 l 0.1106,3.05514 -4.3795,8.65748 -5.2573,12.91938 -0.1908,0.24473 c -3.9846,0.14903 -7.7057,0.65501 -11.07588,1.54206 -11.6385,3.10091 -16.9987,7.1877 -22.1891,17.07136 -2.5085,4.78925 -4.0567,9.5506 -4.6814,14.57186 l -4.6949,6.22391 -16.32314,-0.93739 -4.01056,0.32231 c -0.45884,-12.72022 2.15863,-21.51655 9.43567,-33.9883 z" />
      <path
         style="fill:#d0d0ce;fill-opacity:1;stroke:none;stroke-width:3.77952766;stroke-linecap:butt;stroke-miterlimit:9.86666679;stroke-dasharray:none;stroke-opacity:1"
         inkscape:connector-curvature="0"
         id="path5450"
         stroke-miterlimit="10"
         d="m 1042.6599,803.24857 c 1.4818,15.84861 0.6138,30.76116 -3.0763,51.57115 l -2.2465,0.0171 1.478,4.1863 c -0.032,0.17238 -0.065,0.34516 -0.098,0.51835 l -1.0404,5.50673 3.599,-0.0275 13.8848,9.31897 -10.0104,-9.34853 42.1437,-0.32152 49.6179,-0.37931 -0.2005,12.55396 -0.201,12.55316 -64.8078,0.13732 c -62.0864,0.13145 -64.986,-5.7e-4 -69.0383,-3.11939 -7.73866,-5.94939 -6.38826,-16.95531 2.5758,-21.03219 6.8691,-3.1208 8.6898,-7.39257 11.6786,-27.34094 1.9508,-13.03348 2.0285,-26.5968 0.5091,-39.27245 l 2.0633,-3.66279 4.1816,-15.12552 -4.9352,11.19714 -1.9642,2.81405 c -1.9431,-12.57684 -5.4859,-24.06045 -10.3423,-32.98169 l 0.3041,0.0621 13.9092,-1.04045 9.702,0.0699 2.6869,-1.45837 c 4.9111,11.8844 7.9054,26.15072 9.6266,44.60435 z" />
    </g>
    <g
       id="g7012"
       inkscape:label="mosfet"
       transform="matrix(0.26717793,0,0,0.26717793,-7.417991,1375.9664)"
       style="fill:#d0d0ce;fill-opacity:1;stroke:none">
      <path
         style="font-family:none;mix-blend-mode:normal;fill:#d0d0ce;fill-opacity:1;fill-rule:nonzero;stroke:none;stroke-width:3.77952766;stroke-linecap:butt;stroke-linejoin:miter;stroke-miterlimit:9.86666679;stroke-dasharray:none;stroke-dashoffset:0;stroke-opacity:1"
         inkscape:connector-curvature="0"
         id="path6255"
         d="m 473.22474,724.14644 -3.64101,3.41284 -0.24957,-7.21575 0.14193,-0.223 z" />
      <path
         style="font-family:none;mix-blend-mode:normal;fill:#d0d0ce;fill-opacity:1;fill-rule:nonzero;stroke:none;stroke-width:3.77952766;stroke-linecap:butt;stroke-linejoin:miter;stroke-miterlimit:9.86666679;stroke-dasharray:none;stroke-dashoffset:0;stroke-opacity:1"
         inkscape:connector-curvature="0"
         id="path6257"
         d="m 305.28885,606.88525 -3.56646,21.40111 -25.29224,-4.21491 14.59006,-87.55002 25.29224,4.21491 -6.97081,41.8295 83.37176,13.89376 -1.64143,14.42456 -1.37108,10.06822 z" />
      <path
         style="font-family:none;mix-blend-mode:normal;fill:#d0d0ce;fill-opacity:1;fill-rule:nonzero;stroke:none;stroke-width:3.77952766;stroke-linecap:butt;stroke-linejoin:miter;stroke-miterlimit:9.86666679;stroke-dasharray:none;stroke-dashoffset:0;stroke-opacity:1"
         inkscape:connector-curvature="0"
         id="path6259"
         d="m 102.1806,609.14823 0.37167,-1.34335" />
      <path
         style="font-family:none;mix-blend-mode:normal;fill:#d0d0ce;fill-opacity:1;fill-rule:nonzero;stroke:none;stroke-width:3.77952766;stroke-linecap:butt;stroke-linejoin:miter;stroke-miterlimit:9.86666679;stroke-dasharray:none;stroke-dashoffset:0;stroke-opacity:1"
         inkscape:connector-curvature="0"
         id="path6263"
         d="m 120.08588,654.46384 -0.23744,4.04005" />
      <path
         style="font-family:none;mix-blend-mode:normal;fill:#d0d0ce;fill-opacity:1;fill-rule:nonzero;stroke:none;stroke-width:3.77952766;stroke-linecap:butt;stroke-linejoin:miter;stroke-miterlimit:9.86666679;stroke-dasharray:none;stroke-dashoffset:0;stroke-opacity:1"
         inkscape:connector-curvature="0"
         id="path6267"
         d="m 111.38774,752.9949 -1.28214,-3.19595" />
      <path
         style="font-family:none;mix-blend-mode:normal;fill:#d0d0ce;fill-opacity:1;fill-rule:nonzero;stroke:none;stroke-width:3.77952766;stroke-linecap:butt;stroke-linejoin:miter;stroke-miterlimit:9.86666679;stroke-dasharray:none;stroke-dashoffset:0;stroke-opacity:1"
         inkscape:connector-curvature="0"
         id="path6271"
         d="m 149.88311,772.20491 0.18709,0.29522" />
      <path
         style="font-family:none;mix-blend-mode:normal;fill:#d0d0ce;fill-opacity:1;fill-rule:nonzero;stroke:none;stroke-width:3.77952766;stroke-linecap:butt;stroke-linejoin:miter;stroke-miterlimit:9.86666679;stroke-dasharray:none;stroke-dashoffset:0;stroke-opacity:1"
         inkscape:connector-curvature="0"
         id="path6275"
         d="m 243.33646,849.71127 0.92827,0.3618" />
      <path
         style="font-family:none;mix-blend-mode:normal;fill:#d0d0ce;fill-opacity:1;fill-rule:nonzero;stroke:none;stroke-width:3.77952766;stroke-linecap:butt;stroke-linejoin:miter;stroke-miterlimit:9.86666679;stroke-dasharray:none;stroke-dashoffset:0;stroke-opacity:1"
         inkscape:connector-curvature="0"
         id="path6281"
         d="m 329.28613,888.41151 -5.97929,0.3427" />
      <path
         style="font-family:none;mix-blend-mode:normal;fill:#d0d0ce;fill-opacity:1;fill-rule:nonzero;stroke:none;stroke-width:3.77952766;stroke-linecap:butt;stroke-linejoin:miter;stroke-miterlimit:9.86666679;stroke-dasharray:none;stroke-dashoffset:0;stroke-opacity:1"
         inkscape:connector-curvature="0"
         id="path6285"
         d="m 408.29824,745.99431 -4.00758,0.87431" />
      <path
         style="font-family:none;mix-blend-mode:normal;fill:#d0d0ce;fill-opacity:1;fill-rule:nonzero;stroke:none;stroke-width:3.77952766;stroke-linecap:butt;stroke-linejoin:miter;stroke-miterlimit:9.86666679;stroke-dasharray:none;stroke-dashoffset:0;stroke-opacity:1"
         inkscape:connector-curvature="0"
         id="path6289"
         d="m 385.60339,724.70143 4.75406,-1.03717" />
      <path
         style="font-family:none;mix-blend-mode:normal;fill:#d0d0ce;fill-opacity:1;fill-rule:nonzero;stroke:none;stroke-width:3.77952766;stroke-linecap:butt;stroke-linejoin:miter;stroke-miterlimit:9.86666679;stroke-dasharray:none;stroke-dashoffset:0;stroke-opacity:1"
         inkscape:connector-curvature="0"
         id="path6293"
         d="m 307.72094,691.76084 -2.02571,-9.28522" />
      <path
         style="font-family:none;mix-blend-mode:normal;fill:#d0d0ce;fill-opacity:1;fill-rule:nonzero;stroke:none;stroke-width:3.77952766;stroke-linecap:butt;stroke-linejoin:miter;stroke-miterlimit:9.86666679;stroke-dasharray:none;stroke-dashoffset:0;stroke-opacity:1"
         inkscape:connector-curvature="0"
         id="path6297"
         d="m 308.12011,693.59048 -0.87258,-3.99964" />
      <path
         style="font-family:none;mix-blend-mode:normal;fill:#d0d0ce;fill-opacity:1;fill-rule:nonzero;stroke:none;stroke-width:3.77952766;stroke-linecap:butt;stroke-linejoin:miter;stroke-miterlimit:9.86666679;stroke-dasharray:none;stroke-dashoffset:0;stroke-opacity:1"
         inkscape:connector-curvature="0"
         id="path6301"
         d="m 361.82547,638.34501 6.7297,-4.2757" />
      <path
         style="font-family:none;mix-blend-mode:normal;fill:#d0d0ce;fill-opacity:1;fill-rule:nonzero;stroke:none;stroke-width:3.77952766;stroke-linecap:butt;stroke-linejoin:miter;stroke-miterlimit:9.86666679;stroke-dasharray:none;stroke-dashoffset:0;stroke-opacity:1"
         inkscape:connector-curvature="0"
         id="path6305"
         d="m 268.98316,588.22881 0.0949,0.4352" />
      <path
         style="font-family:none;mix-blend-mode:normal;fill:#d0d0ce;fill-opacity:1;fill-rule:nonzero;stroke:none;stroke-width:3.77952766;stroke-linecap:butt;stroke-linejoin:miter;stroke-miterlimit:9.86666679;stroke-dasharray:none;stroke-dashoffset:0;stroke-opacity:1"
         inkscape:connector-curvature="0"
         id="path6309"
         d="m 261.14009,672.57366 -0.91817,-4.2086" />
      <path
         style="font-family:none;mix-blend-mode:normal;fill:#d0d0ce;fill-opacity:1;fill-rule:nonzero;stroke:none;stroke-width:3.77952766;stroke-linecap:butt;stroke-linejoin:miter;stroke-miterlimit:9.86666679;stroke-dasharray:none;stroke-dashoffset:0;stroke-opacity:1"
         inkscape:connector-curvature="0"
         id="path6313"
         d="m 249.41864,796.80654 6.26802,-1.36746" />
      <path
         style="font-family:none;mix-blend-mode:normal;fill:#d0d0ce;fill-opacity:1;fill-rule:nonzero;stroke:none;stroke-width:3.77952766;stroke-linecap:butt;stroke-linejoin:miter;stroke-miterlimit:9.86666679;stroke-dasharray:none;stroke-dashoffset:0;stroke-opacity:1"
         inkscape:connector-curvature="0"
         id="path6317"
         d="m 491.78545,827.56544 0.86442,3.96223" />
      <path
         style="font-family:none;mix-blend-mode:normal;fill:#d0d0ce;fill-opacity:1;fill-rule:nonzero;stroke:none;stroke-width:3.77952766;stroke-linecap:butt;stroke-linejoin:miter;stroke-miterlimit:9.86666679;stroke-dasharray:none;stroke-dashoffset:0;stroke-opacity:1"
         inkscape:connector-curvature="0"
         id="path6321"
         d="m 522.60568,745.55562 -1.20121,3.08499" />
      <path
         style="font-family:none;mix-blend-mode:normal;fill:#d0d0ce;fill-opacity:1;fill-rule:nonzero;stroke:none;stroke-width:3.77952766;stroke-linecap:butt;stroke-linejoin:miter;stroke-miterlimit:9.86666679;stroke-dasharray:none;stroke-dashoffset:0;stroke-opacity:1"
         inkscape:connector-curvature="0"
         id="path6327"
         d="m 430.46751,560.46939 1.3132,-5.00221" />
      <path
         style="font-family:none;mix-blend-mode:normal;fill:#d0d0ce;fill-opacity:1;fill-rule:nonzero;stroke:none;stroke-width:3.77952766;stroke-linecap:butt;stroke-linejoin:miter;stroke-miterlimit:9.86666679;stroke-dasharray:none;stroke-dashoffset:0;stroke-opacity:1"
         inkscape:connector-curvature="0"
         id="path6331"
         d="m 432.39657,493.89437 12.66143,10.99941 14.90734,-56.78471 24.80066,6.51076 -19.44954,74.08678 6.87796,10.2488 c 29.13849,43.41888 41.65986,97.0847 35.08115,150.35552 -1.39662,11.30904 -6.33802,30.91059 -11.31324,46.20684 l -5.8368,2.2335 -13.43009,-0.68528 -6.68945,-3.98712 c 13.85366,-35.04532 17.59561,-74.05667 9.44157,-112.63907 -0.70291,-3.32593 -1.5536,-6.78878 -2.52094,-10.30499 l 4.12205,-6.44965 6.17245,-12.94703 -7.49383,9.17158 -4.2516,5.19787 c -4.34646,-14.3996 -10.37163,-29.02581 -15.99582,-38.29331 l -2.90954,-4.79433 -17.12979,65.25041 -38.3702,-10.07309 2.28629,-9.90059 2.95399,-14.21394 14.5896,3.83012 9.56728,-36.44347 7.70329,-1.53313 13.40274,-3.58413 -12.38706,-0.28477 -7.40577,0.39982 5.61651,-21.3943 -7.38786,-7.78406 c -7.76332,-8.17964 -15.97305,-15.51561 -24.67683,-22.03584 l -0.49561,-1.51617 4.42978,-14.67566 4.42512,-8.8855 c 6.30726,4.43355 12.43231,9.26967 18.70475,14.71872 z" />
      <path
         style="font-family:none;mix-blend-mode:normal;fill:#d0d0ce;fill-opacity:1;fill-rule:nonzero;stroke:none;stroke-width:3.77952766;stroke-linecap:butt;stroke-linejoin:miter;stroke-miterlimit:9.86666679;stroke-dasharray:none;stroke-dashoffset:0;stroke-opacity:1"
         inkscape:connector-curvature="0"
         id="path6333"
         d="m 476.92662,610.13481 -1.45092,-5.02722" />
      <path
         style="font-family:none;mix-blend-mode:normal;fill:#d0d0ce;fill-opacity:1;fill-rule:nonzero;stroke:none;stroke-width:3.77952766;stroke-linecap:butt;stroke-linejoin:miter;stroke-miterlimit:9.86666679;stroke-dasharray:none;stroke-dashoffset:0;stroke-opacity:1"
         inkscape:connector-curvature="0"
         id="path6337"
         d="m 278.18167,449.94241 3.46549,-0.65705" />
      <path
         style="font-family:none;mix-blend-mode:normal;fill:#d0d0ce;fill-opacity:1;fill-rule:nonzero;stroke:none;stroke-width:3.77952766;stroke-linecap:butt;stroke-linejoin:miter;stroke-miterlimit:9.86666679;stroke-dasharray:none;stroke-dashoffset:0;stroke-opacity:1"
         inkscape:connector-curvature="0"
         id="path6341"
         d="m 472.43927,859.1841 c -3.46843,-15.89819 -6.44762,-28.87503 -6.62082,-28.83725 -0.1732,0.0378 -3.45916,2.76738 -7.30239,6.06579 -27.60812,23.6944 -58.85521,39.06089 -95.83331,47.12822 -11.29017,2.46312 -22.40524,4.08862 -33.39662,4.87065 l -0.39688,-0.35683 -5.79161,-6.44229 -2.54096,-11.08526 -1.45568,11.24907 3.79329,6.52419 0.41256,0.45382 c -34.90614,1.5155 -68.65004,-5.55398 -102.89869,-21.39808 -10.59607,-4.90197 -31.45085,-17.61257 -39.10432,-23.83341 l -5.44321,-4.42431 -67.94943,14.82418 -5.46541,-25.05173 25.13208,-5.48294 c 13.8226,-3.01561 24.91195,-5.77577 24.64307,-6.1333 -0.26913,-0.35788 -3.95872,-4.88988 -8.19956,-10.07151 -13.92669,-17.01623 -24.6617,-34.78263 -32.63363,-54.18822 l 2.55338,-9.67694 -3.83553,6.48099 c -4.26328,-10.88563 -7.6804,-22.29254 -10.324944,-34.37332 -2.0326,-9.29087 -4.06934,-20.89896 -4.52325,-25.79642 -2.55822,-27.59549 -0.0976,-54.79106 6.923194,-80.48097 l 2.99888,-0.81456 -2.62722,-0.5288 c 12.08427,-43.1493 37.06409,-81.97875 72.75334,-111.2163 18.49053,-15.14798 37.08727,-26.11932 60.36438,-35.61263 8.19973,-3.34416 26.46776,-7.91583 42.51169,-11.03354 l 9.73009,7.95887 -6.2646,-8.61592 c 4.2807,-0.79072 8.32815,-1.45811 11.89104,-1.94737 l 6.38689,4.46466 6.55132,9.23312 -2.56412,-9.55275 -5.38998,-4.74187 c 1.33875,-0.13154 2.55665,-0.2224 3.63162,-0.26775 15.71275,-0.66301 29.2757,-0.1335 42.90413,1.80316 l 0.094,9.92598 2.72004,15.08639 1.13025,1.12558 c -24.45692,-4.23374 -49.27635,-3.51292 -75.11383,2.12391 -31.31919,6.83275 -55.45904,18.1706 -80.11276,37.62682 -17.00875,13.42298 -28.43779,25.8442 -40.68476,44.21662 -13.98217,20.97544 -22.41831,40.1608 -28.06827,63.83248 -2.55247,10.69406 -4.19205,21.47696 -4.93685,32.24949 l -0.0526,0.0479 -10.32167,2.9057 10.13687,1.08647 c -1.93146,39.89477 8.38727,79.47687 30.03467,113.70103 l -0.67876,1.12035 0.86586,-0.82514 c 1.08112,1.70256 2.19032,3.3918 3.32748,5.0671 7.41089,10.91786 16.44144,21.81825 24.12528,29.12041 l 4.96707,4.72038 66.92861,-14.60147 1.28635,2.63043 14.32105,3.77893 5.40716,9.82435 -1.49908,-10.67696 -12.36702,-4.20523 -0.88045,-2.71898 30.79275,-6.7179 -25.33932,-116.14752 1.249,-1.94076 8.38183,-8.61864 -9.23443,4.71056 -1.31457,1.64024 -27.13546,-124.38047 25.05179,-5.46542 10.8449,49.70964 -0.87204,1.34125 0.96698,-0.90606 47.91851,219.64349 -108.37828,23.73478 7.5295,4.439 c 8.70362,5.13122 17.80631,9.54555 27.18864,13.22999 l -0.80032,4.09827 1.72859,-3.73647 c 42.0222,16.25496 89.55352,17.9166 131.92542,3.82397 l 0.001,0.004 c 13.56011,-4.51003 27.17527,-10.65911 39.24485,-17.72435 11.74487,-6.87518 30.01605,-20.98119 38.44281,-29.67931 l 5.35515,-5.52752 -13.25485,-63.19679 -37.68132,8.22074 -0.34876,-0.65409 -5.67134,-8.01062 1.76327,8.86322 0.24926,0.6758 -55.65391,12.14173 8.82875,40.46825 -25.05179,5.46542 -18.70854,-85.75411 25.05179,-5.46542 4.41438,20.23412 42.43205,-9.25719 5.03954,4.47505 16.11871,3.74048 -12.21063,-4.59308 -4.19356,-4.65961 50.13037,-10.93669 -12.4023,-56.84828 -26.14513,5.70395 1.06365,2.0391 c 0.58496,1.12149 3.54402,5.09058 6.57554,8.82019 3.03157,3.7296 5.22614,7.2264 4.87688,7.77057 -0.3493,0.54424 -19.57998,-1.63489 -42.73482,-4.84247 l -42.09976,-5.83202 7.20053,35.52338 -25.00927,5.45615 -3.69302,-16.92767 0.38582,-0.37923 3.74048,-16.11871 -4.59308,12.21063 -0.4058,0.28767 -13.0919,-60.00919 25.05179,-5.46542 3.88887,17.82535 c 2.2876,10.48565 4.2617,17.74395 4.7948,17.62765 0.47954,-0.10462 15.54845,-9.53179 33.93439,-21.22421 l 13.78995,7.2247 11.27126,-0.01 10.98243,8.60383 -7.60556,-10.74784 -9.58282,-1.06218 -12.12555,-8.28438 c 19.58861,-12.40235 31.03839,-19.18048 31.70263,-18.75416 0.71454,0.4586 0.47044,2.83778 -0.67214,6.54355 -0.98718,3.20264 -2.04254,7.80358 -2.34521,10.22442 l -0.5503,4.40144 45.59518,-9.94727 0.11949,0.23579 6.3349,3.46388 31.8905,143.88552 6.02787,-10.90428 c 19.77684,-35.77564 27.59592,-75.61541 23.9043,-114.32646 l 7.77061,0.51334 12.27581,-5.49011 4.18528,-4.64114 c 1.06345,6.715 1.77213,12.74752 1.93012,17.12969 1.14473,31.755 -3.51538,61.294 -14.11854,89.1521 l -10.60475,6.46289 9.40353,-3.3779 c -4.73388,11.88903 -10.5608,23.47282 -17.49166,34.79351 -4.21428,6.88345 -9.67805,14.99427 -12.14175,18.02404 l -4.47948,5.50877 4.49387,20.59851 -0.28965,0.16067 -12.4033,10.28478 13.25591,-6.3767 0.30146,-0.10652 11.14756,51.09692 -25.05179,5.46542 z" />
      <path
         style="font-family:none;mix-blend-mode:normal;fill:#d0d0ce;fill-opacity:1;fill-rule:nonzero;stroke:none;stroke-width:3.77952766;stroke-linecap:butt;stroke-linejoin:miter;stroke-miterlimit:9.86666679;stroke-dasharray:none;stroke-dashoffset:0;stroke-opacity:1"
         inkscape:connector-curvature="0"
         id="path6343"
         d="m 293.5382,447.33799 4.98412,-0.59683" />
    </g>
    <g
       id="g889"
       transform="translate(0,-6)">
      <path
         d="m 148.90217,1515.365 c -0.0208,-0.7093 0.12518,-1.4919 0.32497,-1.7393 0.13426,-0.1663 4.50739,-1.4012 10.85688,-3.0879 l -0.28659,1.5082 1.17827,1.5006 -0.88482,1.2267 -0.78211,1.2632 -1.9618,0.501 2.47951,1.9011 0.18064,0.475 -1.36006,1.5376 0.0702,1.8144 -0.5531,1.5887 c -8.92471,-6.9725 -9.22683,-7.2981 -9.26202,-8.4893 z"
         id="path9766 1 1 1"
         stroke-miterlimit="4"
         inkscape:connector-curvature="0"
         style="font-family:none;mix-blend-mode:normal;fill:#d0d0ce;fill-opacity:1;fill-rule:nonzero;stroke:none;stroke-width:0.03377941;stroke-linecap:round;stroke-linejoin:round;stroke-miterlimit:4;stroke-dasharray:none;stroke-dashoffset:0" />
      <path
         d="m 231.06928,1566.7693 c 0.34065,1.1314 0.45443,2.0762 0.2531,2.0997 -2.03978,0.237 -4.20412,0.4925 -6.36933,0.7512 l -0.0725,-0.3284 -1.42553,-1.6202 0.76424,1.6996 0.0263,0.3335 c -2.23865,0.2681 -4.46384,0.5377 -6.53814,0.7918 l 0.27275,-0.6821 -0.58983,-3.0596 2.01043,-1.4089 c 4.13834,-0.4747 7.6911,-0.8194 9.4718,-0.9264 l 0.28249,0.2557 0.84144,-0.282 c 0.0484,0 0.0796,0.011 0.0898,0.024 0.19979,0.1616 0.63929,1.2219 0.97991,2.3534 z"
         id="path9770 1 1 1"
         stroke-miterlimit="4"
         inkscape:connector-curvature="0"
         style="font-family:none;mix-blend-mode:normal;fill:#d0d0ce;fill-opacity:1;fill-rule:nonzero;stroke:none;stroke-width:0.03377941;stroke-linecap:round;stroke-linejoin:round;stroke-miterlimit:4;stroke-dasharray:none;stroke-dashoffset:0" />
      <path
         d="m 146.57086,1538.4767 8.34631,-10.2534 -35.32029,-27.295 3.28127,-4.0311 3.33814,2.5502 -1.24152,0.8954 1.64792,-0.5849 13.89851,10.6179 6.4677,4.9411 -0.21191,0.275 0.67986,1.6411 -0.28633,2.6367 0.82163,-2.2278 -0.41219,-1.4365 0.25312,-0.2436 10.33111,7.8925 1.22201,-1.4741 2.717,-0.4264 -2.30506,-0.071 6.82745,-8.236 c 0.38144,-0.4601 0.74577,-0.8995 1.09392,-1.3191 l 1.63562,0.5564 1.86527,-0.047 1.58629,1.3407 0.48771,-0.1703 -26.82197,32.9506 1.96667,0.054 c 0.90358,0.025 7.13287,0.212 14.73802,0.4426 l 0.0961,0.212 1.83532,1.9509 -0.0521,1.7185 0.73003,-1.6979 -1.49632,-1.9406 -0.061,-0.211 c 1.16999,0.035 2.36747,0.072 3.5786,0.1087 l 17.40202,0.5289 -9.44755,-34.5925 1.30176,0.7754 1.26472,0.8748 1.53838,-1.1286 1.55173,0.2962 c 0.52792,1.8597 1.09836,3.8931 1.69398,6.0404 l -0.81327,1.3882 -1.11304,1.2253 1.28938,-0.587 0.86879,-1.1895 c 0.2992,1.0818 0.6041,2.1898 0.9125,3.3168 l 5.59115,20.4312 7.62138,-9.174 c 7.34105,-8.8364 7.67019,-9.1748 8.94664,-9.1965 1.71939,-0.029 2.34327,0.4897 2.54235,2.1141 0.13321,1.0874 -0.14041,1.6476 -5.35933,8.0968 l -0.56008,-0.2816 -1.93448,-0.2356 -1.60574,0.3157 1.18682,0.1998 1.72506,0.4933 0.5096,0.3462 c -0.65163,0.8032 -1.3718,1.6887 -2.16755,2.6663 l -8.36762,10.2795 5.05233,3.9045 -0.60756,1.8445 1.10409,-1.4608 29.7714,23.007 -3.28721,4.0384 -35.32027,-27.2951 -8.15171,10.0143 c -0.35487,0.4359 -0.69537,0.8538 -1.0221,1.2541 l -0.23011,-0.068 -1.73716,0.09 1.31663,0.4242 0.21125,0.091 c -5.64819,6.9102 -6.96326,8.3005 -7.94563,8.5812 -1.52257,0.4355 -2.96397,-0.5681 -3.07549,-2.1413 -0.0716,-1.0109 0.8497,-2.3018 7.29079,-10.2146 4.05509,-4.9816 7.25917,-9.1453 7.11991,-9.2529 -0.13929,-0.1076 -9.85409,-0.4832 -21.58914,-0.8351 -11.73502,-0.3518 -21.66717,-0.8953 -22.07141,-1.2077 -0.40406,-0.3123 -0.79194,-1.0353 -0.8622,-1.606 -0.10907,-0.8938 1.03127,-2.4607 8.21908,-11.2909 z"
         stroke-miterlimit="10"
         id="path12008"
         inkscape:connector-curvature="0"
         style="font-family:none;mix-blend-mode:normal;fill:#d0d0ce;fill-opacity:1;fill-rule:nonzero;stroke:none;stroke-width:0.16719997;stroke-linecap:butt;stroke-linejoin:miter;stroke-miterlimit:10;stroke-dasharray:none;stroke-dashoffset:0" />
      <g
         style="fill:#d0d0ce;fill-opacity:1;stroke:none"
         transform="matrix(-0.16836986,-0.02061554,0.01989773,-0.1636019,370.234,1632.0808)"
         id="g12616">
        <path
           style="font-family:none;mix-blend-mode:normal;fill:#d0d0ce;fill-opacity:1;fill-rule:nonzero;stroke:none;stroke-width:0.20203;stroke-linecap:round;stroke-linejoin:round;stroke-miterlimit:4;stroke-dasharray:none;stroke-dashoffset:0"
           inkscape:connector-curvature="0"
           stroke-miterlimit="4"
           id="path9768 1 1 1"
           d="m 1154.9939,477.95792 c 3.8602,5.54991 7.1815,10.51757 7.3791,11.04187 0.1012,0.28245 -8.2708,4.61379 -21.6494,11.26705 l -0.035,-0.0467 -12.2014,-6.90895 8.6117,8.67357 0.032,0.0647 c -11.3918,5.64191 -25.8033,12.6778 -41.4524,20.21982 l -21.2077,10.22098 -2.4448,-2.17412 -0.5354,-12.65256 2.6655,-9.85104 9.2769,-5.90208 1.9094,-7.49805 c 1.1848,-0.57207 2.3746,-1.13871 3.5631,-1.70922 13.3279,-6.39352 25.7284,-12.19633 35.5913,-16.68411 l 2.1544,0.15309 14.6267,-7.35061 6.5846,-0.58963 c 1.5992,1.99351 4.3453,5.72398 7.1315,9.72518 z" />
        <path
           style="font-family:none;mix-blend-mode:normal;fill:#d0d0ce;fill-opacity:1;fill-rule:nonzero;stroke:none;stroke-width:1;stroke-linecap:butt;stroke-linejoin:miter;stroke-miterlimit:10;stroke-dasharray:none;stroke-dashoffset:0"
           inkscape:connector-curvature="0"
           id="path12014"
           stroke-miterlimit="10"
           d="m 1025.1349,550.69463 10.6435,9.86265 10.6438,9.8629 -55.01102,0.33731 c -30.25661,0.18547 -55.09069,-0.24092 -55.18766,-0.9474 -0.0968,-0.70528 14.58456,-16.5503 32.62212,-35.21086 2.30639,-2.38597 4.56496,-4.72382 6.75112,-6.98799 l 10.4085,1.98747 12.04735,-1.77142 11.99419,4.31111 10.1995,6.20006 -7.4227,-9.07921 -10.6058,-5.75069 -10.65899,0.33184 -9.13332,-3.30609 c 11.47236,-11.89745 19.68531,-20.45902 20.00121,-20.86347 0.4306,-0.55146 1.707,5.02711 2.836,12.39857 l 2.0533,13.40149 12.0962,-4.64884 c 6.3969,-2.45942 35.8182,-14.0881 66.441,-26.26076 l -2.4202,7.34916 -9.6605,5.25061 -3.3361,9.64467 -0.3353,12.65936 2.2896,2.33699 z" />
      </g>
      <path
         d="m 232.77012,1582.407 c -0.11075,-0.036 -0.54526,0.9584 -0.96653,2.2103 l -0.76585,2.2763 -3.17981,-8.6357 c -1.74886,-4.7497 -3.08478,-8.6817 -2.96872,-8.7378 0.1227,-0.059 3.70846,1.5021 7.2337,3.0986 l -0.0449,0.6643 0.14906,2.2853 0.46635,-2.0026 0.12602,-0.6307 c 2.72024,1.2383 5.26353,2.4346 5.97852,2.8456 l 1.01929,0.5865 -1.62275,0.8277 c -0.89267,0.4553 -1.68136,1.0188 -1.7531,1.2524 -0.0725,0.2332 3.46432,4.5088 7.85805,9.5003 0.35995,0.409 0.71447,0.8132 1.06198,1.2109 l -2.30571,-0.8736 -2.16444,2.2081 -0.71494,0.1552 c -4.08201,-4.6013 -7.31918,-8.2121 -7.40663,-8.2409 z"
         stroke-miterlimit="10"
         id="path12020"
         inkscape:connector-curvature="0"
         style="font-family:none;mix-blend-mode:normal;fill:#d0d0ce;fill-opacity:1;fill-rule:nonzero;stroke:none;stroke-width:0.16719997;stroke-linecap:butt;stroke-linejoin:miter;stroke-miterlimit:10;stroke-dasharray:none;stroke-dashoffset:0" />
    </g>
    <path
       style="fill:#fe5000;fill-opacity:1;fill-rule:nonzero;stroke:none;stroke-width:3.04502654;stroke-linecap:round;stroke-linejoin:round;stroke-miterlimit:4;stroke-dasharray:none;stroke-opacity:1;paint-order:normal"
       d="m 61.129076,1478.358 4.496269,24.4157 154.064745,-28.3717 -4.49627,-24.4157 z m 2.439569,2.8838 5.450673,-1.0038 0.02398,-0.01 c 0.771768,-0.1422 1.496386,-0.1342 2.173786,0.024 0.67738,0.1578 1.27988,0.4547 1.80875,0.8893 0.54198,0.4154 1.00034,0.9632 1.37476,1.6423 0.37145,0.663 0.63887,1.4361 0.80172,2.3205 0.15989,0.8682 0.18398,1.678 0.0731,2.4299 -0.1109,0.7518 -0.34409,1.4268 -0.69953,2.0242 -0.33937,0.5945 -0.79515,1.0944 -1.36891,1.4993 -0.57672,0.3888 -1.25099,0.6543 -2.02275,0.7964 l -0.024,0.01 -1.327331,0.2444 1.163631,6.3188 -4.123341,0.7594 z m 11.986429,-2.2074 10.99724,-2.0251 0.74633,4.0526 -6.94582,1.2792 0.53278,2.8931 5.11253,-0.9415 0.74631,4.0527 -5.11252,0.9414 0.53278,2.8932 6.94582,-1.2791 0.74633,4.0527 -10.99724,2.0252 z m 12.58954,-2.3184 5.44941,-1.0035 0.0252,-0.01 c 1.02902,-0.1895 1.91076,-0.1847 2.64527,0.012 0.74762,0.1782 1.37154,0.4955 1.8712,0.9521 0.51279,0.4375 0.92228,0.9929 1.22941,1.6677 0.30419,0.6588 0.52715,1.3749 0.669266,2.1467 0.14804,0.8038 0.14304,1.5443 -0.0149,2.2216 -0.141766,0.6745 -0.356886,1.2633 -0.646736,1.7655 -0.27675,0.4831 -0.58049,0.8707 -0.90883,1.164 -0.33132,0.2771 -0.6012,0.4355 -0.81021,0.474 l 4.961666,6.4921 -4.654516,0.8571 -3.4873,-5.3925 -0.048,0.01 1.07487,5.8368 -4.05141,0.7461 z m 12.613506,-2.3229 10.99724,-2.0251 0.74632,4.0527 -6.94581,1.2791 0.53278,2.8931 5.11253,-0.9415 0.74631,4.0527 -5.11252,0.9415 1.2791,6.9459 -4.05141,0.746 z m 18.81112,-3.4641 0.024,-0.01 c 0.94863,-0.1747 1.87546,-0.1537 2.77963,0.062 0.92026,0.2129 1.77403,0.6047 2.56057,1.1748 0.69132,0.5043 1.25232,1.1147 1.68384,1.8331 0.43155,0.7185 0.73078,1.4872 0.89787,2.3042 l 0.77281,4.1965 c 0.15989,0.8682 0.18586,1.7769 0.0783,2.7277 -0.0944,0.9317 -0.4005,1.7941 -0.91927,2.5879 -0.52894,0.8288 -1.18563,1.5071 -1.96969,2.0337 -0.76797,0.5238 -1.62653,0.8736 -2.57515,1.0483 l -0.024,0.01 c -0.93254,0.1718 -1.85937,0.1509 -2.77963,-0.062 -0.90416,-0.2157 -1.75771,-0.6064 -2.56032,-1.1734 -0.75141,-0.5598 -1.34174,-1.2409 -1.77201,-2.0427 -0.41418,-0.8048 -0.71821,-1.6881 -0.91194,-2.6498 l -0.77281,-4.1966 c -0.14212,-0.7717 -0.13317,-1.5794 0.0272,-2.4235 0.15746,-0.8602 0.46106,-1.6475 0.9113,-2.362 0.54796,-0.8158 1.20613,-1.4861 1.97409,-2.0099 0.76798,-0.5237 1.62653,-0.8736 2.57515,-1.0482 z m 7.959,-1.4657 5.45067,-1.0037 0.024,-0.01 c 1.02902,-0.1895 1.91075,-0.1846 2.64527,0.013 0.74763,0.1782 1.37154,0.4955 1.87121,0.9521 0.51278,0.4375 0.92227,0.9929 1.22941,1.6678 0.30418,0.6587 0.52713,1.3748 0.66927,2.1466 0.14803,0.8039 0.14302,1.5443 -0.0148,2.2217 -0.14178,0.6744 -0.3569,1.2632 -0.64676,1.7654 -0.27674,0.4831 -0.57922,0.8706 -0.90757,1.1638 -0.33131,0.2771 -0.60119,0.4355 -0.81021,0.474 l 4.96042,6.4923 -4.65452,0.8571 -3.4873,-5.3925 -0.048,0.01 1.07488,5.8368 -4.05141,0.746 z m 12.58953,-2.3184 4.12334,-0.7593 5.6333,9.7353 1.81973,-11.1078 4.05141,-0.7461 3.30454,17.9443 -4.2924,0.7905 -1.15481,-6.2709 -1.0406,6.6752 -2.60421,0.4796 -3.4337,-6.0508 1.19035,6.4639 -4.29241,0.7905 z m 21.92255,-4.0371 5.40273,-0.995 8.56217,16.9762 -4.60658,0.8483 -2.48691,-4.4301 -3.49752,0.6441 -0.7204,5.0207 -4.60657,0.8483 z m 11.69624,-2.154 4.1246,-0.7595 6.42075,7.9192 -1.62114,-8.8031 4.29241,-0.7905 3.30454,17.9444 -4.09937,0.7549 -6.44913,-7.9388 1.62554,8.8271 -4.29366,0.7907 z m 21.22355,-3.9083 0.024,-0.01 c 0.98077,-0.1806 1.85002,-0.1993 2.6078,-0.056 0.75779,0.1431 1.42636,0.3856 2.00473,0.7279 0.59446,0.3394 1.09496,0.7543 1.50111,1.2447 0.42224,0.4874 0.77148,0.9886 1.04901,1.5027 l -3.13658,2.5969 c -0.14976,-0.2716 -0.34121,-0.5435 -0.57432,-0.8165 -0.21705,-0.2759 -0.46855,-0.5123 -0.75415,-0.7091 -0.28559,-0.1967 -0.5944,-0.3383 -0.92653,-0.4268 -0.33214,-0.088 -0.66483,-0.094 -0.99951,-0.016 -0.8081,0.2157 -1.40759,0.6656 -1.79646,1.3523 -0.37576,0.6677 -0.48154,1.4442 -0.31869,2.3286 l 0.64386,3.4962 c 0.16285,0.8843 0.54912,1.5866 1.16007,2.1058 0.60798,0.5032 1.32872,0.7116 2.16055,0.6249 0.70029,-0.079 1.23818,-0.3616 1.61436,-0.8465 0.39224,-0.4879 0.65704,-1.0355 0.79459,-1.6427 l 3.85617,1.3106 c -0.0914,0.3161 -0.23242,0.724 -0.42284,1.2246 -0.17435,0.4975 -0.46246,1.0073 -0.86486,1.5303 -0.40241,0.5229 -0.95192,1.0156 -1.64837,1.4763 -0.68335,0.4417 -1.57164,0.763 -2.66496,0.9643 l -0.024,0.01 c -1.22196,0.225 -2.28571,0.2211 -3.19284,-0.011 -0.89106,-0.2349 -1.66149,-0.6246 -2.31051,-1.17 -0.6359,-0.5644 -1.15373,-1.2506 -1.55183,-2.0584 -0.40107,-0.8238 -0.71154,-1.6978 -0.93151,-2.6215 l -0.68405,-3.7145 c -0.14676,-0.8873 -0.16194,-1.7816 -0.0455,-2.6841 0.12952,-0.9215 0.40548,-1.7703 0.82779,-2.5462 0.43838,-0.7789 1.03856,-1.4468 1.8006,-2.0027 0.75909,-0.572 1.69349,-0.9603 2.80291,-1.1645 z m 7.98297,-1.4702 10.99849,-2.0254 0.74633,4.0527 -6.94582,1.2791 0.53278,2.8931 5.11253,-0.9415 0.74632,4.0527 -5.11253,0.9415 0.53278,2.8931 6.94582,-1.279 0.74633,4.0527 -10.9985,2.0254 z"
       id="rect1559"
       inkscape:connector-curvature="0"
       inkscape:label="performance" />
    <path
       style="fill:#fe5000;fill-opacity:1;fill-rule:nonzero;stroke:none;stroke-width:2.6645453;stroke-linecap:round;stroke-linejoin:round;stroke-miterlimit:4;stroke-dasharray:none;stroke-opacity:1;paint-order:normal"
       d="m 117.8139,1490.5841 1.47937,24.7822 151.91643,-9.0687 -1.47937,-24.7822 z m 3.3023,3.0879 3.67166,-0.2191 c 1.41982,-0.085 2.68296,0.077 3.78834,0.4854 1.10438,0.3927 2.03919,0.9756 2.80596,1.7488 0.76579,0.7568 1.36233,1.6868 1.78859,2.7915 0.42528,1.0883 0.67575,2.2772 0.75271,3.5664 0.0731,1.224 0.005,2.3999 -0.20593,3.5262 -0.21219,1.1099 -0.61243,2.0995 -1.1992,2.9697 -0.58679,0.8704 -1.38004,1.5806 -2.37896,2.1316 -0.99891,0.551 -2.24003,0.8714 -3.7251,0.9601 l -0.53914,0.032 -3.67166,0.2191 z m 14.22308,-0.849 11.16227,-0.6663 0.24549,4.1122 -7.05007,0.4208 0.17538,2.9379 5.18927,-0.3098 0.24546,4.1123 -5.18925,0.3097 0.17537,2.9378 7.05007,-0.4209 0.24546,4.1123 -11.16226,0.6663 z m 19.6326,-1.172 0.0249,-0.01 c 1.11268,-0.017 2.02106,0.1246 2.72698,0.4258 0.72123,0.2846 1.29929,0.6357 1.7336,1.052 0.4506,0.4153 0.7958,0.8367 1.03427,1.2646 0.23845,0.428 0.4458,0.7598 0.62361,0.9948 l -3.24548,2.4289 c -0.0923,-0.1747 -0.20192,-0.3731 -0.32979,-0.5948 -0.11157,-0.2226 -0.27103,-0.426 -0.47856,-0.6101 -0.1912,-0.1852 -0.42912,-0.3344 -0.71435,-0.4484 -0.28621,-0.1301 -0.64154,-0.1828 -1.06589,-0.1572 -0.81598,0.049 -1.45198,0.3655 -1.90845,0.9494 -0.44112,0.5669 -0.63577,1.299 -0.58218,2.1965 l 0.21193,3.55 c 0.0263,0.4407 0.12447,0.8514 0.29472,1.2343 0.16929,0.3665 0.38496,0.6819 0.64631,0.9446 0.27671,0.2455 0.59097,0.4397 0.94343,0.5824 0.35245,0.1429 0.73359,0.2017 1.14159,0.1774 0.57212,-0.017 1.02276,-0.1425 1.3528,-0.375 0.34638,-0.2337 0.59983,-0.5193 0.75986,-0.8564 l -0.0541,-0.9054 -1.93381,0.1154 -0.21045,-3.5258 5.8744,-0.3506 0.37996,6.365 c -0.28378,0.4591 -0.63297,0.9139 -1.04826,1.3645 -0.39997,0.4333 -0.86025,0.821 -1.38029,1.1632 -0.50373,0.3412 -1.06776,0.6294 -1.69253,0.8632 -0.62577,0.2175 -1.28902,0.3468 -1.99075,0.3887 l -0.0249,0.01 c -1.09341,0.065 -2.06763,-0.057 -2.92138,-0.3667 -0.85374,-0.3092 -1.58537,-0.765 -2.19456,-1.3674 -0.59286,-0.6034 -1.07047,-1.3357 -1.43315,-2.1984 -0.36268,-0.8627 -0.59105,-1.8159 -0.68602,-2.8584 l -0.225,-3.769 c -0.0585,-0.9793 0.0327,-1.9195 0.27383,-2.8181 0.24115,-0.8989 0.6278,-1.6908 1.16001,-2.3776 0.53125,-0.7032 1.20948,-1.2767 2.03472,-1.7191 0.82524,-0.4422 1.7931,-0.6956 2.90284,-0.7619 z m 8.61632,-0.5144 5.53248,-0.3302 0.0249,-0.01 c 1.04445,-0.062 1.91892,0.049 2.62378,0.3348 0.72025,0.2682 1.30071,0.6594 1.74085,1.1736 0.45549,0.497 0.79406,1.0981 1.01644,1.8055 0.22141,0.6911 0.3552,1.4289 0.40197,2.2123 0.0487,0.8159 -0.0467,1.5502 -0.28613,2.2032 -0.22314,0.6521 -0.50857,1.2101 -0.85764,1.6732 -0.33369,0.4457 -0.68124,0.7932 -1.04295,1.0442 -0.3627,0.2345 -0.64991,0.3587 -0.86207,0.3715 l 4.13,7.0496 -4.72436,0.282 -2.80229,-5.7782 h -0.0489 l 0.35366,5.9244 -4.11223,0.2455 z m 17.40426,-1.0389 5.48381,-0.3273 6.42371,17.8938 -4.67571,0.2791 -1.92571,-4.7009 -3.55,0.2119 -1.32975,4.8952 -4.67572,0.2792 z m 11.84871,-0.7073 3.67167,-0.2192 c 1.4198,-0.085 2.68295,0.077 3.78834,0.4855 1.10438,0.3927 2.03917,0.9757 2.80596,1.7488 0.7658,0.7567 1.36233,1.6868 1.78858,2.7915 0.42529,1.0882 0.67573,2.2772 0.75269,3.5665 0.0731,1.2239 0.004,2.3998 -0.20719,3.5262 -0.21219,1.1099 -0.61114,2.0993 -1.19791,2.9697 -0.58679,0.8702 -1.38005,1.5805 -2.37897,2.1315 -0.9989,0.551 -2.24002,0.8715 -3.72511,0.9601 l -0.53912,0.032 -3.67168,0.2192 z m 17.37991,-1.0374 5.48382,-0.3274 6.42373,17.8937 -4.67572,0.2792 -1.92699,-4.7008 -3.54873,0.2118 -1.32974,4.8952 -4.67571,0.2792 z m 8.71494,-0.5203 12.38661,-0.7395 0.24547,4.1123 -4.13654,0.2469 0.8417,14.1001 -4.11351,0.2457 -0.8417,-14.1002 -4.13655,0.2469 z m 13.70825,-0.8184 4.11349,-0.2455 1.08719,18.2124 -4.1135,0.2455 z m 12.65682,-0.7555 0.0249,-0.01 c 0.96287,-0.057 1.87883,0.075 2.74987,0.4 0.88735,0.3238 1.68683,0.8172 2.39782,1.4789 0.62453,0.5851 1.10682,1.2608 1.44734,2.0265 0.34052,0.7659 0.5448,1.5639 0.6108,2.3951 l 0.25427,4.2596 c 0.0526,0.8813 -0.0326,1.7863 -0.25546,2.7168 -0.20754,0.9132 -0.61791,1.7332 -1.22979,2.4575 -0.62624,0.7581 -1.36096,1.3497 -2.20349,1.7767 -0.82623,0.426 -1.7198,0.6681 -2.68266,0.7256 l -0.0249,0.01 c -0.94654,0.056 -1.86387,-0.078 -2.75122,-0.4012 -0.87103,-0.3248 -1.67044,-0.8167 -2.39777,-1.4776 -0.67737,-0.6475 -1.18006,-1.3955 -1.50913,-2.2438 -0.31275,-0.8494 -0.50657,-1.7633 -0.58134,-2.7415 l -0.25428,-4.2594 c -0.0468,-0.7835 0.0608,-1.5841 0.32319,-2.4022 0.26136,-0.8344 0.65888,-1.5786 1.19305,-2.2329 0.64355,-0.7427 1.37867,-1.3276 2.20488,-1.7537 0.82623,-0.426 1.72115,-0.6669 2.68401,-0.7244 z m 8.10149,-0.4836 4.18651,-0.25 5.40495,8.6432 -0.53331,-8.934 4.35683,-0.2601 1.08718,18.2124 -4.16089,0.2485 -5.43082,-8.6674 0.53485,8.9596 -4.35811,0.2602 z"
       id="rect1565"
       inkscape:connector-curvature="0"
       inkscape:label="degradation" />
    <rect
       style="display:none;fill:none;fill-opacity:1;fill-rule:nonzero;stroke:#d3dddd;stroke-width:0.40489224;stroke-linecap:round;stroke-linejoin:round;stroke-miterlimit:4;stroke-dasharray:none;stroke-opacity:1;paint-order:normal"
       id="rect873"
       width="249.04393"
       height="165.89432"
       x="19.100082"
       y="1451.8723"
       inkscape:label="safety"
       sodipodi:insensitive="true" />
  </g>
</svg>
