<?xml version="1.0" encoding="UTF-8" standalone="no"?>
<!-- Created with Inkscape (http://www.inkscape.org/) -->

<svg
   width="70.114586mm"
   height="70.114586mm"
   viewBox="0 0 70.114586 70.114588"
   version="1.1"
   id="svg489"
   xml:space="preserve"
   sodipodi:docname="ISO 7010 M000.svg"
   inkscape:version="1.2.2 (b0a8486541, 2022-12-01)"
   xmlns:inkscape="http://www.inkscape.org/namespaces/inkscape"
   xmlns:sodipodi="http://sodipodi.sourceforge.net/DTD/sodipodi-0.dtd"
   xmlns="http://www.w3.org/2000/svg"
   xmlns:svg="http://www.w3.org/2000/svg"><sodipodi:namedview
     id="namedview11"
     pagecolor="#ffffff"
     bordercolor="#666666"
     borderopacity="1.0"
     inkscape:showpageshadow="2"
     inkscape:pageopacity="0.0"
     inkscape:pagecheckerboard="0"
     inkscape:deskcolor="#d1d1d1"
     inkscape:document-units="mm"
     showgrid="false"
     inkscape:zoom="0.96955409"
     inkscape:cx="11.345422"
     inkscape:cy="121.70543"
     inkscape:window-width="1261"
     inkscape:window-height="1380"
     inkscape:window-x="1285"
     inkscape:window-y="30"
     inkscape:window-maximized="1"
     inkscape:current-layer="svg489" /><defs
     id="defs486" /><g
     id="layer2"
     style="display:inline"
     transform="matrix(1.0886942,0,0,1.0886942,-296.94169,-213.86429)" /><g
     id="layer1"
     transform="matrix(1.0886942,0,0,1.0886942,-296.94169,-213.86429)"><path
       d="m 272.75032,228.64208 c 0,-17.78456 14.41619,-32.20098 32.20123,-32.20098 17.78504,0 32.20123,14.41666 32.20123,32.20123 0,17.78576 -14.41643,32.20123 -32.20123,32.20123 -17.7848,0 -32.20123,-14.41547 -32.20123,-32.20148"
       fill="#24578e"
       id="path300-9-2"
       style="stroke-width:0.264583" /><g
       id="g16864"
       transform="matrix(0.6833459,0,0,0.6833459,336.82432,244.98183)"><path
         style="fill:#ffffff;stroke:#ffffff;stroke-width:2.72925;stroke-linecap:butt;stroke-linejoin:miter;stroke-dasharray:none;stroke-opacity:1"
         d="m -70.039092,-28.219325 c 0,0 -6.824376,-17.907095 -5.260166,-21.562935 1.164508,-2.72167 7.406505,1.59351 8.788585,2.53758 2.299854,1.57098 8.317822,5.17423 8.317822,5.17423 -5.578843,2.06227 -10.634793,8.436874 -11.846241,13.851125 z"
         id="path3674-1-9-5-4" /><path
         id="path3672-6-1-5-4-0"
         style="fill:none;stroke:#ffffff;stroke-width:2.72925;stroke-linecap:butt;stroke-linejoin:miter;stroke-dasharray:none;stroke-opacity:1"
         d="m -65.52433,3.562223 c -3.419899,-6.302003 -8.861664,-14.456605 -4.514762,-31.781548 2.973815,-11.852355 14.839671,-16.245405 23.396878,-16.245425 8.557207,-2e-5 20.423063,4.39307 23.396878,16.245425 4.346902,17.324943 -1.094863,25.479545 -4.514762,31.781548" /><path
         style="fill:#ffffff;stroke:#ffffff;stroke-width:2.72925;stroke-linecap:butt;stroke-linejoin:miter;stroke-dasharray:none;stroke-opacity:1"
         d="m -23.245336,-28.219325 c 0,0 6.824376,-17.907095 5.260166,-21.562935 -1.164508,-2.72167 -7.406505,1.59351 -8.788585,2.53758 -2.299854,1.57098 -8.317822,5.17423 -8.317822,5.17423 5.578843,2.06227 10.634793,8.436874 11.846241,13.851125 z"
         id="path3674-1-9-5-4-6" /></g></g></svg>
