<?xml version="1.0" encoding="UTF-8" standalone="no"?>
<!-- Created with Inkscape (http://www.inkscape.org/) -->

<svg
   xmlns:dc="http://purl.org/dc/elements/1.1/"
   xmlns:cc="http://creativecommons.org/ns#"
   xmlns:rdf="http://www.w3.org/1999/02/22-rdf-syntax-ns#"
   xmlns:svg="http://www.w3.org/2000/svg"
   xmlns="http://www.w3.org/2000/svg"
   xmlns:sodipodi="http://sodipodi.sourceforge.net/DTD/sodipodi-0.dtd"
   xmlns:inkscape="http://www.inkscape.org/namespaces/inkscape"
   width="1.73in"
   height="2in"
   viewBox="0 0 166.08 192"
   id="svg2"
   version="1.1"
   inkscape:version="0.92.3 (2405546, 2018-03-11)"
   sodipodi:docname="debian_women-source.svg">
  <defs
     id="defs4" />
  <sodipodi:namedview
     id="base"
     pagecolor="#ffffff"
     bordercolor="#666666"
     borderopacity="1.0"
     inkscape:pageopacity="0.0"
     inkscape:pageshadow="2"
     inkscape:zoom="1.5861561"
     inkscape:cx="15.625222"
     inkscape:cy="59.30344"
     inkscape:document-units="px"
     inkscape:current-layer="layer3"
     showgrid="true"
     showborder="true"
     units="in"
     inkscape:window-width="1920"
     inkscape:window-height="1136"
     inkscape:window-x="0"
     inkscape:window-y="27"
     inkscape:window-maximized="1">
    <inkscape:grid
       type="axonomgrid"
       id="grid4136"
       units="in"
       empspacing="5"
       spacingy="9.5999999" />
  </sodipodi:namedview>
  <metadata
     id="metadata7">
    <rdf:RDF>
      <cc:Work
         rdf:about="">
        <dc:format>image/svg+xml</dc:format>
        <dc:type
           rdf:resource="http://purl.org/dc/dcmitype/StillImage" />
        <dc:title></dc:title>
        <cc:license
           rdf:resource="http://creativecommons.org/licenses/by-sa/4.0/" />
        <dc:description>Debian Woman logo from https://wiki.debian.org/DebianWomen?action=AttachFile&amp;do=view&amp;target=Debian_Women.svg and https://wiki.debian.org/DebianWomen?action=AttachFile&amp;do=get&amp;target=Debian_Women_text_black_background.svg</dc:description>
      </cc:Work>
      <cc:License
         rdf:about="http://creativecommons.org/licenses/by-sa/4.0/">
        <cc:permits
           rdf:resource="http://creativecommons.org/ns#Reproduction" />
        <cc:permits
           rdf:resource="http://creativecommons.org/ns#Distribution" />
        <cc:requires
           rdf:resource="http://creativecommons.org/ns#Notice" />
        <cc:requires
           rdf:resource="http://creativecommons.org/ns#Attribution" />
        <cc:permits
           rdf:resource="http://creativecommons.org/ns#DerivativeWorks" />
        <cc:requires
           rdf:resource="http://creativecommons.org/ns#ShareAlike" />
      </cc:License>
    </rdf:RDF>
  </metadata>
  <g
     inkscape:groupmode="layer"
     id="layer2"
     inkscape:label="bleed"
     style="display:inline">
    <path
       sodipodi:type="star"
       style="fill:#000000;fill-opacity:1;stroke:none;stroke-width:1;stroke-miterlimit:4;stroke-dasharray:none;stroke-dashoffset:0;stroke-opacity:1"
       id="path4229"
       sodipodi:sides="6"
       sodipodi:cx="77.942284"
       sodipodi:cy="90"
       sodipodi:r1="99"
       sodipodi:r2="85.736511"
       sodipodi:arg1="-1.5707963"
       sodipodi:arg2="-1.0471976"
       inkscape:flatsided="true"
       inkscape:rounded="0"
       inkscape:randomized="0"
       d="M 77.942286,-9 163.6788,40.500002 163.6788,139.5 77.942281,189 -7.7942327,139.5 -7.79423,40.499998 Z"
       transform="matrix(1.0636364,0,0,1.0626262,0.49599685,0.5636362)" />
  </g>
  <g
     inkscape:groupmode="layer"
     id="layer3"
     inkscape:label="artwork"
     style="display:inline;opacity:0.98999999">
    <path
       sodipodi:type="star"
       style="fill:#000808;fill-opacity:1;stroke:none;stroke-width:1.06666672;stroke-miterlimit:4;stroke-dasharray:none;stroke-dashoffset:0;stroke-opacity:1"
       id="path4232"
       sodipodi:sides="6"
       sodipodi:cx="83.138435"
       sodipodi:cy="96"
       sodipodi:r1="96"
       sodipodi:r2="83.138435"
       sodipodi:arg1="-1.5707963"
       sodipodi:arg2="-1.0471976"
       inkscape:flatsided="true"
       inkscape:rounded="0"
       inkscape:randomized="0"
       d="M 83.138438,0 166.27688,48.000002 166.27687,144 83.138433,192 -4.6856916e-6,144 l 2.57231e-6,-96.000002 z" />
    <path
       sodipodi:type="star"
       style="fill:#000011;fill-opacity:1;stroke:none;stroke-width:1.06666672;stroke-miterlimit:4;stroke-dasharray:none;stroke-dashoffset:0;stroke-opacity:1"
       id="path4234"
       sodipodi:sides="6"
       sodipodi:cx="83.138435"
       sodipodi:cy="96"
       sodipodi:r1="76.800003"
       sodipodi:r2="66.51075"
       sodipodi:arg1="-1.5707963"
       sodipodi:arg2="-1.0471976"
       inkscape:flatsided="true"
       inkscape:rounded="0"
       inkscape:randomized="0"
       d="M 83.138437,19.199997 149.64919,57.6 l 0,76.8 -66.510757,38.4 -66.510752,-38.4 2e-6,-76.800003 z" />
    <g
       id="g1979"
       transform="matrix(114.89958,0,0,114.89958,24.461585,38.519391)">
      <path
         inkscape:connector-curvature="0"
         d="m 0.52322562,0.34578664 -5.9028e-4,1.736e-5 -5.3819e-4,1.736e-5 -4.8611e-4,1.736e-5 -4.6874e-4,3.472e-5 -4.1667e-4,5.209e-5 -3.8194e-4,5.208e-5 -3.2986e-4,6.944e-5 -3.1249e-4,6.945e-5 -2.7778e-4,8.68e-5 -2.2569e-4,8.681e-5 -1.9098e-4,8.68e-5 -1.736e-4,1.0417e-4 -1.2153e-4,1.2152e-4 -1.0417e-4,1.0417e-4 -5.208e-5,1.3889e-4 -3.472e-5,1.2153e-4 v 1.3888e-4 l 3.472e-5,1.3889e-4 5.208e-5,1.3889e-4 8.681e-5,1.5625e-4 1.2152e-4,1.5625e-4 1.5625e-4,1.5625e-4 1.7361e-4,1.7361e-4 1.9097e-4,1.5625e-4 2.257e-4,1.736e-4 2.6041e-4,1.7362e-4 2.7778e-4,1.7361e-4 2.9514e-4,1.9097e-4 3.2985e-4,1.7361e-4 3.4722e-4,1.9097e-4 3.8195e-4,1.7361e-4 3.8194e-4,1.9097e-4 4.1666e-4,1.9097e-4 4.3403e-4,1.9097e-4 4.5138e-4,1.7361e-4 4.8611e-4,1.9097e-4 4.8611e-4,1.9097e-4 5.0347e-4,1.9097e-4 5.3819e-4,1.7361e-4 5.3819e-4,1.9097e-4 5.5555e-4,1.7361e-4 5.7291e-4,1.9097e-4 0.001198,3.4722e-4 0.00125,3.4723e-4 0.001285,3.2985e-4 0.001337,2.9514e-4 0.001372,2.9514e-4 0.001406,2.7777e-4 0.001441,2.4306e-4 0.001458,2.2569e-4 0.001476,1.9097e-4 0.001493,1.7361e-4 0.001493,1.2153e-4 c 0.004323,-0.00342 0.008281,-0.006858 0.0118055,-0.0107291 -0.01,0.002153 -0.020104,0.003212 -0.0306082,0.002187 z"
         style="font-style:normal;font-variant:normal;font-weight:normal;font-stretch:normal;letter-spacing:normal;word-spacing:normal;text-anchor:start;fill:#db0069;fill-opacity:1;fill-rule:nonzero;stroke:#db0069;stroke-width:0;stroke-linecap:butt;stroke-linejoin:miter;stroke-miterlimit:10.43299961;stroke-dasharray:none;stroke-dashoffset:0;stroke-opacity:1"
         id="path12" />
      <path
         inkscape:connector-curvature="0"
         d="m 0.59048213,0.33135965 0.00151,-0.001719 0.001476,-0.001753 0.001389,-0.001788 0.001354,-0.001823 0.001302,-0.00184 0.001233,-0.001858 0.001181,-0.001875 0.001128,-0.00191 0.001076,-0.001927 0.001024,-0.001927 9.7222e-4,-0.001962 9.0277e-4,-0.001962 8.6805e-4,-0.001979 8.1597e-4,-0.001979 7.8124e-4,-0.001979 7.118e-4,-0.001997 c -0.003246,0.007274 -0.007552,0.0142707 -0.0128645,0.0206596 -0.0242186,0.0119096 -0.002083,-0.009167 0.001319,-0.017361 -0.0278818,0.0279686 -0.00474,0.0182985 -0.006181,0.026979 z"
         style="font-style:normal;font-variant:normal;font-weight:normal;font-stretch:normal;letter-spacing:normal;word-spacing:normal;text-anchor:start;fill:#db0069;fill-opacity:1;fill-rule:nonzero;stroke:#db0069;stroke-width:0;stroke-linecap:butt;stroke-linejoin:miter;stroke-miterlimit:10.43299961;stroke-dasharray:none;stroke-dashoffset:0;stroke-opacity:1"
         id="path14" />
      <path
         inkscape:connector-curvature="0"
         d="m 0.6245965,0.27373849 1.7361e-4,-4.6875e-4 1.5625e-4,-4.6875e-4 1.5625e-4,-4.5138e-4 1.5624e-4,-4.5139e-4 1.3889e-4,-4.3402e-4 1.3889e-4,-4.1667e-4 1.3889e-4,-4.1666e-4 1.2152e-4,-4.1667e-4 1.2153e-4,-3.993e-4 1.2153e-4,-3.8194e-4 1.0416e-4,-3.993e-4 1.2153e-4,-3.6458e-4 8.681e-5,-3.6459e-4 1.0416e-4,-3.6458e-4 8.681e-5,-3.4722e-4 8.68e-5,-3.4722e-4 8.681e-5,-3.2986e-4 8.68e-5,-3.2986e-4 6.945e-5,-3.1249e-4 6.944e-5,-3.125e-4 5.208e-5,-3.125e-4 6.945e-5,-2.9514e-4 5.208e-5,-2.7777e-4 5.208e-5,-2.7778e-4 5.209e-5,-2.7777e-4 3.472e-5,-2.6042e-4 3.472e-5,-2.6041e-4 3.472e-5,-2.6042e-4 3.473e-5,-2.4305e-4 1.736e-5,-2.257e-4 1.736e-5,-2.2569e-4 1.736e-5,-2.2569e-4 1.736e-5,-2.2569e-4 1.736e-5,-1.9098e-4 v -2.0833e-4 -1.9097e-4 -1.9097e-4 -1.7361e-4 -1.7361e-4 l -1.736e-5,-1.7361e-4 -1.736e-5,-1.5625e-4 -1.736e-5,-1.5625e-4 -1.736e-5,-1.3889e-4 -3.473e-5,-1.3888e-4 -5.208e-5,-2.7778e-4 -6.944e-5,-2.2569e-4 -8.681e-5,-2.0834e-4 -8.68e-5,-1.9097e-4 -1.0417e-4,-1.7361e-4 -1.2153e-4,-1.3888e-4 -1.2152e-4,-1.2153e-4 -1.3889e-4,-1.0417e-4 -1.3889e-4,-6.944e-5 -1.5625e-4,-5.208e-5 -1.5625e-4,-3.473e-5 -1.5625e-4,-1.736e-5 h -1.7361e-4 l -1.7361e-4,1.736e-5 -1.9097e-4,5.209e-5 -1.9097e-4,5.208e-5 -1.9097e-4,8.681e-5 -2.0833e-4,8.68e-5 -1.9097e-4,1.0417e-4 -2.0833e-4,1.3888e-4 -2.0834e-4,1.3889e-4 -2.0833e-4,1.5625e-4 -2.2569e-4,1.7361e-4 -2.0833e-4,1.9097e-4 -2.0834e-4,1.9097e-4 -2.2569e-4,2.0833e-4 -2.0833e-4,2.257e-4 -2.2569e-4,2.4305e-4 -2.0834e-4,2.6042e-4 -2.2569e-4,2.6041e-4 -2.0833e-4,2.6042e-4 -2.0833e-4,2.7777e-4 -2.0833e-4,2.9514e-4 -2.0834e-4,3.125e-4 -1.9097e-4,2.9513e-4 -2.0833e-4,3.2986e-4 -1.9097e-4,3.2986e-4 -1.7361e-4,3.2986e-4 -1.9097e-4,3.2986e-4 -1.7361e-4,3.4722e-4 -1.7361e-4,3.6458e-4 -1.5625e-4,3.4722e-4 c 0.002014,0.00191 -2.6041e-4,0.0158853 0.004635,0.008246 z"
         style="font-style:normal;font-variant:normal;font-weight:normal;font-stretch:normal;letter-spacing:normal;word-spacing:normal;text-anchor:start;fill:#db0069;fill-opacity:1;fill-rule:nonzero;stroke:#db0069;stroke-width:0;stroke-linecap:butt;stroke-linejoin:miter;stroke-miterlimit:10.43299961;stroke-dasharray:none;stroke-dashoffset:0;stroke-opacity:1"
         id="path16" />
      <path
         inkscape:connector-curvature="0"
         d="m 0.67973503,-0.04627683 8.8541e-4,9.0278e-4 9.0278e-4,9.2013e-4 8.6805e-4,9.2013e-4 8.6805e-4,9.2014e-4 4.1666e-4,4.5138e-4 4.1666e-4,4.5139e-4 3.9931e-4,4.3402e-4 3.8194e-4,4.3403e-4 3.8194e-4,4.3402e-4 3.4722e-4,4.1667e-4 3.4722e-4,4.1666e-4 3.2986e-4,3.993e-4 2.9514e-4,3.8194e-4 2.9513e-4,3.8195e-4 2.6042e-4,3.6458e-4 2.2569e-4,3.2986e-4 2.0833e-4,3.2986e-4 1.9097e-4,3.1249e-4 1.5625e-4,2.9514e-4 1.2153e-4,2.7778e-4 1.0417e-4,2.4305e-4 6.944e-5,2.2569e-4 1.736e-5,1.2153e-4 v 8.681e-5 1.0416e-4 8.681e-5 l -1.736e-5,8.68e-5 -3.472e-5,6.945e-5 -3.472e-5,6.944e-5 -3.472e-5,5.208e-5 -5.209e-5,6.945e-5 -6.944e-5,3.472e-5 -8.681e-5,5.208e-5 -8.68e-5,3.472e-5 c 0.006371,0.0037673 0.009271,0.0028819 -0.008073,-0.01111104 z"
         style="font-style:normal;font-variant:normal;font-weight:normal;font-stretch:normal;letter-spacing:normal;word-spacing:normal;text-anchor:start;fill:#db0069;fill-opacity:1;fill-rule:nonzero;stroke:#db0069;stroke-width:0;stroke-linecap:butt;stroke-linejoin:miter;stroke-miterlimit:10.43299961;stroke-dasharray:none;stroke-dashoffset:0;stroke-opacity:1"
         id="path18" />
      <polygon
         transform="matrix(0.0017361,0,0,-0.0017361,-0.03125,1.1875)"
         points="413.83,704.12 414.18,704.26 411.75,705.57 "
         style="font-style:normal;font-variant:normal;font-weight:normal;font-stretch:normal;letter-spacing:normal;word-spacing:normal;text-anchor:start;fill:#db0069;fill-opacity:1;fill-rule:nonzero;stroke:#db0069;stroke-width:0;stroke-linecap:butt;stroke-linejoin:miter;stroke-miterlimit:10.43299961;stroke-dasharray:none;stroke-dashoffset:0;stroke-opacity:1"
         id="polygon20" />
      <path
         inkscape:connector-curvature="0"
         d="m 0.65751295,0.34076931 -8.5069e-4,0.001597 -8.3332e-4,0.001528 -8.5069e-4,0.001458 -8.6805e-4,0.001389 -8.6805e-4,0.001337 -8.6805e-4,0.001285 -8.8541e-4,0.001233 -9.0278e-4,0.001181 -8.8541e-4,0.001128 -9.2013e-4,0.001094 -9.2013e-4,0.001042 -9.375e-4,0.001024 -0.001892,0.001944 -0.001927,0.001823 -0.001997,0.001753 -0.002031,0.001719 -0.002101,0.001684 -0.002135,0.001684 -0.002205,0.001719 -0.002257,0.001771 -0.002344,0.001875 -0.001181,9.5485e-4 -0.001198,0.001007 c -0.003958,-2.6041e-4 -0.007656,-3.4722e-4 -0.011684,-0.001562 -0.0147742,0.009271 -0.003837,0.009549 -0.0149825,0.0178124 -0.0167534,0.002431 -0.0528469,0.008698 -0.0622739,0.006701 -0.005677,-0.003663 0.007691,-0.004479 0.0104687,-0.006389 -0.0226388,0.001389 -0.0223783,0.009705 -0.0484545,0.002049 l 2.6041e-4,-0.002049 C 0.43140329,0.38505722 0.3815425,0.27505792 0.42303529,0.20761044 c -0.003212,0.004045 -0.003837,0.00217 -0.006285,0.003125 0.0189582,-0.0360414 0.0631767,-0.0654163 0.10616252,-0.0653121 0.0436976,-9.8958e-4 0.0840099,0.024045 0.10142296,0.0585066 -0.007031,-0.0243401 -0.0281769,-0.0557462 -0.0626385,-0.0692183 -0.0334373,-0.0145659 -0.0737842,-0.008125 -0.0946175,0.008958 -0.0205033,0.003368 -0.0407115,0.0280033 -0.0501559,0.0296873 -0.0507809,0.0601211 -0.036215,0.10572849 -0.0131944,0.16768989 0.003385,0.009566 -0.002014,0.00684 -0.00375,0.0111458 -0.0103124,-0.0167013 -0.0178471,-0.0354685 -0.0215103,-0.0551906 2.2569e-4,0.0122742 0.002882,0.0244964 0.006024,0.0364755 -0.00967,-0.0139583 -0.0136284,-0.0538017 -0.0182638,-0.0585066 0.0025,0.0557635 0.0495483,0.13913105 0.10065908,0.14727336 -0.0187325,-0.0101041 -0.0406595,-0.0263193 -0.0554163,-0.0470483 -0.005573,-0.009861 -0.011111,-0.0261457 -0.007674,-0.0265797 0.0410761,0.0549823 0.0946522,0.0836106 0.16513783,0.0737148 0.0173436,-0.001198 0.0387498,-0.009288 0.0430379,-0.006128 -0.0105902,0.004288 -0.001285,0.00467 -0.01,0.008941 0.0231075,-0.010052 -0.001302,-0.0120138 0.0304859,-0.0247915 l 0.001858,0.0127603 c 0.006042,-0.01717 0.0394095,-0.0224651 0.050833,-0.0488018 0.009444,-0.004531 0.001944,0.0122395 -0.0137152,0.0259373 0.0191318,-0.0141492 0.0138541,-0.0219096 0.0258852,-0.0355206 l -0.003056,0.0203124 c 0.005677,-0.0213888 0.0227603,-0.0282116 0.0325345,-0.0367706 -0.001771,-0.002517 -0.0133506,0.003073 -0.001493,-0.0192533 0.006076,-0.009167 0.006007,-0.003073 0.008507,-0.00474 -0.001424,-0.002274 -0.002361,-0.0127082 0.003281,-0.0282811 0.004444,-0.001701 9.3749e-4,0.0122048 0.003872,0.0146527 0.004705,-0.0120659 0.007517,-0.0221006 0.0126388,-0.0303991 0.003576,-0.0227256 -0.005295,0 -0.005122,-0.0142534 0.009826,-0.0332116 0.0127256,-6.0764e-4 0.0227255,-0.0117187 2.4306e-4,0.028038 -0.011111,0.0624649 -0.0148436,0.077378 0.006111,-0.0170485 0.0117881,-0.0341317 0.0153298,-0.0516316 0.003663,0.004583 0.0157291,-0.0338366 0.012986,-0.004861 0.017361,-0.0522913 0.0167707,-0.12098881 -0.002778,-0.1733843 5.7291e-4,0.0079861 0.002083,0.01779502 -8.3333e-4,0.01678808 -0.00875,-0.026354 -0.004844,-0.02418387 -0.003472,-0.0309373 C 0.76777266,0.05905236 0.7610366,0.06485094 0.75129707,0.05632668 0.73608884,0.01844498 0.72950902,0.01599708 0.71214802,-0.01532216 l -0.003628,0.00654509 c -0.0135589,-0.02126722 -0.0230901,-0.01605892 -0.0414581,-0.03458311 -2.7777e-4,-0.002118 0.008906,0.0023611 0.0165277,0.0059201 -0.0203818,-0.01185756 -0.0136631,-0.01840266 -0.0352949,-0.02793385 l 0.0201908,0.0029687 c -0.0160246,-0.01038184 -0.0419446,-0.02079844 -0.030278,-0.02218732 -0.0326734,-0.0090104 -0.0888883,-0.0284026 -0.13137069,-0.02210056 l 0.002743,-0.006111 c -0.021545,0.005295 -0.0805724,0.0101041 -0.0937841,0.02637136 l -0.003802,-0.0013715 c -0.0116319,0.0084201 -0.0235068,0.01548601 -0.0338192,0.02505192 -0.0164582,0.0083507 -0.0158332,-0.0026389 -0.0157985,2.9514e-4 -0.0347914,0.02293388 -0.0573087,0.04644068 -0.0769613,0.06479125 0.001319,0.01010411 -0.0223957,0.04555527 -0.0344269,0.0770134 -0.0770481,0.14753378 0.0108506,0.36003242 0.15881843,0.39602177 0.0201561,0.007656 0.0519962,0.007274 0.0765967,0.005035 -0.0296526,-0.005608 -0.0341665,-0.002847 -0.0637496,-0.0123089 C 0.4014382,0.457713 0.39734101,0.44606377 0.38362582,0.43217497 l 0.005035,0.0108854 c -0.0292186,-0.0110242 -0.0162325,-0.0132291 -0.0394963,-0.0223957 l 0.007847,-0.008177 c -0.010677,1.736e-5 -0.0220658,-0.0188367 -0.0256248,-0.0265103 l -0.010677,-8.8541e-4 c -0.009115,-0.0170138 -0.0131423,-0.0287672 -0.0100694,-0.037031 l -0.005174,0.005191 c -0.002726,-0.006424 -0.0298609,-0.065017 -0.010868,-0.0485066 -0.003056,-0.004462 -0.007986,-0.008003 -0.0107291,-0.0194617 l 0.006319,-0.003594 c -0.006406,-0.0153818 -0.0100867,-0.0344442 -0.007431,-0.0396178 0.003403,0.008715 0.007031,0.0111284 0.0106423,0.0134201 -0.007448,-0.0679857 -0.0283852,-0.011302 -0.0282811,-0.0756072 l 0.004531,0.001146 c -0.001215,-0.005503 -0.002465,-0.0111284 -0.002986,-0.0167534 l 0.008628,-0.0157464 c -0.0121874,-0.0277429 0.0298609,-0.08503417 0.0502601,-0.11701314 0.009167,-0.01272561 0.0295658,-0.02062486 0.0519441,-0.03746503 l -0.005625,-0.00475692 c 0.0211978,-0.01187492 0.10609307,-0.03829836 0.12491239,-0.01795127 0.0184027,-0.007309 -0.001997,-0.0013542 -0.002118,-0.0069618 0.0381248,-0.00875 0.0409546,0.0048264 0.0585066,0.01265617 0.0233853,0.0022396 -0.0165971,-0.0069965 -0.003351,-0.009184 0.0331942,0.01484365 0.0324998,-0.001441 0.0719093,0.02524289 0.001806,0.00588538 -0.0117013,-0.00404511 -0.0171874,-0.0037847 0.0328991,0.00744787 0.0804335,0.05289897 0.10105838,0.0954855 0.0227255,0.04565943 0.0154339,0.13673524 -0.0155207,0.19423487 l 0.001962,0.002066 c -0.0159721,0.0217013 -0.0246179,0.0492879 -0.0465448,0.067378 0.004392,-0.001806 0.008038,-0.004913 0.0120138,-0.007708 z"
         style="font-style:normal;font-variant:normal;font-weight:normal;font-stretch:normal;letter-spacing:normal;word-spacing:normal;text-anchor:start;fill:#db0069;fill-opacity:1;fill-rule:nonzero;stroke:#db0069;stroke-width:0;stroke-linecap:butt;stroke-linejoin:miter;stroke-miterlimit:10.43299961;stroke-dasharray:none;stroke-dashoffset:0;stroke-opacity:1"
         id="path22" />
      <path
         inkscape:connector-curvature="0"
         d="m 0.35893847,0.25639485 -8.6805e-4,7.4652e-4 -8.6804e-4,7.8125e-4 -8.6805e-4,7.8124e-4 -8.5069e-4,7.8125e-4 -8.3333e-4,7.8124e-4 -4.1667e-4,3.993e-4 -3.993e-4,3.9931e-4 -3.8194e-4,4.1666e-4 -3.8194e-4,3.993e-4 -3.8195e-4,3.9931e-4 -3.6458e-4,4.1666e-4 c 0.001007,0.0133506 0.002552,0.0263714 0.006146,0.0389407 0.002604,-0.0160242 -0.002066,-0.023663 4.6854e-4,-0.0452427 z"
         style="font-style:normal;font-variant:normal;font-weight:normal;font-stretch:normal;letter-spacing:normal;word-spacing:normal;text-anchor:start;fill:#db0069;fill-opacity:1;fill-rule:nonzero;stroke:#db0069;stroke-width:0;stroke-linecap:butt;stroke-linejoin:miter;stroke-miterlimit:10.43299961;stroke-dasharray:none;stroke-dashoffset:0;stroke-opacity:1"
         id="path24" />
      <path
         inkscape:connector-curvature="0"
         d="m 0.37685503,0.2655441 -1.9097e-4,-0.001146 -1.5625e-4,-0.001146 -1.2153e-4,-0.001146 -8.681e-5,-0.001146 -6.944e-5,-0.001146 -5.208e-5,-0.001146 -1.736e-5,-0.001146 -1.736e-5,-0.001146 v -0.002292 -0.002309 -0.001163 l -1.736e-5,-0.001163 -3.473e-5,-0.001163 -5.208e-5,-0.001181 c -0.001684,0.009844 -0.002153,0.0197395 -0.001615,0.02967 z"
         style="font-style:normal;font-variant:normal;font-weight:normal;font-stretch:normal;letter-spacing:normal;word-spacing:normal;text-anchor:start;fill:#db0069;fill-opacity:1;fill-rule:nonzero;stroke:#db0069;stroke-width:0;stroke-linecap:butt;stroke-linejoin:miter;stroke-miterlimit:10.43299961;stroke-dasharray:none;stroke-dashoffset:0;stroke-opacity:1"
         id="path26" />
      <path
         inkscape:connector-curvature="0"
         d="m 0.69921407,0.3819496 -0.003681,0.002986 c -0.0144443,0.0178645 -0.0314408,0.0343921 -0.0517531,0.0468573 0.0218054,-0.0130034 0.0404685,-0.0302602 0.0554341,-0.0498433 z"
         style="font-style:normal;font-variant:normal;font-weight:normal;font-stretch:normal;letter-spacing:normal;word-spacing:normal;text-anchor:start;fill:#db0069;fill-opacity:1;fill-rule:nonzero;stroke:#db0069;stroke-width:0;stroke-linecap:butt;stroke-linejoin:miter;stroke-miterlimit:10.43299961;stroke-dasharray:none;stroke-dashoffset:0;stroke-opacity:1"
         id="path28" />
      <path
         inkscape:connector-curvature="0"
         d="m 0.68567249,-0.04955805 8.5069e-4,2.2569e-4 8.5069e-4,2.7777e-4 8.3333e-4,3.125e-4 8.3333e-4,3.4722e-4 8.3333e-4,3.9931e-4 8.1596e-4,4.1666e-4 8.1597e-4,4.3402e-4 8.1597e-4,4.8611e-4 7.986e-4,5.0347e-4 7.9861e-4,5.2083e-4 0.001597,0.0011111 0.00158,0.0011632 0.001562,0.0011979 0.001562,0.0012326 0.001545,0.0012326 0.001545,0.0012153 0.001545,0.0011806 0.001545,0.0011285 7.8124e-4,5.3819e-4 7.6389e-4,5.0347e-4 7.8124e-4,5.0347e-4 7.6389e-4,4.6874e-4 7.8124e-4,4.3403e-4 7.8125e-4,3.993e-4 c -0.009531,-0.0069791 -0.0186284,-0.01427074 -0.0288714,-0.01999987 z"
         style="font-style:normal;font-variant:normal;font-weight:normal;font-stretch:normal;letter-spacing:normal;word-spacing:normal;text-anchor:start;fill:#db0069;fill-opacity:1;fill-rule:nonzero;stroke:#db0069;stroke-width:0;stroke-linecap:butt;stroke-linejoin:miter;stroke-miterlimit:10.43299961;stroke-dasharray:none;stroke-dashoffset:0;stroke-opacity:1"
         id="path30" />
      <path
         inkscape:connector-curvature="0"
         d="m 0.35508433,-0.09370708 -3.2986e-4,7.4652e-4 -3.4722e-4,7.2917e-4 -3.6458e-4,6.9444e-4 -3.6458e-4,6.5972e-4 -3.8194e-4,6.4235e-4 -3.8194e-4,6.25e-4 -3.9931e-4,5.9027e-4 -4.1666e-4,5.7291e-4 -3.993e-4,5.382e-4 -4.1667e-4,5.3819e-4 -4.3402e-4,5.0347e-4 -4.1667e-4,4.861e-4 -4.1666e-4,4.5139e-4 -4.3402e-4,4.3403e-4 -4.1667e-4,4.3402e-4 -4.3402e-4,3.993e-4 -4.1667e-4,3.6458e-4 -4.1666e-4,3.6459e-4 -4.1667e-4,3.4721e-4 -3.993e-4,3.2986e-4 -3.993e-4,2.9514e-4 -3.8194e-4,2.9514e-4 -3.8194e-4,2.6041e-4 -3.6459e-4,2.6042e-4 -3.6458e-4,2.4305e-4 -3.4722e-4,2.257e-4 -3.2986e-4,2.0833e-4 -3.1249e-4,1.9097e-4 -3.125e-4,1.7361e-4 -2.7778e-4,1.5625e-4 -2.6041e-4,1.5625e-4 -2.4306e-4,1.3888e-4 -2.2569e-4,1.2153e-4 -2.0833e-4,1.2153e-4 -1.9097e-4,8.68e-5 -1.5625e-4,8.681e-5 -1.2153e-4,8.68e-5 -1.2153e-4,6.945e-5 -6.944e-5,5.208e-5 -5.208e-5,5.208e-5 -3.472e-5,3.473e-5 1.736e-5,3.472e-5 3.472e-5,1.736e-5 h 6.944e-5 l 1.0417e-4,1.736e-5 h 1.3889e-4 l 1.7361e-4,-1.736e-5 2.0833e-4,-1.736e-5 2.6041e-4,-1.736e-5 1.3889e-4,-1.736e-5 1.3889e-4,-1.737e-5 1.5625e-4,-1.736e-5 1.7361e-4,-1.736e-5 1.7361e-4,-1.736e-5 1.9097e-4,-1.736e-5 2.0833e-4,-1.736e-5 2.0833e-4,-1.736e-5 2.257e-4,-1.736e-5 2.2569e-4,-3.472e-5 2.4305e-4,-1.737e-5 2.6042e-4,-1.736e-5 2.6041e-4,-3.472e-5 2.7778e-4,-1.736e-5 2.9514e-4,-3.472e-5 3.1249e-4,-1.736e-5 3.125e-4,-3.473e-5 3.125e-4,-3.472e-5 3.4722e-4,-1.736e-5 3.4722e-4,-3.472e-5 3.6458e-4,-3.472e-5 3.8194e-4,-1.736e-5 3.8194e-4,-3.472e-5 3.9931e-4,-3.473e-5 4.1666e-4,-1.736e-5 4.3403e-4,-3.472e-5 4.3402e-4,-3.472e-5 4.5139e-4,-3.472e-5 4.6874e-4,-1.736e-5 4.8611e-4,-3.473e-5 c 0.0181075,-0.01225686 -5.5555e-4,-0.0067708 0.003125,-0.01303811 z"
         style="font-style:normal;font-variant:normal;font-weight:normal;font-stretch:normal;letter-spacing:normal;word-spacing:normal;text-anchor:start;fill:#db0069;fill-opacity:1;fill-rule:nonzero;stroke:#db0069;stroke-width:0;stroke-linecap:butt;stroke-linejoin:miter;stroke-miterlimit:10.43299961;stroke-dasharray:none;stroke-dashoffset:0;stroke-opacity:1"
         id="path32" />
      <path
         inkscape:connector-curvature="0"
         d="m 0.29845275,-0.03197136 8.1597e-4,-7.9861e-4 7.986e-4,-7.6388e-4 7.8125e-4,-7.6389e-4 7.4652e-4,-7.2916e-4 7.2916e-4,-7.2916e-4 6.9444e-4,-6.9444e-4 6.9444e-4,-6.9444e-4 6.5972e-4,-6.5972e-4 6.5972e-4,-6.5972e-4 6.25e-4,-6.4235e-4 6.0763e-4,-6.25e-4 5.9027e-4,-6.25e-4 5.9028e-4,-6.0763e-4 5.5555e-4,-5.9027e-4 0.001076,-0.0011632 0.001007,-0.0011285 9.7222e-4,-0.0011111 9.2013e-4,-0.0010764 8.8541e-4,-0.0010764 8.5069e-4,-0.0010764 8.1597e-4,-0.001059 7.8124e-4,-0.0010764 7.6389e-4,-0.0010764 c -0.0157291,0.0069444 -0.0128124,0.01133673 -0.0176211,0.01942707 z"
         style="font-style:normal;font-variant:normal;font-weight:normal;font-stretch:normal;letter-spacing:normal;word-spacing:normal;text-anchor:start;fill:#db0069;fill-opacity:1;fill-rule:nonzero;stroke:#db0069;stroke-width:0;stroke-linecap:butt;stroke-linejoin:miter;stroke-miterlimit:10.43299961;stroke-dasharray:none;stroke-dashoffset:0;stroke-opacity:1"
         id="path34" />
      <path
         inkscape:connector-curvature="0"
         d="m 0.50563892,0.41644591 -0.001094,0.0538191 0.001094,0.0757981 -0.0790967,0.003299 c 0,0 -0.0258158,0.00276 -0.0357116,0.004948 -0.009878,0.002205 -0.0192186,0.008785 -0.0192186,0.008785 l 0.0428469,0.001649 -0.009878,0.004948 c 0,0 0.0340449,0.002743 0.0461282,0.006042 0.0120833,0.003299 0.048333,0.008785 0.0527254,0.008785 0.00441,0 -0.002743,0.006042 5.5555e-4,0.00934 0.003299,0.003299 0.005486,0.007691 0.005486,0.007691 l 0.001649,0.0494268 c 0,0 -5.5555e-4,0.0230728 0.001649,0.0285588 0.002205,0.005503 0.009896,0.0274651 0.009896,0.0274651 0,0 0.004392,-0.023611 0.004392,-0.0307463 0,-0.007153 5.3819e-4,-0.0258158 5.3819e-4,-0.0258158 0,0 0.007691,-0.00276 0.007691,-0.008246 0,-0.005486 0,-0.0170311 0,-0.0170311 l -0.004392,0.004392 0.005486,-0.0461282 c 0,0 0.0137499,-0.001111 0.0230901,0.002743 0.009323,0.003854 0.0192186,0.004392 0.0247047,0.004948 0.005503,5.5555e-4 -0.00934,-0.006597 -0.0164756,-0.00934 -0.007135,-0.002743 -0.0142881,-0.0109895 -0.0142881,-0.0109895 0,0 0.0225346,-5.5556e-4 0.0296699,0.002205 0.007135,0.002743 0.0203297,0.008785 0.0335067,0.008785 0.013177,0 0.0296699,-0.004948 0.0384372,0.001649 0.008802,0.006597 0.0148437,0.0126214 0.0148437,0.0126214 0,0 -0.0230554,-0.0285415 -0.0346005,-0.0346005 -0.0115451,-0.006042 -0.097239,-0.0137325 -0.097239,-0.0137325 l -5.3819e-4,-0.026354 0.007691,-0.001649 c 0,0 -0.006597,-0.0164756 -0.007153,-0.0252776 -5.3819e-4,-0.008785 0.004948,-0.0219617 0.004948,-0.0219617 0,0 -0.005486,-0.007153 -0.005486,-0.016493 0,-0.009323 0.001094,-0.039531 0.001094,-0.039531 z"
         style="font-style:normal;font-variant:normal;font-weight:normal;font-stretch:normal;letter-spacing:normal;word-spacing:normal;text-anchor:start;fill:#db0069;fill-opacity:1;fill-rule:nonzero;stroke:#db0069;stroke-width:0;stroke-linecap:butt;stroke-linejoin:miter;stroke-miterlimit:10.43299961;stroke-dasharray:none;stroke-dashoffset:0;stroke-opacity:1"
         id="path36" />
    </g>
    <g
       transform="matrix(148.1905,0,0,148.1905,10.310065,26.532996)"
       id="g3224">
      <g
         id="g3208">
        <path
           inkscape:connector-curvature="0"
           style="font-style:normal;font-variant:normal;font-weight:normal;font-stretch:normal;letter-spacing:normal;word-spacing:normal;text-anchor:start;fill:#ffffff;fill-opacity:1;fill-rule:nonzero;stroke:#000000;stroke-width:0;stroke-linecap:butt;stroke-linejoin:miter;stroke-miterlimit:10.43299961;stroke-dasharray:none;stroke-dashoffset:0;stroke-opacity:1"
           d="m 247.34375,472.78125 c -4.80168,2.27304 -8.94622,3.74285 -18,4.53125 3.59712,3.87864 3.59375,5.86943 3.59375,23.46875 -2.54088,-0.81576 -5.71802,-1.71875 -11.1875,-1.71875 -23.85814,0 -27.71875,20.77698 -27.71875,36.25 l 0.0312,1.71875 0.0312,1.6875 0.0625,1.625 0.0937,1.5625 0.125,1.53125 0.15625,1.46875 0.1875,1.40625 0.1875,1.40625 0.21875,1.3125 0.25,1.28125 0.25,1.21875 0.28125,1.1875 0.3125,1.15625 0.28125,1.09375 0.34375,1.03125 0.375,1.03125 0.34375,0.96875 0.40625,0.9375 0.375,0.875 0.40625,0.84375 0.4375,0.8125 0.4375,0.78125 0.4375,0.75 0.4375,0.6875 0.46875,0.6875 0.46875,0.625 0.5,0.625 0.46875,0.5625 1,1.0625 0.96875,0.9375 1.03125,0.8125 1,0.71875 1,0.625 1,0.5625 0.96875,0.4375 0.96875,0.40625 0.90625,0.28125 0.875,0.25 0.84375,0.21875 0.78125,0.125 0.71875,0.125 0.65625,0.0625 0.5625,0.0312 0.53125,0.0312 h 0.40625 0.3125 c 8.26474,0 13.61492,-4.52484 15.875,-12.375 l 0.25,11.84375 c 2.5272,-0.13373 5.05513,-0.40625 9.1875,-0.40625 1.47096,0 2.6664,0.0225 3.75,0.15625 1.05696,0 2.12162,0.11627 3.3125,0.25 -2.12616,-4.266 -3.71875,-13.84731 -3.71875,-34.65625 0,-20.24734 0.0112,-54.50182 1.75,-64.90625 z M 223.5,508.5 c 4.52016,0 7.05636,1.35001 9.0625,2.40625 l 0.125,8.6875 v 0.0625 l -0.0312,0.0937 v 0.0937 0.125 0.1875 0.1875 l -0.0312,0.21875 v 0.21875 0.28125 0.28125 0.3125 L 232.59375,522 v 0.34375 0.75 0.84375 0.875 0.96875 l -0.0312,0.96875 v 1.0625 1.0625 l -0.0312,1.125 v 1.125 l -0.0312,2.28125 v 2.3125 l -0.0312,1.15625 V 538 l -0.0312,1.09375 v 1.09375 l -0.0312,1.03125 v 0.96875 l -0.0312,0.9375 V 544 l -0.0312,0.8125 -0.0312,0.71875 v 0.34375 0.3125 l -0.0312,0.3125 v 0.28125 c -0.25409,4.52016 -0.66128,14.25 -10.25,14.25 -9.86954,0 -12.27352,-11.35976 -13.0625,-16.28125 -0.936,-5.46984 -0.9375,-9.97608 -0.9375,-11.96875 0,-6.40584 0.41033,-24.28125 15.46875,-24.28125 z"
           transform="scale(0.00138889)"
           id="path2152" />
        <path
           inkscape:connector-curvature="0"
           style="font-style:normal;font-variant:normal;font-weight:normal;font-stretch:normal;letter-spacing:normal;word-spacing:normal;text-anchor:start;fill:#ffffff;fill-opacity:1;fill-rule:nonzero;stroke:#000000;stroke-width:0;stroke-linecap:butt;stroke-linejoin:miter;stroke-miterlimit:10.43299961;stroke-dasharray:none;stroke-dashoffset:0;stroke-opacity:1"
           d="m 321.875,472.53125 c -8.6526,3.99888 -13.96364,4.65254 -19.6875,5.1875 5.18904,2.13984 5.1875,10.9479 5.1875,39.59375 V 550.09375 551 v 0.875 0.875 0.84375 0.8125 l -0.0312,0.8125 v 0.75 0.75 l -0.0312,0.75 v 0.71875 0.6875 l -0.0312,0.65625 -0.0312,0.65625 -0.0312,0.65625 v 0.59375 l -0.0625,0.625 -0.0312,0.59375 -0.0312,0.5625 -0.0625,0.53125 -0.0625,0.5625 -0.0625,0.5 -0.0625,0.53125 -0.15625,0.96875 -0.1875,0.9375 -0.21875,0.90625 -0.25,0.84375 -0.28125,0.8125 c 5.46984,2.13984 12.25729,3.34375 20.375,3.34375 5.202,0 20.28854,0.007 28.40625,-16.65625 3.86496,-7.72985 5.1875,-18.13652 5.1875,-26 0,-4.78728 -0.54127,-15.32675 -4.40625,-22 -3.73104,-6.25896 -9.70123,-9.4375 -16.09375,-9.4375 -12.78497,0 -16.53858,10.6553 -18.53125,16.125 0,-6.7932 0.1177,-30.51323 1.1875,-42.65625 z m 11.59375,38.65625 c 10.12363,0 12.125,13.98389 12.125,24.375 v 1.1875 l -0.0312,1.1875 -0.0937,2.4375 -0.1875,2.46875 -0.125,1.25 -0.15625,1.25 -0.1875,1.25 -0.21875,1.21875 -0.25,1.1875 -0.28125,1.21875 -0.3125,1.15625 -0.375,1.15625 -0.40625,1.125 -0.4375,1.09375 -0.5,1.03125 -0.53125,1.03125 -0.59375,0.96875 -0.625,0.90625 -0.6875,0.875 -0.75,0.8125 -0.8125,0.75 -0.875,0.6875 -0.90625,0.625 -1,0.5625 -0.5,0.25 -0.53125,0.21875 -0.5625,0.21875 -0.5625,0.1875 -0.59375,0.15625 -0.625,0.15625 -0.625,0.125 -0.625,0.0937 -0.65625,0.0937 -0.6875,0.0625 -0.6875,0.0312 H 327.875 c -2.13984,0 -4.79245,-0.39334 -6.53125,-0.78125 -0.26747,-4.80168 -0.25,-13.06758 -0.25,-22.65625 0,-11.47435 1.18828,-17.43286 2.125,-20.375 2.79504,-9.45497 9.05977,-9.59375 10.25,-9.59375 z"
           transform="scale(0.00138889)"
           id="path2154" />
        <path
           inkscape:connector-curvature="0"
           style="font-style:normal;font-variant:normal;font-weight:normal;font-stretch:normal;letter-spacing:normal;word-spacing:normal;text-anchor:start;fill:#ffffff;fill-opacity:1;fill-rule:nonzero;stroke:#000000;stroke-width:0;stroke-linecap:butt;stroke-linejoin:miter;stroke-miterlimit:10.43299961;stroke-dasharray:none;stroke-dashoffset:0;stroke-opacity:1"
           d="m 279.46875,498.90625 c -27.18806,0 -27.1875,30.12541 -27.1875,36.53125 0,27.05436 12.1636,37.71875 32.53125,37.71875 9.06718,0 13.46321,-1.33112 15.84375,-2 -0.12036,-4.80168 0.54205,-7.86756 1.34375,-12 -2.80872,1.72584 -6.39596,4 -14.40625,4 -20.78222,0 -21.03125,-18.92921 -21.03125,-25.46875 H 302 l 0.25,-7.84375 -0.0312,-2.9375 -0.0625,-1.4375 -0.0625,-1.4375 -0.0937,-1.4375 -0.15625,-1.40625 -0.15625,-1.375 -0.21875,-1.375 -0.25,-1.34375 -0.28125,-1.34375 -0.3125,-1.28125 -0.375,-1.28125 -0.40625,-1.21875 -0.5,-1.1875 -0.5,-1.125 -0.59375,-1.125 -0.625,-1.0625 -0.6875,-1 -0.78125,-0.96875 -0.8125,-0.90625 -0.875,-0.84375 -0.96875,-0.8125 -1.03125,-0.71875 -1.125,-0.65625 -1.1875,-0.59375 -1.25,-0.53125 -1.375,-0.4375 -0.6875,-0.21875 -0.71875,-0.1875 -0.75,-0.15625 -0.78125,-0.125 -0.78125,-0.125 L 283,499.09375 282.15625,499 l -0.875,-0.0312 -0.875,-0.0312 z m -1.3125,8.6875 c 10.4045,0 11.16041,11.45135 10.90625,20.90625 h -22.78125 l 0.0625,-2.0625 0.0312,-1 0.0937,-1 0.0625,-1 0.0937,-0.96875 0.125,-0.96875 0.125,-0.9375 0.15625,-0.90625 0.15625,-0.90625 0.21875,-0.875 0.1875,-0.84375 0.25,-0.84375 0.28125,-0.78125 0.28125,-0.78125 0.3125,-0.71875 0.34375,-0.71875 0.375,-0.65625 0.40625,-0.65625 0.4375,-0.59375 0.4375,-0.5625 0.5,-0.5 0.53125,-0.5 0.5625,-0.4375 0.59375,-0.375 0.625,-0.34375 0.6875,-0.3125 0.6875,-0.21875 0.75,-0.1875 0.78125,-0.15625 0.84375,-0.0625 z"
           transform="scale(0.00138889)"
           id="path2158" />
        <path
           d="m 0.53518145,0.7949317 -6.8724e-4,-1.1143e-4 -6.6866e-4,-9.288e-5 -6.3153e-4,-9.287e-5 -6.5009e-4,-9.287e-5 -6.3153e-4,-7.429e-5 -6.3151e-4,-7.431e-5 -6.501e-4,-7.429e-5 -6.5009e-4,-5.572e-5 -6.8725e-4,-5.573e-5 -7.0582e-4,-5.572e-5 -3.5291e-4,-1.857e-5 -3.9005e-4,-1.857e-5 -3.7149e-4,-1.858e-5 -3.9005e-4,-1.857e-5 -4.0863e-4,-1.858e-5 -4.0863e-4,-1.858e-5 -4.272e-4,-1.857e-5 H 0.52541146 0.52494711 L 0.52448275,0.794003 H 0.5240184 0.5235169 c -0.005925,0 -0.009993,3.7148e-4 -0.0142278,9.287e-4 0.00182,-0.00353 0.002563,-0.005201 0.003121,-0.0172182 7.4296e-4,-0.0164752 9.4728e-4,-0.0605331 -3.7148e-4,-0.069783 -9.2871e-4,-0.007021 -0.002582,-0.008135 -0.005163,-0.009993 0.015175,-0.001486 0.0194285,-0.002582 0.0264496,-0.005925 -0.001468,0.008154 -0.001653,0.0122404 -0.001653,0.0246107 -3.7149e-4,0.0638765 -5.5723e-4,0.0707117 0.003509,0.0783085 z"
           style="font-style:normal;font-variant:normal;font-weight:normal;font-stretch:normal;letter-spacing:normal;word-spacing:normal;text-anchor:start;fill:#ffffff;fill-opacity:1;fill-rule:nonzero;stroke:#000000;stroke-width:0;stroke-linecap:butt;stroke-linejoin:miter;stroke-miterlimit:10.43299961;stroke-dasharray:none;stroke-dashoffset:0;stroke-opacity:1"
           id="path2164"
           inkscape:connector-curvature="0" />
        <path
           inkscape:connector-curvature="0"
           style="font-style:normal;font-variant:normal;font-weight:normal;font-stretch:normal;letter-spacing:normal;word-spacing:normal;text-anchor:start;fill:#ffffff;fill-opacity:1;fill-rule:nonzero;stroke:#000000;stroke-width:0;stroke-linecap:butt;stroke-linejoin:miter;stroke-miterlimit:10.43299961;stroke-dasharray:none;stroke-dashoffset:0;stroke-opacity:1"
           d="m 418.375,499.0625 c -13.18608,0 -20.88504,3.99408 -24.75,6 1.60488,2.92896 2.9478,5.45011 4.125,11.1875 5.202,-4.53312 11.97884,-6.9375 18.90625,-6.9375 11.05978,0 11.0625,7.34089 11.0625,17.71875 -2.5272,-0.12036 -4.6523,-0.375 -8.25,-0.375 -16.90394,0 -28.125,6.50798 -28.125,24.375 l 0.0312,1.5625 0.0937,1.5625 0.0937,0.78125 0.0625,0.78125 0.125,0.78125 0.0937,0.75 L 392,558 l 0.15625,0.75 0.1875,0.75 0.1875,0.71875 0.25,0.71875 0.21875,0.71875 0.25,0.6875 0.3125,0.6875 0.28125,0.65625 0.34375,0.65625 0.34375,0.625 0.375,0.625 0.375,0.59375 0.4375,0.59375 0.4375,0.5625 0.46875,0.5625 0.5,0.5 0.53125,0.5 0.53125,0.5 0.59375,0.4375 0.59375,0.4375 0.625,0.40625 0.65625,0.375 0.6875,0.34375 c 3.34296,1.45728 6.6489,1.46875 7.71875,1.46875 12.26333,0 16.40994,-9.06617 18.9375,-14.65625 -0.13374,5.8572 0.005,9.44435 0.40625,14.125 2.394,-0.13373 4.78223,-0.40625 8.78125,-0.40625 2.26008,0 4.39617,0.27252 6.65625,0.40625 -1.45728,-2.27304 -2.27278,-3.59243 -2.6875,-8.78125 -0.25409,-5.05512 -0.25,-10.12639 -0.25,-17.1875 l 0.125,-27.1875 c 0,-10.13702 -2.66286,-20.125 -22.65625,-20.125 z m 2.5625,35.5625 H 428 l -0.0312,0.78125 -0.0312,0.78125 -0.0625,1.5 -0.0312,1.40625 -0.0625,1.375 -0.0625,1.34375 -0.0937,1.25 -0.0937,1.25 -0.125,1.1875 -0.125,1.125 -0.1875,1.09375 -0.1875,1.0625 -0.25,1.03125 -0.28125,0.96875 -0.28125,0.96875 -0.375,0.90625 -0.1875,0.46875 -0.1875,0.4375 c -2.80872,6.0048 -7.46012,7.71875 -10.9375,7.71875 -7.99733,0 -9.71875,-6.64774 -9.71875,-13.1875 0,-12.51749 11.19481,-13.46875 16.25,-13.46875 z"
           transform="scale(0.00138889)"
           id="path2166" />
        <path
           d="m 0.70101133,0.77661761 5.572e-5,0.002377 7.429e-5,0.002377 5.573e-5,0.001189 7.429e-5,0.001207 9.288e-5,0.00117 1.1144e-4,0.001189 1.4859e-4,0.001151 1.8575e-4,0.001151 2.0431e-4,0.001133 2.6003e-4,0.001133 2.9719e-4,0.001096 1.6717e-4,5.3865e-4 1.8574e-4,5.2008e-4 1.8574e-4,5.3865e-4 2.0432e-4,5.2008e-4 2.2289e-4,5.0149e-4 2.4147e-4,5.2008e-4 c -0.004068,-3.7148e-4 -0.006464,-9.2871e-4 -0.0140607,-9.2871e-4 -0.004439,0 -0.006835,3.7149e-4 -0.0103639,9.2871e-4 7.244e-4,-0.002397 0.001115,-0.003325 0.001468,-0.006501 5.7579e-4,-0.004254 9.4728e-4,-0.0184813 9.4728e-4,-0.0234963 v -0.0199857 c 0,-0.008693 0,-0.021286 -5.5723e-4,-0.0257252 -3.9005e-4,-0.003139 -0.001282,-0.0116459 -0.012036,-0.0116459 -0.0105319,0 -0.0140606,0.007764 -0.0153422,0.0140607 -0.001486,0.006464 -0.001486,0.013522 -0.001486,0.0409188 1.8574e-4,0.0236634 1.8574e-4,0.0258738 0.002043,0.0323747 -0.003157,-3.7149e-4 -0.00704,-7.4297e-4 -0.0125933,-7.4297e-4 -0.004458,0 -0.007411,1.8574e-4 -0.0111074,7.4297e-4 0.0013,-0.002972 0.002043,-0.004439 0.002415,-0.0148036 3.7148e-4,-0.0101788 0.001096,-0.0601616 -5.758e-4,-0.0719933 -9.1013e-4,-0.007225 -0.002749,-0.008897 -0.004792,-0.0107544 0.0150079,-7.4297e-4 0.0198,-0.003139 0.024425,-0.005536 v 0.0196143 c 0.002229,-0.00574 0.006854,-0.0185184 0.0253537,-0.0185184 0.0231249,0 0.0233106,0.0168467 0.0234963,0.0279541 v 0.0557224 z"
           style="font-style:normal;font-variant:normal;font-weight:normal;font-stretch:normal;letter-spacing:normal;word-spacing:normal;text-anchor:start;fill:#ffffff;fill-opacity:1;fill-rule:nonzero;stroke:#000000;stroke-width:0;stroke-linecap:butt;stroke-linejoin:miter;stroke-miterlimit:10.43299961;stroke-dasharray:none;stroke-dashoffset:0;stroke-opacity:1"
           id="path2170"
           inkscape:connector-curvature="0" />
        <polygon
           transform="matrix(0.00185741,0,0,-0.00185741,0.00416562,1.1264429)"
           points="270.23,248 278.48,256.24 286.73,248 278.48,239.73 "
           style="font-style:normal;font-variant:normal;font-weight:normal;font-stretch:normal;letter-spacing:normal;word-spacing:normal;text-anchor:start;fill:#e3006b;fill-opacity:1;fill-rule:nonzero;stroke:#e3006b;stroke-width:0;stroke-linecap:butt;stroke-linejoin:miter;stroke-miterlimit:10.43299961;stroke-dasharray:none;stroke-dashoffset:0;stroke-opacity:1"
           id="polygon2172" />
      </g>
      <g
         id="g3217">
        <path
           d="m 0.31441222,0.83510444 -0.0112504,0.049882 c -0.003873,0.0158329 -0.004057,0.0165749 -0.005533,0.0254091 -0.003873,-5.4898e-4 -0.006455,-7.3203e-4 -0.0127117,-7.3203e-4 -0.004611,0 -0.007377,1.8305e-4 -0.0116193,7.3203e-4 -0.002213,-0.0207983 -0.0130947,-0.0808241 -0.0154924,-0.0904004 -0.001475,-0.00515 -0.002213,-0.006441 -0.004057,-0.009576 0.002029,1.8443e-4 0.003689,3.6887e-4 0.005349,5.6749e-4 0.001844,1.7024e-4 0.003689,1.7024e-4 0.005902,1.7024e-4 0.00664,0 0.009576,-1.7024e-4 0.0136338,-7.3773e-4 -5.3911e-4,0.001476 -0.001475,0.006256 -3.5467e-4,0.0140027 l 0.005519,0.0388444 0.004256,0.027977 0.005703,-0.0226427 c 0.008484,-0.0371845 0.00959,-0.0429019 0.0118037,-0.0581815 0.00166,1.8443e-4 0.002951,5.6749e-4 0.004427,7.3773e-4 0.00166,0 0.003319,1.8444e-4 0.005717,1.8444e-4 0.006086,0 0.007746,-3.5468e-4 0.0112504,-9.2179e-4 0.001291,0.011974 0.002014,0.015464 0.010314,0.0565215 l 0.005348,0.0254092 0.004057,-0.0200606 c 0.004057,-0.0220894 0.008484,-0.0452995 0.008484,-0.0596569 l -3.6887e-4,-0.002213 c 0.00166,1.8443e-4 0.003319,5.6748e-4 0.00498,7.3773e-4 0.001844,0 0.003504,1.8444e-4 0.005348,1.8444e-4 0.005717,0 0.008484,-3.5469e-4 0.0114348,-9.2179e-4 -0.002582,0.004795 -0.004057,0.008115 -0.008853,0.0296511 -0.0119882,0.0541239 -0.0134636,0.060196 -0.0145702,0.0703255 -0.004242,-3.6601e-4 -0.007008,-7.3203e-4 -0.0134636,-9.1524e-4 -0.004043,0 -0.008115,5.4898e-4 -0.0117895,9.1524e-4 -5.5329e-4,-0.005148 -0.002213,-0.0141729 -0.008853,-0.0510027 l -0.004611,-0.0242883 z"
           style="font-style:normal;font-variant:normal;font-weight:normal;font-stretch:normal;letter-spacing:normal;word-spacing:normal;text-anchor:start;fill:#ffffff;fill-opacity:1;fill-rule:nonzero;stroke:#060808;stroke-width:0;stroke-linecap:butt;stroke-linejoin:miter;stroke-miterlimit:10.43299961;stroke-dasharray:none;stroke-dashoffset:0;stroke-opacity:1"
           id="path2176"
           inkscape:connector-curvature="0" />
        <path
           inkscape:connector-curvature="0"
           style="font-style:normal;font-variant:normal;font-weight:normal;font-stretch:normal;letter-spacing:normal;word-spacing:normal;text-anchor:start;fill:#ffffff;fill-opacity:1;fill-rule:nonzero;stroke:#060808;stroke-width:0;stroke-linecap:butt;stroke-linejoin:miter;stroke-miterlimit:10.43299961;stroke-dasharray:none;stroke-dashoffset:0;stroke-opacity:1"
           d="m 295.84375,582.71875 c -24.43349,0 -27.5,21.60347 -27.5,37.375 v 1.4375 L 268.375,623 268.4375,624.46875 268.5,626 l 0.125,1.53125 0.125,1.53125 0.15625,1.5625 0.21875,1.53125 0.25,1.5625 0.3125,1.53125 0.34375,1.53125 0.40625,1.5 0.46875,1.46875 0.53125,1.4375 0.59375,1.4375 0.65625,1.375 0.71875,1.3125 0.8125,1.28125 0.90625,1.25 0.9375,1.15625 1.0625,1.09375 1.15625,1.03125 1.21875,0.96875 1.34375,0.875 0.6875,0.40625 0.75,0.40625 0.75,0.34375 0.78125,0.34375 0.8125,0.34375 0.84375,0.28125 0.84375,0.28125 0.90625,0.21875 0.9375,0.21875 0.9375,0.1875 0.96875,0.1875 1.03125,0.125 1.03125,0.0937 1.0625,0.0937 1.125,0.0312 1.125,0.0312 c 23.62687,0 26.96095,-21.22616 27.09375,-37.9375 0,-17.23226 -3.19361,-35.90625 -26.6875,-35.90625 z m 0,8.21875 c 8.23334,0 12.47655,7.276 12.34375,27.5625 -0.13284,21.86971 -4.2591,29.3125 -12.625,29.3125 -11.81844,0 -12.75,-15.12379 -12.75,-26.65625 L 282.8437,619.5 v -1.625 l 0.0625,-1.5625 0.0312,-1.5625 0.0937,-1.5 0.0937,-1.46875 0.0937,-1.46875 0.15625,-1.375 0.15625,-1.34375 0.15625,-1.3125 L 283.906,605 l 0.25,-1.21875 0.25,-1.1875 0.28125,-1.125 0.3125,-1.0625 0.34375,-1.03125 0.375,-0.96875 0.40625,-0.90625 0.4375,-0.875 0.5,-0.8125 0.5,-0.75 0.5625,-0.6875 0.5625,-0.65625 0.625,-0.5625 0.6875,-0.5 0.6875,-0.46875 0.75,-0.375 0.78125,-0.3125 0.84375,-0.25 0.875,-0.1875 0.9375,-0.0937 z"
           transform="scale(0.00138889)"
           id="path2178" />
        <path
           d="m 0.457532,0.85498061 -1.419e-5,-9.7899e-4 v -9.6509e-4 l -1.418e-5,-9.2179e-4 -1.419e-5,-9.0789e-4 v -8.7929e-4 l -1.419e-5,-8.654e-4 -1.418e-5,-0.001646 -1.419e-5,-0.001575 -1.419e-5,-0.001476 -1.419e-5,-0.001405 -1.419e-5,-0.00132 -1.418e-5,-0.001249 -1.419e-5,-0.001178 -1.418e-5,-0.001121 -1.419e-5,-0.00105 -2.837e-5,-9.9288e-4 -1.419e-5,-9.2178e-4 -2.838e-5,-8.94e-4 -2.837e-5,-8.368e-4 -2.838e-5,-7.803e-4 -2.837e-5,-7.5191e-4 -2.837e-5,-7.0936e-4 -2.838e-5,-6.668e-4 -4.256e-5,-6.526e-4 -4.256e-5,-6.1005e-4 -4.256e-5,-5.9586e-4 -5.675e-5,-5.6748e-4 -9.931e-5,-0.001093 -1.2768e-4,-0.00105 -1.4188e-4,-0.001035 -1.5606e-4,-0.00105 c -0.001291,-0.008115 -0.004057,-0.009576 -0.00664,-0.0110518 0.0147404,-5.533e-4 0.0219333,-0.003689 0.0263597,-0.005348 v 0.0202592 c 0.002582,-0.005888 0.008299,-0.018954 0.0256361,-0.018954 0.0175211,0 0.0201031,0.0132508 0.0210111,0.0187696 0.002766,-0.005703 0.009051,-0.0187696 0.0269272,-0.0187696 0.0188121,0 0.0210111,0.0112221 0.0210111,0.0255794 v 0.025778 c 0,0.0298356 0,0.0438213 0.002596,0.0500834 -0.003334,-5.5331e-4 -0.006455,-0.001102 -0.012357,-0.001102 -0.004795,0 -0.007378,3.6602e-4 -0.0119881,0.001102 0.001476,-0.002948 0.002213,-0.004417 0.002951,-0.0139913 v -0.0156484 -0.0116051 -0.0254091 c 0,-0.0110376 -0.001106,-0.018954 -0.0130947,-0.018954 -0.007548,0 -0.0128961,0.006242 -0.0138183,0.0104843 -0.00149,0.005717 -0.00149,0.0165706 -0.00149,0.0270691 v 0.0237492 c 0,0.0145418 7.5193e-4,0.0208039 0.002582,0.0243053 -0.004228,-5.5331e-4 -0.006441,-9.1933e-4 -0.0119739,-9.1933e-4 -0.005902,0 -0.008115,3.6602e-4 -0.0125414,9.1933e-4 0.001106,-0.002399 0.001476,-0.003502 0.001844,-0.00681 3.6886e-4,-0.004982 0.001291,-0.01253 0.001291,-0.0235677 v -0.0202592 c 0,-0.026686 -0.001291,-0.0346024 -0.0130947,-0.0346024 -0.0156768,0 -0.0154923,0.0173083 -0.0152938,0.0298213 v 0.0196918 c 0,0.0193371 0,0.0311209 0.001844,0.0357261 -0.002965,-5.5332e-4 -0.005916,-0.001102 -0.0106971,-0.001102 -0.005533,0 -0.009406,5.4898e-4 -0.0129103,0.001102 0.001291,-0.002765 0.002014,-0.00424 0.002951,-0.0147291 v -0.0222737 -0.0185994 z"
           style="font-style:normal;font-variant:normal;font-weight:normal;font-stretch:normal;letter-spacing:normal;word-spacing:normal;text-anchor:start;fill:#ffffff;fill-opacity:1;fill-rule:nonzero;stroke:#060808;stroke-width:0;stroke-linecap:butt;stroke-linejoin:miter;stroke-miterlimit:10.43299961;stroke-dasharray:none;stroke-dashoffset:0;stroke-opacity:1"
           id="path2182"
           inkscape:connector-curvature="0" />
        <path
           inkscape:connector-curvature="0"
           style="font-style:normal;font-variant:normal;font-weight:normal;font-stretch:normal;letter-spacing:normal;word-spacing:normal;text-anchor:start;fill:#ffffff;fill-opacity:1;fill-rule:nonzero;stroke:#060808;stroke-width:0;stroke-linecap:butt;stroke-linejoin:miter;stroke-miterlimit:10.43299961;stroke-dasharray:none;stroke-dashoffset:0;stroke-opacity:1"
           d="m 444.78125,582.59375 c -27.07927,0 -27.09375,29.95922 -27.09375,36.3125 0,26.9159 12.0993,37.5 32.40625,37.5 9.02988,0 13.42282,-1.30565 15.8125,-1.96875 -0.1332,-4.7723 0.51618,-7.82126 1.3125,-11.9375 -2.78856,1.72584 -6.36608,3.96875 -14.34375,3.96875 -20.70528,0 -20.96875,-18.81594 -20.96875,-25.3125 h 35.3125 l 0.28125,-7.8125 c 0,-15.50592 -3.06556,-30.75 -22.71875,-30.75 z m -1.3125,8.59375 h 0.46875 l 0.46875,0.0312 0.4375,0.0312 0.4375,0.0625 0.4375,0.0937 0.40625,0.0625 0.40625,0.125 0.375,0.125 0.375,0.0937 0.34375,0.15625 0.375,0.15625 0.34375,0.1875 0.625,0.375 0.59375,0.4375 0.5625,0.46875 0.5,0.53125 0.46875,0.5625 0.4375,0.625 0.375,0.625 0.34375,0.6875 0.34375,0.71875 0.28125,0.71875 0.28125,0.78125 0.21875,0.78125 0.1875,0.8125 0.1875,0.84375 0.125,0.84375 0.15625,0.875 0.0937,0.875 0.0937,0.90625 0.0625,0.90625 0.0312,0.90625 0.0625,1.8125 v 1.8125 L 454.34375,612 h -22.6875 c 0.13277,-11.01146 2.38432,-20.8125 11.8125,-20.8125 z"
           transform="scale(0.00138889)"
           id="path2184" />
        <path
           d="m 0.72507293,0.89234955 5.674e-5,0.002369 8.513e-5,0.002369 4.256e-5,0.001191 8.512e-5,0.001191 8.512e-5,0.001178 1.135e-4,0.001164 1.4187e-4,0.00116 1.8444e-4,0.001147 2.128e-4,0.001131 2.5537e-4,0.001112 2.9793e-4,0.001093 1.5606e-4,5.377e-4 1.8443e-4,5.306e-4 1.9862e-4,5.2496e-4 1.9862e-4,5.1924e-4 2.27e-4,5.1074e-4 2.2699e-4,5.0363e-4 c -0.004043,-3.7027e-4 -0.006441,-9.1933e-4 -0.0140027,-9.1933e-4 -0.004441,0 -0.006824,3.6601e-4 -0.0103282,9.1933e-4 7.3773e-4,-0.002399 0.001106,-0.003319 0.001476,-0.006445 5.533e-4,-0.004226 9.2179e-4,-0.0184135 9.2179e-4,-0.023379 v -0.0198903 c 0,-0.008654 0,-0.0211672 -5.533e-4,-0.0255936 -3.6887e-4,-0.003121 -0.001291,-0.0115909 -0.0119881,-0.0115909 -0.0105127,0 -0.0140169,0.007732 -0.0153079,0.0139885 -0.001476,0.006441 -0.001476,0.0134494 -0.001476,0.0406887 1.8443e-4,0.0235663 1.8443e-4,0.0257766 0.002029,0.0322218 -0.003136,-3.7027e-4 -0.007008,-7.3628e-4 -0.0125273,-7.3628e-4 -0.004427,0 -0.007378,1.8296e-4 -0.011066,7.3628e-4 0.001276,-0.002948 0.002014,-0.004417 0.002398,-0.0147291 3.6887e-4,-0.0101296 0.001106,-0.0598413 -5.533e-4,-0.0716166 -9.3649e-4,-0.007179 -0.002766,-0.008839 -0.004795,-0.0106829 0.014939,-7.3773e-4 0.0197201,-0.003136 0.0243309,-0.005518 v 0.0195215 c 0.002213,-0.005717 0.006824,-0.0184149 0.0252672,-0.0184149 0.0230399,0 0.0232385,0.0167408 0.0234229,0.0277926 z"
           style="font-style:normal;font-variant:normal;font-weight:normal;font-stretch:normal;letter-spacing:normal;word-spacing:normal;text-anchor:start;fill:#ffffff;fill-opacity:1;fill-rule:nonzero;stroke:#060808;stroke-width:0;stroke-linecap:butt;stroke-linejoin:miter;stroke-miterlimit:10.43299961;stroke-dasharray:none;stroke-dashoffset:0;stroke-opacity:1"
           id="path2188"
           inkscape:connector-curvature="0" />
      </g>
    </g>
  </g>
</svg>
