<?xml version="1.0" encoding="UTF-8" standalone="no"?>
<!-- Creator: CorelDRAW -->

<svg
   xml:space="preserve"
   width="3.7cm"
   height="3.7cm"
   style="clip-rule:evenodd;fill-rule:evenodd;image-rendering:optimizeQuality;shape-rendering:geometricPrecision;text-rendering:geometricPrecision"
   viewBox="0 0 36.999999 36.999999"
   version="1.1"
   id="svg32"
   sodipodi:docname="Instagram_Nein_Danke print.svg"
   inkscape:version="1.2.2 (b0a8486541, 2022-12-01)"
   inkscape:export-filename="Instagram_Nein_Danke print.svg.png"
   inkscape:export-xdpi="96"
   inkscape:export-ydpi="96"
   xmlns:inkscape="http://www.inkscape.org/namespaces/inkscape"
   xmlns:sodipodi="http://sodipodi.sourceforge.net/DTD/sodipodi-0.dtd"
   xmlns:xlink="http://www.w3.org/1999/xlink"
   xmlns="http://www.w3.org/2000/svg"
   xmlns:svg="http://www.w3.org/2000/svg"
   xmlns:rdf="http://www.w3.org/1999/02/22-rdf-syntax-ns#"
   xmlns:cc="http://creativecommons.org/ns#"
   xmlns:dc="http://purl.org/dc/elements/1.1/"><metadata
   id="metadata36"><rdf:RDF><cc:Work
       rdf:about=""><dc:format>image/svg+xml</dc:format><dc:type
         rdf:resource="http://purl.org/dc/dcmitype/StillImage" /><dc:title /></cc:Work></rdf:RDF></metadata><sodipodi:namedview
   pagecolor="#ffffff"
   bordercolor="#666666"
   borderopacity="1"
   objecttolerance="10"
   gridtolerance="10"
   guidetolerance="10"
   inkscape:pageopacity="0"
   inkscape:pageshadow="2"
   inkscape:window-width="1920"
   inkscape:window-height="951"
   id="namedview34"
   showgrid="false"
   inkscape:zoom="5.2052346"
   inkscape:cx="-28.528974"
   inkscape:cy="73.387663"
   inkscape:window-x="0"
   inkscape:window-y="0"
   inkscape:window-maximized="1"
   inkscape:current-layer="g5843"
   showguides="true"
   inkscape:guide-bbox="true"
   inkscape:snap-global="false"
   units="cm"
   inkscape:showpageshadow="2"
   inkscape:pagecheckerboard="0"
   inkscape:deskcolor="#d1d1d1"
   inkscape:document-units="cm" />
 <defs
   id="defs4">
  <style
   type="text/css"
   id="style2">
   <![CDATA[
    .fil1 {fill:#1F1A17}
    .fil2 {fill:#DE411A}
    .fil0 {fill:#FACF00}
    .fil3 {fill:#1F1A17;fill-rule:nonzero}
   ]]>
  </style>
 
    
    
    
    
    
    
    
    
    
    
   <path
   inkscape:connector-curvature="0"
   id="path833"
   d="M 39.326675,62.01092 A 65.908504,65.908504 0 0 1 129.78989,39.554947 65.908504,65.908504 0 0 1 152.24585,130.01816 65.908504,65.908504 0 0 1 61.78265,152.47412 65.908504,65.908504 0 0 1 39.326675,62.01092 Z"
   style="fill:#ff0000;fill-opacity:0;stroke:#ffffff;stroke-width:0;stroke-miterlimit:4;stroke-dasharray:none;stroke-opacity:1" /><radialGradient
   id="f"
   cx="158.429"
   cy="578.088"
   r="52.3515"
   xlink:href="#a"
   gradientUnits="userSpaceOnUse"
   gradientTransform="matrix(0,-4.03418,4.28018,0,-2332.2273,942.2356)"
   fx="158.429"
   fy="578.088" /><radialGradient
   inkscape:collect="always"
   xlink:href="#b"
   id="g"
   gradientUnits="userSpaceOnUse"
   gradientTransform="matrix(0.67441,-1.16203,1.51283,0.87801,-814.3657,-47.8354)"
   cx="172.6149"
   cy="600.6924"
   fx="172.6149"
   fy="600.6924"
   r="65" /><radialGradient
   inkscape:collect="always"
   xlink:href="#c"
   id="h"
   cx="144.012"
   cy="51.3367"
   fx="144.012"
   fy="51.3367"
   r="67.081"
   gradientTransform="matrix(-2.3989,0.67549,-0.23008,-0.81732,464.9957,-26.4035)"
   gradientUnits="userSpaceOnUse" /><radialGradient
   inkscape:collect="always"
   xlink:href="#d"
   id="e"
   gradientUnits="userSpaceOnUse"
   gradientTransform="matrix(-3.10797,0.87652,-0.6315,-2.23914,1345.6503,1374.1983)"
   cx="199.7884"
   cy="628.4379"
   fx="199.7884"
   fy="628.4379"
   r="52.3515" /><linearGradient
   inkscape:collect="always"
   id="d"><stop
     offset="0"
     stop-color="#ff005f"
     id="stop554" /><stop
     offset="1"
     stop-color="#fc01d8"
     id="stop556" /></linearGradient><linearGradient
   id="c"><stop
     offset="0"
     stop-color="#780cff"
     id="stop559" /><stop
     stop-color="#820bff"
     offset="1"
     stop-opacity="0"
     id="stop561" /></linearGradient><linearGradient
   inkscape:collect="always"
   id="b"><stop
     offset="0"
     stop-color="#fc0"
     id="stop564" /><stop
     offset="1"
     stop-color="#fc0"
     stop-opacity="0"
     id="stop566" /></linearGradient><linearGradient
   id="a"><stop
     offset="0"
     stop-color="#fc0"
     id="stop569" /><stop
     offset=".1242"
     stop-color="#fc0"
     id="stop571" /><stop
     offset=".5672"
     stop-color="#fe4a05"
     id="stop573" /><stop
     offset=".6942"
     stop-color="#ff0f3f"
     id="stop575" /><stop
     offset="1"
     stop-color="#fe0657"
     stop-opacity="0"
     id="stop577" /></linearGradient></defs>
 <g
   id="Ebene_x0020_1"
   transform="translate(0,-154.93502)"
   inkscape:label="Ebene 1">
  <metadata
   id="CorelCorpID_0Corel-Layer" />
  <g
   id="_81132720">
   
   
   
   
   
   
   
  <g
   id="g5843"
   transform="translate(0.10166049,-0.10166049)">

<rect
   style="fill:#ffffff;fill-opacity:1;stroke:#ffffff;stroke-width:0;stroke-miterlimit:4;stroke-dasharray:none;stroke-opacity:1"
   id="rect843"
   width="37"
   height="36.999996"
   x="0.11399445"
   y="155.03668" /><g
   style="clip-rule:evenodd;fill-rule:evenodd;image-rendering:optimizeQuality;shape-rendering:geometricPrecision;text-rendering:geometricPrecision"
   id="g841"
   transform="matrix(0.14588265,0,0,0.14588265,4.3983395,159.53669)"><path
   inkscape:connector-curvature="0"
   id="_78721264"
   class="fil0"
   d="M 0,95.9772 C 0,42.9775 42.9612,0.0043 95.9618,0 h 0.0158 c 52.9925,0.0043 95.9575,42.9774 95.9575,95.9773 1e-4,52.4434 -42.0664,95.0614 -94.2879,95.9577 H 94.2919 C 42.0626,191.0387 0,148.4207 0,95.9772 Z"
   style="fill:#ffffff;fill-opacity:1" /><path
   inkscape:connector-curvature="0"
   id="path4554"
   d="M 34.385683,72.973082 A 66.073952,66.073952 0 0 1 119.35273,34.086882 66.073952,66.073952 0 0 1 158.23892,119.05394 66.073952,66.073952 0 0 1 73.271867,157.94013 66.073952,66.073952 0 0 1 34.385683,72.973082 Z"
   style="fill:#ff0000;fill-opacity:0;stroke-width:0.28798187" /><path
   inkscape:connector-curvature="0"
   id="_83477624"
   class="fil3"
   d="m 28.9798,115.403 c 1.0217,-0.4763 1.8748,-0.5693 2.559,-0.2787 0.6844,0.2907 1.274,0.967 1.7691,2.0287 0.2428,0.5208 0.3622,1.0384 0.3582,1.5525 -0.0042,0.5141 -0.1713,1.0188 -0.5013,1.5142 l -9.89151,15.112 0.028,0.0602 12.8314,-5.9833 c 0.8013,-0.3738 1.4954,-0.4414 2.0821,-0.2029 0.5868,0.2386 1.053,0.7285 1.3987,1.4697 0.3457,0.7413 0.4213,1.4134 0.2269,2.0162 -0.1945,0.6028 -0.6925,1.0912 -1.4938,1.4648 l -16.9782,7.9171 c -0.981601,0.4577 -1.843,0.585 -2.584,0.3818 -0.7412,-0.2032 -1.3545,-0.8257 -1.8403,-1.8674 -0.1868,-0.4008 -0.3233,-0.7455 -0.4093,-1.0347 -0.0861,-0.2892 -0.1207,-0.5596 -0.1039,-0.8113 0.0167,-0.2517 0.0753,-0.4924 0.1754,-0.722 0.1002,-0.2297 0.2332,-0.4807 0.3989,-0.7531 l 9.5288,-14.8698 -0.028,-0.0601 -12.4707,5.8151 c -0.8013,0.3737 -1.4955,0.4413 -2.0822,0.2028 -0.5868,-0.2386 -1.053,-0.7285 -1.3986,-1.4696 -0.3457,-0.7414 -0.4213,-1.4134 -0.2268,-2.0162 0.1943,-0.6029 0.6924,-1.0912 1.4936,-1.4648 l 17.1585,-8.0012 z m 28.6983,38.4149 c 0.5118,-1.0044 1.1267,-1.6029 1.8449,-1.795 0.7182,-0.1924 1.5992,-0.0225 2.643,0.5093 0.5121,0.2609 0.9248,0.5952 1.2381,1.0029 0.3132,0.4078 0.4923,0.9084 0.5372,1.5018 l 1.5093,17.9983 0.0592,0.0301 6.4274,-12.6147 c 0.4015,-0.7877 0.9067,-1.2684 1.516,-1.4416 0.6093,-0.1734 1.2782,-0.0744 2.007,0.297 0.7287,0.3712 1.202,0.8543 1.42,1.449 0.2179,0.5948 0.1262,1.2861 -0.2752,2.074 l -8.5048,16.6915 c -0.4917,0.9651 -1.0921,1.5956 -1.8013,1.8917 -0.709,0.2963 -1.5756,0.1834 -2.5997,-0.3385 -0.394,-0.2007 -0.7138,-0.3885 -0.9596,-0.5633 -0.2459,-0.1749 -0.4396,-0.3667 -0.5813,-0.5754 -0.1418,-0.2086 -0.2439,-0.4344 -0.3064,-0.6769 -0.0624,-0.2427 -0.1121,-0.5224 -0.1493,-0.8389 l -1.6459,-17.5843 -0.0591,-0.03 -6.2469,12.2601 c -0.4013,0.7878 -0.9067,1.2684 -1.516,1.4417 -0.6092,0.1733 -1.2783,0.0742 -2.0069,-0.297 -0.7288,-0.3713 -1.2021,-0.8543 -1.42,-1.4491 -0.218,-0.5947 -0.1262,-1.2862 0.2752,-2.0739 z m -4.9303,-4.6374 c 0.4978,-0.6489 1.091,-1.0226 1.7795,-1.1211 0.6886,-0.0986 1.366,0.1079 2.0325,0.6192 0.6665,0.5114 1.0411,1.1122 1.1242,1.8029 0.083,0.6906 -0.1245,1.3603 -0.6223,2.0091 L 45.3144,167.8 c -0.4979,0.6489 -1.0911,1.0226 -1.7797,1.1211 -0.6886,0.0986 -1.366,-0.1078 -2.0323,-0.6192 -0.6665,-0.5113 -1.0411,-1.1123 -1.1242,-1.8029 -0.083,-0.6906 0.1244,-1.3603 0.6223,-2.0092 z M 38.408,135.5043 c 0.9134,-0.8023 1.73,-1.1371 2.4498,-1.0044 0.7196,0.1327 1.4004,0.5643 2.0423,1.2949 l 8.4252,9.5901 c 0.5251,0.5978 0.847,1.1903 0.965701,1.7775 0.1186,0.5872 -0.1458,1.1653 -0.7935,1.7343 -0.6477,0.569 -1.2549,0.7567 -1.822,0.5634 -0.567,-0.1933 -1.113,-0.5888 -1.6384,-1.1866 l -6.9368,-7.8962 -3.8859,3.4138 6.0835,6.9247 c 0.4669,0.5314 0.7606,1.0751 0.8813,1.6312 0.1207,0.556 -0.1345,1.1111 -0.7656,1.6656 -0.631,0.5543 -1.2145,0.7358 -1.7502,0.5446 -0.5359,-0.1913 -1.0372,-0.5527 -1.504,-1.0841 l -6.0836,-6.9248 -4.3343,3.8079 7.1121,8.0954 c 0.5252,0.5977 0.8472,1.1903 0.965801,1.7775 0.1187,0.5871 -0.1458,1.1652 -0.7934,1.7343 -0.6477,0.5689 -1.2551,0.7566 -1.822,0.5634 -0.5671,-0.1934 -1.1132,-0.5888 -1.6383,-1.1867 l -8.6002,-9.78931 c -0.6419,-0.7306 -0.982301,-1.4613 -1.0211,-2.1921 -0.0389,-0.7309 0.3983,-1.4976 1.3116,-2.3 l 13.152,-11.5544 z"
   style="fill:#000000;fill-opacity:1;fill-rule:nonzero" /><path
   inkscape:connector-curvature="0"
   id="_82549976"
   class="fil3"
   d="m 92.9802,181.566 h 4.5756 c 1.0831,0 1.9894,-0.2212 2.7188,-0.6632 0.7295,-0.4421 1.3209,-1.0223 1.774,-1.7407 0.4531,-0.7184 0.7736,-1.5252 0.9614,-2.4204 0.1879,-0.8952 0.2819,-1.807 0.2819,-2.7354 0,-2.3431 -0.4642,-4.1888 -1.3926,-5.5372 -0.9283,-1.3484 -2.387299,-2.0226 -4.376599,-2.0225 h -4.5424 z m -5.4376,-16.3131 c 0,-1.2156 0.2873,-2.0501 0.8622,-2.5032 0.5746,-0.4531 1.3483,-0.6798 2.3209,-0.6797 h 6.6312 c 1.481,0 2.9067,0.1823 4.2772,0.547 1.3705,0.3647 2.5807,1.0003 3.6306,1.9066 1.0499,0.9062 1.8899,2.1274 2.5199,3.6637 0.6299,1.5362 0.9449,3.4759 0.9449,5.819 0,1.901 -0.2597,3.5864 -0.7791,5.0563 -0.5194,1.4699 -1.2655,2.7188 -2.2381,3.7467 -0.9725,1.0279 -2.1718,1.807 -3.5974,2.3375 -1.4258,0.5305 -3.0449,0.7957 -4.8575,0.7958 h -6.5318 c -0.972601,0 -1.7462,-0.2266 -2.3208,-0.6798 -0.5749,-0.453 -0.8622,-1.2876 -0.8621,-2.5032 z m 28.1331,-0.6118 -0.0638,0.0183 -0.4504,10.0974 6.1194,-1.7546 z m -4.3252,-3.1749 c 0.0631,-0.6619 0.2683,-1.1691 0.6156,-1.5217 0.3474,-0.3526 0.8398,-0.6202 1.4772,-0.8029 l 1.243,-0.3565 c 0.5949,-0.1706 1.1703,-0.2092 1.726,-0.1155 0.5557,0.0935 1.0981,0.5015 1.627,1.2235 l 11.3464,15.752 c 0.1793,0.2245 0.3838,0.5166 0.6134,0.8761 0.2295,0.3596 0.387,0.6881 0.4723,0.9856 0.1828,0.6374 0.0991,1.2478 -0.251,1.8311 -0.3502,0.5833 -0.8652,0.9724 -1.5451,1.1673 -0.5737,0.1645 -1.0944,0.1932 -1.5621,0.0859 -0.4676,-0.1074 -0.8703,-0.3886 -1.2077,-0.8438 l -2.4354,-3.4408 -8.4142,2.4127 -0.2737,4.2178 c -0.0238,0.5586 -0.1949,1.0044 -0.5134,1.3371 -0.3185,0.3328 -0.7859,0.5875 -1.402,0.7642 -0.7225,0.2071 -1.3662,0.1676 -1.9312,-0.1188 -0.565,-0.2863 -0.9481,-0.7802 -1.1491,-1.4814 -0.0853,-0.2975 -0.1259,-0.6595 -0.1217,-1.0861 0.004,-0.4265 0.0227,-0.7826 0.0559,-1.0681 z m 11.4969,-1.0023 c -0.5974,-0.9559 -0.7935,-1.7914 -0.5884,-2.5059 0.2049,-0.7147 0.8043,-1.3823 1.7978,-2.0032 0.4874,-0.3045 0.9865,-0.4861 1.4973,-0.5446 0.5108,-0.0585 1.0321,0.0458 1.564,0.313 l 16.2049,7.9761 0.0563,-0.0352 -7.5025,-12.0066 c -0.4686,-0.7498 -0.6203,-1.4304 -0.4551,-2.0419 0.1653,-0.6115 0.5947,-1.1339 1.2883,-1.5674 0.6937,-0.4333 1.3514,-0.5903 1.9735,-0.4707 0.622,0.1194 1.1674,0.5542 1.636,1.304 l 9.92721,15.8868 c 0.5739,0.9185 0.8051,1.7579 0.6938,2.5183 -0.1113,0.7603 -0.6545,1.4449 -1.6292,2.054 -0.375,0.2344 -0.7006,0.4117 -0.9771,0.5324 -0.2766,0.1207 -0.5407,0.188 -0.7926,0.202 -0.2518,0.0141 -0.4979,-0.0147 -0.738,-0.0861 -0.2402,-0.0715 -0.5056,-0.1728 -0.796,-0.3041 l -15.9203,-7.6456 -0.0563,0.0351 7.2916,11.669 c 0.4686,0.7498 0.6202,1.4305 0.455,2.0421 -0.1652,0.6114 -0.5947,1.1339 -1.2882,1.5673 -0.6936,0.4334 -1.3514,0.5903 -1.9735,0.4707 -0.622,-0.1194 -1.1674,-0.5542 -1.6359,-1.304 l -10.0326,-16.0555 z m 19.1074,-12.9893 c -0.6172,-0.5365 -0.9541,-1.1515 -1.0103,-1.8447 -0.0563,-0.6934 0.1911,-1.3569 0.7422,-1.9909 0.551,-0.634 1.1737,-0.9713 1.8681,-1.0119 0.6944,-0.0408 1.3501,0.2071 1.9674,0.7437 l 5.9555,5.1771 -1.4944,-12.6338 c -0.0472,-0.4511 -0.0533,-0.8737 -0.0181,-1.2678 0.0351,-0.3943 0.2122,-0.7748 0.5312,-1.1419 0.4206,-0.4837 0.9545,-0.8031 1.6017,-0.9579 0.6472,-0.1551 1.2294,-0.008 1.7466,0.4418 0.317,0.2756 0.5257,0.5743 0.6266,0.8963 0.1009,0.3219 0.1634,0.6544 0.1873,0.9975 l 0.7747,8.0541 11.9109,1.6114 c 0.4432,0.0631 0.8707,0.1272 1.2826,0.1923 0.4119,0.0652 0.7513,0.2138 1.0183,0.4459 0.3837,0.3336 0.6462,0.6716 0.7878,1.0142 0.1414,0.3427 0.2002,0.6793 0.1763,1.0101 -0.0239,0.3306 -0.1113,0.6501 -0.262,0.9584 -0.1508,0.3082 -0.335,0.5874 -0.5525,0.8377 -0.3626,0.417 -0.727,0.6933 -1.0936,0.8286 -0.3666,0.1353 -0.8901,0.1562 -1.5703,0.0627 l -11.4182,-1.6223 0.2944,4.2099 4.0788,3.5457 c 0.6173,0.5366 0.9541,1.1515 1.0104,1.8448 0.0564,0.6933 -0.191,1.3568 -0.7421,1.9908 -0.5511,0.6339 -1.1738,0.9713 -1.8683,1.012 -0.6943,0.0407 -1.35,-0.2072 -1.9673,-0.7438 z m 13.4092,-15.232 c -1.1018,-0.5138 -1.7366,-1.1269 -1.9044,-1.8393 -0.1677,-0.7123 -0.0462,-1.5092 0.3648,-2.3907 l 5.3948,-11.5692 c 0.3364,-0.7212 0.7495,-1.2541 1.2394,-1.5988 0.4901,-0.3447 1.1256,-0.3348 1.907,0.0295 0.7813,0.3643 1.1974,0.8449 1.2483,1.4419 0.0509,0.5968 -0.0918,1.2558 -0.4281,1.9771 l -4.442,9.5257 4.6879,2.186 3.8954,-8.3539 c 0.2989,-0.6411 0.6787,-1.1285 1.1394,-1.4625 0.4605,-0.334 1.0714,-0.3235 1.8328,0.0314 0.7612,0.3551 1.162,0.8164 1.2022,1.3838 0.0402,0.5676 -0.0892,1.1718 -0.3882,1.813 l -3.8954,8.3537 5.2288,2.4382 4.554,-9.76621 c 0.3363,-0.721 0.7494,-1.254 1.2395,-1.5987 0.4899,-0.3447 1.1255,-0.3349 1.9069,0.0295 0.7812,0.3642 1.1973,0.8449 1.2483,1.4418 0.0508,0.5969 -0.0919,1.2559 -0.4281,1.9771 l -5.5069,11.8096 c -0.4111,0.8815 -0.9434,1.4868 -1.5969,1.8162 -0.6535,0.3293 -1.5314,0.2372 -2.6332,-0.2765 l -15.8663,-7.3987 z"
   style="fill:#000000;fill-opacity:1;fill-rule:nonzero" /><path
   inkscape:connector-curvature="0"
   id="path858"
   d="M 39.326675,62.01092 A 65.908504,65.908504 0 0 1 129.78989,39.554947 65.908504,65.908504 0 0 1 152.24585,130.01816 65.908504,65.908504 0 0 1 61.78265,152.47412 65.908504,65.908504 0 0 1 39.326675,62.01092 Z"
   style="fill:#ff0000;fill-opacity:0;stroke:#ffffff;stroke-width:0;stroke-miterlimit:4;stroke-dasharray:none;stroke-opacity:1" /><text
   id="text837"
   style="font-style:normal;font-variant:normal;font-weight:500;font-stretch:normal;font-size:33.4854px;line-height:1.25;font-family:'AG Book Rounded';-inkscape-font-specification:'AG Book Rounded, Medium';font-variant-ligatures:normal;font-variant-caps:normal;font-variant-numeric:normal;font-feature-settings:normal;text-align:start;letter-spacing:-1.56369px;word-spacing:0px;writing-mode:lr-tb;text-anchor:start;fill:#000000;fill-opacity:0.972574;stroke:none;stroke-width:0.837135"
   xml:space="preserve"><textPath
     id="textPath840"
     xlink:href="#path833"
     style="font-style:normal;font-variant:normal;font-weight:normal;font-stretch:normal;font-family:'AG Book Rounded';-inkscape-font-specification:'AG Book Rounded'">   INSTA?</textPath></text>
<g
   inkscape:label="Layer 1"
   id="g594"
   transform="matrix(0.21835959,0,0,0.21835959,67.608593,63.547183)"><path
     d="m 204.1503,18.1429 c -55.2305,0 -71.3834,0.057 -74.5232,0.3175 -11.3342,0.9424 -18.387,2.7275 -26.0708,6.554 -5.9214,2.9413 -10.5915,6.3506 -15.2005,11.1298 -8.3938,8.7157 -13.481,19.4383 -15.3226,32.1842 -0.8953,6.1877 -1.1558,7.4496 -1.2087,39.0558 -0.0203,10.5354 0,24.4007 0,42.9984 0,55.2008 0.061,71.3418 0.3256,74.4764 0.9157,11.032 2.6453,17.9728 6.3081,25.565 7,14.5329 20.369,25.4428 36.119,29.5137 5.4535,1.4044 11.4767,2.1779 19.2092,2.5442 3.2762,0.1425 36.6684,0.2443 70.081,0.2443 33.4127,0 66.8253,-0.0407 70.02,-0.2035 8.9535,-0.4214 14.1526,-1.1195 19.9011,-2.6054 15.8517,-4.0912 28.9767,-14.8383 36.119,-29.5748 3.5916,-7.409 5.4128,-14.6144 6.237,-25.0704 0.179,-2.2796 0.2543,-38.6263 0.2543,-74.924 0,-36.304 -0.0814,-72.5835 -0.2605,-74.8632 -0.8343,-10.6249 -2.6555,-17.7692 -6.363,-25.3207 -3.0421,-6.1816 -6.42,-10.798 -11.324,-15.518 -8.752,-8.3616 -19.4555,-13.4502 -32.2101,-15.2902 -6.18,-0.8936 -7.411,-1.1582 -39.033,-1.2131 z"
     inkscape:connector-curvature="0"
     fill="url(#e)"
     transform="translate(-71.8155,-18.1429)"
     id="path584"
     style="fill:url(#e)" /><path
     d="m 204.1503,18.1429 c -55.2305,0 -71.3834,0.057 -74.5232,0.3175 -11.3342,0.9424 -18.387,2.7275 -26.0708,6.554 -5.9214,2.9413 -10.5915,6.3506 -15.2005,11.1298 -8.3938,8.7157 -13.481,19.4383 -15.3226,32.1842 -0.8953,6.1877 -1.1558,7.4496 -1.2087,39.0558 -0.0203,10.5354 0,24.4007 0,42.9984 0,55.2008 0.061,71.3418 0.3256,74.4764 0.9157,11.032 2.6453,17.9728 6.3081,25.565 7,14.5329 20.369,25.4428 36.119,29.5137 5.4535,1.4044 11.4767,2.1779 19.2092,2.5442 3.2762,0.1425 36.6684,0.2443 70.081,0.2443 33.4127,0 66.8253,-0.0407 70.02,-0.2035 8.9535,-0.4214 14.1526,-1.1195 19.9011,-2.6054 15.8517,-4.0912 28.9767,-14.8383 36.119,-29.5748 3.5916,-7.409 5.4128,-14.6144 6.237,-25.0704 0.179,-2.2796 0.2543,-38.6263 0.2543,-74.924 0,-36.304 -0.0814,-72.5835 -0.2605,-74.8632 -0.8343,-10.6249 -2.6555,-17.7692 -6.363,-25.3207 -3.0421,-6.1816 -6.42,-10.798 -11.324,-15.518 -8.752,-8.3616 -19.4555,-13.4502 -32.2101,-15.2902 -6.18,-0.8936 -7.411,-1.1582 -39.033,-1.2131 z"
     inkscape:connector-curvature="0"
     fill="url(#f)"
     transform="translate(-71.8155,-18.1429)"
     id="path586"
     style="fill:url(#f)" /><path
     d="m 204.1503,18.1429 c -55.2305,0 -71.3834,0.057 -74.5232,0.3175 -11.3342,0.9424 -18.387,2.7275 -26.0708,6.554 -5.9214,2.9413 -10.5915,6.3506 -15.2005,11.1298 -8.3938,8.7157 -13.481,19.4383 -15.3226,32.1842 -0.8953,6.1877 -1.1558,7.4496 -1.2087,39.0558 -0.0203,10.5354 0,24.4007 0,42.9984 0,55.2008 0.061,71.3418 0.3256,74.4764 0.9157,11.032 2.6453,17.9728 6.3081,25.565 7,14.5329 20.369,25.4428 36.119,29.5137 5.4535,1.4044 11.4767,2.1779 19.2092,2.5442 3.2762,0.1425 36.6684,0.2443 70.081,0.2443 33.4127,0 66.8253,-0.0407 70.02,-0.2035 8.9535,-0.4214 14.1526,-1.1195 19.9011,-2.6054 15.8517,-4.0912 28.9767,-14.8383 36.119,-29.5748 3.5916,-7.409 5.4128,-14.6144 6.237,-25.0704 0.179,-2.2796 0.2543,-38.6263 0.2543,-74.924 0,-36.304 -0.0814,-72.5835 -0.2605,-74.8632 -0.8343,-10.6249 -2.6555,-17.7692 -6.363,-25.3207 -3.0421,-6.1816 -6.42,-10.798 -11.324,-15.518 -8.752,-8.3616 -19.4555,-13.4502 -32.2101,-15.2902 -6.18,-0.8936 -7.411,-1.1582 -39.033,-1.2131 z"
     inkscape:connector-curvature="0"
     fill="url(#g)"
     transform="translate(-71.8155,-18.1429)"
     id="path588"
     style="fill:url(#g)" /><path
     d="m 204.1503,18.1429 c -55.2305,0 -71.3834,0.057 -74.5232,0.3175 -11.3342,0.9424 -18.387,2.7275 -26.0708,6.554 -5.9214,2.9413 -10.5915,6.3506 -15.2005,11.1298 -8.3938,8.7157 -13.481,19.4383 -15.3226,32.1842 -0.8953,6.1877 -1.1558,7.4496 -1.2087,39.0558 -0.0203,10.5354 0,24.4007 0,42.9984 0,55.2008 0.061,71.3418 0.3256,74.4764 0.9157,11.032 2.6453,17.9728 6.3081,25.565 7,14.5329 20.369,25.4428 36.119,29.5137 5.4535,1.4044 11.4767,2.1779 19.2092,2.5442 3.2762,0.1425 36.6684,0.2443 70.081,0.2443 33.4127,0 66.8253,-0.0407 70.02,-0.2035 8.9535,-0.4214 14.1526,-1.1195 19.9011,-2.6054 15.8517,-4.0912 28.9767,-14.8383 36.119,-29.5748 3.5916,-7.409 5.4128,-14.6144 6.237,-25.0704 0.179,-2.2796 0.2543,-38.6263 0.2543,-74.924 0,-36.304 -0.0814,-72.5835 -0.2605,-74.8632 -0.8343,-10.6249 -2.6555,-17.7692 -6.363,-25.3207 -3.0421,-6.1816 -6.42,-10.798 -11.324,-15.518 -8.752,-8.3616 -19.4555,-13.4502 -32.2101,-15.2902 -6.18,-0.8936 -7.411,-1.1582 -39.033,-1.2131 z"
     inkscape:connector-curvature="0"
     fill="url(#h)"
     transform="translate(-71.8155,-18.1429)"
     id="path590"
     style="fill:url(#h)" /><path
     d="m 132.3452,33.973 c -26.7167,0 -30.0696,0.1167 -40.5629,0.5939 -10.4727,0.4792 -17.6212,2.136 -23.8762,4.567 -6.4701,2.5107 -11.9586,5.8693 -17.4265,11.3352 -5.472,5.464 -8.8332,10.9483 -11.354,17.4116 -2.4389,6.2524 -4.099,13.3976 -4.5703,23.8585 -0.4693,10.4854 -0.5923,13.8379 -0.5923,40.5348 0,26.697 0.1189,30.0371 0.5943,40.5225 0.4817,10.465 2.1397,17.6082 4.5703,23.8585 2.5147,6.4654 5.8758,11.9497 11.3458,17.4136 5.466,5.468 10.9544,8.8349 17.4204,11.3456 6.259,2.4309 13.4097,4.0877 23.8803,4.567 10.4933,0.477 13.8441,0.5938 40.5588,0.5938 26.7188,0 30.0615,-0.1167 40.5547,-0.5939 10.4728,-0.4792 17.6295,-2.136 23.8885,-4.567 6.4681,-2.5106 11.9484,-5.8775 17.4143,-11.3455 5.472,-5.4639 8.8332,-10.9482 11.354,-17.4115 2.4183,-6.2524 4.0784,-13.3976 4.5703,-23.8585 0.4713,-10.4854 0.5943,-13.8277 0.5943,-40.5246 0,-26.697 -0.123,-30.0473 -0.5943,-40.5328 -0.4919,-10.465 -2.152,-17.6081 -4.5703,-23.8584 -2.5208,-6.4654 -5.882,-11.9498 -11.354,-17.4137 C 208.7183,45.0011 203.2462,41.6425 196.77,39.1338 190.4986,36.7029 183.346,35.0461 172.8733,34.5669 162.38,34.0897 159.0394,33.973 132.3145,33.973 Z m -8.825,17.7147 c 2.6193,-0.0041 5.5418,0 8.825,0 26.2659,0 29.379,0.0942 39.7513,0.5652 9.5915,0.4383 14.7971,2.0397 18.2648,3.3852 4.5908,1.7817 7.8638,3.9116 11.3048,7.3521 3.4431,3.4406 5.5745,6.7173 7.3617,11.3046 1.3465,3.461 2.9512,8.6628 3.3877,18.2472 0.4714,10.3625 0.5739,13.4754 0.5739,39.7095 0,26.234 -0.1025,29.347 -0.5739,39.7095 -0.4386,9.5843 -2.0412,14.7861 -3.3877,18.2471 -1.783,4.5874 -3.9186,7.8539 -7.3617,11.2923 -3.443,3.4406 -6.712,5.5704 -11.3048,7.3521 -3.4636,1.3517 -8.6733,2.949 -18.2648,3.3873 -10.3702,0.471 -13.4854,0.5734 -39.7513,0.5734 -26.2679,0 -29.381,-0.1024 -39.7513,-0.5734 -9.5914,-0.4423 -14.797,-2.0438 -18.2668,-3.3893 -4.5908,-1.7817 -7.87,-3.9116 -11.313,-7.3521 -3.4431,-3.4405 -5.5745,-6.709 -7.3617,-11.2985 -1.3465,-3.461 -2.9512,-8.6628 -3.3877,-18.2471 -0.4714,-10.3626 -0.5657,-13.4754 -0.5657,-39.7259 0,-26.2504 0.0943,-29.347 0.5657,-39.7095 0.4386,-9.5844 2.0412,-14.7861 3.3877,-18.2512 1.783,-4.5874 3.9186,-7.8641 7.3617,-11.3046 3.443,-3.4406 6.7222,-5.5704 11.313,-7.3562 3.4677,-1.3517 8.6754,-2.949 18.2668,-3.3894 9.075,-0.4096 12.5919,-0.5324 30.9264,-0.553 z m 61.3363,16.322 c -6.5173,0 -11.805,5.2776 -11.805,11.792 0,6.5125 5.2877,11.7962 11.805,11.7962 6.5172,0 11.8049,-5.2837 11.8049,-11.7962 0,-6.5124 -5.2877,-11.796 -11.805,-11.796 z m -52.5113,13.7826 c -27.8993,0 -50.5191,22.6031 -50.5191,50.4817 0,27.8786 22.6198,50.4714 50.5191,50.4714 27.8993,0 50.511,-22.5928 50.511,-50.4714 0,-27.8786 -22.6137,-50.4817 -50.513,-50.4817 z m 0,17.7147 c 18.109,0 32.7914,14.6694 32.7914,32.767 0,18.0956 -14.6824,32.767 -32.7914,32.767 -18.111,0 -32.7913,-14.6714 -32.7913,-32.767 0,-18.0976 14.6803,-32.767 32.7913,-32.767 z"
     inkscape:connector-curvature="0"
     fill="#ffffff"
     id="path592" /></g></g></g></g>
 </g>
<style
   id="style1793"
   type="text/css">
	.st0{fill:#4285F4;}
	.st1{fill:#34A853;}
	.st2{fill:#FBBC04;}
	.st3{fill:#EA4335;}
</style></svg>
