<?xml version="1.0" encoding="UTF-8"?>
<!-- Generator: Adobe Illustrator 16.0.0, SVG Export Plug-In . SVG Version: 6.00 Build 0)  -->
<svg width="334.14" height="463.9" enable-background="new 0 0 595.28 841.89" version="1.1" viewBox="0 0 334.14 463.9" xml:space="preserve" xmlns="http://www.w3.org/2000/svg" xmlns:cc="http://creativecommons.org/ns#" xmlns:dc="http://purl.org/dc/elements/1.1/" xmlns:rdf="http://www.w3.org/1999/02/22-rdf-syntax-ns#" xmlns:xlink="http://www.w3.org/1999/xlink"><metadata><rdf:RDF><cc:Work rdf:about=""><dc:format>image/svg+xml</dc:format><dc:type rdf:resource="http://purl.org/dc/dcmitype/StillImage"/></cc:Work></rdf:RDF></metadata><defs><clipPath id="clipPath5978"><path d="m250.94 437.53 3.2188 2.125-1.7812 2.6875-3.2188-2.125zm-6.5312-4.2812 2.375 1.5625-1.7812 2.6875-2.375-1.5625zm-159.37-1.6875c-4.2614 0.0565-6.5905 1.447-7 4.1875-0.197 1.266-0.0652 2.416 0.46875 3.375 0.545 0.97299 1.4557 1.7527 2.7187 2.3437 1.273 0.619 2.5777 1.1198 3.9687 1.4688 1.36 0.347 3.0355 0.66575 5.0625 0.96875 0.942 0.151 2.3905 0.3235 4.3125 0.5625 1.916 0.249 3.3575 0.44275 4.3125 0.59375l1.75-11.5-10.687-1.5938c-1.8472-0.2775-3.4858-0.42509-4.9062-0.40625zm152.84-2.625 2.3438 1.5625-1.7812 2.6875-2.375-1.5625zm-6.5312-4.3125 2.3438 1.5625-1.7812 2.6875-2.375-1.5625zm-6.5625-4.3125 2.3437 1.5625-1.7812 2.6875-2.3438-1.5625zm-6.5312-4.3125 2.375 1.5625-1.8125 2.6875-2.375-1.5625zm-6.5625-4.3125 2.375 1.5625-1.7812 2.6875-2.375-1.5625zm-6.5312-4.3125 2.375 1.5625-1.7812 2.6875-2.375-1.5625zm-7.2187-4.75 3.0625 2-1.7812 2.6875-3.0625-2zm-106.56-66.219c0.6647-0.0175 1.3335-0.0198 2.0312 0 1.8607 0.0528 3.8387 0.24525 5.9375 0.5625l79.187 11.906-3.625 24.187-76.687-11.562c-2.145-0.316-4.095-0.14725-5.875 0.46875-1.785 0.612-2.8027 1.8672-3.0937 3.7812-0.18 1.174 0.0145 2.2655 0.5625 3.1875 0.525 0.915 1.1837 1.6422 1.9687 2.1562 0.785 0.514 1.8485 0.97225 3.1875 1.4062 1.327 0.438 2.3567 0.71275 3.0937 0.84375 0.727 0.135 1.6537 0.28275 2.8438 0.46875l72.25 10.875-3.7187 24.5-102.72-15.469 3.6875-24.5 11.75 1.7812c-4.281-1.661-7.2475-4.0185-8.9375-7.0625-1.686-3.024-2.2392-6.493-1.6562-10.375 0.972-6.425 3.7335-11.108 8.3125-14.062 2.9945-1.9405 6.8471-2.9715 11.5-3.0938zm-5.4375-42.969 18.687 2.8125-0.65625 4.375 57.781 8.6875c0.859 0.13499 1.5585 0.21299 2.0625 0.24999 0.514 0.033 1.03 0.0267 1.625-0.0312 0.591-0.047 1.08-0.24374 1.375-0.59374 0.32-0.347 0.49475-0.82425 0.59375-1.4062 0.086-0.588 0.097-1.1905 0-1.8125l16.687 2.5c0.668 3.646 0.62575 8.0957-0.15625 13.344-0.402 2.644-1.1048 4.8632-2.0938 6.6562-1.006 1.776-2.0982 3.1362-3.2812 4.0312-1.188 0.885-2.6298 1.5252-4.3438 1.9062-1.721 0.363-3.306 0.50875-4.75 0.46875-1.44-0.058-3.063-0.225-4.875-0.5l-64.219-9.6875-0.5625 3.7812-18.687-2.8125 0.5625-3.7812-21.844-3.2812 3.5937-23.812 21.844 3.2812 0.65625-4.375zm17.406-65.031c1.2086-0.0406 2.4808 0.0522 3.8125 0.25l34.375 5.1875-3.5938 23.937-24.594-3.6875c-1.228-0.195-2.26-0.2945-3.125-0.3125-0.861-0.014-1.7308 0.249-2.5938 0.75-0.868 0.494-1.3925 1.3318-1.5625 2.4688-0.178 1.184 0.19275 2.311 1.0938 3.375 0.92 1.08 2.2778 1.7592 4.0938 2.0312l78.531 11.812-3.6875 24.5-102.69-15.469 3.7187-24.5 11.406 1.7188c-4.493-2.082-7.4717-4.4768-8.9687-7.2188-1.495-2.752-1.9772-6.0405-1.4062-9.8125 0.687-4.571 2.686-8.3622 6-11.406 2.4982-2.2912 5.5617-3.5033 9.1875-3.625zm18.812-40.906c-4.0341-7e-3 -6.2763 1.5772-6.75 4.6875-0.577 3.83 2.1227 6.1957 8.0937 7.0937l50.187 7.5312c2.738 0.41 4.8008 0.2045 6.2188-0.6875 1.412-0.885 2.253-2.179 2.5-3.875 0.258-1.689-0.168-3.1482-1.25-4.4062-1.098-1.258-3.008-2.086-5.75-2.5l-50.156-7.5625c-1.1207-0.16781-2.1628-0.27974-3.0938-0.28125zm3.6875-24.687c2.2508-0.0113 4.6087 0.1915 7.0625 0.56249l41.219 6.1875c10.731 1.618 18.314 5.4508 22.812 11.469 4.52 6.025 6.0372 14.056 4.5312 24.094-3.083 20.447-15.303 29.063-36.625 25.844l-41.187-6.1875c-9.813-1.486-17.179-5.406-22.094-11.75-4.937-6.332-6.678-14.25-5.25-23.75 1.44-9.537 5.4522-16.61 12.031-21.219 4.9245-3.459 10.748-5.216 17.5-5.25zm6.3125-46.125c-0.42088 0.0113-0.79125 0.0525-1.0938 0.125-0.609 0.142-1.3035 0.37025-2.0625 0.65625-0.771 0.282-1.3482 0.7105-1.7812 1.3125-0.403 0.619-0.70075 1.3975-0.84375 2.3125-0.574 3.829 2.6955 6.2678 9.8125 7.3438l45 6.7812c3.686 0.562 6.4915 0.52415 8.4375-0.0937 1.936-0.609 3.0832-2.0102 3.4062-4.1562 0.291-1.911-0.4525-3.4-2.1875-4.5-1.725-1.107-4.7315-1.9972-9.0625-2.6562l-43.594-6.5626c-1.07-0.148-1.8202-0.23725-2.2812-0.28125-0.466-0.05-1.2305-0.13175-2.3125-0.21875-0.545-0.0505-1.0166-0.0738-1.4375-0.0625zm127.66-22 5.7188 0.78125-0.6875 4.75-5.6875-0.8125zm-21.406-3.0312 5.7187 0.8125-0.6875 4.75-5.6875-0.8125zm-106.16-0.0937c2.92 0.047 6.1322 0.31275 9.6562 0.84375l37.594 5.6562c0.09 0.01 0.19475 0.0395 0.34375 0.0625 3.271 0.505 5.7747 0.8845 7.4687 1.1875 1.711 0.313 4.0708 0.8255 7.0938 1.5625 3.009 0.727 5.3305 1.4932 6.9375 2.2812 1.603 0.767 3.46 1.8682 5.5 3.2812 2.059 1.402 3.5245 2.937 4.4375 4.625 0.908 1.706 1.5988 3.8407 2.0937 6.3437 0.478 2.496 0.49235 5.2575 0.0312 8.3125-0.93599 6.173-3.384 10.585-7.375 13.25l16.75 2.5-3.75 24.937-115.41-17.375 3.75-24.937 5.5625 0.84375c-3.964-4.376-5.4925-9.5968-4.5625-15.719 0.488-3.291 1.445-6.128 2.875-8.5 1.438-2.361 3.1685-4.2252 5.1875-5.5312 2.008-1.309 4.4308-2.2687 7.2188-2.8437 2.801-0.582 5.6598-0.82925 8.5937-0.78125zm99.125-16.25c-0.13013 0.0207-0.265 0.063-0.375 0.125-0.225 0.129-0.39325 0.329-0.53125 0.625-0.142 0.293-0.26775 0.58425-0.34375 0.90625-0.076 0.317-0.15475 0.7225-0.21875 1.1875-0.032 0.225-0.07 0.552-0.125 1-0.053 0.442-0.092 0.775-0.125 1l2.6875 0.40625 0.34375-2.5c0.243-1.719-0.0583-2.632-0.90625-2.75-0.1505-0.023-0.27612-0.0208-0.40625 0zm16.219-3.375 5.6562 0.8125-0.8125 17.031 4.0625-16.594 5.625 0.8125-7 24.875-7.6562-1.0937zm-16.75-1.0312c0.51252-2e-3 1.0288 0.0467 1.5938 0.125 4.581 0.649 6.5775 3.231 5.9375 7.75l-0.25 1.75c-0.306 2.153-0.5325 3.6072-0.6875 4.4062l-8.2812-1.1562-0.46875 3.3437c-0.016 0.102-0.0519 0.29325-0.0937 0.53125-0.038 0.24-0.0425 0.40225-0.0625 0.53125-0.055 0.379-0.0858 0.722-0.0937 1-3e-3 0.272 0.0155 0.54375 0.0625 0.84375 0.044 0.289 0.1385 0.5185 0.3125 0.6875 0.176 0.168 0.41975 0.2695 0.71875 0.3125 0.307 0.042 0.56125-0.0288 0.78125-0.21875 0.223-0.189 0.4215-0.477 0.5625-0.875 0.136-0.397 0.2445-0.7445 0.3125-1.0625 0.064-0.315 0.1165-0.7125 0.1875-1.1875 0.13-0.933 0.1975-1.4392 0.1875-1.5312l5.6562 0.78125-0.1875 1.375c-0.186 1.328-0.45425 2.4407-0.78125 3.3437-0.335 0.905-0.8165 1.7-1.4375 2.375-0.617 0.678-1.4335 1.1078-2.4375 1.3438-1.013 0.236-2.2262 0.2605-3.6562 0.0625-0.85-0.121-1.6192-0.32175-2.2812-0.59375-0.667-0.273-1.187-0.55625-1.625-0.90625-0.432-0.348-0.80975-0.774-1.0938-1.25-0.284-0.479-0.488-0.9665-0.625-1.4375-0.144-0.474-0.24025-1.0057-0.28125-1.5937-0.042-0.588-0.031-1.129 0-1.625 0.031-0.493 0.0722-1.031 0.15625-1.625l1.375-9.5937c0.311-2.198 1.1708-3.7982 2.5938-4.7812 1.0657-0.74025 2.3687-1.118 3.9062-1.125zm-112.87-17.531 102.75 15.5-3.6875 24.5-102.75-15.469zm-18.344-2.75 12.031 1.8125-3.6875 24.5-12.031-1.8125zm74.781-33.969c1.046 4.447 2.593 7.575 4.625 9.375 2.041 1.799 4.6068 2.9392 7.7187 3.4062l11.969 1.8125c6.079 0.918 9.3925-0.471 9.9375-4.125 0.149-1-0.01-1.9157-0.4375-2.7187-0.44-0.817-1.06-1.4395-1.875-1.9375-0.803-0.501-1.5932-0.89425-2.4062-1.1562-0.803-0.249-1.639-0.4315-2.5-0.5625zm-107.81-16.656-66.594 83.531v380.37h71.812c-3.3324-1.8818-6.0344-4.3431-8.0938-7.375-4.188-6.163-5.5325-14.1-4.0625-23.812 2.969-19.729 14.153-28.107 33.594-25.187l7.4687 1.125c9.27 1.396 15.621 2.4492 19.062 3.1562l-5.375 35.594 14.375 2.1562c0.459 0.067 1.2127 0.193 2.2187 0.375 1.022 0.186 1.828 0.298 2.375 0.375 1.64 0.256 3.0378 0.3995 4.2188 0.4375 1.177 0.03 2.4075-0.0297 3.6875-0.21875 1.247-0.185 2.261-0.64725 3-1.4062 0.75-0.75 1.2142-1.7422 1.4062-3.0312 0.198-1.318-0.0842-2.4855-0.90625-3.4375-0.806-0.969-2.0612-1.7278-3.7812-2.3438-1.688-0.608-3.2398-1.0547-4.5938-1.3437-1.359-0.306-3.0568-0.60725-5.0938-0.90625-4.04-0.616-6.2187-0.922-6.5937-0.875l3.6562-24.375 5.8125 0.875c5.702 0.854 10.498 2.037 14.375 3.5 3.884 1.478 7.2782 3.5772 10.156 6.2812 2.885 2.682 4.8325 6.1852 5.8125 10.531 0.984 4.341 0.9935 9.6182 0.0625 15.781-0.553 3.657-1.439 6.896-2.625 9.75-0.69216 1.6341-1.4311 3.0741-2.2188 4.375h174.41v-217.09c-10.96 35.653-22.957 57.853-27.125 65l15.437 10.219 0.4375 2.5938-11.562-7.6875-2.7812 4.1562 15.5 10.281 0.84375 5-18.375-12.219-2.7812 4.1875 22.281 14.812 0.84375 5-25.156-16.75-2.7812 4.1875 29.094 19.344v0.0312l-61.281 92.594-12.375-8.1875 22.375-33.937-18.437-12.188 26.375-40-17.812-11.781-26.375 39.969-19.875-13.125-22.375 33.937-12.875-8.5312 61.312-92.594 0.125-0.0312 31.125 20.687 2.7812-4.1562-27.812-18.5 4.5-1.4688 25.344 16.875 2.7812-4.1562-22.062-14.656 4.5-1.4688 19.594 13.031 2.7812-4.1562-16.312-10.844 2.3125-0.75 19.844 13.125c5.8198-9.9707 26.434-48.625 37.969-113.16v-107.97l-78.094-83.531h-24.969l-3.6562 24.219-10.687-1.5937c2.874 1.268 5.359 3.5722 7.375 6.9062 2.02 3.333 2.769 6.7252 2.25 10.156-0.365 2.463-0.94025 4.5932-1.6562 6.4062-0.705 1.803-1.8568 3.5437-3.4688 5.2187-1.593 1.665-3.608 2.9345-6 3.8125-2.401 0.881-5.5157 1.3957-9.3437 1.5937-3.833 0.183-8.2867-0.0838-13.344-0.84375-9.08-1.369-15.692-3.741-19.844-7.125-3.574-2.92-6.295-7.475-8.125-13.625-0.932-3.128-2.3392-10.009-4.2812-20.656-0.057-3e-3 -0.12175-0.0113-0.21875-0.0312-1.463-0.219-2.6585-0.385-3.5625-0.5-0.923-0.121-1.9548-0.25525-3.0938-0.40625-1.155-0.145-2.062-0.2545-2.75-0.3125-0.685-0.05-1.4522-0.095-2.2812-0.125-0.841-0.04-1.4835-0.04-1.9375 0-0.446 0.05-0.938 0.15625-1.5 0.28125-0.552 0.118-0.9955 0.294-1.3125 0.5-0.31799 0.215-0.59699 0.467-0.87499 0.75-0.271 0.286-0.49225 0.6485-0.65625 1.0625-0.148 0.424-0.26475 0.874-0.34375 1.375-0.496 3.384 1.1128 5.3685 4.8437 5.9375l6.9062 1.0312-3.5938 23.812c-0.774-0.078-1.8768-0.2195-3.3438-0.4375-9.768-1.467-16.561-4.8655-20.406-10.187-3.84-5.318-4.9405-13.391-3.3125-24.25 0.539-3.512 1.537-6.864 3-10 0.48408-1.0263 1.0164-2.0076 1.5938-2.9687zm187.47 399.65-17.822-11.776 4.141-6.271 17.815 11.777z" color="#000000" enable-background="accumulate" fill="#ea5b0c" font-family="Sans" style="line-height:normal;text-decoration-line:none;text-indent:0;text-transform:none"/></clipPath><clipPath id="clipPath5982"><path d="m250.94 437.53 3.2188 2.125-1.7812 2.6875-3.2188-2.125zm-6.5312-4.2812 2.375 1.5625-1.7812 2.6875-2.375-1.5625zm-159.37-1.6875c-4.2614 0.0565-6.5905 1.447-7 4.1875-0.197 1.266-0.0652 2.416 0.46875 3.375 0.545 0.97299 1.4557 1.7527 2.7187 2.3437 1.273 0.619 2.5777 1.1198 3.9687 1.4688 1.36 0.347 3.0355 0.66575 5.0625 0.96875 0.942 0.151 2.3905 0.3235 4.3125 0.5625 1.916 0.249 3.3575 0.44275 4.3125 0.59375l1.75-11.5-10.687-1.5938c-1.8472-0.2775-3.4858-0.42509-4.9062-0.40625zm152.84-2.625 2.3438 1.5625-1.7812 2.6875-2.375-1.5625zm-6.5312-4.3125 2.3438 1.5625-1.7812 2.6875-2.375-1.5625zm-6.5625-4.3125 2.3437 1.5625-1.7812 2.6875-2.3438-1.5625zm-6.5312-4.3125 2.375 1.5625-1.8125 2.6875-2.375-1.5625zm-6.5625-4.3125 2.375 1.5625-1.7812 2.6875-2.375-1.5625zm-6.5312-4.3125 2.375 1.5625-1.7812 2.6875-2.375-1.5625zm-7.2187-4.75 3.0625 2-1.7812 2.6875-3.0625-2zm-106.56-66.219c0.6647-0.0175 1.3335-0.0198 2.0312 0 1.8607 0.0528 3.8387 0.24525 5.9375 0.5625l79.187 11.906-3.625 24.187-76.687-11.562c-2.145-0.316-4.095-0.14725-5.875 0.46875-1.785 0.612-2.8027 1.8672-3.0937 3.7812-0.18 1.174 0.0145 2.2655 0.5625 3.1875 0.525 0.915 1.1837 1.6422 1.9687 2.1562 0.785 0.514 1.8485 0.97225 3.1875 1.4062 1.327 0.438 2.3567 0.71275 3.0937 0.84375 0.727 0.135 1.6537 0.28275 2.8438 0.46875l72.25 10.875-3.7187 24.5-102.72-15.469 3.6875-24.5 11.75 1.7812c-4.281-1.661-7.2475-4.0185-8.9375-7.0625-1.686-3.024-2.2392-6.493-1.6562-10.375 0.972-6.425 3.7335-11.108 8.3125-14.062 2.9945-1.9405 6.8471-2.9715 11.5-3.0938zm-5.4375-42.969 18.687 2.8125-0.65625 4.375 57.781 8.6875c0.859 0.13499 1.5585 0.21299 2.0625 0.24999 0.514 0.033 1.03 0.0267 1.625-0.0312 0.591-0.047 1.08-0.24374 1.375-0.59374 0.32-0.347 0.49475-0.82425 0.59375-1.4062 0.086-0.588 0.097-1.1905 0-1.8125l16.687 2.5c0.668 3.646 0.62575 8.0957-0.15625 13.344-0.402 2.644-1.1048 4.8632-2.0938 6.6562-1.006 1.776-2.0982 3.1362-3.2812 4.0312-1.188 0.885-2.6298 1.5252-4.3438 1.9062-1.721 0.363-3.306 0.50875-4.75 0.46875-1.44-0.058-3.063-0.225-4.875-0.5l-64.219-9.6875-0.5625 3.7812-18.687-2.8125 0.5625-3.7812-21.844-3.2812 3.5937-23.812 21.844 3.2812 0.65625-4.375zm17.406-65.031c1.2086-0.0406 2.4808 0.0522 3.8125 0.25l34.375 5.1875-3.5938 23.937-24.594-3.6875c-1.228-0.195-2.26-0.2945-3.125-0.3125-0.861-0.014-1.7308 0.249-2.5938 0.75-0.868 0.494-1.3925 1.3318-1.5625 2.4688-0.178 1.184 0.19275 2.311 1.0938 3.375 0.92 1.08 2.2778 1.7592 4.0938 2.0312l78.531 11.812-3.6875 24.5-102.69-15.469 3.7187-24.5 11.406 1.7188c-4.493-2.082-7.4717-4.4768-8.9687-7.2188-1.495-2.752-1.9772-6.0405-1.4062-9.8125 0.687-4.571 2.686-8.3622 6-11.406 2.4982-2.2912 5.5617-3.5033 9.1875-3.625zm18.812-40.906c-4.0341-7e-3 -6.2763 1.5772-6.75 4.6875-0.577 3.83 2.1227 6.1957 8.0937 7.0937l50.187 7.5312c2.738 0.41 4.8008 0.2045 6.2188-0.6875 1.412-0.885 2.253-2.179 2.5-3.875 0.258-1.689-0.168-3.1482-1.25-4.4062-1.098-1.258-3.008-2.086-5.75-2.5l-50.156-7.5625c-1.1207-0.16781-2.1628-0.27974-3.0938-0.28125zm3.6875-24.687c2.2508-0.0113 4.6087 0.1915 7.0625 0.56249l41.219 6.1875c10.731 1.618 18.314 5.4508 22.812 11.469 4.52 6.025 6.0372 14.056 4.5312 24.094-3.083 20.447-15.303 29.063-36.625 25.844l-41.187-6.1875c-9.813-1.486-17.179-5.406-22.094-11.75-4.937-6.332-6.678-14.25-5.25-23.75 1.44-9.537 5.4522-16.61 12.031-21.219 4.9245-3.459 10.748-5.216 17.5-5.25zm6.3125-46.125c-0.42088 0.0113-0.79125 0.0525-1.0938 0.125-0.609 0.142-1.3035 0.37025-2.0625 0.65625-0.771 0.282-1.3482 0.7105-1.7812 1.3125-0.403 0.619-0.70075 1.3975-0.84375 2.3125-0.574 3.829 2.6955 6.2678 9.8125 7.3438l45 6.7812c3.686 0.562 6.4915 0.52415 8.4375-0.0937 1.936-0.609 3.0832-2.0102 3.4062-4.1562 0.291-1.911-0.4525-3.4-2.1875-4.5-1.725-1.107-4.7315-1.9972-9.0625-2.6562l-43.594-6.5626c-1.07-0.148-1.8202-0.23725-2.2812-0.28125-0.466-0.05-1.2305-0.13175-2.3125-0.21875-0.545-0.0505-1.0166-0.0738-1.4375-0.0625zm127.66-22 5.7188 0.78125-0.6875 4.75-5.6875-0.8125zm-21.406-3.0312 5.7187 0.8125-0.6875 4.75-5.6875-0.8125zm-106.16-0.0937c2.92 0.047 6.1322 0.31275 9.6562 0.84375l37.594 5.6562c0.09 0.01 0.19475 0.0395 0.34375 0.0625 3.271 0.505 5.7747 0.8845 7.4687 1.1875 1.711 0.313 4.0708 0.8255 7.0938 1.5625 3.009 0.727 5.3305 1.4932 6.9375 2.2812 1.603 0.767 3.46 1.8682 5.5 3.2812 2.059 1.402 3.5245 2.937 4.4375 4.625 0.908 1.706 1.5988 3.8407 2.0937 6.3437 0.478 2.496 0.49235 5.2575 0.0312 8.3125-0.93599 6.173-3.384 10.585-7.375 13.25l16.75 2.5-3.75 24.937-115.41-17.375 3.75-24.937 5.5625 0.84375c-3.964-4.376-5.4925-9.5968-4.5625-15.719 0.488-3.291 1.445-6.128 2.875-8.5 1.438-2.361 3.1685-4.2252 5.1875-5.5312 2.008-1.309 4.4308-2.2687 7.2188-2.8437 2.801-0.582 5.6598-0.82925 8.5937-0.78125zm99.125-16.25c-0.13013 0.0207-0.265 0.063-0.375 0.125-0.225 0.129-0.39325 0.329-0.53125 0.625-0.142 0.293-0.26775 0.58425-0.34375 0.90625-0.076 0.317-0.15475 0.7225-0.21875 1.1875-0.032 0.225-0.07 0.552-0.125 1-0.053 0.442-0.092 0.775-0.125 1l2.6875 0.40625 0.34375-2.5c0.243-1.719-0.0583-2.632-0.90625-2.75-0.1505-0.023-0.27612-0.0208-0.40625 0zm16.219-3.375 5.6562 0.8125-0.8125 17.031 4.0625-16.594 5.625 0.8125-7 24.875-7.6562-1.0937zm-16.75-1.0312c0.51252-2e-3 1.0288 0.0467 1.5938 0.125 4.581 0.649 6.5775 3.231 5.9375 7.75l-0.25 1.75c-0.306 2.153-0.5325 3.6072-0.6875 4.4062l-8.2812-1.1562-0.46875 3.3437c-0.016 0.102-0.0519 0.29325-0.0937 0.53125-0.038 0.24-0.0425 0.40225-0.0625 0.53125-0.055 0.379-0.0858 0.722-0.0937 1-3e-3 0.272 0.0155 0.54375 0.0625 0.84375 0.044 0.289 0.1385 0.5185 0.3125 0.6875 0.176 0.168 0.41975 0.2695 0.71875 0.3125 0.307 0.042 0.56125-0.0288 0.78125-0.21875 0.223-0.189 0.4215-0.477 0.5625-0.875 0.136-0.397 0.2445-0.7445 0.3125-1.0625 0.064-0.315 0.1165-0.7125 0.1875-1.1875 0.13-0.933 0.1975-1.4392 0.1875-1.5312l5.6562 0.78125-0.1875 1.375c-0.186 1.328-0.45425 2.4407-0.78125 3.3437-0.335 0.905-0.8165 1.7-1.4375 2.375-0.617 0.678-1.4335 1.1078-2.4375 1.3438-1.013 0.236-2.2262 0.2605-3.6562 0.0625-0.85-0.121-1.6192-0.32175-2.2812-0.59375-0.667-0.273-1.187-0.55625-1.625-0.90625-0.432-0.348-0.80975-0.774-1.0938-1.25-0.284-0.479-0.488-0.9665-0.625-1.4375-0.144-0.474-0.24025-1.0057-0.28125-1.5937-0.042-0.588-0.031-1.129 0-1.625 0.031-0.493 0.0722-1.031 0.15625-1.625l1.375-9.5937c0.311-2.198 1.1708-3.7982 2.5938-4.7812 1.0657-0.74025 2.3687-1.118 3.9062-1.125zm-112.87-17.531 102.75 15.5-3.6875 24.5-102.75-15.469zm-18.344-2.75 12.031 1.8125-3.6875 24.5-12.031-1.8125zm74.781-33.969c1.046 4.447 2.593 7.575 4.625 9.375 2.041 1.799 4.6068 2.9392 7.7187 3.4062l11.969 1.8125c6.079 0.918 9.3925-0.471 9.9375-4.125 0.149-1-0.01-1.9157-0.4375-2.7187-0.44-0.817-1.06-1.4395-1.875-1.9375-0.803-0.501-1.5932-0.89425-2.4062-1.1562-0.803-0.249-1.639-0.4315-2.5-0.5625zm-107.81-16.656-66.594 83.531v380.37h71.812c-3.3324-1.8818-6.0344-4.3431-8.0938-7.375-4.188-6.163-5.5325-14.1-4.0625-23.812 2.969-19.729 14.153-28.107 33.594-25.187l7.4687 1.125c9.27 1.396 15.621 2.4492 19.062 3.1562l-5.375 35.594 14.375 2.1562c0.459 0.067 1.2127 0.193 2.2187 0.375 1.022 0.186 1.828 0.298 2.375 0.375 1.64 0.256 3.0378 0.3995 4.2188 0.4375 1.177 0.03 2.4075-0.0297 3.6875-0.21875 1.247-0.185 2.261-0.64725 3-1.4062 0.75-0.75 1.2142-1.7422 1.4062-3.0312 0.198-1.318-0.0842-2.4855-0.90625-3.4375-0.806-0.969-2.0612-1.7278-3.7812-2.3438-1.688-0.608-3.2398-1.0547-4.5938-1.3437-1.359-0.306-3.0568-0.60725-5.0938-0.90625-4.04-0.616-6.2187-0.922-6.5937-0.875l3.6562-24.375 5.8125 0.875c5.702 0.854 10.498 2.037 14.375 3.5 3.884 1.478 7.2782 3.5772 10.156 6.2812 2.885 2.682 4.8325 6.1852 5.8125 10.531 0.984 4.341 0.9935 9.6182 0.0625 15.781-0.553 3.657-1.439 6.896-2.625 9.75-0.69216 1.6341-1.4311 3.0741-2.2188 4.375h174.41v-217.09c-10.96 35.653-22.957 57.853-27.125 65l15.437 10.219 0.4375 2.5938-11.562-7.6875-2.7812 4.1562 15.5 10.281 0.84375 5-18.375-12.219-2.7812 4.1875 22.281 14.812 0.84375 5-25.156-16.75-2.7812 4.1875 29.094 19.344v0.0312l-61.281 92.594-12.375-8.1875 22.375-33.937-18.437-12.188 26.375-40-17.812-11.781-26.375 39.969-19.875-13.125-22.375 33.937-12.875-8.5312 61.312-92.594 0.125-0.0312 31.125 20.687 2.7812-4.1562-27.812-18.5 4.5-1.4688 25.344 16.875 2.7812-4.1562-22.062-14.656 4.5-1.4688 19.594 13.031 2.7812-4.1562-16.312-10.844 2.3125-0.75 19.844 13.125c5.8198-9.9707 26.434-48.625 37.969-113.16v-107.97l-78.094-83.531h-24.969l-3.6562 24.219-10.687-1.5937c2.874 1.268 5.359 3.5722 7.375 6.9062 2.02 3.333 2.769 6.7252 2.25 10.156-0.365 2.463-0.94025 4.5932-1.6562 6.4062-0.705 1.803-1.8568 3.5437-3.4688 5.2187-1.593 1.665-3.608 2.9345-6 3.8125-2.401 0.881-5.5157 1.3957-9.3437 1.5937-3.833 0.183-8.2867-0.0838-13.344-0.84375-9.08-1.369-15.692-3.741-19.844-7.125-3.574-2.92-6.295-7.475-8.125-13.625-0.932-3.128-2.3392-10.009-4.2812-20.656-0.057-3e-3 -0.12175-0.0113-0.21875-0.0312-1.463-0.219-2.6585-0.385-3.5625-0.5-0.923-0.121-1.9548-0.25525-3.0938-0.40625-1.155-0.145-2.062-0.2545-2.75-0.3125-0.685-0.05-1.4522-0.095-2.2812-0.125-0.841-0.04-1.4835-0.04-1.9375 0-0.446 0.05-0.938 0.15625-1.5 0.28125-0.552 0.118-0.9955 0.294-1.3125 0.5-0.31799 0.215-0.59699 0.467-0.87499 0.75-0.271 0.286-0.49225 0.6485-0.65625 1.0625-0.148 0.424-0.26475 0.874-0.34375 1.375-0.496 3.384 1.1128 5.3685 4.8437 5.9375l6.9062 1.0312-3.5938 23.812c-0.774-0.078-1.8768-0.2195-3.3438-0.4375-9.768-1.467-16.561-4.8655-20.406-10.187-3.84-5.318-4.9405-13.391-3.3125-24.25 0.539-3.512 1.537-6.864 3-10 0.48408-1.0263 1.0164-2.0076 1.5938-2.9687zm187.47 399.65-17.822-11.776 4.141-6.271 17.815 11.777z" color="#000000" enable-background="accumulate" fill="#ea5b0c" font-family="Sans" style="line-height:normal;text-decoration-line:none;text-indent:0;text-transform:none"/></clipPath><clipPath id="clipPath5986"><path d="m250.94 437.53 3.2188 2.125-1.7812 2.6875-3.2188-2.125zm-6.5312-4.2812 2.375 1.5625-1.7812 2.6875-2.375-1.5625zm-159.37-1.6875c-4.2614 0.0565-6.5905 1.447-7 4.1875-0.197 1.266-0.0652 2.416 0.46875 3.375 0.545 0.97299 1.4557 1.7527 2.7187 2.3437 1.273 0.619 2.5777 1.1198 3.9687 1.4688 1.36 0.347 3.0355 0.66575 5.0625 0.96875 0.942 0.151 2.3905 0.3235 4.3125 0.5625 1.916 0.249 3.3575 0.44275 4.3125 0.59375l1.75-11.5-10.687-1.5938c-1.8472-0.2775-3.4858-0.42509-4.9062-0.40625zm152.84-2.625 2.3438 1.5625-1.7812 2.6875-2.375-1.5625zm-6.5312-4.3125 2.3438 1.5625-1.7812 2.6875-2.375-1.5625zm-6.5625-4.3125 2.3437 1.5625-1.7812 2.6875-2.3438-1.5625zm-6.5312-4.3125 2.375 1.5625-1.8125 2.6875-2.375-1.5625zm-6.5625-4.3125 2.375 1.5625-1.7812 2.6875-2.375-1.5625zm-6.5312-4.3125 2.375 1.5625-1.7812 2.6875-2.375-1.5625zm-7.2187-4.75 3.0625 2-1.7812 2.6875-3.0625-2zm-106.56-66.219c0.6647-0.0175 1.3335-0.0198 2.0312 0 1.8607 0.0528 3.8387 0.24525 5.9375 0.5625l79.187 11.906-3.625 24.187-76.687-11.562c-2.145-0.316-4.095-0.14725-5.875 0.46875-1.785 0.612-2.8027 1.8672-3.0937 3.7812-0.18 1.174 0.0145 2.2655 0.5625 3.1875 0.525 0.915 1.1837 1.6422 1.9687 2.1562 0.785 0.514 1.8485 0.97225 3.1875 1.4062 1.327 0.438 2.3567 0.71275 3.0937 0.84375 0.727 0.135 1.6537 0.28275 2.8438 0.46875l72.25 10.875-3.7187 24.5-102.72-15.469 3.6875-24.5 11.75 1.7812c-4.281-1.661-7.2475-4.0185-8.9375-7.0625-1.686-3.024-2.2392-6.493-1.6562-10.375 0.972-6.425 3.7335-11.108 8.3125-14.062 2.9945-1.9405 6.8471-2.9715 11.5-3.0938zm-5.4375-42.969 18.687 2.8125-0.65625 4.375 57.781 8.6875c0.859 0.13499 1.5585 0.21299 2.0625 0.24999 0.514 0.033 1.03 0.0267 1.625-0.0312 0.591-0.047 1.08-0.24374 1.375-0.59374 0.32-0.347 0.49475-0.82425 0.59375-1.4062 0.086-0.588 0.097-1.1905 0-1.8125l16.687 2.5c0.668 3.646 0.62575 8.0957-0.15625 13.344-0.402 2.644-1.1048 4.8632-2.0938 6.6562-1.006 1.776-2.0982 3.1362-3.2812 4.0312-1.188 0.885-2.6298 1.5252-4.3438 1.9062-1.721 0.363-3.306 0.50875-4.75 0.46875-1.44-0.058-3.063-0.225-4.875-0.5l-64.219-9.6875-0.5625 3.7812-18.687-2.8125 0.5625-3.7812-21.844-3.2812 3.5937-23.812 21.844 3.2812 0.65625-4.375zm17.406-65.031c1.2086-0.0406 2.4808 0.0522 3.8125 0.25l34.375 5.1875-3.5938 23.937-24.594-3.6875c-1.228-0.195-2.26-0.2945-3.125-0.3125-0.861-0.014-1.7308 0.249-2.5938 0.75-0.868 0.494-1.3925 1.3318-1.5625 2.4688-0.178 1.184 0.19275 2.311 1.0938 3.375 0.92 1.08 2.2778 1.7592 4.0938 2.0312l78.531 11.812-3.6875 24.5-102.69-15.469 3.7187-24.5 11.406 1.7188c-4.493-2.082-7.4717-4.4768-8.9687-7.2188-1.495-2.752-1.9772-6.0405-1.4062-9.8125 0.687-4.571 2.686-8.3622 6-11.406 2.4982-2.2912 5.5617-3.5033 9.1875-3.625zm18.812-40.906c-4.0341-7e-3 -6.2763 1.5772-6.75 4.6875-0.577 3.83 2.1227 6.1957 8.0937 7.0937l50.187 7.5312c2.738 0.41 4.8008 0.2045 6.2188-0.6875 1.412-0.885 2.253-2.179 2.5-3.875 0.258-1.689-0.168-3.1482-1.25-4.4062-1.098-1.258-3.008-2.086-5.75-2.5l-50.156-7.5625c-1.1207-0.16781-2.1628-0.27974-3.0938-0.28125zm3.6875-24.687c2.2508-0.0113 4.6087 0.1915 7.0625 0.56249l41.219 6.1875c10.731 1.618 18.314 5.4508 22.812 11.469 4.52 6.025 6.0372 14.056 4.5312 24.094-3.083 20.447-15.303 29.063-36.625 25.844l-41.187-6.1875c-9.813-1.486-17.179-5.406-22.094-11.75-4.937-6.332-6.678-14.25-5.25-23.75 1.44-9.537 5.4522-16.61 12.031-21.219 4.9245-3.459 10.748-5.216 17.5-5.25zm6.3125-46.125c-0.42088 0.0113-0.79125 0.0525-1.0938 0.125-0.609 0.142-1.3035 0.37025-2.0625 0.65625-0.771 0.282-1.3482 0.7105-1.7812 1.3125-0.403 0.619-0.70075 1.3975-0.84375 2.3125-0.574 3.829 2.6955 6.2678 9.8125 7.3438l45 6.7812c3.686 0.562 6.4915 0.52415 8.4375-0.0937 1.936-0.609 3.0832-2.0102 3.4062-4.1562 0.291-1.911-0.4525-3.4-2.1875-4.5-1.725-1.107-4.7315-1.9972-9.0625-2.6562l-43.594-6.5626c-1.07-0.148-1.8202-0.23725-2.2812-0.28125-0.466-0.05-1.2305-0.13175-2.3125-0.21875-0.545-0.0505-1.0166-0.0738-1.4375-0.0625zm127.66-22 5.7188 0.78125-0.6875 4.75-5.6875-0.8125zm-21.406-3.0312 5.7187 0.8125-0.6875 4.75-5.6875-0.8125zm-106.16-0.0937c2.92 0.047 6.1322 0.31275 9.6562 0.84375l37.594 5.6562c0.09 0.01 0.19475 0.0395 0.34375 0.0625 3.271 0.505 5.7747 0.8845 7.4687 1.1875 1.711 0.313 4.0708 0.8255 7.0938 1.5625 3.009 0.727 5.3305 1.4932 6.9375 2.2812 1.603 0.767 3.46 1.8682 5.5 3.2812 2.059 1.402 3.5245 2.937 4.4375 4.625 0.908 1.706 1.5988 3.8407 2.0937 6.3437 0.478 2.496 0.49235 5.2575 0.0312 8.3125-0.93599 6.173-3.384 10.585-7.375 13.25l16.75 2.5-3.75 24.937-115.41-17.375 3.75-24.937 5.5625 0.84375c-3.964-4.376-5.4925-9.5968-4.5625-15.719 0.488-3.291 1.445-6.128 2.875-8.5 1.438-2.361 3.1685-4.2252 5.1875-5.5312 2.008-1.309 4.4308-2.2687 7.2188-2.8437 2.801-0.582 5.6598-0.82925 8.5937-0.78125zm99.125-16.25c-0.13013 0.0207-0.265 0.063-0.375 0.125-0.225 0.129-0.39325 0.329-0.53125 0.625-0.142 0.293-0.26775 0.58425-0.34375 0.90625-0.076 0.317-0.15475 0.7225-0.21875 1.1875-0.032 0.225-0.07 0.552-0.125 1-0.053 0.442-0.092 0.775-0.125 1l2.6875 0.40625 0.34375-2.5c0.243-1.719-0.0583-2.632-0.90625-2.75-0.1505-0.023-0.27612-0.0208-0.40625 0zm16.219-3.375 5.6562 0.8125-0.8125 17.031 4.0625-16.594 5.625 0.8125-7 24.875-7.6562-1.0937zm-16.75-1.0312c0.51252-2e-3 1.0288 0.0467 1.5938 0.125 4.581 0.649 6.5775 3.231 5.9375 7.75l-0.25 1.75c-0.306 2.153-0.5325 3.6072-0.6875 4.4062l-8.2812-1.1562-0.46875 3.3437c-0.016 0.102-0.0519 0.29325-0.0937 0.53125-0.038 0.24-0.0425 0.40225-0.0625 0.53125-0.055 0.379-0.0858 0.722-0.0937 1-3e-3 0.272 0.0155 0.54375 0.0625 0.84375 0.044 0.289 0.1385 0.5185 0.3125 0.6875 0.176 0.168 0.41975 0.2695 0.71875 0.3125 0.307 0.042 0.56125-0.0288 0.78125-0.21875 0.223-0.189 0.4215-0.477 0.5625-0.875 0.136-0.397 0.2445-0.7445 0.3125-1.0625 0.064-0.315 0.1165-0.7125 0.1875-1.1875 0.13-0.933 0.1975-1.4392 0.1875-1.5312l5.6562 0.78125-0.1875 1.375c-0.186 1.328-0.45425 2.4407-0.78125 3.3437-0.335 0.905-0.8165 1.7-1.4375 2.375-0.617 0.678-1.4335 1.1078-2.4375 1.3438-1.013 0.236-2.2262 0.2605-3.6562 0.0625-0.85-0.121-1.6192-0.32175-2.2812-0.59375-0.667-0.273-1.187-0.55625-1.625-0.90625-0.432-0.348-0.80975-0.774-1.0938-1.25-0.284-0.479-0.488-0.9665-0.625-1.4375-0.144-0.474-0.24025-1.0057-0.28125-1.5937-0.042-0.588-0.031-1.129 0-1.625 0.031-0.493 0.0722-1.031 0.15625-1.625l1.375-9.5937c0.311-2.198 1.1708-3.7982 2.5938-4.7812 1.0657-0.74025 2.3687-1.118 3.9062-1.125zm-112.87-17.531 102.75 15.5-3.6875 24.5-102.75-15.469zm-18.344-2.75 12.031 1.8125-3.6875 24.5-12.031-1.8125zm74.781-33.969c1.046 4.447 2.593 7.575 4.625 9.375 2.041 1.799 4.6068 2.9392 7.7187 3.4062l11.969 1.8125c6.079 0.918 9.3925-0.471 9.9375-4.125 0.149-1-0.01-1.9157-0.4375-2.7187-0.44-0.817-1.06-1.4395-1.875-1.9375-0.803-0.501-1.5932-0.89425-2.4062-1.1562-0.803-0.249-1.639-0.4315-2.5-0.5625zm-107.81-16.656-66.594 83.531v380.37h71.812c-3.3324-1.8818-6.0344-4.3431-8.0938-7.375-4.188-6.163-5.5325-14.1-4.0625-23.812 2.969-19.729 14.153-28.107 33.594-25.187l7.4687 1.125c9.27 1.396 15.621 2.4492 19.062 3.1562l-5.375 35.594 14.375 2.1562c0.459 0.067 1.2127 0.193 2.2187 0.375 1.022 0.186 1.828 0.298 2.375 0.375 1.64 0.256 3.0378 0.3995 4.2188 0.4375 1.177 0.03 2.4075-0.0297 3.6875-0.21875 1.247-0.185 2.261-0.64725 3-1.4062 0.75-0.75 1.2142-1.7422 1.4062-3.0312 0.198-1.318-0.0842-2.4855-0.90625-3.4375-0.806-0.969-2.0612-1.7278-3.7812-2.3438-1.688-0.608-3.2398-1.0547-4.5938-1.3437-1.359-0.306-3.0568-0.60725-5.0938-0.90625-4.04-0.616-6.2187-0.922-6.5937-0.875l3.6562-24.375 5.8125 0.875c5.702 0.854 10.498 2.037 14.375 3.5 3.884 1.478 7.2782 3.5772 10.156 6.2812 2.885 2.682 4.8325 6.1852 5.8125 10.531 0.984 4.341 0.9935 9.6182 0.0625 15.781-0.553 3.657-1.439 6.896-2.625 9.75-0.69216 1.6341-1.4311 3.0741-2.2188 4.375h174.41v-217.09c-10.96 35.653-22.957 57.853-27.125 65l15.437 10.219 0.4375 2.5938-11.562-7.6875-2.7812 4.1562 15.5 10.281 0.84375 5-18.375-12.219-2.7812 4.1875 22.281 14.812 0.84375 5-25.156-16.75-2.7812 4.1875 29.094 19.344v0.0312l-61.281 92.594-12.375-8.1875 22.375-33.937-18.437-12.188 26.375-40-17.812-11.781-26.375 39.969-19.875-13.125-22.375 33.937-12.875-8.5312 61.312-92.594 0.125-0.0312 31.125 20.687 2.7812-4.1562-27.812-18.5 4.5-1.4688 25.344 16.875 2.7812-4.1562-22.062-14.656 4.5-1.4688 19.594 13.031 2.7812-4.1562-16.312-10.844 2.3125-0.75 19.844 13.125c5.8198-9.9707 26.434-48.625 37.969-113.16v-107.97l-78.094-83.531h-24.969l-3.6562 24.219-10.687-1.5937c2.874 1.268 5.359 3.5722 7.375 6.9062 2.02 3.333 2.769 6.7252 2.25 10.156-0.365 2.463-0.94025 4.5932-1.6562 6.4062-0.705 1.803-1.8568 3.5437-3.4688 5.2187-1.593 1.665-3.608 2.9345-6 3.8125-2.401 0.881-5.5157 1.3957-9.3437 1.5937-3.833 0.183-8.2867-0.0838-13.344-0.84375-9.08-1.369-15.692-3.741-19.844-7.125-3.574-2.92-6.295-7.475-8.125-13.625-0.932-3.128-2.3392-10.009-4.2812-20.656-0.057-3e-3 -0.12175-0.0113-0.21875-0.0312-1.463-0.219-2.6585-0.385-3.5625-0.5-0.923-0.121-1.9548-0.25525-3.0938-0.40625-1.155-0.145-2.062-0.2545-2.75-0.3125-0.685-0.05-1.4522-0.095-2.2812-0.125-0.841-0.04-1.4835-0.04-1.9375 0-0.446 0.05-0.938 0.15625-1.5 0.28125-0.552 0.118-0.9955 0.294-1.3125 0.5-0.31799 0.215-0.59699 0.467-0.87499 0.75-0.271 0.286-0.49225 0.6485-0.65625 1.0625-0.148 0.424-0.26475 0.874-0.34375 1.375-0.496 3.384 1.1128 5.3685 4.8437 5.9375l6.9062 1.0312-3.5938 23.812c-0.774-0.078-1.8768-0.2195-3.3438-0.4375-9.768-1.467-16.561-4.8655-20.406-10.187-3.84-5.318-4.9405-13.391-3.3125-24.25 0.539-3.512 1.537-6.864 3-10 0.48408-1.0263 1.0164-2.0076 1.5938-2.9687zm187.47 399.65-17.822-11.776 4.141-6.271 17.815 11.777z" color="#000000" enable-background="accumulate" fill="#ea5b0c" font-family="Sans" style="line-height:normal;text-decoration-line:none;text-indent:0;text-transform:none"/></clipPath><clipPath id="clipPath5990"><path d="m250.94 437.53 3.2188 2.125-1.7812 2.6875-3.2188-2.125zm-6.5312-4.2812 2.375 1.5625-1.7812 2.6875-2.375-1.5625zm-159.37-1.6875c-4.2614 0.0565-6.5905 1.447-7 4.1875-0.197 1.266-0.0652 2.416 0.46875 3.375 0.545 0.97299 1.4557 1.7527 2.7187 2.3437 1.273 0.619 2.5777 1.1198 3.9687 1.4688 1.36 0.347 3.0355 0.66575 5.0625 0.96875 0.942 0.151 2.3905 0.3235 4.3125 0.5625 1.916 0.249 3.3575 0.44275 4.3125 0.59375l1.75-11.5-10.687-1.5938c-1.8472-0.2775-3.4858-0.42509-4.9062-0.40625zm152.84-2.625 2.3438 1.5625-1.7812 2.6875-2.375-1.5625zm-6.5312-4.3125 2.3438 1.5625-1.7812 2.6875-2.375-1.5625zm-6.5625-4.3125 2.3437 1.5625-1.7812 2.6875-2.3438-1.5625zm-6.5312-4.3125 2.375 1.5625-1.8125 2.6875-2.375-1.5625zm-6.5625-4.3125 2.375 1.5625-1.7812 2.6875-2.375-1.5625zm-6.5312-4.3125 2.375 1.5625-1.7812 2.6875-2.375-1.5625zm-7.2187-4.75 3.0625 2-1.7812 2.6875-3.0625-2zm-106.56-66.219c0.6647-0.0175 1.3335-0.0198 2.0312 0 1.8607 0.0528 3.8387 0.24525 5.9375 0.5625l79.187 11.906-3.625 24.187-76.687-11.562c-2.145-0.316-4.095-0.14725-5.875 0.46875-1.785 0.612-2.8027 1.8672-3.0937 3.7812-0.18 1.174 0.0145 2.2655 0.5625 3.1875 0.525 0.915 1.1837 1.6422 1.9687 2.1562 0.785 0.514 1.8485 0.97225 3.1875 1.4062 1.327 0.438 2.3567 0.71275 3.0937 0.84375 0.727 0.135 1.6537 0.28275 2.8438 0.46875l72.25 10.875-3.7187 24.5-102.72-15.469 3.6875-24.5 11.75 1.7812c-4.281-1.661-7.2475-4.0185-8.9375-7.0625-1.686-3.024-2.2392-6.493-1.6562-10.375 0.972-6.425 3.7335-11.108 8.3125-14.062 2.9945-1.9405 6.8471-2.9715 11.5-3.0938zm-5.4375-42.969 18.687 2.8125-0.65625 4.375 57.781 8.6875c0.859 0.13499 1.5585 0.21299 2.0625 0.24999 0.514 0.033 1.03 0.0267 1.625-0.0312 0.591-0.047 1.08-0.24374 1.375-0.59374 0.32-0.347 0.49475-0.82425 0.59375-1.4062 0.086-0.588 0.097-1.1905 0-1.8125l16.687 2.5c0.668 3.646 0.62575 8.0957-0.15625 13.344-0.402 2.644-1.1048 4.8632-2.0938 6.6562-1.006 1.776-2.0982 3.1362-3.2812 4.0312-1.188 0.885-2.6298 1.5252-4.3438 1.9062-1.721 0.363-3.306 0.50875-4.75 0.46875-1.44-0.058-3.063-0.225-4.875-0.5l-64.219-9.6875-0.5625 3.7812-18.687-2.8125 0.5625-3.7812-21.844-3.2812 3.5937-23.812 21.844 3.2812 0.65625-4.375zm17.406-65.031c1.2086-0.0406 2.4808 0.0522 3.8125 0.25l34.375 5.1875-3.5938 23.937-24.594-3.6875c-1.228-0.195-2.26-0.2945-3.125-0.3125-0.861-0.014-1.7308 0.249-2.5938 0.75-0.868 0.494-1.3925 1.3318-1.5625 2.4688-0.178 1.184 0.19275 2.311 1.0938 3.375 0.92 1.08 2.2778 1.7592 4.0938 2.0312l78.531 11.812-3.6875 24.5-102.69-15.469 3.7187-24.5 11.406 1.7188c-4.493-2.082-7.4717-4.4768-8.9687-7.2188-1.495-2.752-1.9772-6.0405-1.4062-9.8125 0.687-4.571 2.686-8.3622 6-11.406 2.4982-2.2912 5.5617-3.5033 9.1875-3.625zm18.812-40.906c-4.0341-7e-3 -6.2763 1.5772-6.75 4.6875-0.577 3.83 2.1227 6.1957 8.0937 7.0937l50.187 7.5312c2.738 0.41 4.8008 0.2045 6.2188-0.6875 1.412-0.885 2.253-2.179 2.5-3.875 0.258-1.689-0.168-3.1482-1.25-4.4062-1.098-1.258-3.008-2.086-5.75-2.5l-50.156-7.5625c-1.1207-0.16781-2.1628-0.27974-3.0938-0.28125zm3.6875-24.687c2.2508-0.0113 4.6087 0.1915 7.0625 0.56249l41.219 6.1875c10.731 1.618 18.314 5.4508 22.812 11.469 4.52 6.025 6.0372 14.056 4.5312 24.094-3.083 20.447-15.303 29.063-36.625 25.844l-41.187-6.1875c-9.813-1.486-17.179-5.406-22.094-11.75-4.937-6.332-6.678-14.25-5.25-23.75 1.44-9.537 5.4522-16.61 12.031-21.219 4.9245-3.459 10.748-5.216 17.5-5.25zm6.3125-46.125c-0.42088 0.0113-0.79125 0.0525-1.0938 0.125-0.609 0.142-1.3035 0.37025-2.0625 0.65625-0.771 0.282-1.3482 0.7105-1.7812 1.3125-0.403 0.619-0.70075 1.3975-0.84375 2.3125-0.574 3.829 2.6955 6.2678 9.8125 7.3438l45 6.7812c3.686 0.562 6.4915 0.52415 8.4375-0.0937 1.936-0.609 3.0832-2.0102 3.4062-4.1562 0.291-1.911-0.4525-3.4-2.1875-4.5-1.725-1.107-4.7315-1.9972-9.0625-2.6562l-43.594-6.5626c-1.07-0.148-1.8202-0.23725-2.2812-0.28125-0.466-0.05-1.2305-0.13175-2.3125-0.21875-0.545-0.0505-1.0166-0.0738-1.4375-0.0625zm127.66-22 5.7188 0.78125-0.6875 4.75-5.6875-0.8125zm-21.406-3.0312 5.7187 0.8125-0.6875 4.75-5.6875-0.8125zm-106.16-0.0937c2.92 0.047 6.1322 0.31275 9.6562 0.84375l37.594 5.6562c0.09 0.01 0.19475 0.0395 0.34375 0.0625 3.271 0.505 5.7747 0.8845 7.4687 1.1875 1.711 0.313 4.0708 0.8255 7.0938 1.5625 3.009 0.727 5.3305 1.4932 6.9375 2.2812 1.603 0.767 3.46 1.8682 5.5 3.2812 2.059 1.402 3.5245 2.937 4.4375 4.625 0.908 1.706 1.5988 3.8407 2.0937 6.3437 0.478 2.496 0.49235 5.2575 0.0312 8.3125-0.93599 6.173-3.384 10.585-7.375 13.25l16.75 2.5-3.75 24.937-115.41-17.375 3.75-24.937 5.5625 0.84375c-3.964-4.376-5.4925-9.5968-4.5625-15.719 0.488-3.291 1.445-6.128 2.875-8.5 1.438-2.361 3.1685-4.2252 5.1875-5.5312 2.008-1.309 4.4308-2.2687 7.2188-2.8437 2.801-0.582 5.6598-0.82925 8.5937-0.78125zm99.125-16.25c-0.13013 0.0207-0.265 0.063-0.375 0.125-0.225 0.129-0.39325 0.329-0.53125 0.625-0.142 0.293-0.26775 0.58425-0.34375 0.90625-0.076 0.317-0.15475 0.7225-0.21875 1.1875-0.032 0.225-0.07 0.552-0.125 1-0.053 0.442-0.092 0.775-0.125 1l2.6875 0.40625 0.34375-2.5c0.243-1.719-0.0583-2.632-0.90625-2.75-0.1505-0.023-0.27612-0.0208-0.40625 0zm16.219-3.375 5.6562 0.8125-0.8125 17.031 4.0625-16.594 5.625 0.8125-7 24.875-7.6562-1.0937zm-16.75-1.0312c0.51252-2e-3 1.0288 0.0467 1.5938 0.125 4.581 0.649 6.5775 3.231 5.9375 7.75l-0.25 1.75c-0.306 2.153-0.5325 3.6072-0.6875 4.4062l-8.2812-1.1562-0.46875 3.3437c-0.016 0.102-0.0519 0.29325-0.0937 0.53125-0.038 0.24-0.0425 0.40225-0.0625 0.53125-0.055 0.379-0.0858 0.722-0.0937 1-3e-3 0.272 0.0155 0.54375 0.0625 0.84375 0.044 0.289 0.1385 0.5185 0.3125 0.6875 0.176 0.168 0.41975 0.2695 0.71875 0.3125 0.307 0.042 0.56125-0.0288 0.78125-0.21875 0.223-0.189 0.4215-0.477 0.5625-0.875 0.136-0.397 0.2445-0.7445 0.3125-1.0625 0.064-0.315 0.1165-0.7125 0.1875-1.1875 0.13-0.933 0.1975-1.4392 0.1875-1.5312l5.6562 0.78125-0.1875 1.375c-0.186 1.328-0.45425 2.4407-0.78125 3.3437-0.335 0.905-0.8165 1.7-1.4375 2.375-0.617 0.678-1.4335 1.1078-2.4375 1.3438-1.013 0.236-2.2262 0.2605-3.6562 0.0625-0.85-0.121-1.6192-0.32175-2.2812-0.59375-0.667-0.273-1.187-0.55625-1.625-0.90625-0.432-0.348-0.80975-0.774-1.0938-1.25-0.284-0.479-0.488-0.9665-0.625-1.4375-0.144-0.474-0.24025-1.0057-0.28125-1.5937-0.042-0.588-0.031-1.129 0-1.625 0.031-0.493 0.0722-1.031 0.15625-1.625l1.375-9.5937c0.311-2.198 1.1708-3.7982 2.5938-4.7812 1.0657-0.74025 2.3687-1.118 3.9062-1.125zm-112.87-17.531 102.75 15.5-3.6875 24.5-102.75-15.469zm-18.344-2.75 12.031 1.8125-3.6875 24.5-12.031-1.8125zm74.781-33.969c1.046 4.447 2.593 7.575 4.625 9.375 2.041 1.799 4.6068 2.9392 7.7187 3.4062l11.969 1.8125c6.079 0.918 9.3925-0.471 9.9375-4.125 0.149-1-0.01-1.9157-0.4375-2.7187-0.44-0.817-1.06-1.4395-1.875-1.9375-0.803-0.501-1.5932-0.89425-2.4062-1.1562-0.803-0.249-1.639-0.4315-2.5-0.5625zm-107.81-16.656-66.594 83.531v380.37h71.812c-3.3324-1.8818-6.0344-4.3431-8.0938-7.375-4.188-6.163-5.5325-14.1-4.0625-23.812 2.969-19.729 14.153-28.107 33.594-25.187l7.4687 1.125c9.27 1.396 15.621 2.4492 19.062 3.1562l-5.375 35.594 14.375 2.1562c0.459 0.067 1.2127 0.193 2.2187 0.375 1.022 0.186 1.828 0.298 2.375 0.375 1.64 0.256 3.0378 0.3995 4.2188 0.4375 1.177 0.03 2.4075-0.0297 3.6875-0.21875 1.247-0.185 2.261-0.64725 3-1.4062 0.75-0.75 1.2142-1.7422 1.4062-3.0312 0.198-1.318-0.0842-2.4855-0.90625-3.4375-0.806-0.969-2.0612-1.7278-3.7812-2.3438-1.688-0.608-3.2398-1.0547-4.5938-1.3437-1.359-0.306-3.0568-0.60725-5.0938-0.90625-4.04-0.616-6.2187-0.922-6.5937-0.875l3.6562-24.375 5.8125 0.875c5.702 0.854 10.498 2.037 14.375 3.5 3.884 1.478 7.2782 3.5772 10.156 6.2812 2.885 2.682 4.8325 6.1852 5.8125 10.531 0.984 4.341 0.9935 9.6182 0.0625 15.781-0.553 3.657-1.439 6.896-2.625 9.75-0.69216 1.6341-1.4311 3.0741-2.2188 4.375h174.41v-217.09c-10.96 35.653-22.957 57.853-27.125 65l15.437 10.219 0.4375 2.5938-11.562-7.6875-2.7812 4.1562 15.5 10.281 0.84375 5-18.375-12.219-2.7812 4.1875 22.281 14.812 0.84375 5-25.156-16.75-2.7812 4.1875 29.094 19.344v0.0312l-61.281 92.594-12.375-8.1875 22.375-33.937-18.437-12.188 26.375-40-17.812-11.781-26.375 39.969-19.875-13.125-22.375 33.937-12.875-8.5312 61.312-92.594 0.125-0.0312 31.125 20.687 2.7812-4.1562-27.812-18.5 4.5-1.4688 25.344 16.875 2.7812-4.1562-22.062-14.656 4.5-1.4688 19.594 13.031 2.7812-4.1562-16.312-10.844 2.3125-0.75 19.844 13.125c5.8198-9.9707 26.434-48.625 37.969-113.16v-107.97l-78.094-83.531h-24.969l-3.6562 24.219-10.687-1.5937c2.874 1.268 5.359 3.5722 7.375 6.9062 2.02 3.333 2.769 6.7252 2.25 10.156-0.365 2.463-0.94025 4.5932-1.6562 6.4062-0.705 1.803-1.8568 3.5437-3.4688 5.2187-1.593 1.665-3.608 2.9345-6 3.8125-2.401 0.881-5.5157 1.3957-9.3437 1.5937-3.833 0.183-8.2867-0.0838-13.344-0.84375-9.08-1.369-15.692-3.741-19.844-7.125-3.574-2.92-6.295-7.475-8.125-13.625-0.932-3.128-2.3392-10.009-4.2812-20.656-0.057-3e-3 -0.12175-0.0113-0.21875-0.0312-1.463-0.219-2.6585-0.385-3.5625-0.5-0.923-0.121-1.9548-0.25525-3.0938-0.40625-1.155-0.145-2.062-0.2545-2.75-0.3125-0.685-0.05-1.4522-0.095-2.2812-0.125-0.841-0.04-1.4835-0.04-1.9375 0-0.446 0.05-0.938 0.15625-1.5 0.28125-0.552 0.118-0.9955 0.294-1.3125 0.5-0.31799 0.215-0.59699 0.467-0.87499 0.75-0.271 0.286-0.49225 0.6485-0.65625 1.0625-0.148 0.424-0.26475 0.874-0.34375 1.375-0.496 3.384 1.1128 5.3685 4.8437 5.9375l6.9062 1.0312-3.5938 23.812c-0.774-0.078-1.8768-0.2195-3.3438-0.4375-9.768-1.467-16.561-4.8655-20.406-10.187-3.84-5.318-4.9405-13.391-3.3125-24.25 0.539-3.512 1.537-6.864 3-10 0.48408-1.0263 1.0164-2.0076 1.5938-2.9687zm187.47 399.65-17.822-11.776 4.141-6.271 17.815 11.777z" color="#000000" enable-background="accumulate" fill="#ea5b0c" font-family="Sans" style="line-height:normal;text-decoration-line:none;text-indent:0;text-transform:none"/></clipPath><clipPath id="clipPath5994"><path d="m250.94 437.53 3.2188 2.125-1.7812 2.6875-3.2188-2.125zm-6.5312-4.2812 2.375 1.5625-1.7812 2.6875-2.375-1.5625zm-159.37-1.6875c-4.2614 0.0565-6.5905 1.447-7 4.1875-0.197 1.266-0.0652 2.416 0.46875 3.375 0.545 0.97299 1.4557 1.7527 2.7187 2.3437 1.273 0.619 2.5777 1.1198 3.9687 1.4688 1.36 0.347 3.0355 0.66575 5.0625 0.96875 0.942 0.151 2.3905 0.3235 4.3125 0.5625 1.916 0.249 3.3575 0.44275 4.3125 0.59375l1.75-11.5-10.687-1.5938c-1.8472-0.2775-3.4858-0.42509-4.9062-0.40625zm152.84-2.625 2.3438 1.5625-1.7812 2.6875-2.375-1.5625zm-6.5312-4.3125 2.3438 1.5625-1.7812 2.6875-2.375-1.5625zm-6.5625-4.3125 2.3437 1.5625-1.7812 2.6875-2.3438-1.5625zm-6.5312-4.3125 2.375 1.5625-1.8125 2.6875-2.375-1.5625zm-6.5625-4.3125 2.375 1.5625-1.7812 2.6875-2.375-1.5625zm-6.5312-4.3125 2.375 1.5625-1.7812 2.6875-2.375-1.5625zm-7.2187-4.75 3.0625 2-1.7812 2.6875-3.0625-2zm-106.56-66.219c0.6647-0.0175 1.3335-0.0198 2.0312 0 1.8607 0.0528 3.8387 0.24525 5.9375 0.5625l79.187 11.906-3.625 24.187-76.687-11.562c-2.145-0.316-4.095-0.14725-5.875 0.46875-1.785 0.612-2.8027 1.8672-3.0937 3.7812-0.18 1.174 0.0145 2.2655 0.5625 3.1875 0.525 0.915 1.1837 1.6422 1.9687 2.1562 0.785 0.514 1.8485 0.97225 3.1875 1.4062 1.327 0.438 2.3567 0.71275 3.0937 0.84375 0.727 0.135 1.6537 0.28275 2.8438 0.46875l72.25 10.875-3.7187 24.5-102.72-15.469 3.6875-24.5 11.75 1.7812c-4.281-1.661-7.2475-4.0185-8.9375-7.0625-1.686-3.024-2.2392-6.493-1.6562-10.375 0.972-6.425 3.7335-11.108 8.3125-14.062 2.9945-1.9405 6.8471-2.9715 11.5-3.0938zm-5.4375-42.969 18.687 2.8125-0.65625 4.375 57.781 8.6875c0.859 0.13499 1.5585 0.21299 2.0625 0.24999 0.514 0.033 1.03 0.0267 1.625-0.0312 0.591-0.047 1.08-0.24374 1.375-0.59374 0.32-0.347 0.49475-0.82425 0.59375-1.4062 0.086-0.588 0.097-1.1905 0-1.8125l16.687 2.5c0.668 3.646 0.62575 8.0957-0.15625 13.344-0.402 2.644-1.1048 4.8632-2.0938 6.6562-1.006 1.776-2.0982 3.1362-3.2812 4.0312-1.188 0.885-2.6298 1.5252-4.3438 1.9062-1.721 0.363-3.306 0.50875-4.75 0.46875-1.44-0.058-3.063-0.225-4.875-0.5l-64.219-9.6875-0.5625 3.7812-18.687-2.8125 0.5625-3.7812-21.844-3.2812 3.5937-23.812 21.844 3.2812 0.65625-4.375zm17.406-65.031c1.2086-0.0406 2.4808 0.0522 3.8125 0.25l34.375 5.1875-3.5938 23.937-24.594-3.6875c-1.228-0.195-2.26-0.2945-3.125-0.3125-0.861-0.014-1.7308 0.249-2.5938 0.75-0.868 0.494-1.3925 1.3318-1.5625 2.4688-0.178 1.184 0.19275 2.311 1.0938 3.375 0.92 1.08 2.2778 1.7592 4.0938 2.0312l78.531 11.812-3.6875 24.5-102.69-15.469 3.7187-24.5 11.406 1.7188c-4.493-2.082-7.4717-4.4768-8.9687-7.2188-1.495-2.752-1.9772-6.0405-1.4062-9.8125 0.687-4.571 2.686-8.3622 6-11.406 2.4982-2.2912 5.5617-3.5033 9.1875-3.625zm18.812-40.906c-4.0341-7e-3 -6.2763 1.5772-6.75 4.6875-0.577 3.83 2.1227 6.1957 8.0937 7.0937l50.187 7.5312c2.738 0.41 4.8008 0.2045 6.2188-0.6875 1.412-0.885 2.253-2.179 2.5-3.875 0.258-1.689-0.168-3.1482-1.25-4.4062-1.098-1.258-3.008-2.086-5.75-2.5l-50.156-7.5625c-1.1207-0.16781-2.1628-0.27974-3.0938-0.28125zm3.6875-24.687c2.2508-0.0113 4.6087 0.1915 7.0625 0.56249l41.219 6.1875c10.731 1.618 18.314 5.4508 22.812 11.469 4.52 6.025 6.0372 14.056 4.5312 24.094-3.083 20.447-15.303 29.063-36.625 25.844l-41.187-6.1875c-9.813-1.486-17.179-5.406-22.094-11.75-4.937-6.332-6.678-14.25-5.25-23.75 1.44-9.537 5.4522-16.61 12.031-21.219 4.9245-3.459 10.748-5.216 17.5-5.25zm6.3125-46.125c-0.42088 0.0113-0.79125 0.0525-1.0938 0.125-0.609 0.142-1.3035 0.37025-2.0625 0.65625-0.771 0.282-1.3482 0.7105-1.7812 1.3125-0.403 0.619-0.70075 1.3975-0.84375 2.3125-0.574 3.829 2.6955 6.2678 9.8125 7.3438l45 6.7812c3.686 0.562 6.4915 0.52415 8.4375-0.0937 1.936-0.609 3.0832-2.0102 3.4062-4.1562 0.291-1.911-0.4525-3.4-2.1875-4.5-1.725-1.107-4.7315-1.9972-9.0625-2.6562l-43.594-6.5626c-1.07-0.148-1.8202-0.23725-2.2812-0.28125-0.466-0.05-1.2305-0.13175-2.3125-0.21875-0.545-0.0505-1.0166-0.0738-1.4375-0.0625zm127.66-22 5.7188 0.78125-0.6875 4.75-5.6875-0.8125zm-21.406-3.0312 5.7187 0.8125-0.6875 4.75-5.6875-0.8125zm-106.16-0.0937c2.92 0.047 6.1322 0.31275 9.6562 0.84375l37.594 5.6562c0.09 0.01 0.19475 0.0395 0.34375 0.0625 3.271 0.505 5.7747 0.8845 7.4687 1.1875 1.711 0.313 4.0708 0.8255 7.0938 1.5625 3.009 0.727 5.3305 1.4932 6.9375 2.2812 1.603 0.767 3.46 1.8682 5.5 3.2812 2.059 1.402 3.5245 2.937 4.4375 4.625 0.908 1.706 1.5988 3.8407 2.0937 6.3437 0.478 2.496 0.49235 5.2575 0.0312 8.3125-0.93599 6.173-3.384 10.585-7.375 13.25l16.75 2.5-3.75 24.937-115.41-17.375 3.75-24.937 5.5625 0.84375c-3.964-4.376-5.4925-9.5968-4.5625-15.719 0.488-3.291 1.445-6.128 2.875-8.5 1.438-2.361 3.1685-4.2252 5.1875-5.5312 2.008-1.309 4.4308-2.2687 7.2188-2.8437 2.801-0.582 5.6598-0.82925 8.5937-0.78125zm99.125-16.25c-0.13013 0.0207-0.265 0.063-0.375 0.125-0.225 0.129-0.39325 0.329-0.53125 0.625-0.142 0.293-0.26775 0.58425-0.34375 0.90625-0.076 0.317-0.15475 0.7225-0.21875 1.1875-0.032 0.225-0.07 0.552-0.125 1-0.053 0.442-0.092 0.775-0.125 1l2.6875 0.40625 0.34375-2.5c0.243-1.719-0.0583-2.632-0.90625-2.75-0.1505-0.023-0.27612-0.0208-0.40625 0zm16.219-3.375 5.6562 0.8125-0.8125 17.031 4.0625-16.594 5.625 0.8125-7 24.875-7.6562-1.0937zm-16.75-1.0312c0.51252-2e-3 1.0288 0.0467 1.5938 0.125 4.581 0.649 6.5775 3.231 5.9375 7.75l-0.25 1.75c-0.306 2.153-0.5325 3.6072-0.6875 4.4062l-8.2812-1.1562-0.46875 3.3437c-0.016 0.102-0.0519 0.29325-0.0937 0.53125-0.038 0.24-0.0425 0.40225-0.0625 0.53125-0.055 0.379-0.0858 0.722-0.0937 1-3e-3 0.272 0.0155 0.54375 0.0625 0.84375 0.044 0.289 0.1385 0.5185 0.3125 0.6875 0.176 0.168 0.41975 0.2695 0.71875 0.3125 0.307 0.042 0.56125-0.0288 0.78125-0.21875 0.223-0.189 0.4215-0.477 0.5625-0.875 0.136-0.397 0.2445-0.7445 0.3125-1.0625 0.064-0.315 0.1165-0.7125 0.1875-1.1875 0.13-0.933 0.1975-1.4392 0.1875-1.5312l5.6562 0.78125-0.1875 1.375c-0.186 1.328-0.45425 2.4407-0.78125 3.3437-0.335 0.905-0.8165 1.7-1.4375 2.375-0.617 0.678-1.4335 1.1078-2.4375 1.3438-1.013 0.236-2.2262 0.2605-3.6562 0.0625-0.85-0.121-1.6192-0.32175-2.2812-0.59375-0.667-0.273-1.187-0.55625-1.625-0.90625-0.432-0.348-0.80975-0.774-1.0938-1.25-0.284-0.479-0.488-0.9665-0.625-1.4375-0.144-0.474-0.24025-1.0057-0.28125-1.5937-0.042-0.588-0.031-1.129 0-1.625 0.031-0.493 0.0722-1.031 0.15625-1.625l1.375-9.5937c0.311-2.198 1.1708-3.7982 2.5938-4.7812 1.0657-0.74025 2.3687-1.118 3.9062-1.125zm-112.87-17.531 102.75 15.5-3.6875 24.5-102.75-15.469zm-18.344-2.75 12.031 1.8125-3.6875 24.5-12.031-1.8125zm74.781-33.969c1.046 4.447 2.593 7.575 4.625 9.375 2.041 1.799 4.6068 2.9392 7.7187 3.4062l11.969 1.8125c6.079 0.918 9.3925-0.471 9.9375-4.125 0.149-1-0.01-1.9157-0.4375-2.7187-0.44-0.817-1.06-1.4395-1.875-1.9375-0.803-0.501-1.5932-0.89425-2.4062-1.1562-0.803-0.249-1.639-0.4315-2.5-0.5625zm-107.81-16.656-66.594 83.531v380.37h71.812c-3.3324-1.8818-6.0344-4.3431-8.0938-7.375-4.188-6.163-5.5325-14.1-4.0625-23.812 2.969-19.729 14.153-28.107 33.594-25.187l7.4687 1.125c9.27 1.396 15.621 2.4492 19.062 3.1562l-5.375 35.594 14.375 2.1562c0.459 0.067 1.2127 0.193 2.2187 0.375 1.022 0.186 1.828 0.298 2.375 0.375 1.64 0.256 3.0378 0.3995 4.2188 0.4375 1.177 0.03 2.4075-0.0297 3.6875-0.21875 1.247-0.185 2.261-0.64725 3-1.4062 0.75-0.75 1.2142-1.7422 1.4062-3.0312 0.198-1.318-0.0842-2.4855-0.90625-3.4375-0.806-0.969-2.0612-1.7278-3.7812-2.3438-1.688-0.608-3.2398-1.0547-4.5938-1.3437-1.359-0.306-3.0568-0.60725-5.0938-0.90625-4.04-0.616-6.2187-0.922-6.5937-0.875l3.6562-24.375 5.8125 0.875c5.702 0.854 10.498 2.037 14.375 3.5 3.884 1.478 7.2782 3.5772 10.156 6.2812 2.885 2.682 4.8325 6.1852 5.8125 10.531 0.984 4.341 0.9935 9.6182 0.0625 15.781-0.553 3.657-1.439 6.896-2.625 9.75-0.69216 1.6341-1.4311 3.0741-2.2188 4.375h174.41v-217.09c-10.96 35.653-22.957 57.853-27.125 65l15.437 10.219 0.4375 2.5938-11.562-7.6875-2.7812 4.1562 15.5 10.281 0.84375 5-18.375-12.219-2.7812 4.1875 22.281 14.812 0.84375 5-25.156-16.75-2.7812 4.1875 29.094 19.344v0.0312l-61.281 92.594-12.375-8.1875 22.375-33.937-18.437-12.188 26.375-40-17.812-11.781-26.375 39.969-19.875-13.125-22.375 33.937-12.875-8.5312 61.312-92.594 0.125-0.0312 31.125 20.687 2.7812-4.1562-27.812-18.5 4.5-1.4688 25.344 16.875 2.7812-4.1562-22.062-14.656 4.5-1.4688 19.594 13.031 2.7812-4.1562-16.312-10.844 2.3125-0.75 19.844 13.125c5.8198-9.9707 26.434-48.625 37.969-113.16v-107.97l-78.094-83.531h-24.969l-3.6562 24.219-10.687-1.5937c2.874 1.268 5.359 3.5722 7.375 6.9062 2.02 3.333 2.769 6.7252 2.25 10.156-0.365 2.463-0.94025 4.5932-1.6562 6.4062-0.705 1.803-1.8568 3.5437-3.4688 5.2187-1.593 1.665-3.608 2.9345-6 3.8125-2.401 0.881-5.5157 1.3957-9.3437 1.5937-3.833 0.183-8.2867-0.0838-13.344-0.84375-9.08-1.369-15.692-3.741-19.844-7.125-3.574-2.92-6.295-7.475-8.125-13.625-0.932-3.128-2.3392-10.009-4.2812-20.656-0.057-3e-3 -0.12175-0.0113-0.21875-0.0312-1.463-0.219-2.6585-0.385-3.5625-0.5-0.923-0.121-1.9548-0.25525-3.0938-0.40625-1.155-0.145-2.062-0.2545-2.75-0.3125-0.685-0.05-1.4522-0.095-2.2812-0.125-0.841-0.04-1.4835-0.04-1.9375 0-0.446 0.05-0.938 0.15625-1.5 0.28125-0.552 0.118-0.9955 0.294-1.3125 0.5-0.31799 0.215-0.59699 0.467-0.87499 0.75-0.271 0.286-0.49225 0.6485-0.65625 1.0625-0.148 0.424-0.26475 0.874-0.34375 1.375-0.496 3.384 1.1128 5.3685 4.8437 5.9375l6.9062 1.0312-3.5938 23.812c-0.774-0.078-1.8768-0.2195-3.3438-0.4375-9.768-1.467-16.561-4.8655-20.406-10.187-3.84-5.318-4.9405-13.391-3.3125-24.25 0.539-3.512 1.537-6.864 3-10 0.48408-1.0263 1.0164-2.0076 1.5938-2.9687zm187.47 399.65-17.822-11.776 4.141-6.271 17.815 11.777z" color="#000000" enable-background="accumulate" fill="#ea5b0c" font-family="Sans" style="line-height:normal;text-decoration-line:none;text-indent:0;text-transform:none"/></clipPath></defs><style id="autoconsent-prehide"/><g><g><rect width="66.831" height="463.91" clip-path="url(#clipPath5994)" fill="#5bcefa"/><rect x="66.831" width="66.831" height="463.91" clip-path="url(#clipPath5990)" fill="#f5a9b8"/><rect x="133.66" width="66.831" height="463.91" clip-path="url(#clipPath5986)" fill="#fff"/><rect x="200.49" width="66.85" height="463.91" clip-path="url(#clipPath5982)" fill="#f5a9b8"/><rect x="267.32" width="66.85" height="463.91" clip-path="url(#clipPath5978)" fill="#5bcefa"/></g></g><g display="none"><path d="m0 0v83.531l66.594-83.531zm127.47 0c-0.57732 0.96111-1.1097 1.9424-1.5938 2.9688-1.463 3.136-2.461 6.488-3 10-1.628 10.859-0.5275 18.932 3.3125 24.25 3.845 5.322 10.638 8.7205 20.406 10.188 1.467 0.218 2.5698 0.3595 3.3438 0.4375l3.5938-23.812-6.9062-1.0312c-3.731-0.569-5.3398-2.5535-4.8438-5.9375 0.079-0.501 0.19575-0.951 0.34375-1.375 0.164-0.414 0.38525-0.7765 0.65625-1.0625 0.278-0.283 0.557-0.535 0.875-0.75 0.317-0.206 0.7605-0.382 1.3125-0.5 0.562-0.125 1.054-0.23125 1.5-0.28125 0.454-0.04 1.0965-0.04 1.9375 0 0.829 0.03 1.5962 0.075 2.2812 0.125 0.688 0.058 1.595 0.1675 2.75 0.3125 1.139 0.151 2.1708 0.28525 3.0938 0.40625 0.904 0.115 2.0995 0.281 3.5625 0.5 0.097 0.0199 0.16175 0.02825 0.21875 0.03125 1.942 10.647 3.3492 17.528 4.2812 20.656 1.83 6.15 4.551 10.705 8.125 13.625 4.152 3.384 10.764 5.756 19.844 7.125 5.057 0.75995 9.5108 1.0268 13.344 0.84375 3.828-0.198 6.9428-0.71275 9.3438-1.5938 2.392-0.878 4.407-2.1475 6-3.8125 1.612-1.675 2.7638-3.4158 3.4688-5.2188 0.716-1.813 1.2912-3.9433 1.6562-6.4062 0.519-3.431-0.23-6.8233-2.25-10.156-2.016-3.334-4.501-5.6383-7.375-6.9062l10.688 1.5938 3.6562-24.219zm128.59 0 78.094 83.531v-83.531zm-81.656 16.656 27.031 4.0938c0.861 0.131 1.697 0.3135 2.5 0.5625 0.813 0.262 1.6032 0.65525 2.4062 1.1562 0.815 0.498 1.435 1.1205 1.875 1.9375 0.4275 0.803 0.5865 1.7188 0.4375 2.7188-0.545 3.654-3.8585 5.043-9.9375 4.125l-11.969-1.8125c-3.112-0.467-5.6778-1.6073-7.7188-3.4062-2.032-1.8-3.579-4.928-4.625-9.375zm-74.781 33.969-3.6875 24.5 12.031 1.8125 3.6875-24.5zm18.344 2.75-3.6875 24.531 102.75 15.469 3.6875-24.5zm112.88 17.531c-1.5376 7e-3 -2.8405 0.38475-3.9062 1.125-1.423 0.983-2.2828 2.5833-2.5938 4.7812l-1.375 9.5938c-0.084 0.594-0.12525 1.132-0.15625 1.625-0.031 0.496-0.042 1.037 0 1.625 0.041 0.588 0.13725 1.1198 0.28125 1.5938 0.137 0.471 0.341 0.9585 0.625 1.4375 0.284 0.476 0.66175 0.902 1.0938 1.25 0.438 0.35 0.958 0.63325 1.625 0.90625 0.662 0.272 1.4312 0.47275 2.2812 0.59375 1.43 0.198 2.6432 0.1735 3.6562-0.0625 1.004-0.236 1.8205-0.66575 2.4375-1.3438 0.621-0.675 1.1025-1.47 1.4375-2.375 0.327-0.903 0.59525-2.0158 0.78125-3.3438l0.1875-1.375-5.6562-0.78125c0.01 0.092-0.0575 0.59825-0.1875 1.5312-0.071 0.475-0.1235 0.8725-0.1875 1.1875-0.068 0.318-0.1765 0.6655-0.3125 1.0625-0.141 0.398-0.3395 0.686-0.5625 0.875-0.22 0.18995-0.47425 0.26075-0.78125 0.21875-0.299-0.043-0.54275-0.1445-0.71875-0.3125-0.174-0.169-0.2685-0.3985-0.3125-0.6875-0.047-0.3-0.0655-0.57175-0.0625-0.84375 8e-3 -0.278 0.0387-0.621 0.0937-1 0.02-0.129 0.0245-0.29125 0.0625-0.53125 0.0418-0.238 0.0778-0.42925 0.0937-0.53125l0.46875-3.3438 8.2812 1.1562c0.155-0.799 0.3815-2.2533 0.6875-4.4062l0.25-1.75c0.64-4.519-1.3565-7.101-5.9375-7.75-0.565-0.0783-1.0812-0.127-1.5938-0.125zm16.75 1.0312-0.125 25.844 7.6562 1.0938 7-24.875-5.625-0.8125-4.0625 16.594 0.8125-17.031zm-16.219 3.375c0.13013-0.0208 0.25575-0.023 0.40625 0 0.84795 0.118 1.1492 1.031 0.90625 2.75l-0.34375 2.5-2.6875-0.40625c0.033-0.225 0.072-0.558 0.125-1 0.055-0.448 0.093-0.775 0.125-1 0.064-0.465 0.14275-0.8705 0.21875-1.1875 0.076-0.322 0.20175-0.61325 0.34375-0.90625 0.138-0.296 0.30625-0.496 0.53125-0.625 0.11-0.062 0.24487-0.1043 0.375-0.125zm-99.125 16.25c-2.934-0.048-5.7928 0.19925-8.5938 0.78125-2.788 0.575-5.2108 1.5348-7.2188 2.8438-2.019 1.306-3.7495 3.1703-5.1875 5.5312-1.43 2.372-2.387 5.209-2.875 8.5-0.93 6.122 0.5985 11.343 4.5625 15.719l-5.5625-0.84375-3.75 24.938 115.41 17.375 3.75-24.938-16.75-2.5c3.991-2.665 6.439-7.077 7.375-13.25 0.46115-3.055 0.44675-5.8165-0.0312-8.3125-0.495-2.503-1.1858-4.6378-2.0938-6.3438-0.913-1.688-2.3785-3.223-4.4375-4.625-2.04-1.413-3.897-2.5142-5.5-3.2812-1.607-0.788-3.9285-1.5542-6.9375-2.2812-3.023-0.737-5.3828-1.2495-7.0938-1.5625-1.694-0.303-4.1978-0.6825-7.4688-1.1875-0.14905-0.023-0.2538-0.0525-0.3438-0.0625l-37.594-5.6562c-3.524-0.531-6.7362-0.79675-9.6562-0.84375zm106.16 0.09375-0.65625 4.75 5.6875 0.8125 0.6875-4.75zm21.406 3.0312-0.65625 4.7188 5.6875 0.8125 0.6875-4.75zm-127.66 22c0.42088-0.0113 0.8925 0.012 1.4375 0.0625 1.082 0.087 1.8465 0.16875 2.3125 0.21875 0.461 0.044 1.2112 0.13325 2.2812 0.28125l43.594 6.5625c4.331 0.659 7.3375 1.5492 9.0625 2.6562 1.735 1.1 2.4785 2.589 2.1875 4.5-0.323 2.146-1.4702 3.5472-3.4062 4.1562-1.946 0.61785-4.7515 0.65575-8.4375 0.0937l-45-6.7812c-7.117-1.076-10.386-3.5148-9.8125-7.3438 0.143-0.915 0.44075-1.6935 0.84375-2.3125 0.433-0.602 1.0102-1.0305 1.7812-1.3125 0.759-0.286 1.4535-0.51425 2.0625-0.65625 0.3025-0.0725 0.67287-0.1137 1.0938-0.125zm-6.3125 46.125c-6.7525 0.0339-12.576 1.791-17.5 5.25-6.579 4.609-10.591 11.682-12.031 21.219-1.428 9.5 0.31299 17.418 5.25 23.75 4.915 6.344 12.281 10.264 22.094 11.75l41.188 6.1875c21.322 3.219 33.542-5.3968 36.625-25.844 1.506-10.038-0.0112-18.069-4.5312-24.094-4.498-6.018-12.082-9.8508-22.812-11.469l-41.219-6.1875c-2.4538-0.371-4.8117-0.5738-7.0625-0.5625zm-3.6875 24.688c0.93094 2e-3 1.9731 0.11344 3.0938 0.28125l50.156 7.5625c2.742 0.414 4.652 1.242 5.75 2.5 1.082 1.258 1.508 2.7172 1.25 4.4062-0.247 1.696-1.088 2.99-2.5 3.875-1.418 0.892-3.4808 1.0975-6.2188 0.6875l-50.188-7.5312c-5.971-0.898-8.6708-3.2638-8.0938-7.0938 0.47369-3.1102 2.7159-4.6945 6.75-4.6875zm212 4c-11.534 64.531-32.149 103.19-37.969 113.16l-19.844-13.125-2.3125 0.75 16.312 10.844-2.7812 4.1562-19.594-13.031-4.5 1.4688 22.062 14.656-2.7812 4.1562-25.344-16.875-4.5 1.4688 27.812 18.5-2.7812 4.1562-31.125-20.688-0.125 0.0312-61.312 92.594 12.875 8.5312 22.375-33.938 19.875 13.125 26.375-39.969 17.812 11.781-26.375 40 18.438 12.188-22.375 33.938 12.375 8.1875 61.281-92.594v-0.0312l-29.094-19.344 2.7812-4.1875 25.156 16.75-0.84375-5-22.281-14.812 2.7812-4.1875 18.375 12.219-0.84375-5-15.5-10.281 2.7812-4.1562 11.562 7.6875-0.4375-2.5938-15.438-10.219c4.1682-7.147 16.165-29.347 27.125-65zm-230.81 36.906c-3.6258 0.12169-6.6893 1.3338-9.1875 3.625-3.314 3.044-5.313 6.8352-6 11.406-0.571 3.772-0.08875 7.0605 1.4062 9.8125 1.497 2.742 4.4758 5.1368 8.9688 7.2188l-11.406-1.7188-3.7188 24.5 102.69 15.469 3.6875-24.5-78.531-11.812c-1.816-0.272-3.1738-0.95125-4.0938-2.0312-0.901-1.064-1.2718-2.191-1.0938-3.375 0.17-1.137 0.6945-1.9748 1.5625-2.4688 0.863-0.501 1.7328-0.764 2.5938-0.75 0.865 0.018 1.897 0.1175 3.125 0.3125l24.594 3.6875 3.5938-23.938-34.375-5.1875c-1.3318-0.1978-2.6039-0.2906-3.8125-0.25zm-17.406 65.031-0.65625 4.375-21.844-3.2812-3.5938 23.812 21.844 3.2812-0.5625 3.7812 18.688 2.8125 0.5625-3.7812 64.219 9.6875c1.812 0.275 3.435 0.442 4.875 0.5 1.444 0.04 3.029-0.10575 4.75-0.46875 1.714-0.381 3.1558-1.0212 4.3438-1.9062 1.183-0.895 2.2752-2.2552 3.2812-4.0312 0.989-1.793 1.6918-4.0122 2.0938-6.6562 0.782-5.248 0.82425-9.6978 0.15625-13.344l-16.688-2.5c0.097 0.622 0.086 1.2245 0 1.8125-0.099 0.582-0.27375 1.0592-0.59375 1.4062-0.295 0.35-0.784 0.54675-1.375 0.59375-0.595 0.0579-1.111 0.0643-1.625 0.0312-0.504-0.037-1.2035-0.115-2.0625-0.25l-57.781-8.6875 0.65625-4.375zm5.4375 42.969c-4.6529 0.12227-8.5055 1.1532-11.5 3.0938-4.579 2.954-7.3405 7.6375-8.3125 14.062-0.583 3.882-0.02975 7.351 1.6562 10.375 1.69 3.044 4.6565 5.4015 8.9375 7.0625l-11.75-1.7812-3.6875 24.5 102.72 15.469 3.7188-24.5-72.25-10.875c-1.19-0.186-2.1168-0.33375-2.8438-0.46875-0.737-0.131-1.7668-0.40575-3.0938-0.84375-1.339-0.434-2.4025-0.89225-3.1875-1.4062s-1.4438-1.2412-1.9688-2.1562c-0.548-0.922-0.7425-2.0135-0.5625-3.1875 0.291-1.914 1.3088-3.1692 3.0938-3.7812 1.78-0.616 3.73-0.78475 5.875-0.46875l76.688 11.562 3.625-24.188-79.188-11.906c-2.0987-0.31725-4.0768-0.5097-5.9375-0.5625-0.69778-0.0198-1.3666-0.0175-2.0312 0zm149.01 45.199-4.1426 6.2715 17.822 11.775 4.1348-6.2695zm-42.443 21.02-1.7812 2.6875 3.0625 2 1.7812-2.6875zm-111.59 4.3418c-15.205-0.0827-24.092 8.4891-26.689 25.752-1.47 9.712-0.1255 17.65 4.0625 23.812 2.0593 3.0319 4.7613 5.4932 8.0938 7.375h87.938c0.78765-1.3009 1.5266-2.7409 2.2188-4.375 1.186-2.854 2.072-6.093 2.625-9.75 0.931-6.163 0.9215-11.44-0.0625-15.781-0.98-4.346-2.9275-7.8492-5.8125-10.531-2.878-2.704-6.2722-4.8032-10.156-6.2812-3.877-1.463-8.673-2.646-14.375-3.5l-5.8125-0.875-3.6562 24.375c0.375-0.047 2.5538 0.259 6.5938 0.875 2.037 0.299 3.7348 0.60025 5.0938 0.90625 1.354 0.289 2.9058 0.73575 4.5938 1.3438 1.72 0.616 2.9752 1.3748 3.7812 2.3438 0.82205 0.952 1.1042 2.1195 0.90625 3.4375-0.192 1.289-0.65625 2.2812-1.4062 3.0312-0.739 0.759-1.753 1.2212-3 1.4062-1.28 0.18905-2.5105 0.24875-3.6875 0.21875-1.181-0.038-2.5788-0.1815-4.2188-0.4375-0.547-0.077-1.353-0.189-2.375-0.375-1.006-0.182-1.7598-0.308-2.2188-0.375l-14.375-2.1562 5.375-35.594c-3.441-0.707-9.7925-1.7602-19.062-3.1562l-7.4688-1.125c-2.4301-0.365-4.7321-0.55263-6.9043-0.56445zm118.81 0.4082-1.7812 2.6875 2.375 1.5625 1.7812-2.6875zm6.5312 4.3125-1.7812 2.6875 2.375 1.5625 1.7812-2.6875zm6.5625 4.3125-1.8125 2.6875 2.375 1.5625 1.8125-2.6875zm6.5312 4.3125-1.7812 2.6875 2.3438 1.5625 1.7812-2.6875zm6.5625 4.3125-1.8125 2.6875 2.375 1.5625 1.7812-2.6875zm6.5312 4.3125-1.8125 2.6875 2.375 1.5625 1.7812-2.6875zm-152.84 2.625c1.4204-0.0188 3.059 0.12875 4.9062 0.40625l10.688 1.5938-1.75 11.5c-0.955-0.151-2.3965-0.34475-4.3125-0.59375-1.922-0.239-3.3705-0.4115-4.3125-0.5625-2.027-0.303-3.7025-0.62175-5.0625-0.96875-1.391-0.349-2.6958-0.84975-3.9688-1.4688-1.263-0.591-2.1738-1.3708-2.7188-2.3438-0.53395-0.959-0.66575-2.109-0.46875-3.375 0.4095-2.7405 2.7386-4.131 7-4.1875zm159.38 1.6875-1.7812 2.6875 2.375 1.5625 1.7812-2.6875zm6.5312 4.2812-1.7812 2.6875 3.2188 2.125 1.7812-2.6875z" fill="#fff"/></g></svg>
