<?xml version="1.0" encoding="UTF-8" standalone="no"?>
<!-- Created with Inkscape (http://www.inkscape.org/) -->

<svg
   xmlns:dc="http://purl.org/dc/elements/1.1/"
   xmlns:cc="http://creativecommons.org/ns#"
   xmlns:rdf="http://www.w3.org/1999/02/22-rdf-syntax-ns#"
   xmlns:svg="http://www.w3.org/2000/svg"
   xmlns="http://www.w3.org/2000/svg"
   xmlns:sodipodi="http://sodipodi.sourceforge.net/DTD/sodipodi-0.dtd"
   xmlns:inkscape="http://www.inkscape.org/namespaces/inkscape"
   width="105mm"
   height="24mm"
   viewBox="0 0 372.04724 85.039368"
   id="svg10590"
   version="1.1"
   inkscape:version="0.91 r13725"
   sodipodi:docname="just_do_git_logo.svg">
  <defs
     id="defs10592" />
  <sodipodi:namedview
     id="base"
     pagecolor="#ffffff"
     bordercolor="#666666"
     borderopacity="1.0"
     inkscape:pageopacity="0.0"
     inkscape:pageshadow="2"
     inkscape:zoom="1.979899"
     inkscape:cx="69.825979"
     inkscape:cy="-45.390863"
     inkscape:document-units="mm"
     inkscape:current-layer="layer1"
     showgrid="false"
     width="9mm"
     showguides="true"
     inkscape:guide-bbox="true"
     inkscape:window-width="1920"
     inkscape:window-height="1018"
     inkscape:window-x="-8"
     inkscape:window-y="-8"
     inkscape:window-maximized="1" />
  <metadata
     id="metadata10595">
    <rdf:RDF>
      <cc:Work
         rdf:about="">
        <dc:format>image/svg+xml</dc:format>
        <dc:type
           rdf:resource="http://purl.org/dc/dcmitype/StillImage" />
        <dc:title></dc:title>
      </cc:Work>
    </rdf:RDF>
  </metadata>
  <g
     inkscape:label="JUST DO"
     inkscape:groupmode="layer"
     id="layer1"
     transform="translate(0,-967.32284)"
     style="display:inline">
    <g
       style="font-style:normal;font-weight:normal;font-size:345.40844727px;line-height:125%;font-family:Sans;letter-spacing:0px;word-spacing:0px;fill:#000000;fill-opacity:1;stroke:none;stroke-width:1px;stroke-linecap:butt;stroke-linejoin:miter;stroke-opacity:1"
       id="text15070">
      <path
         d="m 41.958832,992.03234 -8.117098,0 0,23.48776 c 0,3.5836 -1.770218,5.0084 -4.101726,5.0084 -2.07245,0 -4.619837,-2.4178 -4.619837,-2.4178 l -2.590564,6.7786 c 0,0 3.238204,3.4109 8.332979,3.4109 7.124049,0 11.096246,-3.7131 11.096246,-10.7076 l 0,-25.56026 z"
         style="font-style:normal;font-variant:normal;font-weight:bold;font-stretch:normal;font-size:43.17605591px;font-family:'League Spartan';-inkscape-font-specification:'League Spartan Bold'"
         id="path15129" />
      <path
         d="m 74.071025,992.03234 -8.117099,0 0,20.59496 c 0,5.9583 -1.813394,7.6854 -5.785591,7.6854 -3.972197,0 -5.785592,-1.7271 -5.785592,-7.6854 l 0,-20.59496 -8.117098,0 0,22.96966 c 0,8.8079 4.835718,13.2982 13.90269,13.2982 9.066972,0 13.90269,-4.4903 13.90269,-13.2982 l 0,-22.96966 z"
         style="font-style:normal;font-variant:normal;font-weight:bold;font-stretch:normal;font-size:43.17605591px;font-family:'League Spartan';-inkscape-font-specification:'League Spartan Bold'"
         id="path15131" />
      <path
         d="m 91.108701,991.3847 c -5.742416,0 -11.614359,4.23125 -11.614359,10.8804 0,3.7131 2.504211,7.0377 6.77864,9.1533 4.231254,2.1156 8.030747,3.2814 8.030747,5.8719 0,3.3246 -3.367733,3.4973 -5.137951,3.4973 -3.972197,0 -8.721563,-4.0154 -8.721563,-4.0154 l -4.058549,6.8218 c 0,0 5.051598,4.7062 13.384577,4.7062 6.951345,0 13.427757,-2.9791 13.427757,-11.4848 0,-4.663 -4.360785,-8.0307 -8.332983,-9.7146 -4.058549,-1.7271 -7.426281,-3.1519 -7.426281,-5.138 0,-1.9429 1.467986,-3.19499 4.231253,-3.19499 3.669965,0 7.210402,2.46099 7.210402,2.46099 l 3.281379,-6.47637 c 0,0 -4.576661,-3.36773 -11.053069,-3.36773 z"
         style="font-style:normal;font-variant:normal;font-weight:bold;font-stretch:normal;font-size:43.17605591px;font-family:'League Spartan';-inkscape-font-specification:'League Spartan Bold'"
         id="path15133" />
      <path
         d="m 102.63874,999.15639 8.4625,0 0,28.49621 8.1171,0 0,-28.49621 8.46251,0 0,-7.12405 -25.04211,0 0,7.12405 z"
         style="font-style:normal;font-variant:normal;font-weight:bold;font-stretch:normal;font-size:43.17605591px;font-family:'League Spartan';-inkscape-font-specification:'League Spartan Bold'"
         id="path15135" />
      <path
         d="m 142.40995,992.03234 0,35.62026 10.31908,0 c 9.80096,0 17.96124,-7.4263 17.96124,-17.8317 0,-10.36228 -8.20345,-17.78856 -17.96124,-17.78856 l -10.31908,0 z m 8.1171,28.36666 0,-21.11308 1.25211,0 c 6.04464,0 10.14637,4.61988 10.14637,10.57818 -0.0432,5.9582 -4.1449,10.5349 -10.14637,10.5349 l -1.25211,0 z"
         style="font-style:normal;font-variant:normal;font-weight:bold;font-stretch:normal;font-size:43.17605591px;font-family:'League Spartan';-inkscape-font-specification:'League Spartan Bold'"
         id="path15137" />
      <path
         d="m 172.68851,1009.8209 c 0,10.4054 7.42628,18.4793 17.96124,18.4793 10.23272,0 17.91806,-8.0739 17.91806,-18.4793 0,-10.40545 -8.03075,-18.4362 -17.91806,-18.4362 -9.80097,0 -17.96124,8.03075 -17.96124,18.4362 z m 8.76474,0 c 0,-5.3107 2.93597,-10.62133 9.1965,-10.62133 6.3037,0 9.15332,5.31063 9.15332,10.62133 0,5.3106 -2.67692,10.6213 -9.15332,10.6213 -6.64912,0 -9.1965,-5.3107 -9.1965,-10.6213 z"
         style="font-style:normal;font-variant:normal;font-weight:bold;font-stretch:normal;font-size:43.17605591px;font-family:'League Spartan';-inkscape-font-specification:'League Spartan Bold'"
         id="path15139" />
    </g>
  </g>
  <g
     inkscape:groupmode="layer"
     id="layer6"
     inkscape:label="git"
     transform="translate(0,14.173228)"
     sodipodi:insensitive="true">
    <g
       transform="matrix(0.06161615,0,0,-0.06161615,2.2485653,68.550909)"
       inkscape:label="ink_ext_XXXXXX"
       id="g10">
      <g
         transform="matrix(0.9763518,0,0,0.9763518,3503.9186,207.23286)"
         id="g12">
        <path
           inkscape:connector-curvature="0"
           id="path14"
           style="fill:#100f0d;fill-opacity:1;fill-rule:nonzero;stroke:none"
           d="m 1308.73,601.652 c -47.88,0 -83.54,-23.511 -83.54,-80.093 0,-42.633 23.5,-72.227 80.96,-72.227 48.7,0 81.78,28.695 81.78,73.988 0,51.328 -29.6,78.332 -79.2,78.332 z M 1213,202.133 c -11.33,-13.906 -22.62,-28.68 -22.62,-46.117 0,-34.786 44.36,-45.254 105.3,-45.254 50.48,0 119.24,3.535 119.24,50.468 0,27.895 -33.08,29.622 -74.88,32.243 l -127.04,8.66 z m 257.61,396.89 c 15.64,-20.023 32.2,-47.878 32.2,-87.91 0,-96.601 -75.72,-153.164 -185.35,-153.164 -27.88,0 -53.12,3.473 -68.77,7.817 l -28.73,-46.118 85.28,-5.21 c 150.58,-9.594 239.32,-13.954 239.32,-129.661 0,-100.109 -87.88,-156.652 -239.32,-156.652 -157.52,0 -217.57,40.0391 -217.57,108.781 0,39.18 17.41,60.02 47.87,88.782 -28.73,12.144 -38.29,33.89 -38.29,57.398 0,19.16 9.56,36.562 25.25,53.109 15.66,16.52 33.06,33.078 53.95,52.219 -42.64,20.883 -74.85,66.141 -74.85,130.555 0,100.074 66.15,168.804 199.28,168.804 37.43,0 60.07,-3.445 80.09,-8.699 l 169.72,0 0,-73.957 -80.08,-6.094" />
        <path
           inkscape:connector-curvature="0"
           id="path16"
           style="fill:#100f0d;fill-opacity:1;fill-rule:nonzero;stroke:none"
           d="m 1703.8,757.168 c -49.62,0 -78.33,28.746 -78.33,78.371 0,49.563 28.71,76.563 78.33,76.563 50.48,0 79.2,-27 79.2,-76.563 0,-49.625 -28.72,-78.371 -79.2,-78.371 z m -112.29,-523.012 0,68.719 44.4,6.074 c 12.19,1.766 13.92,4.356 13.92,17.442 l 0,255.867 c 0,9.555 -2.6,15.672 -11.33,18.262 l -46.99,16.55 9.57,70.469 180.17,0 0,-361.148 c 0,-13.95 0.84,-15.676 13.93,-17.442 l 44.39,-6.074 0,-68.719 -248.06,0" />
        <path
           inkscape:connector-curvature="0"
           id="path18"
           style="fill:#100f0d;fill-opacity:1;fill-rule:nonzero;stroke:none"
           d="m 2183.73,267.895 c -37.44,-18.254 -92.26,-34.793 -141.89,-34.793 -103.56,0 -142.71,41.734 -142.71,140.121 l 0,228.004 c 0,5.211 0,8.707 -6.99,8.707 l -60.91,0 0,77.453 c 76.61,8.726 107.05,47.027 116.62,141.886 l 82.69,0 0,-123.625 c 0,-6.07 0,-8.699 6.97,-8.699 l 122.7,0 0,-87.015 -129.67,0 0,-207.989 c 0,-51.355 12.2,-71.355 59.17,-71.355 24.4,0 49.61,6.074 70.5,13.914 l 23.52,-76.609" />
        <path
           inkscape:connector-curvature="0"
           id="path20"
           style="fill:#100f0d;fill-opacity:1;fill-rule:nonzero;stroke:none"
           d="m 894.215,496.285 -397.938,397.91 c -22.898,22.918 -60.066,22.918 -82.996,0 L 330.652,811.559 435.469,706.738 c 24.367,8.227 52.297,2.711 71.711,-16.707 19.515,-19.539 24.992,-47.707 16.558,-72.156 l 101.024,-101.02 c 24.441,8.422 52.64,2.981 72.156,-16.57 27.285,-27.277 27.285,-71.476 0,-98.762 -27.289,-27.293 -71.488,-27.293 -98.789,0 -20.516,20.532 -25.59,50.676 -15.199,75.954 l -94.215,94.218 -0.008,-247.929 c 6.652,-3.293 12.93,-7.688 18.473,-13.207 27.277,-27.274 27.277,-71.465 0,-98.782 -27.285,-27.273 -71.504,-27.273 -98.762,0 -27.281,27.317 -27.281,71.508 0,98.782 6.742,6.73 14.543,11.824 22.867,15.238 l 0,250.23 c -8.324,3.403 -16.113,8.461 -22.867,15.239 -20.664,20.648 -25.641,50.976 -15.043,76.351 L 290.051,770.961 17.1992,498.125 c -22.92576,-22.937 -22.92576,-60.105 0,-83.027 L 415.133,17.1875 c 22.91,-22.91797 60.066,-22.91797 83.008,0 L 894.215,413.254 c 22.918,22.93 22.918,60.109 0,83.031" />
      </g>
    </g>
  </g>
  <g
     inkscape:groupmode="layer"
     id="layer7"
     inkscape:label="beschnittrahmen"
     transform="translate(0,14.173228)"
     sodipodi:insensitive="true"
     style="display:inline">
    <rect
       style="fill:none;fill-opacity:1;stroke:#ff00ff;stroke-width:0.21450987;stroke-miterlimit:4;stroke-dasharray:none;stroke-opacity:1"
       id="rect15126"
       width="357.65952"
       height="70.651634"
       x="7.1938543"
       y="-6.9793587" />
  </g>
</svg>
