<?xml version="1.0" encoding="UTF-8" standalone="no"?>
<!-- Created with Inkscape (http://www.inkscape.org/) -->

<svg
   xmlns:dc="http://purl.org/dc/elements/1.1/"
   xmlns:cc="http://creativecommons.org/ns#"
   xmlns:rdf="http://www.w3.org/1999/02/22-rdf-syntax-ns#"
   xmlns:svg="http://www.w3.org/2000/svg"
   xmlns="http://www.w3.org/2000/svg"
   xmlns:sodipodi="http://sodipodi.sourceforge.net/DTD/sodipodi-0.dtd"
   xmlns:inkscape="http://www.inkscape.org/namespaces/inkscape"
   width="85mm"
   height="54mm"
   viewBox="0 0 301.1811 191.33858"
   id="svg2"
   version="1.1"
   inkscape:version="0.91 r13725"
   sodipodi:docname="mirror_beauty.svg">
  <defs
     id="defs4" />
  <sodipodi:namedview
     id="base"
     pagecolor="#ffffff"
     bordercolor="#666666"
     borderopacity="1.0"
     inkscape:pageopacity="0.0"
     inkscape:pageshadow="2"
     inkscape:zoom="2.8"
     inkscape:cx="130.53486"
     inkscape:cy="73.962662"
     inkscape:document-units="mm"
     inkscape:current-layer="flowRoot8071"
     showgrid="false"
     width="85mm"
     inkscape:window-width="1920"
     inkscape:window-height="1018"
     inkscape:window-x="-8"
     inkscape:window-y="-8"
     inkscape:window-maximized="1" />
  <metadata
     id="metadata7">
    <rdf:RDF>
      <cc:Work
         rdf:about="">
        <dc:format>image/svg+xml</dc:format>
        <dc:type
           rdf:resource="http://purl.org/dc/dcmitype/StillImage" />
        <dc:title></dc:title>
      </cc:Work>
    </rdf:RDF>
  </metadata>
  <g
     inkscape:label="Text"
     inkscape:groupmode="layer"
     id="layer1"
     transform="translate(0,-861.02362)"
     style="display:inline"
     sodipodi:insensitive="true">
    <g
       transform="matrix(1.0159846,0,0,1.0159846,9.7629439,879.72498)"
       style="font-style:normal;font-weight:normal;font-size:40px;line-height:125%;font-family:Sans;letter-spacing:0px;word-spacing:0px;fill:#000000;fill-opacity:1;stroke:none;stroke-width:1px;stroke-linecap:butt;stroke-linejoin:miter;stroke-opacity:1"
       id="flowRoot8071">
      <path
         d="m 88.104766,25.512985 3.105,-10.4625 2.8125,10.4625 3.4875,0 4.545004,-16.4024997 -3.285004,0 -2.7225,10.8224997 -2.88,-10.8224997 -3.015,0 -3.105,10.8224997 -2.385,-10.8224997 -4.0725,0 4.095,16.4024997 3.42,0 z"
         style="font-style:normal;font-variant:normal;font-weight:bold;font-stretch:normal;font-size:22.5px;font-family:'DB Sans';-inkscape-font-specification:'DB Sans Bold';text-align:center;text-anchor:middle;fill:#d40000"
         id="path8091"
         inkscape:connector-curvature="0" />
      <path
         d="m 117.36391,25.467985 -6.2775,-16.3799997 -2.97,0 -6.3675,16.3799997 3.285,0 1.26,-3.465 5.625,0 1.2825,3.465 4.1625,0 z m -6.3675,-6.0525 -3.78,0 1.89,-5.2425 1.89,5.2425 z"
         style="font-style:normal;font-variant:normal;font-weight:bold;font-stretch:normal;font-size:22.5px;font-family:'DB Sans';-inkscape-font-specification:'DB Sans Bold';text-align:center;text-anchor:middle;fill:#d40000"
         id="path8093"
         inkscape:connector-curvature="0" />
      <path
         d="m 119.64273,25.467985 3.96,0 0,-6.5925 0.72,0 c 1.035,0 1.44,0.2925 2.2275,1.62 l 2.9475,4.9725 4.2975,0 -3.465,-5.76 c -0.54,-0.8775 -1.08,-1.4175 -1.71,-1.71 2.3625,-0.675 3.3525,-1.89 3.3525,-4.1175 0,-3.2175 -2.0025,-4.7699997 -6.0975,-4.7699997 l -6.2325,0 0,16.3574997 z m 3.96,-9.18 0,-4.2975 2.1375,0 c 1.7775,0 2.385,0.54 2.385,2.115 0,1.5525 -0.675,2.1825 -2.385,2.1825 l -2.1375,0 z"
         style="font-style:normal;font-variant:normal;font-weight:bold;font-stretch:normal;font-size:22.5px;font-family:'DB Sans';-inkscape-font-specification:'DB Sans Bold';text-align:center;text-anchor:middle;fill:#d40000"
         id="path8095"
         inkscape:connector-curvature="0" />
      <path
         d="m 135.72672,25.467985 3.3075,0 0,-10.44 7.9425,10.44 2.61,0 0,-16.3574997 -3.3075,0 0,9.4724997 -7.2,-9.4724997 -3.3525,0 0,16.3574997 z"
         style="font-style:normal;font-variant:normal;font-weight:bold;font-stretch:normal;font-size:22.5px;font-family:'DB Sans';-inkscape-font-specification:'DB Sans Bold';text-align:center;text-anchor:middle;fill:#d40000"
         id="path8097"
         inkscape:connector-curvature="0" />
      <path
         d="m 154.16406,23.262985 -1.89,0 0,2.205 7.7175,0 0,-2.205 -1.8675,0 0,-11.9475 1.8675,0 0,-2.2049997 -7.7175,0 0,2.2049997 1.89,0 0,11.9475 z"
         style="font-style:normal;font-variant:normal;font-weight:bold;font-stretch:normal;font-size:22.5px;font-family:'DB Sans';-inkscape-font-specification:'DB Sans Bold';text-align:center;text-anchor:middle;fill:#d40000"
         id="path8099"
         inkscape:connector-curvature="0" />
      <path
         d="m 162.70914,25.467985 3.3075,0 0,-10.44 7.9425,10.44 2.61,0 0,-16.3574997 -3.3075,0 0,9.4724997 -7.2,-9.4724997 -3.3525,0 0,16.3574997 z"
         style="font-style:normal;font-variant:normal;font-weight:bold;font-stretch:normal;font-size:22.5px;font-family:'DB Sans';-inkscape-font-specification:'DB Sans Bold';text-align:center;text-anchor:middle;fill:#d40000"
         id="path8101"
         inkscape:connector-curvature="0" />
      <path
         d="m 192.68898,9.4479853 c -1.575,-0.5175 -2.925,-0.72 -4.635,-0.72 -2.565,0 -4.7025,0.6525 -6.1875,1.9124997 -1.7775,1.4625 -2.5875,3.6 -2.5875,6.75 0,2.61 0.5175,4.455 1.5975,5.7825 1.4175,1.7325 3.78,2.6325 6.975,2.6325 2.025,0 3.7575,-0.3375 5.7825,-1.1025 l 0,-7.9425 -6.345,0 0,2.8575 2.655,0 0,3.0825 c -0.63,0.1575 -1.2375,0.225 -1.9575,0.225 -3.3075,0 -4.5675,-1.5075 -4.5675,-5.5125 0,-2.16 0.2925,-3.4425 0.99,-4.32 0.765,-0.945 2.0025,-1.395 3.78,-1.395 1.5525,0 2.9025,0.2475 4.5,0.855 l 0,-3.1049997 z"
         style="font-style:normal;font-variant:normal;font-weight:bold;font-stretch:normal;font-size:22.5px;font-family:'DB Sans';-inkscape-font-specification:'DB Sans Bold';text-align:center;text-anchor:middle;fill:#d40000"
         id="path8103"
         inkscape:connector-curvature="0" />
      <path
         d="m 198.45531,21.642985 c -1.17,0 -2.07,0.8775 -2.07,2.0475 0,1.215 0.8775,2.0925 2.07,2.0925 1.1925,0 2.07,-0.8775 2.07,-2.07 0,-1.1925 -0.8775,-2.07 -2.07,-2.07 z m 0,-6.975 c -1.17,0 -2.07,0.8775 -2.07,2.0475 0,1.215 0.8775,2.0925 2.07,2.0925 1.1925,0 2.07,-0.8775 2.07,-2.07 0,-1.1925 -0.8775,-2.07 -2.07,-2.07 z"
         style="font-style:normal;font-variant:normal;font-weight:bold;font-stretch:normal;font-size:22.5px;font-family:'DB Sans';-inkscape-font-specification:'DB Sans Bold';text-align:center;text-anchor:middle;fill:#d40000"
         id="path8105"
         inkscape:connector-curvature="0" />
      <path
         d="m 48.835937,53.86599 2.1825,0 0,-7.29 1.1025,0 c 1.440001,0 1.935,0.2925 2.947501,1.8225 l 3.667499,5.4675 2.4975,0 -4.049999,-6.03 c -0.5625,-0.81 -1.057501,-1.2825 -1.620001,-1.575 2.655,-0.5625 3.847501,-1.89 3.847501,-4.32 0,-2.9475 -1.665001,-4.4325 -4.995001,-4.4325 l -5.58,0 0,16.3575 z m 2.1825,-8.9325 0,-5.7825 3.015,0 c 2.2725,0 3.06,0.7425 3.06,2.8575 0,1.035 -0.134999,1.575 -0.5625,2.07 -0.4725,0.5625 -1.305,0.855 -2.407499,0.855 l -3.105001,0 z"
         style="font-style:normal;font-variant:normal;font-weight:normal;font-stretch:normal;font-size:22.5px;font-family:'DB Sans';-inkscape-font-specification:'DB Sans';text-align:center;text-anchor:middle"
         id="path8107"
         inkscape:connector-curvature="0" />
      <path
         d="m 72.531953,48.51099 0,-0.945 c 0,-3.6 -1.6875,-5.5575 -4.77,-5.5575 -3.33,0 -5.1525,2.16 -5.1525,6.12 0,4.0275 1.89,6.0975 5.58,6.0975 1.3275,0 2.4075,-0.27 3.825,-0.945 l 0,-1.7325 c -1.89,0.855 -2.5425,1.035 -3.78,1.035 -2.475,0 -3.3975,-1.125 -3.3975,-4.0725 l 7.695,0 z m -7.695,-1.53 c 0.0675,-0.9225 0.18,-1.4175 0.36,-1.89 0.4725,-1.0575 1.305,-1.5975 2.5425,-1.5975 1.755,0 2.4075,0.9 2.5425,3.4875 l -5.445,0 z"
         style="font-style:normal;font-variant:normal;font-weight:normal;font-stretch:normal;font-size:22.5px;font-family:'DB Sans';-inkscape-font-specification:'DB Sans';text-align:center;text-anchor:middle"
         id="path8109"
         inkscape:connector-curvature="0" />
      <path
         d="m 74.354805,43.71849 1.7325,0 0,10.1475 2.0925,0 0,-10.1475 2.5875,0 0,-1.5075 -2.5875,0 0,-0.9225 c 0,-2.0025 1.0125,-2.88 3.33,-2.88 0.6075,0 0.945,0.0225 1.845,0.135 l 0,15.3225 2.0925,0 0,-16.56 c -1.7325,-0.3825 -2.565,-0.495 -3.915,-0.495 -3.7575,0 -5.445,1.53 -5.445,4.9275 l 0,0.4725 -1.7325,0 0,1.5075 z"
         style="font-style:normal;font-variant:normal;font-weight:normal;font-stretch:normal;font-size:22.5px;font-family:'DB Sans';-inkscape-font-specification:'DB Sans';text-align:center;text-anchor:middle"
         id="path8111"
         inkscape:connector-curvature="0" />
      <path
         d="m 98.591523,48.51099 0,-0.945 c 0,-3.6 -1.6875,-5.5575 -4.77,-5.5575 -3.33,0 -5.1525,2.16 -5.1525,6.12 0,4.0275 1.89,6.0975 5.58,6.0975 1.3275,0 2.4075,-0.27 3.825,-0.945 l 0,-1.7325 c -1.89,0.855 -2.5425,1.035 -3.78,1.035 -2.475,0 -3.3975,-1.125 -3.3975,-4.0725 l 7.695,0 z m -7.695,-1.53 c 0.0675,-0.9225 0.18,-1.4175 0.36,-1.89 0.4725,-1.0575 1.305,-1.5975 2.5425,-1.5975 1.755,0 2.4075,0.9 2.5425,3.4875 l -5.445,0 z"
         style="font-style:normal;font-variant:normal;font-weight:normal;font-stretch:normal;font-size:22.5px;font-family:'DB Sans';-inkscape-font-specification:'DB Sans';text-align:center;text-anchor:middle"
         id="path8113"
         inkscape:connector-curvature="0" />
      <path
         d="m 109.77438,51.57099 c -1.935,0.9 -2.31751,1.0125 -3.465,1.0125 -2.4525,0 -3.24001,-1.08 -3.24001,-4.4775 0,-3.3975 0.74251,-4.4325 3.15001,-4.4325 1.1025,0 1.6875,0.1575 3.32999,0.855 l 0,-1.8675 c -1.28249,-0.4725 -2.18249,-0.6525 -3.3075,-0.6525 -3.55499,0 -5.39999,2.07 -5.39999,6.0525 0,4.1175 1.8,6.165 5.3775,6.165 1.19249,0 2.20499,-0.27 3.555,-0.9225 l 0,-1.7325 z"
         style="font-style:normal;font-variant:normal;font-weight:normal;font-stretch:normal;font-size:22.5px;font-family:'DB Sans';-inkscape-font-specification:'DB Sans';text-align:center;text-anchor:middle"
         id="path8115"
         inkscape:connector-curvature="0" />
      <path
         d="m 118.82359,52.24599 c -0.72,0.225 -1.08,0.2925 -1.5975,0.2925 -1.35,0 -1.9125,-0.585 -1.9125,-1.98 l 0,-6.84 3.195,0 0,-1.5075 -3.195,0 0,-2.52 -1.305,0 -0.315,1.125 c -0.2925,1.08 -0.72,1.395 -1.7775,1.395 l -0.4275,0 0,1.5075 1.7325,0 0,6.5475 c 0,2.61 1.17,3.8475 3.69,3.8475 0.6975,0 1.215,-0.09 1.9125,-0.36 l 0,-1.5075 z"
         style="font-style:normal;font-variant:normal;font-weight:normal;font-stretch:normal;font-size:22.5px;font-family:'DB Sans';-inkscape-font-specification:'DB Sans';text-align:center;text-anchor:middle"
         id="path8117"
         inkscape:connector-curvature="0" />
      <path
         d="m 123.09227,37.46349 c -0.7875,0 -1.3725,0.5625 -1.3725,1.35 0,0.8325 0.5625,1.395 1.3725,1.395 0.81,0 1.3725,-0.5625 1.3725,-1.3725 0,-0.81 -0.5625,-1.3725 -1.3725,-1.3725 z m 1.08,16.4025 0,-11.925 -0.4725,0 c -0.5175,0.3375 -1.17,0.4725 -2.475,0.4725 l -0.9,0 0,1.5975 1.755,0 0,9.855 2.0925,0 z"
         style="font-style:normal;font-variant:normal;font-weight:normal;font-stretch:normal;font-size:22.5px;font-family:'DB Sans';-inkscape-font-specification:'DB Sans';text-align:center;text-anchor:middle"
         id="path8119"
         inkscape:connector-curvature="0" />
      <path
         d="m 132.65195,42.00849 c -3.51,0 -5.355,2.07 -5.355,6.03 0,4.14 1.7775,6.1875 5.355,6.1875 3.5775,0 5.3775,-2.0475 5.3775,-6.12 0,-4.05 -1.8,-6.0975 -5.3775,-6.0975 z m 0,1.485 c 2.25,0 3.1275,1.2825 3.1275,4.6125 0,3.3525 -0.855,4.635 -3.1275,4.635 -2.25,0 -3.105,-1.2825 -3.105,-4.68 0,-3.285 0.8775,-4.5675 3.105,-4.5675 z"
         style="font-style:normal;font-variant:normal;font-weight:normal;font-stretch:normal;font-size:22.5px;font-family:'DB Sans';-inkscape-font-specification:'DB Sans';text-align:center;text-anchor:middle"
         id="path8121"
         inkscape:connector-curvature="0" />
      <path
         d="m 141.11371,53.86599 2.0925,0 0,-8.775 c 1.8,-1.1025 2.475,-1.35 3.555,-1.35 1.2375,0 1.8,0.675 1.8,2.16 l 0,7.965 2.0925,0 0,-8.2575 c 0,-2.2725 -1.17,-3.6 -3.195,-3.6 -1.44,0 -2.565,0.495 -4.2525,1.845 l 0,-1.9125 -0.36,0 c -0.36,0.315 -1.035,0.54 -1.7325,0.5625 l 0,11.3625 z"
         style="font-style:normal;font-variant:normal;font-weight:normal;font-stretch:normal;font-size:22.5px;font-family:'DB Sans';-inkscape-font-specification:'DB Sans';text-align:center;text-anchor:middle"
         id="path8123"
         inkscape:connector-curvature="0" />
      <path
         d="m 153.73164,53.32599 c 1.215,0.5625 2.385,0.81 3.69,0.81 2.6325,0 4.185,-1.26 4.185,-3.375 0,-1.08 -0.36,-1.8225 -1.17,-2.4525 -0.45,-0.36 -0.9225,-0.585 -2.295,-1.1025 -2.0925,-0.7875 -2.4525,-1.1025 -2.4525,-2.0925 0,-0.9225 0.72,-1.395 2.0925,-1.395 1.0125,0 1.8,0.2025 3.2175,0.855 l 0,-1.8675 c -1.305,-0.495 -2.115,-0.6525 -3.195,-0.6525 -2.5425,0 -3.96,1.17 -3.96,3.24 0,0.9225 0.2925,1.6875 0.9,2.2725 0.5175,0.495 1.1475,0.8325 2.655,1.395 1.845,0.6975 2.25,1.0575 2.25,1.98 0,1.1025 -0.72,1.575 -2.385,1.575 -1.2825,0 -2.1825,-0.225 -3.5325,-0.9225 l 0,1.7325 z"
         style="font-style:normal;font-variant:normal;font-weight:normal;font-stretch:normal;font-size:22.5px;font-family:'DB Sans';-inkscape-font-specification:'DB Sans';text-align:center;text-anchor:middle"
         id="path8125"
         inkscape:connector-curvature="0" />
      <path
         d="m 173.14598,37.46349 c -0.7875,0 -1.3725,0.5625 -1.3725,1.35 0,0.8325 0.5625,1.395 1.3725,1.395 0.81,0 1.3725,-0.5625 1.3725,-1.3725 0,-0.81 -0.5625,-1.3725 -1.3725,-1.3725 z m 1.08,16.4025 0,-11.925 -0.4725,0 c -0.5175,0.3375 -1.17,0.4725 -2.475,0.4725 l -0.9,0 0,1.5975 1.755,0 0,9.855 2.0925,0 z"
         style="font-style:normal;font-variant:normal;font-weight:normal;font-stretch:normal;font-size:22.5px;font-family:'DB Sans';-inkscape-font-specification:'DB Sans';text-align:center;text-anchor:middle"
         id="path8127"
         inkscape:connector-curvature="0" />
      <path
         d="m 178.11566,53.86599 2.0925,0 0,-8.775 c 1.8,-1.1025 2.475,-1.35 3.555,-1.35 1.2375,0 1.8,0.675 1.8,2.16 l 0,7.965 2.0925,0 0,-8.2575 c 0,-2.2725 -1.17,-3.6 -3.195,-3.6 -1.44,0 -2.565,0.495 -4.2525,1.845 l 0,-1.9125 -0.36,0 c -0.36,0.315 -1.035,0.54 -1.7325,0.5625 l 0,11.3625 z"
         style="font-style:normal;font-variant:normal;font-weight:normal;font-stretch:normal;font-size:22.5px;font-family:'DB Sans';-inkscape-font-specification:'DB Sans';text-align:center;text-anchor:middle"
         id="path8129"
         inkscape:connector-curvature="0" />
      <path
         d="m 204.34117,52.24599 c -0.72,0.225 -1.08,0.2925 -1.5975,0.2925 -1.35,0 -1.9125,-0.585 -1.9125,-1.98 l 0,-6.84 3.195,0 0,-1.5075 -3.195,0 0,-2.52 -1.305,0 -0.315,1.125 c -0.2925,1.08 -0.72,1.395 -1.7775,1.395 l -0.4275,0 0,1.5075 1.7325,0 0,6.5475 c 0,2.61 1.17,3.8475 3.69,3.8475 0.6975,0 1.215,-0.09 1.9125,-0.36 l 0,-1.5075 z"
         style="font-style:normal;font-variant:normal;font-weight:normal;font-stretch:normal;font-size:22.5px;font-family:'DB Sans';-inkscape-font-specification:'DB Sans';text-align:center;text-anchor:middle"
         id="path8131"
         inkscape:connector-curvature="0" />
      <path
         d="m 206.89984,53.86599 2.0925,0 0,-8.775 c 1.8,-1.1025 2.475,-1.35 3.555,-1.35 1.1925,0 1.8,0.6975 1.8,2.025 l 0,8.1 2.0925,0 0,-8.2575 c 0,-2.2725 -1.17,-3.6 -3.195,-3.6 -1.44,0 -2.5425,0.4725 -4.2525,1.845 l 0,-6.9975 -0.36,0 c -0.36,0.315 -1.035,0.54 -1.7325,0.5625 l 0,16.4475 z"
         style="font-style:normal;font-variant:normal;font-weight:normal;font-stretch:normal;font-size:22.5px;font-family:'DB Sans';-inkscape-font-specification:'DB Sans';text-align:center;text-anchor:middle"
         id="path8133"
         inkscape:connector-curvature="0" />
      <path
         d="m 221.92527,37.46349 c -0.7875,0 -1.3725,0.5625 -1.3725,1.35 0,0.8325 0.5625,1.395 1.3725,1.395 0.81,0 1.3725,-0.5625 1.3725,-1.3725 0,-0.81 -0.5625,-1.3725 -1.3725,-1.3725 z m 1.08,16.4025 0,-11.925 -0.4725,0 c -0.5175,0.3375 -1.17,0.4725 -2.475,0.4725 l -0.9,0 0,1.5975 1.755,0 0,9.855 2.0925,0 z"
         style="font-style:normal;font-variant:normal;font-weight:normal;font-stretch:normal;font-size:22.5px;font-family:'DB Sans';-inkscape-font-specification:'DB Sans';text-align:center;text-anchor:middle"
         id="path8135"
         inkscape:connector-curvature="0" />
      <path
         d="m 226.19746,53.32599 c 1.215,0.5625 2.385,0.81 3.69,0.81 2.6325,0 4.185,-1.26 4.185,-3.375 0,-1.08 -0.36,-1.8225 -1.17,-2.4525 -0.45,-0.36 -0.9225,-0.585 -2.295,-1.1025 -2.0925,-0.7875 -2.4525,-1.1025 -2.4525,-2.0925 0,-0.9225 0.72,-1.395 2.0925,-1.395 1.0125,0 1.8,0.2025 3.2175,0.855 l 0,-1.8675 c -1.305,-0.495 -2.115,-0.6525 -3.195,-0.6525 -2.5425,0 -3.96,1.17 -3.96,3.24 0,0.9225 0.2925,1.6875 0.9,2.2725 0.5175,0.495 1.1475,0.8325 2.655,1.395 1.845,0.6975 2.25,1.0575 2.25,1.98 0,1.1025 -0.72,1.575 -2.385,1.575 -1.2825,0 -2.1825,-0.225 -3.5325,-0.9225 l 0,1.7325 z"
         style="font-style:normal;font-variant:normal;font-weight:normal;font-stretch:normal;font-size:22.5px;font-family:'DB Sans';-inkscape-font-specification:'DB Sans';text-align:center;text-anchor:middle"
         id="path8137"
         inkscape:connector-curvature="0" />
      <path
         d="m 17.100039,81.99099 2.0925,0 0,-8.8875 c 1.6875,-1.035 2.2275,-1.2375 3.2625,-1.2375 1.08,0 1.5525,0.6075 1.5525,2.0475 l 0,8.0775 2.0925,0 0,-8.8875 c 1.6875,-1.0125 2.2725,-1.2375 3.3075,-1.2375 1.0125,0 1.5075,0.63 1.5075,1.9125 l 0,8.2125 2.0925,0 0,-8.2575 c 0,-2.295 -1.0575,-3.6 -2.9025,-3.6 -1.3725,0 -2.5875,0.54 -4.365,1.935 -0.495,-1.3725 -1.2375,-1.935 -2.5875,-1.935 -1.35,0 -2.295,0.4275 -3.96,1.8 l 0,-1.8675 -0.36,0 c -0.36,0.315 -1.035,0.54 -1.7325,0.5625 l 0,11.3625 z"
         style="font-style:normal;font-variant:normal;font-weight:normal;font-stretch:normal;font-size:22.5px;font-family:'DB Sans';-inkscape-font-specification:'DB Sans';text-align:center;text-anchor:middle"
         id="path8139"
         inkscape:connector-curvature="0" />
      <path
         d="m 38.453594,65.58849 c -0.7875,0 -1.3725,0.5625 -1.3725,1.35 0,0.8325 0.5625,1.395 1.3725,1.395 0.81,0 1.3725,-0.5625 1.3725,-1.3725 0,-0.81 -0.5625,-1.3725 -1.3725,-1.3725 z m 1.08,16.4025 0,-11.925 -0.4725,0 c -0.5175,0.3375 -1.17,0.4725 -2.475,0.4725 l -0.9,0 0,1.5975 1.755,0 0,9.855 2.0925,0 z"
         style="font-style:normal;font-variant:normal;font-weight:normal;font-stretch:normal;font-size:22.5px;font-family:'DB Sans';-inkscape-font-specification:'DB Sans';text-align:center;text-anchor:middle"
         id="path8141"
         inkscape:connector-curvature="0" />
      <path
         d="m 42.320781,81.99099 5.8725,0 0,-1.5075 -1.98,0 0,-7.335 c 0.945,-0.495 2.25,-0.8325 3.825,-0.99 l 0,-2.025 c -1.2375,0.1125 -2.475,0.7425 -3.825,1.9125 l 0,-1.98 -0.4725,0 c -0.5175,0.3375 -1.17,0.4725 -2.475,0.4725 l -0.9,0 0,1.5975 1.755,0 0,8.3475 -1.8,0 0,1.5075 z"
         style="font-style:normal;font-variant:normal;font-weight:normal;font-stretch:normal;font-size:22.5px;font-family:'DB Sans';-inkscape-font-specification:'DB Sans';text-align:center;text-anchor:middle"
         id="path8143"
         inkscape:connector-curvature="0" />
      <path
         d="m 51.637188,81.99099 5.872499,0 0,-1.5075 -1.979999,0 0,-7.335 c 0.945,-0.495 2.25,-0.8325 3.824999,-0.99 l 0,-2.025 c -1.2375,0.1125 -2.474999,0.7425 -3.824999,1.9125 l 0,-1.98 -0.472501,0 c -0.5175,0.3375 -1.169999,0.4725 -2.474999,0.4725 l -0.900001,0 0,1.5975 1.755,0 0,8.3475 -1.799999,0 0,1.5075 z"
         style="font-style:normal;font-variant:normal;font-weight:normal;font-stretch:normal;font-size:22.5px;font-family:'DB Sans';-inkscape-font-specification:'DB Sans';text-align:center;text-anchor:middle"
         id="path8145"
         inkscape:connector-curvature="0" />
      <path
         d="m 66.206641,70.13349 c -3.51,0 -5.355,2.07 -5.355,6.03 0,4.14 1.7775,6.1875 5.355,6.1875 3.5775,0 5.3775,-2.0475 5.3775,-6.12 0,-4.05 -1.8,-6.0975 -5.3775,-6.0975 z m 0,1.485 c 2.25,0 3.1275,1.2825 3.1275,4.6125 0,3.3525 -0.855,4.635 -3.1275,4.635 -2.25,0 -3.105,-1.2825 -3.105,-4.68 0,-3.285 0.8775,-4.5675 3.105,-4.5675 z"
         style="font-style:normal;font-variant:normal;font-weight:normal;font-stretch:normal;font-size:22.5px;font-family:'DB Sans';-inkscape-font-specification:'DB Sans';text-align:center;text-anchor:middle"
         id="path8147"
         inkscape:connector-curvature="0" />
      <path
         d="m 73.565898,81.99099 5.8725,0 0,-1.5075 -1.98,0 0,-7.335 c 0.945,-0.495 2.25,-0.8325 3.825,-0.99 l 0,-2.025 c -1.2375,0.1125 -2.475,0.7425 -3.825,1.9125 l 0,-1.98 -0.4725,0 c -0.5175,0.3375 -1.17,0.4725 -2.475,0.4725 l -0.9,0 0,1.5975 1.755,0 0,8.3475 -1.8,0 0,1.5075 z"
         style="font-style:normal;font-variant:normal;font-weight:normal;font-stretch:normal;font-size:22.5px;font-family:'DB Sans';-inkscape-font-specification:'DB Sans';text-align:center;text-anchor:middle"
         id="path8149"
         inkscape:connector-curvature="0" />
      <path
         d="m 90.532656,81.99099 2.0925,0 0,-8.8875 c 1.6875,-1.035 2.2275,-1.2375 3.2625,-1.2375 1.08,0 1.5525,0.6075 1.5525,2.0475 l 0,8.0775 2.0925,0 0,-8.8875 c 1.687504,-1.0125 2.272504,-1.2375 3.307504,-1.2375 1.0125,0 1.5075,0.63 1.5075,1.9125 l 0,8.2125 2.0925,0 0,-8.2575 c 0,-2.295 -1.0575,-3.6 -2.9025,-3.6 -1.3725,0 -2.5875,0.54 -4.365004,1.935 -0.495,-1.3725 -1.2375,-1.935 -2.5875,-1.935 -1.35,0 -2.295,0.4275 -3.96,1.8 l 0,-1.8675 -0.36,0 c -0.36,0.315 -1.035,0.54 -1.7325,0.5625 l 0,11.3625 z"
         style="font-style:normal;font-variant:normal;font-weight:normal;font-stretch:normal;font-size:22.5px;font-family:'DB Sans';-inkscape-font-specification:'DB Sans';text-align:center;text-anchor:middle"
         id="path8151"
         inkscape:connector-curvature="0" />
      <path
         d="m 119.80621,80.48349 c -0.2475,0.0675 -0.405,0.09 -0.6525,0.09 -0.63,0 -0.855,-0.2475 -0.855,-0.99 l 0,-5.2425 c 0,-2.9025 -1.3275,-4.2075 -4.2525,-4.2075 -1.4175,0 -2.6775,0.315 -4.095,0.99 l 0,1.6875 c 1.665,-0.7425 2.7675,-1.035 3.9825,-1.035 1.62,0 2.2725,0.72 2.2725,2.5425 l 0,0.9675 c -2.88,0.2025 -3.5325,0.27 -4.59,0.585 -1.6425,0.4725 -2.385,1.44 -2.385,3.195 0,2.0925 1.1925,3.285 3.24,3.285 1.4175,0 2.5875,-0.585 3.8025,-1.89 0.2925,1.1475 0.945,1.6875 2.0475,1.6875 0.4275,0 0.9675,-0.09 1.485,-0.27 l 0,-1.395 z m -3.6,-1.35 c -1.0125,1.125 -2.0925,1.6875 -3.195,1.6875 -1.1925,0 -1.6875,-0.54 -1.6875,-1.845 0,-1.5525 0.8325,-2.07 3.6225,-2.2725 l 0.945,-0.0675 0.315,-0.0225 0,2.52 z"
         style="font-style:normal;font-variant:normal;font-weight:normal;font-stretch:normal;font-size:22.5px;font-family:'DB Sans';-inkscape-font-specification:'DB Sans';text-align:center;text-anchor:middle"
         id="path8153"
         inkscape:connector-curvature="0" />
      <path
         d="m 122.57828,86.53599 2.07,0 7.02,-16.2 -2.025,0 -3.3525,7.9425 -3.4425,-7.9425 -2.25,0 4.6125,10.3725 -2.6325,5.8275 z"
         style="font-style:normal;font-variant:normal;font-weight:normal;font-stretch:normal;font-size:22.5px;font-family:'DB Sans';-inkscape-font-specification:'DB Sans';text-align:center;text-anchor:middle"
         id="path8155"
         inkscape:connector-curvature="0" />
      <path
         d="m 140.7182,81.99099 1.35,0 0.4275,-1.2375 c 1.395,1.1025 2.655,1.5975 3.9825,1.5975 1.125,0 2.1375,-0.405 2.925,-1.1925 1.125,-1.125 1.665,-2.745 1.665,-5.0625 0,-3.7575 -1.53,-5.9625 -4.1175,-5.9625 -1.44,0 -2.43,0.4275 -4.14,1.845 l 0,-6.9975 -0.36,0 c -0.36,0.315 -1.035,0.54 -1.7325,0.5625 l 0,16.4475 z m 2.0925,-8.775 c 1.8675,-1.17 2.34,-1.35 3.3975,-1.35 1.8675,0 2.5875,1.215 2.5875,4.365 0,3.1725 -0.8325,4.5225 -2.835,4.5225 -1.125,0 -1.89,-0.2475 -3.15,-1.035 l 0,-6.5025 z"
         style="font-style:normal;font-variant:normal;font-weight:normal;font-stretch:normal;font-size:22.5px;font-family:'DB Sans';-inkscape-font-specification:'DB Sans';text-align:center;text-anchor:middle"
         id="path8157"
         inkscape:connector-curvature="0" />
      <path
         d="m 163.32297,76.63599 0,-0.945 c 0,-3.6 -1.6875,-5.5575 -4.77,-5.5575 -3.33,0 -5.1525,2.16 -5.1525,6.12 0,4.0275 1.89,6.0975 5.58,6.0975 1.3275,0 2.4075,-0.27 3.825,-0.945 l 0,-1.7325 c -1.89,0.855 -2.5425,1.035 -3.78,1.035 -2.475,0 -3.3975,-1.125 -3.3975,-4.0725 l 7.695,0 z m -7.695,-1.53 c 0.0675,-0.9225 0.18,-1.4175 0.36,-1.89 0.4725,-1.0575 1.305,-1.5975 2.5425,-1.5975 1.755,0 2.4075,0.9 2.5425,3.4875 l -5.445,0 z"
         style="font-style:normal;font-variant:normal;font-weight:normal;font-stretch:normal;font-size:22.5px;font-family:'DB Sans';-inkscape-font-specification:'DB Sans';text-align:center;text-anchor:middle"
         id="path8159"
         inkscape:connector-curvature="0" />
      <path
         d="m 182.6684,81.99099 0,-17.01 -0.3375,0 c -0.36,0.315 -1.0575,0.54 -1.755,0.5625 l 0,5.9625 c -1.2825,-0.945 -2.4075,-1.3725 -3.6675,-1.3725 -1.35,0 -2.52,0.54 -3.33,1.5525 -0.8325,1.035 -1.2375,2.5875 -1.2375,4.7025 0,3.7575 1.5525,5.9625 4.185,5.9625 1.4625,0 2.5875,-0.495 4.23,-1.9125 l 0.54,1.5525 1.3725,0 z m -2.0925,-2.61 c -1.5075,1.035 -2.295,1.3725 -3.375,1.3725 -1.8225,0 -2.61,-1.3275 -2.61,-4.41 0,-3.24 0.7875,-4.4775 2.835,-4.4775 1.125,0 1.8675,0.2475 3.15,1.0575 l 0,6.4575 z"
         style="font-style:normal;font-variant:normal;font-weight:normal;font-stretch:normal;font-size:22.5px;font-family:'DB Sans';-inkscape-font-specification:'DB Sans';text-align:center;text-anchor:middle"
         id="path8161"
         inkscape:connector-curvature="0" />
      <path
         d="m 188.21922,65.58849 c -0.7875,0 -1.3725,0.5625 -1.3725,1.35 0,0.8325 0.5625,1.395 1.3725,1.395 0.81,0 1.3725,-0.5625 1.3725,-1.3725 0,-0.81 -0.5625,-1.3725 -1.3725,-1.3725 z m 1.08,16.4025 0,-11.925 -0.4725,0 c -0.5175,0.3375 -1.17,0.4725 -2.475,0.4725 l -0.9,0 0,1.5975 1.755,0 0,9.855 2.0925,0 z"
         style="font-style:normal;font-variant:normal;font-weight:normal;font-stretch:normal;font-size:22.5px;font-family:'DB Sans';-inkscape-font-specification:'DB Sans';text-align:center;text-anchor:middle"
         id="path8163"
         inkscape:connector-curvature="0" />
      <path
         d="m 192.49141,81.45099 c 1.215,0.5625 2.385,0.81 3.69,0.81 2.6325,0 4.185,-1.26 4.185,-3.375 0,-1.08 -0.36,-1.8225 -1.17,-2.4525 -0.45,-0.36 -0.9225,-0.585 -2.295,-1.1025 -2.0925,-0.7875 -2.4525,-1.1025 -2.4525,-2.0925 0,-0.9225 0.72,-1.395 2.0925,-1.395 1.0125,0 1.8,0.2025 3.2175,0.855 l 0,-1.8675 c -1.305,-0.495 -2.115,-0.6525 -3.195,-0.6525 -2.5425,0 -3.96,1.17 -3.96,3.24 0,0.9225 0.2925,1.6875 0.9,2.2725 0.5175,0.495 1.1475,0.8325 2.655,1.395 1.845,0.6975 2.25,1.0575 2.25,1.98 0,1.1025 -0.72,1.575 -2.385,1.575 -1.2825,0 -2.1825,-0.225 -3.5325,-0.9225 l 0,1.7325 z"
         style="font-style:normal;font-variant:normal;font-weight:normal;font-stretch:normal;font-size:22.5px;font-family:'DB Sans';-inkscape-font-specification:'DB Sans';text-align:center;text-anchor:middle"
         id="path8165"
         inkscape:connector-curvature="0" />
      <path
         d="m 209.35094,80.37099 c -0.72,0.225 -1.08,0.2925 -1.5975,0.2925 -1.35,0 -1.9125,-0.585 -1.9125,-1.98 l 0,-6.84 3.195,0 0,-1.5075 -3.195,0 0,-2.52 -1.305,0 -0.315,1.125 c -0.2925,1.08 -0.72,1.395 -1.7775,1.395 l -0.4275,0 0,1.5075 1.7325,0 0,6.5475 c 0,2.61 1.17,3.8475 3.69,3.8475 0.6975,0 1.215,-0.09 1.9125,-0.36 l 0,-1.5075 z"
         style="font-style:normal;font-variant:normal;font-weight:normal;font-stretch:normal;font-size:22.5px;font-family:'DB Sans';-inkscape-font-specification:'DB Sans';text-align:center;text-anchor:middle"
         id="path8167"
         inkscape:connector-curvature="0" />
      <path
         d="m 216.49961,70.13349 c -3.51,0 -5.355,2.07 -5.355,6.03 0,4.14 1.7775,6.1875 5.355,6.1875 3.5775,0 5.3775,-2.0475 5.3775,-6.12 0,-4.05 -1.8,-6.0975 -5.3775,-6.0975 z m 0,1.485 c 2.25,0 3.1275,1.2825 3.1275,4.6125 0,3.3525 -0.855,4.635 -3.1275,4.635 -2.25,0 -3.105,-1.2825 -3.105,-4.68 0,-3.285 0.8775,-4.5675 3.105,-4.5675 z"
         style="font-style:normal;font-variant:normal;font-weight:normal;font-stretch:normal;font-size:22.5px;font-family:'DB Sans';-inkscape-font-specification:'DB Sans';text-align:center;text-anchor:middle"
         id="path8169"
         inkscape:connector-curvature="0" />
      <path
         d="m 223.85887,81.99099 5.8725,0 0,-1.5075 -1.98,0 0,-7.335 c 0.945,-0.495 2.25,-0.8325 3.825,-0.99 l 0,-2.025 c -1.2375,0.1125 -2.475,0.7425 -3.825,1.9125 l 0,-1.98 -0.4725,0 c -0.5175,0.3375 -1.17,0.4725 -2.475,0.4725 l -0.9,0 0,1.5975 1.755,0 0,8.3475 -1.8,0 0,1.5075 z"
         style="font-style:normal;font-variant:normal;font-weight:normal;font-stretch:normal;font-size:22.5px;font-family:'DB Sans';-inkscape-font-specification:'DB Sans';text-align:center;text-anchor:middle"
         id="path8171"
         inkscape:connector-curvature="0" />
      <path
         d="m 240.42027,80.37099 c -0.72,0.225 -1.08,0.2925 -1.5975,0.2925 -1.35,0 -1.9125,-0.585 -1.9125,-1.98 l 0,-6.84 3.195,0 0,-1.5075 -3.195,0 0,-2.52 -1.305,0 -0.315,1.125 c -0.2925,1.08 -0.72,1.395 -1.7775,1.395 l -0.4275,0 0,1.5075 1.7325,0 0,6.5475 c 0,2.61 1.17,3.8475 3.69,3.8475 0.6975,0 1.215,-0.09 1.9125,-0.36 l 0,-1.5075 z"
         style="font-style:normal;font-variant:normal;font-weight:normal;font-stretch:normal;font-size:22.5px;font-family:'DB Sans';-inkscape-font-specification:'DB Sans';text-align:center;text-anchor:middle"
         id="path8173"
         inkscape:connector-curvature="0" />
      <path
         d="m 252.13645,76.63599 0,-0.945 c 0,-3.6 -1.6875,-5.5575 -4.77,-5.5575 -3.33,0 -5.1525,2.16 -5.1525,6.12 0,4.0275 1.89,6.0975 5.58,6.0975 1.3275,0 2.4075,-0.27 3.825,-0.945 l 0,-1.7325 c -1.89,0.855 -2.5425,1.035 -3.78,1.035 -2.475,0 -3.3975,-1.125 -3.3975,-4.0725 l 7.695,0 z m -7.695,-1.53 c 0.0675,-0.9225 0.18,-1.4175 0.36,-1.89 0.4725,-1.0575 1.305,-1.5975 2.5425,-1.5975 1.755,0 2.4075,0.9 2.5425,3.4875 l -5.445,0 z"
         style="font-style:normal;font-variant:normal;font-weight:normal;font-stretch:normal;font-size:22.5px;font-family:'DB Sans';-inkscape-font-specification:'DB Sans';text-align:center;text-anchor:middle"
         id="path8175"
         inkscape:connector-curvature="0" />
      <path
         d="m 264.7143,81.99099 0,-17.01 -0.3375,0 c -0.36,0.315 -1.0575,0.54 -1.755,0.5625 l 0,5.9625 c -1.2825,-0.945 -2.4075,-1.3725 -3.6675,-1.3725 -1.35,0 -2.52,0.54 -3.33,1.5525 -0.8325,1.035 -1.2375,2.5875 -1.2375,4.7025 0,3.7575 1.5525,5.9625 4.185,5.9625 1.4625,0 2.5875,-0.495 4.23,-1.9125 l 0.54,1.5525 1.3725,0 z m -2.0925,-2.61 c -1.5075,1.035 -2.295,1.3725 -3.375,1.3725 -1.8225,0 -2.61,-1.3275 -2.61,-4.41 0,-3.24 0.7875,-4.4775 2.835,-4.4775 1.125,0 1.8675,0.2475 3.15,1.0575 l 0,6.4575 z"
         style="font-style:normal;font-variant:normal;font-weight:normal;font-stretch:normal;font-size:22.5px;font-family:'DB Sans';-inkscape-font-specification:'DB Sans';text-align:center;text-anchor:middle"
         id="path8177"
         inkscape:connector-curvature="0" />
      <path
         d="m 22.637148,110.11599 1.35,0 0.4275,-1.2375 c 1.395,1.1025 2.655,1.5975 3.9825,1.5975 1.125,0 2.1375,-0.405 2.925,-1.1925 1.125,-1.125 1.665,-2.745 1.665,-5.0625 0,-3.7575 -1.53,-5.9625 -4.1175,-5.9625 -1.44,0 -2.43,0.4275 -4.14,1.845 l 0,-6.9975 -0.36,0 c -0.36,0.315 -1.035,0.54 -1.7325,0.5625 l 0,16.4475 z m 2.0925,-8.775 c 1.8675,-1.17 2.34,-1.35 3.3975,-1.35 1.8675,0 2.5875,1.215 2.5875,4.365 0,3.1725 -0.8325,4.5225 -2.835,4.5225 -1.125,0 -1.89,-0.2475 -3.15,-1.035 l 0,-6.5025 z"
         style="font-style:normal;font-variant:normal;font-weight:normal;font-stretch:normal;font-size:22.5px;font-family:'DB Sans';-inkscape-font-specification:'DB Sans';text-align:center;text-anchor:middle"
         id="path8179"
         inkscape:connector-curvature="0" />
      <path
         d="m 36.489414,114.66099 2.07,0 7.02,-16.2 -2.025,0 -3.3525,7.9425 -3.4425,-7.9425 -2.25,0 4.6125,10.3725 -2.6325,5.8275 z"
         style="font-style:normal;font-variant:normal;font-weight:normal;font-stretch:normal;font-size:22.5px;font-family:'DB Sans';-inkscape-font-specification:'DB Sans';text-align:center;text-anchor:middle"
         id="path8181"
         inkscape:connector-curvature="0" />
      <path
         d="m 53.931836,109.57599 c 1.215,0.5625 2.385,0.81 3.69,0.81 2.6325,0 4.185,-1.26 4.185,-3.375 0,-1.08 -0.36,-1.8225 -1.17,-2.4525 -0.45,-0.36 -0.9225,-0.585 -2.295,-1.1025 -2.0925,-0.7875 -2.4525,-1.1025 -2.4525,-2.0925 0,-0.9225 0.72,-1.395 2.0925,-1.395 1.0125,0 1.8,0.2025 3.2175,0.855 l 0,-1.8675 c -1.305,-0.495 -2.115,-0.6525 -3.195,-0.6525 -2.5425,0 -3.96,1.17 -3.96,3.24 0,0.9225 0.2925,1.6875 0.9,2.2725 0.5175,0.495 1.1475,0.8325 2.655,1.395 1.845,0.6975 2.25,1.0575 2.25,1.98 0,1.1025 -0.72,1.575 -2.385,1.575 -1.2825,0 -2.1825,-0.225 -3.5325,-0.9225 l 0,1.7325 z"
         style="font-style:normal;font-variant:normal;font-weight:normal;font-stretch:normal;font-size:22.5px;font-family:'DB Sans';-inkscape-font-specification:'DB Sans';text-align:center;text-anchor:middle"
         id="path8183"
         inkscape:connector-curvature="0" />
      <path
         d="m 69.458594,98.25849 c -3.51,0 -5.355,2.07 -5.355,6.03 0,4.14 1.7775,6.1875 5.355,6.1875 3.5775,0 5.3775,-2.0475 5.3775,-6.12 0,-4.05 -1.8,-6.0975 -5.3775,-6.0975 z m 0,1.485 c 2.25,0 3.1275,1.2825 3.1275,4.6125 0,3.3525 -0.855,4.635 -3.1275,4.635 -2.25,0 -3.105,-1.2825 -3.105,-4.68 0,-3.285 0.8775,-4.5675 3.105,-4.5675 z"
         style="font-style:normal;font-variant:normal;font-weight:normal;font-stretch:normal;font-size:22.5px;font-family:'DB Sans';-inkscape-font-specification:'DB Sans';text-align:center;text-anchor:middle"
         id="path8185"
         inkscape:connector-curvature="0" />
      <path
         d="m 86.087852,107.82099 c -1.935,0.9 -2.3175,1.0125 -3.465,1.0125 -2.4525,0 -3.24,-1.08 -3.24,-4.4775 0,-3.3975 0.7425,-4.4325 3.15,-4.4325 1.1025,0 1.6875,0.1575 3.33,0.855 l 0,-1.8675 c -1.2825,-0.4725 -2.1825,-0.6525 -3.3075,-0.6525 -3.555,0 -5.4,2.07 -5.4,6.0525 0,4.1175 1.8,6.165 5.3775,6.165 1.1925,0 2.205,-0.27 3.555,-0.9225 l 0,-1.7325 z"
         style="font-style:normal;font-variant:normal;font-weight:normal;font-stretch:normal;font-size:22.5px;font-family:'DB Sans';-inkscape-font-specification:'DB Sans';text-align:center;text-anchor:middle"
         id="path8187"
         inkscape:connector-curvature="0" />
      <path
         d="m 90.70457,93.71349 c -0.7875,0 -1.3725,0.5625 -1.3725,1.35 0,0.8325 0.5625,1.395 1.3725,1.395 0.81,0 1.3725,-0.5625 1.3725,-1.3725 0,-0.81 -0.5625,-1.3725 -1.3725,-1.3725 z m 1.08,16.4025 0,-11.925 -0.4725,0 c -0.5175,0.3375 -1.17,0.4725 -2.475,0.4725 l -0.9,0 0,1.5975 1.755,0 0,9.855 2.0925,0 z"
         style="font-style:normal;font-variant:normal;font-weight:normal;font-stretch:normal;font-size:22.5px;font-family:'DB Sans';-inkscape-font-specification:'DB Sans';text-align:center;text-anchor:middle"
         id="path8189"
         inkscape:connector-curvature="0" />
      <path
         d="m 105.30426,108.60849 c -0.2475,0.0675 -0.405,0.09 -0.6525,0.09 -0.63,0 -0.855,-0.2475 -0.855,-0.99 l 0,-5.2425 c 0,-2.9025 -1.3275,-4.2075 -4.252502,-4.2075 -1.4175,0 -2.6775,0.315 -4.095,0.99 l 0,1.6875 c 1.665,-0.7425 2.7675,-1.035 3.9825,-1.035 1.620002,0 2.272502,0.72 2.272502,2.5425 l 0,0.9675 c -2.880002,0.2025 -3.532502,0.27 -4.590002,0.585 -1.6425,0.4725 -2.385,1.44 -2.385,3.195 0,2.0925 1.1925,3.285 3.24,3.285 1.4175,0 2.587502,-0.585 3.802502,-1.89 0.2925,1.1475 0.945,1.6875 2.0475,1.6875 0.4275,0 0.9675,-0.09 1.485,-0.27 l 0,-1.395 z m -3.6,-1.35 c -1.0125,1.125 -2.092502,1.6875 -3.195002,1.6875 -1.1925,0 -1.6875,-0.54 -1.6875,-1.845 0,-1.5525 0.8325,-2.07 3.622502,-2.2725 l 0.945,-0.0675 0.315,-0.0225 0,2.52 z"
         style="font-style:normal;font-variant:normal;font-weight:normal;font-stretch:normal;font-size:22.5px;font-family:'DB Sans';-inkscape-font-specification:'DB Sans';text-align:center;text-anchor:middle"
         id="path8191"
         inkscape:connector-curvature="0" />
      <path
         d="m 110.19133,110.11599 0,-17.01 -0.45,0 c -0.495,0.3375 -1.17,0.4725 -2.4975,0.4725 l -0.9,0 0,1.575 1.755,0 0,14.9625 2.0925,0 z"
         style="font-style:normal;font-variant:normal;font-weight:normal;font-stretch:normal;font-size:22.5px;font-family:'DB Sans';-inkscape-font-specification:'DB Sans';text-align:center;text-anchor:middle"
         id="path8193"
         inkscape:connector-curvature="0" />
      <path
         d="m 116.73918,110.11599 0,-17.01 -0.45,0 c -0.495,0.3375 -1.17,0.4725 -2.4975,0.4725 l -0.9,0 0,1.575 1.755,0 0,14.9625 2.0925,0 z"
         style="font-style:normal;font-variant:normal;font-weight:normal;font-stretch:normal;font-size:22.5px;font-family:'DB Sans';-inkscape-font-specification:'DB Sans';text-align:center;text-anchor:middle"
         id="path8195"
         inkscape:connector-curvature="0" />
      <path
         d="m 121.17203,114.66099 2.07,0 7.02,-16.2 -2.025,0 -3.3525,7.9425 -3.4425,-7.9425 -2.25,0 4.6125,10.3725 -2.6325,5.8275 z"
         style="font-style:normal;font-variant:normal;font-weight:normal;font-stretch:normal;font-size:22.5px;font-family:'DB Sans';-inkscape-font-specification:'DB Sans';text-align:center;text-anchor:middle"
         id="path8197"
         inkscape:connector-curvature="0" />
      <path
         d="m 147.47945,107.82099 c -1.935,0.9 -2.3175,1.0125 -3.465,1.0125 -2.4525,0 -3.24,-1.08 -3.24,-4.4775 0,-3.3975 0.7425,-4.4325 3.15,-4.4325 1.1025,0 1.6875,0.1575 3.33,0.855 l 0,-1.8675 c -1.2825,-0.4725 -2.1825,-0.6525 -3.3075,-0.6525 -3.555,0 -5.4,2.07 -5.4,6.0525 0,4.1175 1.8,6.165 5.3775,6.165 1.1925,0 2.205,-0.27 3.555,-0.9225 l 0,-1.7325 z"
         style="font-style:normal;font-variant:normal;font-weight:normal;font-stretch:normal;font-size:22.5px;font-family:'DB Sans';-inkscape-font-specification:'DB Sans';text-align:center;text-anchor:middle"
         id="path8199"
         inkscape:connector-curvature="0" />
      <path
         d="m 154.97617,98.25849 c -3.51,0 -5.355,2.07 -5.355,6.03 0,4.14 1.7775,6.1875 5.355,6.1875 3.5775,0 5.3775,-2.0475 5.3775,-6.12 0,-4.05 -1.8,-6.0975 -5.3775,-6.0975 z m 0,1.485 c 2.25,0 3.1275,1.2825 3.1275,4.6125 0,3.3525 -0.855,4.635 -3.1275,4.635 -2.25,0 -3.105,-1.2825 -3.105,-4.68 0,-3.285 0.8775,-4.5675 3.105,-4.5675 z"
         style="font-style:normal;font-variant:normal;font-weight:normal;font-stretch:normal;font-size:22.5px;font-family:'DB Sans';-inkscape-font-specification:'DB Sans';text-align:center;text-anchor:middle"
         id="path8201"
         inkscape:connector-curvature="0" />
      <path
         d="m 163.43793,110.11599 2.0925,0 0,-8.775 c 1.8,-1.1025 2.475,-1.35 3.555,-1.35 1.2375,0 1.8,0.675 1.8,2.16 l 0,7.965 2.0925,0 0,-8.2575 c 0,-2.2725 -1.17,-3.6 -3.195,-3.6 -1.44,0 -2.565,0.495 -4.2525,1.845 l 0,-1.9125 -0.36,0 c -0.36,0.315 -1.035,0.54 -1.7325,0.5625 l 0,11.3625 z"
         style="font-style:normal;font-variant:normal;font-weight:normal;font-stretch:normal;font-size:22.5px;font-family:'DB Sans';-inkscape-font-specification:'DB Sans';text-align:center;text-anchor:middle"
         id="path8203"
         inkscape:connector-curvature="0" />
      <path
         d="m 176.05586,109.57599 c 1.215,0.5625 2.385,0.81 3.69,0.81 2.6325,0 4.185,-1.26 4.185,-3.375 0,-1.08 -0.36,-1.8225 -1.17,-2.4525 -0.45,-0.36 -0.9225,-0.585 -2.295,-1.1025 -2.0925,-0.7875 -2.4525,-1.1025 -2.4525,-2.0925 0,-0.9225 0.72,-1.395 2.0925,-1.395 1.0125,0 1.8,0.2025 3.2175,0.855 l 0,-1.8675 c -1.305,-0.495 -2.115,-0.6525 -3.195,-0.6525 -2.5425,0 -3.96,1.17 -3.96,3.24 0,0.9225 0.2925,1.6875 0.9,2.2725 0.5175,0.495 1.1475,0.8325 2.655,1.395 1.845,0.6975 2.25,1.0575 2.25,1.98 0,1.1025 -0.72,1.575 -2.385,1.575 -1.2825,0 -2.1825,-0.225 -3.5325,-0.9225 l 0,1.7325 z"
         style="font-style:normal;font-variant:normal;font-weight:normal;font-stretch:normal;font-size:22.5px;font-family:'DB Sans';-inkscape-font-specification:'DB Sans';text-align:center;text-anchor:middle"
         id="path8205"
         inkscape:connector-curvature="0" />
      <path
         d="m 192.91539,108.49599 c -0.72,0.225 -1.08,0.2925 -1.5975,0.2925 -1.35,0 -1.9125,-0.585 -1.9125,-1.98 l 0,-6.84 3.195,0 0,-1.5075 -3.195,0 0,-2.52 -1.305,0 -0.315,1.125 c -0.2925,1.08 -0.72,1.395 -1.7775,1.395 l -0.4275,0 0,1.5075 1.7325,0 0,6.5475 c 0,2.61 1.17,3.8475 3.69,3.8475 0.6975,0 1.215,-0.09 1.9125,-0.36 l 0,-1.5075 z"
         style="font-style:normal;font-variant:normal;font-weight:normal;font-stretch:normal;font-size:22.5px;font-family:'DB Sans';-inkscape-font-specification:'DB Sans';text-align:center;text-anchor:middle"
         id="path8207"
         inkscape:connector-curvature="0" />
      <path
         d="m 194.37156,110.11599 5.8725,0 0,-1.5075 -1.98,0 0,-7.335 c 0.945,-0.495 2.25,-0.8325 3.825,-0.99 l 0,-2.025 c -1.2375,0.1125 -2.475,0.7425 -3.825,1.9125 l 0,-1.98 -0.4725,0 c -0.5175,0.3375 -1.17,0.4725 -2.475,0.4725 l -0.9,0 0,1.5975 1.755,0 0,8.3475 -1.8,0 0,1.5075 z"
         style="font-style:normal;font-variant:normal;font-weight:normal;font-stretch:normal;font-size:22.5px;font-family:'DB Sans';-inkscape-font-specification:'DB Sans';text-align:center;text-anchor:middle"
         id="path8209"
         inkscape:connector-curvature="0" />
      <path
         d="m 212.42324,110.11599 1.3725,0 0,-11.6775 -2.0925,0.135 0,8.8425 c -1.485,1.1025 -2.2725,1.44 -3.375,1.44 -1.26,0 -1.7775,-0.6525 -1.7775,-2.2725 l 0,-8.145 -2.0925,0.135 0,7.965 c 0,1.26 0.1575,1.98 0.585,2.6325 0.54,0.855 1.4175,1.305 2.61,1.305 1.5525,0 2.7225,-0.5625 4.23,-2.0025 l 0.54,1.6425 z"
         style="font-style:normal;font-variant:normal;font-weight:normal;font-stretch:normal;font-size:22.5px;font-family:'DB Sans';-inkscape-font-specification:'DB Sans';text-align:center;text-anchor:middle"
         id="path8211"
         inkscape:connector-curvature="0" />
      <path
         d="m 225.83395,107.82099 c -1.935,0.9 -2.3175,1.0125 -3.465,1.0125 -2.4525,0 -3.24,-1.08 -3.24,-4.4775 0,-3.3975 0.7425,-4.4325 3.15,-4.4325 1.1025,0 1.6875,0.1575 3.33,0.855 l 0,-1.8675 c -1.2825,-0.4725 -2.1825,-0.6525 -3.3075,-0.6525 -3.555,0 -5.4,2.07 -5.4,6.0525 0,4.1175 1.8,6.165 5.3775,6.165 1.1925,0 2.205,-0.27 3.555,-0.9225 l 0,-1.7325 z"
         style="font-style:normal;font-variant:normal;font-weight:normal;font-stretch:normal;font-size:22.5px;font-family:'DB Sans';-inkscape-font-specification:'DB Sans';text-align:center;text-anchor:middle"
         id="path8213"
         inkscape:connector-curvature="0" />
      <path
         d="m 234.88316,108.49599 c -0.72,0.225 -1.08,0.2925 -1.5975,0.2925 -1.35,0 -1.9125,-0.585 -1.9125,-1.98 l 0,-6.84 3.195,0 0,-1.5075 -3.195,0 0,-2.52 -1.305,0 -0.315,1.125 c -0.2925,1.08 -0.72,1.395 -1.7775,1.395 l -0.4275,0 0,1.5075 1.7325,0 0,6.5475 c 0,2.61 1.17,3.8475 3.69,3.8475 0.6975,0 1.215,-0.09 1.9125,-0.36 l 0,-1.5075 z"
         style="font-style:normal;font-variant:normal;font-weight:normal;font-stretch:normal;font-size:22.5px;font-family:'DB Sans';-inkscape-font-specification:'DB Sans';text-align:center;text-anchor:middle"
         id="path8215"
         inkscape:connector-curvature="0" />
      <path
         d="m 246.59934,104.76099 0,-0.945 c 0,-3.6 -1.6875,-5.5575 -4.77,-5.5575 -3.33,0 -5.1525,2.16 -5.1525,6.12 0,4.0275 1.89,6.0975 5.58,6.0975 1.3275,0 2.4075,-0.27 3.825,-0.945 l 0,-1.7325 c -1.89,0.855 -2.5425,1.035 -3.78,1.035 -2.475,0 -3.3975,-1.125 -3.3975,-4.0725 l 7.695,0 z m -7.695,-1.53 c 0.0675,-0.9225 0.18,-1.4175 0.36,-1.89 0.4725,-1.0575 1.305,-1.5975 2.5425,-1.5975 1.755,0 2.4075,0.9 2.5425,3.4875 l -5.445,0 z"
         style="font-style:normal;font-variant:normal;font-weight:normal;font-stretch:normal;font-size:22.5px;font-family:'DB Sans';-inkscape-font-specification:'DB Sans';text-align:center;text-anchor:middle"
         id="path8217"
         inkscape:connector-curvature="0" />
      <path
         d="m 259.17719,110.11599 0,-17.01 -0.3375,0 c -0.36,0.315 -1.0575,0.54 -1.755,0.5625 l 0,5.9625 c -1.2825,-0.945 -2.4075,-1.3725 -3.6675,-1.3725 -1.35,0 -2.52,0.54 -3.33,1.5525 -0.8325,1.035 -1.2375,2.5875 -1.2375,4.7025 0,3.7575 1.5525,5.9625 4.185,5.9625 1.4625,0 2.5875,-0.495 4.23,-1.9125 l 0.54,1.5525 1.3725,0 z m -2.0925,-2.61 c -1.5075,1.035 -2.295,1.3725 -3.375,1.3725 -1.8225,0 -2.61,-1.3275 -2.61,-4.41 0,-3.24 0.7875,-4.4775 2.835,-4.4775 1.125,0 1.8675,0.2475 3.15,1.0575 l 0,6.4575 z"
         style="font-style:normal;font-variant:normal;font-weight:normal;font-stretch:normal;font-size:22.5px;font-family:'DB Sans';-inkscape-font-specification:'DB Sans';text-align:center;text-anchor:middle"
         id="path8219"
         inkscape:connector-curvature="0" />
      <path
         d="m 55.614238,121.83849 c -0.7875,0 -1.3725,0.5625 -1.3725,1.35 0,0.8325 0.5625,1.395 1.3725,1.395 0.81,0 1.3725,-0.5625 1.3725,-1.3725 0,-0.81 -0.5625,-1.3725 -1.3725,-1.3725 z m 1.08,16.4025 0,-11.925 -0.4725,0 c -0.5175,0.3375 -1.17,0.4725 -2.475,0.4725 l -0.9,0 0,1.5975 1.755,0 0,9.855 2.0925,0 z"
         style="font-style:normal;font-variant:normal;font-weight:normal;font-stretch:normal;font-size:22.5px;font-family:'DB Sans';-inkscape-font-specification:'DB Sans';text-align:center;text-anchor:middle"
         id="path8221"
         inkscape:connector-curvature="0" />
      <path
         d="m 70.146426,138.24099 0,-17.01 -0.3375,0 c -0.36,0.315 -1.0575,0.54 -1.755,0.5625 l 0,5.9625 c -1.2825,-0.945 -2.4075,-1.3725 -3.6675,-1.3725 -1.35,0 -2.52,0.54 -3.33,1.5525 -0.8325,1.035 -1.2375,2.5875 -1.2375,4.7025 0,3.7575 1.5525,5.9625 4.185,5.9625 1.4625,0 2.5875,-0.495 4.23,-1.9125 l 0.54,1.5525 1.3725,0 z m -2.0925,-2.61 c -1.5075,1.035 -2.295,1.3725 -3.375,1.3725 -1.8225,0 -2.61,-1.3275 -2.61,-4.41 0,-3.24 0.7875,-4.4775 2.835,-4.4775 1.125,0 1.8675,0.2475 3.15,1.0575 l 0,6.4575 z"
         style="font-style:normal;font-variant:normal;font-weight:normal;font-stretch:normal;font-size:22.5px;font-family:'DB Sans';-inkscape-font-specification:'DB Sans';text-align:center;text-anchor:middle"
         id="path8223"
         inkscape:connector-curvature="0" />
      <path
         d="m 83.144746,132.88599 0,-0.945 c 0,-3.6 -1.6875,-5.5575 -4.77,-5.5575 -3.33,0 -5.1525,2.16 -5.1525,6.12 0,4.0275 1.89,6.0975 5.58,6.0975 1.3275,0 2.4075,-0.27 3.825,-0.945 l 0,-1.7325 c -1.89,0.855 -2.5425,1.035 -3.78,1.035 -2.475,0 -3.3975,-1.125 -3.3975,-4.0725 l 7.695,0 z m -7.695,-1.53 c 0.0675,-0.9225 0.18,-1.4175 0.36,-1.89 0.4725,-1.0575 1.305,-1.5975 2.5425,-1.5975 1.755,0 2.4075,0.9 2.5425,3.4875 l -5.445,0 z"
         style="font-style:normal;font-variant:normal;font-weight:normal;font-stretch:normal;font-size:22.5px;font-family:'DB Sans';-inkscape-font-specification:'DB Sans';text-align:center;text-anchor:middle"
         id="path8225"
         inkscape:connector-curvature="0" />
      <path
         d="m 95.790098,136.73349 c -0.2475,0.0675 -0.405,0.09 -0.6525,0.09 -0.63,0 -0.855,-0.2475 -0.855,-0.99 l 0,-5.2425 c 0,-2.9025 -1.3275,-4.2075 -4.2525,-4.2075 -1.4175,0 -2.6775,0.315 -4.095,0.99 l 0,1.6875 c 1.665,-0.7425 2.7675,-1.035 3.9825,-1.035 1.62,0 2.2725,0.72 2.2725,2.5425 l 0,0.9675 c -2.88,0.2025 -3.5325,0.27 -4.59,0.585 -1.6425,0.4725 -2.385,1.44 -2.385,3.195 0,2.0925 1.1925,3.285 3.24,3.285 1.4175,0 2.5875,-0.585 3.8025,-1.89 0.2925,1.1475 0.945,1.6875 2.0475,1.6875 0.4275,0 0.9675,-0.09 1.485,-0.27 l 0,-1.395 z m -3.6,-1.35 c -1.0125,1.125 -2.0925,1.6875 -3.195,1.6875 -1.1925,0 -1.6875,-0.54 -1.6875,-1.845 0,-1.5525 0.8325,-2.07 3.6225,-2.2725 l 0.945,-0.0675 0.315,-0.0225 0,2.52 z"
         style="font-style:normal;font-variant:normal;font-weight:normal;font-stretch:normal;font-size:22.5px;font-family:'DB Sans';-inkscape-font-specification:'DB Sans';text-align:center;text-anchor:middle"
         id="path8227"
         inkscape:connector-curvature="0" />
      <path
         d="m 97.459668,137.70099 c 1.215,0.5625 2.385,0.81 3.690002,0.81 2.6325,0 4.185,-1.26 4.185,-3.375 0,-1.08 -0.36,-1.8225 -1.17,-2.4525 -0.45,-0.36 -0.9225,-0.585 -2.295,-1.1025 -2.092502,-0.7875 -2.452502,-1.1025 -2.452502,-2.0925 0,-0.9225 0.720002,-1.395 2.092502,-1.395 1.0125,0 1.8,0.2025 3.2175,0.855 l 0,-1.8675 c -1.305,-0.495 -2.115,-0.6525 -3.195,-0.6525 -2.542502,0 -3.960002,1.17 -3.960002,3.24 0,0.9225 0.2925,1.6875 0.9,2.2725 0.5175,0.495 1.1475,0.8325 2.655002,1.395 1.845,0.6975 2.25,1.0575 2.25,1.98 0,1.1025 -0.72,1.575 -2.385,1.575 -1.282502,0 -2.182502,-0.225 -3.532502,-0.9225 l 0,1.7325 z"
         style="font-style:normal;font-variant:normal;font-weight:normal;font-stretch:normal;font-size:22.5px;font-family:'DB Sans';-inkscape-font-specification:'DB Sans';text-align:center;text-anchor:middle"
         id="path8229"
         inkscape:connector-curvature="0" />
      <path
         d="m 119.754,126.38349 c -3.51,0 -5.355,2.07 -5.355,6.03 0,4.14 1.7775,6.1875 5.355,6.1875 3.5775,0 5.3775,-2.0475 5.3775,-6.12 0,-4.05 -1.8,-6.0975 -5.3775,-6.0975 z m 0,1.485 c 2.25,0 3.1275,1.2825 3.1275,4.6125 0,3.3525 -0.855,4.635 -3.1275,4.635 -2.25,0 -3.105,-1.2825 -3.105,-4.68 0,-3.285 0.8775,-4.5675 3.105,-4.5675 z"
         style="font-style:normal;font-variant:normal;font-weight:normal;font-stretch:normal;font-size:22.5px;font-family:'DB Sans';-inkscape-font-specification:'DB Sans';text-align:center;text-anchor:middle"
         id="path8231"
         inkscape:connector-curvature="0" />
      <path
         d="m 127.02326,128.09349 1.755,0 0,10.1475 2.0925,0 0,-10.1475 2.835,0 0,-1.5075 -2.835,0 0,-1.0575 c 0,-1.845 0.7875,-2.745 2.385,-2.745 0.27,0 0.495,0.0225 0.8325,0.09 l 0,-1.665 -1.17,0 c -2.6325,0 -4.14,1.62 -4.14,4.5 l 0,0.8775 -1.755,0 0,1.5075 z"
         style="font-style:normal;font-variant:normal;font-weight:normal;font-stretch:normal;font-size:22.5px;font-family:'DB Sans';-inkscape-font-specification:'DB Sans';text-align:center;text-anchor:middle"
         id="path8233"
         inkscape:connector-curvature="0" />
      <path
         d="m 144.78244,121.88349 -2.25,0 0.4725,5.895 1.305,0 0.4725,-5.895 z"
         style="font-style:normal;font-variant:normal;font-weight:normal;font-stretch:normal;font-size:22.5px;font-family:'DB Sans';-inkscape-font-specification:'DB Sans';text-align:center;text-anchor:middle"
         id="path8235"
         inkscape:connector-curvature="0" />
      <path
         d="m 148.25482,138.24099 1.35,0 0.4275,-1.2375 c 1.395,1.1025 2.655,1.5975 3.9825,1.5975 1.125,0 2.1375,-0.405 2.925,-1.1925 1.125,-1.125 1.665,-2.745 1.665,-5.0625 0,-3.7575 -1.53,-5.9625 -4.1175,-5.9625 -1.44,0 -2.43,0.4275 -4.14,1.845 l 0,-6.9975 -0.36,0 c -0.36,0.315 -1.035,0.54 -1.7325,0.5625 l 0,16.4475 z m 2.0925,-8.775 c 1.8675,-1.17 2.34,-1.35 3.3975,-1.35 1.8675,0 2.5875,1.215 2.5875,4.365 0,3.1725 -0.8325,4.5225 -2.835,4.5225 -1.125,0 -1.89,-0.2475 -3.15,-1.035 l 0,-6.5025 z"
         style="font-style:normal;font-variant:normal;font-weight:normal;font-stretch:normal;font-size:22.5px;font-family:'DB Sans';-inkscape-font-specification:'DB Sans';text-align:center;text-anchor:middle"
         id="path8237"
         inkscape:connector-curvature="0" />
      <path
         d="m 170.85959,132.88599 0,-0.945 c 0,-3.6 -1.6875,-5.5575 -4.77,-5.5575 -3.33,0 -5.1525,2.16 -5.1525,6.12 0,4.0275 1.89,6.0975 5.58,6.0975 1.3275,0 2.4075,-0.27 3.825,-0.945 l 0,-1.7325 c -1.89,0.855 -2.5425,1.035 -3.78,1.035 -2.475,0 -3.3975,-1.125 -3.3975,-4.0725 l 7.695,0 z m -7.695,-1.53 c 0.0675,-0.9225 0.18,-1.4175 0.36,-1.89 0.4725,-1.0575 1.305,-1.5975 2.5425,-1.5975 1.755,0 2.4075,0.9 2.5425,3.4875 l -5.445,0 z"
         style="font-style:normal;font-variant:normal;font-weight:normal;font-stretch:normal;font-size:22.5px;font-family:'DB Sans';-inkscape-font-specification:'DB Sans';text-align:center;text-anchor:middle"
         id="path8239"
         inkscape:connector-curvature="0" />
      <path
         d="m 183.50494,136.73349 c -0.2475,0.0675 -0.405,0.09 -0.6525,0.09 -0.63,0 -0.855,-0.2475 -0.855,-0.99 l 0,-5.2425 c 0,-2.9025 -1.3275,-4.2075 -4.2525,-4.2075 -1.4175,0 -2.6775,0.315 -4.095,0.99 l 0,1.6875 c 1.665,-0.7425 2.7675,-1.035 3.9825,-1.035 1.62,0 2.2725,0.72 2.2725,2.5425 l 0,0.9675 c -2.88,0.2025 -3.5325,0.27 -4.59,0.585 -1.6425,0.4725 -2.385,1.44 -2.385,3.195 0,2.0925 1.1925,3.285 3.24,3.285 1.4175,0 2.5875,-0.585 3.8025,-1.89 0.2925,1.1475 0.945,1.6875 2.0475,1.6875 0.4275,0 0.9675,-0.09 1.485,-0.27 l 0,-1.395 z m -3.6,-1.35 c -1.0125,1.125 -2.0925,1.6875 -3.195,1.6875 -1.1925,0 -1.6875,-0.54 -1.6875,-1.845 0,-1.5525 0.8325,-2.07 3.6225,-2.2725 l 0.945,-0.0675 0.315,-0.0225 0,2.52 z"
         style="font-style:normal;font-variant:normal;font-weight:normal;font-stretch:normal;font-size:22.5px;font-family:'DB Sans';-inkscape-font-specification:'DB Sans';text-align:center;text-anchor:middle"
         id="path8241"
         inkscape:connector-curvature="0" />
      <path
         d="m 193.72451,138.24099 1.3725,0 0,-11.6775 -2.0925,0.135 0,8.8425 c -1.485,1.1025 -2.2725,1.44 -3.375,1.44 -1.26,0 -1.7775,-0.6525 -1.7775,-2.2725 l 0,-8.145 -2.0925,0.135 0,7.965 c 0,1.26 0.1575,1.98 0.585,2.6325 0.54,0.855 1.4175,1.305 2.61,1.305 1.5525,0 2.7225,-0.5625 4.23,-2.0025 l 0.54,1.6425 z"
         style="font-style:normal;font-variant:normal;font-weight:normal;font-stretch:normal;font-size:22.5px;font-family:'DB Sans';-inkscape-font-specification:'DB Sans';text-align:center;text-anchor:middle"
         id="path8243"
         inkscape:connector-curvature="0" />
      <path
         d="m 205.11021,136.62099 c -0.72,0.225 -1.08,0.2925 -1.5975,0.2925 -1.35,0 -1.9125,-0.585 -1.9125,-1.98 l 0,-6.84 3.195,0 0,-1.5075 -3.195,0 0,-2.52 -1.305,0 -0.315,1.125 c -0.2925,1.08 -0.72,1.395 -1.7775,1.395 l -0.4275,0 0,1.5075 1.7325,0 0,6.5475 c 0,2.61 1.17,3.8475 3.69,3.8475 0.6975,0 1.215,-0.09 1.9125,-0.36 l 0,-1.5075 z"
         style="font-style:normal;font-variant:normal;font-weight:normal;font-stretch:normal;font-size:22.5px;font-family:'DB Sans';-inkscape-font-specification:'DB Sans';text-align:center;text-anchor:middle"
         id="path8245"
         inkscape:connector-curvature="0" />
      <path
         d="m 208.29361,142.78599 2.07,0 7.02,-16.2 -2.025,0 -3.3525,7.9425 -3.4425,-7.9425 -2.25,0 4.6125,10.3725 -2.6325,5.8275 z"
         style="font-style:normal;font-variant:normal;font-weight:normal;font-stretch:normal;font-size:22.5px;font-family:'DB Sans';-inkscape-font-specification:'DB Sans';text-align:center;text-anchor:middle"
         id="path8247"
         inkscape:connector-curvature="0" />
      <path
         d="m 221.51096,121.88349 -2.25,0 0.4725,5.895 1.305,0 0.4725,-5.895 z"
         style="font-style:normal;font-variant:normal;font-weight:normal;font-stretch:normal;font-size:22.5px;font-family:'DB Sans';-inkscape-font-specification:'DB Sans';text-align:center;text-anchor:middle"
         id="path8249"
         inkscape:connector-curvature="0" />
      <path
         d="m 226.42334,135.40599 c -0.9,0 -1.5525,0.6525 -1.5525,1.53 0,0.9225 0.63,1.575 1.5525,1.575 0.9,0 1.5525,-0.6525 1.5525,-1.5525 0,-0.9 -0.6525,-1.5525 -1.5525,-1.5525 z"
         style="font-style:normal;font-variant:normal;font-weight:normal;font-stretch:normal;font-size:22.5px;font-family:'DB Sans';-inkscape-font-specification:'DB Sans';text-align:center;text-anchor:middle"
         id="path8251"
         inkscape:connector-curvature="0" />
    </g>
  </g>
  <g
     inkscape:groupmode="layer"
     id="layer3"
     inkscape:label="Rahmen"
     sodipodi:insensitive="true"
     style="display:inline">
    <rect
       style="fill:none;fill-opacity:1;stroke:#000000;stroke-width:1.75830793;stroke-miterlimit:4;stroke-dasharray:none;stroke-opacity:1"
       id="rect8086"
       width="278.16296"
       height="168.32043"
       x="11.509075"
       y="11.509073"
       rx="7.0462818" />
  </g>
  <g
     inkscape:groupmode="layer"
     id="layer2"
     inkscape:label="beschnittkante"
     sodipodi:insensitive="true"
     style="display:inline">
    <rect
       style="fill:none;fill-opacity:1;stroke:#ff00ff;stroke-width:0.08443981;stroke-miterlimit:4;stroke-dasharray:none;stroke-opacity:1"
       id="rect8069"
       width="286.92343"
       height="177.08092"
       x="7.1288342"
       y="7.1288314" />
  </g>
</svg>
