<?xml version="1.0" encoding="UTF-8" standalone="no"?>
<!-- Created with Inkscape (http://www.inkscape.org/) -->

<svg
   xmlns:dc="http://purl.org/dc/elements/1.1/"
   xmlns:cc="http://creativecommons.org/ns#"
   xmlns:rdf="http://www.w3.org/1999/02/22-rdf-syntax-ns#"
   xmlns:svg="http://www.w3.org/2000/svg"
   xmlns="http://www.w3.org/2000/svg"
   xmlns:sodipodi="http://sodipodi.sourceforge.net/DTD/sodipodi-0.dtd"
   xmlns:inkscape="http://www.inkscape.org/namespaces/inkscape"
   sodipodi:docname="down-plate-text.svg"
   inkscape:version="0.48.4 r9939"
   version="1.1"
   id="svg8030"
   height="371.61279"
   width="524.65625">
  <defs
     id="defs8032" />
  <sodipodi:namedview
     id="base"
     pagecolor="#ffffff"
     bordercolor="#666666"
     borderopacity="1.0"
     inkscape:pageopacity="0.0"
     inkscape:pageshadow="2"
     inkscape:zoom="1"
     inkscape:cx="265.23587"
     inkscape:cy="140.73229"
     inkscape:document-units="px"
     inkscape:current-layer="layer1"
     showgrid="false"
     fit-margin-top="0"
     fit-margin-left="0"
     fit-margin-right="0"
     fit-margin-bottom="0"
     units="cm"
     inkscape:window-width="1438"
     inkscape:window-height="884"
     inkscape:window-x="0"
     inkscape:window-y="14"
     inkscape:window-maximized="0" />
  <metadata
     id="metadata8035">
    <rdf:RDF>
      <cc:Work
         rdf:about="">
        <dc:format>image/svg+xml</dc:format>
        <dc:type
           rdf:resource="http://purl.org/dc/dcmitype/StillImage" />
        <dc:title></dc:title>
      </cc:Work>
    </rdf:RDF>
  </metadata>
  <g
     inkscape:label="Layer 1"
     inkscape:groupmode="layer"
     id="layer1"
     transform="translate(-139.6875,-603.23096)">
    <rect
       style="fill:#000000;fill-opacity:1;fill-rule:nonzero;stroke:#000000;stroke-width:1.99999988;stroke-linecap:butt;stroke-linejoin:miter;stroke-miterlimit:4;stroke-opacity:1;stroke-dasharray:none"
       id="rect4580"
       width="521.75787"
       height="101.22999"
       x="141.54979"
       y="872.62054" />
    <g
       id="g4818"
       transform="matrix(0.69968867,0,0,0.69897201,-147.6748,730.85883)">
      <path
         sodipodi:nodetypes="cccccc"
         inkscape:connector-curvature="0"
         id="path4027-9-0-8-2"
         d="m 826.1506,215.50972 -80.59464,-0.49429 -25.37523,76.49594 64.9119,47.77137 65.49298,-46.97159 z"
         inkscape:transform-center-y="3.8795083"
         inkscape:transform-center-x="0.10504909"
         style="fill:#000000;fill-opacity:1;fill-rule:nonzero;stroke:#ff6600;stroke-width:12.72646236;stroke-linecap:butt;stroke-linejoin:miter;stroke-miterlimit:4;stroke-opacity:1;stroke-dasharray:none" />
      <path
         inkscape:connector-curvature="0"
         style="fill:#ff6600"
         d="m 771.02543,304.23253 c -0.84886,-0.84989 -1.15884,-1.61255 -1.16044,-2.85488 -0.002,-1.65271 0.78028,-2.90471 2.3553,-3.7691 0.77772,-0.42681 1.06,-0.48904 2.18829,-0.48234 1.38205,0.008 1.60172,-0.18132 0.6107,-0.52685 -0.31522,-0.10989 -0.55822,-0.27226 -0.53999,-0.36077 0.0182,-0.0885 0.77214,-1.27842 1.67541,-2.64422 0.90327,-1.3658 1.80613,-2.75337 2.00638,-3.0835 l 0.36406,-0.60021 3.60005,-0.11962 c 1.98003,-0.0657 3.63362,-0.086 3.67466,-0.045 0.0819,0.0819 -1.56875,2.76262 -4.04565,6.57036 -0.84332,1.29642 -1.09391,1.85325 -0.73384,1.63072 0.25078,-0.15499 1.2945,0.34833 1.49353,0.72021 0.099,0.18501 0.18003,0.85489 0.18003,1.48862 0,0.98142 -0.0679,1.25278 -0.45821,1.83063 -0.55949,0.82836 -1.11116,1.27276 -2.15817,1.73856 -1.07349,0.47756 -1.99966,0.63224 -2.5782,0.43056 -0.57714,-0.2012 -0.80379,-0.58371 -0.80379,-1.35651 0,-0.74451 -0.1424,-1.10763 -0.43438,-1.10763 -0.15119,0 -0.23211,0.19041 -0.23211,0.5461 0,1.29138 -1.84186,2.78633 -3.4329,2.78633 -0.70879,0 -0.85263,-0.0725 -1.57072,-0.79145 z m 28.79116,0.63303 c -0.74892,-0.2378 -1.60227,-0.83448 -1.71889,-1.20185 -0.0715,-0.22529 0.0155,-0.51254 0.25194,-0.83242 0.1986,-0.26863 0.33711,-0.6537 0.30778,-0.85573 -0.0476,-0.32809 -0.13909,-0.27529 -0.85661,0.49452 -0.96788,1.03839 -1.78079,1.39292 -3.46305,1.51024 -1.1172,0.0779 -1.38034,0.0376 -2.19618,-0.33581 -1.03048,-0.47177 -1.87117,-1.44815 -2.04508,-2.37514 -0.17976,-0.95819 0.33005,-2.27568 1.2848,-3.32035 0.4697,-0.51392 0.80902,-0.97939 0.75404,-1.03438 -0.0549,-0.055 -0.34051,-3.3e-4 -0.63452,0.12146 -0.45465,0.18833 -0.55581,0.18545 -0.67671,-0.0192 -0.0782,-0.13235 -0.95152,-1.62778 -1.94075,-3.32314 -0.98923,-1.69537 -1.9027,-3.24778 -2.02992,-3.44982 -0.12723,-0.20203 -0.19666,-0.3978 -0.15432,-0.43507 0.0424,-0.0373 1.84663,-0.1155 4.00952,-0.17387 l 3.93252,-0.10613 2.14916,3.18592 c 1.18203,1.75226 2.22414,3.20795 2.31578,3.23486 1.91744,0.56317 3.43172,1.80748 4.26872,3.50766 0.47315,0.96112 0.51691,1.17634 0.43827,2.15593 -0.10713,1.33467 -0.62655,2.20273 -1.69143,2.8268 -0.83783,0.491 -1.6353,0.63823 -2.30508,0.42555 z m -43.19892,-0.6437 c -1.20986,-0.43246 -2.04701,-1.01753 -3.13051,-2.18784 -1.09729,-1.18519 -1.52098,-1.93556 -1.8765,-3.3233 -0.53964,-2.10643 0.41981,-3.98027 2.8826,-5.62983 0.48112,-0.32225 0.87475,-0.65596 0.87475,-0.74156 0,-0.33315 -0.51787,-0.32786 -1.06599,0.0109 l -0.57459,0.35511 -0.4242,-0.55616 c -0.6661,-0.87329 -0.93438,-1.68999 -0.93438,-2.84438 0,-2.19474 1.40724,-3.99664 3.86001,-4.94252 2.37902,-0.91745 4.31622,-0.72219 5.76586,0.58116 1.29883,1.16777 1.83522,2.85105 1.45711,4.5726 l -0.1226,0.55816 5.62448,-0.12341 c 5.17402,-0.11353 5.61609,-0.10154 5.51968,0.14971 -0.0577,0.15022 -0.72972,1.22635 -1.49348,2.39139 -0.76378,1.16503 -1.83353,2.84564 -2.37722,3.73468 l -0.98855,1.61643 -2.16607,0.0286 c -1.19134,0.0158 -2.68107,0.0168 -3.31049,0.003 -1.14007,-0.026 -1.14715,-0.0291 -1.86069,-0.8119 -0.92821,-1.01831 -1.13707,-0.66718 -0.41718,0.70134 0.87991,1.67276 0.62725,3.34948 -0.75986,5.04224 -1.20247,1.46747 -2.86713,1.9934 -4.48217,1.41613 z m 57.23441,-1.67632 c -1.42597,-0.31545 -2.9322,-1.43256 -3.49271,-2.5904 -0.32939,-0.68045 -0.45663,-2.19256 -0.30112,-3.57861 0.0246,-0.21982 -0.0386,-0.42885 -0.14061,-0.46448 -0.20253,-0.0707 -0.56448,0.6744 -0.60796,1.25164 -0.0268,0.35541 -0.077,0.36233 -2.63287,0.36233 l -2.60558,0 -0.50374,-0.79144 c -0.27704,-0.4353 -1.48688,-2.23481 -2.68849,-3.99892 l -2.18476,-3.20746 2.2054,-0.0214 c 1.21294,-0.0118 2.69274,-0.0362 3.28841,-0.0543 0.59568,-0.018 2.12204,-0.0459 3.39192,-0.0618 2.06073,-0.0259 2.29764,-0.0583 2.20442,-0.30121 -0.173,-0.45083 0.23023,-2.22642 0.73081,-3.21802 0.48379,-0.9584 1.74847,-2.28152 2.60256,-2.72283 1.98687,-1.02661 4.58797,-0.75383 6.48276,0.67986 0.96639,0.7312 1.86177,2.32358 1.987,3.5337 0.15245,1.47298 -0.53377,3.44791 -1.82179,5.24314 -0.96298,1.34221 -0.96663,1.74944 -0.008,0.90786 0.33256,-0.292 0.70025,-0.48026 0.83614,-0.42812 0.41665,0.15989 1.39906,1.81948 1.59325,2.69148 0.43299,1.94446 -0.54542,4.25726 -2.3218,5.48829 -1.48872,1.03167 -4.36739,1.64481 -6.01312,1.28076 z m -31.32479,-14.11043 c -0.48503,-0.2182 -0.68674,-0.22848 -1.19847,-0.061 -0.76853,0.25155 -3.31871,0.003 -4.13263,-0.40344 -0.51876,-0.2588 -0.57641,-0.25567 -1.08544,0.0589 -0.29567,0.18274 -0.75367,0.33151 -1.01779,0.33063 -0.57737,-0.002 -2.16187,-0.71125 -2.26236,-1.01275 -0.055,-0.16509 -0.16416,-0.14972 -0.47307,0.0667 -0.54996,0.3852 -1.02919,0.35339 -1.98688,-0.13191 -1.49503,-0.75758 -2.04819,-1.51764 -2.24586,-3.0859 l -0.1155,-0.91641 -1.61359,-1.08254 c -1.73681,-1.16521 -3.12637,-2.30155 -5.36255,-4.38534 -4.53764,-4.22839 -7.43955,-8.82725 -9.78282,-15.50358 -0.75885,-2.16205 -1.71405,-5.78464 -1.71405,-6.50051 0,-0.21305 -0.0716,-0.60474 -0.1592,-0.87043 -0.33992,-1.03154 -1.09008,-10.09196 -0.85502,-10.32701 0.0385,-0.0385 2.10486,-0.07 4.59188,-0.07 l 4.52186,0 -0.16095,1.29132 c -0.19732,1.58292 0.0589,4.44873 0.64425,7.20637 0.52858,2.49015 2.0777,7.33134 2.34594,7.33134 0.20301,0 0.35135,-0.69781 0.38962,-1.83284 0.0107,-0.32075 0.23892,-1.40795 0.50692,-2.41601 1.95521,-7.35434 7.48287,-12.72881 15.00071,-14.58499 2.0435,-0.50455 6.064,-0.63169 8.06033,-0.25492 2.42088,0.45692 4.2157,1.21318 6.76896,2.85214 3.99897,2.56698 6.9366,5.61986 9.0137,9.36734 1.01907,1.83861 2.077,4.47542 2.23878,5.58001 0.064,0.43643 0.17926,0.83246 0.25631,0.88007 0.1755,0.10846 0.71476,-0.69157 0.59584,-0.88399 -0.0481,-0.0778 -0.0189,-0.43727 0.0649,-0.79878 0.72498,-3.12754 0.9067,-4.71976 0.90224,-7.90532 -0.004,-2.48525 -0.0749,-3.57555 -0.3037,-4.63769 -0.16453,-0.76372 -0.27418,-1.4134 -0.24367,-1.44374 0.0306,-0.0303 4.04814,-0.10855 8.92807,-0.1738 7.75351,-0.10369 8.87257,-0.0877 8.87257,0.12656 0,0.87454 -0.36755,5.77672 -0.51574,6.87847 -0.49356,3.66986 -0.9948,5.81073 -2.18463,9.3308 -2.40713,7.12145 -7.38061,15.00625 -12.0839,19.15737 -2.54209,2.24365 -6.21719,4.46492 -9.24301,5.58653 l -1.4501,0.53754 -0.18241,0.87862 c -0.23967,1.1545 -0.60783,1.46526 -1.87996,1.5869 -0.84362,0.0807 -1.14654,0.0352 -1.72745,-0.25883 l -0.70445,-0.35664 -0.43085,0.43044 c -0.39027,0.38989 -0.55444,0.43044 -1.74222,0.43044 -1.03855,0 -1.38166,-0.0636 -1.64933,-0.30594 -0.32904,-0.29786 -0.35187,-0.29566 -0.86397,0.0833 -0.45304,0.33525 -0.74948,0.39519 -2.13709,0.43211 -1.18331,0.0315 -1.76594,-0.0268 -2.19426,-0.21952 z m 3.43414,-1.03388 c 0.37972,-0.25123 0.73119,-1.2147 0.72544,-1.98863 -0.008,-1.06559 -0.40343,-2.67295 -0.7527,-3.0589 -0.63054,-0.69673 -2.40694,-0.8435 -3.05966,-0.25279 -0.25438,0.23021 -0.29452,0.5965 -0.3018,2.7542 -0.008,2.41292 0.003,2.49081 0.34799,2.55847 0.62935,0.12323 2.84942,0.11422 3.04073,-0.0124 z m -4.74586,-0.31443 c 0.24969,-0.30064 0.34604,-2.82586 0.16417,-4.30318 -0.0886,-0.7197 -0.16449,-0.85142 -0.57333,-0.99481 -0.39789,-0.13957 -0.63858,-0.0786 -1.54661,0.39227 -0.59145,0.30666 -1.1616,0.71683 -1.26697,0.91151 -0.20722,0.38278 -0.6078,2.40423 -0.62205,3.13898 -0.0108,0.55805 0.33675,0.76227 1.61611,0.94965 1.52248,0.22297 1.9812,0.20354 2.22868,-0.0944 z m 9.14291,-0.0579 c 0.28352,-0.28352 0.33324,-0.5554 0.33324,-1.82199 0,-0.81881 -0.0696,-1.67188 -0.15472,-1.8957 -0.26846,-0.70607 -2.03969,-1.06219 -2.58262,-0.51926 -0.20076,0.20074 -0.26184,0.62583 -0.26184,1.82199 0,1.76576 0.16203,2.35706 0.70572,2.57548 0.67937,0.27294 1.60234,0.19736 1.96022,-0.16052 z m -14.26792,-0.38023 c 0.24971,-0.33574 0.36301,-0.78644 0.41094,-1.63484 0.0587,-1.03838 0.0235,-1.21686 -0.31095,-1.57274 -0.78604,-0.83671 -2.25744,-0.92736 -2.75389,-0.16964 -0.32456,0.49531 -0.49053,2.37633 -0.26149,2.96344 0.21848,0.56006 1.0475,0.95256 1.92081,0.90942 0.4957,-0.0245 0.73159,-0.14205 0.99458,-0.49564 z m 18.29218,0.38249 c 0.62607,-0.004 0.85302,-2.1536 0.37553,-3.55494 -0.14607,-0.42871 -0.33244,-0.77947 -0.41415,-0.77947 -0.46923,0 -1.7152,0.45366 -2.10957,0.76811 -0.42907,0.3421 -0.45979,0.45073 -0.45979,1.62569 0,0.94445 0.0683,1.32747 0.27316,1.53269 0.31803,0.31852 1.2458,0.57533 1.72629,0.47783 0.18329,-0.0373 0.45713,-0.0687 0.60853,-0.07 z m -22.40767,-1.16861 c 0.26662,-1.02586 0.26704,-2.207 6.3e-4,-2.57095 -0.16387,-0.22411 -0.51946,-0.32331 -1.37948,-0.38484 -1.3586,-0.0972 -1.65238,0.10657 -1.62562,1.12757 0.0267,1.0161 0.53896,1.85871 1.39305,2.2912 1.06194,0.53774 1.3744,0.44794 1.61115,-0.46298 z m 10.38559,-8.74915 c 0.0734,-1.02597 0.12303,-1.16481 0.41655,-1.16481 0.23195,0 0.34742,0.12662 0.3799,0.41655 0.0817,0.7301 0.20602,1.16642 0.33142,1.16379 0.34671,-0.007 0.5984,-0.37122 0.70658,-1.02173 0.0664,-0.39888 0.36335,-1.54791 0.66003,-2.55339 0.41888,-1.41968 0.52186,-2.03397 0.46086,-2.74926 -0.13216,-1.54975 -0.61337,-4.82702 -0.97406,-6.63385 -0.18818,-0.94261 -0.40626,-2.39734 -0.48462,-3.23273 -0.1368,-1.45837 -0.37228,-1.99289 -0.7233,-1.64186 -0.20905,0.20904 -0.46085,3.94646 -0.40461,6.00526 0.0396,1.45011 0.005,1.74952 -0.19721,1.74952 -0.44002,0 -0.66588,-0.79125 -0.68964,-2.416 -0.034,-2.32481 -0.20283,-3.87994 -0.42929,-3.9545 -0.29647,-0.0976 -0.55022,1.03901 -0.55128,2.46932 -4.9e-4,0.75402 -0.20206,2.23308 -0.49944,3.66567 -0.86427,4.1637 -0.64763,6.31161 1.04549,10.36539 0.49727,1.19062 0.84628,1.01939 0.95262,-0.46737 z m -18.16172,-0.0105 c 0,-0.2357 -0.19457,-0.76056 -0.43238,-1.16636 -0.23782,-0.40579 -0.37859,-0.7378 -0.31285,-0.7378 0.0658,0 0.0395,-0.0965 -0.0584,-0.21439 -0.34516,-0.41587 -0.55584,-3.14654 -0.44627,-5.78398 0.10108,-2.43317 0.0837,-2.65977 -0.30091,-3.9156 -0.5015,-1.63759 -1.03753,-2.58263 -1.46486,-2.58263 -0.42155,0 -0.40679,0.12446 0.22473,1.89637 l 0.54152,1.51936 -0.0342,3.24912 c -0.0442,4.20079 0.18881,5.52595 1.28486,7.30725 0.57544,0.93522 0.99871,1.1169 0.99871,0.42866 z m 36.50438,-0.37349 c 0.80957,-0.90429 1.56383,-3.29486 1.46621,-4.64704 -0.0255,-0.35305 0.007,-0.72835 0.0724,-0.83402 0.0653,-0.10566 0.0473,-0.23627 -0.04,-0.29023 -0.0873,-0.054 -0.16377,-0.22784 -0.16991,-0.3864 -0.0321,-0.82743 -0.18075,-2.34835 -0.27249,-2.78763 -0.41531,-1.9887 -0.33749,-4.78504 0.14376,-5.16526 0.1938,-0.15312 0.21576,-0.28647 0.14407,-0.87477 -0.0409,-0.33586 -0.59244,-0.23912 -0.83303,0.14614 -0.62657,1.00329 -0.92382,4.14103 -0.55046,5.81057 0.32696,1.46209 0.56454,4.09838 0.473,5.24858 -0.1459,1.83313 -0.51501,2.82023 -1.28637,3.44013 -0.78467,0.63056 -0.85132,0.97534 -0.18854,0.97534 0.3369,0 0.63579,-0.18238 1.04138,-0.63541 z m -23.10048,-6.59133 c 0.23157,-0.15173 0.53155,-0.44456 0.66664,-0.65072 0.32506,-0.49611 0.71241,-2.05564 0.91965,-3.70273 0.0922,-0.73313 0.27683,-2.19525 0.41018,-3.24912 0.28411,-2.24542 0.1882,-2.85405 -0.70901,-4.49877 -1.0535,-1.93122 -1.29,-2.1666 -2.17288,-2.16247 -0.985,0.004 -3.54083,0.567 -4.42433,0.97356 -0.37372,0.17197 -1.27933,0.51836 -2.01247,0.76974 -0.73314,0.25138 -1.87157,0.71201 -2.52985,1.0236 -1.11305,0.52686 -1.22975,0.6335 -1.66622,1.5223 -0.44675,0.9098 -0.46736,1.05409 -0.42852,3.00019 0.0499,2.49988 0.21342,2.9411 1.44971,3.91141 0.89707,0.70408 2.29299,1.25443 3.92468,1.54735 0.32074,0.0576 1.16591,0.43807 1.87814,0.84553 2.07812,1.18887 3.57619,1.40272 4.69428,0.67013 z m 13.42212,-0.89121 c 0.50403,-0.15409 1.25383,-0.51853 1.66622,-0.80987 0.86478,-0.61095 2.05496,-1.2343 2.36771,-1.24005 0.49459,-0.009 2.14971,-0.82211 2.86218,-1.40594 0.91438,-0.74926 1.22567,-1.60002 1.37407,-3.75536 0.0975,-1.4161 0.0974,-1.41645 -0.59801,-2.74925 -1.26072,-2.41619 -2.6128,-3.40302 -5.15594,-3.76306 -3.466,-0.49071 -5.87437,0.34589 -7.34783,2.55242 -0.36439,0.54567 -0.74194,1.28714 -0.83904,1.64773 -0.25672,0.95338 -0.0337,2.51722 0.59088,4.145 0.29893,0.77895 0.82198,2.16607 1.16232,3.08248 0.71105,1.91461 1.04333,2.53905 1.40888,2.64775 0.38909,0.11569 1.47931,-0.0373 2.50857,-0.35185 z"
         id="path2451"
         sodipodi:nodetypes="csssssscccssssssssssssccsssssssssssssscccssssccsssscccssscccsscccssssccssssccccccssssssssssssccssssssscccssssscccsssssssssssssssssssscccscccssssccsssssccssssssccsssssccsssssccssssssccssssccssssssssssssssssccsssssscccsccssssssssssssccsssssssssssssccsssssssssssc" />
    </g>
    <g
       id="g4826"
       transform="matrix(0.69968867,0,0,0.69897201,-131.80798,730.79116)">
      <path
         sodipodi:nodetypes="cccccc"
         inkscape:connector-curvature="0"
         id="path4027-9-0-8"
         d="m 1098.9487,215.21479 -80.5961,-0.10254 -25.0031,76.61838 65.1433,47.45529 65.2639,-47.28937 z"
         inkscape:transform-center-y="3.8795083"
         inkscape:transform-center-x="0.10504909"
         style="fill:#000000;fill-opacity:1;fill-rule:nonzero;stroke:#ff6600;stroke-width:12.72646236;stroke-linecap:butt;stroke-linejoin:miter;stroke-miterlimit:4;stroke-opacity:1;stroke-dasharray:none" />
      <g
         transform="matrix(0.8789104,0.0042721,-0.0042721,0.8789104,510.32928,-33.780082)"
         id="g3611">
        <path
           inkscape:connector-curvature="0"
           d="m 587.87639,303.96653 h 75.07499 v 75.07499 h -75.07499 z m 0,25.02499 h 75.07499 m -75.07499,25.025 h 75.07499 m -50.05,-50.04999 v 75.07499 m 25.025,-75.07499 v 75.07499"
           style="fill:none;stroke:#ff6600;stroke-width:2.0356915;stroke-opacity:1"
           id="path4638" />
        <circle
           d="M 3.8,1 C 3.8,1.4418278 3.4418278,1.8 3,1.8 2.5581722,1.8 2.2,1.4418278 2.2,1 2.2,0.55817219 2.5581722,0.19999999 3,0.19999999 3.4418278,0.19999999 3.8,0.55817219 3.8,1 z"
           sodipodi:ry="0.80000001"
           sodipodi:rx="0.80000001"
           sodipodi:cy="1"
           sodipodi:cx="3"
           cx="3"
           cy="1"
           r="0.80000001"
           id="circle4640"
           transform="matrix(12.512498,0,0,12.512498,587.87639,303.96653)"
           style="fill:#ff6600" />
        <circle
           d="M 5.8,3 C 5.8,3.4418278 5.4418278,3.8 5,3.8 4.5581722,3.8 4.2,3.4418278 4.2,3 4.2,2.5581722 4.5581722,2.2 5,2.2 5.4418278,2.2 5.8,2.5581722 5.8,3 z"
           sodipodi:ry="0.80000001"
           sodipodi:rx="0.80000001"
           sodipodi:cy="3"
           sodipodi:cx="5"
           cx="5"
           cy="3"
           r="0.80000001"
           id="circle4642"
           transform="matrix(12.512498,0,0,12.512498,587.87639,303.96653)"
           style="fill:#ff6600" />
        <circle
           d="M 1.8,5 C 1.8,5.4418278 1.4418278,5.8 1,5.8 0.55817219,5.8 0.19999999,5.4418278 0.19999999,5 0.19999999,4.5581722 0.55817219,4.2 1,4.2 1.4418278,4.2 1.8,4.5581722 1.8,5 z"
           sodipodi:ry="0.80000001"
           sodipodi:rx="0.80000001"
           sodipodi:cy="5"
           sodipodi:cx="1"
           cx="1"
           cy="5"
           r="0.80000001"
           id="circle4644"
           transform="matrix(12.512498,0,0,12.512498,587.87639,303.96653)"
           style="fill:#ff6600" />
        <circle
           d="M 3.8,5 C 3.8,5.4418278 3.4418278,5.8 3,5.8 2.5581722,5.8 2.2,5.4418278 2.2,5 2.2,4.5581722 2.5581722,4.2 3,4.2 3.4418278,4.2 3.8,4.5581722 3.8,5 z"
           sodipodi:ry="0.80000001"
           sodipodi:rx="0.80000001"
           sodipodi:cy="5"
           sodipodi:cx="3"
           cx="3"
           cy="5"
           r="0.80000001"
           id="circle4646"
           transform="matrix(12.512498,0,0,12.512498,587.87639,303.96653)"
           style="fill:#ff6600" />
        <circle
           d="M 5.8,5 C 5.8,5.4418278 5.4418278,5.8 5,5.8 4.5581722,5.8 4.2,5.4418278 4.2,5 4.2,4.5581722 4.5581722,4.2 5,4.2 5.4418278,4.2 5.8,4.5581722 5.8,5 z"
           sodipodi:ry="0.80000001"
           sodipodi:rx="0.80000001"
           sodipodi:cy="5"
           sodipodi:cx="5"
           cx="5"
           cy="5"
           r="0.80000001"
           id="circle4648"
           transform="matrix(12.512498,0,0,12.512498,587.87639,303.96653)"
           style="fill:#ff6600" />
      </g>
    </g>
    <g
       id="g4909"
       transform="matrix(0.99809342,0,0,1,140.09204,231.30591)">
      <path
         sodipodi:nodetypes="cccccc"
         inkscape:connector-curvature="0"
         id="path4027-9-0-8-1"
         d="m 394.37532,650.02162 -56.49967,-0.17893 -17.6303,53.52029 45.60355,33.25708 45.81483,-32.96701 z"
         inkscape:transform-center-y="2.711669"
         inkscape:transform-center-x="0.073640204"
         style="fill:#000000;fill-opacity:1;fill-rule:nonzero;stroke:#ff6600;stroke-width:8.90849686;stroke-linecap:butt;stroke-linejoin:miter;stroke-miterlimit:4;stroke-opacity:1;stroke-dasharray:none" />
      <path
         sodipodi:nodetypes="ccscsssssssccccscccsccsscscccccscccscsssscsccsscsssccccccsscccccscscssscscssscscsscsccccccccccccccccccsccssccsscccsccccccccccccccccsscccscccccscssccsccccccccssscssscscccccssccscssccssscsscscsscscsssssccsssscccsccscsscsscssccsscssccsccscscccscscsccccsccccsccscsssscccscsccccscssccssccccsccsccsccccssccsscsscccccccsssssccccsccccccss"
         inkscape:connector-curvature="0"
         id="rect3105"
         d="m 365.21785,666.24336 c -0.18633,0 -0.34459,0.21879 -0.43153,0.60042 -0.0436,0.19152 -0.13117,0.46552 -0.19407,0.61091 -0.0628,0.14468 -0.22215,0.63886 -0.3561,1.09738 -0.13392,0.45783 -0.4791,1.51257 -0.76465,2.34296 -0.28555,0.83037 -0.54672,1.61882 -0.58196,1.75022 -0.0353,0.13211 -0.11212,0.29426 -0.17071,0.36067 -0.0586,0.0629 -0.13103,0.28378 -0.15974,0.48229 -0.0287,0.19851 -0.12845,0.55499 -0.22176,0.79333 -0.0933,0.23766 -0.23792,0.72414 -0.32213,1.08131 -0.13176,0.55848 -0.58766,1.84529 -1.48032,4.18125 -0.26415,0.69129 -0.51913,1.48812 -0.68258,2.12697 -0.0659,0.25792 -0.22463,0.67941 -0.35111,0.93733 l -0.22984,0.46831 -2.02674,0.0349 c -1.1147,0.0209 -5.31642,0.056 -9.33715,0.0713 -4.02074,0.0209 -7.32286,0.0419 -7.33764,0.0559 -0.0883,0.079 0.10123,0.42078 0.29023,0.52423 0.12222,0.0699 0.43691,0.27749 0.6998,0.46692 0.3371,0.24254 0.54672,0.34389 0.71372,0.34459 0.11149,0 0.20598,-0.007 0.23078,-0.021 3.6e-4,0 0.002,0 0.003,0 0.003,0 0.004,0 0.004,-0.007 5e-5,-0.014 0.02,-0.0797 0.0434,-0.13979 0.0282,-0.0727 -0.0338,-0.14749 -0.18481,-0.22648 -0.25757,-0.1335 -0.50784,-0.36555 -0.50753,-0.47041 1.1e-4,-0.0419 0.0803,-0.12162 0.17698,-0.18453 0.16103,-0.10414 0.2166,-0.10344 0.66043,0.007 0.0699,0.0209 0.13112,0.0349 0.18986,0.042 0.16031,0 0.4288,0.007 0.83008,0.014 0.031,0 0.0589,-0.007 0.0928,-0.014 0.42726,-0.056 3.0422,-0.0699 8.14286,-0.056 l 7.1768,0.021 c 0.1809,-0.014 0.30755,-0.042 0.40056,-0.0629 l 0.17244,-0.18243 c 0.24756,-0.26002 0.35283,-0.548 0.91663,-2.49183 0.16684,-0.57456 0.3657,-1.20714 0.44069,-1.40564 0.075,-0.1985 0.20229,-0.61649 0.28324,-0.92823 0.0809,-0.31175 0.20802,-0.66892 0.2828,-0.79334 0.0748,-0.12441 0.19461,-0.46831 0.26465,-0.76607 0.16195,-0.68779 0.27346,-1.04147 0.70091,-2.19897 0.19038,-0.51514 0.38348,-1.12674 0.42699,-1.3588 0.0435,-0.23136 0.21089,-0.73042 0.37423,-1.10787 0.16333,-0.37814 0.33249,-0.86952 0.37417,-1.09039 0.0416,-0.22158 0.18455,-0.61441 0.31699,-0.87442 0.22141,-0.43546 0.43222,-1.04846 0.72777,-2.1088 0.12362,-0.44384 0.18864,-0.52143 0.3836,-0.45642 0.14243,0.0489 0.59344,1.0184 0.59335,1.27771 -2.8e-4,0.0937 0.0922,0.49697 0.20544,0.89399 0.1133,0.39702 0.24623,0.91705 0.29516,1.1554 0.049,0.23835 0.16297,0.62837 0.25302,0.86672 0.51115,1.35391 1.79746,5.53097 2.12382,6.89816 0.12331,0.51724 0.29039,1.0177 0.39008,1.17218 0.20946,0.32362 0.53195,1.26444 0.53149,1.54822 -3.4e-4,0.11184 0.069,0.31663 0.15246,0.45364 0.0834,0.13769 0.23723,0.49207 0.34146,0.78844 0.12353,0.35088 0.25128,0.58364 0.36897,0.66612 0.1675,0.11742 0.7624,0.1328 8.20988,0.22716 4.58646,0.056 8.05732,0.1307 8.09469,0.16845 0.0845,0.0846 -0.0549,0.3418 -0.29567,0.54659 -0.12047,0.10275 -0.16848,0.19922 -0.13878,0.2775 0.067,0.17544 0.23058,0.14888 0.5001,-0.0846 0.13111,-0.11323 0.4065,-0.29007 0.61188,-0.39282 0.42374,-0.21179 0.69562,-0.50955 0.66487,-0.72833 -0.0201,-0.14259 -0.0818,-0.14958 -1.50579,-0.20061 -0.39071,-0.014 -1.49405,-0.0279 -2.93353,-0.0419 -0.72891,0 -1.4351,-0.007 -2.40882,-0.014 -0.38958,0 -0.53968,0 -0.9002,0 -0.73261,0 -1.47467,-0.007 -2.23241,-0.007 -5.81348,-0.014 -7.02569,-0.0349 -7.19916,-0.11603 -0.28418,-0.137 -0.48575,-0.52982 -0.67469,-1.30778 -0.0875,-0.35997 -0.25453,-0.84156 -0.37004,-1.07012 -0.11551,-0.22857 -0.20905,-0.44105 -0.20895,-0.47461 2.3e-4,-0.0741 -0.52049,-1.78517 -0.72354,-2.3765 -0.0819,-0.23835 -0.30883,-1.0184 -0.50379,-1.73345 -0.2024,-0.74231 -0.45966,-1.50139 -0.59868,-1.7698 -0.24029,-0.46411 -0.54079,-1.45945 -0.53982,-1.78587 2.8e-4,-0.0923 -0.11004,-0.44525 -0.24647,-0.78564 -0.13644,-0.33971 -0.30279,-0.85275 -0.36758,-1.13723 -0.0647,-0.28519 -0.17717,-0.71226 -0.25052,-0.95061 -0.0733,-0.23834 -0.23265,-0.80661 -0.35362,-1.26374 -0.30383,-1.14701 -0.71053,-2.16681 -0.86441,-2.16751 z m -9.79187,21.4878 c -0.24505,0 -0.43624,0.014 -0.57917,0.042 -0.0513,0.021 -0.10055,0.0419 -0.16079,0.0734 -0.31052,0.15866 -0.36765,0.2684 -0.56881,1.12813 -0.0276,0.11813 -0.0505,0.20131 -0.10029,0.25932 l -0.0183,0.072 -0.0792,0 c -0.15706,0.0629 -0.46507,0.0629 -1.13562,0.0629 -0.844,0 -1.17677,-0.0279 -1.31157,-0.10765 -0.017,-0.007 -0.0439,-0.0209 -0.0813,-0.0279 -1.23631,-0.021 -3.04984,-0.0489 -4.87638,-0.0629 l -3.94003,-0.0419 -0.93641,0 -0.24047,0.24533 -0.16563,0.17056 -0.0272,0.0349 -0.004,0 -0.0431,0.0419 -1.5566,0.14888 c -1.0567,0.10205 -1.56932,0.18034 -1.69266,0.2705 -0.006,0.014 -0.009,0.0349 -0.009,0.049 -5e-5,0.014 4.7e-4,0.0279 0.004,0.0419 0.0176,0.014 0.0424,0.0349 0.0768,0.0489 0.0742,0.042 0.39599,0.093 0.71437,0.11952 1.89506,0.15797 2.41742,0.23626 2.58416,0.38863 0.38926,0.35578 0.32247,0.3474 3.89154,0.37466 1.34254,-0.014 2.2367,0 2.88606,0.0279 0.64214,0.007 1.16546,0.014 1.38419,0.0209 0.49758,0.014 1.31194,-0.0209 1.80968,-0.0699 0.49778,-0.0489 1.32842,-0.0811 1.84587,-0.0699 l 0.94087,0.0279 0.0506,0.469 c 0.0789,0.75 0.1258,0.93592 0.275,1.08551 0.19525,0.19641 0.61934,0.18313 1.09258,-0.0349 l 0.38729,-0.17893 0.16739,0 0.0407,-0.014 2.49024,0.0209 1.32318,0 4.02155,0.014 0.24255,-0.17964 0.24481,-0.17753 0.23029,0.14259 c 0.085,0.056 0.16136,0.086 0.61716,0.10834 0.0274,0 0.0492,0 0.0791,0 0.015,0 0.0317,0 0.0476,0 0.3475,0.014 0.84417,0.0209 1.59453,0.0279 0.3438,0 0.71425,0 1.17613,0.007 0.0737,0 0.12218,0 0.19904,0 1.05237,0 2.37321,0.014 4.15951,0.014 l 0.0384,0 c 2.53231,0.007 4.19971,0.007 5.35154,0.007 1.80911,-0.007 2.31607,-0.049 2.44332,-0.17333 0.0119,-0.049 0.0247,-0.10765 0.039,-0.18035 -0.003,-0.0279 -0.004,-0.056 -0.004,-0.0902 4.2e-4,-0.14258 0.0132,-0.23694 0.0732,-0.29565 l 0.007,-0.042 0.052,0 c 0.11992,-0.056 0.34491,-0.0489 0.7691,-0.0279 0.4003,0.0279 0.7932,0.0867 0.87266,0.1356 0.0897,0.056 0.65207,0.11323 1.48334,0.15307 1.68888,0.0818 1.87416,0.0727 2.11514,-0.10414 0.10816,-0.079 0.29484,-0.1433 0.41434,-0.1433 0.26188,0 1.2717,0.23277 2.06592,0.47531 0.67764,0.20689 2.00068,0.32642 4.04992,0.36137 0.18036,0 0.34702,0 0.5451,0 0.1336,0 0.2589,0 0.39808,0 2.38554,0.014 2.38676,0.014 2.69864,0.68499 0.0901,0.19432 0.15407,0.44525 0.19008,0.73113 5.5e-4,0 0.002,0 0.003,0.007 0.003,0.0209 0.004,0.042 0.007,0.0629 0.003,0.021 0.006,0.042 0.007,0.0629 0.036,0.39142 0.0229,0.83806 -0.0423,1.29659 -0.077,0.541 -0.11032,0.60601 -0.98499,1.89561 -0.12796,0.18873 -0.33152,0.33201 -0.73439,0.52143 -0.30673,0.14399 -0.70669,0.37396 -0.88817,0.51166 -0.18147,0.13699 -0.46393,0.28517 -0.6275,0.32921 -0.62538,0.16915 -3.2348,-0.0832 -3.64959,-0.35298 -0.20469,-0.1335 -0.87884,-0.35578 -1.27671,-0.42148 -0.15917,-0.0279 -0.66362,-0.15797 -1.12102,-0.29427 -0.45738,-0.1356 -1.15716,-0.30335 -1.55506,-0.36976 -0.76,-0.12651 -2.0158,-0.52143 -3.00547,-0.9471 -0.32309,-0.1391 -0.70621,-0.25373 -0.85195,-0.25513 -0.33021,0 -0.84654,-0.23276 -1.13171,-0.50396 -0.11909,-0.11323 -0.44693,-0.28867 -0.72942,-0.39002 -0.28248,-0.10135 -0.81922,-0.3411 -1.19268,-0.53332 l -0.57815,-0.29706 c -0.0582,-0.0209 -0.11494,-0.0349 -0.17175,-0.0489 l -0.87082,0 c -1.73994,0 -2.02888,0.22437 -2.16278,1.67823 -0.0784,0.85135 -0.0784,0.85695 0.10511,1.17288 0.10138,0.17474 0.20859,0.43266 0.23805,0.57175 0.0294,0.1384 0.14685,0.42638 0.26049,0.64096 0.11365,0.21459 0.2066,0.49907 0.2062,0.63467 -4e-4,0.1349 0.14846,0.6109 0.33164,1.05615 0.39355,0.95689 1.19032,3.24393 1.38604,3.97785 0.17208,0.64515 0.22223,0.78634 0.69516,2.034 0.21093,0.55638 0.43545,1.2225 0.50001,1.48113 0.0645,0.25792 0.21412,0.71295 0.33176,1.01071 0.24161,0.6123 0.33813,1.24837 0.2019,1.33154 -0.20449,0.12511 -1.76262,-0.85834 -3.12909,-1.97599 -0.2874,-0.23486 -0.79981,-0.60741 -1.13753,-0.82618 -0.33773,-0.21948 -0.87741,-0.6109 -1.20073,-0.87233 -0.32332,-0.26071 -0.84331,-0.64584 -1.15554,-0.85554 -0.31223,-0.20968 -0.82883,-0.58294 -1.14656,-0.82897 -0.31774,-0.24605 -0.9308,-0.68569 -1.36329,-0.97578 -0.43248,-0.29007 -0.98499,-0.68918 -1.22782,-0.88559 -0.53142,-0.42986 -2.42845,-1.78937 -2.81004,-2.01513 -0.44355,-0.26282 -0.48994,-0.23626 -3.8949,2.28424 -1.25673,0.93032 -2.54617,1.90819 -2.86543,2.1724 -0.31925,0.26421 -0.662,0.52144 -0.76168,0.57246 -0.0996,0.049 -0.36081,0.24463 -0.5803,0.42916 -0.21949,0.18523 -0.72546,0.55849 -1.12434,0.82899 -0.39888,0.2705 -0.87217,0.6109 -1.05173,0.75698 -0.17958,0.14609 -0.47328,0.33761 -0.65269,0.42637 -0.17939,0.0895 -0.53848,0.36208 -0.79796,0.60672 -0.56079,0.52912 -1.85576,1.50978 -2.09238,1.58387 -0.20117,0.0629 -0.51795,-0.007 -0.51763,-0.11464 1.3e-4,-0.0419 0.0974,-0.29636 0.21654,-0.56476 0.18828,-0.42498 0.45639,-1.38537 0.73387,-2.63443 0.044,-0.19851 0.16561,-0.57175 0.26935,-0.82898 0.10372,-0.25792 0.29922,-0.86603 0.43375,-1.34972 0.13452,-0.48368 0.40693,-1.28051 0.60689,-1.77119 0.37294,-0.91425 0.58834,-1.61183 0.58921,-1.91029 2.8e-4,-0.093 0.0482,-0.25862 0.10514,-0.36766 0.0571,-0.10904 0.20681,-0.58504 0.33338,-1.05894 0.12656,-0.47391 0.30868,-0.97647 0.4059,-1.11696 0.0973,-0.1412 0.17735,-0.31314 0.17757,-0.38304 2e-4,-0.0699 0.031,-0.18523 0.0686,-0.25512 0.0864,-0.15936 0.16264,-0.90727 0.10716,-1.05266 -0.0964,-0.25232 -0.46122,-0.0629 -0.46211,0.23556 -2.9e-4,0.0951 -0.0659,0.25512 -0.14583,0.35578 -0.0799,0.10065 -0.14552,0.26211 -0.14581,0.36067 -7.1e-4,0.29077 -0.20108,0.96458 -0.51634,1.74184 -0.16254,0.4005 -0.342,0.9464 -0.39942,1.21411 -0.11142,0.52003 -1.01044,3.21388 -1.26428,3.78773 -0.16515,0.37255 -0.78345,2.36252 -1.30167,4.19034 -0.17863,0.63047 -0.43958,1.4252 -0.57973,1.7663 -0.26506,0.64585 -0.32775,1.089 -0.18019,1.26724 0.10573,0.12791 0.32531,0.0559 0.71316,-0.22787 0.14688,-0.10834 0.41431,-0.31594 0.59398,-0.46272 0.17966,-0.14678 0.45703,-0.32152 0.61637,-0.38653 0.15934,-0.0629 0.4205,-0.23905 0.58018,-0.38793 0.31959,-0.29916 0.79638,-0.66752 2.32144,-1.79287 1.43629,-1.06033 3.39202,-2.53167 3.98976,-2.99928 0.2793,-0.21878 0.8832,-0.66961 1.34199,-1.00443 0.4588,-0.33411 1.25855,-0.93312 1.77723,-1.32944 1.06875,-0.8171 2.3526,-1.69011 2.69697,-1.8348 0.27383,-0.11533 0.39636,-0.0818 0.78195,0.22367 0.15886,0.12512 0.41888,0.30754 0.57784,0.40261 0.15896,0.0951 0.43519,0.29916 0.61389,0.45573 0.17867,0.15587 0.48724,0.37745 0.68613,0.49138 0.19891,0.11323 0.54013,0.37255 0.75828,0.57455 0.21816,0.2027 0.49455,0.42078 0.6138,0.48439 0.17964,0.0971 0.99112,0.64025 1.65239,1.10787 0.29949,0.21178 2.541,1.90609 2.72172,2.05777 0.10121,0.0853 0.45992,0.31244 0.7992,0.50326 0.33929,0.19152 0.97284,0.62698 1.40627,0.96738 0.43347,0.3404 1.21018,0.89468 1.72667,1.23368 0.51651,0.3397 1.12133,0.78985 1.34284,1.00093 0.40981,0.39002 0.81595,0.57945 1.15198,0.53332 0.16573,-0.021 0.17921,-0.049 0.17089,-0.42079 -0.009,-0.41099 -0.56142,-2.18498 -1.30398,-4.19452 -0.31238,-0.84506 -0.67567,-1.94175 -1.74187,-5.26885 -0.12098,-0.37745 -0.35973,-0.99465 -0.53199,-1.37279 -0.18041,-0.39491 -0.33385,-0.85484 -0.36097,-1.0834 -0.0293,-0.24674 -0.12339,-0.52214 -0.25119,-0.72484 -0.11296,-0.17894 -0.22756,-0.47181 -0.25365,-0.65004 -0.026,-0.17824 -0.12365,-0.46552 -0.2175,-0.63887 -0.13859,-0.25581 -0.17267,-0.42986 -0.17821,-0.92753 l -0.007,-0.613 0.2813,-0.28588 c 0.40286,-0.41239 0.59302,-0.48998 1.20023,-0.48787 0.51751,0 0.69759,0.0629 0.97613,0.3341 0.0487,0.049 0.30899,0.15657 0.57831,0.24324 0.26937,0.086 0.66919,0.26281 0.88776,0.39282 0.21856,0.13001 0.54377,0.29846 0.72269,0.37396 0.17892,0.0755 0.48788,0.22646 0.6866,0.3355 0.19872,0.10974 0.86572,0.34949 1.4822,0.53472 0.6165,0.18522 1.58891,0.48718 2.16036,0.66961 0.57145,0.18173 1.35251,0.39422 1.73571,0.47181 0.38319,0.0769 0.76129,0.16845 0.8408,0.2055 0.0795,0.0349 0.25849,0.0888 0.39775,0.11602 0.13924,0.0279 0.33447,0.0909 0.43385,0.1412 0.0994,0.0489 0.34348,0.11323 0.54242,0.14119 0.19897,0.0279 0.59412,0.1328 0.87919,0.23066 0.28505,0.0972 0.5848,0.17754 0.66446,0.17754 0.0797,0 0.34644,0.056 0.59453,0.11672 0.026,0.007 0.0527,0.014 0.0791,0.0209 0.36923,0.0349 0.79525,0.056 1.31845,0.0699 l 0.26237,0 c 1.12919,-0.0209 1.21258,-0.0349 1.52057,-0.20759 0.17944,-0.10275 0.58345,-0.29497 0.89697,-0.42847 0.36088,-0.15308 0.62695,-0.31943 0.72512,-0.45084 0.0853,-0.11463 0.39304,-0.45923 0.68536,-0.76747 0.50321,-0.52982 0.54525,-0.59832 0.77743,-1.30568 0.36546,-1.11277 0.43903,-1.62371 0.33015,-2.26957 -0.12022,-0.71365 -0.45351,-1.37487 -0.82524,-1.63349 -0.426,-0.29567 -1.60399,-0.43266 -4.05185,-0.476 -1.07478,-0.0209 -2.06805,-0.0699 -2.20726,-0.10625 -0.0339,-0.007 -0.0801,-0.0209 -0.13337,-0.0279 -0.20449,-0.014 -0.38421,-0.0279 -0.54725,-0.0419 -0.0216,0 -0.0447,0 -0.0656,0 -0.32537,0 -0.59544,-0.0489 -0.79577,-0.14049 -0.16678,-0.0748 -0.68621,-0.19362 -1.15502,-0.26492 -0.71066,-0.10763 -0.89422,-0.16145 -1.10282,-0.32781 -0.28198,-0.22507 -0.29946,-0.22927 -1.84212,-0.43616 -0.61679,-0.0825 -1.43067,-0.21318 -1.80862,-0.29148 -0.37797,-0.0783 -0.84997,-0.16495 -1.04894,-0.19081 -0.5364,-0.0699 -0.61493,-0.10135 -0.61446,-0.26071 2.4e-4,-0.0797 -0.0885,-0.23556 -0.198,-0.346 l -0.14208,-0.1398 c -0.13207,-0.0349 -0.37,-0.056 -0.8344,-0.0769 l -1.68271,-0.042 c -1.35299,-0.0349 -3.09577,-0.0902 -3.87192,-0.12861 -0.77616,-0.0349 -2.92563,-0.10764 -4.77659,-0.15587 -1.66916,-0.042 -3.14738,-0.10135 -4.53449,-0.17614 -0.14722,-0.007 -0.23369,-0.014 -0.28495,-0.014 -1.91952,-0.10835 -3.67147,-0.25023 -5.49274,-0.44734 -0.55714,-0.0629 -1.63171,-0.15238 -2.38791,-0.2034 -0.4338,-0.0279 -0.72244,-0.0489 -0.93624,-0.056 z m -3.02922,2.49463 c 1.46581,0 1.67813,0.056 1.67749,0.27121 -5e-5,0.014 -0.012,0.0279 -0.0432,0.0419 -0.003,0 -0.006,0 -0.0136,0 -0.14857,0.0489 -0.66614,0.056 -2.09916,0.056 -0.015,0 -0.0278,0 -0.043,0 -0.0194,0 -0.0278,0 -0.0476,0 -0.38981,0 -0.72064,0 -0.98843,-0.007 -1.05222,-0.007 -1.2702,-0.0349 -1.30022,-0.11393 -0.0237,-0.0629 -0.0144,-0.14119 0.0208,-0.17614 0.0352,-0.0349 0.99246,-0.0629 2.12861,-0.0706 0.26364,0 0.49858,0 0.70798,0 z m 12.44655,0.15378 c 0.35553,0 0.83445,0 1.35254,0.014 0.8423,0.0209 1.29958,0.0349 1.57181,0.056 0.17295,0.007 0.30253,0.021 0.31658,0.0279 0.0148,0.014 0.0316,0.0279 0.0474,0.049 0.0386,0.021 0.0633,0.0489 0.0925,0.079 0.11923,0.13351 0.27078,0.17614 0.87236,0.24395 0.40046,0.049 0.85151,0.0629 1.0019,0.0419 0.25686,-0.0419 0.27193,-0.0349 0.2484,0.12931 l -0.0254,0.17335 -3.04222,0.007 c -2.14494,0.007 -3.0673,-0.014 -3.12342,-0.0699 -0.0951,-0.0951 -0.0339,-0.65773 0.0791,-0.73042 0.0213,-0.014 0.25298,-0.0209 0.60852,-0.0209 z"
         style="fill:#ff6600;fill-opacity:1;stroke:#ff6600;stroke-width:0.98688179;stroke-opacity:1" />
    </g>
    <g
       id="g4793"
       transform="matrix(0.99809342,0,0,1,140.43992,229.89329)">
      <path
         sodipodi:nodetypes="cccccc"
         inkscape:connector-curvature="0"
         id="path4027-9-0-8-2-0-0"
         d="M 82.650579,651.25531 26.150771,651.37344 8.8035572,704.98599 54.582216,738.00263 100.22219,704.79517 z"
         inkscape:transform-center-y="2.7116694"
         inkscape:transform-center-x="0.073638998"
         style="fill:#000000;fill-opacity:1;fill-rule:nonzero;stroke:#ff6600;stroke-width:8.90849686;stroke-linecap:butt;stroke-linejoin:miter;stroke-miterlimit:4;stroke-opacity:1;stroke-dasharray:none" />
      <g
         transform="matrix(0.61612484,0.0050506,-0.00506544,0.61432027,-16.699663,479.0314)"
         id="g3499">
        <path
           inkscape:connector-curvature="0"
           style="fill:#ff6600;fill-opacity:1;stroke:none"
           d="m 118.15943,359.36488 -21.986403,16.43281 5.165473,-16.11978 -2.371785,0 -7.149562,22.3077 26.336697,-19.68885 26.789,19.60523 -7.37382,-22.22408 -2.38318,0 5.32511,16.05136 -22.35153,-16.36439 z m 0.0932,-59.96983 -9.84443,31.55918 -33.087154,0.0418 5.02864,3.61849 3.960576,0 -1.90807,-1.37213 27.617608,-0.0342 8.21383,-26.3405 8.56351,26.33268 27.35154,-0.072 -10.26633,7.54866 4.0518,0 13.34889,-9.81782 -32.76788,0.12141 -10.26253,-31.58557 z"
           id="path3555"
           sodipodi:nodetypes="cccccccccccccccccccccccccc" />
        <rect
           style="fill:#ff6600;fill-opacity:1;stroke:none"
           id="rect2461"
           width="2.9487565"
           height="3.1330535"
           x="82.261307"
           y="335.99554"
           ry="0.89997333"
           rx="0.89905149" />
        <rect
           style="fill:#ff6600;fill-opacity:1;stroke:none"
           id="rect3233"
           width="2.9487565"
           height="3.1330535"
           x="88.465981"
           y="335.99554"
           ry="0.89997333"
           rx="0.89905149" />
        <rect
           style="fill:#ff6600;fill-opacity:1;stroke:none"
           id="rect3235"
           width="2.9487565"
           height="3.1330535"
           x="91.762856"
           y="335.99554"
           ry="0.89997333"
           rx="0.89905149" />
        <rect
           style="fill:#ff6600;fill-opacity:1;stroke:none"
           id="rect3237"
           width="2.9487565"
           height="3.1330535"
           x="95.059731"
           y="335.99554"
           ry="0.89997333"
           rx="0.89905149" />
        <rect
           style="fill:#ff6600;fill-opacity:1;stroke:none"
           id="rect3239"
           width="2.9487565"
           height="3.1330535"
           x="98.356606"
           y="335.99554"
           ry="0.89997333"
           rx="0.89905149" />
        <rect
           style="fill:#ff6600;fill-opacity:1;stroke:none"
           id="rect3241"
           width="2.9487565"
           height="3.1330535"
           x="102.68759"
           y="335.99554"
           ry="0.89997333"
           rx="0.89905149" />
        <rect
           style="fill:#ff6600;fill-opacity:1;stroke:none"
           id="rect3243"
           width="2.9487565"
           height="3.1330535"
           x="105.98447"
           y="335.99554"
           ry="0.89997333"
           rx="0.89905149" />
        <rect
           style="fill:#ff6600;fill-opacity:1;stroke:none"
           id="rect3245"
           width="2.9487565"
           height="3.1330535"
           x="109.28133"
           y="335.99554"
           ry="0.89997333"
           rx="0.89905149" />
        <rect
           style="fill:#ff6600;fill-opacity:1;stroke:none"
           id="rect3247"
           width="2.9487565"
           height="3.1330535"
           x="112.57821"
           y="335.99554"
           ry="0.89997333"
           rx="0.89905149" />
        <rect
           style="fill:#ff6600;fill-opacity:1;stroke:none"
           id="rect3249"
           width="2.9487565"
           height="3.1330535"
           x="117.06277"
           y="335.99554"
           ry="0.89997333"
           rx="0.89905149" />
        <rect
           style="fill:#ff6600;fill-opacity:1;stroke:none"
           id="rect3251"
           width="2.9487565"
           height="3.1330535"
           x="120.35965"
           y="335.99554"
           ry="0.89997333"
           rx="0.89905149" />
        <rect
           style="fill:#ff6600;fill-opacity:1;stroke:none"
           id="rect3253"
           width="2.9487565"
           height="3.1330535"
           x="123.65652"
           y="335.99554"
           ry="0.89997333"
           rx="0.89905149" />
        <rect
           style="fill:#ff6600;fill-opacity:1;stroke:none"
           id="rect3255"
           width="2.9487565"
           height="3.1330535"
           x="126.95339"
           y="335.99554"
           ry="0.89997333"
           rx="0.89905149" />
        <rect
           style="fill:#ff6600;fill-opacity:1;stroke:none"
           id="rect3257"
           width="2.9487565"
           height="3.1330535"
           x="131.37653"
           y="335.99554"
           ry="0.89997333"
           rx="0.89905149" />
        <rect
           style="fill:#ff6600;fill-opacity:1;stroke:none"
           id="rect3259"
           width="2.9487565"
           height="3.1330535"
           x="134.6734"
           y="335.99554"
           ry="0.89997333"
           rx="0.89905149" />
        <rect
           style="fill:#ff6600;fill-opacity:1;stroke:none"
           id="rect3261"
           width="2.9487565"
           height="3.1330535"
           x="137.97028"
           y="335.99554"
           ry="0.89997333"
           rx="0.89905149" />
        <rect
           style="fill:#ff6600;fill-opacity:1;stroke:none"
           id="rect3265"
           width="2.7968884"
           height="2.8285499"
           x="131.48915"
           y="342.33578"
           ry="0.84703374"
           rx="0.84616613" />
        <rect
           style="fill:#ff6600;fill-opacity:1;stroke:none"
           id="rect3267"
           width="2.7968922"
           height="2.8285499"
           x="134.61623"
           y="342.33578"
           ry="0.84703374"
           rx="0.84616613" />
        <rect
           style="fill:#ff6600;fill-opacity:1;stroke:none"
           id="rect3269"
           width="2.7968884"
           height="2.8285499"
           x="137.71259"
           y="342.33578"
           ry="0.84703374"
           rx="0.84616613" />
        <rect
           style="fill:#ff6600;fill-opacity:1;stroke:none"
           id="rect3271"
           width="2.7751687"
           height="2.8018327"
           x="131.59402"
           y="345.55029"
           ry="0.84703374"
           rx="0.84616613" />
        <rect
           style="fill:#ff6600;fill-opacity:1;stroke:none"
           id="rect3273"
           width="2.7751687"
           height="2.8018327"
           x="134.7211"
           y="345.55029"
           ry="0.84703374"
           rx="0.84616613" />
        <rect
           style="fill:#ff6600;fill-opacity:1;stroke:none"
           id="rect3275"
           width="2.7968884"
           height="2.8018327"
           x="137.84818"
           y="345.55029"
           ry="0.84703374"
           rx="0.84616613" />
        <rect
           style="fill:#ff6600;fill-opacity:1;stroke:none"
           id="rect3277"
           width="2.6415942"
           height="2.8066938"
           x="85.640091"
           y="342.36868"
           ry="0.80622613"
           rx="0.80540025" />
        <rect
           style="fill:#ff6600;fill-opacity:1;stroke:none"
           id="rect3279"
           width="2.6415942"
           height="2.8066938"
           x="88.819221"
           y="342.36868"
           ry="0.80622613"
           rx="0.80540025" />
        <rect
           style="fill:#ff6600;fill-opacity:1;stroke:none"
           id="rect3281"
           width="2.6415942"
           height="2.8066938"
           x="91.998344"
           y="342.36868"
           ry="0.80622613"
           rx="0.80540025" />
        <rect
           style="fill:#ff6600;fill-opacity:1;stroke:none"
           id="rect3283"
           width="2.6415942"
           height="2.8066938"
           x="95.177475"
           y="342.36868"
           ry="0.80622613"
           rx="0.80540025" />
        <rect
           style="fill:#ff6600;fill-opacity:1;stroke:none"
           id="rect3285"
           width="2.6415942"
           height="2.8066938"
           x="98.356606"
           y="342.36868"
           ry="0.80622613"
           rx="0.80540025" />
        <rect
           style="fill:#ff6600;fill-opacity:1;stroke:none"
           id="rect3287"
           width="2.6415942"
           height="2.8066938"
           x="101.53573"
           y="342.36868"
           ry="0.80622613"
           rx="0.80540025" />
        <rect
           style="fill:#ff6600;fill-opacity:1;stroke:none"
           id="rect3289"
           width="2.6415942"
           height="2.8066938"
           x="104.71486"
           y="342.36868"
           ry="0.80622613"
           rx="0.80540025" />
        <rect
           style="fill:#ff6600;fill-opacity:1;stroke:none"
           id="rect3291"
           width="2.6415942"
           height="2.8066938"
           x="107.89398"
           y="342.36868"
           ry="0.80622613"
           rx="0.80540025" />
        <rect
           style="fill:#ff6600;fill-opacity:1;stroke:none"
           id="rect3293"
           width="2.6415942"
           height="2.8066938"
           x="111.07311"
           y="342.36868"
           ry="0.80622613"
           rx="0.80540025" />
        <rect
           style="fill:#ff6600;fill-opacity:1;stroke:none"
           id="rect3295"
           width="2.6415942"
           height="2.8066938"
           x="114.25224"
           y="342.36868"
           ry="0.80622613"
           rx="0.80540025" />
        <rect
           style="fill:#ff6600;fill-opacity:1;stroke:none"
           id="rect3297"
           width="2.6415942"
           height="2.8066938"
           x="117.43137"
           y="342.36868"
           ry="0.80622613"
           rx="0.80540025" />
        <rect
           style="fill:#ff6600;fill-opacity:1;stroke:none"
           id="rect3299"
           width="2.6415942"
           height="2.8066938"
           x="120.6105"
           y="342.36868"
           ry="0.80622613"
           rx="0.80540025" />
        <rect
           style="fill:#ff6600;fill-opacity:1;stroke:none"
           id="rect3301"
           width="2.6415942"
           height="2.8066938"
           x="87.168221"
           y="345.5614"
           ry="0.80622613"
           rx="0.80540025" />
        <rect
           style="fill:#ff6600;fill-opacity:1;stroke:none"
           id="rect3303"
           width="2.6415942"
           height="2.8066938"
           x="90.347351"
           y="345.55212"
           ry="0.80622613"
           rx="0.80540025" />
        <rect
           style="fill:#ff6600;fill-opacity:1;stroke:none"
           id="rect3305"
           width="2.6415942"
           height="2.8066938"
           x="93.526474"
           y="345.55212"
           ry="0.80622613"
           rx="0.80540025" />
        <rect
           style="fill:#ff6600;fill-opacity:1;stroke:none"
           id="rect3307"
           width="2.6415942"
           height="2.8066938"
           x="96.705605"
           y="345.55212"
           ry="0.80622613"
           rx="0.80540025" />
        <rect
           style="fill:#ff6600;fill-opacity:1;stroke:none"
           id="rect3309"
           width="2.6415942"
           height="2.8066938"
           x="99.884735"
           y="345.55212"
           ry="0.80622613"
           rx="0.80540025" />
        <rect
           style="fill:#ff6600;fill-opacity:1;stroke:none"
           id="rect3311"
           width="2.6415942"
           height="2.8066938"
           x="103.06386"
           y="345.55212"
           ry="0.80622613"
           rx="0.80540025" />
        <rect
           style="fill:#ff6600;fill-opacity:1;stroke:none"
           id="rect3313"
           width="2.6415942"
           height="2.8066938"
           x="106.24299"
           y="345.55212"
           ry="0.80622613"
           rx="0.80540025" />
        <rect
           style="fill:#ff6600;fill-opacity:1;stroke:none"
           id="rect3315"
           width="2.6415942"
           height="2.8066938"
           x="109.42212"
           y="345.55212"
           ry="0.80622613"
           rx="0.80540025" />
        <rect
           style="fill:#ff6600;fill-opacity:1;stroke:none"
           id="rect3317"
           width="2.6415942"
           height="2.8066938"
           x="112.60124"
           y="345.55212"
           ry="0.80622613"
           rx="0.80540025" />
        <rect
           style="fill:#ff6600;fill-opacity:1;stroke:none"
           id="rect3319"
           width="2.6415942"
           height="2.8066938"
           x="115.78037"
           y="345.55212"
           ry="0.80622613"
           rx="0.80540025" />
        <rect
           style="fill:#ff6600;fill-opacity:1;stroke:none"
           id="rect3321"
           width="2.6415942"
           height="2.8066938"
           x="118.9595"
           y="345.55212"
           ry="0.80622613"
           rx="0.80540025" />
        <rect
           style="fill:#ff6600;fill-opacity:1;stroke:none"
           id="rect3323"
           width="2.6415942"
           height="2.8066938"
           x="122.13863"
           y="345.55212"
           ry="0.80622613"
           rx="0.80540025" />
        <rect
           style="fill:#ff6600;fill-opacity:1;stroke:none"
           id="rect3325"
           width="2.6415942"
           height="2.8066938"
           x="87.905411"
           y="348.75415"
           ry="0.80622613"
           rx="0.80540025" />
        <rect
           style="fill:#ff6600;fill-opacity:1;stroke:none"
           id="rect3327"
           width="2.6415942"
           height="2.8066938"
           x="91.084541"
           y="348.74661"
           ry="0.80622613"
           rx="0.80540025" />
        <rect
           style="fill:#ff6600;fill-opacity:1;stroke:none"
           id="rect3329"
           width="2.6415942"
           height="2.8066938"
           x="94.263664"
           y="348.74661"
           ry="0.80622613"
           rx="0.80540025" />
        <rect
           style="fill:#ff6600;fill-opacity:1;stroke:none"
           id="rect3331"
           width="2.6415942"
           height="2.8066938"
           x="97.442795"
           y="348.74661"
           ry="0.80622613"
           rx="0.80540025" />
        <rect
           style="fill:#ff6600;fill-opacity:1;stroke:none"
           id="rect3333"
           width="2.6415942"
           height="2.8066938"
           x="100.62192"
           y="348.74661"
           ry="0.80622613"
           rx="0.80540025" />
        <rect
           style="fill:#ff6600;fill-opacity:1;stroke:none"
           id="rect3335"
           width="2.6415942"
           height="2.8066938"
           x="103.80105"
           y="348.74661"
           ry="0.80622613"
           rx="0.80540025" />
        <rect
           style="fill:#ff6600;fill-opacity:1;stroke:none"
           id="rect3337"
           width="2.6415942"
           height="2.8066938"
           x="106.98018"
           y="348.74661"
           ry="0.80622613"
           rx="0.80540025" />
        <rect
           style="fill:#ff6600;fill-opacity:1;stroke:none"
           id="rect3339"
           width="2.6415942"
           height="2.8066938"
           x="110.15931"
           y="348.74661"
           ry="0.80622613"
           rx="0.80540025" />
        <rect
           style="fill:#ff6600;fill-opacity:1;stroke:none"
           id="rect3341"
           width="2.6415942"
           height="2.8066938"
           x="113.33843"
           y="348.74661"
           ry="0.80622613"
           rx="0.80540025" />
        <rect
           style="fill:#ff6600;fill-opacity:1;stroke:none"
           id="rect3343"
           width="2.6415942"
           height="2.8066938"
           x="116.51756"
           y="348.74661"
           ry="0.80622613"
           rx="0.80540025" />
        <rect
           style="fill:#ff6600;fill-opacity:1;stroke:none"
           id="rect3345"
           width="2.6415942"
           height="2.8066938"
           x="119.69669"
           y="348.74661"
           ry="0.80622613"
           rx="0.80540025" />
        <rect
           style="fill:#ff6600;fill-opacity:1;stroke:none"
           id="rect3349"
           width="2.6415942"
           height="2.8066938"
           x="89.564087"
           y="351.94687"
           ry="0.80622613"
           rx="0.80540025" />
        <rect
           style="fill:#ff6600;fill-opacity:1;stroke:none"
           id="rect3351"
           width="2.6415942"
           height="2.8066938"
           x="92.74321"
           y="351.94687"
           ry="0.80622613"
           rx="0.80540025" />
        <rect
           style="fill:#ff6600;fill-opacity:1;stroke:none"
           id="rect3353"
           width="2.6415942"
           height="2.8066938"
           x="95.92234"
           y="351.94687"
           ry="0.80622613"
           rx="0.80540025" />
        <rect
           style="fill:#ff6600;fill-opacity:1;stroke:none"
           id="rect3355"
           width="2.6415942"
           height="2.8066938"
           x="99.101471"
           y="351.94687"
           ry="0.80622613"
           rx="0.80540025" />
        <rect
           style="fill:#ff6600;fill-opacity:1;stroke:none"
           id="rect3357"
           width="2.6415942"
           height="2.8066938"
           x="102.28059"
           y="351.94687"
           ry="0.80622613"
           rx="0.80540025" />
        <rect
           style="fill:#ff6600;fill-opacity:1;stroke:none"
           id="rect3359"
           width="2.6415942"
           height="2.8066938"
           x="105.45972"
           y="351.94687"
           ry="0.80622613"
           rx="0.80540025" />
        <rect
           style="fill:#ff6600;fill-opacity:1;stroke:none"
           id="rect3361"
           width="2.6415942"
           height="2.8066938"
           x="108.63885"
           y="351.94687"
           ry="0.80622613"
           rx="0.80540025" />
        <rect
           style="fill:#ff6600;fill-opacity:1;stroke:none"
           id="rect3363"
           width="2.6415942"
           height="2.8066938"
           x="111.81798"
           y="351.94687"
           ry="0.80622613"
           rx="0.80540025" />
        <rect
           style="fill:#ff6600;fill-opacity:1;stroke:none"
           id="rect3365"
           width="2.6415942"
           height="2.8066938"
           x="114.99711"
           y="351.94687"
           ry="0.80622613"
           rx="0.80540025" />
        <rect
           style="fill:#ff6600;fill-opacity:1;stroke:none"
           id="rect3367"
           width="2.6415942"
           height="2.8066938"
           x="118.17624"
           y="351.94687"
           ry="0.80622613"
           rx="0.80540025" />
        <rect
           style="fill:#ff6600;fill-opacity:1;stroke:none"
           id="rect3373"
           width="2.7968891"
           height="2.9487565"
           x="142.64938"
           y="342.33582"
           ry="0.84703374"
           rx="0.84616613" />
        <rect
           style="fill:#ff6600;fill-opacity:1;stroke:none"
           id="rect3375"
           width="2.7968891"
           height="2.9487565"
           x="145.74062"
           y="342.32043"
           ry="0.84703374"
           rx="0.84616613" />
        <rect
           style="fill:#ff6600;fill-opacity:1;stroke:none"
           id="rect3377"
           width="2.7968891"
           height="2.9487565"
           x="148.83186"
           y="342.32043"
           ry="0.84703374"
           rx="0.84616613" />
        <rect
           style="fill:#ff6600;fill-opacity:1;stroke:none"
           id="rect3379"
           width="2.7968891"
           height="2.9487565"
           x="142.64938"
           y="345.48944"
           ry="0.84703374"
           rx="0.84616613" />
        <rect
           style="fill:#ff6600;fill-opacity:1;stroke:none"
           id="rect3381"
           width="2.7968891"
           height="2.9487565"
           x="145.74574"
           y="345.47919"
           ry="0.84703374"
           rx="0.84616613" />
        <rect
           style="fill:#ff6600;fill-opacity:1;stroke:none"
           id="rect3383"
           width="2.7968891"
           height="2.9487565"
           x="148.8421"
           y="345.47919"
           ry="0.84703374"
           rx="0.84616613" />
        <rect
           style="fill:#ff6600;fill-opacity:1;stroke:none"
           id="rect3385"
           width="2.7968891"
           height="2.9487565"
           x="142.64938"
           y="348.64307"
           ry="0.84703374"
           rx="0.84616613" />
        <rect
           style="fill:#ff6600;fill-opacity:1;stroke:none"
           id="rect3387"
           width="2.7968891"
           height="2.9487565"
           x="145.74202"
           y="348.63797"
           ry="0.84703374"
           rx="0.84616613" />
        <rect
           style="fill:#ff6600;fill-opacity:1;stroke:none"
           id="rect3389"
           width="2.7968891"
           height="2.9487565"
           x="148.83464"
           y="348.63797"
           ry="0.84703374"
           rx="0.84616613" />
        <rect
           style="fill:#ff6600;fill-opacity:1;stroke:none"
           id="rect3391"
           width="2.7968891"
           height="2.9487565"
           x="142.64659"
           y="351.79672"
           ry="0.84703374"
           rx="0.84616613" />
        <rect
           style="fill:#ff6600;fill-opacity:1;stroke:none"
           id="rect3393"
           width="2.7968891"
           height="2.9487565"
           x="145.73923"
           y="351.79672"
           ry="0.84703374"
           rx="0.84616613" />
        <rect
           style="fill:#ff6600;fill-opacity:1;stroke:none"
           id="rect3395"
           width="2.7968891"
           height="2.9487565"
           x="148.83186"
           y="351.79672"
           ry="0.84703374"
           rx="0.84616613" />
        <rect
           style="fill:#ff6600;fill-opacity:1;stroke:none"
           id="rect3397"
           width="2.7392261"
           height="2.9104321"
           x="152.0376"
           y="342.33578"
           ry="0.82870638"
           rx="0.82785761" />
        <rect
           style="fill:#ff6600;fill-opacity:1;stroke:none"
           id="rect3401"
           width="2.7968891"
           height="2.9487565"
           x="134.70787"
           y="351.55579"
           ry="0.84703374"
           rx="0.84616613" />
        <rect
           style="fill:#ff6600;fill-opacity:1;stroke:none"
           id="rect3403"
           width="2.7968891"
           height="2.9487565"
           x="134.70787"
           y="354.97818"
           ry="0.84703374"
           rx="0.84616613" />
        <rect
           style="fill:#ff6600;fill-opacity:1;stroke:none"
           id="rect3405"
           width="2.7968891"
           height="2.9487565"
           x="137.83549"
           y="354.97818"
           ry="0.84703374"
           rx="0.84616613" />
        <rect
           style="fill:#ff6600;fill-opacity:1;stroke:none"
           id="rect3407"
           width="2.7968891"
           height="2.9487565"
           x="131.58023"
           y="354.97818"
           ry="0.84703374"
           rx="0.84616613" />
        <rect
           style="fill:#ff6600;fill-opacity:1;stroke:none"
           id="rect3409"
           width="2.7968893"
           height="2.8105326"
           x="82.337242"
           y="342.35382"
           ry="0.84703374"
           rx="0.84616613" />
        <rect
           style="fill:#ff6600;fill-opacity:1;stroke:none"
           id="rect3411"
           width="4.2646871"
           height="2.8018327"
           x="82.322739"
           y="345.55029"
           ry="0.84703374"
           rx="0.84616613" />
        <rect
           style="fill:#ff6600;fill-opacity:1;stroke:none"
           id="rect3413"
           width="5.0383143"
           height="2.8018346"
           x="82.322739"
           y="348.75394"
           ry="0.84703374"
           rx="0.84616613" />
        <rect
           style="fill:#ff6600;fill-opacity:1;stroke:none"
           id="rect3415"
           width="6.6372886"
           height="2.8010671"
           x="82.322739"
           y="351.94675"
           ry="0.84703374"
           rx="0.84616613" />
        <rect
           style="fill:#ff6600;fill-opacity:1;stroke:none"
           id="rect3417"
           width="4.301125"
           height="2.7951765"
           x="82.322739"
           y="355.13174"
           ry="0.84703374"
           rx="0.84616613" />
        <rect
           style="fill:#ff6600;fill-opacity:1;stroke:none"
           id="rect3419"
           width="4.2712674"
           height="2.7951756"
           x="90.507751"
           y="355.13174"
           ry="0.84703374"
           rx="0.84616613" />
        <rect
           style="fill:#ff6600;fill-opacity:1;stroke:none"
           id="rect3421"
           width="4.3184328"
           height="2.7951756"
           x="117.20014"
           y="355.13174"
           ry="0.84703374"
           rx="0.84616613" />
        <rect
           style="fill:#ff6600;fill-opacity:1;stroke:none"
           id="rect3423"
           width="4.1936173"
           height="2.7951756"
           x="125.12492"
           y="355.13174"
           ry="0.84703374"
           rx="0.84616613" />
        <rect
           style="fill:#ff6600;fill-opacity:1;stroke:none"
           id="rect3425"
           width="4.0360794"
           height="2.8085306"
           x="125.29868"
           y="345.55029"
           ry="0.84703374"
           rx="0.84616613" />
        <rect
           style="fill:#ff6600;fill-opacity:1;stroke:none"
           id="rect3427"
           width="6.5082798"
           height="2.7993665"
           x="122.82648"
           y="348.75394"
           ry="0.84703374"
           rx="0.84616613" />
        <rect
           style="fill:#ff6600;fill-opacity:1;stroke:none"
           id="rect3429"
           width="8.0006523"
           height="2.7801201"
           x="121.33411"
           y="351.97345"
           ry="0.84703374"
           rx="0.84616613" />
        <rect
           style="fill:#ff6600;fill-opacity:1;stroke:none"
           id="rect3431"
           width="5.561986"
           height="2.8208961"
           x="123.77277"
           y="342.33844"
           ry="0.84703374"
           rx="0.84616613" />
        <rect
           style="fill:#ff6600;fill-opacity:1;stroke:none"
           id="rect3433"
           width="5.8695822"
           height="2.7951756"
           x="142.64659"
           y="355.13174"
           ry="0.84703374"
           rx="0.84616613" />
        <rect
           style="fill:#ff6600;fill-opacity:1;stroke:none"
           id="rect3437"
           width="2.7047484"
           height="6.1125255"
           x="152.0683"
           y="345.45615"
           ry="0.84703374"
           rx="0.84616613" />
        <rect
           style="fill:#ff6600;fill-opacity:1;stroke:none"
           id="rect3439"
           width="21.410912"
           height="2.7951756"
           x="95.299484"
           y="355.13174"
           ry="0.84703374"
           rx="0.84616613" />
        <rect
           style="fill:#ff6600;fill-opacity:1;stroke:none"
           id="rect3441"
           width="2.6709156"
           height="6.1432409"
           x="152.1059"
           y="351.78369"
           ry="0.84703374"
           rx="0.84616613" />
        <rect
           style="fill:#ff6600;fill-opacity:1;stroke:none"
           id="rect3447"
           width="2.7885013"
           height="2.7951756"
           x="148.82564"
           y="355.13174"
           ry="0.84703374"
           rx="0.84616613" />
      </g>
    </g>
    <g
       id="g4899"
       transform="matrix(0.99809342,0,0,1,141.72857,229.93173)">
      <path
         sodipodi:nodetypes="cccccc"
         inkscape:connector-curvature="0"
         id="path4027-9-0-8-2-0"
         d="m 184.90833,651.21687 -56.49927,0.274 -17.19806,53.66008 45.8703,32.89012 45.54745,-33.33327 z"
         inkscape:transform-center-y="2.7116694"
         inkscape:transform-center-x="0.073645329"
         style="fill:#000000;fill-opacity:1;fill-rule:nonzero;stroke:#ff6600;stroke-width:8.90849686;stroke-linecap:butt;stroke-linejoin:miter;stroke-miterlimit:4;stroke-opacity:1;stroke-dasharray:none" />
      <g
         transform="matrix(0.61610842,0.00675382,-0.00677366,0.6143039,10.273856,479.14464)"
         id="g3603">
        <path
           inkscape:connector-curvature="0"
           style="fill:#ff6600;stroke:none"
           d="m 240.1294,316.78183 c 0.73107,0.12085 2.24945,2.40301 2.06554,6.59434 -0.50597,0.2691 -1.09302,0.11119 -1.47638,0.10519 -1.19833,-0.31558 -0.0798,-3.47767 -1.75949,-4.65329 -2.43231,-1.7023 -19.41683,-1.2874 -28.10851,-0.49738 -3.76405,0.34218 -3.30679,7.75937 -3.37988,11.68548 -0.0608,3.2674 0.0523,6.83874 1.34364,10.4642 1.11159,3.12102 5.21256,2.04848 8.93937,2.18521 6.70447,0 18.94228,0.22157 20.41889,-0.36771 1.06984,-0.42702 1.50568,-1.99706 1.73078,-3.00935 0.3943,-1.77314 -0.0198,-3.01312 1.39107,-2.97982 0.74283,0.0175 0.88898,0.68918 0.77566,1.97352 -0.11778,1.33506 -0.51691,3.11125 -1.07407,5.17797 -0.40254,1.49297 -3.17844,1.19186 -5.01594,1.19186 -9.28705,-0.24816 -18.67318,0.0498 -27.66236,-0.19862 -2.60516,-0.0719 -2.65764,-12.3803 -2.79694,-14.61458 -0.16366,-2.62589 0.26225,-13.16739 2.47995,-13.28506 1.64804,-0.0874 10.8568,-0.70471 16.30847,-0.70612 5.30175,-10e-4 10.94651,0.12849 15.8202,0.93416"
           id="path4300" />
        <path
           inkscape:connector-curvature="0"
           style="fill:#ff6600;stroke:none"
           d="m 231.80828,318.6784 c 0.64565,1.8375 -0.94358,4.71801 1.44026,5.71124 8.64129,1.48991 18.72295,-1.73819 26.07307,2.78108 1.98646,1.93682 3.47637,4.17169 4.41995,6.55552 l 0,-1.09255 c -1.09254,-3.02947 -3.32741,-5.61194 -5.46296,-8.24405 0.59599,-0.79461 1.29128,0.14897 1.88715,0.39725 2.18521,2.73142 4.41996,5.51263 5.26434,8.79038 0.14885,0.19863 0.44691,0.59599 0.69519,0.24828 l 0.3477,-0.34759 c -0.74495,-3.52603 -2.97982,-6.40655 -4.86697,-9.43603 0.84426,-0.54633 1.68853,0.39737 2.38383,0.94358 1.44025,2.38383 3.02948,4.76768 3.57569,7.54876 0.39725,0.29793 0.89392,-0.24828 1.09255,-0.59599 -0.29794,-2.18521 -1.04301,-4.12202 -1.93693,-5.95954 0.14896,-0.24827 0.14896,-0.59598 0.49667,-0.59598 2.13555,1.1422 2.0859,3.62547 2.83074,5.56228 0.69529,-0.0497 1.04289,-2.23486 1.93681,-0.94357 0.29793,0.79461 -1.19186,2.03624 0.34771,2.13555 -0.74496,3.57569 -4.66836,6.35688 -8.09508,7.1515 -1.78784,0.39724 -4.17168,0.94346 -5.51262,-0.44691 0.24828,-0.64564 1.1422,-0.74495 1.78785,-0.84426 3.97305,-0.14897 7.74748,-1.58922 10.13131,-4.76767 l -0.0993,-0.0993 c -3.77443,2.5328 -8.44266,4.96629 -13.11102,3.07913 -0.39724,-0.0993 -0.59598,-0.64564 -0.34759,-0.94358 0.0993,-0.29793 -0.19862,-0.4469 -0.34771,-0.49667 -7.89645,0.34759 -16.19062,-0.74413 -23.83867,0.49738 -0.83897,0.13626 -0.93358,0.91145 -1.09243,1.53933 -0.40172,1.58981 0.61305,3.8415 -0.33229,4.68859 0,0 -0.69848,0.20486 -1.2068,-0.0208 -0.11897,-0.65999 -0.49739,-4.37065 0.34688,-6.35712 1.06807,-2.51303 10.58469,-1.66535 13.33577,-1.72101 5.027,-0.10154 10.90051,-0.26522 15.61851,0.0825 -1.34094,-1.34094 -3.42672,-1.3906 -5.46296,-1.34094 -6.4562,-0.0993 -16.54456,-0.0658 -20.63611,-0.29017 -6.05177,-0.33206 -8.21815,5.75313 -12.04224,9.72618 l -1.78785,0 c 2.38384,-3.32729 4.95347,-7.12149 8.24405,-10.03188 0.53056,-0.46926 0.89957,-0.54304 1.78784,-0.7945 2.47397,-0.70047 26.47043,0.0993 26.47043,0.0993 1.09255,0.24827 2.28453,0.39724 3.32741,0.84414 -0.59598,-1.53956 -2.53279,-1.93681 -4.07236,-2.13531 -8.59175,-0.24828 -17.2827,-0.0497 -25.72548,-0.59599 -2.28452,-0.6953 -3.47638,-3.52605 -5.26434,-5.26435 l -3.82408,-4.86698 1.93681,0.0993 c 2.48314,2.88039 4.18603,6.4136 7.39977,8.69096 0.70836,0.50197 15.83833,0.35618 23.83762,0.34759 1.28964,-0.001 3.97364,0.84427 5.71183,1.78796 0.29793,-0.39724 -0.19862,-0.74495 -0.49668,-1.04289 -3.62546,-3.47639 -11.10337,-2.39373 -13.80573,-2.38443 -4.74024,0.0165 -10.38218,1.00277 -14.30358,-1.43967 -0.95793,-0.59669 -0.79449,-4.22133 -0.34747,-6.20791 l 1.29117,0"
           id="path4302" />
        <path
           inkscape:connector-curvature="0"
           style="fill:#ff6600;stroke:none"
           d="m 273.17758,333.92498 c -0.84427,3.57581 -3.47638,6.80379 -6.80391,8.59175 -2.08589,0.44702 -4.76766,1.8375 -6.4562,-0.24828 1.14232,-1.04289 3.2281,-0.34759 4.56905,-1.19197 3.47637,-0.99324 6.33735,-4.05648 8.09507,-7.1515 0.22475,-0.15544 0.37595,-0.33217 0.59599,0"
           id="path4304" />
        <path
           inkscape:connector-curvature="0"
           style="fill:#ff6600;stroke:none"
           d="m 274.22188,337.00682 c -0.59599,3.07913 -2.0859,6.30723 -5.26434,7.84679 -1.3906,0.64565 -3.57569,1.3906 -4.86698,0.24828 l 0,-0.49667 c 4.91664,0.19862 7.39978,-4.96629 9.38636,-8.44267 0.54634,-0.0497 0.59599,0.4469 0.74496,0.84427"
           id="path4306" />
        <path
           inkscape:connector-curvature="0"
           style="fill:#ff6600;stroke:none"
           d="m 277.44892,348.82361 c 2.33912,0.49703 4.61834,-1.83738 5.11502,1.19209 -1.98659,1.04289 -4.66835,0.74496 -6.75413,0.14897 -0.44702,0.89392 0.19862,1.88716 0,2.97982 -0.29794,2.93016 -1.3906,5.71124 -3.97306,7.49909 -0.74801,0.3883 -0.90333,0.6174 -1.34506,0.69529 0.13391,-0.67094 0.17968,-1.21821 0.29417,-1.63546 0.51139,-0.34359 2.76555,-1.7909 2.83874,-3.72819 1.1422,-4.07236 -0.0993,-8.09507 -2.83085,-11.07489 l 1.78784,-1.63888 c 1.04289,2.08578 2.22345,5.00029 4.86721,5.56204"
           id="path4308" />
        <path
           inkscape:connector-curvature="0"
           style="fill:#ff6600;stroke:none"
           d="m 269.35361,346.09242 c 2.88039,5.56228 0.19862,12.06813 -0.49668,17.77937 0.29794,2.13556 0.59599,4.32065 2.38384,5.81056 -0.19863,0.49667 0.0993,1.73819 -0.6953,1.44025 -2.5328,-1.34094 -3.37707,-4.02271 -3.32741,-6.80379 -0.0993,-4.91663 2.5328,-8.84003 1.88715,-13.80632 l -0.4469,-0.94346 c -2.03624,2.1851 -4.32064,4.91664 -4.17168,8.34324 l -1.34094,0.24828 c -1.48991,-4.76766 3.72478,-7.5005 4.42007,-11.77149 0,0 1.14221,-0.44549 1.78785,-0.29664"
           id="path4310" />
      </g>
    </g>
    <rect
       style="fill:#ff6600;fill-opacity:1;fill-rule:nonzero;stroke:#ff6600;stroke-width:9;stroke-linecap:round;stroke-linejoin:miter;stroke-miterlimit:4;stroke-opacity:1;stroke-dasharray:none"
       id="rect4678"
       width="514.97089"
       height="173.34506"
       x="144.87213"
       y="696.06879" />
    <rect
       style="fill:#ff6600;fill-opacity:1;stroke:#ff6600;stroke-width:7.11335325;stroke-miterlimit:4;stroke-opacity:1;stroke-dasharray:none"
       id="rect3871"
       width="208.27216"
       height="167.10487"
       x="331.28824"
       y="698.4303" />
    <path
       inkscape:connector-curvature="0"
       d="m 146.13809,784.7981 52.47665,-83.00292 c 0,0 48.10359,0 48.10359,0 0,0 -48.10359,83.00292 -48.10359,83.00292 0,0 48.10359,81.2555 48.10359,81.2555 l -52.47664,0 -48.1036,-81.2555 z m 61.22276,0 48.1036,-83.00292 c 0,0 52.47665,0 52.47665,0 0,0 -48.1036,83.00292 -48.1036,83.00292 l 48.1036,81.2555 -52.47665,0 -48.1036,-81.2555 z m 61.22276,0 48.1036,-83.00292 c 0,0 52.47665,0 52.47665,0 0,0 -47.22899,83.00292 -47.22899,83.00292 l 47.22899,81.2555 -52.47665,0 -48.1036,-81.2555 z m 170.54911,-83.00292 c 0,0 48.1036,0 48.1036,0 l -61.22276,164.25842 -48.1036,0 61.22276,-164.25842 z m 104.95331,83.00292 c 0,0 -48.10361,-83.00292 -48.10361,-83.00292 0,0 52.47665,0 52.47665,0 0,0 48.1036,83.00292 48.1036,83.00292 l -48.1036,81.2555 -52.47665,0 c 0,0 48.10361,-81.2555 48.10361,-81.2555 z m 13.11916,81.2555 c 0,0 48.10359,-81.2555 48.10359,-81.2555 0,0 -48.10359,-83.00292 -48.10359,-83.00292 l 52.47664,0 48.10361,83.00292 -48.10361,81.2555 c 0,0 -52.47664,0 -52.47664,0 z"
       id="path1103"
       sodipodi:nodetypes="cccccccccccccccccccccccccccccccccccccccc"
       style="fill:#000000;fill-opacity:1;stroke:#ff6600;stroke-width:11;stroke-miterlimit:4;stroke-opacity:1;stroke-dasharray:none" />
    <rect
       style="fill:#000000;fill-opacity:1;fill-rule:nonzero;stroke:none"
       id="rect4462-6"
       width="524"
       height="91.227921"
       x="140.33444"
       y="603.23096" />
    <text
       xml:space="preserve"
       style="font-size:34.96661758px;font-style:normal;font-variant:normal;font-weight:normal;font-stretch:normal;text-align:start;line-height:125%;letter-spacing:0px;word-spacing:0px;writing-mode:lr-tb;text-anchor:start;fill:#ff6600;fill-opacity:1;stroke:none;font-family:Monospace;-inkscape-font-specification:Monospace"
       x="502.67154"
       y="674.27911"
       id="text11100"
       sodipodi:linespacing="125%"
       transform="scale(0.99904626,1.0009547)"><tspan
         sodipodi:role="line"
         x="502.67154"
         y="674.27911"
         id="tspan11102"><tspan
           x="502.67154"
           y="674.27911"
           id="tspan11104">c3d2.de</tspan></tspan></text>
    <text
       xml:space="preserve"
       style="font-size:19.98092461px;font-style:normal;font-variant:normal;font-weight:normal;font-stretch:normal;text-align:start;line-height:125%;letter-spacing:0px;word-spacing:0px;writing-mode:lr-tb;text-anchor:start;fill:#ff6500;fill-opacity:1;stroke:none;font-family:Monospace;-inkscape-font-specification:Monospace"
       x="147.7896"
       y="674.27911"
       id="text11106"
       sodipodi:linespacing="125%"
       transform="scale(0.99904626,1.0009547)"><tspan
         sodipodi:role="line"
         x="147.7896"
         y="674.27911"
         id="tspan11108"><tspan
           x="147.7896"
           y="674.27911"
           id="tspan11110">chaos computer club dresden</tspan></tspan></text>
    <path
       inkscape:connector-curvature="0"
       d="m 158.52398,630.58158 5.48866,-8.68148 c 0,0 5.03128,0 5.03128,0 0,0 -5.03128,8.68148 -5.03128,8.68148 0,0 5.03128,8.49872 5.03128,8.49872 l -5.48867,0 -5.03127,-8.49872 z m 6.40344,0 5.03128,-8.68148 c 0,0 5.48867,0 5.48867,0 0,0 -5.03128,8.68148 -5.03128,8.68148 l 5.03128,8.49872 -5.48867,0 -5.03128,-8.49872 z m 6.40345,0 5.03128,-8.68148 c 0,0 5.48866,0 5.48866,0 0,0 -4.9398,8.68148 -4.9398,8.68148 l 4.9398,8.49872 -5.48866,0 -5.03128,-8.49872 z m 17.83817,-8.68148 c 0,0 5.03128,0 5.03128,0 l -6.40345,17.1802 -5.03128,0 6.40345,-17.1802 z m 10.97733,8.68148 c 0,0 -5.03128,-8.68148 -5.03128,-8.68148 0,0 5.48867,0 5.48867,0 0,0 5.03127,8.68148 5.03127,8.68148 l -5.03127,8.49872 -5.48867,0 c 0,0 5.03128,-8.49872 5.03128,-8.49872 z m 1.37217,8.49872 c 0,0 5.03127,-8.49872 5.03127,-8.49872 0,0 -5.03127,-8.68148 -5.03127,-8.68148 l 5.48867,0 5.03127,8.68148 -5.03127,8.49872 c 0,0 -5.48867,0 -5.48867,0 z"
       id="path1103-4"
       sodipodi:nodetypes="cccccccccccccccccccccccccccccccccccccccc"
       style="fill:#ff6600;fill-opacity:1;stroke:none" />
  </g>
</svg>
