<?xml version="1.0" encoding="UTF-8" standalone="no"?>
<!-- Creator: CorelDRAW -->

<svg
   xml:space="preserve"
   width="3.7cm"
   height="3.7cm"
   style="clip-rule:evenodd;fill-rule:evenodd;image-rendering:optimizeQuality;shape-rendering:geometricPrecision;text-rendering:geometricPrecision"
   viewBox="0 0 36.999999 36.999999"
   version="1.1"
   id="svg32"
   sodipodi:docname="Threads_Nein_Danke print.svg"
   inkscape:version="1.2.2 (b0a8486541, 2022-12-01)"
   inkscape:export-filename="Threads_Nein_Danke print.svg.png"
   inkscape:export-xdpi="96"
   inkscape:export-ydpi="96"
   xmlns:inkscape="http://www.inkscape.org/namespaces/inkscape"
   xmlns:sodipodi="http://sodipodi.sourceforge.net/DTD/sodipodi-0.dtd"
   xmlns:xlink="http://www.w3.org/1999/xlink"
   xmlns="http://www.w3.org/2000/svg"
   xmlns:svg="http://www.w3.org/2000/svg"
   xmlns:rdf="http://www.w3.org/1999/02/22-rdf-syntax-ns#"
   xmlns:cc="http://creativecommons.org/ns#"
   xmlns:dc="http://purl.org/dc/elements/1.1/"><metadata
   id="metadata36"><rdf:RDF><cc:Work
       rdf:about=""><dc:format>image/svg+xml</dc:format><dc:type
         rdf:resource="http://purl.org/dc/dcmitype/StillImage" /><dc:title /></cc:Work></rdf:RDF></metadata><sodipodi:namedview
   pagecolor="#ffffff"
   bordercolor="#666666"
   borderopacity="1"
   objecttolerance="10"
   gridtolerance="10"
   guidetolerance="10"
   inkscape:pageopacity="0"
   inkscape:pageshadow="2"
   inkscape:window-width="1920"
   inkscape:window-height="919"
   id="namedview34"
   showgrid="false"
   inkscape:zoom="1.8403283"
   inkscape:cx="-23.093705"
   inkscape:cy="186.92317"
   inkscape:window-x="0"
   inkscape:window-y="0"
   inkscape:window-maximized="1"
   inkscape:current-layer="g841"
   showguides="true"
   inkscape:guide-bbox="true"
   inkscape:snap-global="false"
   units="cm"
   inkscape:showpageshadow="2"
   inkscape:pagecheckerboard="0"
   inkscape:deskcolor="#d1d1d1"
   inkscape:document-units="cm" />
 <defs
   id="defs4">
  <style
   type="text/css"
   id="style2">
   <![CDATA[
    .fil1 {fill:#1F1A17}
    .fil2 {fill:#DE411A}
    .fil0 {fill:#FACF00}
    .fil3 {fill:#1F1A17;fill-rule:nonzero}
   ]]>
  </style>
 
    
    
    
    
    
    
    
    
    
    
   <path
   inkscape:connector-curvature="0"
   id="path833"
   d="M 39.326675,62.01092 A 65.908504,65.908504 0 0 1 129.78989,39.554947 65.908504,65.908504 0 0 1 152.24585,130.01816 65.908504,65.908504 0 0 1 61.78265,152.47412 65.908504,65.908504 0 0 1 39.326675,62.01092 Z"
   style="fill:#ff0000;fill-opacity:0;stroke:#ffffff;stroke-width:0;stroke-miterlimit:4;stroke-dasharray:none;stroke-opacity:1" /></defs>
 <g
   id="Ebene_x0020_1"
   transform="translate(0,-154.93502)"
   inkscape:label="Ebene 1">
  <metadata
   id="CorelCorpID_0Corel-Layer" />
  <g
   id="_81132720">
   
   
   
   
   
   
   
  <g
   id="g5843"
   transform="translate(0.10166049,-0.10166049)">

<rect
   style="fill:#ffffff;fill-opacity:1;stroke:#ffffff;stroke-width:0;stroke-miterlimit:4;stroke-dasharray:none;stroke-opacity:1"
   id="rect843"
   width="37"
   height="36.999996"
   x="0.11399445"
   y="155.03668" /><g
   style="clip-rule:evenodd;fill-rule:evenodd;image-rendering:optimizeQuality;shape-rendering:geometricPrecision;text-rendering:geometricPrecision"
   id="g841"
   transform="matrix(0.14588265,0,0,0.14588265,4.3983395,159.53669)"><path
   inkscape:connector-curvature="0"
   id="_78721264"
   class="fil0"
   d="M 0,95.9772 C 0,42.9775 42.9612,0.0043 95.9618,0 h 0.0158 c 52.9925,0.0043 95.9575,42.9774 95.9575,95.9773 1e-4,52.4434 -42.0664,95.0614 -94.2879,95.9577 H 94.2919 C 42.0626,191.0387 0,148.4207 0,95.9772 Z"
   style="fill:#ffffff;fill-opacity:1" /><path
   inkscape:connector-curvature="0"
   id="path4554"
   d="M 34.385683,72.973082 A 66.073952,66.073952 0 0 1 119.35273,34.086882 66.073952,66.073952 0 0 1 158.23892,119.05394 66.073952,66.073952 0 0 1 73.271867,157.94013 66.073952,66.073952 0 0 1 34.385683,72.973082 Z"
   style="fill:#ff0000;fill-opacity:0;stroke-width:0.28798187" /><path
   inkscape:connector-curvature="0"
   id="_83477624"
   class="fil3"
   d="m 28.9798,115.403 c 1.0217,-0.4763 1.8748,-0.5693 2.559,-0.2787 0.6844,0.2907 1.274,0.967 1.7691,2.0287 0.2428,0.5208 0.3622,1.0384 0.3582,1.5525 -0.0042,0.5141 -0.1713,1.0188 -0.5013,1.5142 l -9.89151,15.112 0.028,0.0602 12.8314,-5.9833 c 0.8013,-0.3738 1.4954,-0.4414 2.0821,-0.2029 0.5868,0.2386 1.053,0.7285 1.3987,1.4697 0.3457,0.7413 0.4213,1.4134 0.2269,2.0162 -0.1945,0.6028 -0.6925,1.0912 -1.4938,1.4648 l -16.9782,7.9171 c -0.981601,0.4577 -1.843,0.585 -2.584,0.3818 -0.7412,-0.2032 -1.3545,-0.8257 -1.8403,-1.8674 -0.1868,-0.4008 -0.3233,-0.7455 -0.4093,-1.0347 -0.0861,-0.2892 -0.1207,-0.5596 -0.1039,-0.8113 0.0167,-0.2517 0.0753,-0.4924 0.1754,-0.722 0.1002,-0.2297 0.2332,-0.4807 0.3989,-0.7531 l 9.5288,-14.8698 -0.028,-0.0601 -12.4707,5.8151 c -0.8013,0.3737 -1.4955,0.4413 -2.0822,0.2028 -0.5868,-0.2386 -1.053,-0.7285 -1.3986,-1.4696 -0.3457,-0.7414 -0.4213,-1.4134 -0.2268,-2.0162 0.1943,-0.6029 0.6924,-1.0912 1.4936,-1.4648 l 17.1585,-8.0012 z m 28.6983,38.4149 c 0.5118,-1.0044 1.1267,-1.6029 1.8449,-1.795 0.7182,-0.1924 1.5992,-0.0225 2.643,0.5093 0.5121,0.2609 0.9248,0.5952 1.2381,1.0029 0.3132,0.4078 0.4923,0.9084 0.5372,1.5018 l 1.5093,17.9983 0.0592,0.0301 6.4274,-12.6147 c 0.4015,-0.7877 0.9067,-1.2684 1.516,-1.4416 0.6093,-0.1734 1.2782,-0.0744 2.007,0.297 0.7287,0.3712 1.202,0.8543 1.42,1.449 0.2179,0.5948 0.1262,1.2861 -0.2752,2.074 l -8.5048,16.6915 c -0.4917,0.9651 -1.0921,1.5956 -1.8013,1.8917 -0.709,0.2963 -1.5756,0.1834 -2.5997,-0.3385 -0.394,-0.2007 -0.7138,-0.3885 -0.9596,-0.5633 -0.2459,-0.1749 -0.4396,-0.3667 -0.5813,-0.5754 -0.1418,-0.2086 -0.2439,-0.4344 -0.3064,-0.6769 -0.0624,-0.2427 -0.1121,-0.5224 -0.1493,-0.8389 l -1.6459,-17.5843 -0.0591,-0.03 -6.2469,12.2601 c -0.4013,0.7878 -0.9067,1.2684 -1.516,1.4417 -0.6092,0.1733 -1.2783,0.0742 -2.0069,-0.297 -0.7288,-0.3713 -1.2021,-0.8543 -1.42,-1.4491 -0.218,-0.5947 -0.1262,-1.2862 0.2752,-2.0739 z m -4.9303,-4.6374 c 0.4978,-0.6489 1.091,-1.0226 1.7795,-1.1211 0.6886,-0.0986 1.366,0.1079 2.0325,0.6192 0.6665,0.5114 1.0411,1.1122 1.1242,1.8029 0.083,0.6906 -0.1245,1.3603 -0.6223,2.0091 L 45.3144,167.8 c -0.4979,0.6489 -1.0911,1.0226 -1.7797,1.1211 -0.6886,0.0986 -1.366,-0.1078 -2.0323,-0.6192 -0.6665,-0.5113 -1.0411,-1.1123 -1.1242,-1.8029 -0.083,-0.6906 0.1244,-1.3603 0.6223,-2.0092 z M 38.408,135.5043 c 0.9134,-0.8023 1.73,-1.1371 2.4498,-1.0044 0.7196,0.1327 1.4004,0.5643 2.0423,1.2949 l 8.4252,9.5901 c 0.5251,0.5978 0.847,1.1903 0.965701,1.7775 0.1186,0.5872 -0.1458,1.1653 -0.7935,1.7343 -0.6477,0.569 -1.2549,0.7567 -1.822,0.5634 -0.567,-0.1933 -1.113,-0.5888 -1.6384,-1.1866 l -6.9368,-7.8962 -3.8859,3.4138 6.0835,6.9247 c 0.4669,0.5314 0.7606,1.0751 0.8813,1.6312 0.1207,0.556 -0.1345,1.1111 -0.7656,1.6656 -0.631,0.5543 -1.2145,0.7358 -1.7502,0.5446 -0.5359,-0.1913 -1.0372,-0.5527 -1.504,-1.0841 l -6.0836,-6.9248 -4.3343,3.8079 7.1121,8.0954 c 0.5252,0.5977 0.8472,1.1903 0.965801,1.7775 0.1187,0.5871 -0.1458,1.1652 -0.7934,1.7343 -0.6477,0.5689 -1.2551,0.7566 -1.822,0.5634 -0.5671,-0.1934 -1.1132,-0.5888 -1.6383,-1.1867 l -8.6002,-9.78931 c -0.6419,-0.7306 -0.982301,-1.4613 -1.0211,-2.1921 -0.0389,-0.7309 0.3983,-1.4976 1.3116,-2.3 l 13.152,-11.5544 z"
   style="fill:#000000;fill-opacity:1;fill-rule:nonzero" /><path
   inkscape:connector-curvature="0"
   id="_82549976"
   class="fil3"
   d="m 92.9802,181.566 h 4.5756 c 1.0831,0 1.9894,-0.2212 2.7188,-0.6632 0.7295,-0.4421 1.3209,-1.0223 1.774,-1.7407 0.4531,-0.7184 0.7736,-1.5252 0.9614,-2.4204 0.1879,-0.8952 0.2819,-1.807 0.2819,-2.7354 0,-2.3431 -0.4642,-4.1888 -1.3926,-5.5372 -0.9283,-1.3484 -2.387299,-2.0226 -4.376599,-2.0225 h -4.5424 z m -5.4376,-16.3131 c 0,-1.2156 0.2873,-2.0501 0.8622,-2.5032 0.5746,-0.4531 1.3483,-0.6798 2.3209,-0.6797 h 6.6312 c 1.481,0 2.9067,0.1823 4.2772,0.547 1.3705,0.3647 2.5807,1.0003 3.6306,1.9066 1.0499,0.9062 1.8899,2.1274 2.5199,3.6637 0.6299,1.5362 0.9449,3.4759 0.9449,5.819 0,1.901 -0.2597,3.5864 -0.7791,5.0563 -0.5194,1.4699 -1.2655,2.7188 -2.2381,3.7467 -0.9725,1.0279 -2.1718,1.807 -3.5974,2.3375 -1.4258,0.5305 -3.0449,0.7957 -4.8575,0.7958 h -6.5318 c -0.972601,0 -1.7462,-0.2266 -2.3208,-0.6798 -0.5749,-0.453 -0.8622,-1.2876 -0.8621,-2.5032 z m 28.1331,-0.6118 -0.0638,0.0183 -0.4504,10.0974 6.1194,-1.7546 z m -4.3252,-3.1749 c 0.0631,-0.6619 0.2683,-1.1691 0.6156,-1.5217 0.3474,-0.3526 0.8398,-0.6202 1.4772,-0.8029 l 1.243,-0.3565 c 0.5949,-0.1706 1.1703,-0.2092 1.726,-0.1155 0.5557,0.0935 1.0981,0.5015 1.627,1.2235 l 11.3464,15.752 c 0.1793,0.2245 0.3838,0.5166 0.6134,0.8761 0.2295,0.3596 0.387,0.6881 0.4723,0.9856 0.1828,0.6374 0.0991,1.2478 -0.251,1.8311 -0.3502,0.5833 -0.8652,0.9724 -1.5451,1.1673 -0.5737,0.1645 -1.0944,0.1932 -1.5621,0.0859 -0.4676,-0.1074 -0.8703,-0.3886 -1.2077,-0.8438 l -2.4354,-3.4408 -8.4142,2.4127 -0.2737,4.2178 c -0.0238,0.5586 -0.1949,1.0044 -0.5134,1.3371 -0.3185,0.3328 -0.7859,0.5875 -1.402,0.7642 -0.7225,0.2071 -1.3662,0.1676 -1.9312,-0.1188 -0.565,-0.2863 -0.9481,-0.7802 -1.1491,-1.4814 -0.0853,-0.2975 -0.1259,-0.6595 -0.1217,-1.0861 0.004,-0.4265 0.0227,-0.7826 0.0559,-1.0681 z m 11.4969,-1.0023 c -0.5974,-0.9559 -0.7935,-1.7914 -0.5884,-2.5059 0.2049,-0.7147 0.8043,-1.3823 1.7978,-2.0032 0.4874,-0.3045 0.9865,-0.4861 1.4973,-0.5446 0.5108,-0.0585 1.0321,0.0458 1.564,0.313 l 16.2049,7.9761 0.0563,-0.0352 -7.5025,-12.0066 c -0.4686,-0.7498 -0.6203,-1.4304 -0.4551,-2.0419 0.1653,-0.6115 0.5947,-1.1339 1.2883,-1.5674 0.6937,-0.4333 1.3514,-0.5903 1.9735,-0.4707 0.622,0.1194 1.1674,0.5542 1.636,1.304 l 9.92721,15.8868 c 0.5739,0.9185 0.8051,1.7579 0.6938,2.5183 -0.1113,0.7603 -0.6545,1.4449 -1.6292,2.054 -0.375,0.2344 -0.7006,0.4117 -0.9771,0.5324 -0.2766,0.1207 -0.5407,0.188 -0.7926,0.202 -0.2518,0.0141 -0.4979,-0.0147 -0.738,-0.0861 -0.2402,-0.0715 -0.5056,-0.1728 -0.796,-0.3041 l -15.9203,-7.6456 -0.0563,0.0351 7.2916,11.669 c 0.4686,0.7498 0.6202,1.4305 0.455,2.0421 -0.1652,0.6114 -0.5947,1.1339 -1.2882,1.5673 -0.6936,0.4334 -1.3514,0.5903 -1.9735,0.4707 -0.622,-0.1194 -1.1674,-0.5542 -1.6359,-1.304 l -10.0326,-16.0555 z m 19.1074,-12.9893 c -0.6172,-0.5365 -0.9541,-1.1515 -1.0103,-1.8447 -0.0563,-0.6934 0.1911,-1.3569 0.7422,-1.9909 0.551,-0.634 1.1737,-0.9713 1.8681,-1.0119 0.6944,-0.0408 1.3501,0.2071 1.9674,0.7437 l 5.9555,5.1771 -1.4944,-12.6338 c -0.0472,-0.4511 -0.0533,-0.8737 -0.0181,-1.2678 0.0351,-0.3943 0.2122,-0.7748 0.5312,-1.1419 0.4206,-0.4837 0.9545,-0.8031 1.6017,-0.9579 0.6472,-0.1551 1.2294,-0.008 1.7466,0.4418 0.317,0.2756 0.5257,0.5743 0.6266,0.8963 0.1009,0.3219 0.1634,0.6544 0.1873,0.9975 l 0.7747,8.0541 11.9109,1.6114 c 0.4432,0.0631 0.8707,0.1272 1.2826,0.1923 0.4119,0.0652 0.7513,0.2138 1.0183,0.4459 0.3837,0.3336 0.6462,0.6716 0.7878,1.0142 0.1414,0.3427 0.2002,0.6793 0.1763,1.0101 -0.0239,0.3306 -0.1113,0.6501 -0.262,0.9584 -0.1508,0.3082 -0.335,0.5874 -0.5525,0.8377 -0.3626,0.417 -0.727,0.6933 -1.0936,0.8286 -0.3666,0.1353 -0.8901,0.1562 -1.5703,0.0627 l -11.4182,-1.6223 0.2944,4.2099 4.0788,3.5457 c 0.6173,0.5366 0.9541,1.1515 1.0104,1.8448 0.0564,0.6933 -0.191,1.3568 -0.7421,1.9908 -0.5511,0.6339 -1.1738,0.9713 -1.8683,1.012 -0.6943,0.0407 -1.35,-0.2072 -1.9673,-0.7438 z m 13.4092,-15.232 c -1.1018,-0.5138 -1.7366,-1.1269 -1.9044,-1.8393 -0.1677,-0.7123 -0.0462,-1.5092 0.3648,-2.3907 l 5.3948,-11.5692 c 0.3364,-0.7212 0.7495,-1.2541 1.2394,-1.5988 0.4901,-0.3447 1.1256,-0.3348 1.907,0.0295 0.7813,0.3643 1.1974,0.8449 1.2483,1.4419 0.0509,0.5968 -0.0918,1.2558 -0.4281,1.9771 l -4.442,9.5257 4.6879,2.186 3.8954,-8.3539 c 0.2989,-0.6411 0.6787,-1.1285 1.1394,-1.4625 0.4605,-0.334 1.0714,-0.3235 1.8328,0.0314 0.7612,0.3551 1.162,0.8164 1.2022,1.3838 0.0402,0.5676 -0.0892,1.1718 -0.3882,1.813 l -3.8954,8.3537 5.2288,2.4382 4.554,-9.76621 c 0.3363,-0.721 0.7494,-1.254 1.2395,-1.5987 0.4899,-0.3447 1.1255,-0.3349 1.9069,0.0295 0.7812,0.3642 1.1973,0.8449 1.2483,1.4418 0.0508,0.5969 -0.0919,1.2559 -0.4281,1.9771 l -5.5069,11.8096 c -0.4111,0.8815 -0.9434,1.4868 -1.5969,1.8162 -0.6535,0.3293 -1.5314,0.2372 -2.6332,-0.2765 l -15.8663,-7.3987 z"
   style="fill:#000000;fill-opacity:1;fill-rule:nonzero" /><path
   inkscape:connector-curvature="0"
   id="path858"
   d="M 39.326675,62.01092 A 65.908504,65.908504 0 0 1 129.78989,39.554947 65.908504,65.908504 0 0 1 152.24585,130.01816 65.908504,65.908504 0 0 1 61.78265,152.47412 65.908504,65.908504 0 0 1 39.326675,62.01092 Z"
   style="fill:#ff0000;fill-opacity:0;stroke:#ffffff;stroke-width:0;stroke-miterlimit:4;stroke-dasharray:none;stroke-opacity:1" /><text
   id="text837"
   style="font-style:normal;font-variant:normal;font-weight:500;font-stretch:normal;font-size:33.4854px;line-height:1.25;font-family:'AG Book Rounded';-inkscape-font-specification:'AG Book Rounded, Medium';font-variant-ligatures:normal;font-variant-caps:normal;font-variant-numeric:normal;font-feature-settings:normal;text-align:start;letter-spacing:-1.56369px;word-spacing:0px;writing-mode:lr-tb;text-anchor:start;fill:#000000;fill-opacity:0.972574;stroke:none;stroke-width:0.837135"
   xml:space="preserve"><textPath
     id="textPath840"
     xlink:href="#path833"
     style="font-style:normal;font-variant:normal;font-weight:normal;font-stretch:normal;font-family:'AG Book Rounded';-inkscape-font-specification:'AG Book Rounded'">THREADS?</textPath></text>
<g
   id="g261"
   transform="matrix(0.07058733,0,0,0.07561895,58.776295,53.605255)"><path
     d="M 804.6,960 H 155.4 C 69.58,960 0,890.42 0,804.6 V 155.4 C 0,69.58 69.58,0 155.4,0 H 804.6 C 890.42,0 960,69.58 960,155.4 V 804.6 C 960,890.42 890.42,960 804.6,960 Z"
     id="path249" /><path
     fill="#ffffff"
     d="m 404.63,392.13 c -11.92,-7.93 -51.53,-35.49 -51.53,-35.49 33.4,-47.88 77.46,-66.52 138.36,-66.52 43.07,0 79.64,14.52 105.75,42 26.12,27.49 41.02,66.8 44.41,117.07 14.48,6.07 27.85,13.22 39.99,21.4 48.96,33 75.92,82.34 75.92,138.91 0,120.23 -98.34,224.67 -276.35,224.67 -152.84,0 -311.63,-89.11 -311.63,-354.45 0,-263.83 153.81,-353.92 311.2,-353.92 72.68,0 243.16,10.76 307.27,222.94 L 727.9,364.37 C 678.33,213.2 574.4,189.14 479.11,189.14 c -157.52,0 -246.62,96.13 -246.62,300.65 0,183.38 99.59,280.8 248.71,280.8 122.68,0 214.15,-63.9 214.15,-157.44 0,-63.66 -53.37,-94.14 -56.1,-94.14 -10.42,54.62 -38.36,146.5 -161.01,146.5 -71.46,0 -133.07,-49.47 -133.07,-114.29 0,-92.56 87.61,-126.06 156.8,-126.06 25.91,0 57.18,1.75 73.46,5.07 0,-28.21 -23.81,-76.49 -83.96,-76.49 -55.15,-0.01 -69.14,17.92 -86.84,38.39 z m 105.8,96.25 c -90.13,0 -101.79,38.51 -101.79,62.7 0,38.86 46.07,51.74 70.65,51.74 45.06,0 91.35,-12.52 98.63,-107.31 -22.85,-5.14 -39.88,-7.13 -67.49,-7.13 z"
     id="path251" /></g></g></g></g>
 </g>
<style
   id="style1793"
   type="text/css">
	.st0{fill:#4285F4;}
	.st1{fill:#34A853;}
	.st2{fill:#FBBC04;}
	.st3{fill:#EA4335;}
</style></svg>
