<svg xmlns="http://www.w3.org/2000/svg" xmlns:xlink="http://www.w3.org/1999/xlink" viewBox="0 0 502 435">
  <!--by coderobe based on artwork by .. i think Kierán Meinhardt ?-->
  <g transform="translate(-156 933)">
    <path id="a" fill="#FFFFFF" fill-opacity="1" fill-rule="evenodd" stroke="#000" stroke-dasharray="none" stroke-linecap="butt" stroke-linejoin="round" stroke-miterlimit="4" stroke-opacity="1" stroke-width="2" d="m310-710 122 211-56 1-33-57-33 57-28-1-14-24 47-81-34-58z" opacity="1"/>
    <use xlink:href="#a" width="100%" height="100%" fill="maroon" transform="rotate(60 407 -716)"/>
    <use xlink:href="#a" width="100%" height="100%" fill="maroon" transform="rotate(-60 407 -716)"/>
    <use xlink:href="#a" width="100%" height="100%" fill="#cc0001" transform="rotate(180 407 -716)"/>
    <path id="b" fill="#55CDFC" fill-opacity="1" fill-rule="evenodd" stroke="#000" stroke-linejoin="round" stroke-miterlimit="4" stroke-opacity="1" stroke-width="2" d="m310-710 122 211-56 1-33-57-33 57-28-1-14-24 47-81-34-58z" clip-rule="nonzero" color="#000" color-interpolation="sRGB" color-interpolation-filters="linearRGB" color-rendering="auto" display="inline" image-rendering="auto" opacity="1" overflow="visible" shape-rendering="auto" style="isolation:auto;mix-blend-mode:normal;solid-color:#000;solid-opacity:1" text-rendering="auto" visibility="visible"/>
    <use xlink:href="#b" width="100%" height="100%" transform="rotate(120 407 -716)"/>
    <use xlink:href="#b" width="100%" height="100%" transform="rotate(-120 407 -716)"/>
    <path fill="#F7A8B8" stroke="#000" stroke-width="7.1" d="m509-577-1-1-2-2-1-1-2-2-2-3v-1h-1l-1-1-2-1h-1v-1c-1 0-2-4-1-5v-1c-1 0-3-5-2-7l-1-1-1-1-4-2c-2 0-3 0-3-4v-1l-3-1-2 1-1 1-1 1-4 1-3 2h-1l-1 1-3 1-3 2-1 1h-1l-2 1-3 1-4 2-4 2-2 1h-1l-3 1-18 1c-2 1-19 0-19-1h-14l-2-1v-1l-1 1-1-1h-4c-1-2-1-2-4-1l-4-1h-1l-2-1-6-1c-6-1-11-2-11-4l-1-1h-1v-1h-2a128 128 0 0 0-6-5l-1-1h1l-1-1h-1c0-1 0 0 0 0l-1 1h-1l-1-1-1-1h-1l-1 1-1 1-3 5-1 3-1 5-2 4-1 1-2 8-1 3-1 3-1 2-7 1h-5l-1-2-1-7c0-8 0-8 2-9l1-3c-1-3 0-5 1-6l1-10v-9l-6-7h-1c-1 0-6-4-6-6l-1-1-1-1h-1l-5-4-4-5s0-2-2-2l-1-4-1-2c-1 0-3-3-3-6l-1-2-2 1-2-1-1-1v1c0 2 0 2-2 3l-6 3-6 1h-3l-1 1h-1l-1 1h-1l-1 1-5 1c-3 0-4-1-4-2v1l-1 1h-1l-2-1h-2v-2l-1-2v-6l2-1 4-2 2-1 3-2 4-2c2 0 3-1 3-2v-1l4-2 4-2 1-1 1-1h1v-1l2-1 3-3 2-2 1-1 1-6 1-1 1-1-2-6-1-2-1-6-1-4c-2-2-1-12 2-14h1v-2c1 0 1 0 0 0v-2l2-6v-2h-1l4-6 1-2v-1l2-8 2-4 1-1 1-2 2-2 2-3v-1l3-7 1-2 1-1 1-1c0-2 1-4 3-5l2-2 2-4 3-3v-1l4-6 3-4 3-1 2-1 6-4c2-1 2-3 3-5 0-2 0-2 2-2l1-1h1l4-4 3-3 2-1h2l1-1v-1l2 2c0 1 0 1 0 0s0-2 1-1h1l2-1 3-1 1 1 1-1c1-1 1-2 5-2l5-2 4-1 2-1h2l1-1 4-3 1-1 2-4 1-1c0-2 3-5 4-5l1-1 1-1 1-3 1-2 1-8c1-7 1-10 3-10v-3l1-5v-7a199 199 0 0 0 2-11v-2l2-7 1-2 1-3c1-2 3-2 4-1l1 3-1 1 1 1h1l1 2c1 1 4 13 3 16l1 1 1 4 1 4 3 5v2c1 0 2 2 2 6v3c1 0 3 5 3 8v1l1 3v4c2 0 3 2 2 5l1 2v1c0 1 6 2 10 1h4l5 1 2 1c0 1 1 2 5 2l2 2 1 2 3 1h2l2 2 2 1 2 1c1 2 2 2 3 2h4v1c1-1 1 0 2 1l3 1 5 1 2 3s0 1 0 0l1 1 1 1 2 1 2 2 1 3 1 1 1 1 1 1 1 1 2 2c0 2 2 2 3 2l2 1 4 4 4 3 1 2 1 2v1l3 5c0 1 0 1 0 0h2c0 1 0 1 0 0l1-1 1 2v2h5l4 1c1 1 11-1 13-2h3l1-1 4-1 2-1 4 1c0 1 0 1 0 0l1-1 1 1c0 1 0 1 0 0 0-2 0-2 2-3l4-1 4-1 2-1h12v10l-3 1c-1 2-4 3-6 3l-3 1-1 1-1 1-2 1h-2v1l-2 1-3 2-1 1-1 1-1 1-2 1-1 1-3 4-1 1-1 1-1 1-1 1-2 1-5 3-4 2-1 6-1 1 1 1 1 6 1 3v6l-1 3v7c2 2 1 5-1 6v2c1 0 2 6 1 7v2c1 2 1 2-1 5v10a6120 6120 0 0 0-4 13h-2v4l-1 4-1 3-1 1h-1l1 1v6l-1 2-2 3-2 2-2 2-2 2-2 2-2 4-1 2-2 2v5l1 5-1 5v1h1l1 1c2 2 1 3 0 3l-1 2 1 4 1 3 2 3 1 6 1 5 2 4v2l1 5v5l-5 1-5-1zm-95-43 1-1 1 1h1l1-1h1c0-1 2-2 3-1v3-2l2-1h7v-1c0-1 2-2 3-1l1 1 2-2 5-2c8-1 9-2 11-3l2-1h1l2-2 3-3 3-1c2-1 4-2 4-4l-2-5-2-3-1-4-1-6-1-4-4-5v-2l-1-2v-1l-3-6-1-2v-3l-2-6c-1 0-2-2-2-5l-1-3v-4l-1-6-1-3-1-1-3-3-4-3-1-1-7 2-8 2-6 1c0-1 0-1 0 0h-2v1l-2-1c0-1 0-1 0 0l-1 1-1-1-1 1c0 1 0 2-1 1h-3l1 1-1 1c0 1-1 2-4 2l-7 1-11 1-3 2h-1l-3 3-3 2-3 2-1 2-2 4-2 4-1 3-2 4-1 1v1l-1 1-1 2-1 2v1l-1 2-2 7-2 6-1 2 1 2-1 4-1 5c0 3 0 3 2 5l4 2 4 2 4 2 4 2 1 1h1l1 2v-1l1-1 1 1 2-1 4 2 4 2h3l1 1h1l2 1 1 1 1 1h7l7 1 6 1h2zm-93-38 1-6 1-1c-1-2 1-5 2-6 2-1 2-1 1-2l-1-2c0-4 1-5 3-5 1 0 1 0 0 0l-1-1h-2l-1 1-2 1h-1l-3 1h-3l-2 3c-2 2-3 2-2 4l1 2v5c-1 0-1 0 0 0l1 1h1l1 1 1 1 2 2 3 4v-3zm174-11v-4l1-5 3-6 1-3 2-6 1-2 1-5 1-3v-9l1-7 1-8v-6l1-5v-1l-1-1-2-5-1-1h-1l-1-1v1c0 2-1 2-2 1h-2c-1 0 0 0 0 0l1 1-8 4-2 1h-4v1l-1 1h-3l-5 3-9 4h1l1 1 1 1 2 5 1 2v7h1l1 1 1 2 2 6 1 2c2 3 3 11 2 15v1l1 1v2l2 3 1 3 1 3-1 2v1l1 1 1 1c1-1 4 1 5 2l1 2 1-2 1-1zm-187-36 5-5 8-3h2l2-1 3-2 4-3 2-1 8-2h1l3-1 1-3 2-11 1-3 1-3 5-11c-2 0-2-5 0-6l1-3 1-1v-3l1-2 1-1 1-2v-1l2-5s1 0 0 0l1-1 1-2 2-8 1-2v-3l2-1 1-1-1-2 1-5h-2l-1 1-7 5-3 1-1-1v1l-2 2-1 1-5 3-1 2-2 1-1 1-2 1-2 2-3 2-1 1-1 1h-2l-1 1 1 1-5 4v1l-2 2-1 1v1l-2 2-1 2-1 1-1 2-1 2-4 5c0-1 0 0 0 0v1c1 1-1 7-2 7l-1 4-2 3v1l-2 7v1l-1 1v1c1 1 0 6-1 7l-1 10c0 7 0 6 1 6h1zm71-26v-1l3-1 8-1 6-2a45 45 0 0 0 12-3l1-1 1 1 1-1v-2l5-1c3-2 5-2 7-2h3l2-3 1-1-1-3-1-4c0-1-1-4-3-5l-1-2-1-2-1-4-2-6-2-4-1-2-2-6v-1l-1-1-3-6-1-4 1-5h-1l-1-1-1-2c-2 0-3-3-3-5v-1h-1l-2 1v3l-2 4-1 2v3l-1 2-1 2-1 1v1c2-1 0 4-1 4l-1 3v6l-1 7-1 3-1 1v6l-1 1c0 1 0 1 0 0l-1-2v2l-2 3-2 3a491 491 0 0 0-2 10v3c1 1-1 5-2 5l-1 1-1 3-1 2v3h1l1-1zm77-27 4-1 3-1 2-1h1l2-1h3l1-1h1l1-1 2-1 8-3c1 0 4-3 2-3v-1l-2-1-2-3-2-2-1-1c0-1 0-2-2-2l-5-5-1-1-1-1-2-1-6-4-1-1-1-1-1-1-5-1h-1l-1-1-3-1-3-2-2-1-1-2-3-1-1 1 1 5v4c2 0 3 5 2 6v1l1 2 3 4 1 3 2 4 1 3 1 1 2 2 1 6-1 2 1 2 2 1z"/>
  </g>
</svg>