
    <svg id="wave" viewBox="0 0 1920 1080" xmlns="http://www.w3.org/2000/svg">
      <linearGradient id="gradient" gradientUnits="userSpaceOnUse" x1="6.1731" y1="-9.6922" x2="1898.9858" y2="1083.1237">
        <stop offset="0" stop-color="#4D99B2"></stop>
        <stop offset="0.3765" stop-color="#56A5BA"></stop>
        <stop offset="1" stop-color="#6DC4CE"></stop>
      </linearGradient>
      <rect fill="url(#gradient)" width="1920" height="1080"></rect>
      <rect x="360" y="340" fill="none" stroke="#F0F0F0" stroke-width="23.3876" width="1200" height="400"></rect>
      <g id="button">
        <path fill="#1A1A1A" d="M706.5,581.4c0-0.3-0.1-1.8-1.2-3.1c-1.2-1.3-2.8-1.4-3.1-1.5c-22.3,0.1-44.6,0.1-66.9,0.2  c-1.3-2-3.8-5.6-7.9-8.9c-15.8-12.9-42.5-12.8-58.3,0c-4.1,3.3-6.7,6.9-8,8.8c0,0,0,0,0,0c0,0,0,0,0,0c-23,0-46.1,0.1-69.1,0.1  c-0.4,0.1-1.6,0.3-2.6,1.3c-1.4,1.5-1.3,3.3-1.3,3.6c0,17.9,0,35.8,0,53.7c0,0.2-0.4,4.2,2.8,6.7c2.7,2,5.7,1.4,6.1,1.3  c67.5-0.4,135-0.8,202.5-1.1c0.7-0.1,3.2-0.6,5.1-2.8c1.7-2,1.9-4.2,2-5C706.5,617,706.5,599.2,706.5,581.4z"></path>
        <path fill="#979694" d="M705.8,531.6c-0.6-3.4-2.2-4.5-5.3-4.3c-1.7,0-4.6-0.1-7.6-1.8c0,0-1.1-0.6-2-1.4c-3-2.4-6-13.1-7.3-27.7  c-30.4,0.4-82.1,0.3-87.9,0.3c0,0-50.5,1.3-84,0.5c-0.2,2.8-0.5,4.9-0.8,6.5c-2.8,17.1-3,19-5.2,20.6c-1,0.8-3.6,2.2-6.8,2.9  c-4.1,0.8-5.3,1-5.3,1c-3.1,0.1-3.8,1.8-3.8,4.5c-0.2,12.5-0.9,25-0.9,37.5c0,0.4,0,1.9,0.2,3.8c0.2,1.6,0.4,3,0.6,3.9  c0.9-0.7,1.8-0.8,2.2-0.9c23,0,46.1-0.1,69.1-0.1c0,0,0,0,0,0c0,0,0,0,0,0c1.3-1.9,3.9-5.5,8-8.8c15.9-12.8,42.6-12.9,58.3,0  c4.1,3.3,6.6,6.9,7.9,8.9c22.3-0.1,44.6-0.1,66.9-0.2c0.3,0,1.9,0.1,3.1,1.5c0.1,0.2,0.3,0.3,0.4,0.5c0.2-0.9,0.4-1.9,0.5-2.9  c0.2-1.5,0.3-2.9,0.2-4.2c0,0,0.2-10.8-0.1-24.8C706.2,541.9,706.7,536.8,705.8,531.6z"></path>
        <path id="head" fill="#1A8097" d="M709,493.8c1.7-2,1.2-5,1-6c-5.8-34.4-34.8-57.6-34.8-57.6c-31.8-25.5-68.4-26.9-80.5-26.8  c-11.3,0.1-48.1,0.8-78.5,26.8c0,0-31,26.4-31.8,60c-0.1,2.5,1.1,3.9,1.1,3.9c1.3,1.5,3.3,1.8,4,1.9c24.2,3,106.2,0.8,106.2,0.8  c7.8,0,100.5,0.2,109.2-1C705.6,495.7,707.7,495.4,709,493.8z"></path>
      </g>
    <rect width="12" height="32.458065329802" x="755" y="523.770967335099" fill="#F0F0F0" class="bar"></rect><rect width="12" height="30.238365493757097" x="780" y="524.8808172531214" fill="#F0F0F0" class="bar"></rect><rect width="12" height="33.85546727203935" x="805" y="523.0722663639804" fill="#F0F0F0" class="bar"></rect><rect width="12" height="165.72077185017028" x="830" y="457.13961407491485" fill="#F0F0F0" class="bar"></rect><rect width="12" height="200" x="855" y="440" fill="#F0F0F0" class="bar"></rect><rect width="12" height="196.0903014251482" x="880" y="441.9548492874259" fill="#F0F0F0" class="bar"></rect><rect width="12" height="140.7188800605373" x="905" y="469.6405599697314" fill="#F0F0F0" class="bar"></rect><rect width="12" height="77.46752427796696" x="930" y="501.2662378610165" fill="#F0F0F0" class="bar"></rect><rect width="12" height="35.05107832009081" x="955" y="522.4744608399546" fill="#F0F0F0" class="bar"></rect><rect width="12" height="12.07214024467146" x="980" y="533.9639298776642" fill="#F0F0F0" class="bar"></rect><rect width="12" height="6.68936814226258" x="1005" y="536.6553159288687" fill="#F0F0F0" class="bar"></rect><rect width="12" height="28.553411527304828" x="1030" y="525.7232942363476" fill="#F0F0F0" class="bar"></rect><rect width="12" height="26.222726699457688" x="1055" y="526.8886366502711" fill="#F0F0F0" class="bar"></rect><rect width="12" height="173.71169125993188" x="1080" y="453.1441543700341" fill="#F0F0F0" class="bar"></rect><rect width="12" height="149.72379871358305" x="1105" y="465.1381006432085" fill="#F0F0F0" class="bar"></rect><rect width="12" height="92.04187161054358" x="1130" y="493.9790641947282" fill="#F0F0F0" class="bar"></rect><rect width="12" height="43.59187791650902" x="1155" y="518.2040610417455" fill="#F0F0F0" class="bar"></rect><rect width="12" height="34.264093832765795" x="1180" y="522.8679530836171" fill="#F0F0F0" class="bar"></rect><rect width="12" height="31.206961785849412" x="1205" y="524.3965191070753" fill="#F0F0F0" class="bar"></rect><rect width="12" height="35.57573464497415" x="1230" y="522.212132677513" fill="#F0F0F0" class="bar"></rect><rect width="12" height="176.8142262580401" x="1255" y="451.59288687097995" fill="#F0F0F0" class="bar"></rect><rect width="12" height="175.78004792533736" x="1280" y="452.1099760373313" fill="#F0F0F0" class="bar"></rect><rect width="12" height="174.74586959263462" x="1305" y="452.6270652036827" fill="#F0F0F0" class="bar"></rect><rect width="12" height="116.45856980703746" x="1330" y="481.77071509648124" fill="#F0F0F0" class="bar"></rect><rect width="12" height="65.7989658216673" x="1355" y="507.1005170891664" fill="#F0F0F0" class="bar"></rect><rect width="12" height="36.054988018665654" x="1380" y="521.9725059906672" fill="#F0F0F0" class="bar"></rect><rect width="12" height="34.7635262958759" x="1405" y="522.6182368520621" fill="#F0F0F0" class="bar"></rect><rect width="12" height="23.347206457308616" x="1430" y="528.3263967713457" fill="#F0F0F0" class="bar"></rect><rect width="12" height="15.457182494639929" x="1455" y="532.27140875268" fill="#F0F0F0" class="bar"></rect><rect width="12" height="31.479379493000376" x="1480" y="524.2603102534998" fill="#F0F0F0" class="bar"></rect></svg>
  