<?xml version="1.0" encoding="UTF-8" standalone="no"?>
<!-- Created with Inkscape (http://www.inkscape.org/) -->

<svg
   width="111mm"
   height="78mm"
   viewBox="0 0 110.99999 77.999991"
   version="1.1"
   id="svg5"
   inkscape:version="1.2.2 (b0a8486541, 2022-12-01)"
   sodipodi:docname="namensschild_prideflag.svg"
   xml:space="preserve"
   inkscape:export-filename="namesschild_prideflag.png"
   inkscape:export-xdpi="300"
   inkscape:export-ydpi="300"
   xmlns:inkscape="http://www.inkscape.org/namespaces/inkscape"
   xmlns:sodipodi="http://sodipodi.sourceforge.net/DTD/sodipodi-0.dtd"
   xmlns="http://www.w3.org/2000/svg"
   xmlns:svg="http://www.w3.org/2000/svg"><sodipodi:namedview
     id="namedview7"
     pagecolor="#393939"
     bordercolor="#000000"
     borderopacity="0.25"
     inkscape:showpageshadow="2"
     inkscape:pageopacity="0"
     inkscape:pagecheckerboard="0"
     inkscape:deskcolor="#d1d1d1"
     inkscape:document-units="mm"
     showgrid="false"
     inkscape:zoom="1.6819304"
     inkscape:cx="189.06847"
     inkscape:cy="129.91025"
     inkscape:window-width="1896"
     inkscape:window-height="948"
     inkscape:window-x="0"
     inkscape:window-y="0"
     inkscape:window-maximized="1"
     inkscape:current-layer="layer1" /><defs
     id="defs2"><clipPath
       clipPathUnits="userSpaceOnUse"
       id="clipPath9223"><rect
         style="opacity:0.9;fill:none;stroke:none;stroke-width:13.3425;stroke-linecap:round;stroke-linejoin:round;stroke-dasharray:none;stroke-opacity:1;paint-order:stroke fill markers"
         id="rect9225"
         width="5286.6816"
         height="3725.8513"
         x="20.824575"
         y="42.074089"
         ry="0" /></clipPath></defs><g
     inkscape:label="Layer 1"
     inkscape:groupmode="layer"
     id="layer1"
     style="fill:#ffffff"><g
       id="g3372"
       transform="matrix(0.02099616,0,0,0.02093481,-0.43724292,-0.88080778)"
       clip-path="url(#clipPath9223)"><path
         fill="#6d2380"
         d="M 0,0 H 6000 V 3810 H 0 Z"
         id="path3327" /><path
         fill="#2c58a4"
         d="M 0,0 H 6000 V 3175 H 0 Z"
         id="path3329" /><path
         fill="#78b82a"
         d="M 0,0 H 6000 V 2540 H 0 Z"
         id="path3331" /><path
         fill="#efe524"
         d="M 0,0 H 6000 V 1905 H 0 Z"
         id="path3333" /><path
         fill="#f28917"
         d="M 0,0 H 6000 V 1270 H 0 Z"
         id="path3335" /><path
         fill="#e22016"
         d="M 0,0 H 6000 V 635 H 0 Z"
         id="path3337" /><path
         d="M 0,0 H 1577 L 3341,1905 1577,3810 H 0 Z"
         id="path3339"
         style="fill:#000000" /><path
         fill="#945516"
         d="M 0,0 H 1209 L 2973,1905 1209,3810 H 0 Z"
         id="path3341" /><path
         fill="#7bcce5"
         d="M 0,0 H 844 L 2608,1905 844,3810 H 0 Z"
         id="path3343" /><path
         fill="#f4aec8"
         d="M 0,0 H 477 L 2241,1905 477,3810 H 0 Z"
         id="path3345" /><path
         fill="#ffffff"
         d="M 0,0 H 111 L 1874,1905 111,3810 H 0 Z"
         id="path3347" /><path
         fill="#fdd817"
         d="M 0,278 1507,1905 0,3532 Z"
         id="path3349" /><path
         id="circle3351"
         style="fill:none;stroke:#66338b;stroke-width:82.048"
         d="M 980.52853,1904.9998 A 348.91989,348.91989 0 0 1 631.60864,2253.9196 348.91989,348.91989 0 0 1 282.68875,1904.9998 348.91989,348.91989 0 0 1 631.60864,1556.0799 348.91989,348.91989 0 0 1 980.52853,1904.9998 Z" /></g><g
       id="g393"
       transform="matrix(1,0,0,1.1294293,0,-4.0757632)"><path
         id="rect111"
         style="stroke-width:0.157155"
         d="m 11.524895,11.577319 h 87.95021 c 1.667195,0 3.009375,1.342182 3.009375,3.009376 v 17.111188 c 0,1.667195 -1.34218,3.009377 -3.009375,3.009377 h -87.95021 c -1.6671947,0 -3.0093768,-1.342182 -3.0093768,-3.009377 V 14.586695 c 0,-1.667194 1.3421821,-3.009376 3.0093768,-3.009376 z" /><path
         id="rect111-3"
         style="stroke-width:0.157155"
         d="m 11.748842,41.571494 h 87.502316 c 1.791262,0 3.233322,1.342185 3.233322,3.009386 v 17.111229 c 0,1.667199 -1.44206,3.009385 -3.233322,3.009385 H 11.748842 c -1.7912615,0 -3.2333238,-1.342186 -3.2333238,-3.009385 V 44.58088 c 0,-1.667201 1.4420623,-3.009386 3.2333238,-3.009386 z" /></g></g></svg>
