<svg viewBox="0 0 457 517" xmlns="http://www.w3.org/2000/svg"><g fill="none" fill-rule="evenodd"><path d="m454.34 3h-451.65v510.56h451.65v-510.56" stroke="#b93732" stroke-width="4.938" fill="#fff"/><path d="m442.81 499.49h-428.57v-329.67h428.57v329.67" fill="#b93732"/><path d="m311.37 425.27c-2.377-.149-1.359-9.315 8.289-10.319 4.305-.448 8.877.472 13.1-.646 2.168-.574 1.139 2.231.135 8.904-.371 2.457-19.441 2.19-21.521 2.061m-91.73-184.26c-.105 2.387-6.545 1.519-8.03 1.495l-.25-.034c-6.774-1.784-1.106-16.855-8.642-22.13-11.08-7.758-90.73-5.919-132.04-2.164-8.02.729-11.843 9.01-13.579 20.362-1.718 11.23-1.261 24.567-1.433 33.799-.286 15.399.253 32.11 6.285 49.04 2.418 6.79 8.04 9.111 15.581 9.754 7.671.655 16.878-.446 25.649-.129 15.829 0 38.19.262 57.46.176 19.441-.087 35.33-.542 38.572-1.838 4.446-1.773 6.441-8.524 7.541-13.467.932-4.191.909-7.751 1.486-10.244 1.415-6.113 8.874-6.01 10.436-1.529 2.227 6.389-3.237 26.418-4.734 31.972-2.245 8.327-18.516 6.4-24.709 6.4-43.856-1.172-88.2.235-130.64-.938-13.635-.377-13.553-59.26-14.222-69.994-.598-9.577.445-63.19 12.698-63.845 7.788-.413 51.31-3.329 77.07-3.336 25.09-.007 51.811.612 74.878 4.426 4.422.73 11.491 12.534 10.628 32.22m125.79 102.32c-6.426 2.984-17.439 6.923-24.12 1.012-.096-.086-.352-.653-.352-.782v-2.346c0-.587.5-1.067 1.086-1.044 28.395 1.147 40.871-39.563 44.19-39.865 3.342-.304 3.738 2.39 4.59 4.66.016.042.057.521.047.565-2.84 14.682-9.996 30.32-25.438 37.8m47.566 16.635c7.611-1.405 15.33-5.203 17.271 6.63.053.328-.252.94-.547 1.095-9.461 4.967-21.98 3.699-31.77 1.033-1.131 3.437 1.188 8.687.424 12.962-1.43 14-6.68 27.458-19.2 36.13l-.113.068c-.662.343-8.58 5.772-7.857 2.151 2.771-13.889-.354-4.576 9.148-14.231 2.939-2.989 5.469-6.747 5.627-10.933l.037-.242c5.285-18.84-.445-37.471-13.13-51.31-.375-.41-.346-1.101.064-1.477 11.592-10.625 8.102-10.908 13.99.437 5.533 10.661 12.586 20.18 26.06 17.69m-39.947 30.12c-1.871 14.284-5.836 28.656-7.488 42.1 1.412 10.114 2.824 19.939 10.873 26.646.643.536.039 2.43-.008 3.124-.166 2.418-.213 6.995-4.311 5.458l-.123-.055c-12.463-6.599-16.506-19.757-16.27-33.07-.434-22.18 11.783-42.509 8.941-64.881l-1.379-2.911c-9.334 10.13-19.03 22.384-18.373 37.512.082 1.881-7.803 3.354-8.373 1.53-7.283-23.31 17.541-35.807 20.84-56.07.178-1.094 3.42-1.7 3.852-1.81 1.066-.27 5.813-1.327 6.549.096 6.945 13.411 7.156 27.912 5.27 42.33m-19.773-57.816l-.275.102c-10.209 2.188-23.11 8.854-31.52-1.537-.32-.397-.27-1.084.107-1.429 5.803-5.299 15.594-1.881 21.725-5.741l.27-.121c4.834-1.381 8.545-2.641 11.414-3.835 3.311-1.947 6.451-4.265 9.395-6.845 1.236-2.277 1.393-4.728 2.664-7.775-7.219 5.917-15.992 10.15-24.13 12.04-8.383 1.862-20.22 4.646-27.02-2.404-.184-.19-.318-.854-.223-1.101 1.393-3.621 5.967-4.138 9.26-4.645l.119-.011c16.963-.637 33.04-6.308 44.08-18.504-17.11 10.963-37.961 20.533-58.914 12.1-2.402-.661-3.734-3.856-2.268-5.919.061-.415-.549-.702-.848-.823-37.33 1.618-75.14-3.697-112.24 2.327-3.311.538-3.653 3.882-4.313 6.494-1.608 6.364 2.87 18.401-1.886 22.663-1.074.962-7.117 1.013-7.424-.691-.563-3.121-2.415-20.922 1.704-30.614 5.436-12.79 52.02-8.522 63.916-8.763 22.636-.458 48.901-1.18 70.62.172-5.922-4.03-14.164-4.232-22.639-4.03-30.5-.47-78.18-.312-97.51-1.372-21.299-1.169-32.484 15.396-43.486 30.2-1.082 1.456-11.568 15.733-13.323 15.733h-8.442c-1.048 0-1.459-.801-.85-1.652 7.674-10.712 32.07-45.606 42.978-49.997 1.302-.523 2.817-.919 4.961-1.526 6.04-1.709 37.529-1.573 67.18-1.045 29.799.53 58.14 1.475 58.14 1.475l.197.025c4.412 1 8.922 1.631 13.234 3.048-3.439-4.725-10.631-6.25-17.07-7.083-40.568-1.171-81.61-.235-121.47-2.815l-.237-.043c-11.147-3.393-17.271-17.327-25.33-25.16l-18.1-23.04c-.69-.878-.241-1.746.874-1.688l9.146.469c.115.006.663.273.738.361 11.681 13.55 19.828 30.29 34.757 40.872 3.189 2.261 101.71 1.46 111.96 1.449 6.04-.007 18.01 3.702 26.291 7.945-.35-.877-1.723-1.966-2.4-2.644-8.279-7.929-21.05-10.734-33.557-11.499-12.535-.767-24.529.522-30.896.545-21.23.073-49.12 4.864-68.1-6.957-5.328-3.318-4.805-31.25-1.09-31.25h6.098c2.972 0 1.403 13.95 1.367 16.04-.085 4.905.807 8.861 5.729 10.962 39.25 6.725 88.63-8.109 123.38 13.253l.182.142c8.174 7.97 14.594 17 19.1 26.646-5.172-14.169-16.178-26.803-25.564-38.37-.977-1.205 1.813-5.194 6.988-1.75.6.4 3.375 2.096 3.551 2.315 10.01 12.515 20.861 25.864 25 41.7.271.36.826 1.102 1.258 1.234.031-.021.123-.078.215-.206l.111-.132 1.24-1.238c-3.613-16.3-14.09-29.807-22.729-43.672-1.098-1.761 3.32-3.49 7.305-1.16.803.468 5.336 3.869 5.732 4.523 6.777 11.219 14.229 22.445 16.92 35.509 1.119.338 2.658-1.597 3.146-2.358-1.42-10.02-4.855-18.941-9-27.463-.262-.539.572-2.287.836-2.79.414-.784 1.125-1.525 2.449-1.525 4.543 0 9.04 9.257 10.135 12.43 1.516 4.387 2.328 9.175 3.834 13.482 2.52-2.196 4.939-10.1 9.404-3.651l.119.229c1.695 4.52-5.04 9.04.732 9.408.664.043 1.09.604.955 1.256-.719 3.449-2.039 6.737-3.818 9.823 1.027-.789 2.15-1.606 3.373-2.452 1.541-1.067 2.799-1.955 4.279.282.066.099.174.701.146.816-4.063 17.204-16.701 32.683-32.652 41.25" fill="#fff"/><path d="m94.85 53.806h22.12c-.679-6.02-2.329-11.352-4.948-16.01-2.62-4.657-5.943-8.563-9.969-11.716-4.03-3.153-8.587-5.555-13.681-7.204-5.094-1.649-10.503-2.474-16.228-2.474-7.956 0-15.11 1.407-21.467 4.221-6.355 2.814-11.716 6.695-16.08 11.643-4.366 4.948-7.714 10.746-10.04 17.392-2.329 6.646-3.493 13.85-3.493 21.613 0 7.568 1.164 14.627 3.493 21.18 2.329 6.549 5.676 12.249 10.04 17.1 4.366 4.851 9.727 8.66 16.08 11.425 6.355 2.765 13.511 4.148 21.467 4.148 6.404 0 12.274-.97 17.61-2.911 5.336-1.941 9.994-4.754 13.972-8.441 3.978-3.687 7.18-8.15 9.606-13.39 2.426-5.239 3.93-11.11 4.512-17.61h-22.12c-.873 6.986-3.275 12.613-7.204 16.882-3.93 4.269-9.387 6.404-16.373 6.404-5.142 0-9.509-.995-13.1-2.984-3.59-1.989-6.501-4.633-8.732-7.932-2.232-3.299-3.857-7.01-4.876-11.134-1.019-4.124-1.528-8.368-1.528-12.735 0-4.56.509-8.975 1.528-13.244 1.019-4.269 2.644-8.08 4.876-11.425 2.232-3.347 5.142-6.02 8.732-8 3.59-1.989 7.956-2.984 13.1-2.984 2.814 0 5.506.461 8.08 1.383 2.571.922 4.876 2.207 6.913 3.857 2.038 1.649 3.735 3.566 5.094 5.749 1.358 2.183 2.232 4.584 2.62 7.204m107.84 0h22.12c-.679-6.02-2.329-11.352-4.948-16.01-2.62-4.657-5.943-8.563-9.969-11.716-4.03-3.153-8.587-5.555-13.681-7.204-5.094-1.649-10.503-2.474-16.228-2.474-7.956 0-15.11 1.407-21.467 4.221-6.355 2.814-11.716 6.695-16.08 11.643-4.366 4.948-7.714 10.746-10.04 17.392-2.329 6.646-3.493 13.85-3.493 21.613 0 7.568 1.164 14.627 3.493 21.18 2.329 6.549 5.676 12.249 10.04 17.1 4.366 4.851 9.727 8.66 16.08 11.425 6.355 2.765 13.511 4.148 21.467 4.148 6.404 0 12.274-.97 17.61-2.911 5.336-1.941 9.994-4.754 13.972-8.441 3.978-3.687 7.18-8.15 9.606-13.39 2.426-5.239 3.93-11.11 4.512-17.61h-22.12c-.873 6.986-3.275 12.613-7.204 16.882-3.93 4.269-9.387 6.404-16.373 6.404-5.142 0-9.509-.995-13.1-2.984-3.59-1.989-6.501-4.633-8.732-7.932-2.232-3.299-3.857-7.01-4.876-11.134-1.019-4.124-1.528-8.368-1.528-12.735 0-4.56.509-8.975 1.528-13.244 1.019-4.269 2.644-8.08 4.876-11.425 2.232-3.347 5.142-6.02 8.732-8 3.59-1.989 7.956-2.984 13.1-2.984 2.814 0 5.506.461 8.08 1.383 2.571.922 4.876 2.207 6.913 3.857 2.038 1.649 3.735 3.566 5.094 5.749 1.358 2.183 2.232 4.584 2.62 7.204m107.84 0h22.12c-.679-6.02-2.329-11.352-4.948-16.01-2.62-4.657-5.943-8.563-9.969-11.716-4.03-3.153-8.587-5.555-13.681-7.204-5.094-1.649-10.503-2.474-16.228-2.474-7.956 0-15.11 1.407-21.467 4.221-6.355 2.814-11.716 6.695-16.08 11.643-4.366 4.948-7.714 10.746-10.04 17.392-2.329 6.646-3.493 13.85-3.493 21.613 0 7.568 1.164 14.627 3.493 21.18 2.329 6.549 5.676 12.249 10.04 17.1 4.366 4.851 9.727 8.66 16.08 11.425 6.355 2.765 13.511 4.148 21.467 4.148 6.404 0 12.274-.97 17.61-2.911 5.336-1.941 9.994-4.754 13.972-8.441 3.978-3.687 7.18-8.15 9.606-13.39 2.426-5.239 3.93-11.11 4.512-17.61h-22.12c-.873 6.986-3.275 12.613-7.204 16.882-3.93 4.269-9.387 6.404-16.373 6.404-5.142 0-9.509-.995-13.1-2.984-3.59-1.989-6.501-4.633-8.732-7.932-2.232-3.299-3.857-7.01-4.876-11.134-1.019-4.124-1.528-8.368-1.528-12.735 0-4.56.509-8.975 1.528-13.244 1.019-4.269 2.644-8.08 4.876-11.425 2.232-3.347 5.142-6.02 8.732-8 3.59-1.989 7.956-2.984 13.1-2.984 2.814 0 5.506.461 8.08 1.383 2.571.922 4.876 2.207 6.913 3.857 2.038 1.649 3.735 3.566 5.094 5.749 1.358 2.183 2.232 4.584 2.62 7.204m61.42 7.131v-24.305h21.394c2.038 0 4 .17 5.894.509 1.892.34 3.566.946 5.02 1.819 1.455.873 2.62 2.086 3.493 3.638.873 1.552 1.31 3.541 1.31 5.967 0 4.366-1.31 7.519-3.93 9.46-2.62 1.941-5.967 2.911-10.04 2.911h-23.14m-22.85-42.06v103.91h50.36c4.657 0 9.193-.582 13.608-1.746 4.415-1.164 8.344-2.959 11.789-5.385 3.444-2.426 6.185-5.555 8.223-9.387 2.038-3.833 3.056-8.368 3.056-13.608 0-6.501-1.577-12.06-4.73-16.664-3.153-4.609-7.932-7.835-14.336-9.678 4.657-2.232 8.174-5.094 10.552-8.587 2.377-3.493 3.566-7.859 3.566-13.1 0-4.851-.8-8.926-2.401-12.225-1.601-3.299-3.857-5.943-6.768-7.932-2.911-1.989-6.404-3.42-10.479-4.293-4.075-.873-8.587-1.31-13.535-1.31h-48.901m22.85 86.16v-28.526h24.887c4.948 0 8.926 1.14 11.934 3.42 3.01 2.28 4.512 6.088 4.512 11.425 0 2.717-.461 4.948-1.383 6.695-.922 1.746-2.159 3.129-3.711 4.148-1.552 1.019-3.347 1.746-5.385 2.183-2.038.437-4.172.655-6.404.655h-24.451" fill="#b93732"/></g></svg>