<?xml version="1.0" encoding="UTF-8" standalone="no"?>
<!-- Created with Inkscape (http://www.inkscape.org/) -->

<svg
   xmlns:dc="http://purl.org/dc/elements/1.1/"
   xmlns:cc="http://creativecommons.org/ns#"
   xmlns:rdf="http://www.w3.org/1999/02/22-rdf-syntax-ns#"
   xmlns:svg="http://www.w3.org/2000/svg"
   xmlns="http://www.w3.org/2000/svg"
   xmlns:sodipodi="http://sodipodi.sourceforge.net/DTD/sodipodi-0.dtd"
   xmlns:inkscape="http://www.inkscape.org/namespaces/inkscape"
   id="svg2"
   version="1.1"
   inkscape:version="0.91 r13725"
   xml:space="preserve"
   width="531.49628"
   height="531.49628"
   viewBox="0 0 531.49628 531.49628"
   sodipodi:docname="cccamp2015-rocket.svg"><metadata
     id="metadata8"><rdf:RDF><cc:Work
         rdf:about=""><dc:format>image/svg+xml</dc:format><dc:type
           rdf:resource="http://purl.org/dc/dcmitype/StillImage" /><dc:title></dc:title></cc:Work></rdf:RDF></metadata><defs
     id="defs6"><clipPath
       clipPathUnits="userSpaceOnUse"
       id="clipPath16"><path
         d="m 0,425.197 425.197,0 L 425.197,0 0,0 0,425.197 Z"
         id="path18"
         inkscape:connector-curvature="0" /></clipPath></defs><sodipodi:namedview
     pagecolor="#ffffff"
     bordercolor="#666666"
     borderopacity="1"
     objecttolerance="10"
     gridtolerance="10"
     guidetolerance="10"
     inkscape:pageopacity="0"
     inkscape:pageshadow="2"
     inkscape:window-width="2171"
     inkscape:window-height="1294"
     id="namedview4"
     showgrid="false"
     inkscape:zoom="0.9263033"
     inkscape:cx="8.2483512"
     inkscape:cy="265.74814"
     inkscape:window-x="55"
     inkscape:window-y="0"
     inkscape:window-maximized="0"
     inkscape:current-layer="g10" /><g
     id="g10"
     inkscape:groupmode="layer"
     inkscape:label="cccamp2015-rocket"
     transform="matrix(1.25,0,0,-1.25,0,531.49625)"><g
       id="g4158"><path
         d="m 162.1475,178.3862 c 0.023,-0.035 0.054,-0.075 0.078,-0.11 1.131,-1.596 2.325,-3.152 3.545,-4.689 -0.865,0.376 -1.749,0.633 -2.675,0.773 -0.342,1.345 -0.663,2.688 -0.948,4.026 m 2.961,-34.766 c -1.945,-9.284 -10.357,-16.628 -19.203,-19.014 -2.829,-0.763 -5.774,-0.988 -8.744,-0.901 0.302,2.843 -0.761,6.01 -0.309,8.852 0.433,2.718 5.224,0.077 6.93,-0.458 2.053,-0.643 3.771,1.063 3.927,2.99 0.228,2.851 -0.333,5.552 -0.926,8.254 2.294,-1.91 4.623,-3.761 7.37,-5.083 2.261,-1.088 5.497,0.708 4.556,3.502 -1.084,3.217 -2.602,6.279 -3.587,9.489 3.398,-2.212 6.451,-5.018 10.134,-6.824 -0.048,-0.27 -0.09,-0.538 -0.148,-0.807 m -36.72,-20.324 c -1.429,0.146 -3.388,0.089 -4.643,-0.733 -6.865,-4.496 -7.195,-13.25 -12.791,-18.784 -3.504,-3.463 -9.353,-4.63 -13.483,-7.241 -3.809,-2.409 -6.535,-6.2 -9.396,-9.708 -0.647,6.409 -1.389,12.81 -1.309,19.264 0.116,9.407 3.338,17.603 13.311,19.706 9.465,1.993 19.272,-0.888 28.972,-2.527 -0.199,-0.007 -0.415,-0.004 -0.661,0.023 m 34.071,74.315 c 1.593,-2.537 3.363,-4.945 5.248,-7.27 -1.933,1.681 -3.898,3.327 -5.993,4.786 0.208,0.858 0.458,1.685 0.745,2.484 m 6.487,9.483 c 0.083,-0.343 0.227,-0.698 0.468,-1.062 0.685,-1.038 1.406,-2.045 2.142,-3.041 -1.317,0.956 -2.665,1.874 -4.026,2.772 0.454,0.465 0.927,0.909 1.416,1.331 m 17.973,6.225 c 1.13,-1.488 2.283,-2.959 3.427,-4.435 -0.512,-0.311 -0.945,-0.766 -1.24,-1.308 -1.775,1.872 -3.565,3.73 -5.369,5.574 1.052,0.107 2.112,0.169 3.182,0.169 m -9.905,-2.023 c 0.159,-0.211 0.328,-0.415 0.489,-0.625 -0.001,-0.001 -0.002,-0.002 -0.003,-0.003 0.01,-0.011 0.021,-0.023 0.033,-0.033 3.682,-4.773 7.82,-9.218 12.002,-13.633 -5.008,4.352 -10.064,8.648 -15.251,12.788 -0.221,0.177 -0.459,0.306 -0.702,0.415 1.041,0.54 2.126,1.003 3.243,1.402 0.06,-0.104 0.111,-0.209 0.189,-0.311 m 46.784,-33.971 c 2.112,0.056 4.061,2.397 2.72,4.648 -3.744,6.284 -7.611,12.504 -11.631,18.623 1.053,-1.094 2.121,-2.141 3.239,-3.064 2.679,-2.213 6.57,0.515 4.872,3.757 -0.039,0.074 -0.081,0.144 -0.121,0.217 1.689,0.474 2.853,2.36 1.874,4.462 -0.827,1.776 -1.814,3.441 -2.873,5.062 1.02,1.332 1.17,3.533 -0.578,4.822 -1.517,1.119 -3.31,1.752 -4.971,2.631 -2.549,1.349 -6.148,-1.54 -4.244,-4.243 0.147,-0.208 0.294,-0.414 0.443,-0.621 -0.436,-0.247 -0.814,-0.603 -1.102,-1.025 -2.307,1.98 -4.824,3.675 -7.825,4.74 -0.17,0.06 -0.333,0.102 -0.493,0.134 -4.236,5.689 -8.65,11.245 -13.329,16.59 -2.638,3.016 -7.007,-1.389 -4.385,-4.385 4.754,-5.432 9.228,-11.086 13.505,-16.887 -0.154,0.058 -0.306,0.124 -0.461,0.18 -5.992,6.838 -12.018,13.647 -18.308,20.215 -2.403,2.512 -6.886,-0.816 -4.871,-3.757 3.366,-4.911 6.868,-9.715 10.442,-14.465 -1.149,-0.047 -2.288,-0.15 -3.414,-0.32 -0.134,0.137 -0.267,0.278 -0.403,0.414 -1.891,1.907 -5.122,0.279 -5.401,-1.893 -2.057,-0.757 -4.005,-1.759 -5.81,-2.983 -0.408,-0.183 -0.772,-0.437 -1.068,-0.746 -1.148,-0.868 -2.221,-1.847 -3.216,-2.917 -1.072,0.687 -2.155,1.361 -3.259,2.007 -2.135,1.253 -5.655,-0.866 -4.555,-3.502 0.873,-2.094 1.897,-4.077 3.02,-5.987 -0.413,-0.987 -0.788,-2.007 -1.095,-3.084 l -0.002,10e-4 c -1.458,0.936 -3.372,0.271 -4.243,-1.112 -2.39,-3.792 0.6,-9.011 3.399,-13.007 0.312,-2.466 0.806,-4.917 1.385,-7.359 -0.474,-0.019 -0.96,-0.06 -1.469,-0.136 -1.319,-0.199 -2.305,-1.739 -2.277,-2.991 0.161,-6.876 3.486,-12.594 5.905,-18.7 -3.65,2.533 -6.999,5.589 -11.333,7.072 -1.892,0.647 -3.98,-1.057 -3.927,-2.991 0.074,-2.694 0.675,-5.177 1.471,-7.604 -1.718,1.434 -3.431,2.881 -5.283,4.14 -1.955,1.33 -4.713,-0.432 -4.666,-2.677 0.082,-3.828 1.338,-7.49 1.863,-11.227 -3.559,0.965 -7.116,1.203 -9.492,-2.421 -1.61,-2.456 -1.583,-6.467 -1.276,-9.231 0.14,-1.258 0.419,-2.542 0.143,-3.404 -2.845,0.404 -5.656,0.944 -8.355,1.425 -9.341,1.666 -20.449,4.268 -29.178,-0.862 -5.817,-3.419 -7.43,-10.508 -7.87,-16.732 -0.537,-7.637 0.538,-15.358 1.345,-22.999 -0.312,-0.358 -0.624,-0.72 -0.945,-1.064 -1.853,-1.975 -0.438,-4.621 1.518,-5.219 0.641,-8.752 0.794,-18.811 -4.976,-25.927 -10,-12.337 -26.727,-0.896 -38.151,-9.202 -4,-2.907 -5.445,-8.647 -7.615,-12.82 -3.579,-6.887 -9.141,-11.852 -15.51,-16.095 -0.828,-0.552 -0.052,-1.895 0.783,-1.339 5.014,3.34 9.425,7.041 13.083,11.864 6.137,8.093 6.353,18.589 18.469,20.027 7.532,0.896 14.663,-1.403 22.109,0.997 4.046,1.306 7.398,4.372 9.679,7.863 4.379,6.702 4.16,15.834 3.75,23.476 -0.021,0.385 -0.054,0.769 -0.079,1.152 0.458,0.139 0.911,0.397 1.325,0.838 2.833,3.02 5.27,6.366 8.1,9.389 3.262,3.484 7.987,4.972 12.176,6.982 6.843,3.286 9.487,9.412 12.478,15.928 0.678,1.479 1.481,2.837 2.543,4.076 1.678,1.957 4.776,0.489 6.857,1.061 2.575,0.708 3.904,2.801 4.649,5.166 0.006,0.018 0.008,0.039 0.012,0.058 1.024,-0.055 2.045,-0.088 3.063,-0.07 12.58,0.232 23.151,8.998 26.646,20.933 0.057,0.188 0.099,0.378 0.149,0.567 0.237,-0.093 0.469,-0.189 0.711,-0.272 2.428,-0.831 4.204,1.668 3.817,3.814 -0.775,4.275 -2.728,8.192 -4.486,12.147 -0.484,2.572 -1.122,5.155 -1.803,7.738 2.204,-1.454 4.289,-3.87 5.803,-5.107 2.451,-2.001 4.891,-3.166 8.02,-3.5 2.327,-0.247 3.887,2.824 2.679,4.667 -3.194,4.867 -7.202,9.249 -10.741,13.863 -0.678,0.886 -2.675,3.35 -4.641,6.024 5.638,-5.294 11.746,-10.795 18.551,-10.52 2.848,0.115 3.909,3.226 2.192,5.294 -4.881,5.88 -10.647,11.32 -15.42,17.407 10.018,-7.797 18.913,-17.026 28.287,-25.593 2.532,-2.315 6.801,0.668 4.87,3.757 -1.163,1.862 -2.424,3.641 -3.746,5.37 3.304,-2.878 6.623,-5.736 9.986,-8.543 1.933,-1.615 4.532,-0.599 5.149,1.316 1.294,-1.132 2.582,-2.27 3.913,-3.362 1.029,-0.846 2.147,-0.971 3.087,-0.662 0.823,-0.637 1.659,-1.262 2.511,-1.87 3.097,-2.209 5.789,2.348 3.758,4.871 -1.808,2.245 -3.628,4.48 -5.452,6.712"
         style="fill:#00adef;fill-opacity:1;fill-rule:nonzero;stroke:none"
         id="path22"
         inkscape:connector-curvature="0" /><path
         d="m 335.418,281.3159 c -1.106,0.178 -2.242,-0.152 -2.864,-0.977 -5.912,-0.426 -11.875,-1.768 -17.561,-3.925 0.312,0.576 -0.34,1.441 -1.074,1.04 -8.538,-4.66 -18.251,-8.828 -23.814,-17.189 -0.908,0.912 -1.831,1.818 -2.735,2.733 3.038,3.439 5.988,6.956 8.829,10.558 2.24,2.84 4.603,5.727 6.883,8.687 5.651,5.698 9.473,12.743 12.171,20.287 0.338,0.944 -1.161,1.347 -1.495,0.412 -0.237,-0.664 -0.497,-1.318 -0.752,-1.973 0.292,3.319 -0.388,6.711 -2.55,9.224 -3.778,4.391 -9.339,3.131 -14.214,1.368 -13.555,-4.904 -22.159,-15.157 -32.227,-24.583 -1.399,1.083 -2.555,2.34 -3.696,3.564 4.691,6 9.302,12.063 13.927,18.112 5.633,7.368 9.057,13.504 9.3,22.96 0.088,0.305 0.139,0.625 0.136,0.954 4.604,4.718 7.818,10.921 12.321,15.748 4.636,4.967 9.447,9.763 13.857,14.938 5.113,6 10.667,11.582 16.693,16.666 9.326,7.869 20.064,14.113 31.634,18.01 6.732,2.268 13.751,3.446 20.835,3.794 3.686,0.182 7.379,-0.029 11.051,-0.364 2.918,-0.266 6.283,-0.164 9.191,-0.999 0.391,-0.45 0.892,-0.786 1.461,-0.946 15.991,-50.037 -30.157,-89.744 -65.307,-118.099 m -7.421,-33.562 c -5.003,-11.37 -13.623,-22.195 -23.795,-28.601 -0.843,-0.531 -0.066,-1.873 0.783,-1.338 4.526,2.85 8.744,6.549 12.497,10.766 -2.35,-3.234 -4.909,-6.313 -7.627,-9.206 -10.948,-11.647 -23.051,-22.401 -33.503,-34.515 -0.107,0.116 -0.209,0.232 -0.345,0.34 -3.048,2.451 -6.11,4.854 -8.932,7.569 -2.421,2.33 -2.983,2.648 -0.93,4.969 1.456,1.646 3.098,3.113 4.491,4.817 4.73,5.787 9.149,11.934 13.455,18.038 5,7.087 10.224,14.765 12.544,23.224 1.202,4.38 0.184,7.837 -1.804,10.895 8.635,11.277 23.621,18.27 37.621,19.412 0.43,-9.095 -1.248,-17.995 -4.455,-26.37 m -61.048,3.187 c -5.329,-5.075 -11.001,-9.784 -16.716,-14.412 -4.826,-3.908 -9.447,-8.798 -14.876,-11.931 -2.733,2.601 -5.712,4.941 -8.418,7.574 4.287,8.845 10.18,16.073 17.325,22.994 7.89,7.645 13.925,16.901 22.279,24.117 0.877,0.758 1.118,1.659 0.965,2.497 8.335,7.789 15.427,16.509 25.873,21.755 4.481,2.25 12.799,6.825 13.486,-1.501 0.517,-6.246 -6.737,-12.99 -10.194,-17.53 -9.15,-12.016 -18.775,-23.139 -29.724,-33.563 m -35.143,40.77 c -13.681,-6.053 -25.547,-17.572 -34.568,-29.498 -4.175,3.54 -8.359,7.064 -12.727,10.36 14.32,13.506 27.355,28.514 42.463,41.135 14.203,11.866 32.011,17.544 50.287,16.374 -0.637,-7.933 -4.325,-13.008 -9.181,-19.357 -2.722,-3.56 -5.443,-7.121 -8.177,-10.674 1.902,3.487 3.216,7.301 4.034,11.205 0.205,0.975 -1.29,1.391 -1.496,0.412 -1.275,-6.087 -3.733,-11.963 -7.936,-16.602 -0.991,0.392 -2.1,0.661 -3.395,0.743 -6.817,0.429 -13.124,-1.365 -19.304,-4.098 m 178.822,114.782 c 1.09,1.29 1.269,3.116 0,4.385 -0.728,0.728 -1.895,1.046 -2.926,0.834 1.023,1.063 2.062,2.105 3.032,3.164 0.674,0.735 -0.42,1.835 -1.097,1.096 -2.836,-3.096 -6.075,-6.001 -8.03,-9.753 -0.056,-0.037 -0.112,-0.076 -0.168,-0.112 -5.331,1.667 -11.583,1.598 -16.972,1.834 -7.25,0.319 -14.554,-0.628 -21.61,-2.243 -6.773,-1.55 -13.295,-4.063 -19.494,-7.234 -0.551,-0.199 -1.109,-0.385 -1.651,-0.616 -7.977,-3.389 -15.967,-7.534 -23.162,-12.367 -0.825,-0.554 -0.05,-1.898 0.783,-1.339 3.547,2.382 7.272,4.479 11.06,6.463 -1.175,-0.826 -2.338,-1.665 -3.48,-2.526 -7.38,-5.562 -14.052,-11.986 -20.135,-18.929 -3.921,-4.474 -7.913,-8.854 -12.028,-13.153 -3.249,-3.394 -6.535,-6.762 -9.401,-10.49 -2.429,-3.157 -4.127,-6.53 -6.877,-9.324 -18.191,1.485 -35.554,-3.59 -50.581,-14.034 -1.662,-1.154 -3.283,-2.372 -4.886,-3.615 -1.275,-0.753 -2.567,-1.489 -3.935,-2.21 -7.164,-3.784 -13.829,-7.978 -19.319,-13.999 -0.672,-0.737 0.421,-1.837 1.097,-1.096 4.513,4.949 9.828,8.582 15.536,11.834 -13.583,-11.906 -25.484,-26.244 -38.627,-38.346 -0.695,-0.639 -0.971,-1.37 -0.964,-2.08 -0.133,-1.078 0.223,-2.224 1.336,-3.008 6.342,-4.458 12.106,-9.635 18.042,-14.605 2.416,-2.022 5.678,0.308 5.394,2.64 7.699,10.396 17.407,19.511 28.508,26.151 5.396,3.226 11.335,5.418 17.621,5.878 6.039,0.441 8.345,-3.681 11.925,-6.985 -0.255,-0.516 -0.305,-1.051 -0.207,-1.564 -7.519,-7.209 -13.547,-15.792 -21.04,-23.052 -7.239,-7.01 -13.093,-14.746 -17.29,-23.859 -0.854,-0.751 -1.364,-1.924 -1.116,-3.099 -0.03,-1.652 1.239,-3.009 2.625,-3.383 3.472,-3.373 7.404,-6.252 10.666,-9.851 1.776,-1.959 4.274,-0.704 5.005,1.222 6.026,3.37 11.015,8.737 16.358,13.022 7.493,6.013 14.672,12.357 21.555,19.06 2.428,2.365 4.775,4.81 7.087,7.287 3.267,-2.932 7.351,-6.053 7.724,-10.272 0.326,-3.672 -2.07,-7.754 -3.686,-10.866 -4.379,-8.429 -10.223,-16.138 -15.945,-23.685 -1.742,-2.295 -3.519,-4.564 -5.241,-6.876 -2.277,-3.059 -6.256,-5.411 -7.552,-9.138 -2.343,-6.733 8.837,-13.445 13.059,-16.839 0.668,-0.536 1.395,-0.738 2.097,-0.723 0.377,-2.313 3.221,-4.094 5.101,-1.835 11.397,13.683 25.006,25.541 37.136,38.566 14.509,15.579 24.289,37.504 22.586,59.09 2.967,2.392 6.004,4.861 9.074,7.41 8.107,5.185 16.719,9.573 23.803,16.142 0.734,0.682 -0.364,1.776 -1.098,1.097 -4.568,-4.236 -9.786,-7.569 -15.095,-10.799 33.296,28.789 66.528,66.548 51.153,112.282 0.318,0.246 0.633,0.5 0.936,0.766 1.24,1.084 2.256,2.429 3.314,3.682"
         style="fill:#00adef;fill-opacity:1;fill-rule:nonzero;stroke:none"
         id="path26"
         inkscape:connector-curvature="0" /><g
         transform="translate(380.5273,352.5059)"
         id="g28"><path
           inkscape:connector-curvature="0"
           id="path30"
           style="fill:#00adef;fill-opacity:1;fill-rule:nonzero;stroke:none"
           d="m 0,0 c -1.955,-10.529 -15.144,-6.971 -21.588,-3.354 -8.842,4.961 -13.952,14.937 -9.554,24.651 2.516,5.555 9.024,5.764 14.24,4.903 5.438,-0.898 9.225,-4.327 11.349,-9.278 0.671,-1.563 2.026,-1.878 3.24,-1.451 C 0.073,10.746 0.91,4.907 0,0 m -6.378,32.114 c -0.66,0.754 -1.752,-0.347 -1.098,-1.096 1.663,-1.901 3.33,-3.786 4.719,-5.81 -0.234,0.022 -0.465,0.011 -0.693,-0.028 -7.263,8.286 -21.201,10.768 -30.006,3.362 -4.83,-4.063 -5.815,-11.786 -5.413,-17.638 0.048,-0.714 0.155,-1.415 0.291,-2.108 1.435,-11.008 8.902,-18.405 19.063,-23.603 0.888,-0.454 1.673,0.884 0.783,1.339 -5.822,2.978 -10.776,6.698 -14.103,11.494 1.467,-1.641 3.092,-3.126 4.756,-4.43 8.779,-6.879 24.584,-10.996 32.064,-0.259 5.557,7.976 2.277,21.415 -3.394,29.049 -1.614,3.582 -4.252,6.619 -6.969,9.728" /></g></g></g></svg>