<?xml version="1.0" encoding="UTF-8" standalone="no"?>
<!-- Created with Inkscape (http://www.inkscape.org/) -->

<svg
   width="400mm"
   height="400mm"
   viewBox="0 0 400 400"
   version="1.1"
   id="svg5"
   xml:space="preserve"
   inkscape:export-filename="docker.png"
   inkscape:export-xdpi="31.75"
   inkscape:export-ydpi="31.75"
   inkscape:version="1.2 (dc2aedaf03, 2022-05-15)"
   sodipodi:docname="docker.svg"
   xmlns:inkscape="http://www.inkscape.org/namespaces/inkscape"
   xmlns:sodipodi="http://sodipodi.sourceforge.net/DTD/sodipodi-0.dtd"
   xmlns="http://www.w3.org/2000/svg"
   xmlns:svg="http://www.w3.org/2000/svg"><sodipodi:namedview
     id="namedview7"
     pagecolor="#505050"
     bordercolor="#eeeeee"
     borderopacity="1"
     inkscape:showpageshadow="0"
     inkscape:pageopacity="0"
     inkscape:pagecheckerboard="0"
     inkscape:deskcolor="#505050"
     inkscape:document-units="mm"
     showgrid="false"
     inkscape:zoom="0.28298217"
     inkscape:cx="727.96107"
     inkscape:cy="770.36657"
     inkscape:window-width="1920"
     inkscape:window-height="1043"
     inkscape:window-x="0"
     inkscape:window-y="18"
     inkscape:window-maximized="1"
     inkscape:current-layer="layer1" /><defs
     id="defs2" /><g
     inkscape:label="Layer 1"
     inkscape:groupmode="layer"
     id="layer1"><rect
       style="vector-effect:non-scaling-stroke;fill:#303030;stroke:none;stroke-width:0.014493;-inkscape-stroke:hairline;fill-opacity:1"
       id="rect310"
       width="400"
       height="400"
       x="0"
       y="0" /><g
       id="g179"
       transform="matrix(1.9678151,0,0,1.9678151,-504.40403,-78.015666)"><path
         style="fill:#b9d7d9;stroke-width:0.264583"
         d="m 293.86614,104.42224 c -0.24353,-0.15456 -0.10879,-1.13871 1.10124,-2.60214 7.35652,-8.897147 19.2311,-14.729472 36.02706,-16.304336 4.29915,-0.403108 14.57151,-1.376748 15.13053,-0.380661 l 0.72148,0.686407 -4.76872,2.779818 c -5.86677,3.419899 -8.60653,5.576983 -12.27196,10.226781 -1.03242,1.309691 -2.06494,2.833791 -2.08461,2.869831 -0.0456,0.0836 -1.17268,0.43081 -6.6123,1.26106 -1.42248,0.21713 -5.07755,0.79107 -10.00663,1.36641 -5.68125,0.66314 -16.52172,0.55023 -17.23609,0.0968 z"
         id="path193"
         sodipodi:nodetypes="sssscsssssss" /><path
         style="fill:#1587b2;stroke-width:0.264583"
         d="m 374.99104,196.70309 c -0.93821,-0.71944 -1.98305,-1.54911 -2.32188,-1.84372 l -0.61606,-0.53565 0.99897,-0.98804 c 1.64064,-1.62269 8.53959,-10.11464 8.53959,-10.51142 0,-0.83358 -0.55829,-0.59259 -1.67258,0.72195 -3.65203,4.30835 -8.07725,9.74051 -8.17582,10.03622 -0.0866,0.25973 -0.29321,0.22398 -0.86286,-0.14927 -1.22264,-0.8011 -5.26895,-4.13122 -5.62923,-4.63287 -0.29263,-0.40744 0.168,-1.05416 3.78291,-5.31117 6.36127,-7.49119 6.11074,-7.23123 6.79672,-7.05273 0.33082,0.0861 1.07155,0.59147 1.64607,1.12308 1.02249,0.94612 1.03351,0.97563 0.52119,1.39508 -0.96029,0.7862 -9.1064,10.65904 -9.1064,11.03669 0,0.92576 0.96137,0.12968 3.62458,-3.00141 4.54856,-5.34766 6.16501,-7.36554 6.16501,-7.69604 0,-0.54921 0.48679,-0.32907 1.80632,0.81687 0.71215,0.61846 2.56159,2.18508 4.10987,3.48136 1.54828,1.29629 2.81506,2.45252 2.81506,2.5694 0,0.37989 -2.85562,3.76373 -8.29067,9.82424 -1.01139,1.12779 -1.97076,2.04489 -2.13193,2.038 -0.16117,-0.007 -1.06065,-0.60114 -1.99886,-1.32057 z m 2.66826,-0.84972 c 0.5182,-0.61847 2.56748,-3.06443 4.55394,-5.43549 1.98647,-2.37105 3.61176,-4.42487 3.61176,-4.56406 0,-0.13918 -0.23048,-0.25306 -0.51217,-0.25306 -0.31997,0 -1.13379,0.76953 -2.16857,2.05052 -0.91102,1.12779 -2.32734,2.82443 -3.14738,3.77032 -2.62099,3.02319 -3.96147,4.7725 -3.96147,5.16967 0,0.70529 0.66959,0.40103 1.62389,-0.7379 z m -0.0671,-3.83646 c 5.09506,-6.03824 6.11615,-7.3408 6.11615,-7.80211 0,-0.69513 -0.31847,-0.57344 -1.37679,0.52607 -1.87761,1.9507 -8.14821,9.66161 -8.14821,10.01979 0,0.92135 0.98569,0.12798 3.40885,-2.74375 z m -3.73863,-2.91042 c 1.3211,-1.56435 3.30404,-3.91583 4.40652,-5.22552 1.10248,-1.30969 2.00545,-2.58961 2.00659,-2.84427 0.002,-0.4947 -0.20946,-0.5737 -0.69807,-0.26053 -0.59733,0.38285 -8.82484,10.46842 -8.82484,10.8178 0,0.86121 0.86848,0.16653 3.1098,-2.48748 z m -2.5405,-4.36562 c 2.07947,-2.51024 4.05223,-4.8605 4.3839,-5.22282 0.33168,-0.36231 0.60305,-0.80177 0.60305,-0.97657 0,-0.49709 -0.4112,-0.62814 -0.86108,-0.27443 -0.84137,0.66152 -8.66392,10.27722 -8.66392,10.64994 0,1.00263 1.04344,0.0424 4.53805,-4.17612 z m 31.97445,12.22466 c -1.23693,-0.2687 -3.38006,-0.73555 -4.7625,-1.03744 -1.38245,-0.30189 -3.64464,-0.78355 -5.02709,-1.07035 -3.89014,-0.80704 -3.70416,-0.73528 -3.70416,-1.4294 0,-0.77417 2.81898,-13.55304 3.1702,-14.37099 0.29015,-0.67574 0.32325,-0.67328 4.63501,0.34397 1.4552,0.34333 4.54924,1.054 6.87562,1.57929 2.32639,0.52528 4.30609,1.07851 4.39934,1.2294 0.0933,0.15088 0.12477,0.46951 0.07,0.70806 -0.0547,0.23856 -0.51934,2.81499 -1.03247,5.7254 -1.42937,8.10726 -1.63468,8.92862 -2.20899,8.83708 -0.0913,-0.0145 -1.17808,-0.24632 -2.415,-0.51502 z m 1.29443,-1.37674 c 0.12265,-0.32743 0.77975,-3.20354 1.46022,-6.39135 0.85937,-4.02589 1.15289,-5.88038 0.96108,-6.07219 -0.48178,-0.48178 -0.77717,0.14248 -1.36411,2.88278 -0.31046,1.44949 -0.72675,3.34982 -0.92507,4.22294 -1.2315,5.42162 -1.28602,5.95313 -0.61064,5.95313 0.14053,0 0.35587,-0.26789 0.47852,-0.59531 z m -2.2609,-0.39688 c 0.51951,-1.88621 2.55397,-11.56376 2.55397,-12.14879 0,-0.7246 -0.68923,-0.84286 -0.8995,-0.15434 -0.30738,1.00652 -2.28487,10.32829 -2.44153,11.50931 -0.13716,1.03397 -0.0935,1.25684 0.2464,1.25684 0.22723,0 0.47052,-0.20836 0.54066,-0.46302 z m -2.20643,-0.13229 c 0.003,-0.0833 1.07835,-5.16056 1.97228,-9.30888 0.46109,-2.13975 0.59366,-3.24402 0.41133,-3.42635 -0.61586,-0.61585 -0.89469,0.20202 -2.10926,6.18679 -0.31009,1.52797 -0.74325,3.52396 -0.96258,4.43553 -0.21934,0.91157 -0.32625,1.77478 -0.23759,1.91823 0.13758,0.22262 0.91971,0.38708 0.92582,0.19468 z m -1.87546,-0.80394 c 0.12661,-0.33302 0.47082,-1.73201 0.7649,-3.10885 0.29408,-1.37685 0.85193,-3.97614 1.23967,-5.7762 0.50488,-2.3439 0.62386,-3.35396 0.41917,-3.55865 -0.6042,-0.6042 -0.75488,-0.13681 -2.39499,7.42933 -0.57599,2.65715 -0.97916,5.00864 -0.89594,5.22553 0.22086,0.57554 0.60351,0.48236 0.86719,-0.21116 z m -1.05848,-4.55387 c 0.45551,-2.18282 1.00386,-4.63141 1.21856,-5.44132 0.509,-1.92011 0.51061,-3.15764 0.004,-3.15764 -0.4014,0 -0.61132,0.61723 -1.30477,3.83646 -0.21943,1.01864 -0.72154,3.35403 -1.11579,5.18974 -0.39427,1.83572 -0.63402,3.55349 -0.53279,3.81729 0.38189,0.9952 0.90497,-0.28765 1.73069,-4.24453 z m -2.92191,3.10885 c 0.16272,-0.40018 0.41154,-1.32292 0.55292,-2.05052 0.14138,-0.72761 0.56674,-2.69214 0.94526,-4.36563 0.95076,-4.20351 1.10693,-5.82083 0.56207,-5.82083 -0.48274,0 -0.48145,-0.005 -2.01522,7.20275 -0.61078,2.87011 -1.03494,5.34066 -0.94257,5.49011 0.28392,0.45939 0.58821,0.30483 0.89754,-0.45588 z m -1.98224,-0.0164 c 0.073,-0.11813 0.55812,-2.23149 1.07802,-4.69636 0.51991,-2.46486 1.06251,-4.98077 1.20579,-5.59091 0.37007,-1.57588 0.3295,-2.46253 -0.11266,-2.46253 -0.38638,0 -0.7309,1.27223 -2.29183,8.46317 -0.42602,1.96261 -0.77458,3.77831 -0.77458,4.0349 0,0.46947 0.64807,0.6517 0.89526,0.25173 z M 342.043,185.57799 c -3.92548,-1.59561 -7.23415,-2.99803 -7.35261,-3.11649 -0.20249,-0.20248 5.36856,-13.90681 5.84844,-14.38669 0.23549,-0.23549 2.14616,0.42617 5.86327,2.03043 1.23693,0.53385 3.71915,1.58051 5.51606,2.32593 1.7969,0.74541 3.33468,1.53141 3.41729,1.74667 0.19032,0.49597 -0.095,1.44157 -1.77044,5.86662 -3.27182,8.6415 -3.19352,8.46783 -3.81001,8.45065 -0.31613,-0.009 -3.78653,-1.32151 -7.712,-2.91712 z m 7.19893,0.75033 c 0.37569,-0.48012 4.31047,-11.35762 4.30692,-11.90625 -0.004,-0.54089 -0.35375,-0.60403 -0.73387,-0.1323 -0.44579,0.55324 -4.29621,11.08179 -4.29621,11.74752 0,0.68064 0.31812,0.80866 0.72316,0.29103 z m -2.314,-1.85209 c 0.82334,-1.86631 3.97209,-10.53656 3.97209,-10.93736 0,-0.75235 -0.79821,-0.3459 -1.19753,0.60979 -1.13309,2.71187 -3.82956,10.36869 -3.82956,10.87433 0,0.93434 0.52063,0.66452 1.055,-0.54676 z m -2.41677,-1.1994 c 2.10513,-5.35364 3.99571,-11.02302 3.75586,-11.26287 -0.43106,-0.43105 -0.95356,0.26569 -1.55787,2.07738 -0.29124,0.87312 -1.08517,3.07578 -1.76429,4.89479 -1.53842,4.12066 -1.78847,4.9632 -1.57533,5.30807 0.23426,0.37904 0.78582,-0.11248 1.14163,-1.01737 z m -1.85645,-1.72836 c 3.71566,-9.96193 3.82878,-10.34099 3.0406,-10.18851 -0.60206,0.11647 -4.9521,11.54875 -4.67205,12.27855 0.27908,0.72726 0.8566,-0.0126 1.63145,-2.09004 z m -3.19293,1.07568 c 0.14752,-0.1819 0.9853,-2.29526 1.86172,-4.69635 0.87642,-2.4011 1.82514,-4.96094 2.10827,-5.68854 0.53462,-1.37392 0.51804,-1.98438 -0.0539,-1.98438 -0.36932,0 -4.64871,11.14821 -4.64871,12.11033 0,0.65314 0.32091,0.76657 0.7326,0.25894 z m -0.98199,-3.77031 c 1.57831,-4.19893 3.15981,-8.6589 3.15981,-8.91094 0,-0.34913 -0.98935,-0.24956 -1.12811,0.11354 -1.87176,4.89789 -4.16266,11.72539 -4.04085,12.04282 0.28781,0.75002 0.84662,-0.15264 2.00915,-3.24542 z m 83.0169,-4.29948 c -1.12601,-1.22264 -2.17868,-3.74665 -2.89328,-6.01046 -0.83299,-2.63882 -1.02915,-6.17623 -0.47452,-8.55675 0.91467,-3.92582 2.62249,-7.9491 4.51099,-10.627 1.29886,-1.84178 1.2362,-2.26129 -0.54853,-3.67203 -2.8316,-2.23825 -8.65094,-4.56993 -13.77675,-5.52003 -2.33874,-0.4335 -6.73602,-0.47533 -63.22906,-0.60153 l -60.71552,-0.13559 -0.24113,-0.68567 c -0.13262,-0.37712 -0.15798,-1.2401 -0.0564,-1.91774 l 0.18476,-1.23206 23.59792,0.1276 c 12.97886,0.0702 34.90886,0.2156 48.73334,0.32317 13.82448,0.10756 26.14745,0.20143 27.38437,0.2086 1.23693,0.007 10.64287,0.061 20.90209,0.11967 10.25922,0.0587 19.24672,0.17503 19.97223,0.25862 1.2725,0.14661 1.3409,0.1979 1.93623,1.45208 0.33942,0.71506 0.91153,2.23206 1.27136,3.37111 0.52202,1.6525 0.77234,2.09568 1.23876,2.19316 0.3215,0.0672 2.6086,0.17639 5.08246,0.24266 8.47875,0.22714 11.20536,1.43762 18.17871,8.07043 1.28465,1.22191 2.3265,2.4314 2.3265,2.70083 0,0.92918 -4.61348,3.00669 -7.41326,3.33828 -2.72167,0.32234 -7.79864,-1.03515 -12.27286,-3.28154 -1.52114,-0.76372 -1.93058,-0.86985 -2.4474,-0.63437 -0.53753,0.24491 -0.53326,0.68397 -0.53326,1.89876 0,0.77145 -0.12217,2.58295 -0.34388,4.37376 -0.44297,3.57802 -1.33893,5.82631 -2.74182,7.6102 -1.33462,1.69707 -6.59926,7.04891 -6.93407,7.04891 -0.16739,0 -0.28669,0.0669 -0.50321,-0.18781 z m -62.92376,-4.59578 c -1.38244,-0.1194 -4.21189,-0.3159 -6.28766,-0.43667 -2.79248,-0.16248 -3.87843,-0.3239 -4.17515,-0.62062 -0.35832,-0.35832 -0.35571,-1.15896 0.0245,-7.5173 0.23405,-3.91394 0.54182,-7.33353 0.68393,-7.59907 0.28201,-0.52693 -0.20959,-0.53127 7.77,0.0686 1.89177,0.14222 4.48093,0.32948 5.7537,0.41613 1.27276,0.0867 2.3849,0.27209 2.47142,0.41208 0.27,0.43687 0.10505,14.55745 -0.1762,15.08296 -0.29495,0.55113 -1.48682,0.58924 -6.06455,0.19388 z m 2.22708,-1.35735 c 0.0663,-0.32742 0.18786,-2.32171 0.27018,-4.43177 0.0823,-2.11005 0.22638,-4.81577 0.32013,-6.01272 0.14852,-1.89631 0.11295,-2.19832 -0.27655,-2.34779 -0.24584,-0.0943 -0.50304,-0.11548 -0.57154,-0.047 -0.275,0.275 -0.77569,12.74672 -0.52783,13.14777 0.29086,0.47061 0.65702,0.32682 0.78561,-0.30851 z m 2.10235,0.3893 c 0.21917,-0.35462 0.72654,-12.37544 0.54257,-12.85485 -0.41114,-1.0714 -0.77824,-0.14107 -0.93371,2.36625 -0.62497,10.07913 -0.62459,10.69462 0.007,10.69462 0.1415,0 0.31457,-0.0927 0.3846,-0.20602 z m -6.20575,-4.95336 c 0.39745,-6.40506 0.41453,-8.3145 0.0774,-8.65166 -0.58609,-0.58609 -0.82975,1.01362 -1.05581,6.93187 -0.21558,5.64367 -0.10719,7.04862 0.49583,6.42736 0.11193,-0.11531 0.3291,-2.23371 0.48261,-4.70757 z m -2.32869,3.15335 c 0.0883,-0.71569 0.24762,-3.71228 0.35396,-6.65908 0.16752,-4.64229 0.14102,-5.35781 -0.19845,-5.35781 -0.56801,0 -0.71324,0.58533 -0.71108,2.86591 0.001,1.11588 -0.13978,3.76152 -0.31296,5.87919 -0.17318,2.11767 -0.23351,4.06233 -0.13407,4.32148 0.31937,0.83226 0.83724,0.29007 1.0026,-1.04969 z m 4.24145,1.41071 c 0.20507,-0.37227 0.59691,-12.6169 0.41579,-12.99299 -0.48134,-0.99949 -0.70863,0.0775 -0.97048,4.59863 -0.39012,6.73582 -0.36538,8.46051 0.12138,8.46051 0.21828,0 0.41327,-0.0298 0.43331,-0.0661 z m -6.34824,-1.93906 c 0.36771,-3.37884 0.57346,-11.40633 0.29675,-11.57735 -0.70032,-0.43281 -0.89086,0.72792 -1.08527,6.61109 -0.10987,3.32499 -0.14992,6.19929 -0.089,6.38734 0.25519,0.7877 0.71887,0.0368 0.87752,-1.42108 z m -2.11733,-0.57825 c 0.0934,-1.03366 0.21246,-3.94111 0.26458,-6.46099 0.0878,-4.24639 -0.0686,-5.44247 -0.58183,-4.4493 -0.273,0.52827 -0.87094,12.33656 -0.64334,12.70483 0.41889,0.67777 0.80183,-0.0376 0.96059,-1.79454 z m -22.74871,-0.26081 c -0.29412,-0.83675 -0.82273,-2.29526 -1.1747,-3.24115 -2.33814,-6.28367 -3.38622,-9.35782 -3.31539,-9.72448 0.0504,-0.26097 0.88861,-0.7078 2.19814,-1.17178 1.16417,-0.41248 2.89057,-1.04114 3.83646,-1.39704 4.58457,-1.72495 8.40072,-3.05253 8.77455,-3.05253 0.41912,0 0.88503,1.00554 4.43389,9.56939 1.69975,4.10171 1.80416,4.50279 1.2775,4.90741 -0.59709,0.45873 -14.40158,5.61617 -15.05696,5.62537 -0.29785,0.004 -0.61045,-0.48236 -0.97349,-1.51519 z m 2.65486,-1.01964 c -0.11254,-0.70343 -4.29369,-11.29438 -4.57989,-11.60099 -0.14741,-0.15792 -0.34288,-0.1431 -0.52584,0.0399 -0.21188,0.21189 0.0725,1.25572 1.04393,3.83227 1.2525,3.32188 3.02942,7.6372 3.3751,8.19652 0.25792,0.41731 0.77225,0.067 0.6867,-0.46766 z m 2.32923,-0.58 c 0,-0.41975 -3.37086,-9.33536 -4.2469,-11.23265 -0.37,-0.80135 -1.04476,-0.98427 -1.04476,-0.28322 0,0.40676 2.22393,6.34023 3.87457,10.33738 0.64758,1.56816 1.41709,2.2081 1.41709,1.17849 z m 2.38125,-0.66985 c 0,-0.19319 -0.28063,-1.05639 -0.62363,-1.91823 -0.343,-0.86183 -1.31439,-3.35291 -2.15864,-5.53572 -0.84425,-2.18281 -1.64866,-4.11627 -1.78759,-4.29656 -0.32404,-0.42054 -0.7218,-0.17709 -0.7218,0.44179 0,0.41624 3.02575,8.37433 4.10631,10.80008 0.37731,0.84703 1.18535,1.19376 1.18535,0.50864 z m 2.38125,-0.76812 c 0,-0.42463 -4.24016,-11.34714 -4.57268,-11.77906 -0.14003,-0.1819 -0.3591,-0.33073 -0.4868,-0.33073 -0.52784,0 -0.14627,1.48368 1.35532,5.27 0.87312,2.20162 1.58862,4.04486 1.5875,4.09606 -0.002,0.0767 1.40863,3.06936 1.71645,3.06936 0.22012,0 0.40021,-0.14653 0.40021,-0.32563 z m 1.96332,-0.69864 c 0.20716,-0.33519 -4.41623,-12.0083 -4.80785,-12.13884 -0.1816,-0.0605 -0.39599,0.0614 -0.47641,0.27099 -0.13949,0.3635 3.91293,11.07798 4.45074,11.76764 0.30118,0.38621 0.63217,0.426 0.83352,0.10021 z m 2.27002,-1.07886 c 0,-0.5101 -2.90952,-8.23601 -4.01561,-10.66302 -0.5522,-1.21165 -1.27606,-1.69236 -1.27606,-0.84742 0,0.55341 4.12738,11.09766 4.57796,11.69534 0.36963,0.4903 0.71371,0.40116 0.71371,-0.1849 z m 33.66324,2.99224 c -0.13933,-0.27073 -0.33039,-2.04005 -0.4246,-3.93182 -0.0942,-1.89177 -0.28924,-5.15989 -0.43342,-7.26248 -0.18151,-2.64716 -0.17686,-3.90844 0.0151,-4.10104 0.1525,-0.15298 1.84929,-0.35324 3.77064,-0.44503 13.03781,-0.62282 12.252,-0.61832 12.47205,-0.0714 0.11127,0.27657 0.30516,1.81254 0.43088,3.41326 0.12572,1.60073 0.41189,4.80906 0.63594,7.12962 0.22406,2.32055 0.30743,4.31914 0.18526,4.4413 -0.12216,0.12216 -2.89077,0.39315 -6.15247,0.6022 -3.2617,0.20906 -6.9014,0.45604 -8.08823,0.54886 -1.93513,0.15133 -2.18402,0.11794 -2.41119,-0.32349 z m 2.187,-0.88782 c 0.22091,-0.35743 -0.42485,-12.14506 -0.70826,-12.92849 -0.19113,-0.52836 -0.28875,-0.57178 -0.63653,-0.28315 -0.30671,0.25455 -0.37411,0.64725 -0.26604,1.55011 0.0796,0.66506 0.20912,2.75701 0.28783,4.64878 0.16291,3.91535 0.3952,6.78664 0.57259,7.07761 0.17063,0.27988 0.55805,0.24639 0.75041,-0.0649 z m 2.13128,-0.28823 c 0.17056,-0.27597 -0.33111,-11.39147 -0.56919,-12.6115 -0.0639,-0.32742 -0.29249,-0.59531 -0.508,-0.59531 -0.3015,0 -0.3901,0.35074 -0.3843,1.52135 0.0139,2.81898 0.4919,11.0579 0.66813,11.51713 0.19899,0.51857 0.53309,0.58946 0.79336,0.16833 z m 1.96509,-6.20717 c -0.14697,-3.34048 -0.33295,-6.28196 -0.41329,-6.53662 -0.0803,-0.25466 -0.33244,-0.46302 -0.56023,-0.46302 -0.43769,0 -0.43605,0.1935 0.0834,9.78958 0.15688,2.89818 0.44896,3.99207 0.9359,3.50513 0.1218,-0.1218 0.10121,-2.95458 -0.0458,-6.29507 z m 2.29398,2.7238 c -0.47897,-10.00741 -0.54535,-10.5141 -1.28106,-9.77839 -0.33314,0.33314 0.22406,12.08978 0.60689,12.8051 0.141,0.26346 0.38812,0.47902 0.54916,0.47902 0.20771,0 0.24404,-1.01869 0.12501,-3.50573 z m 2.26519,3.175 c 0.13026,-0.38329 -0.53411,-12.33795 -0.71315,-12.83229 -0.0659,-0.18191 -0.32032,-0.33073 -0.56543,-0.33073 -0.4037,0 -0.42712,0.29264 -0.24874,3.10885 0.1083,1.70987 0.27774,4.59714 0.37653,6.41615 0.1723,3.17246 0.34243,3.87381 0.82379,3.87381 0.12137,0 0.26518,-0.0539 0.327,-0.23579 z m 2.15143,-1.81242 c 0,-0.77375 -0.62738,-11.19952 -0.87383,-11.44597 -0.19034,-0.19034 -0.36493,-0.18517 -0.56692,0.0168 -0.21277,0.21277 -0.21277,1.37585 0,4.29165 0.16053,2.19988 0.29187,4.82304 0.29187,5.82924 0,2.01472 0.33927,3.21088 0.84761,3.03458 0.22244,-0.0771 0.32949,-0.58181 0.30127,-1.72632 z m 2.06592,-1.45164 c -0.16289,-5.55145 -0.49272,-9.66396 -0.79968,-9.97093 -0.79465,-0.79464 -0.8632,0.2639 -0.42616,6.5804 0.24028,3.47283 0.49729,6.41199 0.57112,6.53146 0.0738,0.11946 0.27216,0.17085 0.44073,0.11418 0.21641,-0.0728 0.2793,-1.02939 0.21399,-3.25511 z M 284.66598,132.24312 c -0.74466,-0.74466 1.31427,-10.76174 3.17234,-15.43402 1.12887,-2.83865 2.85244,-6.38885 3.86852,-7.96838 l 0.95596,-1.48608 4.84308,0.12834 c 7.95963,0.21094 20.61307,-1.03017 27.981,-2.74451 3.16355,-0.73608 3.71899,-1.10351 3.71323,-2.45632 -0.005,-1.22451 -0.31366,-0.45161 -1.1104,-1.20038 -0.58416,-0.549 2.77662,-4.212059 5.20497,-6.640986 2.54289,-2.543479 5.54499,-4.585563 9.96933,-6.78132 1.7987,-0.892676 3.30946,-1.722114 3.35725,-1.843195 0.0478,-0.121082 0.40497,-0.05979 0.79375,0.136203 0.40396,0.203649 2.12409,0.432461 4.01415,0.533963 3.462,0.185918 7.14492,0.647095 10.71563,1.341814 1.16416,0.226501 2.71198,0.52037 3.43958,0.653042 2.36515,0.431263 8.11397,2.084329 12.03854,3.461662 6.4863,2.276374 15.76134,7.134504 20.7698,10.878917 5.61767,4.19986 8.82249,7.03104 12.43541,10.98561 4.07016,4.45504 5.28013,5.99195 8.50793,10.80682 1.62924,2.43032 2.09569,3.15533 3.35595,5.21622 0.6861,1.12197 0.5838,1.62297 -0.28836,1.41213 -1.5996,-0.38668 -5.09248,-2.61451 -7.2488,-4.62343 -0.78117,-0.72777 -1.79712,-0.6947 -2.89853,0.0944 -0.49446,0.35424 -1.73246,1.08158 -2.7511,1.61633 -1.01865,0.53474 -1.97115,1.06127 -2.11667,1.17007 -0.56549,0.42278 -4.84917,1.91359 -6.48229,2.25597 -0.94589,0.1983 -2.85089,0.44056 -4.23334,0.53835 -2.14566,0.15177 -3.00546,0.0757 -5.87465,-0.51993 -4.90278,-1.01777 -8.54455,-2.29884 -13.81959,-4.86136 -3.07129,-1.49198 -3.54908,-1.5494 -4.89827,-0.5887 -1.61211,1.14793 -8.01567,4.28157 -10.21875,5.00064 -3.68405,1.20245 -4.41366,1.24869 -7.42471,0.47057 -3.64805,-0.94274 -6.12457,-1.90016 -11.07757,-4.28259 -3.19822,-1.53838 -3.79526,-1.55892 -7.10645,-0.24448 -1.3302,0.52804 -2.83527,1.11753 -3.34459,1.30996 -1.69311,0.6397 -5.9346,1.94338 -7.27604,2.2364 -0.72761,0.15893 -2.39448,0.53092 -3.70417,0.82664 -3.77711,0.85285 -5.92535,0.91657 -9.12812,0.27073 -1.52797,-0.30811 -3.31391,-0.75582 -3.96875,-0.99492 -1.51529,-0.55326 -5.72121,-2.87034 -6.70103,-3.69166 -1.07521,-0.90128 -2.07079,-0.79857 -3.83067,0.3952 -3.23804,2.19644 -6.75393,3.69059 -10.85505,4.38006 -2.82919,0.47564 -2.5565,0.46428 -2.77852,0.24226 z m 46.66861,-14.90078 c 0.7928,-0.72536 1.54901,-1.32067 1.68047,-1.32291 0.13146,-0.002 0.86847,0.59123 1.6378,1.31883 0.83049,0.78544 1.64198,1.32292 1.99735,1.32292 0.65911,0 2.34354,-1.4777 2.34354,-2.05592 0,-0.20054 -0.65485,-1.05115 -1.45521,-1.89025 -0.80037,-0.8391 -1.45521,-1.62317 -1.45521,-1.74237 0,-0.11921 0.65484,-0.90328 1.45521,-1.74238 0.80036,-0.8391 1.45521,-1.72497 1.45521,-1.96861 0,-0.64373 -1.69917,-2.24214 -2.38348,-2.24214 -0.34334,0 -1.03624,0.47124 -1.68011,1.14262 -1.96154,2.04535 -1.82879,2.03247 -3.59411,0.34865 -0.85989,-0.8202 -1.69725,-1.49127 -1.8608,-1.49127 -0.54195,0 -1.79181,0.76726 -1.95882,1.20248 -0.41857,1.0908 -0.14894,1.80191 1.15857,3.05554 0.7276,0.69761 1.32291,1.39861 1.32291,1.55777 0,0.15915 -0.51582,0.79094 -1.14627,1.40398 -1.64192,1.59656 -1.87453,2.11806 -1.3753,3.08344 0.89445,1.72968 1.98316,1.73522 3.85825,0.0196 z"
         id="path189"
         sodipodi:nodetypes="sscssssssssssssssssscsssssssssssssssscssssssssscssssssccscccssssssssssssscssssscssssssscsssssccssssssssssssssssssssccsscsssssssssssssssssssssssssssssscsssssccscccscsssssssssssssssccsssssscsssssssccssscsssccccsscccsscsscssssssssssssssssscsscssscsssscssssssssssssssssssssssscsssssssscssscsssssscccsssssccssscssscsssssssssssssssssssssscsssssscscsscsscsssssssssssssssssssssssssssssssssssccccsssssssssssssssscc" /><path
         style="fill:#137593;stroke-width:0.264583"
         d="m 375.85484,197.97004 c -0.86622,-0.62347 -3.25155,-2.50942 -7.94777,-6.28386 -4.02366,-3.23389 -3.93659,-2.91629 -1.5701,-5.72753 8.71895,-10.35756 8.6406,-10.27418 9.44823,-10.05609 0.3559,0.0961 1.66727,1.03759 2.91416,2.09219 1.24689,1.05461 3.33049,2.80299 4.63021,3.88528 2.92177,2.43299 4.75444,4.05189 4.75444,4.3639 0,0.68508 -10.36395,12.37175 -10.96434,12.37175 -0.239,0 -0.80993,-0.31822 -1.26483,-0.64564 z m 3.26699,-1.98438 c 5.43505,-6.06051 8.29067,-9.44435 8.29067,-9.82424 0,-0.11688 -1.26678,-1.27311 -2.81506,-2.5694 -1.54828,-1.29628 -3.39772,-2.8629 -4.10987,-3.48136 -1.31953,-1.14594 -1.80632,-1.36608 -1.80632,-0.81687 0,0.3305 -1.61645,2.34838 -6.16501,7.69604 -2.66321,3.13109 -3.62458,3.92717 -3.62458,3.00141 0,-0.37765 8.14611,-10.25049 9.1064,-11.03669 0.51232,-0.41945 0.5013,-0.44896 -0.52119,-1.39508 -0.57452,-0.53161 -1.31525,-1.03699 -1.64607,-1.12308 -0.68598,-0.1785 -0.43545,-0.43846 -6.79672,7.05273 -3.61491,4.25701 -4.07554,4.90373 -3.78291,5.31117 0.36028,0.50165 4.40659,3.83177 5.62923,4.63287 0.56965,0.37325 0.77629,0.409 0.86286,0.14927 0.0986,-0.29571 4.52379,-5.72787 8.17582,-10.03622 1.11429,-1.31454 1.67258,-1.55553 1.67258,-0.72195 0,0.39678 -6.89895,8.88873 -8.53959,10.51142 l -0.99897,0.98804 0.67785,0.56001 c 1.40841,1.16357 3.98479,3.12822 4.25895,3.13993 0.16117,0.007 1.12054,-0.91021 2.13193,-2.038 z m -3.08642,0.60561 c 0,-0.39717 1.34048,-2.14648 3.96147,-5.16967 0.82004,-0.94589 2.23636,-2.64253 3.14738,-3.77032 1.03478,-1.28099 1.8486,-2.05052 2.16857,-2.05052 0.28169,0 0.51217,0.11388 0.51217,0.25306 0,0.13919 -1.62529,2.19301 -3.61176,4.56406 -1.98646,2.37106 -4.03574,4.81702 -4.55394,5.43549 -0.9543,1.13893 -1.62389,1.44319 -1.62389,0.7379 z m -1.85208,-1.83061 c 0,-0.35818 6.2706,-8.06909 8.14821,-10.01979 1.05832,-1.09951 1.37679,-1.2212 1.37679,-0.52607 0,0.46131 -1.02109,1.76387 -6.11615,7.80211 -2.42316,2.87173 -3.40885,3.6651 -3.40885,2.74375 z m -3.51789,-3.14848 c 0,-0.34938 8.30582,-10.45316 8.90315,-10.83601 0.48861,-0.31317 0.7003,-0.23417 0.69807,0.26053 -10e-4,0.25466 -0.90411,1.53458 -2.00659,2.84427 -5.96476,7.0858 -6.85289,8.17047 -7.1772,8.17047 -0.19465,0 -0.41743,-0.24302 -0.41743,-0.43926 z m -3.89044,-2.69519 c 0,-0.37272 7.82255,-9.98842 8.66392,-10.64994 0.44988,-0.35371 0.86108,-0.22266 0.86108,0.27443 0,0.1748 -0.27137,0.61426 -0.60305,0.97657 -0.33167,0.36232 -2.30443,2.71258 -4.3839,5.22282 -3.49461,4.21852 -4.53805,5.17875 -4.53805,4.17612 z m 35.32187,8.30075 c -3.64999,-0.84488 -5.7194,-1.29922 -8.98938,-1.97364 -1.74269,-0.35942 -3.33862,-0.82357 -3.54649,-1.03144 -0.32756,-0.32756 -0.3004,-0.77703 0.20366,-3.37045 0.6144,-3.16122 2.26528,-10.31528 2.72842,-11.82363 0.27375,-0.89154 0.27759,-0.89331 1.6318,-0.75115 0.74658,0.0784 2.36944,0.386 3.60637,0.68361 1.23692,0.29761 4.15396,0.97594 6.48229,1.50739 2.32833,0.53145 4.45548,1.08402 4.72698,1.22793 0.68442,0.36275 0.64413,0.71564 -1.27779,11.19045 -0.89422,4.8737 -0.90806,4.90273 -2.31904,4.86284 -0.62158,-0.0176 -2.08265,-0.25243 -3.24682,-0.52191 z m 4.02493,-0.0414 c 0.3113,-0.40652 0.59776,-1.77229 1.78969,-8.53282 0.51313,-2.91041 0.97774,-5.48684 1.03247,-5.7254 0.0547,-0.23855 0.0232,-0.55718 -0.07,-0.70806 -0.0932,-0.15089 -2.07295,-0.70412 -4.39934,-1.2294 -2.32638,-0.52529 -5.42042,-1.23596 -6.87562,-1.57929 -4.31176,-1.01725 -4.34486,-1.01971 -4.63501,-0.34397 -0.35122,0.81795 -3.1702,13.59682 -3.1702,14.37099 0,0.69412 -0.18598,0.62236 3.70416,1.4294 1.38245,0.2868 3.64464,0.76846 5.02709,1.07035 4.59721,1.00391 7.00967,1.52571 7.1775,1.55246 0.0913,0.0146 0.28001,-0.12236 0.4193,-0.30426 z m -2.43375,-1.25082 c -0.1478,-0.23915 0.10289,-1.63057 1.026,-5.6945 0.19832,-0.87312 0.61461,-2.77345 0.92507,-4.22294 0.58694,-2.7403 0.88233,-3.36456 1.36411,-2.88278 0.19181,0.19181 -0.10171,2.0463 -0.96108,6.07219 -0.68047,3.18781 -1.33757,6.06392 -1.46022,6.39135 -0.23439,0.62569 -0.62446,0.77262 -0.89388,0.33668 z m -2.15408,-1.52738 c 0.15666,-1.18102 2.13415,-10.50279 2.44153,-11.50931 0.21027,-0.68852 0.8995,-0.57026 0.8995,0.15434 0,0.52005 -0.7427,4.13071 -2.13161,10.36285 -0.47191,2.11752 -0.5282,2.24896 -0.96302,2.24896 -0.33987,0 -0.38356,-0.22287 -0.2464,-1.25684 z m -2.34519,0.46685 c -0.0887,-0.14345 0.0182,-1.00666 0.23759,-1.91823 0.21933,-0.91157 0.65249,-2.90756 0.96258,-4.43553 1.21457,-5.98477 1.4934,-6.80264 2.10926,-6.18679 0.18233,0.18233 0.0498,1.2866 -0.41133,3.42635 -0.89393,4.14832 -1.96964,9.22554 -1.97228,9.30888 -0.006,0.1924 -0.78824,0.0279 -0.92582,-0.19468 z m -1.81683,-0.3981 c -0.0832,-0.21689 0.31995,-2.56838 0.89594,-5.22553 1.64011,-7.56614 1.79079,-8.03353 2.39499,-7.42933 0.20469,0.20469 0.0857,1.21475 -0.41917,3.55865 -0.38774,1.80006 -0.94559,4.39935 -1.23967,5.7762 -0.61269,2.86853 -0.89459,3.71435 -1.23794,3.71435 -0.13355,0 -0.31092,-0.17746 -0.39415,-0.39434 z m -1.92197,-0.5205 c -0.10123,-0.2638 0.13852,-1.98157 0.53278,-3.81729 0.39426,-1.83571 0.89636,-4.1711 1.11579,-5.18974 0.69345,-3.21923 0.90337,-3.83646 1.30478,-3.83646 0.5065,0 0.50489,1.23753 -0.004,3.15764 -0.21469,0.80991 -0.76304,3.2585 -1.21855,5.44132 -0.82572,3.95688 -1.3488,5.23973 -1.73069,4.24453 z m -2.08877,-0.6798 c -0.0924,-0.14945 0.33179,-2.62 0.94257,-5.49011 1.53377,-7.20738 1.53248,-7.20275 2.01522,-7.20275 0.54486,0 0.38869,1.61732 -0.56207,5.82083 -0.37852,1.67349 -0.80388,3.63802 -0.94526,4.36563 -0.44749,2.30296 -0.99329,3.24611 -1.45046,2.5064 z m -1.97996,-0.72396 c 0,-0.25659 0.34856,-2.07229 0.77458,-4.0349 1.56093,-7.19094 1.90545,-8.46317 2.29183,-8.46317 0.44216,0 0.48273,0.88665 0.11266,2.46253 -0.14328,0.61014 -0.68588,3.12606 -1.20579,5.59092 -0.5199,2.46486 -1.00501,4.57822 -1.07802,4.69635 -0.24719,0.39997 -0.89526,0.21774 -0.89526,-0.25173 z m -43.12709,-3.92191 c -0.50932,-0.22641 -3.72401,-1.54446 -7.14375,-2.929 -3.41974,-1.38454 -6.36653,-2.64082 -6.54843,-2.79173 -0.6753,-0.56025 -0.62033,-0.72394 3.55777,-10.59449 1.09335,-2.58299 2.12423,-4.71006 2.29085,-4.72682 1.00181,-0.10076 4.42997,1.19067 11.68002,4.4 3.50343,1.55084 3.70853,1.68308 3.78475,2.4403 0.046,0.45714 -0.35087,2.08738 -0.83368,3.14695 -0.57429,1.26032 -1.29434,3.35837 -1.75889,4.5953 -2.70571,7.20444 -2.47969,6.74153 -3.3246,6.80901 -0.4279,0.0342 -1.19471,-0.1231 -1.70404,-0.34952 z m 3.01702,-2.55694 c 3.82936,-9.95499 4.28918,-11.29973 4.06425,-11.88589 -0.0826,-0.21526 -1.62039,-1.00126 -3.41729,-1.74667 -1.79691,-0.74542 -4.27913,-1.79208 -5.51606,-2.32592 -3.71711,-1.60427 -5.62778,-2.26593 -5.86327,-2.03044 -0.47988,0.47989 -6.05093,14.18421 -5.84844,14.38669 0.37418,0.37419 14.46266,6.01684 15.06461,6.03362 0.48487,0.0135 0.72202,-0.36679 1.5162,-2.43139 z m -2.75243,-0.0264 c 0,-0.66573 3.85042,-11.19428 4.29621,-11.74751 0.38012,-0.47173 0.73036,-0.4086 0.73387,0.13229 0.004,0.54864 -3.93123,11.42613 -4.30692,11.90625 -0.40504,0.51763 -0.72316,0.38961 -0.72316,-0.29103 z m -2.64584,-1.0143 c 0,-0.50564 2.69647,-8.16246 3.82956,-10.87433 0.39932,-0.95569 1.19753,-1.36214 1.19753,-0.60979 0,0.4008 -3.14875,9.07105 -3.97209,10.93736 -0.53437,1.21128 -1.055,1.4811 -1.055,0.54676 z m -2.5034,-0.72879 c -0.21314,-0.34486 0.0369,-1.18741 1.57533,-5.30807 0.67912,-1.81901 1.47305,-4.02167 1.76429,-4.89479 0.60431,-1.81169 1.12681,-2.50843 1.55787,-2.07737 0.23985,0.23985 -1.65073,5.90922 -3.75586,11.26287 -0.35581,0.90488 -0.90737,1.3964 -1.14163,1.01736 z m -2.34627,-0.65569 c -0.28005,-0.72979 4.06999,-12.16208 4.67205,-12.27855 0.78818,-0.15248 0.67506,0.22658 -3.0406,10.18852 -0.77485,2.07743 -1.35237,2.81729 -1.63145,2.09003 z m -2.29408,-1.2733 c 0,-0.96212 4.27939,-12.11033 4.64871,-12.11033 0.57192,0 0.5885,0.61046 0.0539,1.98438 -0.28313,0.7276 -1.23185,3.28744 -2.10827,5.68854 -0.87642,2.40109 -1.7142,4.51445 -1.86172,4.69635 -0.41169,0.50763 -0.7326,0.3942 -0.7326,-0.25894 z m -2.25854,-0.26595 c -0.12181,-0.31743 2.16909,-7.14493 4.04085,-12.04282 0.13876,-0.3631 1.12811,-0.46267 1.12811,-0.11354 0,0.11946 -0.46481,1.51844 -1.03292,3.10886 -2.99722,8.39076 -3.75335,10.04478 -4.13604,9.0475 z m 84.71551,-7.14803 c -1.13834,-1.50796 -2.48942,-4.23776 -3.1101,-6.28385 -0.90563,-2.98546 -0.84963,-7.70596 0.13026,-10.98021 0.8644,-2.8883 2.10672,-5.58182 3.73646,-8.10114 0.67103,-1.03731 1.16031,-2.04171 1.08729,-2.232 -0.25374,-0.66124 -2.8951,-2.52555 -5.02863,-3.54927 -1.18041,-0.56639 -3.33323,-1.41206 -4.78403,-1.87925 -5.51424,-1.77573 -0.93881,-1.65395 -68.27051,-1.81722 l -61.11874,-0.1482 -0.0759,-2.27465 c -0.0538,-1.61475 0.0229,-2.35306 0.26458,-2.54493 0.33536,-0.26624 13.68902,-0.2133 106.91558,0.42389 31.80074,0.21735 34.91548,0.27673 35.35451,0.67405 0.2648,0.23964 0.92052,1.59176 1.45715,3.00471 1.65344,4.35351 0.90195,3.86235 6.24452,4.08128 7.36983,0.30201 10.73202,1.3864 15.13915,4.88276 2.50298,1.98571 6.54724,6.01937 6.54724,6.53008 0,0.92373 -3.93032,2.89264 -7.04022,3.52684 -1.75688,0.35828 -2.3966,0.37392 -4.19703,0.10266 -2.66017,-0.40079 -6.09647,-1.53352 -8.84593,-2.91592 -1.16403,-0.58526 -2.2859,-0.99909 -2.49303,-0.9196 -0.27437,0.10528 -0.42454,0.87641 -0.55322,2.84084 -0.23453,3.58042 -0.83386,6.78954 -1.58534,8.48877 -0.33714,0.76233 -1.36134,2.2712 -2.27601,3.35305 -2.29647,2.7162 -6.13569,6.59721 -6.52618,6.59721 -0.17753,0 -0.61489,-0.38695 -0.97191,-0.8599 z m 4.22036,-3.0055 c 3.7171,-3.7389 4.40122,-4.66477 5.23741,-6.65147 0.69567,-1.65284 1.48318,-6.70922 1.48318,-9.52309 0,-1.21479 0.0831,-1.44051 0.62065,-1.68542 0.51682,-0.23548 0.92626,-0.12935 2.4474,0.63437 4.47422,2.24639 9.55119,3.60388 12.27286,3.28154 2.79978,-0.33159 7.41326,-2.4091 7.41326,-3.33828 0,-0.26943 -1.04185,-1.47892 -2.3265,-2.70083 -6.97335,-6.63281 -9.69996,-7.84329 -18.17871,-8.07043 -2.47386,-0.0663 -4.76096,-0.17547 -5.08246,-0.24266 -0.46642,-0.0975 -0.71674,-0.54066 -1.23876,-2.19316 -0.35983,-1.13905 -0.93194,-2.65605 -1.27136,-3.37111 -0.59533,-1.25418 -0.66373,-1.30547 -1.93623,-1.45208 -0.72551,-0.0836 -9.71301,-0.19997 -19.97223,-0.25862 -10.25922,-0.0587 -19.66516,-0.1125 -20.90209,-0.11967 -1.23692,-0.007 -13.55989,-0.10104 -27.38437,-0.2086 -13.82448,-0.10757 -35.75448,-0.25299 -48.73334,-0.32317 l -23.59792,-0.1276 -0.18476,1.23206 c -0.10161,0.67764 -0.0763,1.54062 0.0564,1.91774 l 0.24113,0.68567 60.7155,0.13564 c 56.49304,0.1262 60.89032,0.16803 63.22906,0.60153 5.12581,0.9501 10.94515,3.28178 13.77675,5.52003 1.78473,1.41074 1.84739,1.83025 0.54853,3.67203 -1.8885,2.6779 -3.59632,6.70118 -4.51099,10.627 -0.55463,2.38052 -0.35847,5.91793 0.47452,8.55675 1.02443,3.24534 2.75926,6.39289 3.53525,6.39289 0.1674,0 0.38915,-0.0955 1.98075,-1.69645 z m -65.90754,-1.4605 c -1.74625,-0.11758 -4.98135,-0.30966 -7.18912,-0.42685 -5.10635,-0.27103 -5.05683,-0.23642 -4.92131,-3.43969 0.0539,-1.27432 0.26963,-4.75772 0.47936,-7.74089 0.29662,-4.21898 0.47051,-5.48955 0.78274,-5.71922 0.42683,-0.31395 2.36086,-0.26922 6.87958,0.15914 1.45521,0.13794 4.15902,0.32601 6.00847,0.41792 2.26868,0.11274 3.47182,0.21186 3.66542,0.44514 0.1958,0.23593 0.24644,2.86569 0.19341,8.13313 -0.0734,7.28754 -0.10646,7.74064 -0.5913,8.09489 -0.28248,0.20638 -0.87779,0.35611 -1.32292,0.33272 -0.44513,-0.0234 -2.23808,-0.13872 -3.98433,-0.25629 z m 5.13851,-0.72053 c 0.28125,-0.52551 0.4462,-14.64609 0.1762,-15.08296 -0.0865,-0.13999 -1.19866,-0.32542 -2.47142,-0.41208 -1.27277,-0.0866 -3.86193,-0.27391 -5.7537,-0.41613 -7.97959,-0.59988 -7.48799,-0.59554 -7.77,-0.0686 -0.14211,0.26554 -0.44988,3.68513 -0.68393,7.59907 -0.38022,6.35834 -0.38283,7.15898 -0.0245,7.5173 0.29672,0.29672 1.38267,0.45814 4.17515,0.62062 2.07577,0.12077 4.90522,0.31727 6.28766,0.43667 4.57773,0.39536 5.7696,0.35725 6.06455,-0.19388 z m -4.62308,-0.85496 c -0.24786,-0.40105 0.25283,-12.87277 0.52783,-13.14777 0.0685,-0.0685 0.3257,-0.0474 0.57154,0.047 0.3895,0.14947 0.42507,0.45148 0.27655,2.34779 -0.0937,1.19695 -0.23781,3.90267 -0.32013,6.01272 -0.0823,2.11006 -0.2039,4.10435 -0.27018,4.43177 -0.12859,0.63533 -0.49475,0.77912 -0.78561,0.30851 z m 2.00475,-0.10021 c -0.16508,-0.38043 0.022,-2.7258 0.49207,-10.3076 0.15547,-2.50732 0.52257,-3.43765 0.93371,-2.36625 0.18397,0.47941 -0.3234,12.50023 -0.54257,12.85485 -0.21334,0.34519 -0.63221,0.39744 -0.88321,-0.181 z m -6.37646,-0.0502 c -0.33065,-0.43508 0.18354,-12.13674 0.57089,-13.03061 0.58102,-1.3408 0.85669,-0.21691 0.80746,1.87989 -0.0887,3.78039 -0.5761,11.00991 -0.77627,11.21612 -0.11192,0.11531 -0.45915,0.12269 -0.60208,-0.0654 z m -2.27737,-0.51909 c -0.0994,-0.25915 -0.0391,-2.20381 0.13407,-4.32148 0.17318,-2.11767 0.31402,-4.76331 0.31296,-5.87919 -0.002,-2.28058 0.14307,-2.86591 0.71108,-2.86591 0.33947,0 0.36597,0.71552 0.19845,5.35781 -0.10634,2.9468 -0.26562,5.94339 -0.35396,6.65908 -0.16536,1.33976 -0.68323,1.88195 -1.0026,1.04969 z m 4.4177,-1.49106 c 0.007,-3.40366 0.47977,-11.22721 0.77247,-11.39933 0.96079,-0.56498 0.78982,1.14813 0.49789,7.04125 -0.16941,3.41974 -0.19238,5.86989 -0.44401,6.21016 -0.02,0.0364 -0.21503,0.0661 -0.43331,0.0661 -0.31664,0 -0.3961,-0.38782 -0.39304,-1.91823 z m -6.39941,1.3341 c -0.0609,-0.18805 -0.0209,-3.06235 0.089,-6.38734 0.19441,-5.88317 0.38495,-7.0439 1.08527,-6.61109 0.27671,0.17102 0.071,8.19851 -0.29675,11.57735 -0.15865,1.4579 -0.62233,2.20878 -0.87752,1.42108 z m -2.26747,-0.14219 c -0.2276,-0.36827 0.43741,-12.23916 0.71041,-12.76743 0.51325,-0.99317 0.66966,0.20291 0.58183,4.4493 -0.11845,5.72711 -0.26972,8.42279 -0.6654,8.55372 -0.16856,0.0558 -0.52905,-0.0773 -0.62684,-0.23559 z m -21.4177,-0.39816 c -0.65171,-1.00695 -5.40464,-14.26727 -5.32071,-14.8444 0.0641,-0.44096 0.74758,-0.79245 3.51916,-1.80983 1.89177,-0.69443 4.45162,-1.63452 5.68854,-2.0891 1.23693,-0.45458 3.17188,-1.13671 4.29989,-1.51584 2.43336,-0.81787 2.59026,-0.74065 3.52126,1.73306 0.31601,0.83965 1.54303,3.82707 2.72671,6.63873 1.18368,2.81165 2.15214,5.32715 2.15214,5.58999 0,0.26285 -0.14883,0.59853 -0.33073,0.74595 -0.1819,0.14742 -2.35479,1.04558 -4.82864,1.99592 -10.69379,4.10802 -11.00697,4.20546 -11.42762,3.55552 z m 4.54845,-1.48763 c 7.07686,-2.62715 10.85783,-4.09587 11.17865,-4.34234 0.52666,-0.40462 0.42225,-0.8057 -1.2775,-4.90741 -3.54886,-8.56385 -4.01477,-9.56939 -4.43389,-9.56939 -0.37383,0 -4.18998,1.32758 -8.77455,3.05253 -0.94589,0.3559 -2.67229,0.98456 -3.83646,1.39704 -1.30953,0.46398 -2.14774,0.91081 -2.19814,1.17178 -0.0708,0.36666 0.97725,3.44081 3.31539,9.72448 0.35197,0.94589 0.88058,2.4044 1.1747,3.24115 0.36304,1.03283 0.67564,1.51937 0.97349,1.51519 0.2413,-0.003 1.98654,-0.58075 3.87831,-1.28303 z m -2.88364,-0.78414 c -0.34568,-0.55932 -2.1226,-4.87464 -3.3751,-8.19652 -0.97147,-2.57655 -1.25581,-3.62038 -1.04393,-3.83227 0.18296,-0.18296 0.37843,-0.19778 0.52584,-0.0399 0.2862,0.30661 4.46735,10.89756 4.57989,11.60099 0.0855,0.53469 -0.42878,0.88497 -0.6867,0.46766 z m 1.59884,-2.22615 c -1.65064,-3.99715 -3.87457,-9.93062 -3.87457,-10.33738 0,-0.70105 0.67476,-0.51813 1.04476,0.28322 0.87604,1.89729 4.2469,10.8129 4.2469,11.23265 0,1.02961 -0.76951,0.38967 -1.41709,-1.17849 z m 2.61299,0 c -1.08056,-2.42575 -4.10631,-10.38384 -4.10631,-10.80008 0,-0.61888 0.39776,-0.86233 0.7218,-0.44179 0.13893,0.18029 0.94334,2.11375 1.78759,4.29656 0.84425,2.18281 1.81564,4.67389 2.15864,5.53572 0.343,0.86184 0.62363,1.72504 0.62363,1.91823 0,0.68512 -0.80804,0.33839 -1.18535,-0.50864 z m 2.12864,-1.40914 c -0.36197,-0.81847 -0.6787,-1.54287 -0.6787,-1.59407 0,-0.0512 -0.71438,-1.89444 -1.5875,-4.09606 -1.50159,-3.78632 -1.88316,-5.27 -1.35532,-5.27 0.1277,0 0.34677,0.14883 0.4868,0.33073 0.33252,0.43192 4.57268,11.35443 4.57268,11.77906 0,0.1791 -0.18009,0.32563 -0.40021,0.32563 -0.23178,0 -0.6566,-0.61344 -1.03775,-1.47529 z m 2.56776,0.35081 c -0.53781,-0.68966 -4.59023,-11.40414 -4.45074,-11.76764 0.0804,-0.20958 0.29481,-0.33152 0.47641,-0.27099 0.39162,0.13054 5.01501,11.80365 4.80785,12.13884 -0.20135,0.32579 -0.53234,0.286 -0.83352,-0.10021 z m 2.38983,-0.79375 c -0.45058,-0.59768 -4.57796,-11.14193 -4.57796,-11.69534 0,-0.84494 0.72386,-0.36423 1.27606,0.84742 1.10609,2.42701 4.01561,10.15292 4.01561,10.66302 0,0.58606 -0.34408,0.6752 -0.71371,0.1849 z m 34.19178,3.41221 c -0.45694,-0.33412 -0.53842,-0.8451 -0.70831,-4.4415 -0.10559,-2.23516 -0.276,-5.80268 -0.3787,-7.92781 -0.1447,-2.99437 -0.11135,-3.91045 0.14822,-4.07087 0.18422,-0.11385 1.36192,-0.25445 2.6171,-0.31244 1.25519,-0.058 4.41652,-0.22039 7.02519,-0.36089 7.22113,-0.38894 6.94053,-0.4123 7.26052,0.60443 0.14885,0.47294 0.46729,3.00302 0.70765,5.62239 0.24036,2.61938 0.53253,5.77453 0.64926,7.01146 0.31977,3.38815 2.75176,2.97945 -9.12713,3.70745 -2.32854,0.1427 -5.60989,0.44615 -6.55703,0.52304 -1.25487,0.10189 -1.26051,-0.0801 -1.63677,-0.35526 z m 10.68458,-0.83024 c 3.2617,-0.20905 6.03032,-0.48004 6.15248,-0.6022 0.12216,-0.12216 0.0388,-2.12075 -0.18526,-4.4413 -0.22406,-2.32056 -0.51023,-5.52889 -0.63595,-7.12962 -0.12571,-1.60072 -0.31961,-3.13669 -0.43088,-3.41326 -0.22005,-0.54694 0.56576,-0.55144 -12.47204,0.0714 -1.92136,0.0918 -3.61815,0.29205 -3.77065,0.44503 -0.19199,0.1926 -0.19664,1.45388 -0.0151,4.10104 0.14418,2.10259 0.33921,5.37071 0.43342,7.26248 0.0942,1.89177 0.28526,3.66109 0.42459,3.93182 0.22717,0.44143 0.47606,0.47482 2.41118,0.32349 1.18683,-0.0928 4.82653,-0.3398 8.08823,-0.54886 z m -9.06282,-0.59759 c -0.17739,-0.29097 -0.40968,-3.16226 -0.57259,-7.07761 -0.0787,-1.89177 -0.20823,-3.98372 -0.28783,-4.64878 -0.10807,-0.90286 -0.0407,-1.29556 0.26604,-1.55011 0.34778,-0.28863 0.4454,-0.24521 0.63653,0.28315 0.28341,0.78343 0.92917,12.57106 0.70826,12.92849 -0.19236,0.31125 -0.57978,0.34474 -0.75041,0.0649 z m 2.08833,-0.52142 c -0.17623,-0.45923 -0.65418,-8.69815 -0.66813,-11.51713 -0.006,-1.17061 0.0828,-1.52135 0.3843,-1.52135 0.21551,0 0.44411,0.26789 0.508,0.59531 0.23808,1.22003 0.73975,12.33553 0.56919,12.6115 -0.26027,0.42113 -0.59437,0.35024 -0.79336,-0.16833 z m 2.30788,0.13575 c -0.35389,-0.42921 -0.37602,-1.80076 -0.77069,-9.80079 -0.14581,-2.95569 -0.11513,-3.37344 0.24774,-3.37344 0.22779,0 0.4799,0.20836 0.56023,0.46302 0.26454,0.83857 0.77535,12.69326 0.50545,12.8656 -0.33468,0.21371 -0.38922,0.0318 -0.54273,-0.15439 z m 2.07038,-0.42408 c -0.38283,-0.71532 -0.94003,-12.47196 -0.60689,-12.8051 0.73571,-0.73571 0.80209,-0.22902 1.28106,9.77839 0.11903,2.48704 0.0827,3.50573 -0.12501,3.50573 -0.16104,0 -0.40816,-0.21556 -0.54916,-0.47902 z m 2.17692,0.14829 c -0.21506,-0.32643 -0.28956,-1.81901 -0.38835,-3.63802 -0.0988,-1.81901 -0.26823,-4.70628 -0.37653,-6.41615 -0.17838,-2.81621 -0.15496,-3.10885 0.24874,-3.10885 0.24511,0 0.49956,0.14882 0.56543,0.33073 0.17904,0.49434 0.84341,12.449 0.71315,12.83229 -0.0618,0.1819 -0.21169,0.33073 -0.33306,0.33073 -0.12136,0 -0.31105,-0.15111 -0.42938,-0.33073 z m 2.0312,-0.59103 c -0.14641,-0.38511 -0.26621,-1.52345 -0.26621,-2.52965 0,-1.0062 -0.13134,-3.62936 -0.29187,-5.82924 -0.21277,-2.9158 -0.2417,-4.11242 0,-4.29165 0.95852,-0.71077 0.85419,0.31834 1.12049,4.99703 0.40968,7.19782 0.41422,8.10732 0.0329,8.23956 -0.181,0.0628 -0.44889,-0.20095 -0.59531,-0.58605 z m 2.29387,0.4679 c -0.0738,-0.11947 -0.33084,-3.05863 -0.57112,-6.53146 -0.43704,-6.3165 -0.36849,-7.37504 0.42616,-6.5804 0.55482,0.55483 1.21356,13.09308 0.69109,13.26871 -0.16857,0.0567 -0.47229,-0.0377 -0.54613,-0.15685 z M 284.04979,132.53534 c -0.26467,-0.6897 0.60057,-6.42223 1.50743,-9.98726 1.29958,-5.10894 3.60329,-10.67751 5.83816,-14.11213 l 1.05819,-1.62627 4.90523,0.091 c 4.92572,0.0914 8.85744,-0.077 16.36628,-0.87425 6.56534,-0.69714 12.85459,-1.74994 14.16344,-2.45042 0.79801,-0.42708 1.07784,-1.32792 0.63145,-2.03283 -0.25985,-0.41033 -0.719,-0.56904 -0.41147,-0.76804 1.11101,-0.61458 1.46042,2.10022 0.74412,2.873 -0.64164,0.69224 -4.88569,1.54316 -8.77655,2.13849 -7.79289,1.19235 -16.60262,1.85448 -22.57016,1.69633 l -4.84308,-0.12834 -0.95596,1.48608 c -1.01608,1.57953 -2.73965,5.12973 -3.86852,7.96838 -1.05284,2.64746 -1.95677,5.99238 -2.68518,9.93627 -0.70481,3.81609 -0.81598,5.28412 -0.41874,5.52963 0.40512,0.25038 5.0048,-0.64566 7.00969,-1.36553 2.37781,-0.85375 4.6358,-1.98652 6.55546,-3.28867 1.75988,-1.19377 2.75546,-1.29648 3.83067,-0.3952 0.97982,0.82132 5.18574,3.1384 6.70103,3.69166 0.65484,0.2391 2.44078,0.68681 3.96875,0.99492 3.20277,0.64584 5.35101,0.58212 9.12812,-0.27073 1.30969,-0.29572 2.97656,-0.66771 3.70417,-0.82664 1.34144,-0.29302 5.58293,-1.5967 7.27604,-2.2364 0.50932,-0.19243 2.01439,-0.78192 3.34459,-1.30996 3.31119,-1.31444 3.90823,-1.2939 7.10645,0.24448 4.953,2.38243 7.42952,3.33985 11.07757,4.28259 3.01105,0.77812 3.74066,0.73188 7.42471,-0.47057 2.20308,-0.71907 8.60664,-3.85271 10.21875,-5.00064 1.34919,-0.9607 1.82698,-0.90328 4.89827,0.5887 5.27504,2.56252 8.91681,3.84359 13.81959,4.86136 2.86919,0.59561 3.72899,0.6717 5.87465,0.51993 1.38245,-0.0978 3.28745,-0.34005 4.23334,-0.53835 1.63312,-0.34238 5.9168,-1.83319 6.48229,-2.25597 0.14552,-0.1088 1.09802,-0.63533 2.11667,-1.17007 1.01864,-0.53475 2.25664,-1.26209 2.7511,-1.61633 1.10141,-0.78906 2.11736,-0.82213 2.89853,-0.0944 2.15632,2.00892 5.6492,4.23675 7.2488,4.62343 0.87216,0.21084 0.97446,-0.29016 0.28836,-1.41213 -1.26026,-2.06089 -1.72671,-2.7859 -3.35595,-5.21622 -3.2278,-4.81487 -4.43777,-6.35178 -8.50793,-10.80682 -3.61292,-3.95457 -6.81774,-6.78575 -12.43541,-10.98561 -5.00846,-3.744413 -14.2835,-8.602543 -20.7698,-10.878917 -3.92457,-1.377333 -9.67339,-3.030399 -12.03854,-3.461662 -0.7276,-0.132672 -2.27542,-0.426541 -3.43958,-0.653042 -3.57264,-0.695095 -7.25453,-1.155967 -10.71563,-1.341307 -1.99256,-0.106701 -4.12895,-0.306642 -4.52747,-0.526283 -0.6265,-0.345297 -0.0398,-0.373274 1.08789,-0.253709 0.65484,0.06943 2.32172,0.195857 3.70417,0.280949 8.89253,0.54735 19.71703,2.986015 28.80222,6.488886 3.6087,1.391363 10.76422,5.085445 14.54917,7.511095 9.68315,6.20561 18.53876,14.88977 24.57301,24.09726 0.95369,1.45521 1.94122,2.94886 2.19451,3.31923 0.25329,0.37037 0.91183,1.53492 1.46343,2.58789 1.31566,2.51152 1.09197,2.78849 -1.44745,1.79218 -2.09168,-0.82064 -4.31727,-2.19336 -6.18796,-3.81665 -1.45512,-1.26268 -2.04778,-1.35389 -3.20008,-0.4925 -2.61542,1.95512 -8.30203,4.39742 -11.7711,5.0555 -6.50122,1.23326 -13.88822,-0.19864 -22.85149,-4.42953 -1.71171,-0.80798 -3.35244,-1.54529 -3.64606,-1.63848 -0.37525,-0.1191 -1.4158,0.33284 -3.50238,1.52118 -2.85488,1.6259 -7.36965,3.73324 -9.58312,4.47306 -0.63822,0.21332 -2.16112,0.34478 -3.83645,0.33116 -2.55532,-0.0208 -3.02835,-0.11111 -5.89793,-1.12642 -1.71589,-0.60711 -4.90047,-1.93513 -7.07684,-2.95117 -2.17637,-1.01603 -4.16574,-1.84692 -4.42082,-1.84642 -0.25509,5.3e-4 -1.35676,0.36932 -2.44816,0.8196 -2.82075,1.16377 -9.35037,3.26854 -13.22917,4.26432 -3.08172,0.79115 -3.60505,0.84839 -7.67292,0.83922 -4.02596,-0.009 -4.52515,-0.0647 -6.41607,-0.71529 -2.40867,-0.8287 -6.15481,-2.71749 -7.94839,-4.00754 -1.39851,-1.00589 -1.5618,-0.99651 -3.31327,0.19051 -1.89971,1.28749 -6.44878,3.33731 -8.67126,3.90729 -1.15154,0.29532 -2.95404,0.61031 -4.00555,0.69996 -1.70306,0.14521 -1.93237,0.10951 -2.09983,-0.3269 z m 44.29147,-14.05636 c -0.25466,-0.14833 -0.64223,-0.72561 -0.86492,-1.15626 -0.49923,-0.96538 -0.26662,-1.48688 1.3753,-3.08344 0.63045,-0.61304 1.14627,-1.24483 1.14627,-1.40398 0,-0.15916 -0.59531,-0.86016 -1.32291,-1.55777 -1.30751,-1.25363 -1.57714,-1.96474 -1.15857,-3.05554 0.16701,-0.43522 1.41687,-1.20248 1.95882,-1.20248 0.16355,0 1.00091,0.67107 1.8608,1.49127 1.76532,1.68382 1.63257,1.6967 3.59411,-0.34865 0.64387,-0.67138 1.33677,-1.14262 1.68011,-1.14262 0.68431,0 2.38348,1.59841 2.38348,2.24214 0,0.24364 -0.65485,1.12951 -1.45521,1.96861 -0.80037,0.8391 -1.45521,1.62317 -1.45521,1.74238 0,0.1192 0.65484,0.90327 1.45521,1.74237 0.80036,0.8391 1.45521,1.68971 1.45521,1.89025 0,0.57822 -1.68443,2.05592 -2.34354,2.05592 -0.35537,0 -1.16686,-0.53748 -1.99735,-1.32292 -0.76933,-0.7276 -1.50634,-1.32108 -1.6378,-1.31883 -0.13146,0.002 -0.88767,0.59755 -1.68047,1.32291 -1.43536,1.31327 -2.11243,1.64972 -2.99333,1.13664 z m 2.72604,-1.55795 c 1.88675,-1.93699 1.8953,-1.93751 3.68982,-0.22582 1.31251,1.25192 1.68161,1.47138 2.23928,1.33141 0.36726,-0.0922 0.86333,-0.46611 1.1024,-0.83097 0.42869,-0.65426 0.4142,-0.68483 -1.05499,-2.22512 -0.81931,-0.85895 -1.48965,-1.76817 -1.48965,-2.02048 0,-0.2523 0.65485,-1.14527 1.45521,-1.98437 0.80037,-0.8391 1.45521,-1.63615 1.45521,-1.77122 0,-0.42673 -1.27907,-1.64578 -1.7268,-1.64578 -0.23603,0 -1.11569,0.65484 -1.95479,1.45521 -0.83909,0.80036 -1.6611,1.45521 -1.82668,1.45521 -0.16559,0 -0.9559,-0.65485 -1.75627,-1.45521 -0.80036,-0.80037 -1.59895,-1.45521 -1.77464,-1.45521 -0.53601,0 -1.54415,1.11623 -1.54415,1.70971 0,0.32084 0.56381,1.11447 1.32291,1.86216 0.72761,0.71667 1.32292,1.49885 1.32292,1.7382 0,0.23934 -0.57531,1.01772 -1.27846,1.72973 -1.59557,1.61567 -1.74229,2.00899 -1.0688,2.86519 0.78154,0.99356 1.53653,0.8543 2.88748,-0.53264 z"
         id="path187"
         sodipodi:nodetypes="sssssssssssssssssssssssssscscsssssssssssssssscssssssssssssssssssssscssssssssscccsssssssssssssscssccsssssssscsssssccssssssssssssssssssssscsssssssssssscssssssssssssssssssssssssssssscsssssssccsssssssssssssssccsssssssssssssccsscsccssssssssssssssssssssssscssssssssssccssssssssssscsscscsssccsscsccscssscssscssssssssscsssssssssscscssccccsssssssssssssssssssssssssssssssssssssssssscssssssssssccssssssssscssssssssssssssssssscsssssssssscsssccsscscsscssscsssssssssssssssssssssssscsssssssssssssssssssssssssssscssccssssccscssssssssssssssscsssssssssssssssssssss" /><path
         style="fill:#2b525d;stroke-width:0.264583"
         d="m 370.61145,194.44317 c -3.34697,-2.68957 -6.30742,-5.11174 -6.57877,-5.3826 -0.48129,-0.48042 -0.36479,-0.64293 4.7625,-6.64326 2.89072,-3.38293 5.56468,-6.51448 5.94212,-6.95899 l 0.68627,-0.80821 3.90976,3.29251 c 2.15036,1.81089 4.87763,4.10328 6.0606,5.09421 1.18298,0.99093 2.43711,2.08356 2.78698,2.42807 l 0.63613,0.62639 -1.15192,1.40838 c -0.63355,0.77461 -2.05388,2.42042 -3.15629,3.65734 -1.1024,1.23693 -2.70948,3.0824 -3.57129,4.10105 -2.25699,2.66776 -3.64895,4.10293 -3.96503,4.08813 -0.1516,-0.007 -3.01408,-2.21346 -6.36106,-4.90302 z m 11.94549,-1.57431 c 2.74332,-3.13307 5.09543,-5.93123 5.22691,-6.21813 0.30803,-0.67215 0.0237,-0.98628 -3.79688,-4.19494 -1.66575,-1.39896 -4.047,-3.40643 -5.29166,-4.46104 -1.24466,-1.0546 -2.55421,-1.99609 -2.91011,-2.09219 -0.80763,-0.21809 -0.72928,-0.30147 -9.44823,10.05609 -2.36649,2.81124 -2.45356,2.49364 1.5701,5.72753 7.96661,6.40291 8.60482,6.87917 9.21845,6.87917 0.24686,0 2.65551,-2.5262 5.43142,-5.69649 z m 22.71493,5.41688 c -0.58208,-0.12189 -2.42755,-0.51995 -4.10104,-0.88456 -1.67349,-0.36462 -4.76911,-1.03071 -6.87917,-1.48019 -5.63193,-1.19972 -5.8713,-1.27524 -5.70974,-1.80123 0.0759,-0.24706 0.49815,-2.11608 0.93837,-4.15337 0.44023,-2.03729 1.04032,-4.7162 1.33354,-5.95313 0.29323,-1.23692 0.72225,-3.14192 0.9534,-4.23333 0.23114,-1.09141 0.51478,-2.08475 0.63031,-2.20744 0.19985,-0.21223 2.39856,0.12583 4.10308,0.63085 0.43656,0.12935 2.16297,0.54333 3.83646,0.91994 1.67349,0.37662 3.75708,0.84844 4.63021,1.04849 0.87312,0.20004 2.26249,0.50816 3.08747,0.68472 0.82499,0.17654 1.6332,0.40333 1.79603,0.50396 0.21101,0.13042 0.064,1.39258 -0.51202,4.39445 -0.91566,4.77231 -1.75096,9.26212 -2.0141,10.82607 -0.19712,1.17153 -0.55522,1.99986 -0.84534,1.95539 -0.10402,-0.016 -0.66537,-0.12872 -1.24746,-0.25062 z m 1.4566,-1.10945 c 0.14004,-0.32743 0.56046,-2.26219 0.93426,-4.29948 1.92192,-10.47481 1.96221,-10.8277 1.27779,-11.19045 -0.2715,-0.14391 -2.39865,-0.69648 -4.72698,-1.22793 -2.32833,-0.53145 -5.24537,-1.20978 -6.48229,-1.50739 -1.23693,-0.29761 -2.85979,-0.60524 -3.60637,-0.68361 -1.35421,-0.14216 -1.35805,-0.14039 -1.6318,0.75115 -0.46314,1.50835 -2.11402,8.66241 -2.72842,11.82363 -0.50406,2.59342 -0.53122,3.04289 -0.20366,3.37045 0.20787,0.20787 1.8038,0.67202 3.54649,1.03144 3.26998,0.67442 5.33939,1.12876 8.98938,1.97364 3.08542,0.7142 4.31309,0.70321 4.6316,-0.0414 z m -57.15139,-7.52752 c -0.21828,-0.079 -0.75406,-0.30376 -1.19063,-0.49956 -0.77168,-0.34612 -5.63274,-2.33218 -11.7301,-4.79252 -1.64937,-0.66554 -3.0542,-1.3543 -3.12184,-1.53058 -0.10715,-0.27921 6.0758,-15.56726 6.49831,-16.06782 0.0879,-0.10414 1.46276,0.33435 3.05523,0.97441 1.95049,0.78396 3.02847,1.08947 3.30315,0.93614 0.32603,-0.18198 0.47058,-1.22573 0.7212,-5.20774 0.17239,-2.73907 0.39932,-6.32612 0.50427,-7.97121 l 0.19083,-2.99108 3.19989,0.11094 c 4.45194,0.15436 12.51124,0.70085 13.78323,0.93463 l 1.05833,0.19451 -0.0932,8.58875 c -0.0512,4.72381 -0.1703,8.66356 -0.26459,8.755 -0.0943,0.0914 -1.6597,0.0564 -3.47871,-0.0779 -1.81901,-0.13429 -4.67319,-0.26864 -6.34262,-0.29855 -2.66735,-0.0478 -3.04625,-3e-5 -3.12542,0.39393 -0.0671,0.3341 0.45335,0.7021 2.04314,1.44456 1.17327,0.54794 2.13323,1.08549 2.13323,1.19455 0,0.28828 -2.49751,7.09103 -4.88902,13.31675 -0.33539,0.87313 -0.69028,1.85539 -0.78864,2.18281 -0.17313,0.57633 -0.64298,0.70772 -1.46609,0.40999 z m 2.01011,-2.98967 c 0.46804,-1.23693 1.23107,-3.26099 1.69561,-4.49792 0.46455,-1.23693 1.15437,-3.30743 1.65722,-4.59792 1.43684,-3.68749 1.56876,-3.62855 -2.91656,-5.61606 -5.92528,-2.62558 -11.16018,-4.52706 -11.60022,-4.3582 -0.22147,0.085 -1.22404,2.16613 -2.31246,4.73754 -4.16803,9.84696 -4.22387,10.01334 -3.5488,10.5734 0.1819,0.15091 3.12869,1.40719 6.54843,2.79173 3.41974,1.38454 6.63443,2.70259 7.14375,2.929 0.50933,0.22642 1.27614,0.3837 1.70404,0.34952 0.71868,-0.0574 0.84289,-0.23362 1.62899,-2.31109 z m 13.52407,-16.66875 c 0.16075,0 0.48553,-15.4268 0.0101,-15.81718 -0.1819,-0.14936 -1.81901,-0.34701 -3.63802,-0.43923 -1.81901,-0.0922 -4.49791,-0.28002 -5.95312,-0.41733 -4.5297,-0.42741 -6.45323,-0.47159 -6.87959,-0.15798 -0.31222,0.22967 -0.48612,1.50024 -0.78274,5.71922 -0.20973,2.98317 -0.42544,6.46657 -0.47936,7.74089 -0.13552,3.20327 -0.18504,3.16866 4.92131,3.43969 2.20777,0.11719 5.44288,0.31195 7.18913,0.43279 4.73184,0.32746 5.21707,0.28416 5.6123,-0.50087 z m 55.31183,4.70738 c -1.24431,-1.50946 -2.222,-4.09082 -2.83118,-6.36405 -1.41406,-5.27673 -0.031,-12.5624 3.41068,-17.96634 1.89353,-2.97314 1.86543,-2.8106 0.66635,-3.8549 -1.42379,-1.24001 -5.52878,-3.26928 -8.60072,-4.25169 -5.3827,-1.72141 -1.94845,-1.63915 -68.43546,-1.63915 -51.6007,0 -60.38076,-0.0541 -60.8202,-0.37469 -0.42537,-0.31033 -0.53632,-0.79892 -0.64589,-2.84427 -0.13092,-2.44405 -0.13963,-2.47043 -0.84195,-2.55157 -0.66587,-0.12993 0.25244,0.188 -1.36309,-0.27848 -0.24551,-0.20376 -3.85899,-0.29799 -11.86734,-0.30946 -6.33288,-0.009 -11.85926,-0.10959 -12.28084,-0.22339 -0.74397,-0.20081 -0.72371,-0.22101 0.68869,-0.68645 0.80037,-0.26376 2.66538,-1.00676 4.14448,-1.65113 2.22331,-0.96857 2.93715,-1.43197 4.11992,-2.6745 0.78686,-0.82662 1.64917,-1.83794 1.91625,-2.24738 l 0.4856,-0.74444 1.4799,1.4417 c 2.51872,2.45373 5.41366,4.1993 8.58536,5.17675 2.23609,0.68911 2.30421,0.26971 3.22856,0.26775 0.73817,0.0331 0.46191,0.0167 1.10251,0.0266 0.71828,0 1.12905,-0.84396 1.13518,-2.33233 0.006,-1.36241 0.93278,-6.32419 1.72655,-9.23976 1.28036,-4.70281 3.77014,-10.43226 5.8885,-13.55055 l 0.97989,-1.44244 6.79442,0.0748 c 3.73693,0.0412 7.90412,-0.0524 9.26041,-0.20801 1.3563,-0.15557 4.1924,-0.46689 6.30245,-0.69181 6.47342,-0.69004 12.03385,-1.79684 13.11636,-2.49073 0.87723,-0.56231 -0.54376,-0.92276 -0.37435,-1.63298 l 0.0433,-0.18157 0.69016,-0.32389 c 0.67591,-0.31719 1.24587,1.69635 -0.0242,2.52854 -2.48612,1.62897 -21.40016,3.77194 -30.83436,3.4937 l -4.81541,-0.14201 -1.05819,1.62627 c -2.23487,3.43462 -4.53857,9.00319 -5.83816,14.11213 -0.90686,3.56503 -1.7721,9.29756 -1.50743,9.98726 0.16746,0.43641 0.39677,0.47211 2.09983,0.3269 1.05152,-0.0897 2.85401,-0.40464 4.00555,-0.69996 2.22248,-0.56998 6.77156,-2.6198 8.67126,-3.90729 1.75147,-1.18702 1.91476,-1.1964 3.31328,-0.19051 1.79357,1.29005 5.53972,3.17884 7.94838,4.00754 1.89092,0.65056 2.39011,0.70621 6.41607,0.71529 4.06787,0.009 4.5912,-0.0481 7.67292,-0.83922 3.8788,-0.99578 10.40842,-3.10055 13.22917,-4.26432 1.0914,-0.45028 2.19307,-0.8191 2.44816,-0.8196 0.25508,-5.3e-4 2.24445,0.83039 4.42082,1.84642 2.17637,1.01604 5.36095,2.34406 7.07684,2.95117 2.86958,1.01531 3.34261,1.10565 5.89793,1.12642 1.67533,0.0136 3.19823,-0.11784 3.83645,-0.33116 2.21347,-0.73982 6.72824,-2.84716 9.58312,-4.47306 2.08658,-1.18834 3.12713,-1.64028 3.50238,-1.52118 0.29362,0.0932 1.93435,0.8305 3.64606,1.63848 8.96327,4.23089 16.35027,5.66279 22.85149,4.42953 3.46907,-0.65808 9.15568,-3.10038 11.7711,-5.0555 1.1523,-0.86139 1.74496,-0.77018 3.20008,0.4925 1.87069,1.62329 4.09628,2.99601 6.18796,3.81665 2.53942,0.99631 2.76311,0.71934 1.44745,-1.79218 -0.5516,-1.05297 -1.21014,-2.21752 -1.46343,-2.58789 -0.25329,-0.37037 -1.24082,-1.86402 -2.19451,-3.31923 -6.03425,-9.20749 -14.88986,-17.89165 -24.57301,-24.09726 -3.78495,-2.42565 -10.94047,-6.119732 -14.54917,-7.511095 -9.22924,-3.558412 -19.90182,-5.852954 -29.0805,-6.40625 -1.60073,-0.09649 -4.44976,-0.263475 -4.74091,-0.387979 l -1.46311,-0.62567 1.5875,0.141058 c 0.87313,0.07758 3.08256,0.162456 4.90157,0.300059 8.59029,0.649832 16.24765,2.3107 24.73177,5.157861 3.55062,1.191543 10.14206,3.975681 12.38717,5.232181 8.92789,4.996585 14.1019,8.775805 20.17077,14.733165 5.76195,5.65609 12.11614,14.11718 15.22776,20.27695 0.99409,1.96788 1.07303,2.05052 1.95892,2.05052 0.69871,0 0.76721,-0.25741 0.77523,-0.60788 0.007,-0.32186 0.29446,-0.0867 0.58039,0.44116 0.41022,0.75722 0.41659,0.75882 2.30452,0.57728 3.74798,-0.36041 8.89881,-2.53696 13.76582,-5.81694 1.43674,-0.96824 2.64494,-1.72549 2.6849,-1.68276 0.04,0.0427 0.5042,0.8166 1.03164,1.71972 2.01639,3.45257 4.10643,4.96447 9.41918,6.81372 1.51168,0.52618 2.7984,1.00658 2.85938,1.06756 0.061,0.061 -6.60838,0.0375 -14.82078,-0.0521 -12.71973,-0.1388 -15.08083,0.0618 -15.38034,0.38245 -0.22407,0.23987 -0.61682,0.2758 -1.26762,0.21374 -1.23862,-0.11812 -1.23395,-0.0296 -0.34868,1.97216 0.34098,0.77103 0.77241,2.11715 1.03276,2.91463 0.26035,0.79747 0.57726,1.58191 0.70424,1.74319 0.14568,0.18506 2.01192,0.34799 5.05822,0.4416 8.62146,0.26495 11.30677,1.43196 18.3211,7.96213 2.98254,2.77666 3.5816,3.61829 3.04,4.27088 -0.60239,0.72584 -3.44396,2.25181 -5.4424,2.92266 -2.61439,0.87763 -5.34897,0.8721 -8.69264,-0.0176 -2.44542,-0.65066 -5.78309,-1.96051 -7.49698,-2.94213 -1.16075,-0.66482 -1.26919,-0.44151 -1.47113,3.0296 -0.31189,5.36085 -1.26632,8.15672 -3.79321,11.11165 -2.2489,2.62984 -6.56105,7.12428 -6.92313,7.12428 -0.17404,0 -0.81852,-0.64765 -1.26836,-1.19335 z m 4.47609,-1.40759 c 3.3787,-3.44557 5.32464,-5.90923 6.012,-7.46349 0.75148,-1.69923 1.39986,-4.87408 1.63439,-8.4545 0.12868,-1.96443 0.27885,-2.73556 0.55322,-2.84084 0.20713,-0.0795 1.329,0.33434 2.49303,0.9196 2.74946,1.3824 6.18576,2.51513 8.84593,2.91592 1.80043,0.27126 2.44015,0.25562 4.19703,-0.10266 3.1099,-0.6342 7.04022,-2.60311 7.04022,-3.52684 0,-0.51071 -4.04426,-4.54437 -6.54724,-6.53008 -4.40713,-3.49636 -7.76932,-4.58075 -15.13915,-4.88276 -5.34257,-0.21893 -4.59108,0.27223 -6.24452,-4.08128 -0.53663,-1.41295 -1.19235,-2.76507 -1.45715,-3.00471 -0.43903,-0.39732 -3.55377,-0.4567 -35.35451,-0.67405 -93.22656,-0.63719 -106.58022,-0.69013 -106.91557,-0.42389 -0.24168,0.19187 -0.31844,0.93018 -0.26458,2.54493 l 0.0759,2.27465 61.11873,0.1482 c 67.3317,0.16327 62.75627,0.0415 68.27051,1.81722 1.4508,0.46719 3.60362,1.31286 4.78403,1.87925 2.13353,1.02372 4.77489,2.88803 5.02863,3.54927 0.073,0.19029 -0.41626,1.19469 -1.08729,2.232 -1.62974,2.51932 -2.87206,5.21284 -3.73646,8.10114 -0.97989,3.27425 -1.03589,7.99475 -0.13026,10.98021 0.90318,2.97736 3.32899,7.04842 4.1271,7.04842 0.17753,0 1.15158,-0.87338 2.40018,-2.14668 z m -97.66492,-5.45729 c -0.2189,-0.48687 -0.82373,-2.07584 -1.34408,-3.53105 -0.52034,-1.4552 -1.11339,-3.06255 -1.31788,-3.57187 -0.84923,-2.11511 -3.04105,-8.17925 -3.04105,-8.41369 0,-0.30418 0.0886,-0.34047 6.61458,-2.71023 7.87649,-2.86015 10.37115,-3.72876 10.45649,-3.64083 0.0429,0.0442 0.63837,1.44959 1.32326,3.12308 1.15197,2.81474 2.78341,6.75248 4.46482,10.77652 0.37882,0.90661 0.68876,1.77589 0.68876,1.93173 0,0.32546 -0.79785,0.68318 -5.02708,2.2539 -3.61301,1.34185 -11.31827,4.23186 -11.9646,4.48756 -0.34335,0.13583 -0.55305,-0.0375 -0.85322,-0.70512 z m 4.50219,-1.03836 c 6.52359,-2.43464 11.90727,-4.55096 12.21823,-4.80298 0.1819,-0.14742 0.33073,-0.4831 0.33073,-0.74595 0,-0.26284 -0.96846,-2.77834 -2.15214,-5.58999 -1.18368,-2.81166 -2.4107,-5.79908 -2.72671,-6.63873 -0.931,-2.47371 -1.0879,-2.55093 -3.52126,-1.73306 -1.12801,0.37913 -3.06296,1.06126 -4.29989,1.51584 -1.23692,0.45458 -3.79677,1.39467 -5.68854,2.0891 -2.77158,1.01738 -3.45504,1.36887 -3.51916,1.80983 -0.0839,0.57713 4.669,13.83745 5.32071,14.8444 0.33597,0.51909 0.94324,0.40654 4.03803,-0.74846 z m 42.16278,-2.65355 c -0.0107,-0.63913 -0.13275,-3.00752 -0.27114,-5.26309 -0.13839,-2.25558 -0.32183,-5.67293 -0.40764,-7.59414 l -0.15601,-3.49308 0.62559,-0.1283 c 0.34408,-0.0706 2.05434,-0.19001 3.80059,-0.26544 1.74625,-0.0754 5.47933,-0.27295 8.29572,-0.43894 2.8164,-0.16598 5.21183,-0.20104 5.32317,-0.0779 0.20084,0.22209 0.43004,2.26929 1.19511,10.6749 0.21854,2.40109 0.46216,4.85488 0.54137,5.45286 l 0.14401,1.08723 -2.19344,0.1778 c -3.68517,0.29872 -9.41037,0.66786 -13.23979,0.85366 l -3.63802,0.17651 z m 9.14764,0.29644 c 7.56947,-0.47509 8.55227,-0.57212 8.96654,-0.88523 0.35148,-0.26565 0.37278,-0.67746 0.15281,-2.95451 -0.14058,-1.45521 -0.44097,-4.6699 -0.66753,-7.14375 -0.22657,-2.47386 -0.5335,-4.88487 -0.68208,-5.35781 -0.31943,-1.01675 -0.0388,-0.99338 -7.26004,-0.60443 -2.60867,0.1405 -5.77,0.30291 -7.02519,0.36089 -1.25518,0.058 -2.43288,0.19859 -2.6171,0.31244 -0.25957,0.16042 -0.29292,1.0765 -0.14822,4.07087 0.1027,2.12513 0.27311,5.69265 0.3787,7.92781 0.2299,4.86679 0.24969,4.89821 2.94671,4.67924 0.94714,-0.0769 3.62707,-0.25938 5.9554,-0.40552 z m -54.86705,-46.98371 c -0.67349,-0.8562 -0.52677,-1.24952 1.0688,-2.86519 0.70315,-0.71201 1.27846,-1.49039 1.27846,-1.72973 0,-0.23935 -0.59531,-1.02153 -1.32292,-1.7382 -0.7591,-0.74769 -1.32291,-1.54132 -1.32291,-1.86216 0,-0.59348 1.00814,-1.70971 1.54415,-1.70971 0.17569,0 0.97428,0.65484 1.77464,1.45521 0.80037,0.80036 1.59068,1.45521 1.75627,1.45521 0.16558,0 0.98759,-0.65485 1.82668,-1.45521 0.8391,-0.80037 1.71876,-1.45521 1.95479,-1.45521 0.44773,0 1.7268,1.21905 1.7268,1.64578 0,0.13507 -0.65484,0.93212 -1.45521,1.77122 -0.80036,0.8391 -1.45521,1.73207 -1.45521,1.98437 0,0.25231 0.67034,1.16153 1.48965,2.02048 1.46919,1.54029 1.48368,1.57086 1.05499,2.22512 -0.23907,0.36486 -0.73514,0.73879 -1.1024,0.83097 -0.55767,0.13997 -0.92677,-0.0795 -2.23928,-1.33141 -1.79452,-1.71169 -1.80307,-1.71117 -3.68982,0.22582 -1.35095,1.38694 -2.10594,1.5262 -2.88748,0.53264 z m 3.12995,-1.28568 c 0.6544,-0.67182 1.42452,-1.21098 1.72974,-1.21098 0.31008,0 1.1188,0.57731 1.85319,1.32292 1.41605,1.43767 2.30211,1.68321 2.78926,0.77295 0.2581,-0.48226 0.11267,-0.74041 -1.18132,-2.09702 -0.8116,-0.85089 -1.47564,-1.76833 -1.47564,-2.03876 0,-0.27044 0.65484,-1.13842 1.4552,-1.92884 0.80037,-0.79042 1.45521,-1.55089 1.45521,-1.68992 0,-0.40187 -0.83927,-1.22049 -1.25127,-1.22049 -0.20653,0 -1.06205,0.65484 -1.90115,1.4552 -0.83909,0.80037 -1.65313,1.45521 -1.80896,1.45521 -0.15583,0 -0.95407,-0.65484 -1.77385,-1.45521 -0.81978,-0.80036 -1.62464,-1.4552 -1.78858,-1.4552 -0.40124,0 -1.26577,0.8022 -1.26577,1.17452 0,0.16432 0.65484,0.94547 1.45521,1.73589 0.80036,0.79042 1.45467,1.61979 1.45402,1.84305 -5.3e-4,0.22325 -0.6555,1.13937 -1.45521,2.03583 -0.79971,0.89645 -1.45402,1.75291 -1.45402,1.90323 0,0.15032 0.25653,0.45299 0.57007,0.6726 0.70038,0.49056 1.03375,0.3267 2.59387,-1.27498 z"
         id="path183"
         sodipodi:nodetypes="sssscssscssscssssssssssssssssssssssscscsssssssssssssscsssssssscsscccsscssssccsssssssssssssssssssssscssssssscccssssscsscccsscccssscssscssscssssccscsssssscssssssssssscssssssscssscsssssssssssssssssscccsssssssssssssccssssssssccssssssssssssssssssssssscssccssssscssccsssssssssssssssssssssssssssssssssssssssssssssscssss" /><path
         style="fill:#070d12;stroke-width:0.264583"
         d="m 420.8739,178.26239 c -2.32944,-2.39856 -4.29898,-6.09865 -5.16175,-9.69719 -1.44902,-6.04371 -0.0684,-13.08912 3.84692,-19.63081 0.2684,-0.44844 0.4198,-0.99305 0.33645,-1.21026 -0.31649,-0.82475 -6.35938,-3.52478 -9.4364,-4.21628 -4.68259,-1.05232 -2.85249,-1.02421 -67.01799,-1.02929 -34.85222,-0.003 -61.62818,-0.10526 -61.70911,-0.23621 -0.29616,-0.47919 -0.47952,-3.99789 -0.29709,-5.70133 0.18448,-1.72266 0.20891,-1.9446 0.89455,-1.86529 0.69635,0.0805 0.70651,0.28728 0.83719,2.72691 0.10957,2.04535 0.22052,2.53394 0.64589,2.84427 0.43944,0.32059 9.2195,0.37469 60.8202,0.37469 66.48701,0 63.05276,-0.0823 68.43546,1.63915 3.07194,0.98241 7.17693,3.01168 8.60072,4.25169 1.19908,1.0443 1.22718,0.88176 -0.66635,3.8549 -3.43003,5.3857 -4.82418,12.69169 -3.42102,17.92773 0.8269,3.08567 3.28186,7.53624 4.39202,7.96225 0.84313,0.32354 8.10304,-7.71053 9.238,-10.1896 0.89081,-1.94579 1.42575,-4.39037 1.62213,-7.76592 0.20194,-3.47111 0.31038,-3.69442 1.47113,-3.0296 1.71389,0.98162 5.05156,2.29147 7.49698,2.94213 3.34367,0.88967 6.07825,0.8952 8.69264,0.0176 1.99844,-0.67085 4.84001,-2.19682 5.4424,-2.92266 0.5416,-0.65259 -0.0575,-1.49422 -3.04,-4.27088 -7.01433,-6.53017 -9.69964,-7.69718 -18.3211,-7.96213 -3.0463,-0.0936 -4.91254,-0.25654 -5.05822,-0.4416 -0.12698,-0.16128 -0.44389,-0.94572 -0.70424,-1.74319 -0.26035,-0.79748 -0.75236,-2.08079 -1.09334,-2.85182 -0.8705,-1.96834 -0.82823,-2.23021 0.34386,-2.13035 0.94426,0.0805 0.98053,0.12575 1.78594,2.2308 1.19912,3.13407 1.004,3.01055 4.7571,3.01154 5.06937,0.001 9.36212,0.96437 12.59868,2.82638 3.12362,1.79704 12.35153,10.45604 12.01694,11.27609 -0.2218,0.54364 -3.12936,2.51925 -5.32497,3.61818 -5.06589,2.53556 -9.67666,2.55542 -16.17144,0.0697 -2.82908,-1.08278 -2.8271,-1.08358 -3.1027,1.25657 -0.42763,3.63106 -1.21711,6.38755 -2.33797,8.16311 -1.4306,2.26621 -9.42654,10.88916 -10.09737,10.88916 -0.19483,0 -0.78619,-0.44477 -1.31414,-0.98837 z M 281.66939,132.53756 c -0.22191,-0.57828 0.86318,-7.59374 1.63252,-10.55478 2.13532,-8.21839 5.71532,-15.21745 10.7592,-21.03471 6.89199,-7.948751 17.38745,-13.583394 30.13112,-16.176338 3.72518,-0.757961 12.7084,-1.552683 17.57964,-1.555226 14.04626,-0.0073 27.81654,2.515112 39.95209,7.31844 18.61645,7.368516 34.43279,21.439144 44.13714,39.265574 1.51805,2.78857 1.55412,3.14816 0.31581,3.14816 -0.88589,0 -0.96483,-0.0826 -1.95892,-2.05052 -3.11162,-6.15977 -9.46581,-14.62086 -15.22776,-20.27695 -6.06887,-5.95736 -11.24288,-9.73658 -20.17077,-14.733165 -2.24511,-1.2565 -8.83655,-4.040638 -12.38717,-5.232181 -11.02768,-3.700744 -20.18153,-5.198149 -33.73438,-5.518331 -21.32149,-0.503714 -38.65006,5.511575 -47.3409,16.433507 -1.37697,1.73046 -1.66093,2.6238 -0.92391,2.90662 0.67988,0.2609 9.52457,0.18473 12.67836,-0.10918 8.93081,-0.83228 12.7907,-1.34541 17.24385,-2.2924 1.77152,-0.37672 3.40862,-0.61292 3.63802,-0.52489 0.61163,0.2347 0.50834,1.16433 -0.17823,1.60416 -1.06743,0.68381 -6.72824,1.71735 -13.16302,2.40327 -2.11005,0.22492 -4.94615,0.53624 -6.30245,0.69181 -1.35629,0.15557 -5.52348,0.24917 -9.26041,0.20801 l -6.79443,-0.0748 -0.97989,1.44244 c -2.11835,3.11829 -4.60813,8.84774 -5.88849,13.55055 -0.79377,2.91557 -1.72094,7.87735 -1.72655,9.23976 -0.006,1.54065 -0.41646,2.5774 -1.20041,2.5774 -0.37197,0 -0.83006,-0.0611 -0.83006,-0.65619 z m 47.04651,-15.09459 c -0.31354,-0.21961 -0.57007,-0.52228 -0.57007,-0.6726 0,-0.15032 0.65431,-1.00678 1.45402,-1.90323 0.79971,-0.89646 1.45455,-1.81258 1.45521,-2.03583 6.5e-4,-0.22326 -0.65366,-1.05263 -1.45402,-1.84305 -0.80037,-0.79042 -1.45521,-1.57157 -1.45521,-1.73589 0,-0.37232 0.86453,-1.17452 1.26577,-1.17452 0.16394,0 0.9688,0.65484 1.78858,1.4552 0.81978,0.80037 1.61802,1.45521 1.77385,1.45521 0.15583,0 0.96987,-0.65484 1.80896,-1.45521 0.8391,-0.80036 1.69462,-1.4552 1.90115,-1.4552 0.412,0 1.25127,0.81862 1.25127,1.22049 0,0.13903 -0.65484,0.8995 -1.45521,1.68992 -0.80036,0.79042 -1.4552,1.6584 -1.4552,1.92884 0,0.27043 0.66404,1.18787 1.47564,2.03876 1.29399,1.35661 1.43942,1.61476 1.18132,2.09702 -0.48715,0.91026 -1.37321,0.66472 -2.78926,-0.77295 -0.73439,-0.74561 -1.54311,-1.32292 -1.85319,-1.32292 -0.30522,0 -1.07534,0.53916 -1.72974,1.21098 -1.56012,1.60168 -1.89349,1.76554 -2.59387,1.27498 z"
         id="path181"
         sodipodi:nodetypes="csssscsscssssssssssssssssssscscsssssssccsssscssssssssssssssssccsscsssssssssssssssssssssss" /></g></g></svg>
