<?xml version="1.0" encoding="UTF-8" standalone="no"?>
<!-- Created with Inkscape (http://www.inkscape.org/) -->

<svg
   xmlns:dc="http://purl.org/dc/elements/1.1/"
   xmlns:cc="http://creativecommons.org/ns#"
   xmlns:rdf="http://www.w3.org/1999/02/22-rdf-syntax-ns#"
   xmlns:svg="http://www.w3.org/2000/svg"
   xmlns="http://www.w3.org/2000/svg"
   xmlns:sodipodi="http://sodipodi.sourceforge.net/DTD/sodipodi-0.dtd"
   xmlns:inkscape="http://www.inkscape.org/namespaces/inkscape"
   width="194.8819"
   height="194.8819"
   id="svg3039"
   version="1.1"
   inkscape:version="0.48.5 r10040"
   sodipodi:docname="in-hamburg-funkt-man-frei.svg">
  <defs
     id="defs3041" />
  <sodipodi:namedview
     id="base"
     pagecolor="#ffffff"
     bordercolor="#666666"
     borderopacity="1.0"
     inkscape:pageopacity="0"
     inkscape:pageshadow="2"
     inkscape:zoom="3.1566962"
     inkscape:cx="85.120822"
     inkscape:cy="84.769536"
     inkscape:document-units="px"
     inkscape:current-layer="layer1"
     showgrid="false"
     units="cm"
     showguides="true"
     inkscape:guide-bbox="true"
     guidecolor="#d7d7ff"
     guideopacity="0.49803922"
     inkscape:window-width="1920"
     inkscape:window-height="1065"
     inkscape:window-x="0"
     inkscape:window-y="15"
     inkscape:window-maximized="0"
     fit-margin-top="0"
     fit-margin-left="0"
     fit-margin-right="0"
     fit-margin-bottom="0">
    <sodipodi:guide
       orientation="1,0"
       position="8.8582677,7.078125e-05"
       id="guide3047" />
    <sodipodi:guide
       orientation="1,0"
       position="186.02362,7.078125e-05"
       id="guide3051" />
    <sodipodi:guide
       orientation="0,1"
       position="0,8.8583385"
       id="guide3053" />
    <sodipodi:guide
       orientation="0,1"
       position="0,186.02369"
       id="guide3055" />
  </sodipodi:namedview>
  <metadata
     id="metadata3044">
    <rdf:RDF>
      <cc:Work
         rdf:about="">
        <dc:format>image/svg+xml</dc:format>
        <dc:type
           rdf:resource="http://purl.org/dc/dcmitype/StillImage" />
        <dc:title />
      </cc:Work>
    </rdf:RDF>
  </metadata>
  <g
     inkscape:label="Layer 1"
     inkscape:groupmode="layer"
     id="layer1"
     transform="translate(0,-857.479)">
    <rect
       style="fill:#333333;fill-opacity:1;fill-rule:evenodd;stroke:none"
       id="rect3219"
       width="194.8819"
       height="194.8819"
       x="0"
       y="857.479" />
    <g
       id="g4756"
       transform="matrix(0.22452837,0,0,0.22452837,1054.486,-973.05868)">
      <path
         transform="matrix(-0.03715004,-1.3943823,-1.3943823,0.03715004,-3321.1875,8328.4882)"
         style="fill:none;stroke:none;display:inline"
         d="m 85.714294,679.50507 c 0,139.64914 -113.208,252.85714 -252.857144,252.85714 C -306.792,932.36221 -420,819.15421 -420,679.50507 c 0,-139.64915 113.208,-252.85715 252.85715,-252.85715 139.649144,0 252.857144,113.208 252.857144,252.85715 z"
         id="path3369"
         inkscape:connector-curvature="0" />
      <path
         transform="matrix(0,1.0867917,-1.0867917,0,-3523.9877,8768.4423)"
         style="fill:none;stroke:none;display:inline"
         d="m 85.714294,679.50507 c 0,139.64914 -113.208,252.85714 -252.857144,252.85714 C -306.792,932.36221 -420,819.15421 -420,679.50507 c 0,-139.64915 113.208,-252.85715 252.85715,-252.85715 139.649144,0 252.857144,113.208 252.857144,252.85715 z"
         id="path3305"
         inkscape:connector-curvature="0" />
      <path
         style="font-size:medium;font-style:normal;font-variant:normal;font-weight:normal;font-stretch:normal;text-indent:0;text-align:start;text-decoration:none;line-height:normal;letter-spacing:normal;word-spacing:normal;text-transform:none;direction:ltr;block-progression:tb;writing-mode:lr-tb;text-anchor:start;baseline-shift:baseline;color:#000000;fill:#e5287a;fill-opacity:1;fill-rule:nonzero;stroke:none;stroke-width:33.04941177;marker:none;visibility:visible;display:inline;overflow:visible;enable-background:accumulate;font-family:Sans;-inkscape-font-specification:Sans"
         d="m -4262.4554,8329.4393 c 141.9464,0 257.3488,115.4023 257.3488,257.3487 0,141.9464 -115.4024,257.3487 -257.3488,257.3487 -141.9464,0 -257.3785,-115.4023 -257.3785,-257.3487 0,-141.9464 115.4321,-257.3487 257.3785,-257.3487 z m 0,31.5864 c -124.8825,0 -225.7921,100.8797 -225.7921,225.7623 0,124.8826 100.9096,225.7922 225.7921,225.7922 124.8826,0 225.7623,-100.9096 225.7623,-225.7922 0,-124.8826 -100.8797,-225.7623 -225.7623,-225.7623 z"
         id="path4758"
         inkscape:connector-curvature="0" />
      <path
         style="font-size:medium;font-style:normal;font-variant:normal;font-weight:normal;font-stretch:normal;text-indent:0;text-align:start;text-decoration:none;line-height:normal;letter-spacing:normal;word-spacing:normal;text-transform:none;direction:ltr;block-progression:tb;writing-mode:lr-tb;text-anchor:start;baseline-shift:baseline;color:#000000;fill:#ededed;fill-opacity:1;stroke:none;stroke-width:18.42903709;marker:none;visibility:visible;display:inline;overflow:visible;enable-background:accumulate;font-family:Sans;-inkscape-font-specification:Sans"
         d="m -4262.4573,8375.9401 c 116.3648,0 210.8487,94.4839 210.8487,210.8487 0,116.3648 -94.4839,210.8487 -210.8487,210.8487 -116.3648,0 -210.8739,-94.4839 -210.8739,-210.8487 0,-116.3648 94.5091,-210.8487 210.8739,-210.8487 z m 0,14.8344 c -108.3514,0 -196.0395,87.6629 -196.0395,196.0143 0,108.3514 87.6881,196.0396 196.0395,196.0396 108.3514,0 196.0144,-87.6882 196.0144,-196.0396 0,-108.3514 -87.663,-196.0143 -196.0144,-196.0143 z"
         id="path4760"
         inkscape:connector-curvature="0" />
      <path
         style="font-size:medium;font-style:normal;font-variant:normal;font-weight:normal;font-stretch:normal;text-indent:0;text-align:start;text-decoration:none;line-height:normal;letter-spacing:normal;word-spacing:normal;text-transform:none;direction:ltr;block-progression:tb;writing-mode:lr-tb;text-anchor:start;baseline-shift:baseline;color:#000000;fill:#fdbc41;fill-opacity:1;stroke:none;stroke-width:2.82827973;marker:none;visibility:visible;display:inline;overflow:visible;enable-background:accumulate;font-family:Sans;-inkscape-font-specification:Sans"
         clip-path="none"
         d="M 87.5 77.875 C 84.720731 80.513085 82.96875 84.222726 82.96875 88.34375 C 82.96875 90.612354 83.500703 92.776597 84.4375 94.6875 L 86.46875 93.6875 C 85.68924 92.078334 85.25 90.256177 85.25 88.34375 C 85.25 84.870664 86.682185 81.751084 89 79.53125 L 87.5 77.875 z M 107.375 77.875 L 105.875 79.5 C 108.21147 81.721629 109.65625 84.854781 109.65625 88.34375 C 109.65625 90.25871 109.18771 92.07673 108.40625 93.6875 L 110.40625 94.6875 C 111.34173 92.775329 111.875 90.614355 111.875 88.34375 C 111.875 84.222726 110.14788 80.513085 107.375 77.875 z "
         transform="matrix(4.4537802,0,0,4.4537802,-4696.4488,8152.8124)"
         id="path4762" />
      <path
         style="font-size:medium;font-style:normal;font-variant:normal;font-weight:normal;font-stretch:normal;text-indent:0;text-align:start;text-decoration:none;line-height:normal;letter-spacing:normal;word-spacing:normal;text-transform:none;direction:ltr;block-progression:tb;writing-mode:lr-tb;text-anchor:start;baseline-shift:baseline;color:#000000;fill:#fdbc41;fill-opacity:1;stroke:none;stroke-width:1.86479688;marker:none;visibility:visible;display:inline;overflow:visible;enable-background:accumulate;font-family:Sans;-inkscape-font-specification:Sans"
         clip-path="none"
         d="M 112.03125 72.8125 L 110.5 74.46875 C 114.19367 77.954341 116.53125 82.885756 116.53125 88.375 C 116.53125 91.38415 115.79599 94.191153 114.5625 96.71875 L 116.625 97.75 C 118.01948 94.91484 118.78125 91.745007 118.78125 88.375 C 118.78125 82.243538 116.1798 76.705849 112.03125 72.8125 z M 82.84375 72.84375 C 78.694267 76.736341 76.0625 82.251003 76.0625 88.375 C 76.0625 91.735196 76.858753 94.889792 78.25 97.71875 L 80.28125 96.71875 C 79.047082 94.194165 78.34375 91.379373 78.34375 88.375 C 78.34375 82.894177 80.650261 77.95347 84.34375 74.46875 L 82.84375 72.84375 z "
         transform="matrix(4.4537802,0,0,4.4537802,-4696.4488,8152.8124)"
         id="path4764" />
      <path
         style="font-size:medium;font-style:normal;font-variant:normal;font-weight:normal;font-stretch:normal;text-indent:0;text-align:start;text-decoration:none;line-height:normal;letter-spacing:normal;word-spacing:normal;text-transform:none;direction:ltr;block-progression:tb;writing-mode:lr-tb;text-anchor:start;baseline-shift:baseline;color:#000000;fill:#fdbc41;fill-opacity:1;stroke:none;stroke-width:1.36224389;marker:none;visibility:visible;display:inline;overflow:visible;enable-background:accumulate;font-family:Sans;-inkscape-font-specification:Sans"
         clip-path="none"
         d="M 117.09375 67.3125 L 115.59375 68.96875 C 120.75708 73.818175 123.96875 80.721722 123.96875 88.375 C 123.96875 92.567567 123.00417 96.510722 121.28125 100.03125 L 123.3125 101.03125 C 125.1903 97.207948 126.25 92.919217 126.25 88.375 C 126.25 80.068483 122.72733 72.56937 117.09375 67.3125 z M 77.78125 67.34375 C 72.166666 72.599072 68.65625 80.084486 68.65625 88.375 C 68.65625 92.909285 69.723656 97.182979 71.59375 101 L 73.5625 100.03125 C 71.837485 96.513894 70.875 92.562529 70.875 88.375 C 70.875 80.727272 74.111089 73.817626 79.28125 68.96875 L 77.78125 67.34375 z "
         transform="matrix(4.4537802,0,0,4.4537802,-4696.4488,8152.8124)"
         id="path4766" />
      <path
         style="font-size:773.01678467px;font-style:normal;font-variant:normal;font-weight:normal;font-stretch:normal;line-height:125%;letter-spacing:0px;word-spacing:0px;fill:#fdbc41;fill-opacity:1;stroke:none;display:inline;font-family:FontAwesome;-inkscape-font-specification:FontAwesome"
         d="M 97.28125 81.84375 C 97.225769 81.84375 97.148759 81.875 97.09375 81.875 L 96.9375 81.875 C 96.883007 81.875 96.835249 81.891656 96.78125 81.90625 C 96.727318 81.912088 96.647165 81.891656 96.59375 81.90625 C 96.540335 81.912088 96.490489 81.922906 96.4375 81.9375 C 96.384668 81.94327 96.333632 81.954156 96.28125 81.96875 C 96.228823 81.977417 96.176956 81.985406 96.125 82 C 96.073134 82.007275 96.020122 82.016656 95.96875 82.03125 C 95.917468 82.04434 95.863445 82.047906 95.8125 82.0625 C 95.710205 82.087243 95.600274 82.127129 95.5 82.15625 C 95.450177 82.173696 95.393079 82.167068 95.34375 82.1875 C 95.244486 82.220955 95.159698 82.243417 95.0625 82.28125 C 95.014181 82.300178 94.954119 82.323318 94.90625 82.34375 C 94.858381 82.364137 94.828536 82.385818 94.78125 82.40625 C 94.638248 82.470285 94.482149 82.550771 94.34375 82.625 C 93.973929 82.825234 93.617975 83.06392 93.28125 83.34375 C 93.113056 83.483878 92.941182 83.621161 92.78125 83.78125 C 92.019964 84.542603 91.496631 85.426637 91.1875 86.375 C 91.155033 86.474556 91.121547 86.554381 91.09375 86.65625 C 90.956024 87.165727 90.888023 87.720109 90.875 88.28125 C 90.872755 88.337113 90.875 88.380739 90.875 88.4375 C 90.875 88.961078 90.916741 89.481097 91.03125 89.96875 C 91.178451 90.59579 91.413454 91.182774 91.75 91.75 C 91.974394 92.121819 92.251488 92.466933 92.53125 92.78125 C 92.624721 92.88588 92.712967 92.9948 92.8125 93.09375 C 93.209713 93.486652 93.66103 93.8033 94.15625 94.09375 L 94.15625 96.125 L 87.59375 96.53125 L 87.59375 101.25 L 94.15625 101.6875 L 94.15625 124.5625 C 88.765135 123.84322 83.874595 121.37299 79.9375 117.6875 L 85.96875 117.90625 L 81.8125 113.46875 L 72.125 113.125 L 71.8125 122.84375 L 75.96875 127.25 L 76.15625 121.28125 C 80.93132 125.97286 86.966206 129.12298 93.625 130 C 94.503972 131.28234 95.877686 132.125 97.4375 132.125 C 98.997312 132.125 100.37103 131.28234 101.25 130 C 107.90999 129.12298 113.94713 125.97286 118.71875 121.28125 L 118.90625 127.25 L 123.0625 122.84375 L 122.71875 113.125 L 113.0625 113.46875 L 108.90625 117.90625 L 114.9375 117.6875 C 111.00129 121.3611 106.10669 123.84554 100.71875 124.5625 L 100.71875 101.65625 L 107.28125 101.25 L 107.28125 96.53125 L 100.71875 96.125 L 100.71875 94.09375 C 100.78032 94.057376 100.84628 94.006605 100.90625 93.96875 C 100.96615 93.932376 101.03526 93.91427 101.09375 93.875 C 101.15217 93.835708 101.1931 93.790752 101.25 93.75 C 101.30701 93.709248 101.3822 93.667211 101.4375 93.625 C 101.49285 93.582811 101.53991 93.545108 101.59375 93.5 C 101.6477 93.456352 101.69762 93.388858 101.75 93.34375 C 101.80276 93.29862 101.85504 93.265317 101.90625 93.21875 C 101.95746 93.170723 102.01288 93.111986 102.0625 93.0625 C 102.16217 92.963842 102.25035 92.854787 102.34375 92.75 C 102.62351 92.435975 102.8694 92.090569 103.09375 91.71875 C 103.69203 90.710146 103.99996 89.634281 104 88.4375 C 103.99996 87.814681 103.93265 87.216785 103.78125 86.65625 C 103.75388 86.554673 103.71965 86.444159 103.6875 86.34375 C 103.37837 85.395387 102.85501 84.542469 102.09375 83.78125 C 101.93384 83.621318 101.76194 83.483452 101.59375 83.34375 C 101.55154 83.308813 101.51139 83.252205 101.46875 83.21875 C 101.17055 82.982569 100.85477 82.768815 100.53125 82.59375 C 100.48497 82.569007 100.42186 82.554534 100.375 82.53125 C 100.28196 82.484683 100.18893 82.448461 100.09375 82.40625 C 99.950344 82.342215 99.804371 82.271132 99.65625 82.21875 C 99.607438 82.202741 99.580579 82.207932 99.53125 82.1875 C 99.431514 82.155482 99.320619 82.122849 99.21875 82.09375 C 99.168411 82.080638 99.113423 82.077094 99.0625 82.0625 C 98.548083 81.937348 98.003805 81.84375 97.4375 81.84375 L 97.28125 81.84375 z M 97.4375 85.625 C 98.940198 85.625 100.15625 86.841036 100.15625 88.34375 C 100.15625 89.846448 98.940198 91.0625 97.4375 91.0625 C 95.934786 91.0625 94.71875 89.846448 94.71875 88.34375 C 94.71875 86.841036 95.934786 85.625 97.4375 85.625 z "
         transform="matrix(4.4537802,0,0,4.4537802,-4696.4488,8152.8124)"
         id="path4768" />
      <g
         style="font-size:86.13791656px;font-style:normal;font-variant:normal;font-weight:bold;font-stretch:normal;text-align:center;line-height:125%;letter-spacing:0px;word-spacing:0px;text-anchor:middle;fill:#ededed;fill-opacity:1;stroke:none;font-family:Open Sans;-inkscape-font-specification:Open Sans Bold"
         id="text3299">
        <path
           d="m -4442.3449,8794.703 -50.4839,55.0149 -11.6653,-10.7046 50.4839,-55.0148 11.6653,10.7045"
           style="font-size:104.59603882px;fill:#ededed;-inkscape-font-specification:Open Sans Bold"
           id="path3415"
           inkscape:connector-curvature="0" />
        <path
           d="m -4506.637,8717.2654 11.5521,16.4762 -27.6027,59.024 0.2639,0.3763 c 7.797,-6.2569 13.4379,-10.607 16.9227,-13.0503 l 28.7705,-20.1722 8.1216,11.5834 -61.1373,42.866 -11.4641,-16.3507 27.172,-58.6596 -0.2053,-0.2928 c -7.6521,5.9891 -13.1229,10.1368 -16.4127,12.4433 l -28.9377,20.2895 -8.1803,-11.6671 61.1373,-42.866"
           style="font-size:104.59603882px;fill:#ededed;-inkscape-font-specification:Open Sans Bold"
           id="path3417"
           inkscape:connector-curvature="0" />
        <path
           d="m -4537.5866,8614.6676 3.3027,15.4319 -31.513,6.7443 6.1886,28.9161 31.513,-6.7444 3.3134,15.4818 -73.0143,15.6264 -3.3134,-15.4818 28.6164,-6.1244 -6.1886,-28.9161 -28.6163,6.1245 -3.3027,-15.4319 73.0142,-15.6264"
           style="font-size:104.59603882px;fill:#ededed;-inkscape-font-specification:Open Sans Bold"
           id="path3419"
           inkscape:connector-curvature="0" />
        <path
           d="m -4535.4654,8549.8627 -18.0859,4.2539 -1.7589,27.1646 17.3862,6.5508 -1.1022,17.0225 -73.1146,-31.1428 1.2507,-19.3159 76.5269,-21.5556 -1.1022,17.0225 m -31.5811,7.1673 c -16.3945,3.9541 -25.666,6.1856 -27.8144,6.6947 -2.1461,0.4753 -3.8396,0.8092 -5.0804,1.0017 4.2765,1.4029 14.8223,5.3101 31.6375,11.7215 l 1.2573,-19.4179"
           style="font-size:104.59603882px;fill:#ededed;-inkscape-font-specification:Open Sans Bold"
           id="path3421"
           inkscape:connector-curvature="0" />
        <path
           d="m -4521.2061,8493.617 -61.0885,-4.7946 -0.1688,0.4275 c 11.3216,3.7752 18.835,6.3944 22.5402,7.8575 l 32.3018,12.7556 -5.196,13.1582 -69.449,-27.4244 7.916,-20.0462 59.5983,4.5357 0.1126,-0.285 -46.2238,-38.4051 7.9159,-20.0462 69.449,27.4244 -5.4211,13.7283 -32.8719,-12.9806 c -1.5517,-0.6127 -3.3348,-1.3351 -5.349,-2.1672 -2.0018,-0.8636 -7.2979,-3.2112 -15.8884,-7.0428 l -0.1688,0.4275 47.3188,39.3866 -5.3273,13.4908"
           style="font-size:104.59603882px;fill:#ededed;-inkscape-font-specification:Open Sans Bold"
           id="path3423"
           inkscape:connector-curvature="0" />
        <path
           d="m -4549.7272,8386.0743 14.6806,-18.0133 c 6.6896,-8.2082 12.7146,-13.2027 18.075,-14.9834 5.3555,-1.8285 10.5802,-0.667 15.6741,3.4843 3.4575,2.8179 5.6279,5.9484 6.5113,9.3916 0.9049,3.4169 0.4847,6.6541 -1.2606,9.7118 l 0.3959,0.3227 c 3.8081,-3.0018 7.4899,-4.3935 11.0454,-4.1752 3.577,0.192 7.2262,1.8045 10.9477,4.8373 5.2786,4.3021 7.8365,9.5711 7.6736,15.8072 -0.1415,6.2098 -2.8794,12.5874 -8.2139,19.1329 l -17.6489,21.6556 -57.8802,-47.1715 m 32.9246,6.4086 5.8077,-7.1261 c 2.7103,-3.3255 4.153,-6.1467 4.3282,-8.4637 0.1968,-2.3432 -0.8925,-4.4828 -3.2679,-6.4188 -2.2171,-1.8068 -4.4674,-2.2792 -6.7512,-1.4172 -2.2887,0.8142 -4.8634,2.9764 -7.7243,6.4866 l -5.2592,6.4531 12.8667,10.4861 m 9.7391,7.9372 15.0837,12.293 6.5175,-7.9971 c 2.7533,-3.3783 4.1393,-6.3995 4.1582,-9.0635 0.019,-2.6639 -1.3046,-5.0821 -3.9703,-7.2547 -4.8036,-3.9148 -10.0016,-2.4411 -15.5943,4.4211 l -6.1948,7.6012"
           style="font-size:104.59603882px;fill:#ededed;-inkscape-font-specification:Open Sans Bold"
           id="path3425"
           inkscape:connector-curvature="0" />
        <path
           d="m -4439.384,8283.8122 27.9361,39.419 c 3.1892,4.5003 4.9709,9.1635 5.3448,13.9897 0.4017,4.8067 -0.6605,9.4613 -3.1866,13.9641 -2.5261,4.5028 -6.3866,8.595 -11.5813,12.2764 -7.8338,5.5518 -15.335,7.8632 -22.5035,6.9341 -7.1882,-0.9568 -13.253,-4.9215 -18.1945,-11.8942 l -27.8179,-39.2523 12.8757,-9.125 26.43,37.2939 c 3.3271,4.6948 6.7128,7.47 10.1571,8.3259 3.4443,0.8558 7.3471,-0.2617 11.7085,-3.3526 4.2224,-2.9924 6.5005,-6.2553 6.8343,-9.7886 0.3418,-3.5807 -1.1607,-7.7324 -4.5075,-12.4549 l -26.3709,-37.2105 12.8757,-9.125"
           style="font-size:104.59603882px;fill:#ededed;-inkscape-font-specification:Open Sans Bold"
           id="path3427"
           inkscape:connector-curvature="0" />
        <path
           d="m -4378.6259,8292.3398 4.8039,-1.7339 c 4.7078,-1.6992 7.8994,-3.738 9.5748,-6.1165 1.6754,-2.3784 1.9062,-5.249 0.6925,-8.6117 -1.2022,-3.3307 -3.2106,-5.2844 -6.025,-5.8614 -2.7825,-0.5883 -6.5757,-0.016 -11.3795,1.7183 l -4.5157,1.6299 6.849,18.9753 m 4.3695,12.1058 9.7272,26.9498 -14.892,5.3751 -25.3499,-70.2328 20.4646,-7.3865 c 9.5437,-3.4446 17.2354,-4.248 23.0751,-2.4103 5.8281,1.8059 10.0194,6.2476 12.5741,13.3253 1.4911,4.1314 1.6836,8.2247 0.5773,12.28 -1.118,4.0234 -3.4291,7.6991 -6.9336,11.0273 16.2673,11.9742 26.8346,19.6891 31.7018,23.1449 l -16.5254,5.9647 -26.4928,-20.8985 -7.9264,2.861"
           style="font-size:104.59603882px;fill:#ededed;-inkscape-font-specification:Open Sans Bold"
           id="path3429"
           inkscape:connector-curvature="0" />
        <path
           d="m -4288.8166,8271.1417 29.5219,-2.4322 3.1785,38.5821 c -4.656,1.9551 -9.0797,3.4128 -13.2709,4.373 -4.1547,0.9914 -8.4377,1.6688 -12.8489,2.0322 -11.232,0.9254 -20.0882,-1.6589 -26.5689,-7.7527 -6.4495,-6.1306 -10.183,-15.3717 -11.2006,-27.7234 -0.9896,-12.0123 1.6661,-21.6602 7.9671,-28.9438 6.3349,-7.2862 15.5933,-11.4311 27.7754,-12.4348 7.6349,-0.6289 15.1242,0.2915 22.4679,2.7611 l -4.2027,13.0551 c -5.653,-2.2673 -11.4147,-3.1592 -17.2851,-2.6756 -6.8206,0.5619 -12.0952,3.3025 -15.8237,8.2217 -3.7285,4.9193 -5.2741,11.2473 -4.6367,18.984 0.6653,8.0762 2.8199,14.1164 6.4637,18.1208 3.6748,3.9677 8.6681,5.6916 14.9797,5.1716 3.2915,-0.2711 6.6059,-0.8858 9.9434,-1.8441 l -1.279,-15.5244 -14.0992,1.1615 -1.0819,-13.1321"
           style="font-size:104.59603882px;fill:#ededed;-inkscape-font-specification:Open Sans Bold"
           id="path3431"
           inkscape:connector-curvature="0" />
        <path
           d="m -4195.8604,8320.0911 -15.0627,-3.9697 19.0286,-72.2023 41.3854,10.9069 -3.3059,12.544 -26.3227,-6.9372 -4.9068,18.6185 24.4954,6.4557 -3.2929,12.4946 -24.4954,-6.4556 -7.523,28.5451"
           style="font-size:104.59603882px;fill:#ededed;-inkscape-font-specification:Open Sans Bold"
           id="path3433"
           inkscape:connector-curvature="0" />
        <path
           d="m -4066.0634,8296.0762 -23.4719,42.2297 c -2.6797,4.8212 -6.1148,8.4433 -10.3053,10.8666 -4.1608,2.4398 -8.8173,3.4938 -13.9696,3.1621 -5.1524,-0.3317 -10.5111,-2.0442 -16.0762,-5.1374 -8.3924,-4.6646 -13.7189,-10.4298 -15.9796,-17.2957 -2.2441,-6.8957 -1.2903,-14.0784 2.8616,-21.5482 l 23.3726,-42.0512 13.7939,7.6668 -22.2065,39.9531 c -2.7955,5.0295 -3.8348,9.2822 -3.1178,12.758 0.7169,3.4759 3.4116,6.5123 8.084,9.1092 4.5235,2.5143 8.4505,3.1583 11.781,1.932 3.3766,-1.2395 6.471,-4.3888 9.2831,-9.448 l 22.1568,-39.8638 13.7939,7.6668"
           style="font-size:104.59603882px;fill:#ededed;-inkscape-font-specification:Open Sans Bold"
           id="path3435"
           inkscape:connector-curvature="0" />
        <path
           d="m -4041.4061,8420.2129 -13.9486,-14.5034 18.1964,-62.567 -0.3186,-0.3313 c -6.742,7.3816 -11.6467,12.5475 -14.7142,15.4977 l -25.3257,24.3571 -9.8066,-10.1965 53.8172,-51.7588 13.8425,14.3929 -17.827,62.1408 0.2478,0.2577 c 6.64,-7.0947 11.4079,-12.0345 14.3037,-14.8195 l 25.473,-24.4987 9.8773,10.2702 -53.8172,51.7588"
           style="font-size:104.59603882px;fill:#ededed;-inkscape-font-specification:Open Sans Bold"
           id="path3437"
           inkscape:connector-curvature="0" />
        <path
           d="m -4003.0763,8489.4105 -8.3901,-15.8996 18.6952,-31.9824 -7.3683,-3.6766 -23.5783,12.4421 -7.389,-14.0024 66.0372,-34.8475 7.389,14.0025 -30.2181,15.9459 10.677,1.4109 31.8879,6.0408 8.1994,15.5381 -41.3805,-7.6147 -24.5614,42.6429"
           style="font-size:104.59603882px;fill:#ededed;-inkscape-font-specification:Open Sans Bold"
           id="path3439"
           inkscape:connector-curvature="0" />
        <path
           d="m -3994.0899,8526.9195 -3.8775,-15.3502 59.6184,-15.0597 -4.9657,-19.6582 12.7754,-3.227 13.8088,54.6667 -12.7753,3.227 -4.9657,-19.6582 -59.6184,15.0596"
           style="font-size:104.59603882px;fill:#ededed;-inkscape-font-specification:Open Sans Bold"
           id="path3441"
           inkscape:connector-curvature="0" />
        <path
           d="m -3989.184,8617.0818 60.5148,-9.6308 0.064,-0.4552 c -11.8907,-1.0216 -19.8083,-1.8102 -23.753,-2.3658 l -34.3896,-4.8442 1.9732,-14.0087 73.9378,10.4148 -3.0062,21.3419 -59.0054,9.534 -0.043,0.3034 53.9263,26.5246 -3.0062,21.3418 -73.9378,-10.4148 2.0587,-14.6156 34.9966,4.9295 c 1.652,0.2327 3.5546,0.5179 5.7076,0.8556 2.1483,0.3713 7.8466,1.4146 17.0951,3.1301 l 0.064,-0.4552 -55.2205,-27.2226 2.0232,-14.3628"
           style="font-size:104.59603882px;fill:#ededed;-inkscape-font-specification:Open Sans Bold"
           id="path3443"
           inkscape:connector-curvature="0" />
        <path
           d="m -4023.4451,8723.8174 18.353,2.8917 11.888,-24.4885 -13.6245,-12.6319 7.4496,-15.3455 55.9378,56.4497 -8.4533,17.4131 -79.0002,-8.9431 7.4496,-15.3455 m 31.9491,5.2908 c 16.6736,2.5306 26.1012,3.9659 28.2828,4.3059 2.1667,0.3705 3.8608,0.7009 5.0825,0.9912 -3.43,-2.9141 -11.7191,-10.5147 -24.8675,-22.802 l -8.4978,17.5049"
           style="font-size:104.59603882px;fill:#ededed;-inkscape-font-specification:Open Sans Bold"
           id="path3445"
           inkscape:connector-curvature="0" />
        <path
           d="m -4081.29,8796.0449 13.5295,-14.8952 63.6519,13.9348 0.309,-0.3402 c -7.8196,-6.2287 -13.3045,-10.7738 -16.4549,-13.6354 l -26.0099,-23.6251 9.5119,-10.472 55.2709,50.2034 -13.4265,14.7818 -63.2017,-13.5949 -0.2403,0.2647 c 7.5263,6.1462 12.7765,10.57 15.7505,13.2714 l 26.1611,23.7625 -9.5806,10.5476 -55.2709,-50.2034"
           style="font-size:104.59603882px;fill:#ededed;-inkscape-font-specification:Open Sans Bold"
           id="path3447"
           inkscape:connector-curvature="0" />
      </g>
      <g
         style="font-size:21.53447914px;font-style:normal;font-variant:normal;font-weight:normal;font-stretch:normal;text-align:center;line-height:125%;letter-spacing:0px;word-spacing:0px;text-anchor:middle;fill:#ededed;fill-opacity:1;stroke:none;font-family:Open Sans;-inkscape-font-specification:Open Sans"
         id="text3371">
        <path
           d="m -4437.2616,8844.5491 16.8481,9.5355 14.3271,-13.0178 -3.7382,19.0109 16.8011,9.5089 -19.2947,2.2527 -3.7381,19.0109 -8.169,-17.7343 -19.3622,2.1524 14.327,-13.0178 -8.0011,-17.7014"
           style="font-size:110.74874878px"
           id="path3450"
           inkscape:connector-curvature="0" />
        <path
           d="m -4367.1864,8923.7142 -14.9239,-4.4631 21.3937,-71.5372 41.0043,12.2627 -3.7169,12.4285 -26.0802,-7.7996 -5.5168,18.447 24.2698,7.2581 -3.7022,12.3796 -24.2698,-7.2581 -8.458,28.2821"
           style="font-size:104.59603882px;font-weight:bold;letter-spacing:15.38177109px;fill:#ededed;-inkscape-font-specification:Open Sans Bold"
           id="path3452"
           inkscape:connector-curvature="0" />
        <path
           d="m -4292.9102,8896.6566 5.0957,0.3419 c 4.9939,0.335 8.7356,-0.25 11.2254,-1.7551 2.4896,-1.5051 3.8541,-4.0411 4.0935,-7.6082 0.237,-3.533 -0.8174,-6.129 -3.163,-7.7879 -2.3118,-1.6565 -6.0155,-2.6557 -11.1113,-2.9976 l -4.79,-0.3214 -1.3503,20.1283 m -0.8615,12.8414 -1.9178,28.5873 -15.7969,-1.0598 4.9979,-74.5002 21.708,1.4563 c 10.1236,0.6792 17.4901,3.0332 22.0998,7.062 4.6117,3.9949 6.6658,9.7462 6.1622,17.2539 -0.2941,4.3824 -1.7621,8.2083 -4.4043,11.4776 -2.6399,3.2354 -6.233,5.6731 -10.7792,7.3132 10.0871,17.5002 16.6651,28.8103 19.7342,33.9301 l -17.5295,-1.176 -15.8664,-29.7804 -8.408,-0.564"
           style="font-size:104.59603882px;font-weight:bold;letter-spacing:15.38177109px;fill:#ededed;-inkscape-font-specification:Open Sans Bold"
           id="path3454"
           inkscape:connector-curvature="0" />
        <path
           d="m -4184.6255,8931.6409 -42.4838,6.6612 -11.5662,-73.7664 42.4838,-6.6612 2.0094,12.8157 -26.8425,4.2088 2.5395,16.1963 24.9757,-3.916 2.0094,12.8158 -24.9756,3.916 2.9825,19.0219 26.8425,-4.2088 2.0253,12.9167"
           style="font-size:104.59603882px;font-weight:bold;letter-spacing:15.38177109px;fill:#ededed;-inkscape-font-specification:Open Sans Bold"
           id="path3456"
           inkscape:connector-curvature="0" />
        <path
           d="m -4154.814,8922.8581 -24.3589,-70.5826 14.9662,-5.165 24.3589,70.5826 -14.9662,5.165"
           style="font-size:104.59603882px;font-weight:bold;letter-spacing:15.38177109px;fill:#ededed;-inkscape-font-specification:Open Sans Bold"
           id="path3458"
           inkscape:connector-curvature="0" />
        <path
           d="m -4129.2694,8868.3742 16.7557,-9.697 -3.9674,-18.947 14.4983,12.8525 16.7089,-9.6699 -7.8307,17.7775 14.4982,12.8525 -19.4287,-1.9392 -7.9515,17.7849 -3.9674,-18.947 -19.3154,-2.0673"
           style="font-size:110.74874878px"
           id="path3460"
           inkscape:connector-curvature="0" />
      </g>
      <path
         style="font-size:medium;font-style:normal;font-variant:normal;font-weight:normal;font-stretch:normal;text-indent:0;text-align:start;text-decoration:none;line-height:normal;letter-spacing:normal;word-spacing:normal;text-transform:none;direction:ltr;block-progression:tb;writing-mode:lr-tb;text-anchor:start;baseline-shift:baseline;color:#000000;fill:#e5287a;fill-opacity:1;stroke:none;stroke-width:13.8409338;marker:none;visibility:visible;display:inline;overflow:visible;enable-background:accumulate;font-family:Sans;-inkscape-font-specification:Sans"
         d="m -4262.4688,8208.0312 c -209.094,0 -378.75,169.656 -378.75,378.75 0,209.0941 169.656,378.75 378.75,378.75 209.0941,0 378.7501,-169.6559 378.75,-378.75 0,-209.094 -169.6559,-378.75 -378.75,-378.75 z m 0,13.8438 c 201.614,0 364.9063,163.2923 364.9063,364.9062 0,201.614 -163.2923,364.9063 -364.9063,364.9063 -201.6139,0 -364.9062,-163.2923 -364.9062,-364.9063 0,-201.6139 163.2923,-364.9062 364.9062,-364.9062 z"
         id="path3142"
         inkscape:connector-curvature="0" />
    </g>
  </g>
</svg>
