<svg xmlns="http://www.w3.org/2000/svg" viewBox="0 0 311.81 155.91"><defs><style>.a{fill:#434345;}.b{fill:#6d6e71;}</style></defs><path class="a" d="M118.31,36c0,2.6-1.4,3.81-4,3.81H111V32.18h3.3C116.91,32.18,118.31,33.39,118.31,36Zm-4.85,2h.81c1.07,0,1.54-.61,1.54-1.65v-.66c0-1-.47-1.65-1.54-1.65h-.81Z"/><path class="a" d="M119.55,33.27v-1.5h2.2v1.5Zm0,6.53V34h2.2V39.8Z"/><path class="a" d="M128.38,34.44a1.59,1.59,0,0,1,.68,1.26c0,1.31-1.15,1.88-2.45,1.88h-.84c-.51,0-.7.14-.7.32s.13.35.7.35h2a1.75,1.75,0,0,1,2,1.87c0,1.3-1.15,2-2.46,2H124a1.44,1.44,0,0,1-1.47-1.43,1.49,1.49,0,0,1,.92-1.3,1.26,1.26,0,0,1-.57-1A1.38,1.38,0,0,1,124,37.11a1.79,1.79,0,0,1-.94-1.4c0-1.45,1.37-1.89,3-1.89a4.7,4.7,0,0,1,1,.07c.87-.55.86-1,.86-1h1.82A1.5,1.5,0,0,1,128.38,34.44Zm-3.74,5.89a.54.54,0,0,0,.57.56h1.73a.55.55,0,0,0,.59-.55.54.54,0,0,0-.59-.54h-1.73A.51.51,0,0,0,124.64,40.33Zm.59-4.63c0,.5.31.73.83.73s.86-.23.86-.73-.34-.73-.86-.73S125.23,35.2,125.23,35.7Z"/><path class="a" d="M130.61,33.27v-1.5h2.2v1.5Zm0,6.53V34h2.2V39.8Z"/><path class="a" d="M138.11,34v1.5h-1.23v2.22c0,.5.12.77.62.77h.61v1.29a5.52,5.52,0,0,1-1.41.2c-1.2,0-2-.37-2-1.56V35.45h-.82V34h.91l.48-1.77h1.64V34Z"/><path class="a" d="M145,35.72V38c0,.25.11.44.36.44h.39v1.27a2.56,2.56,0,0,1-1.15.22c-.88,0-1.42-.29-1.62-.73a3.27,3.27,0,0,1-2.16.73c-1.22,0-2.06-.42-2.06-1.64,0-1.75,1.48-2.08,4-2.08v-.29c0-.47-.38-.69-.85-.69s-.84.12-.84.51v0H139a.86.86,0,0,1,0-.16c0-1.07,1.05-1.8,3.05-1.8C143.63,33.82,145,34.29,145,35.72ZM141,38c0,.46.38.56.76.56.56,0,1.08-.33,1.08-.81v-.5C141.53,37.25,141,37.57,141,38Z"/><path class="a" d="M146.59,39.8v-8h2.2v8Z"/><path class="a" d="M155.43,39.8,153.22,34h2.37l1.07,3.64h.08L157.81,34H160l-2.23,5.85Z"/><path class="a" d="M166.68,36.88v.37h-4.39c0,.81.34,1.27,1.18,1.27s1.07-.37,1.07-.85h2.14c0,1.4-1.07,2.26-3.17,2.26s-3.42-1-3.42-3,1.3-3.06,3.29-3.06S166.68,34.77,166.68,36.88Zm-4.38-.67h2.15a.9.9,0,0,0-1-1A1,1,0,0,0,162.3,36.21Z"/><path class="a" d="M171.94,33.94v1.85h-.71c-.95,0-1.29.52-1.29,1.41v2.6h-2.2V34h1.8l.15.89a1.62,1.62,0,0,1,1.6-1A1.47,1.47,0,0,1,171.94,33.94Z"/><path class="a" d="M177.1,34v1.5h-1.24v2.22c0,.5.12.77.62.77h.62v1.29a5.66,5.66,0,0,1-1.42.2c-1.19,0-2-.37-2-1.56V35.45h-.82V34h.91l.47-1.77h1.64V34Z"/><path class="a" d="M184.44,36.88v.37h-4.39c0,.81.34,1.27,1.18,1.27s1.07-.37,1.07-.85h2.14c0,1.4-1.07,2.26-3.17,2.26s-3.42-1-3.42-3,1.3-3.06,3.29-3.06S184.44,34.77,184.44,36.88Zm-4.38-.67h2.15a.9.9,0,0,0-1-1A1,1,0,0,0,180.06,36.21Z"/><path class="a" d="M185.58,33.27v-1.5h2.2v1.5Zm0,6.53V34h2.2V39.8Z"/><path class="a" d="M189.26,39.8v-8h2.2v8Z"/><path class="a" d="M196.76,34v1.5h-1.24v2.22c0,.5.13.77.62.77h.62v1.29a5.58,5.58,0,0,1-1.41.2c-1.2,0-2-.37-2-1.56V35.45h-.82V34h.91l.48-1.77h1.63V34Z"/><path class="a" d="M204.1,36.88v.37h-4.38c0,.81.33,1.27,1.17,1.27s1.07-.37,1.07-.85h2.14c0,1.4-1.06,2.26-3.17,2.26s-3.41-1-3.41-3,1.29-3.06,3.28-3.06S204.1,34.77,204.1,36.88Zm-4.37-.67h2.15a.91.91,0,0,0-1-1A1,1,0,0,0,199.73,36.21Z"/><path class="a" d="M210.74,35.7h-2.05a.47.47,0,0,0-.29-.45,1,1,0,0,0-.49-.11c-.19,0-.8,0-.8.37,0,.85,3.77,0,3.77,2.35,0,1.6-1.41,2.07-3,2.07s-3-.58-3-2h2.05v0c0,.56.64.67,1,.67s.92,0,.92-.43c0-.87-3.77-.08-3.77-2.38,0-1.54,1.39-2,2.93-2C209.32,33.82,210.74,34.32,210.74,35.7Z"/><path class="a" d="M223.66,36c0,2.6-1.51,3.94-4.11,3.94s-4.11-1.34-4.11-3.94,1.51-3.94,4.11-3.94S223.66,33.39,223.66,36Zm-5.72-.35v.7a1.62,1.62,0,1,0,3.22,0v-.7a1.62,1.62,0,1,0-3.22,0Z"/><path class="a" d="M230.89,36V39.8h-2.2V36.28a.73.73,0,0,0-.74-.83.89.89,0,0,0-.92.92V39.8h-2.2V34h1.8l.14.89a2.62,2.62,0,0,1,2.08-1C230.24,33.82,230.89,34.63,230.89,36Z"/><path class="a" d="M232.28,39.8v-8h2.21v8Z"/><path class="a" d="M236,33.27v-1.5h2.2v1.5Zm0,6.53V34h2.2V39.8Z"/><path class="a" d="M245.64,36V39.8h-2.2V36.28a.73.73,0,0,0-.74-.83.89.89,0,0,0-.92.92V39.8h-2.2V34h1.8l.14.89a2.62,2.62,0,0,1,2.08-1C245,33.82,245.64,34.63,245.64,36Z"/><path class="a" d="M253.28,36.88v.37h-4.39c0,.81.34,1.27,1.18,1.27s1.07-.37,1.07-.85h2.14c0,1.4-1.07,2.26-3.17,2.26s-3.42-1-3.42-3,1.3-3.06,3.29-3.06S253.28,34.77,253.28,36.88Zm-4.38-.67h2.15a.9.9,0,0,0-1-1A1,1,0,0,0,248.9,36.21Z"/><path class="a" d="M254.11,37.63V35.88h2.82v1.75Z"/><path class="a" d="M265.47,35.31h-2.34a1.26,1.26,0,0,0-1.33-1.43c-1,0-1.44.72-1.44,1.76v.7c0,1,.42,1.76,1.41,1.76a1.27,1.27,0,0,0,1.44-1.39h2.26c0,2.09-1.34,3.22-3.66,3.22-2.6,0-3.95-1.34-3.95-3.94s1.35-3.94,3.95-3.94C264,32.05,265.47,33.19,265.47,35.31Z"/><path class="a" d="M270.66,33.82c1.38,0,2,.81,2,2.19V39.8h-2.21V36.28c0-.49-.25-.83-.74-.83a.9.9,0,0,0-.92.92V39.8h-2.2v-8h2.2v2.79A2.63,2.63,0,0,1,270.66,33.82Z"/><path class="a" d="M279.92,35.72V38c0,.25.11.44.36.44h.39v1.27a2.61,2.61,0,0,1-1.15.22c-.88,0-1.42-.29-1.62-.73a3.27,3.27,0,0,1-2.16.73c-1.22,0-2.06-.42-2.06-1.64,0-1.75,1.48-2.08,4-2.08v-.29c0-.47-.38-.69-.85-.69s-.84.12-.84.51v0h-2.17a.86.86,0,0,1,0-.16c0-1.07,1-1.8,3-1.8C278.51,33.82,279.92,34.29,279.92,35.72Zm-4,2.28c0,.46.38.56.76.56.56,0,1.08-.33,1.08-.81v-.5C276.41,37.25,275.88,37.57,275.88,38Z"/><path class="a" d="M287.71,36.88c0,2-1.3,3-3.3,3s-3.28-1-3.28-3,1.29-3.06,3.28-3.06S287.71,34.83,287.71,36.88Zm-4.38-.31v.63c0,.77.31,1.24,1.08,1.24s1.1-.47,1.1-1.24v-.63c0-.78-.32-1.26-1.1-1.26S283.33,35.79,283.33,36.57Z"/><path class="a" d="M294.35,35.7H292.3a.47.47,0,0,0-.28-.45,1,1,0,0,0-.5-.11c-.19,0-.8,0-.8.37,0,.85,3.78,0,3.78,2.35,0,1.6-1.42,2.07-3,2.07s-3-.58-3-2h2.05v0c0,.56.64.67,1,.67s.92,0,.92-.43c0-.87-3.77-.08-3.77-2.38,0-1.54,1.39-2,2.93-2C292.94,33.82,294.35,34.32,294.35,35.7Z"/><path class="b" d="M145.64,116V45.46h10.29V116Z"/><path class="a" d="M129.61,55.81c6.46,0,9.51,3.78,9.51,10.24V83.74H128.83V67.3c0-2.28-1.19-3.88-3.47-3.88a4.18,4.18,0,0,0-4.29,4.29v16H110.78V46.24h10.29v13A12.15,12.15,0,0,1,129.61,55.81Z"/><path class="a" d="M182.37,83.74l-.88-3.87a9.85,9.85,0,0,1-8.69,4.49c-7.24,0-11.54-4.7-11.54-14.32s4.3-14.23,11.54-14.23A10.06,10.06,0,0,1,180.45,59V46.24h10.3v37.5Zm-10.81-15v2.75c0,3.2,1.24,5.27,4.45,5.27s4.55-2.58,4.55-5.79V69.26c0-3.21-1.35-5.84-4.55-5.84S171.56,65.54,171.56,68.74Z"/><path class="a" d="M217.39,83.74l-.88-3.87a9.85,9.85,0,0,1-8.69,4.49c-7.24,0-11.54-4.7-11.54-14.32s4.3-14.23,11.54-14.23A10.06,10.06,0,0,1,215.47,59V46.24h10.3v37.5Zm-10.81-15v2.75c0,3.2,1.24,5.27,4.44,5.27s4.56-2.58,4.56-5.79V69.26c0-3.21-1.35-5.84-4.56-5.84S206.58,65.54,206.58,68.74Z"/><path class="a" d="M261.56,70.09v1.76H241.08c0,3.77,1.55,6,5.48,6,3.67,0,5-1.76,5-4h10c0,6.52-5,10.55-14.79,10.55s-16-4.44-16-14.27c0-9.57,6.06-14.28,15.37-14.28C256,55.81,261.56,60.26,261.56,70.09ZM241.13,67h10a4.24,4.24,0,0,0-4.6-4.61C243.09,62.38,241.49,64.14,241.13,67Z"/><path class="a" d="M294.87,66.05V83.74H284.58V67.3c0-2.28-1.19-3.88-3.47-3.88a4.18,4.18,0,0,0-4.29,4.29v16H266.53V56.43H275l.67,4.14a12.19,12.19,0,0,1,9.72-4.76C291.82,55.81,294.87,59.59,294.87,66.05Z"/><path class="a" d="M47.51,96.91H37.94a2.21,2.21,0,0,0-1.34-2.13,4.78,4.78,0,0,0-2.33-.51c-.88,0-3.72,0-3.72,1.76,0,3.93,17.64-.16,17.64,11,0,7.5-6.62,9.67-14.12,9.67C27.24,116.66,20,114,20,107.15h9.57v.2c.05,2.64,3,3.16,4.5,3.16s4.29-.1,4.29-2c0-4.08-17.64-.36-17.64-11.12,0-7.19,6.52-9.26,13.71-9.26C40.89,88.11,47.51,90.44,47.51,96.91Z"/><path class="a" d="M82.58,102.39v1.76H62.1c0,3.77,1.55,5.95,5.48,5.95,3.68,0,5-1.76,5-4h10c0,6.52-5,10.55-14.79,10.55s-16-4.44-16-14.27c0-9.57,6-14.28,15.36-14.28C77,88.11,82.58,92.56,82.58,102.39ZM62.15,99.28h10a4.24,4.24,0,0,0-4.61-4.6C64.12,94.68,62.52,96.44,62.15,99.28Z"/><path class="a" d="M107.21,88.68v8.64H103.9c-4.45,0-6.06,2.43-6.06,6.57V116H87.55V88.73H96l.67,4.14a7.68,7.68,0,0,1,7.5-4.81A6.89,6.89,0,0,1,107.21,88.68Z"/><path class="a" d="M119.81,116l-9.4-27.31h10.06l4.56,17h.33l4.55-17h9.21L129.63,116Z"/><path class="a" d="M190.75,99.75h-9.68c0-3.21-1.81-4.65-4.91-4.65-3.51,0-4.92,2.22-4.92,5.84v3c0,3.62,1.46,5.79,5.12,5.79,3.26,0,5.11-1.39,5.11-4.76h9.28c0,8.33-6.52,11.74-14.59,11.74-9,0-14.9-4.7-14.9-14.27s5.87-14.28,14.9-14.28C184.23,88.11,190.75,91.42,190.75,99.75Z"/><path class="a" d="M225.77,102.39v1.76H206.14c0,3.77,1.49,5.95,5.25,5.95,3.52,0,4.81-1.76,4.81-4h9.57c0,6.52-4.76,10.55-14.18,10.55s-15.31-4.44-15.31-14.27c0-9.57,5.8-14.28,14.72-14.28C220.41,88.11,225.77,92.56,225.77,102.39Zm-19.58-3.11h9.62c0-2.84-1.64-4.6-4.42-4.6C208.08,94.68,206.54,96.44,206.19,99.28Z"/></svg>