<svg xmlns="http://www.w3.org/2000/svg" viewBox="0 0 311.81 210.39"><defs><style>.a{fill:#f79520;}.b{fill:#ad621b;}.c{fill:#6d6e71;}.d{fill:#434345;}.e{fill:#58595b;}.f{fill:#4b9042;}.g{fill:#5ab547;}.h{fill:#417e3c;}</style></defs><path class="a" d="M272.86,85.19h0a5.78,5.78,0,0,1-1.72-.68,4.31,4.31,0,0,1-.73-.54c-1.88-1.54-3.89-3-6-4.45a78.87,78.87,0,0,0-8.21-4.82,73,73,0,0,0-6.8-3,101.14,101.14,0,0,0-10.89-3.11c-1.19-.26-2.41-.52-3.76-.77l-2.46-.43-1.25-.19a101.72,101.72,0,0,0-15-1.12c-1.56,0-3.12.15-4.63.28-1.91.16-3.88.39-5.85.68l-.57.08,4.2,14.58a.68.68,0,0,1-.06.54.7.7,0,0,1-.43.34.72.72,0,0,1-.88-.49L206.34,77l-.05-.12a.67.67,0,0,1-.08-.18l-2.5-8.85-.12-.45-.45.07c-1.32.23-2.59.47-3.82.72-3,.6-5.76,1.26-8,1.8a164.33,164.33,0,0,0-16,4.45l-.45.15,1.73,6.11a.65.65,0,0,1,0,.31l0,.11,1.54,5.84a.72.72,0,0,1-.5.88.7.7,0,0,1-.88-.48L173.49,75l-.52.19a99.27,99.27,0,0,0-16.8,8c-1.16.7-2.23,1.36-3.26,2l-.31.2,5.33,18.85,0,.15a.73.73,0,0,1-.52.74.75.75,0,0,1-.42,0,.68.68,0,0,1-.37-.3.7.7,0,0,1-.1-.19l-5.2-18.4-1.1.76c-.83.58-1.66,1.17-2.48,1.79A99.45,99.45,0,0,0,136.09,99l-.34.35.33.35a12,12,0,0,1,.84,1,8.74,8.74,0,0,1,1.58,2.86l0,.09a6,6,0,0,1,.22,1.72c0,.18,0,.37-.05.56a4.69,4.69,0,0,1-.23.93,4.47,4.47,0,0,1-.55,1.06,9.54,9.54,0,0,1-.71.89l-.3.35-.17.22a8.14,8.14,0,0,0-.94,1.52,9.6,9.6,0,0,0-.93,3l-.06.34a5.34,5.34,0,0,1-1.34,2.81l-.22.21a6.07,6.07,0,0,1-.75.61l-.25.16-.58.36.51.44c.14.13.28.26.41.4a7.36,7.36,0,0,1,1.12,1.49,5.47,5.47,0,0,1,.51,1.22,6.06,6.06,0,0,1,.21,1.63,5.55,5.55,0,0,0,.16,1.37l.06.26.13.41a6.72,6.72,0,0,0,.88,1.78l.43.59a8.17,8.17,0,0,1,.54.73,7,7,0,0,1,.49.88c0,.11.09.23.14.35l.12.37a7.1,7.1,0,0,1,.18,1,3.39,3.39,0,0,1,0,.55c0,.12,0,.23,0,.35v.71l.67-.23a6,6,0,0,1,3.32-.22,4.31,4.31,0,0,1,2.21,1.25l.36.38a13.83,13.83,0,0,0,1.19,1.14l.48.39.38.28a12.81,12.81,0,0,0,2.63,1.52l.73.34a8.43,8.43,0,0,1,1.71,1.14,10.86,10.86,0,0,1,3.28,5.43l.19.71.36,0,2.55.13c2.37.1,4.79.14,7.2.14,2,0,4,0,5.93-.09,1.26,0,2.52-.11,3.77-.18l1.3-.07c1.35-.08,2.82-.17,4.39-.29l1.72-.13.61-.05-2.28-8.05a.59.59,0,0,1,0-.14.7.7,0,0,1,.52-.74.72.72,0,0,1,.88.49l2.35,8.32.41,0a139.38,139.38,0,0,0,17-2.57c2.11-.46,4.22-1,6.25-1.52l.49-.14-2.76-9.75a.71.71,0,0,1,.49-.88.68.68,0,0,1,.4,0,.71.71,0,0,1,.49.49l2.76,9.76.48-.14c3.54-1,7.08-2.27,10.51-3.64,1.48-.59,2.86-1.17,4.21-1.77l1.61-.72c.84-.38,1.73-.79,2.68-1.24,1.47-.7,2.8-1.36,4.06-2l.36-.19-4-14.29a.72.72,0,0,1,.14-.65.77.77,0,0,1,.36-.23.72.72,0,0,1,.88.49l3.95,14,.55-.31A74,74,0,0,0,249,119.09c.71-.64,1.42-1.31,2.14-2,1-1,2.21-2.19,3.46-3.54l1.1-1.22c.37-.43.75-.87,1.13-1.33s.77-1,1.17-1.46c.6-.78,1.21-1.6,1.8-2.44,1.77-2.53,3.34-4.78,4.66-6.75.94-1.4,1.69-2.57,2.37-3.69A77.46,77.46,0,0,0,271,88.7a7,7,0,0,1,2.32-2.55l.92-.67-1.12-.22Zm-32.08,15.3a.74.74,0,0,1-1,.18.71.71,0,0,1-.27-.39.7.7,0,0,1,.1-.61l4.46-6.36-7.13-3.09a.7.7,0,0,1-.41-.46.71.71,0,0,1,.69-.91.67.67,0,0,1,.28.06l7.71,3.33,14.7-4.15a.71.71,0,0,1,.88.49.71.71,0,0,1-.49.88l-14.7,4.16Zm-9.33,5.64a21.65,21.65,0,0,1-23.93,6.31c-3.62-1.5-6.1-4.07-7-7.24l0-.17c-.86-3.24,0-6.77,2.48-9.91a20.49,20.49,0,0,1,11-6.91,22.61,22.61,0,0,1,5.78-.76h0a18.76,18.76,0,0,1,7.17,1.36,12.93,12.93,0,0,1,5,3.52,9.88,9.88,0,0,1,2,3.76l0,.13C234.79,99.46,233.91,103,231.45,106.13Zm-33.91,6.5-11-2.38-22.1,6.49a.72.72,0,0,1-.4-1.38l22-6.45.12,0,8-7.95a.7.7,0,0,1,.5-.2.74.74,0,0,1,.51.2.72.72,0,0,1,0,1L188,109.09l9.88,2.14a.72.72,0,0,1,.55.85A.74.74,0,0,1,197.54,112.63Z"/><path class="b" d="M271.7,82.53A79.78,79.78,0,0,0,257.09,73a73.18,73.18,0,0,0-8.42-3.61,100.14,100.14,0,0,0-31.14-5.26,155.83,155.83,0,0,0-26.66,4c-10.81,2.57-27.36,6.54-44.26,19.17A100.81,100.81,0,0,0,133,99.5c2.36,1.93,3.35,3.47,3.69,4.67a3.54,3.54,0,0,1,.11,1.48c-.21,1.57-1.38,1.71-2.71,4.38-1.56,3.13-.69,4.39-2.15,5.78-1.87,1.77-4.68,1-4.81,1.87a.22.22,0,0,0,0,.14c.22.8,3.44,1.19,4.9,3.8a3.23,3.23,0,0,1,.34.8c.27.93,0,1.6.43,3.25.05.16.1.33.16.51.91,2.68,2.13,3.06,2.57,4.61a3.77,3.77,0,0,1,.12.65c.29,2.42-1.3,4.1-1.11,4.78a.39.39,0,0,0,.1.16c.78.7,3.54-2.81,6.52-2.12,1.4.32,1.29,1.2,3.92,3.12s3.48,1.64,5,2.91a8.73,8.73,0,0,1,2.68,4.49,16.07,16.07,0,0,1,.42,2,173.79,173.79,0,0,0,22.55.07c11.77-.72,29.69-2,49.86-11,6.88-3.06,17.14-7.74,26.92-17.42a70.08,70.08,0,0,0,8.9-10.27c6.17-8.82,8.26-11.93,11.43-18.67,1-2.07,5.72-4.28,13.33-7.29C280.66,82.88,273.89,84.63,271.7,82.53Zm-1.12,6c-3.11,6.61-5.18,9.66-11.22,18.3a68.88,68.88,0,0,1-8.62,9.95,74.44,74.44,0,0,1-15.68,11.75l-3.78-13.36a1.22,1.22,0,1,0-2.34.66l3.93,13.89c-3.18,1.69-6,3-8.33,4a116.21,116.21,0,0,1-14.65,5.39l-2.62-9.27a1.22,1.22,0,0,0-2.34.66l2.62,9.27a135.56,135.56,0,0,1-23.15,4.07l-2.24-7.91a1.22,1.22,0,0,0-2.34.66l2.11,7.46c-2.34.19-4.49.32-6.41.44a173.22,173.22,0,0,1-20.38,0c0-.12-.07-.24-.1-.37a11.3,11.3,0,0,0-3.44-5.67,9.54,9.54,0,0,0-2.56-1.56,13.63,13.63,0,0,1-4.52-3.22,5.16,5.16,0,0,0-2.82-1.77,6.43,6.43,0,0,0-3.59.24,8.09,8.09,0,0,0-.05-1,6.71,6.71,0,0,0-.2-1,7,7,0,0,0-1.37-2.51,6.66,6.66,0,0,1-1.23-2.22l-.13-.39a5.27,5.27,0,0,1-.2-1.51,6.51,6.51,0,0,0-.23-1.75,5.94,5.94,0,0,0-.56-1.32,7.6,7.6,0,0,0-1.63-2,6.77,6.77,0,0,0,1.08-.83,6.05,6.05,0,0,0,1.79-3.71,9,9,0,0,1,.86-2.75,8.52,8.52,0,0,1,1.39-2,5.62,5.62,0,0,0,1.56-3.09,5.82,5.82,0,0,0-.18-2.48,10.13,10.13,0,0,0-2.56-4.13,98.36,98.36,0,0,1,11.61-10.19c1-.75,2-1.46,3-2.15l5,17.74a1.22,1.22,0,0,0,1.5.84,1.21,1.21,0,0,0,.84-1.5l-5.23-18.5a98.41,98.41,0,0,1,20-9.94l3.09,11.77a1.22,1.22,0,1,0,2.34-.67l-3.13-11.91c6.05-2.07,11.5-3.37,16-4.44,3.47-.82,7.41-1.75,11.79-2.5l4.13,14.3a1.2,1.2,0,0,0,1.5.84,1.22,1.22,0,0,0,.84-1.5l-4.05-14a86.65,86.65,0,0,1,9.94-1,101.83,101.83,0,0,1,34.81,6,50.71,50.71,0,0,1,5.6,2.57,77.23,77.23,0,0,1,14.11,9.21,6,6,0,0,0,3,1.39A7.47,7.47,0,0,0,270.58,88.49Z"/><path class="c" d="M241.38,55.75l-.17.47h0l.09-.51a2.5,2.5,0,0,1-.26-2.66,3.16,3.16,0,0,1,1.28-1.68l.5-.3-.11-.58a21,21,0,0,0-5.83-11,20.49,20.49,0,0,0-11.45-5.53c-.35-.64-.64-1.18-.86-1.6l-.21-.4c-.27-.5-.44-.84-.71-1.3,0,0-.67-1.2-1.31-2.21-3-4.71-13.19-9-14.33-9.47a59.84,59.84,0,0,0-6.31-2.27,35.4,35.4,0,0,0-9.53-1.61c-3.15,0-5.22.82-6,2.36-1,2.08.48,4.81,4.29,7.9l.17.14c-.93.15-2.07.35-3.14.59-.13,0-12.62,3-12.39,7.34.14,2.81,4.51,4.75,11.66,5.18a56.14,56.14,0,0,0,8.81-.23A59.21,59.21,0,0,0,203.43,37c.61.26,1.24.52,1.86.76l1.39.52a4,4,0,0,0-.61,1.3c-.65.75-8.18,1.92-18.33,2.46-6.59.36-16.53.89-22.25,7.52A16.91,16.91,0,0,0,164,51.63a9.25,9.25,0,0,0-3.16-2.5,9.53,9.53,0,0,0-4.13-.94,8.84,8.84,0,0,0-5.89,2.17c-3,2.63-2.88,6.3-2.85,8.06,0,1.54.09,5.13,3,7.79a9,9,0,0,0,3,1.77l.34.13.32-.16a15.58,15.58,0,0,0,5.49-4.5l-.4-.31.51.29a.08.08,0,0,1,0,.11,16,16,0,0,1-2.63,2.69,15.38,15.38,0,0,1-2.95,1.87l-.28.14-.12.3c-.93,2.26-2.32,5.49-3.67,8-.85,1.61-1.51,2.82-2,3.68-.32.55-.6,1-.88,1.46s-.53.86-.75,1.26l-.82,1.47,1.67-.24a14.24,14.24,0,0,1,1.72-.14,14,14,0,0,1,3.06.32l.11-.48h0l0,.58.48.11h0l-.58,0a13.18,13.18,0,0,0-3-.32,12.67,12.67,0,0,0-3,.4l-.41.16-.19.57c-1.58,5-1.81,13.25,2.7,15.26a4.87,4.87,0,0,0,1.62.39h.31c3.45,0,6.91-3.38,7.56-4.06,3.69-3.82,4.34-9,4.44-11.11a18.75,18.75,0,0,0-.09-3,5.39,5.39,0,0,1,.21-2.72,18.81,18.81,0,0,1,1.31-2.85,30.65,30.65,0,0,0,8,1.28,32.11,32.11,0,0,0,15.75-3.79A34.66,34.66,0,0,0,196.78,68l.56-.58-.56-.58a8.65,8.65,0,0,0-5.93-2.66.23.23,0,0,1-.21-.24c0-.14.12-.22.29-.22H191l.18,0,.36,0a5.72,5.72,0,0,1,2.28.66,12.32,12.32,0,0,1,4.43,3.26l.09.1c.13.17.4.5.87,1.16.36.48.73,1,1.24,1.6a26.68,26.68,0,0,0,4.44,4.13l.83.61.43-.93a9.59,9.59,0,0,1,2-2.85h.11a.08.08,0,0,1,0,.11A10,10,0,0,0,207.07,73a10.25,10.25,0,0,0-.82,1.49l-.47.71.72.45c5,3.21,9.85,4,12.61,2.13,2.37-1.62,3.64-5.28,2.46-7.11a2.89,2.89,0,0,0-1.43-1,14.58,14.58,0,0,1-1.72-.89,16.3,16.3,0,0,1-2.5-1.87,21.48,21.48,0,0,1-3.87-4.46.24.24,0,0,1,.07-.33.26.26,0,0,1,.32.07,20.91,20.91,0,0,0,3.79,4.37l.07.06a16.78,16.78,0,0,0,2.19,1.65,10.66,10.66,0,0,0,5.68,1.42,21.75,21.75,0,0,0,6.46-1.09c5.11-1.65,8.73-4.5,10.77-8.48a14.92,14.92,0,0,0,1.21-3.3l.29-1.24-1.26.23A.51.51,0,0,1,241.38,55.75Zm-37.82-31c4.81.28,6.71.92,7.95,1.51a16.19,16.19,0,0,1,2.19,1.28l.17.11a32.92,32.92,0,0,1,5.75,4.87l-.1,0a20.89,20.89,0,0,0-5.26-4.32l-.92-.58a17.37,17.37,0,0,0-2.26-1.32c-1.29-.61-3.26-1.28-8.17-1.57-.87-.05-1.75-.08-2.65-.09C201.38,24.69,202.49,24.72,203.56,24.79Z"/><path class="d" d="M243.77,50.72a22,22,0,0,0-6.19-12,21.21,21.21,0,0,0-11.51-5.71l-.62-1.18-.2-.37-.74-1.37h0c-.21-.42-.6-1.08-1.33-2.23-3.15-5-13.56-9.36-14.8-9.86a57.24,57.24,0,0,0-6.4-2.3,36.26,36.26,0,0,0-9.81-1.66c-3.61,0-5.92,1-6.86,2.93-.77,1.6-.77,4.2,3.12,7.85l-1.13.23A44.26,44.26,0,0,0,180,27.53c-2.61,1.16-6.06,3-5.91,5.93.18,3.42,4.78,5.65,12.6,6.12,1,.06,2,.08,3,.08a59.33,59.33,0,0,0,6-.31,59.94,59.94,0,0,0,7.64-1.29l1.59.65.34.13,0,0c-.62.26-2.74.9-9.27,1.55-4.25.42-8.25.64-8.29.64-6.75.36-17,.91-22.95,7.86-.31.35-.6.72-.88,1.1a10.41,10.41,0,0,0-7.17-2.84,9.79,9.79,0,0,0-6.55,2.43c-3.29,2.93-3.22,7.06-3.19,8.82,0,1.52.1,5.55,3.33,8.5a9.91,9.91,0,0,0,2.78,1.78c-1,2.36-2.21,5.15-3.4,7.4-.84,1.59-1.49,2.78-2,3.63-.33.56-.6,1-.85,1.4l0,0a15.08,15.08,0,0,0-1.87,3.86c-1.73,5.47-1.87,14.19,3.24,16.46a5.53,5.53,0,0,0,2,.48h.37c3.85,0,7.57-3.64,8.28-4.37,3.92-4.06,4.6-9.57,4.72-11.75a21.42,21.42,0,0,0-.1-3.12,4.48,4.48,0,0,1,.16-2.32,16.13,16.13,0,0,1,.87-2,32.11,32.11,0,0,0,7.47,1.1h.84a33.34,33.34,0,0,0,15.4-3.92,35.64,35.64,0,0,0,9.34-7l.23-.23c.14.19.37.48.73,1s.75,1,1.28,1.66c4.25,5,10.86,8.71,15.72,8.71a7.33,7.33,0,0,0,4.22-1.2,8,8,0,0,0,2.91-3.89,5.56,5.56,0,0,0,.06-4.15,15.11,15.11,0,0,0,1.53.07,23.12,23.12,0,0,0,6.77-1.13c5.36-1.74,9.18-4.76,11.35-9A16.18,16.18,0,0,0,244,54.63a4.68,4.68,0,0,0,.19-.45A3.4,3.4,0,0,0,243.77,50.72Zm-13.4,17a21.23,21.23,0,0,1-6.2,1,10,10,0,0,1-5.24-1.29,12.61,12.61,0,0,1-2.16-1.63,20.27,20.27,0,0,1-3.63-4.19,1.05,1.05,0,0,0-.89-.49,1.15,1.15,0,0,0-.59.17,1.08,1.08,0,0,0-.31,1.48,22.08,22.08,0,0,0,4,4.64,16.76,16.76,0,0,0,2.62,2c1.82,1.11,2.46,1,2.88,1.68.88,1.37-.16,4.56-2.23,6a5.5,5.5,0,0,1-3.19.88c-2.54,0-5.63-1.19-8.5-3a.83.83,0,0,0,.07-.13,9.37,9.37,0,0,1,.74-1.36,9.49,9.49,0,0,1,1.1-1.36.91.91,0,0,0,0-1.29.93.93,0,0,0-1.3,0,10.75,10.75,0,0,0-1.31,1.63,9.88,9.88,0,0,0-.81,1.46,25.27,25.27,0,0,1-4.3-4c-.49-.59-.85-1.08-1.2-1.56-.61-.84-.89-1.16-1-1.28a13.61,13.61,0,0,0-4.72-3.49,6.26,6.26,0,0,0-2.64-.74c-.32,0-.52,0-.65,0h-.06a1.07,1.07,0,0,0-.06,2.13h0a7.64,7.64,0,0,1,2.6.54,8,8,0,0,1,2.75,1.86A34,34,0,0,1,187.31,74a31.39,31.39,0,0,1-14.56,3.72H172a30.3,30.3,0,0,1-8.42-1.45,22.5,22.5,0,0,0-1.7,3.58,6.32,6.32,0,0,0-.25,3.07,18.47,18.47,0,0,1,.09,2.85c-.1,2-.71,7-4.21,10.58-.43.44-3.79,3.81-7,3.81h-.26a3.6,3.6,0,0,1-1.34-.32c-3.86-1.72-3.78-9.37-2.24-14.23a1.18,1.18,0,0,1,.07-.2,11.94,11.94,0,0,1,2.73-.35,12.26,12.26,0,0,1,2.83.3.92.92,0,0,0,.4-1.79,14.24,14.24,0,0,0-3.25-.34,16.1,16.1,0,0,0-1.83.14c.22-.38.45-.77.73-1.22s.55-.89.89-1.48c.52-.87,1.18-2.09,2-3.71,1.33-2.52,2.71-5.7,3.7-8.12a16.63,16.63,0,0,0,5.87-4.8.91.91,0,1,0-1.45-1.11,15.1,15.1,0,0,1-2.47,2.52,14.69,14.69,0,0,1-2.73,1.74,8.18,8.18,0,0,1-2.68-1.61c-2.66-2.42-2.71-5.75-2.74-7.18,0-1.64-.09-5.06,2.57-7.42a8,8,0,0,1,5.34-2,8.69,8.69,0,0,1,3.77.86,8.49,8.49,0,0,1,3.59,3.3,16.21,16.21,0,0,1,2.07-3.06c5.38-6.23,14.64-6.85,21.67-7.22,0,0,18.45-1,19.05-3a3.29,3.29,0,0,1,1.21-1.82l.21-.12c-.9-.3-1.8-.62-2.67-1-.64-.25-1.29-.52-1.93-.79l-.16-.07-.18,0a55,55,0,0,1-7.81,1.35c-2,.2-3.94.31-5.82.31q-1.45,0-2.85-.09c-6.49-.38-10.76-2.11-10.88-4.38-.16-3,9.12-5.91,11.73-6.49,2.41-.53,5.11-.87,5.11-.87l1.39-.16a55.86,55.86,0,0,1,5.82-.31c1,0,1.92,0,2.85.08,4.77.28,6.65.91,7.86,1.49a16.23,16.23,0,0,1,2.16,1.27A23.32,23.32,0,0,1,219,33.21a1,1,0,0,0,.6.22.87.87,0,0,0,.65-.28.88.88,0,0,0,0-1,30.84,30.84,0,0,0-6.09-5.23,16.31,16.31,0,0,0-2.3-1.35c-1.31-.62-3.31-1.29-8.26-1.59-1-.05-1.92-.08-2.91-.08a57.94,57.94,0,0,0-5.93.31c-1.27.13-2.52.3-3.76.51-3.25-2.64-4.88-5.17-4-6.88.61-1.28,2.51-1.9,5.21-1.9a34.38,34.38,0,0,1,9.29,1.58,58.84,58.84,0,0,1,6.22,2.24s11,4.5,14,9.15c.64,1,1.28,2.15,1.28,2.15.33.59.52,1,.91,1.7.26.5.62,1.17,1.06,2a19.87,19.87,0,0,1,11.41,5.36,20.2,20.2,0,0,1,5.59,10.58,4.08,4.08,0,0,0-1.64,2.12c-.59,1.64-.17,3.14.59,3.64a1.15,1.15,0,0,0,.25.12,1.26,1.26,0,0,0,.7,0,13.41,13.41,0,0,1-1.13,3.11C237.77,65.31,232.21,67.15,230.37,67.75Z"/><path class="d" d="M231.27,49.46a.86.86,0,0,1-.28,0c-.9,0-2.09-1-2.49-2.71-.45-1.87.3-3.42,1.25-3.65l.28,0c.91,0,2.09,1,2.5,2.71C233,47.68,232.23,49.23,231.27,49.46Z"/><path class="d" d="M224.66,55.51l-.81-.35-.45-.2a3.68,3.68,0,0,0-1.51-.35,3,3,0,0,0-2.11.87h-.17a3.17,3.17,0,0,1-1.32-.4c-2-1-4.1-1.83-6.15-2.74-1.13-.5-1.35-.94-1.09-2.14a1,1,0,0,0-.68-1.33,1.47,1.47,0,0,0-.34-.05,1.06,1.06,0,0,0-1,.8,3.56,3.56,0,0,0,1.8,4.41l.16.07,3.56,1.58c1.21.53,2.42,1.09,3.65,1.6a1.13,1.13,0,0,1,.53.41,3.14,3.14,0,0,0,2,3.12l.22.1a5.33,5.33,0,0,0,1,.44l.06,0a3.7,3.7,0,0,0,1.42.3,3.06,3.06,0,0,0,2.87-2A3.1,3.1,0,0,0,224.66,55.51ZM220.77,58a1.28,1.28,0,0,1,.12-.69,1.62,1.62,0,0,1,.27-.41c.15-.08.3-.18.45-.28a.86.86,0,0,1,.28,0,1.74,1.74,0,0,1,.69.17l1.24.55a1.12,1.12,0,0,1,.69,1.57,1.07,1.07,0,0,1-1,.77,1.65,1.65,0,0,1-.65-.15c-.21-.08-.41-.18-.62-.27L221.6,59a1.84,1.84,0,0,1-.56-.38A1.35,1.35,0,0,1,220.77,58Z"/><path class="d" d="M210.82,48.37a4.53,4.53,0,0,0,1.22.52,4.83,4.83,0,0,0,1.32.18,6.44,6.44,0,0,0,2.57-.57,9.82,9.82,0,0,0,4.31-3.93c2.38-3.9,2-8.34-.93-10.11a4.85,4.85,0,0,0-2.56-.71,7,7,0,0,0-3.86,1.3,7,7,0,0,0-4.46,7.27,8.21,8.21,0,0,0-.06,1.56A5.4,5.4,0,0,0,210.82,48.37Zm5.61-12.1.33,0a2.48,2.48,0,0,1,.68.09,2.24,2.24,0,0,1,.57.25c1.66,1,1.7,4.07.1,6.68a7.3,7.3,0,0,1-3.18,2.94,3.91,3.91,0,0,1-1.57.36,2.29,2.29,0,0,1-1.24-.33,2.48,2.48,0,0,1-1-1.31h.22a5.79,5.79,0,0,0,4.56-3.06A5.69,5.69,0,0,0,216.43,36.27ZM211,38.89a4.68,4.68,0,0,1,2.44-2.09l.27-.08.23-.16.41-.26.52.89a4,4,0,0,1-.53,3.74,4.07,4.07,0,0,1-3,2.18h-.1l-1-.07c0-.16,0-.32,0-.49l0-.28-.05-.27A4.72,4.72,0,0,1,211,38.89Z"/><path class="e" d="M160.46,49.88a8.69,8.69,0,0,0-3.77-.86,8,8,0,0,0-5.34,2c-2.66,2.36-2.6,5.78-2.57,7.42,0,1.43.08,4.76,2.74,7.18a8.18,8.18,0,0,0,2.68,1.61,14.69,14.69,0,0,0,2.73-1.74,15.1,15.1,0,0,0,2.47-2.52.91.91,0,0,1,1.26-.18,19.22,19.22,0,0,0,2.23-4.53,21.27,21.27,0,0,0,1.16-5A8.49,8.49,0,0,0,160.46,49.88Z"/><path class="e" d="M146.74,85.42a1.18,1.18,0,0,0-.07.2c-1.54,4.86-1.62,12.51,2.24,14.23a3.6,3.6,0,0,0,1.34.32h.26c3.17,0,6.53-3.37,7-3.81a14.79,14.79,0,0,0,3.4-6,13.48,13.48,0,0,0-6.18-5.21,10.82,10.82,0,0,0-1.31-.46.92.92,0,0,1-1.08.66,12.26,12.26,0,0,0-2.83-.3A11.94,11.94,0,0,0,146.74,85.42Z"/><path class="e" d="M218.64,77.08c2.07-1.41,3.11-4.6,2.23-6-.42-.64-1.06-.57-2.88-1.68a16.63,16.63,0,0,1-1.89-1.33,12.18,12.18,0,0,0-7.23,2.72.93.93,0,0,1,0,1.27,9.49,9.49,0,0,0-1.1,1.36,9.37,9.37,0,0,0-.74,1.36.83.83,0,0,1-.07.13c2.87,1.83,6,3,8.5,3A5.5,5.5,0,0,0,218.64,77.08Z"/><path class="e" d="M224.89,34.71c-.44-.81-.8-1.48-1.06-2-.39-.73-.58-1.11-.91-1.7,0,0-.64-1.14-1.28-2.15-2.95-4.65-14-9.15-14-9.15a58.84,58.84,0,0,0-6.22-2.24,34.38,34.38,0,0,0-9.29-1.58c-2.7,0-4.6.62-5.21,1.9-.83,1.71.8,4.24,4,6.88,1.24-.21,2.49-.38,3.76-.51a57.94,57.94,0,0,1,5.93-.31c1,0,2,0,2.91.08,4.95.3,6.95,1,8.26,1.59a16.31,16.31,0,0,1,2.3,1.35,30.84,30.84,0,0,1,6.09,5.23.88.88,0,0,1,0,1,.87.87,0,0,1-.65.28.63.63,0,0,1-.19,0h0a6.24,6.24,0,0,0,2.37.7c1.33.27,2.18.42,3.14.61a28.41,28.41,0,0,1,3.58.79A14.06,14.06,0,0,0,230,36,22.89,22.89,0,0,0,224.89,34.71Z"/><path class="e" d="M211,38.89a4.68,4.68,0,0,1,2.44-2.09l.27-.08.23-.16.41-.26.52.89a4,4,0,0,1-.53,3.74,4.07,4.07,0,0,1-3,2.18h-.1l-1-.07c0-.16,0-.32,0-.49l0-.28-.05-.27A4.72,4.72,0,0,1,211,38.89Z"/><path class="e" d="M216.43,36.27l.33,0a2.48,2.48,0,0,1,.68.09,2.24,2.24,0,0,1,.57.25c1.66,1,1.7,4.07.1,6.68a7.3,7.3,0,0,1-3.18,2.94,3.91,3.91,0,0,1-1.57.36,2.29,2.29,0,0,1-1.24-.33,2.48,2.48,0,0,1-1-1.31h.22a5.79,5.79,0,0,0,4.56-3.06A5.69,5.69,0,0,0,216.43,36.27Z"/><path class="b" d="M241.19,100.78l4.72-6.73,14.52-4.11a1.22,1.22,0,0,0-.66-2.34l-14.52,4.11-7.55-3.26a1.22,1.22,0,0,0-1.6.63,1.29,1.29,0,0,0,0,.82,1.21,1.21,0,0,0,.69.78l6.57,2.84-4.11,5.86a1.24,1.24,0,0,0-.18,1,1.27,1.27,0,0,0,.48.67A1.22,1.22,0,0,0,241.19,100.78Z"/><path class="b" d="M198.88,112.19a1.22,1.22,0,0,0-.93-1.45l-9-1.95,6.5-6.49a1.21,1.21,0,0,0,0-1.72,1.23,1.23,0,0,0-1.72,0l-7.86,7.85-22,6.45a1.22,1.22,0,0,0,.68,2.34l22-6.46,10.86,2.36A1.22,1.22,0,0,0,198.88,112.19Z"/><path class="b" d="M213.81,87.73a20.94,20.94,0,0,0-11.25,7.08c-2.55,3.27-3.46,7-2.57,10.35a1.54,1.54,0,0,1,0,.17c.94,3.32,3.52,6,7.29,7.57a22.18,22.18,0,0,0,24.52-6.46c2.55-3.28,3.46-7,2.57-10.35a1.21,1.21,0,0,1,0-.18A10.42,10.42,0,0,0,232.26,92a13.49,13.49,0,0,0-5.18-3.65A20.94,20.94,0,0,0,213.81,87.73Zm12.68,2.76a11.22,11.22,0,0,1,4.32,3,8,8,0,0,1,1.61,3l0,.14c.7,2.64-.07,5.57-2.17,8.26a20.4,20.4,0,0,1-22.36,5.89c-3.09-1.28-5.2-3.41-5.93-6l0-.13c-.7-2.64.07-5.57,2.17-8.26a20.4,20.4,0,0,1,22.36-5.89Z"/><path class="b" d="M207.6,100.7a1.13,1.13,0,0,1-.47-.12,1.07,1.07,0,0,1-.46-1.44A14,14,0,0,1,224,92.42a1.07,1.07,0,0,1-.73,2,11.89,11.89,0,0,0-14.65,5.69A1.1,1.1,0,0,1,207.6,100.7Z"/><path class="f" d="M127.28,112.66a5.31,5.31,0,0,0,1.48.3h.1l.38,0,.15-.7a14.91,14.91,0,0,1,.86-2.77,12.09,12.09,0,0,1,1.58-2.74c.42-.58.5-.71.55-1.07a2.71,2.71,0,0,0-.11-1.18,6,6,0,0,0-.8-1.6l-.41.28h0l.35-.38c-1.07-1.81-2.17-3.62-3.28-5.36-3.77-5.93-5.35-7.61-6.11-8.42a24.11,24.11,0,0,0-7-5.14,59.16,59.16,0,0,0-7.41-2.71c-1.49-.43-3-.81-4.54-1.12l-.75-.15.15.74c.13.6.38,1.78.7,2.92l.11.38a37.58,37.58,0,0,0,2.12,5.38,10.19,10.19,0,0,1,.59,1.39,2,2,0,0,1-.85,2.38c-.35.23-1.63.81-2.88-.79-.22-.29-.49-.66-.83-1.14a51.28,51.28,0,0,0-4.84-6.06l-.41-.43L95,83.38l.4,1.73c1.09,4.7.65,5.68-.81,6.21s-2.37-.6-2.94-1.5a8,8,0,0,0-1.85-2.18c-.92-.71-2.28-1.38-7.78-1.15a70.62,70.62,0,0,0-8.72,1l-.64.12.27.59a23.71,23.71,0,0,0,3.81,5.79,45.11,45.11,0,0,0,4,3.77c1.69,1.46,2.54,2.2,2.82,3.17a2.12,2.12,0,0,1-.21,1.74,2,2,0,0,1-.77.75l-.85.46.86.43c13,6.6,23.94,6.88,32.72,7.11C119.88,111.49,123.88,111.6,127.28,112.66Z"/><path class="f" d="M147.68,142.63a3.21,3.21,0,0,0-1-.39,13.48,13.48,0,0,1-3.53-1.44,15,15,0,0,1-3.17-2.44c-.17-.16-.37-.35-.49-.45l-.2-.16-.24.06a3.89,3.89,0,0,0-1.64,1.19,34.23,34.23,0,0,0-3,3.77l-.6.83a73.34,73.34,0,0,1-5.36,6.35,71.73,71.73,0,0,0-5.08,6c-4.46,6.17-10.44,13.51-17.79,21.83l-.76.86,1.14,0a10.2,10.2,0,0,0,1.24-.1A3.82,3.82,0,0,1,110,179a3.49,3.49,0,0,1,1.39,2c.41,1.42.13,3.16-.23,5.41-.16,1.07-.34,2.17-.44,3.32a28.73,28.73,0,0,0,.07,5.93l.11,1,.72-.66c1.52-1.37,3-2.78,4.46-4.18,2-1.9,3-2.95,3.68-3.7.49-.57,1-1.15,1.4-1.66,1.79-2.19,2.89-3.39,4.49-2.48a2,2,0,0,1,1,1.23,2.67,2.67,0,0,1,.06,1.07,5.68,5.68,0,0,0,0,.76,3.19,3.19,0,0,0,0,.45l.12,1,.73-.73c.28-.29.56-.58.82-.88a24.89,24.89,0,0,0,2.74-3.93c1-1.67,1.88-2.91,3.51-2.41a2.22,2.22,0,0,1,1.48,1.56,6.79,6.79,0,0,1,.14,1.78,17.92,17.92,0,0,0,.22,3.33l.15.91.68-.63a33.68,33.68,0,0,0,3.18-3.36,35.3,35.3,0,0,0,4.38-7c1.65-3.49,1.82-5.5,2.55-14,.2-2.24.44-5,.76-8.4l.08-.9c.43-4.5.77-8.06.23-10h0A1.86,1.86,0,0,0,147.68,142.63Z"/><path class="g" d="M82.68,177.86a1.72,1.72,0,0,1,.25.53c.27,1-.15,1.72-1.43,3.66-.47.71-1.06,1.6-1.71,2.7-.38.63-.74,1.27-1.09,1.91l-1.65,3.07,3.17-1.45A51.68,51.68,0,0,0,96.65,176.4c11.65-12.17,33.12-38.6,34-39.7l.13-.15a4.36,4.36,0,0,0,1.59-2.81,2.35,2.35,0,0,0-.07-.71h0a5.43,5.43,0,0,0-1-1.63,11.77,11.77,0,0,1-2.18-4l0-.14a12.35,12.35,0,0,1-.41-3.9,7.63,7.63,0,0,0,0-1.27l-.08-.46-.38-.27a3.82,3.82,0,0,0-2.55-.38l-8.58.33c-3.9.15-8.45-.17-18-2.2a144.48,144.48,0,0,1-15-4.06c-5.73-1.83-9.2-2.93-15-2.4-.71.06-1.42.15-2.12.25l-2.58.39,2,1.67c1,.84,1.2,1.28,1.3,1.62a1.49,1.49,0,0,1-.08,1c-.44.91-1.3,1-3,.7l-.45-.07a42.57,42.57,0,0,0-4.45-.38l-1.23,0,0,1.23a5.33,5.33,0,0,0,.19,1.32,7.82,7.82,0,0,0,.9,1.9,5.24,5.24,0,0,1,.56,1.15,1.71,1.71,0,0,1-.25,1.5c-.56.75-1.33.74-2.59.46-.34-.07-.72-.16-1.14-.21l-3.55-.48,2.58,2.48.46.42a2.89,2.89,0,0,1,1,1.31,1.64,1.64,0,0,1,0,.88c-.28,1-1.07,1.2-2.45,1.35-.36,0-.76.08-1.18.16l-4.89,1,4.92,1.35c1,.27,1.58.57,1.8,1.32a1.55,1.55,0,0,1,0,.21c.14,1-.52,1.53-1.71,2.15a10.29,10.29,0,0,0-2,1.26c-.14.12-.27.25-.4.38l-1.25,1.26,1.65.65a13.19,13.19,0,0,0,1.42.48,18.73,18.73,0,0,0,3.43.56c1.45.12,2.19.33,2.43,1.21l0,.17c.19,1.08-.53,1.59-2.65,2.48-1.13.48-2.67,1.13-4.61,2.16-.83.44-1.44.8-2.37,1.33l-1.24.74-2.62,1.57,3,.58c.24,0,.45.07.65.1a2.36,2.36,0,0,1,1.8.86,2.29,2.29,0,0,1,.3.63c.3,1.08,0,3-5,8.38-.86.94-1.78,1.85-2.71,2.71l-1.61,1.48,2.12.51a29.66,29.66,0,0,0,3.61.64c1.6.17,3.15.21,4.52.24,3.28.07,4.46.21,4.82,1.47l0,.12c.17.84-.31,1.4-1.09,2a5.87,5.87,0,0,0-1,.91l-1.7,2,2.62-.07c.7,0,1.42-.07,2.12-.14a36.53,36.53,0,0,0,5.94-1.24c2.55-.71,3.5-.76,4.08.28a1.22,1.22,0,0,1,.14.33c.25.89-.34,1.57-1,2.3a15.6,15.6,0,0,0-1.7,2.27c-.12.2-.24.4-.34.6l-1,1.81,2.05-.09c.84,0,1.68-.1,2.49-.19a46.87,46.87,0,0,0,9.13-2.1C80.49,176.9,81.83,176.63,82.68,177.86Z"/><path class="h" d="M131.18,133.34a.87.87,0,0,1,0,.33,3.3,3.3,0,0,1-1.22,2l-.12.12-.1.12c-.22.27-22.14,27.3-34,39.65A51.75,51.75,0,0,1,87,183.17a50,50,0,0,1-7.22,4.05c.34-.63.7-1.25,1.06-1.87.64-1.07,1.22-1.95,1.69-2.66,1.21-1.84,2-3.06,1.58-4.62h0a3,3,0,0,0-.42-.88c-1.42-2.06-3.82-1.3-6.61-.43a44.93,44.93,0,0,1-8.91,2.05c-.8.09-1.6.16-2.41.19.1-.18.2-.37.31-.55a14.33,14.33,0,0,1,1.59-2.11c.69-.79,1.63-1.88,1.2-3.38a2.09,2.09,0,0,0-.24-.58c-1.13-2-3.3-1.42-5.41-.84a35.11,35.11,0,0,1-5.75,1.2c-.67.08-1.35.12-2,.14a4.72,4.72,0,0,1,.83-.73A3.13,3.13,0,0,0,57.74,169l0-.1,0-.09c-.63-2.22-2.85-2.27-5.92-2.33-1.35,0-2.87-.07-4.42-.24a27.21,27.21,0,0,1-3.46-.6c1-.89,1.89-1.81,2.78-2.77,5.35-5.74,5.69-8,5.25-9.5a3.22,3.22,0,0,0-.47-1,3.5,3.5,0,0,0-2.6-1.34l-.58-.09,1.23-.73c.91-.53,1.52-.88,2.33-1.31,1.88-1,3.41-1.64,4.52-2.11,1.74-.74,3.71-1.57,3.35-3.75l0-.15,0-.13c-.52-1.83-2.3-2-3.47-2.08a16.59,16.59,0,0,1-3.22-.52,12.43,12.43,0,0,1-1.3-.44c.1-.11.22-.21.33-.31a8.94,8.94,0,0,1,1.76-1.11c.84-.45,2.6-1.37,2.32-3.35a2.09,2.09,0,0,0-.08-.36,3.26,3.26,0,0,0-2.61-2.14l-.13,0c.39-.07.76-.11,1.1-.15,1-.1,2.89-.3,3.44-2.19a2.8,2.8,0,0,0,0-1.52,3.89,3.89,0,0,0-1.36-1.87l-.42-.38c.4,0,.76.13,1.08.2.92.2,2.62.58,3.75-.91a2.85,2.85,0,0,0,.44-2.51,6.23,6.23,0,0,0-.69-1.45,6.31,6.31,0,0,1-.77-1.61,3.5,3.5,0,0,1-.15-1,37.74,37.74,0,0,1,4.31.37l.44.07c1.32.2,3.31.5,4.2-1.36a2.7,2.7,0,0,0,.15-1.86,4.35,4.35,0,0,0-1.69-2.2c.69-.1,1.37-.18,2.06-.25,5.61-.5,9,.57,14.58,2.35a144.82,144.82,0,0,0,15.07,4.09c9.69,2.06,14.32,2.38,18.3,2.23l8.43-.32h.21a2.8,2.8,0,0,1,1.76.15c0,.2,0,.66,0,1a13.6,13.6,0,0,0,.45,4.24l0,.15a12.91,12.91,0,0,0,2.38,4.4,4.94,4.94,0,0,1,.8,1.24h0m2.34-.66c-.49-1.72-2.3-2.69-3.18-5.67a.65.65,0,0,1,0-.13c-.69-2.43-.13-4.07-.48-5.32a2.31,2.31,0,0,0-.63-1,4.64,4.64,0,0,0-3.76-.83L117,120c-4,.15-8.53-.23-17.7-2.18-16.63-3.53-20.29-7.39-30.38-6.48a38,38,0,0,0-7.8,1.55c2.5,1.54,5.11,3.29,5.3,4a.22.22,0,0,1,0,.16c-.13.26-1,.09-2.09-.07a41.11,41.11,0,0,0-6.74-.42,7.37,7.37,0,0,0-.11,4.13h0a22.43,22.43,0,0,0,1.46,3,.47.47,0,0,1,0,.39c-.32.42-1.38-.18-3.18-.31a9.91,9.91,0,0,0-3.54.41c0,.13.07.28.11.43a7.78,7.78,0,0,0,1.16,2.4c.91,1.23,1.88,1.72,2,2.15a.31.31,0,0,1,0,.19c-.16.57-1.73.27-3.75.88a9.47,9.47,0,0,0-3.3,1.78,7.69,7.69,0,0,0,2.54,2.08c1.45.72,2.59.68,2.71,1.1,0,0,0,0,0,0,.08.56-1.62.88-3.25,2.27a8.78,8.78,0,0,0-2.27,3.1,15.88,15.88,0,0,0,4.17,1.84c2.85.8,4.87.47,5,.93h0c.09.54-2.42,1.09-6.61,3.31-.86.46-1.5.83-2.42,1.37-1.84,1.07-3.57,2.15-5.17,3.21q.59.38,1.32.75s.81.41,1.62.73c2.22.87,3.06.46,3.43,1a.7.7,0,0,1,.11.23c.47,1.65-3.81,6.24-4.69,7.18a49.19,49.19,0,0,1-5.9,5.39,30,30,0,0,0,8.1,2.06c4.13.45,8,0,8.26.82v0c.11.5-1.27.83-2.28,2.43a6.18,6.18,0,0,0-.91,3.28,27.32,27.32,0,0,0,5.5,0c5-.54,8.38-2.31,8.78-1.59a.08.08,0,0,1,0,.05c.14.48-1.2,1.38-2.53,3.58a14.68,14.68,0,0,0-1.73,4.22,37.71,37.71,0,0,0,6.19-.19c7.77-.88,12.42-3.85,13.24-2.66a.6.6,0,0,1,.08.16c.21.75-1.11,2.17-3,5.38a50,50,0,0,0-3.7,7.56,53.38,53.38,0,0,0,13.31-6.48,55.08,55.08,0,0,0,9.26-7.91c11.78-12.32,33.2-38.7,34.09-39.81a5.71,5.71,0,0,0,2-3.65,3.42,3.42,0,0,0-.12-1.14Z"/><path class="h" d="M131.73,105a2.32,2.32,0,0,1,.08,1c0,.24-.06.29-.47.85a12.87,12.87,0,0,0-1.68,2.81,15.24,15.24,0,0,0-.91,2.86c0,.1-.05.22-.08.32a4.06,4.06,0,0,1-1.39-.29l-.07,0c-3.39-1.1-7.42-1.26-12.09-1.44-8.74-.33-19.59-.75-32.42-7.45a2.58,2.58,0,0,0,1-.92,2.69,2.69,0,0,0,.29-2.15c-.32-1.1-1.19-1.88-2.93-3.43a43.61,43.61,0,0,1-3.88-3.77,23.26,23.26,0,0,1-3.66-5.72,67.45,67.45,0,0,1,8.67-.84c5.33-.16,6.6.47,7.44,1.13a7.47,7.47,0,0,1,1.71,2.08c.37.6,1.51,2.44,3.5,1.74S97.06,89.6,96,84.9l.4.43a50.29,50.29,0,0,1,4.72,6.06c.34.49.61.88.83,1.17a2.6,2.6,0,0,0,3.53,1,2.51,2.51,0,0,0,1.1-2.94,11.4,11.4,0,0,0-.6-1.49,37.35,37.35,0,0,1-2-5.32l-.1-.37c-.3-1.13-.54-2.32-.65-2.9,1.51.33,3,.72,4.48,1.17a57.83,57.83,0,0,1,7.33,2.78,23.55,23.55,0,0,1,3.48,2.17,23.84,23.84,0,0,1,3.25,2.94c.74.8,2.27,2.48,6,8.42,1.08,1.75,2.16,3.56,3.2,5.38l0,.06,0,.07a5.36,5.36,0,0,1,.72,1.47m2.34-.66a7.8,7.8,0,0,0-1-2.15c-1.28-2.24-2.4-4.1-3.24-5.45-3.7-6-5.3-7.77-6.23-8.79A27,27,0,0,0,120,84.67a26.76,26.76,0,0,0-3.88-2.41,60.42,60.42,0,0,0-7.68-2.92,58,58,0,0,0-8.08-1.85c.09,1,.23,2,.43,3.08,0,0,.31,1.76.76,3.46,0,.13.07.27.11.4a60.4,60.4,0,0,0,2.63,6.81q0,.15,0,.18c-.27.16-2.38-3.79-6.06-7.75a39,39,0,0,0-6.41-5.53c2.36,8.72,2.61,11.11,2.21,11.25s-1-1.9-2.91-3.44c-1.56-1.23-3.59-1.82-9-1.65a70.49,70.49,0,0,0-11.92,1.4,26,26,0,0,0,5.15,9.19c2.66,3,6,5.41,6.3,6.27a.24.24,0,0,1,0,.19c-.21.34-1.33-.3-3.37-.18a9.73,9.73,0,0,0-3.09.73c2.59,1.73,4.76,2.93,6.09,3.64,20.33,10.77,36.16,6.27,45.22,9.23.62.2,2.52.86,3.77,0,1-.73.62-1.78,1.66-4.17s2.07-2.63,2.32-4.27a4.73,4.73,0,0,0-.14-2Z"/><path class="h" d="M147.94,144h0c.52,1.82.18,5.34-.24,9.8l-.09.9c-.32,3.35-.56,6.15-.75,8.4-.73,8.42-.9,10.42-2.51,13.83a34.67,34.67,0,0,1-4.32,6.89,31.58,31.58,0,0,1-3.13,3.31,17.56,17.56,0,0,1-.21-3.24,7,7,0,0,0-.16-1.91,2.72,2.72,0,0,0-1.82-1.91c-2.13-.65-3.26,1.25-4.08,2.64a24.38,24.38,0,0,1-2.69,3.85c-.25.29-.52.58-.79.85a2.5,2.5,0,0,1,0-.4,5.12,5.12,0,0,1,0-.72,3.25,3.25,0,0,0-.08-1.24,2.57,2.57,0,0,0-1.19-1.53c-2-1.15-3.48.59-5.13,2.6-.42.51-.9,1.09-1.39,1.65-.63.73-1.64,1.71-3.65,3.67-1.45,1.41-2.93,2.81-4.44,4.17a28.48,28.48,0,0,1-.08-5.83c.11-1.15.29-2.25.46-3.33.35-2.26.64-4,.2-5.58a3.87,3.87,0,0,0-1.6-2.26,4.21,4.21,0,0,0-3.08-.53,11.88,11.88,0,0,1-1.19.09c7.37-8.33,13.35-15.68,17.83-21.86a67.61,67.61,0,0,1,5.07-6,74.49,74.49,0,0,0,5.36-6.37l.61-.83a35.36,35.36,0,0,1,2.9-3.71,3.82,3.82,0,0,1,1.41-1.06l.46.43a15.56,15.56,0,0,0,3.27,2.51,14.76,14.76,0,0,0,3.64,1.5,3,3,0,0,1,.88.31c.11.07.35.23.54.92m2.34-.66a3.8,3.8,0,0,0-1.51-2.27c-1.15-.78-2.21-.49-4.67-1.91-2.89-1.66-3.1-3-4.53-3.24-2.52-.39-4.93,3.31-7.3,6.59-3.17,4.36-7.28,8-10.45,12.37a304.1,304.1,0,0,1-20.61,25,14.33,14.33,0,0,0,3.86.73c2.38.12,3.09-.44,3.83,0a1.53,1.53,0,0,1,.6.9c.45,1.59-.42,4.62-.74,8a32,32,0,0,0,.88,10.73c2.52-2.17,5.11-4.53,7.76-7.11,2.06-2,3.09-3,3.79-3.81,1.72-2,3.1-3.94,3.48-3.73a.18.18,0,0,1,0,.07c0,.17-.06.57,0,1.38a8.66,8.66,0,0,0,.25,1.78l.18.71a12.85,12.85,0,0,0,.77,2,20.89,20.89,0,0,0,3.88-3.43c2.67-3,3.6-6,4.23-5.77.09,0,.15.1.19.24.19.68-.16,2.73.45,5.63.09.39.18.76.28,1.1a15,15,0,0,0,.69,2,35,35,0,0,0,6.3-6,36.43,36.43,0,0,0,4.64-7.4c2.27-4.81,2-7.12,3.48-23,.51-5.37.93-9.2.25-11.59Z"/></svg>