<svg xmlns="http://www.w3.org/2000/svg" viewBox="0 0 793.7 311.81"><defs><style>.a{fill:#e5d7c8;}.b{fill:#f79520;}.c{fill:#ad621b;}.d{fill:#6d6e71;}.e{fill:#434345;}.f{fill:#58595b;}.g{fill:#4b9042;}.h{fill:#5ab547;}.i{fill:#417e3c;}</style></defs><polyline class="a" points="793.7 0 0 0 0 311.81 793.7 311.81 793.7 0"/><path class="b" d="M360,117.46a9.68,9.68,0,0,1-2.79-1.1,7.1,7.1,0,0,1-1.17-.87q-4.29-3.52-8.9-6.61a117.28,117.28,0,0,0-12.18-7.16c-2.4-1.21-5.8-2.79-10.07-4.43a152.78,152.78,0,0,0-16.19-4.61q-2.66-.6-5.46-1.13l-.13,0-1.42-.26-.52-.09L300.06,91l-.63-.1-1.87-.29A151.91,151.91,0,0,0,275.28,89q-3.3.1-6.88.4c-3,.26-5.91.61-8.69,1l6,21a1.81,1.81,0,0,1-1.25,2.24,1.73,1.73,0,0,1-.5.07,1.8,1.8,0,0,1-1.74-1.32L260,104.64a2,2,0,0,1-.2-.45L256.1,91h0q-2.92.51-5.68,1.07c-4.31.87-8.3,1.81-11.93,2.68a246.59,246.59,0,0,0-23.89,6.62h0l2.39,8.45a1.77,1.77,0,0,1,0,.79l2.25,8.56a1.83,1.83,0,0,1-1.25,2.25,2.15,2.15,0,0,1-.5.07,1.83,1.83,0,0,1-1.75-1.33l-4.6-17.58a149,149,0,0,0-25,11.84c-1.61,1-3.22,2-4.85,3L189.15,145a2.25,2.25,0,0,1,.06.36,1.8,1.8,0,0,1-1.32,1.88,1.66,1.66,0,0,1-.49.07,1.79,1.79,0,0,1-.57-.09,1.83,1.83,0,0,1-1-.74,2,2,0,0,1-.23-.49l-.78-2.77-6.71-23.73-.78.55c-1.23.86-2.46,1.74-3.69,2.66a145.82,145.82,0,0,0-17.36,15.23c.47.49.9,1,1.29,1.48a13.66,13.66,0,0,1,2.45,4.41l.09.27a9.25,9.25,0,0,1,.35,2.79c0,.3,0,.61-.08.91a8.09,8.09,0,0,1-.37,1.54,7.74,7.74,0,0,1-.92,1.77,13.84,13.84,0,0,1-1,1.32l-.49.58-.25.31a12.18,12.18,0,0,0-1.33,2.15,13.5,13.5,0,0,0-1.29,4.11c0,.2-.07.41-.12.62a8.5,8.5,0,0,1-2.19,4.56q-.16.18-.36.36a9.8,9.8,0,0,1-1.21,1l-.41.26c.23.2.45.41.67.64a11.25,11.25,0,0,1,1.77,2.38,8.58,8.58,0,0,1,.84,2,9.83,9.83,0,0,1,.34,2.62,7.55,7.55,0,0,0,.22,1.9,2.46,2.46,0,0,0,.09.34c0,.19.11.38.18.59a9.21,9.21,0,0,0,1.22,2.48c.2.29.41.56.62.84s.55.71.83,1.13a9.56,9.56,0,0,1,.79,1.43c.08.18.16.37.23.57s.14.4.2.61a10.38,10.38,0,0,1,.3,1.55q0,.45.06.87a5.51,5.51,0,0,1,0,.57,10.53,10.53,0,0,1,3.36-.58,8.83,8.83,0,0,1,2,.22,7.13,7.13,0,0,1,3.66,2.08c.19.19.38.38.55.57a17.76,17.76,0,0,0,1.72,1.65c.21.18.44.37.7.57l.54.41a18.84,18.84,0,0,0,3.8,2.18l.7.33.42.2a13,13,0,0,1,2.7,1.8,16.92,16.92,0,0,1,5.14,8.48c0,.18.1.36.14.55l3.8.19c3.57.14,7.15.22,10.73.22,2.94,0,5.89,0,8.83-.15,1.88-.06,3.75-.15,5.62-.26l1.48-.08.45,0c2-.13,4.21-.26,6.55-.43l2.57-.2-3.15-11.15a1.51,1.51,0,0,1-.06-.37,1.81,1.81,0,0,1,1.31-1.88,2.2,2.2,0,0,1,.5-.06,1.82,1.82,0,0,1,1.75,1.32L228,204.27a211.74,211.74,0,0,0,25.29-3.82c3-.66,6.13-1.4,9.3-2.27l-3.64-12.86-.28-1a1.83,1.83,0,0,1,1.26-2.25,2,2,0,0,1,.48-.06,1.75,1.75,0,0,1,.51.07,1.81,1.81,0,0,1,1.25,1.25l3.92,13.85c5.06-1.49,10.29-3.27,15.64-5.41,2.06-.82,4.15-1.7,6.25-2.64l2.41-1.07c1.25-.57,2.58-1.18,4-1.85,1.9-.9,3.93-1.89,6.05-3l-5.87-20.76a1.8,1.8,0,0,1,1.26-2.24,1.66,1.66,0,0,1,.49-.07,1.82,1.82,0,0,1,1.75,1.32l5.64,20A112.09,112.09,0,0,0,324,166.84q1.57-1.44,3.14-3c1.57-1.55,3.31-3.28,5.17-5.3.54-.57,1.08-1.18,1.63-1.81s1.11-1.28,1.68-2,1.15-1.4,1.73-2.16c.87-1.12,1.76-2.33,2.67-3.61,2.82-4,5.06-7.26,6.95-10.08,1.32-2,2.48-3.75,3.53-5.48a115,115,0,0,0,6.29-11.79,11.07,11.07,0,0,1,3.71-4.09ZM312.82,140a1.82,1.82,0,0,1-2.53.44,1.82,1.82,0,0,1-.44-2.53l6.14-8.76-9.82-4.24a1.82,1.82,0,1,1,1.44-3.34l11.27,4.88,21.7-6.14a1.73,1.73,0,0,1,.5-.07,1.82,1.82,0,0,1,.49,3.57L319.87,130ZM197.87,164.66a1.82,1.82,0,0,1-.51-3.56l32.84-9.64L242,139.73a1.78,1.78,0,0,1,1.28-.53,1.8,1.8,0,0,1,1.29.53,1.83,1.83,0,0,1,0,2.57L234.8,152l13.42,2.91a1.82,1.82,0,0,1-.39,3.59,1.69,1.69,0,0,1-.38,0l-16.23-3.52-32.84,9.64A1.81,1.81,0,0,1,197.87,164.66Zm101-16.18a31.26,31.26,0,0,1-16.8,10.58,34.54,34.54,0,0,1-8.81,1.17,28.91,28.91,0,0,1-11-2.1c-5.63-2.34-9.48-6.34-10.89-11.3a2.5,2.5,0,0,0-.07-.26c-1.34-5.08,0-10.57,3.84-15.46a31.37,31.37,0,0,1,16.8-10.59,34.54,34.54,0,0,1,8.82-1.16,28.85,28.85,0,0,1,11,2.09,20.3,20.3,0,0,1,7.75,5.46,15.58,15.58,0,0,1,3.14,5.84c0,.09.05.18.07.27C304,138.1,302.68,143.59,298.86,148.48Z"/><path class="c" d="M358.41,112.76a119.45,119.45,0,0,0-21.84-14.28A110.82,110.82,0,0,0,324,93.09a149,149,0,0,0-46.52-7.85,232.76,232.76,0,0,0-39.83,5.91c-16.14,3.84-40.87,9.78-66.13,28.64a150.51,150.51,0,0,0-20.36,18.32c3.52,2.88,5,5.19,5.51,7a5.27,5.27,0,0,1,.17,2.21c-.33,2.35-2.07,2.56-4.06,6.55-2.32,4.67-1,6.56-3.21,8.64-2.79,2.64-7,1.56-7.19,2.78a.53.53,0,0,0,0,.22c.33,1.19,5.14,1.77,7.32,5.67a5.32,5.32,0,0,1,.52,1.19c.39,1.39-.06,2.39.64,4.86.07.24.15.5.24.77,1.35,4,3.17,4.56,3.83,6.88a6.31,6.31,0,0,1,.19,1c.42,3.6-1.95,6.12-1.66,7.13a.49.49,0,0,0,.14.24c1.17,1,5.3-4.19,9.75-3.17,2.09.48,1.92,1.8,5.85,4.67s5.2,2.45,7.4,4.34a13.19,13.19,0,0,1,4,6.71,24,24,0,0,1,.63,3,261.46,261.46,0,0,0,33.69.1c17.59-1.08,44.35-3,74.5-16.4,10.27-4.57,25.61-11.57,40.21-26a105.55,105.55,0,0,0,13.3-15.36c9.23-13.18,12.34-17.82,17.09-27.88,1.46-3.1,8.54-6.4,19.91-10.9C371.79,113.28,361.68,115.89,358.41,112.76Zm-1.67,8.9C352.08,131.54,349,136.1,340,149a102,102,0,0,1-12.88,14.85,110.11,110.11,0,0,1-23.43,17.56l-5.64-20a1.82,1.82,0,0,0-3.5,1l5.87,20.76c-4.75,2.52-9,4.42-12.44,5.94a174.28,174.28,0,0,1-21.89,8l-3.92-13.85a1.82,1.82,0,1,0-3.5,1l3.92,13.84A202.19,202.19,0,0,1,228,204.27l-3.34-11.82a1.82,1.82,0,1,0-3.5,1l3.15,11.15c-3.5.28-6.71.48-9.57.65a258,258,0,0,1-30.46.08c0-.19-.09-.37-.14-.55a16.92,16.92,0,0,0-5.14-8.48,14.55,14.55,0,0,0-3.82-2.33,18.84,18.84,0,0,1-3.8-2.18,19.45,19.45,0,0,1-3-2.63,7.77,7.77,0,0,0-4.21-2.65,9.72,9.72,0,0,0-5.37.36,10.2,10.2,0,0,0-.07-1.44,10.38,10.38,0,0,0-.3-1.55,10.74,10.74,0,0,0-2.05-3.74,10.12,10.12,0,0,1-1.84-3.32c-.07-.21-.13-.4-.18-.59a7.65,7.65,0,0,1-.31-2.24,9.83,9.83,0,0,0-.34-2.62,8.58,8.58,0,0,0-.84-2,11.65,11.65,0,0,0-2.44-3,9.57,9.57,0,0,0,1.62-1.24,8.94,8.94,0,0,0,2.67-5.54,13.65,13.65,0,0,1,3.36-7.15,8.45,8.45,0,0,0,2.34-4.63,9,9,0,0,0-.27-3.7,15,15,0,0,0-3.83-6.16,145.82,145.82,0,0,1,17.36-15.23q2.24-1.68,4.47-3.21l7.49,26.5a1.82,1.82,0,0,0,3.5-1l-7.82-27.63a146,146,0,0,1,29.83-14.85l4.6,17.57a1.82,1.82,0,1,0,3.5-1l-4.67-17.8a246.59,246.59,0,0,1,23.89-6.62c5.18-1.24,11.06-2.63,17.61-3.75l6.17,21.38a1.81,1.81,0,0,0,3.49-1l-6-21A125.84,125.84,0,0,1,274.56,89a152,152,0,0,1,52,8.94,78.45,78.45,0,0,1,8.36,3.83A116.47,116.47,0,0,1,356,115.49a9,9,0,0,0,4.44,2.08A11.07,11.07,0,0,0,356.74,121.66Z"/><path class="d" d="M312.85,73.44a1.13,1.13,0,0,1-.27-.13c-.95-.63-1.48-2.66-.69-4.85a5.54,5.54,0,0,1,2.24-2.9l.3-.18-.07-.34A30.72,30.72,0,0,0,305.87,49c-4.47-4.37-10.05-7-17.08-8.11-.6-1.11-1.09-2-1.46-2.73l-.32-.6c-.39-.73-.65-1.24-1.06-2,0,0-1-1.72-1.92-3.23-4.43-7-20.41-13.59-21.08-13.87a88.82,88.82,0,0,0-9.34-3.35,51.63,51.63,0,0,0-14-2.38c-4.41,0-7.26,1.07-8.25,3.11-1.31,2.72.89,6.58,6.2,10.89l.18.14.22,0c1.89-.31,3.77-.57,5.58-.75a81.31,81.31,0,0,1,13.13-.34c7.3.43,10.24,1.42,12.14,2.33a24.85,24.85,0,0,1,3.38,2l.24.16a46.44,46.44,0,0,1,8.74,7.53.83.83,0,0,1-.06.92,1,1,0,0,1-1.1.1,30.37,30.37,0,0,0-7.8-6.44c-.49-.3-.95-.59-1.38-.88a26.74,26.74,0,0,0-3.3-1.93c-1.85-.88-4.72-1.84-11.93-2.27a81.19,81.19,0,0,0-13,.34c-1,.1-2.1.24-2.1.24s-4.1.53-7.67,1.32c-.19,0-18.23,4.46-17.93,10.2.2,3.73,6.61,6.42,16.73,7a82.53,82.53,0,0,0,13-.34,84.71,84.71,0,0,0,11.74-2l.1,0,.09,0c.95.41,1.93.81,2.89,1.19s1.94.73,3.09,1.13a5.43,5.43,0,0,0-1.52,2.6c-.5,1.67-14.63,3.4-28,4.11-9.71.52-24.39,1.31-32.72,11a24,24,0,0,0-2.75,3.92,13.18,13.18,0,0,0-5.12-4.4,13.64,13.64,0,0,0-5.85-1.33,12.45,12.45,0,0,0-8.3,3c-4.15,3.7-4.06,9-4,11.48,0,2.19.12,7.33,4.25,11.08a12.49,12.49,0,0,0,4.17,2.51l.2.08.19-.1A22.47,22.47,0,0,0,191,83.79a.88.88,0,0,1,.58-.33.86.86,0,0,1,.8,1.38,24.48,24.48,0,0,1-4,4.15,24.1,24.1,0,0,1-4.54,2.88l-.17.09-.08.17c-1.39,3.41-3.48,8.27-5.5,12.09-1.27,2.41-2.26,4.21-3,5.52-.49.83-.91,1.51-1.26,2.09l-.07.12c-.42.68-.78,1.26-1.1,1.84l-.49.88,1-.14a20.12,20.12,0,0,1,2.66-.21,19.89,19.89,0,0,1,4.74.5.82.82,0,0,1,.54.38.83.83,0,0,1,.12.65.86.86,0,0,1-.39.54.83.83,0,0,1-.65.12,18.61,18.61,0,0,0-4.34-.46,19,19,0,0,0-4.2.54l-.28.11-.17.52c-2.36,7.44-2.42,19.19,3.62,21.88a6.39,6.39,0,0,0,2.17.52h.42c4.85,0,9.82-4.87,10.76-5.85,5.34-5.53,6.27-13.11,6.43-16.12a29,29,0,0,0-.14-4.34,8.86,8.86,0,0,1,.35-4.38A31.37,31.37,0,0,1,197,104a45.11,45.11,0,0,0,12.33,2.07,47.68,47.68,0,0,0,23.18-5.59,51.06,51.06,0,0,0,13.38-10l.33-.35-.33-.35a12.15,12.15,0,0,0-4.28-2.89,12.48,12.48,0,0,0-4.08-.86,1.1,1.1,0,0,1-1-1.13,1.12,1.12,0,0,1,1.19-1l.34,0a5,5,0,0,1,.63,0,9.17,9.17,0,0,1,3.73,1.06A19.24,19.24,0,0,1,249.31,90l.12.16c.21.25.62.75,1.34,1.75.52.72,1.07,1.46,1.82,2.36a38.47,38.47,0,0,0,6.5,6l.5.37.26-.56A14.3,14.3,0,0,1,261,98a15.84,15.84,0,0,1,1.9-2.36.87.87,0,0,1,.61-.26.89.89,0,0,1,.62.25.88.88,0,0,1,0,1.23,13.92,13.92,0,0,0-2.84,4.2l-.07.12-.29.43.43.27c7.12,4.54,14.15,5.84,18,3.19,3.19-2.18,5-7.21,3.47-9.6a3.64,3.64,0,0,0-1.82-1.29,21.94,21.94,0,0,1-2.65-1.38,24.43,24.43,0,0,1-3.83-2.87,32.49,32.49,0,0,1-5.92-6.82,1.1,1.1,0,0,1,.32-1.52,1.13,1.13,0,0,1,1.52.32A30.09,30.09,0,0,0,276,88.24v0a22,22,0,0,0,3.27,2.5,15.11,15.11,0,0,0,8.1,2,32.12,32.12,0,0,0,9.42-1.58c7.43-2.41,12.7-6.54,15.65-12.3a21.12,21.12,0,0,0,1.74-4.76l.18-.75-.76.14A1.43,1.43,0,0,1,312.85,73.44Z"/><path class="e" d="M316.67,65.23a32.87,32.87,0,0,0-9.24-17.87,31.82,31.82,0,0,0-17.19-8.53l-.94-1.76-.3-.56c-.39-.75-.67-1.28-1.1-2h0c-.31-.64-.9-1.63-2-3.35-4.71-7.44-20.25-14-22.1-14.73A89.48,89.48,0,0,0,254.24,13a53.91,53.91,0,0,0-14.65-2.48c-5.41,0-8.86,1.48-10.26,4.38-1.15,2.38-1.15,6.28,4.66,11.73-.56.11-1.12.22-1.68.35a63.59,63.59,0,0,0-10.85,3.64c-3.9,1.73-9.06,4.54-8.83,8.86.27,5.11,7.13,8.44,18.83,9.13,1.43.09,2.92.13,4.42.13a89.83,89.83,0,0,0,9-.47,87.28,87.28,0,0,0,11.41-1.92l2.37,1,.51.2,0,.06c-.94.39-4.09,1.34-13.85,2.31-6.36.64-12.33,1-12.39,1-10.09.54-25.34,1.36-34.3,11.74-.45.53-.89,1.09-1.31,1.66a15.36,15.36,0,0,0-3.89-2.69A15.8,15.8,0,0,0,186.57,60a14.63,14.63,0,0,0-9.78,3.63C171.87,68,172,74.13,172,76.77c0,2.27.14,8.29,5,12.7a14.77,14.77,0,0,0,4.14,2.65c-1.46,3.54-3.29,7.7-5.07,11.06-1.25,2.38-2.23,4.16-3,5.43-.49.83-.9,1.5-1.26,2.09l0,.07a22.46,22.46,0,0,0-2.79,5.77c-2.59,8.17-2.8,21.2,4.85,24.6a8.62,8.62,0,0,0,2.94.71h.55c5.75,0,11.31-5.44,12.37-6.53,5.86-6.07,6.88-14.3,7-17.56a31,31,0,0,0-.15-4.65,6.86,6.86,0,0,1,.24-3.46,23.57,23.57,0,0,1,1.31-3,47.39,47.39,0,0,0,11.15,1.64l1.25,0a49.68,49.68,0,0,0,23-5.86,53.14,53.14,0,0,0,14-10.42l.34-.35c.22.28.56.72,1.09,1.45s1.12,1.53,1.92,2.48c6.34,7.54,16.22,13,23.48,13a10.9,10.9,0,0,0,6.31-1.79,12,12,0,0,0,4.35-5.81,8.33,8.33,0,0,0,.08-6.21,21.49,21.49,0,0,0,2.3.11,34.31,34.31,0,0,0,10.1-1.69c8-2.59,13.73-7.1,17-13.4a24.23,24.23,0,0,0,2.5-8.8,5.86,5.86,0,0,0,.28-.67C318.05,68.19,317.6,66.15,316.67,65.23Zm-20,25.44a31.64,31.64,0,0,1-9.26,1.56,14.85,14.85,0,0,1-7.84-1.93,18.82,18.82,0,0,1-3.22-2.44,29.6,29.6,0,0,1-5.42-6.26,1.6,1.6,0,0,0-1.34-.72,1.62,1.62,0,0,0-.87.25,1.6,1.6,0,0,0-.47,2.21,33,33,0,0,0,6,6.93,24.38,24.38,0,0,0,3.9,2.91c2.73,1.67,3.69,1.55,4.31,2.52,1.32,2-.24,6.81-3.33,8.92a8.33,8.33,0,0,1-4.77,1.31c-3.79,0-8.4-1.77-12.7-4.51a1.28,1.28,0,0,0,.11-.2,13.56,13.56,0,0,1,2.75-4,1.37,1.37,0,1,0-2-1.92,17,17,0,0,0-2,2.43,16.56,16.56,0,0,0-1.21,2.18,37.71,37.71,0,0,1-6.42-6c-.74-.88-1.28-1.61-1.8-2.33-.91-1.25-1.32-1.73-1.47-1.92-2.29-3-6.23-4.82-7-5.21a9.37,9.37,0,0,0-4-1.11c-.47,0-.77.07-1,.07h-.09a1.59,1.59,0,0,0-.1,3.18h0a11.9,11.9,0,0,1,3.88.82,11.62,11.62,0,0,1,4.11,2.78,50.85,50.85,0,0,1-13.25,9.89,47,47,0,0,1-21.76,5.55h-1.18a44.77,44.77,0,0,1-12.58-2.17,34.6,34.6,0,0,0-2.54,5.35,9.55,9.55,0,0,0-.37,4.59,28.06,28.06,0,0,1,.14,4.26c-.15,3-1.07,10.4-6.29,15.8-.64.67-5.67,5.7-10.4,5.7H177a5.58,5.58,0,0,1-2-.48c-5.78-2.57-5.66-14-3.35-21.27l.09-.29a18.2,18.2,0,0,1,4.09-.53A17.71,17.71,0,0,1,180,117a1.37,1.37,0,0,0,.6-2.67A21.06,21.06,0,0,0,173,114c.32-.57.68-1.15,1.1-1.83s.81-1.32,1.33-2.2c.77-1.31,1.76-3.12,3-5.55,2-3.77,4-8.51,5.53-12.13a25.17,25.17,0,0,0,4.63-2.94,24.68,24.68,0,0,0,4.13-4.23,1.37,1.37,0,1,0-2.16-1.67,21.92,21.92,0,0,1-7.77,6.37,11.84,11.84,0,0,1-4-2.41c-4-3.6-4.05-8.59-4.08-10.72,0-2.45-.14-7.55,3.84-11.09a12,12,0,0,1,8-2.93A13,13,0,0,1,192.2,64a12.68,12.68,0,0,1,5.37,4.93,23.54,23.54,0,0,1,3.09-4.57c8-9.32,21.88-10.24,32.37-10.8,0,0,27.58-1.47,28.47-4.47a4.86,4.86,0,0,1,1.81-2.72,1.57,1.57,0,0,1,.31-.18c-1.35-.46-2.68-.93-4-1.44-1-.37-1.93-.77-2.88-1.18l-.24-.1-.26.06a83.7,83.7,0,0,1-11.67,2,84.5,84.5,0,0,1-8.7.46q-2.17,0-4.26-.12c-9.7-.58-16.08-3.15-16.26-6.56-.24-4.53,13.63-8.83,17.53-9.69,3.6-.78,7.64-1.3,7.64-1.3s1.06-.14,2.08-.24a84.16,84.16,0,0,1,8.69-.46q2.17,0,4.26.12c7.11.42,9.92,1.36,11.74,2.23a24.41,24.41,0,0,1,3.23,1.89c2.46,1.63,5.88,3.39,9.08,7.22a1.42,1.42,0,0,0,.9.32,1.23,1.23,0,0,0,1-.42,1.32,1.32,0,0,0,.09-1.53,46.66,46.66,0,0,0-9.11-7.81,24.44,24.44,0,0,0-3.44-2c-1.95-.93-4.94-1.94-12.33-2.38-1.42-.09-2.87-.13-4.35-.13a87.64,87.64,0,0,0-8.86.47q-2.85.3-5.61.76c-4.86-3.94-7.3-7.73-6.07-10.28.92-1.91,3.76-2.83,7.8-2.83a51.29,51.29,0,0,1,13.88,2.36,88.82,88.82,0,0,1,9.29,3.33s16.45,6.74,20.85,13.67c1,1.52,1.91,3.22,1.91,3.22.5.89.79,1.45,1.37,2.54.39.75.92,1.75,1.58,2.95a29.85,29.85,0,0,1,17,8,30.21,30.21,0,0,1,8.35,15.82,6,6,0,0,0-2.45,3.16c-.89,2.45-.25,4.69.88,5.44a1.81,1.81,0,0,0,.37.18,2,2,0,0,0,1.05.06A20.47,20.47,0,0,1,312,78.62C307.72,87,299.41,89.78,296.66,90.67Z"/><path class="e" d="M298,63.35a1.4,1.4,0,0,1-.41,0c-1.36,0-3.12-1.51-3.73-4-.67-2.78.45-5.1,1.88-5.44a1.84,1.84,0,0,1,.41,0c1.36,0,3.12,1.51,3.73,4C300.55,60.69,299.43,63,298,63.35Z"/><path class="e" d="M288.12,72.39l-1.2-.53-.68-.3a5.52,5.52,0,0,0-2.26-.51,4.44,4.44,0,0,0-3.14,1.29l-.26,0a4.93,4.93,0,0,1-2-.6c-3-1.42-6.11-2.73-9.17-4.09-1.7-.76-2-1.41-1.64-3.2a1.49,1.49,0,0,0-1-2,1.89,1.89,0,0,0-.51-.07,1.58,1.58,0,0,0-1.44,1.19,5.31,5.31,0,0,0,2.69,6.59l.24.11,5.32,2.35c1.81.81,3.61,1.64,5.44,2.4a1.65,1.65,0,0,1,.8.6,4.73,4.73,0,0,0,3,4.68l.32.14a7.77,7.77,0,0,0,1.51.66l.09,0a5.51,5.51,0,0,0,2.13.45,4.82,4.82,0,0,0,1.74-9.23Zm-5.81,3.78a2,2,0,0,1,.18-1,2.23,2.23,0,0,1,.41-.62,6.15,6.15,0,0,0,.67-.42,1.84,1.84,0,0,1,.41,0,2.67,2.67,0,0,1,1,.25l1.85.82a1.66,1.66,0,0,1,1,2.35,1.6,1.6,0,0,1-1.51,1.15,2.5,2.5,0,0,1-1-.22l-.92-.41-.93-.41a2.57,2.57,0,0,1-.83-.56A2.08,2.08,0,0,1,282.31,76.17Z"/><path class="e" d="M267.45,61.72a6.81,6.81,0,0,0,1.82.78,7.17,7.17,0,0,0,2,.26,9.57,9.57,0,0,0,3.83-.85,14.73,14.73,0,0,0,6.44-5.86c3.56-5.83,3-12.47-1.38-15.11a7.23,7.23,0,0,0-3.83-1.06,10.45,10.45,0,0,0-5.77,1.93,10.45,10.45,0,0,0-6.66,10.87,12.21,12.21,0,0,0-.09,2.33A8.08,8.08,0,0,0,267.45,61.72Zm8.39-18.08a3.85,3.85,0,0,1,.48,0,3.75,3.75,0,0,1,1,.13,3.41,3.41,0,0,1,.86.36c2.46,1.51,2.53,6.09.14,10a10.87,10.87,0,0,1-4.75,4.39,6.12,6.12,0,0,1-2.35.54,3.53,3.53,0,0,1-1.85-.5,3.7,3.7,0,0,1-1.52-2h.32c2.37,0,5.08-1.71,6.82-4.56S277.06,45.74,275.84,43.64Zm-8.15,3.91a7,7,0,0,1,3.64-3.12l.4-.12.35-.24c.2-.14.41-.26.62-.38l.77,1.33c.64,1.09.57,3.36-.79,5.58s-3.29,3.26-4.49,3.26h-.14l-1.52-.1q0-.34.06-.72l.05-.42-.07-.41A7.06,7.06,0,0,1,267.69,47.55Z"/><path class="f" d="M192.2,64a13,13,0,0,0-5.63-1.28,12,12,0,0,0-8,2.93c-4,3.54-3.89,8.64-3.84,11.09,0,2.13.12,7.12,4.08,10.72a11.84,11.84,0,0,0,4,2.41,21.92,21.92,0,0,0,7.77-6.37,1.37,1.37,0,0,1,1.88-.27,28.57,28.57,0,0,0,3.33-6.76,31.56,31.56,0,0,0,1.74-7.54A12.68,12.68,0,0,0,192.2,64Z"/><path class="f" d="M171.7,117.08l-.09.29c-2.31,7.27-2.43,18.7,3.35,21.27a5.58,5.58,0,0,0,2,.48h.39c4.73,0,9.76-5,10.4-5.7a21.89,21.89,0,0,0,5.08-8.94,20.2,20.2,0,0,0-9.24-7.79,18.25,18.25,0,0,0-2-.69,1.37,1.37,0,0,1-1.62,1,17.71,17.71,0,0,0-4.22-.45A18.2,18.2,0,0,0,171.7,117.08Z"/><path class="f" d="M279.13,104.62c3.09-2.11,4.65-6.87,3.33-8.92-.62-1-1.58-.85-4.31-2.52a23,23,0,0,1-2.81-2,18.11,18.11,0,0,0-10.81,4.07,1.38,1.38,0,0,1,0,1.9,13.56,13.56,0,0,0-2.75,4,1.28,1.28,0,0,1-.11.2c4.3,2.74,8.91,4.51,12.7,4.51A8.33,8.33,0,0,0,279.13,104.62Z"/><path class="f" d="M288.47,41.3c-.66-1.2-1.19-2.2-1.58-2.95-.58-1.09-.87-1.65-1.37-2.54,0,0-.95-1.7-1.91-3.22-4.4-6.93-20.85-13.67-20.85-13.67a88.82,88.82,0,0,0-9.29-3.33,51.29,51.29,0,0,0-13.88-2.36c-4,0-6.88.92-7.8,2.83-1.23,2.55,1.21,6.34,6.07,10.28q2.76-.46,5.61-.76a87.64,87.64,0,0,1,8.86-.47c1.48,0,2.93,0,4.35.13,7.39.44,10.38,1.45,12.33,2.38a24.44,24.44,0,0,1,3.44,2,46.66,46.66,0,0,1,9.11,7.81,1.32,1.32,0,0,1-.09,1.53,1.23,1.23,0,0,1-1,.42,1.43,1.43,0,0,1-.29,0h0c.57.39,1.08.54,3.54,1,2,.4,3.26.63,4.7.9a42.92,42.92,0,0,1,5.34,1.19,18.15,18.15,0,0,0,2.28.77A35.77,35.77,0,0,0,288.47,41.3Z"/><path class="f" d="M267.69,47.55a7,7,0,0,1,3.64-3.12l.4-.12.35-.24c.2-.14.41-.26.62-.38l.77,1.33c.64,1.09.57,3.36-.79,5.58s-3.29,3.26-4.49,3.26h-.14l-1.52-.1q0-.34.06-.72l.05-.42-.07-.41A7.06,7.06,0,0,1,267.69,47.55Z"/><path class="f" d="M275.84,43.64a3.85,3.85,0,0,1,.48,0,3.75,3.75,0,0,1,1,.13,3.41,3.41,0,0,1,.86.36c2.46,1.51,2.53,6.09.14,10a10.87,10.87,0,0,1-4.75,4.39,6.12,6.12,0,0,1-2.35.54,3.53,3.53,0,0,1-1.85-.5,3.7,3.7,0,0,1-1.52-2h.32c2.37,0,5.08-1.71,6.82-4.56S277.06,45.74,275.84,43.64Z"/><path class="e" d="M403.44,108.84c0,5.46-2.92,8-8.38,8h-6.93v-16h6.93C400.52,100.85,403.44,103.38,403.44,108.84ZM393.27,113H395c2.26,0,3.23-1.28,3.23-3.46v-1.4c0-2.18-1-3.46-3.23-3.46h-1.69Z"/><path class="e" d="M406,103.13V100h4.63v3.14Zm0,13.7V104.57h4.63v12.26Z"/><path class="e" d="M424.58,105.59a3.31,3.31,0,0,1,1.44,2.65c0,2.74-2.41,4-5.16,4H419.1c-1.07,0-1.46.28-1.46.67s.27.72,1.46.72h4.18c2.83,0,4.13,1.65,4.13,3.93,0,2.74-2.41,4.2-5.15,4.2h-6.83a3,3,0,0,1-3.09-3,3.15,3.15,0,0,1,2-2.74,2.61,2.61,0,0,1-1.21-2.16,2.91,2.91,0,0,1,2.35-2.62,3.72,3.72,0,0,1-2-2.93c0-3,2.88-4,6.32-4a11.26,11.26,0,0,1,2,.14c1.84-1.14,1.82-2.16,1.82-2.16h3.8C427.41,104.27,426.35,105.13,424.58,105.59ZM416.73,118a1.15,1.15,0,0,0,1.21,1.18h3.62a1.15,1.15,0,0,0,1.23-1.16,1.14,1.14,0,0,0-1.23-1.14h-3.62A1.1,1.1,0,0,0,416.73,118Zm1.25-9.71c0,1,.65,1.53,1.75,1.53s1.78-.49,1.78-1.53-.69-1.54-1.78-1.54S418,107.19,418,108.24Z"/><path class="e" d="M429.27,103.13V100h4.63v3.14Zm0,13.7V104.57h4.63v12.26Z"/><path class="e" d="M445,104.57v3.13h-2.6v4.67c0,1,.26,1.61,1.3,1.61H445v2.71a11.39,11.39,0,0,1-3,.42c-2.51,0-4.25-.77-4.25-3.27V107.7h-1.72v-3.13H438l1-3.72h3.44v3.72Z"/><path class="e" d="M459.56,108.28v4.79c0,.51.24.91.75.91h.83v2.67a5.49,5.49,0,0,1-2.41.46c-1.86,0-3-.6-3.42-1.53a6.88,6.88,0,0,1-4.53,1.53c-2.55,0-4.32-.88-4.32-3.44,0-3.67,3.11-4.36,8.48-4.36v-.61c0-1-.79-1.46-1.79-1.46-.81,0-1.76.25-1.76,1.07v.09h-4.56a1.77,1.77,0,0,1,0-.32c0-2.26,2.21-3.79,6.41-3.79C456.59,104.29,459.56,105.26,459.56,108.28Zm-8.48,4.79c0,1,.79,1.16,1.58,1.16,1.19,0,2.28-.7,2.28-1.69v-1.05C452.2,111.49,451.08,112.16,451.08,113.07Z"/><path class="e" d="M462.81,116.83V100h4.63v16.84Z"/><path class="e" d="M481.37,116.83l-4.64-12.26h5l2.25,7.64h.17l2.25-7.64h4.55l-4.69,12.26Z"/><path class="e" d="M505,110.7v.79h-9.2c0,1.7.69,2.67,2.46,2.67s2.25-.79,2.25-1.79H505c0,2.93-2.23,4.74-6.65,4.74s-7.18-2-7.18-6.41,2.72-6.41,6.9-6.41C502.47,104.29,505,106.29,505,110.7Zm-9.18-1.39h4.51a1.91,1.91,0,0,0-2.07-2.07A2.16,2.16,0,0,0,495.8,109.31Z"/><path class="e" d="M516,104.54v3.88h-1.48c-2,0-2.72,1.1-2.72,3v5.46h-4.62V104.57H511l.3,1.86a3.44,3.44,0,0,1,3.37-2.16A3.15,3.15,0,0,1,516,104.54Z"/><path class="e" d="M526.86,104.57v3.13h-2.6v4.67c0,1,.25,1.61,1.3,1.61h1.3v2.71a11.47,11.47,0,0,1-3,.42c-2.51,0-4.25-.77-4.25-3.27V107.7h-1.72v-3.13h1.91l1-3.72h3.44v3.72Z"/><path class="e" d="M542.26,110.7v.79h-9.2c0,1.7.7,2.67,2.46,2.67s2.25-.79,2.25-1.79h4.49c0,2.93-2.23,4.74-6.65,4.74s-7.17-2-7.17-6.41,2.71-6.41,6.9-6.41C539.75,104.29,542.26,106.29,542.26,110.7Zm-9.18-1.39h4.51a1.91,1.91,0,0,0-2.07-2.07A2.16,2.16,0,0,0,533.08,109.31Z"/><path class="e" d="M544.65,103.13V100h4.62v3.14Zm0,13.7V104.57h4.62v12.26Z"/><path class="e" d="M552.39,116.83V100H557v16.84Z"/><path class="e" d="M568.13,104.57v3.13h-2.6v4.67c0,1,.26,1.61,1.3,1.61h1.3v2.71a11.39,11.39,0,0,1-3,.42c-2.51,0-4.25-.77-4.25-3.27V107.7h-1.72v-3.13h1.91l1-3.72h3.44v3.72Z"/><path class="e" d="M583.54,110.7v.79h-9.2c0,1.7.69,2.67,2.46,2.67s2.25-.79,2.25-1.79h4.49c0,2.93-2.23,4.74-6.65,4.74s-7.18-2-7.18-6.41,2.72-6.41,6.9-6.41C581,104.29,583.54,106.29,583.54,110.7Zm-9.18-1.39h4.51a1.91,1.91,0,0,0-2.07-2.07A2.16,2.16,0,0,0,574.36,109.31Z"/><path class="e" d="M597.47,108.24h-4.29a1,1,0,0,0-.61-.95,2.08,2.08,0,0,0-1-.24c-.4,0-1.68,0-1.68.79,0,1.77,7.92-.07,7.92,4.93,0,3.37-3,4.34-6.34,4.34-3.06,0-6.32-1.21-6.32-4.27h4.3v.09c0,1.18,1.35,1.42,2,1.42s1.93,0,1.93-.91c0-1.83-7.92-.16-7.92-5,0-3.23,2.93-4.16,6.16-4.16C594.5,104.29,597.47,105.33,597.47,108.24Z"/><path class="e" d="M624.6,108.84c0,5.46-3.18,8.27-8.64,8.27s-8.62-2.81-8.62-8.27,3.16-8.27,8.62-8.27S624.6,103.38,624.6,108.84Zm-12-.74v1.49c0,2.18,1.12,3.69,3.37,3.69s3.39-1.51,3.39-3.69V108.1c0-2.19-1.13-3.7-3.39-3.7S612.59,105.91,612.59,108.1Z"/><path class="e" d="M639.77,108.89v7.94h-4.62v-7.38c0-1-.53-1.75-1.56-1.75a1.88,1.88,0,0,0-1.92,1.93v7.2H627V104.57h3.79l.3,1.86a5.49,5.49,0,0,1,4.37-2.14C638.4,104.29,639.77,106,639.77,108.89Z"/><path class="e" d="M642.7,116.83V100h4.62v16.84Z"/><path class="e" d="M650.43,103.13V100h4.63v3.14Zm0,13.7V104.57h4.63v12.26Z"/><path class="e" d="M670.74,108.89v7.94h-4.63v-7.38c0-1-.53-1.75-1.55-1.75a1.89,1.89,0,0,0-1.93,1.93v7.2H658V104.57h3.78l.3,1.86a5.51,5.51,0,0,1,4.37-2.14C669.37,104.29,670.74,106,670.74,108.89Z"/><path class="e" d="M686.76,110.7v.79h-9.19c0,1.7.69,2.67,2.46,2.67s2.25-.79,2.25-1.79h4.48c0,2.93-2.23,4.74-6.64,4.74s-7.18-2-7.18-6.41,2.72-6.41,6.9-6.41C684.26,104.29,686.76,106.29,686.76,110.7Zm-9.17-1.39h4.51a1.91,1.91,0,0,0-2.07-2.07A2.16,2.16,0,0,0,677.59,109.31Z"/><path class="e" d="M688.51,112.28v-3.67h5.92v3.67Z"/><path class="e" d="M712.36,107.42h-4.9c0-1.83-1-3-2.81-3-2.18,0-3,1.51-3,3.7v1.49c0,2.18.88,3.69,3,3.69a2.67,2.67,0,0,0,3-2.93h4.74c0,4.39-2.81,6.76-7.69,6.76-5.46,0-8.29-2.81-8.29-8.27s2.83-8.27,8.29-8.27C709.32,100.57,712.36,103,712.36,107.42Z"/><path class="e" d="M723.26,104.29c2.9,0,4.27,1.69,4.27,4.6v7.94h-4.62v-7.38a1.54,1.54,0,0,0-1.56-1.75,1.89,1.89,0,0,0-1.93,1.93v7.2H714.8V100h4.62v5.86A5.45,5.45,0,0,1,723.26,104.29Z"/><path class="e" d="M742.7,108.28v4.79c0,.51.23.91.74.91h.84v2.67a5.52,5.52,0,0,1-2.42.46c-1.85,0-3-.6-3.41-1.53a6.88,6.88,0,0,1-4.53,1.53c-2.56,0-4.32-.88-4.32-3.44,0-3.67,3.11-4.36,8.48-4.36v-.61c0-1-.79-1.46-1.79-1.46-.81,0-1.77.25-1.77,1.07v.09H730a1.77,1.77,0,0,1,0-.32c0-2.26,2.2-3.79,6.41-3.79C739.73,104.29,742.7,105.26,742.7,108.28Zm-8.48,4.79c0,1,.79,1.16,1.58,1.16,1.19,0,2.28-.7,2.28-1.69v-1.05C735.34,111.49,734.22,112.16,734.22,113.07Z"/><path class="e" d="M759.05,110.7c0,4.3-2.74,6.41-6.92,6.41s-6.9-2.11-6.9-6.41,2.72-6.41,6.9-6.41S759.05,106.4,759.05,110.7Zm-9.2-.65v1.32c0,1.63.65,2.61,2.28,2.61s2.3-1,2.3-2.61v-1.32c0-1.63-.67-2.63-2.3-2.63S749.85,108.42,749.85,110.05Z"/><path class="e" d="M773,108.24h-4.3a1,1,0,0,0-.6-.95,2.12,2.12,0,0,0-1.05-.24c-.39,0-1.67,0-1.67.79,0,1.77,7.92-.07,7.92,4.93,0,3.37-3,4.34-6.34,4.34-3.07,0-6.32-1.21-6.32-4.27h4.3v.09c0,1.18,1.35,1.42,2,1.42s1.93,0,1.93-.91c0-1.83-7.92-.16-7.92-5,0-3.23,2.92-4.16,6.15-4.16C770,104.29,773,105.33,773,108.24Z"/><path class="d" d="M460.82,276.89V128.72h21.61V276.89Z"/><path class="e" d="M427.16,150.45c13.57,0,20,7.93,20,21.5v37.14H425.53V174.56c0-4.78-2.5-8.15-7.27-8.15a8.79,8.79,0,0,0-9,9v33.66H387.64V130.37h21.61v27.36A25.46,25.46,0,0,1,427.16,150.45Z"/><path class="e" d="M537.92,209.09l-1.85-8.15c-4.24,6.41-10.53,9.45-18.24,9.45-15.2,0-24.22-9.88-24.22-30.08,0-20,9-29.86,24.22-29.86,6.4,0,11.94,2.17,16.07,6.63V130.37h21.61v78.72Zm-22.7-31.49v5.75c0,6.74,2.61,11.08,9.34,11.08s9.56-5.43,9.56-12.16v-3.59c0-6.73-2.83-12.27-9.56-12.27S515.22,170.87,515.22,177.6Z"/><path class="e" d="M611.43,209.09l-1.85-8.15c-4.24,6.41-10.53,9.45-18.24,9.45-15.2,0-24.22-9.88-24.22-30.08,0-20,9-29.86,24.22-29.86,6.4,0,11.94,2.17,16.07,6.63V130.37H629v78.72Zm-22.7-31.49v5.75c0,6.74,2.61,11.08,9.34,11.08s9.56-5.43,9.56-12.16v-3.59c0-6.73-2.83-12.27-9.56-12.27S588.73,170.87,588.73,177.6Z"/><path class="e" d="M704.15,180.42v3.69h-43c0,7.93,3.25,12.49,11.51,12.49,7.71,0,10.53-3.69,10.53-8.36h20.95c0,13.68-10.42,22.15-31,22.15s-33.55-9.34-33.55-30c0-20.09,12.7-30,32.25-30C692.43,150.45,704.15,159.79,704.15,180.42Zm-42.88-6.51h21.06c0-6-3.58-9.67-9.66-9.67C665.39,164.24,662,167.93,661.27,173.91Z"/><path class="e" d="M774.08,172v37.14H752.47V174.56c0-4.78-2.49-8.15-7.27-8.15a8.79,8.79,0,0,0-9,9v33.66H714.58V151.76h17.7l1.41,8.68a25.62,25.62,0,0,1,20.41-10C767.68,150.45,774.08,158.38,774.08,172Z"/><path class="e" d="M254.83,236.71H234.75a4.63,4.63,0,0,0-2.83-4.45,10,10,0,0,0-4.88-1.08c-1.85,0-7.82,0-7.82,3.69,0,8.25,37-.33,37,23,0,15.74-13.9,20.3-29.65,20.3-14.33,0-29.53-5.64-29.53-20h20.09v.44c.11,5.54,6.29,6.62,9.44,6.62s9-.22,9-4.23c0-8.58-37-.76-37-23.35,0-15.09,13.68-19.43,28.77-19.43C240.94,218.26,254.83,223.14,254.83,236.71Z"/><path class="e" d="M328.45,248.22v3.7h-43c0,7.92,3.25,12.48,11.5,12.48,7.71,0,10.54-3.69,10.54-8.36h20.95c0,13.68-10.42,22.15-31.05,22.15s-33.55-9.34-33.55-30c0-20.08,12.7-30,32.25-30C316.73,218.26,328.45,227.59,328.45,248.22Zm-42.89-6.51h21.07c0-6-3.58-9.66-9.67-9.66C289.69,232.05,286.32,235.74,285.56,241.71Z"/><path class="e" d="M380.14,219.45v18.13h-6.95c-9.34,0-12.7,5.11-12.7,13.79v25.52H338.88V219.56h17.7l1.41,8.69c2.71-6.84,8.9-10.1,15.74-10.1A14.43,14.43,0,0,1,380.14,219.45Z"/><path class="e" d="M406.6,276.89l-19.73-57.33H408l9.57,35.72h.69l9.57-35.72h19.33l-19.93,57.33Z"/><path class="e" d="M555.51,242.69H535.19c0-6.74-3.79-9.78-10.31-9.78-7.37,0-10.32,4.67-10.32,12.27v6.19c0,7.6,3.05,12.16,10.74,12.16,6.84,0,10.73-2.93,10.73-10h19.48c0,17.48-13.69,24.64-30.63,24.64-18.95,0-31.27-9.88-31.27-30s12.32-30,31.27-30C541.82,218.26,555.51,225.21,555.51,242.69Z"/><path class="e" d="M629,248.22v3.7H587.82c0,7.92,3.12,12.48,11,12.48,7.38,0,10.09-3.69,10.09-8.36H629c0,13.68-10,22.15-29.74,22.15s-32.15-9.34-32.15-30c0-20.08,12.17-30,30.9-30C617.78,218.26,629,227.59,629,248.22Zm-41.08-6.51h20.18c0-6-3.44-9.66-9.26-9.66C591.88,232.05,588.66,235.74,587.93,241.71Z"/><path class="c" d="M312.82,140,319.87,130l21.7-6.13a1.82,1.82,0,0,0-1-3.5l-21.7,6.14-11.27-4.88a1.82,1.82,0,0,0-1.44,3.34l9.82,4.24-6.14,8.76a1.78,1.78,0,0,0-.26,1.54,1.73,1.73,0,0,0,.7,1A1.81,1.81,0,0,0,312.82,140Z"/><path class="c" d="M249.61,157.07a1.82,1.82,0,0,0-1.39-2.16L234.8,152l9.72-9.7a1.82,1.82,0,1,0-2.57-2.57L230.2,151.46l-32.84,9.64a1.81,1.81,0,0,0,1,3.48l32.84-9.64,16.23,3.52A1.82,1.82,0,0,0,249.61,157.07Z"/><path class="g" d="M149.85,145.61h0a8.55,8.55,0,0,0-1.16-2.33l-.11-.16c-1.59-2.7-3.23-5.39-4.89-8-5.62-8.85-8-11.35-9.1-12.55a37,37,0,0,0-5-4.39,36.45,36.45,0,0,0-5.34-3.23,86.37,86.37,0,0,0-11-4c-2.22-.65-4.49-1.21-6.77-1.67l-.74-.16.15.75c.19.9.57,2.67,1,4.35l.16.55a55.88,55.88,0,0,0,3.15,8,16,16,0,0,1,.91,2.13,3.28,3.28,0,0,1-1.38,3.84c-.58.35-2.64,1.31-4.64-1.25-.33-.43-.73-1-1.24-1.72a78,78,0,0,0-7.21-9c-.2-.22-.41-.43-.62-.64l-1.24-1.26.4,1.72c1.66,7.21,1,8.73-1.37,9.57s-3.78-.92-4.68-2.33a11.61,11.61,0,0,0-2.71-3.21c-1.34-1-3.33-2-11.46-1.65a101.45,101.45,0,0,0-13,1.41l-.64.12.27.59a35.21,35.21,0,0,0,5.65,8.59,66.76,66.76,0,0,0,5.91,5.61c2.56,2.22,3.84,3.34,4.29,4.85a3.43,3.43,0,0,1-.34,2.8,3.32,3.32,0,0,1-1.25,1.22l-.84.45.85.43c19.38,9.84,35.69,10.26,48.79,10.6,6.93.18,12.93.34,17.94,1.91l.1,0a7.58,7.58,0,0,0,2.14.43H145l.37,0,.2-.86a22,22,0,0,1,1.29-4.2,19.13,19.13,0,0,1,2.38-4.13c.62-.84.72-1,.79-1.5A3.85,3.85,0,0,0,149.85,145.61Z"/><path class="h" d="M149.42,188.41a7.4,7.4,0,0,0-1.36-2.19,18.38,18.38,0,0,1-3.39-6.26l-.06-.22a19.28,19.28,0,0,1-.64-6,11,11,0,0,0,0-1.74l-.08-.4-.32-.24a5,5,0,0,0-3.34-.41l-12.82.49c-5.87.23-12.73-.25-27.1-3.31A214.71,214.71,0,0,1,77.86,162c-8.48-2.7-13.6-4.32-22.19-3.55-1,.09-2.09.22-3.12.37l-2.21.33,1.72,1.43c1.51,1.26,2,2,2.18,2.79a3,3,0,0,1-.16,2.08c-.93,1.95-2.91,1.82-5.22,1.47l-.66-.1a58,58,0,0,0-6.56-.57l-1,0,0,1.06a6.61,6.61,0,0,0,.27,1.78,10.86,10.86,0,0,0,1.25,2.65,8,8,0,0,1,.92,1.91,3.23,3.23,0,0,1-.49,2.89c-1.19,1.58-2.91,1.35-4.59,1-.49-.11-1-.23-1.69-.32l-3-.41,2.2,2.12.67.61a5,5,0,0,1,1.73,2.32,3.11,3.11,0,0,1,0,1.71c-.58,2-2.44,2.37-4.29,2.56-.53.06-1.11.12-1.71.23l-4.19.82L32,188.31c1.37.37,2.75.88,3.21,2.5a1.89,1.89,0,0,1,.08.4c.3,2.09-1.36,3.15-2.93,4A14.92,14.92,0,0,0,29.5,197c-.2.17-.38.34-.57.52l-1.07,1.08,1.42.56a21.46,21.46,0,0,0,2,.69,26,26,0,0,0,5,.81c2,.17,3.77.47,4.31,2.39l.07.29c.38,2.31-1.5,3.29-4.41,4.52-1.68.71-4,1.69-6.83,3.2-1.24.66-2.14,1.18-3.51,2-.62.36-1.24.72-1.85,1.09l-2.24,1.35,2.56.49c.34.07.64.11.93.15a4.19,4.19,0,0,1,3.19,1.59,3.56,3.56,0,0,1,.56,1.16c.55,1.93.07,5-7.61,13.25-1.31,1.4-2.69,2.77-4.1,4.08L16,237.44l1.81.44a41.39,41.39,0,0,0,5.3.93c2.35.26,4.65.31,6.68.36,4.84.1,7.2.27,7.91,2.76l0,.21c.37,1.75-.76,2.86-1.9,3.71a8,8,0,0,0-1.41,1.25L33,248.81l2.24-.06c1.05,0,2.09-.1,3.11-.21a52.75,52.75,0,0,0,8.76-1.83c3.51-1,5.73-1.4,6.95.78a3.42,3.42,0,0,1,.27.65c.48,1.72-.62,3-1.6,4.13a22.11,22.11,0,0,0-2.47,3.29c-.17.28-.34.57-.49.86L48.93,258l1.75-.07c1.23-.06,2.47-.16,3.68-.29a68.84,68.84,0,0,0,13.5-3.1c4.5-1.42,7.13-2.11,8.75.25a3.18,3.18,0,0,1,.48,1c.51,1.8-.36,3.24-2.23,6.07-.7,1.07-1.58,2.39-2.54,4-.56.93-1.1,1.88-1.61,2.83l-1.41,2.62L72,270.08A76.83,76.83,0,0,0,82.94,264,79.72,79.72,0,0,0,96.33,252.5c17.51-18.31,49.45-57.64,50.8-59.31l.24-.26a5.85,5.85,0,0,0,2.13-3.7A2.41,2.41,0,0,0,149.42,188.41Z"/><path class="c" d="M271.91,120.52a31.37,31.37,0,0,0-16.8,10.59c-3.81,4.89-5.18,10.38-3.84,15.46a2.5,2.5,0,0,1,.07.26c1.41,5,5.26,9,10.89,11.3a33.1,33.1,0,0,0,36.63-9.65c3.82-4.89,5.18-10.38,3.84-15.46,0-.09-.05-.18-.07-.27a15.58,15.58,0,0,0-3.14-5.84,20.3,20.3,0,0,0-7.75-5.46A31.43,31.43,0,0,0,271.91,120.52Zm18.95,4.13a16.51,16.51,0,0,1,6.45,4.5,11.61,11.61,0,0,1,2.4,4.44l.06.2c1,3.94-.12,8.33-3.24,12.34a30.54,30.54,0,0,1-33.42,8.81c-4.62-1.92-7.76-5.1-8.85-8.95l0-.19c-1-4,.11-8.33,3.24-12.35a30.49,30.49,0,0,1,33.41-8.8Z"/><path class="g" d="M174,204.4a2.64,2.64,0,0,0-1-1.65,5.14,5.14,0,0,0-1.47-.54A20.28,20.28,0,0,1,166.2,200a22.66,22.66,0,0,1-4.8-3.66c-.24-.24-.54-.53-.71-.67l-.2-.16-.24.06a5.61,5.61,0,0,0-2.34,1.72,53.46,53.46,0,0,0-4.43,5.64l-.86,1.2a112.14,112.14,0,0,1-8,9.47,106.28,106.28,0,0,0-7.61,9c-6.66,9.22-15.61,20.2-26.6,32.64l-.76.85,1.15,0c.73,0,1.31-.09,1.82-.15a5.85,5.85,0,0,1,4.27.71,5.38,5.38,0,0,1,2.19,3.1c.61,2.18.2,4.81-.33,8.13-.25,1.61-.51,3.27-.68,5a43.37,43.37,0,0,0,.12,8.81l.11,1L119,282c2.25-2,4.49-4.14,6.68-6.28,3-2.93,4.5-4.39,5.46-5.49.73-.84,1.44-1.71,2.07-2.47,2.7-3.28,4.48-5.21,7-3.76a3.28,3.28,0,0,1,1.55,2,4.3,4.3,0,0,1,.1,1.67,9.32,9.32,0,0,0,0,1.13,6.48,6.48,0,0,0,0,.65l.12,1,.74-.73c.41-.42.82-.85,1.21-1.3a37.83,37.83,0,0,0,4.07-5.83c1.21-2,2.71-4.58,5.52-3.72a3.55,3.55,0,0,1,2.38,2.5,10.22,10.22,0,0,1,.22,2.72,27.92,27.92,0,0,0,.32,4.94l.16.91.68-.63a49.58,49.58,0,0,0,4.72-5,52.15,52.15,0,0,0,6.52-10.4c2.43-5.17,2.69-8.18,3.79-20.87.29-3.36.65-7.52,1.12-12.51l.13-1.34C174.27,212.52,174.78,207.22,174,204.4Z"/><path class="c" d="M262.64,139.9a1.53,1.53,0,0,1-.71-.18,1.59,1.59,0,0,1-.68-2.15,21,21,0,0,1,25.82-10,1.59,1.59,0,1,1-1.09,3,17.77,17.77,0,0,0-21.9,8.51A1.6,1.6,0,0,1,262.64,139.9Z"/><path class="i" d="M148.46,188.68a1.22,1.22,0,0,1,0,.49,4.87,4.87,0,0,1-1.82,3l-.17.16-.16.19c-.33.41-33.08,40.79-50.74,59.24a77.82,77.82,0,0,1-13.23,11.33,75.41,75.41,0,0,1-10.79,6c.51-.94,1-1.87,1.58-2.79,1-1.6,1.83-2.92,2.52-4,1.82-2.76,3-4.58,2.36-6.91h0a4.48,4.48,0,0,0-.61-1.31c-2.13-3.08-5.72-1.95-9.88-.64a67.9,67.9,0,0,1-13.31,3.06c-1.2.14-2.41.23-3.61.29.15-.28.3-.55.46-.82a21.59,21.59,0,0,1,2.38-3.16c1-1.18,2.43-2.81,1.8-5a4.19,4.19,0,0,0-.36-.87c-1.69-3-4.94-2.12-8.09-1.25a51.86,51.86,0,0,1-8.59,1.79q-1.52.17-3,.21a7,7,0,0,1,1.24-1.09c.78-.58,2.83-2.11,2.29-4.73l0-.15,0-.12c-.94-3.32-4.26-3.39-8.84-3.49-2,0-4.29-.1-6.6-.35a41.12,41.12,0,0,1-5.17-.91c1.43-1.32,2.82-2.7,4.15-4.13,8-8.58,8.5-11.89,7.85-14.2a5.08,5.08,0,0,0-.72-1.48,5.17,5.17,0,0,0-3.87-2L24.6,215l1.84-1.09c1.36-.79,2.26-1.31,3.48-2,2.81-1.49,5.09-2.45,6.75-3.16,2.6-1.1,5.55-2.34,5-5.6l0-.22-.05-.19c-.78-2.74-3.43-3-5.18-3.11a24.28,24.28,0,0,1-4.81-.78,20.26,20.26,0,0,1-1.95-.65c.17-.16.33-.32.51-.47a13.65,13.65,0,0,1,2.62-1.66c1.26-.67,3.88-2,3.47-5a4.54,4.54,0,0,0-.12-.53c-.65-2.31-2.77-2.89-3.91-3.2l-.18-.05c.57-.1,1.12-.16,1.63-.21,1.52-.16,4.33-.46,5.15-3.28a4.17,4.17,0,0,0,0-2.27,5.83,5.83,0,0,0-2-2.79c-.21-.19-.42-.37-.63-.58.59.08,1.13.2,1.62.31,1.36.3,3.91.87,5.59-1.36a4.23,4.23,0,0,0,.66-3.76,9.45,9.45,0,0,0-1-2.15,10,10,0,0,1-1.15-2.42,5.88,5.88,0,0,1-.23-1.52,56.24,56.24,0,0,1,6.45.56l.65.1c2,.3,4.95.75,6.27-2a4,4,0,0,0,.23-2.78,6.5,6.5,0,0,0-2.52-3.29c1-.15,2.05-.27,3.07-.37,8.39-.75,13.44.85,21.8,3.52a216.67,216.67,0,0,0,22.51,6.1c14.47,3.08,21.39,3.56,27.34,3.33l12.6-.47h.15l.16,0a4.13,4.13,0,0,1,2.62.23,10.57,10.57,0,0,1,0,1.55,20.3,20.3,0,0,0,.68,6.34l.06.22a19.16,19.16,0,0,0,3.56,6.58,7.42,7.42,0,0,1,1.19,1.86h0m3.5-1c-.73-2.58-3.44-4-4.76-8.48l-.06-.18c-1-3.65-.19-6.09-.72-8a3.31,3.31,0,0,0-.93-1.53c-1.52-1.46-3.88-1.46-5.62-1.24l-12.59.47c-6,.23-12.75-.34-26.46-3.25-24.84-5.28-30.31-11-45.39-9.69a57.08,57.08,0,0,0-11.65,2.31c3.73,2.32,7.64,4.92,7.93,6a.36.36,0,0,1,0,.23c-.19.4-1.41.14-3.12-.11a63.12,63.12,0,0,0-10.07-.62,11.11,11.11,0,0,0-.17,6.17v0c.63,2.22,1.92,3.68,2.17,4.55a.6.6,0,0,1-.06.58c-.47.63-2.05-.26-4.74-.45a14.68,14.68,0,0,0-5.29.61l.16.64a11.23,11.23,0,0,0,1.74,3.59c1.35,1.84,2.8,2.56,3,3.21a.42.42,0,0,1,0,.27c-.24.87-2.59.41-5.6,1.32a14.33,14.33,0,0,0-4.93,2.67,11.7,11.7,0,0,0,3.79,3.1c2.17,1.08,3.88,1,4.06,1.65a.11.11,0,0,0,0,.05c.11.84-2.42,1.33-4.85,3.4a13.14,13.14,0,0,0-3.41,4.62,23.73,23.73,0,0,0,6.24,2.77c4.26,1.18,7.27.7,7.46,1.37v0c.13.79-3.61,1.61-9.88,4.95-1.27.67-2.24,1.23-3.61,2-2.75,1.6-5.33,3.21-7.73,4.8.59.37,1.25.75,2,1.12,0,0,1.21.62,2.41,1.09,3.32,1.3,4.58.7,5.14,1.47a1.33,1.33,0,0,1,.16.34c.7,2.47-5.69,9.32-7,10.73a74.4,74.4,0,0,1-8.81,8,44.76,44.76,0,0,0,12.09,3.08c6.18.68,12,0,12.34,1.22v0c.16.75-1.9,1.24-3.41,3.63a9.35,9.35,0,0,0-1.36,4.91,41.84,41.84,0,0,0,8.22-.06c7.47-.81,12.52-3.45,13.12-2.39l0,.09c.21.72-1.8,2-3.79,5.34a22.68,22.68,0,0,0-2.58,6.31,55.56,55.56,0,0,0,9.24-.29c11.62-1.3,18.57-5.74,19.79-4a1,1,0,0,1,.12.23c.31,1.12-1.66,3.25-4.51,8a76,76,0,0,0-5.53,11.31,80.16,80.16,0,0,0,19.89-9.69,81.56,81.56,0,0,0,13.83-11.82c17.6-18.41,49.6-57.82,50.94-59.47a8.5,8.5,0,0,0,2.95-5.47,5.06,5.06,0,0,0-.17-1.69Z"/><path class="i" d="M149.27,146.27a3.49,3.49,0,0,1,.13,1.44c-.06.35-.09.43-.71,1.26a19.69,19.69,0,0,0-2.5,4.21,22.63,22.63,0,0,0-1.37,4.27c0,.15-.07.33-.11.48a6.51,6.51,0,0,1-2.09-.43l-.09,0c-5.06-1.65-11.09-1.89-18.06-2.15-13.06-.5-29.28-1.13-48.44-11.14a3.8,3.8,0,0,0,1.46-1.38,4,4,0,0,0,.43-3.2c-.47-1.66-1.78-2.82-4.38-5.14a65.51,65.51,0,0,1-5.8-5.63,34.66,34.66,0,0,1-5.46-8.54,100.4,100.4,0,0,1,13-1.25c8-.25,9.86.7,11.12,1.68a11.2,11.2,0,0,1,2.55,3.11c.56.9,2.26,3.65,5.24,2.6,2.83-1,3.34-3.1,1.81-10.13.21.21.41.43.61.64a76.5,76.5,0,0,1,7,9c.5.73.9,1.31,1.24,1.75,2.27,3,4.79,1.72,5.27,1.43a3.74,3.74,0,0,0,1.65-4.38,16.9,16.9,0,0,0-.91-2.22,55.78,55.78,0,0,1-3-8l-.15-.55c-.45-1.69-.81-3.47-1-4.33,2.26.49,4.5,1.07,6.7,1.74a84.91,84.91,0,0,1,10.94,4.16,35.4,35.4,0,0,1,10.06,7.63c1.1,1.2,3.4,3.7,8.89,12.58,1.62,2.62,3.23,5.32,4.79,8l0,.1.06.1a8.16,8.16,0,0,1,1.07,2.2m3.5-1a11.75,11.75,0,0,0-1.53-3.21c-1.92-3.35-3.59-6.12-4.85-8.15-5.51-8.91-7.91-11.6-9.3-13.12a40.24,40.24,0,0,0-5.35-4.84,39.57,39.57,0,0,0-5.8-3.6,90.06,90.06,0,0,0-23.55-7.14c.15,1.43.35,3,.64,4.6,0,0,.47,2.65,1.15,5.18,0,.2.11.4.16.6a89.46,89.46,0,0,0,3.93,10.18c0,.15,0,.24,0,.26-.4.24-3.56-5.67-9-11.58a58.59,58.59,0,0,0-9.58-8.26c3.52,13,3.9,16.59,3.3,16.8s-1.42-2.84-4.34-5.13c-2.34-1.84-5.37-2.71-13.48-2.47a105.52,105.52,0,0,0-17.8,2.1A38.86,38.86,0,0,0,65,131.22c4,4.54,9,8.09,9.41,9.37a.36.36,0,0,1,0,.29c-.31.5-2-.45-5-.27a14.3,14.3,0,0,0-4.62,1.09,105.54,105.54,0,0,0,9.1,5.44c30.37,16.08,54,9.37,67.55,13.78.93.3,3.77,1.3,5.64,0,1.53-1.1.92-2.67,2.48-6.23s3.1-3.94,3.47-6.38a6.94,6.94,0,0,0-.22-3Z"/><path class="i" d="M173.5,204.54h0c.77,2.72.27,8-.37,14.65l-.12,1.33c-.48,5-.84,9.2-1.13,12.56-1.09,12.58-1.35,15.57-3.74,20.66A51.68,51.68,0,0,1,161.68,264a47.54,47.54,0,0,1-4.67,5,26.69,26.69,0,0,1-.32-4.85,10.49,10.49,0,0,0-.24-2.85,4,4,0,0,0-2.71-2.85c-3.19-1-4.87,1.87-6.1,3.94a37.34,37.34,0,0,1-4,5.76c-.38.44-.78.86-1.19,1.27a5.68,5.68,0,0,1,0-.61,8.42,8.42,0,0,1,0-1.07,4.73,4.73,0,0,0-.12-1.85,3.8,3.8,0,0,0-1.78-2.28c-3.05-1.73-5.19.87-7.66,3.88-.63.76-1.34,1.63-2.07,2.46-.95,1.09-2.46,2.56-5.46,5.49-2.16,2.11-4.38,4.19-6.63,6.23a42.37,42.37,0,0,1-.12-8.71c.16-1.71.42-3.37.68-5,.53-3.38.95-6.06.31-8.34a5.94,5.94,0,0,0-2.39-3.39,6.38,6.38,0,0,0-4.61-.79c-.51.06-1.07.13-1.77.15,11-12.46,19.94-23.43,26.63-32.67a103.16,103.16,0,0,1,7.57-9,111.63,111.63,0,0,0,8-9.52l.9-1.25a52.81,52.81,0,0,1,4.35-5.54,5.37,5.37,0,0,1,2.1-1.58c.17.14.45.42.68.65a23.49,23.49,0,0,0,4.9,3.74,21.16,21.16,0,0,0,5.43,2.24,4.75,4.75,0,0,1,1.32.46c.15.11.51.35.8,1.38m3.5-1a5.81,5.81,0,0,0-2.26-3.39c-1.72-1.17-3.3-.73-7-2.85-4.31-2.48-4.63-4.5-6.77-4.84-3.77-.59-7.36,4.95-10.91,9.84-4.74,6.52-10.87,11.95-15.6,18.49-5.58,7.72-14.82,19.54-30.79,37.31a21.59,21.59,0,0,0,5.76,1.1c3.55.18,4.62-.66,5.72.06a2.3,2.3,0,0,1,.9,1.35c.67,2.37-.63,6.9-1.11,12a47.69,47.69,0,0,0,1.32,16c3.75-3.23,7.64-6.77,11.59-10.62,3.07-3,4.61-4.5,5.66-5.7,2.57-2.94,4.64-5.88,5.2-5.57a.23.23,0,0,1,.08.11c.07.25-.1.84-.06,2.06a13.64,13.64,0,0,0,.39,2.66c.08.36.17.72.27,1.06a18.74,18.74,0,0,0,1.14,3,30.62,30.62,0,0,0,5.81-5.13c4-4.56,5.37-8.91,6.32-8.62a.45.45,0,0,1,.27.36c.29,1-.24,4.08.68,8.41.13.59.26,1.14.41,1.65a26.56,26.56,0,0,0,1,2.95,52,52,0,0,0,9.42-8.94,55.34,55.34,0,0,0,6.94-11.06c3.38-7.19,2.94-10.64,5.2-34.42.75-8,1.38-13.73.37-17.31Z"/></svg>