<?xml version="1.0" encoding="UTF-8" standalone="no"?>
<svg
   xmlns:dc="http://purl.org/dc/elements/1.1/"
   xmlns:cc="http://creativecommons.org/ns#"
   xmlns:rdf="http://www.w3.org/1999/02/22-rdf-syntax-ns#"
   xmlns:svg="http://www.w3.org/2000/svg"
   xmlns="http://www.w3.org/2000/svg"
   xmlns:sodipodi="http://sodipodi.sourceforge.net/DTD/sodipodi-0.dtd"
   xmlns:inkscape="http://www.inkscape.org/namespaces/inkscape"
   width="66mm"
   height="39.498966mm"
   xml:space="preserve"
   id="svg2863"
   version="1.1"
   inkscape:version="0.91 r13725"
   sodipodi:docname="fsfe-sticker-print.svg"
   inkscape:export-filename="fsfe-sticker-print.png"
   inkscape:export-xdpi="300"
   inkscape:export-ydpi="300"
   inkscape:label="cutkontur"><title
     id="title4220">FSFE sticker</title><metadata
     id="metadata2906"><rdf:RDF><cc:Work
         rdf:about=""><dc:format>image/svg+xml</dc:format><dc:type
           rdf:resource="http://purl.org/dc/dcmitype/StillImage" /><dc:title>FSFE sticker</dc:title><cc:license
           rdf:resource="http://creativecommons.org/licenses/by-sa/3.0/" /><dc:creator><cc:Agent><dc:title>Jan-Christoph Borchardt</dc:title></cc:Agent></dc:creator></cc:Work><cc:License
         rdf:about="http://creativecommons.org/licenses/by-sa/3.0/"><cc:permits
           rdf:resource="http://creativecommons.org/ns#Reproduction" /><cc:permits
           rdf:resource="http://creativecommons.org/ns#Distribution" /><cc:requires
           rdf:resource="http://creativecommons.org/ns#Notice" /><cc:requires
           rdf:resource="http://creativecommons.org/ns#Attribution" /><cc:permits
           rdf:resource="http://creativecommons.org/ns#DerivativeWorks" /><cc:requires
           rdf:resource="http://creativecommons.org/ns#ShareAlike" /></cc:License></rdf:RDF></metadata><defs
     id="defs2904"><inkscape:perspective
       sodipodi:type="inkscape:persp3d"
       inkscape:vp_x="0 : 526.18127 : 1"
       inkscape:vp_y="0 : 1000 : 0"
       inkscape:vp_z="744.09497 : 526.18127 : 1"
       inkscape:persp3d-origin="372.04749 : 350.78752 : 1"
       id="perspective2908" /><clipPath
       style="fill:none"
       id="clp1-6"><path
         style="stroke:#000000;shape-rendering:crispEdges"
         inkscape:connector-curvature="0"
         d="m 0,0 595.276,0 0,841.89 -595.276,0 z"
         id="path5" /></clipPath></defs><sodipodi:namedview
     pagecolor="#ffffff"
     bordercolor="#cecece"
     borderopacity="1"
     objecttolerance="10"
     gridtolerance="10"
     guidetolerance="10"
     inkscape:pageopacity="0"
     inkscape:pageshadow="2"
     inkscape:window-width="1680"
     inkscape:window-height="994"
     id="namedview2902"
     showgrid="false"
     inkscape:zoom="2.5371819"
     inkscape:cx="138.11081"
     inkscape:cy="15.939556"
     inkscape:window-x="-4"
     inkscape:window-y="-4"
     inkscape:window-maximized="1"
     inkscape:current-layer="layer1"
     fit-margin-top="3"
     fit-margin-left="3"
     fit-margin-right="3"
     fit-margin-bottom="3"
     inkscape:showpageshadow="false"
     showborder="true"
     units="mm" /><clipPath
     id="clp1"
     style="fill:none"><path
       d="m 0,0 595.276,0 0,841.89 -595.276,0 z"
       id="path2866"
       inkscape:connector-curvature="0"
       style="stroke:#000000;shape-rendering:crispEdges" /></clipPath><g
     inkscape:groupmode="layer"
     id="layer2"
     inkscape:label="motiv"
     style="display:inline"
     transform="translate(10.629921,-162.7411)"><path
       style="color:#000000;font-style:normal;font-variant:normal;font-weight:normal;font-stretch:normal;font-size:medium;line-height:normal;font-family:sans-serif;text-indent:0;text-align:start;text-decoration:none;text-decoration-line:none;text-decoration-style:solid;text-decoration-color:#000000;letter-spacing:normal;word-spacing:normal;text-transform:none;direction:ltr;block-progression:tb;writing-mode:lr-tb;baseline-shift:baseline;text-anchor:start;white-space:normal;clip-rule:nonzero;display:inline;overflow:visible;visibility:visible;opacity:1;isolation:auto;mix-blend-mode:normal;color-interpolation:sRGB;color-interpolation-filters:linearRGB;solid-color:#000000;solid-opacity:1;fill:#ffffff;fill-opacity:1;fill-rule:nonzero;stroke:none;stroke-width:40;stroke-linecap:butt;stroke-linejoin:miter;stroke-miterlimit:4;stroke-dasharray:none;stroke-dashoffset:0;stroke-opacity:1;color-rendering:auto;image-rendering:auto;shape-rendering:auto;text-rendering:auto;enable-background:accumulate"
       d="m 37.03671,173.37962 c -1.659032,0.0616 -3.268409,0.44632 -4.749029,1.11126 -2.957442,1.32817 -5.441709,3.83274 -6.686588,7.05885 l -0.407195,1.05411 -1.432726,15.55203 -5.16099,6.86914 -5.705505,-1.62799 -1.145387,0.002 c -3.20273,0.007 -6.1852749,1.34771 -8.2852075,3.46077 -2.1006888,2.11383 -3.41142517,5.08732 -3.41790729,8.26537 l -0.0024384,1.13189 3.2369323,11.48483 -3.27820651,11.49515 -0.0024384107,1.12792 C -0.00647825,243.54701 1.2989424,246.5377 3.4060239,248.65933 l 8.128e-4,8.1e-4 0.00163,8.2e-4 c 2.1096334,2.12287 5.1126,3.45702 8.3145737,3.45044 l 1.141421,-0.002 11.402279,-3.2925 1.703395,0.48578 c -0.321794,1.79116 -0.20892,3.68801 0.473873,5.47532 l 0.403228,1.05569 3.86955,5.18401 0.573884,6.4556 0.403229,1.0549 c 0.986122,2.58133 2.982922,4.6135 5.364191,5.68328 2.382318,1.07026 5.253366,1.21576 7.854198,0.21273 l 1.066806,-0.41117 5.124475,-3.87669 6.388134,-0.56754 1.069187,-0.41275 c 2.596386,-1.00328 4.618237,-3.03273 5.666612,-5.41023 0.600293,-1.65372 2.203025,-1.83412 2.313002,0.34609 l 0,16.52675 c 0,6.22783 5.222072,11.44991 11.449905,11.44991 6.22663,0 11.449902,-5.22265 11.449902,-11.44991 l 0,-2.85037 c 0.412079,1.06998 0.903525,2.13568 1.585131,3.21946 l 0.04921,0.0786 0.05159,0.077 c 3.54173,5.35559 11.444028,10.88078 23.126028,10.88078 l 0.0413,0 0.4318,-0.005 c 6.8349,0 13.05009,-1.77832 17.82375,-5.54041 1.69766,-1.33791 3.15713,-2.96375 4.35057,-4.76967 0.57297,5.72999 5.48168,10.35929 11.33719,10.35929 6.22663,0 11.4499,-5.22265 11.4499,-11.44991 l 0,-3.56871 c 1.19647,2.40632 2.687,4.61965 4.52282,6.54688 5.34152,5.60747 13.06564,8.42808 21.22578,8.42808 11.68201,0 19.58431,-5.5252 23.12603,-10.88078 l 0.0516,-0.077 0.0492,-0.0786 c 0.99364,-1.57996 1.66383,-3.11318 2.10265,-4.69586 0.95965,-3.19777 0.3879,-6.60446 -1.37637,-9.30915 0.97597,-1.06097 1.79518,-2.27407 2.25823,-3.45521 0.84349,-2.15156 0.95171,-3.98428 0.95171,-5.73091 l 0,-0.28019 -0.0191,-0.2794 c -0.5313,-7.69829 -3.04589,-14.70059 -7.8526,-19.87561 -4.80672,-5.17501 -11.85733,-8.06216 -19.29141,-8.06216 -5.84236,0 -11.17093,1.63367 -15.53774,4.35613 -0.8116,-1.07696 -1.79441,-2.0114 -2.92975,-2.74243 3.09728,-1.99442 5.20148,-5.45409 5.20148,-9.33534 0,-6.04487 -5.07324,-11.11811 -11.11812,-11.11811 l -3.51316,0 c -5.26302,0 -10.62163,1.45175 -14.69239,5.16099 -3.75691,3.42326 -5.72798,8.51117 -6.02221,13.77877 -2.72001,0.60469 -5.08327,2.23842 -6.67547,4.45297 -3.95584,-2.49269 -9.13555,-4.28989 -15.50361,-4.28787 l -0.23416,-8.1e-4 -0.0127,0 c -5.5624,0 -10.6963,1.29336 -14.939245,3.85844 -0.776549,-0.97553 -1.686792,-1.83209 -2.736867,-2.50826 3.097768,-1.99434 5.202262,-5.45451 5.202262,-9.33614 0,-6.04487 -5.073237,-11.11812 -11.118112,-11.11812 l -3.513155,0 c -5.263022,0 -10.622248,1.45193 -14.693186,5.161 -2.928892,2.19662 -3.427092,1.22169 -3.032143,0.0841 l 9.398847,-12.51195 0.406402,-1.05331 c 1.245298,-3.22721 1.086447,-6.76363 -0.227016,-9.73857 -1.313187,-2.97432 -3.833315,-5.49178 -7.084256,-6.73262 l -1.067598,-0.4072 -15.485354,-1.32636 -12.399232,-9.31868 -1.068395,-0.40798 c -1.625471,-0.62098 -3.340472,-0.89046 -5.003827,-0.82869 z"
       id="background"
       inkscape:connector-curvature="0"
       sodipodi:nodetypes="csccccccscccccccccccccccccscccccccsssccccsccscsscsscccccssccssccssssccccsccsssccccsccccccc"
       inkscape:export-filename="fsfe-sticker-single.png"
       inkscape:export-xdpi="90"
       inkscape:export-ydpi="90"
       inkscape:label="background"><title
         id="title8180">background</title></path><g
       id="logo"
       inkscape:export-filename="fsfe-sticker-single.png"
       inkscape:export-xdpi="90"
       inkscape:export-ydpi="90"
       transform="matrix(0.40640217,0,0,0.40640217,-42.67209,130.69866)"
       inkscape:label="logo"><title
         id="title8174">logo</title><g
         transform="translate(122.92502,123.08961)"
         id="g2870"
         style="fill:none"><path
           d="m 2.189,84.694 c 0.005,-2.452 0.996,-4.673 2.595,-6.282 1.599,-1.609 3.807,-2.607 6.243,-2.612 0,0 30.84,8.801 30.84,8.801 0,0 30.873,-8.915 30.873,-8.915 2.436,-0.004 4.639,0.985 6.233,2.589 1.594,1.604 2.577,3.821 2.572,6.272 0,0 -8.859,31.069 -8.859,31.069 0,0 8.745,31.037 8.745,31.037 -0.004,2.451 -0.996,4.672 -2.595,6.282 -1.599,1.61 -3.806,2.607 -6.242,2.612 0,0 -30.841,-8.801 -30.841,-8.801 0,0 -30.873,8.915 -30.873,8.915 -2.436,0.005 -4.64,-0.985 -6.233,-2.588 -1.593,-1.604 -2.577,-3.821 -2.572,-6.273 0,0 8.859,-31.069 8.859,-31.069 0,0 -8.745,-31.037 -8.745,-31.037 z"
           id="path2872"
           inkscape:connector-curvature="0"
           style="fill:#4ad2f0" /></g><g
         transform="translate(122.92502,123.08961)"
         id="g2874"
         style="fill:none"><path
           d="m 63.727,9.234 c 1.131,-2.931 3.337,-5.132 5.989,-6.323 2.652,-1.191 5.751,-1.371 8.667,-0.257 0,0 32.85,24.689 32.85,24.689 0,0 41.024,3.513 41.024,3.513 2.916,1.113 5.097,3.309 6.267,5.959 1.17,2.65 1.328,5.754 0.197,8.685 0,0 -24.863,33.098 -24.863,33.098 0,0 -3.791,41.142 -3.791,41.142 -1.131,2.93 -3.337,5.132 -5.989,6.323 -2.652,1.191 -5.75,1.371 -8.667,0.258 0,0 -32.85,-24.69 -32.85,-24.69 0,0 -41.024,-3.513 -41.024,-3.513 -2.916,-1.113 -5.098,-3.309 -6.267,-5.959 -1.17,-2.65 -1.327,-5.754 -0.196,-8.685 0,0 24.863,-33.097 24.863,-33.097 0,0 3.79,-41.143 3.79,-41.143 z"
           id="path2876"
           inkscape:connector-curvature="0"
           style="fill:#d0f400" /></g><g
         transform="translate(122.92502,123.08961)"
         id="g2878"
         style="fill:none"><path
           d="m 65.827,175.084 c -0.51,-1.335 -0.434,-2.752 0.1,-3.962 0.534,-1.21 1.527,-2.214 2.853,-2.726 0,0 18.628,-1.653 18.628,-1.653 0,0 14.944,-11.305 14.944,-11.305 1.325,-0.512 2.731,-0.433 3.934,0.107 1.203,0.54 2.201,1.542 2.711,2.877 0,0 1.67,18.765 1.67,18.765 0,0 11.247,15.068 11.247,15.068 0.51,1.335 0.434,2.751 -0.1,3.962 -0.534,1.211 -1.527,2.215 -2.852,2.727 0,0 -18.628,1.653 -18.628,1.653 0,0 -14.944,11.305 -14.944,11.305 -1.325,0.511 -2.732,0.433 -3.934,-0.107 -1.202,-0.54 -2.201,-1.542 -2.711,-2.877 0,0 -1.67,-18.764 -1.67,-18.764 0,0 -11.248,-15.07 -11.248,-15.07 z"
           id="path2880"
           inkscape:connector-curvature="0"
           style="fill:#3394ce" /></g><g
         transform="translate(122.92502,123.08961)"
         id="g2882"
         style="fill:none"><path
           d="m 35.575,82.806 6.292,1.795 c 0,0 30.873,-8.915 30.873,-8.915 2.436,-0.004 4.639,0.985 6.233,2.589 1.594,1.604 2.577,3.821 2.572,6.272 0,0 -4.73,16.59 -4.73,16.59 0,0 -35.278,-3.021 -35.278,-3.021 -2.916,-1.113 -5.098,-3.309 -6.267,-5.959 -1.17,-2.65 -1.327,-5.754 -0.196,-8.685 -10e-4,0.002 0.501,-0.666 0.501,-0.666 z"
           id="path2884"
           inkscape:connector-curvature="0"
           style="fill:#6bb340" /></g><g
         transform="translate(122.92502,123.08961)"
         id="g2886"
         style="fill:none"><path
           d="m 182.238,121.084 c 0,0 -0.085,18.031 -0.085,18.031 0,0 23.358,0 23.358,0 4.063,0 7.357,3.294 7.357,7.357 0,4.063 -3.294,7.357 -7.357,7.357 0,0 -23.358,0 -23.358,0 0,0 0,91.975 0,91.975 0,4.515 -3.66,8.174 -8.174,8.174 -4.514,0 -8.174,-3.66 -8.174,-8.174 0,0 0,-91.975 0,-91.975 0,0 -14.164,0 -14.164,0 -4.063,0 -7.357,-3.294 -7.357,-7.357 0,-4.063 3.294,-7.357 7.357,-7.357 0,0 13.962,0 13.962,0 0,0 0,-16.11 0,-16.11 0,-19.822 12.463,-29.833 31.265,-29.833 0,0 8.644,0 8.644,0 4.063,0 7.357,3.294 7.357,7.357 0,4.063 -3.294,7.357 -7.357,7.357 0,0 -8.644,0 -8.644,0 -11.105,0.001 -14.63,3.987 -14.63,13.198 z"
           id="path2888"
           inkscape:connector-curvature="0"
           style="fill:#202d79" /></g><g
         transform="translate(122.92502,123.08961)"
         id="g2890"
         style="fill:none"><path
           d="m 355.087,121.084 c 0,0 -0.085,18.031 -0.085,18.031 0,0 23.358,0 23.358,0 4.063,0 7.357,3.294 7.357,7.357 0,4.063 -3.294,7.357 -7.357,7.357 0,0 -23.358,0 -23.358,0 0,0 0,91.975 0,91.975 0,4.515 -3.66,8.174 -8.174,8.174 -4.514,0 -8.174,-3.66 -8.174,-8.174 0,0 0,-91.975 0,-91.975 0,0 -14.165,0 -14.165,0 -4.063,0 -7.357,-3.294 -7.357,-7.357 0,-4.063 3.294,-7.357 7.357,-7.357 0,0 13.962,0 13.962,0 0,0 0,-16.11 0,-16.11 0,-19.822 12.463,-29.833 31.265,-29.833 0,0 8.644,0 8.644,0 4.063,0 7.357,3.294 7.357,7.357 0,4.063 -3.294,7.357 -7.357,7.357 0,0 -8.644,0 -8.644,0 -11.103,0.001 -14.629,3.987 -14.629,13.198 z"
           id="path2892"
           inkscape:connector-curvature="0"
           style="fill:#202d79" /></g><g
         transform="translate(122.92502,123.08961)"
         id="g2894"
         style="fill:none"><path
           d="m 402.657,187.03 c 0,0 66.916,0 66.916,0 -2.767,-22.476 -15.458,-32.213 -31.211,-32.213 -19.651,0 -32.445,12.228 -35.705,32.213 z m 35.995,51.454 c 17.733,0 25.347,-9.427 28.229,-13.146 0,0 3.535,-4.626 5.499,-5.205 1.793,-0.52 3.782,-0.369 5.56,0.577 3.228,1.716 4.673,5.471 3.593,8.833 -0.468,1.793 -1.401,4.061 -2.95,6.524 -5.313,8.034 -17.115,17.804 -40.222,17.804 -31.579,0 -51.811,-20.318 -51.811,-55.31 0,-30.331 15.947,-59.032 51.811,-59.032 27.191,0 44.701,19.157 46.838,50.121 0,11.645 -4.845,12.094 -17.925,12.094 0,0 -65.328,0 -65.328,0 1.495,33.113 24.433,36.74 36.706,36.74 z"
           id="path2896"
           inkscape:connector-curvature="0"
           style="fill:#202d79" /></g><g
         transform="translate(122.92502,123.08961)"
         id="g2898"
         style="fill:none"><path
           d="m 221.995,172.263 c 0,-17.939 15.942,-32.083 41.568,-32.083 0,0 0.614,0.002 0.614,0.002 22.041,-0.007 33.241,9.637 38.283,17.567 1.47,2.431 2.356,4.67 2.8,6.44 1.025,3.318 -0.347,7.025 -3.41,8.719 -1.688,0.934 -3.576,1.083 -5.277,0.57 -1.864,-0.571 -5.219,-5.138 -5.219,-5.138 -1.978,-2.653 -6.306,-8.254 -14.907,-11.153 -3.725,-1.182 -7.918,-1.815 -12.884,-1.815 -15.942,0 -25.426,6.519 -25.426,16.487 0,7.143 5.046,12.913 13.723,14.729 0,0 27.439,5.85 27.439,5.85 14.933,3.229 28.049,10.949 28.049,28.655 0,18.78 -16.343,32.765 -42.978,32.765 0,0 -1.164,0.011 -1.164,0.011 -23.107,0 -34.909,-9.77 -40.222,-17.804 -1.549,-2.463 -2.483,-4.731 -2.95,-6.524 -1.08,-3.362 0.365,-7.117 3.593,-8.833 1.778,-0.945 3.768,-1.096 5.561,-0.577 1.964,0.579 5.499,5.205 5.499,5.205 2.098,2.706 6.703,8.436 15.888,11.354 4.051,1.286 8.664,1.955 13.795,1.955 17.756,0 26.635,-7.081 26.635,-16.949 0,-6.758 -5.046,-12.51 -13.319,-14.326 0,0 -28.249,-5.85 -28.249,-5.85 -14.933,-3.028 -27.442,-11.989 -27.442,-29.257 z"
           id="path2900"
           inkscape:connector-curvature="0"
           style="fill:#202d79" /></g></g></g><g
     inkscape:groupmode="layer"
     id="layer1"
     inkscape:label="cutkontur"
     style="display:inline"
     transform="translate(10.629921,-162.7411)"><path
       inkscape:export-ydpi="90"
       inkscape:export-xdpi="90"
       inkscape:export-filename="fsfe-sticker-single.png"
       sodipodi:nodetypes="csccccccscccccccccccccccccscccccccsssccccsccscsscsscccccssccssccssssccccsccsssccccsccccccc"
       inkscape:connector-curvature="0"
       id="cutkontur"
       d="m 36.8625,174.20041 c -1.651227,0.0612 -3.253034,0.44323 -4.726691,1.10357 -2.94353,1.31899 -5.416113,3.80624 -6.655136,7.01004 l -0.405279,1.04682 -1.425987,15.44448 -5.136715,6.82164 -5.678668,-1.61673 -1.14,0.002 c -3.1876647,0.007 -6.1561806,1.33838 -8.246236,3.43684 -2.0908077,2.0992 -3.39537886,5.05214 -3.40183048,8.2082 l -0.0024269,1.12407 3.22170678,11.40541 -3.26278685,11.41565 -0.0024269405,1.12013 c -0.0064718895,3.16003 1.2928084905,6.13004 3.3899788905,8.237 l 8.09e-4,8e-4 0.00162,8.1e-4 c 2.0997106,2.10819 5.0885522,3.43311 8.2754645,3.42659 l 1.136052,-0.002 11.348647,-3.26973 1.695382,0.48242 c -0.32028,1.77877 -0.207937,3.66251 0.471644,5.43745 l 0.401331,1.04839 3.851349,5.14816 0.571186,6.41097 0.401331,1.0476 c 0.981485,2.56347 2.968893,4.58159 5.338961,5.64398 2.371111,1.06285 5.228655,1.20735 7.817253,0.21125 l 1.061788,-0.40832 5.100371,-3.84989 6.358087,-0.5636 1.064158,-0.4099 c 2.584173,-0.99635 4.596514,-3.01176 5.639958,-5.37282 0.597469,-1.64228 2.192662,-1.82144 2.302121,0.34369 l 0,16.41247 c 0,6.18476 5.19751,11.37072 11.396049,11.37072 6.197342,0 11.396045,-5.18653 11.396045,-11.37072 l 0,-2.83066 c 0.410141,1.06258 0.899276,2.12091 1.577675,3.1972 l 0.04898,0.078 0.05135,0.0765 c 3.525071,5.31855 11.390196,10.80554 23.017256,10.80554 l 0.0411,0 0.42977,-0.005 c 6.80275,0 12.98871,-1.76602 17.73991,-5.50209 1.68967,-1.32866 3.14228,-2.94325 4.3301,-4.73669 0.57028,5.69037 5.4559,10.28765 11.28387,10.28765 6.19734,0 11.39605,-5.18653 11.39605,-11.37072 l 0,-3.54404 c 1.19084,2.38968 2.67435,4.58771 4.50154,6.50161 5.31639,5.5687 13.00419,8.3698 21.12594,8.3698 11.62706,0 19.49219,-5.48699 23.01725,-10.80554 l 0.0514,-0.0765 0.049,-0.078 c 0.98897,-1.56903 1.65601,-3.09164 2.09277,-4.66337 0.95513,-3.17566 0.38608,-6.55879 -1.3699,-9.24478 0.97138,-1.05364 1.78674,-2.25835 2.24761,-3.43131 0.83952,-2.13669 0.94724,-3.95673 0.94724,-5.69128 l 0,-0.27826 -0.019,-0.27747 c -0.52881,-7.64504 -3.03157,-14.59892 -7.81568,-19.73815 -4.7841,-5.13923 -11.80155,-8.00641 -19.20066,-8.00641 -5.81488,0 -11.11838,1.62237 -15.46466,4.326 -0.80778,-1.06951 -1.78596,-1.99749 -2.91596,-2.72346 3.0827,-1.98063 5.17701,-5.41637 5.17701,-9.27078 0,-6.00307 -5.04938,-11.04123 -11.06582,-11.04123 l -3.49664,0 c -5.23826,0 -10.57167,1.44172 -14.62328,5.1253 -3.73924,3.39958 -5.70104,8.45231 -5.99389,13.68349 -2.70721,0.6005 -5.05935,2.22294 -6.64407,4.42217 -3.93723,-2.47545 -9.09258,-4.26022 -15.43068,-4.25821 l -0.23306,-8.1e-4 -0.0126,0 c -5.53624,0 -10.64599,1.28442 -14.868974,3.83176 -0.772897,-0.96879 -1.678859,-1.81942 -2.723994,-2.49092 3.083198,-1.98054 5.177798,-5.41679 5.177798,-9.27157 0,-6.00307 -5.04938,-11.04123 -11.065821,-11.04123 l -3.496631,0 c -5.238267,0 -10.572284,1.44188 -14.624074,5.1253 -2.915115,2.18143 -3.410972,1.21324 -3.01788,0.0836 l 9.354637,-12.42542 0.404491,-1.04603 c 1.23944,-3.20489 1.081337,-6.71686 -0.225948,-9.67122 -1.307011,-2.95375 -3.815285,-5.4538 -7.050935,-6.68606 l -1.062576,-0.40439 -15.412515,-1.31719 -12.34091,-9.25423 -1.06337,-0.40516 c -1.617825,-0.61669 -3.324759,-0.8843 -4.98029,-0.82296 z"
       style="color:#000000;font-style:normal;font-variant:normal;font-weight:normal;font-stretch:normal;font-size:medium;line-height:normal;font-family:sans-serif;text-indent:0;text-align:start;text-decoration:none;text-decoration-line:none;text-decoration-style:solid;text-decoration-color:#000000;letter-spacing:normal;word-spacing:normal;text-transform:none;direction:ltr;block-progression:tb;writing-mode:lr-tb;baseline-shift:baseline;text-anchor:start;white-space:normal;clip-rule:nonzero;display:inline;overflow:visible;visibility:visible;opacity:1;isolation:auto;mix-blend-mode:normal;color-interpolation:sRGB;color-interpolation-filters:linearRGB;solid-color:#000000;solid-opacity:1;fill:none;fill-opacity:1;fill-rule:nonzero;stroke:#ff00ff;stroke-width:0.1;stroke-linecap:round;stroke-linejoin:round;stroke-miterlimit:4;stroke-dasharray:none;stroke-dashoffset:0;stroke-opacity:1;color-rendering:auto;image-rendering:auto;shape-rendering:auto;text-rendering:auto;enable-background:accumulate"
       inkscape:label="cutkontur"><title
         id="title8154">cutkontur</title></path></g></svg>